<svg xmlns="http://www.w3.org/2000/svg" xmlns:xlink="http://www.w3.org/1999/xlink" width="612" height="612" viewBox="0 0 612 612">
  <defs>
    <filter id="Ellipse_489" x="0" y="0" width="612" height="612" filterUnits="userSpaceOnUse">
      <feOffset dy="3" input="SourceAlpha"/>
      <feGaussianBlur stdDeviation="7" result="blur"/>
      <feFlood flood-color="#ffcfcf" flood-opacity="0.012"/>
      <feComposite operator="in" in2="blur"/>
      <feComposite in="SourceGraphic"/>
    </filter>
  </defs>
  <g id="ruby-on-rails_2" data-name="ruby-on-rails 2" transform="translate(-4062 990)">
    <g id="django_2" data-name="django 2" transform="translate(4083 -972)">
      <g id="codeigniter_2" data-name="codeigniter 2">
        <g id="react-native_2" data-name="react-native 2">
          <g id="laraval_2" data-name="laraval 2">
            <g transform="matrix(1, 0, 0, 1, -21, -18)" filter="url(#Ellipse_489)">
              <circle id="Ellipse_489-2" data-name="Ellipse 489" cx="285" cy="285" r="285" transform="translate(21 18)" fill="#f8f7f7"/>
            </g>
            <circle id="Ellipse_488" data-name="Ellipse 488" cx="235" cy="235" r="235" transform="translate(50 50)" fill="#f3f3f3"/>
            <circle id="Ellipse_487" data-name="Ellipse 487" cx="183" cy="183" r="183" transform="translate(102 102)" fill="#eee"/>
            <path id="Path_19249" data-name="Path 19249" d="M119.179,0A119.179,119.179,0,1,1,0,119.179,119.179,119.179,0,0,1,119.179,0Z" transform="translate(165.821 165.821)" fill="#e9e9e9"/>
          </g>
        </g>
      </g>
    </g>
    <g id="rails-1" transform="translate(4179.902 -763.347)">
      <path id="Path_12" data-name="Path 12" d="M333.8,118.452v17.2h31.07a17.769,17.769,0,0,0,17.674-17.674v-6.652a17.549,17.549,0,0,0-17.674-17.674H349.379V85.669h30.693V68.38H350.612a18.085,18.085,0,0,0-17.769,17.961v5.986c0,11.688,10.071,17.674,17.769,17.674,21.38.1-5.131,0,14.634,0v8.363m-197.932-4.092s16.63-1.425,16.63-22.9S163.8,67.9,163.8,67.9H127.5v67.751h18.244V119.308l15.779,16.344h26.986ZM160.283,100.4H145.744V84.909h14.634s4.086,1.521,4.086,7.7S160.283,100.4,160.283,100.4Zm68.7-32.022H210.455c-13.209,0-17.674,11.973-17.674,17.674v49.6h18.53V123.773H228.7V135.65H246.66v-49.6c0-14.436-13.113-17.674-17.674-17.674Zm-.285,36.2H211.215V88.14s0-3.706,5.8-3.706h6.367c5.131,0,5.227,3.706,5.227,3.706v16.438h.1Zm26.416-36.2H274.4V135.65H255.115Zm46.372,49.882V68.375H282.291V135.65h45.135V118.257Z" transform="translate(-6.346 -3.379)" fill="#c00"/>
      <path id="Path_13" data-name="Path 13" d="M7,132.774H82.067S67.719,67.31,115.231,40.788c10.357-5.036,43.331-23.851,97.3,16.059,1.71-1.425,3.325-2.565,3.325-2.565S166.447,4.968,111.429,10.473C83.778,12.951,49.76,38.131,29.805,71.389S7,132.774,7,132.774Z" transform="translate(-0.348 -0.503)" fill="#c00"/>
      <path id="Path_14" data-name="Path 14" d="M7,132.774H82.067S67.719,67.31,115.231,40.788c10.357-5.036,43.331-23.851,97.3,16.059,1.71-1.425,3.325-2.565,3.325-2.565S166.447,4.968,111.429,10.473C83.778,12.951,49.76,38.131,29.805,71.389S7,132.774,7,132.774Z" transform="translate(-0.348 -0.503)" fill="#c00"/>
      <path id="Path_15" data-name="Path 15" d="M7,132.565H82.067S67.719,67.1,115.231,40.579c10.357-5.036,43.331-23.851,97.3,16.059,1.71-1.425,3.325-2.565,3.325-2.565S166.447,4.76,111.429,10.264c-27.747,2.471-61.771,27.651-81.72,60.909S7,132.565,7,132.565ZM163.408,15.592l.379-6.367A46.468,46.468,0,0,0,154.57,5.9l-.379,6.271c3.136,1.046,6.175,2.186,9.217,3.421Z" transform="translate(-0.348 -0.294)" fill="#c00"/>
      <path id="Path_16" data-name="Path 16" d="M154.031,35.443l-.379,5.986a52.99,52.99,0,0,1,9.4,1.14l.379-5.892a67.289,67.289,0,0,0-9.4-1.234ZM118.873,5.8h.95l-1.9-5.8A75.82,75.82,0,0,0,108.8.571l1.806,5.606a80.218,80.218,0,0,1,8.265-.381Zm4.561,34.968,2.182,6.556A60.115,60.115,0,0,1,133.883,44l-2.09-6.271a68.941,68.941,0,0,0-8.363,3.04ZM80.294,15.779,76.017,9.217c-2.375,1.235-4.846,2.565-7.413,4.086l4.364,6.652c2.471-1.521,4.846-2.946,7.317-4.181Zm19.471,42.76,4.561,6.842a52.765,52.765,0,0,1,5.606-6.746l-4.275-6.461a52.567,52.567,0,0,0-5.892,6.367ZM85.995,89.132l7.7,6.081a75.89,75.89,0,0,1,2-11.117l-6.84-5.418A90.347,90.347,0,0,0,85.993,89.13ZM44.375,44,37.629,38.1c-2.471,2.375-4.846,4.75-7.032,7.127L37.914,51.5A96.237,96.237,0,0,1,44.375,44Zm-28.7,42.468L4.75,82.48c-1.8,4.086-3.8,8.834-4.75,11.4l10.928,3.992c1.235-3.231,3.231-7.888,4.752-11.4Zm68.9,26.8a96.54,96.54,0,0,0,1.14,11.973l11.4,4.086a125.591,125.591,0,0,1-2.273-12.353Z" fill="#c00"/>
    </g>
  </g>
</svg>
