<svg xmlns="http://www.w3.org/2000/svg" width="26" height="25" viewBox="0 0 26 25">
  <g id="fb" transform="translate(-88 -167)">
    <circle id="Ellipse_7" data-name="Ellipse 7" cx="12.5" cy="12.5" r="12.5" transform="translate(88 167)" fill="#ef1d26"/>
    <path id="Vector" d="M0,0H24V24H0Z" transform="translate(90 167)" fill="none"/>
    <path id="Vector-2" data-name="Vector" d="M0,0H24V24H0Z" transform="translate(90 167)" fill="none" opacity="0"/>
    <g id="vuesax_bold_facebook" data-name="vuesax/bold/facebook" transform="translate(93 172)">
      <g id="facebook">
        <path id="BG_111" data-name="BG 111" d="M0,0H14.361V14.361H0Z" fill="none" opacity="0.58"/>
        <path id="Vector-3" data-name="Vector" d="M11.968,8.491a3.194,3.194,0,0,1-3.477,3.477H7.779a.6.6,0,0,1-.6-.6V7.917a.3.3,0,0,1,.293-.3L8.527,7.6A.191.191,0,0,0,8.7,7.45L8.91,6.307a.181.181,0,0,0-.18-.209l-1.275.018a.3.3,0,0,1-.305-.293L7.127,4.356a.18.18,0,0,1,.18-.18l1.436-.024a.176.176,0,0,0,.18-.18L8.9,2.537a.176.176,0,0,0-.18-.18L7.1,2.382A1.793,1.793,0,0,0,5.338,4.207l.03,1.646a.3.3,0,0,1-.293.305l-.718.012a.176.176,0,0,0-.18.18l.018,1.137a.176.176,0,0,0,.18.18l.718-.012a.3.3,0,0,1,.305.293l.054,3.411a.6.6,0,0,1-.6.61H3.477A3.2,3.2,0,0,1,0,8.485V3.477A3.194,3.194,0,0,1,3.477,0H8.491a3.194,3.194,0,0,1,3.477,3.477V8.491Z" transform="translate(1.197 1.197)" fill="#fff"/>
        <path id="Vector-4" data-name="Vector" d="M0,0H14.361V14.361H0Z" fill="none" opacity="0"/>
      </g>
    </g>
  </g>
</svg>
