<svg xmlns="http://www.w3.org/2000/svg" width="25" height="25" viewBox="0 0 25 25">
  <g id="linkeden" transform="translate(-175 -221)">
    <g id="Linkden" transform="translate(-326 -302)">
      <circle id="Ellipse_8" data-name="Ellipse 8" cx="12.5" cy="12.5" r="12.5" transform="translate(501 523)" fill="#ef1d26"/>
    </g>
    <path id="linkedin-icon-1" d="M0,6.293a1.211,1.211,0,0,1,.394-.928A1.444,1.444,0,0,1,1.417,5a1.4,1.4,0,0,1,1,.36,1.269,1.269,0,0,1,.394.967,1.184,1.184,0,0,1-.382.9A1.447,1.447,0,0,1,1.395,7.6H1.383a1.376,1.376,0,0,1-1-.371A1.247,1.247,0,0,1,0,6.293Zm.146,9.842V8.622h2.5v7.513Zm3.88,0h2.5v-4.2a1.464,1.464,0,0,1,.568-1.254,1.222,1.222,0,0,1,.8-.264q1.26,0,1.26,1.7v4.015h2.5V11.827A3.62,3.62,0,0,0,10.865,9.3a2.686,2.686,0,0,0-2.081-.86A2.552,2.552,0,0,0,6.524,9.69v.022H6.512l.011-.022V8.622h-2.5q.022.36.022,2.238T4.027,16.135Z" transform="translate(182 223)" fill="#fff"/>
  </g>
</svg>
