<svg xmlns="http://www.w3.org/2000/svg" width="25" height="25" viewBox="0 0 25 25">
  <g id="mail" transform="translate(-216 -167)">
    <g id="mail-2" data-name="mail" transform="translate(-326 -302)">
      <circle id="Ellipse_3" data-name="Ellipse 3" cx="12.5" cy="12.5" r="12.5" transform="translate(542 469)" fill="#ef1d26"/>
    </g>
    <g id="vuesax_bold_sms" data-name="vuesax/bold/sms" transform="translate(-335 -80)">
      <g id="sms" transform="translate(556 252)">
        <path id="Vector" d="M0,0H15.48V15.48H0Z" fill="none" opacity="0"/>
        <path id="Vector-2" data-name="Vector" d="M9.675,0H3.225A2.893,2.893,0,0,0,0,3.225V7.74a2.893,2.893,0,0,0,3.225,3.225h6.45A2.893,2.893,0,0,0,12.9,7.74V3.225A2.893,2.893,0,0,0,9.675,0Zm.3,3.928L7.959,5.54a2.49,2.49,0,0,1-3.019,0L2.922,3.928a.5.5,0,0,1-.077-.684.482.482,0,0,1,.677-.077L5.54,4.779a1.539,1.539,0,0,0,1.812,0L9.372,3.167a.476.476,0,0,1,.677.077A.489.489,0,0,1,9.978,3.928Z" transform="translate(1.29 2.257)" fill="#fff"/>
      </g>
    </g>
  </g>
</svg>
