<svg xmlns="http://www.w3.org/2000/svg" width="25" height="25" viewBox="0 0 25 25">
  <g id="call" transform="translate(-151 -167)">
    <circle id="Ellipse_5" data-name="Ellipse 5" cx="12.5" cy="12.5" r="12.5" transform="translate(151 167)" fill="#ef1d26"/>
    <path id="Vector" d="M0,0H14V14H0Z" transform="translate(157.01 172.26)" fill="none" opacity="0"/>
    <g id="vuesax_bold_call" data-name="vuesax/bold/call" transform="translate(48.031 -15.969)">
      <g id="call-2" data-name="call" transform="translate(108 188)">
        <path id="Vector-2" data-name="Vector" d="M5.649,8.083,4.494,9.237a.627.627,0,0,1-.88.006c-.069-.069-.137-.131-.206-.2A17.734,17.734,0,0,1,1.666,7,11.127,11.127,0,0,1,.443,4.875,5.359,5.359,0,0,1,0,2.834a3.229,3.229,0,0,1,.225-1.2A2.873,2.873,0,0,1,.942.587,1.829,1.829,0,0,1,2.241,0a1.173,1.173,0,0,1,.506.112,1.017,1.017,0,0,1,.418.35L4.612,2.5a2.136,2.136,0,0,1,.25.437.987.987,0,0,1,.087.381.847.847,0,0,1-.131.443,2.123,2.123,0,0,1-.35.443L3.995,4.7a.334.334,0,0,0-.1.25.567.567,0,0,0,.019.144c.019.05.037.087.05.125a5.179,5.179,0,0,0,.58.8c.281.325.58.655.905.986.062.062.131.125.193.187A.625.625,0,0,1,5.649,8.083Z" transform="translate(1.248 1.248)" fill="#fff"/>
        <path id="Vector-3" data-name="Vector" d="M7.721,2.678a1.585,1.585,0,0,1-.094.531,1.525,1.525,0,0,1-.062.15,2.575,2.575,0,0,1-.424.637,2.814,2.814,0,0,1-1.024.736c-.006,0-.012.006-.019.006a3.153,3.153,0,0,1-1.2.231,5.2,5.2,0,0,1-2.035-.456A10.963,10.963,0,0,1,.718,3.277C.474,3.1.231,2.915,0,2.721L2.041.68A3.507,3.507,0,0,0,2.5.98c.031.012.069.031.112.05a.431.431,0,0,0,.156.025A.343.343,0,0,0,3.027.949L3.5.481a1.915,1.915,0,0,1,.449-.35A.831.831,0,0,1,4.394,0a1,1,0,0,1,.381.081,2.414,2.414,0,0,1,.437.243L7.278,1.791a.947.947,0,0,1,.343.4A1.281,1.281,0,0,1,7.721,2.678Z" transform="translate(5.992 8.763)" fill="#fff"/>
        <path id="Vector-4" data-name="Vector" d="M0,0H14.98V14.98H0Z" transform="translate(14.98 14.98) rotate(180)" fill="none" opacity="0"/>
      </g>
    </g>
  </g>
</svg>
