<svg xmlns="http://www.w3.org/2000/svg" width="25" height="25" viewBox="0 0 25 25">
  <g id="skype" transform="translate(-466 -522)">
    <circle id="Ellipse_1" data-name="Ellipse 1" cx="12.5" cy="12.5" r="12.5" transform="translate(466 522)" fill="#ef1d26"/>
    <g id="skype-for-business" transform="translate(461.641 517.641)">
      <path id="Path_1" data-name="Path 1" d="M23.809,18.084a6.569,6.569,0,0,0,.1-1.225,7.042,7.042,0,0,0-7.05-7.05,6.574,6.574,0,0,0-1.225.1,4.2,4.2,0,0,0-6.275,3.65,4.147,4.147,0,0,0,.55,2.075,6.574,6.574,0,0,0-.1,1.225,7.042,7.042,0,0,0,7.05,7.05,6.574,6.574,0,0,0,1.225-.1,4.2,4.2,0,0,0,5.725-5.725Zm-3.65,5.2a3.324,3.324,0,0,1-1.55-.4l-.325-.2-.375.075a6.813,6.813,0,0,1-1.05.1,5.975,5.975,0,0,1-5.975-5.975,4.979,4.979,0,0,1,.1-1.05l.075-.375-.225-.35a3.05,3.05,0,0,1-.4-1.55,3.126,3.126,0,0,1,3.125-3.125,3.324,3.324,0,0,1,1.55.4l.325.2.375-.075a7.469,7.469,0,0,1,1.05-.1,5.975,5.975,0,0,1,5.975,5.975,4.979,4.979,0,0,1-.1,1.05l-.075.375.2.325a3.051,3.051,0,0,1,.4,1.55A3.1,3.1,0,0,1,20.159,23.284Z" fill="#fff"/>
      <path id="Path_2" data-name="Path 2" d="M78.151,63.234l-1.575-.35c-.6-.15-1.275-.325-1.275-.9s.475-.975,1.35-.975c1.775,0,1.625,1.225,2.5,1.225a.759.759,0,0,0,.85-.725c0-1.1-1.75-1.925-3.25-1.925-1.6,0-3.3.65-3.3,2.5,0,.875.3,1.825,2.025,2.275l2.15.55c.65.15.85.525.85.85,0,.55-.575,1.15-1.55,1.15-1.925,0-1.65-1.525-2.675-1.525a.791.791,0,0,0-.825.775c0,.9,1.1,2.125,3.5,2.125,2.3,0,3.45-1.15,3.45-2.65C80.351,64.634,79.9,63.634,78.151,63.234Z" transform="translate(-60.017 -47.05)" fill="#fff"/>
    </g>
  </g>
</svg>
