<svg xmlns="http://www.w3.org/2000/svg" width="25" height="25" viewBox="0 0 25 25">
  <g id="Group_1" data-name="Group 1" transform="translate(-540 -523)">
    <g id="Dailer">
      <circle id="Ellipse_9" data-name="Ellipse 9" cx="12.5" cy="12.5" r="12.5" transform="translate(540 523)" fill="#ef1d26"/>
      <path id="old-phone" d="M15.237,110.045a1.221,1.221,0,0,0-.95-1A2.779,2.779,0,0,1,11.8,106.26a11.205,11.205,0,0,0-1.976-.132,11.2,11.2,0,0,0-1.976.132,2.779,2.779,0,0,1-2.485,2.784,1.222,1.222,0,0,0-.95,1l-.371,2.567A1.479,1.479,0,0,0,5.5,114.331h8.65a1.479,1.479,0,0,0,1.456-1.719l-.371-2.567Zm-5.411,2.415A1.864,1.864,0,1,1,11.71,110.6,1.874,1.874,0,0,1,9.827,112.461Zm7.42-7.078c-.018-1.119-2.865-2.982-7.42-2.983s-7.4,1.864-7.42,2.983.016,2.574,1.89,2.332c2.193-.284,2.058-1.05,2.058-2.145,0-.764,1.784-.948,3.471-.948s3.47.184,3.471.948c0,1.095-.135,1.86,2.058,2.145C17.23,107.957,17.263,106.5,17.246,105.383Z" transform="translate(542.673 427.135)" fill="#fff"/>
    </g>
  </g>
</svg>
