<svg xmlns="http://www.w3.org/2000/svg" width="25" height="25" viewBox="0 0 25 25">
  <g id="twitter" transform="translate(-430 -522)">
    <circle id="Ellipse_2" data-name="Ellipse 2" cx="12.5" cy="12.5" r="12.5" transform="translate(430 522)" fill="#ef1d26"/>
    <path id="twitter-6" d="M4.344,12.087c5.213,0,8.064-4.65,8.064-8.682q0-.2-.008-.394a6.028,6.028,0,0,0,1.414-1.58,5.34,5.34,0,0,1-1.628.48A3.033,3.033,0,0,0,13.432.223a5.446,5.446,0,0,1-1.8.741A2.741,2.741,0,0,0,9.564,0,2.949,2.949,0,0,0,6.73,3.051a3.269,3.269,0,0,0,.074.7A7.873,7.873,0,0,1,.961.559,3.224,3.224,0,0,0,.578,2.092a3.116,3.116,0,0,0,1.261,2.54A2.662,2.662,0,0,1,.555,4.251c0,.013,0,.025,0,.039A3,3,0,0,0,2.828,7.281a2.635,2.635,0,0,1-1.28.052A2.872,2.872,0,0,0,4.2,9.452a5.435,5.435,0,0,1-3.52,1.306A5.351,5.351,0,0,1,0,10.716a7.614,7.614,0,0,0,4.344,1.371" transform="translate(436.093 528.456)" fill="#fff"/>
  </g>
</svg>
