<svg xmlns="http://www.w3.org/2000/svg" width="25" height="25" viewBox="0 0 25 25">
  <g id="web" transform="translate(-183 -167)">
    <g id="web-2" data-name="web" transform="translate(-326 -302)">
      <circle id="Ellipse_4" data-name="Ellipse 4" cx="12.5" cy="12.5" r="12.5" transform="translate(509 469)" fill="#ef1d26"/>
    </g>
    <g id="vuesax_bold_global" data-name="vuesax/bold/global" transform="translate(15.826 -80.174)">
      <path id="Vector" d="M2.935,2.922c-.019,0-.045.013-.064.013A6.4,6.4,0,0,1,0,.064C0,.045.013.019.013,0A20.4,20.4,0,0,0,2.4.537,21.453,21.453,0,0,0,2.935,2.922Z" transform="translate(173.957 262.449)" fill="#fff"/>
      <path id="Vector-2" data-name="Vector" d="M2.974.07A6.455,6.455,0,0,1,0,2.993,19.544,19.544,0,0,0,.582.537,20,20,0,0,0,2.961,0C2.954.026,2.974.051,2.974.07Z" transform="translate(182.417 262.449)" fill="#fff"/>
      <path id="Vector-3" data-name="Vector" d="M3.025,3.025A20.235,20.235,0,0,0,.582,2.443,17.851,17.851,0,0,0,0,0,6.428,6.428,0,0,1,3.025,3.025Z" transform="translate(182.417 253.906)" fill="#fff"/>
      <path id="Vector-4" data-name="Vector" d="M2.986.019A19.983,19.983,0,0,0,2.456,2.4,18.462,18.462,0,0,0,0,2.974,6.455,6.455,0,0,1,2.922,0C2.942,0,2.967.019,2.986.019Z" transform="translate(173.906 253.957)" fill="#fff"/>
      <path id="Vector-5" data-name="Vector" d="M4.464,2.935A20.034,20.034,0,0,0,0,2.935,18.144,18.144,0,0,1,.652.339,1.046,1.046,0,0,0,.665.2,6.654,6.654,0,0,1,2.232,0a6.6,6.6,0,0,1,1.56.2,1.062,1.062,0,0,0,.019.141A18.361,18.361,0,0,1,4.464,2.935Z" transform="translate(177.442 253.279)" fill="#fff"/>
      <path id="Vector-6" data-name="Vector" d="M2.935,4.464a17.933,17.933,0,0,1-2.6-.652A1.046,1.046,0,0,0,.2,3.8,6.654,6.654,0,0,1,0,2.232,6.6,6.6,0,0,1,.2.671,1.062,1.062,0,0,0,.339.652,19.038,19.038,0,0,1,2.935,0,20.831,20.831,0,0,0,2.935,4.464Z" transform="translate(173.279 257.442)" fill="#fff"/>
      <path id="Vector-7" data-name="Vector" d="M2.935,2.232a6.654,6.654,0,0,1-.2,1.567,1.046,1.046,0,0,0-.141.013A19.276,19.276,0,0,1,0,4.464,20.034,20.034,0,0,0,0,0,18.144,18.144,0,0,1,2.6.652a.533.533,0,0,0,.141.019A6.643,6.643,0,0,1,2.935,2.232Z" transform="translate(183.133 257.442)" fill="#fff"/>
      <path id="Vector-8" data-name="Vector" d="M4.464,0a17.933,17.933,0,0,1-.652,2.6,1.062,1.062,0,0,0-.019.141,6.6,6.6,0,0,1-1.56.2,6.654,6.654,0,0,1-1.567-.2A1.046,1.046,0,0,0,.652,2.6,19.038,19.038,0,0,1,0,0,20.01,20.01,0,0,0,2.232.141,19.913,19.913,0,0,0,4.464,0Z" transform="translate(177.442 263.133)" fill="#fff"/>
      <path id="Vector-9" data-name="Vector" d="M4.965,4.965a19.21,19.21,0,0,1-4.813,0,19.21,19.21,0,0,1,0-4.813,19.21,19.21,0,0,1,4.813,0A19.21,19.21,0,0,1,4.965,4.965Z" transform="translate(177.116 257.116)" fill="#fff"/>
      <path id="Vector-10" data-name="Vector" d="M0,0H15.348V15.348H0Z" transform="translate(172 252)" fill="none" opacity="0"/>
      <path id="Vector-11" data-name="Vector" d="M0,0H15.348V15.348H0Z" transform="translate(187.348 267.348) rotate(180)" fill="none" opacity="0"/>
    </g>
  </g>
</svg>
