<svg xmlns="http://www.w3.org/2000/svg" width="50" height="50" viewBox="0 0 50 50">
  <g id="result-driven-techniques" transform="translate(-300 -252)">
    <g id="diagram" transform="translate(300 252)">
      <path id="Vector" d="M43.173,44.733H7.8a7.805,7.805,0,0,1-7.8-7.8V1.56A1.572,1.572,0,0,1,1.56,0a1.572,1.572,0,0,1,1.56,1.56V36.931A4.688,4.688,0,0,0,7.8,41.612H43.173a1.56,1.56,0,0,1,0,3.121Z" transform="translate(2.633 2.633)" fill="#292d32"/>
      <path id="Vector-2" data-name="Vector" d="M1.58,24.226a1.58,1.58,0,0,1-1.2-2.612l9.67-11.292A5.83,5.83,0,0,1,14.22,8.3a5.889,5.889,0,0,1,4.319,1.685l2,2a2.719,2.719,0,0,0,1.959.779,2.575,2.575,0,0,0,1.9-.927L34.064.547a1.583,1.583,0,1,1,2.4,2.064L26.8,13.9a5.83,5.83,0,0,1-4.171,2.022,5.889,5.889,0,0,1-4.319-1.685l-1.98-2a2.636,2.636,0,0,0-1.959-.779,2.575,2.575,0,0,0-1.9.927L2.8,23.679A1.684,1.684,0,0,1,1.58,24.226Z" transform="translate(8.393 12.887)" fill="#dd1928"/>
      <path id="Vector-3" data-name="Vector" d="M0,0H50V50H0Z" fill="none" opacity="0"/>
    </g>
  </g>
</svg>
