<svg xmlns="http://www.w3.org/2000/svg" width="50" height="52.934" viewBox="0 0 50 52.934">
  <g id="ROI-focused-work" transform="translate(-684 -444)">
    <g id="coin" transform="translate(684 444)">
      <path id="Vector" d="M7.918,15.638H4.61A4.661,4.661,0,0,1,.022,10.9,1.666,1.666,0,0,1,1.676,9.241,1.666,1.666,0,0,1,3.33,10.9,1.362,1.362,0,0,0,4.61,12.329H7.918a.971.971,0,0,0,.9-1.037c0-.772-.132-.816-.64-.993L2.867,8.447A3.936,3.936,0,0,1,0,4.345,4.3,4.3,0,0,1,4.213,0H7.521a4.661,4.661,0,0,1,4.588,4.742,1.654,1.654,0,1,1-3.308,0A1.362,1.362,0,0,0,7.521,3.308H4.213a.971.971,0,0,0-.9,1.037c0,.772.132.816.64.993L9.263,7.19a3.952,3.952,0,0,1,2.845,4.1A4.252,4.252,0,0,1,7.918,15.638Z" transform="translate(14.841 14.226)" fill="#dd1928"/>
      <path id="Vector-2" data-name="Vector" d="M1.654,4.94A1.666,1.666,0,0,1,0,3.286V1.654A1.666,1.666,0,0,1,1.654,0,1.666,1.666,0,0,1,3.308,1.654V3.286A1.652,1.652,0,0,1,1.654,4.94Z" transform="translate(19.195 26.687)" fill="#dd1928"/>
      <path id="Vector-3" data-name="Vector" d="M1.654,5.029A1.666,1.666,0,0,1,0,3.375V1.654A1.666,1.666,0,0,1,1.654,0,1.666,1.666,0,0,1,3.308,1.654v1.72A1.666,1.666,0,0,1,1.654,5.029Z" transform="translate(19.195 12.484)" fill="#dd1928"/>
      <path id="Vector-4" data-name="Vector" d="M19.277,38.553A19.277,19.277,0,1,1,38.553,19.277,19.3,19.3,0,0,1,19.277,38.553Zm0-35.223A15.957,15.957,0,1,0,35.245,19.277,15.993,15.993,0,0,0,19.277,3.33Z" transform="translate(2.757 2.735)" fill="#292d32"/>
      <path id="Vector-5" data-name="Vector" d="M10.583,23.14A12.572,12.572,0,0,1,.305,17.8a1.661,1.661,0,1,1,2.713-1.919A9.262,9.262,0,1,0,15.965,3,1.659,1.659,0,0,1,17.906.313,12.6,12.6,0,0,1,10.583,23.14Z" transform="matrix(0.999, 0.035, -0.035, 0.999, 25.808, 26.467)" fill="#dd1928"/>
      <path id="Vector-6" data-name="Vector" d="M0,0H50V52.934H0Z" fill="none" opacity="0"/>
    </g>
  </g>
</svg>
