<svg id="Layer_1" data-name="Layer 1" xmlns="http://www.w3.org/2000/svg" viewBox="0 0 114.97 131.79"><title>06</title><line x1="64.49" x2="64.49" y2="25.24" fill="none" stroke="#231f20" stroke-linejoin="round" stroke-width="5.61"/><line x1="19.63" y1="19.63" x2="36.73" y2="36.73" fill="none" stroke="#231f20" stroke-linejoin="round" stroke-width="5.61"/><line y1="64.49" x2="25.24" y2="64.49" fill="none" stroke="#231f20" stroke-linejoin="round" stroke-width="5.61"/><line x1="19.63" y1="109.36" x2="36.73" y2="92.25" fill="none" stroke="#231f20" stroke-linejoin="round" stroke-width="5.61"/><polyline points="67.3 128.99 58.88 128.99 56.08 126.18 53.28 126.18" fill="none" stroke="#231f20" stroke-linejoin="round" stroke-width="5.61"/><line x1="47.67" y1="109.36" x2="67.3" y2="109.36" fill="none" stroke="#231f20" stroke-linejoin="round" stroke-width="5.61"/><line x1="47.67" y1="117.77" x2="67.3" y2="117.77" fill="none" stroke="#231f20" stroke-linejoin="round" stroke-width="5.61"/><path d="M50.47,103.75V98.14A18.66,18.66,0,0,0,45.2,84.82c-5.3-5.41-8.74-12.09-8.74-20.33a28,28,0,0,1,28-28h2.8" fill="none" stroke="#231f20" stroke-linejoin="round" stroke-width="5.61"/><line x1="45.18" y1="17.86" x2="49.47" y2="28.22" fill="none" stroke="#231f20" stroke-linejoin="round" stroke-width="5.61"/><line x1="17.86" y1="45.18" x2="28.22" y2="49.47" fill="none" stroke="#231f20" stroke-linejoin="round" stroke-width="5.61"/><line x1="17.86" y1="83.81" x2="28.22" y2="79.52" fill="none" stroke="#231f20" stroke-linejoin="round" stroke-width="5.61"/><line x1="78.51" y1="70.1" x2="78.51" y2="131.79" fill="none" stroke="#231f20" stroke-linejoin="round" stroke-width="5.61"/><line x1="89.73" y1="95.34" x2="89.73" y2="131.79" fill="none" stroke="#231f20" stroke-linejoin="round" stroke-width="5.61"/><path d="M89.73,56.08H78.51c-7.89,0-11.22,5.78-11.22,14V89.73a8.41,8.41,0,0,0,8.41,8.41h2.8" fill="none" stroke="#231f20" stroke-linecap="round" stroke-linejoin="round" stroke-width="5.61"/><line x1="100.95" y1="70.1" x2="100.95" y2="131.79" fill="none" stroke="#231f20" stroke-linejoin="round" stroke-width="5.61"/><path d="M89.73,56.08h11.22c7.89,0,11.22,5.78,11.22,14V89.73a8.41,8.41,0,0,1-8.41,8.41h-2.8" fill="none" stroke="#231f20" stroke-linecap="round" stroke-linejoin="round" stroke-width="5.61"/><ellipse cx="89.73" cy="36.45" rx="11.22" ry="11.21" transform="translate(52.48 125.85) rotate(-89.49)" fill="none" stroke="#231f20" stroke-miterlimit="10" stroke-width="5.61"/></svg>