<svg id="Layer_1" data-name="Layer 1" xmlns="http://www.w3.org/2000/svg" viewBox="0 0 123.74 123.74"><title>05</title><path d="M70,7.39a55.11,55.11,0,0,1,46.35,46.35h-7.58A47.62,47.62,0,0,0,70,15Z" fill="#333"/><path d="M53.23,69.62a13.34,13.34,0,0,0,1-1.87c.23-.53.45-1.08.64-1.6l0,0,.74.65a10,10,0,0,0,6.59,2.83A9.06,9.06,0,0,0,68.42,67a18.42,18.42,0,0,0,2.12,2.69c-3.38,7.35-13.79,7.1-17.31,0m-.74-10.74a.75.75,0,0,0-.76-.72l-.2,0a2.1,2.1,0,0,1-.63.1.86.86,0,0,1-.42-.1,1.92,1.92,0,0,1-.71-1.3,9.79,9.79,0,0,1,0-3c.21-.5.64-.42,1.34-.18l.86.32a.74.74,0,0,0,.95-.44.72.72,0,0,0,0-.42A6.78,6.78,0,0,1,53,49.44a5.41,5.41,0,0,1,2.13-2.67,11,11,0,0,1,5.63-2c.51-.06,1-.12,1.54-.22a7.89,7.89,0,0,0,5.26-2.36l.22-.16a7.3,7.3,0,0,1,3.29,3.26c.87,1.81,1.19,4.46.49,8.53a.75.75,0,0,0,.61.86.74.74,0,0,0,.61-.17A2.55,2.55,0,0,1,74,54a.71.71,0,0,1,.37,0,.29.29,0,0,1,.13.18,2,2,0,0,1-.08,1.07c-.12.35-.2.72-.29,1.11-.21.9-.44,1.9-.89,1.88a1.13,1.13,0,0,1-.32-.07,1.61,1.61,0,0,1-.4-.21.74.74,0,0,0-1,.21.73.73,0,0,0-.12.47c.27,3.2-1.13,4.51-3,6.3l-.77.73a7.73,7.73,0,0,1-5.35,2.44,8.56,8.56,0,0,1-5.61-2.45l-.76-.66c-1.81-1.56-3.3-2.84-3.38-6.19m40,26c-.42-3.35-.76-5.53-2.86-8.3a9.57,9.57,0,0,0-3-2.57c-3.65-2-12.2-2.64-15.52-5.62a22.65,22.65,0,0,1-1.68-2.25c2-1.84,3.46-3.25,3.52-6.32l.27,0c1.69.09,2.07-1.54,2.41-3,.08-.35.16-.69.25-1l0-.1a3.38,3.38,0,0,0,.06-1.88,1.74,1.74,0,0,0-.84-1.05,2,2,0,0,0-1-.23C79.17,47,76,35.71,68.56,35.32c-6.46-8.2-15.07-3.19-22.53,6,3.78,1.14,3.16,7,3.35,10.66a2.08,2.08,0,0,0-1.06,1.36l0,.18a11.44,11.44,0,0,0,0,3.63,3.26,3.26,0,0,0,1.43,2.28,2.28,2.28,0,0,0,1.13.3h.17a7.71,7.71,0,0,0,2.77,5.48c-.23.62-.5,1.32-.79,2a14.07,14.07,0,0,1-.68,1.38C48.76,71.35,40.71,72,37.17,74a9.65,9.65,0,0,0-3,2.57c-2.1,2.77-2.43,4.95-2.86,8.29a3.08,3.08,0,0,0-.09.7.84.84,0,0,0,.84.84H91.71a.84.84,0,0,0,.84-.84,3,3,0,0,0-.09-.69" fill="#333"/><rect x="58.26" width="7.22" height="22.75" fill="#333"/><rect x="100.98" y="58.26" width="22.75" height="7.22" fill="#333"/><rect y="58.26" width="22.75" height="7.22" fill="#333"/><rect x="58.26" y="100.98" width="7.22" height="22.75" fill="#333"/><path d="M116.35,70A55.12,55.12,0,0,1,70,116.35v-7.58A47.62,47.62,0,0,0,108.76,70Z" fill="#333"/><path d="M53.74,116.35A55.11,55.11,0,0,1,7.39,70H15a47.62,47.62,0,0,0,38.77,38.77Z" fill="#333"/><path d="M7.39,53.74A55.11,55.11,0,0,1,53.74,7.39V15A47.62,47.62,0,0,0,15,53.74Z" fill="#333"/></svg>