<svg id="Layer_1" data-name="Layer 1" xmlns="http://www.w3.org/2000/svg" viewBox="0 0 55.72 62.49"><title>03</title><path d="M31.54,43.33l-2-6.9a3.64,3.64,0,0,1,3.43-4.88h.91a5.64,5.64,0,0,1,1.54.2l0-7.86a4.82,4.82,0,1,1,9.64,0v3.29a4.48,4.48,0,0,1,2.92,1.43,24.16,24.16,0,1,0-14.8,18l-1.42-2.88a2.38,2.38,0,0,1-.15-.39M19.56,8h5.2v5.92h-5.2Zm7.62,29.37H17.33v-4h2.42V20.81H17.33v-4h7.43V33.35h2.42Z" fill="#333"/><path d="M54.59,52.58H53.36v-2.2l1.84-5.51a1.13,1.13,0,0,0,.06-.36V36.1A3.12,3.12,0,0,0,52.14,33a2.67,2.67,0,0,0-.41,0,3.12,3.12,0,0,0-3.12-3.11,3.07,3.07,0,0,0-1.21.25,3.14,3.14,0,0,0-2.76-1.67h-.12a3.11,3.11,0,0,0-.85.12V23.88a3.49,3.49,0,1,0-7,0l0,10.23a3.64,3.64,0,0,0-2.87-1.23h-.91A2.31,2.31,0,0,0,30.75,36L32.82,43a1.06,1.06,0,0,0,.07.18l3.74,7.57v1.88h-.7a1.13,1.13,0,0,0-1.13,1.13v7.64a1.13,1.13,0,0,0,1.13,1.13H54.59a1.13,1.13,0,0,0,1.13-1.13V53.72a1.13,1.13,0,0,0-1.13-1.13M35,42.22l-2.05-6.9,0-.11a0,0,0,0,1,0-.07h.91c.8,0,1,.22,1.75,1.11l1.26,2.43A1.13,1.13,0,0,0,39,38.17l0-14.29a1.22,1.22,0,1,1,2.45,0V35.3a1.13,1.13,0,0,0,2.27,0V31.61a.85.85,0,0,1,.85-.85h.12a.85.85,0,0,1,.85.85v5.07a1.13,1.13,0,1,0,2.27,0V33a.85.85,0,1,1,1.71,0v5.35a1.13,1.13,0,1,0,2.27,0V35.66a.41.41,0,0,1,.41-.41.85.85,0,0,1,.85.85v8.23l-1.84,5.51a1.13,1.13,0,0,0-.06.36v2.38H38.89V50.44a1.11,1.11,0,0,0-.12-.5Zm2.1,12.63H53.45v5.37H37.06Z" fill="#333"/><path d="M39.45,58h5.24a1.13,1.13,0,0,0,0-2.27H39.45a1.13,1.13,0,0,0,0,2.27" fill="#333"/></svg>