<svg id="Layer_1" data-name="Layer 1" xmlns="http://www.w3.org/2000/svg" viewBox="0 0 71.76 47.28"><title>01</title><path d="M37,43.92H5.09A5.9,5.9,0,0,1,0,41H25.33v.54H35.84V41h1.89c-.28,1-.51,2-.73,2.92M7.11,33.39,6.6,35.19h3.79l.41-1.81Zm.63-2.23-.48,1.71h3.67l.37-1.71Zm4-1.79H8.26l-.36,1.26h3.53Zm-.34,4L11,35.19h3.79l.3-1.81Zm.5-2.23-.39,1.71h3.67l.29-1.71Zm3.86-1.79H12.27L12,30.63h3.54Zm-.12,4-.3,1.81h3.81l.2-1.81ZM16,31.15l-.28,1.71h3.67l.2-1.71Zm3.78-1.79H16.3l-.21,1.26h3.55Zm.11,4-.2,1.81H23.5l.09-1.81Zm.24-2.23-.19,1.71h3.68l.09-1.71Zm3.68-1.79H20.33l-.14,1.26h3.55Zm.33,4L24,35.19H37l-.11-1.81Zm3.71-2.76V29.37H24.36l-.07,1.26Zm0,2.23V31.15H24.27l-.09,1.71Zm4.83-3.49H28.4v1.26h4.28Zm0,1.79H28.4v1.71h4.28Zm.55,0v1.71h3.68l-.09-1.71Zm3.48-1.79H33.23v1.26h3.55Zm.78,4,.09,1.81h3.22a6.26,6.26,0,0,0-2.07,2.9,19.25,19.25,0,0,0-.82,2.25H0L4.16,28.67V3.12A3.12,3.12,0,0,1,7.25,0H53.31a3.12,3.12,0,0,1,3.1,3.12v7.26a11.69,11.69,0,0,0-2.3-.12V3.12a.8.8,0,0,0-.79-.81H7.25a.8.8,0,0,0-.79.81v25H47.7a11.22,11.22,0,0,0,.77,1.3H45.34l.21,1.26h3.54L49,30c.14.17.28.34.43.5a4.57,4.57,0,0,1-.4.64H45.63l.29,1.71h.93l-.11.06c-.42.21-.85.4-1.29.56v-.09H41.75l.14,1.21-.18.06-.35.15-.16-1.42Zm-.13-2.23.09,1.71h3.68L41,31.15Zm3.39-1.79H37.27l.07,1.26h3.55Zm.75,1.79.19,1.71h3.68l-.28-1.71Zm3.28-1.79H41.3l.14,1.26H45Zm-8.44,6.85H24.76l-.68,3H37Z" fill="#333" fill-rule="evenodd"/><path d="M13.77,19h0a.53.53,0,0,1,.24-.17s.84-.35,2.54-1l1.29,3.41c.13-1.63.19-2.45.19-2.45-1.09-1-.34-1.29.41-1.26s1.53.26.35,1.26c0,0,.06.82.2,2.45,0,0,.42-1.15,1.3-3.41l2.53,1a42.64,42.64,0,0,1,3.26,4.66l4.11-2.05a1,1,0,0,1,1.14.4A1,1,0,0,1,31.25,23l-4.18,2.69c-1.6,1-1.74,1.61-3.14-.25L22.65,23.8c-.09,1.29-.19,2.49-.24,3.63H15l-.33-4.13v-.23l-2.35,2.21,2.09,2.16H11C10,26.64,9,25.78,9.2,24.56c.1-.83.78-1.34,1.32-1.95Z" fill="#333" fill-rule="evenodd"/><path d="M15.76,14.5c.17,1.39,1.47,2.83,2.64,2.83,1.35,0,2.63-1.52,2.83-2.83a.63.63,0,0,0,.24-.44s.29-1-.09-.85c.14-.36,1.07-2.1-.27-2.69-.6-1.46-4.78-1.55-5.54.61a4.12,4.12,0,0,0,.07,2.1c-.44-.2-.13.83-.13.83a.57.57,0,0,0,.25.44" fill="#333" fill-rule="evenodd"/><path d="M32.29,9H48.53a.4.4,0,0,1,0,.81H32.29a.4.4,0,0,1,0-.81m3.29,3.43h9.66a.39.39,0,0,1,.4.4.4.4,0,0,1-.4.41H35.58a.41.41,0,0,1-.41-.41.4.4,0,0,1,.41-.4m-1.91-1.72H47.15a.4.4,0,0,1,0,.81H33.67a.4.4,0,1,1,0-.81" fill="#333" fill-rule="evenodd"/><path d="M37.29,47.28s.17-.9.5-2.7q1.72-7.92,3.71-8.72c0-.74,7.6-1.17,8.92-5.57a10.12,10.12,0,0,1-2.9-5.75,1.65,1.65,0,0,1-.61-1.18s-.76-2.74.36-2.21c-.78-4.16-.2-5.56-.2-5.56C48.93,9.84,59.17,10.09,60.6,14c1.85.89,1,6.17.68,7.13.95-.28.23,2.25.23,2.25a1.68,1.68,0,0,1-.61,1.18,10.23,10.23,0,0,1-3.09,5.78c1.39,3.15,6.52,4.26,9.71,5.54,1.33.54,2.57,3.44,3.74,8.72l.49,2.7Z" fill="#333" fill-rule="evenodd"/></svg>