<svg id="Layer_1" data-name="Layer 1" xmlns="http://www.w3.org/2000/svg" viewBox="0 0 45.73 63.35"><title>04</title><path d="M41.37,6.63h-11c-1-3.82-4-6.62-7.52-6.62S16.3,2.8,15.35,6.63h-11A4.36,4.36,0,0,0,0,11V59a4.36,4.36,0,0,0,4.36,4.36h37A4.36,4.36,0,0,0,45.73,59V11a4.36,4.36,0,0,0-4.36-4.36M22.87,3.23A4.69,4.69,0,0,1,27,6.63h-8.3a4.69,4.69,0,0,1,4.15-3.39M41,58.18H4.69V10.34h6.22a7.92,7.92,0,0,0,7.68,6h8.57a7.92,7.92,0,0,0,7.68-6H41Z" fill="#333"/><path d="M15.13,55.24a3,3,0,1,1,3-3,3,3,0,0,1-3,3m0-4.57a1.6,1.6,0,1,0,1.6,1.6,1.6,1.6,0,0,0-1.6-1.6" fill="#333"/><path d="M35.69,52.82a3,3,0,1,1,3-3,3,3,0,0,1-3,3m0-4.57a1.6,1.6,0,1,0,1.6,1.6,1.6,1.6,0,0,0-1.6-1.6" fill="#333"/><path d="M26.86,33.38a3,3,0,1,1,3-3,3,3,0,0,1-3,3m0-4.57a1.6,1.6,0,1,0,1.6,1.6,1.6,1.6,0,0,0-1.6-1.6" fill="#333"/><polygon points="25.43 42.24 24.46 41.27 22.62 43.11 20.78 41.27 19.82 42.24 21.65 44.08 19.82 45.91 20.78 46.88 22.62 45.05 24.46 46.88 25.43 45.91 23.59 44.08 25.43 42.24" fill="#333"/><polygon points="19.82 33.3 18.85 32.34 17.01 34.17 15.17 32.34 14.2 33.3 16.04 35.14 14.2 36.98 15.17 37.95 17.01 36.11 18.85 37.95 19.82 36.98 17.98 35.14 19.82 33.3" fill="#333"/><path d="M12,46.3l-.59-1.59,1.28-.48.59,1.59Zm-1.18-3.19-.59-1.59L11.48,41l.59,1.59ZM9.61,39.93,9,38.34l1.29-.48.59,1.59Z" fill="#333"/><polygon points="34.11 45.19 30.87 37.27 32.58 36.58 28.75 33.57 28.06 38.4 29.6 37.77 32.84 45.71 34.11 45.19" fill="#333"/><polygon points="6.7 37.43 7.63 32.65 11.31 35.85 6.7 37.43" fill="#333"/><polygon points="32.37 50.64 27.88 48.77 28.1 50.5 19.73 51.59 19.9 52.95 28.28 51.86 28.5 53.6 32.37 50.64" fill="#333"/><path d="M9.67,19l-.19.37c0,.08-.07.18-.14.32a.06.06,0,0,1-.06,0L9,19.58a1.65,1.65,0,0,0-.56-.13q-.64,0-.64.59,0,.33.45.57Q9,21,9,21.09a1.26,1.26,0,0,1,.45,1,1.54,1.54,0,0,1-.62,1.29,2.18,2.18,0,0,1-1.36.42c-.25,0-.38,0-.4-.09s0-.23-.06-.4L7,23a.21.21,0,0,1,0-.06A0,0,0,0,1,7,22.88l.26,0,.26,0q1.08,0,1.08-.73a.74.74,0,0,0-.43-.62l-.81-.49a1.24,1.24,0,0,1-.44-1A1.44,1.44,0,0,1,7.34,19a1.49,1.49,0,0,1,1.07-.4,2.58,2.58,0,0,1,.64.1,1.75,1.75,0,0,1,.59.26l0,0" fill="#333"/><path d="M13.45,19.31q0,.1-.06.1l-1.23,0q0,1.11,0,1.78,0,.42,0,1.26t0,1.26c0,.05,0,.08-.1.08h-.77c-.06,0-.09,0-.09-.09q0-.42,0-1.25t0-1.25q0-.65,0-1.78-.9.06-1.32.06s0,0,0,0a.83.83,0,0,1,0-.19L10,19a3,3,0,0,1,0-.35.06.06,0,0,1,.06,0h0q1.23.08,1.63.08t1.14-.05l.45,0c.06,0,.09,0,.1.07a2.44,2.44,0,0,0,0,.35s0,.08,0,.15,0,.12,0,.15" fill="#333"/><path d="M17.63,23.71s0,0-.06,0h-.84a.13.13,0,0,1-.12-.09q-.11-.25-.63-1.54a.29.29,0,0,0-.25-.16h-.89s-.07.07-.07.19,0,.43,0,.77,0,.59,0,.76,0,.08-.07.08l-.21,0-.21,0H14a.08.08,0,0,1-.09-.08q0-.41,0-1.22t0-1.22q0-1.15-.08-2.46V18.7s0-.07.15-.07l.9,0,.89,0A1.88,1.88,0,0,1,17,19a1.49,1.49,0,0,1,.51,1.21,2.12,2.12,0,0,1-.14.85,1.65,1.65,0,0,1-.54.62s-.07.06-.07.09a10.54,10.54,0,0,0,.42,1,10,10,0,0,1,.42,1m-1-3.31a1,1,0,0,0-.36-.88,2,2,0,0,0-1-.16c-.38,0-.57,0-.57.1s0,.48,0,1.05v.7l0,0,.21,0,.71,0q1,0,1-.85" fill="#333"/><path d="M22.41,23.7s0,0-.08,0h-.78q-.1,0-.25-.55c-.1-.37-.2-.56-.31-.56H19.11q-.12,0-.27.56c-.09.37-.17.55-.22.55h-.78s-.07,0-.07-.05a.63.63,0,0,1,0-.16l.85-2.44q.11-.3.65-1.7c.07-.16.15-.39.26-.7,0-.09.06-.14.09-.14l.2,0,.2,0,.19,0,.19,0s0,0,.09.14.33.87.82,2.2q1,2.81,1,2.83m-1.62-2a6.32,6.32,0,0,0-.31-.95q-.3-.82-.43-1.07-.72,1.93-.72,2c0,.08.09.13.26.15h.7c.33,0,.5,0,.5-.15" fill="#333"/><path d="M26,19.31q0,.1-.06.1l-1.23,0q0,1.11,0,1.78,0,.42,0,1.26t0,1.26c0,.05,0,.08-.1.08h-.77c-.06,0-.09,0-.09-.09q0-.42,0-1.25t0-1.25q0-.65,0-1.78-.9.06-1.32.06s0,0,0,0a.83.83,0,0,1,0-.19l0-.19a3,3,0,0,1,0-.35.06.06,0,0,1,.06,0h0q1.23.08,1.63.08t1.14-.05l.45,0c.06,0,.09,0,.1.07A2.43,2.43,0,0,0,26,19s0,.08,0,.15,0,.12,0,.15" fill="#333"/><path d="M29.76,23a.72.72,0,0,1,0,.17l0,.17c0,.09,0,.21,0,.38a.08.08,0,0,1-.09.07l-.13,0a9.62,9.62,0,0,0-1.33-.06H26.56c-.08,0-.12,0-.12-.1q0-.41,0-1.23t0-1.23q0-.42,0-1.55c0-.19,0-.48,0-.87V18.7c0-.06,0-.08.09-.08H29.4c.11,0,.17,0,.18.11a5.7,5.7,0,0,1,.07.6c0,.06,0,.08-.08.08l-.9,0-.9,0a.53.53,0,0,0-.36.08.66.66,0,0,0-.07.4v.54a1.62,1.62,0,0,0,0,.26c0,.08.08.11.18.11h.24l1.23,0,.5,0a.06.06,0,0,1,.07.07c0,.08,0,.2,0,.36a3.55,3.55,0,0,0,0,.36s0,.06-.1.06l-.31,0q-.2,0-.88,0H27.5a.16.16,0,0,0-.16.15s0,.08,0,.28v.54c0,.25,0,.41.11.47a.77.77,0,0,0,.43.08h.38q.24,0,1.37-.09h.05s.07,0,.07.09" fill="#333"/><path d="M34.56,23.56c0,.05,0,.08-.09.08a.84.84,0,0,1-.25-.1L34,23.39a2.55,2.55,0,0,1-1.52.46,2.09,2.09,0,0,1-1.68-.8,2.81,2.81,0,0,1-.63-1.85,2.88,2.88,0,0,1,.62-1.88,2.08,2.08,0,0,1,1.69-.8,2.17,2.17,0,0,1,1,.26,2.1,2.1,0,0,1,.79.72.23.23,0,0,1,0,.11,1.24,1.24,0,0,1-.25.34q-.25.29-.29.29s-.09-.07-.21-.22a2.28,2.28,0,0,0-.42-.41,1.14,1.14,0,0,0-.66-.22A1.29,1.29,0,0,0,31.4,20,2.05,2.05,0,0,0,31,21.19a2,2,0,0,0,.39,1.23,1.29,1.29,0,0,0,1.08.58,2,2,0,0,0,1.17-.36l-.06-.69c0-.28,0-.51,0-.69s0-.06.08-.06h.8s.07,0,.07.12,0,.21,0,.38,0,.3,0,.39q0,.53.07,1.42Z" fill="#333"/><path d="M38.82,20a3.43,3.43,0,0,1-.62,1.1l-.82,1.12a.48.48,0,0,0-.1.29c0,.13,0,.33,0,.59s0,.46,0,.59,0,.07-.09.07h-.83s-.07,0-.07-.11,0-.31,0-.57,0-.44,0-.57a.51.51,0,0,0-.09-.29l-.75-1q-.43-.61-.61-.93a.43.43,0,0,1-.06-.21q0-.46,0-1.33c0-.07,0-.1.08-.1h.77s.06,0,.06.06,0,.34,0,.61,0,.48,0,.61a5.92,5.92,0,0,0,1.1,1.54q.26-.31.6-.77a2.57,2.57,0,0,0,.47-.76c0-.13,0-.33,0-.6s0-.47,0-.6,0-.1.08-.1h.78c.05,0,.08,0,.08.12s0,.35,0,.63,0,.49,0,.63" fill="#333"/></svg>