<svg id="Layer_1" data-name="Layer 1" xmlns="http://www.w3.org/2000/svg" viewBox="0 0 125.34 110.94"><title>07</title><path d="M117.27,56H107l2.29-11h10.28Zm-3.2,15.33H103.78l2.12-10.14h10.28Zm-3.52,16.85H100.26l2.44-11.67H113ZM88.2,71.29l2.12-10.14H100.6L98.48,71.29ZM95,88.13H84.68l2.44-11.67H97.4ZM72.62,71.29l2.12-10.14H85L82.91,71.29Zm6.76,16.85H69.1l2.44-11.67H81.82ZM47.09,76.47H66.24L63.81,88.13H39l-11.05-27H69.45L67.33,71.29H47.09a2.59,2.59,0,0,0,0,5.18M78.12,45H88.4L86.11,56H75.83ZM93.7,45H104l-2.29,11H91.4Zm31.06-4.23a2.59,2.59,0,0,0-2-1H38A2.59,2.59,0,0,0,38,45h34.8L70.53,56H25.81L17.1,34.69a2.59,2.59,0,0,0-2.4-1.61H2.59a2.59,2.59,0,1,0,0,5.18H13l8.72,21.28v0L34.85,91.71h0l0,.1.05.11L35,92l.07.11,0,.08.13.17,0,0,.12.13.06.06.11.1.07.06.13.1.09.06L36,93l.09,0,.1.05.1,0,.12,0,.13,0,.16,0,.1,0,.14,0h75.72a2.59,2.59,0,0,0,2.54-2.06l3.37-16.13a2.58,2.58,0,0,0,.32-1.25c0-.08,0-.15,0-.23l6.42-30.71a2.59,2.59,0,0,0-.52-2.17" fill="#333"/><path d="M51.56,96.3a7.32,7.32,0,1,0,7.32,7.32,7.32,7.32,0,0,0-7.32-7.32" fill="#333"/><path d="M100.46,96.3a7.32,7.32,0,1,0,7.32,7.32,7.32,7.32,0,0,0-7.32-7.32" fill="#333"/><path d="M56.63,25.13a12.22,12.22,0,0,0-11.86,9.28H68.49a12.22,12.22,0,0,0-11.86-9.28" fill="#333"/><path d="M111,33.7a5.33,5.33,0,1,0-5.33-5.33A5.33,5.33,0,0,0,111,33.7" fill="#333"/><path d="M53,10.66A5.33,5.33,0,1,0,47.7,5.33,5.33,5.33,0,0,0,53,10.66" fill="#333"/><path d="M81.2,11.74h4.28V7.47q0-2.61,2.51-2.61t2.43,2.61v4.27h4.36a2.17,2.17,0,0,1,2.47,2.45,2.17,2.17,0,0,1-2.47,2.45H90.42v4.45A2.15,2.15,0,0,1,88,23.51a2.18,2.18,0,0,1-2.51-2.43V16.63H81.2a2.23,2.23,0,0,1-2.55-2.49q0-2.41,2.55-2.41m6.75,16.63A14.18,14.18,0,1,0,73.76,14.18,14.18,14.18,0,0,0,87.95,28.37" fill="#333"/></svg>