<svg id="Layer_1" data-name="Layer 1" xmlns="http://www.w3.org/2000/svg" viewBox="0 0 53 57.92"><title>02</title><path d="M14.17,16.77H12.69l-.57-1.41a.29.29,0,0,1,.27-.4h2.07a.29.29,0,0,1,.27.4Z" fill="#333"/><path d="M8.93,9.09a.6.6,0,0,1,.43.39A7.2,7.2,0,0,0,11.6,12.6a3,3,0,0,0,1.75.63A3.46,3.46,0,0,0,16,11.92a8.6,8.6,0,0,0,1.51-2.47.55.55,0,0,1,.25-.29A1.85,1.85,0,0,0,19,7.37c0-.42-.11-.52-.57-.61l.06-.33a8.1,8.1,0,0,0,.17-2.68A2.53,2.53,0,0,0,17.1,1.61a.4.4,0,0,1-.22-.19A1.84,1.84,0,0,0,15.36.16,6.56,6.56,0,0,0,9.91,1.35,3.83,3.83,0,0,0,8.24,4.62c0,.71.08,1.42.13,2.08-.15.12-.38.21-.44.37a1.78,1.78,0,0,0,1,2" fill="#333"/><path d="M27.83,31.31,23.95,26A35.11,35.11,0,0,1,22,19.65c-.13-.68-.21-1.24-.25-1.69a2,2,0,0,0-.25-.79v0a2,2,0,0,0-1-.84,10.67,10.67,0,0,0-1.36-.42h0v0l0,0L18,15.57l-.33-.1-1-.3a18.9,18.9,0,0,1-2.14,4.62l-.08.12-.24-2.65H12.69l-.23,2.52-.15-.22a17.52,17.52,0,0,1-2-4.4l-2.17.58c-.74.26-1.43.48-2.1.75H6a3.35,3.35,0,0,0-.95.56h0A14.66,14.66,0,0,0,.34,23a3.68,3.68,0,0,0-.27,2.29l1.78,8.85a2.09,2.09,0,1,0,4.09-.86L4.68,27.55h0l-.16-.72a2.18,2.18,0,0,1,.64-2.06L6.94,23.1V55.39a2.53,2.53,0,1,0,5.06,0V39.15a.93.93,0,1,1,1.85,0V55.39a2.53,2.53,0,1,0,5.06,0V26.25l.5.06,5.87,8.19c.06.08.12.07.18.14.92,1.17,2.36-.37,2.36-.37,1.05-1.2,0-3,0-3" fill="#333"/><path d="M5.18,49.25H3.35a.9.9,0,0,1-.9-.9V38.09a.9.9,0,0,1,.9-.9H5.18a.9.9,0,0,1,.9.9V48.35a.9.9,0,0,1-.9.9" fill="#333"/><rect x="3.61" y="33.77" width="1.3" height="5.98" fill="#333"/><path d="M38.83,16.77h1.48l.57-1.41a.29.29,0,0,0-.27-.4H38.53a.29.29,0,0,0-.27.4Z" fill="#333"/><path d="M44.07,9.09a.6.6,0,0,0-.43.39,7.2,7.2,0,0,1-2.25,3.12,3,3,0,0,1-1.75.63A3.46,3.46,0,0,1,37,11.92a8.6,8.6,0,0,1-1.52-2.47.55.55,0,0,0-.25-.29A1.85,1.85,0,0,1,34,7.37c0-.42.11-.52.57-.61l-.06-.33a8.1,8.1,0,0,1-.17-2.68A2.53,2.53,0,0,1,35.9,1.61a.4.4,0,0,0,.22-.19A1.84,1.84,0,0,1,37.64.16a6.56,6.56,0,0,1,5.45,1.18,3.83,3.83,0,0,1,1.67,3.28c0,.71-.09,1.42-.13,2.08.15.12.38.21.44.37a1.78,1.78,0,0,1-1,2" fill="#333"/><path d="M25.17,31.31,29.05,26A35.11,35.11,0,0,0,31,19.65h0c.13-.68.21-1.24.25-1.69a2,2,0,0,1,.25-.79v0a2,2,0,0,1,1-.84,10.67,10.67,0,0,1,1.36-.42h0v0l0,0L35,15.57l.33-.1,1-.3a18.9,18.9,0,0,0,2.14,4.62l.08.12.24-2.65h1.48l.23,2.52.15-.22a17.52,17.52,0,0,0,2-4.4l2.17.58c.74.26,1.43.48,2.1.75h0a3.35,3.35,0,0,1,.95.56h0a14.66,14.66,0,0,1,4.74,6,3.68,3.68,0,0,1,.27,2.29l-1.78,8.85A2.09,2.09,0,1,1,47,33.33l1.27-5.77h0l.16-.72a2.18,2.18,0,0,0-.64-2.06L46.06,23.1V55.39a2.53,2.53,0,1,1-5.06,0V39.15a.93.93,0,1,0-1.85,0V55.39a2.53,2.53,0,1,1-5.06,0V26.25l-.5.06-5.87,8.19c-.06.08-.12.07-.18.14-.92,1.17-2.36-.37-2.36-.37-1.05-1.2,0-3,0-3" fill="#333"/></svg>