<svg id="Layer_1" data-name="Layer 1" xmlns="http://www.w3.org/2000/svg" viewBox="0 0 172.65 128.32"><title>09</title><path d="M96.72,37.35c-7.4-.21-17.1,1.18-24.06,8.34L83,56.07" fill="none" stroke="#000" stroke-linecap="round" stroke-linejoin="round" stroke-width="4.58"/><path d="M122.64,63.28c.22,7.4-1.18,17.1-8.34,24.06L103.93,77" fill="none" stroke="#000" stroke-linecap="round" stroke-linejoin="round" stroke-width="4.58"/><path d="M117.51,66.55c40.2-23.75,40.2-64.26,40.2-64.26s-40.5,0-64.26,40.2" fill="none" stroke="#000" stroke-linecap="round" stroke-linejoin="round" stroke-width="4.58"/><circle cx="133.11" cy="26.89" r="4.75" transform="translate(19.98 102) rotate(-45)" fill="none" stroke="#000" stroke-linecap="round" stroke-linejoin="round" stroke-width="4.58"/><circle cx="120.81" cy="39.19" r="4.75" transform="translate(7.68 96.91) rotate(-45)" fill="none" stroke="#000" stroke-linecap="round" stroke-linejoin="round" stroke-width="4.58"/><circle cx="108.51" cy="51.49" r="4.75" transform="translate(-4.62 91.81) rotate(-45)" fill="none" stroke="#000" stroke-linecap="round" stroke-linejoin="round" stroke-width="4.58"/><path d="M90,53.09a26.23,26.23,0,0,0-11.41,6.77l21.52,21.52A26.23,26.23,0,0,0,106.91,70" fill="none" stroke="#000" stroke-linecap="round" stroke-linejoin="round" stroke-width="4.58"/><path d="M58.47,85.89A23.6,23.6,0,0,0,18,102.43c0,.41,0,.81,0,1.22A11.58,11.58,0,1,0,13.87,126H83.59a8.31,8.31,0,1,0-1.75-16.42c0-.06,0-.13,0-.19A16.56,16.56,0,0,0,77,97.75" fill="none" stroke="#000" stroke-linecap="round" stroke-linejoin="round" stroke-width="4.58"/><path d="M130.76,97.21a4.06,4.06,0,0,1,.85.09s0-.06,0-.09a8.08,8.08,0,0,1,9.06-8,11.5,11.5,0,0,1,22,4.63c0,.2,0,.4,0,.59a5.64,5.64,0,1,1,2,10.91h-34a4,4,0,0,1,0-8.09Z" fill="none" stroke="#000" stroke-linecap="round" stroke-linejoin="round" stroke-width="4.58"/><line x1="86.85" y1="90.39" x2="91.35" y2="85.89" fill="none" stroke="#000" stroke-linecap="round" stroke-linejoin="round" stroke-width="4.58"/><line x1="92.6" y1="102.68" x2="103.07" y2="92.21" fill="none" stroke="#000" stroke-linecap="round" stroke-linejoin="round" stroke-width="4.58"/><line x1="61.46" y1="97.74" x2="77.47" y2="81.73" fill="none" stroke="#000" stroke-linecap="round" stroke-linejoin="round" stroke-width="4.58"/><line x1="65.69" y1="75.48" x2="72.97" y2="68.2" fill="none" stroke="#000" stroke-linecap="round" stroke-linejoin="round" stroke-width="4.58"/><line x1="51.88" y1="70.7" x2="66.82" y2="55.76" fill="none" stroke="#000" stroke-linecap="round" stroke-linejoin="round" stroke-width="4.58"/></svg>