<svg id="Layer_1" data-name="Layer 1" xmlns="http://www.w3.org/2000/svg" viewBox="0 0 125.05 119.78"><title>08</title><path d="M7,119.78A13.23,13.23,0,0,1,20.2,106.55H31a13.23,13.23,0,0,1,13.24,13.23" fill="none" stroke="#000003" stroke-miterlimit="10" stroke-width="5"/><path d="M44.53,119.78a13.23,13.23,0,0,1,13.23-13.23H68.44a13.23,13.23,0,0,1,13.23,13.23" fill="none" stroke="#000003" stroke-miterlimit="10" stroke-width="5"/><path d="M81.78,119.78A13.23,13.23,0,0,1,95,106.55h10.78A13.23,13.23,0,0,1,119,119.78" fill="none" stroke="#000003" stroke-miterlimit="10" stroke-width="5"/><path d="M25.54,106.55h0a8,8,0,0,1-8-8V93.21a8,8,0,1,1,16,0v5.34A8,8,0,0,1,25.54,106.55Z" fill="none" stroke="#000003" stroke-miterlimit="10" stroke-width="5"/><path d="M63,106.55h0a8,8,0,0,1-8-8V93.21a8,8,0,1,1,16,0v5.34A8,8,0,0,1,63,106.55Z" fill="none" stroke="#000003" stroke-miterlimit="10" stroke-width="5"/><path d="M100.35,106.55h0a8,8,0,0,1-8-8V93.21a8,8,0,1,1,16,0v5.34A8,8,0,0,1,100.35,106.55Z" fill="none" stroke="#000003" stroke-miterlimit="10" stroke-width="5"/><path d="M39,85.2V62.64a4.78,4.78,0,0,1,4.07-4.73l22.41-3.36a3.37,3.37,0,0,0-.5-6.7H11.73a5.7,5.7,0,0,0-5.61,4.68L2.57,72a4.37,4.37,0,0,0,4.3,5.15h5.44v8" fill="none" stroke="#000003" stroke-miterlimit="10" stroke-width="5"/><path d="M33.65,26.51v6.24a8,8,0,0,1-16,0V26.51a8,8,0,0,1,16,0Z" fill="none" stroke="#000003" stroke-miterlimit="10" stroke-width="5"/><polyline points="31.85 21.18 31.85 10.5 114.55 10.5 114.55 74.53 38.98 74.53" fill="none" stroke="#000003" stroke-miterlimit="10" stroke-width="5"/><polyline points="52.33 55.86 52.33 63.86 60.33 63.86" fill="none" stroke="#000003" stroke-miterlimit="10" stroke-width="5"/><line x1="52.33" y1="31.85" x2="52.33" y2="47.85" fill="none" stroke="#000003" stroke-miterlimit="10" stroke-width="5"/><polyline points="68.33 26.51 68.33 63.86 76.33 63.86" fill="none" stroke="#000003" stroke-miterlimit="10" stroke-width="5"/><polyline points="84.34 18.51 84.34 63.86 92.34 63.86" fill="none" stroke="#000003" stroke-miterlimit="10" stroke-width="5"/><line x1="23.84" y1="2.5" x2="122.55" y2="2.5" fill="none" stroke="#000003" stroke-linecap="round" stroke-miterlimit="10" stroke-width="5"/><polyline points="20.31 77.2 30.98 77.2 30.98 58.52 20.31 58.52 20.31 69.2" fill="none" stroke="#000003" stroke-miterlimit="10" stroke-width="5"/><path d="M12.31,77.2h9.34a4,4,0,1,0,0-8H12.31" fill="none" stroke="#000003" stroke-linecap="round" stroke-miterlimit="10" stroke-width="5"/></svg>