<svg xmlns="http://www.w3.org/2000/svg" xmlns:xlink="http://www.w3.org/1999/xlink" width="44.863" height="44.862" viewBox="0 0 44.863 44.862">
  <defs>
    <radialGradient id="radial-gradient" cx="0.5" cy="0.5" r="0.5" gradientUnits="objectBoundingBox">
      <stop offset="0" stop-color="#f1f1f1" stop-opacity="0.831"/>
      <stop offset="0.143" stop-color="#eae8e8" stop-opacity="0.361"/>
      <stop offset="1" stop-color="#e8e8e8" stop-opacity="0.831"/>
    </radialGradient>
  </defs>
  <g id="android" transform="translate(-9510.999 -9656)">
    <g id="Group_9" data-name="Group 9" transform="translate(58 -1)">
      <g id="Group_7" data-name="Group 7" transform="translate(-99 144)">
        <g id="Group_5" data-name="Group 5" transform="translate(42 -70)">
          <g id="hire-dedicated-develope" transform="translate(8891.793 9306.955)">
            <path id="Ellipse_1" data-name="Ellipse 1" d="M22.3-.058A22.431,22.431,0,1,1-.059,22.366,22.431,22.431,0,0,1,22.3-.058Z" transform="translate(618.265 320.848) rotate(-90)" fill="url(#radial-gradient)"/>
          </g>
        </g>
      </g>
    </g>
    <g id="Group_10" data-name="Group 10" transform="translate(9308.481 9502.896)">
      <path id="Path_16" data-name="Path 16" d="M229.3,191.635h-.672v.2c0,.6.008,1.2,0,1.794a1.339,1.339,0,0,1-1.788,1.279,1.364,1.364,0,0,1-.9-1.332c0-.573,0-1.146,0-1.719v-.229c-.136,0-.258,0-.38,0a1.6,1.6,0,0,1-1.571-1.221,1.906,1.906,0,0,1-.062-.5q-.006-3.27,0-6.539c0-.355.112-.466.472-.466h9.137c.367,0,.47.107.47.485q0,3.242,0,6.484a1.641,1.641,0,0,1-1.766,1.756h-.248v.21c0,.585.007,1.171,0,1.756a1.343,1.343,0,1,1-2.686.013c-.005-.585,0-1.171,0-1.756Zm-4.7-8.049v4.961c0,.467,0,.934,0,1.4a.955.955,0,0,0,1.009,1.009c.162,0,.324,0,.486,0,.429,0,.52.089.52.51q0,1.055,0,2.111a.7.7,0,0,0,.246.58.635.635,0,0,0,.7.1.643.643,0,0,0,.4-.623c0-.747,0-1.495,0-2.242,0-.306.125-.431.431-.433.368,0,.735,0,1.1,0s.482.107.482.476c0,.729,0,1.458,0,2.186a.663.663,0,0,0,.453.659.671.671,0,0,0,.888-.667c.007-.741,0-1.482,0-2.224,0-.308.12-.426.431-.43.168,0,.337,0,.5,0a.971.971,0,0,0,1.079-1.088q0-3.036,0-6.072v-.211Z" transform="translate(-3.715 -9.749)" fill="#db1010"/>
      <path id="Path_17" data-name="Path 17" d="M226.662,168l-.758-1.268a1.211,1.211,0,0,1-.087-.165.328.328,0,0,1,.138-.42.323.323,0,0,1,.419.084,1.463,1.463,0,0,1,.123.186c.24.4.483.8.718,1.2a.148.148,0,0,0,.207.082,4.811,4.811,0,0,1,3.1,0,.148.148,0,0,0,.207-.083c.242-.414.491-.823.738-1.233a1.3,1.3,0,0,1,.092-.141.328.328,0,0,1,.559.341c-.1.2-.229.4-.347.6-.159.267-.32.533-.491.819l.155.095a5,5,0,0,1,2.573,4.282c.015.317-.124.442-.478.442h-9.116c-.374,0-.495-.127-.473-.5a4.986,4.986,0,0,1,2.6-4.243C226.578,168.058,226.613,168.033,226.662,168Zm6.639,4.137a4.34,4.34,0,0,0-8.656,0Z" transform="translate(-3.724 0)" fill="#db1010"/>
      <path id="Path_18" data-name="Path 18" d="M219.871,186.431c0,.772.007,1.544,0,2.315a1.162,1.162,0,0,1-1.307,1.2,1.192,1.192,0,0,1-1.043-1.287c.009-1.481,0-2.962.005-4.444a1.747,1.747,0,0,1,.067-.5,1.16,1.16,0,0,1,1.281-.795A1.146,1.146,0,0,1,219.86,184c.017.809,0,1.618,0,2.427Zm-.672,0c0-.772,0-1.544,0-2.316a.491.491,0,0,0-.538-.529c-.289.018-.466.237-.466.589q0,2.259,0,4.519a.968.968,0,0,0,.014.167.5.5,0,0,0,.99-.114C219.2,187.976,219.2,187.2,219.2,186.433Z" transform="translate(0 -9.755)" fill="#db1010"/>
      <path id="Path_19" data-name="Path 19" d="M248.736,186.418c0-.766-.007-1.531,0-2.3a1.173,1.173,0,1,1,2.344.018c.011,1.531.008,3.062,0,4.593a1.173,1.173,0,0,1-1.77,1.061,1.078,1.078,0,0,1-.568-.929c-.013-.815,0-1.631,0-2.446Zm.672.016v.429c0,.635,0,1.27,0,1.905a.489.489,0,0,0,.515.517c.3-.008.489-.234.489-.606q0-2.241,0-4.482a1.1,1.1,0,0,0-.021-.222.483.483,0,0,0-.464-.387.491.491,0,0,0-.52.53C249.405,184.89,249.408,185.662,249.407,186.434Z" transform="translate(-18.114 -9.757)" fill="#db1010"/>
      <path id="Path_20" data-name="Path 20" d="M230.718,175.638a1.045,1.045,0,0,1-.05.294c-.085.179-.755.187-.8,0a1.156,1.156,0,0,1,0-.652c.087-.223.354-.107.542-.113a.339.339,0,0,1,.259.127A.912.912,0,0,1,230.718,175.638Z" transform="translate(-7.14 -5.245)"/>
      <path id="Path_21" data-name="Path 21" d="M239.921,175.589a1.187,1.187,0,0,1,.025-.266c.047-.145.178-.165.307-.149.184.024.442-.1.525.147a.988.988,0,0,1,0,.585c-.086.259-.35.131-.54.153-.13.015-.259-.016-.3-.163A1.591,1.591,0,0,1,239.921,175.589Z" transform="translate(-13 -5.256)"/>
    </g>
  </g>
</svg>
