<svg xmlns="http://www.w3.org/2000/svg" xmlns:xlink="http://www.w3.org/1999/xlink" width="44.863" height="44.862" viewBox="0 0 44.863 44.862">
  <defs>
    <radialGradient id="radial-gradient" cx="0.5" cy="0.5" r="0.5" gradientUnits="objectBoundingBox">
      <stop offset="0" stop-color="#f1f1f1" stop-opacity="0.831"/>
      <stop offset="0.143" stop-color="#eae8e8" stop-opacity="0.361"/>
      <stop offset="1" stop-color="#e8e8e8" stop-opacity="0.831"/>
    </radialGradient>
  </defs>
  <g id="iOS" transform="translate(-9567.999 -9656)">
    <g id="iOS-2" data-name="iOS" transform="translate(115 -1)">
      <g id="Group_7" data-name="Group 7" transform="translate(-99 144)">
        <g id="Group_5" data-name="Group 5" transform="translate(42 -70)">
          <g id="hire-dedicated-develope" transform="translate(8891.793 9306.955)">
            <path id="Ellipse_1" data-name="Ellipse 1" d="M22.3-.058A22.431,22.431,0,1,1-.059,22.366,22.431,22.431,0,0,1,22.3-.058Z" transform="translate(618.265 320.848) rotate(-90)" fill="url(#radial-gradient)"/>
          </g>
        </g>
      </g>
    </g>
    <g id="vuesax_twotone_apple" data-name="vuesax/twotone/apple" transform="translate(9580.287 9666.287)">
      <g id="apple">
        <path id="BG_19" data-name="BG 19" d="M0,0H20.289V20.289H0Z" fill="none" opacity="0.58"/>
        <path id="Vector" d="M12.143,9.536a10.843,10.843,0,0,0,.989-1.86,3.389,3.389,0,0,1-.448-6.121A3.878,3.878,0,0,0,9.75,0,4.475,4.475,0,0,0,8.017.372,3.162,3.162,0,0,1,6.834.659a3.994,3.994,0,0,1-1.327-.3A4.626,4.626,0,0,0,3.9,0,4,4,0,0,0,.688,1.936C-.42,3.66-.234,6.9,1.567,9.663c.642.989,1.5,2.1,2.629,2.1a2.393,2.393,0,0,0,1.116-.287,3.38,3.38,0,0,1,1.53-.364,3.11,3.11,0,0,1,1.522.364,2.389,2.389,0,0,0,1.091.287C10.587,11.759,11.5,10.525,12.143,9.536Z" transform="translate(3.573 6.831)" fill="none" stroke="#db1010" stroke-linecap="round" stroke-linejoin="round" stroke-width="1"/>
        <path id="Vector-2" data-name="Vector" d="M3.138,0a3.4,3.4,0,0,1-.744,2.494,3.025,3.025,0,0,1-2.359,1.2A3.144,3.144,0,0,1,.8,1.26,3.674,3.674,0,0,1,3.138,0Z" transform="translate(10.397 1.75)" fill="none" stroke="#000" stroke-linecap="round" stroke-linejoin="round" stroke-width="1"/>
        <path id="Vector-3" data-name="Vector" d="M0,0H20.289V20.289H0Z" fill="none" opacity="0"/>
      </g>
    </g>
  </g>
</svg>
