<svg xmlns="http://www.w3.org/2000/svg" xmlns:xlink="http://www.w3.org/1999/xlink" width="44.863" height="44.862" viewBox="0 0 44.863 44.862">
  <defs>
    <radialGradient id="radial-gradient" cx="0.5" cy="0.5" r="0.5" gradientUnits="objectBoundingBox">
      <stop offset="0" stop-color="#f1f1f1" stop-opacity="0.831"/>
      <stop offset="0.143" stop-color="#eae8e8" stop-opacity="0.361"/>
      <stop offset="1" stop-color="#e8e8e8" stop-opacity="0.831"/>
    </radialGradient>
  </defs>
  <g id="java" transform="translate(-9452.999 -9657)">
    <g id="Group_7" data-name="Group 7" transform="translate(-99 144)">
      <g id="Group_5" data-name="Group 5" transform="translate(42 -70)">
        <g id="hire-dedicated-develope" transform="translate(8891.793 9306.955)">
          <path id="Ellipse_1" data-name="Ellipse 1" d="M22.3-.058A22.431,22.431,0,1,1-.059,22.366,22.431,22.431,0,0,1,22.3-.058Z" transform="translate(618.265 320.848) rotate(-90)" fill="url(#radial-gradient)"/>
        </g>
      </g>
    </g>
    <path id="java-2" data-name="java" d="M13.29,14.9a7.7,7.7,0,0,1,1.114-.6s-1.839.333-3.678.485a33.482,33.482,0,0,1-5.862.062C2,14.468,6.435,13.415,6.435,13.415a8.432,8.432,0,0,0-3.837.9C.1,15.53,8.791,16.082,13.29,14.9ZM9.224,13.368c-.9-2.033-2.309-2.085,0,.006Zm5.166,4.483a.575.575,0,0,1-.1.124c6.108-1.609,3.861-5.661.943-4.632a.825.825,0,0,0-.391.3,3.354,3.354,0,0,1,.524-.143c1.476-.309,3.594,1.976-.98,4.352Zm2.245,2.966s.69.567-.757,1.009c-2.759.833-11.464,1.085-13.882.033-.871-.376.762-.9,1.276-1.014a3.448,3.448,0,0,1,.843-.1c-.967-.68-6.251,1.338-2.685,1.914,9.723,1.59,17.729-.7,15.207-1.84ZM5.991,18.851c-3.747,1.047,2.281,3.209,7.051,1.167A8.851,8.851,0,0,1,11.7,19.36a13.933,13.933,0,0,1-5.046.214c-1.6-.18-.662-.724-.662-.724Zm8.56,4.628a36.086,36.086,0,0,1-11.107.171s.562.46,3.448.647c4.39.28,11.131-.157,11.288-2.233,0,.006-.306.789-3.629,1.416ZM12.475,16.8a19.667,19.667,0,0,1-6.513.314c-1.6-.167-.552-.938-.552-.938-4.138,1.371,2.3,2.923,8.069,1.233a2.874,2.874,0,0,1-1-.609Z" transform="translate(9465.792 9667)" fill="#db1010"/>
    <path id="java-3" data-name="java" d="M9.224,13.368c-.9-2.033-3.956-3.819,0-6.942,4.935-3.9,2.4-6.427,2.4-6.427,1.023,4.023-3.6,5.242-5.27,7.742-1.138,1.709.557,3.542,2.866,5.632Zm5.457-8.391s-7.987,2.574-4,7.163a1.651,1.651,0,0,1-.578,2s2.9-1.462,1.525-3.389c-1.277-1.8-2.258-2.693,3.058-5.774Z" transform="translate(9465.792 9667)" fill="#030303"/>
  </g>
</svg>
