<svg xmlns="http://www.w3.org/2000/svg" xmlns:xlink="http://www.w3.org/1999/xlink" width="44.863" height="44.862" viewBox="0 0 44.863 44.862">
  <defs>
    <radialGradient id="radial-gradient" cx="0.5" cy="0.5" r="0.5" gradientUnits="objectBoundingBox">
      <stop offset="0" stop-color="#f1f1f1" stop-opacity="0.831"/>
      <stop offset="0.143" stop-color="#eae8e8" stop-opacity="0.361"/>
      <stop offset="1" stop-color="#e8e8e8" stop-opacity="0.831"/>
    </radialGradient>
  </defs>
  <g id="laravel" transform="translate(-9551.999 -9513)">
    <g id="Group_5" data-name="Group 5" transform="translate(42 -70)">
      <g id="hire-dedicated-develope" transform="translate(8891.793 9306.955)">
        <path id="Ellipse_1" data-name="Ellipse 1" d="M22.3-.058A22.431,22.431,0,1,1-.059,22.366,22.431,22.431,0,0,1,22.3-.058Z" transform="translate(618.265 320.848) rotate(-90)" fill="url(#radial-gradient)"/>
      </g>
    </g>
    <path id="Path_15" data-name="Path 15" d="M106.389,104.141c.531.3,1.064.6,1.594.905.75.429,1.5.864,2.248,1.291a.4.4,0,0,1,.222.388q0,3.963,0,7.925v.129c.04-.02.066-.033.091-.047q1.508-.868,3.017-1.736a.122.122,0,0,0,.069-.123c0-1.34,0-2.68,0-4.02a.373.373,0,0,1,.205-.354q1.856-1.065,3.708-2.135a.367.367,0,0,1,.4,0q1.853,1.07,3.709,2.135a.367.367,0,0,1,.2.348q0,2.117,0,4.234a.37.37,0,0,1-.205.354q-1.76,1.009-3.517,2.022a.134.134,0,0,0-.079.134c0,1.335,0,2.669,0,4a.39.39,0,0,1-.216.373q-3.736,2.146-7.467,4.3a.415.415,0,0,1-.46,0q-3.745-2.162-7.494-4.317a.35.35,0,0,1-.19-.329q0-6.467,0-12.934a.351.351,0,0,1,.189-.33l3.745-2.154c.042-.024.088-.042.133-.062Zm-3.543,3.045v.119q0,6.034,0,12.068a.159.159,0,0,0,.092.161q3.4,1.954,6.8,3.911l.093.052v-.12q0-1.709,0-3.419a.17.17,0,0,0-.1-.173c-1.154-.65-2.306-1.305-3.461-1.953a.424.424,0,0,1-.243-.415q.007-4.152,0-8.3a.147.147,0,0,0-.085-.149q-1.5-.861-3-1.727Zm14.584,8.675-.1.053q-3.4,1.941-6.8,3.882a.141.141,0,0,0-.082.142q0,1.73,0,3.46c0,.029,0,.058.006.1l.1-.054q3.395-1.954,6.79-3.907a.153.153,0,0,0,.09-.154q0-1.7,0-3.4Zm-7.6-8.67c-.032.015-.048.021-.062.029q-1.53.88-3.06,1.76a.115.115,0,0,0-.058.122q0,3.884,0,7.767v.1l.1-.053q1.494-.859,2.989-1.718a.16.16,0,0,0,.093-.161q0-3.867,0-7.734Zm7.28,8.132c-.035-.022-.059-.038-.085-.053q-1.5-.864-3-1.73a.139.139,0,0,0-.162,0q-3.4,1.961-6.8,3.919c-.025.015-.05.032-.082.053l.093.055q1.5.849,3,1.7a.129.129,0,0,0,.148,0l6.746-3.852C117.007,115.384,117.052,115.356,117.107,115.323Zm-13.941-8.678c.034.022.052.034.07.045q1.519.875,3.037,1.75a.111.111,0,0,0,.127,0q1.521-.878,3.044-1.755c.018-.01.034-.024.058-.041-.03-.019-.052-.035-.075-.048q-1.512-.87-3.023-1.741a.116.116,0,0,0-.135,0q-1.464.846-2.93,1.688ZM120.91,108.8c-.037-.023-.064-.041-.092-.057q-1.5-.866-3.008-1.733a.122.122,0,0,0-.141,0q-1.3.754-2.61,1.5l-.492.284c.035.022.059.039.085.054q1.5.867,3.009,1.734a.135.135,0,0,0,.156,0q1.489-.861,2.979-1.718Zm-3.486,5.985c0-.042.005-.066.005-.09q0-1.726,0-3.451a.111.111,0,0,0-.063-.111q-1.52-.872-3.038-1.747c-.022-.013-.046-.023-.083-.041v.1q0,1.709,0,3.418a.141.141,0,0,0,.084.141q1.41.808,2.817,1.62Zm3.8-5.44c-.035.018-.055.027-.073.037q-1.515.872-3.031,1.743a.127.127,0,0,0-.072.129q0,1.713,0,3.426v.1c.039-.021.065-.033.09-.048q1.5-.866,3.01-1.73a.135.135,0,0,0,.077-.137q0-1.709,0-3.418Z" transform="translate(9463.776 9420.859)" fill="#db1010" stroke="#db1010" stroke-width="0.2"/>
  </g>
</svg>
