<svg xmlns="http://www.w3.org/2000/svg" xmlns:xlink="http://www.w3.org/1999/xlink" width="44.863" height="44.862" viewBox="0 0 44.863 44.862">
  <defs>
    <radialGradient id="radial-gradient" cx="0.5" cy="0.5" r="0.5" gradientUnits="objectBoundingBox">
      <stop offset="0" stop-color="#f1f1f1" stop-opacity="0.831"/>
      <stop offset="0.143" stop-color="#eae8e8" stop-opacity="0.361"/>
      <stop offset="1" stop-color="#e8e8e8" stop-opacity="0.831"/>
    </radialGradient>
  </defs>
  <g id="php" transform="translate(-9459.565 -9582.567)">
    <g id="hire-dedicated-develope" transform="translate(8841.359 9306.521)">
      <path id="Ellipse_1" data-name="Ellipse 1" d="M22.3-.058A22.431,22.431,0,1,1-.059,22.366,22.431,22.431,0,0,1,22.3-.058Z" transform="translate(618.265 320.848) rotate(-90)" fill="url(#radial-gradient)"/>
    </g>
    <g id="Group_2" data-name="Group 2" transform="translate(9413.332 9492.642)">
      <path id="Path_5" data-name="Path 5" d="M58.5,105.895a1.006,1.006,0,0,0,.042-.109,1.541,1.541,0,0,1,1.518-1.193c1.283-.005,2.566,0,3.848,0,.236,0,.376.117.372.3s-.146.3-.382.3q-1.8,0-3.605,0c-.088,0-.176,0-.263,0a.914.914,0,0,0-.91.839c-.027.659-.007,1.32-.007,2.007H71.327a1.139,1.139,0,0,1,.262.013.3.3,0,0,1-.045.592c-.067.005-.135,0-.2,0H59.108v.232q0,4.932,0,9.864a.954.954,0,0,0,1.055,1.05c.83,0,1.661,0,2.491,0,.087,0,.2-.013.254.034a.526.526,0,0,1,.192.295.255.255,0,0,1-.246.272,1.263,1.263,0,0,1-.182.006H60.161a1.545,1.545,0,0,1-1.63-1.254.2.2,0,0,0-.031-.05Z" transform="translate(0 -0.15)" fill="#db1010" stroke="#db1010" stroke-width="0.2"/>
      <path id="Path_6" data-name="Path 6" d="M175.53,108.5h-5.384a1.576,1.576,0,0,1-.2,0,.279.279,0,0,1-.26-.266.273.273,0,0,1,.2-.311.9.9,0,0,1,.259-.025q2.562,0,5.125,0h.268v-.327c0-.5,0-1,0-1.5a.947.947,0,0,0-1.025-1.02h-11.85a1.1,1.1,0,0,1-.28-.023.272.272,0,0,1-.213-.322.275.275,0,0,1,.266-.258,1.955,1.955,0,0,1,.2,0c3.936,0,7.873.014,11.809-.01a1.654,1.654,0,0,1,1.707,1.711c-.02,4.159-.008,8.319-.009,12.478a1.559,1.559,0,0,1-1.259,1.609,1.933,1.933,0,0,1-.383.027H161.357a1.243,1.243,0,0,1-.162,0,.275.275,0,0,1-.259-.266.269.269,0,0,1,.2-.31,1.037,1.037,0,0,1,.28-.027H174.5a.947.947,0,0,0,1.015-.771,1.122,1.122,0,0,0,.018-.221q0-4.993,0-9.986C175.537,108.624,175.533,108.578,175.53,108.5Z" transform="translate(-96.901)" fill="#db1010" stroke="#db1010" stroke-width="0.2"/>
      <path id="Path_7" data-name="Path 7" d="M223.315,231.426h1.874c0-.079,0-.15,0-.222,0-.392,0-.783,0-1.175a.3.3,0,0,1,.313-.323.289.289,0,0,1,.29.321q0,1.772,0,3.544a.293.293,0,0,1-.286.325.3.3,0,0,1-.316-.319c-.008-.432,0-.864,0-1.3,0-.072,0-.145,0-.228h-1.874v.554c0,.317,0,.635,0,.952a.3.3,0,0,1-.3.337.3.3,0,0,1-.306-.328q0-1.772,0-3.544a.293.293,0,0,1,.293-.319.3.3,0,0,1,.311.325C223.318,230.489,223.315,230.947,223.315,231.426Z" transform="translate(-155.337 -118.507)"/>
      <path id="Path_8" data-name="Path 8" d="M305.339,232.189c0,.4,0,.751,0,1.1a1.371,1.371,0,0,1-.009.222.3.3,0,0,1-.577.032.844.844,0,0,1-.021-.22q0-1.659,0-3.318c0-.355.088-.443.444-.443.33,0,.662-.01.991.015a1.307,1.307,0,0,1,.007,2.607C305.906,232.208,305.636,232.189,305.339,232.189Zm.009-2c0,.445,0,.876,0,1.305a.151.151,0,0,0,.108.1,5.212,5.212,0,0,0,.706-.02.7.7,0,0,0-.01-1.381C305.9,230.165,305.635,230.186,305.348,230.186Z" transform="translate(-232.929 -118.371)"/>
      <path id="Path_9" data-name="Path 9" d="M157.416,232.173c0,.428,0,.805,0,1.182,0,.257-.108.392-.305.389s-.3-.138-.3-.4q0-1.7,0-3.4c0-.289.1-.4.384-.4.351,0,.7-.012,1.052.015a1.308,1.308,0,0,1,0,2.607C157.98,232.192,157.71,232.173,157.416,232.173Zm.011-.618a7.239,7.239,0,0,0,.847-.007.695.695,0,0,0,.025-1.36,6.528,6.528,0,0,0-.872-.008Z" transform="translate(-92.998 -118.354)"/>
      <path id="Path_10" data-name="Path 10" d="M90.234,224.2l1.557,1.885c.03.036.062.071.09.109a.312.312,0,0,1-.022.451.3.3,0,0,1-.445-.065c-.231-.272-.456-.55-.684-.825q-.535-.647-1.069-1.294a.33.33,0,0,1,0-.517q.862-1.046,1.727-2.089c.152-.184.324-.219.47-.1s.148.307-.01.5C91.314,222.9,90.781,223.544,90.234,224.2Z" transform="translate(-29.358 -110.924)"/>
      <path id="Path_11" data-name="Path 11" d="M369.3,226.773c-.106-.089-.235-.145-.259-.23a.446.446,0,0,1,.057-.346c.295-.385.612-.753.921-1.128.2-.244.4-.493.608-.731.091-.1.083-.168,0-.271-.512-.609-1.017-1.224-1.522-1.839a.306.306,0,0,1-.014-.451c.141-.139.331-.115.487.072.346.414.689.831,1.032,1.246.236.286.474.571.708.858a.323.323,0,0,1,0,.5q-.862,1.046-1.729,2.088A1.967,1.967,0,0,1,369.3,226.773Z" transform="translate(-293.727 -110.924)"/>
      <path id="Path_12" data-name="Path 12" d="M159.871,132.357a.563.563,0,1,1,.567.565A.57.57,0,0,1,159.871,132.357Z" transform="translate(-95.895 -25.887)"/>
      <path id="Path_13" data-name="Path 13" d="M128.455,131.793a.563.563,0,0,1-.018,1.125.563.563,0,0,1,.018-1.125Z" transform="translate(-65.638 -25.884)"/>
      <path id="Path_14" data-name="Path 14" d="M95.885,132.339a.557.557,0,1,1,.55.58A.559.559,0,0,1,95.885,132.339Z" transform="translate(-35.366 -25.885)"/>
    </g>
  </g>
</svg>
