<svg xmlns="http://www.w3.org/2000/svg" xmlns:xlink="http://www.w3.org/1999/xlink" width="44.863" height="44.862" viewBox="0 0 44.863 44.862">
  <defs>
    <radialGradient id="radial-gradient" cx="0.5" cy="0.5" r="0.5" gradientUnits="objectBoundingBox">
      <stop offset="0" stop-color="#f1f1f1" stop-opacity="0.831"/>
      <stop offset="0.143" stop-color="#eae8e8" stop-opacity="0.361"/>
      <stop offset="1" stop-color="#e8e8e8" stop-opacity="0.831"/>
    </radialGradient>
  </defs>
  <g id="ui_ux" data-name="ui/ux" transform="translate(-9509.999 -9583)">
    <g id="hire-dedicated-develope" transform="translate(8891.793 9306.955)">
      <path id="Ellipse_1" data-name="Ellipse 1" d="M22.3-.058A22.431,22.431,0,1,1-.059,22.366,22.431,22.431,0,0,1,22.3-.058Z" transform="translate(618.265 320.848) rotate(-90)" fill="url(#radial-gradient)"/>
    </g>
    <g id="vuesax_outline_pen-tool-2" data-name="vuesax/outline/pen-tool-2" transform="translate(9348 9341)">
      <g id="pen-tool-2">
        <path id="Vector" d="M4.7,4.81H2.178A2.244,2.244,0,0,1,.428,4a1.885,1.885,0,0,1-.38-1.61L.458.58A.749.749,0,0,1,1.188,0h4.5a.749.749,0,0,1,.73.58l.41,1.81a1.91,1.91,0,0,1-.36,1.64A2.28,2.28,0,0,1,4.7,4.81ZM1.788,1.48l-.28,1.23a.4.4,0,0,0,.09.34.733.733,0,0,0,.58.25H4.7a.754.754,0,0,0,.6-.23.424.424,0,0,0,.07-.37l-.28-1.23h-3.3Z" transform="translate(180.572 270.44)" fill="#db1010"/>
        <path id="Vector-2" data-name="Vector" d="M7.765,9.95a.731.731,0,0,1-.56-.25.756.756,0,0,1,.06-1.06L9,7.1c.69-.61.66-.76.15-1.4L6.1,1.83a.768.768,0,0,0-.58-.33.768.768,0,0,0-.58.33L1.885,5.7c-.54.69-.53.84.13,1.38l1.75,1.56a.751.751,0,1,1-1,1.12L1.035,8.22C-.225,7.19-.335,6.09.705,4.77L3.755.9A2.256,2.256,0,0,1,5.515,0a2.256,2.256,0,0,1,1.76.9l3.05,3.87c1.03,1.3.93,2.34-.33,3.45L8.265,9.76A.765.765,0,0,1,7.765,9.95Z" transform="translate(178.495 261.97)" fill="#db1010"/>
        <path id="Vector-3" data-name="Vector" d="M.75,4.03A.755.755,0,0,1,0,3.28V.75A.755.755,0,0,1,.75,0,.755.755,0,0,1,1.5.75V3.28A.749.749,0,0,1,.75,4.03Z" transform="translate(183.26 262.37)" fill="#db1010"/>
        <path id="Vector-4" data-name="Vector" d="M2.75,4.5h-1A1.758,1.758,0,0,1,0,2.75v-1A1.758,1.758,0,0,1,1.75,0h1A1.758,1.758,0,0,1,4.5,1.75v1A1.752,1.752,0,0,1,2.75,4.5Zm-1-3a.248.248,0,0,0-.25.25v1A.248.248,0,0,0,1.75,3h1A.248.248,0,0,0,3,2.75v-1a.248.248,0,0,0-.25-.25Z" transform="translate(181.77 253.25)" fill="#292d32"/>
        <path id="Vector-5" data-name="Vector" d="M2.75,4.5h-1A1.758,1.758,0,0,1,0,2.75v-1A1.758,1.758,0,0,1,1.75,0h1A1.758,1.758,0,0,1,4.5,1.75v1A1.758,1.758,0,0,1,2.75,4.5Zm-1-3a.248.248,0,0,0-.25.25v1A.248.248,0,0,0,1.75,3h1A.248.248,0,0,0,3,2.75v-1a.248.248,0,0,0-.25-.25Z" transform="translate(173.52 262.42)" fill="#292d32"/>
        <path id="Vector-6" data-name="Vector" d="M2.75,4.5h-1A1.758,1.758,0,0,1,0,2.75v-1A1.758,1.758,0,0,1,1.75,0h1A1.758,1.758,0,0,1,4.5,1.75v1A1.752,1.752,0,0,1,2.75,4.5Zm-1-3a.248.248,0,0,0-.25.25v1A.248.248,0,0,0,1.75,3h1A.248.248,0,0,0,3,2.75v-1a.248.248,0,0,0-.25-.25Z" transform="translate(189.98 262.42)" fill="#292d32"/>
        <path id="Vector-7" data-name="Vector" d="M.75,9.114A.755.755,0,0,1,0,8.364,8.422,8.422,0,0,1,7.44,0a.758.758,0,0,1,.83.66.751.751,0,0,1-.66.83A6.92,6.92,0,0,0,1.5,8.364.755.755,0,0,1,.75,9.114Z" transform="translate(175 254.806)" fill="#292d32"/>
        <path id="Vector-8" data-name="Vector" d="M7.476,9.1a.755.755,0,0,1-.75-.75,6.914,6.914,0,0,0-6.07-6.86.744.744,0,0,1-.65-.83.741.741,0,0,1,.84-.65,8.416,8.416,0,0,1,7.39,8.35A.762.762,0,0,1,7.476,9.1Z" transform="translate(184.774 254.822)" fill="#292d32"/>
        <path id="Vector-9" data-name="Vector" d="M0,0H24V24H0Z" transform="translate(172 252)" fill="none" opacity="0"/>
      </g>
    </g>
  </g>
</svg>
