<svg width="100" height="100" viewBox="0 0 100 100" fill="none" xmlns="http://www.w3.org/2000/svg">
<path fill-rule="evenodd" clip-rule="evenodd" d="M55.9972 38.999C57.8514 39.4398 59.6055 40.1629 61.227 41.1465L62.7842 39.606C63.4378 38.9594 64.4999 38.9594 65.1534 39.606L68.817 43.2304C69.4706 43.8769 69.4706 44.9278 68.817 45.5744L67.2605 47.1142C68.2551 48.7191 68.9853 50.4538 69.4312 52.2888H71.6284C72.5522 52.2888 73.3038 53.0323 73.3038 53.9463V55.6208H75.6336C83.0771 55.6208 89.1639 61.6425 89.1639 69.0065C89.1639 76.3703 83.0769 82.3922 75.6336 82.3922H36.9336C36.214 86.7178 30.8031 88.4791 27.6344 85.3443C25.4903 83.2231 25.4903 79.7843 27.6344 77.6632C30.8031 74.5286 36.214 76.2896 36.9336 80.6153H75.6339C82.0861 80.6153 87.3684 75.3894 87.3684 69.0063C87.3684 62.623 82.0861 57.3973 75.6339 57.3973H73.3041V59.072C73.3041 59.5259 73.1154 59.9397 72.8111 60.2417L72.8129 60.2435C72.5096 60.5436 72.0906 60.7296 71.6287 60.7296H69.4309C68.9853 62.5639 68.2542 64.2993 67.2602 65.9035L68.8174 67.444C69.4709 68.0906 69.4709 69.1413 68.8174 69.788L65.1538 73.4125C64.5002 74.059 63.4381 74.059 62.7846 73.4125L61.2281 71.8726C59.6057 72.8565 57.8523 73.5789 55.9975 74.0201V76.1937C55.9975 77.1028 55.2409 77.8511 54.3221 77.8511H49.1409C48.2219 77.8511 47.4655 77.1026 47.4655 76.1937V74.0194C45.6107 73.5782 43.8577 72.8556 42.2355 71.8719L40.6782 73.4125C40.0247 74.059 38.9626 74.059 38.3091 73.4125L34.6454 69.788C33.9919 69.1415 33.9919 68.0906 34.6454 67.444L36.2019 65.9042C35.2076 64.2993 34.477 62.5646 34.0312 60.7296H31.8341C30.9152 60.7296 30.1587 59.9811 30.1587 59.0722V57.3975H27.8289C20.3854 57.3975 14.2985 51.3758 14.2985 44.0118C14.2985 36.648 20.3854 30.6261 27.8289 30.6261H66.5292C67.2489 26.3002 72.6599 24.5393 75.8284 27.6739C77.9726 29.7951 77.9726 33.2339 75.8284 35.3551C72.6599 38.4897 67.2489 36.7288 66.5292 32.4028H27.8283C21.3762 32.4028 16.0939 37.6287 16.0939 44.0116C16.0939 50.3948 21.3762 55.6206 27.8283 55.6206H30.1582V53.9461C30.1582 53.0327 30.9143 52.2886 31.8336 52.2886H34.0312C34.477 50.454 35.2077 48.7187 36.2019 47.1144L34.6449 45.5742C33.9914 44.9276 33.9914 43.8767 34.6449 43.2302L38.3085 39.6058C38.9621 38.9592 40.0242 38.9592 40.6777 39.6058L42.2348 41.1462C43.857 40.1624 45.6102 39.44 47.4648 38.9989V36.8246C47.4648 35.9105 48.2164 35.1671 49.1402 35.1671H54.3214C55.2403 35.1671 55.9968 35.9156 55.9968 36.8246L55.9972 38.999ZM83.5397 15.9338C85.7411 15.9338 86.8523 18.5798 85.2932 20.122C85.052 20.3606 84.7613 20.5503 84.4377 20.6747V26.7494H85.4572C86.0261 22.5043 88.6534 20.2602 88.6534 18.4912C88.6534 14.0464 83.1963 11.8087 80.0185 14.9527C79.1033 15.8581 78.537 17.1093 78.537 18.4912C78.537 20.2583 81.1639 22.509 81.733 26.7494H82.6419V20.6745C80.9832 20.0367 80.515 17.91 81.7864 16.6523C82.235 16.2085 82.8549 15.9338 83.5397 15.9338ZM84.0233 17.9086C84.6605 18.539 83.6929 19.4961 83.0559 18.8657C82.4187 18.2353 83.3863 17.2782 84.0233 17.9086ZM92.6525 14.653C93.6735 14.0681 94.5709 15.603 93.5504 16.1868L92.5762 16.7434C91.5543 17.328 90.6581 15.7933 91.6782 15.2096L92.6525 14.653ZM88.8708 10.0404C89.1169 9.61682 89.6634 9.47078 90.0915 9.71419C90.5197 9.95759 90.6673 10.4982 90.4213 10.9218L89.8588 11.8856C89.6127 12.3092 89.0663 12.4552 88.6381 12.2118C88.21 11.9684 88.0623 11.4278 88.3084 11.0042L88.8708 10.0404ZM73.6398 16.1868C72.6197 15.6023 73.5162 14.0687 74.5377 14.653L75.512 15.2095C76.5321 15.7931 75.6359 17.3278 74.6141 16.7433L73.6398 16.1868ZM76.7688 10.9253C76.1776 9.91531 77.729 9.0275 78.3192 10.037L78.8818 11.001C79.4727 12.012 77.9214 12.8984 77.3314 11.8894L76.7688 10.9253ZM82.6971 8.87719C82.6971 7.7076 84.493 7.7076 84.493 8.87719V9.9901C84.493 11.1597 82.6971 11.1597 82.6971 9.9901V8.87719ZM86.3534 28.526C84.5145 28.526 82.6755 28.526 80.8367 28.526V31.2014H86.3534V28.526ZM87.2691 26.7495C87.8851 22.8964 90.4491 20.9577 90.4491 18.491C90.4491 14.7465 87.3801 11.7103 83.595 11.7103C79.8098 11.7103 76.7409 14.7465 76.7409 18.491C76.7409 20.9666 79.3033 22.879 79.921 26.7495C79.4334 26.759 79.0408 27.153 79.0408 27.6377V32.0897C79.0408 32.5802 79.4429 32.978 79.9387 32.978H80.5046V33.842C80.5046 35.0928 81.5339 36.111 82.7982 36.111H84.3917C85.0238 36.111 85.5975 35.8563 86.0127 35.4457C86.7777 34.6888 86.6852 33.9316 86.6852 32.978H87.2513C87.7472 32.978 88.1493 32.5802 88.1493 32.0897V27.6377C88.1493 27.153 87.7569 26.759 87.2691 26.7495ZM84.8893 32.9779H82.3005C82.3005 34.5522 82.1473 34.3342 84.3917 34.3342C84.6647 34.3342 84.8893 34.1119 84.8893 33.8419V32.9779ZM9.9589 89.4433H19.9379C21.1201 89.4433 21.1201 87.6666 19.9379 87.6666H9.9589C8.77665 87.6664 8.77665 89.4433 9.9589 89.4433ZM9.9589 86.3257H19.9379C21.1201 86.3257 21.1201 84.549 19.9379 84.549H9.9589C8.77665 84.549 8.77665 86.3257 9.9589 86.3257ZM9.9589 83.2082H19.9379C21.1201 83.2082 21.1201 81.4315 19.9379 81.4315H9.9589C8.77665 81.4315 8.77665 83.2082 9.9589 83.2082ZM9.9589 80.0906H14.7608C15.943 80.0906 15.943 78.314 14.7608 78.314H9.9589C8.77665 78.314 8.77665 80.0906 9.9589 80.0906ZM9.9589 76.9733H14.7608C15.943 76.9733 15.943 75.1966 14.7608 75.1966H9.9589C8.77665 75.1966 8.77665 76.9733 9.9589 76.9733ZM23.6706 76.7448L18.4555 71.5857C18.2932 71.4251 18.0687 71.3222 17.8388 71.3206L6.89795 71.3202C6.4021 71.3202 6 71.718 6 72.2086V92.1117C6 92.6022 6.4021 93 6.89795 93H23.041C23.5368 93 23.939 92.6022 23.939 92.1117V77.3778C23.9388 77.1369 23.8413 76.9114 23.6706 76.7448ZM22.1429 78.2663H17.8156C17.3198 78.2663 16.9177 77.8686 16.9177 77.378V73.0971H7.79591V91.2233H22.1429V78.2663ZM18.7136 74.3532V76.4897H20.8732L18.7136 74.3532ZM52.6014 53.684V51.5572C52.6014 50.3876 50.8055 50.3876 50.8055 51.5572V53.684C48.7954 54.3089 48.0404 56.763 49.39 58.3878L48.2943 60.0452C48.0231 60.4553 48.1393 61.0054 48.5538 61.2736C48.9683 61.5419 49.5243 61.427 49.7955 61.0169L50.891 59.3596C51.9483 59.6542 53.0641 59.3504 53.8198 58.6027C55.4144 57.0254 54.7303 54.346 52.6014 53.684ZM52.5499 55.6718C51.7994 54.9291 50.5063 55.4555 50.5063 56.5091C50.5063 57.5618 51.7983 58.0902 52.5499 57.3466C53.0174 56.8844 53.0174 56.1341 52.5499 55.6718ZM45.6856 46.0509C45.1562 46.3483 44.6529 46.6832 44.1797 47.0515C43.7904 47.3542 43.7228 47.9121 44.0289 48.2973C44.3349 48.6825 44.8988 48.7493 45.2882 48.4465C45.4638 48.3099 45.6437 48.1788 45.8276 48.0535L45.9555 48.2726C46.5455 49.2818 48.0968 48.3952 47.5059 47.3843L47.3856 47.1782C48.3416 46.7455 49.3753 46.4551 50.4552 46.3286C51.6284 46.1912 51.4172 44.4284 50.2447 44.5657C48.7586 44.7397 46.9637 45.2896 45.6856 46.0509ZM43.2144 50.6084C43.3197 50.4609 43.4287 50.3161 43.5415 50.1744C43.8475 49.7892 43.7799 49.2315 43.3906 48.9286C43.0012 48.6258 42.4375 48.6926 42.1313 49.0778C40.7603 50.8022 39.8816 52.8753 39.6181 55.0778C39.4793 56.2378 41.261 56.4468 41.4 55.286C41.5326 54.1786 41.8449 53.1173 42.3134 52.1365L42.5329 52.262C42.961 52.5054 43.5075 52.3593 43.7536 51.9358C43.9996 51.5122 43.852 50.9716 43.4238 50.7282L43.2144 50.6084ZM42.8865 57.4751H44.0693C45.2515 57.4751 45.2515 55.6984 44.0693 55.6984H42.8865C41.7044 55.6984 41.7044 57.4751 42.8865 57.4751ZM42.3497 60.9572C41.8603 59.9539 41.5358 58.8675 41.4 57.7324C41.261 56.5717 39.4793 56.7806 39.6181 57.9406C39.8818 60.1433 40.7605 62.216 42.1315 63.9406C42.4375 64.3258 43.0014 64.3926 43.3908 64.0899C43.7801 63.7871 43.8477 63.2294 43.5416 62.8442C43.4463 62.7243 43.3536 62.6022 43.2636 62.4782L43.4666 62.3622C44.4879 61.7802 43.5943 60.2481 42.5756 60.8284L42.3497 60.9572ZM45.8984 65.0128C45.6897 64.8732 45.4862 64.7261 45.2882 64.5719C44.8988 64.2691 44.3351 64.3359 44.029 64.7211C43.723 65.1063 43.7905 65.664 44.1799 65.9669C45.9173 67.3186 48.0239 68.1926 50.2447 68.4527C51.4172 68.59 51.6284 66.8274 50.4552 66.6898C49.4026 66.5665 48.3936 66.2874 47.4607 65.8742L47.5788 65.6715C48.1656 64.6637 46.6168 63.7796 46.0284 64.79L45.8984 65.0128ZM52.6693 65.2216V64.0515C52.6693 62.8819 50.8734 62.8819 50.8734 64.0515V65.2216C50.8734 66.3912 52.6693 66.3912 52.6693 65.2216ZM57.9498 66.8211C64.4966 62.9215 65.8143 54.1367 60.7892 48.5329C58.8217 46.3389 56.1092 44.9136 53.1386 44.5656C51.9661 44.4282 51.7549 46.1909 52.9281 46.3284C54.019 46.4565 55.0577 46.7518 56.0171 47.1878L55.8964 47.3947C55.3055 48.4057 56.8568 49.2922 57.4468 48.2831L57.5745 48.0644C58.5145 48.7058 59.3422 49.4967 60.0212 50.4028L59.8269 50.5139C58.8068 51.0973 59.7028 52.6322 60.7249 52.0477L60.9605 51.9132C61.5231 53.0229 61.8883 54.2481 62.0102 55.544H59.3171C58.1348 55.544 58.1348 57.3207 59.3171 57.3207H62.0233C61.919 58.644 61.5614 59.8962 60.9986 61.0299L60.7667 60.8973C60.3386 60.6539 59.7921 60.8 59.546 61.2235C59.3 61.6471 59.4476 62.1877 59.8758 62.4312L60.0742 62.5445C59.4302 63.4192 58.6501 64.1879 57.7629 64.8227L57.6453 64.6213C57.0553 63.6121 55.504 64.4987 56.0948 65.5096L56.2256 65.7336C55.2086 66.2231 54.0983 66.5531 52.9279 66.6904C51.7545 66.8279 51.9659 68.5905 53.1384 68.4532C54.7526 68.2636 56.6548 67.6498 57.9498 66.8211ZM50.717 47.797V48.9671C50.717 50.1367 52.5129 50.1367 52.5129 48.9671V47.797C52.5131 46.6274 50.717 46.6274 50.717 47.797ZM74.5582 28.9302C72.237 26.6341 68.2515 28.2682 68.2515 31.5146C68.2515 34.7613 72.2374 36.395 74.5582 34.0991C76.0009 32.6719 76.0007 30.3574 74.5582 28.9302ZM34.1289 78.9193C31.8079 76.6231 27.8222 78.2571 27.8222 81.5036C27.8222 84.7502 31.8081 86.3842 34.1289 84.088C35.5714 82.661 35.5714 80.3465 34.1289 78.9193ZM58.0086 41.5058C57.2029 41.1753 56.3632 40.9063 55.4955 40.7048C55.1146 40.6165 54.7923 40.4074 54.5642 40.1226L54.566 40.1212C54.3358 39.8398 54.2012 39.4702 54.2012 39.092V36.944H49.2611V39.0921C49.2611 39.4771 49.128 39.8359 48.8981 40.1228L48.8963 40.1214C48.6663 40.4078 48.3442 40.6172 47.9666 40.7048C46.2384 41.106 44.5879 41.7856 43.0946 42.7015C42.4253 43.1121 41.5773 43.0079 41.0302 42.4668L39.4933 40.9463L35.9999 44.4023L37.5367 45.9226C38.0871 46.4671 38.1875 47.305 37.7739 47.9649C36.8483 49.4417 36.1608 51.0757 35.7555 52.7848C35.6662 53.1617 35.4548 53.4806 35.1671 53.7064L35.1657 53.7046C34.8812 53.9326 34.5077 54.0655 34.1253 54.0655H31.9543V58.9529H34.1248C34.9017 58.9529 35.577 59.4826 35.7551 60.2334C36.1603 61.942 36.8479 63.5775 37.7735 65.0539C38.1873 65.7139 38.0868 66.5516 37.5363 67.0962L36.0001 68.6159L39.4935 72.0721L41.0304 70.5516C41.5809 70.0071 42.4275 69.9076 43.0948 70.3169C44.5876 71.2326 46.2391 71.9126 47.9667 72.3136C48.3475 72.4019 48.67 72.611 48.8983 72.8956L48.8965 72.897C49.1269 73.1785 49.2612 73.548 49.2612 73.9264V76.0746H54.2014V73.9273C54.2014 73.5423 54.3345 73.1836 54.5644 72.8967L54.5662 72.8981C54.7962 72.6117 55.1182 72.4022 55.4959 72.3146C57.223 71.9136 58.8762 71.2335 60.3686 70.3178C61.0357 69.9085 61.8825 70.008 62.433 70.5525L63.9692 72.0723L67.4627 68.6161L65.9258 67.0956C65.3755 66.5511 65.2748 65.7136 65.6886 65.0533C66.6142 63.5764 67.3017 61.9427 67.7068 60.2336C67.7963 59.8567 68.0075 59.5378 68.2953 59.3122L68.2968 59.314C68.5812 59.0862 68.9548 58.9531 69.3373 58.9531H71.5087V54.0656H69.3382C68.5613 54.0656 67.886 53.536 67.7079 52.785C67.3026 51.0758 66.6153 49.4415 65.6895 47.9647C65.2757 47.3047 65.3763 46.467 65.9267 45.9224L67.4629 44.4026L63.9694 40.9466L62.4324 42.4671C61.882 43.0117 61.0352 43.1112 60.368 42.7018C59.6251 42.2461 58.8367 41.8453 58.0086 41.5058Z" fill="#495057"/>
</svg>
