<svg width="100" height="100" viewBox="0 0 100 100" fill="none" xmlns="http://www.w3.org/2000/svg">
<path d="M20.4484 37.871C19.8468 36.8309 21.426 35.9395 22.0275 36.9795L24.8287 41.7525L34.6044 32.095C35.4692 31.2593 36.7664 32.5408 35.9016 33.3765L25.2799 43.8698C24.8475 44.2783 24.1331 44.204 23.8323 43.684L20.4484 37.871ZM28.2502 26.1148C35.7324 26.1148 41.8046 32.1136 41.8046 39.5053C41.8046 46.897 35.7324 52.8958 28.2502 52.8958C20.768 52.8958 14.6957 46.897 14.6957 39.5053C14.6957 32.095 20.768 26.1148 28.2502 26.1148ZM36.5408 31.315C31.9725 26.802 24.5467 26.802 19.9784 31.315C15.4101 35.828 15.4101 43.164 19.9784 47.677C24.5467 52.1901 31.9725 52.1901 36.5408 47.677C41.109 43.164 41.109 35.828 36.5408 31.315ZM29.5473 59.4703L32.2733 55.5516C33.1193 54.3444 34.5668 53.8244 35.9956 54.2144L40.6391 55.4959C41.6918 55.7931 42.7446 54.9573 42.6318 53.843L42.1618 49.1071C42.0114 47.6399 42.8198 46.2841 44.1922 45.6898L48.5349 43.7397C49.55 43.294 49.7756 41.994 48.986 41.2139L45.5457 37.8895C44.493 36.8681 44.211 35.3637 44.8502 34.0451L46.9181 29.7549C47.3881 28.7706 46.7301 27.6192 45.6209 27.5449L40.8271 27.1734C39.3419 27.062 38.1575 26.0591 37.7815 24.6476L36.5784 20.0232C36.3152 18.9831 35.0556 18.5002 34.1344 19.1503L30.2241 21.9175C29.0022 22.7718 27.4606 22.7533 26.2574 21.9175L22.3659 19.1503C21.4448 18.5002 20.204 18.9831 19.922 20.0232L18.7188 24.629C18.3428 26.0405 17.1585 27.0434 15.6733 27.1548L10.8794 27.5263C9.77026 27.6191 9.11228 28.7521 9.58226 29.7364L11.6502 34.0265C12.2894 35.3451 12.0262 36.8681 10.9546 37.871L7.51432 41.1954C6.74354 41.9383 6.91273 43.2197 7.96551 43.7212L12.3458 45.6898C13.6806 46.2841 14.4701 47.6399 14.3197 49.0885L13.8874 53.8244C13.7746 54.9387 14.8085 55.7559 15.8801 55.4773L20.5236 54.1959C21.9523 53.8058 23.4187 54.3444 24.2459 55.533L26.9718 59.4518C27.5734 60.3432 28.9082 60.3804 29.5473 59.4703ZM32.7621 58.0217L31.0513 60.4732C30.3933 61.4204 29.3782 61.9404 28.2126 61.9404V74.2166H77.3921C77.8997 74.2166 78.3133 74.6252 78.3133 75.1266V80.884C78.3133 87.3471 82.5996 88.5728 84.6299 85.6384C85.3819 84.5427 85.8143 82.9826 85.8143 81.274V25.8177V19.4846C85.8331 17.4045 86.4535 15.2687 87.6754 13.8015H33.8524C30.7505 13.8015 28.2314 16.2902 28.2314 19.3546V20.7289C28.5698 20.7289 28.8894 20.636 29.1714 20.4317L33.0817 17.6645C35.0368 16.2902 37.7627 17.2559 38.3643 19.5589L39.5675 24.1647C39.7367 24.8148 40.2819 25.2605 40.9775 25.3162L45.7713 25.6876C48.1589 25.8734 49.6252 28.3435 48.5913 30.4978L46.5233 34.788C46.2225 35.4009 46.3541 36.088 46.8429 36.5709L50.2832 39.8953C51.994 41.5668 51.4864 44.3898 49.3056 45.3741L44.9253 47.3427C44.775 47.417 44.6434 47.4913 44.5118 47.6027L53.3663 60.9747C53.7987 61.6247 53.2535 62.479 52.4828 62.3676L43.6094 61.2904L41.1466 68.5892C40.9023 69.3136 39.9059 69.425 39.4923 68.775L32.7621 58.0217ZM26.389 61.4018C26.0318 61.1604 25.7122 60.8632 25.4491 60.4732L23.7383 58.0217L17.0269 68.7935C16.6133 69.4436 15.6169 69.3321 15.3725 68.6078L12.9098 61.309L4.03641 62.3862C3.26563 62.479 2.72044 61.6247 3.15283 60.9932L12.0074 47.6213C11.8946 47.5285 11.763 47.4356 11.5938 47.3613L7.21352 45.3927C5.10798 44.4826 4.4688 41.6225 6.23595 39.9139L9.67626 36.5895C10.165 36.1066 10.2966 35.4194 9.99585 34.8066L7.90911 30.5164C6.87513 28.3806 8.3227 25.8919 10.729 25.7062L15.5229 25.3348C16.1997 25.2791 16.7449 24.8333 16.9141 24.1833L18.1172 19.5774C18.7188 17.2745 21.4448 16.2902 23.3999 17.6831L26.3702 19.7817V19.3731C26.3702 15.3058 29.7165 12 33.8336 12H91.4165C93.1649 12 94.5749 12.8915 95.5524 14.3958C96.4736 15.8259 97 17.8131 97 20.0789V25.8362C97 26.3377 96.5864 26.7463 96.0788 26.7463H87.6566V81.3111C87.6566 83.3727 87.1115 85.3041 86.1527 86.6971C85.1751 88.1085 83.7839 89 82.0544 89H22.6291C20.8808 89 19.4708 88.1085 18.4932 86.6042C17.5721 85.1741 17.0457 83.1869 17.0457 80.9211V75.1638C17.0457 74.6623 17.4593 74.2537 17.9668 74.2537C20.768 74.2537 23.5691 74.2537 26.389 74.2537V61.4018ZM22.5915 56.4059C22.1967 55.9602 21.5952 55.7931 21.0124 55.9416L16.3689 57.2231C14.0377 57.8731 11.8382 55.9973 12.0638 53.6573L12.3834 50.37L5.78476 60.3246L13.4174 59.396C13.8874 59.3403 14.3197 59.6375 14.4325 60.0832L16.4817 66.1749L22.5915 56.4059ZM44.1358 50.37L44.4554 53.6573C44.681 55.9973 42.4814 57.8546 40.1503 57.2231L35.5068 55.9416C34.924 55.7745 34.3224 55.9416 33.9276 56.4059L40.0375 66.1934L42.0866 60.1018C42.1994 59.6561 42.6318 59.3403 43.1018 59.4146L50.7344 60.3432L44.1358 50.37ZM77.7305 59.3218L79.1781 61.7176L81.9604 62.349C82.6184 62.4976 82.938 63.3148 82.4116 63.8719L80.5692 65.952L80.8136 68.7564C80.87 69.4436 80.1744 69.9264 79.5353 69.6664L76.9221 68.5707L74.309 69.6664C73.6886 69.9264 72.9554 69.4621 73.0494 68.7007L73.2938 65.952L71.4327 63.8348C70.9627 63.3148 71.2635 62.4976 71.9214 62.349L74.7038 61.7176L76.1513 59.3032C76.5085 58.7089 77.3733 58.7274 77.7305 59.3218ZM77.8057 62.9805L76.9409 61.5504L76.0949 62.9619C75.9633 63.1848 75.7566 63.3519 75.4934 63.4076L73.839 63.7791L74.967 65.042C75.1174 65.2277 75.2114 65.4691 75.1926 65.7291L75.0422 67.4006L76.6025 66.7506C76.8281 66.6577 77.0913 66.6577 77.3169 66.7506L78.8773 67.4006L78.7269 65.7663C78.6893 65.5248 78.7645 65.2648 78.9525 65.0605L80.0804 63.7976L78.4261 63.4262C78.1441 63.3519 77.9373 63.2033 77.8057 62.9805ZM77.7305 47.4356L79.1781 49.8314L81.9604 50.4629C82.6184 50.6114 82.938 51.4286 82.4116 51.9858L80.5692 54.0658L80.8136 56.8702C80.87 57.5574 80.1744 58.0403 79.5353 57.7803L76.9221 56.6845L74.309 57.7803C73.6886 58.0403 72.9554 57.576 73.0494 56.8145L73.2938 54.0658L71.4327 51.9486C70.9627 51.4286 71.2635 50.6114 71.9214 50.4629L74.7038 49.8314L76.1513 47.417C76.5085 46.8227 77.3733 46.8413 77.7305 47.4356ZM77.8057 51.0943L76.9409 49.6457L76.0949 51.0572C75.9633 51.28 75.7566 51.4472 75.4934 51.5029L73.839 51.8743L74.967 53.1372C75.1174 53.323 75.2114 53.5644 75.1926 53.8058L75.0422 55.4773L76.6025 54.8087C76.8281 54.7159 77.0913 54.7159 77.3169 54.8087L78.8773 55.4773L78.7269 53.843C78.6893 53.6015 78.7645 53.3415 78.9525 53.1372L80.0804 51.8743L78.4261 51.5029C78.1441 51.4657 77.9373 51.3172 77.8057 51.0943ZM77.7305 35.5494L79.1781 37.9452L81.9604 38.5767C82.6184 38.7253 82.938 39.5424 82.4116 40.0996L80.5692 42.1797L80.8136 44.9841C80.87 45.6712 80.1744 46.1541 79.5353 45.8941L76.9221 44.7798L74.309 45.8941C73.6886 46.1541 72.9554 45.6898 73.0494 44.9284L73.2938 42.1797L71.4327 40.0625C70.9627 39.5424 71.2635 38.7253 71.9214 38.5767L74.7038 37.9452L76.1513 35.5309C76.5085 34.9366 77.3733 34.9551 77.7305 35.5494ZM77.8057 39.2082L76.9409 37.7595L76.0949 39.171C75.9633 39.3939 75.7566 39.561 75.4934 39.6167L73.839 39.9882L74.967 41.2511C75.1174 41.4368 75.2114 41.6597 75.1926 41.9197L75.0422 43.5912L76.6025 42.9411C76.8281 42.8483 77.0913 42.8483 77.3169 42.9411L78.8773 43.5912L78.7269 41.9568C78.6893 41.7154 78.7645 41.4554 78.9525 41.2511L80.0804 39.9882L78.4261 39.6167C78.1441 39.5796 77.9373 39.431 77.8057 39.2082ZM67.4848 25.9105C68.7067 25.9105 68.7067 27.7306 67.4848 27.7306H51.9564C50.7532 27.7306 50.7532 25.9105 51.9564 25.9105H67.4848ZM67.4848 29.5321C68.7067 29.5321 68.7067 31.3521 67.4848 31.3521H51.7496C50.5464 31.3521 50.5464 29.5321 51.7496 29.5321H67.4848ZM77.7305 23.6447L79.1781 26.0405L81.9604 26.672C82.6184 26.8205 82.938 27.6377 82.4116 28.1949L80.5692 30.275L80.8136 33.0794C80.87 33.7665 80.1744 34.2494 79.5353 33.9894L76.9221 32.8936L74.309 33.9894C73.6886 34.2494 72.9554 33.7851 73.0494 33.0236L73.2938 30.275L71.4327 28.1577C70.9627 27.6377 71.2635 26.8205 71.9214 26.672L74.7038 26.0405L76.1513 23.6261C76.5085 23.0504 77.3733 23.069 77.7305 23.6447ZM77.8057 27.322L76.9409 25.8919L76.0949 27.3034C75.9633 27.5263 75.7566 27.6934 75.4934 27.7492L73.839 28.1206L74.967 29.3835C75.1174 29.5692 75.2114 29.8107 75.1926 30.0707L75.0422 31.7422L76.6025 31.0921C76.8281 30.9993 77.0913 30.9807 77.3169 31.0921L78.8773 31.7422L78.7269 30.1078C78.6893 29.8664 78.7645 29.6064 78.9525 29.4021L80.0804 28.1392L78.4261 27.7677C78.1441 27.6934 77.9373 27.5449 77.8057 27.322ZM67.4848 37.7967C68.7067 37.7967 68.7067 39.6167 67.4848 39.6167H52.2948C51.0728 39.6167 51.0728 37.7967 52.2948 37.7967H67.4848ZM67.4848 41.4182C68.7067 41.4182 68.7067 43.2383 67.4848 43.2383H53.8551C52.6331 43.2383 52.6331 41.4182 53.8551 41.4182H67.4848ZM67.4848 61.5876C68.7067 61.5876 68.7067 63.4076 67.4848 63.4076H56.9382C55.7163 63.4076 55.7163 61.5876 56.9382 61.5876H67.4848ZM67.4848 65.2091C68.7067 65.2091 68.7067 67.0292 67.4848 67.0292H47.1437C45.9217 67.0292 45.9217 65.2091 47.1437 65.2091H67.4848ZM67.4848 49.6828C68.7067 49.6828 68.7067 51.5029 67.4848 51.5029H49.6628C48.4409 51.5029 48.4409 49.6828 49.6628 49.6828H67.4848ZM67.4848 53.323C68.7067 53.323 68.7067 55.143 67.4848 55.143H52.4828C51.2608 55.143 51.2608 53.323 52.4828 53.323H67.4848ZM27.3102 76.0552H18.888V80.9026C18.888 82.8341 19.3016 84.4684 20.0348 85.6013C20.674 86.5856 21.5576 87.1614 22.6291 87.1614H78.3509C77.0913 85.6385 76.4897 83.3727 76.4897 80.9026V76.0552H27.3102ZM91.4165 13.8015C90.2698 13.8015 89.3862 14.4701 88.7846 15.3801C87.995 16.5687 87.6566 18.1288 87.6566 19.6703V24.9076H95.1577V20.0603C95.1577 18.1288 94.7441 16.4945 94.0109 15.3616C93.3717 14.3772 92.4881 13.8015 91.4165 13.8015Z" fill="#495057"/>
</svg>
