<svg width="100" height="100" viewBox="0 0 100 100" fill="none" xmlns="http://www.w3.org/2000/svg">
<path d="M29.4471 28.3494H25.2278C22.8595 28.3494 20.9209 30.2817 20.9209 32.6532V36.8779C20.9209 39.2494 22.8507 41.1817 25.2278 41.1817H29.4471C31.8154 41.1817 33.754 39.2494 33.754 36.8779V32.6532C33.754 30.2817 31.8242 28.3494 29.4471 28.3494ZM31.1225 36.8779C31.1225 37.8001 30.3769 38.5467 29.4471 38.5467H25.2278C24.3068 38.5467 23.5524 37.8001 23.5524 36.8779V32.6532C23.5524 31.7309 24.298 30.9844 25.2278 30.9844H29.4471C30.3681 30.9844 31.1225 31.7309 31.1225 32.6532V36.8779ZM29.4471 46.5306H25.2278C22.8595 46.5306 20.9209 48.4629 20.9209 50.8344V55.0591C20.9209 57.4306 22.8507 59.3629 25.2278 59.3629H29.4471C31.8154 59.3629 33.754 57.4306 33.754 55.0591V50.8344C33.754 48.4629 31.8242 46.5306 29.4471 46.5306ZM31.1225 55.0591C31.1225 55.9814 30.3769 56.7279 29.4471 56.7279H25.2278C24.3068 56.7279 23.5524 55.9814 23.5524 55.0591V50.8344C23.5524 49.9122 24.298 49.1656 25.2278 49.1656H29.4471C30.3681 49.1656 31.1225 49.9122 31.1225 50.8344V55.0591ZM29.4471 64.7119H25.2278C22.8595 64.7119 20.9209 66.6442 20.9209 69.0156V73.2404C20.9209 75.6118 22.8507 77.5441 25.2278 77.5441H29.4471C31.8154 77.5441 33.754 75.6118 33.754 73.2404V69.0156C33.754 66.6442 31.8242 64.7119 29.4471 64.7119ZM31.1225 73.2404C31.1225 74.1626 30.3769 74.9092 29.4471 74.9092H25.2278C24.3068 74.9092 23.5524 74.1626 23.5524 73.2404V69.0156C23.5524 68.0934 24.298 67.3468 25.2278 67.3468H29.4471C30.3681 67.3468 31.1225 68.0934 31.1225 69.0156V73.2404ZM50.5432 74.5754C50.5432 75.3044 49.9555 75.8929 49.2274 75.8929H38.1223C37.3943 75.8929 36.8066 75.3044 36.8066 74.5754C36.8066 73.8464 37.3943 73.2579 38.1223 73.2579H49.2274C49.9555 73.2579 50.5432 73.8464 50.5432 74.5754ZM38.1223 67.7069H56.1659C56.8939 67.7069 57.4816 68.2954 57.4816 69.0244C57.4816 69.7534 56.8939 70.3419 56.1659 70.3419H38.1223C37.3943 70.3419 36.8066 69.7534 36.8066 69.0244C36.8066 68.2954 37.3943 67.7069 38.1223 67.7069ZM79.9286 71.7648C79.5953 70.8601 78.9198 70.1399 78.0427 69.7359C77.2269 69.3582 76.3146 69.3143 75.4638 69.5778L73.6217 64.6153C84.3934 59.8723 89.7442 47.4441 85.5951 36.2631C83.5075 30.6418 79.3584 26.1799 73.9199 23.6855C71.2445 22.4647 68.42 21.7883 65.578 21.6654V16.3428C65.578 15.6138 64.9903 15.0253 64.2622 15.0253H51.5168V12.7416C51.5168 10.6776 49.8414 9 47.7801 9H30.7979C28.7366 9 27.0611 10.6776 27.0611 12.7416V15.0253H14.3158C13.5877 15.0253 13 15.6138 13 16.3428V83.9734C13 84.7024 13.5877 85.2909 14.3158 85.2909H64.2534C64.9815 85.2909 65.5692 84.7024 65.5692 83.9734V66.4861C67.4288 66.407 69.2972 66.0908 71.1481 65.5199L72.9989 70.5C72.1831 70.8601 71.5252 71.4837 71.1481 72.3006C70.7446 73.1789 70.7095 74.1626 71.0428 75.0673L76.0866 88.6373C76.4199 89.542 77.0953 90.2622 77.9725 90.6662C78.4549 90.8858 78.9637 91 79.4812 91C79.9023 91 80.3321 90.9209 80.7444 90.7716L82.8408 89.9899C84.7092 89.2961 85.6653 87.2057 84.9724 85.326L79.9286 71.756V71.7648ZM82.4724 87.0036C82.3584 87.2408 82.1654 87.4252 81.9198 87.5219L79.8233 88.3036C79.5777 88.3914 79.3146 88.3826 79.069 88.2772C78.8233 88.163 78.6479 87.9698 78.5514 87.7239L73.5077 74.1538C73.3147 73.6444 73.5778 73.0735 74.0866 72.8802L76.183 72.0985C76.2971 72.0546 76.4111 72.0371 76.5251 72.0371C76.9286 72.0371 77.3058 72.283 77.4549 72.6782L82.4987 86.2483C82.5864 86.4942 82.5777 86.7577 82.4724 87.0036ZM62.9377 82.6472H15.6228V17.6515H27.0524V21.7444C27.0524 22.4734 27.6401 23.0619 28.3681 23.0619H50.1835C50.9116 23.0619 51.4993 22.4734 51.4993 21.7444V17.6515H62.9289V21.7005C60.85 21.8586 58.7799 22.3066 56.7624 23.0531C52.2887 24.7219 48.666 27.6819 46.1397 31.3533H38.1048C37.3767 31.3533 36.789 31.9417 36.789 32.6707C36.789 33.3997 37.3767 33.9882 38.1048 33.9882H44.5784C44.1047 34.928 43.6924 35.903 43.3591 36.9042H38.1136C37.3855 36.9042 36.7978 37.4927 36.7978 38.2217C36.7978 38.9507 37.3855 39.5392 38.1136 39.5392H42.6486C41.9732 42.7714 42.0082 46.1793 42.8416 49.5257H38.1136C37.3855 49.5257 36.7978 50.1142 36.7978 50.8432C36.7978 51.5722 37.3855 52.1607 38.1136 52.1607H43.6836C44.0784 53.1795 44.5257 54.1545 45.052 55.0767H38.1136C37.3855 55.0767 36.7978 55.6652 36.7978 56.3942C36.7978 57.1232 37.3855 57.7117 38.1136 57.7117H46.7976C50.7011 62.8059 56.6132 65.9766 62.9289 66.4509V82.6472H62.9377ZM29.6839 15.0165V12.7329C29.6839 12.1268 30.1751 11.6262 30.7891 11.6262H47.7713C48.3765 11.6262 48.8765 12.118 48.8765 12.7329V20.4269H29.6927V15.0165H29.6839ZM62.9289 63.8072C58.1132 63.3944 53.5782 61.2249 50.2449 57.7117C49.473 56.9036 48.7713 56.0253 48.1397 55.0767C47.5257 54.1632 46.9906 53.1883 46.5257 52.1607C46.3503 51.7742 46.1924 51.3877 46.0433 50.9837C45.859 50.5006 45.7099 50.0088 45.5696 49.5257C44.6135 46.1793 44.5784 42.7451 45.3415 39.5392C45.552 38.6433 45.8327 37.765 46.1661 36.9042C46.5608 35.8942 47.0345 34.9192 47.5871 33.9882C48.1309 33.066 48.7537 32.1789 49.4467 31.3533C51.5782 28.8061 54.3589 26.7684 57.6834 25.53C59.4114 24.8888 61.1745 24.5024 62.9289 24.3618C63.3675 24.3267 63.8061 24.3091 64.2447 24.3003C64.3499 24.3003 64.4552 24.2828 64.5605 24.2828C64.8938 24.2828 65.2271 24.3003 65.5604 24.3179C73.2094 24.7132 80.2795 29.5439 83.1127 37.1765C86.9109 47.409 81.6917 58.8359 71.4726 62.639C69.5253 63.368 67.5341 63.7633 65.5604 63.8599C65.1218 63.8775 64.6833 63.8862 64.2447 63.8775C63.8061 63.8775 63.3675 63.8511 62.9289 63.816V63.8072ZM82.2794 44.6335C82.4461 44.2821 82.4461 43.8781 82.2794 43.5268C79.2356 36.9394 72.7445 32.5917 65.5604 32.2316C65.2359 32.214 64.9113 32.1964 64.578 32.1964C64.464 32.1964 64.3587 32.2052 64.2447 32.2052C63.8061 32.2052 63.3675 32.2316 62.9289 32.2667C62.9114 32.2667 62.8938 32.2667 62.8763 32.2667C60.6307 32.4687 58.4553 33.0484 56.4553 33.9707C54.8062 34.726 53.2712 35.7097 51.9028 36.8867C50.9818 37.6772 50.1309 38.5643 49.3678 39.5216C48.3941 40.7337 47.552 42.0688 46.8853 43.5092C46.7187 43.8605 46.7187 44.2646 46.8853 44.6159C47.7274 46.434 48.8327 48.0677 50.1309 49.5081C51.0168 50.4831 51.9905 51.3702 53.0431 52.1431C55.9027 54.2423 59.3149 55.5598 62.9377 55.876C63.3763 55.9111 63.8149 55.9374 64.2534 55.9374C64.3675 55.9374 64.4727 55.9462 64.5868 55.9462C64.9113 55.9462 65.2447 55.9287 65.5692 55.9111C72.7533 55.5422 79.2444 51.2033 82.2882 44.6159L82.2794 44.6335ZM64.2447 53.3201C63.8061 53.3113 63.3675 53.2849 62.9289 53.241C61.3763 53.0829 59.8763 52.7228 58.4465 52.1607C56.815 51.5195 55.2887 50.6324 53.9291 49.5257C52.1309 48.0589 50.6133 46.2144 49.5344 44.0801C50.4204 42.3323 51.5958 40.7864 52.9817 39.4689C53.2449 39.2142 53.5168 38.9771 53.7975 38.7487C56.3676 36.6144 59.543 35.253 62.9289 34.9192C63.3675 34.8753 63.8061 34.849 64.2447 34.8402C64.3587 34.8402 64.464 34.8314 64.578 34.8314C64.9025 34.8314 65.2359 34.849 65.5604 34.8665C71.5165 35.2179 76.9111 38.7399 79.6303 44.0889C76.9111 49.4379 71.5252 52.9599 65.5604 53.3113C65.2359 53.3288 64.9113 53.3464 64.578 53.3464C64.464 53.3464 64.3587 53.3376 64.2447 53.3376V53.3201ZM68.2007 44.0801C68.2007 42.4201 67.0779 41.0323 65.5604 40.602C65.2446 40.5141 64.9201 40.4527 64.578 40.4527C64.464 40.4527 64.3587 40.479 64.2447 40.4878C63.771 40.5317 63.3324 40.6635 62.9289 40.8743C61.7623 41.4803 60.9553 42.6836 60.9553 44.0801C60.9553 45.4767 61.7623 46.6887 62.9289 47.286C63.3324 47.4968 63.771 47.6285 64.2447 47.6725C64.3587 47.6812 64.464 47.7076 64.578 47.7076C64.9201 47.7076 65.2446 47.6461 65.5604 47.5583C67.0779 47.1279 68.2007 45.7401 68.2007 44.0801ZM64.578 45.0726C64.4552 45.0726 64.3499 45.0463 64.2447 45.0024C63.8675 44.8618 63.5868 44.5105 63.5868 44.0801C63.5868 43.6497 63.8587 43.2984 64.2447 43.1579C64.3499 43.1228 64.464 43.0876 64.578 43.0876C65.1043 43.0876 65.5341 43.5092 65.5604 44.0274C65.5604 44.045 65.5692 44.0626 65.5692 44.0801C65.5692 44.0977 65.5604 44.1153 65.5604 44.1328C65.5341 44.651 65.1043 45.0726 64.578 45.0726ZM72.727 44.0801C72.727 39.9169 69.5867 36.4739 65.5604 35.982C65.2359 35.9469 64.9113 35.9205 64.578 35.9205C64.464 35.9205 64.3587 35.9293 64.2447 35.9381C63.7973 35.9557 63.3587 35.9996 62.9289 36.0874C59.2272 36.8515 56.429 40.1452 56.429 44.0801C56.429 46.1705 57.2273 48.0765 58.5255 49.5257C59.543 50.6587 60.8675 51.5019 62.3675 51.9323C62.5517 51.985 62.7359 52.0377 62.9289 52.0728C63.3587 52.1607 63.7973 52.2046 64.2447 52.2222C64.3587 52.2222 64.464 52.2397 64.578 52.2397C64.9113 52.2397 65.2359 52.2134 65.5604 52.1782C69.5954 51.6952 72.727 48.2521 72.727 44.0801ZM64.578 49.6048C64.464 49.6048 64.3499 49.596 64.2447 49.5872C63.7885 49.5608 63.3499 49.4818 62.9289 49.35C60.6921 48.6474 59.0606 46.5482 59.0606 44.0801C59.0606 41.612 60.6921 39.5129 62.9289 38.8102C63.3499 38.6784 63.7885 38.5994 64.2447 38.5731C64.3587 38.5731 64.464 38.5555 64.578 38.5555C64.9113 38.5555 65.2359 38.5906 65.5604 38.6521C68.1393 39.1176 70.0954 41.3749 70.0954 44.0889C70.0954 46.8029 68.1306 49.0602 65.5604 49.5257C65.2446 49.5872 64.9113 49.6223 64.578 49.6223V49.6048Z" fill="#495057"/>
</svg>
