<svg width="100" height="100" viewBox="0 0 100 100" fill="none" xmlns="http://www.w3.org/2000/svg">
<path fill-rule="evenodd" clip-rule="evenodd" d="M34.7337 41.7128C35.1793 41.2628 35.7135 40.9127 36.3017 40.6851C36.8899 40.4575 37.519 40.3575 38.1479 40.3918C38.1156 39.7908 38.2022 39.1894 38.4024 38.6226C38.6027 38.0559 38.9127 37.5351 39.3143 37.0908C39.7159 36.6465 40.2011 36.2875 40.7415 36.0348C41.2819 35.7821 41.8667 35.6408 42.4618 35.619C42.6453 35.2091 42.9575 34.8719 43.3501 34.6597C43.7427 34.4475 44.1936 34.3723 44.6328 34.4457C46.4651 34.783 50.9213 34.8632 53.3012 35.0245C53.963 35.0701 54.6063 35.2649 55.1839 35.5946L57.5455 33.2058C58.1894 32.5588 59.0119 32.1238 59.9048 31.9579C60.7978 31.7921 61.7196 31.903 62.549 32.2763C63.3785 32.6496 64.0768 33.2676 64.5524 34.0494C65.0279 34.8311 65.2584 35.74 65.2136 36.6565C65.8425 36.6225 66.4714 36.7227 67.0595 36.9505C67.6476 37.1784 68.1817 37.5288 68.627 37.9789C69.0723 38.4291 69.4189 38.969 69.6442 39.5634C69.8695 40.1579 69.9685 40.7936 69.9348 41.4292C70.5637 41.395 71.1928 41.4949 71.781 41.7226C72.3692 41.9502 72.9034 42.3005 73.3488 42.7506C73.7943 43.2007 74.1409 43.7406 74.3663 44.335C74.5917 44.9295 74.6907 45.5653 74.6569 46.201C75.5644 46.1541 76.4646 46.3861 77.2391 46.8664C78.0135 47.3468 78.6259 48.0529 78.9954 48.8919C79.365 49.7308 79.4745 50.6633 79.3095 51.5664C79.1445 52.4695 78.7128 53.3009 78.0711 53.9511L70.3566 61.7482L72.8807 64.2984L74.8001 62.3584C75.0177 62.1396 75.3121 62.0167 75.6191 62.0167C75.926 62.0167 76.2205 62.1396 76.438 62.3584L84.6614 70.6698C84.8783 70.8898 85 71.1876 85 71.4981C85 71.8085 84.8783 72.1063 84.6614 72.3263L63.5495 93.6583C63.332 93.8771 63.0375 94 62.7306 94C62.4236 94 62.1292 93.8771 61.9116 93.6583L53.6882 85.3469C53.4714 85.1269 53.3496 84.8291 53.3496 84.5187C53.3496 84.2082 53.4714 83.9104 53.6882 83.6904L55.6105 81.7553L49.1005 75.1756L44.0204 80.314L46.3065 82.6246C46.523 82.8445 46.6446 83.1421 46.6446 83.4523C46.6446 83.7626 46.523 84.0602 46.3065 84.2801L38.0831 92.5915C37.8655 92.8103 37.5711 92.9332 37.2641 92.9332C36.9572 92.9332 36.6627 92.8103 36.4452 92.5915L15.3381 71.2477C15.1216 71.0278 15 70.7302 15 70.42C15 70.1098 15.1216 69.8122 15.3381 69.5923L23.5615 61.2808C23.779 61.062 24.0735 60.9391 24.3804 60.9391C24.6874 60.9391 24.9818 61.062 25.1994 61.2808L27.4816 63.5934L29.3082 61.7473L27.0569 59.4709C26.4918 58.8968 26.0885 58.1806 25.8887 57.3963C25.689 56.612 25.6999 55.788 25.9205 55.0095C26.1411 54.2309 26.5633 53.526 27.1435 52.9674C27.7238 52.4089 28.441 52.017 29.2211 51.8322C28.8487 51.122 28.6693 50.3247 28.7011 49.5216C28.7329 48.7185 28.9748 47.9383 29.4021 47.2604C29.8295 46.5826 30.4271 46.0314 31.1339 45.663C31.8407 45.2947 32.6315 45.1223 33.4257 45.1635C33.392 44.5276 33.4911 43.8917 33.7164 43.297C33.9418 42.7024 34.2884 42.1632 34.7337 41.7128ZM34.2152 25.1349C34.4907 25.0225 34.7984 25.0211 35.0749 25.131C35.3514 25.241 35.5756 25.4539 35.7015 25.726C35.8273 25.998 35.8452 26.3085 35.7514 26.5934C35.6575 26.8784 35.4592 27.1161 35.1971 27.2577L29.6342 29.8793C29.4949 29.9564 29.3414 30.0038 29.1833 30.0186C29.0251 30.0334 28.8656 30.0152 28.7146 29.9652C28.5637 29.9152 28.4245 29.8344 28.3057 29.7278C28.1869 29.6212 28.091 29.4911 28.0239 29.3456C27.9569 29.2 27.9201 29.0421 27.9158 28.8816C27.9116 28.7211 27.94 28.5615 27.9992 28.4125C28.0585 28.2635 28.1474 28.1284 28.2603 28.0156C28.3733 27.9027 28.5081 27.8145 28.6561 27.7564L34.22 25.1349H34.2152ZM35.1971 10.85C35.4548 10.9935 35.649 11.2305 35.7405 11.5132C35.8319 11.7958 35.8137 12.103 35.6896 12.3727C35.5655 12.6423 35.3447 12.8542 35.0719 12.9656C34.7991 13.0771 34.4946 13.0796 34.22 12.9728L28.6513 10.3513C28.3928 10.2081 28.1979 9.97095 28.106 9.68786C28.0142 9.40478 28.0323 9.09698 28.1567 8.82691C28.2812 8.55685 28.5026 8.34473 28.7761 8.23359C29.0496 8.12245 29.3546 8.12061 29.6294 8.22844L35.1971 10.85ZM33.1422 17.8824C33.4502 17.8824 33.7454 18.006 33.9632 18.2261C34.1809 18.4461 34.3032 18.7446 34.3032 19.0558C34.3032 19.367 34.1809 19.6655 33.9632 19.8855C33.7454 20.1056 33.4502 20.2292 33.1422 20.2292H26.9989C26.691 20.2292 26.3957 20.1056 26.178 19.8855C25.9602 19.6655 25.8379 19.367 25.8379 19.0558C25.8379 18.7446 25.9602 18.4461 26.178 18.2261C26.3957 18.006 26.691 17.8824 26.9989 17.8824H33.1422ZM64.8063 27.2577C64.5485 27.1142 64.3543 26.8772 64.2629 26.5945C64.1715 26.3119 64.1897 26.0047 64.3138 25.735C64.4379 25.4654 64.6587 25.2535 64.9315 25.1421C65.2043 25.0306 65.5088 25.0281 65.7834 25.1349L71.3473 27.7564C71.6057 27.8996 71.8007 28.1368 71.8925 28.4198C71.9844 28.7029 71.9662 29.0107 71.8418 29.2808C71.7174 29.5508 71.4959 29.763 71.2225 29.8741C70.949 29.9852 70.6439 29.9871 70.3691 29.8793L64.8063 27.2577ZM65.7834 12.9728C65.5088 13.0796 65.2043 13.0771 64.9315 12.9656C64.6587 12.8542 64.4379 12.6423 64.3138 12.3727C64.1897 12.103 64.1715 11.7958 64.2629 11.5132C64.3543 11.2305 64.5485 10.9935 64.8063 10.85L70.3691 8.22844C70.6439 8.12061 70.949 8.12245 71.2225 8.23359C71.4959 8.34473 71.7174 8.55685 71.8418 8.82691C71.9662 9.09698 71.9844 9.40478 71.8925 9.68786C71.8007 9.97095 71.6057 10.2081 71.3473 10.3513L65.7834 12.9728ZM66.8611 20.2253C66.5532 20.2253 66.2579 20.1016 66.0402 19.8816C65.8225 19.6615 65.7002 19.3631 65.7002 19.0519C65.7002 18.7407 65.8225 18.4422 66.0402 18.2222C66.2579 18.0021 66.5532 17.8785 66.8611 17.8785H72.9997C73.3076 17.8785 73.6029 18.0021 73.8206 18.2222C74.0383 18.4422 74.1606 18.7407 74.1606 19.0519C74.1606 19.3631 74.0383 19.6615 73.8206 19.8816C73.6029 20.1016 73.3076 20.2253 72.9997 20.2253H66.8611ZM49.9993 6C47.4453 6 44.9486 6.76543 42.825 8.1995C40.7014 9.63358 39.0463 11.6719 38.0688 14.0567C37.0913 16.4415 36.8355 19.0657 37.3336 21.5975C37.8317 24.1292 39.0614 26.4549 40.8673 28.2803C42.6731 30.1057 44.9739 31.3489 47.4788 31.8528C49.9836 32.3566 52.5801 32.0984 54.9398 31.1108C57.2995 30.1233 59.3164 28.4507 60.7356 26.3046C62.1549 24.1584 62.9125 21.6352 62.9129 19.0538C62.9132 17.3397 62.5794 15.6423 61.9305 14.0585C61.2816 12.4748 60.3305 11.0357 59.1313 9.8235C57.9321 8.61131 56.5084 7.64974 54.9416 6.9937C53.3747 6.33766 51.6953 6 49.9993 6ZM57.4923 11.4758C56.0103 9.97796 54.1222 8.95795 52.0666 8.54471C50.0111 8.13148 47.8805 8.34358 45.9442 9.1542C44.0079 9.96483 42.353 11.3376 41.1886 13.0988C40.0243 14.8601 39.4028 16.9307 39.4028 19.049C39.4028 21.1672 40.0243 23.2379 41.1886 24.9991C42.353 26.7604 44.0079 28.1331 45.9442 28.9437C47.8805 29.7543 50.0111 29.9664 52.0666 29.5532C54.1222 29.14 56.0103 28.12 57.4923 26.6221C59.4793 24.6135 60.5956 21.8894 60.5956 19.049C60.5956 16.2085 59.4793 13.4844 57.4923 11.4758ZM43.347 21.0163C43.1507 20.7926 43.0464 20.5016 43.0553 20.2027C43.0641 19.9038 43.1856 19.6196 43.3948 19.4082C43.604 19.1967 43.8851 19.074 44.1809 19.065C44.4766 19.0561 44.7645 19.1615 44.9859 19.3599L47.3078 21.7067L55.0126 13.9203C55.234 13.7219 55.522 13.6165 55.8177 13.6254C56.1134 13.6344 56.3946 13.7572 56.6038 13.9686C56.813 14.18 56.9344 14.4642 56.9433 14.7631C56.9522 15.062 56.8478 15.353 56.6515 15.5767L48.1263 24.1874C47.9087 24.4065 47.614 24.5296 47.3068 24.5296C46.9997 24.5296 46.705 24.4065 46.4874 24.1874L43.347 21.0134V21.0163ZM17.7954 70.4205L37.2675 90.101L43.8462 83.4519L24.3761 63.7684L17.7974 70.4176L17.7954 70.4205ZM75.6225 64.8469L56.1494 84.5235L62.7281 91.1727L82.2031 71.4941L75.6244 64.845L75.6225 64.8469ZM68.7216 63.4076L60.0967 72.1248C57.5048 74.7444 53.0342 72.5414 50.8168 73.6023L57.2494 80.1038L71.2447 65.9548L68.7216 63.4037V63.4076ZM73.3528 49.1823L71.0899 51.4685C70.8699 51.6736 70.5801 51.785 70.2808 51.7793C69.9816 51.7737 69.696 51.6514 69.4838 51.4381C69.2716 51.2247 69.1491 50.9368 69.1419 50.6344C69.1347 50.3319 69.2434 50.0384 69.4452 49.815L71.7129 47.523C72.1084 47.107 72.3267 46.5508 72.321 45.9739C72.3153 45.3971 72.086 44.8455 71.6824 44.4375C71.2788 44.0296 70.733 43.7979 70.1623 43.7921C69.5915 43.7863 69.0413 44.007 68.6297 44.4067L66.3619 46.6987C66.1406 46.897 65.8526 47.0025 65.5569 46.9935C65.2612 46.9846 64.98 46.8618 64.7708 46.6504C64.5616 46.439 64.4402 46.1548 64.4313 45.8559C64.4224 45.557 64.5268 45.266 64.723 45.0423L66.9917 42.7502C67.3758 42.3321 67.5845 41.7797 67.5739 41.2093C67.5633 40.6388 67.3343 40.0947 66.9349 39.6915C66.5355 39.2882 65.997 39.0572 65.4326 39.047C64.8681 39.0368 64.3218 39.2483 63.9084 39.6369L61.6407 41.9289C61.419 42.124 61.1322 42.2268 60.8384 42.2165C60.5445 42.2062 60.2655 42.0837 60.0576 41.8735C59.8497 41.6634 59.7284 41.3814 59.7182 41.0844C59.7081 40.7874 59.8098 40.4976 60.0028 40.2734L62.2705 37.9746C62.6474 37.5555 62.8501 37.0058 62.8367 36.4397C62.8233 35.8735 62.5949 35.3343 62.1987 34.9339C61.8025 34.5334 61.2689 34.3025 60.7088 34.289C60.1486 34.2754 59.6048 34.4804 59.1901 34.8612L51.4727 42.6583L55.12 46.3447C55.6926 46.9254 56.0994 47.6516 56.2973 48.4466C56.4951 49.2417 56.4768 50.076 56.2442 50.8614C56.0115 51.6468 55.5733 52.354 54.9757 52.9084C54.3782 53.4628 53.6435 53.8436 52.8494 54.0108C53.2841 54.9852 53.3653 56.0833 53.0787 57.1122C52.792 58.1411 52.1559 59.035 51.282 59.637C50.4081 60.239 49.3522 60.5106 48.2999 60.404C47.2476 60.2975 46.2661 59.8196 45.5277 59.0544C45.3426 59.7048 45.0163 60.3053 44.5725 60.8121C44.1287 61.3189 43.5786 61.7192 42.9623 61.9839C42.3459 62.2486 41.679 62.3709 41.0099 62.342C40.3409 62.313 39.6867 62.1336 39.095 61.8167C38.9122 62.6052 38.5245 63.3301 37.9718 63.9165C37.4192 64.503 36.7217 64.9297 35.9514 65.1526C35.1811 65.3756 34.3658 65.3867 33.5899 65.1848C32.8139 64.9828 32.1053 64.5753 31.5372 64.0041L30.9471 63.4076L29.1195 65.2557L42.3825 78.6518L48.6787 72.296C51.4843 69.4603 56.6612 72.2862 58.4587 70.4694L76.4361 52.2947C76.8315 51.8787 77.0499 51.3226 77.0442 50.7457C77.0384 50.1688 76.8092 49.6172 76.4056 49.2093C76.002 48.8013 75.4562 48.5696 74.8854 48.5638C74.3146 48.5581 73.7644 48.7787 73.3528 49.1784V49.1823ZM53.4067 37.3879C53.0023 37.3107 50.6088 37.2178 50.0293 37.1923C47.986 37.1014 45.9417 37.0105 44.5428 36.7924L44.3996 38.9368C44.3627 39.511 44.5522 40.0766 44.9268 40.51C45.3013 40.9433 45.8304 41.2092 46.3984 41.2493L49.3859 41.4527L53.4067 37.3879ZM42.1435 38.0059C41.7652 38.096 41.4175 38.2866 41.1363 38.5579C40.8552 38.8292 40.6509 39.1715 40.5443 39.5493C40.4378 39.9271 40.4331 40.3269 40.5305 40.7072C40.628 41.0875 40.8241 41.4347 41.0986 41.7128L50.4027 51.1164C50.8169 51.5018 51.3625 51.7104 51.9254 51.6985C52.4883 51.6865 53.0247 51.4551 53.4226 51.0524C53.8204 50.6498 54.0488 50.1073 54.0599 49.5384C54.071 48.9695 53.864 48.4183 53.4821 48.0001L49.322 43.7955L46.1652 43.5804C44.9909 43.4727 43.9058 42.9015 43.1452 41.9908C42.3846 41.08 42.0098 39.903 42.1019 38.7148L42.1493 38.0098L42.1435 38.0059ZM30.237 54.0587C29.8067 54.0598 29.3864 54.1895 29.0289 54.4315C28.6714 54.6735 28.3927 55.017 28.228 55.4187C28.0632 55.8204 28.0197 56.2625 28.1029 56.6891C28.1862 57.1158 28.3925 57.508 28.6958 57.8164L33.1751 62.3437C33.584 62.7574 34.1387 62.9899 34.7172 62.9902C35.2957 62.9905 35.8506 62.7584 36.2599 62.3452C36.6691 61.932 36.8992 61.3713 36.8995 60.7866C36.8998 60.2019 36.6702 59.6411 36.2613 59.2274L31.782 54.7001C31.5794 54.4959 31.3388 54.3341 31.0742 54.224C30.8096 54.1139 30.526 54.0578 30.2399 54.0587H30.237ZM42.7482 56.2412L34.7337 48.1439C34.3234 47.737 33.7708 47.5102 33.1959 47.513C32.6211 47.5158 32.0706 47.7479 31.6642 48.1588C31.2578 48.5697 31.0283 49.1261 31.0258 49.7071C31.0232 50.2881 31.2477 50.8466 31.6504 51.2612L39.6639 59.3604C40.0741 59.7675 40.6267 59.9944 41.2015 59.9918C41.7763 59.9892 42.3269 59.7573 42.7334 59.3465C43.14 58.9357 43.3696 58.3794 43.3723 57.7984C43.3751 57.2174 43.1508 56.6588 42.7482 56.2441V56.2412ZM37.9109 42.7278C37.4815 42.73 37.0624 42.8602 36.7061 43.1022C36.3497 43.3442 36.0719 43.6871 35.9075 44.0879C35.7432 44.4888 35.6995 44.9297 35.7821 45.3556C35.8646 45.7814 36.0697 46.1731 36.3716 46.4816L47.2072 57.4331C47.6173 57.8402 48.1699 58.0671 48.7448 58.0645C49.3196 58.0619 49.8702 57.83 50.2767 57.4192C50.6833 57.0085 50.9129 56.4521 50.9156 55.8711C50.9184 55.2901 50.6941 54.7315 50.2914 54.3168L39.4559 43.3653C39.253 43.1618 39.0123 43.0007 38.7477 42.8913C38.483 42.7819 38.1997 42.7263 37.9138 42.7278H37.9109Z" fill="#495057"/>
</svg>
