<svg id="Group_583" data-name="Group 583" xmlns="http://www.w3.org/2000/svg" xmlns:xlink="http://www.w3.org/1999/xlink" width="577.867" height="443.07" viewBox="0 0 577.867 443.07">
  <defs>
    <linearGradient id="linear-gradient" x1="0.238" y1="0.797" x2="0.735" y2="0.48" gradientUnits="objectBoundingBox">
      <stop offset="0" stop-color="#151515"/>
      <stop offset="1" stop-color="#242424"/>
    </linearGradient>
    <linearGradient id="linear-gradient-2" x1="-12.604" y1="2.958" x2="-13.035" y2="2.091" gradientUnits="objectBoundingBox">
      <stop offset="0" stop-color="#9c8cbe"/>
      <stop offset="1" stop-color="#fff"/>
    </linearGradient>
    <linearGradient id="linear-gradient-4" x1="-10.188" y1="5.971" x2="-10.619" y2="5.099" xlink:href="#linear-gradient-2"/>
    <linearGradient id="linear-gradient-5" x1="0.581" y1="0.594" x2="0.527" y2="0.516" gradientUnits="objectBoundingBox">
      <stop offset="0" stop-color="#fff"/>
      <stop offset="1" stop-color="#fff6ff"/>
    </linearGradient>
    <linearGradient id="linear-gradient-6" x1="138.371" y1="-108.779" x2="135.319" y2="-111.885" gradientUnits="objectBoundingBox">
      <stop offset="0" stop-color="#392540"/>
      <stop offset="1" stop-color="#4b395a"/>
    </linearGradient>
    <linearGradient id="linear-gradient-7" x1="1.866" y1="2.656" x2="0.234" y2="0.08" xlink:href="#linear-gradient-2"/>
    <linearGradient id="linear-gradient-8" x1="-0.473" y1="-1.19" x2="-3.128" y2="-7.25" gradientUnits="objectBoundingBox">
      <stop offset="0" stop-color="#707070"/>
      <stop offset="0" stop-color="#8c7ab4"/>
      <stop offset="1" stop-color="#d2cadc"/>
    </linearGradient>
    <linearGradient id="linear-gradient-9" x1="0.298" y1="0.534" x2="0.327" y2="0.531" xlink:href="#linear-gradient-6"/>
    <linearGradient id="linear-gradient-10" x1="0.429" y1="0.5" x2="0.485" y2="0.5" xlink:href="#linear-gradient-6"/>
    <linearGradient id="linear-gradient-11" x1="0" y1="0.5" x2="1" y2="0.5" xlink:href="#linear-gradient-6"/>
    <linearGradient id="linear-gradient-13" x1="0" y1="0.5" x2="1" y2="0.5" xlink:href="#linear-gradient-6"/>
    <linearGradient id="linear-gradient-14" x1="0" y1="0.5" x2="1" y2="0.5" xlink:href="#linear-gradient-6"/>
    <linearGradient id="linear-gradient-15" x1="0" y1="0.5" x2="1" y2="0.5" xlink:href="#linear-gradient-6"/>
    <linearGradient id="linear-gradient-74" x1="0.928" y1="0.916" x2="0.006" y2="0.02" gradientUnits="objectBoundingBox">
      <stop offset="0" stop-color="red" stop-opacity="0.98"/>
      <stop offset="1" stop-color="#650303"/>
    </linearGradient>
    <linearGradient id="linear-gradient-75" x1="2.232" y1="2.047" x2="0.236" y2="0.264" gradientUnits="objectBoundingBox">
      <stop offset="0" stop-color="#cab9ff"/>
      <stop offset="1" stop-color="#fff"/>
    </linearGradient>
    <linearGradient id="linear-gradient-76" x1="1.238" y1="2.088" x2="0.392" y2="0.267" xlink:href="#linear-gradient-2"/>
    <linearGradient id="linear-gradient-77" x1="1.935" y1="2.759" x2="0.271" y2="0.14" xlink:href="#linear-gradient-2"/>
    <linearGradient id="linear-gradient-78" x1="8.093" y1="4.358" x2="6.057" y2="-0.848" xlink:href="#linear-gradient-2"/>
    <linearGradient id="linear-gradient-79" x1="6.782" y1="4.858" x2="4.747" y2="-0.348" xlink:href="#linear-gradient-2"/>
    <linearGradient id="linear-gradient-80" x1="5.642" y1="5.686" x2="3.607" y2="0.48" xlink:href="#linear-gradient-2"/>
    <linearGradient id="linear-gradient-81" x1="4.668" y1="7.049" x2="2.633" y2="1.843" xlink:href="#linear-gradient-2"/>
    <linearGradient id="linear-gradient-82" x1="2.815" y1="6.161" x2="0.78" y2="0.955" xlink:href="#linear-gradient-2"/>
    <linearGradient id="linear-gradient-83" x1="1.159" y1="5.777" x2="-0.877" y2="0.571" xlink:href="#linear-gradient-2"/>
  </defs>
  <g id="_9" data-name="9" transform="translate(57.005 98.944)" opacity="0.7">
    <g id="Group_550" data-name="Group 550" transform="translate(284.451 222.078)">
      <path id="Path_363" data-name="Path 363" d="M668.882,335.136a20.488,20.488,0,0,1-10.449-2.848l-43.08-25.542.753-1.268,43.081,25.541a19.1,19.1,0,0,0,18.734.366l35.625-19.279.7,1.3-35.625,19.279A20.459,20.459,0,0,1,668.882,335.136Z" transform="translate(-615.353 -305.478)" fill="#707070"/>
    </g>
    <g id="Group_551" data-name="Group 551" transform="matrix(0.999, -0.035, 0.035, 0.999, 0, 3.931)">
      <path id="Path_364" data-name="Path 364" d="M111.9,102,4.571,40.209a9.118,9.118,0,0,1-.037-15.784L46.52,0,48,.852,5.275,25.7a7.643,7.643,0,0,0,.031,13.229L112.63,100.718Z" fill="url(#linear-gradient)"/>
    </g>
  </g>
  <g id="_6" data-name="6" transform="translate(0 233.019)">
    <path id="Path_367" data-name="Path 367" d="M536.37,381.631l-45.276,26.14a5.07,5.07,0,0,1-4.559-.189L476.007,401.5c-1.349-.779-1.5-1.958-.328-2.632l45.276-26.14a5.065,5.065,0,0,1,4.559.189L536.043,379C537.392,379.779,537.538,380.957,536.37,381.631Z" transform="translate(-455.944 -361.337)" fill="#707070"/>
    <path id="Path_368" data-name="Path 368" d="M549.237,389.059,503.959,415.2a5.067,5.067,0,0,1-4.557-.189l-10.53-6.079c-1.349-.779-1.5-1.958-.326-2.632l45.276-26.14a5.065,5.065,0,0,1,4.559.189l10.529,6.079C550.258,387.207,550.4,388.385,549.237,389.059Z" transform="translate(-449.817 -357.8)" fill="#a0a0a0" opacity="0.8"/>
    <path id="Path_369" data-name="Path 369" d="M523.536,374.221l-45.276,26.14a5.07,5.07,0,0,1-4.559-.189l-10.529-6.079c-1.349-.779-1.5-1.958-.328-2.632l45.276-26.14a5.074,5.074,0,0,1,4.559.189l10.529,6.079C524.558,372.368,524.7,373.546,523.536,374.221Z" transform="translate(-462.057 -364.866)" fill="#ea0404"/>
    <path id="Path_370" data-name="Path 370" d="M562.062,396.464,516.786,422.6a5.065,5.065,0,0,1-4.559-.189L501.7,416.336c-1.349-.778-1.5-1.956-.328-2.631l45.277-26.14a5.063,5.063,0,0,1,4.557.189l10.53,6.079C563.084,394.611,563.231,395.789,562.062,396.464Z" transform="translate(-443.708 -354.272)" fill="#bbb" opacity="0.6"/>
    <path id="Path_371" data-name="Path 371" d="M574.8,403.82l-45.276,26.14a5.065,5.065,0,0,1-4.559-.189l-10.529-6.079c-1.349-.778-1.5-1.956-.328-2.631l45.277-26.14a5.062,5.062,0,0,1,4.557.189l10.53,6.079C575.825,401.967,575.972,403.145,574.8,403.82Z" transform="translate(-437.639 -350.769)" fill="#bbb" opacity="0.4"/>
    <path id="Path_372" data-name="Path 372" d="M587.478,411.137,542.2,437.277a5.062,5.062,0,0,1-4.557-.189l-10.53-6.079c-1.349-.778-1.5-1.958-.326-2.631l45.276-26.14a5.066,5.066,0,0,1,4.559.189l10.529,6.079C588.5,409.284,588.645,410.462,587.478,411.137Z" transform="translate(-431.604 -347.284)" fill="#a0a0a0" opacity="0.2"/>
    <g id="Group_554" data-name="Group 554" transform="translate(113.294 65.078)" opacity="0.2">
      <path id="Path_373" data-name="Path 373" d="M553.758,446.375a6.021,6.021,0,0,1-2.944-.743l-10.529-6.079a2.58,2.58,0,0,1-1.485-2.129,2.064,2.064,0,0,1,1.157-1.782L585.233,409.5a5.779,5.779,0,0,1,5.3.189l10.529,6.078a2.583,2.583,0,0,1,1.485,2.13,2.061,2.061,0,0,1-1.157,1.78l-45.276,26.14A4.78,4.78,0,0,1,553.758,446.375Zm33.82-35.954a3.291,3.291,0,0,0-1.606.36L540.7,436.921c-.156.09-.419.276-.419.5,0,.193.195.533.747.852l10.529,6.079a4.343,4.343,0,0,0,3.821.187l45.276-26.14c.157-.09.419-.276.419-.5,0-.193-.195-.531-.747-.852l-10.529-6.078A4.576,4.576,0,0,0,587.577,410.421Z" transform="translate(-538.8 -408.949)" fill="url(#linear-gradient-2)"/>
    </g>
  </g>
  <g id="_6-2" data-name="6" transform="translate(23.62 24.866)">
    <path id="Path_367-2" data-name="Path 367" d="M536.37,381.631l-45.276,26.14a5.07,5.07,0,0,1-4.559-.189L476.007,401.5c-1.349-.779-1.5-1.958-.328-2.632l45.276-26.14a5.065,5.065,0,0,1,4.559.189L536.043,379C537.392,379.779,537.538,380.957,536.37,381.631Z" transform="translate(-455.944 -361.337)" fill="#707070"/>
    <path id="Path_368-2" data-name="Path 368" d="M549.237,389.059,503.959,415.2a5.067,5.067,0,0,1-4.557-.189l-10.53-6.079c-1.349-.779-1.5-1.958-.326-2.632l45.276-26.14a5.065,5.065,0,0,1,4.559.189l10.529,6.079C550.258,387.207,550.4,388.385,549.237,389.059Z" transform="translate(-449.817 -357.8)" fill="#a0a0a0" opacity="0.8"/>
    <path id="Path_369-2" data-name="Path 369" d="M523.536,374.221l-45.276,26.14a5.07,5.07,0,0,1-4.559-.189l-10.529-6.079c-1.349-.779-1.5-1.958-.328-2.632l45.276-26.14a5.074,5.074,0,0,1,4.559.189l10.529,6.079C524.558,372.368,524.7,373.546,523.536,374.221Z" transform="translate(-462.057 -364.866)" fill="#ea0404"/>
    <path id="Path_370-2" data-name="Path 370" d="M562.062,396.464,516.786,422.6a5.065,5.065,0,0,1-4.559-.189L501.7,416.336c-1.349-.778-1.5-1.956-.328-2.631l45.277-26.14a5.063,5.063,0,0,1,4.557.189l10.53,6.079C563.084,394.611,563.231,395.789,562.062,396.464Z" transform="translate(-443.708 -354.272)" fill="#bbb" opacity="0.6"/>
    <path id="Path_371-2" data-name="Path 371" d="M574.8,403.82l-45.276,26.14a5.065,5.065,0,0,1-4.559-.189l-10.529-6.079c-1.349-.778-1.5-1.956-.328-2.631l45.277-26.14a5.062,5.062,0,0,1,4.557.189l10.53,6.079C575.825,401.967,575.972,403.145,574.8,403.82Z" transform="translate(-437.639 -350.769)" fill="#bbb" opacity="0.4"/>
    <path id="Path_372-2" data-name="Path 372" d="M587.478,411.137,542.2,437.277a5.062,5.062,0,0,1-4.557-.189l-10.53-6.079c-1.349-.778-1.5-1.958-.326-2.631l45.276-26.14a5.066,5.066,0,0,1,4.559.189l10.529,6.079C588.5,409.284,588.645,410.462,587.478,411.137Z" transform="translate(-431.604 -347.284)" fill="#a0a0a0" opacity="0.2"/>
    <g id="Group_554-2" data-name="Group 554" transform="translate(113.294 65.078)" opacity="0.2">
      <path id="Path_373-2" data-name="Path 373" d="M553.758,446.375a6.021,6.021,0,0,1-2.944-.743l-10.529-6.079a2.58,2.58,0,0,1-1.485-2.129,2.064,2.064,0,0,1,1.157-1.782L585.233,409.5a5.779,5.779,0,0,1,5.3.189l10.529,6.078a2.583,2.583,0,0,1,1.485,2.13,2.061,2.061,0,0,1-1.157,1.78l-45.276,26.14A4.78,4.78,0,0,1,553.758,446.375Zm33.82-35.954a3.291,3.291,0,0,0-1.606.36L540.7,436.921c-.156.09-.419.276-.419.5,0,.193.195.533.747.852l10.529,6.079a4.343,4.343,0,0,0,3.821.187l45.276-26.14c.157-.09.419-.276.419-.5,0-.193-.195-.531-.747-.852l-10.529-6.078A4.576,4.576,0,0,0,587.577,410.421Z" transform="translate(-538.8 -408.949)" fill="url(#linear-gradient-2)"/>
    </g>
  </g>
  <g id="_5" data-name="5" transform="translate(326.311 217.433)">
    <path id="Path_374" data-name="Path 374" d="M767.916,310.159,703.5,347.349a7.2,7.2,0,0,1-6.484-.27l-14.98-8.648c-1.919-1.109-2.129-2.784-.467-3.744L745.986,297.5a7.2,7.2,0,0,1,6.484.269l14.98,8.648C769.37,307.523,769.578,309.2,767.916,310.159Z" transform="translate(-653.496 -281.288)" fill="#707070"/>
    <path id="Path_375" data-name="Path 375" d="M786.219,320.727l-64.412,37.189a7.207,7.207,0,0,1-6.485-.269L700.341,349c-1.919-1.109-2.127-2.784-.465-3.745l64.413-37.189a7.212,7.212,0,0,1,6.485.269l14.98,8.649C787.673,318.09,787.881,319.767,786.219,320.727Z" transform="translate(-644.778 -276.255)" fill="#707070" opacity="0.59"/>
    <path id="Path_376" data-name="Path 376" d="M749.657,299.618l-64.413,37.189a7.212,7.212,0,0,1-6.485-.269l-14.98-8.649c-1.919-1.107-2.127-2.784-.467-3.744l64.414-37.189a7.211,7.211,0,0,1,6.485.269l14.98,8.649C751.111,296.981,751.319,298.658,749.657,299.618Z" transform="translate(-662.192 -286.308)" fill="#ea0404"/>
    <path id="Path_377" data-name="Path 377" d="M804.468,331.263l-64.414,37.189a7.209,7.209,0,0,1-6.484-.269l-14.981-8.649c-1.919-1.107-2.127-2.784-.465-3.744L782.537,318.6a7.207,7.207,0,0,1,6.485.269L804,327.518C805.921,328.626,806.13,330.3,804.468,331.263Z" transform="translate(-636.087 -271.237)" fill="#a0a0a0" opacity="0.6"/>
    <path id="Path_378" data-name="Path 378" d="M822.594,341.728,758.18,378.917a7.209,7.209,0,0,1-6.484-.269L736.716,370c-1.919-1.107-2.129-2.784-.466-3.744l64.414-37.189a7.209,7.209,0,0,1,6.484.269l14.981,8.649C824.048,339.091,824.256,340.768,822.594,341.728Z" transform="translate(-627.454 -266.253)" fill="#bbb" opacity="0.4"/>
    <path id="Path_379" data-name="Path 379" d="M840.624,352.137l-64.413,37.19a7.212,7.212,0,0,1-6.485-.269l-14.98-8.649c-1.919-1.107-2.129-2.784-.467-3.744l64.414-37.189a7.207,7.207,0,0,1,6.485.269l14.98,8.648C842.078,349.5,842.286,351.177,840.624,352.137Z" transform="translate(-618.867 -261.295)" fill="#bbb" opacity="0.2"/>
    <g id="Group_555" data-name="Group 555" transform="translate(161.491 92.896)" opacity="0.2">
      <path id="Path_380" data-name="Path 380" d="M792.549,401.86a8.23,8.23,0,0,1-4.029-1.019l-14.98-8.648a3.377,3.377,0,0,1-1.958-2.756,2.638,2.638,0,0,1,1.491-2.265l64.414-37.19a7.909,7.909,0,0,1,7.222.27l14.98,8.648a3.38,3.38,0,0,1,1.958,2.755,2.642,2.642,0,0,1-1.492,2.268L795.744,401.11A6.477,6.477,0,0,1,792.549,401.86Zm48.115-51.148a5,5,0,0,0-2.437.548l-64.414,37.19a1.279,1.279,0,0,0-.753.988c0,.484.456,1.038,1.219,1.479l14.98,8.648a6.531,6.531,0,0,0,5.747.269l64.411-37.189a1.274,1.274,0,0,0,.754-.989c0-.484-.456-1.036-1.219-1.476l-14.98-8.649A6.836,6.836,0,0,0,840.664,350.712Z" transform="translate(-771.583 -349.234)" fill="url(#linear-gradient-4)"/>
    </g>
  </g>
  <g id="_4" data-name="4" transform="translate(128.628 0)">
    <g id="Group_557" data-name="Group 557" transform="translate(98.795)">
      <path id="Path_381" data-name="Path 381" d="M729.829,335.482l.2-109.049c0-3.206-1.956-6.93-4.362-8.316L601.4,146.527a2.8,2.8,0,0,0-2.728-.258l-.018-.022L596,147.73l3.252,4.612.075,105.764c0,3.206,1.956,6.93,4.361,8.314l121.237,74.293,1.187-.5,2.31-1.273v-.015A3.924,3.924,0,0,0,729.829,335.482Z" transform="translate(-594.686 -146.023)" fill="url(#linear-gradient-5)"/>
      <g id="Group_556" data-name="Group 556" transform="translate(0 1.287)">
        <path id="Path_382" data-name="Path 382" d="M723.82,340.208,599.55,268.618c-2.406-1.386-4.359-5.109-4.362-8.314l-.078-109.592c0-3.208,1.944-4.683,4.351-3.3l124.271,71.59c2.406,1.386,4.359,5.109,4.362,8.314l.078,106.37C728.174,336.9,726.225,341.595,723.82,340.208Z" transform="translate(-595.109 -146.894)" fill="#707070"/>
        <path id="Path_383" data-name="Path 383" d="M719.052,325.728,600.737,257.57a4.611,4.611,0,0,1-1.927-3.673l-.078-98.7c0-1.416.859-2.067,1.922-1.456L718.97,221.9a4.608,4.608,0,0,1,1.927,3.673l.078,98.7C720.976,325.69,720.115,326.341,719.052,325.728Z" transform="translate(-593.383 -143.743)" fill="#fafafa"/>
        <path id="Path_384" data-name="Path 384" d="M640.8,175.955l-.493-.283a2.684,2.684,0,0,1-1.122-2.139h0c0-.825.5-1.2,1.119-.849l.493.283a2.684,2.684,0,0,1,1.122,2.141h0C641.916,175.933,641.416,176.313,640.8,175.955Z" transform="translate(-574.118 -134.675)" fill="url(#linear-gradient-6)"/>
      </g>
    </g>
    <path id="Path_385" data-name="Path 385" d="M754.726,300.172l-7.031-.586L628.828,231.122c-2.406-1.386-6.606-1.208-9.382.4l-86.661,50.153-4.591-.384v1.649h.013a2.718,2.718,0,0,0,1.6,2.473l124.275,71.58c2.408,1.386,6.608,1.208,9.383-.4l88.969-48.475c1.512-.874,2.26-1.99,2.266-3.051l.021,0Z" transform="translate(-528.183 -105.937)" fill="#707070"/>
    <path id="Path_386" data-name="Path 386" d="M654.088,356.742l-124.275-71.58c-2.406-1.386-2.107-3.812.669-5.418l88.969-51.489c2.775-1.6,6.975-1.783,9.382-.4l124.275,71.58c2.406,1.386,2.108,3.812-.667,5.418l-88.969,51.489C660.7,357.95,656.5,358.129,654.088,356.742Z" transform="translate(-528.187 -107.491)" fill="url(#linear-gradient-7)"/>
    <path id="Path_387" data-name="Path 387" d="M676.078,330.776l-118.32-68.149c-1.063-.613-.93-1.684.3-2.393l49.719-28.84a4.6,4.6,0,0,1,4.144-.177l118.32,68.15c1.063.611.932,1.683-.3,2.393L680.221,330.6A4.6,4.6,0,0,1,676.078,330.776Z" transform="translate(-514.445 -105.643)" fill="url(#linear-gradient-8)"/>
    <path id="Path_388" data-name="Path 388" d="M596.505,306.609,563.74,287.737c-.567-.326-.5-.9.158-1.275l26.515-15.381a2.455,2.455,0,0,1,2.208-.093l32.766,18.873c.567.326.5.9-.156,1.275l-26.515,15.381A2.458,2.458,0,0,1,596.505,306.609Z" transform="translate(-511.436 -86.611)" fill="#707070"/>
    <path id="Path_389" data-name="Path 389" d="M557.758,262.628l.6.344,49.417-28.666a4.6,4.6,0,0,1,4.142-.176l117.725,67.806.3-.176c1.227-.71,1.358-1.782.3-2.393l-118.32-68.15a4.6,4.6,0,0,0-4.144.177l-49.719,28.84C556.828,260.943,556.695,262.015,557.758,262.628Z" transform="translate(-514.445 -105.643)" fill="url(#linear-gradient-9)"/>
    <path id="Path_390" data-name="Path 390" d="M563.74,287.737l.943.543,25.73-14.925a2.45,2.45,0,0,1,2.208-.093l31.824,18.329.785-.456c.653-.378.723-.949.156-1.277l-32.766-18.871a2.455,2.455,0,0,0-2.208.093L563.9,286.461C563.244,286.839,563.173,287.41,563.74,287.737Z" transform="translate(-511.436 -86.611)" fill="url(#linear-gradient-10)"/>
    <path id="Path_391" data-name="Path 391" d="M596.3,302.385l-31.479-18.1c-.543-.313-1.047-.543-.558-.793l6.466-3.735a2.079,2.079,0,0,1,1.278.4l31.433,18.1c.545.313.853.642.692.735l-6.555,3.787A2.078,2.078,0,0,1,596.3,302.385Z" transform="translate(-511.098 -82.34)" fill="#fafcff"/>
    <g id="Group_562" data-name="Group 562" transform="translate(50.625 132.136)">
      <path id="Path_392" data-name="Path 392" d="M592.691,240.566l-3.322-1.913c-.836-.481-.732-1.323.232-1.881l1.348-.779a3.617,3.617,0,0,1,3.257-.139l3.322,1.913c.836.481.732,1.324-.232,1.881l-1.348.781A3.622,3.622,0,0,1,592.691,240.566Z" transform="translate(-549.942 -235.53)" fill="url(#linear-gradient-11)"/>
      <path id="Path_393" data-name="Path 393" d="M598.3,243.794l-3.323-1.913c-.836-.481-.731-1.323.232-1.881l1.348-.779a3.621,3.621,0,0,1,3.258-.139L603.132,241c.836.48.731,1.323-.232,1.879l-1.348.781A3.622,3.622,0,0,1,598.3,243.794Z" transform="translate(-547.273 -233.992)" fill="url(#linear-gradient-11)"/>
      <path id="Path_394" data-name="Path 394" d="M603.9,247.023l-3.322-1.913c-.836-.483-.732-1.324.232-1.882l1.348-.779a3.627,3.627,0,0,1,3.257-.139l3.322,1.915c.836.48.732,1.323-.232,1.879l-1.348.781A3.618,3.618,0,0,1,603.9,247.023Z" transform="translate(-544.603 -232.454)" fill="url(#linear-gradient-13)"/>
      <path id="Path_395" data-name="Path 395" d="M609.5,250.251l-3.322-1.913c-.836-.481-.732-1.324.232-1.881l1.348-.779a3.618,3.618,0,0,1,3.257-.139l3.322,1.913c.836.481.732,1.323-.232,1.881l-1.348.779A3.618,3.618,0,0,1,609.5,250.251Z" transform="translate(-541.934 -230.917)" fill="url(#linear-gradient-14)"/>
      <path id="Path_396" data-name="Path 396" d="M615.109,253.479l-3.322-1.913c-.836-.481-.731-1.323.232-1.881l1.348-.781a3.622,3.622,0,0,1,3.257-.137l3.323,1.913c.834.481.731,1.323-.232,1.881l-1.348.779A3.621,3.621,0,0,1,615.109,253.479Z" transform="translate(-539.264 -229.38)" fill="url(#linear-gradient-15)"/>
      <path id="Path_397" data-name="Path 397" d="M620.714,256.707l-3.322-1.913c-.836-.481-.732-1.323.232-1.881l1.348-.779a3.618,3.618,0,0,1,3.257-.139l3.322,1.913c.836.481.732,1.323-.232,1.881l-1.348.779A3.618,3.618,0,0,1,620.714,256.707Z" transform="translate(-536.595 -227.842)" fill="url(#linear-gradient-15)"/>
      <path id="Path_398" data-name="Path 398" d="M626.319,259.935,623,258.022c-.834-.481-.731-1.323.233-1.881l1.348-.779a3.618,3.618,0,0,1,3.257-.139l3.322,1.913c.836.481.731,1.323-.232,1.881l-1.348.78A3.618,3.618,0,0,1,626.319,259.935Z" transform="translate(-533.926 -226.305)" fill="url(#linear-gradient-15)"/>
      <path id="Path_399" data-name="Path 399" d="M631.923,263.163,628.6,261.25c-.836-.481-.731-1.323.232-1.881l1.348-.779a3.618,3.618,0,0,1,3.257-.139l3.323,1.913c.834.481.731,1.324-.233,1.881l-1.346.779A3.621,3.621,0,0,1,631.923,263.163Z" transform="translate(-531.257 -224.767)" fill="url(#linear-gradient-15)"/>
      <path id="Path_400" data-name="Path 400" d="M637.528,266.392l-3.322-1.915c-.835-.481-.732-1.323.232-1.881l1.348-.779a3.617,3.617,0,0,1,3.257-.139l3.322,1.913c.836.481.732,1.323-.232,1.881l-1.348.781A3.627,3.627,0,0,1,637.528,266.392Z" transform="translate(-528.587 -223.23)" fill="url(#linear-gradient-15)"/>
      <path id="Path_401" data-name="Path 401" d="M643.133,269.62l-3.323-1.915c-.836-.481-.731-1.323.232-1.879l1.348-.781a3.621,3.621,0,0,1,3.258-.139l3.322,1.913c.836.481.731,1.324-.232,1.881l-1.348.781A3.627,3.627,0,0,1,643.133,269.62Z" transform="translate(-525.918 -221.693)" fill="url(#linear-gradient-11)"/>
      <path id="Path_402" data-name="Path 402" d="M648.908,272.946l-3.322-1.913c-.836-.481-.731-1.323.232-1.881l1.348-.78a3.618,3.618,0,0,1,3.257-.139l3.323,1.913c.836.481.731,1.324-.232,1.881l-1.348.781A3.625,3.625,0,0,1,648.908,272.946Z" transform="translate(-523.167 -220.108)" fill="url(#linear-gradient-15)"/>
      <path id="Path_403" data-name="Path 403" d="M654.513,276.174l-3.322-1.913c-.835-.481-.732-1.323.232-1.881l1.348-.779a3.618,3.618,0,0,1,3.257-.139l3.322,1.913c.836.481.732,1.324-.232,1.881l-1.346.781A3.625,3.625,0,0,1,654.513,276.174Z" transform="translate(-520.498 -218.571)" fill="url(#linear-gradient-11)"/>
      <path id="Path_404" data-name="Path 404" d="M660.118,279.4l-3.323-1.915c-.834-.48-.731-1.323.233-1.881l1.348-.779a3.618,3.618,0,0,1,3.257-.139l3.322,1.913c.836.483.732,1.324-.232,1.882l-1.348.779A3.627,3.627,0,0,1,660.118,279.4Z" transform="translate(-517.828 -217.033)" fill="url(#linear-gradient-11)"/>
      <path id="Path_405" data-name="Path 405" d="M665.722,282.631l-3.322-1.913c-.836-.483-.731-1.324.232-1.881l1.348-.781a3.617,3.617,0,0,1,3.257-.137l3.323,1.913c.836.481.731,1.323-.233,1.879l-1.346.781A3.621,3.621,0,0,1,665.722,282.631Z" transform="translate(-515.159 -215.496)" fill="url(#linear-gradient-14)"/>
      <g id="Group_558" data-name="Group 558" transform="translate(29.186 3.953)">
        <path id="Path_406" data-name="Path 406" d="M586.305,244.89l-3.491-2.009c-.836-.481-.731-1.324.232-1.881l4.026-2.331a3.625,3.625,0,0,1,3.258-.137l3.49,2.011c.836.48.732,1.323-.232,1.881l-4.026,2.33A3.622,3.622,0,0,1,586.305,244.89Z" transform="translate(-582.25 -238.207)" fill="url(#linear-gradient-15)"/>
        <path id="Path_407" data-name="Path 407" d="M591.909,248.119l-3.49-2.011c-.835-.481-.732-1.324.232-1.881l4.026-2.33a3.618,3.618,0,0,1,3.257-.139l3.491,2.011c.836.48.731,1.323-.232,1.881l-4.026,2.33A3.625,3.625,0,0,1,591.909,248.119Z" transform="translate(-579.581 -236.67)" fill="url(#linear-gradient-15)"/>
        <path id="Path_408" data-name="Path 408" d="M597.571,251.38l-3.49-2.011c-.836-.481-.732-1.323.232-1.881l4.026-2.331a3.622,3.622,0,0,1,3.257-.137l3.49,2.011c.836.481.732,1.323-.232,1.881l-4.026,2.33A3.627,3.627,0,0,1,597.571,251.38Z" transform="translate(-576.884 -235.117)" fill="url(#linear-gradient-15)"/>
        <path id="Path_409" data-name="Path 409" d="M603.176,254.608l-3.491-2.011c-.836-.481-.731-1.324.232-1.881l4.026-2.33a3.621,3.621,0,0,1,3.258-.139l3.49,2.011c.836.481.732,1.323-.232,1.881l-4.026,2.33A3.618,3.618,0,0,1,603.176,254.608Z" transform="translate(-574.215 -233.58)" fill="url(#linear-gradient-15)"/>
        <path id="Path_410" data-name="Path 410" d="M608.78,257.836l-3.49-2.011c-.835-.481-.732-1.323.232-1.881l4.026-2.33a3.618,3.618,0,0,1,3.257-.139l3.491,2.011c.834.481.731,1.323-.232,1.881l-4.027,2.33A3.617,3.617,0,0,1,608.78,257.836Z" transform="translate(-571.545 -232.042)" fill="url(#linear-gradient-15)"/>
        <path id="Path_411" data-name="Path 411" d="M614.442,261.1l-3.49-2.011c-.836-.481-.732-1.323.232-1.881l4.024-2.33a3.621,3.621,0,0,1,3.258-.139l3.49,2.011c.836.481.732,1.323-.232,1.881l-4.026,2.329A3.618,3.618,0,0,1,614.442,261.1Z" transform="translate(-568.849 -230.489)" fill="url(#linear-gradient-15)"/>
        <path id="Path_412" data-name="Path 412" d="M620.047,264.325l-3.491-2.011c-.836-.481-.731-1.323.232-1.881l4.026-2.33a3.621,3.621,0,0,1,3.258-.139l3.49,2.011c.836.481.732,1.323-.232,1.881l-4.026,2.33A3.618,3.618,0,0,1,620.047,264.325Z" transform="translate(-566.18 -228.952)" fill="url(#linear-gradient-15)"/>
        <path id="Path_413" data-name="Path 413" d="M625.708,267.586l-3.49-2.011c-.836-.481-.732-1.323.232-1.881l4.026-2.33a3.618,3.618,0,0,1,3.257-.139l3.491,2.011c.836.481.731,1.323-.232,1.881l-4.026,2.33A3.621,3.621,0,0,1,625.708,267.586Z" transform="translate(-563.483 -227.398)" fill="url(#linear-gradient-15)"/>
        <path id="Path_414" data-name="Path 414" d="M631.313,270.814l-3.49-2.011c-.836-.481-.732-1.323.232-1.881l4.026-2.33a3.618,3.618,0,0,1,3.257-.139l3.49,2.011c.836.481.732,1.324-.232,1.881l-4.026,2.33A3.618,3.618,0,0,1,631.313,270.814Z" transform="translate(-560.814 -225.861)" fill="url(#linear-gradient-15)"/>
        <path id="Path_415" data-name="Path 415" d="M636.918,274.042l-3.491-2.011c-.835-.481-.731-1.323.232-1.881l4.026-2.33a3.618,3.618,0,0,1,3.257-.139l3.491,2.011c.836.481.731,1.323-.232,1.881l-4.026,2.33A3.618,3.618,0,0,1,636.918,274.042Z" transform="translate(-558.144 -224.324)" fill="url(#linear-gradient-11)"/>
        <path id="Path_416" data-name="Path 416" d="M642.579,277.3l-3.49-2.011c-.836-.481-.732-1.323.232-1.881l4.026-2.329a3.627,3.627,0,0,1,3.257-.139l3.491,2.011c.835.481.731,1.324-.232,1.881l-4.026,2.33A3.621,3.621,0,0,1,642.579,277.3Z" transform="translate(-555.448 -222.77)" fill="url(#linear-gradient-15)"/>
        <path id="Path_417" data-name="Path 417" d="M648.184,280.531l-3.49-2.009c-.836-.481-.732-1.324.232-1.882l4.026-2.33a3.617,3.617,0,0,1,3.257-.137l3.49,2.009c.836.481.732,1.324-.232,1.881l-4.026,2.331A3.622,3.622,0,0,1,648.184,280.531Z" transform="translate(-552.779 -221.233)" fill="url(#linear-gradient-15)"/>
        <path id="Path_418" data-name="Path 418" d="M653.789,283.76,650.3,281.75c-.836-.481-.731-1.324.232-1.881l4.026-2.331a3.622,3.622,0,0,1,3.257-.137l3.491,2.009c.836.481.731,1.324-.232,1.882l-4.026,2.33A3.627,3.627,0,0,1,653.789,283.76Z" transform="translate(-550.109 -219.695)" fill="url(#linear-gradient-15)"/>
        <path id="Path_419" data-name="Path 419" d="M659.45,287.02l-3.49-2.009c-.836-.481-.732-1.324.232-1.881l4.026-2.331a3.622,3.622,0,0,1,3.257-.137l3.491,2.011c.834.481.731,1.323-.232,1.881l-4.026,2.33A3.62,3.62,0,0,1,659.45,287.02Z" transform="translate(-547.413 -218.142)" fill="url(#linear-gradient-15)"/>
      </g>
      <g id="Group_559" data-name="Group 559" transform="translate(19.638 9.609)">
        <path id="Path_420" data-name="Path 420" d="M579.837,248.722l-3.491-2.011c-.836-.481-.731-1.323.232-1.881l4.026-2.33a3.618,3.618,0,0,1,3.257-.139l3.491,2.011c.836.481.731,1.324-.232,1.881l-4.026,2.33A3.618,3.618,0,0,1,579.837,248.722Z" transform="translate(-575.782 -242.039)" fill="url(#linear-gradient-15)"/>
        <path id="Path_421" data-name="Path 421" d="M585.441,251.95l-3.49-2.011c-.836-.481-.732-1.323.232-1.881l4.026-2.33a3.617,3.617,0,0,1,3.257-.139l3.49,2.011c.836.481.732,1.324-.232,1.881l-4.026,2.331A3.622,3.622,0,0,1,585.441,251.95Z" transform="translate(-573.112 -240.501)" fill="url(#linear-gradient-15)"/>
        <path id="Path_422" data-name="Path 422" d="M591.1,255.211l-3.491-2.011c-.836-.481-.731-1.323.232-1.881l4.026-2.33a3.626,3.626,0,0,1,3.258-.139l3.49,2.011c.836.481.732,1.324-.232,1.881l-4.026,2.33A3.618,3.618,0,0,1,591.1,255.211Z" transform="translate(-570.416 -238.948)" fill="url(#linear-gradient-15)"/>
        <path id="Path_423" data-name="Path 423" d="M596.707,258.439l-3.49-2.011c-.836-.48-.732-1.323.232-1.881l4.026-2.33a3.617,3.617,0,0,1,3.257-.137l3.491,2.009c.836.481.731,1.324-.232,1.882l-4.026,2.328A3.621,3.621,0,0,1,596.707,258.439Z" transform="translate(-567.747 -237.41)" fill="url(#linear-gradient-15)"/>
        <path id="Path_424" data-name="Path 424" d="M602.312,261.667l-3.49-2.009c-.836-.481-.732-1.324.232-1.881l4.024-2.331a3.63,3.63,0,0,1,3.258-.139l3.49,2.011c.836.481.732,1.324-.232,1.882l-4.026,2.33A3.622,3.622,0,0,1,602.312,261.667Z" transform="translate(-565.077 -235.873)" fill="url(#linear-gradient-15)"/>
        <path id="Path_425" data-name="Path 425" d="M607.974,264.928l-3.491-2.009c-.836-.481-.731-1.324.232-1.881l4.026-2.331A3.622,3.622,0,0,1,612,258.57l3.491,2.011c.836.48.732,1.323-.232,1.879l-4.026,2.331A3.622,3.622,0,0,1,607.974,264.928Z" transform="translate(-562.381 -234.32)" fill="url(#linear-gradient-15)"/>
        <path id="Path_426" data-name="Path 426" d="M613.578,268.157l-3.49-2.011c-.836-.481-.732-1.323.232-1.881l4.026-2.33a3.618,3.618,0,0,1,3.257-.139l3.491,2.011c.835.48.731,1.323-.232,1.881l-4.026,2.33A3.63,3.63,0,0,1,613.578,268.157Z" transform="translate(-559.712 -232.782)" fill="url(#linear-gradient-15)"/>
        <path id="Path_427" data-name="Path 427" d="M619.24,271.418l-3.491-2.011c-.834-.481-.731-1.324.233-1.881l4.026-2.33a3.618,3.618,0,0,1,3.257-.139l3.49,2.011c.836.481.732,1.323-.232,1.881l-4.026,2.33A3.622,3.622,0,0,1,619.24,271.418Z" transform="translate(-557.015 -231.229)" fill="url(#linear-gradient-15)"/>
        <path id="Path_428" data-name="Path 428" d="M624.845,274.646l-3.491-2.011c-.836-.481-.731-1.324.232-1.881l4.026-2.33a3.621,3.621,0,0,1,3.258-.139l3.49,2.011c.835.481.732,1.323-.232,1.881l-4.026,2.33A3.618,3.618,0,0,1,624.845,274.646Z" transform="translate(-554.346 -229.692)" fill="url(#linear-gradient-15)"/>
        <path id="Path_429" data-name="Path 429" d="M630.449,277.874l-3.49-2.011c-.836-.481-.732-1.323.232-1.881l4.026-2.33a3.618,3.618,0,0,1,3.257-.139l3.491,2.011c.836.481.731,1.323-.232,1.881l-4.026,2.33A3.621,3.621,0,0,1,630.449,277.874Z" transform="translate(-551.677 -228.154)" fill="url(#linear-gradient-15)"/>
        <path id="Path_430" data-name="Path 430" d="M636.111,281.135l-3.49-2.011c-.836-.481-.732-1.323.232-1.881l4.026-2.329a3.618,3.618,0,0,1,3.257-.139l3.49,2.011c.836.481.732,1.323-.232,1.881L639.368,281A3.618,3.618,0,0,1,636.111,281.135Z" transform="translate(-548.98 -226.601)" fill="url(#linear-gradient-15)"/>
        <path id="Path_431" data-name="Path 431" d="M641.716,284.363l-3.491-2.011c-.836-.481-.731-1.323.232-1.881l4.026-2.33a3.621,3.621,0,0,1,3.258-.139l3.49,2.011c.836.481.731,1.323-.232,1.881l-4.026,2.33A3.618,3.618,0,0,1,641.716,284.363Z" transform="translate(-546.311 -225.064)" fill="url(#linear-gradient-15)"/>
        <path id="Path_432" data-name="Path 432" d="M655.679,292.405l-11.849-6.825c-.836-.481-.732-1.323.232-1.881l4.026-2.33a3.617,3.617,0,0,1,3.257-.139l11.849,6.825c.836.481.732,1.323-.232,1.881l-4.026,2.33A3.618,3.618,0,0,1,655.679,292.405Z" transform="translate(-543.641 -223.526)" fill="url(#linear-gradient-15)"/>
      </g>
      <g id="Group_560" data-name="Group 560" transform="translate(9.662 15.253)">
        <path id="Path_433" data-name="Path 433" d="M581.268,257.262l-11.679-6.727c-.836-.481-.732-1.323.23-1.881l4.027-2.33a3.618,3.618,0,0,1,3.257-.139l11.68,6.727c.836.481.731,1.323-.232,1.881l-4.026,2.33A3.621,3.621,0,0,1,581.268,257.262Z" transform="translate(-569.024 -245.862)" fill="url(#linear-gradient-15)"/>
        <path id="Path_434" data-name="Path 434" d="M584.345,259.034l-3.49-2.011c-.836-.481-.732-1.323.232-1.881l4.026-2.33a3.618,3.618,0,0,1,3.257-.139l3.491,2.011c.836.481.731,1.323-.232,1.881L587.6,258.9A3.621,3.621,0,0,1,584.345,259.034Z" transform="translate(-563.659 -242.771)" fill="url(#linear-gradient-15)"/>
        <path id="Path_435" data-name="Path 435" d="M589.95,262.262l-3.49-2.011c-.836-.481-.732-1.323.232-1.881l4.026-2.33a3.618,3.618,0,0,1,3.257-.139l3.49,2.011c.836.481.732,1.323-.232,1.881l-4.026,2.33A3.617,3.617,0,0,1,589.95,262.262Z" transform="translate(-560.989 -241.234)" fill="url(#linear-gradient-15)"/>
        <path id="Path_436" data-name="Path 436" d="M595.555,265.49l-3.491-2.011c-.836-.481-.731-1.323.232-1.881l4.026-2.33a3.621,3.621,0,0,1,3.258-.139l3.49,2.011c.836.481.732,1.323-.232,1.881l-4.026,2.33A3.618,3.618,0,0,1,595.555,265.49Z" transform="translate(-558.32 -239.696)" fill="url(#linear-gradient-15)"/>
        <path id="Path_437" data-name="Path 437" d="M601.216,268.751l-3.49-2.011c-.835-.481-.732-1.323.232-1.881l4.026-2.33a3.618,3.618,0,0,1,3.257-.139l3.49,2.011c.836.481.732,1.323-.23,1.881l-4.027,2.33A3.617,3.617,0,0,1,601.216,268.751Z" transform="translate(-555.624 -238.143)" fill="url(#linear-gradient-15)"/>
        <path id="Path_438" data-name="Path 438" d="M606.821,271.979l-3.491-2.011c-.834-.481-.731-1.323.232-1.881l4.026-2.33a3.621,3.621,0,0,1,3.258-.139l3.49,2.011c.836.481.732,1.323-.232,1.881l-4.026,2.33A3.618,3.618,0,0,1,606.821,271.979Z" transform="translate(-552.954 -236.606)" fill="url(#linear-gradient-15)"/>
        <path id="Path_439" data-name="Path 439" d="M612.484,275.24l-3.491-2.011c-.836-.481-.732-1.323.232-1.881l4.026-2.33a3.627,3.627,0,0,1,3.257-.139L620,270.891c.836.481.731,1.323-.232,1.881l-4.026,2.33A3.618,3.618,0,0,1,612.484,275.24Z" transform="translate(-550.258 -235.052)" fill="url(#linear-gradient-15)"/>
        <path id="Path_440" data-name="Path 440" d="M618.087,278.468l-3.49-2.011c-.836-.481-.732-1.323.232-1.881l4.026-2.33a3.622,3.622,0,0,1,3.257-.139l3.49,2.011c.836.481.732,1.324-.232,1.881l-4.026,2.329A3.618,3.618,0,0,1,618.087,278.468Z" transform="translate(-547.588 -233.515)" fill="url(#linear-gradient-15)"/>
        <path id="Path_441" data-name="Path 441" d="M623.692,281.7l-3.491-2.011c-.836-.48-.731-1.323.233-1.879l4.024-2.331a3.625,3.625,0,0,1,3.258-.137l3.49,2.009c.836.481.732,1.324-.232,1.881l-4.026,2.331A3.622,3.622,0,0,1,623.692,281.7Z" transform="translate(-544.919 -231.977)" fill="url(#linear-gradient-15)"/>
        <path id="Path_442" data-name="Path 442" d="M629.353,284.957l-3.49-2.011c-.836-.48-.731-1.323.232-1.881l4.026-2.33a3.625,3.625,0,0,1,3.258-.139l3.49,2.011c.836.481.731,1.324-.232,1.881l-4.026,2.331A3.625,3.625,0,0,1,629.353,284.957Z" transform="translate(-542.223 -230.425)" fill="url(#linear-gradient-15)"/>
        <path id="Path_443" data-name="Path 443" d="M643.233,292.952l-11.764-6.776c-.836-.481-.732-1.324.232-1.881l4.026-2.331a3.622,3.622,0,0,1,3.257-.137l11.764,6.776c.836.481.732,1.323-.232,1.881l-4.026,2.33A3.627,3.627,0,0,1,643.233,292.952Z" transform="translate(-539.553 -228.887)" fill="url(#linear-gradient-15)"/>
        <path id="Path_444" data-name="Path 444" d="M639.68,300.266l-3.491-2.011c-.834-.481-.731-1.323.232-1.881l13.688-7.92a3.618,3.618,0,0,1,3.257-.139l3.491,2.011c.836.481.731,1.323-.232,1.881l-13.688,7.92A3.618,3.618,0,0,1,639.68,300.266Z" transform="translate(-537.305 -225.796)" fill="url(#linear-gradient-15)"/>
      </g>
      <g id="Group_561" data-name="Group 561" transform="translate(0 20.844)">
        <path id="Path_445" data-name="Path 445" d="M566.534,256.332l-3.49-2.011c-.836-.481-.732-1.323.232-1.881l4.026-2.33a3.623,3.623,0,0,1,3.257-.139l3.491,2.011c.836.481.731,1.324-.232,1.881l-4.026,2.33A3.621,3.621,0,0,1,566.534,256.332Z" transform="translate(-562.479 -249.649)" fill="url(#linear-gradient-15)"/>
        <path id="Path_446" data-name="Path 446" d="M572.139,259.56l-3.491-2.009c-.834-.481-.731-1.324.233-1.881l4.024-2.331a3.625,3.625,0,0,1,3.258-.137l3.49,2.009c.836.481.732,1.324-.232,1.881l-4.026,2.331A3.622,3.622,0,0,1,572.139,259.56Z" transform="translate(-559.81 -248.111)" fill="url(#linear-gradient-15)"/>
        <path id="Path_447" data-name="Path 447" d="M577.8,262.821l-3.491-2.009c-.836-.481-.731-1.324.232-1.882l4.026-2.33a3.625,3.625,0,0,1,3.258-.137l3.49,2.009c.836.481.731,1.324-.232,1.881l-4.026,2.331A3.622,3.622,0,0,1,577.8,262.821Z" transform="translate(-557.114 -246.558)" fill="url(#linear-gradient-15)"/>
        <path id="Path_448" data-name="Path 448" d="M583.405,266.05l-3.49-2.012c-.836-.48-.732-1.323.232-1.881l4.026-2.328a3.618,3.618,0,0,1,3.257-.139l3.491,2.011c.834.48.731,1.323-.232,1.881l-4.027,2.33A3.627,3.627,0,0,1,583.405,266.05Z" transform="translate(-554.444 -245.021)" fill="url(#linear-gradient-15)"/>
        <path id="Path_449" data-name="Path 449" d="M614,283.672l-28.482-16.4c-.834-.481-.731-1.324.233-1.881l4.026-2.331a3.622,3.622,0,0,1,3.257-.137l28.48,16.4c.836.481.732,1.323-.232,1.881l-4.026,2.33A3.618,3.618,0,0,1,614,283.672Z" transform="translate(-551.775 -243.483)" fill="url(#linear-gradient-15)"/>
        <path id="Path_450" data-name="Path 450" d="M611.542,282.256l-3.49-2.011c-.836-.481-.731-1.323.232-1.881l4.026-2.33a3.618,3.618,0,0,1,3.257-.139l3.491,2.011c.835.481.731,1.323-.232,1.881l-4.026,2.33A3.621,3.621,0,0,1,611.542,282.256Z" transform="translate(-541.043 -237.302)" fill="url(#linear-gradient-15)"/>
        <path id="Path_451" data-name="Path 451" d="M617.147,285.484l-3.49-2.011c-.836-.481-.732-1.323.232-1.881l4.026-2.329a3.618,3.618,0,0,1,3.257-.139l3.49,2.011c.836.481.732,1.324-.232,1.881l-4.026,2.33A3.618,3.618,0,0,1,617.147,285.484Z" transform="translate(-538.374 -235.765)" fill="url(#linear-gradient-15)"/>
        <path id="Path_452" data-name="Path 452" d="M622.809,288.745l-3.491-2.011c-.834-.481-.731-1.323.232-1.881l4.026-2.33a3.621,3.621,0,0,1,3.258-.139l3.49,2.011c.836.481.732,1.324-.232,1.881l-4.026,2.33A3.618,3.618,0,0,1,622.809,288.745Z" transform="translate(-535.678 -234.212)" fill="url(#linear-gradient-15)"/>
        <path id="Path_453" data-name="Path 453" d="M628.413,291.973l-3.49-2.011c-.836-.481-.731-1.323.232-1.881l4.026-2.33a3.618,3.618,0,0,1,3.257-.139l3.491,2.011c.836.481.731,1.324-.232,1.881l-4.026,2.33A3.621,3.621,0,0,1,628.413,291.973Z" transform="translate(-533.008 -232.674)" fill="url(#linear-gradient-15)"/>
        <path id="Path_454" data-name="Path 454" d="M634.018,295.2l-3.49-2.011c-.835-.48-.732-1.323.232-1.881l4.026-2.33a3.622,3.622,0,0,1,3.257-.139l3.49,2.011c.836.481.732,1.324-.232,1.881l-4.026,2.33A3.617,3.617,0,0,1,634.018,295.2Z" transform="translate(-530.339 -231.137)" fill="url(#linear-gradient-15)"/>
      </g>
    </g>
    <g id="Group_567" data-name="Group 567" transform="translate(50.478 130.817)">
      <path id="Path_455" data-name="Path 455" d="M592.591,239.672l-3.322-1.913c-.836-.48-.732-1.323.232-1.881l1.348-.779a3.618,3.618,0,0,1,3.257-.139l3.323,1.913c.834.481.731,1.324-.233,1.882l-1.346.779A3.625,3.625,0,0,1,592.591,239.672Z" transform="translate(-549.842 -234.636)" fill="#fafcff"/>
      <path id="Path_456" data-name="Path 456" d="M598.2,242.9l-3.322-1.915c-.836-.48-.732-1.323.232-1.879l1.346-.781a3.63,3.63,0,0,1,3.258-.139l3.322,1.913c.836.481.732,1.324-.232,1.881l-1.348.781A3.622,3.622,0,0,1,598.2,242.9Z" transform="translate(-547.173 -233.098)" fill="#fafcff"/>
      <path id="Path_457" data-name="Path 457" d="M603.8,246.129l-3.322-1.913c-.836-.481-.731-1.324.232-1.881l1.348-.781a3.627,3.627,0,0,1,3.257-.139l3.323,1.915c.834.481.731,1.323-.232,1.881l-1.348.779A3.621,3.621,0,0,1,603.8,246.129Z" transform="translate(-544.504 -231.56)" fill="#fafcff"/>
      <path id="Path_458" data-name="Path 458" d="M609.4,249.357l-3.322-1.913c-.836-.481-.732-1.324.232-1.881l1.348-.781a3.622,3.622,0,0,1,3.257-.137l3.322,1.913c.836.481.732,1.323-.232,1.881l-1.348.779A3.618,3.618,0,0,1,609.4,249.357Z" transform="translate(-541.834 -230.023)" fill="#fafcff"/>
      <path id="Path_459" data-name="Path 459" d="M615.01,252.585l-3.323-1.913c-.834-.481-.731-1.323.233-1.881l1.346-.779a3.621,3.621,0,0,1,3.258-.139l3.322,1.913c.836.481.731,1.323-.232,1.881l-1.348.779A3.618,3.618,0,0,1,615.01,252.585Z" transform="translate(-539.165 -228.486)" fill="#fafcff"/>
      <path id="Path_460" data-name="Path 460" d="M620.614,255.813l-3.322-1.913c-.835-.481-.731-1.323.232-1.881l1.348-.779a3.618,3.618,0,0,1,3.257-.139l3.322,1.913c.836.481.732,1.323-.232,1.881l-1.346.779A3.621,3.621,0,0,1,620.614,255.813Z" transform="translate(-536.496 -226.948)" fill="#fafcff"/>
      <path id="Path_461" data-name="Path 461" d="M626.219,259.041l-3.322-1.913c-.836-.481-.732-1.323.232-1.881l1.348-.779a3.618,3.618,0,0,1,3.257-.139l3.322,1.913c.836.481.732,1.323-.232,1.881l-1.348.781A3.622,3.622,0,0,1,626.219,259.041Z" transform="translate(-533.826 -225.411)" fill="#fafcff"/>
      <path id="Path_462" data-name="Path 462" d="M631.823,262.269l-3.322-1.913c-.836-.481-.731-1.323.232-1.881l1.348-.78a3.618,3.618,0,0,1,3.257-.139l3.323,1.913c.836.481.731,1.324-.232,1.881l-1.348.781A3.625,3.625,0,0,1,631.823,262.269Z" transform="translate(-531.157 -223.873)" fill="#fafcff"/>
      <path id="Path_463" data-name="Path 463" d="M637.428,265.5l-3.322-1.913c-.836-.48-.732-1.323.232-1.881l1.348-.779a3.618,3.618,0,0,1,3.257-.139l3.322,1.913c.836.481.732,1.324-.232,1.881l-1.348.781A3.622,3.622,0,0,1,637.428,265.5Z" transform="translate(-528.488 -222.336)" fill="#fafcff"/>
      <path id="Path_464" data-name="Path 464" d="M643.033,268.726l-3.322-1.913c-.836-.483-.732-1.324.23-1.881l1.348-.781a3.621,3.621,0,0,1,3.258-.139l3.322,1.913c.835.483.731,1.324-.232,1.881l-1.348.781A3.622,3.622,0,0,1,643.033,268.726Z" transform="translate(-525.818 -220.799)" fill="#fafcff"/>
      <path id="Path_465" data-name="Path 465" d="M648.809,272.052l-3.322-1.913c-.836-.481-.732-1.323.232-1.881l1.346-.779a3.621,3.621,0,0,1,3.258-.139l3.322,1.913c.836.481.732,1.324-.232,1.881l-1.348.781A3.622,3.622,0,0,1,648.809,272.052Z" transform="translate(-523.067 -219.214)" fill="#fafcff"/>
      <path id="Path_466" data-name="Path 466" d="M654.413,275.281l-3.322-1.915c-.836-.481-.732-1.323.232-1.881l1.348-.779a3.618,3.618,0,0,1,3.257-.139l3.323,1.915c.836.48.731,1.323-.233,1.879l-1.348.781A3.622,3.622,0,0,1,654.413,275.281Z" transform="translate(-520.398 -217.677)" fill="#fafcff"/>
      <path id="Path_467" data-name="Path 467" d="M660.018,278.509l-3.322-1.915c-.836-.48-.732-1.323.232-1.881l1.348-.779a3.618,3.618,0,0,1,3.257-.139l3.322,1.913c.836.481.732,1.324-.232,1.882l-1.348.779A3.618,3.618,0,0,1,660.018,278.509Z" transform="translate(-517.729 -216.139)" fill="#fafcff"/>
      <path id="Path_468" data-name="Path 468" d="M665.622,281.737l-3.322-1.913c-.836-.481-.731-1.324.232-1.881l1.348-.781a3.625,3.625,0,0,1,3.258-.137l3.322,1.913c.836.481.731,1.323-.232,1.881l-1.348.78A3.621,3.621,0,0,1,665.622,281.737Z" transform="translate(-515.06 -214.601)" fill="#fafcff"/>
      <g id="Group_563" data-name="Group 563" transform="translate(29.187 3.953)">
        <path id="Path_469" data-name="Path 469" d="M586.205,244l-3.49-2.011c-.836-.481-.732-1.323.232-1.881l4.026-2.331a3.622,3.622,0,0,1,3.257-.137l3.49,2.011c.836.48.732,1.323-.232,1.879l-4.026,2.331A3.618,3.618,0,0,1,586.205,244Z" transform="translate(-582.15 -237.313)" fill="#fafcff"/>
        <path id="Path_470" data-name="Path 470" d="M591.81,247.225l-3.491-2.011c-.836-.481-.731-1.323.232-1.881l4.026-2.33a3.618,3.618,0,0,1,3.257-.139l3.491,2.011c.836.481.731,1.323-.232,1.881l-4.026,2.33A3.623,3.623,0,0,1,591.81,247.225Z" transform="translate(-579.481 -235.776)" fill="#fafcff"/>
        <path id="Path_471" data-name="Path 471" d="M597.471,250.486l-3.49-2.011c-.836-.481-.732-1.323.232-1.881l4.026-2.33a3.618,3.618,0,0,1,3.257-.139l3.491,2.011c.834.481.731,1.323-.233,1.881l-4.026,2.33A3.617,3.617,0,0,1,597.471,250.486Z" transform="translate(-576.785 -234.223)" fill="#fafcff"/>
        <path id="Path_472" data-name="Path 472" d="M603.076,253.714l-3.491-2.011c-.834-.481-.731-1.323.233-1.881l4.024-2.33a3.621,3.621,0,0,1,3.258-.139l3.49,2.011c.836.481.732,1.323-.232,1.881l-4.026,2.33A3.618,3.618,0,0,1,603.076,253.714Z" transform="translate(-574.115 -232.686)" fill="#fafcff"/>
        <path id="Path_473" data-name="Path 473" d="M608.68,256.942l-3.49-2.011c-.835-.481-.732-1.323.232-1.881l4.026-2.33a3.618,3.618,0,0,1,3.257-.139l3.491,2.011c.836.481.731,1.323-.232,1.881l-4.026,2.33A3.62,3.62,0,0,1,608.68,256.942Z" transform="translate(-571.446 -231.148)" fill="#fafcff"/>
        <path id="Path_474" data-name="Path 474" d="M614.342,260.2l-3.49-2.011c-.836-.481-.732-1.323.232-1.881l4.026-2.33a3.618,3.618,0,0,1,3.257-.139l3.491,2.011c.834.481.731,1.323-.233,1.881l-4.024,2.33A3.621,3.621,0,0,1,614.342,260.2Z" transform="translate(-568.75 -229.595)" fill="#fafcff"/>
        <path id="Path_475" data-name="Path 475" d="M619.947,263.431l-3.491-2.011c-.834-.481-.731-1.323.232-1.881l4.026-2.33a3.621,3.621,0,0,1,3.258-.139l3.49,2.011c.836.481.732,1.323-.232,1.881l-4.026,2.33A3.618,3.618,0,0,1,619.947,263.431Z" transform="translate(-566.08 -228.058)" fill="#fafcff"/>
        <path id="Path_476" data-name="Path 476" d="M625.608,266.692l-3.49-2.011c-.836-.481-.731-1.323.232-1.881l4.026-2.33a3.618,3.618,0,0,1,3.257-.139l3.491,2.011c.835.481.731,1.324-.232,1.881l-4.026,2.33A3.621,3.621,0,0,1,625.608,266.692Z" transform="translate(-563.384 -226.504)" fill="#fafcff"/>
        <path id="Path_477" data-name="Path 477" d="M631.213,269.92l-3.49-2.011c-.836-.481-.732-1.323.232-1.881l4.026-2.33a3.613,3.613,0,0,1,3.257-.137l3.49,2.009c.836.481.732,1.324-.23,1.881l-4.027,2.331A3.622,3.622,0,0,1,631.213,269.92Z" transform="translate(-560.715 -224.967)" fill="#fafcff"/>
        <path id="Path_478" data-name="Path 478" d="M636.818,273.148l-3.49-2.011c-.837-.48-.732-1.323.23-1.881l4.026-2.329a3.63,3.63,0,0,1,3.258-.139l3.49,2.011c.836.481.732,1.324-.232,1.881l-4.026,2.331A3.622,3.622,0,0,1,636.818,273.148Z" transform="translate(-558.045 -223.429)" fill="#fafcff"/>
        <path id="Path_479" data-name="Path 479" d="M642.481,276.409l-3.491-2.011c-.836-.48-.732-1.323.232-1.879l4.026-2.331a3.627,3.627,0,0,1,3.257-.139l3.491,2.011c.835.481.731,1.324-.232,1.881l-4.026,2.331A3.622,3.622,0,0,1,642.481,276.409Z" transform="translate(-555.349 -221.876)" fill="#fafcff"/>
        <path id="Path_480" data-name="Path 480" d="M648.084,279.637l-3.49-2.009c-.836-.481-.732-1.324.232-1.881l4.026-2.331a3.622,3.622,0,0,1,3.257-.137l3.491,2.009c.834.481.731,1.324-.232,1.882l-4.027,2.33A3.622,3.622,0,0,1,648.084,279.637Z" transform="translate(-552.679 -220.339)" fill="#fafcff"/>
        <path id="Path_481" data-name="Path 481" d="M653.689,282.866l-3.491-2.011c-.836-.481-.731-1.324.233-1.881l4.024-2.33a3.621,3.621,0,0,1,3.258-.139l3.49,2.011c.836.481.732,1.323-.232,1.881l-4.026,2.33A3.622,3.622,0,0,1,653.689,282.866Z" transform="translate(-550.01 -218.801)" fill="#fafcff"/>
        <path id="Path_482" data-name="Path 482" d="M659.35,286.126l-3.49-2.009c-.835-.481-.731-1.324.232-1.881l4.026-2.331a3.622,3.622,0,0,1,3.257-.137l3.491,2.011c.836.481.731,1.323-.232,1.881l-4.026,2.33A3.621,3.621,0,0,1,659.35,286.126Z" transform="translate(-547.314 -217.248)" fill="#fafcff"/>
      </g>
      <g id="Group_564" data-name="Group 564" transform="translate(19.637 9.609)">
        <path id="Path_483" data-name="Path 483" d="M579.737,247.828l-3.491-2.011c-.836-.481-.731-1.323.232-1.881l4.026-2.33a3.618,3.618,0,0,1,3.257-.139l3.491,2.011c.836.481.731,1.324-.232,1.881l-4.026,2.33A3.618,3.618,0,0,1,579.737,247.828Z" transform="translate(-575.682 -241.145)" fill="#fafcff"/>
        <path id="Path_484" data-name="Path 484" d="M585.341,251.056l-3.49-2.011c-.836-.481-.732-1.323.232-1.881l4.026-2.33a3.622,3.622,0,0,1,3.257-.139l3.491,2.011c.834.481.731,1.324-.232,1.881l-4.026,2.331A3.625,3.625,0,0,1,585.341,251.056Z" transform="translate(-573.012 -239.607)" fill="#fafcff"/>
        <path id="Path_485" data-name="Path 485" d="M591,254.317l-3.491-2.011c-.834-.48-.731-1.323.233-1.881l4.024-2.33a3.62,3.62,0,0,1,3.258-.137l3.49,2.009c.836.481.732,1.324-.232,1.881l-4.026,2.33A3.618,3.618,0,0,1,591,254.317Z" transform="translate(-570.316 -238.054)" fill="#fafcff"/>
        <path id="Path_486" data-name="Path 486" d="M596.608,257.545l-3.491-2.011c-.836-.48-.731-1.323.232-1.881l4.026-2.33a3.622,3.622,0,0,1,3.257-.137l3.491,2.009c.836.481.731,1.324-.232,1.882l-4.026,2.33A3.618,3.618,0,0,1,596.608,257.545Z" transform="translate(-567.647 -236.516)" fill="#fafcff"/>
        <path id="Path_487" data-name="Path 487" d="M602.212,260.774l-3.49-2.011c-.835-.481-.732-1.324.232-1.881l4.026-2.331a3.622,3.622,0,0,1,3.257-.137l3.49,2.011c.836.481.732,1.323-.232,1.881l-4.026,2.33A3.627,3.627,0,0,1,602.212,260.774Z" transform="translate(-564.977 -234.979)" fill="#fafcff"/>
        <path id="Path_488" data-name="Path 488" d="M607.874,264.035l-3.491-2.011c-.834-.481-.731-1.324.232-1.881l4.027-2.331a3.622,3.622,0,0,1,3.257-.137l3.49,2.011c.836.48.732,1.323-.232,1.881l-4.026,2.33A3.622,3.622,0,0,1,607.874,264.035Z" transform="translate(-562.281 -233.426)" fill="#fafcff"/>
        <path id="Path_489" data-name="Path 489" d="M613.479,267.263l-3.491-2.011c-.836-.481-.731-1.323.232-1.881l4.026-2.33a3.618,3.618,0,0,1,3.257-.139l3.491,2.011c.836.481.731,1.323-.232,1.881l-4.026,2.33A3.622,3.622,0,0,1,613.479,267.263Z" transform="translate(-559.612 -231.888)" fill="#fafcff"/>
        <path id="Path_490" data-name="Path 490" d="M619.14,270.524l-3.49-2.011c-.836-.481-.732-1.323.232-1.881l4.026-2.33a3.618,3.618,0,0,1,3.257-.139l3.49,2.011c.836.481.732,1.323-.232,1.881l-4.026,2.329A3.618,3.618,0,0,1,619.14,270.524Z" transform="translate(-556.915 -230.335)" fill="#fafcff"/>
        <path id="Path_491" data-name="Path 491" d="M624.745,273.752l-3.491-2.011c-.836-.481-.731-1.323.232-1.881l4.026-2.33a3.621,3.621,0,0,1,3.258-.139l3.49,2.011c.836.481.732,1.323-.232,1.881L628,273.614A3.618,3.618,0,0,1,624.745,273.752Z" transform="translate(-554.246 -228.798)" fill="#fafcff"/>
        <path id="Path_492" data-name="Path 492" d="M630.349,276.98l-3.49-2.011c-.836-.481-.731-1.323.232-1.881l4.026-2.33a3.618,3.618,0,0,1,3.257-.139l3.491,2.011c.836.481.731,1.323-.232,1.881l-4.026,2.33A3.621,3.621,0,0,1,630.349,276.98Z" transform="translate(-551.576 -227.26)" fill="#fafcff"/>
        <path id="Path_493" data-name="Path 493" d="M636.011,280.241l-3.49-2.011c-.836-.481-.732-1.323.232-1.881l4.026-2.33a3.618,3.618,0,0,1,3.257-.139l3.491,2.011c.834.481.731,1.323-.233,1.881l-4.024,2.33A3.621,3.621,0,0,1,636.011,280.241Z" transform="translate(-548.88 -225.707)" fill="#fafcff"/>
        <path id="Path_494" data-name="Path 494" d="M641.616,283.469l-3.491-2.011c-.836-.481-.731-1.323.233-1.881l4.024-2.33a3.621,3.621,0,0,1,3.258-.139l3.49,2.011c.836.481.732,1.323-.232,1.881l-4.026,2.33A3.618,3.618,0,0,1,641.616,283.469Z" transform="translate(-546.211 -224.17)" fill="#fafcff"/>
        <path id="Path_495" data-name="Path 495" d="M655.579,291.511l-11.849-6.825c-.835-.481-.731-1.323.232-1.881l4.026-2.33a3.622,3.622,0,0,1,3.257-.139l11.85,6.825c.834.481.731,1.324-.233,1.881l-4.024,2.33A3.621,3.621,0,0,1,655.579,291.511Z" transform="translate(-543.541 -222.632)" fill="#fafcff"/>
      </g>
      <g id="Group_565" data-name="Group 565" transform="translate(9.662 15.253)">
        <path id="Path_496" data-name="Path 496" d="M581.169,256.368l-11.68-6.727c-.836-.481-.732-1.324.232-1.881l4.026-2.33a3.618,3.618,0,0,1,3.257-.139l11.68,6.727c.835.481.732,1.323-.232,1.881l-4.026,2.33A3.618,3.618,0,0,1,581.169,256.368Z" transform="translate(-568.924 -244.968)" fill="#fafcff"/>
        <path id="Path_497" data-name="Path 497" d="M584.247,258.14l-3.491-2.011c-.836-.481-.732-1.323.232-1.881l4.026-2.33a3.618,3.618,0,0,1,3.257-.139l3.491,2.011c.836.481.731,1.323-.232,1.881L587.5,258A3.618,3.618,0,0,1,584.247,258.14Z" transform="translate(-563.559 -241.877)" fill="#fafcff"/>
        <path id="Path_498" data-name="Path 498" d="M589.85,261.368l-3.49-2.011c-.836-.481-.732-1.323.232-1.881l4.026-2.33a3.617,3.617,0,0,1,3.257-.139l3.49,2.011c.836.481.732,1.323-.232,1.881l-4.026,2.33A3.618,3.618,0,0,1,589.85,261.368Z" transform="translate(-560.889 -240.34)" fill="#fafcff"/>
        <path id="Path_499" data-name="Path 499" d="M595.455,264.6l-3.491-2.011c-.835-.481-.731-1.323.232-1.881l4.026-2.33a3.621,3.621,0,0,1,3.258-.139l3.49,2.011c.836.481.732,1.323-.232,1.881l-4.026,2.33A3.618,3.618,0,0,1,595.455,264.6Z" transform="translate(-558.22 -238.802)" fill="#fafcff"/>
        <path id="Path_500" data-name="Path 500" d="M601.116,267.857l-3.49-2.011c-.836-.481-.732-1.323.232-1.881l4.026-2.33a3.618,3.618,0,0,1,3.257-.139l3.491,2.011c.836.481.731,1.323-.232,1.881l-4.026,2.33A3.621,3.621,0,0,1,601.116,267.857Z" transform="translate(-555.524 -237.249)" fill="#fafcff"/>
        <path id="Path_501" data-name="Path 501" d="M606.721,271.085l-3.491-2.011c-.834-.481-.731-1.323.233-1.881l4.026-2.33a3.622,3.622,0,0,1,3.257-.139l3.49,2.011c.836.481.732,1.324-.232,1.881l-4.026,2.33A3.617,3.617,0,0,1,606.721,271.085Z" transform="translate(-552.854 -235.712)" fill="#fafcff"/>
        <path id="Path_502" data-name="Path 502" d="M612.383,274.346l-3.491-2.011c-.836-.481-.731-1.323.232-1.881l4.026-2.329a3.626,3.626,0,0,1,3.258-.139L619.9,270c.836.481.732,1.324-.232,1.881l-4.026,2.33A3.618,3.618,0,0,1,612.383,274.346Z" transform="translate(-550.158 -234.158)" fill="#fafcff"/>
        <path id="Path_503" data-name="Path 503" d="M617.987,277.574l-3.49-2.011c-.836-.48-.732-1.323.232-1.881l4.026-2.33a3.622,3.622,0,0,1,3.257-.137l3.491,2.009c.836.481.731,1.324-.232,1.881l-4.026,2.331A3.625,3.625,0,0,1,617.987,277.574Z" transform="translate(-547.489 -232.621)" fill="#fafcff"/>
        <path id="Path_504" data-name="Path 504" d="M623.592,280.8l-3.49-2.011c-.835-.481-.732-1.324.232-1.881l4.026-2.331a3.622,3.622,0,0,1,3.257-.137l3.49,2.011c.836.48.732,1.323-.232,1.881l-4.026,2.33A3.622,3.622,0,0,1,623.592,280.8Z" transform="translate(-544.819 -231.083)" fill="#fafcff"/>
        <path id="Path_505" data-name="Path 505" d="M629.254,284.064l-3.491-2.011c-.836-.481-.731-1.324.232-1.881l4.026-2.331a3.625,3.625,0,0,1,3.258-.137l3.49,2.011c.836.48.732,1.323-.232,1.881l-4.026,2.33A3.622,3.622,0,0,1,629.254,284.064Z" transform="translate(-542.123 -229.53)" fill="#fafcff"/>
        <path id="Path_506" data-name="Path 506" d="M643.28,292.2l-11.912-6.919c-.836-.481-.732-1.324.232-1.881l4.026-2.33a3.618,3.618,0,0,1,3.257-.139l11.912,6.919c.836.481.732,1.323-.232,1.881l-4.026,2.33A3.618,3.618,0,0,1,643.28,292.2Z" transform="translate(-539.453 -227.993)" fill="#fafcff"/>
        <path id="Path_507" data-name="Path 507" d="M639.58,299.372l-3.491-2.011c-.834-.48-.731-1.323.233-1.881l13.686-7.92a3.621,3.621,0,0,1,3.258-.139l3.49,2.011c.836.481.732,1.323-.232,1.881l-13.688,7.922A3.622,3.622,0,0,1,639.58,299.372Z" transform="translate(-537.205 -224.902)" fill="#fafcff"/>
      </g>
      <g id="Group_566" data-name="Group 566" transform="translate(0 20.845)">
        <path id="Path_508" data-name="Path 508" d="M566.434,255.438l-3.49-2.009c-.836-.481-.731-1.324.232-1.881l4.026-2.331a3.622,3.622,0,0,1,3.257-.137l3.491,2.009c.836.481.731,1.324-.232,1.881l-4.026,2.331A3.625,3.625,0,0,1,566.434,255.438Z" transform="translate(-562.38 -248.755)" fill="#fafcff"/>
        <path id="Path_509" data-name="Path 509" d="M572.039,258.666l-3.49-2.009c-.836-.481-.732-1.324.232-1.882l4.026-2.33a3.622,3.622,0,0,1,3.257-.137l3.49,2.011c.836.48.732,1.323-.232,1.881l-4.026,2.33A3.622,3.622,0,0,1,572.039,258.666Z" transform="translate(-559.71 -247.218)" fill="#fafcff"/>
        <path id="Path_510" data-name="Path 510" d="M577.7,261.928l-3.491-2.011c-.834-.481-.731-1.324.233-1.881l4.026-2.331a3.622,3.622,0,0,1,3.257-.137l3.49,2.011c.836.48.732,1.323-.232,1.881l-4.026,2.328A3.623,3.623,0,0,1,577.7,261.928Z" transform="translate(-557.014 -245.665)" fill="#fafcff"/>
        <path id="Path_511" data-name="Path 511" d="M583.307,265.156l-3.491-2.011c-.836-.481-.732-1.324.232-1.881l4.026-2.331a3.622,3.622,0,0,1,3.257-.137l3.491,2.011c.836.48.731,1.323-.232,1.881l-4.026,2.33A3.618,3.618,0,0,1,583.307,265.156Z" transform="translate(-554.345 -244.128)" fill="#fafcff"/>
        <path id="Path_512" data-name="Path 512" d="M613.9,282.778l-28.48-16.4c-.835-.481-.732-1.323.232-1.881l4.026-2.33a3.617,3.617,0,0,1,3.257-.139l28.48,16.4c.836.481.732,1.323-.232,1.881l-4.026,2.33A3.618,3.618,0,0,1,613.9,282.778Z" transform="translate(-551.675 -242.59)" fill="#fafcff"/>
        <path id="Path_513" data-name="Path 513" d="M611.443,281.362l-3.491-2.011c-.836-.481-.731-1.323.232-1.881l4.026-2.33a3.621,3.621,0,0,1,3.258-.139l3.49,2.011c.836.481.732,1.323-.232,1.881l-4.026,2.33A3.618,3.618,0,0,1,611.443,281.362Z" transform="translate(-540.944 -236.409)" fill="#fafcff"/>
        <path id="Path_514" data-name="Path 514" d="M617.047,284.59l-3.49-2.011c-.836-.481-.732-1.323.232-1.881l4.026-2.33a3.618,3.618,0,0,1,3.257-.139l3.491,2.011c.834.481.731,1.323-.232,1.881l-4.026,2.33A3.621,3.621,0,0,1,617.047,284.59Z" transform="translate(-538.275 -234.872)" fill="#fafcff"/>
        <path id="Path_515" data-name="Path 515" d="M622.709,287.851l-3.49-2.011c-.836-.481-.732-1.323.232-1.881l4.026-2.33a3.618,3.618,0,0,1,3.257-.139l3.49,2.011c.835.481.732,1.323-.232,1.881l-4.026,2.33A3.618,3.618,0,0,1,622.709,287.851Z" transform="translate(-535.578 -233.319)" fill="#fafcff"/>
        <path id="Path_516" data-name="Path 516" d="M628.314,291.079l-3.491-2.011c-.836-.481-.731-1.323.232-1.881l4.026-2.33a3.625,3.625,0,0,1,3.258-.139l3.49,2.011c.835.481.731,1.324-.232,1.881l-4.026,2.33A3.618,3.618,0,0,1,628.314,291.079Z" transform="translate(-532.909 -231.781)" fill="#fafcff"/>
        <path id="Path_517" data-name="Path 517" d="M633.918,294.307l-3.49-2.011c-.836-.48-.732-1.323.232-1.881l4.026-2.33a3.622,3.622,0,0,1,3.257-.137l3.49,2.009c.836.481.732,1.324-.232,1.881l-4.026,2.331A3.622,3.622,0,0,1,633.918,294.307Z" transform="translate(-530.239 -230.243)" fill="#fafcff"/>
      </g>
    </g>
    <path id="Path_518" data-name="Path 518" d="M711.681,329.71,593.366,261.551a4.6,4.6,0,0,1-1.927-3.673l-.078-98.7c0-1.416.859-2.068,1.922-1.456L711.6,225.882a4.605,4.605,0,0,1,1.927,3.673l.078,98.7C713.6,329.671,712.744,330.323,711.681,329.71Z" transform="translate(-498.099 -140.56)" fill="url(#linear-gradient-74)"/>
  </g>
  <g id="_1" data-name="1" transform="translate(206.367 258.293)">
    <g id="_9-2" data-name="9" transform="translate(141.915 161.144)">
      <g id="Group_570" data-name="Group 570" transform="translate(0)">
        <path id="Path_534" data-name="Path 534" d="M735.362,462.286l-16.825,9.8-16-9.156,16.824-9.8Zm-16.63,5.331,8.89-5.179-8.456-4.839-8.89,5.18Z" transform="translate(-702.536 -453.13)" fill="url(#linear-gradient-75)"/>
      </g>
      <path id="Path_535" data-name="Path 535" d="M702.536,459.769v4.676l16,9.156v-4.676Z" transform="translate(-702.536 -449.968)" fill="#8d8888"/>
      <path id="Path_536" data-name="Path 536" d="M730.2,459.332v4.676l-16.825,9.8v-4.676Z" transform="translate(-697.373 -450.176)" fill="#707070"/>
      <path id="Path_537" data-name="Path 537" d="M713.8,456.157v4.676l4.407,2.521,4.05-2.359Z" transform="translate(-697.171 -451.688)" fill="#8d8888"/>
      <path id="Path_538" data-name="Path 538" d="M707.779,461.337l8.891-5.179v4.676l-4.841,2.82Z" transform="translate(-700.039 -451.688)" fill="#707070"/>
    </g>
    <g id="_16" data-name="16" transform="translate(97.85 142.047)">
      <g id="Group_571" data-name="Group 571">
        <path id="Path_539" data-name="Path 539" d="M720.725,447.261l-1.995.605a12.209,12.209,0,0,0-2.514-1.9h0c-5.455-3.187-13.706-3.533-18.43-.774l-19.265,11.19-5.833,1.772v4.63l.015,0c.081,2.064,1.591,4.221,4.494,5.915,5.455,3.187,13.706,3.533,18.43.774l21.912-12.736c2.1-1.227,3.145-2.862,3.183-4.581h0Z" transform="translate(-672.685 -438.703)" fill="#8d8888"/>
        <path id="Path_540" data-name="Path 540" d="M717.541,453.6l-21.912,12.736c-4.724,2.759-12.975,2.414-18.43-.773h0c-5.455-3.186-6.047-8.006-1.323-10.766l21.912-12.736c4.724-2.759,12.975-2.414,18.43.774h0C721.673,446.016,722.265,450.836,717.541,453.6Z" transform="translate(-672.687 -440.194)" fill="url(#linear-gradient-76)"/>
      </g>
      <path id="Path_541" data-name="Path 541" d="M706.652,443.433c4.345,2.508,4.345,6.575,0,9.083a17.388,17.388,0,0,1-15.733,0c-4.345-2.508-4.345-6.575,0-9.083A17.388,17.388,0,0,1,706.652,443.433Z" transform="translate(-665.555 -439.548)" fill="#707070"/>
    </g>
    <g id="_18" data-name="18" transform="translate(0 97.676)">
      <path id="Path_542" data-name="Path 542" d="M718.251,447.93h.013v-7.7l-14.32-3.705-31.753-18.332c-5.347-3.087-13.433-3.422-18.064-.748L621.6,436.218l-15.182,3.6v7.6a4.182,4.182,0,0,0,0,.511v.12h0c.152,1.95,1.63,3.971,4.4,5.57l41.659,24.051c5.346,3.087,13.433,3.422,18.062.748l44.6-25.751C717.328,451.408,718.339,449.7,718.251,447.93Z" transform="translate(-606.401 -407.52)" fill="#8d8888"/>
      <path id="Path_543" data-name="Path 543" d="M715.149,447.172l-44.6,25.751c-4.63,2.674-12.717,2.338-18.062-.748l-41.659-24.051c-5.346-3.087-5.926-7.756-1.3-10.428l44.6-25.751c4.631-2.674,12.717-2.338,18.064.749l41.657,24.051C719.2,439.83,719.78,444.5,715.149,447.172Z" transform="translate(-606.405 -410.138)" fill="url(#linear-gradient-77)"/>
      <path id="Path_544" data-name="Path 544" d="M692.886,435.794c-6.346-1.834-16.639-3.843-23.083-.121l-3.251,1.876-3.922-1.733a5.023,5.023,0,0,0-1.978-4.007h0L653,424.916c-.18-.174-.369-.347-.573-.517l-.151-.136-.013.007a12.428,12.428,0,0,0-1.559-1.07c-5.94-3.431-15.573-3.431-21.515,0s-5.941,8.99,0,12.421a16.062,16.062,0,0,0,1.789.871l-.013.007.241.09c.347.14.7.272,1.064.394l11.834,4.38h0a18.826,18.826,0,0,0,6.94,1.143l3,2.265-3.215,1.857c-6.462,3.73-3,9.677.176,13.342,1.456,1.684,5.326,2.055,7.631.723l17.4-10.046.756-.437L694.135,440.2C696.44,438.868,695.8,436.636,692.886,435.794Z" transform="translate(-597.674 -405.143)" fill="#8d8888"/>
      <g id="Group_572" data-name="Group 572" transform="translate(27.069 15.475)">
        <path id="Path_545" data-name="Path 545" d="M629.182,427.3c5.942-3.429,15.575-3.429,21.515,0a12.635,12.635,0,0,1,1.559,1.07l.012-.007.152.137c.2.168.393.341.573.515l7.65,6.9h0a5.023,5.023,0,0,1,1.978,4.007l3.922,1.732,3.251-1.876c6.444-3.72,16.736-1.713,23.083.121a5.711,5.711,0,0,1,1.044.415l.205-.12c2.3-1.329,1.664-3.562-1.249-4.4-6.346-1.833-16.639-3.843-23.083-.121l-3.251,1.876-3.922-1.732a5.021,5.021,0,0,0-1.978-4.007h0l-7.65-6.894c-.18-.174-.369-.347-.573-.517l-.152-.136-.012.007a12.482,12.482,0,0,0-1.559-1.07c-5.94-3.431-15.573-3.431-21.515,0-3.883,2.241-5.211,5.393-4.018,8.266A9.02,9.02,0,0,1,629.182,427.3Z" transform="translate(-624.741 -420.621)" fill="#707070"/>
        <path id="Path_546" data-name="Path 546" d="M643.583,442.938c1.219-.7,2.279-1.315,3.215-1.856l.007-4.1c-.062,0-3.13,1.831-3.192,1.831l-.031.018c-3.652,2.108-4.131,4.925-3.286,7.637A7,7,0,0,1,643.583,442.938Z" transform="translate(-617.502 -412.829)" fill="#707070"/>
      </g>
    </g>
    <g id="Group_582" data-name="Group 582" transform="translate(17.585 0)">
      <g id="Group_573" data-name="Group 573" transform="translate(0 27.616)">
        <path id="Path_547" data-name="Path 547" d="M649.324,371.977l-15.5-9.3-15.5,9.517,15.5,9.3Z" transform="translate(-618.316 -362.681)" fill="url(#linear-gradient-78)"/>
        <path id="Path_548" data-name="Path 548" d="M633.82,385.176v-6.752l-15.5-9.3v6.752Z" transform="translate(-618.316 -359.61)" fill="#8d8888"/>
        <path id="Path_549" data-name="Path 549" d="M644.322,368.978v6.752l-15.5,9.517v-6.752Z" transform="translate(-613.315 -359.682)" fill="#707070"/>
      </g>
      <g id="Group_574" data-name="Group 574" transform="translate(23.256 29.463)">
        <path id="Path_550" data-name="Path 550" d="M665.077,373.228l-15.5-9.3-15.5,9.517,15.5,9.3Z" transform="translate(-634.069 -363.932)" fill="url(#linear-gradient-79)"/>
        <path id="Path_551" data-name="Path 551" d="M649.573,398.011V379.675l-15.5-9.3v18.337Z" transform="translate(-634.07 -360.862)" fill="#8d8888"/>
        <path id="Path_552" data-name="Path 552" d="M660.075,370.229v18.336l-15.5,9.517V379.746Z" transform="translate(-629.068 -360.933)" fill="#707070"/>
      </g>
      <g id="Group_575" data-name="Group 575" transform="translate(45.857 21.868)">
        <path id="Path_553" data-name="Path 553" d="M680.387,368.083l-15.5-9.3-15.5,9.517,15.5,9.3Z" transform="translate(-649.38 -358.787)" fill="url(#linear-gradient-80)"/>
        <path id="Path_554" data-name="Path 554" d="M664.883,413.994V374.53l-15.5-9.3V404.7Z" transform="translate(-649.38 -355.717)" fill="#8d8888"/>
        <path id="Path_555" data-name="Path 555" d="M675.385,365.084v39.464l-15.5,9.517V374.6Z" transform="translate(-644.378 -355.788)" fill="#707070"/>
      </g>
      <g id="Group_576" data-name="Group 576" transform="translate(69.113)">
        <path id="Path_556" data-name="Path 556" d="M696.14,353.27l-15.5-9.3-15.5,9.517,15.5,9.3Z" transform="translate(-665.132 -343.974)" fill="url(#linear-gradient-81)"/>
        <path id="Path_557" data-name="Path 557" d="M680.636,434.654V359.717l-15.5-9.3v74.938Z" transform="translate(-665.132 -340.904)" fill="#ff1d1d"/>
        <path id="Path_558" data-name="Path 558" d="M691.138,350.271v74.938l-15.5,9.517V359.788Z" transform="translate(-660.131 -340.975)" fill="#9a3232"/>
      </g>
      <g id="Group_577" data-name="Group 577" transform="translate(92.368 40.042)">
        <path id="Path_559" data-name="Path 559" d="M711.893,380.394l-15.5-9.3-15.5,9.517,15.5,9.3Z" transform="translate(-680.885 -371.098)" fill="url(#linear-gradient-82)"/>
        <path id="Path_560" data-name="Path 560" d="M696.389,435.146V386.841l-15.5-9.3V425.85Z" transform="translate(-680.885 -368.028)" fill="#8d8888"/>
        <path id="Path_561" data-name="Path 561" d="M706.891,377.395V425.7l-15.5,9.518V386.912Z" transform="translate(-675.884 -368.099)" fill="#707070"/>
      </g>
      <g id="Group_578" data-name="Group 578" transform="translate(115.624 66.24)">
        <path id="Path_562" data-name="Path 562" d="M727.646,398.14l-15.5-9.3-15.5,9.517,15.5,9.3Z" transform="translate(-696.638 -388.844)" fill="url(#linear-gradient-83)"/>
        <path id="Path_563" data-name="Path 563" d="M712.142,440.13V404.587l-15.5-9.3v35.543Z" transform="translate(-696.638 -385.773)" fill="#8d8888"/>
        <path id="Path_564" data-name="Path 564" d="M722.644,395.141v35.544l-15.5,9.517V404.658Z" transform="translate(-691.637 -385.845)" fill="#707070"/>
      </g>
      <g id="Group_579" data-name="Group 579" transform="translate(138.88 95.721)">
        <path id="Path_565" data-name="Path 565" d="M743.4,418.11l-15.5-9.3-15.5,9.517,15.5,9.3Z" transform="translate(-712.391 -408.814)" fill="#e9e5f1"/>
        <path id="Path_566" data-name="Path 566" d="M727.9,444.05V424.557l-15.5-9.3v19.494Z" transform="translate(-712.391 -405.743)" fill="#8d8888"/>
        <path id="Path_567" data-name="Path 567" d="M738.4,415.111V434.6l-15.5,9.517V424.628Z" transform="translate(-707.39 -405.815)" fill="#707070"/>
      </g>
      <g id="Group_580" data-name="Group 580" transform="translate(162.136 115.49)">
        <path id="Path_568" data-name="Path 568" d="M759.152,431.5l-15.5-9.3-15.5,9.517,15.5,9.3Z" transform="translate(-728.145 -422.205)" fill="#e9e5f1"/>
        <path id="Path_569" data-name="Path 569" d="M743.648,451.115V437.948l-15.5-9.3v13.167Z" transform="translate(-728.145 -419.135)" fill="#8d8888"/>
        <path id="Path_570" data-name="Path 570" d="M754.15,428.5v13.167l-15.5,9.517V438.02Z" transform="translate(-723.143 -419.206)" fill="#707070"/>
      </g>
      <g id="Group_581" data-name="Group 581" transform="translate(185.392 132.018)">
        <path id="Path_571" data-name="Path 571" d="M774.905,442.7l-15.5-9.3-15.5,9.517,15.5,9.3Z" transform="translate(-743.898 -433.401)" fill="#e9e5f1"/>
        <path id="Path_572" data-name="Path 572" d="M759.4,459.214v-10.07l-15.5-9.3v10.07Z" transform="translate(-743.898 -430.331)" fill="#8d8888"/>
        <path id="Path_573" data-name="Path 573" d="M769.9,439.7v10.07l-15.5,9.517v-10.07Z" transform="translate(-738.896 -430.402)" fill="#707070"/>
      </g>
    </g>
  </g>
</svg>
