<svg id="competitive-rates" xmlns="http://www.w3.org/2000/svg" width="50.344" height="50.344" viewBox="0 0 50.344 50.344">
  <g id="usd-coin-_usdc_" data-name="usd-coin-(usdc)">
    <path id="Vector" d="M0,0H50.344V50.344H0Z" fill="none"/>
    <path id="Vector-2" data-name="Vector" d="M1.568,23.908a1.556,1.556,0,0,1-1.112-.461,1.583,1.583,0,0,1,0-2.224,13.027,13.027,0,0,0,3.839-9.272A13.027,13.027,0,0,0,.456,2.68,1.572,1.572,0,0,1,2.68.456a16.17,16.17,0,0,1,4.762,11.5,16.17,16.17,0,0,1-4.762,11.5A1.556,1.556,0,0,1,1.568,23.908Z" transform="translate(33.988 13.221)" fill="#292d32"/>
    <path id="Vector-3" data-name="Vector" d="M5.873,23.908a1.556,1.556,0,0,1-1.112-.461,16.256,16.256,0,0,1,0-22.991A1.572,1.572,0,0,1,6.985,2.68a13.116,13.116,0,0,0,0,18.543,1.583,1.583,0,0,1,0,2.224A1.556,1.556,0,0,1,5.873,23.908Z" transform="translate(8.915 13.221)" fill="#292d32"/>
    <path id="Vector-4" data-name="Vector" d="M8.538,16.823H4.846A4.934,4.934,0,0,1,0,11.831a1.585,1.585,0,0,1,1.573-1.573,1.585,1.585,0,0,1,1.573,1.573,1.768,1.768,0,0,0,1.7,1.846H8.538a1.357,1.357,0,0,0,1.28-1.405c0-.986-.231-1.112-.9-1.343L3.021,8.873a4.153,4.153,0,0,1-3-4.321A4.482,4.482,0,0,1,4.447,0H8.139a4.934,4.934,0,0,1,4.846,4.992,1.573,1.573,0,0,1-3.147,0,1.768,1.768,0,0,0-1.7-1.846H4.447a1.357,1.357,0,0,0-1.28,1.405c0,.986.231,1.112.9,1.343L9.964,7.95a4.153,4.153,0,0,1,3,4.321A4.523,4.523,0,0,1,8.538,16.823Z" transform="translate(18.69 16.781)" fill="#292d32"/>
    <path id="Vector-5" data-name="Vector" d="M1.573,20.767A1.585,1.585,0,0,1,0,19.194V1.573A1.585,1.585,0,0,1,1.573,0,1.585,1.585,0,0,1,3.147,1.573v17.62A1.585,1.585,0,0,1,1.573,20.767Z" transform="translate(23.599 14.789)" fill="#292d32"/>
    <path id="Vector-6" data-name="Vector" d="M22.55,45.1A22.55,22.55,0,1,1,45.1,22.55,22.569,22.569,0,0,1,22.55,45.1Zm0-41.954a19.4,19.4,0,1,0,19.4,19.4A19.427,19.427,0,0,0,22.55,3.147Z" transform="translate(2.622 2.622)" fill="#dd1928"/>
    <path id="Vector-7" data-name="Vector" d="M0,0H50.344V50.344H0Z" fill="none" opacity="0"/>
  </g>
</svg>
