<svg xmlns="http://www.w3.org/2000/svg" width="50" height="50" viewBox="0 0 50 50">
  <g id="fruitful-strategy" transform="translate(-428 -252)">
    <g id="chart" transform="translate(428 252)">
      <path id="Vector" d="M39.423,3H1.577A1.551,1.551,0,0,1,0,1.5,1.551,1.551,0,0,1,1.577,0H39.423A1.551,1.551,0,0,1,41,1.5,1.551,1.551,0,0,1,39.423,3Z" transform="translate(4.5 44.5)" fill="#292d32"/>
      <path id="Vector-2" data-name="Vector" d="M6.7,24.24H3.5A3.517,3.517,0,0,1,0,20.74V3.5A3.517,3.517,0,0,1,3.5,0H6.7a3.517,3.517,0,0,1,3.5,3.5V20.74A3.517,3.517,0,0,1,6.7,24.24ZM3.5,2.98a.5.5,0,0,0-.5.5V20.74a.5.5,0,0,0,.5.5H6.7a.5.5,0,0,0,.5-.5V3.5A.5.5,0,0,0,6.7,3H3.5Z" transform="translate(4.5 16.545)" fill="#dd1928"/>
      <path id="Vector-3" data-name="Vector" d="M6.7,32.62H3.5A3.637,3.637,0,0,1,0,28.891V3.729A3.637,3.637,0,0,1,3.5,0H6.7a3.637,3.637,0,0,1,3.5,3.729V28.891A3.637,3.637,0,0,1,6.7,32.62ZM3.5,3.2a.512.512,0,0,0-.5.533V28.891a.512.512,0,0,0,.5.533H6.7a.512.512,0,0,0,.5-.533V3.729A.512.512,0,0,0,6.7,3.2Z" transform="translate(19.9 8.88)" fill="#dd1928"/>
      <path id="Vector-4" data-name="Vector" d="M6.7,37H3.5A3.517,3.517,0,0,1,0,33.5V3.5A3.517,3.517,0,0,1,3.5,0H6.7a3.517,3.517,0,0,1,3.5,3.5v30A3.517,3.517,0,0,1,6.7,37ZM3.5,3a.5.5,0,0,0-.5.5v30a.5.5,0,0,0,.5.5H6.7a.5.5,0,0,0,.5-.5V3.5A.5.5,0,0,0,6.7,3Z" transform="translate(35.3 2.5)" fill="#dd1928"/>
      <path id="Vector-5" data-name="Vector" d="M0,0H50V50H0Z" fill="none" opacity="0"/>
    </g>
  </g>
</svg>
