<svg xmlns="http://www.w3.org/2000/svg" width="50" height="50" viewBox="0 0 50 50">
  <g id="perfect-customized_" data-name="perfect-customized " transform="translate(-513 -828)">
    <path id="Vector" d="M28.779,45H16.221C4.856,45,0,40.144,0,28.779V16.221C0,4.856,4.856,0,16.221,0H28.779C40.144,0,45,4.856,45,16.221V28.779C45,40.144,40.144,45,28.779,45ZM16.221,3.14C6.572,3.14,3.14,6.572,3.14,16.221V28.779c0,9.649,3.433,13.081,13.081,13.081H28.779c9.649,0,13.081-3.433,13.081-13.081V16.221c0-9.649-3.433-13.081-13.081-13.081Z" transform="translate(515.5 830.5)" fill="#dd1928"/>
    <path id="Vector-2" data-name="Vector" d="M1.5,10.8A1.511,1.511,0,0,1,0,9.3V1.5A1.511,1.511,0,0,1,1.5,0,1.511,1.511,0,0,1,3,1.5V9.3A1.511,1.511,0,0,1,1.5,10.8Z" transform="translate(543.978 857.189)" fill="#292d32"/>
    <path id="Vector-3" data-name="Vector" d="M1.5,6.9A1.511,1.511,0,0,1,0,5.4V1.5A1.511,1.511,0,0,1,1.5,0,1.511,1.511,0,0,1,3,1.5V5.4A1.511,1.511,0,0,1,1.5,6.9Z" transform="translate(543.978 837.962)" fill="#292d32"/>
    <path id="Vector-4" data-name="Vector" d="M6.7,13.4a6.7,6.7,0,1,1,6.7-6.7A6.7,6.7,0,0,1,6.7,13.4ZM6.7,3a3.7,3.7,0,1,0,3.7,3.7A3.7,3.7,0,0,0,6.7,3Z" transform="translate(538.874 842.175)" fill="#292d32"/>
    <path id="Vector-5" data-name="Vector" d="M1.5,6.9A1.511,1.511,0,0,1,0,5.4V1.5A1.511,1.511,0,0,1,1.5,0,1.511,1.511,0,0,1,3,1.5V5.4A1.5,1.5,0,0,1,1.5,6.9Z" transform="translate(529.022 861.138)" fill="#292d32"/>
    <path id="Vector-6" data-name="Vector" d="M1.5,10.8A1.511,1.511,0,0,1,0,9.3V1.5A1.511,1.511,0,0,1,1.5,0,1.511,1.511,0,0,1,3,1.5V9.3A1.5,1.5,0,0,1,1.5,10.8Z" transform="translate(529.022 838.011)" fill="#292d32"/>
    <path id="Vector-7" data-name="Vector" d="M6.7,13.4a6.7,6.7,0,1,1,6.7-6.7A6.7,6.7,0,0,1,6.7,13.4ZM6.7,3a3.7,3.7,0,1,0,3.7,3.7A3.7,3.7,0,0,0,6.7,3Z" transform="translate(523.726 850.425)" fill="#292d32"/>
    <path id="Vector-8" data-name="Vector" d="M0,0H50V50H0Z" transform="translate(513 828)" fill="none" opacity="0"/>
  </g>
</svg>
