<svg xmlns="http://www.w3.org/2000/svg" width="46.992" height="39.149" viewBox="0 0 46.992 39.149">
  <g id="Group_9256" data-name="Group 9256" transform="translate(-46.5 -103.008)">
    <path id="Path_19232" data-name="Path 19232" d="M46.5,107.259a5.569,5.569,0,0,1,1.275-2.641,4.8,4.8,0,0,1,3.438-1.595c.168-.006.336-.009.5-.009q18.282,0,36.564-.007a4.942,4.942,0,0,1,5.211,5.1q-.01,7.042,0,14.084c0,5,.007,10,0,15a4.864,4.864,0,0,1-4.108,4.894,7.027,7.027,0,0,1-1.188.063q-18.167,0-36.334,0a4.9,4.9,0,0,1-5.3-4.172c-.006-.027-.035-.048-.053-.072Zm23.494-2.294q-9.153,0-18.306,0a4.353,4.353,0,0,0-.776.045,2.963,2.963,0,0,0-2.461,3.168q0,14.383,0,28.766a2.982,2.982,0,0,0,3.284,3.261H88.254a2.982,2.982,0,0,0,3.284-3.262q0-14.36,0-28.72a2.979,2.979,0,0,0-3.285-3.259Z" transform="translate(0 0)" fill="#dd1928"/>
    <path id="Path_19233" data-name="Path 19233" d="M101.117,151.049c.657,0,1.315,0,1.972,0,.731,0,1.188.393,1.175.989s-.46.958-1.164.96c-1.193,0-2.385,0-3.578,0a2.946,2.946,0,0,0-3.1,3.078c-.01,1.192,0,2.385,0,3.578,0,.753-.365,1.171-.99,1.161-.6-.009-.956-.438-.958-1.153,0-1.223-.008-2.446,0-3.669a4.872,4.872,0,0,1,4.852-4.94c.6-.015,1.192,0,1.789,0Z" transform="translate(-42.102 -42.16)"/>
    <path id="Path_19234" data-name="Path 19234" d="M305.644,304.877c-.657,0-1.315,0-1.972,0-.731-.005-1.188-.393-1.175-.989s.46-.958,1.163-.959c1.193,0,2.385,0,3.578,0a2.949,2.949,0,0,0,3.1-3.079c.012-1.192,0-2.385,0-3.578,0-.752.365-1.171.989-1.161.6.009.957.438.959,1.153,0,1.223.009,2.446,0,3.669a4.872,4.872,0,0,1-4.852,4.94c-.6.016-1.192,0-1.789,0Z" transform="translate(-224.671 -168.594)"/>
  </g>
</svg>
