<svg xmlns="http://www.w3.org/2000/svg" width="42.866" height="45.74" viewBox="0 0 42.866 45.74">
  <g id="Layer_1" data-name="Layer 1" transform="translate(-29.38 -96.607)">
    <path id="Path_19243" data-name="Path 19243" d="M56.433,110.715,68.374,98.806H65.6c-.626,0-1.251.015-1.876,0a1.106,1.106,0,1,1,.014-2.2q3.642-.005,7.284,0a1.091,1.091,0,0,1,1.223,1.211q.005,3.6-.01,7.194c0,.8-.439,1.272-1.129,1.259-.67-.012-1.076-.482-1.077-1.262,0-1.5,0-3.007,0-4.624-.181.17-.3.279-.42.4L57.663,112.728c-.827.827-1.336.83-2.153.015-1.16-1.157-2.322-2.312-3.476-3.475a2.551,2.551,0,0,1-.291-.45l-.22.011a2.767,2.767,0,0,1-.3.444q-9.821,9.832-19.652,19.654a3.1,3.1,0,0,1-.541.461,1.092,1.092,0,0,1-1.41-1.62,3.337,3.337,0,0,1,.274-.294q10.373-10.386,20.751-20.767a2.1,2.1,0,0,1,.685-.476,1.066,1.066,0,0,1,1.19.4q1.842,1.855,3.683,3.711A1.748,1.748,0,0,1,56.433,110.715Z" transform="translate(0)"/>
    <path id="Path_19244" data-name="Path 19244" d="M286.678,206.3h1.917v29.637h-1.917Z" transform="translate(-219.561 -93.609)" fill="#df2634"/>
    <path id="Path_19245" data-name="Path 19245" d="M229.53,269.274h-2.016V245.349h2.016Z" transform="translate(-169.075 -126.926)" fill="#df2634"/>
    <path id="Path_19246" data-name="Path 19246" d="M168.966,288.711h2.023v17.558h-2.023Z" transform="translate(-119.114 -163.929)" fill="#df2634"/>
    <path id="Path_19247" data-name="Path 19247" d="M109.8,305.951h2.012v15.025H109.8Z" transform="translate(-68.625 -178.64)" fill="#df2634"/>
    <path id="Path_19248" data-name="Path 19248" d="M51.271,370.446h1.92v5.565h-1.92Z" transform="translate(-18.681 -233.676)" fill="#df2634"/>
  </g>
</svg>
