<svg xmlns="http://www.w3.org/2000/svg" width="45.94" height="45.942" viewBox="0 0 45.94 45.942">
  <g id="Layer_1" data-name="Layer 1" transform="translate(-52.5 -65.039)">
    <path id="Path_19238" data-name="Path 19238" d="M56.2,121.786V89.209h1.482v.476q0,16.3,0,32.6c0,.752-.235.981-1,.984-.556,0-1.111,0-1.667.007-.024,0-.047.027-.118.069l5.759,6.918,5.824-6.994c-.714,0-1.325,0-1.936,0-.66,0-.926-.266-.926-.929,0-4.43-.032-8.86.008-13.289a11.844,11.844,0,0,1,12.479-11.7,11.691,11.691,0,0,1,7.732,3.437c.077.075.151.155.223.235a.871.871,0,0,1,.069.131l-1.012.948c-.5-.424-.947-.85-1.44-1.214a10.371,10.371,0,0,0-16.463,6.72,9.764,9.764,0,0,0-.114,1.521q-.014,6.135-.006,12.271v.383H67.37a1.852,1.852,0,0,1,.6.012,1.722,1.722,0,0,1,.742.432c.22.268.075.587-.137.842q-1.347,1.619-2.7,3.237L61.4,131.678c-.544.652-.954.651-1.5,0q-3.526-4.233-7.056-8.463c-.247-.3-.467-.585-.272-1s.549-.439.938-.435C54.389,121.792,55.267,121.786,56.2,121.786Z" transform="translate(0 -21.185)" fill="#df2634"/>
    <path id="Path_19239" data-name="Path 19239" d="M168.188,96.059l1.035-.968c.51.43.971.862,1.475,1.238a10.38,10.38,0,0,0,16.433-6.791,10.245,10.245,0,0,0,.109-1.476q.013-6.135.005-12.27v-.385c-.819,0-1.614.005-2.41,0-.451,0-.957.115-1.217-.428s.161-.862.448-1.206q3.447-4.148,6.9-8.288c.493-.592.95-.593,1.444,0q3.558,4.267,7.114,8.534c.24.287.423.576.237.962a.844.844,0,0,1-.894.432c-.892-.009-1.785,0-2.726,0v32.578h-1.49v-.48q0-16.3,0-32.6c0-.754.232-.981,1-.984.555,0,1.111,0,1.667-.007.024,0,.048-.026.122-.068l-5.76-6.919-5.823,6.994c.711,0,1.322,0,1.932,0,.661,0,.928.266.928.926,0,4.414.031,8.828-.007,13.242A11.838,11.838,0,0,1,176.283,99.84a11.65,11.65,0,0,1-7.811-3.468C168.386,96.287,168.308,96.192,168.188,96.059Z" transform="translate(-101.401)" fill="#df2634"/>
    <path id="Path_19240" data-name="Path 19240" d="M202,222.685l-.908-.953,8.326-8.326.908.953Z" transform="translate(-130.241 -130.044)" fill="#090808"/>
    <path id="Path_19241" data-name="Path 19241" d="M198.725,211.934a2.19,2.19,0,0,1,2.234,2.167,2.221,2.221,0,1,1-4.441.027A2.191,2.191,0,0,1,198.725,211.934Zm.011,1.481a.727.727,0,0,0-.732.732.738.738,0,0,0,1.477-.018A.717.717,0,0,0,198.736,213.415Z" transform="translate(-126.233 -128.754)" fill="#090808"/>
    <path id="Path_19242" data-name="Path 19242" d="M246.725,258.835a2.21,2.21,0,0,1-2.2-2.212,2.22,2.22,0,0,1,4.441.033A2.21,2.21,0,0,1,246.725,258.835Zm.759-2.208a.741.741,0,0,0-.733-.737.753.753,0,0,0-.743.733.738.738,0,0,0,1.477,0Z" transform="translate(-168.307 -166.003)" fill="#090808"/>
  </g>
</svg>
