<svg xmlns="http://www.w3.org/2000/svg" width="38.421" height="33.035" viewBox="0 0 38.421 33.035">
  <g id="Group_6390" data-name="Group 6390" transform="translate(-59.715 -85.8)">
    <path id="Path_15422" data-name="Path 15422" d="M442.414,275a1.684,1.684,0,0,1,0-1.5Z" transform="translate(-344.278 -168.934)" fill="#0a2cc5"/>
    <path id="Path_15423" data-name="Path 15423" d="M442.5,262.079c-.243-.282-.16-.607-.124-.926a.107.107,0,0,1,.124.026Z" transform="translate(-344.36 -157.812)" fill="#6278da"/>
    <path id="Path_15424" data-name="Path 15424" d="M442.367,293.777c-.041-.272-.113-.549.124-.777v.75l-.058.033Z" transform="translate(-344.355 -186.484)" fill="#5f75d9"/>
    <path id="Path_15425" data-name="Path 15425" d="M98.136,104.266c-.185-.29.012-.63-.124-.926a13.453,13.453,0,0,0-.328-2.22A19.187,19.187,0,0,0,75.123,86.206a19.476,19.476,0,0,0-12.8,28.76,7.1,7.1,0,0,0,6.305,3.819q10.345.108,20.692,0a6.712,6.712,0,0,0,5.733-3.039,17.69,17.69,0,0,0,2.957-8.455c.129-.245-.052-.539.124-.777v-.45a3,3,0,0,1,0-1.5Zm-5.245,9.33a4.078,4.078,0,0,1-3.608,2.189c-6.647.039-13.294.009-19.94,0a2.972,2.972,0,0,1-1.409-1.489,18.134,18.134,0,0,1-2.355-7.721c-.021-.266-.065-.561.266-.7.215.035.331.211.482.338a1.291,1.291,0,0,0,2.192-.9,17.462,17.462,0,0,1,.188-1.937,10.349,10.349,0,0,1,20.466.093c.076.569.154,1.136.177,1.713a1.307,1.307,0,0,0,1.266,1.4,1.288,1.288,0,0,0,1.31-1.426,12.948,12.948,0,0,0-2.7-8.022,12.32,12.32,0,0,0-11.177-5.075,12.5,12.5,0,0,0-10.891,7.565c-.145.3-.181.7-.615.78-.3-.2-.211-.491-.124-.742a17.424,17.424,0,0,1,8.493-10.278c.089-.046.2-.037.282-.093a15.553,15.553,0,0,1,13.515,2.836A16.625,16.625,0,0,1,92.891,113.6Z" transform="translate(0 0)" fill="#dd1928"/>
    <path id="Path_15426" data-name="Path 15426" d="M102.182,120.734a21.731,21.731,0,0,0-4.778,3.78,18.537,18.537,0,0,0-3.858,6.752,2.52,2.52,0,0,0-.047.589.342.342,0,0,1,.041.32,1.783,1.783,0,0,0-.163.982,32.262,32.262,0,0,0-.532,4.194,6.5,6.5,0,0,0,.195,2.615,15.684,15.684,0,0,0,2.564,6.425,10.494,10.494,0,0,0,.729.841,4.515,4.515,0,0,1-4.473-2.41,16.517,16.517,0,0,1,9.956-24.039A2.768,2.768,0,0,1,102.182,120.734Z" transform="translate(-26.99 -31.442)" fill="#cde0f1"/>
    <path id="Path_15427" data-name="Path 15427" d="M120.688,154.707l.029-.253c.234-.148.266-.413.363-.637a13.137,13.137,0,0,1,25.138,3.727,12.338,12.338,0,0,1,.124,1.639,1.506,1.506,0,1,1-3,.022,10.62,10.62,0,0,0-3.624-7.926,10.212,10.212,0,0,0-13.13-.015,10.553,10.553,0,0,0-3.638,7.838c-.032.956-.392,1.535-1.155,1.7a1.486,1.486,0,0,1-1.734-.855,9.027,9.027,0,0,1,.227-3.666c.038-.218.076-.436.114-.653C120.532,155.333,120.437,154.967,120.688,154.707Z" transform="translate(-54.209 -54.041)" fill="#2a2a2a"/>
    <path id="Path_15428" data-name="Path 15428" d="M242.675,223.151a1.454,1.454,0,0,1,1.167,2.147c-1.39,2.5-2.834,4.978-4.291,7.443a1.375,1.375,0,0,1-1.953.5,1.4,1.4,0,0,1-.609-1.98c1.4-2.472,2.828-4.924,4.252-7.38A1.5,1.5,0,0,1,242.675,223.151Z" transform="translate(-159.372 -123.619)" fill="#2a2a2a"/>
    <path id="Path_15429" data-name="Path 15429" d="M124.749,234.493a2.248,2.248,0,0,1-.284.924C124.485,235.086,124.345,234.706,124.749,234.493Z" transform="translate(-58.269 -133.827)" fill="#f5e8fa"/>
  </g>
</svg>
