<svg xmlns="http://www.w3.org/2000/svg" width="34.919" height="44.719" viewBox="0 0 34.919 44.719">
  <g id="Group_6392" data-name="Group 6392" transform="translate(-102.045 -59)">
    <path id="Path_15436" data-name="Path 15436" d="M236.064,59.166l-.9-.023a.565.565,0,0,1,.039-.143h.873q.088.064.052.116C236.109,59.149,236.087,59.166,236.064,59.166Z" transform="translate(-117.628)" fill="#4e66d5"/>
    <path id="Path_15437" data-name="Path 15437" d="M242.87,59.166a.811.811,0,0,0,.015-.166h.873C243.506,59.291,243.172,59.14,242.87,59.166Z" transform="translate(-124.434)" fill="#0f30c7"/>
    <path id="Path_15438" data-name="Path 15438" d="M254.386,59.167c-.3-.028-.635.124-.886-.167h.873q.082.049.061.107T254.386,59.167Z" transform="translate(-133.827)" fill="#0f30c7"/>
    <path id="Path_15439" data-name="Path 15439" d="M261.012,59.167A.817.817,0,0,1,261,59h.873a.863.863,0,0,1,.038.144Z" transform="translate(-140.452)" fill="#4e67d5"/>
    <path id="Path_15440" data-name="Path 15440" d="M136.431,72.22c-1.668-6.975-8.141-12.615-14.973-13.077a2.87,2.87,0,0,0-.839-.053c-.314-.043-.645.094-.945-.09h-.349c-.3.184-.632.048-.946.09a2.891,2.891,0,0,0-.839.053c-.289.025-.583.029-.868.079a17.473,17.473,0,0,0-11.6,27.066q4.9,7.368,9.833,14.71c2.431,3.626,6.757,3.628,9.189,0,3.3-4.923,6.61-9.839,9.875-14.786A17.188,17.188,0,0,0,136.431,72.22Zm-5.187,11.763c-3.279,5.066-6.688,10.047-10.041,15.065a.637.637,0,0,1-.129.111c-.417.049-.528-.312-.692-.557-3.1-4.639-6.26-9.24-9.273-13.935a15.807,15.807,0,0,1,1.156-18.13,12.553,12.553,0,0,1,4.44-3.695,12.969,12.969,0,0,1,9.875,1.6A13.881,13.881,0,0,1,131.244,83.983Z" fill="#dd1928"/>
    <path id="Path_15441" data-name="Path 15441" d="M143.067,92.011a35.592,35.592,0,0,0-3.221,2.619,16.01,16.01,0,0,0-4.311,9.017,15.6,15.6,0,0,0,2.682,10.965q4.38,6.544,8.742,13.1c.144.215.318.41.478.614-.865,1.375-2.235,1.434-3.135.092-3.419-5.094-6.893-10.152-10.21-15.312a13.924,13.924,0,0,1,8.21-20.976A7.291,7.291,0,0,1,143.067,92.011Z" transform="translate(-26.361 -29.169)" fill="#e9e9e9"/>
    <path id="Path_15442" data-name="Path 15442" d="M188.177,157.34c-2,0-3.707.005-5.418,0a1.852,1.852,0,0,1-2.029-1.7c-.028-1.074.756-1.782,2.017-1.786,2.644-.008,5.289-.027,7.933.014a2,2,0,0,0,1.664-.709c.7-.776,1.458-1.5,2.213-2.225a1.686,1.686,0,0,1,2.485-.082,1.646,1.646,0,0,1,.011,2.479q-5.216,5.263-10.48,10.478c-.714.708-4.654.78-5.436.144a1.6,1.6,0,0,1-.649-1.762,1.734,1.734,0,0,1,1.532-1.345.512.512,0,0,1,.174-.006c1.958.407,3.3-.544,4.446-1.978A19.87,19.87,0,0,1,188.177,157.34Z" transform="translate(-69.254 -80.711)" fill="#2a2a2a"/>
  </g>
</svg>
