<svg xmlns="http://www.w3.org/2000/svg" width="42.245" height="42.244" viewBox="0 0 42.245 42.244">
  <g id="Group_6389" data-name="Group 6389" transform="translate(-59.261 -59)">
    <path id="Path_15411" data-name="Path 15411" d="M72.174,88.838q0,.8,0,1.594a4.361,4.361,0,0,1-2.431,3.713,1.085,1.085,0,0,0-.621,1.057c.013.572.014,1.146,0,1.718-.013.526.232.7.741.731a5.284,5.284,0,0,1,2.332.192c.932.009,1.864,0,2.8.035.406.015.506-.13.5-.515-.02-1.4-.016-2.8-.005-4.2a1.671,1.671,0,0,1,1.87-1.883q3.085-.016,6.171,0a1.656,1.656,0,0,1,1.836,1.834c.014,1.4.017,2.8-.005,4.2-.007.412.081.572.536.565,1.837-.026,3.675-.023,5.512,0,.421,0,.612-.095.554-.543a3.525,3.525,0,0,1,0-.74c.111-1.326.007-2.355-1.425-3.194C88.7,92.33,88.215,89.83,89,87.826a4.929,4.929,0,0,1,9.422.811,4.791,4.791,0,0,1-2.431,5.28,1.152,1.152,0,0,0-.757,1.307c.095.861-.359,2.023.182,2.513.473.428,1.613.12,2.459.132a11.75,11.75,0,0,0,1.4-.007,2.078,2.078,0,0,1,2.23,1.161v.988c-.365,1.051-.6,1.23-1.73,1.231q-19.35.005-38.7,0c-1.256,0-1.772-.476-1.813-1.616a1.694,1.694,0,0,1,1.718-1.973c1.122-.088,2.25-.013,3.375-.034.9-.017.975-.1.995-1a4.707,4.707,0,0,1,0-.494,2.23,2.23,0,0,0-1.167-2.361,5.1,5.1,0,0,1,.11-8.341,2.136,2.136,0,0,0,1.071-2.084q-.052-7.987-.011-15.974a8.442,8.442,0,0,1,4.069-7.376A7.311,7.311,0,0,1,72.683,59H88.166a10.789,10.789,0,0,1,3.71,1.6,7.952,7.952,0,0,1,3.348,6.4c.068,4.2.028,8.4.02,12.6a1.652,1.652,0,1,1-3.286-.035c-.008-3.979,0-7.958,0-11.938A4.961,4.961,0,0,0,86.6,62.3q-6.133,0-12.265.026a3.156,3.156,0,0,1-.95.244,4.664,4.664,0,0,0-4.239,4.841c-.026,5.485-.006,10.97-.012,16.454a1.221,1.221,0,0,0,.6,1.245A4.343,4.343,0,0,1,72.174,88.838Z" transform="translate(0)" fill="#dd1928"/>
    <path id="Path_15412" data-name="Path 15412" d="M150.209,115.708a5.159,5.159,0,0,0-3.017-3.754c-.321-.137-.26-.377-.26-.611,0-5.813-.033-11.627.018-17.44a4.886,4.886,0,0,1,5.418-4.711,7.54,7.54,0,0,0-2.164,5.8c.079,3.365.018,6.733.025,10.1,0,.291-.1.606.126.869a1.872,1.872,0,0,1,0,1.33c-.224.262-.125.577-.126.868C150.216,110.673,150.214,113.191,150.209,115.708Z" transform="translate(-78.035 -26.87)" fill="#cde0f1"/>
    <path id="Path_15413" data-name="Path 15413" d="M216.816,124c0,1.041.012,2.083,0,3.124a1.65,1.65,0,1,1-3.289.032c-.052-1.527-.052-1.527-1.564-1.527-1.646,0-1.646,0-1.732,1.607a1.646,1.646,0,0,1-1.659,1.682,1.623,1.623,0,0,1-1.625-1.709q-.03-3.247,0-6.495a1.612,1.612,0,0,1,1.663-1.669,1.651,1.651,0,0,1,1.619,1.638c.11,1.651.11,1.651,1.772,1.651,1.487,0,1.487,0,1.525-1.484a1.654,1.654,0,1,1,3.291.026C216.826,121.913,216.816,122.955,216.816,124Z" transform="translate(-131.451 -53.448)" fill="#2a2a2a"/>
    <path id="Path_15414" data-name="Path 15414" d="M212.026,292.964c1.04,0,2.081-.013,3.121,0a1.647,1.647,0,1,1-.006,3.285q-3.162.023-6.325,0a1.647,1.647,0,1,1,.006-3.285C209.89,292.952,210.958,292.964,212.026,292.964Z" transform="translate(-131.558 -208.27)" fill="#2a2a2a"/>
    <path id="Path_15415" data-name="Path 15415" d="M177.235,235.246a1.938,1.938,0,0,1,0-1.33,1.831,1.831,0,0,1,1.836-.989c.959.029,1.92-.008,2.879.012a1.644,1.644,0,1,1,0,3.284c-.959.021-1.92-.016-2.879.012A1.836,1.836,0,0,1,177.235,235.246Z" transform="translate(-104.915 -154.828)" fill="#2a2a2a"/>
    <path id="Path_15416" data-name="Path 15416" d="M270.339,236.165c-.574,0-1.151.03-1.723-.006a1.634,1.634,0,0,1-1.573-1.669,1.61,1.61,0,0,1,1.558-1.6c1.147-.042,2.3-.042,3.446,0a1.617,1.617,0,0,1,1.573,1.665,1.634,1.634,0,0,1-1.559,1.6C271.49,236.195,270.913,236.165,270.339,236.165Z" transform="translate(-184.966 -154.771)" fill="#2a2a2a"/>
    <path id="Path_15417" data-name="Path 15417" d="M149.95,352.67c-.927.009-1.855-.005-2.78.036-.464.021-.557-.178-.525-.576a4.912,4.912,0,0,0,0-.9c-.129-1.261,0-2.271,1.389-2.941,1.138-.549,1.566-1.826,1.894-3.031Q149.939,348.965,149.95,352.67Z" transform="translate(-77.755 -254.827)" fill="#cde0f1"/>
    <path id="Path_15418" data-name="Path 15418" d="M240.294,384.675c0,1.619,0,1.619-1.593,1.619-1.7,0-1.7,0-1.7-1.675C237,383,237,383,238.593,383,240.294,383,240.294,383,240.294,384.675Z" transform="translate(-158.223 -288.424)" fill="#fefefe"/>
    <path id="Path_15419" data-name="Path 15419" d="M358.678,323.04a1.642,1.642,0,1,1-1.639,1.6A1.661,1.661,0,0,1,358.678,323.04Z" transform="translate(-265.081 -235.048)" fill="#fdfdfe"/>
    <path id="Path_15420" data-name="Path 15420" d="M118.671,326.511a1.616,1.616,0,1,1,0-3.232A4.359,4.359,0,0,1,118.671,326.511Z" transform="translate(-51.429 -235.26)" fill="#fcfcfe"/>
    <path id="Path_15421" data-name="Path 15421" d="M131.939,326.511v-3.232a1.616,1.616,0,1,1,0,3.232Z" transform="translate(-64.697 -235.26)" fill="#ccdff1"/>
  </g>
</svg>
