<svg xmlns="http://www.w3.org/2000/svg" width="39.852" height="41.096" viewBox="0 0 39.852 41.096">
  <g id="Group_6385" data-name="Group 6385" transform="translate(-1374.79 -634)">
    <g id="Layer_1" data-name="Layer 1" transform="translate(1374.79 634)">
      <path id="Path_80" data-name="Path 80" d="M164.879,59a9.009,9.009,0,0,1,1.826.8,4.513,4.513,0,0,1,2.05,3.736c.052,1.866.024,3.734.011,5.6a1.557,1.557,0,1,1-3.1.012c-.015-1.738,0-3.475-.007-5.213a1.6,1.6,0,0,0-1.811-1.819c-2.282-.007-4.565.015-6.847-.015-.554-.007-.7.165-.691.7.029,2.049.015,4.1.01,6.147,0,1.167-.564,1.851-1.52,1.874-.983.023-1.588-.686-1.59-1.881,0-2.049-.02-4.1.011-6.147.008-.548-.154-.758-.7-.689-.255.033-.518,0-.777.008a1.553,1.553,0,0,0-1.644,1.671c-.017,1.738,0,3.475-.007,5.213,0,1.143-.607,1.834-1.569,1.825s-1.537-.694-1.541-1.853q-.008-2.529,0-5.057a4.658,4.658,0,0,1,3.4-4.741,2.515,2.515,0,0,0,.331-.173Z" transform="translate(-137.955 -59)" fill="#2a2a2a"/>
      <path id="Path_81" data-name="Path 81" d="M266.964,121.841c0-.439-.025-.88.005-1.317a1.548,1.548,0,0,1,1.58-1.484,1.531,1.531,0,0,1,1.508,1.475c.04.877.04,1.758,0,2.634a1.53,1.53,0,0,1-1.577,1.485,1.55,1.55,0,0,1-1.511-1.475C266.938,122.721,266.964,122.28,266.964,121.841Z" transform="translate(-245.482 -112.809)" fill="#2a2a2a"/>
      <path id="Path_83" data-name="Path 83" d="M97.664,156.271a1.7,1.7,0,0,1-1.007-1.859c.044-3.269-1.875-5.169-5.136-5.169H65.306c-.233,0-.467.01-.7,0a1.567,1.567,0,0,1-1.544-1.455,1.487,1.487,0,0,1,1.427-1.624,1.642,1.642,0,0,0,1.658-1.825,1.694,1.694,0,0,0-2.139-1.284,4.633,4.633,0,0,0-4.054,4.513q-.038,11.007,0,22.015a4.568,4.568,0,0,0,4.5,4.553q13.846.045,27.693,0a4.594,4.594,0,0,0,4.4-3.616,12.75,12.75,0,0,0,.131-2.322c.012-.21-.126-.485.182-.608a5.248,5.248,0,0,0,2.926-3.4V159.36A4.628,4.628,0,0,0,97.664,156.271Zm-4.4,14.1a1.8,1.8,0,0,1-1.647.669q-9.492-.013-18.984-.007c-2.048,0-3.078.1-3.078.1a7.715,7.715,0,0,1-2.954-.27c-.844-.392-.672-1.4-.674-1.72v-.072c-.018-2.878-.007-5.784-.007-8.69,0-2.274,0-4.549,0-6.823a1.545,1.545,0,0,1,.252-1.178q5.757-.013,11.513-.024,6.963-.006,13.927,0a2.073,2.073,0,0,1,1.944,2.929c-.117.291-.343.169-.523.178a25.95,25.95,0,0,0-3.8.137,6.215,6.215,0,0,0,1,12.31c.933.028,1.867,0,2.8.016.179,0,.506-.124.505.176A3.6,3.6,0,0,1,93.262,170.37Zm3.408-7.208A1.554,1.554,0,0,1,95,164.8c-.776.017-1.553,0-2.33,0-.751,0-1.5.015-2.252,0a3.107,3.107,0,0,1-.016-6.214c1.527-.027,3.055-.018,4.583,0a1.56,1.56,0,0,1,1.685,1.7C96.687,161.246,96.691,162.2,96.67,163.162Z" transform="translate(-59.936 -133.056)" fill="#dd1928"/>
      <path id="Path_84" data-name="Path 84" d="M93.09,231.354q0,8.635-.01,17.27a7.064,7.064,0,0,0,.322,1.609c-.621.009-1.243.045-1.862.021a1.528,1.528,0,0,1-1.56-1.609q-.021-8.547-.007-17.095c0-.222-.07-.513.337-.389A13.367,13.367,0,0,0,93.09,231.354Z" transform="translate(-84.06 -212.079)" fill="#cde0f1"/>
    </g>
  </g>
</svg>
