<svg xmlns="http://www.w3.org/2000/svg" width="43.1" height="30.32" viewBox="0 0 43.1 30.32">
  <g id="Group_6384" data-name="Group 6384" transform="translate(-59.766 -115.832)">
    <path id="Path_15389" data-name="Path 15389" d="M102.716,122.817a8.236,8.236,0,0,0-6.2-6.692,16.8,16.8,0,0,0-4.6-.266,1.669,1.669,0,0,0-1.842,1.654,1.683,1.683,0,1,1-3.367.009,1.679,1.679,0,0,0-1.834-1.667c-5.664-.007-11.328-.051-16.991.021a8.3,8.3,0,0,0-8.073,8.094q-.1,7.022,0,14.047a8.3,8.3,0,0,0,8.076,8.093c5.663.074,11.327.028,16.991.022a1.681,1.681,0,0,0,1.831-1.671,1.684,1.684,0,1,1,3.367.015,1.69,1.69,0,0,0,1.844,1.657c.9.014,1.795.016,2.692,0a8.415,8.415,0,0,0,7.955-6.223c.077-.279.014-.625.3-.836V123.086C102.742,123.037,102.738,122.928,102.716,122.817ZM99.5,137.556a5.206,5.206,0,0,1-6.032,5.229c-.338-.045-.4-.249-.5-.461a5.042,5.042,0,0,0-9.121-.017c-.149.3-.271.478-.664.476-4.822-.027-9.644-.03-14.466-.04-1.269-.6-1.643-1.837-2.108-2.991a5.094,5.094,0,0,1-.321-1.89c0-1.452-.008-2.9,0-4.355,0-.355-.051-.736.262-1.016.234-.065.369.1.494.241a1.617,1.617,0,0,0,2.139.3c1.06-.512,2.1-1.059,3.164-1.571.863-.417,1.1-.268,1.125.7.021.7-.008,1.4.007,2.1a1.315,1.315,0,0,1-.833,1.328c-.557.265-1.115.531-1.65.837a1.429,1.429,0,1,0,1.307,2.537c.663-.3,1.309-.642,1.956-.978a1.372,1.372,0,0,1,1.36,0c.647.335,1.293.675,1.958.973a1.427,1.427,0,1,0,1.3-2.538c-.56-.319-1.145-.594-1.722-.881a1.23,1.23,0,0,1-.752-1.2c0-.785-.028-1.571.011-2.355.038-.761.276-.914.959-.594,1.041.488,2.06,1.02,3.09,1.531a2.832,2.832,0,0,0,1.11.363,1.4,1.4,0,0,0,1.127-2.342,3.405,3.405,0,0,0-1.034-.71c-1.454-.728-2.9-1.47-4.367-2.176a1.408,1.408,0,0,1-.905-1.453c.028-.728.029-1.458,0-2.187a1.45,1.45,0,1,0-2.894-.053,20.053,20.053,0,0,0-.011,2.186,1.455,1.455,0,0,1-.937,1.523c-1.219.57-2.409,1.2-3.615,1.8a6.192,6.192,0,0,0-2.031,1.32c-.12.135-.3.3-.485.051a1.926,1.926,0,0,1-.136-.9q-.006-3.061,0-6.121A7.24,7.24,0,0,1,67.736,120a2.049,2.049,0,0,1,.977-.759q7.233-.014,14.466-.036a.6.6,0,0,1,.631.4A5.039,5.039,0,0,0,93,119.583a.542.542,0,0,1,.471-.378,5.2,5.2,0,0,1,6.027,5.229Q99.519,130.995,99.5,137.556Z" transform="translate(0 0)" fill="#dd1928"/>
    <path id="Path_15390" data-name="Path 15390" d="M95.516,146.188a7.559,7.559,0,0,0-2.207,5.919c.083,2.065.027,4.136.033,6.2a1.032,1.032,0,0,1,.1,1.132,30.785,30.785,0,0,0-.116,4.247,7.618,7.618,0,0,0,.875,4.276,11.048,11.048,0,0,0,1.314,1.721,5.035,5.035,0,0,1-5.552-5.237q-.015-6.514,0-13.028A5.031,5.031,0,0,1,95.516,146.188Z" transform="translate(-26.803 -26.943)" fill="#cde0f1"/>
    <path id="Path_15391" data-name="Path 15391" d="M120.156,185.955a2.824,2.824,0,0,1-.1-1.132,3.1,3.1,0,0,1,1.414-1.254c1.565-.749,3.1-1.559,4.667-2.309a.942.942,0,0,0,.645-1.024c-.046-.782-.022-1.568-.009-2.353a1.689,1.689,0,1,1,3.36.034c.011.784.033,1.571-.008,2.353a.891.891,0,0,0,.6.965c1.664.8,3.312,1.637,4.964,2.466a1.734,1.734,0,0,1,1.153,1.854,1.665,1.665,0,0,1-2.494,1.236c-1.361-.645-2.7-1.336-4.2-2.086,0,1.261,0,2.389,0,3.517,0,.32.288.383.5.494.648.332,1.31.637,1.946.991a1.664,1.664,0,0,1-1.5,2.968c-.714-.323-1.42-.668-2.1-1.05a.993.993,0,0,0-1.087.009c-.685.38-1.39.727-2.1,1.048a1.609,1.609,0,0,1-2.2-.766,1.637,1.637,0,0,1,.728-2.22c.024-.014.051-.023.075-.038.765-.454,2.012-.57,2.25-1.312a12.724,12.724,0,0,0,.086-3.623c-1.375.684-2.664,1.332-3.959,1.969A1.726,1.726,0,0,1,120.156,185.955Z" transform="translate(-53.517 -53.456)" fill="#2a2a2a"/>
    <path id="Path_15392" data-name="Path 15392" d="M303.321,211.081c0,1.063.011,2.126,0,3.189a1.687,1.687,0,1,1-3.358,0q-.018-3.189,0-6.378a1.687,1.687,0,1,1,3.358,0C303.332,208.955,303.321,210.018,303.321,211.081Z" transform="translate(-213.242 -80.088)" fill="#2a2a2a"/>
  </g>
</svg>
