<svg xmlns="http://www.w3.org/2000/svg" width="37.7" height="42.864" viewBox="0 0 37.7 42.864">
  <g id="Group_6850" data-name="Group 6850" transform="translate(-786.468 -4140.706)">
    <g id="Group_6391" data-name="Group 6391" transform="translate(705.859 4082.206)">
      <path id="Subtraction_18" data-name="Subtraction 18" d="M10.381,41.864a10.054,10.054,0,0,1-7.167-2.627A9.414,9.414,0,0,1,.036,32.144c-.048-8.559-.048-15.7,0-22.465a9.824,9.824,0,0,1,2.51-6.431A9.667,9.667,0,0,1,5.217,1.125,8.517,8.517,0,0,1,8.449.135.561.561,0,0,1,8.716.08c.043,0,.086,0,.125,0h.011c.047,0,.089.005.131.005A.527.527,0,0,0,9.308,0h2.616a2.049,2.049,0,0,1,1.187,2.106c-.018,9.579-.017,19.307-.017,28.714q0,4.474,0,8.947a2.126,2.126,0,0,1-.46,1.592,2.314,2.314,0,0,1-1.6.492C10.816,41.86,10.6,41.864,10.381,41.864ZM9.79,3.433a.721.721,0,0,0-.5.269l-.043.04A8.17,8.17,0,0,0,6.545,9.9c-.027,5.943-.02,11.925-.013,17.709q0,1.063,0,2.125t0,2.125a8.356,8.356,0,0,0,1.347,4.624l.036.054a4.232,4.232,0,0,0,1.877,1.87c0-.056.007-.113.011-.169v-.019c.009-.124.018-.253.018-.38V4c0-.124-.009-.25-.017-.372v0c0-.067-.009-.132-.012-.192Z" transform="translate(81.073 59)" fill="#dd1928" stroke="rgba(0,0,0,0)" stroke-miterlimit="10" stroke-width="1"/>
      <path id="Path_15431" data-name="Path 15431" d="M159.469,59c-.254.255-.56.172-.86.136a1.093,1.093,0,0,1,.043-.136Z" transform="translate(-69.088 0)" fill="#4858cd"/>
      <path id="Path_15432" data-name="Path 15432" d="M252.191,93.326q0,5.349,0,10.7A9.843,9.843,0,0,1,242,114.214q-4.369,0-8.739,0a1.708,1.708,0,0,1-1.923-1.649c.011-.966.786-1.607,1.956-1.617.163,0,.327,0,.49,0,2.777,0,5.554.007,8.331,0a6.547,6.547,0,0,0,6.806-6.783q.027-10.862,0-21.725a6.585,6.585,0,0,0-2.475-5.36,1.676,1.676,0,0,1-.4-2.491,1.647,1.647,0,0,1,2.466-.047,9.661,9.661,0,0,1,3.679,7.762C252.21,85.975,252.191,89.651,252.191,93.326Z" transform="translate(-133.89 -13.375)" fill="#dd1928"/>
      <path id="Path_15433" data-name="Path 15433" d="M117.582,123.889c-.192.327-.491.147-.724.117a6.468,6.468,0,0,1-5.76-6.379q-.087-11.226,0-22.453a6.463,6.463,0,0,1,5.761-6.377c.232-.03.532-.211.723.117a14.533,14.533,0,0,0-2.151,2.853,8.853,8.853,0,0,0-.867,3.785q-.022,10.85,0,21.7a8.092,8.092,0,0,0,2.438,5.952C117.22,123.416,117.386,123.664,117.582,123.889Z" transform="translate(-26.714 -26.482)" fill="#cde0f1"/>
      <path id="Path_15435" data-name="Path 15435" d="M242.506,61.189A2.079,2.079,0,0,0,241.327,59h-9.152a2.333,2.333,0,0,0-1.14,2.172c.032,4.573.015,9.146.014,13.719a2.912,2.912,0,0,0,1.283,2.587,2.775,2.775,0,0,0,3.748-.578c.48-.475.861-.713,1.338-.05.061.085.173.132.251.207a2.682,2.682,0,0,0,3.212.625,2.8,2.8,0,0,0,1.619-2.856C242.474,70.28,242.467,65.734,242.506,61.189Zm-3.319,12.645c0,.014-.037.028-.089.066-.768-.481-1.234-1.492-2.308-1.488s-1.557,1-2.344,1.5c-.234-.122-.123-.338-.124-.5-.007-3.455.008-6.91-.018-10.365,0-.591.127-.818.762-.79,1.195.051,2.393.021,3.59.012.34,0,.57.038.568.473C239.205,66.437,239.2,70.135,239.188,73.834Z" transform="translate(-133.622 0)" fill="#2a2a2a"/>
    </g>
  </g>
</svg>
