<svg xmlns="http://www.w3.org/2000/svg" width="54.039" height="57.119" viewBox="0 0 54.039 57.119">
  <g id="Layer_1" data-name="Layer 1" transform="translate(-60.067 -37.186)">
    <path id="Path_15443" data-name="Path 15443" d="M78.2,196.441a2.478,2.478,0,0,1,2.319-1.175c4.394.008,8.788-.013,13.182.013,1.649.01,2.314.7,2.464,2.365a2.207,2.207,0,0,0,2.138,2.173,2.148,2.148,0,0,0,2.081-2.207c.092-1.53.511-2.045,1.978-2.432a4.209,4.209,0,0,0,3.3-4.208,1.568,1.568,0,0,1,0-.211c1.011-6.494-1.762-12-4.65-17.439a7.891,7.891,0,0,0-6.042-4.118c-.312-.05-.626-.1-.931-.176a2.1,2.1,0,0,1-1.658-2.336,2.075,2.075,0,0,1,2.351-1.772,12.36,12.36,0,0,1,10.329,7c1.286,2.529,2.427,5.136,3.554,7.742a1.307,1.307,0,0,0,1.569.961c.414-.058.844.017,1.264-.015a2.329,2.329,0,0,1,2.657,1.694v1.056a2.711,2.711,0,0,1-2.863,1.494c-1.354-.068-1.327-.013-1.364,1.387a40.557,40.557,0,0,1-.172,6.423,8.033,8.033,0,0,1-4.458,5.919,1.726,1.726,0,0,0-.977,1.1,6.328,6.328,0,0,1-5.549,4.352,6.236,6.236,0,0,1-6.169-3.75,1.142,1.142,0,0,0-1.243-.811c-2.814.038-5.629.027-8.444.007a1.055,1.055,0,0,0-1.187.721,6.225,6.225,0,0,1-6.116,3.835,6.324,6.324,0,0,1-5.649-4.365,1.678,1.678,0,0,0-.9-1.046A8.214,8.214,0,0,1,64.284,191c-.033-1.723-.062-3.451.017-5.171.04-.876-.273-1.092-1.057-1a5.531,5.531,0,0,1-1.264-.015,2.1,2.1,0,0,1,.087-4.189,1.063,1.063,0,0,1,.316-.005c2.192.485,3.228-.568,3.915-2.571a49.341,49.341,0,0,1,2.69-5.942,12.412,12.412,0,0,1,9.2-7,5.943,5.943,0,0,1,.732-.09c1.464-.094,2.395.429,2.679,1.5.323,1.214-.217,2.085-1.69,2.725a3.307,3.307,0,0,1-1,.3,7.869,7.869,0,0,0-5.662,4.179c-1.446,2.814-2.7,5.726-3.97,8.623a4.747,4.747,0,0,0-.444,1.732,71.442,71.442,0,0,0,.019,7.383,3.613,3.613,0,0,0,2.779,3.358,2.986,2.986,0,0,1,2.475,2.875A1.957,1.957,0,0,0,75.85,199.5a2.015,2.015,0,0,0,1.86-1.827C77.786,197.223,77.77,196.745,78.2,196.441Z" transform="translate(0 -109.742)" fill="#dd1928"/>
    <path id="Path_15444" data-name="Path 15444" d="M129.653,222.856c-.068.447-.151.893-.2,1.343a2.173,2.173,0,0,1-2.048,2.034,2.074,2.074,0,0,1-2.125-1.935,2.624,2.624,0,0,0-2.37-2.825,3.99,3.99,0,0,1-2.946-3.93c-.028-2.216-.009-4.432,0-6.648a6.408,6.408,0,0,1,.65-2.642c1.18-2.587,2.316-5.2,3.572-7.747,1.454-2.951,3.742-4.775,7.173-4.859-1.954,2.408-2.845,5.372-4.215,8.084-.38.751-.751,1.51-1.067,2.288-.154.379-.58.753-.192,1.229a4.515,4.515,0,0,1-1.1,1.685c-.893,1.279-.546,2.74-.6,4.14-.023.59,0,1.182.006,1.774.221.262.069.526.007.791a2.371,2.371,0,0,0,2.56,3.109c.271-.011.555-.127.8.1A7.929,7.929,0,0,1,129.653,222.856Z" transform="translate(-51.453 -136.156)" fill="#f4f4f4"/>
    <path id="Path_15445" data-name="Path 15445" d="M154.291,278.369a2.817,2.817,0,0,1,1.1-1.685,4.822,4.822,0,0,1,1.444-.228q11.225.014,22.449.009c1.695,0,2.737,1.1,2.431,2.533a2.041,2.041,0,0,1-2.133,1.674q-11.541.026-23.082,0C155.132,280.666,154.5,279.945,154.291,278.369Z" transform="translate(-80.961 -205.592)" fill="#2a2a2a"/>
    <path id="Path_15446" data-name="Path 15446" d="M150.805,329.835a2.7,2.7,0,0,1-3.093-.671,2.744,2.744,0,0,1-.271-3.33c1.915-1.626,4.009-1.27,4.705.8C152.541,327.808,152.128,328.793,150.805,329.835Z" transform="translate(-74.706 -247.144)" fill="#2a2a2a"/>
    <path id="Path_15447" data-name="Path 15447" d="M320.7,327.208a2.578,2.578,0,1,1,5.154.034,2.577,2.577,0,1,1-5.154-.034Z" transform="translate(-223.944 -246.938)" fill="#2a2a2a"/>
    <path id="Path_15450" data-name="Path 15450" d="M213.907,48.371c-.405-.005-5.941,6.855-6.849,8.963a7.14,7.14,0,0,0,1.549,7.822,7.3,7.3,0,0,0,8.144,1.766c2.844-1.056,4.7-3.221,4.722-6.26C221.512,56,214.312,48.377,213.907,48.371Zm.082,13.963a2.254,2.254,0,0,1-2.124-3.323,16.62,16.62,0,0,1,1.7-2.8c.323-.461.591-.529.93-.018a19.608,19.608,0,0,1,1.709,2.794A2.258,2.258,0,0,1,213.989,62.334Z" transform="translate(-127.056 -11.185)" fill="#2a2a2a"/>
  </g>
</svg>
