<svg xmlns="http://www.w3.org/2000/svg" width="68.457" height="68.525" viewBox="0 0 68.457 68.525">
  <g id="Group_4406" data-name="Group 4406" transform="translate(-24.75 -3.5)">
    <path id="Path_14458" data-name="Path 14458" d="M93.207,10.453a.188.188,0,0,1-.06-.115c0-2.549-1.427-4.26-3.333-5.7A6.7,6.7,0,0,0,86.254,3.5H31.7a.187.187,0,0,1-.115.06c-2.6.014-4.332,1.472-5.771,3.446a6.83,6.83,0,0,0-1.067,3.312V49.494a22.347,22.347,0,0,0,.392,2.69,13.681,13.681,0,0,0,12.977,9.361c4.434.01,8.868,0,13.3,0,1.27,0,2.54-.012,3.81.006.667.01.769.117.78.791.016.98.008,1.961,0,2.941S55.958,66.316,55,66.319c-2.251.009-4.5-.023-6.751.014a2.864,2.864,0,0,0-2.857,2.341c-.336,1.476.665,3.364,2.3,3.326.685-.016,1.379.02,2.068.02q9.927.008,19.853,0a2.856,2.856,0,0,0,2.077-.543,3.048,3.048,0,0,0,.558-3.676,2.966,2.966,0,0,0-2.737-1.478c-2.251,0-4.5.009-6.751-.007-.692,0-.8-.1-.808-.764-.018-1.092,0-2.183-.007-3.275,0-.507.214-.742.721-.725.245.008.49,0,.735,0q8.255,0,16.511,0a12.751,12.751,0,0,0,6.8-1.864c3.567-2.2,5.959-5.224,6.412-9.538.023-.216-.049-.449.084-.651V31.444a3.225,3.225,0,0,0-.564-1.537,2.979,2.979,0,0,0-5.07,2.248c-.01,5.166,0,10.331-.005,15.5a7.78,7.78,0,0,1-8,7.968q-20.239,0-40.479,0a2.618,2.618,0,0,1-1.125,0,7.79,7.79,0,0,1-7.574-7.93q-.005-5.281,0-10.562,0-5.615,0-11.231c0-.828.08-.86.888-.773a7.542,7.542,0,0,0,4.168-.632,4.763,4.763,0,0,0,1.523-.819.942.942,0,0,1,1.251.009,8.137,8.137,0,0,0,9.408.014,1.035,1.035,0,0,1,1.309,0,8.137,8.137,0,0,0,9.408-.009,1,1,0,0,1,1.254-.014,8.147,8.147,0,0,0,9.463,0,.95.95,0,0,1,1.2-.022,8.154,8.154,0,0,0,9.519.009.919.919,0,0,1,1.2.008,8.544,8.544,0,0,0,3.568,1.407c4.247.757,8.435-2.629,8.583-6.352.009-.213-.06-.447.08-.648Zm-5.35,6.428c-.035,1.639-.829,2.642-2.11,2.662a2.664,2.664,0,0,1-2.7-2.654,2.671,2.671,0,0,0-5.339-.152,2.811,2.811,0,0,1-.929,2.134,2.524,2.524,0,0,1-2.8.447,2.591,2.591,0,0,1-1.628-2.4A2.676,2.676,0,1,0,67,16.908a2.6,2.6,0,0,1-1.56,2.379,2.525,2.525,0,0,1-2.763-.325,2.6,2.6,0,0,1-1.023-2.017,2.677,2.677,0,1,0-5.351,0,2.673,2.673,0,0,1-5.343.028,2.679,2.679,0,1,0-5.354.011,2.674,2.674,0,0,1-5.345-.116,2.675,2.675,0,0,0-5.35.02,2.617,2.617,0,0,1-.644,1.714,2.588,2.588,0,0,1-2.648.844,2.142,2.142,0,0,1-1.481-2.167c-.073-2-.074-4.011-.012-6.015a2.59,2.59,0,0,1,2.581-2.41c.958-.024,1.916-.006,2.874-.007h49.2a2.733,2.733,0,0,1,3.075,3.085q0,2.273,0,4.546C87.859,16.613,87.86,16.747,87.857,16.881Z" transform="translate(0 0)" fill="#dd1928"/>
    <path id="Path_14459" data-name="Path 14459" d="M60.109,119.862q.006,6.162.012,12.325a.518.518,0,0,1,0,.565,2.7,2.7,0,0,0,0,2.255.52.52,0,0,1,.006.566c0,2.867-.1,5.737.014,8.6a9.963,9.963,0,0,0,2.474,6.2,8.6,8.6,0,0,0,1.106,1.141,8.115,8.115,0,0,1-8.518-5.4,7.227,7.227,0,0,1-.436-2.351q-.007-11.554,0-23.108c0-.13.022-.259.039-.437A8.188,8.188,0,0,0,60.109,119.862Z" transform="translate(-24.658 -95.618)" fill="#f6f6f6"/>
    <path id="Path_14460" data-name="Path 14460" d="M82.33,163.211a2.9,2.9,0,0,1,0-3.387c1.829-1.82,3.65-3.649,5.491-5.457a2.677,2.677,0,1,1,3.808,3.757c-.977,1.005-1.966,2-2.977,2.97-.337.324-.338.524,0,.848.98.939,1.933,1.906,2.885,2.873a2.688,2.688,0,1,1-3.813,3.761Q85.023,165.9,82.33,163.211Z" transform="translate(-46.867 -123.255)" fill="#2a2a2a"/>
    <path id="Path_14461" data-name="Path 14461" d="M302.432,161.516a2.684,2.684,0,0,1-.8,1.911c-1.776,1.784-3.541,3.579-5.345,5.334a2.67,2.67,0,1,1-3.748-3.8c.957-1,1.924-1.984,2.936-2.923.454-.422.389-.657-.022-1.045-.957-.9-1.873-1.844-2.795-2.781a2.684,2.684,0,1,1,3.8-3.773c1.693,1.678,3.37,3.372,5.06,5.052A2.869,2.869,0,0,1,302.432,161.516Z" transform="translate(-219.386 -123.257)" fill="#2a2a2a"/>
    <path id="Path_14462" data-name="Path 14462" d="M187.782,161.484c0-1.715.006-3.43,0-5.144a2.67,2.67,0,0,0-2.835-2.85q-5.178-.01-10.356,0a2.666,2.666,0,0,0-2.85,2.833q-.01,5.178,0,10.356a2.669,2.669,0,0,0,2.834,2.852q5.178.01,10.356,0a2.673,2.673,0,0,0,2.852-2.835C187.788,164.958,187.782,163.221,187.782,161.484Zm-5.342,2.288c0,.312-.078.422-.406.418q-2.268-.024-4.537,0c-.312,0-.422-.078-.418-.406.016-1.512.021-3.025,0-4.537-.006-.391.165-.423.476-.417.756.016,1.512.005,2.269.005.734,0,1.468.014,2.2-.006.313-.008.422.078.418.406Q182.416,161.5,182.44,163.773Z" transform="translate(-120.781 -123.247)" fill="#dd1928"/>
  </g>
</svg>
