<svg xmlns="http://www.w3.org/2000/svg" width="68.159" height="65.313" viewBox="0 0 68.159 65.313">
  <g id="Group_4405" data-name="Group 4405" transform="translate(-10.5 15.511)">
    <path id="Path_14452" data-name="Path 14452" d="M10.5,3.521a4.008,4.008,0,0,0,.355-1.437,16,16,0,0,1,15.21-12.627,2.74,2.74,0,0,1,3.055,2.324,2.7,2.7,0,0,1-2.245,2.977,40.873,40.873,0,0,0-4.079.882A10.594,10.594,0,0,0,16.017,5.2q-.013,11.074,0,22.148a10.44,10.44,0,0,0,9.825,10.324,1.575,1.575,0,0,1,.766.187c.177.011.353.032.53.032q17.737,0,35.474,0a10.583,10.583,0,0,0,10.521-8.6,10.947,10.947,0,0,0,.2-2.248q-.008-10.682,0-21.364a10.649,10.649,0,0,0-10.493-10.9,2.694,2.694,0,0,1-2.792-2.246,2.693,2.693,0,0,1,2.7-3.081A16.072,16.072,0,0,1,78.393,2.553,18.706,18.706,0,0,1,78.658,5.6c0,7.166.007,14.331,0,21.5A15.945,15.945,0,0,1,62.48,43.225q-17.9-.005-35.807,0a15.941,15.941,0,0,1-16.033-13.8c-.019-.123.025-.275-.141-.337Z" transform="translate(0 -4.076)" fill="#dd1928"/>
    <path id="Path_14453" data-name="Path 14453" d="M51.267,62.487c-4.74.308-9.463-3.394-10.517-8.241a12.289,12.289,0,0,1-.269-2.638q.009-10.573,0-21.147A10.656,10.656,0,0,1,51.07,19.391c.154-.007.309-.007.464-.01a10.927,10.927,0,0,0-3.7,4.061,13.908,13.908,0,0,0-1.77,7.116c.029,7.183-.021,14.366.024,21.549a12.634,12.634,0,0,0,3.7,8.964C50.26,61.562,50.772,62.016,51.267,62.487Z" transform="translate(-24.66 -28.699)" fill="#f6f6f6"/>
    <path id="Path_14454" data-name="Path 14454" d="M130.974,327.751c-4.213,0-8.426.012-12.639-.005a2.611,2.611,0,0,1-2.672-3.427,2.42,2.42,0,0,1,1.943-1.791,5.557,5.557,0,0,1,1.122-.1q12.273-.008,24.546-.006a4,4,0,0,1,1.376.176,2.676,2.676,0,0,1,1.739,2.895,2.628,2.628,0,0,1-2.511,2.244c-.975.032-1.951.011-2.927.011Z" transform="translate(-86.394 -277.956)" fill="#dd1928"/>
    <path id="Path_14455" data-name="Path 14455" d="M133.525.847a8.05,8.05,0,0,0-6.083-7,16.81,16.81,0,0,0-4.037-.223c-.623.018-.888-.124-.819-.794a6.815,6.815,0,0,0-.14-1.916,7.662,7.662,0,0,0-6.126-6.246,8.037,8.037,0,0,0-8.217,3.128,8.747,8.747,0,0,0-1.467,5.156c0,.528-.147.7-.673.668-.707-.043-1.419-.017-2.129-.009a7.982,7.982,0,0,0-6.451,3.014,7.276,7.276,0,0,0-1.707,5.562c.348,2.92.816,5.826,1.195,8.743a10.57,10.57,0,0,0,10.446,9.3c2.418.016,4.836,0,7.253,0,2.374,0,4.747.006,7.121,0a10.474,10.474,0,0,0,10.467-8.475c.417-2.033.665-4.1.923-6.166A23,23,0,0,0,133.525.847ZM114.255-10.17a2.589,2.589,0,0,1,3,2.289c.137,1.488.137,1.488-1.336,1.488h-1.261c-.752,0-1.5,0-2.257,0-.195,0-.423.032-.448-.26C111.823-8.185,112.314-9.9,114.255-10.17ZM128.2,1.884c-.389,2.894-.777,5.788-1.229,8.673A5.189,5.189,0,0,1,121.9,14.9c-2.44.024-4.88.005-7.321.005v0c-2.285,0-4.573-.079-6.854.021a5.456,5.456,0,0,1-5.635-4.913q-.51-3.982-1.106-7.953a2.68,2.68,0,0,1,2.638-3.122c.841-.038,1.686.009,2.529-.014.4-.011.482.17.476.521-.015.931-.033,1.864,0,2.795A2.6,2.6,0,0,0,109.4,4.913a2.553,2.553,0,0,0,2.542-2.737c.009-.776,0-1.553,0-2.329,0-.914,0-.914.891-.915h2.928c1.505,0,1.493,0,1.511,1.543a10.891,10.891,0,0,0,.1,2.386,2.639,2.639,0,0,0,5.216-.515c.02-.931.024-1.864,0-2.795-.012-.448.113-.655.6-.624a19.542,19.542,0,0,1,2.984.11A2.546,2.546,0,0,1,128.2,1.884Z" transform="translate(-70.016)" fill="#2a2a2a"/>
  </g>
</svg>
