<svg xmlns="http://www.w3.org/2000/svg" width="50.5" height="50.5" viewBox="0 0 50.5 50.5">
  <g id="android" transform="translate(-312 -756)">
    <path id="Vector" d="M32.294,50.5H18.2C5.449,50.5,0,45.048,0,32.294V18.2C0,5.449,5.449,0,18.2,0H32.294C45.048,0,50.5,5.449,50.5,18.2V32.294C50.5,45.048,45.048,50.5,32.294,50.5ZM18.2,3.523C7.375,3.523,3.523,7.375,3.523,18.2V32.294c0,10.827,3.852,14.679,14.679,14.679H32.294c10.827,0,14.679-3.852,14.679-14.679V18.2c0-10.827-3.852-14.679-14.679-14.679Z" transform="translate(312 756)" fill="#dd1928"/>
    <g id="Group_4" data-name="Group 4" transform="translate(818.148 -413.123)">
      <path id="Path_22" data-name="Path 22" d="M-485.749,1201.19a1.938,1.938,0,0,1-1.783-.563,2.609,2.609,0,0,1-.381-1.838c-.083.029-.142.045-.2.068a2.151,2.151,0,0,1-3.031-1.983q-.013-2.946,0-5.892a2.15,2.15,0,0,1,3.069-1.974c.043.019.087.035.164.065a7.085,7.085,0,0,1,.907-3.183,7.1,7.1,0,0,1,2.246-2.406l-1.169-1.745.892-.6,1.2,1.784c.507-.15.987-.327,1.482-.433a6.788,6.788,0,0,1,4.124.379c.176.073.252.035.347-.112.353-.543.72-1.077,1.1-1.634l.894.6-1.17,1.746a7.07,7.07,0,0,1,3.167,5.564,5.52,5.52,0,0,1,.887-.21,2.109,2.109,0,0,1,2.341,2.113c.029,2,.038,3.993,0,5.989a2.138,2.138,0,0,1-3.072,1.914c-.043-.019-.088-.032-.159-.058,0,.272,0,.521,0,.77a1.6,1.6,0,0,1-1.642,1.648c-.16,0-.321,0-.509,0,0,.111,0,.2,0,.284,0,.812.008,1.623,0,2.435a2.158,2.158,0,0,1-1.949,2.131,2.153,2.153,0,0,1-2.3-1.676,2.948,2.948,0,0,1-.059-.628c-.007-.747,0-1.493,0-2.24v-.286h-1.079c0,.091,0,.178,0,.264,0,.82.01,1.639,0,2.459a2.139,2.139,0,0,1-2.259,2.111,2.134,2.134,0,0,1-2.033-2.041c-.022-.835-.007-1.672-.009-2.508C-485.749,1201.416-485.749,1201.328-485.749,1201.19Zm10.777-11.293H-486.83v8.645c0,.3,0,.6,0,.9,0,.5.18.677.672.678.422,0,.844,0,1.266,0,.069,0,.139.01.221.017v.288c0,1.136-.01,2.272.008,3.408a1.417,1.417,0,0,0,.184.663,1.031,1.031,0,0,0,1.19.435,1.062,1.062,0,0,0,.766-1.014c.006-1.168,0-2.337,0-3.505v-.274h3.239v.573c0,1.039,0,2.077,0,3.116a1.076,1.076,0,0,0,.776,1.106,1.078,1.078,0,0,0,1.38-1.081c.007-1.152,0-2.3,0-3.457v-.275h1.443c.543,0,.708-.167.708-.714q0-4.613,0-9.225Zm-.053-1.1a5.855,5.855,0,0,0-5.711-5.376,5.887,5.887,0,0,0-6.053,5.376Zm1.14,5.128c0,.422,0,.843,0,1.265,0,.616-.018,1.234.021,1.847a1.038,1.038,0,0,0,1.276.908,1.085,1.085,0,0,0,.853-1.167q0-2.846,0-5.691a1.893,1.893,0,0,0-.017-.267,1.025,1.025,0,0,0-.713-.873,1.063,1.063,0,0,0-1.418,1.06C-473.891,1191.976-473.884,1192.949-473.885,1193.922Zm-14.04-.009c0-.981,0-1.962,0-2.943a1.047,1.047,0,0,0-1.039-1.085,1.062,1.062,0,0,0-1.1,1.06q-.013,2.98,0,5.96a1.073,1.073,0,0,0,1.1,1.065,1.054,1.054,0,0,0,1.039-1.089C-487.923,1195.892-487.925,1194.9-487.925,1193.913Z" fill="#292d32"/>
      <path id="Path_23" data-name="Path 23" d="M-352.288,1280.977v-1.053h1.053v1.053Z" transform="translate(-131.837 -93.804)" fill="#292d32"/>
      <path id="Path_24" data-name="Path 24" d="M-245.565,1280.974v-1.047h1.053v1.047Z" transform="translate(-233.162 -93.807)" fill="#292d32"/>
    </g>
  </g>
</svg>
