<svg xmlns="http://www.w3.org/2000/svg" width="50.5" height="50.5" viewBox="0 0 50.5 50.5">
  <g id="frontend" transform="translate(-253 -822)">
    <path id="Vector" d="M32.294,50.5H18.2C5.449,50.5,0,45.048,0,32.294V18.2C0,5.449,5.449,0,18.2,0H32.294C45.048,0,50.5,5.449,50.5,18.2V32.294C50.5,45.048,45.048,50.5,32.294,50.5ZM18.2,3.523C7.375,3.523,3.523,7.375,3.523,18.2V32.294c0,10.827,3.852,14.679,14.679,14.679H32.294c10.827,0,14.679-3.852,14.679-14.679V18.2c0-10.827-3.852-14.679-14.679-14.679Z" transform="translate(253 822)" fill="#dd1928"/>
    <g id="Group_1" data-name="Group 1" transform="translate(587.25 439.621)">
      <path id="Path_8" data-name="Path 8" d="M-296.427,397.962v18.4a2.241,2.241,0,0,1-2.353,1.5c-6.7-.026-13.4-.013-20.1-.013a2.063,2.063,0,0,1-2.369-1.574V397.962a2.168,2.168,0,0,1,2.413-1.582c2.193.045,4.387.013,6.581.013q6.794,0,13.589,0a1.871,1.871,0,0,1,1.476.42A8.075,8.075,0,0,1-296.427,397.962Zm-23.147,4.228c-.008.152-.023.291-.023.429q0,6.438,0,12.877c0,.7,0,.7.721.7h20.15c.625,0,.651-.024.651-.647q0-6.439,0-12.877v-.483Zm21.5-1.694c0-.631,0-1.24,0-1.849,0-.561-.039-.6-.614-.6h-20.029c-.88,0-.88,0-.879.889q0,.779,0,1.558Z" fill="#292d32"/>
      <path id="Path_9" data-name="Path 9" d="M-232.381,466.128a4.671,4.671,0,0,1-.235.579q-2.29,3.983-4.589,7.961a.853.853,0,0,1-.888.531.817.817,0,0,1-.586-1.293c.579-1.031,1.176-2.052,1.767-3.075q1.443-2.5,2.892-4.992a.814.814,0,0,1,1.353-.219A2.386,2.386,0,0,1-232.381,466.128Z" transform="translate(-73.021 -61.095)" fill="#292d32"/>
      <path id="Path_10" data-name="Path 10" d="M-288.977,477.151c.847.849,1.675,1.672,2.5,2.5a.788.788,0,0,1,.174,1.108.785.785,0,0,1-1.221.171q-1.641-1.594-3.239-3.233a.779.779,0,0,1,0-1.122q1.588-1.618,3.206-3.207a.776.776,0,0,1,1.146.015.8.8,0,0,1-.036,1.212C-287.276,475.445-288.113,476.281-288.977,477.151Z" transform="translate(-26.793 -67.988)" fill="#292d32"/>
      <path id="Path_11" data-name="Path 11" d="M-173.679,477.159l-2.256-2.228c-.091-.09-.185-.178-.272-.272a.814.814,0,0,1-.042-1.243.809.809,0,0,1,1.211.068c.43.417.848.846,1.271,1.269.585.584,1.173,1.166,1.754,1.754a.848.848,0,0,1,.007,1.345q-1.5,1.52-3.024,3.023a.807.807,0,0,1-1.243.046.789.789,0,0,1,.06-1.208c.738-.753,1.491-1.492,2.237-2.238C-173.886,477.385-173.8,477.29-173.679,477.159Z" transform="translate(-128.207 -68.03)" fill="#292d32"/>
      <path id="Path_12" data-name="Path 12" d="M-294.922,416.935a.651.651,0,0,1-.618.635.647.647,0,0,1-.622-.587.65.65,0,0,1,.6-.657A.647.647,0,0,1-294.922,416.935Z" transform="translate(-22.224 -17.671)" fill="#292d32"/>
      <path id="Path_13" data-name="Path 13" d="M-260.6,417.557a.632.632,0,0,1-.605-.644.642.642,0,0,1,.653-.6.645.645,0,0,1,.585.625A.632.632,0,0,1-260.6,417.557Z" transform="translate(-53.193 -17.66)" fill="#292d32"/>
      <path id="Path_14" data-name="Path 14" d="M-278.053,417.582a.631.631,0,0,1-.6-.642.629.629,0,0,1,.643-.6.636.636,0,0,1,.585.619A.637.637,0,0,1-278.053,417.582Z" transform="translate(-37.732 -17.681)" fill="#292d32"/>
    </g>
  </g>
</svg>
