<svg xmlns="http://www.w3.org/2000/svg" width="50.5" height="50.5" viewBox="0 0 50.5 50.5">
  <g id="ios" transform="translate(-253.088 -756)">
    <path id="Vector" d="M32.294,50.5H18.2C5.449,50.5,0,45.048,0,32.294V18.2C0,5.449,5.449,0,18.2,0H32.294C45.048,0,50.5,5.449,50.5,18.2V32.294C50.5,45.048,45.048,50.5,32.294,50.5ZM18.2,3.523C7.375,3.523,3.523,7.375,3.523,18.2V32.294c0,10.827,3.852,14.679,14.679,14.679H32.294c10.827,0,14.679-3.852,14.679-14.679V18.2c0-10.827-3.852-14.679-14.679-14.679Z" transform="translate(253.088 756)" fill="#dd1928"/>
    <g id="Group_3" data-name="Group 3" transform="translate(1075.164 429.164)">
      <path id="Path_20" data-name="Path 20" d="M-786.684,471.332a4.651,4.651,0,0,0-3.21,2.017,4.249,4.249,0,0,0-.686,2.539,4.245,4.245,0,0,0,.624,2.047,4.377,4.377,0,0,0,1.549,1.512,5.6,5.6,0,0,0,2.114.622c-.272.726-.508,1.432-.8,2.113a8.759,8.759,0,0,1-2.033,3,4.524,4.524,0,0,1-5.386.814,4.757,4.757,0,0,0-1.971-.542,3.778,3.778,0,0,0-1.78.414,5.65,5.65,0,0,1-2.345.652,4.486,4.486,0,0,1-3.443-1.422,9.989,9.989,0,0,1-2.432-4.18,16.8,16.8,0,0,1-.834-6.42,6.827,6.827,0,0,1,5.142-6.237,6.33,6.33,0,0,1,3.741.338c.491.189,1,.341,1.49.52a1.2,1.2,0,0,0,.83.005,24.25,24.25,0,0,1,2.511-.828,6.046,6.046,0,0,1,6.224,2.143C-787.143,470.708-786.935,471.007-786.684,471.332Zm-1.843-.567a4.992,4.992,0,0,0-4.805-1.426,22.161,22.161,0,0,0-2.326.769,2.458,2.458,0,0,1-1.733,0c-.616-.225-1.237-.434-1.858-.646a4.9,4.9,0,0,0-2.754-.139,5.738,5.738,0,0,0-4.245,5.276,15.594,15.594,0,0,0,.911,6.259,8.83,8.83,0,0,0,2.094,3.491,3.362,3.362,0,0,0,2.929,1.052,5.026,5.026,0,0,0,1.561-.512,4.856,4.856,0,0,1,2.564-.519,5.522,5.522,0,0,1,2.081.615,3.554,3.554,0,0,0,4.484-.825,7.686,7.686,0,0,0,1.279-1.854c.225-.454.42-.923.628-1.385a5.292,5.292,0,0,1-3.912-4.838A5.329,5.329,0,0,1-788.527,470.765Z" transform="translate(0 -121.755)" fill="#292d32"/>
      <path id="Path_21" data-name="Path 21" d="M-605.039,345.855c-.036-1.981.2-3.787,1.88-5.042a5.039,5.039,0,0,1,2.58-.9c.481-.048.967-.049,1.505-.074-.025.542-.026,1.05-.076,1.552a5.11,5.11,0,0,1-.907,2.555,4.379,4.379,0,0,1-3.006,1.742C-603.7,345.786-604.359,345.8-605.039,345.855Zm4.81-4.89a3.881,3.881,0,0,0-2.827,1.232,4.1,4.1,0,0,0-.884,2.508A3.528,3.528,0,0,0-600.229,340.965Z" transform="translate(-192.03 0)" fill="#292d32"/>
    </g>
  </g>
</svg>
