<svg xmlns="http://www.w3.org/2000/svg" width="50.5" height="50.5" viewBox="0 0 50.5 50.5">
  <g id="java" transform="translate(-371 -756)">
    <path id="Vector" d="M32.294,50.5H18.2C5.449,50.5,0,45.048,0,32.294V18.2C0,5.449,5.449,0,18.2,0H32.294C45.048,0,50.5,5.449,50.5,18.2V32.294C50.5,45.048,45.048,50.5,32.294,50.5ZM18.2,3.523C7.375,3.523,3.523,7.375,3.523,18.2V32.294c0,10.827,3.852,14.679,14.679,14.679H32.294c10.827,0,14.679-3.852,14.679-14.679V18.2c0-10.827-3.852-14.679-14.679-14.679Z" transform="translate(371 756)" fill="#dd1928"/>
    <g id="java-2" data-name="java" transform="translate(333.259 756.496)">
      <path id="Path_2" data-name="Path 2" d="M73.416,91.932s-1.186.69.845.923a17.767,17.767,0,0,0,6.43-.272,11.192,11.192,0,0,0,1.71.834C76.321,96.022,68.641,93.266,73.416,91.932Zm-.743-3.4s-1.331.985.7,1.2a25.09,25.09,0,0,0,8.3-.4,3.673,3.673,0,0,0,1.277.779C75.6,92.258,67.414,90.277,72.672,88.532Z" transform="translate(-14.299 -59.411)" fill="#292d32" fill-rule="evenodd"/>
      <path id="Path_3" data-name="Path 3" d="M97.838,41.634c1.5,1.725-.393,3.277-.393,3.277s3.8-1.963,2.057-4.423c-1.631-2.293-2.883-3.432,3.891-7.359C103.393,33.129,92.761,35.783,97.838,41.634Z" transform="translate(-33.202 -18.281)" fill="#292d32" fill-rule="evenodd"/>
      <path id="Path_4" data-name="Path 4" d="M72.678,83.432s.878.724-.967,1.284C68.2,85.778,57.1,86.1,54.022,84.758c-1.107-.482.97-1.151,1.624-1.292a4.25,4.25,0,0,1,1.071-.121c-1.232-.868-7.965,1.7-3.419,2.442,12.395,2.01,22.595-.9,19.38-2.355Zm-12.99-9.438s-5.644,1.341-2,1.828a42.415,42.415,0,0,0,7.467-.081c2.336-.2,4.681-.615,4.681-.615a9.986,9.986,0,0,0-1.42.76c-5.732,1.508-16.8.806-13.617-.736a10.667,10.667,0,0,1,4.887-1.155Zm10.126,5.659c5.827-3.027,3.133-5.937,1.252-5.545a4.429,4.429,0,0,0-.666.179,1.061,1.061,0,0,1,.5-.384c3.72-1.307,6.581,3.857-1.2,5.9A.516.516,0,0,0,69.813,79.653Z" transform="translate(0 -48.396)" fill="#292d32" fill-rule="evenodd"/>
      <path id="Path_5" data-name="Path 5" d="M87.569,8.5s3.226,3.228-3.061,8.191c-5.042,3.982-1.15,6.252,0,8.847-2.944-2.655-5.1-4.993-3.654-7.169C82.979,15.18,88.871,13.631,87.569,8.5Z" transform="translate(-21.268)" fill="#292d32" fill-rule="evenodd"/>
      <path id="Path_6" data-name="Path 6" d="M72.16,120.475c5.592.358,14.181-.2,14.385-2.845,0,0-.391,1-4.622,1.8a45.959,45.959,0,0,1-14.153.218S68.484,120.239,72.16,120.475Z" transform="translate(-11.899 -81.012)" fill="#292d32" fill-rule="evenodd"/>
    </g>
  </g>
</svg>
