<svg xmlns="http://www.w3.org/2000/svg" width="50.5" height="50.5" viewBox="0 0 50.5 50.5">
  <g id="ui-ux" transform="translate(-311 -822)">
    <path id="Vector" d="M32.294,50.5H18.2C5.449,50.5,0,45.048,0,32.294V18.2C0,5.449,5.449,0,18.2,0H32.294C45.048,0,50.5,5.449,50.5,18.2V32.294C50.5,45.048,45.048,50.5,32.294,50.5ZM18.2,3.523C7.375,3.523,3.523,7.375,3.523,18.2V32.294c0,10.827,3.852,14.679,14.679,14.679H32.294c10.827,0,14.679-3.852,14.679-14.679V18.2c0-10.827-3.852-14.679-14.679-14.679Z" transform="translate(311 822)" fill="#dd1928"/>
    <g id="Group_2" data-name="Group 2" transform="translate(830.929 380.145)">
      <path id="Path_15" data-name="Path 15" d="M-482.19,634.587a.607.607,0,0,1-.573.272q-11.8-.005-23.6,0a1.029,1.029,0,0,1-.263-.024.375.375,0,0,1-.3-.389.373.373,0,0,1,.3-.389,1.165,1.165,0,0,1,.287-.024q11.778,0,23.556,0a.628.628,0,0,1,.6.272Z" transform="translate(0 -167.625)" fill="#292d32"/>
      <path id="Path_16" data-name="Path 16" d="M-448.439,669.654c0,.966,0,1.933,0,2.9a3.77,3.77,0,0,1-4.072,3.784,3.715,3.715,0,0,1-3.316-3.2,6.989,6.989,0,0,1-.039-.723q0-2.887,0-5.774c0-.477.124-.6.6-.6.314,0,.628,0,.942,0,.379,0,.523.147.523.53,0,2.005,0,4.01,0,6.016a1.676,1.676,0,0,0,1.361,1.672,1.626,1.626,0,0,0,1.923-1.517c.022-.781.007-1.562.008-2.343q0-1.9,0-3.793c0-.428.136-.563.563-.565.33,0,.66,0,.99,0,.364,0,.513.151.513.517Q-448.437,668.108-448.439,669.654Z" transform="translate(-47.77 -197.58)" fill="#292d32"/>
      <path id="Path_17" data-name="Path 17" d="M-455.913,458.511q0-1.51,0-3.019c0-.477.119-.594.6-.6.314,0,.628,0,.942,0,.383,0,.521.143.521.529,0,2,0,4.01,0,6.015a1.689,1.689,0,0,0,1.2,1.634,1.631,1.631,0,0,0,2.087-1.508c.019-.837.006-1.675.006-2.512q0-1.788,0-3.575c0-.46.123-.581.591-.582.338,0,.676-.005,1.014,0a.412.412,0,0,1,.461.466c0,2.061.027,4.123-.008,6.184a3.767,3.767,0,0,1-3.8,3.656,3.719,3.719,0,0,1-3.617-3.7C-455.923,460.508-455.913,459.509-455.913,458.511Z" transform="translate(-47.725 -0.036)" fill="#292d32"/>
      <path id="Path_18" data-name="Path 18" d="M-298.123,666.054h3.55c.44,0,.571.134.572.581q0,.459,0,.918c0,.429-.139.568-.561.569h-2.2c-.409,0-.544.127-.545.527q0,2.56,0,5.12c0,.4.145.536.541.537.749,0,1.5,0,2.246,0,.369,0,.512.142.515.51,0,.314,0,.628,0,.942,0,.482-.119.6-.6.6h-6.546c-.217,0-.435.005-.652,0a.416.416,0,0,1-.459-.468q-.007-.555,0-1.111a.417.417,0,0,1,.474-.475c.757,0,1.514,0,2.27,0,.416,0,.55-.133.55-.548q0-2.548,0-5.1c0-.419-.126-.54-.551-.541-.733,0-1.465,0-2.2,0-.41,0-.546-.141-.547-.556,0-.33,0-.66,0-.99,0-.378.147-.521.531-.521Q-299.923,666.053-298.123,666.054Z" transform="translate(-191.485 -197.59)" fill="#292d32"/>
      <path id="Path_19" data-name="Path 19" d="M-307.568,465.171c-.129,0-.258,0-.387,0-.209.007-.409-.01-.521-.223a.494.494,0,0,1,.108-.554q1.425-1.994,2.844-3.993c.239-.336.239-.443,0-.775q-1.421-2-2.844-3.993a.5.5,0,0,1-.11-.555c.1-.2.3-.222.5-.219.282,0,.564.007.846,0a.552.552,0,0,1,.506.263c.658.935,1.323,1.865,1.986,2.8.311.436.569.438.877,0,.654-.918,1.312-1.833,1.956-2.758a.633.633,0,0,1,.606-.307c.257.014.515.006.773,0,.21,0,.407.015.514.233a.486.486,0,0,1-.113.533q-1.423,2-2.843,3.994c-.254.357-.254.43,0,.793q1.413,1.988,2.827,3.976c.122.17.23.34.12.553a.492.492,0,0,1-.517.232c-.258-.006-.516-.012-.773,0a.616.616,0,0,1-.586-.3c-.655-.937-1.321-1.866-1.985-2.8-.283-.4-.552-.4-.833,0-.631.885-1.273,1.762-1.884,2.661a.808.808,0,0,1-.855.438A1.4,1.4,0,0,0-307.568,465.171Z" transform="translate(-185.621)" fill="#292d32"/>
    </g>
  </g>
</svg>
