<svg xmlns="http://www.w3.org/2000/svg" width="50.5" height="50.5" viewBox="0 0 50.5 50.5">
  <g id="web_app_development" data-name="web app development" transform="translate(-364 -658)">
    <path id="Vector" d="M32.294,50.5H18.2C5.449,50.5,0,45.048,0,32.294V18.2C0,5.449,5.449,0,18.2,0H32.294C45.048,0,50.5,5.449,50.5,18.2V32.294C50.5,45.048,45.048,50.5,32.294,50.5ZM18.2,3.523C7.375,3.523,3.523,7.375,3.523,18.2V32.294c0,10.827,3.852,14.679,14.679,14.679H32.294c10.827,0,14.679-3.852,14.679-14.679V18.2c0-10.827-3.852-14.679-14.679-14.679Z" transform="translate(364 658)" fill="#dd1928"/>
    <g id="Group_13" data-name="Group 13" transform="translate(808.291 -87.23)">
      <path id="Path_27" data-name="Path 27" d="M-411.516,755.23a4.34,4.34,0,0,1,.513.177,1.822,1.822,0,0,1,1.084,1.727c.011.816,0,1.632,0,2.448v22.87a1.953,1.953,0,0,1-1.6,2.279H-425.69a4.675,4.675,0,0,1-.713-.291,1.808,1.808,0,0,1-.886-1.643c0-.806,0-1.613,0-2.419v-20.8c0-.787,0-1.574,0-2.361a1.853,1.853,0,0,1,1.523-1.952.385.385,0,0,0,.076-.039Zm.9,4.217h-15.96v21.061h15.96Zm-.007-.725a1.015,1.015,0,0,0,.019-.12c0-.48.007-.96,0-1.439a1.166,1.166,0,0,0-1.251-1.236q-6.736,0-13.473,0c-.058,0-.115,0-.173,0a1.062,1.062,0,0,0-1.024.823c-.066.649-.017,1.31-.017,1.971Zm-15.937,22.509a.514.514,0,0,0-.031.107c0,.5-.011,1,0,1.5a1.158,1.158,0,0,0,1.229,1.2q6.765,0,13.53,0a1.16,1.16,0,0,0,1.228-1.2c.01-.47,0-.94,0-1.411a1.191,1.191,0,0,0-.032-.191Z" transform="translate(0)" fill="#292d32"/>
      <path id="Path_28" data-name="Path 28" d="M-388.679,926.381a2.218,2.218,0,0,1,.317-.516.935.935,0,0,0,.245-1.32c-.188-.344-.32-.571-.73-.51a.265.265,0,0,1-.057,0c-.847-.065-.968-.2-.968-1.037,0-.106,0-.211,0-.317a.644.644,0,0,1,.644-.7c.238-.025.478-.051.717-.055a.251.251,0,0,0,.279-.214,2.68,2.68,0,0,1,.267-.664.376.376,0,0,0-.077-.545,4.986,4.986,0,0,1-.412-.48.608.608,0,0,1,.035-.88c.165-.174.335-.344.51-.508a.613.613,0,0,1,.858-.046,6.989,6.989,0,0,1,.57.484.288.288,0,0,0,.4.055,2.69,2.69,0,0,1,.661-.276.363.363,0,0,0,.307-.4,6.08,6.08,0,0,1,.067-.745.581.581,0,0,1,.6-.515c.259-.008.518-.008.777,0a.581.581,0,0,1,.6.514c.046.283.044.575.095.857a.41.41,0,0,0,.2.247c.247.125.516.207.762.333a.261.261,0,0,0,.352-.049c.188-.177.388-.344.592-.5a.614.614,0,0,1,.858.044q.263.246.51.508a.61.61,0,0,1,.036.88c-.16.2-.347.387-.495.6a.408.408,0,0,0-.035.318,6.425,6.425,0,0,0,.329.795.366.366,0,0,0,.23.179c.245.041.5.043.744.069a.643.643,0,0,1,.645.7c0,.221.007.442,0,.662a.617.617,0,0,1-.594.651c-.314.037-.7-.031-.923.127-.211.146-.227.548-.384.8a.392.392,0,0,0,.078.568,4.365,4.365,0,0,1,.428.5.6.6,0,0,1-.044.836c-.169.183-.346.36-.529.53a.6.6,0,0,1-.859.033c-.2-.16-.4-.328-.592-.5a.253.253,0,0,0-.349-.043,2.431,2.431,0,0,1-.657.282c-.264.057-.329.2-.335.437a5.293,5.293,0,0,1-.059.687.577.577,0,0,1-.576.54,5.741,5.741,0,0,1-.834,0,.575.575,0,0,1-.574-.541c-.041-.275-.039-.556-.088-.829a.408.408,0,0,0-.2-.25c-.247-.123-.519-.2-.763-.327a.257.257,0,0,0-.349.045c-.183.17-.374.33-.569.486a.615.615,0,0,1-.9-.037,5.564,5.564,0,0,1-.485-.491A3.309,3.309,0,0,1-388.679,926.381Zm.792-6.763c.226.266.436.528.663.775a.485.485,0,0,1,.057.644,6.336,6.336,0,0,0-.469,1.135.494.494,0,0,1-.5.42c-.342.017-.683.053-1.032.081v.635c.367.032.719.074,1.072.09a.448.448,0,0,1,.443.365,10.581,10.581,0,0,0,.5,1.215.449.449,0,0,1-.048.572c-.239.27-.466.549-.677.8l.423.483c.3-.254.578-.488.853-.727a.433.433,0,0,1,.527-.041c.405.189.819.365,1.24.514a.456.456,0,0,1,.365.448c.013.3.052.593.061.89.008.257.189.2.329.193s.346.086.356-.194.051-.574.059-.861a.472.472,0,0,1,.4-.483,7.721,7.721,0,0,0,1.162-.478.479.479,0,0,1,.622.049c.26.236.533.458.752.645l.512-.4c-.258-.305-.489-.586-.729-.86a.423.423,0,0,1-.045-.524,13.173,13.173,0,0,0,.517-1.24.449.449,0,0,1,.444-.365c.359-.017.718-.061,1.065-.093v-.639c-.366-.027-.71-.057-1.055-.077a.472.472,0,0,1-.461-.388,8.581,8.581,0,0,0-.49-1.188.461.461,0,0,1,.053-.6c.235-.262.459-.535.684-.8l-.444-.465c-.289.245-.569.476-.841.716a.433.433,0,0,1-.548.04,8.316,8.316,0,0,0-1.186-.5.485.485,0,0,1-.41-.5c-.012-.342-.053-.682-.082-1.019h-.64c-.029.359-.064.7-.081,1.045a.46.46,0,0,1-.378.464,8.943,8.943,0,0,0-1.214.506.444.444,0,0,1-.571-.057c-.263-.236-.538-.459-.822-.7Z" transform="translate(-34.543 -149.509)" fill="#292d32"/>
      <path id="Path_29" data-name="Path 29" d="M-381.628,828.228c.2.186.389.358.572.538.342.337.682.675,1.015,1.02a.322.322,0,0,1,0,.507.327.327,0,0,1-.488-.028c-.179-.174-.354-.352-.53-.528q-.621-.621-1.242-1.242a.349.349,0,0,1-.024-.553q.891-.9,1.79-1.792a.329.329,0,0,1,.509-.014.327.327,0,0,1-.029.508c-.439.443-.882.882-1.322,1.324C-381.453,828.041-381.523,828.118-381.628,828.228Z" transform="translate(-41.393 -65.353)" fill="#292d32"/>
      <path id="Path_30" data-name="Path 30" d="M-277.215,828.21l-1.41-1.4c-.068-.068-.139-.133-.2-.207a.314.314,0,0,1,.01-.464.315.315,0,0,1,.465-.019c.188.164.359.347.535.523q.612.61,1.221,1.221c.271.273.275.413.012.678q-.832.837-1.67,1.668c-.212.21-.426.237-.571.067-.178-.208-.09-.386.079-.552C-278.239,829.226-277.737,828.727-277.215,828.21Z" transform="translate(-136.969 -65.354)" fill="#292d32"/>
      <path id="Path_31" data-name="Path 31" d="M-332.075,830.513a3,3,0,0,1-.3-.424c-.028-.058.022-.168.063-.24q1.024-1.785,2.055-3.565c.12-.209.294-.294.5-.172s.2.328.088.527c-.68,1.18-1.359,2.361-2.048,3.537A2.043,2.043,0,0,1-332.075,830.513Z" transform="translate(-87.614 -65.385)" fill="#292d32"/>
      <path id="Path_32" data-name="Path 32" d="M-329.857,778.747h-.919c-.222,0-.383-.1-.39-.331-.007-.245.158-.357.393-.358.6,0,1.206,0,1.808,0,.233,0,.406.1.4.347s-.174.343-.407.342Z" transform="translate(-88.74 -21.073)" fill="#292d32"/>
      <path id="Path_33" data-name="Path 33" d="M-329.864,1107.412c.306,0,.612,0,.919,0,.225,0,.378.114.379.341a.333.333,0,0,1-.376.346c-.622,0-1.244.005-1.866,0a.328.328,0,0,1-.365-.355.325.325,0,0,1,.361-.328c.316,0,.631,0,.947,0Z" transform="translate(-88.733 -325.125)" fill="#292d32"/>
      <path id="Path_34" data-name="Path 34" d="M-349.9,960.032a2.968,2.968,0,0,1-2.961-2.974,2.985,2.985,0,0,1,2.979-2.964,2.984,2.984,0,0,1,2.96,2.982A2.965,2.965,0,0,1-349.9,960.032Zm-.014-.691a2.274,2.274,0,0,0,2.3-2.265,2.292,2.292,0,0,0-2.255-2.291,2.293,2.293,0,0,0-2.3,2.273A2.277,2.277,0,0,0-349.917,959.342Z" transform="translate(-68.709 -183.587)" fill="#292d32"/>
    </g>
  </g>
</svg>
