<svg xmlns="http://www.w3.org/2000/svg" width="71" height="71" viewBox="0 0 71 71">
  <g id="pro_01" transform="translate(-151 -4272)">
    <circle id="Ellipse_490" data-name="Ellipse 490" cx="35.5" cy="35.5" r="35.5" transform="translate(151 4272)" fill="#2a2a2a"/>
    <g id="_01" data-name="01" transform="translate(-66 4039)">
      <g id="status-up" transform="translate(236 252)">
        <g id="Group_40888" data-name="Group 40888" transform="translate(8.497 7.072)">
          <path id="Vector" d="M1.04,4.951A1.048,1.048,0,0,1,0,3.911V1.04A1.048,1.048,0,0,1,1.04,0,1.048,1.048,0,0,1,2.08,1.04V3.911a1.039,1.039,0,0,1-1.04,1.04Z" transform="translate(0.004 14.188)" fill="#fff"/>
          <path id="Vector-2" data-name="Vector" d="M1.04,7.835A1.048,1.048,0,0,1,0,6.8V1.04A1.048,1.048,0,0,1,1.04,0,1.048,1.048,0,0,1,2.08,1.04V6.8A1.039,1.039,0,0,1,1.04,7.835Z" transform="translate(7.105 11.303)" fill="#fff"/>
          <path id="Vector-3" data-name="Vector" d="M1.04,10.706A1.048,1.048,0,0,1,0,9.666V1.04A1.048,1.048,0,0,1,1.04,0,1.048,1.048,0,0,1,2.08,1.04V9.666a1.03,1.03,0,0,1-1.04,1.04Z" transform="translate(14.205 8.432)" fill="#fff"/>
          <path id="Vector-4" data-name="Vector" d="M1.044,11.2a1.05,1.05,0,0,1-1.012-.79A1.037,1.037,0,0,1,.794,9.153,25.134,25.134,0,0,0,13.816,1.109L14.454.36a1.042,1.042,0,0,1,1.581,1.359l-.638.749A27.061,27.061,0,0,1,1.3,11.177a.768.768,0,0,1-.253.028Z" fill="#fff"/>
          <path id="Vector-5" data-name="Vector" d="M5.1,6.13A1.048,1.048,0,0,1,4.06,5.09V2.08H1.04A1.048,1.048,0,0,1,0,1.04,1.048,1.048,0,0,1,1.04,0H5.1A1.048,1.048,0,0,1,6.14,1.04V5.1A1.027,1.027,0,0,1,5.1,6.13Z" transform="translate(10.142)" fill="#fff"/>
        </g>
        <path id="Vector-6" data-name="Vector" d="M19.069,29.816H10.748C3.217,29.816,0,26.6,0,19.069V10.748C0,3.217,3.217,0,10.748,0h8.321C26.6,0,29.816,3.217,29.816,10.748v8.321C29.816,26.6,26.6,29.816,19.069,29.816ZM10.748,2.08c-6.393,0-8.667,2.274-8.667,8.667v8.321c0,6.393,2.274,8.667,8.667,8.667h8.321c6.393,0,8.667-2.274,8.667-8.667v-8.32c0-6.393-2.274-8.667-8.667-8.667Z" transform="translate(1.734 1.734)" fill="#dd1928"/>
        <path id="Vector-7" data-name="Vector" d="M0,0H33.283V33.283H0Z" fill="none" opacity="0"/>
      </g>
    </g>
  </g>
</svg>
