<svg xmlns="http://www.w3.org/2000/svg" width="71" height="71" viewBox="0 0 71 71">
  <g id="pro_05" transform="translate(-1001 -4270)">
    <g id="Group_9287" data-name="Group 9287" transform="translate(740 -22)">
      <circle id="Ellipse_490" data-name="Ellipse 490" cx="35.5" cy="35.5" r="35.5" transform="translate(261 4292)" fill="#2a2a2a"/>
    </g>
    <g id="_05" data-name="05" transform="translate(400 4101)">
      <g id="trend-up" transform="translate(620 188)">
        <path id="Vector" d="M1.03,8.95a1.022,1.022,0,0,1-.73-.3,1.039,1.039,0,0,1,0-1.46L4.707,2.779a1.021,1.021,0,0,1,.826-.3,1.033,1.033,0,0,1,.758.455l1.5,2.259L12.683.3a1.032,1.032,0,0,1,1.46,1.46L8.358,7.545a1.021,1.021,0,0,1-.826.3,1.033,1.033,0,0,1-.758-.455l-1.5-2.259L1.76,8.647a1.022,1.022,0,0,1-.73.3Z" transform="translate(9.301 12.056)" fill="#fff"/>
        <path id="Vector-2" data-name="Vector" d="M3.788,4.821A1.041,1.041,0,0,1,2.755,3.788V2.066H1.033A1.041,1.041,0,0,1,0,1.033,1.041,1.041,0,0,1,1.033,0H3.788A1.041,1.041,0,0,1,4.821,1.033V3.788A1.041,1.041,0,0,1,3.788,4.821Z" transform="translate(18.94 12.053)" fill="#fff"/>
        <path id="Vector-3" data-name="Vector" d="M18.94,29.615H10.675C3.2,29.615,0,26.419,0,18.94V10.675C0,3.2,3.2,0,10.675,0H18.94c7.48,0,10.675,3.2,10.675,10.675V18.94C29.615,26.419,26.419,29.615,18.94,29.615ZM10.675,2.066c-6.35,0-8.609,2.259-8.609,8.609V18.94c0,6.35,2.259,8.609,8.609,8.609H18.94c6.35,0,8.609-2.259,8.609-8.609V10.675c0-6.35-2.259-8.609-8.609-8.609Z" transform="translate(1.722 1.722)" fill="#dd1928"/>
        <path id="Vector-4" data-name="Vector" d="M0,0H33.059V33.059H0Z" fill="none" opacity="0"/>
      </g>
    </g>
  </g>
</svg>
