<svg xmlns="http://www.w3.org/2000/svg" width="71" height="71" viewBox="0 0 71 71">
  <g id="pro_03" transform="translate(-578 -4272)">
    <g id="Group_9285" data-name="Group 9285" transform="translate(317 -20)">
      <circle id="Ellipse_490" data-name="Ellipse 490" cx="35.5" cy="35.5" r="35.5" transform="translate(261 4292)" fill="#2a2a2a"/>
    </g>
    <g id="_03" data-name="03" transform="translate(361 4101.143)">
      <g id="chart-2" transform="translate(236 188)">
        <path id="Vector" d="M19.316,30.2H10.887C3.259,30.2,0,26.944,0,19.316V10.887C0,3.259,3.259,0,10.887,0h8.429C26.944,0,30.2,3.259,30.2,10.887v8.429C30.2,26.944,26.944,30.2,19.316,30.2ZM10.887,2.1c-6.476,0-8.78,2.3-8.78,8.78v8.429c0,6.476,2.3,8.78,8.78,8.78h8.429c6.476,0,8.78-2.3,8.78-8.78V10.887c0-6.476-2.3-8.78-8.78-8.78Z" transform="translate(1.756 1.756)" fill="#dd1928"/>
        <path id="Vector-2" data-name="Vector" d="M3.863,20.369A3.861,3.861,0,0,1,0,16.506V3.863a3.863,3.863,0,1,1,7.726,0V16.506a3.861,3.861,0,0,1-3.863,3.863Zm0-18.262A1.757,1.757,0,0,0,2.107,3.863V16.506a1.756,1.756,0,1,0,3.512,0V3.863A1.757,1.757,0,0,0,3.863,2.107Z" transform="translate(17.911 6.673)" fill="#fff"/>
        <path id="Vector-3" data-name="Vector" d="M3.863,12.643A3.861,3.861,0,0,1,0,8.78V3.863a3.863,3.863,0,1,1,7.726,0V8.78a3.861,3.861,0,0,1-3.863,3.863Zm0-10.536A1.757,1.757,0,0,0,2.107,3.863V8.78a1.756,1.756,0,0,0,3.512,0V3.863A1.757,1.757,0,0,0,3.863,2.107Z" transform="translate(8.078 14.399)" fill="#fff"/>
        <path id="Vector-4" data-name="Vector" d="M0,0H33.715V33.715H0Z" fill="none" opacity="0"/>
      </g>
    </g>
  </g>
</svg>
