<svg xmlns="http://www.w3.org/2000/svg" width="71" height="71" viewBox="0 0 71 71">
  <g id="pro_06" transform="translate(-1207 -4192)">
    <g id="Group_9288" data-name="Group 9288" transform="translate(946 -100)">
      <circle id="Ellipse_490" data-name="Ellipse 490" cx="35.5" cy="35.5" r="35.5" transform="translate(261 4292)" fill="#2a2a2a"/>
    </g>
    <g id="_06" data-name="06" transform="translate(606 4022.98)">
      <g id="trend-up" transform="translate(620 188)">
        <path id="Vector" d="M18.94,29.615H10.675C3.2,29.615,0,26.419,0,18.94V10.675C0,3.2,3.2,0,10.675,0H18.94c7.48,0,10.675,3.2,10.675,10.675V18.94C29.615,26.419,26.419,29.615,18.94,29.615ZM10.675,2.066c-6.35,0-8.609,2.259-8.609,8.609V18.94c0,6.35,2.259,8.609,8.609,8.609H18.94c6.35,0,8.609-2.259,8.609-8.609V10.675c0-6.35-2.259-8.609-8.609-8.609Z" transform="translate(2.028 2.02)" fill="#dd1928"/>
        <path id="Vector-2" data-name="Vector" d="M0,0H33.059V33.059H0Z" fill="none" opacity="0"/>
        <path id="Vector-3" data-name="Vector" d="M9.425,12.834a2.863,2.863,0,0,1-1.48-.457l-1.5-.9-1.5.882a2.241,2.241,0,0,1-2.6.11,2.218,2.218,0,0,1-.677-2.5l.378-1.622L.8,7.181A2.265,2.265,0,0,1,.086,4.9,2.231,2.231,0,0,1,1.992,3.449l1.685-.283L4.48,1.4A2.253,2.253,0,0,1,6.448,0,2.254,2.254,0,0,1,8.417,1.417l.929,1.858,1.559.189A2.272,2.272,0,0,1,12.81,4.913,2.265,2.265,0,0,1,12.1,7.2L10.8,8.5l.4,1.468a2.218,2.218,0,0,1-.677,2.5,1.754,1.754,0,0,1-1.1.366ZM2.685,5.748,3.771,6.834a2.333,2.333,0,0,1,.6,2.047l-.3,1.26L5.33,9.4a2.294,2.294,0,0,1,2.252,0l1.26.74L8.559,8.88a2.312,2.312,0,0,1,.583-2.047l1.087-1.087L8.859,5.51a2.342,2.342,0,0,1-1.622-1.2L6.448,2.772,5.661,4.346a2.325,2.325,0,0,1-1.606,1.2Z" transform="translate(10.39 10.112)" fill="#fff"/>
      </g>
    </g>
  </g>
</svg>
