<svg xmlns="http://www.w3.org/2000/svg" width="71" height="71" viewBox="0 0 71 71">
  <g id="pro_02" transform="translate(-372 -4200)">
    <g id="Group_9284" data-name="Group 9284" transform="translate(111 -92)">
      <circle id="Ellipse_490" data-name="Ellipse 490" cx="35.5" cy="35.5" r="35.5" transform="translate(261 4292)" fill="#2a2a2a"/>
    </g>
    <g id="_02" data-name="02" transform="translate(256.664 4161.983)">
      <path id="Path_43317" data-name="Path 43317" d="M131.337,97.611a13.124,13.124,0,0,1,.7-2.016,5.057,5.057,0,0,1,3.669-2.64.515.515,0,0,0,.463-.423,20.442,20.442,0,0,1,2.819-5.781A18.994,18.994,0,0,1,150,79.028c.835-.223,1.694-.357,2.541-.531l.386-.079c-.669-.583-1.293-1.124-1.915-1.668a6.481,6.481,0,0,1-.547-.5,1.084,1.084,0,0,1-.013-1.457,1.1,1.1,0,0,1,1.446-.2,2.388,2.388,0,0,1,.262.207l4.237,3.681a1.137,1.137,0,0,1,.131,1.808q-1.861,2.15-3.729,4.294a1.113,1.113,0,0,1-1.258.4,1.06,1.06,0,0,1-.763-.916,1.142,1.142,0,0,1,.331-.949Q152,82.1,152.89,81.071c.1-.119.2-.24.327-.388A17.359,17.359,0,0,0,138.34,93.092c.357.181.73.341,1.073.55a5.322,5.322,0,1,1-8.007,5.363,1.19,1.19,0,0,0-.07-.2Zm5.352,3.668a3.1,3.1,0,1,0-2.823-1.484,3.1,3.1,0,0,0,2.823,1.484Z" transform="translate(0 -13.759)" fill="#dd1928"/>
      <path id="Path_43318" data-name="Path 43318" d="M302.431,76.507a5.329,5.329,0,1,1,1.581,3.766,5.33,5.33,0,0,1-1.581-3.766Zm2.236-.025a3.1,3.1,0,1,0,.914-2.188,3.1,3.1,0,0,0-.914,2.188Z" transform="translate(-143.675 -11.038)" fill="#dd1928"/>
      <path id="Path_43319" data-name="Path 43319" d="M142.689,64.4c-.95.954-1.869,1.874-2.784,2.8a1.174,1.174,0,0,1-1.024.417,1.077,1.077,0,0,1-.912-.723,1.058,1.058,0,0,1,.255-1.166c.453-.475.923-.934,1.389-1.4.492-.489.987-.974,1.51-1.49-.108-.116-.2-.213-.288-.305-.858-.859-1.721-1.713-2.572-2.578a1.09,1.09,0,0,1-.226-1.358,1.044,1.044,0,0,1,1.192-.541,1.656,1.656,0,0,1,.683.409c.846.818,1.672,1.657,2.5,2.492a4.033,4.033,0,0,1,.3.414,7.241,7.241,0,0,1,.475-.611q1.16-1.179,2.337-2.341A1.12,1.12,0,1,1,147.1,60q-1.252,1.27-2.524,2.521a1.9,1.9,0,0,1-.375.224c1.016,1.015,1.934,1.917,2.83,2.84a1.766,1.766,0,0,1,.435.71,1.051,1.051,0,0,1-.543,1.192,1.083,1.083,0,0,1-1.331-.205c-.866-.851-1.719-1.714-2.578-2.572C142.92,64.611,142.821,64.52,142.689,64.4Z" transform="translate(-5.505)" fill="#fff"/>
      <path id="Path_43320" data-name="Path 43320" d="M233.353,200.987c-1.017-1.016-1.944-1.926-2.848-2.859a1.68,1.68,0,0,1-.417-.719,1.043,1.043,0,0,1,.545-1.158,1.082,1.082,0,0,1,1.331.2c.866.851,1.72,1.714,2.579,2.572l.333.318c.215-.224.415-.439.623-.647.726-.728,1.45-1.459,2.183-2.18a1.12,1.12,0,1,1,1.578,1.576c-.459.47-.926.931-1.392,1.394s-.934.922-1.432,1.412c.107.114.194.211.286.3.866.868,1.739,1.73,2.6,2.606a1.074,1.074,0,0,1,.2,1.33,1.043,1.043,0,0,1-1.192.542,1.64,1.64,0,0,1-.682-.41c-.93-.908-1.84-1.837-2.831-2.833-.23.265-.428.519-.652.747q-1.055,1.074-2.127,2.13a1.12,1.12,0,1,1-1.58-1.576q1.252-1.271,2.524-2.522a2.03,2.03,0,0,1,.371-.223Z" transform="translate(-82.899 -115.96)" fill="#fff"/>
    </g>
  </g>
</svg>
