<svg xmlns="http://www.w3.org/2000/svg" width="71" height="71" viewBox="0 0 71 71">
  <g id="pro_04" transform="translate(-796 -4192)">
    <path id="Ellipse_490" data-name="Ellipse 490" d="M35.5,0A35.5,35.5,0,1,1,0,35.5,35.5,35.5,0,0,1,35.5,0Z" transform="translate(796 4192)" fill="#2a2a2a"/>
    <g id="_04" data-name="04" transform="translate(323 3894.98)">
      <g id="task-square" transform="translate(492 316)">
        <path id="Vector" d="M8.26,2.065H1.032A1.04,1.04,0,0,1,0,1.032,1.04,1.04,0,0,1,1.032,0H8.26a1.033,1.033,0,1,1,0,2.065Z" transform="translate(15.996 11.178)" fill="#fff"/>
        <path id="Vector-2" data-name="Vector" d="M2.061,5.159a1.021,1.021,0,0,1-.73-.3L.3,3.824a1.032,1.032,0,1,1,1.459-1.46l.3.3L4.429.3a1.032,1.032,0,1,1,1.46,1.459l-3.1,3.1a1.031,1.031,0,0,1-.728.3Z" transform="translate(7.74 9.13)" fill="#fff"/>
        <path id="Vector-3" data-name="Vector" d="M8.26,2.065H1.032A1.04,1.04,0,0,1,0,1.032,1.04,1.04,0,0,1,1.032,0H8.26a1.033,1.033,0,1,1,0,2.065Z" transform="translate(15.996 20.815)" fill="#fff"/>
        <path id="Vector-4" data-name="Vector" d="M2.061,5.159a1.021,1.021,0,0,1-.73-.3L.3,3.824a1.032,1.032,0,1,1,1.459-1.46l.3.3L4.429.3a1.032,1.032,0,1,1,1.46,1.459l-3.1,3.1a1.031,1.031,0,0,1-.728.3Z" transform="translate(7.74 18.767)" fill="#fff"/>
        <path id="Vector-5" data-name="Vector" d="M0,0H33.039V33.039H0Z" fill="none" opacity="0"/>
        <path id="Vector-6" data-name="Vector" d="M18.929,29.6h-8.26C3.194,29.6,0,26.4,0,18.929v-8.26C0,3.194,3.194,0,10.669,0h8.26C26.4,0,29.6,3.194,29.6,10.669v8.26C29.6,26.4,26.4,29.6,18.929,29.6ZM10.669,2.065c-6.346,0-8.6,2.258-8.6,8.6v8.26c0,6.346,2.258,8.6,8.6,8.6h8.26c6.346,0,8.6-2.258,8.6-8.6v-8.26c0-6.346-2.258-8.6-8.6-8.6Z" transform="translate(1.721 1.721)" fill="#dd1928"/>
      </g>
    </g>
  </g>
</svg>
