<svg xmlns="http://www.w3.org/2000/svg" xmlns:xlink="http://www.w3.org/1999/xlink" width="451" height="523" viewBox="0 0 451 523">
  <defs>
    <linearGradient id="linear-gradient" x1="0.037" y1="0.014" x2="0.903" y2="1" gradientUnits="objectBoundingBox">
      <stop offset="0" stop-color="#fff"/>
      <stop offset="1" stop-color="#1289ef"/>
    </linearGradient>
    <linearGradient id="linear-gradient-2" x2="1" y2="0.983" gradientUnits="objectBoundingBox">
      <stop offset="0" stop-color="#edf0fe"/>
      <stop offset="1" stop-color="#dbddf1"/>
    </linearGradient>
    <linearGradient id="linear-gradient-3" y1="0.5" x2="1" y2="0.5" gradientUnits="objectBoundingBox">
      <stop offset="0" stop-color="#a4a4a4" stop-opacity="0.2"/>
      <stop offset="1" stop-color="#fff" stop-opacity="0.702"/>
    </linearGradient>
    <clipPath id="clip-path">
      <ellipse id="Ellipse_398" data-name="Ellipse 398" cx="40.385" cy="27.035" rx="40.385" ry="27.035" transform="matrix(0.774, -0.633, 0.633, 0.774, 0, 51.147)" fill="none"/>
    </clipPath>
    <clipPath id="clip-path-2">
      <ellipse id="Ellipse_400" data-name="Ellipse 400" cx="41.273" cy="27.629" rx="41.273" ry="27.629" transform="translate(0 52.271) rotate(-39.289)" fill="none"/>
    </clipPath>
    <clipPath id="clip-hris">
      <rect width="451" height="523"/>
    </clipPath>
  </defs>
  <g id="hris" clip-path="url(#clip-hris)">
    <rect width="451" height="523" fill="url(#linear-gradient)"/>
    <g id="e-com-1" transform="translate(0.133 39.132)">
      <g id="Group_6893" data-name="Group 6893" transform="translate(-0.133 -39.131)">
        <rect id="SL-060521-43530-07" width="451" height="525" transform="translate(0.001 -0.001)" opacity="0.6" fill="url(#linear-gradient-2)"/>
      </g>
    </g>
    <g id="Group_6942" data-name="Group 6942" transform="translate(-398.289 -71.997)">
      <path id="Path_12439" data-name="Path 12439" d="M419.405,282.564c14.7-64.6,81.87-103.377,144.944-83.092q1.9.612,3.833,1.276C650.633,229.089,623.58,312.83,664.8,338.6s70.857,63.126,52.821,112.082-127.542,95.334-213.86,42.514C435.916,451.671,400.7,364.775,419.405,282.564Z" transform="translate(25.87 78.4)" fill="none" stroke="#bfd9ff" stroke-miterlimit="10" stroke-width="1.109"/>
      <circle id="Ellipse_394" data-name="Ellipse 394" cx="53.465" cy="53.465" r="53.465" transform="translate(388.922 169.619) rotate(-80.912)" fill="none" stroke="#bfd9ff" stroke-miterlimit="10" stroke-width="1.109"/>
      <g id="Group_3363" data-name="Group 3363" transform="translate(422.328 125.27)">
        <path id="Path_12440" data-name="Path 12440" d="M669.442,533.307H442.011a7.05,7.05,0,0,1-6.439-9.922L596.945,161.428a7.047,7.047,0,0,1,6.439-4.179H830.815a7.05,7.05,0,0,1,6.441,9.922L675.883,529.128A7.053,7.053,0,0,1,669.442,533.307Z" transform="translate(-434.953 -104.869)" fill="url(#linear-gradient-3)"/>
        <path id="Path_12441" data-name="Path 12441" d="M699.995,305.665l73.4-164.627a6.037,6.037,0,0,0-5.515-8.5H561.939a19.357,19.357,0,0,0-17.682,11.476L469.746,311.146a6.038,6.038,0,0,0,5.514,8.5h203.2A23.575,23.575,0,0,0,699.995,305.665Z" transform="translate(-396.574 -132.543)" fill="#fff"/>
        <path id="Path_12442" data-name="Path 12442" d="M687.431,358.879l73.4-164.627a6.037,6.037,0,0,0-5.515-8.5H549.373a19.36,19.36,0,0,0-17.68,11.476L457.182,364.359a6.037,6.037,0,0,0,5.514,8.5H665.9A23.576,23.576,0,0,0,687.431,358.879Z" transform="translate(-410.647 -72.938)" fill="none" stroke="#fff" stroke-miterlimit="10" stroke-width="1.109"/>
        <path id="Path_12443" data-name="Path 12443" d="M610.574,239.978h9.4l-25.267,49.358H441.935l6.167-12.047" transform="translate(-427.132 -12.203)" fill="none" stroke="#a1c2ff" stroke-miterlimit="10" stroke-width="0.554" opacity="0.39"/>
        <g id="Group_3324" data-name="Group 3324" transform="translate(120.558 8.025)">
          <g id="Group_3319" data-name="Group 3319" transform="translate(0 0)">
            <ellipse id="Ellipse_395" data-name="Ellipse 395" cx="46.378" cy="34.85" rx="46.378" ry="34.85" transform="translate(0 60.756) rotate(-40.92)" fill="#e6f4ff"/>
            <g id="Group_3318" data-name="Group 3318" transform="translate(6.808 6.672)">
              <ellipse id="Ellipse_396" data-name="Ellipse 396" cx="40.922" cy="30.75" rx="40.922" ry="30.75" transform="translate(0 53.608) rotate(-40.92)" fill="#94c3ff"/>
            </g>
          </g>
          <g id="Group_3323" data-name="Group 3323" transform="translate(24.352 29.113)">
            <g id="Group_3322" data-name="Group 3322">
              <g id="Group_3321" data-name="Group 3321" transform="translate(0 4.285)">
                <g id="Group_3320" data-name="Group 3320">
                  <path id="Path_12444" data-name="Path 12444" d="M537.473,166.427s-18.638,3.081-26.6,6.218c-5.4,3.254-6.263,5.841-7.554,9.725l-.019.038c4.333,7.575,12.581,12.39,23.349,12.39,13.91,0,28.221-8.027,37.375-19.685C559.043,167.794,537.473,166.427,537.473,166.427Z" transform="translate(-503.303 -136.012)" fill="#4361c4"/>
                  <path id="Path_12445" data-name="Path 12445" d="M518.078,167.052l-3.214,13.579a2.576,2.576,0,0,0,2.05,3.382,15.264,15.264,0,0,0,10.8-2.358,4.812,4.812,0,0,0,2.249-3.541c.452-6.337,1.739-19.329,1.739-19.329Z" transform="translate(-490.465 -144.571)" fill="#ff8d68"/>
                  <path id="Path_12446" data-name="Path 12446" d="M518.8,160.173s-8.754,17.724-7.049,22.486c1.969,3.25,19.571-4.049,22.454-8.8s9.5-13.359,4.346-18.742S525.425,151.565,518.8,160.173Z" transform="translate(-494.085 -152.081)" fill="#ff8d68"/>
                </g>
              </g>
              <path id="Path_12447" data-name="Path 12447" d="M515.071,162.437s-1.541-6.263,3.757-9.952,12.1-2.951,14.546.738a40.4,40.4,0,0,1,2.656,4.242,4.987,4.987,0,0,1,3.475,3.32c.867,2.767-4.648,9.776-6.891,11.8s-1.779,2.082-1.779,2.082l-.75-.975a44.067,44.067,0,0,1,1.509-8.485c.292-1.66-1.6-4.058-4.948-4.611S522.072,163.164,515.071,162.437Z" transform="translate(-490.355 -150.06)" fill="#7e3636"/>
              <path id="Path_12448" data-name="Path 12448" d="M523.961,160.619s1.217-2.262,3.384-1.622c2.152.719-2.145,7.492-4.424,7.022C520.74,165.462,523.961,160.619,523.961,160.619Z" transform="translate(-482.177 -140.177)" fill="#ff8d68"/>
              <path id="Path_12449" data-name="Path 12449" d="M531.454,166.69s-4.679,5.165-9.282,6.64c-.808.246-2.006,1.844-2.006,1.844l-.839-2.213s-3.161-1.844-2.243-5.042l-.634.492-1.689,4.181s-1.253,3.935-1.183,5.411l4.236-2.336a8.256,8.256,0,0,0,4.637.123s.876,2.951,1.666,3.2,7.189-5.779,8.158-7.87a7.856,7.856,0,0,0,.831-4.181Z" transform="translate(-491.798 -131.433)" fill="#fff"/>
            </g>
          </g>
        </g>
        <g id="Group_3325" data-name="Group 3325" transform="translate(226.959 35.59)">
          <path id="Path_12450" data-name="Path 12450" d="M634.686,193.935H545.473c-2.737,0-4.147-2.218-3.15-4.957l12.627-34.694a7.838,7.838,0,0,1,6.759-4.955h89.212c2.737,0,4.149,2.218,3.153,4.955l-12.628,34.694A7.839,7.839,0,0,1,634.686,193.935Z" transform="translate(-542.003 -149.33)" fill="#a1c2ff" opacity="0.39"/>
          <path id="Path_12451" data-name="Path 12451" d="M628.737,158.7H551.916l1.353-3.717H630.09Z" transform="translate(-530.9 -143.002)" fill="#94c3ff"/>
          <path id="Path_12452" data-name="Path 12452" d="M596.684,162.787H550.427l1.353-3.717h46.258Z" transform="translate(-532.568 -138.42)" fill="#94c3ff"/>
          <path id="Path_12453" data-name="Path 12453" d="M561.057,166.489H549.079l1.353-3.717H562.41Z" transform="translate(-534.077 -134.274)" fill="#94c3ff"/>
        </g>
        <g id="Group_3328" data-name="Group 3328" transform="translate(208.414 90.574)">
          <path id="Path_12454" data-name="Path 12454" d="M551.72,180.844c-1.245,3.085-4.753,5.582-7.836,5.582s-4.573-2.5-3.328-5.582,4.755-5.58,7.838-5.58S552.966,177.762,551.72,180.844Z" transform="translate(-525.572 -175.264)" fill="#94c3ff"/>
          <path id="Path_12455" data-name="Path 12455" d="M560.865,180.844c-1.244,3.085-4.753,5.582-7.836,5.582s-4.573-2.5-3.328-5.582,4.755-5.58,7.838-5.58S562.112,177.762,560.865,180.844Z" transform="translate(-515.327 -175.264)" fill="#94c3ff"/>
          <path id="Path_12456" data-name="Path 12456" d="M570.012,180.844c-1.245,3.085-4.754,5.582-7.836,5.582s-4.573-2.5-3.329-5.582,4.756-5.58,7.838-5.58S571.258,177.762,570.012,180.844Z" transform="translate(-505.083 -175.264)" fill="#94c3ff"/>
          <path id="Path_12457" data-name="Path 12457" d="M579.158,180.844c-1.245,3.085-4.753,5.582-7.836,5.582s-4.573-2.5-3.329-5.582,4.756-5.58,7.838-5.58S580.4,177.762,579.158,180.844Z" transform="translate(-494.838 -175.264)" fill="#ff8d02"/>
          <path id="Path_12458" data-name="Path 12458" d="M588.3,180.844c-1.244,3.085-4.753,5.582-7.838,5.582s-4.571-2.5-3.327-5.582,4.755-5.58,7.838-5.58S589.55,177.762,588.3,180.844Z" transform="translate(-484.594 -175.264)" fill="#a1c2ff" opacity="0.39"/>
          <g id="Group_3327" data-name="Group 3327" transform="translate(0 14.983)">
            <g id="Group_3326" data-name="Group 3326" transform="translate(4.782 3.995)">
              <path id="Path_12459" data-name="Path 12459" d="M586.921,185.9l-24.614,25.582L536.8,221.6l28.908,21.22,29.054-24.789Z" transform="translate(-534.064 -182.33)" fill="#a1c2ff" opacity="0.39"/>
              <path id="Path_12460" data-name="Path 12460" d="M576.008,192.909,557.225,203.63,541.34,213.67l21.545,15.473,20.37-18.607Z" transform="translate(-528.982 -174.478)" fill="#a1c2ff" opacity="0.7"/>
              <path id="Path_12461" data-name="Path 12461" d="M586.921,185.9l-24.614,25.582L536.8,221.6l28.828,21.418,29.133-24.987Z" transform="translate(-534.064 -182.33)" fill="none" stroke="#4361c4" stroke-miterlimit="10" stroke-width="0.281"/>
              <path id="Path_12462" data-name="Path 12462" d="M556.949,203.118a2.972,2.972,0,0,1-2.506,1.785c-.986,0-1.463-.8-1.064-1.785a2.973,2.973,0,0,1,2.506-1.785C556.871,201.333,557.349,202.132,556.949,203.118Z" transform="translate(-515.654 -165.042)" fill="#4361c4"/>
              <path id="Path_12463" data-name="Path 12463" d="M552.6,193.85,574.388,211.1l-38.877,1.983" transform="translate(-535.511 -173.424)" fill="none" stroke="#4361c4" stroke-miterlimit="10" stroke-width="0.281"/>
              <path id="Path_12464" data-name="Path 12464" d="M549.64,232.3l9.715-28.954,25.633-2.578" transform="translate(-519.685 -165.67)" fill="none" stroke="#4361c4" stroke-miterlimit="10" stroke-width="0.281"/>
              <line id="Line_116" data-name="Line 116" x1="14.629" y2="37.679" transform="translate(39.671)" fill="none" stroke="#4361c4" stroke-miterlimit="10" stroke-width="0.281"/>
            </g>
            <path id="Path_12465" data-name="Path 12465" d="M547.8,195.277a4.99,4.99,0,0,1-4.206,3c-1.654,0-2.453-1.342-1.785-3a4.988,4.988,0,0,1,4.207-3C547.667,192.281,548.466,193.623,547.8,195.277Z" transform="translate(-523.942 -171.186)" fill="#94c3ff"/>
            <path id="Path_12466" data-name="Path 12466" d="M539.483,204.514a4.983,4.983,0,0,1-4.2,3c-1.656,0-2.455-1.34-1.787-3a4.99,4.99,0,0,1,4.206-2.994C539.354,201.52,540.153,202.86,539.483,204.514Z" transform="translate(-533.256 -160.837)" fill="#ff8d02"/>
            <path id="Path_12467" data-name="Path 12467" d="M554.265,217.449a4.993,4.993,0,0,1-4.206,3c-1.654,0-2.453-1.342-1.785-3a4.988,4.988,0,0,1,4.206-3C554.134,214.453,554.933,215.8,554.265,217.449Z" transform="translate(-516.698 -146.351)" fill="#94c3ff"/>
            <path id="Path_12468" data-name="Path 12468" d="M571.247,202.372a4.992,4.992,0,0,1-4.206,3c-1.654,0-2.453-1.342-1.785-3a4.984,4.984,0,0,1,4.206-3C571.116,199.376,571.915,200.716,571.247,202.372Z" transform="translate(-497.676 -163.239)" fill="#94c3ff"/>
            <path id="Path_12469" data-name="Path 12469" d="M565.981,185.327a4.989,4.989,0,0,1-4.206,3c-1.654,0-2.453-1.342-1.785-3a4.984,4.984,0,0,1,4.206-3C565.85,182.331,566.649,183.671,565.981,185.327Z" transform="translate(-503.575 -182.331)" fill="#ff8d02"/>
          </g>
        </g>
        <g id="Group_3329" data-name="Group 3329" transform="translate(115.281 119.42)">
          <path id="Path_12470" data-name="Path 12470" d="M570.065,203H495.386l5.708-14.129h74.679Z" transform="translate(-482.542 -188.87)" fill="#4361c4"/>
          <path id="Path_12471" data-name="Path 12471" d="M531.882,213.727H489.328l2.446-6.055h42.554Z" transform="translate(-489.328 -167.809)" fill="#a1c2ff" opacity="0.39"/>
          <path id="Path_12472" data-name="Path 12472" d="M522.92,212.281H491.635l5.708-14.129h31.285Z" transform="translate(-486.743 -178.473)" fill="#a1c2ff" opacity="0.39"/>
        </g>
        <g id="Group_3337" data-name="Group 3337" transform="translate(202.416 216.239)">
          <path id="Path_12473" data-name="Path 12473" d="M645.327,321.452l36.545-81.966a3.007,3.007,0,0,0-2.745-4.23H576.591a9.64,9.64,0,0,0-8.8,5.714l-37.1,83.21a3.006,3.006,0,0,0,2.745,4.23H634.608A11.738,11.738,0,0,0,645.327,321.452Z" transform="translate(-530.427 -233.731)" fill="#fff"/>
          <g id="Group_3336" data-name="Group 3336" transform="translate(28.623 0)">
            <ellipse id="Ellipse_397" data-name="Ellipse 397" cx="40.385" cy="27.035" rx="40.385" ry="27.035" transform="matrix(0.774, -0.633, 0.633, 0.774, 0, 51.147)" fill="#a1c2ff" opacity="0.39"/>
            <g id="Group_3335" data-name="Group 3335" transform="translate(0)">
              <g id="Group_3334" data-name="Group 3334" transform="translate(0)" clip-path="url(#clip-path)">
                <g id="Group_3333" data-name="Group 3333" transform="translate(-2.202 21.678)">
                  <path id="Path_12474" data-name="Path 12474" d="M596.206,258.092s16.626,8.262,18.385,15.833-5.618,27.536-5.618,27.536H542.889s10.832-23.406,19.253-28.912,24.676-9.712,24.676-9.712Z" transform="translate(-542.889 -229.831)" fill="#4385ff"/>
                  <g id="Group_3332" data-name="Group 3332" transform="translate(33.849)">
                    <g id="Group_3331" data-name="Group 3331">
                      <g id="Group_3330" data-name="Group 3330" transform="translate(3.251 4.714)">
                        <path id="Path_12475" data-name="Path 12475" d="M567.727,258.608l-5.186,11.2c-.649,1.4-.263,2.682.946,3.047a11.971,11.971,0,0,0,8.934-1.028,4.884,4.884,0,0,0,2.459-2.794c1.6-5.324,5.156-16.2,5.156-16.2Z" transform="translate(-558.325 -240.435)" fill="#94c3ff"/>
                        <path id="Path_12476" data-name="Path 12476" d="M570.342,252.72S560,266.937,560.4,271.12c.907,2.926,16.149-1.673,19.342-5.436s10.077-10.454,7.087-15.473S577.226,246.029,570.342,252.72Z" transform="translate(-560.388 -246.985)" fill="#94c3ff"/>
                      </g>
                      <path id="Path_12477" data-name="Path 12477" d="M572.5,253.122a6.3,6.3,0,0,0-.369.56c-.6,1.011-1.49,3.051.994,3.184l3.316.178s5.324-3.03,7.414.178c1.554,3.208-3.515,5.169-3.093,6.774s.208,1.247-.509,2.137a8.182,8.182,0,0,1-3.685,3.388c-2.394,1.069-4.281.89-6.568,2.139s-6.7-.18-7.16-1.249c-1.066-.89-1.679,1.069-2.362,2.317s-2.788,1.6-.764,3.208,3.521,2.317,7.058.178,3.645-1.959,7.213-2.852,6.221-2.693,7.582-4.91,1.8-5.071,2.945-6.14,1.781,0,1.278,1.247,4.353-1.069,5.508-4.813-.878-3.564-1.081-5.7,2.228-4.635-.367-6.594-5.029.534-5.949-.714-4.951-1.425-8.169,1.249a9.743,9.743,0,0,0-3.4,6.46" transform="translate(-558.854 -244.762)" fill="#4361c4"/>
                      <path id="Path_12478" data-name="Path 12478" d="M571.882,253.787s1.4-1.8,2.972-1.069c1.548.8-3.153,6.148-4.849,5.548C568.4,257.6,571.882,253.787,571.882,253.787Z" transform="translate(-546.836 -236.047)" fill="#94c3ff"/>
                      <path id="Path_12479" data-name="Path 12479" d="M560.211,260.477s1.518-5.525,5.372-6.237,5.589,1.6,5.332,3.564a3.273,3.273,0,0,0,1.448,3.032S562.649,265.468,560.211,260.477Z" transform="translate(-557.335 -234.293)" fill="#4361c4"/>
                    </g>
                  </g>
                </g>
              </g>
            </g>
          </g>
        </g>
        <g id="Group_3338" data-name="Group 3338" transform="translate(156.447 328.419)">
          <path id="Path_12480" data-name="Path 12480" d="M623.648,373.644l36.542-81.966a3.005,3.005,0,0,0-2.746-4.23H554.911a9.641,9.641,0,0,0-8.8,5.714l-37.1,83.21a3.007,3.007,0,0,0,2.746,4.23H612.926A11.741,11.741,0,0,0,623.648,373.644Z" transform="translate(-508.745 -287.449)" fill="#fff"/>
        </g>
        <g id="Group_3345" data-name="Group 3345" transform="translate(183.752 325.293)">
          <ellipse id="Ellipse_399" data-name="Ellipse 399" cx="41.273" cy="27.629" rx="41.273" ry="27.629" transform="translate(0 52.271) rotate(-39.289)" fill="#a1c2ff" opacity="0.39"/>
          <g id="Group_3344" data-name="Group 3344" transform="translate(0 0)">
            <g id="Group_3343" data-name="Group 3343" transform="translate(0)" clip-path="url(#clip-path-2)">
              <g id="Group_3342" data-name="Group 3342" transform="translate(-19.01 22.463)">
                <path id="Path_12481" data-name="Path 12481" d="M556.977,304.352s5.033-2.4,5.707.511a5.559,5.559,0,0,1-1.548,4.98s4.548-1.251,5.76,2.631-2.44,5.733-.927,7.115,4.649,4.342.263,9.261-10.8,10.56-18.239,6.926-5.067-21.32-5.067-21.32l1.817-5.165Z" transform="translate(-479.152 -288.892)" fill="#4361c4"/>
                <path id="Path_12482" data-name="Path 12482" d="M555.391,296.864s-11.207.943-14.746,8.794,3.5,8.4,3.5,8.4Z" transform="translate(-482.421 -296.24)" fill="#4361c4"/>
                <path id="Path_12483" data-name="Path 12483" d="M512.791,334.185l.721,1.3s8.635,10.3,16.325,16.9h16c8.349-7.609,19.742-20.87,19.793-21.411.074-.772,10.039-11.608,7.842-16.026s-5.046-3.71-5.046-3.71-3.248.445-6.895,4.221S539.9,347.118,539.9,347.118a26.1,26.1,0,0,0-6.56-7.342c-4.253-3.178-16.692-9.878-16.692-9.878s.763-5.381.691-6.411-3.167-5.727-4.107-4.717S514.5,324.2,514.5,324.2,512.072,332.883,512.791,334.185Z" transform="translate(-512.657 -280.19)" fill="#94c3ff"/>
                <path id="Path_12484" data-name="Path 12484" d="M534.4,346.044s.475,3.428,1.393,7.811h31.777c.7-7.172,2.188-21.591,3.076-25.013,1.193-4.6.14-14.393.519-17.084s-7.3-1.7-7.3-1.7l-10.009.167-1.615.691a12.743,12.743,0,0,0-5.536,4.628c-1.24,1.9-3.066,4.66-5.521,8.285-3.952,3-12.668,8.207-12.026,14.775S534.4,346.044,534.4,346.044Z" transform="translate(-494.216 -281.663)" fill="#4385ff"/>
                <path id="Path_12485" data-name="Path 12485" d="M548.356,308.962s-8.883,10.989-11.33,24.818c2.9-.891,11.712-8.977,16.908-13.906,2.192-2.08,2.4-3.214,1.991-5.347-.2-1.05.723-3.956,1.955-7.285C558.694,302.633,548.356,308.962,548.356,308.962Z" transform="translate(-485.361 -286.499)" fill="#94c3ff"/>
                <path id="Path_12486" data-name="Path 12486" d="M567.451,348.316s1.382,1.908,3.664,4.772H585.33c-2.74-3.632-4.919-6.564-5.6-7.59-2.324-3.521-18.579-38.968-28.482-34.556-1.832.814-8.447,6.369-5.748,12.6S567.451,348.316,567.451,348.316Z" transform="translate(-476.578 -280.896)" fill="#94c3ff"/>
                <g id="Group_3341" data-name="Group 3341" transform="translate(54.761)">
                  <g id="Group_3340" data-name="Group 3340" transform="translate(0 1.035)">
                    <g id="Group_3339" data-name="Group 3339">
                      <path id="Path_12487" data-name="Path 12487" d="M546.322,303.987a73.73,73.73,0,0,0-7,10.414c-1.825,3.545-.577,6.791,2.824,7.153,4.887.522,12.341-.689,14.792-3.49,3.636-4.16,11.438-11.521,8.271-17.241-3.074-5.553-10.079-4.976-17.627,1.8A11.238,11.238,0,0,0,546.322,303.987Z" transform="translate(-538.486 -297.058)" fill="#94c3ff"/>
                    </g>
                  </g>
                  <path id="Path_12488" data-name="Path 12488" d="M544.18,300.9s-4.906,8.02,9.026,13.14l1.753.791s6.085-4.832,6.174-9.948-2.548-6.98-5.209-8.092S546.04,298.985,544.18,300.9Z" transform="translate(-533.046 -296.57)" fill="#4361c4"/>
                </g>
                <path id="Path_12489" data-name="Path 12489" d="M548.921,305.957s3.526-2.432,3.485-.186-4.991,4.647-5.508,3.71S548.921,305.957,548.921,305.957Z" transform="translate(-474.382 -287.33)" fill="#94c3ff"/>
              </g>
            </g>
          </g>
        </g>
        <g id="Group_3346" data-name="Group 3346" transform="translate(42.76 314.269)">
          <path id="Path_12490" data-name="Path 12490" d="M572.291,313.194H459.354c-3.464,0-5.139-2.811-3.738-6.276l8.027-19.868c1.4-3.467,5.345-6.276,8.809-6.276H585.389c3.464,0,5.139,2.809,3.738,6.276L581.1,306.918C579.7,310.383,575.755,313.194,572.291,313.194Z" transform="translate(-455.121 -280.775)" fill="#dd1928"/>
          <path id="Path_12491" data-name="Path 12491" d="M561.351,291.646H464.1l1.9-4.706h97.25Z" transform="translate(-445.063 -273.869)" fill="#fff"/>
        </g>
        <g id="Group_3351" data-name="Group 3351" transform="translate(33.717 13.206)">
          <g id="Group_3347" data-name="Group 3347" transform="translate(30.229)">
            <path id="Path_12492" data-name="Path 12492" d="M469.761,145.039h-3.82c-.676,0-1-.547-.729-1.223l1.543-3.82a2.038,2.038,0,0,1,1.72-1.223h3.818c.676,0,1,.547.729,1.223l-1.543,3.82A2.033,2.033,0,0,1,469.761,145.039Z" transform="translate(-465.114 -138.772)" fill="#f9fbfc"/>
            <path id="Path_12493" data-name="Path 12493" d="M488.238,145.039h-3.82c-.676,0-1-.547-.729-1.223l1.543-3.82a2.038,2.038,0,0,1,1.717-1.223h3.821c.677,0,1,.547.729,1.223l-1.543,3.82A2.038,2.038,0,0,1,488.238,145.039Z" transform="translate(-444.418 -138.772)" fill="#bfd9ff"/>
          </g>
          <g id="Group_3348" data-name="Group 3348" transform="translate(22.948 18.019)">
            <path id="Path_12494" data-name="Path 12494" d="M466.327,153.54h-3.82c-.676,0-1-.549-.729-1.225l1.543-3.818a2.041,2.041,0,0,1,1.719-1.225h3.819c.676,0,1,.549.729,1.225l-1.541,3.818A2.04,2.04,0,0,1,466.327,153.54Z" transform="translate(-461.68 -147.271)" fill="#bfd9ff"/>
            <path id="Path_12495" data-name="Path 12495" d="M475.564,153.54h-3.818c-.676,0-1-.549-.729-1.225l1.541-3.818a2.04,2.04,0,0,1,1.719-1.225H478.1c.676,0,1,.549.729,1.225l-1.543,3.818A2.04,2.04,0,0,1,475.564,153.54Z" transform="translate(-451.332 -147.271)" fill="#f9fbfc"/>
            <path id="Path_12496" data-name="Path 12496" d="M484.8,153.54h-3.821c-.676,0-1-.549-.729-1.225L481.8,148.5a2.04,2.04,0,0,1,1.719-1.225h3.818c.676,0,1,.549.729,1.225l-1.543,3.818A2.04,2.04,0,0,1,484.8,153.54Z" transform="translate(-440.984 -147.271)" fill="#f9fbfc"/>
            <path id="Path_12497" data-name="Path 12497" d="M492.193,153.54h-3.818c-.676,0-1-.549-.729-1.225l1.544-3.818a2.034,2.034,0,0,1,1.717-1.225h3.82c.676,0,1,.549.729,1.225l-1.543,3.818A2.041,2.041,0,0,1,492.193,153.54Z" transform="translate(-432.705 -147.271)" fill="#f9fbfc"/>
          </g>
          <g id="Group_3349" data-name="Group 3349" transform="translate(0 36.04)">
            <path id="Path_12498" data-name="Path 12498" d="M462.893,162.038h-3.82c-.674,0-1-.549-.729-1.223l1.543-3.82a2.038,2.038,0,0,1,1.719-1.223h3.818c.676,0,1,.547.729,1.223l-1.541,3.82A2.042,2.042,0,0,1,462.893,162.038Z" transform="translate(-442.579 -155.771)" fill="#f9fbfc"/>
            <path id="Path_12499" data-name="Path 12499" d="M455.5,162.038h-3.818c-.676,0-1-.549-.729-1.223l1.541-3.82a2.038,2.038,0,0,1,1.719-1.223h3.82c.676,0,1,.547.729,1.223l-1.544,3.82A2.042,2.042,0,0,1,455.5,162.038Z" transform="translate(-450.856 -155.771)" fill="#f9fbfc"/>
            <path id="Path_12500" data-name="Path 12500" d="M472.13,162.038h-3.818c-.676,0-1-.549-.729-1.223l1.543-3.82a2.032,2.032,0,0,1,1.717-1.223h3.82c.676,0,1,.547.729,1.223l-1.544,3.82A2.042,2.042,0,0,1,472.13,162.038Z" transform="translate(-432.23 -155.771)" fill="#f9fbfc"/>
            <path id="Path_12501" data-name="Path 12501" d="M481.37,162.038h-3.82c-.676,0-1-.549-.729-1.223l1.543-3.82a2.038,2.038,0,0,1,1.719-1.223H483.9c.676,0,1,.547.729,1.223l-1.543,3.82A2.039,2.039,0,0,1,481.37,162.038Z" transform="translate(-421.882 -155.771)" fill="#bfd9ff"/>
          </g>
          <g id="Group_3350" data-name="Group 3350" transform="translate(8.388 54.059)">
            <path id="Path_12502" data-name="Path 12502" d="M459.458,170.537H455.64c-.677,0-1-.547-.732-1.223l1.544-3.82a2.038,2.038,0,0,1,1.719-1.223h3.818c.676,0,1,.547.732,1.223l-1.543,3.82A2.038,2.038,0,0,1,459.458,170.537Z" transform="translate(-454.813 -164.27)" fill="#f9fbfc"/>
          </g>
        </g>
        <g id="Group_3356" data-name="Group 3356" transform="translate(20.992 364.378)">
          <g id="Group_3352" data-name="Group 3352" transform="translate(42.608)">
            <path id="Path_12503" data-name="Path 12503" d="M471.5,313.244h-5.385c-.952,0-1.412-.772-1.028-1.726l2.175-5.383a2.876,2.876,0,0,1,2.423-1.726h5.383c.954,0,1.414.774,1.028,1.726l-2.175,5.383A2.869,2.869,0,0,1,471.5,313.244Z" transform="translate(-464.951 -304.41)" fill="#4385ff"/>
            <path id="Path_12504" data-name="Path 12504" d="M497.541,313.244h-5.383c-.952,0-1.414-.772-1.028-1.726l2.175-5.383a2.873,2.873,0,0,1,2.423-1.726h5.383c.952,0,1.412.774,1.028,1.726l-2.175,5.383A2.872,2.872,0,0,1,497.541,313.244Z" transform="translate(-435.78 -304.41)" fill="#4385ff"/>
          </g>
          <g id="Group_3353" data-name="Group 3353" transform="translate(32.347 25.399)">
            <path id="Path_12505" data-name="Path 12505" d="M466.658,325.225h-5.383c-.952,0-1.412-.774-1.028-1.726l2.175-5.383a2.872,2.872,0,0,1,2.423-1.726h5.383c.952,0,1.414.772,1.028,1.726l-2.175,5.383A2.874,2.874,0,0,1,466.658,325.225Z" transform="translate(-460.111 -316.39)" fill="#bfd9ff"/>
            <path id="Path_12506" data-name="Path 12506" d="M479.68,325.225H474.3c-.954,0-1.414-.774-1.028-1.726l2.175-5.383a2.869,2.869,0,0,1,2.421-1.726h5.383c.954,0,1.414.772,1.028,1.726L482.1,323.5A2.873,2.873,0,0,1,479.68,325.225Z" transform="translate(-445.526 -316.39)" fill="#e8b6ba"/>
            <path id="Path_12507" data-name="Path 12507" d="M492.7,325.225h-5.383c-.954,0-1.414-.774-1.028-1.726l2.175-5.383a2.869,2.869,0,0,1,2.421-1.726h5.385c.952,0,1.412.772,1.028,1.726l-2.175,5.383A2.876,2.876,0,0,1,492.7,325.225Z" transform="translate(-430.94 -316.39)" fill="#bfd9ff"/>
            <path id="Path_12508" data-name="Path 12508" d="M503.118,325.225h-5.383c-.952,0-1.414-.774-1.028-1.726l2.175-5.383a2.869,2.869,0,0,1,2.421-1.726h5.385c.952,0,1.412.772,1.028,1.726l-2.175,5.383A2.877,2.877,0,0,1,503.118,325.225Z" transform="translate(-419.272 -316.39)" fill="#bfd9ff"/>
          </g>
          <g id="Group_3354" data-name="Group 3354" transform="translate(0 50.798)">
            <path id="Path_12509" data-name="Path 12509" d="M461.818,337.2h-5.383c-.952,0-1.412-.772-1.028-1.726l2.175-5.383a2.874,2.874,0,0,1,2.423-1.724h5.383c.952,0,1.414.772,1.028,1.724l-2.175,5.383A2.872,2.872,0,0,1,461.818,337.2Z" transform="translate(-433.186 -328.37)" fill="#bfd9ff"/>
            <path id="Path_12510" data-name="Path 12510" d="M451.4,337.2h-5.383c-.952,0-1.412-.772-1.028-1.726l2.175-5.383a2.874,2.874,0,0,1,2.423-1.724h5.383c.952,0,1.414.772,1.028,1.724l-2.175,5.383A2.872,2.872,0,0,1,451.4,337.2Z" transform="translate(-444.854 -328.37)" fill="#bfd9ff"/>
            <path id="Path_12511" data-name="Path 12511" d="M474.84,337.2h-5.383c-.954,0-1.414-.772-1.028-1.726l2.173-5.383a2.876,2.876,0,0,1,2.423-1.724h5.383c.954,0,1.414.772,1.028,1.724l-2.175,5.383A2.869,2.869,0,0,1,474.84,337.2Z" transform="translate(-418.6 -328.37)" fill="#bfd9ff"/>
            <path id="Path_12512" data-name="Path 12512" d="M487.861,337.2h-5.383c-.954,0-1.414-.772-1.028-1.726l2.175-5.383a2.871,2.871,0,0,1,2.421-1.724h5.385c.952,0,1.412.772,1.028,1.724l-2.175,5.383A2.875,2.875,0,0,1,487.861,337.2Z" transform="translate(-404.015 -328.37)" fill="#dd1928"/>
          </g>
          <g id="Group_3355" data-name="Group 3355" transform="translate(11.824 76.195)">
            <path id="Path_12513" data-name="Path 12513" d="M456.978,349.184h-5.383c-.952,0-1.412-.772-1.028-1.726l2.175-5.383a2.872,2.872,0,0,1,2.423-1.726h5.383c.952,0,1.412.772,1.028,1.726l-2.175,5.383A2.872,2.872,0,0,1,456.978,349.184Z" transform="translate(-450.431 -340.349)" fill="#dd1928"/>
          </g>
        </g>
        <g id="Group_3362" data-name="Group 3362" transform="translate(11.277 213.051)">
          <path id="Path_12514" data-name="Path 12514" d="M593.046,284.209H440.272l25.266-49.358H618.313Z" transform="translate(-440.272 -230.997)" fill="#a1c2ff" opacity="0.39"/>
          <g id="Group_3357" data-name="Group 3357" transform="translate(99.452)">
            <ellipse id="Ellipse_401" data-name="Ellipse 401" cx="22.73" cy="17.725" rx="22.73" ry="17.725" transform="translate(0 30.091) rotate(-41.447)" fill="#dd1928"/>
            <path id="Path_12515" data-name="Path 12515" d="M502.07,260.6a1.9,1.9,0,0,1-1.565-.723l-5.188-6.909a2.64,2.64,0,0,1,.869-3.49c1.206-.965,2.767-.965,3.492,0l3.875,5.165,13.853-11.088c1.2-.965,2.767-.965,3.49,0s.335,2.525-.869,3.49l-16.032,12.833A3.136,3.136,0,0,1,502.07,260.6Z" transform="translate(-478.475 -222.063)" fill="#fff"/>
          </g>
        </g>
      </g>
    </g>
  </g>
</svg>
