<svg xmlns="http://www.w3.org/2000/svg" viewBox="0 0 300 300.46"><defs><style>.cls-1{fill:#f64a19;}</style></defs><title>love-pasta-text</title><g id="Layer_2" data-name="Layer 2"><g id="Layer_1-2" data-name="Layer 1"><path class="cls-1" d="M26,37.51c6.78,1.51,9.61,5.93,9.94,14.61s-2.15,11.32-9,9l-1-.34c-3.95-1.4-5-1.27-4.83,1q.36,6.91.8,13.6c.48,7.44-2.33,9.32-10.24,5.39S-.07,71.43,0,64.58V20.09C0,7.87,2.51,5.45,15,5.47l15,.17c7,0,9.72,4.53,9.46,14.4s-3,13.28-9.71,12.05q-2.41-.44-4.84-.93c-3.89-.79-4.88-.43-4.83,1.95s1.05,3.23,4.94,4.17l1,.23"/><path class="cls-1" d="M65.58,43.51c.17-5.59-.18-7.11-2-7.22S61.16,37.6,61,43.15c-.18,9.22,0,17.91.39,26.11.26,4.91.8,6.12,2.52,6.33s2-.94,1.82-5.86c-.37-8.23-.46-16.94-.19-26.23M82.71,71.64c.27,17.83-1.56,28.75-16.34,27.66-15-1.95-21.71-14.63-22.75-32.09-.57-8.76-.92-18-1-27.68-.24-19.7,5.78-35,23.45-35.25,17.84-.18,19.3,17.27,17.52,38.48-.8,10.36-1.06,20-.88,28.89"/><path class="cls-1" d="M106.38,44.79c-.73,5.41-.39,6.62,1.33,6.49s2.3-1.45,3.1-6.81l.21-1.35c.88-5.45.74-6.9-1.1-6.78s-2.55,1.59-3.35,7.09l-.19,1.37M118.67,55.7c-.69.09-.88.24-.94.73s.09.59.78.5c5.2-.78,7.12,3.37,6.16,15.78-.19,3.3,1.51,4.59,1.43,9.39,0,6.21-2.46,9.43-8.68,11.1-6,1.5-9.22-2.1-9.38-13.49q0-4.92.22-10.16c.24-4.68,0-5.89-1.74-5.68s-2.21,1.5-2.38,6.23c-.19,5.49-.16,10.71.05,15.68.33,7.39-1.56,10.78-7,11.67S89,95.37,88.35,87.69c-1.25-16.56-.89-35.56,2.07-58.06C93,10.63,97,5.41,109.22,5.92h7.47c17.67,0,17.89,12.88,13.82,29-3.9,16.42-6.79,20-11.84,20.82"/><path class="cls-1" d="M198.84,13.13c-3.71,8.58-7.85,12.19-14.72,13-1.93.18-2.9,1.5-4.43,6.18a169.72,169.72,0,0,0-8,37.24c-.53,6.4-3.15,9.62-9.09,11.36s-8.44-.18-8.22-6.9a181.6,181.6,0,0,1,6.43-39.39c1.36-5,1.32-6.29-.57-6.1-6.48.6-8.41-3-5.41-13s8-15,14.92-15l25-.13c7,0,7.92,4.08,4.1,12.74"/><path class="cls-1" d="M235.41,58.07c-.84,6.11-4.81,8.77-13,9.59s-11-1.05-10.15-7.13c.68-4.35,1.59-8.82,2.75-13.46,1-3.72.72-4.63-1.45-4.35s-3,1.33-3.94,5.08c-1.17,4.67-2.08,9.17-2.75,13.53-.88,6.09-4.27,9-11.31,10.42s-9.65-.36-8.92-6.62c1.91-14.93,6.69-31.86,15.67-52.2,3.82-8.62,9-12.71,15.93-12.68s8,3.68,4.38,11.6q-3.89,8.48-6.79,16.25c-1.53,4.14-1.3,5.05.82,4.83s3-1.26,4.49-5.34q2.86-7.68,6.65-16C231.42,3.77,236.4.11,243.38.14s8.43,3.31,5.46,10.59c-7.09,17.33-11.29,32.82-13.43,47.34"/><path class="cls-1" d="M270.91,45.83c-.21,1.86,1.08,2.31,6.77,2.45q3.57.09,7.23.25C295.19,49,300,52.39,300,59.32s-5.07,9.18-16,8.16q-11.59-1-22.09-1.28c-17.24-.35-20-1.87-18.41-13a212.8,212.8,0,0,1,9.87-37.64C258.12,2.9,262.2,0,274.65,0l14.18,0c7,0,10,3,10,9.88s-4,9.79-12.73,9.79l-4.93,0c-4.88,0-6.16.57-6.56,2.5s.76,2.37,5.82,2.34h3.82c8.93,0,12.95,3.09,12.87,10s-4.73,9.51-14.78,9.19l-4.24-.1c-5.59-.09-7,.41-7.21,2.25"/><path class="cls-1" d="M89.25,149.85c5.84-.67,8.89,1.17,10.67,6.51s.09,8.1-6,9.05c-2.9.43-5.88.76-9,1-11.78.64-15.07-1.84-17.42-12.2-2.93-12.91-6.06-26.64-8.65-42-1.18-7.07,1.14-9.66,7.14-8.94s8.81,3.77,10.1,10.65c2.21,11.72,4.92,22.31,7.68,32.22.92,3.29,1.59,4.07,3.3,3.93l2.11-.21"/><path class="cls-1" d="M112.85,123.2c-.85-3.3-1.39-4.06-2.87-3.64s-1.66,1.38-.79,4.72c1.45,5.54,3.08,10.8,4.79,15.86,1,3,1.66,3.64,3.12,3.14s1.54-1.37.51-4.38c-1.71-5-3.33-10.23-4.76-15.71m19.36,10.9c3.74,10.75,3.33,19.4-9.47,24.4-13,4.75-19.9-1.88-23.56-13.53-1.84-5.78-3.62-11.81-5.24-18.2-3.36-13.24-.74-23.49,12.62-26.17,13.43-3.05,17.88,4.82,20.71,16.79,1.4,5.84,3.09,11.36,4.93,16.71"/><path class="cls-1" d="M147.16,96.88c.28-5.52,2.74-8.38,7.7-9.09s7.07,1.34,6.44,6.8c-1.59,13.68-.78,26.12,1,38.44.79,5.79-.18,8.46-6.27,10.82s-8.57,1-11.54-4c-6.34-10.6-12.26-21.52-16.53-34.6-1.66-5.18-.11-8.59,4.25-10.64,4.58-2.15,6.91-.66,8.17,4.37A125.23,125.23,0,0,0,146,115.8a.73.73,0,0,0,1,.46,1,1,0,0,0,.59-1,134.13,134.13,0,0,1-.36-18.34"/><path class="cls-1" d="M187.38,117.45c.34,1.5,1.33,1.69,5.21,1.2q2.44-.3,5-.52c7.12-.61,10.88,1.79,11.88,7.31s-1.62,7.8-8.42,8.08A125.76,125.76,0,0,0,187.2,135c-10.76,1.9-13.18.93-16.06-8.16A151.23,151.23,0,0,1,165,97.12c-.72-9.8,1.59-12.84,13.82-15.37,4.65-.94,9.48-1.79,14.53-2.53,7.63-1.1,11,1.14,10.87,6.8s-3.34,8.22-10.78,9.19q-2.12.29-4.17.61c-4.1.65-5,1.25-4.89,2.78s1.16,1.71,5.22,1.08l3.09-.45c7.35-1,11,1.23,11.52,6.69s-2.29,7.87-9.36,8.6l-3,.36c-3.92.53-4.76,1.09-4.44,2.57"/><path class="cls-1" d="M134.48,178c-.91-2.88-1.55-3.43-3-2.85s-1.64,1.43-.74,4.31c1.48,4.8,2.79,9.69,3.83,14.77.61,3.06,1.12,3.72,2.72,3.16s1.85-1.5,1.2-4.57c-1.09-5.11-2.45-10-4-14.82m19.25,10c2.79,11.85-.21,22.42-14.65,26.69-14.78,4.36-19.39-3.08-21-14.32a149.4,149.4,0,0,0-3.51-16.24c-3-10.93-1.36-18.89,11.51-23.78,12.63-5.05,18.92.08,22.78,11,1.83,5.34,3.5,10.84,4.88,16.66"/><path class="cls-1" d="M172.18,163.51c5.17-1.55,8.29.26,10,5.94s0,8.77-5.17,10.07l-.74.19c-3,.79-3.57,1.44-3.15,3.11.87,3.5,1.67,7.11,2.37,10.87,1.16,6.36-.82,9.79-6.14,11.13s-7.87-.72-8.81-6.79a181.08,181.08,0,0,0-9.71-35c-3.34-8.87-2.39-11.41,6.66-15,3.63-1.42,7.33-2.76,11.15-4,5.37-1.68,8.57-.06,10.33,5.18s.17,8.1-5.08,9.58q-1.87.54-3.72,1.13c-2.95.95-3.53,1.59-3,3.09s1.37,1.63,4.31.7l.74-.23"/><path class="cls-1" d="M53.63,259.83c-.88,3.7-.55,4.63,1.84,4.47s3.25-1.16,4.19-4.87q.58-2.31,1.09-4.59c.8-3.64.34-4.47-2.1-4.31s-3.25,1.07-4,4.71q-.48,2.28-1,4.59m.21,18.79c-4.51.25-6,1.26-7.36,5.27q-.89,2.51-1.87,5.07c-2.81,7.21-7.31,10.48-14.31,10.46s-9.19-3-7.65-10a332.16,332.16,0,0,0,7-42.78c.89-11.61,5.07-13.26,21.81-13.36q4.94-.08,9.65-.3c21.51-1.18,25.74,5.52,22.58,19.51q-.58,2.31-1.25,4.68c-3.31,11.4-11,20.44-26.42,21.27l-2.23.13"/><path class="cls-1" d="M111.72,243.55c-2,.39-2.61,1.38-3.5,5.25q-.85,3.64-1.93,7.43c-1.17,4.07-1.06,5.09.95,4.79s2.84-1.45,4-5.58q1.06-3.85,1.89-7.53c.87-3.91.52-4.73-1.41-4.36m8.12,41.73c-3.74,9.36-8.72,13.84-15.69,13.8s-7.92-4.06-4.1-12.69q2-4.62,3.76-9c1.83-4.67,1.69-5.69-.29-5.48s-2.88,1.35-4.72,5.93q-1.75,4.31-3.77,8.84c-3.82,8.53-9,12.58-15.92,12.55s-8.07-3.64-4.45-11.48a205.88,205.88,0,0,0,13.11-36.61c3.16-13.8,9.48-22.46,26.31-26.35,16.15-3.94,20.42,3.09,18,18.44-2.17,12.34-6.08,26.17-12.26,42.07"/><path class="cls-1" d="M149,276.8c2.24-.13,3.25-1.63,4.57-7.07,2.8-14.1-20.06-5.58-15.35-32.78,1.52-11.87,7.18-20.61,19.36-24.26,11.49-3.3,17.39,2.26,17.49,13.38,0,6.3-2.55,11.72-7.82,12.51-5.89.92-8-2.47-7.69-7.39.14-2.46-.26-3.08-1.9-2.72s-2.08,1.47-2.41,5.73c-1.65,12.55,21.58,0,16.36,35.65-3,17-14.13,30.8-30.07,30.6-15.37-.11-17.54-10.48-13-23.43,2.59-7.6,6.46-12.77,12.26-13.53,6.41-.8,8.21,3,6.53,9.4-.89,3.25-.58,4.06,1.69,3.91"/><path class="cls-1" d="M214.84,217.19c.78,8-1.65,11.36-7.49,11.13-1.68,0-2,1.11-1.86,6a340.85,340.85,0,0,1-2.6,50c-1.33,11-5.27,16.16-12.28,16.12s-8.81-5.18-6.78-16.13a300.43,300.43,0,0,0,5-49.52c0-4.82-.42-5.9-2-5.75-5.73.59-8-2.58-8.28-10.08s1.56-10.78,7-11.67a125,125,0,0,1,19.76-1.46c5.69.1,8.75,3.5,9.55,11.34"/><path class="cls-1" d="M238.78,232.77c-1.85-.45-2.19.59-1.89,5.4q.28,4.52.48,9.21c.2,5,.67,6.42,2.53,6.77s2.3-.82,2.09-5.77q-.21-4.63-.49-9.1c-.3-4.76-.87-6-2.72-6.5m23,53.8c-.1,8.62-3.09,12.51-10.09,12.5s-9.71-4.56-9.42-14.47q.14-5.27.17-10.35c0-5.4-.48-6.76-2.35-7.06s-2.33,1-2.39,6.48q-.07,5.18-.25,10.56c-.34,10-3.69,14.69-10.68,14.66s-9.37-5-8.49-15.71a384,384,0,0,0,.76-49.2c-.83-17.92,1.08-28.7,17.39-24.7,16.75,5,23.62,18.77,24.24,35,.69,13.38,1.12,27.43,1.12,42.32"/><path class="cls-1" d="M267.22,124.37q-15.3,18.09-29,37.44-6.77,9.55-13.15,19.36-3.19,4.91-6.29,9.87c-1.48,2.37-2.94,7.48-5.73,8.65-1.27-5.48,3.49-11.77,5-16.82-5.09,2.43-5.66,11-11.23,11.9L214,179.4c-5.49-.35-6.19,10.09-11.69,10.24.4-3.16,2.23-5.94,4-8.59,3.54-5.29,7.69-11,14-12.4,2.07-.46,4.33-.43,6.11-1.56a10.52,10.52,0,0,0,2.91-3.28l26.16-39.53c1.68-2.54,3.53-5.23,6.37-6.39s6.88.09,7.4,3.08c.64,3.71-3.9,5.9-6.51,8.64"/><path class="cls-1" d="M39.88,151.11q13.29,19.58,28.25,38,7.38,9.1,15.13,17.9,3.87,4.4,7.83,8.73c1.89,2.07,6.45,4.88,6.8,7.85-5.68-.34-10.45-6.61-14.94-9.49.93,5.51,9.06,8.44,8.41,14L78.42,217c-1.89,5.11,8.07,8.7,6.67,14-3-1.27-5.14-3.78-7.23-6.21-4.15-4.84-8.54-10.38-8.14-16.71.13-2.09.8-4.22.2-6.23a10.47,10.47,0,0,0-2.37-3.68L36.48,162.27c-2-2.31-4.09-4.81-4.42-7.83s2-6.5,5.07-6.15c3.78.44,4.64,5.35,6.57,8.59"/></g></g></svg>