<svg id="Layer_1" data-name="Layer 1" xmlns="http://www.w3.org/2000/svg" viewBox="0 0 399.16 307.33"><title>red -01text</title><path d="M34.57,49.91c9,2,12.79,7.89,13.23,19.44.46,11.39-2.87,15.06-12,12l-1.31-.46c-5.25-1.87-6.59-1.69-6.43,1.26q.48,9.19,1.06,18.09c.64,9.91-3.1,12.4-13.62,7.17C4.9,102-.09,95,0,85.93V26.72C0,10.47,3.33,7.26,20,7.28q10,.13,19.94.23c9.35,0,12.93,6,12.58,19.15s-3.95,17.68-12.92,16q-3.21-.59-6.44-1.24c-5.17-1-6.49-.57-6.42,2.59s1.4,4.29,6.58,5.55l1.29.31" fill="#ff3200"/><path d="M87.25,57.89c.23-7.44-.24-9.46-2.7-9.6S81.38,50,81.23,57.42c-.24,12.27,0,23.82.52,34.74.34,6.53,1.07,8.14,3.35,8.42s2.72-1.25,2.42-7.79c-.49-10.95-.61-22.54-.25-34.9M110,95.32c.36,23.73-2.08,38.25-21.74,36.8-20-2.59-28.89-19.46-30.27-42.7-.75-11.65-1.23-23.9-1.33-36.83C56.39,26.37,64.4,6,87.91,5.68c23.74-.25,25.68,23,23.31,51.2-1.07,13.79-1.41,26.55-1.18,38.44" fill="#ff3200"/><path d="M141.54,59.59c-1,7.2-.52,8.81,1.77,8.63s3.06-1.92,4.13-9.06c.09-.6.18-1.2.28-1.8,1.17-7.25,1-9.18-1.46-9s-3.4,2.11-4.46,9.43c-.09.61-.17,1.21-.25,1.82M157.9,74.11c-.92.12-1.17.31-1.25,1s.13.78,1,.66c6.92-1,9.47,4.48,8.19,21-.26,4.39,2,6.11,1.9,12.49-.06,8.27-3.27,12.55-11.55,14.77-7.93,2-12.27-2.8-12.48-17.95q0-6.55.29-13.51c.32-6.23-.06-7.83-2.31-7.55s-2.94,2-3.17,8.28c-.25,7.3-.21,14.24.07,20.87.44,9.83-2.08,14.35-9.3,15.52s-11-2.75-11.78-13c-1.66-22-1.18-47.31,2.75-77.25,3.47-25.29,8.8-32.23,25-31.55l9.94,0c23.51,0,23.81,17.14,18.39,38.55-5.19,21.85-9,26.59-15.76,27.7" fill="#ff3200"/><path d="M264.56,17.47C259.63,28.89,254.12,33.69,245,34.7c-2.57.24-3.86,2-5.9,8.22-6,18.6-9.32,34.87-10.62,49.55-.71,8.51-4.19,12.8-12.1,15.12s-11.23-.24-10.93-9.18C206.08,83,208.68,65.82,214,46c1.8-6.63,1.76-8.37-.75-8.11-8.62.8-11.19-4-7.19-17.29C210.18,7.1,216.62.62,225.88.69L259.11.52c9.38-.05,10.54,5.43,5.46,17" fill="#ff3200"/><path d="M313.22,77.26C312.11,85.39,306.82,88.93,296,90c-10.67,1.13-14.68-1.4-13.51-9.49.9-5.78,2.11-11.74,3.66-17.91,1.27-4.94,1-6.16-1.93-5.79s-4,1.77-5.24,6.76c-1.56,6.22-2.76,12.21-3.66,18-1.17,8.11-5.67,12-15,13.86-9.22,1.86-12.84-.48-11.87-8.81,2.55-19.87,8.9-42.39,20.85-69.45C274.32,5.75,281.15.3,290.42.35s10.7,4.9,5.83,15.43q-5.18,11.29-9,21.62c-2,5.51-1.73,6.72,1.09,6.42s4-1.67,6-7.1q3.81-10.22,8.85-21.28C307.91,5,314.54.14,323.82.18s11.22,4.4,7.27,14.09c-9.43,23.06-15,43.67-17.87,63" fill="#ff3200"/><path d="M360.46,61c-.28,2.48,1.44,3.07,9,3.25q4.74.13,9.63.33c13.66.59,20.06,5.14,20.07,14.35s-6.74,12.21-21.23,10.86c-10.28-.91-20.06-1.46-29.39-1.7C325.6,87.62,322,85.6,324,70.8a283.15,283.15,0,0,1,13.13-50.08C343.44,3.85,348.87-.05,365.43,0L384.3,0c9.32,0,13.32,3.94,13.32,13.14s-5.26,13-16.94,13l-6.56,0c-6.5.06-8.2.76-8.72,3.33s1,3.16,7.75,3.11h5.09c11.88,0,17.23,4.11,17.12,13.26s-6.29,12.65-19.66,12.23q-2.84-.08-5.64-.13c-7.43-.12-9.28.54-9.59,3" fill="#ff3200"/><path d="M118.75,199.38c7.77-.88,11.83,1.56,14.19,8.66s.12,10.78-7.94,12q-5.78.85-11.93,1.3c-15.67.85-20.06-2.44-23.17-16.23C86,188,81.83,169.7,78.39,149.28c-1.57-9.4,1.52-12.86,9.5-11.9,8,.81,11.72,5,13.44,14.18,2.94,15.6,6.54,29.68,10.22,42.87,1.22,4.38,2.12,5.41,4.39,5.22l2.81-.28" fill="#ff3200"/><path d="M150.15,163.93c-1.13-4.39-1.86-5.4-3.82-4.84s-2.21,1.84-1.05,6.28c1.93,7.37,4.1,14.37,6.38,21.11,1.38,4,2.21,4.85,4.15,4.18s2.06-1.83.68-5.83c-2.28-6.68-4.43-13.61-6.33-20.91m25.75,14.5c5,14.3,4.43,25.81-12.6,32.47-17.27,6.32-26.48-2.5-31.34-18-2.44-7.69-4.82-15.71-7-24.21-4.47-17.61-1-31.26,16.79-34.82,17.87-4.06,23.79,6.42,27.56,22.34,1.86,7.77,4.11,15.12,6.56,22.24" fill="#ff3200"/><path d="M195.81,128.91c.37-7.35,3.65-11.15,10.24-12.1s9.41,1.79,8.56,9c-2.11,18.2-1,34.76,1.29,51.15,1.05,7.7-.24,11.26-8.34,14.4s-11.41,1.34-15.35-5.26c-8.44-14.1-16.31-28.63-22-46-2.21-6.89-.15-11.43,5.66-14.16,6.09-2.86,9.2-.88,10.86,5.81a166.76,166.76,0,0,0,7.5,22.32,1,1,0,0,0,1.27.62,1.32,1.32,0,0,0,.79-1.38,178.33,178.33,0,0,1-.48-24.4" fill="#ff3200"/><path d="M249.32,156.27c.45,2,1.77,2.25,6.93,1.6q3.24-.4,6.6-.7c9.48-.81,14.47,2.38,15.81,9.73s-2.16,10.38-11.2,10.75a166.9,166.9,0,0,0-18.38,1.91c-14.32,2.53-17.54,1.23-21.37-10.86a201.07,201.07,0,0,1-8.22-39.48c-1-13,2.12-17.08,18.39-20.45,6.19-1.25,12.61-2.39,19.33-3.37,10.15-1.46,14.59,1.51,14.46,9s-4.45,10.93-14.35,12.23q-2.81.38-5.55.81c-5.45.87-6.69,1.67-6.51,3.7s1.54,2.28,7,1.44q2-.31,4.12-.59c9.78-1.3,14.57,1.63,15.33,8.89s-3,10.47-12.46,11.45q-2,.22-4,.47c-5.22.7-6.33,1.45-5.91,3.42" fill="#ff3200"/><path d="M178.93,236.88c-1.22-3.83-2.06-4.56-4-3.79s-2.18,1.91-1,5.73c2,6.38,3.71,12.89,5.09,19.66.81,4.07,1.48,5,3.61,4.2s2.46-2,1.6-6.08c-1.45-6.8-3.26-13.33-5.28-19.72m25.62,13.27c3.72,15.77-.28,29.83-19.5,35.51-19.66,5.8-25.8-4.11-27.94-19.06A198.89,198.89,0,0,0,152.44,245c-4-14.55-1.8-25.13,15.31-31.64,16.81-6.72,25.18.1,30.3,14.63,2.43,7.1,4.66,14.43,6.5,22.16" fill="#ff3200"/><path d="M229.09,217.56c6.88-2.06,11,.34,13.28,7.91s0,11.67-6.88,13.39l-1,.26c-3.94,1.05-4.75,1.92-4.19,4.14,1.16,4.66,2.22,9.46,3.15,14.46,1.55,8.46-1.09,13-8.16,14.8s-10.47-1-11.73-9c-2.79-17.24-7.6-32.23-12.92-46.51-4.44-11.8-3.18-15.18,8.86-20,4.83-1.89,9.76-3.67,14.84-5.29,7.15-2.24,11.41-.07,13.75,6.9s.23,10.78-6.77,12.74q-2.49.72-4.95,1.5c-3.92,1.26-4.69,2.12-4,4.1s1.82,2.16,5.73.94l1-.3" fill="#ff3200"/><path d="M355.54,165.48Q335.19,189.55,317,215.29,308,228,299.49,241q-4.25,6.53-8.37,13.13c-2,3.16-3.91,10-7.62,11.51-1.69-7.3,4.64-15.65,6.7-22.39-6.77,3.23-7.53,14.58-14.94,15.83l9.43-20.44c-7.31-.47-8.23,13.43-15.55,13.62.54-4.2,3-7.9,5.34-11.44,4.71-7,10.23-14.64,18.57-16.5,2.75-.61,5.76-.58,8.13-2.08a14,14,0,0,0,3.87-4.37l34.8-52.59c2.24-3.38,4.7-7,8.48-8.5s9.16.12,9.84,4.11c.85,4.93-5.19,7.84-8.66,11.49" fill="#ff3200"/><path d="M53.07,201.05q17.68,26,37.59,50.53,9.82,12.11,20.13,23.82,5.15,5.86,10.42,11.62c2.52,2.75,8.58,6.5,9,10.45-7.57-.44-13.91-8.79-19.87-12.63,1.24,7.33,12.06,11.23,11.2,18.61l-17.22-14.68c-2.51,6.8,10.74,11.57,8.87,18.57-3.93-1.69-6.85-5-9.62-8.26-5.52-6.45-11.36-13.81-10.83-22.23.18-2.78,1.06-5.62.26-8.29a13.93,13.93,0,0,0-3.16-4.9L48.53,215.9c-2.66-3.07-5.44-6.41-5.88-10.42s2.68-8.65,6.75-8.18c5,.59,6.17,7.12,8.74,11.44" fill="#ff3200"/></svg>