<svg id="Layer_1" data-name="Layer 1" xmlns="http://www.w3.org/2000/svg" viewBox="0 0 318.83 125.9"><title>red 02 text</title><path d="M41.84,71.84c-1.17,4.93-.74,6.16,2.45,6s4.32-1.54,5.58-6.48q.77-3.08,1.45-6.11c1.06-4.84.46-5.94-2.8-5.73s-4.32,1.42-5.32,6.27q-.64,3-1.36,6.1m.28,25c-6,.34-7.92,1.68-9.79,7q-1.19,3.34-2.49,6.74c-3.74,9.59-9.73,14-19,13.92s-12.22-4-10.17-13.24A441.93,441.93,0,0,0,10,54.36c1.18-15.45,6.74-17.64,29-17.77q6.57-.1,12.84-.4c28.61-1.57,34.25,7.34,30,26q-.77,3.08-1.66,6.23c-4.4,15.16-14.7,27.2-35.15,28.29l-3,.17" fill="#ff3200"/><path d="M119.14,50.19c-2.61.52-3.47,1.84-4.65,7q-1.13,4.84-2.57,9.89c-1.56,5.41-1.41,6.77,1.26,6.38S117,71.5,118.5,66q1.42-5.13,2.52-10c1.16-5.21.69-6.29-1.88-5.8m10.8,55.52c-5,12.46-11.61,18.41-20.87,18.36s-10.55-5.4-5.46-16.88q2.69-6.14,5-12c2.43-6.21,2.25-7.57-.39-7.3s-3.83,1.79-6.27,7.89q-2.32,5.74-5,11.76C91.85,118.9,85,124.29,75.75,124.24S65,119.4,69.83,109A274.11,274.11,0,0,0,87.28,60.25c4.2-18.36,12.61-29.88,35-35.06,21.49-5.25,27.17,4.11,24,24.54-2.89,16.42-8.09,34.82-16.31,56" fill="#ff3200"/><path d="M168.75,94.42c3-.17,4.32-2.17,6.08-9.4,3.73-18.76-26.68-7.42-20.42-43.62,2-15.8,9.55-27.42,25.76-32.28,15.28-4.39,23.14,3,23.27,17.8,0,8.38-3.4,15.59-10.41,16.64-7.83,1.23-10.62-3.29-10.23-9.83.18-3.27-.35-4.1-2.52-3.62s-2.76,2-3.21,7.63c-2.19,16.7,28.71,0,21.76,47.43-3.92,22.62-18.8,41-40,40.71-20.45-.15-23.34-13.95-17.33-31.18,3.45-10.11,8.59-17,16.32-18,8.53-1.07,10.93,4.05,8.69,12.51-1.18,4.32-.77,5.4,2.25,5.2" fill="#ff3200"/><path d="M256.33,15.1c1,10.6-2.19,15.12-10,14.81-2.23,0-2.66,1.47-2.48,8a453.66,453.66,0,0,1-3.45,66.54c-1.76,14.58-7,21.5-16.33,21.45s-11.72-6.9-9-21.47a399.67,399.67,0,0,0,6.68-65.88c.06-6.41-.57-7.85-2.71-7.66-7.62.79-10.65-3.44-11-13.42s2.08-14.34,9.3-15.52A166.26,166.26,0,0,1,243.63,0c7.57.13,11.65,4.65,12.7,15.09" fill="#ff3200"/><path d="M288.18,35.83c-2.46-.6-2.91.78-2.51,7.18q.37,6,.63,12.25c.27,6.68.89,8.54,3.37,9s3.06-1.09,2.77-7.68q-.27-6.16-.65-12.11c-.4-6.33-1.16-8-3.62-8.65m30.65,71.58c-.13,11.47-4.12,16.65-13.42,16.63s-12.92-6.06-12.54-19.26q.18-7,.22-13.77c0-7.18-.64-9-3.13-9.39s-3.09,1.29-3.18,8.62q-.09,6.89-.34,14.05c-.46,13.35-4.91,19.54-14.21,19.5s-12.47-6.66-11.3-20.91a511.06,511.06,0,0,0,1-65.47c-1.1-23.85,1.43-38.19,23.14-32.86,22.29,6.62,31.42,25,32.25,46.54.92,17.8,1.49,36.5,1.49,56.31" fill="#ff3200"/></svg>