<svg id="Layer_1" data-name="Layer 1" xmlns="http://www.w3.org/2000/svg" viewBox="0 0 449.79 480.98"><title>123</title><path d="M272,276.07c-27.52-3.67-54.65-.83-81.33,6.52-23.87,6.58-46.2,17.61-67.78,29.58C100.91,324.36,79.8,338,59,352c-14.19,9.58-18.91,31.56-8.29,45.53,10.84,14.26,30.32,18.56,45.53,8.29,29.88-20.16,60.87-40.89,94.56-54.12,62.09-24.39,112.37-2,165.05,31.7l0,0,28.06-59.29c-34.14-22.54-71-42.63-112-48.1" fill="#972345"/><path d="M398.63,334.09q-7.26-5-14.68-9.92l-28.06,59.29c6.26,4,12.86,8.1,20.26,8.7,29.16,2.34,47.47-40.85,22.48-58.07" fill="#000d38"/><path d="M187.06,471.26c16.68,6.91,35.37.61,43.5-15.82a418.81,418.81,0,0,0,17.5-40.74l-79.75,28.52c.75,11.82,7.68,23.45,18.76,28" fill="#000d38"/><path d="M271.51,316.57c1.59-19,1.48-39-6.41-56.74-8.59-19.35-22.81-36.27-43.24-43.64-23.72-8.56-86.51-5.36-109.13,5.35C87.58,233.45,101,253.85,84.82,276.33,64.22,304.91,50,338,45.43,373.09c-2.21,17,8.21,35.55,26.33,38.06,16.83,2.33,35.7-8.2,38.06-26.33,3.09-23.77,11.77-48.48,25.72-68.69,8.23-11.92,44.07-52.11,62.88-39.2l.1,0,.08.06-.08,0a18.11,18.11,0,0,1,5,5.53c3.17,5.2,3.5,11.62,3.37,17.72-.52,24.94-7.05,49.31-13.55,73.39-6.66,18.2-12.77,37-22.12,54.12a30.48,30.48,0,0,0-2.94,15.45l79.76-28.52a442.89,442.89,0,0,0,15.84-52.95,318.38,318.38,0,0,0,7.62-45.17" fill="#972345"/><path d="M206.37,472.48a39.54,39.54,0,1,1,74.47-26.63Z" fill="#fff"/><path d="M401.74,381.86A39.54,39.54,0,0,1,444.3,315.2Z" fill="#fff"/><path d="M226.6,420.74a41.25,41.25,0,0,1-7.5-3.11c-1.07-.58-2.11-1.21-3.12-1.9-.68-.46-2.92-2.71-3.58-2.71l-.85,1.16,2.07.8a25.46,25.46,0,0,1,10,8.09c1.24,1.65,4.76,1.44,4.47-1.21a22.08,22.08,0,0,1,4.36-16.17l-3.77.49c4,4.28-.09,10-2.93,13.6-1.88,2.41,1.5,5.83,3.39,3.39,4.6-5.91,9.08-13.84,2.93-20.39a2.44,2.44,0,0,0-3.77.49,26,26,0,0,0-5,18.59l4.47-1.21a31,31,0,0,0-10.41-9.19c-2.45-1.28-7.3-3.86-9.5-.72-4.6,6.57,13.54,13.4,17.49,14.64,3,.93,4.22-3.7,1.28-4.63" fill="#00153b"/><path d="M389.48,325a57.45,57.45,0,0,1-20.43-1.21l1.68,1.68c-.28-1.5,9.25.74,9.87.89l7.83,1.9c1.6.39,3.68-1.16,3-3a23.12,23.12,0,0,1-.17-17.65l-4.39.57a32.56,32.56,0,0,1,2.6,18.21c-.43,3,4.19,4.33,4.63,1.28A38.41,38.41,0,0,0,391,305.81c-.94-2.08-3.73-1.13-4.39.57a27.05,27.05,0,0,0,.17,20.2l3-3c-5-1.22-25.95-9.24-23.6,3.12a2.35,2.35,0,0,0,1.68,1.68,61.33,61.33,0,0,0,21.7,1.38c3-.35,3.07-5.15,0-4.8" fill="#00153b"/><path d="M190.84,480.83l94.21-33.69c2.89-1,1.64-5.67-1.28-4.63L189.56,476.2c-2.89,1-1.64,5.67,1.28,4.63" fill="#00153b"/><path d="M400.77,384.93a659.81,659.81,0,0,0,48.66-70.15c1.6-2.65-2.55-5.07-4.14-2.42a650.64,650.64,0,0,1-47.91,69.18c-1.9,2.4,1.47,5.81,3.39,3.39" fill="#00153b"/><path d="M70.56,156.34c-4.07.85-8.35-1.08-11.22-4.08s-4.56-6.93-5.89-10.87a81.36,81.36,0,0,1-3.68-35.08c.39-3.42,1.08-7,3.29-9.63s6.36-4,9.19-2c2.53,1.76,3.05,5.2,3.73,8.21s2.33,6.43,5.4,6.75,5.35-2.6,6.75-5.32C84.36,92.2,85.9,76.69,96.85,68.57A5.58,5.58,0,0,1,100,67.23a4.7,4.7,0,0,1,2.7,1c5.17,3.64,5.11,11.36,3.3,17.42s-4.85,12.14-3.79,18.38a3.38,3.38,0,0,0,1,2.1c1.62,1.34,3.82-.59,5.79-1.32,3.71-1.38,7.76,2.23,8.38,6.14s-1.09,7.78-2.75,11.38l-10.18,22a34.6,34.6,0,0,1-4.53,7.89,17.87,17.87,0,0,1-22.55,3.46Z" fill="#00153b"/><path d="M245.49,147.11c32.47-16.92,44.94-30,62.45-61.16,7.83-13.94,11.35-27,27.44-43.92,16.23,11,40.74,14,55.84,26.79-2.28,2.44-4.72,4.85-7.17,7.27-17.09,16.92-26.21,42-39.7,61.61-25,36.39-59.42,56.89-97.65,69.78-5.81-17.69-11.62-35.46-17.58-53.24a132.51,132.51,0,0,0,16.37-7.13" fill="#ffb0ff"/><path d="M120.63,201.4c-.81-16.53,10.15-29.45,26.35-31.85,27.68-4.11,55.9-5.85,82.14-15.31,6,17.78,11.77,35.55,17.57,53.24-30,10.11-62.29,15.54-94.22,20.28-15.13,2.25-31.11-11.17-31.85-26.35" fill="#fff"/><path d="M39.56,254.48c-.79-18.75,4-36.8,16-51.52C65.72,190.4,80.82,181.6,96,176.5c17.59-5.92,36.35-8.34,54.84-8.77,15.24-.35,31,9.82,31.85,26.35.73,14.89,16.25,29.34,0,31.08-23.92,2.56-68.73,2.75-80.48,17.24-11.19,13.8-2.41,22.23,9.36,30.17a484.19,484.19,0,0,1-33.59,48.85c-.85-.61-1.68-1.21-2.47-1.81C54.64,304,40.66,280.82,39.56,254.48" fill="#fff"/><path d="M70.54,189,80,155.49a10.25,10.25,0,1,1,4.08-17.64c.25.22.49.45.71.69l4.08-14.44A3.77,3.77,0,0,1,93,121.39c9.16,1.09,34.8,6.72,37.5,35.52a3.79,3.79,0,0,1-3.65,4.16l-11.24.32,4.46,31a25.29,25.29,0,0,1-15.9,27.38c-.52.19-1,.38-1.57.55C83.33,226.5,65,208.39,70.54,189" fill="#ffb0ff"/><path d="M77.95,321.43c9.84,7.08,23.39,15,36.61,17.68,25.56,11.38,65.83.84,84.89-13.31,20.67-15.35,34.68-39.81,39.17-65a139.52,139.52,0,0,0-6.3-72.83c-6.87-18.41-17.6-34.74-30.47-49.32-12.61,15.21-25.16,30.44-38.42,44.93,12.16,16,19.6,35,18.93,55.84-.46,14.24-5.17,29.22-16.39,38-10.14,7.93-22,7.07-34.08,5.57-.4,0-.79-.07-1.19-.11l-.1,0a141.09,141.09,0,0,1-19.06-10.28,484,484,0,0,1-33.59,48.85m34.79-46.1,1.54,1c-.07.11-.67-.29-1.54-1" fill="#ffb0ff"/><path d="M390.37,71.61l16.57-.22c4.48,0,9.63-3.5,9.41-9.15-.21-5.47-5.84-8.74-11.56-8.8l-10.5.08,2.1-2.38,27.9-28.56c7.09-7.62,7.39-12.89,4.14-16.06L428,6.05c-3.71-3.63-10-1.31-14.73,3.49L396,27.06c4.6-5.42,7.5-11,3-14.76l-.45-.44c-2.67-3-6.09-1.91-10.1.15,1.46-3.51,1.14-6.9-.86-9.1C382.3-2.87,375.61.78,369.72,6.81L335.38,42,378.3,84Z" fill="#ffb0ff"/><path d="M394.69,50.5,385,60.44c-2.16,2.21,1.23,5.61,3.39,3.39l9.71-9.93c2.16-2.21-1.23-5.61-3.39-3.39" fill="#00153b"/><path d="M399.52,19.58l-3.83,3.92c-2.16,2.21,1.23,5.61,3.39,3.39l.38-.39-3.39-3.39L392.24,27c-2.16,2.21,1.23,5.61,3.39,3.39l3.83-3.92c2.16-2.21-1.23-5.61-3.39-3.39l-.38.39,3.39,3.39L402.91,23c2.16-2.21-1.23-5.61-3.39-3.39" fill="#00153b"/><path d="M388.4,8.71l-7.28,7.45c-2.16,2.21,1.23,5.61,3.39,3.39l7.28-7.45c2.16-2.21-1.23-5.61-3.39-3.39" fill="#00153b"/><path d="M411.49,12.05l11,10.76c2.21,2.16,5.61-1.23,3.39-3.39l-11-10.76c-2.21-2.16-5.61,1.23-3.39,3.39" fill="#00153b"/><path d="M408.14,54.66l-2.82,15.19c-.56,3,4.07,4.31,4.63,1.28l2.82-15.19c.56-3-4.07-4.31-4.63-1.28" fill="#00153b"/><path d="M112,134.69a48.12,48.12,0,0,1,13.65,8.43l.49-3.77a7.9,7.9,0,0,0-3.88,3.64c-1.48,2.71,2.66,5.14,4.14,2.42a3.82,3.82,0,0,1,2.16-1.92,2.41,2.41,0,0,0,.49-3.77,55.1,55.1,0,0,0-15.77-9.67c-2.86-1.16-4.11,3.48-1.28,4.63" fill="#00153b"/><path d="M79.82,143l-6.61.58a2.46,2.46,0,0,0-2.4,2.4,2.42,2.42,0,0,0,2.4,2.4l6.61-.58a2.46,2.46,0,0,0,2.4-2.4,2.42,2.42,0,0,0-2.4-2.4" fill="#00153b"/><path d="M95.06,141.39a7.12,7.12,0,0,1,8.32-3.07c3,.92,4.22-3.71,1.28-4.63A12,12,0,0,0,90.92,139c-1.6,2.65,2.55,5.07,4.14,2.42" fill="#00153b"/><path d="M110.24,150.31a5,5,0,0,0,9.22,2.49,2.42,2.42,0,0,0-.86-3.28,2.45,2.45,0,0,0-3.28.86c.21-.29-.29.08-.07,0s-.34-.05-.06,0-.21-.2-.09-.07-.09-.39-.05,0a2.47,2.47,0,0,0-2.4-2.4,2.42,2.42,0,0,0-2.4,2.4" fill="#00153b"/><path d="M209.81,171.11l-58.58.95a1.45,1.45,0,0,1-1.47-1.43l-1.52-94a1.45,1.45,0,0,1,1.43-1.47l58.58-.95a1.45,1.45,0,0,1,1.47,1.43l1.52,94a1.45,1.45,0,0,1-1.43,1.47" fill="#00153b"/><path d="M164.12,86.6a3.55,3.55,0,1,1-3.6-3.49,3.55,3.55,0,0,1,3.6,3.49" fill="#fff"/><path d="M172.77,199.84,157,191.08c-4.3-2.26-8-8.59-5.85-14.32,2.08-5.55,8.59-6,14.08-3.16l10,5.49-1.19-3.55-6.77-17.63c-4.16-11.54-.26-17.38,3.94-19,7.61-1.94,10,6.33,10,6.33l1.48,5.6c-2.53-8-3.39-15.23,2.24-16.81l.58-.22c3.58-1.7,6.48,1.16,9.6,5.35-.19-4.38,1.29-7.72,4-9,7-3.27,12.15,4,15.71,13.23l20.72,54.13-55.45,21.28Z" fill="#ffb0ff"/><path d="M171.37,177.29l5.86,15.28c1.1,2.86,5.74,1.62,4.63-1.27L176,176c-1.1-2.85-5.74-1.62-4.63,1.28" fill="#00153b"/><path d="M177.38,142.81l2.31,6,4.63-1.27-.23-.6c-1.1-2.85-5.74-1.62-4.63,1.28l2.31,6c1.1,2.85,5.74,1.61,4.63-1.28l-2.31-6-4.63,1.28.23.6c1.1,2.86,5.74,1.62,4.63-1.27l-2.31-6c-1.1-2.86-5.74-1.62-4.63,1.27" fill="#00153b"/><path d="M191.76,137.3l4.4,11.46c1.1,2.85,5.74,1.61,4.63-1.28L196.38,136c-1.1-2.85-5.74-1.62-4.63,1.28" fill="#00153b"/><path d="M156.86,172l-2.53,17.16c-.45,3,4.18,4.33,4.63,1.28l2.53-17.16c.45-3-4.18-4.33-4.63-1.28" fill="#00153b"/><path d="M24.44,185.69A90.07,90.07,0,0,0,2.88,269.8a1.15,1.15,0,0,0,2.23-.54A87.7,87.7,0,0,1,26,187.37c1-1.07-.55-2.75-1.57-1.68" fill="#fff"/><path d="M25.79,194.83a65.13,65.13,0,0,0-8.69,57c.45,1.4,2.68.87,2.23-.54A62.92,62.92,0,0,1,27.73,196c.85-1.21-1.1-2.42-1.95-1.22" fill="#fff"/><path d="M169.74,50.58V62c0,3.09,4.8,3.09,4.8,0V50.58c0-3.09-4.8-3.09-4.8,0" fill="#fff"/><path d="M184.35,46.63l-3.1,13.11c-.71,3,3.92,4.29,4.63,1.28L189,47.91c.71-3-3.92-4.29-4.63-1.28" fill="#fff"/><path d="M204.74,50.51a41.57,41.57,0,0,0-10.15,13.57c-1.3,2.78,2.84,5.22,4.14,2.42a38.22,38.22,0,0,1,9.4-12.6c2.32-2.05-1.09-5.44-3.39-3.39" fill="#fff"/></svg>