<svg xmlns="http://www.w3.org/2000/svg" width="86" height="86" viewBox="0 0 86 86">
  <g id="frontend" transform="translate(-556 -252)">
    <g id="code" transform="translate(556 252)">
      <path id="Vector" d="M9.143,19.8a2.75,2.75,0,0,1-1.188-.288A18.06,18.06,0,0,1,1.08,13.427a6.36,6.36,0,0,1,0-7.091A17.676,17.676,0,0,1,7.955.289,2.714,2.714,0,0,1,11.59,1.513a2.683,2.683,0,0,1-1.224,3.635A12.39,12.39,0,0,0,5.579,9.4a1.041,1.041,0,0,0,0,1.116,12.39,12.39,0,0,0,4.787,4.247,2.745,2.745,0,0,1,1.224,3.635A2.886,2.886,0,0,1,9.143,19.8Z" transform="translate(23.132 43.836)" fill="#292d32"/>
      <path id="Vector-2" data-name="Vector" d="M2.708,19.855A2.691,2.691,0,0,1,1.52,14.743,12.39,12.39,0,0,0,6.307,10.5a1.041,1.041,0,0,0,0-1.116A12.39,12.39,0,0,0,1.52,5.133,2.745,2.745,0,0,1,.3,1.5,2.745,2.745,0,0,1,3.931.274a18.06,18.06,0,0,1,6.875,6.083,6.36,6.36,0,0,1,0,7.091,17.676,17.676,0,0,1-6.875,6.047A2.377,2.377,0,0,1,2.708,19.855Z" transform="translate(51.77 43.78)" fill="#292d32"/>
      <path id="Vector-3" data-name="Vector" d="M49.245,77H27.756C8.309,77,0,68.692,0,49.245V27.756C0,8.309,8.309,0,27.756,0H49.245C68.692,0,77,8.309,77,27.756V49.245C77,68.692,68.692,77,49.245,77ZM27.756,5.372c-16.511,0-22.384,5.874-22.384,22.384V49.245c0,16.511,5.874,22.384,22.384,22.384H49.245c16.511,0,22.384-5.874,22.384-22.384V27.756c0-16.511-5.874-22.384-22.384-22.384Z" transform="translate(4.499 4.499)" fill="#dd1928"/>
      <path id="Vector-4" data-name="Vector" d="M2.686,5.435a2.7,2.7,0,0,1,0-5.4L71.508,0a2.7,2.7,0,0,1,0,5.4Z" transform="translate(5.327 25.971)" fill="#dd1928"/>
      <path id="Vector-5" data-name="Vector" d="M0,0H86V86H0Z" fill="none" opacity="0"/>
    </g>
  </g>
</svg>
