<svg xmlns="http://www.w3.org/2000/svg" width="83.549" height="83.557" viewBox="0 0 83.549 83.557">
  <g id="ionic" transform="translate(-150.679 -150.831)">
    <path id="Path_28029" data-name="Path 28029" d="M133.835,173.183c.047-.312.119-.623.138-.937a39.787,39.787,0,0,1,2.574-11.968,40.806,40.806,0,0,1,57.259-21.538c.081.043.158.093.286.169a15.224,15.224,0,0,0-2.757,2.655,13.528,13.528,0,0,0-1.854,3.285c-9.844-4.534-19.69-4.707-29.465.007a32.358,32.358,0,0,0-15.273,15.276,33.279,33.279,0,0,0,47.925,42.583,33.341,33.341,0,0,0,12.529-41.3,14.249,14.249,0,0,0,3.4-1.708,15.675,15.675,0,0,0,2.8-2.639c.06.11.1.173.129.238a41.23,41.23,0,0,1,3.082,9.26,37.1,37.1,0,0,1,.774,7.427,47.539,47.539,0,0,1-.191,5.167A40.786,40.786,0,0,1,186.014,213.9a38.945,38.945,0,0,1-7.45,1.417c-.687.061-1.375.11-2.062.169a2.8,2.8,0,0,0-.309.06h-3.1c-.142-.023-.283-.059-.426-.069a45.9,45.9,0,0,1-5.565-.67,39.759,39.759,0,0,1-13.169-4.982,40.577,40.577,0,0,1-17.738-21.6,39.047,39.047,0,0,1-2.215-10.956c-.02-.327-.092-.65-.139-.975Z" transform="translate(17.844 17.846)" fill="#dd1928"/>
    <path id="Path_28029_-_Outline" data-name="Path 28029 - Outline" d="M174.686,132.985c.209,0,.421,0,.632,0a41.467,41.467,0,0,1,9.773,1.295,42.337,42.337,0,0,1,9.181,3.573c.079.042.147.083.22.127l.109.066,1.261.748-1.157.9a14.075,14.075,0,0,0-2.581,2.478,12.449,12.449,0,0,0-1.716,3.045l-.391.977-.956-.44a34.55,34.55,0,0,0-14.472-3.373,32.413,32.413,0,0,0-14.14,3.372,31.423,31.423,0,0,0-14.81,14.817,32.308,32.308,0,0,0,29.017,46.467,32.352,32.352,0,0,0,29.618-45.235l-.409-.974,1-.355a13.208,13.208,0,0,0,3.163-1.586,14.915,14.915,0,0,0,2.623-2.476l.943-1.081.688,1.259.049.087c.038.067.073.13.109.208a41.9,41.9,0,0,1,3.156,9.486,37.867,37.867,0,0,1,.793,7.626v.336a45.24,45.24,0,0,1-.2,4.939,41.871,41.871,0,0,1-29.893,35.579,40.131,40.131,0,0,1-7.641,1.453c-.392.035-.788.066-1.171.1-.3.023-.593.047-.889.072l-.076.017-.128.028-.1.019h-3.286l-.081-.013-.162-.029c-.066-.013-.134-.026-.171-.028a46.412,46.412,0,0,1-5.684-.685,40.934,40.934,0,0,1-13.5-5.108,41.576,41.576,0,0,1-18.163-22.119,40.219,40.219,0,0,1-2.272-11.235,5.38,5.38,0,0,0-.076-.555c-.018-.108-.037-.219-.054-.334l-.011-.072v-3.253l.011-.074c.017-.113.036-.221.055-.325a4.756,4.756,0,0,0,.074-.521,40.964,40.964,0,0,1,2.638-12.268,41.513,41.513,0,0,1,12.111-17.068,41.408,41.408,0,0,1,26.962-9.868ZM192.3,139.1a39.383,39.383,0,0,0-17.01-4.106c-.2,0-.4,0-.6,0a39.853,39.853,0,0,0-37.206,25.652,38.966,38.966,0,0,0-2.509,11.669,6.4,6.4,0,0,1-.1.753c-.012.07-.024.138-.035.2v2.951c.011.07.023.142.036.218a7.057,7.057,0,0,1,.1.773,38.221,38.221,0,0,0,2.157,10.678,39.762,39.762,0,0,0,17.313,21.083,38.941,38.941,0,0,0,12.841,4.857,44.5,44.5,0,0,0,5.444.654,3.334,3.334,0,0,1,.412.06l.036.007h2.906a2.319,2.319,0,0,1,.336-.057c.3-.026.6-.05.907-.073.378-.03.769-.061,1.15-.095a38.127,38.127,0,0,0,7.259-1.381A39.786,39.786,0,0,0,214.2,179.053a43.076,43.076,0,0,0,.184-4.721v-.337a35.893,35.893,0,0,0-.754-7.227,39.182,39.182,0,0,0-2.507-7.917,13.892,13.892,0,0,1-1.956,1.681,14.4,14.4,0,0,1-2.663,1.452,35.421,35.421,0,0,1,2.419,10.755,34.3,34.3,0,0,1-57.166,27.52,34.226,34.226,0,0,1-11.118-30,33.984,33.984,0,0,1,3.206-10.57,33.379,33.379,0,0,1,15.736-15.735,34.4,34.4,0,0,1,15.009-3.571,36.126,36.126,0,0,1,14.378,3.14,14,14,0,0,1,1.575-2.573A13.625,13.625,0,0,1,192.3,139.1Z" transform="translate(17.844 17.846)" fill="#fff"/>
    <path id="Path_28031" data-name="Path 28031" d="M209.257,197.257A11.937,11.937,0,1,1,197.313,209.2,11.95,11.95,0,0,1,209.257,197.257Z" transform="translate(-16.726 -16.621)"/>
    <path id="Path_28031_-_Outline" data-name="Path 28031 - Outline" d="M209.256,196.257v2a10.937,10.937,0,0,0-.012,21.874h.011a10.937,10.937,0,0,0,0-21.874v-2a12.937,12.937,0,0,1,0,25.874h-.013a12.937,12.937,0,0,1,.014-25.874Z" transform="translate(-16.726 -16.621)" fill="#fff"/>
    <path id="Path_28032" data-name="Path 28032" d="M319.237,162a8.494,8.494,0,0,1-16.861,1.477,9.121,9.121,0,0,1,.361-4.512,7.333,7.333,0,0,1,3.636-4.3,8.935,8.935,0,0,1,8.727.017,7.475,7.475,0,0,1,3.919,5.461C319.136,160.76,319.167,161.385,319.237,162Z" transform="translate(-91.553 5.14)" fill="#dd1928"/>
    <path id="Path_28032_-_Outline" data-name="Path 28032 - Outline" d="M310.734,152.543a10.268,10.268,0,0,1,4.834,1.263A8.426,8.426,0,0,1,320,159.96c.09.466.133.925.175,1.368.018.195.035.379.056.562l.007.063v.063a9.512,9.512,0,0,1-7.546,9.291,9.7,9.7,0,0,1-1.988.208,9.462,9.462,0,0,1-9.313-7.869,10.138,10.138,0,0,1,.4-5,8.293,8.293,0,0,1,4.122-4.861A10.421,10.421,0,0,1,310.734,152.543Zm7.5,9.508c-.02-.182-.037-.362-.053-.537-.039-.413-.075-.8-.147-1.173a6.512,6.512,0,0,0-3.405-4.768,8.293,8.293,0,0,0-3.9-1.03,8.445,8.445,0,0,0-3.9,1.017,6.354,6.354,0,0,0-3.15,3.731,8.159,8.159,0,0,0-.321,4.024,7.509,7.509,0,0,0,7.34,6.2,7.7,7.7,0,0,0,1.577-.165A7.522,7.522,0,0,0,318.236,162.051Z" transform="translate(-91.553 5.14)" fill="#fff"/>
  </g>
</svg>
