<svg xmlns="http://www.w3.org/2000/svg" width="86" height="86" viewBox="0 0 86 86">
  <g id="mobile_app" transform="translate(-300 -252)">
    <g id="document-code-2" transform="translate(300 252)">
      <path id="Vector" d="M49.163,76.957H31.286a2.685,2.685,0,0,1,0-5.369H49.163c10.226,0,15.2-4.975,15.2-15.212V20.582c0-10.237-4.97-15.212-15.2-15.212h-28.6c-10.226,0-15.2,4.975-15.2,15.212V45.637a2.7,2.7,0,0,1-2.682,2.685A2.7,2.7,0,0,1,0,45.637V20.582C0,7.517,7.509,0,20.559,0h28.6C62.214,0,69.723,7.517,69.723,20.582V56.375C69.723,69.44,62.214,76.957,49.163,76.957Z" transform="translate(8.139 4.521)" fill="#dd1928"/>
      <path id="Vector-2" data-name="Vector" d="M17.182,19.895H9.947A9.942,9.942,0,0,1,0,9.947V2.713A2.733,2.733,0,0,1,2.713,0,2.733,2.733,0,0,1,5.426,2.713V9.947a4.523,4.523,0,0,0,4.521,4.521h7.234a2.713,2.713,0,1,1,0,5.426Z" transform="translate(49.132 13.4)" fill="#292d32"/>
      <path id="Vector-3" data-name="Vector" d="M9.938,19.886a2.683,2.683,0,0,1-1.917-.8L.787,11.856a2.729,2.729,0,0,1,0-3.834L8.021.787a2.711,2.711,0,0,1,3.834,3.834L6.538,9.938l5.317,5.317a2.729,2.729,0,0,1,0,3.834A2.683,2.683,0,0,1,9.938,19.886Z" transform="translate(4.53 57.976)" fill="#292d32"/>
      <path id="Vector-4" data-name="Vector" d="M2.7,19.886a2.683,2.683,0,0,1-1.917-.8,2.729,2.729,0,0,1,0-3.834L6.1,9.938.787,4.621A2.711,2.711,0,0,1,4.621.787l7.234,7.234a2.729,2.729,0,0,1,0,3.834L4.621,19.09A2.683,2.683,0,0,1,2.7,19.886Z" transform="translate(22.369 57.976)" fill="#292d32"/>
      <path id="Vector-5" data-name="Vector" d="M0,0H86V86H0Z" fill="none" opacity="0"/>
    </g>
  </g>
</svg>
