<?xml version="1.0" standalone="no"?>
<!DOCTYPE svg PUBLIC "-//W3C//DTD SVG 20010904//EN"
 "http://www.w3.org/TR/2001/REC-SVG-20010904/DTD/svg10.dtd">
<svg version="1.0" xmlns="http://www.w3.org/2000/svg"
 width="128.000000pt" height="128.000000pt" viewBox="0 0 128.000000 128.000000"
 preserveAspectRatio="xMidYMid meet">

<g transform="translate(0.000000,128.000000) scale(0.100000,-0.100000)"
fill="#000000" stroke="none">
<path d="M347 796 c-76 -28 -107 -76 -107 -163 0 -91 49 -151 136 -168 47 -8
117 12 110 31 -3 9 -6 18 -6 20 0 2 -18 1 -40 -2 -77 -13 -133 38 -133 120 0
85 53 134 133 123 33 -4 40 -2 46 15 8 25 7 26 -51 32 -32 4 -64 1 -88 -8z"/>
<path d="M545 798 c-3 -8 -4 -85 -3 -173 l3 -159 30 0 30 0 3 147 3 147 70 0
c67 0 70 1 67 23 -3 21 -8 22 -101 25 -75 3 -98 0 -102 -10z"/>
<path d="M876 802 c-10 -17 -116 -317 -116 -329 0 -8 12 -13 30 -13 25 0 31 5
41 40 12 39 12 39 66 42 l54 3 -21 23 c-11 12 -31 22 -44 22 l-24 0 21 65 c11
35 23 62 26 59 4 -3 24 -60 47 -127 40 -120 41 -122 72 -125 22 -2 32 1 32 10
-1 7 -27 85 -58 173 -57 157 -58 160 -89 163 -17 2 -34 -1 -37 -6z"/>
<path d="M649 652 c-32 -22 -22 -32 31 -32 46 0 50 2 50 24 0 20 -5 23 -31 22
-17 -1 -40 -7 -50 -14z"/>
</g>
</svg>
