<svg xmlns="http://www.w3.org/2000/svg" xmlns:xlink="http://www.w3.org/1999/xlink" width="550.566" height="279.98" viewBox="0 0 550.566 279.98">
  <defs>
    <linearGradient id="linear-gradient" x1="0.499" y1="0.995" x2="0.503" y2="0.184" gradientUnits="objectBoundingBox">
      <stop offset="0" stop-color="#ff8282"/>
      <stop offset="1" stop-color="#fff" stop-opacity="0.302"/>
    </linearGradient>
    <linearGradient id="linear-gradient-2" x1="0.497" y1="0.237" x2="0.504" y2="0.929" gradientUnits="objectBoundingBox">
      <stop offset="0"/>
      <stop offset="1" stop-opacity="0"/>
    </linearGradient>
    <linearGradient id="linear-gradient-3" x1="0.497" y1="0.148" x2="0.501" y2="1.164" gradientUnits="objectBoundingBox">
      <stop offset="0" stop-color="#fff"/>
      <stop offset="1" stop-color="#fff" stop-opacity="0"/>
    </linearGradient>
    <linearGradient id="linear-gradient-4" x1="0.489" y1="-0.38" x2="0.502" y2="1.31" xlink:href="#linear-gradient-3"/>
    <linearGradient id="linear-gradient-5" x1="0.702" y1="3.439" x2="0.479" y2="0.166" gradientUnits="objectBoundingBox">
      <stop offset="0" stop-color="#e89797"/>
      <stop offset="1" stop-color="#ff8282"/>
    </linearGradient>
    <linearGradient id="linear-gradient-6" x1="1.056" y1="3.038" x2="0.406" y2="0.228" gradientUnits="objectBoundingBox">
      <stop offset="0" stop-color="#e89797"/>
      <stop offset="1" stop-color="#ff8b8b"/>
    </linearGradient>
    <linearGradient id="linear-gradient-7" x1="0.163" y1="-0.453" x2="0.81" y2="0.958" gradientUnits="objectBoundingBox">
      <stop offset="0" stop-color="#2f1829"/>
      <stop offset="1" stop-color="#3b223c"/>
    </linearGradient>
    <linearGradient id="linear-gradient-8" x1="1.33" y1="1.433" x2="0.189" y2="0.404" xlink:href="#linear-gradient-3"/>
    <linearGradient id="linear-gradient-9" x1="0.516" y1="1.464" x2="0.491" y2="-0.646" gradientUnits="objectBoundingBox">
      <stop offset="0" stop-color="#fecba6"/>
      <stop offset="1" stop-color="#d17878"/>
    </linearGradient>
    <linearGradient id="linear-gradient-10" x1="0.058" y1="1.222" x2="1.277" y2="-0.631" xlink:href="#linear-gradient-9"/>
    <linearGradient id="linear-gradient-11" x1="0.47" y1="0.905" x2="0.534" y2="-0.089" xlink:href="#linear-gradient-9"/>
    <linearGradient id="linear-gradient-12" x1="0.141" y1="0.418" x2="0.807" y2="0.566" xlink:href="#linear-gradient-9"/>
    <linearGradient id="linear-gradient-13" x1="0.245" y1="2.66" x2="0.657" y2="-1.262" xlink:href="#linear-gradient-9"/>
    <linearGradient id="linear-gradient-14" x1="-0.33" y1="1.433" x2="0.811" y2="0.404" xlink:href="#linear-gradient-3"/>
    <linearGradient id="linear-gradient-15" x1="0.543" y1="0.065" x2="0.209" y2="1.414" xlink:href="#linear-gradient-9"/>
    <linearGradient id="linear-gradient-16" x1="1.445" y1="0.165" x2="-0.185" y2="0.723" xlink:href="#linear-gradient-9"/>
  </defs>
  <g id="_4O4_error" data-name="4O4 error" transform="translate(-58.317 -88.766)">
    <g id="Group_1347" data-name="Group 1347" transform="translate(58.317 88.765)">
      <path id="Path_1773" data-name="Path 1773" d="M159.277,343.15s8.52,15.1,69.845,21.983,92.275,29.8,131.248,36.681,87.116-38.4,128.955-31.523,92.274-19.32,96.286-27.141Z" transform="translate(-71.725 -122.547)" fill="#2a2a2a"/>
      <path id="Path_1774" data-name="Path 1774" d="M594.593,306.37h-9.065l-399.456.072s-4.036-3.187-10.331-8.658c-2.7-2.348-5.817-5.117-9.21-8.237q-1.846-1.695-3.795-3.53c-11.9-11.191-26.29-25.98-37.98-41.726-12.317-16.583-21.643-34.229-21.9-49.863-.009-.35-.012-.7-.009-1.045.137-15.131,3.116-31.443,10.48-46.583a91.149,91.149,0,0,1,17.7-24.858C150.838,102.2,182.9,88.377,232.663,88.774c58.027.467,118.213,22.1,172.557,52.03h0c11.368,6.259,22.48,12.884,33.265,19.754q11.969,7.621,23.363,15.6a682.079,682.079,0,0,1,57.834,45.232C558.8,255.575,586.256,287.911,594.593,306.37Z" transform="translate(-64.23 -88.765)" fill="url(#linear-gradient)"/>
      <path id="Path_1775" data-name="Path 1775" d="M594.595,321.615H585.53l-399.456.072s-4.036-3.187-10.331-8.658c-2.7-2.348-5.817-5.117-9.21-8.237q-1.846-1.695-3.795-3.53c-11.9-11.191-26.29-25.98-37.98-41.726-12.317-16.583-21.643-34.229-21.9-49.863,4.964-2.633,16.59-7.907,26.213-5.5,12.611,3.151,15.3,18.134,15.3,18.134s9.032-7.28,18.5-3.827,10.9,13.487,10.9,13.487,11.156-5.753,21.2-3.3,18.1,12.181,7.337,18.491c-10.637,6.231-22.676,1.423-22.962,1.311.145.188,4.374,5.856-3.288,12.839-7.794,7.1,22.089,13.25,22.089,13.25s1.126-19.464,21.193-17.27,36.239,13.028,36.239,13.028,1.013-29.747,17.061-35.19,24.3,12.032,24.3,12.032,35.54-23.017,47.628-1.559,12.567,25.518,12.567,25.518,10.287-56.339,42.562-53.758,38.265,24.959,37.707,27.239,9.27-14.464,18.969-5.379S471.7,260.991,471.7,260.991l51.073-6.026s-5.2-10.073-3.088-18.334C558.8,270.819,586.258,303.156,594.595,321.615Z" transform="translate(-64.232 -104.01)" opacity="0.45" fill="url(#linear-gradient-2)" style="mix-blend-mode: overlay;isolation: isolate"/>
      <path id="Path_1776" data-name="Path 1776" d="M466.772,168.526H315.822c18.913,0,22.639-6.878,33.815-10.6.539-.177,1.069-.333,1.6-.462,10.456-2.649,19.086,3.313,25.771,3.04,7.019-.285,14.757-7.739,22.781-10.315a15.536,15.536,0,0,1,8.442.088c5.636,1.335,11.549,4.2,17.555,3.063,5.226-.989,5.616-3.1,7.722-4.567h0C444.876,155.031,455.987,161.656,466.772,168.526Z" transform="translate(-92.513 -96.734)" fill="url(#linear-gradient-3)" style="mix-blend-mode: hard-light;isolation: isolate"/>
      <path id="Path_1777" data-name="Path 1777" d="M244.648,151.689H114.93a91.112,91.112,0,0,1,17.346-24.5l.354-.354a61.736,61.736,0,0,1,9.852-1.218c20.574-.86,24.928,14.617,24.928,14.617s5.386-7.164,15.131-3.726,6.307,7.738,14.041,10.029a8.47,8.47,0,0,0,3.168.273c7.376-.635,16.691-8.711,24.916-5.716C234.123,144.526,227.949,151.689,244.648,151.689Z" transform="translate(-65.835 -93.654)" fill="url(#linear-gradient-4)" style="mix-blend-mode: hard-light;isolation: isolate"/>
      <path id="Path_1778" data-name="Path 1778" d="M615.491,345.628H133.035a2.926,2.926,0,0,1-2.926-2.926h0a2.926,2.926,0,0,1,2.926-2.926H615.491a2.926,2.926,0,0,1,2.926,2.926h0A2.925,2.925,0,0,1,615.491,345.628Z" transform="translate(-67.851 -122.099)" fill="#2a2a2a"/>
      <path id="Path_1779" data-name="Path 1779" d="M413.649,150.408c-8.6,2.2-18.3,11.541-24.586,12.9-7.927,1.716-17.1-2.3-25.98-4.53a43.852,43.852,0,0,0-6.428-1.186c10.456-2.649,19.086,3.313,25.771,3.04,7.019-.285,14.757-7.739,22.781-10.315A15.536,15.536,0,0,1,413.649,150.408Z" transform="translate(-97.936 -96.867)" fill="#fff" opacity="0.25" style="mix-blend-mode: overlay;isolation: isolate"/>
      <path id="Path_1780" data-name="Path 1780" d="M202.406,146.805c-7.738,4.045-11.324-5.157-18.069-8.173-7.735-3.457-13.181,7.329-15.473,5.463s-3.3-9.885-12.036-14.042c-4.96-2.355-14.54-2.87-21.9-2.87l.354-.354a61.736,61.736,0,0,1,9.852-1.218c20.574-.86,24.928,14.617,24.928,14.617s5.386-7.164,15.131-3.726,6.307,7.738,14.041,10.029A8.47,8.47,0,0,0,202.406,146.805Z" transform="translate(-68.492 -93.654)" fill="#fff" opacity="0.25" style="mix-blend-mode: overlay;isolation: isolate"/>
      <path id="Path_1781" data-name="Path 1781" d="M451.9,127.213s54.161,48.358,75.654,41.767S414,98.455,451.9,127.213Z" transform="translate(-109.688 -92.889)" fill="url(#linear-gradient-5)"/>
      <path id="Path_1782" data-name="Path 1782" d="M88.43,183.848s-18.458,32.414,13.756,66.6c7.45,7.907,8.31,22.605-6.592,23.423S57.481,238.3,58.34,209.067,93.381,166.6,88.43,183.848Z" transform="translate(-58.317 -100.372)" fill="url(#linear-gradient-6)"/>
      <path id="Path_1783" data-name="Path 1783" d="M512.893,383.695s-31.187,6.878-39.211,17.48c-3.927,5.189,11.659,4.41,24.92-1.29C512.436,393.941,523.842,382.963,512.893,383.695Z" transform="translate(-113.395 -127.927)" fill="#2a2a2a"/>
      <path id="Path_1784" data-name="Path 1784" d="M256.9,381.386s12.141-.287,22.835,3.869,12.985,16.907,2.383,18.484-34.749-12.555-33.385-18.34C249.735,381.144,256.9,381.386,256.9,381.386Z" transform="translate(-83.597 -127.624)" fill="#2a2a2a"/>
    </g>
    <path id="Path_1785" data-name="Path 1785" d="M190.686,296.949l-6.858,23.786c-2.7-2.348-5.816-5.117-9.209-8.237l-1.488-2.774s2.609-30.5-6.01-42.715c8.253,5.764,12.2,28.839,12.2,28.839l-1.282,1.713h1.282a32.133,32.133,0,0,1,2.838,9.663c5.282-27.443.149-40.7,0-41.067a41.562,41.562,0,0,1,6.773,13.587c2.524,8.478,1.58,13.816,1.58,13.816l-2.05,3.389Z" transform="translate(-14.449 -23.557)" style="mix-blend-mode: overlay;isolation: isolate"/>
    <g id="Group_1350" data-name="Group 1350" transform="translate(316.064 236.276)">
      <g id="Group_1348" data-name="Group 1348" transform="translate(67.134 45.328)">
        <path id="Path_1786" data-name="Path 1786" d="M433.945,326.32a35.547,35.547,0,0,0,3.895-4.149c.292-.38.565-.765.8-1.145l1.015,1.239-.347-1.949s6.989-2.449,9.51-9.181c-1.535,7.414-4.493,12.9-7.974,15.461a7.372,7.372,0,0,1-4.793,1.589C430.643,327.9,433.945,326.32,433.945,326.32Z" transform="translate(-432.948 -311.134)" fill="#f3475c"/>
        <path id="Path_1787" data-name="Path 1787" d="M448.942,311.134s-5.115,17.4-15.093,16.738" transform="translate(-433.068 -311.134)" fill="none" stroke="#fff" stroke-linecap="round" stroke-linejoin="round" stroke-width="0.464" opacity="0.25" style="mix-blend-mode: overlay;isolation: isolate"/>
        <path id="Path_1788" data-name="Path 1788" d="M433.945,328.01a35.547,35.547,0,0,0,3.895-4.149,11.248,11.248,0,0,0,3.009,4.426,7.372,7.372,0,0,1-4.793,1.589C430.643,329.587,433.945,328.01,433.945,328.01Z" transform="translate(-432.948 -312.824)" opacity="0.25" style="mix-blend-mode: overlay;isolation: isolate"/>
      </g>
      <path id="Path_1789" data-name="Path 1789" d="M369.358,305.977S353.2,290.84,355.82,270.589c1.659,9.378,8.486,20.571,8.486,20.571l-.847,2.529,3.032-.589s3.823-23.111-4.779-34.234c11.606,11.953,11.47,29.748,11.47,29.748L371,291.891l2.185.958s-2.544,8.636,5.008,5.319,12.333-32,5.5-39.3c8.193,7.038,6.828,31.216,6.828,32.03s-3.55,4.052-3.55,4.052L389.7,296.9S387.984,313.275,369.358,305.977Z" transform="translate(-355.534 -258.865)" style="mix-blend-mode: overlay;isolation: isolate"/>
      <path id="Path_1790" data-name="Path 1790" d="M456.056,335.525s-5.613-5.26-4.7-12.3a25.455,25.455,0,0,0,2.948,7.147l-.295.879,1.054-.206s1.329-8.029-1.661-11.894c4.032,4.153,3.985,10.335,3.985,10.335l-.759,1.139.759.333s-.884,3,1.74,1.848,4.285-11.119,1.913-13.655c2.846,2.445,2.372,10.845,2.372,11.128s-1.234,1.408-1.234,1.408l.95.679S462.528,338.061,456.056,335.525Z" transform="translate(-368.245 -266.872)" style="mix-blend-mode: overlay;isolation: isolate"/>
      <g id="Group_1349" data-name="Group 1349" transform="translate(61.794 34.92)">
        <path id="Path_1791" data-name="Path 1791" d="M431.352,325.144l-4.561.317c3.29-2.954,2.8-5.786,2.3-7.082a3.938,3.938,0,0,0-.355-.74l2.149-.347-1.2-1.642s3.9-4.507,5.367-16.518a20.433,20.433,0,0,1,.382,20.15A24.685,24.685,0,0,1,431.352,325.144Z" transform="translate(-426.79 -299.132)" fill="#ffca51"/>
        <path id="Path_1792" data-name="Path 1792" d="M435.572,299.133s3.963,16.753-4.878,25.875" transform="translate(-427.308 -299.132)" fill="none" stroke="#fff" stroke-linecap="round" stroke-linejoin="round" stroke-width="0.464" opacity="0.25" style="mix-blend-mode: overlay;isolation: isolate"/>
        <path id="Path_1793" data-name="Path 1793" d="M431.352,328.091l-4.561.317c3.29-2.954,2.8-5.786,2.3-7.082a8.228,8.228,0,0,0,6.341.9A24.686,24.686,0,0,1,431.352,328.091Z" transform="translate(-426.79 -302.079)" opacity="0.25" style="mix-blend-mode: overlay;isolation: isolate"/>
      </g>
      <path id="Path_1794" data-name="Path 1794" d="M455,336.585H381.063l11.847-9.616s15.778-8.116,22.358-6.424,5.531,7.228,5.531,7.228a9.3,9.3,0,0,1,1.069-.961c1.464-1.138,4.237-2.686,7.051-1.009,4.008,2.387,3.377,5.539,3.348,5.691.129-.128,2.537-2.46,4.487-1.716a5.356,5.356,0,0,1,2.785,2.962s2.561-3.594,4.759-2.275a10.329,10.329,0,0,1,3.438,4S451.274,330.974,455,336.585Z" transform="translate(-358.924 -267.025)" fill="#982245"/>
      <path id="Path_1795" data-name="Path 1795" d="M440.73,336.585H381.063l11.847-9.616s15.778-8.116,22.358-6.424,5.531,7.228,5.531,7.228a9.3,9.3,0,0,1,1.069-.961,14.442,14.442,0,0,1-.016,3.654s3.34-1.258,5.54.554,1.527,3.441,1.527,3.441a6.919,6.919,0,0,1,6.3,0A48.292,48.292,0,0,0,440.73,336.585Z" transform="translate(-358.924 -267.025)" opacity="0.25" style="mix-blend-mode: overlay;isolation: isolate"/>
    </g>
    <g id="Group_1351" data-name="Group 1351" transform="translate(179.711 161.686)">
      <path id="Path_1796" data-name="Path 1796" d="M282.457,266.636V185.5H251.629v.278l-37.1,59.679L198.3,271.573l1.829,18.845h51.5v28.264h30.828V290.418h13.534V266.636Zm-30.828,0H227.666l22.041-37.871,1.922-3.107Z" transform="translate(-198.301 -174.532)" fill="#2a2a2a"/>
      <path id="Path_1797" data-name="Path 1797" d="M406.817,196.01q-12.163-14.73-34.3-14.729t-34.254,14.637q-12.121,14.634-12.12,41.618v24.332q0,26.8,12.164,41.529T372.7,318.122q22.045,0,34.165-14.637t12.12-41.618v-24.24Q418.986,210.735,406.817,196.01Zm-49.758,35.58q.272-13.357,3.888-19.939t11.569-6.589a12.546,12.546,0,0,1,11.895,7.091q3.745,7.092,3.746,21.45V266.53q-.09,14.364-3.839,21.084A12.419,12.419,0,0,1,372.7,294.34q-8.14,0-11.891-6.906-3.54-6.513-3.739-20.148c-.008-.547-.012-1.106-.012-1.668Z" transform="translate(-215.278 -173.972)" fill="#2a2a2a"/>
      <path id="Path_1798" data-name="Path 1798" d="M532.647,266.636V185.5H501.823v.278l-53.328,85.8,1.829,18.845h51.5v28.264h30.825V290.418h13.539V266.636Zm-30.825,0H477.856L499.9,228.765l1.922-3.107Z" transform="translate(-231.526 -174.532)" fill="#2a2a2a"/>
      <path id="Path_1799" data-name="Path 1799" d="M279.206,185.5c-4.124,5.274-18.27,3.389-21.45,3.726-3.614.382-28.673,44.517-32.111,50.116-2.23,3.634-6.15,5.354-8.627,6.114l37.1-59.679V185.5Z" transform="translate(-200.787 -174.532)" fill="#fff" opacity="0.25" style="mix-blend-mode: overlay;isolation: isolate"/>
      <path id="Path_1800" data-name="Path 1800" d="M540.918,185.5v61.436c-7.9-6.553-3.546-54.96-4.792-56.563-1.335-1.717-17.768-.571-20.823-1.528a10.451,10.451,0,0,1-4.53-3.345Z" transform="translate(-239.797 -174.532)" fill="#fff" opacity="0.25" style="mix-blend-mode: overlay;isolation: isolate"/>
      <path id="Path_1801" data-name="Path 1801" d="M383.742,305.594c-24.835,1.146-21.965-34.656-21.965-34.656l.012-.016q.2,13.634,3.738,20.148,3.75,6.9,11.891,6.906a12.419,12.419,0,0,0,11.617-6.725q3.751-6.723,3.839-21.084V237.24q0-14.362-3.746-21.45a12.546,12.546,0,0,0-11.895-7.091s15.372-1.877,21.638,20.86S408.577,304.449,383.742,305.594Z" transform="translate(-219.997 -177.608)" opacity="0.25" style="mix-blend-mode: overlay;isolation: isolate"/>
      <path id="Path_1802" data-name="Path 1802" d="M347.7,194.787s-10.317-7.451-11.463-19.1c7.45,2.1,11.463,11.145,11.463,11.145s-1.911-8.305,0-13.975C353.235,180.841,351.707,187.336,347.7,194.787Z" transform="translate(-216.618 -172.853)" fill="url(#linear-gradient-7)"/>
    </g>
    <g id="Group_1354" data-name="Group 1354" transform="translate(162.353 159.952)">
      <path id="Path_1803" data-name="Path 1803" d="M568.791,261.994s.044.245-.294.591a4.083,4.083,0,0,1-1.479.857c-4.711,1.8-14.338-2.565-19.568-5.511s-20.148-.527-30.189-1.89-14.3-6.806-23.332-9.021-42.707,7.481-44.576-.061,35.938-80.972,39.173-75.851,14.435,5.459,22.286,9.5S525.4,204.9,534.122,206.918a14.232,14.232,0,0,1,3.47,1.318c6.971,3.711,11.963,13.037,12.144,20.674.209,8.852,12.3,16,16.727,20.759S568.791,261.994,568.791,261.994Z" transform="translate(-214.273 -170.853)" fill="url(#linear-gradient-8)" style="mix-blend-mode: hard-light;isolation: isolate"/>
      <path id="Path_1804" data-name="Path 1804" d="M582.313,267.719s.044.245-.294.591c1.564-9.68-7.392-14.274-15.589-21.1-8.442-7.019-4.888-12.321-6.617-19.484-1.021-4.237-5.339-9.869-8.7-13.769,6.971,3.711,11.963,13.037,12.144,20.674.209,8.852,12.3,16,16.727,20.759S582.313,267.719,582.313,267.719Z" transform="translate(-227.796 -176.578)" fill="#fff" opacity="0.25" style="mix-blend-mode: overlay;isolation: isolate"/>
      <g id="Group_1353" data-name="Group 1353" transform="translate(351.909 62.735)">
        <path id="Path_1805" data-name="Path 1805" d="M627.189,329.412v2.858a21.563,21.563,0,0,0-2.813.14c-.672.06-1.287.128-1.636.169l-.261-2.432,1.126-.177Z" transform="translate(-589.183 -254.644)" fill="url(#linear-gradient-9)"/>
        <path id="Path_1806" data-name="Path 1806" d="M586.5,274.454l-2.237,2.041a.561.561,0,0,0,.208.949l1.893.6,4.367,4.786a.521.521,0,0,0,.735.034l.718-.656a.52.52,0,0,0,.034-.735l-4.368-4.786-.426-1.939A.56.56,0,0,0,586.5,274.454Z" transform="translate(-584.084 -247.326)" fill="#2f1829"/>
        <path id="Path_1807" data-name="Path 1807" d="M604.032,277.314c-.567.748-1.319,1.725-2.087,2.7-.29.366-.583.728-.868,1.078a12.436,12.436,0,0,1-2.625,2.758c-.86.14-5.7-2.617-6.412-2.617s-2.328,1.182-2.758,1.074-2.793-2.292-2.721-2.826,2.183-2.4,3.224-2.689a4.715,4.715,0,0,1,1.7.185s.044.012.12.028c2.03.447,4.953,1.363,5.411,1.134a6.765,6.765,0,0,0,1.23-1.809c.181-.334.369-.683.555-1.037.233-.447.462-.892.667-1.295.209-.418.39-.792.527-1.069a25.639,25.639,0,0,0,1.864,2.332A11.053,11.053,0,0,0,604.032,277.314Z" transform="translate(-584.413 -247.143)" fill="url(#linear-gradient-10)"/>
        <path id="Path_1808" data-name="Path 1808" d="M628.744,283.045c0,1.58-.029,3.1-.125,4.329-.382,4.9-.764,8.917-2.436,9.013s-2.006-13.278-1.913-14.089c.02-.157.032-.5.044-.933.044-1.455.056-4.064.08-5.186,0-.281.012-.47.02-.522l.31-.2,3.654-2.332s.213,3.164.31,6.769c.016.494.028.993.036,1.5C628.732,281.944,628.739,282.5,628.744,283.045Z" transform="translate(-589.419 -247.17)" fill="url(#linear-gradient-11)"/>
        <path id="Path_1809" data-name="Path 1809" d="M628.757,284.082a6.264,6.264,0,0,1-3.614,1.713c-2.292.048,1.061-4.647,1.82-4.756.3-.041,1-.076,1.737-.1.016.494.028.993.036,1.5C628.745,282.981,628.752,283.535,628.757,284.082Z" transform="translate(-589.432 -248.206)" opacity="0.25" style="mix-blend-mode: overlay;isolation: isolate"/>
        <path id="Path_1810" data-name="Path 1810" d="M628.6,281.393a6.919,6.919,0,0,1-3.819.188,1.956,1.956,0,0,1-.591-.217c-1.4-.787-.833-3.107.08-5.186.1-.245.218-.486.33-.719l3.654-2.332S628.53,277.213,628.6,281.393Z" transform="translate(-589.298 -247.17)" fill="#2f1829"/>
        <path id="Path_1811" data-name="Path 1811" d="M618.521,250.979a4.33,4.33,0,0,1-.676,1.725,8.2,8.2,0,0,1-1.732,2.054,1.9,1.9,0,0,1-1.295.566,4.778,4.778,0,0,1-2.653-2.412c-.021-.358,1.254-.494,1.089-1.548s-.836-1.242-1.339-1.049a2.707,2.707,0,0,0-1.085,2.312c-.338-.044-.973-1.315-2.147-2.039a3.208,3.208,0,0,0-1.106-.438,3.457,3.457,0,0,0-1.788.157c-.31-3.795,1.982-5.467,3.751-4.8,0,0-.643-1.262-1.577-1.527a3.229,3.229,0,0,1,2.674,2.126,3.959,3.959,0,0,1,3.32-2.89c2.721-.334,3.248,3.249,3.248,3.249a6.828,6.828,0,0,0,.318-2.8,8.262,8.262,0,0,1-.1,3.731,2.506,2.506,0,0,1,1.624,2.054c-1.1-.86-1.17-.768-1.17-.768A2.753,2.753,0,0,1,618.521,250.979Z" transform="translate(-586.963 -243.195)" fill="#2f172b"/>
        <path id="Path_1812" data-name="Path 1812" d="M616.561,255.839c-.213.595-.419,1.153-.506,1.355-.221.5-3.011,2.842-5.009.144a10.492,10.492,0,0,1-1.914-5.668c1.174.724,1.809,1.995,2.147,2.039a2.707,2.707,0,0,1,1.085-2.312c.5-.193,1.17,0,1.339,1.049s-1.11,1.19-1.089,1.548a4.778,4.778,0,0,0,2.653,2.412A1.9,1.9,0,0,0,616.561,255.839Z" transform="translate(-587.41 -244.275)" fill="url(#linear-gradient-12)"/>
        <path id="Path_1813" data-name="Path 1813" d="M619.268,243.586a1.946,1.946,0,0,0-.2-.389A1.044,1.044,0,0,1,619.268,243.586Z" transform="translate(-588.73 -243.195)" fill="#2f172b"/>
        <path id="Path_1814" data-name="Path 1814" d="M626.6,270.565a11.715,11.715,0,0,1-.88,1.4c-.092.128-.189.253-.281.369a9.4,9.4,0,0,1-1.608,1.62.943.943,0,0,1,.016.1c.016.081.036.206.069.374.064.39.16,1,.265,1.717.016.121.032.245.048.369.045.342.088.7.129,1.078.024.212.044.426.069.643.008.125.02.25.032.37.048.583.08,1.17.084,1.721,0,.124,0,.249,0,.369a7.8,7.8,0,0,1-.165,1.721,2.491,2.491,0,0,1-.116.37,1.248,1.248,0,0,1-.193.345,1.1,1.1,0,0,1-.422.29c-1.262.567-4.619.595-7.939.418h0c-2.875-.153-5.721-.462-7.155-.708a3.144,3.144,0,0,1-1.037-.345,1.757,1.757,0,0,1-.466-.37,1.365,1.365,0,0,1-.2-.257,2.589,2.589,0,0,1-.334-1.464c0-.121.009-.245.021-.369a11.247,11.247,0,0,1,.3-1.629c.008-.032.016-.06.023-.092.029-.125.061-.245.1-.37.145-.575.31-1.158.442-1.721.02-.088.04-.177.06-.261l.024-.108c.145-.691.241-1.258.3-1.717.02-.133.032-.257.044-.374a4.311,4.311,0,0,0,.011-1.431s-.293.732-.659,1.431c-.069.129-.141.253-.212.374-.274.471-.567.849-.8.869a.277.277,0,0,1-.14-.036,4.861,4.861,0,0,1-1.013-.832c-.117-.116-.241-.241-.37-.374-.253-.261-.519-.551-.784-.852-.249-.282-.5-.575-.74-.865-.1-.125-.2-.249-.3-.369-.322-.4-.607-.776-.824-1.1a4.584,4.584,0,0,1-.375-.623.772.772,0,0,1-.084-.253.7.7,0,0,1,.008-.117,10.477,10.477,0,0,1,.563-1.72c.049-.116.1-.241.149-.369.213-.523.47-1.11.755-1.721.061-.121.12-.245.181-.37.269-.563.566-1.146.885-1.721.068-.124.136-.249.209-.369.337-.595.7-1.178,1.065-1.721.088-.125.172-.25.261-.37a11.278,11.278,0,0,1,1.476-1.716,5.043,5.043,0,0,1,.45-.374c.084-.064.169-.125.253-.177a11.044,11.044,0,0,1,2.038-1.021,12.017,12.017,0,0,1,4.313-.8,9.005,9.005,0,0,1,3.385.663,10.386,10.386,0,0,1,2.335,1.33c.161.121.322.245.479.374a14.261,14.261,0,0,1,1.728,1.716c.1.121.209.245.305.37a17.585,17.585,0,0,1,1.222,1.721c.077.121.153.245.23.369q.488.814.928,1.721c.061.121.121.245.177.37.262.551.506,1.121.74,1.721.044.121.093.245.141.369.2.555.4,1.126.586,1.72.036.117.073.233.109.354,0,0,0,.012,0,.016C626.542,270.352,626.57,270.456,626.6,270.565Z" transform="translate(-586.401 -245.085)" fill="#f3475c"/>
        <g id="Group_1352" data-name="Group 1352" transform="translate(15.129 14.337)">
          <path id="Path_1815" data-name="Path 1815" d="M621.185,260.1H607.932a5.062,5.062,0,0,1,.45-.374h12.325C620.868,259.848,621.028,259.972,621.185,260.1Z" transform="translate(-602.38 -259.727)" fill="#fff" opacity="0.25" style="mix-blend-mode: overlay;isolation: isolate"/>
          <path id="Path_1816" data-name="Path 1816" d="M622.953,262.507H605.929c.088-.125.172-.25.261-.37h16.458C622.753,262.258,622.857,262.382,622.953,262.507Z" transform="translate(-602.114 -260.047)" fill="#fff" opacity="0.25" style="mix-blend-mode: overlay;isolation: isolate"/>
          <path id="Path_1817" data-name="Path 1817" d="M624.21,264.917H604.46c.068-.124.136-.249.209-.369H623.98C624.057,264.669,624.133,264.793,624.21,264.917Z" transform="translate(-601.919 -260.367)" fill="#fff" opacity="0.25" style="mix-blend-mode: overlay;isolation: isolate"/>
          <path id="Path_1818" data-name="Path 1818" d="M625.151,267.328h-21.92c.061-.121.12-.245.181-.37h21.562C625.035,267.079,625.1,267.2,625.151,267.328Z" transform="translate(-601.756 -260.687)" fill="#fff" opacity="0.25" style="mix-blend-mode: overlay;isolation: isolate"/>
          <path id="Path_1819" data-name="Path 1819" d="M625.894,269.738H602.188c.049-.116.1-.241.149-.369h23.415C625.8,269.49,625.845,269.614,625.894,269.738Z" transform="translate(-601.617 -261.007)" fill="#fff" opacity="0.25" style="mix-blend-mode: overlay;isolation: isolate"/>
          <path id="Path_1820" data-name="Path 1820" d="M626.505,272.149H601.614a.773.773,0,0,1-.084-.253.7.7,0,0,1,.008-.117h24.855c.036.117.073.233.109.354C626.5,272.137,626.505,272.145,626.505,272.149Z" transform="translate(-601.53 -261.327)" fill="#fff" opacity="0.25" style="mix-blend-mode: overlay;isolation: isolate"/>
          <path id="Path_1821" data-name="Path 1821" d="M625.918,274.19c-.092.128-.189.253-.281.369H603.31c-.1-.125-.2-.249-.3-.369Z" transform="translate(-601.726 -261.648)" fill="#fff" opacity="0.25" style="mix-blend-mode: overlay;isolation: isolate"/>
          <path id="Path_1822" data-name="Path 1822" d="M605.113,276.6h2.537c-.069.129-.141.253-.212.374h-1.954C605.366,276.853,605.242,276.728,605.113,276.6Z" transform="translate(-602.006 -261.967)" fill="#fff" opacity="0.25" style="mix-blend-mode: overlay;isolation: isolate"/>
          <path id="Path_1823" data-name="Path 1823" d="M624.873,276.969H608.734c.02-.133.032-.257.044-.374H624.8C624.821,276.676,624.841,276.8,624.873,276.969Z" transform="translate(-602.487 -261.967)" fill="#fff" opacity="0.25" style="mix-blend-mode: overlay;isolation: isolate"/>
          <path id="Path_1824" data-name="Path 1824" d="M625.127,279.375H608.289c.02-.088.04-.177.06-.261l.024-.108H625.08C625.1,279.127,625.112,279.251,625.127,279.375Z" transform="translate(-602.428 -262.287)" fill="#fff" opacity="0.25" style="mix-blend-mode: overlay;isolation: isolate"/>
          <path id="Path_1825" data-name="Path 1825" d="M625.275,281.786H607.667c.029-.125.061-.245.1-.37h17.479C625.25,281.541,625.263,281.666,625.275,281.786Z" transform="translate(-602.345 -262.607)" fill="#fff" opacity="0.25" style="mix-blend-mode: overlay;isolation: isolate"/>
          <path id="Path_1826" data-name="Path 1826" d="M625.306,283.827c0,.124,0,.249,0,.369H607.273c0-.121.009-.245.021-.369Z" transform="translate(-602.293 -262.927)" fill="#fff" opacity="0.25" style="mix-blend-mode: overlay;isolation: isolate"/>
          <path id="Path_1827" data-name="Path 1827" d="M625.224,286.237a2.5,2.5,0,0,1-.116.37H608.357a1.756,1.756,0,0,1-.466-.37Z" transform="translate(-602.375 -263.247)" fill="#fff" opacity="0.25" style="mix-blend-mode: overlay;isolation: isolate"/>
        </g>
        <path id="Path_1828" data-name="Path 1828" d="M625.4,321.251c-.788.5-6.09,1.074-6.09,1.074l-.16-.961-.977-5.776a.061.061,0,0,0,0-.024l-2.3-13.655-2.323,17.048-.683,5.017s-6.52.357-6.52-1.218c0-.189.016-.892.049-1.978.193-6.958.92-29.7,1.089-34.835a2.322,2.322,0,0,0,1.7.972c.076.012.16.029.245.041,3.329.526,12.554,1.278,14.853.249.1.833.2,2.155.285,3.8.358,6.625.619,18.52.744,25.249C625.372,319.269,625.4,321.251,625.4,321.251Z" transform="translate(-587.04 -248.871)" fill="#2f1829"/>
        <path id="Path_1829" data-name="Path 1829" d="M619.632,316.977l-2.3-13.655s.624-5.491.86-6.115,1.914-.14,2.629-.619c.382.909-2.006,2.054-2.2,4.92C618.486,303.571,619.214,312.265,619.632,316.977Z" transform="translate(-588.499 -250.285)" opacity="0.25" style="mix-blend-mode: overlay;isolation: isolate"/>
        <path id="Path_1830" data-name="Path 1830" d="M609.138,289.355a5.252,5.252,0,0,0,2.328,4.621" transform="translate(-587.41 -249.325)" fill="none" stroke="#fff" stroke-linecap="round" stroke-linejoin="round" stroke-width="0.464" opacity="0.25" style="mix-blend-mode: overlay;isolation: isolate"/>
        <line id="Line_60" data-name="Line 60" x1="1.362" y2="28.8" transform="translate(20.907 44.201)" fill="none" stroke="#fff" stroke-linecap="round" stroke-linejoin="round" stroke-width="0.464" stroke-dasharray="1.391" opacity="0.25" style="mix-blend-mode: overlay;isolation: isolate"/>
        <line id="Line_61" data-name="Line 61" x2="2.293" y2="24.549" transform="translate(31.175 47.162)" fill="none" stroke="#fff" stroke-linecap="round" stroke-linejoin="round" stroke-width="0.464" stroke-dasharray="1.391" opacity="0.25" style="mix-blend-mode: overlay;isolation: isolate"/>
        <path id="Path_1831" data-name="Path 1831" d="M622.251,289.915a16.1,16.1,0,0,0,0,3.577c.262.576,1.379,1.064,1.623,1.186s1.326-.838,1.378-1.466.122-3.176.122-3.176A10.172,10.172,0,0,0,622.251,289.915Z" transform="translate(-589.137 -249.388)" fill="none" stroke="#fff" stroke-linecap="round" stroke-linejoin="round" stroke-width="0.464" opacity="0.25" style="mix-blend-mode: overlay;isolation: isolate"/>
        <path id="Path_1832" data-name="Path 1832" d="M627.366,325.893c-.788.5-6.09,1.074-6.09,1.074l-.16-.961c1.544-.876,4.591-2.805,6.162-5.109C627.334,323.911,627.366,325.893,627.366,325.893Z" transform="translate(-589.002 -253.513)" opacity="0.25" style="mix-blend-mode: overlay;isolation: isolate"/>
        <path id="Path_1833" data-name="Path 1833" d="M627.584,328.89l-.672.1-4.711.735-.33.052a1.264,1.264,0,0,1-1.447-1.053l-.017-.1a1.269,1.269,0,0,1,1.054-1.443l5.716-.892a1.261,1.261,0,0,1,1.444,1.054l.016.1A1.262,1.262,0,0,1,627.584,328.89Z" transform="translate(-588.906 -254.227)" fill="#4c3146"/>
        <path id="Path_1834" data-name="Path 1834" d="M613.55,324.012l-.683,5.017s-6.52.357-6.52-1.218c0-.189.016-.892.049-1.978C607.926,325.716,611.48,325.314,613.55,324.012Z" transform="translate(-587.04 -253.927)" opacity="0.25" style="mix-blend-mode: overlay;isolation: isolate"/>
        <path id="Path_1835" data-name="Path 1835" d="M613.272,329.879l-.012.108a1.265,1.265,0,0,1-1.375,1.142l-.036,0-4.977-.462-.743-.068a1.267,1.267,0,0,1-1.146-1.375l.012-.1a1.264,1.264,0,0,1,1.375-1.141l5.76.531A1.265,1.265,0,0,1,613.272,329.879Z" transform="translate(-586.858 -254.452)" fill="#4c3146"/>
        <path id="Path_1836" data-name="Path 1836" d="M625.045,291.161a19.836,19.836,0,0,1-15.139-4.052c3.329.526,12.554,1.278,14.853.249C624.86,288.19,624.956,289.513,625.045,291.161Z" transform="translate(-587.513 -249.026)" opacity="0.25" style="mix-blend-mode: overlay;isolation: isolate"/>
        <path id="Path_1837" data-name="Path 1837" d="M607.807,277.456c.619-2.866.382-3.63.382-3.63s-1.053,2.625-1.672,2.674c-.29.024-1.3-.961-2.308-2.094a6.082,6.082,0,0,0,2.895-1.44c1.074-1.218.961-6.412,1.375-6.449s1.367,9.6-1.294,13.383C607.381,279.088,607.634,278.252,607.807,277.456Z" transform="translate(-586.757 -246.292)" opacity="0.25" style="mix-blend-mode: overlay;isolation: isolate"/>
        <path id="Path_1838" data-name="Path 1838" d="M629.719,271.769a10.673,10.673,0,0,1-2.769,3.388s-1.411-7.437-1.838-8.165c-.337-.574.141-1.169.917,1.359.6,1.962,2.183,3.449,3.59,3.079C629.655,271.543,629.687,271.656,629.719,271.769Z" transform="translate(-589.518 -246.288)" opacity="0.25" style="mix-blend-mode: overlay;isolation: isolate"/>
        <path id="Path_1839" data-name="Path 1839" d="M626.241,286.214a1.1,1.1,0,0,1-.422.29c-1.262.567-4.619.595-7.939.418,2.271-.3,7.71-1.512,8.651-6.246C626.771,282.882,626.875,285.426,626.241,286.214Z" transform="translate(-588.572 -248.172)" opacity="0.25" style="mix-blend-mode: overlay;isolation: isolate"/>
        <path id="Path_1840" data-name="Path 1840" d="M618.791,258.091c-.293.354-.792.51-1.616.317-1.623-.382-3.774.382-4.9.213a3.073,3.073,0,0,1-1.185-.4,12.017,12.017,0,0,1,4.313-.8A9,9,0,0,1,618.791,258.091Z" transform="translate(-587.671 -245.085)" opacity="0.25" style="mix-blend-mode: overlay;isolation: isolate"/>
        <path id="Path_1841" data-name="Path 1841" d="M605.823,277.314c-.567.748-1.319,1.725-2.086,2.7a14.161,14.161,0,0,1-3.694-3.686c.656-1.186,1.379-2.645,1.749-3.4a25.653,25.653,0,0,0,1.865,2.332A11.051,11.051,0,0,0,605.823,277.314Z" transform="translate(-586.203 -247.143)" fill="#2f1829"/>
        <path id="Path_1842" data-name="Path 1842" d="M606.01,277.314c-.567.748-1.319,1.725-2.087,2.7-.29.366-.583.728-.868,1.078a16.288,16.288,0,0,0-1.6-7.1c.209-.418.39-.792.527-1.069a25.641,25.641,0,0,0,1.865,2.332A11.049,11.049,0,0,0,606.01,277.314Z" transform="translate(-586.39 -247.143)" opacity="0.25" style="mix-blend-mode: overlay;isolation: isolate"/>
        <path id="Path_1843" data-name="Path 1843" d="M599.58,275.65a6.141,6.141,0,0,1-1.069,2.54c-.285.447-.052,2.416-.322,2.183s-.378-1.2-.735-1.519a42.418,42.418,0,0,0-5.07-1.492c2.03.447,4.953,1.363,5.411,1.134a6.766,6.766,0,0,0,1.23-1.809C599.206,276.353,599.394,276,599.58,275.65Z" transform="translate(-585.186 -247.505)" fill="#fff" opacity="0.25" style="mix-blend-mode: overlay;isolation: isolate"/>
        <path id="Path_1844" data-name="Path 1844" d="M618.124,253.631a8.2,8.2,0,0,1-1.732,2.054,1.9,1.9,0,0,1-1.295.566,4.777,4.777,0,0,1-2.653-2.412c-.021-.358,1.254-.494,1.089-1.548s-.836-1.242-1.339-1.049a2.707,2.707,0,0,0-1.085,2.312c-.338-.044-.973-1.315-2.147-2.039a3.208,3.208,0,0,0-1.106-.438,3.86,3.86,0,0,1,1.841.1c1.078.45,1.113.88,1.113.88a2.221,2.221,0,0,1,1.87-1.869C614.149,249.92,615.3,253.9,618.124,253.631Z" transform="translate(-587.241 -244.122)" opacity="0.25" style="mix-blend-mode: overlay;isolation: isolate"/>
        <path id="Path_1845" data-name="Path 1845" d="M612.1,338.3H600.71a2.88,2.88,0,0,1-.116-.813,1.725,1.725,0,0,1,1.1-1.728c.322-.133.671-.29,1.033-.458,1.427-.676,2.967-1.572,3.216-2.086l.225.1a9.664,9.664,0,0,0,1.347.486,3.275,3.275,0,0,0,.768.125,25.852,25.852,0,0,0,2.657-.426c.357-.049.619-.044.687.069a27.944,27.944,0,0,1,.427,3.915C612.083,337.972,612.1,338.3,612.1,338.3Z" transform="translate(-586.276 -255.149)" fill="#1f3247"/>
        <path id="Path_1846" data-name="Path 1846" d="M612.12,331.538c-.093.526-.213,1.17-.33,1.681-.567.072-1.375.273-2.022.369a3.468,3.468,0,0,1-.635.056,6.707,6.707,0,0,1-2.115-.611c0-.571.068-1.414.125-1.957l1.954.18Z" transform="translate(-587.13 -254.865)" fill="url(#linear-gradient-13)"/>
        <path id="Path_1847" data-name="Path 1847" d="M628.546,338.229h-6.878a2.176,2.176,0,0,1-.1-.813,2.952,2.952,0,0,1,.274-1.146c.5-1.1.237-2.89.474-3.223l.305-.032a37.468,37.468,0,0,1,4.45-.31.9.9,0,0,1,.166.032c.458.148.989,3.151,1.21,4.679C628.5,337.807,628.539,338.1,628.546,338.229Z" transform="translate(-589.061 -255.08)" fill="#1f3247"/>
        <path id="Path_1848" data-name="Path 1848" d="M612.051,338.14c.032.487.052.813.052.813H600.71a2.88,2.88,0,0,1-.116-.813Z" transform="translate(-586.276 -255.803)" opacity="0.25" style="mix-blend-mode: overlay;isolation: isolate"/>
        <path id="Path_1849" data-name="Path 1849" d="M628.546,338.953h-6.878a2.176,2.176,0,0,1-.1-.813h6.879C628.5,338.53,628.539,338.828,628.546,338.953Z" transform="translate(-589.061 -255.803)" opacity="0.25" style="mix-blend-mode: overlay;isolation: isolate"/>
        <path id="Path_1850" data-name="Path 1850" d="M607.838,333.8c-1.057.7-3.026,1.946-3.694,1.949a1.567,1.567,0,0,1-1.094-.454c1.427-.676,2.967-1.572,3.216-2.086l.225.1A9.665,9.665,0,0,0,607.838,333.8Z" transform="translate(-586.603 -255.149)" fill="#122230"/>
        <path id="Path_1851" data-name="Path 1851" d="M612.438,331.566c-.093.526-.213,1.17-.329,1.681-.567.072-1.375.273-2.022.369l-.671-2.332Z" transform="translate(-587.448 -254.893)" opacity="0.25" style="mix-blend-mode: overlay;isolation: isolate"/>
        <path id="Path_1852" data-name="Path 1852" d="M627.361,329.412v2.858a21.563,21.563,0,0,0-2.813.14l-.772-2.44Z" transform="translate(-589.355 -254.644)" opacity="0.25" style="mix-blend-mode: overlay;isolation: isolate"/>
      </g>
      <path id="Path_1915" data-name="Path 1915" d="M449.78,261.993s-.044.245.294.591a4.084,4.084,0,0,0,1.479.857c4.711,1.8,14.338-2.565,19.568-5.511s20.148-.527,30.189-1.89,14.3-6.806,23.332-9.021,42.707,7.481,44.576-.061-35.938-80.972-39.173-75.85-14.435,5.459-22.286,9.5-14.585,24.288-23.311,26.306a14.233,14.233,0,0,0-3.47,1.318c-6.971,3.711-11.963,13.037-12.144,20.674-.209,8.851-12.3,16-16.727,20.759S449.78,261.993,449.78,261.993Z" transform="translate(-449.285 -170.852)" fill="url(#linear-gradient-14)" style="mix-blend-mode: hard-light;isolation: isolate"/>
    </g>
    <g id="Group_1357" data-name="Group 1357" transform="translate(125.62 223.365)">
      <g id="Group_1356" data-name="Group 1356" transform="translate(0 0)">
        <path id="Path_1854" data-name="Path 1854" d="M180.627,277.259l-2.135-2.146a.561.561,0,0,0-.939.249l-.519,1.917-4.594,4.569a.52.52,0,0,0,0,.736l.686.689a.52.52,0,0,0,.735,0l4.594-4.569,1.919-.509A.561.561,0,0,0,180.627,277.259Z" transform="translate(-140.755 -248.09)" fill="#2f1829"/>
        <path id="Path_1855" data-name="Path 1855" d="M155.559,251.323s-.048.848-.193,1.93a10.857,10.857,0,0,1-1.15,4.06.7.7,0,0,1-.064.092c-.921,1.214-2.677.917-3.569-.591.531-.651.76-1.487.406-1.821-.732-.691-.535-2.649.514-2.412s1.218,3.059,1.6,2.987C153.4,255.512,154.917,253.056,155.559,251.323Z" transform="translate(-137.868 -244.953)" fill="url(#linear-gradient-15)"/>
        <path id="Path_1856" data-name="Path 1856" d="M155.171,249.138a3.929,3.929,0,0,1-.29,1.21c-.1.281-.232.587-.374.892a12.034,12.034,0,0,1-2.082,3.353c-.382.072-.551-2.746-1.6-2.987s-1.246,1.721-.514,2.412c.354.334.125,1.17-.406,1.821a1.816,1.816,0,0,1-2.4.639c-1.765-1.074-2.07-7.8-2.054-8.333a3.54,3.54,0,0,1,.108-1.029,3.757,3.757,0,0,1,2.279-2.6C150.444,243.393,155.171,243.63,155.171,249.138Z" transform="translate(-137.19 -243.977)" fill="#2f1829"/>
        <path id="Path_1857" data-name="Path 1857" d="M167.816,279c-.012.072-.028.137-.044.2-.081.305-.173.519-.281.555a6.887,6.887,0,0,1-1.379-.109c-1.058-.136-2.569-.377-3.988-.647a20.358,20.358,0,0,1-3.8-.964,7.422,7.422,0,0,1-1.829-2.195c-.177-.278-.358-.563-.531-.852-.84-1.383-1.576-2.782-1.769-3.16a1.093,1.093,0,0,1-.052-.1s0,.032,0,.1a13.168,13.168,0,0,1-.616,3.16,8.638,8.638,0,0,1-.345.852,6.256,6.256,0,0,1-.395.715,2.8,2.8,0,0,0-.06,2.444c.036.108.076.213.116.322l0,0c.069.177.14.354.221.526.133.31.281.607.418.9a4.037,4.037,0,0,1,.659,2.062.467.467,0,0,1-.141.2,1.441,1.441,0,0,1-.2.161,7.214,7.214,0,0,1-1.351.691c-3.392,1.411-10.978,3.035-14.274,0-.056-.049-.113-.1-.169-.157l-.036-.036a.9.9,0,0,1-.289-.659,2.053,2.053,0,0,1,.421-1.021,21.248,21.248,0,0,0,1.4-2.139,6.858,6.858,0,0,0,.382-.852,6.415,6.415,0,0,0,.378-1.536c.069-.551.121-1.094.161-1.623.023-.29.044-.572.056-.852.064-1.1.076-2.155.064-3.16,0-.289-.009-.571-.021-.852-.023-1.122-.076-2.175-.116-3.16-.012-.29-.02-.575-.028-.852a24.342,24.342,0,0,1,.06-3.16c.032-.293.073-.578.128-.852a5.269,5.269,0,0,1,1.693-3.164c.036-.032.069-.064.1-.092.342-.282.667-.535.976-.756.354-.257.688-.474.993-.659,2.05-1.234,3.092-1.057,3.092-1.057s.627.04,1.567.2a18.032,18.032,0,0,1,3.329.9c.144.056.289.116.434.177.31.133.615.277.912.438.206.108.4.221.595.342.245.161.483.326.712.506a6,6,0,0,1,1.443,1.592c.285.47.571,1,.856,1.571.137.274.274.559.415.852.467,1,.92,2.086,1.347,3.16.113.285.225.571.33.852.438,1.138.828,2.227,1.153,3.16.1.3.2.586.29.852.31.921.526,1.6.611,1.862.112.354.848.691,1.788,1,.306.1.636.2.97.3.65.185,1.326.357,1.921.514.459.121.869.238,1.178.338a1.34,1.34,0,0,1,.591.285.521.521,0,0,1,.052.133A8.355,8.355,0,0,1,167.816,279Z" transform="translate(-136.159 -245.735)" fill="#f3475c"/>
        <g id="Group_1355" data-name="Group 1355" transform="translate(1.524 13.204)" opacity="0.25" style="mix-blend-mode: overlay;isolation: isolate">
          <g id="Path_1858" data-name="Path 1858" transform="translate(-138.385 -259.203)" fill="none" stroke-linecap="round" stroke-linejoin="round">
            <path d="M155.682,260.051H142.967c.036-.032.068-.064.1-.092.342-.282.667-.535.976-.756h10.327A8.515,8.515,0,0,1,155.682,260.051Z" stroke="none"/>
            <path d="M 154.9641571044922 259.8193664550781 C 154.7576446533203 259.6840209960938 154.5414886474609 259.5555419921875 154.3170166015625 259.4347839355469 L 144.123046875 259.4347839355469 C 143.9605560302734 259.5522155761719 143.7919769287109 259.6796875 143.6144104003906 259.8193664550781 L 154.9641571044922 259.8193664550781 M 155.6819000244141 260.0511474609375 L 142.9669952392578 260.0511474609375 C 143.0034332275391 260.0190734863281 143.0354919433594 259.9869384765625 143.0719146728516 259.959228515625 C 143.4135894775391 259.6773376464844 143.7387847900391 259.4241638183594 144.0484008789062 259.2030029296875 L 154.3750305175781 259.2030029296875 C 154.838134765625 259.4484252929688 155.2760467529297 259.7293701171875 155.6819000244141 260.0511474609375 Z" stroke="none" fill="#fff"/>
          </g>
          <g id="Path_1859" data-name="Path 1859" transform="translate(-138.106 -259.817)" fill="none" stroke-linecap="round" stroke-linejoin="round">
            <path d="M158.117,264.681h-17.25c.032-.293.073-.578.128-.852H157.7C157.839,264.1,157.976,264.388,158.117,264.681Z" stroke="none"/>
            <path d="M 157.7480010986328 264.44970703125 C 157.6825408935547 264.3140869140625 157.620361328125 264.1862487792969 157.5583648681641 264.060791015625 L 141.1874542236328 264.060791015625 C 141.1659240722656 264.183349609375 141.1462707519531 264.3124389648438 141.1282348632812 264.44970703125 L 157.7480010986328 264.44970703125 M 158.1165008544922 264.6814880371094 L 140.8669891357422 264.6814880371094 C 140.8990936279297 264.3883361816406 140.9398651123047 264.1030578613281 140.9953460693359 263.8290100097656 L 157.7019958496094 263.8290100097656 C 157.8390045166016 264.1030578613281 157.9759979248047 264.3883361816406 158.1165008544922 264.6814880371094 Z" stroke="none" fill="#fff"/>
          </g>
          <g id="Path_1860" data-name="Path 1860" transform="translate(-138.097 -260.432)" fill="none" stroke-linecap="round" stroke-linejoin="round">
            <path d="M159.784,269.308H140.826c-.012-.29-.02-.575-.028-.852h18.656C159.567,268.741,159.679,269.027,159.784,269.308Z" stroke="none"/>
            <path d="M 159.4477233886719 269.0758361816406 C 159.3964385986328 268.9426879882812 159.3452301025391 268.8117980957031 159.2964019775391 268.6877746582031 L 141.0364532470703 268.6877746582031 C 141.0401611328125 268.815673828125 141.0441284179688 268.9452819824219 141.0487670898438 269.0758361816406 L 159.4477233886719 269.0758361816406 M 159.7836608886719 269.3076171875 L 140.8257598876953 269.3076171875 C 140.8136138916016 269.0179443359375 140.8058166503906 268.732666015625 140.7980194091797 268.4559936523438 L 159.4541320800781 268.4559936523438 C 159.5668334960938 268.7413024902344 159.6787261962891 269.026611328125 159.7836608886719 269.3076171875 Z" stroke="none" fill="#fff"/>
          </g>
          <g id="Path_1861" data-name="Path 1861" transform="translate(-138.119 -261.046)" fill="none" stroke-linecap="round" stroke-linejoin="round">
            <path d="M161.249,273.934H140.985c0-.289-.009-.571-.021-.852h20C161.06,273.383,161.16,273.668,161.249,273.934Z" stroke="none"/>
            <path d="M 160.9253997802734 273.7018127441406 C 160.9136810302734 273.6676330566406 160.90185546875 273.6331787109375 160.8899383544922 273.5984497070312 C 160.8580017089844 273.5054016113281 160.8254089355469 273.4104309082031 160.7925872802734 273.3137512207031 L 141.2042694091797 273.3137512207031 C 141.2081298828125 273.4438781738281 141.2107849121094 273.5735778808594 141.2129821777344 273.7018127441406 L 160.9253997802734 273.7018127441406 M 161.2487030029297 273.93359375 L 140.9848022460938 273.93359375 C 140.9804840087891 273.6448059082031 140.9761352539062 273.3630065917969 140.9640045166016 273.0819702148438 L 160.9590606689453 273.0819702148438 C 161.0596618652344 273.3829040527344 161.1602630615234 273.6682434082031 161.2487030029297 273.93359375 Z" stroke="none" fill="#fff"/>
          </g>
          <g id="Path_1862" data-name="Path 1862" transform="translate(-138.103 -261.66)" fill="none" stroke-linecap="round" stroke-linejoin="round">
            <path d="M153.941,277.708a8.645,8.645,0,0,1-.345.853H140.849c.023-.29.044-.572.056-.853Z" stroke="none"/>
            <path d="M 141.1257019042969 277.9397888183594 C 141.1181182861328 278.0716247558594 141.1091461181641 278.2018127441406 141.0996246337891 278.3287353515625 L 153.4479370117188 278.3287353515625 C 153.5016937255859 278.2090148925781 153.5547790527344 278.0808715820312 153.6090545654297 277.9397888183594 L 141.1257019042969 277.9397888183594 M 140.9053802490234 277.7080078125 L 153.9411315917969 277.7080078125 C 153.8405456542969 277.9933166503906 153.7286682128906 278.282958984375 153.5960083007812 278.5605163574219 L 140.8490142822266 278.5605163574219 C 140.8724212646484 278.2708129882812 140.8932189941406 277.989013671875 140.9053802490234 277.7080078125 Z" stroke="none" fill="#fff"/>
          </g>
          <g id="Path_1863" data-name="Path 1863" transform="translate(-140.482 -261.66)" fill="none" stroke-linecap="round" stroke-linejoin="round">
            <path d="M170.08,278.561H159.291c-.177-.278-.358-.563-.531-.853h8.221c.65.185,1.326.357,1.921.514C169.361,278.343,169.771,278.46,170.08,278.561Z" stroke="none"/>
            <path d="M 168.3944854736328 278.3287353515625 C 167.9210968017578 278.2048034667969 167.4327239990234 278.0767517089844 166.9488525390625 277.9397888183594 L 159.1727600097656 277.9397888183594 C 159.2516479492188 278.0666809082031 159.3329162597656 278.1951599121094 159.4178924560547 278.3287353515625 L 168.3944854736328 278.3287353515625 M 170.07958984375 278.5605163574219 L 159.2907104492188 278.5605163574219 C 159.1138153076172 278.282958984375 158.9325561523438 277.9976501464844 158.7599945068359 277.7080078125 L 166.9810943603516 277.7080078125 C 167.6314849853516 277.8927001953125 168.3070220947266 278.0653076171875 168.9019165039062 278.2222900390625 C 169.3606719970703 278.3428039550781 169.7708435058594 278.4598999023438 170.07958984375 278.5605163574219 Z" stroke="none" fill="#fff"/>
          </g>
          <g id="Path_1864" data-name="Path 1864" transform="translate(-137.962 -262.275)" fill="none" stroke-linecap="round" stroke-linejoin="round">
            <path d="M153.342,283.186H139.787a6.859,6.859,0,0,0,.382-.852H153c.036.108.076.213.116.322l0,0C153.19,282.837,153.262,283.014,153.342,283.186Z" stroke="none"/>
            <path d="M 152.9886932373047 282.9546813964844 C 152.9652404785156 282.8972778320312 152.9409332275391 282.836181640625 152.9152679443359 282.7702941894531 C 152.9089965820312 282.7592468261719 152.9036407470703 282.7477111816406 152.8992309570312 282.7357482910156 L 152.8735046386719 282.6661376953125 C 152.8612670898438 282.6331176757812 152.8488616943359 282.5996398925781 152.8365020751953 282.5657958984375 L 140.3284301757812 282.5657958984375 C 140.2770538330078 282.6962890625 140.2215576171875 282.825439453125 140.1613006591797 282.9546813964844 L 152.9886932373047 282.9546813964844 M 153.3422241210938 283.1864624023438 L 139.7870025634766 283.1864624023438 C 139.9275054931641 282.9210815429688 140.0567016601562 282.6392822265625 140.1685791015625 282.3340148925781 L 153.0005493164062 282.3340148925781 C 153.0369567871094 282.4424133300781 153.0768737792969 282.5473327636719 153.1167602539062 282.6557312011719 L 153.12109375 282.6600646972656 C 153.1896209716797 282.8369750976562 153.2615814208984 283.0138854980469 153.3422241210938 283.1864624023438 Z" stroke="none" fill="#fff"/>
          </g>
          <g id="Path_1865" data-name="Path 1865" transform="translate(-141.425 -262.275)" fill="none" stroke-linecap="round" stroke-linejoin="round">
            <path d="M171.558,282.334c-.012.072-.028.137-.044.2-.081.305-.173.519-.281.555a6.878,6.878,0,0,1-1.379-.109c-1.058-.136-2.569-.377-3.988-.647Z" stroke="none"/>
            <path d="M 168.5847625732422 282.5657958984375 C 169.0516510009766 282.6376342773438 169.4933776855469 282.7008056640625 169.8839721679688 282.7510681152344 C 170.6450042724609 282.8495178222656 170.9663848876953 282.8701782226562 171.1019592285156 282.8701782226562 C 171.1196746826172 282.8701782226562 171.1333770751953 282.8698120117188 171.1437530517578 282.8693542480469 C 171.1648254394531 282.8389892578125 171.2086029052734 282.7592468261719 171.2651214599609 282.5657958984375 L 168.5847625732422 282.5657958984375 M 165.8659973144531 282.3340148925781 L 171.5583038330078 282.3340148925781 C 171.5461578369141 282.4059753417969 171.5305480957031 282.4710083007812 171.5140991210938 282.5352172851562 C 171.4334106445312 282.8404235839844 171.3415069580078 283.0538024902344 171.2330932617188 283.0901794433594 C 171.1281127929688 283.125732421875 170.6052093505859 283.0780639648438 169.854248046875 282.9809265136719 C 168.7962646484375 282.8447875976562 167.2856140136719 282.6036987304688 165.8659973144531 282.3340148925781 Z" stroke="none" fill="#fff"/>
          </g>
          <g id="Path_1866" data-name="Path 1866" transform="translate(-137.683 -262.889)" fill="none" stroke-linecap="round" stroke-linejoin="round">
            <path d="M154,286.96a1.441,1.441,0,0,1-.2.161,7.215,7.215,0,0,1-1.351.691H138.177c-.056-.049-.113-.1-.169-.157l-.036-.036a.9.9,0,0,1-.289-.659Z" stroke="none"/>
            <path d="M 137.9562377929688 287.1918029785156 C 137.9921264648438 287.2812194824219 138.0515441894531 287.367919921875 138.1357421875 287.4552917480469 L 138.1719970703125 287.4915771484375 C 138.2022247314453 287.5217895507812 138.2334289550781 287.5516052246094 138.2652893066406 287.5807189941406 L 152.4052734375 287.5807189941406 C 152.7257995605469 287.447265625 153.0068054199219 287.3161315917969 153.2395477294922 287.1918029785156 L 137.9562377929688 287.1918029785156 M 137.6829681396484 286.9600219726562 L 153.9993591308594 286.9600219726562 C 153.9473419189453 287.0129089355469 153.8822937011719 287.0649719238281 153.8025054931641 287.1213073730469 C 153.508544921875 287.3302917480469 153.0463104248047 287.5670471191406 152.4514007568359 287.8125 L 138.1772766113281 287.8125 C 138.1209259033203 287.763916015625 138.0645446777344 287.7118835449219 138.0081634521484 287.655517578125 L 137.9717559814453 287.6190795898438 C 137.7627410888672 287.4022827148438 137.6786346435547 287.1854858398438 137.6829681396484 286.9600219726562 Z" stroke="none" fill="#fff"/>
          </g>
        </g>
        <path id="Path_1867" data-name="Path 1867" d="M155.2,324.563a2.451,2.451,0,0,1-.2.441c-.953,1.636-3.558,1.8-4.522,1.492a.751.751,0,0,1-.29-.141c-.575-.5-1.073-4.659-4.157-28.227,0,.06,0,.121,0,.18v.021c-.056,3.348-.756,9.294-1.5,14.781-.812,6.042-1.675,11.529-1.788,12.385a1.4,1.4,0,0,1-.358.755,2.955,2.955,0,0,1-4.333-.337,3.649,3.649,0,0,1-.293-.418,157.042,157.042,0,0,0-.108-25.647,46.152,46.152,0,0,1-.218-7.606,33.161,33.161,0,0,1,.543-4.562c3.26,3.313,11.287,1.528,14.637.076a6.726,6.726,0,0,0,1.158-.611C154.688,290.929,154.334,302.12,155.2,324.563Z" transform="translate(-136.116 -249.71)" fill="#2f1829"/>
        <path id="Path_1868" data-name="Path 1868" d="M153.78,258.5c-5.539.173-7.123,8.787-7.123,8.787l-1.3-9.008c2.05-1.234,3.092-1.057,3.092-1.057A18.375,18.375,0,0,1,153.78,258.5Z" transform="translate(-137.179 -245.735)" opacity="0.25" style="mix-blend-mode: overlay;isolation: isolate"/>
        <path id="Path_1869" data-name="Path 1869" d="M163.529,337.905H152.494a12.627,12.627,0,0,1-.076-1.335c0-.188,0-.389,0-.595-.012-1.31.032-2.854.061-3.682a3.505,3.505,0,0,0,1.065.129,4.8,4.8,0,0,0,2.721-.816,2.6,2.6,0,0,0,.735-.8,7.463,7.463,0,0,0,3.373,3.156c1.153.631,2.235,1.046,2.681,1.371a1.645,1.645,0,0,1,.624,1.242A3.86,3.86,0,0,1,163.529,337.905Z" transform="translate(-138.115 -255.507)" fill="#1f3247"/>
        <path id="Path_1870" data-name="Path 1870" d="M142.317,336.71c-.032.833-.088,1.335-.088,1.335h-6.3c.08-.454.177-.9.285-1.335a31.592,31.592,0,0,1,1.64-4.86,3.079,3.079,0,0,0,1.431.985,3.146,3.146,0,0,0,1.793.024,2.34,2.34,0,0,0,1.109-.672A31.8,31.8,0,0,1,142.317,336.71Z" transform="translate(-135.926 -255.647)" fill="#1f3247"/>
        <path id="Path_1871" data-name="Path 1871" d="M178.308,280.294c-.121.7-2.6,2.866-3.344,2.654a1.859,1.859,0,0,1-.374-.161,4.41,4.41,0,0,0-2.211-.824,8.469,8.469,0,0,0,.153-2.942c.14-.069.305-.145.491-.23a6.788,6.788,0,0,1,2.468-.763C176.278,278.147,178.425,279.6,178.308,280.294Z" transform="translate(-140.767 -248.498)" fill="url(#linear-gradient-16)"/>
        <path id="Path_1872" data-name="Path 1872" d="M154.14,286.413a.839.839,0,0,1-.337.362c-1.99,1.414-12.044,4.341-15.794.534l-.036-.036c-.49-.51-.3-1.021.133-1.68a6.956,6.956,0,0,0,3.212,1.182c3.348.546,9.29-.358,12.164-2.424A4.037,4.037,0,0,1,154.14,286.413Z" transform="translate(-136.159 -249.339)" opacity="0.25" style="mix-blend-mode: overlay;isolation: isolate"/>
        <path id="Path_1873" data-name="Path 1873" d="M172.123,282c-.081.305-.173.519-.281.555a6.88,6.88,0,0,1-1.379-.109,7.468,7.468,0,0,0-.009-4.144,5.341,5.341,0,0,1,1.769.624.521.521,0,0,1,.052.133A8.469,8.469,0,0,1,172.123,282Z" transform="translate(-140.511 -248.535)" opacity="0.25" style="mix-blend-mode: overlay;isolation: isolate"/>
        <path id="Path_1874" data-name="Path 1874" d="M155,280.072c-1.278-1.25-.728-2.243,0-4.724s-.728-3.537-.964-6.307.048-4.346,1.768-6.162a11.59,11.59,0,0,0,.5,9.6,11.192,11.192,0,0,1-1.359,4.824A3.056,3.056,0,0,0,155,280.072Z" transform="translate(-138.321 -246.487)" opacity="0.25" style="mix-blend-mode: overlay;isolation: isolate"/>
        <path id="Path_1875" data-name="Path 1875" d="M154.508,251.719a12.034,12.034,0,0,1-2.082,3.353c-.382.072-.551-2.746-1.6-2.987s-1.246,1.721-.514,2.412c.354.334.125,1.17-.406,1.821a1.816,1.816,0,0,1-2.4.639c-1.765-1.074-2.07-7.8-2.054-8.333a3.54,3.54,0,0,1,.108-1.029c.876-.044,2.825.069,3.3,1.829a8.691,8.691,0,0,1,.418,2.854,1.772,1.772,0,0,1,2.126-1.636C152.378,250.839,153.463,251.522,154.508,251.719Z" transform="translate(-137.19 -244.457)" opacity="0.25" style="mix-blend-mode: overlay;isolation: isolate"/>
        <path id="Path_1876" data-name="Path 1876" d="M146.769,249.447s-.716-1.5-3.009-1.074-3.331,3.366-2.292,8.131c.036-4.227.644-5.194.644-5.194s-.967,2.579.287,8.382,1.969,11.427-1.146,13.9c6.2-3.51,6.555-7.636,6.2-12.647S148.2,251.524,146.769,249.447Z" transform="translate(-136.608 -244.551)" fill="#2f1829"/>
        <path id="Path_1877" data-name="Path 1877" d="M151.753,254.953a4.1,4.1,0,0,0,2.464,2.36.7.7,0,0,1-.064.092,1.226,1.226,0,0,1-.116.137,18.031,18.031,0,0,0-3.329-.9c.442-.619.6-1.343.282-1.649-.732-.691-.535-2.649.514-2.412s1.218,3.059,1.6,2.987c.3-.056,1.813-2.512,2.456-4.245,0,0-.048.848-.193,1.93a11.112,11.112,0,0,1-1.7,2.452c-.788.683-1.094-.161-1.307-.68S151.809,254.543,151.753,254.953Z" transform="translate(-137.868 -244.953)" opacity="0.25" style="mix-blend-mode: overlay;isolation: isolate"/>
        <path id="Path_1878" data-name="Path 1878" d="M139.5,292.837s-.172,3.239.238,4.112a4.052,4.052,0,0,0,1.691,1.481s1.585-.665,2-1.622a17.934,17.934,0,0,0,.367-4.219S140.627,291.768,139.5,292.837Z" transform="translate(-136.396 -250.393)" fill="none" stroke="#fff" stroke-miterlimit="10" stroke-width="0.464" opacity="0.25" style="mix-blend-mode: overlay;isolation: isolate"/>
        <path id="Path_1879" data-name="Path 1879" d="M154.829,289.928a4.638,4.638,0,0,1-2.161,4.008" transform="translate(-138.149 -250.079)" fill="none" stroke="#fff" stroke-linecap="round" stroke-linejoin="round" stroke-width="0.464" opacity="0.25" style="mix-blend-mode: overlay;isolation: isolate"/>
        <line id="Line_62" data-name="Line 62" x2="1.846" y2="32.134" transform="translate(16.134 42.146)" fill="none" stroke="#fff" stroke-linecap="round" stroke-linejoin="round" stroke-width="0.464" opacity="0.25" style="mix-blend-mode: overlay;isolation: isolate"/>
        <path id="Path_1880" data-name="Path 1880" d="M147,299.892v.021c-.056,3.348-.756,9.294-1.5,14.781-.108-6.4-1.013-14.339-.715-15.625A3.157,3.157,0,0,0,147,299.892Z" transform="translate(-137.094 -251.293)" opacity="0.25" style="mix-blend-mode: overlay;isolation: isolate"/>
        <line id="Line_63" data-name="Line 63" x1="2.64" y2="26.221" transform="translate(5.54 49.421)" fill="none" stroke="#fff" stroke-linecap="round" stroke-linejoin="round" stroke-width="0.464" opacity="0.25" style="mix-blend-mode: overlay;isolation: isolate"/>
        <path id="Path_1881" data-name="Path 1881" d="M152.611,287.838c-1.564,1.531-6.4,5.343-15.179,4.486a33.167,33.167,0,0,1,.543-4.562C141.235,291.075,149.262,289.29,152.611,287.838Z" transform="translate(-136.126 -249.792)" opacity="0.25" style="mix-blend-mode: overlay;isolation: isolate"/>
        <path id="Path_1882" data-name="Path 1882" d="M136.211,337.454h6.106c-.032.833-.088,1.335-.088,1.335h-6.3C136.006,338.335,136.1,337.888,136.211,337.454Z" transform="translate(-135.926 -256.391)" opacity="0.25" style="mix-blend-mode: overlay;isolation: isolate"/>
        <path id="Path_1883" data-name="Path 1883" d="M163.525,338.789H152.49a12.633,12.633,0,0,1-.076-1.335h11.255A3.86,3.86,0,0,1,163.525,338.789Z" transform="translate(-138.116 -256.391)" opacity="0.25" style="mix-blend-mode: overlay;isolation: isolate"/>
        <path id="Path_1884" data-name="Path 1884" d="M160.959,333.958a0,0,0,0,1,0,0c-1.982.965-3.412-1.029-4.1-2.355a2.6,2.6,0,0,0,.735-.8A7.463,7.463,0,0,0,160.959,333.958Z" transform="translate(-138.705 -255.507)" fill="#fff" opacity="0.25" style="mix-blend-mode: overlay;isolation: isolate"/>
        <path id="Path_1885" data-name="Path 1885" d="M141.556,333.01c-.209,2.922-1.222,3.031-1.757,2.729-.482-.273-.157-2.151-.036-2.753A3.146,3.146,0,0,0,141.556,333.01Z" transform="translate(-136.406 -255.797)" opacity="0.25" style="mix-blend-mode: overlay;isolation: isolate"/>
        <path id="Path_1886" data-name="Path 1886" d="M152.414,336.2c-.012-1.31.032-2.854.061-3.682a3.506,3.506,0,0,0,1.065.129C153.664,333.6,153.776,335.758,152.414,336.2Z" transform="translate(-138.115 -255.736)" opacity="0.25" style="mix-blend-mode: overlay;isolation: isolate"/>
        <path id="Path_1887" data-name="Path 1887" d="M172.379,282.08a8.469,8.469,0,0,0,.153-2.942c.14-.069.305-.145.491-.23a7.857,7.857,0,0,1,1.568,4A4.41,4.41,0,0,0,172.379,282.08Z" transform="translate(-140.767 -248.616)" opacity="0.25" style="mix-blend-mode: overlay;isolation: isolate"/>
        <path id="Path_1888" data-name="Path 1888" d="M165.752,275.005c-1.76.173-2.914,1.989-3.066,1.624-.177-.43.787-1.327.667-1.9s-2.778-7.453-4.249-10.817a29.568,29.568,0,0,0-2.3-4.318c.245.161.483.326.712.506a6,6,0,0,1,1.443,1.592c.285.47.571,1,.856,1.571.137.274.274.559.415.852.467,1,.92,2.086,1.347,3.16.113.285.225.571.33.852.438,1.138.828,2.227,1.153,3.16.1.3.2.586.29.852.31.921.526,1.6.611,1.862C164.076,274.359,164.812,274.7,165.752,275.005Z" transform="translate(-138.699 -246.052)" fill="#fff" opacity="0.25" style="mix-blend-mode: overlay;isolation: isolate"/>
      </g>
    </g>
    <path id="Path_1889" data-name="Path 1889" d="M649.182,329.25c-.573-.429-18.627-49.146,2.15-76.942a163.876,163.876,0,0,0-1.29,35.678l-2.723,2.721,3.009.859s2.028,27.246,3.009,30.4c-2.212-20.36,3.256-32.256,3.256-32.256s-.964,14.452.9,19.763l-1.437,1.92,1.437-.292s-1,8.746,0,11.372c0,0,11.606-34.692,6.162-49.919,7.164,11.137,5.158,29.72,5.158,29.72l-1.863.736,1.146.836s-3.009,19.821-9.887,25.408" transform="translate(-77.427 -21.718)" fill="#2f1829"/>
    <g id="Group_1361" data-name="Group 1361" transform="translate(423.245 266.268)">
      <path id="Path_1890" data-name="Path 1890" d="M506.591,332.989s-16.088-1.458-22.556,3.058c3.062-4.34,15.248-6.359,15.248-6.359l.9.681,0-.676a16.981,16.981,0,0,1,5.108-1.472c-14.672-2.9-21.676-.108-21.676-.108a21.9,21.9,0,0,1,7.193-3.543,17.4,17.4,0,0,1,7.295-.8l1.782,1.091.006-1.173,15.592,4.58" transform="translate(-479.725 -297.464)" style="mix-blend-mode: overlay;isolation: isolate"/>
      <path id="Path_1891" data-name="Path 1891" d="M581.516,332.593S579.8,321.7,588.68,314.157C588.584,322.945,586.125,330.491,581.516,332.593Z" transform="translate(-492.707 -296.2)" fill="none" stroke="#1f3247" stroke-miterlimit="10" stroke-width="0.927"/>
      <g id="Group_1358" data-name="Group 1358" transform="translate(7.302 14.283)">
        <path id="Path_1892" data-name="Path 1892" d="M509.187,324.862l-1.748,4.225c-1.178-4.261-3.932-5.085-5.314-5.218a3.913,3.913,0,0,0-.82-.012l.648-2.079-2.007.346s-2.295-5.5-12.4-12.164a20.431,20.431,0,0,1,18.21,8.635A24.684,24.684,0,0,1,509.187,324.862Z" transform="translate(-487.549 -309.921)" fill="#ffca51"/>
        <path id="Path_1893" data-name="Path 1893" d="M487.551,309.965s16.764,3.915,20.991,15.894" transform="translate(-487.549 -309.927)" fill="none" stroke="#fff" stroke-linecap="round" stroke-linejoin="round" stroke-width="0.464" opacity="0.25" style="mix-blend-mode: overlay;isolation: isolate"/>
        <path id="Path_1894" data-name="Path 1894" d="M511.419,326.19l-1.748,4.225c-1.178-4.261-3.932-5.085-5.314-5.218a8.224,8.224,0,0,0,3.634-5.274A24.687,24.687,0,0,1,511.419,326.19Z" transform="translate(-489.781 -311.249)" opacity="0.25" style="mix-blend-mode: overlay;isolation: isolate"/>
      </g>
      <g id="Group_1359" data-name="Group 1359" transform="translate(57.663 8.976)">
        <path id="Path_1895" data-name="Path 1895" d="M583.932,303.8c-16.622,13.659-20.92,20.445-20.92,20.445l-2.963-1.29s0,.093.009.253c.02.74.072,2.89-.009,3.606-.064.619-5.989,3.807-9.362,5.575-1.35.708-2.291,1.19-2.291,1.19l-2.773-2.778.281-.543,1.443-2.805a68.834,68.834,0,0,1,10.279-11.147C564.081,310.643,573.21,304.753,583.932,303.8Z" transform="translate(-545.622 -303.801)" fill="#ffadae"/>
        <path id="Path_1896" data-name="Path 1896" d="M547.751,332.652s16.88-25.674,36.462-28.849" transform="translate(-545.905 -303.801)" fill="none" stroke="#fff" stroke-linecap="round" stroke-linejoin="round" stroke-width="0.464" opacity="0.25" style="mix-blend-mode: overlay;isolation: isolate"/>
        <path id="Path_1897" data-name="Path 1897" d="M560.092,328.73c-.064.619-5.989,3.807-9.362,5.575a45.533,45.533,0,0,1-4.784-2.131l1.443-2.805a68.831,68.831,0,0,1,10.279-11.147,21.371,21.371,0,0,0,2.432,6.9C560.12,325.864,560.172,328.014,560.092,328.73Z" transform="translate(-545.665 -305.716)" opacity="0.25" style="mix-blend-mode: overlay;isolation: isolate"/>
      </g>
      <g id="Group_1360" data-name="Group 1360" transform="translate(57.587)">
        <path id="Path_1898" data-name="Path 1898" d="M573.46,293.45c-11.895,9.893-17.338,18.17-19.581,22.395a21.845,21.845,0,0,0-1.387,3.015l-2.581-.957,1.053,2.384-3.778,7.642v0l-1.652,3.345V317.959c.506-.981,1.2-2.267,2.094-3.738a61.1,61.1,0,0,1,6.991-9.466,45.17,45.17,0,0,1,4.454-4.306A30.043,30.043,0,0,1,573.46,293.45Z" transform="translate(-545.534 -293.45)" fill="#f3475c"/>
        <path id="Path_1899" data-name="Path 1899" d="M545.534,323.322s7.433-22.19,27.926-29.872" transform="translate(-545.534 -293.45)" fill="none" stroke="#fff" stroke-linecap="round" stroke-linejoin="round" stroke-width="0.464" opacity="0.25" style="mix-blend-mode: overlay;isolation: isolate"/>
        <path id="Path_1900" data-name="Path 1900" d="M552.492,322.041l-2.581-.957,1.053,2.384-3.778,7.642v0l-1.652.237V321.14c.506-.981,1.2-2.267,2.094-3.739a7.74,7.74,0,0,0,6.251,1.624A21.843,21.843,0,0,0,552.492,322.041Z" transform="translate(-545.534 -296.631)" opacity="0.25" style="mix-blend-mode: overlay;isolation: isolate"/>
      </g>
      <path id="Path_1901" data-name="Path 1901" d="M588.6,337.645H545.534V331.6a5.3,5.3,0,0,1,2.372-2.344,5.948,5.948,0,0,1,1.937-.591,3.949,3.949,0,0,1,4.3,2.218,4.434,4.434,0,0,1,4.012-2.584c3.128-.273,5.038,4.607,5.154,4.9-.024-.25-.241-2.963,2.155-3.136,2.508-.181,2.508,3.151,2.508,3.151a6.584,6.584,0,0,1,4.583-2.042,3.5,3.5,0,0,1,3.151,2.654,4.23,4.23,0,0,1,4.587-1.4C583.441,333.179,583.8,337.645,588.6,337.645Z" transform="translate(-487.947 -298.077)" fill="#982245"/>
      <path id="Path_1902" data-name="Path 1902" d="M575.148,337.793H545.534v-6.042a5.3,5.3,0,0,1,2.372-2.344c1.29.1,3.565.515,4.514,2.268a12.393,12.393,0,0,1,1.46,4.875s2.89-4.144,5.194-3.432,3.522,3.432,3.522,3.432,2.427-2.576,4.474-1.716C568.1,335.268,571.759,336.587,575.148,337.793Z" transform="translate(-487.947 -298.225)" opacity="0.25" style="mix-blend-mode: overlay;isolation: isolate"/>
      <path id="Path_1903" data-name="Path 1903" d="M481.327,337.72c-.161-.121-5.238-13.819.6-21.636a46.035,46.035,0,0,0-.362,10.033l-.766.766.846.241s.571,7.662.846,8.547c-.622-5.725.916-9.07.916-9.07s-.271,4.064.252,5.557l-.4.54.4-.082a11.784,11.784,0,0,0,0,3.2s3.264-9.755,1.733-14.037c2.014,3.131,1.451,8.357,1.451,8.357l-.524.206.322.235s-.845,5.573-2.779,7.145" transform="translate(-479.128 -296.456)" fill="#2f1829"/>
    </g>
    <g id="Group_1364" data-name="Group 1364" transform="translate(188.606 256.828)">
      <path id="Path_1904" data-name="Path 1904" d="M248.8,331.388s-25.377-17.119-40.241-15.532c9.049-4.408,31.126,3.375,31.126,3.375l.873,1.953.624-1.119A32.167,32.167,0,0,1,251,322.287C229.3,304.063,215.12,302.3,215.12,302.3a41.475,41.475,0,0,1,15.176.691c8.636,1.922,12.839,5.345,12.839,5.345l1.962,3.438,1.081-1.943,21.7,21.85" transform="translate(-208.558 -285.134)" style="mix-blend-mode: overlay;isolation: isolate"/>
      <path id="Path_1905" data-name="Path 1905" d="M229.489,336.644s-10.715-2.292-17.45-10.316C223.5,327.474,228.454,331.628,229.489,336.644Z" transform="translate(-209.02 -288.376)" fill="none" stroke="#1f3247" stroke-miterlimit="10" stroke-width="0.927"/>
      <g id="Group_1362" data-name="Group 1362" transform="translate(48.074)">
        <path id="Path_1906" data-name="Path 1906" d="M272.235,282.564c-.916,21.5,1.271,29.224,1.271,29.224l-2.938,1.346s.071.058.194.163c.564.478,2.2,1.874,2.681,2.412.418.461-1.161,7-2.094,10.693-.374,1.479-.643,2.5-.643,2.5l-3.92.212-.216-.572-1.127-2.948A68.8,68.8,0,0,1,264,310.5C264.087,301.915,265.792,291.186,272.235,282.564Z" transform="translate(-263.994 -282.564)" fill="#ffadae"/>
        <path id="Path_1907" data-name="Path 1907" d="M269.8,328.974s-7.859-29.7,2.84-46.408" transform="translate(-264.395 -282.564)" fill="none" stroke="#fff" stroke-linecap="round" stroke-linejoin="round" stroke-width="0.464" opacity="0.25" style="mix-blend-mode: overlay;isolation: isolate"/>
        <path id="Path_1908" data-name="Path 1908" d="M273.443,319.987c.418.461-1.161,7-2.094,10.693a45.806,45.806,0,0,1-4.778,2.142l-1.127-2.948A68.8,68.8,0,0,1,264,314.781a21.357,21.357,0,0,0,6.764,2.794C271.326,318.053,272.963,319.449,273.443,319.987Z" transform="translate(-263.994 -286.842)" opacity="0.25" style="mix-blend-mode: overlay;isolation: isolate"/>
      </g>
      <g id="Group_1363" data-name="Group 1363" transform="translate(59.321 14.806)">
        <path id="Path_1909" data-name="Path 1909" d="M289.119,299.637c-5.31,9.266-6.835,15.931-7.268,19.205a15.106,15.106,0,0,0-.17,2.285l-1.9,0,1.256,1.289-.6,5.854v0l-.263,2.562-3.21-8.615c.091-.756.232-1.756.454-2.923a42.289,42.289,0,0,1,2.24-7.808,31.205,31.205,0,0,1,1.844-3.858A20.743,20.743,0,0,1,289.119,299.637Z" transform="translate(-276.963 -299.637)" fill="#f3475c"/>
        <path id="Path_1910" data-name="Path 1910" d="M278.453,325.69s-.54-16.145,10.863-26.053" transform="translate(-277.16 -299.637)" fill="none" stroke="#fff" stroke-linecap="round" stroke-linejoin="round" stroke-width="0.464" opacity="0.25" style="mix-blend-mode: overlay;isolation: isolate"/>
        <path id="Path_1911" data-name="Path 1911" d="M281.681,324.068l-1.9,0,1.256,1.289-.6,5.854v0l-1.012.552-2.461-6.6c.091-.756.232-1.756.454-2.923a5.339,5.339,0,0,0,4.435-.456A15.106,15.106,0,0,0,281.681,324.068Z" transform="translate(-276.963 -302.578)" opacity="0.25" style="mix-blend-mode: overlay;isolation: isolate"/>
      </g>
      <path id="Path_1912" data-name="Path 1912" d="M301.05,336.913l-10.773.012-46.812.044-13.913.016s1.146-3.751,6.592-5.467,7.018,1.841,7.018,1.841-.293-7.123,6.163-9.571,9.314,5.72,9.314,5.72,1.286-4.028,8.165-4.374,6.162,5.025,6.162,5.025a12.582,12.582,0,0,1,10.889-3.357c7.019.99,7.738,6.557,7.738,6.557S297.754,331.564,301.05,336.913Z" transform="translate(-211.346 -287.978)" fill="#982245"/>
      <path id="Path_1913" data-name="Path 1913" d="M292.408,338.034l-46.812.044c2.424-2.154,6.376-4.953,10.589-5,6.878-.072,7.988,2.416,7.988,2.416s4.241-4.494,7.581-3.73,3.49,4.349,3.49,4.349S285.928,333.641,292.408,338.034Z" transform="translate(-213.477 -289.087)" opacity="0.25" style="mix-blend-mode: overlay;isolation: isolate"/>
      <path id="Path_1914" data-name="Path 1914" d="M320.021,338.292s-7.784-13.774-5.445-27.156a46.073,46.073,0,0,0,7.881,17.4l-2.293,1.813h2.293l4.871,9.289-6.6-1.349v.633Z" transform="translate(-222.579 -286.358)" fill="#2f1829"/>
    </g>
  </g>
</svg>
