<?xml version="1.0" standalone="no"?>
<!DOCTYPE svg PUBLIC "-//W3C//DTD SVG 20010904//EN"
 "http://www.w3.org/TR/2001/REC-SVG-20010904/DTD/svg10.dtd">
<svg version="1.0" xmlns="http://www.w3.org/2000/svg"
 width="35.000000pt" height="35.000000pt" viewBox="0 0 35.000000 35.000000"
 preserveAspectRatio="xMidYMid meet">

<g transform="translate(0.000000,35.000000) scale(0.100000,-0.100000)"
fill="#000000" stroke="none">
<path d="M38 223 c-23 -27 -28 -51 -18 -78 11 -28 53 -49 81 -40 24 8 15 25
-9 18 -10 -2 -26 5 -37 17 -26 29 -11 74 28 78 15 2 27 8 27 13 0 16 -56 10
-72 -8z"/>
<path d="M140 175 c0 -37 4 -65 10 -65 6 0 10 25 10 55 0 52 1 55 24 55 14 0
28 5 31 10 4 6 -10 10 -34 10 l-41 0 0 -65z"/>
<path d="M263 223 c-3 -10 -15 -40 -25 -67 -19 -50 -16 -74 6 -43 7 9 21 17
30 17 9 0 16 5 16 10 0 6 -4 10 -10 10 -12 0 -13 37 -1 44 5 3 14 -15 21 -39
12 -44 26 -63 37 -51 3 3 -5 35 -18 71 -22 64 -43 82 -56 48z"/>
<path d="M188 173 c7 -3 16 -2 19 1 4 3 -2 6 -13 5 -11 0 -14 -3 -6 -6z"/>
</g>
</svg>
