<svg xmlns="http://www.w3.org/2000/svg" xmlns:xlink="http://www.w3.org/1999/xlink" width="200" height="31" viewBox="0 0 200 31">
  <defs>
    <clipPath id="clip-path">
      <rect id="Rectangle_937" data-name="Rectangle 937" width="200" height="31" transform="translate(19838 7390)" fill="#fff"/>
    </clipPath>
  </defs>
  <g id="Mask_Group_7" data-name="Mask Group 7" transform="translate(-19838 -7390)" clip-path="url(#clip-path)">
    <g id="Group_4156" data-name="Group 4156" transform="translate(19463 7330.506)">
      <g id="Group_11" data-name="Group 11" transform="translate(375 59.842)">
        <path id="Path_21" data-name="Path 21" d="M378.455-413.832h18.162v4.291H384.412v25.994h-5.957Zm7.54,16.5a13.219,13.219,0,0,1,.542-1.416,6.263,6.263,0,0,1,.833-1.375,4.18,4.18,0,0,1,1.187-1.021,3.158,3.158,0,0,1,1.6-.4H395.2v4.207Z" transform="translate(-351.672 413.832)" fill="#dd1928" opacity="0.89"/>
        <path id="Path_22" data-name="Path 22" d="M42.829-390.074a17.656,17.656,0,0,1-6.636-1.166,13.989,13.989,0,0,1-4.887-3.218,13.657,13.657,0,0,1-3.017-4.806,16.87,16.87,0,0,1-1.026-5.933,16.188,16.188,0,0,1,1.066-5.892,14,14,0,0,1,3.077-4.806,14.435,14.435,0,0,1,4.907-3.238,17.047,17.047,0,0,1,6.516-1.187,18.664,18.664,0,0,1,3.419.322,21.858,21.858,0,0,1,3.66,1.046l-1.448,3.7a25.005,25.005,0,0,0-3.017-.724,16.4,16.4,0,0,0-2.614-.2,8.757,8.757,0,0,0-4.183.945,8.932,8.932,0,0,0-2.936,2.474,10.723,10.723,0,0,0-1.75,3.5,14.241,14.241,0,0,0-.583,4.062,14.241,14.241,0,0,0,.583,4.062,10.961,10.961,0,0,0,1.75,3.519,8.623,8.623,0,0,0,2.936,2.474,8.913,8.913,0,0,0,4.183.925,13.068,13.068,0,0,0,5.591-1.367l1.488,3.66a17.588,17.588,0,0,1-3.6,1.388A13.884,13.884,0,0,1,42.829-390.074Z" transform="translate(-27.264 420.32)" fill="#fff"/>
        <path id="Path_23" data-name="Path 23" d="M581.416-413.832Zm6.747,23.661-2.208,6.623h-5.874l10.873-30.285h5.832l10.872,30.285h-6.165l-7.5-22.536-.333-1.541L593.287-406l-3.541,10.789-.5.833.625-.083h3.166a2.926,2.926,0,0,1,1.583.417A4.625,4.625,0,0,1,595.786-393a6.7,6.7,0,0,1,.854,1.4,12.176,12.176,0,0,1,.562,1.437Z" transform="translate(-534.755 413.832)" fill="#fff"/>
      </g>
      <line id="Line_1" data-name="Line 1" y2="30.218" transform="translate(457.671 60.185)" fill="none" stroke="#fff" stroke-linecap="round" stroke-width="1.5"/>
      <path id="Path_6408" data-name="Path 6408" d="M10.276,20.776a7.928,7.928,0,0,1-3.437.637,5.794,5.794,0,0,1-4.351-1.626A5.945,5.945,0,0,1,.9,15.452a6.352,6.352,0,0,1,1.781-4.678A6.231,6.231,0,0,1,7.308,8.98a8.646,8.646,0,0,1,2.968.444v2.607a5.259,5.259,0,0,0-2.75-.721,3.648,3.648,0,0,0-2.733,1.065,3.951,3.951,0,0,0-1.04,2.884,3.875,3.875,0,0,0,.981,2.779,3.465,3.465,0,0,0,2.641,1.035,5.633,5.633,0,0,0,2.9-.771Zm6.94.637a4.615,4.615,0,0,1-3.374-1.2,4.361,4.361,0,0,1-1.228-3.265,4.362,4.362,0,0,1,1.274-3.332,4.815,4.815,0,0,1,3.446-1.2,4.559,4.559,0,0,1,3.353,1.2A4.276,4.276,0,0,1,21.9,16.794a4.539,4.539,0,0,1-1.253,3.378A4.666,4.666,0,0,1,17.216,21.413Zm.067-6.975a1.767,1.767,0,0,0-1.459.646,2.847,2.847,0,0,0-.52,1.828q0,2.473,2,2.473,1.9,0,1.9-2.54Q19.2,14.438,17.283,14.438ZM32.925,21.2H30.284v-4.77q0-2-1.425-2a1.414,1.414,0,0,0-1.132.528,2.012,2.012,0,0,0-.444,1.341v4.9H24.634V12.619h2.649v1.358h.034a3.036,3.036,0,0,1,2.758-1.568q2.85,0,2.85,3.538Zm2.547-.226V18.831a5.64,5.64,0,0,0,1.3.587A4.322,4.322,0,0,0,38,19.61a2.634,2.634,0,0,0,1.111-.193.623.623,0,0,0,.407-.587.543.543,0,0,0-.184-.419,1.714,1.714,0,0,0-.474-.293,5.375,5.375,0,0,0-.633-.226q-.344-.1-.662-.226a6.345,6.345,0,0,1-.9-.415,2.6,2.6,0,0,1-.654-.516,2.027,2.027,0,0,1-.4-.679,2.71,2.71,0,0,1-.138-.914,2.352,2.352,0,0,1,.314-1.241,2.568,2.568,0,0,1,.838-.851,3.83,3.83,0,0,1,1.2-.486,6.251,6.251,0,0,1,1.4-.155,7.791,7.791,0,0,1,1.157.088,8.635,8.635,0,0,1,1.157.256V14.8a4.18,4.18,0,0,0-1.077-.44,4.544,4.544,0,0,0-1.128-.147,2.5,2.5,0,0,0-.49.046,1.615,1.615,0,0,0-.407.134.747.747,0,0,0-.277.226.521.521,0,0,0-.1.314.581.581,0,0,0,.151.4,1.311,1.311,0,0,0,.394.289,3.89,3.89,0,0,0,.541.218q.3.1.591.2a7.684,7.684,0,0,1,.956.4,3.056,3.056,0,0,1,.734.511,2.008,2.008,0,0,1,.469.687,2.751,2.751,0,0,1-.168,2.243,2.651,2.651,0,0,1-.88.88,3.992,3.992,0,0,1-1.266.495,7.018,7.018,0,0,1-1.488.155A7.671,7.671,0,0,1,35.472,20.977Zm17.285.226H50.116V19.9h-.042a3,3,0,0,1-2.624,1.517q-2.984,0-2.984-3.613V12.619h2.641v4.946q0,1.819,1.442,1.819a1.426,1.426,0,0,0,1.14-.5,2.011,2.011,0,0,0,.428-1.354V12.619h2.641Zm5.892,0H56V8.494h2.649Zm8.432-.1a3.916,3.916,0,0,1-1.769.31q-2.8,0-2.8-2.909V14.572H61.121V12.619h1.392V10.766l2.641-.754v2.607h1.928v1.953H65.153v3.471q0,1.341,1.065,1.341a1.8,1.8,0,0,0,.863-.243Zm9.648.1H74.222V19.971h-.034a2.8,2.8,0,0,1-2.557,1.442,2.675,2.675,0,0,1-1.966-.708,2.538,2.538,0,0,1-.717-1.89q0-2.5,2.959-2.884l2.331-.31q0-1.408-1.526-1.408a5.208,5.208,0,0,0-2.917.914v-2a6.563,6.563,0,0,1,1.513-.5,7.954,7.954,0,0,1,1.748-.218q3.672,0,3.672,3.664Zm-2.49-3.487v-.578l-1.559.2q-1.291.168-1.291,1.165a.963.963,0,0,0,.314.742,1.208,1.208,0,0,0,.851.289,1.568,1.568,0,0,0,1.216-.516A1.862,1.862,0,0,0,74.239,17.716ZM88.129,21.2H85.488v-4.77q0-2-1.425-2a1.414,1.414,0,0,0-1.132.528,2.012,2.012,0,0,0-.444,1.341v4.9H79.838V12.619h2.649v1.358h.034a3.036,3.036,0,0,1,2.758-1.568q2.85,0,2.85,3.538Zm8.3-.1a3.916,3.916,0,0,1-1.769.31q-2.8,0-2.8-2.909V14.572H90.466V12.619h1.392V10.766l2.641-.754v2.607h1.928v1.953H94.5v3.471q0,1.341,1.065,1.341a1.8,1.8,0,0,0,.863-.243Zm1.944-.126V18.831a5.64,5.64,0,0,0,1.3.587,4.322,4.322,0,0,0,1.228.193,2.634,2.634,0,0,0,1.111-.193.623.623,0,0,0,.407-.587.543.543,0,0,0-.184-.419,1.714,1.714,0,0,0-.474-.293,5.375,5.375,0,0,0-.633-.226q-.344-.1-.662-.226a6.346,6.346,0,0,1-.9-.415,2.605,2.605,0,0,1-.654-.516,2.027,2.027,0,0,1-.4-.679,2.71,2.71,0,0,1-.138-.914,2.352,2.352,0,0,1,.314-1.241,2.568,2.568,0,0,1,.838-.851,3.83,3.83,0,0,1,1.2-.486,6.251,6.251,0,0,1,1.4-.155,7.791,7.791,0,0,1,1.157.088,8.634,8.634,0,0,1,1.157.256V14.8a4.18,4.18,0,0,0-1.077-.44,4.544,4.544,0,0,0-1.128-.147,2.5,2.5,0,0,0-.49.046,1.615,1.615,0,0,0-.407.134.747.747,0,0,0-.277.226.521.521,0,0,0-.1.314.581.581,0,0,0,.151.4,1.311,1.311,0,0,0,.394.289,3.89,3.89,0,0,0,.541.218q.3.1.591.2a7.685,7.685,0,0,1,.956.4,3.056,3.056,0,0,1,.734.511,2.008,2.008,0,0,1,.469.687,2.75,2.75,0,0,1-.168,2.243,2.651,2.651,0,0,1-.88.88,3.992,3.992,0,0,1-1.266.495,7.017,7.017,0,0,1-1.488.155A7.671,7.671,0,0,1,98.371,20.977Z" transform="translate(469.287 51)" fill="#fff"/>
      <path id="Path_6407" data-name="Path 6407" d="M8.734,10.87H3.851v4.324H8.368v1.317H3.851v5.536H2.387V9.544H8.734Zm10.228,3.7a1.748,1.748,0,0,0-1.081-.288,1.825,1.825,0,0,0-1.53.863,3.991,3.991,0,0,0-.615,2.354v4.551h-1.43V13.119h1.43v1.84h.035A3.118,3.118,0,0,1,16.7,13.49a2.127,2.127,0,0,1,1.4-.527,2.334,2.334,0,0,1,.854.122Zm8.676,7.69a4.141,4.141,0,0,1-3.161-1.251A4.634,4.634,0,0,1,23.3,17.688a4.828,4.828,0,0,1,1.229-3.514,4.42,4.42,0,0,1,3.322-1.264,4,4,0,0,1,3.117,1.229,4.874,4.874,0,0,1,1.12,3.409,4.8,4.8,0,0,1-1.208,3.422A4.231,4.231,0,0,1,27.638,22.256Zm.1-8.143a2.72,2.72,0,0,0-2.18.937,3.849,3.849,0,0,0-.8,2.585,3.64,3.64,0,0,0,.811,2.5,2.756,2.756,0,0,0,2.171.915,2.614,2.614,0,0,0,2.132-.9A3.9,3.9,0,0,0,30.62,17.6a3.964,3.964,0,0,0-.745-2.581A2.6,2.6,0,0,0,27.743,14.113Zm22.7,7.934h-1.43V16.92a3.868,3.868,0,0,0-.458-2.145,1.736,1.736,0,0,0-1.539-.663,1.906,1.906,0,0,0-1.556.837,3.2,3.2,0,0,0-.641,2.005v5.092h-1.43v-5.3q0-2.633-2.031-2.633A1.882,1.882,0,0,0,39.8,14.9a3.262,3.262,0,0,0-.61,2.053v5.092h-1.43V13.119h1.43v1.412h.035A3.033,3.033,0,0,1,42,12.91a2.579,2.579,0,0,1,2.528,1.848,3.186,3.186,0,0,1,2.964-1.848q2.947,0,2.947,3.636Zm24.249,0H73.065l-1.325-3.5h-5.3l-1.247,3.5h-1.63l4.8-12.5h1.517Zm-3.426-4.821L69.3,11.9a5.1,5.1,0,0,1-.192-.837h-.035a4.67,4.67,0,0,1-.2.837l-1.944,5.327Zm7.926,4.5V20.19a4.231,4.231,0,0,0,2.572.863q1.883,0,1.883-1.255a1.089,1.089,0,0,0-.161-.606,1.608,1.608,0,0,0-.436-.44,3.356,3.356,0,0,0-.645-.344q-.371-.153-.8-.318a10.275,10.275,0,0,1-1.042-.475,3.148,3.148,0,0,1-.75-.541,2.011,2.011,0,0,1-.453-.684,2.421,2.421,0,0,1-.153-.9,2.133,2.133,0,0,1,.288-1.112,2.551,2.551,0,0,1,.767-.811,3.578,3.578,0,0,1,1.094-.493,4.854,4.854,0,0,1,1.269-.166,5.122,5.122,0,0,1,2.075.4v1.447a4.044,4.044,0,0,0-2.267-.645,2.65,2.65,0,0,0-.724.092,1.772,1.772,0,0,0-.554.257,1.188,1.188,0,0,0-.357.4,1.045,1.045,0,0,0-.126.51,1.223,1.223,0,0,0,.126.584,1.286,1.286,0,0,0,.371.418,2.832,2.832,0,0,0,.593.331q.349.148.793.323a11.043,11.043,0,0,1,1.064.466,3.648,3.648,0,0,1,.8.541,2.112,2.112,0,0,1,.51.693,2.235,2.235,0,0,1,.179.933,2.2,2.2,0,0,1-.292,1.151,2.5,2.5,0,0,1-.78.811,3.574,3.574,0,0,1-1.125.48,5.553,5.553,0,0,1-1.334.157A5.065,5.065,0,0,1,79.187,21.724ZM91.429,10.852a.906.906,0,0,1-.654-.262.883.883,0,0,1-.27-.663A.916.916,0,0,1,91.429,9a.923.923,0,0,1,.667.266.931.931,0,0,1,0,1.321A.916.916,0,0,1,91.429,10.852Zm.7,11.195H90.7V13.119h1.43Zm12.678,0h-1.43V20.652h-.035a2.993,2.993,0,0,1-2.746,1.6,2.935,2.935,0,0,1-2.088-.706,2.447,2.447,0,0,1-.754-1.875q0-2.5,2.947-2.912l2.677-.375q0-2.276-1.84-2.276a4.4,4.4,0,0,0-2.912,1.1V13.747a5.533,5.533,0,0,1,3.034-.837q3.147,0,3.147,3.331Zm-1.43-4.516-2.154.3a3.5,3.5,0,0,0-1.5.493,1.421,1.421,0,0,0-.506,1.251,1.363,1.363,0,0,0,.466,1.068,1.8,1.8,0,0,0,1.242.414,2.3,2.3,0,0,0,1.757-.745,2.663,2.663,0,0,0,.693-1.888Z" transform="translate(470.196 68.012)" fill="#fff"/>
    </g>
  </g>
</svg>
