<svg xmlns="http://www.w3.org/2000/svg" width="169.861" height="60.066" viewBox="0 0 169.861 60.066">
  <g id="instalogo" transform="translate(12403 -4469.025)">
    <g id="instalogo-2" data-name="instalogo" transform="translate(-12424.598 4276.562)">
      <g id="Layer_2" data-name="Layer 2" transform="translate(21.597 192.463)">
        <path id="Path_14" data-name="Path 14" d="M129.874,198.094h-.07a.68.68,0,0,1-.546-.192.482.482,0,0,0-.581-.087l.093.169a1.692,1.692,0,0,1-.215-.041,3.072,3.072,0,0,0-.477-.162.762.762,0,0,0-.454.041,10.582,10.582,0,0,0-.97.651.279.279,0,0,0-.1.146l.256-.123a1.638,1.638,0,0,1,.262-.093c.186-.041.256,0,.267.2a2.776,2.776,0,0,1,0,.32v.372a.662.662,0,0,0-.1.139c-.052.146-.082.3-.146.436a1.163,1.163,0,0,0,0,1.122,1.743,1.743,0,0,1,.2.651c0,.139.146.267.221.4h.041l-.18-.629.511.79a.2.2,0,0,1,.029.1.581.581,0,0,0,.4.524,10.929,10.929,0,0,0,1.116.419.866.866,0,0,1,.442.326,1.991,1.991,0,0,0,.506.326.116.116,0,0,0,.087,0c.151-.064.308-.052.372.082a.582.582,0,0,1,0,.36,2.224,2.224,0,0,1-.192.331.709.709,0,0,0,.1.883,1.04,1.04,0,0,1,.151.192,1.467,1.467,0,0,0,.581.61.465.465,0,0,1,.162.581,6.519,6.519,0,0,1-.326.826,1.342,1.342,0,0,0-.139.651,3.14,3.14,0,0,0,.064.354,5.725,5.725,0,1,1,.215-.041,1.691,1.691,0,0,1,.622-.733,4.244,4.244,0,0,0,.895-.639,6.608,6.608,0,0,0,1.715-2.243,2.082,2.082,0,0,0,.082-.279c.035-.18,0-.279-.186-.331a3.726,3.726,0,0,0-.524-.087H133.8a.2.2,0,0,1-.21-.2c0-.256-.174-.349-.395-.413a4.19,4.19,0,0,1-.767-.308.872.872,0,0,0-1.093.075.814.814,0,0,1-.814.186.454.454,0,0,1-.372-.419c-.041-.314-.139-.419-.477-.511a1.531,1.531,0,0,0,.058-.244.68.68,0,0,0-.035-.186.691.691,0,0,0-.169.046c-.1.058-.2.139-.314.192a.29.29,0,0,1-.442-.134.581.581,0,0,1,.192-.826.943.943,0,0,1,1.244.116,1.285,1.285,0,0,0,.146.11l.052-.035a2.174,2.174,0,0,0-.082-.267.343.343,0,0,1,.1-.447.581.581,0,0,0,.244-.581.4.4,0,0,1,.331-.447c0-.221.075-.262.3-.273.093,0,.186-.1.308-.174l-.2-.116c-.134-.075-.146-.139,0-.244s.174-.128.3-.215l-.733-.5h-.029a1.087,1.087,0,0,1-.581-.128c-.139-.046-.18,0-.162.139a3.488,3.488,0,0,1,.046.349c0,.169-.082.221-.221.134l-.581-.366c-.093-.058-.082-.116,0-.18h0C129.653,198.42,129.874,198.367,129.874,198.094Zm.68-.854a.349.349,0,0,0-.3.169c-.075.1-.046.2.082.21a1.51,1.51,0,0,1,.889.413,4.423,4.423,0,0,0,.534.326h.162a.657.657,0,0,0,0-.157,1.506,1.506,0,0,1-.139-.32.5.5,0,0,0-.372-.442c-.291-.082-.576-.135-.855-.2Zm-.326,1.116a3.447,3.447,0,0,0,.395.046c.058,0,.169-.046.169-.07a.29.29,0,0,0-.082-.2,1.781,1.781,0,0,0-.395-.226,1.435,1.435,0,0,0-.622-.046c.128.151.279.123.406.151C130.327,198.054,130.364,198.135,130.228,198.356Zm-.087,3.906c.058.046.07.064.082.064a2.073,2.073,0,0,1,.8.285.581.581,0,0,0,.651-.064c-.075,0-.162-.075-.221-.046-.192.1-.326,0-.482-.093a4.072,4.072,0,0,0-.581-.2c-.059-.023-.139.023-.25.052Zm-.511-4.61a.47.47,0,0,0,.524-.157c.058-.1,0-.169-.093-.169h-.134c-.186.035-.2.21-.3.326Z" transform="translate(-124.557 -197.239)" fill="#ef1d26"/>
        <path id="Path_15" data-name="Path 15" d="M134.606,197.239a8.3,8.3,0,0,1,.831.2.5.5,0,0,1,.372.442,1.507,1.507,0,0,0,.139.32.656.656,0,0,1,0,.157h-.162a4.423,4.423,0,0,1-.534-.326,1.511,1.511,0,0,0-.889-.413c-.128,0-.157-.1-.082-.21A.349.349,0,0,1,134.606,197.239Z" transform="translate(-128.609 -197.238)" fill="#ef1d26"/>
        <path id="Path_16" data-name="Path 16" d="M133.924,198.785c.139-.226.1-.3-.128-.354a.466.466,0,0,1-.406-.151,1.435,1.435,0,0,1,.622.046,1.781,1.781,0,0,1,.395.226.29.29,0,0,1,.082.2.39.39,0,0,1-.169.07,3.443,3.443,0,0,1-.395-.041Z" transform="translate(-128.254 -197.668)" fill="#ef1d26"/>
        <path id="Path_17" data-name="Path 17" d="M134.16,205.84c.11,0,.192-.07.256-.052a4.066,4.066,0,0,1,.581.2c.157.07.29.186.482.093a.419.419,0,0,1,.221.046.581.581,0,0,1-.651.064,2.075,2.075,0,0,0-.8-.285S134.212,205.905,134.16,205.84Z" transform="translate(-128.576 -200.817)" fill="#ef1d26"/>
        <path id="Path_10912" data-name="Path 10912" d="M15.062,2.071A16.8,16.8,0,0,1,8.252.762,11.629,11.629,0,0,1,3.538-2.826,9.438,9.438,0,0,1,1.6-7.933h8.852a3.4,3.4,0,0,0,1.414,2.462,5,5,0,0,0,3.09.943,4.41,4.41,0,0,0,2.593-.655,2.005,2.005,0,0,0,.917-1.7,1.964,1.964,0,0,0-1.31-1.86,26.455,26.455,0,0,0-4.243-1.336,39.834,39.834,0,0,1-5.238-1.545,9.05,9.05,0,0,1-3.614-2.567,7,7,0,0,1-1.519-4.74,8.049,8.049,0,0,1,1.388-4.583A9.346,9.346,0,0,1,8.017-26.79,15.645,15.645,0,0,1,14.433-28q5.5,0,8.669,2.724a10.6,10.6,0,0,1,3.64,7.229H18.467a3.562,3.562,0,0,0-1.336-2.41,4.633,4.633,0,0,0-2.96-.89,4.092,4.092,0,0,0-2.41.6,1.923,1.923,0,0,0-.838,1.65A2.015,2.015,0,0,0,12.26-17.2a21.393,21.393,0,0,0,4.164,1.257,45.557,45.557,0,0,1,5.29,1.65A9.126,9.126,0,0,1,25.3-11.679a7.411,7.411,0,0,1,1.6,4.845A7.691,7.691,0,0,1,25.46-2.25,9.527,9.527,0,0,1,21.321.919a15.825,15.825,0,0,1-6.26,1.152ZM48.691-5.943v7.6H44.133q-4.871,0-7.6-2.383T33.814-8.509V-20.138H30.252v-7.438h3.562V-34.7h8.957v7.124h5.867v7.438H42.771V-8.4A2.455,2.455,0,0,0,43.4-6.519a3.068,3.068,0,0,0,2.1.576Zm3.2-7.071a17.469,17.469,0,0,1,1.7-7.91,12.7,12.7,0,0,1,4.636-5.238A12.1,12.1,0,0,1,64.772-28a11.248,11.248,0,0,1,5.421,1.257,9.261,9.261,0,0,1,3.588,3.3v-4.138h8.957V1.652H73.781V-2.486a9.673,9.673,0,0,1-3.64,3.3,11.248,11.248,0,0,1-5.421,1.257,11.885,11.885,0,0,1-6.5-1.86,12.85,12.85,0,0,1-4.636-5.29,17.635,17.635,0,0,1-1.7-7.936Zm21.9.052a7.323,7.323,0,0,0-1.86-5.29,6.042,6.042,0,0,0-4.531-1.938,6.076,6.076,0,0,0-4.531,1.912A7.229,7.229,0,0,0,61-13.014,7.417,7.417,0,0,0,62.86-7.7a6,6,0,0,0,4.531,1.964,6.042,6.042,0,0,0,4.531-1.938A7.323,7.323,0,0,0,73.781-12.962Z" transform="translate(43.273 40.825)" fill="#fff"/>
        <path id="Union_6" data-name="Union 6" d="M-5816.979-4080.677H-5817v-18.307h9.073v18.307h-.006s-.133,4.3,3.046,4.411c3.58.129,3.4-4.021,3.4-4.021h.01v-3.365l.006-.009v-2.972s-.2-9.41,7.265-11.687a26.222,26.222,0,0,1,5.734-.652l.043-.022c11.921,0,11.7,8.21,11.7,8.21v2.609l-.029-.02v18.554a.234.234,0,0,1-.185.237h-8.717c-.129,0-.129-.113-.129-.243v-17.914s-.133-3.488-3.435-3.226a3.178,3.178,0,0,0-2.806,2.487c-.091.319-.167.655-.229,1a7.254,7.254,0,0,0-.085,1.234v5.178c.022.191.035.3.035.3l-.063.043c-.073,1.833-.994,10.829-11.821,11.3-.274.01-.545.017-.808.017C-5815.68-4069.227-5816.916-4078.8-5816.979-4080.677Z" transform="translate(5818.074 4112.154)" fill="#fff"/>
        <rect id="Rectangle_5" data-name="Rectangle 5" width="9.049" height="29.593" transform="translate(133.256 13.165)" fill="#ef1d26"/>
        <path id="Union_11" data-name="Union 11" d="M-3547.667,203.7v-22.08L-3555,181.6V174h24.236v7.672l-7.857-.023V203.7Z" transform="translate(3700.625 -160.835)" fill="#ef1d26"/>
      </g>
    </g>
    <path id="Path_43315" data-name="Path 43315" d="M7.865-6.435A2.817,2.817,0,0,0,6.773-7.664,3.135,3.135,0,0,0,5.109-8.1a3.378,3.378,0,0,0-1.71.435A3.076,3.076,0,0,0,2.2-6.416a3.916,3.916,0,0,0-.435,1.878A3.878,3.878,0,0,0,2.2-2.665,3.087,3.087,0,0,0,3.4-1.424a3.378,3.378,0,0,0,1.71.436,3.092,3.092,0,0,0,2.184-.793,3.273,3.273,0,0,0,1-2.145H4.68v-.962H9.555v.91a4.5,4.5,0,0,1-.7,2.048A4.338,4.338,0,0,1,7.28-.462a4.408,4.408,0,0,1-2.171.54,4.572,4.572,0,0,1-2.3-.592A4.343,4.343,0,0,1,1.164-2.158a4.692,4.692,0,0,1-.6-2.379,4.727,4.727,0,0,1,.6-2.386A4.33,4.33,0,0,1,2.808-8.573a4.572,4.572,0,0,1,2.3-.592,4.618,4.618,0,0,1,2.555.715A4.091,4.091,0,0,1,9.282-6.435ZM13.988-8.1V-5.07h3.3V-4.1h-3.3v3.12H17.68V0H12.805V-9.074H17.68V-8.1ZM28.288,0H27.105L22.347-7.215V0H21.164V-9.074h1.183l4.758,7.2v-7.2h1.183Zm9.464-10.348L37.6-7.761h-.819l-.169-2.587Zm6.864,5.824L47.4,0H46.059L43.888-3.536,41.821,0H40.508l2.769-4.524L40.5-9.061h1.326l2.184,3.549,2.08-3.549h1.326Zm6.656-5.824-.156,2.587H50.3l-.169-2.587Zm13.9,1.287V-8.1H62.7V0H61.516V-8.1H59.033v-.962ZM69.5-8.1V-5.07h3.3V-4.1H69.5v3.12H73.19V0H68.315V-9.074H73.19V-8.1Zm6.734,3.562a4.768,4.768,0,0,1,.6-2.386A4.344,4.344,0,0,1,78.462-8.58a4.5,4.5,0,0,1,2.295-.6,4.656,4.656,0,0,1,2.587.715,4.1,4.1,0,0,1,1.612,2.028H83.538A2.845,2.845,0,0,0,82.453-7.7a3.141,3.141,0,0,0-1.7-.442,3.3,3.3,0,0,0-1.7.442A3.091,3.091,0,0,0,77.87-6.442a4.022,4.022,0,0,0-.429,1.9,3.993,3.993,0,0,0,.429,1.892,3.091,3.091,0,0,0,1.183,1.254,3.3,3.3,0,0,0,1.7.442,3.177,3.177,0,0,0,1.7-.436,2.8,2.8,0,0,0,1.085-1.255h1.417A4.067,4.067,0,0,1,83.343-.631a4.688,4.688,0,0,1-2.587.709,4.537,4.537,0,0,1-2.295-.592A4.31,4.31,0,0,1,76.83-2.158,4.732,4.732,0,0,1,76.232-4.537ZM95.381-9.061V0H94.2V-4.108H89.583V0H88.4V-9.061h1.183v3.978H94.2V-9.061ZM106.21,0h-1.183l-4.758-7.215V0H99.086V-9.074h1.183l4.758,7.2v-7.2h1.183Zm7.813.091a4.572,4.572,0,0,1-2.3-.592,4.33,4.33,0,0,1-1.645-1.651,4.727,4.727,0,0,1-.6-2.385,4.727,4.727,0,0,1,.6-2.386,4.33,4.33,0,0,1,1.645-1.651,4.572,4.572,0,0,1,2.3-.592,4.6,4.6,0,0,1,2.314.592,4.3,4.3,0,0,1,1.638,1.644,4.758,4.758,0,0,1,.6,2.392,4.758,4.758,0,0,1-.6,2.392A4.3,4.3,0,0,1,116.337-.5,4.6,4.6,0,0,1,114.023.091Zm0-1.027a3.339,3.339,0,0,0,1.709-.442,3.111,3.111,0,0,0,1.2-1.261,3.983,3.983,0,0,0,.436-1.9,3.973,3.973,0,0,0-.436-1.9,3.135,3.135,0,0,0-1.19-1.254,3.329,3.329,0,0,0-1.716-.442,3.329,3.329,0,0,0-1.716.442,3.135,3.135,0,0,0-1.189,1.254,3.973,3.973,0,0,0-.436,1.9,3.983,3.983,0,0,0,.436,1.9,3.111,3.111,0,0,0,1.2,1.261A3.339,3.339,0,0,0,114.023-.936Zm7.358-3.6a4.768,4.768,0,0,1,.6-2.386,4.344,4.344,0,0,1,1.632-1.657,4.5,4.5,0,0,1,2.295-.6,4.656,4.656,0,0,1,2.587.715A4.1,4.1,0,0,1,130.1-6.435h-1.417A2.845,2.845,0,0,0,127.6-7.7a3.141,3.141,0,0,0-1.7-.442,3.3,3.3,0,0,0-1.7.442,3.091,3.091,0,0,0-1.183,1.254,4.022,4.022,0,0,0-.429,1.9,3.993,3.993,0,0,0,.429,1.892A3.091,3.091,0,0,0,124.2-1.391a3.3,3.3,0,0,0,1.7.442,3.177,3.177,0,0,0,1.7-.436,2.8,2.8,0,0,0,1.086-1.255H130.1a4.068,4.068,0,0,1-1.612,2.009,4.688,4.688,0,0,1-2.587.709,4.537,4.537,0,0,1-2.295-.592,4.31,4.31,0,0,1-1.632-1.644A4.732,4.732,0,0,1,121.381-4.537ZM138.32,0l-2.158-3.705h-1.43V0h-1.183V-9.061h2.925a3.883,3.883,0,0,1,1.736.351,2.444,2.444,0,0,1,1.059.949A2.646,2.646,0,0,1,139.62-6.4a2.667,2.667,0,0,1-.54,1.651,2.637,2.637,0,0,1-1.618.949L139.737,0Zm-3.588-4.654h1.742a1.976,1.976,0,0,0,1.443-.474A1.7,1.7,0,0,0,138.4-6.4a1.622,1.622,0,0,0-.475-1.248,2.065,2.065,0,0,0-1.45-.442h-1.742ZM148.5-2.015h-3.952L143.819,0h-1.248l3.276-9.009h1.365L150.475,0h-1.248Zm-.338-.962-1.638-4.576-1.638,4.576Zm11.011-6.084V-8.1H156.7V0h-1.183V-8.1h-2.483v-.962ZM165.191.091a3.876,3.876,0,0,1-1.605-.319,2.675,2.675,0,0,1-1.111-.884,2.265,2.265,0,0,1-.416-1.306h1.261a1.661,1.661,0,0,0,.527,1.072,1.89,1.89,0,0,0,1.345.436,1.966,1.966,0,0,0,1.333-.423,1.371,1.371,0,0,0,.488-1.085,1.232,1.232,0,0,0-.286-.845,1.827,1.827,0,0,0-.715-.494,11.171,11.171,0,0,0-1.157-.364,10.19,10.19,0,0,1-1.436-.468,2.313,2.313,0,0,1-.923-.735,2.158,2.158,0,0,1-.383-1.345,2.331,2.331,0,0,1,.377-1.313,2.456,2.456,0,0,1,1.06-.884,3.73,3.73,0,0,1,1.566-.312,3.281,3.281,0,0,1,2.087.637,2.353,2.353,0,0,1,.916,1.69h-1.3a1.4,1.4,0,0,0-.546-.917,1.94,1.94,0,0,0-1.274-.4,1.846,1.846,0,0,0-1.209.384,1.309,1.309,0,0,0-.468,1.073,1.162,1.162,0,0,0,.279.806,1.8,1.8,0,0,0,.689.475q.409.162,1.15.371a10.805,10.805,0,0,1,1.443.488,2.407,2.407,0,0,1,.936.741,2.155,2.155,0,0,1,.39,1.359,2.386,2.386,0,0,1-.351,1.248,2.58,2.58,0,0,1-1.04.949A3.432,3.432,0,0,1,165.191.091Z" transform="translate(-12403 4529)" fill="#fff"/>
  </g>
</svg>
