<svg xmlns="http://www.w3.org/2000/svg" viewBox="0 0 660.09 438.79"><title>Thankyou</title><g id="Speech_Bubble" data-name="Speech Bubble"><path d="M653.65,250c-6.23.1-22,.35-28,.41l-9.43,0h-.45V250l0-11.76v-.5h.5l18.71.07c4.66,0,14.05.13,18.71.2h.24v.23L653.65,250Zm0,0-.24-11.76.24.24c-4.67.06-14,.16-18.71.2l-18.71.07.5-.5,0,11.76-.46-.46,9.28,0c5.93.06,22,.32,28.14.41Z" transform="translate(-34.11 -39.66)" fill="#ebebeb"/><path d="M681.7,165.68c-6.23.1-22,.35-28,.41l-9.43,0h-.45v-.46l0-11.76v-.5h.5l18.71.07c4.66,0,14.05.13,18.71.2h.24v.23l-.24,11.76Zm0,0-.24-11.76.24.24c-4.67.06-14,.16-18.71.2l-18.71.07.5-.5,0,11.76-.46-.46,9.28,0c5.93.06,22,.32,28.14.41Z" transform="translate(-34.11 -39.66)" fill="#ebebeb"/><path d="M103.45,291.47c-6.23.1-22,.35-28,.41l-9.43,0h-.45v-.46l0-11.76v-.5H66l18.71.07c4.66,0,14.05.13,18.71.2h.24v.23l-.24,11.76Zm0,0-.24-11.76.24.24c-4.67.06-14,.16-18.71.2L66,280.2l.5-.5,0,11.76L66,291l9.28,0c5.93.06,22,.32,28.14.41Z" transform="translate(-34.11 -39.66)" fill="#ebebeb"/><rect x="11.06" y="254.88" width="37.42" height="11.76" fill="#ebebeb"/><path d="M337.62,346.59c6.23-.1,22-.35,28-.41l9.43,0h.45v.46l0,11.76v.5H375l-18.71-.07c-4.66,0-14.05-.13-18.71-.2h-.24v-.23l.24-11.76Zm0,0,.24,11.76-.24-.24c4.67-.06,14-.16,18.71-.2l18.71-.07-.5.5,0-11.76.46.46-9.28,0c-5.93-.06-22-.32-28.14-.41Z" transform="translate(-34.11 -39.66)" fill="#ebebeb"/><rect x="358.49" y="331.76" width="37.42" height="11.76" transform="translate(720.29 635.62) rotate(180)" fill="#ebebeb"/><rect x="560.36" y="208.51" width="37.42" height="11.76" fill="#ebebeb"/><path d="M365.76,107c-6.23.1-22,.35-28,.41l-9.43,0h-.45V107l0-11.76v-.5h.5l18.71.07c4.66,0,14.05.13,18.71.2H366v.23L365.76,107Zm0,0-.24-11.76.24.24c-4.67.06-14,.16-18.71.2l-18.71.07.5-.5,0,11.76-.46-.46,9.28,0c5.93.06,22,.32,28.14.41Z" transform="translate(-34.11 -39.66)" fill="#ebebeb"/><rect x="273.36" y="70.36" width="37.42" height="11.76" fill="#ebebeb"/><path d="M422.52,59.74c-6.23.1-22,.35-28,.41l-9.43,0h-.45v-.46l0-11.76v-.5h.5l18.71.07c4.66,0,14.05.13,18.71.2h.24V48l-.24,11.76Zm0,0L422.28,48l.24.24c-4.67.06-14,.16-18.71.2l-18.71.07.5-.5,0,11.76-.46-.46,9.28,0c5.93.06,22,.32,28.14.41Z" transform="translate(-34.11 -39.66)" fill="#ebebeb"/><rect x="150.22" y="292.58" width="37.42" height="11.76" fill="#ebebeb"/><path d="M219.78,254.07c-6.23.1-22,.35-28,.41l-9.43,0h-.45v-.46l0-11.76v-.5h.5l18.71.07c4.66,0,14.05.13,18.71.2H220v.23l-.24,11.76Zm0,0-.24-11.76.24.24c-4.67.06-14,.16-18.71.2l-18.71.07.5-.5,0,11.76-.46-.46,9.28,0c5.93.06,22,.32,28.14.41Z" transform="translate(-34.11 -39.66)" fill="#ebebeb"/><rect x="617.13" y="15.32" width="37.42" height="11.76" fill="#ebebeb"/><path d="M98.14,51.92c-6.23.1-22,.35-28,.41l-9.43,0h-.45v-.46l0-11.76v-.5h.5l18.71.07c4.66,0,14.05.13,18.71.2h.24v.23l-.24,11.76Zm0,0L97.9,40.16l.24.24c-4.67.06-14,.16-18.71.2l-18.71.07.5-.5,0,11.76-.46-.46,9.28,0c5.93.06,22,.32,28.14.41Z" transform="translate(-34.11 -39.66)" fill="#ebebeb"/><path d="M214.28,66.56a2.39,2.39,0,0,1,.72,1.75V88.26a2.46,2.46,0,0,1-2.47,2.47H186.82a.91.91,0,0,0-1,1V207.34a2.46,2.46,0,0,1-2.47,2.47H159.26a2.46,2.46,0,0,1-2.47-2.47V91.76a.91.91,0,0,0-1-1H131.09a2.46,2.46,0,0,1-2.47-2.47V68.31a2.46,2.46,0,0,1,2.47-2.47h81.44A2.39,2.39,0,0,1,214.28,66.56Z" transform="translate(-34.11 -39.66)" fill="none"/><path d="M281.32,56.56a2.38,2.38,0,0,1,1.75-.72h24.06a2.46,2.46,0,0,1,2.47,2.47v139a2.46,2.46,0,0,1-2.47,2.47H283.07a2.46,2.46,0,0,1-2.47-2.47V141.19a.91.91,0,0,0-1-1H259a.91.91,0,0,0-1,1v56.15a2.46,2.46,0,0,1-2.47,2.47H231.45a2.46,2.46,0,0,1-2.47-2.47v-139a2.46,2.46,0,0,1,2.47-2.47h24.06A2.46,2.46,0,0,1,258,58.31v55.94a.91.91,0,0,0,1,1h20.57a.91.91,0,0,0,1-1V58.31A2.38,2.38,0,0,1,281.32,56.56Z" transform="translate(-34.11 -39.66)" fill="#f71700"/><circle cx="208.91" cy="25.08" r="2.1" fill="#f71700"/><circle cx="261.23" cy="25.08" r="2.1" fill="#f71700"/><path d="M486.37,56.56a2.37,2.37,0,0,1,1.75-.72H512a2.46,2.46,0,0,1,2.47,2.47v139a2.46,2.46,0,0,1-2.47,2.47H484.82a2.58,2.58,0,0,1-2.67-2.06l-25.5-79.59c-.14-.41-.38-.58-.72-.51a.63.63,0,0,0-.51.72l.21,79a2.46,2.46,0,0,1-2.47,2.47H429.29a2.46,2.46,0,0,1-2.47-2.47v-139a2.46,2.46,0,0,1,2.47-2.47h26.94a2.58,2.58,0,0,1,2.67,2.06l25.71,79.59c.14.41.38.59.72.51a.63.63,0,0,0,.52-.72l-.21-79A2.37,2.37,0,0,1,486.37,56.56Z" transform="translate(-34.11 -39.66)" fill="#f71700"/><circle cx="409.44" cy="25.08" r="2.1" fill="#f71700"/><circle cx="466.74" cy="25.08" r="2.1" fill="#f71700"/><path d="M385.49,217.55,382.2,197.8c0-.68-.41-1-1.23-1H354.84c-.82,0-1.23.34-1.23,1l-3.29,19.74q-.21,2.27-2.67,2.26H323.58q-2.67,0-2.06-2.67l30.23-139a2.46,2.46,0,0,1,2.67-2.26H382.2a2.47,2.47,0,0,1,2.67,2.26l30,139,.21.82q0,1.85-2.26,1.85H388.16Q385.69,219.81,385.49,217.55Zm-26.94-43.19h18.51c.68,0,1-.34.82-1l-9.67-56.15c-.14-.41-.34-.62-.62-.62s-.48.21-.62.62l-9.25,56.15C357.72,174,358,174.36,358.55,174.36Z" transform="translate(-34.11 -39.66)" fill="#f71700"/><circle cx="334.15" cy="47.54" r="2.1" fill="#f71700"/><path d="M533.25,219.09a2.37,2.37,0,0,1-.72-1.75v-139A2.46,2.46,0,0,1,535,75.84h24.06a2.46,2.46,0,0,1,2.47,2.47v51.83c0,.55.17.86.51.93s.58-.17.72-.72L589.3,77.69a3.17,3.17,0,0,1,2.88-1.85h25.5a2.26,2.26,0,0,1,2,.72,2.22,2.22,0,0,1-.1,2.16L589.09,138a5.58,5.58,0,0,0-.21,1.23l32.29,77.74a2.92,2.92,0,0,1,.21,1.23c0,1.1-.69,1.65-2.06,1.65H593.62a2.69,2.69,0,0,1-2.88-1.85l-21.39-53.88c-.14-.41-.34-.58-.62-.51a1.83,1.83,0,0,0-.82.51l-6,10.69a3.12,3.12,0,0,0-.41,1.23v41.34a2.46,2.46,0,0,1-2.47,2.47H535A2.37,2.37,0,0,1,533.25,219.09Z" transform="translate(-34.11 -39.66)" fill="#f71700"/><circle cx="513.4" cy="47.54" r="2.1" fill="#f71700"/><circle cx="567.28" cy="47.54" r="2.1" fill="#f71700"/><path d="M264.66,391.21a2.37,2.37,0,0,1-.72-1.75V336l-.21-1.23-28.79-83.7a2.28,2.28,0,0,1-.21-1c0-1.23.75-1.85,2.26-1.85h25.3a2.71,2.71,0,0,1,2.88,2.06l12.75,49.15c.13.41.34.62.62.62s.48-.21.62-.62l12.75-49.15a2.71,2.71,0,0,1,2.88-2.06h25.3a2.31,2.31,0,0,1,1.85.72,2.26,2.26,0,0,1,.21,2.16l-29,83.7-.21,1.23v53.47a2.46,2.46,0,0,1-2.47,2.47H266.41A2.37,2.37,0,0,1,264.66,391.21Z" transform="translate(-34.11 -39.66)" fill="#262525"/><circle cx="218.25" cy="219.26" r="2.1" fill="#f71700"/><circle cx="271.13" cy="219.26" r="2.1" fill="#f71700"/><path d="M340.86,402.68q-11.31-11.11-11.31-29.62V307.25q0-18.51,11.31-29.62t30.23-11.11q18.92,0,30.34,11.11t11.41,29.62v65.81q0,18.51-11.41,29.62t-30.34,11.11Q352.17,413.78,340.86,402.68Zm39.49-17.79q3.5-4,3.5-10.59V306q0-6.58-3.5-10.59a11.68,11.68,0,0,0-9.25-4,11.37,11.37,0,0,0-9.15,4q-3.39,4-3.39,10.59v68.28q0,6.59,3.39,10.59a11.37,11.37,0,0,0,9.15,4A11.68,11.68,0,0,0,380.35,384.89Z" transform="translate(-34.11 -39.66)" fill="#262525"/><path d="M439.48,382.16q-11.21-11.62-11.21-31V250.64a2.46,2.46,0,0,1,2.47-2.47H454.8a2.46,2.46,0,0,1,2.47,2.47V354.09q0,6.58,3.29,10.69a10.52,10.52,0,0,0,8.64,4.11,10.25,10.25,0,0,0,8.54-4.11q3.19-4.11,3.19-10.69V250.64a2.46,2.46,0,0,1,2.47-2.47h24.06a2.46,2.46,0,0,1,2.47,2.47V351.21q0,19.33-11.21,31t-29.51,11.62Q450.68,393.78,439.48,382.16Z" transform="translate(-34.11 -39.66)" fill="#262525"/><circle cx="337.09" cy="238.03" r="2.1" fill="#262525"/><path d="M55.8,463.39c204.5-.61,433.9-.62,638.4,0-204.5.62-433.9.61-638.4,0Z" transform="translate(-34.11 -39.66)" fill="#263238"/><path d="M386.6,463.25c2.56.86,77.89.65,80.68-1.14.33-.18,1-25.12,1-25.12-.1-.35,1.11-2.78,3-6.16,5.16-9.49,15.27-26.5,15.27-26.5l-45-12.51L424,429l-4.47,9.49s-10.17,4.24-19,8.45c0,0,0,0,0,0-5.46,2.58-10.21,4.93-11.31,5.8C386.31,455,384,462.41,386.6,463.25Z" transform="translate(-34.11 -39.66)" fill="#262525"/><path d="M386.6,463.25c2.56.86,77.89.65,80.68-1.14.33-.18,1-25.12,1-25.12-.1-.35,1.11-2.78,3-6.16L424,429l-4.47,9.49s-10.17,4.24-19,8.45c0,0,0,0,0,0-5.46,2.58-10.21,4.93-11.31,5.8C386.31,455,384,462.41,386.6,463.25Z" transform="translate(-34.11 -39.66)" fill="#262525"/><path d="M386.29,463.53c2.64.87,78.06.46,80.92-1.37,1.09-.69,2.16-12.32,1.06-25.18l-48.62.32s-27.87,13.07-30.8,15.42S383.65,462.67,386.29,463.53Z" transform="translate(-34.11 -39.66)" fill="#262525"/><path d="M467.21,462.16c-1,.67-11.75,1.15-25.06,1.45L467.08,437h1.19C469.37,449.84,468.3,461.48,467.21,462.16Z" transform="translate(-34.11 -39.66)" fill="#262525" opacity="0.1"/><path d="M387.35,460.51c12.64-.38,63.66-.71,76.18-.12.1,0,.1.07,0,.08-12.52.65-63.54.57-76.18.25C387.09,460.71,387.08,460.52,387.35,460.51Z" transform="translate(-34.11 -39.66)" fill="#262525"/><path d="M393.69,450a10.16,10.16,0,0,1,7.58,3,9.84,9.84,0,0,1,2.86,6.73c0,.08-.14.08-.15,0a11.74,11.74,0,0,0-10.29-9.62A.08.08,0,0,1,393.69,450Z" transform="translate(-34.11 -39.66)" fill="#262525"/><path d="M415.69,438.6c5.06-.1,10.94,1.66,14.1,5.78.12.16-.11.33-.26.25a70,70,0,0,0-13.93-5.41A.32.32,0,0,1,415.69,438.6Z" transform="translate(-34.11 -39.66)" fill="#262525"/><path d="M411.79,440.14c5.06-.1,10.94,1.66,14.1,5.78.12.16-.11.33-.26.25a69.92,69.92,0,0,0-13.93-5.41A.32.32,0,0,1,411.79,440.14Z" transform="translate(-34.11 -39.66)" fill="#262525"/><path d="M407.89,441.68c5.06-.1,10.94,1.66,14.1,5.78.12.16-.11.33-.26.26a69.93,69.93,0,0,0-13.93-5.41A.32.32,0,0,1,407.89,441.68Z" transform="translate(-34.11 -39.66)" fill="#262525"/><path d="M404,443.23c5.06-.1,10.94,1.66,14.1,5.78.12.16-.11.33-.26.25a70,70,0,0,0-13.93-5.41A.32.32,0,0,1,404,443.23Z" transform="translate(-34.11 -39.66)" fill="#262525"/><path d="M460.25,448.4c5.68,0,5.71,8.81,0,8.82S454.56,448.41,460.25,448.4Z" transform="translate(-34.11 -39.66)" fill="#262525"/><path d="M410.59,432.54c2.75,3.51,6.92,5.7,10.54,8.18a.62.62,0,0,0,.91-.41.13.13,0,0,0,.16-.15,26.55,26.55,0,0,0-4.67-12.91c-1.59-2.2-4.83-4.26-7.38-2.12S409,430.49,410.59,432.54Zm-.26-4.19c.47-5.51,5.46-1.31,6.57.36a28.63,28.63,0,0,1,1.87,3.4,79.47,79.47,0,0,1,2.89,7.48c-1.7-1.32-3.5-2.49-5.25-3.75C414.33,434.34,410.07,431.38,410.33,428.35Z" transform="translate(-34.11 -39.66)" fill="#262525"/><path d="M440.14,436.83c-.41-3.3-4.19-4-6.85-3.47a26.55,26.55,0,0,0-12.21,6.29.13.13,0,0,0,0,.21.62.62,0,0,0,.38.92c4.33.65,8.88,1.88,13.29,1.18C437.34,441.55,440.54,440,440.14,436.83Zm-11.89,3.59c-2.14-.27-4.25-.64-6.4-.83a79.52,79.52,0,0,1,7.21-3.52,28.59,28.59,0,0,1,3.68-1.22c1.95-.47,8.46-.15,5.06,4.21C435.94,441.47,430.81,440.74,428.26,440.43Z" transform="translate(-34.11 -39.66)" fill="#262525"/><path d="M474.61,430.27l-53.19-6.84s24.34-51.36,39.49-79.27c8.43-15.52,32.4-16.81,44.48,1.29,16.14,24.18,28.75,46.89,36,59.47l12,.76-2.15,19.7-39.76,9.85c-15.27,2.18-26.62-24.83-26.86-24.37C482.78,414.48,474.61,430.27,474.61,430.27Z" transform="translate(-34.11 -39.66)" fill="#37474f"/><path d="M484.36,411c1.44-3.12,2.54-6.42,3.81-9.62s2.46-6.18,3.68-9.27c2.46-6.25,5-12.48,7.4-18.76,1.34-3.53,2.56-7.09,3.8-10.65a.07.07,0,0,1,.14,0q-1.42,5-3,10c.28-.58.57-1.15.86-1.72.82-1.54,1.66-3.06,2.51-4.59,0-.06.12,0,.09.05-.78,1.53-1.56,3.05-2.37,4.57-.4.75-.85,1.5-1.27,2.25a233.13,233.13,0,0,1-10.38,27.41c-1.61,3.5-3.51,6.85-5.12,10.34C484.47,411.19,484.31,411.09,484.36,411Z" transform="translate(-34.11 -39.66)" fill="#263238"/><path d="M473.21,420.87c2.47-4,8.28-16.07,10.37-20.25,4.22-8.45,8.07-17.06,11.69-25.77,2-4.93,4-9.89,5.84-14.88,0,0,.07,0,.05,0a280.35,280.35,0,0,1-9.87,26.42c-3.69,8.66-15.71,32-17.92,34.57C473.29,421.06,473.15,421,473.21,420.87Z" transform="translate(-34.11 -39.66)" fill="#263238"/><path d="M504.91,366.47c4.75,8.05,9.6,16,14.37,24.09q3.62,6.1,7.21,12.21c1.12,1.92,2.21,3.86,3.38,5.76a11,11,0,0,0,4.29,4.25,32.69,32.69,0,0,0,6.7,2.17c2.6.7,5.17,1.45,7.78,2.1a.09.09,0,0,1-.05.18c-2.32-.57-4.67-1-7-1.56a60.89,60.89,0,0,1-6.36-1.56,10.26,10.26,0,0,1-4.76-3.13,37.72,37.72,0,0,1-3.4-5.4q-7.16-12.41-14.19-24.9c-2.67-4.73-5.31-9.47-8-14.19A0,0,0,0,1,504.91,366.47Z" transform="translate(-34.11 -39.66)" fill="#263238"/><path d="M475.64,422.8c-3.19-.51-6.45-.71-9.66-1l-9.66-1c-6.42-.69-28.31-3.68-30-4.18-.1,0-.07-.2,0-.21,1.56-.08,15.88,1.5,19.1,1.9,6.43.8,12.82,1.79,19.22,2.72,1.83.27,3.65.57,5.48.85s3.65.63,5.49.83C475.78,422.64,475.76,422.82,475.64,422.8Z" transform="translate(-34.11 -39.66)" fill="#263238"/><path d="M443.21,473.32c.9-2.55,47.61-61.64,50.73-62.73.36-.14,20.37,14.74,20.37,14.74.82,1.14,39.6-6.21,39.6-6.21l-.59,46.59-70.31-3s-9.62,5.39-18.4,9.75h0c-5.41,2.71-10.19,5-11.55,5.31C449.49,478.63,442.29,475.86,443.21,473.32Z" transform="translate(-34.11 -39.66)" fill="#262525"/><path d="M453,477.8c1.36-.32,6.14-2.6,11.55-5.31,0,0,0,0,0,0,8.78-4.37,18.4-9.76,18.4-9.76l15.65.66,25.34-39c-5.4.84-9.42,1.33-9.68,1,0,0-20-14.88-20.37-14.73-3.13,1.09-49.83,60.18-50.74,62.73S449.49,478.63,453,477.8Z" transform="translate(-34.11 -39.66)" fill="#262525"/><path d="M442.8,473.39c.95-2.61,47.86-61.67,51.07-62.79,1.22-.43,11,5.92,20.45,14.72l-30.29,38s-27.5,13.84-31.15,14.69S441.85,476,442.8,473.39Z" transform="translate(-34.11 -39.66)" fill="#262525"/><path d="M445.83,474.42c8.11-9.71,39.89-49.62,47.16-59.83.06-.08,0-.13-.06,0-8.24,9.44-39.7,49.61-47.26,59.75C445.51,474.51,445.66,474.63,445.83,474.42Z" transform="translate(-34.11 -39.66)" fill="#262525"/><path d="M458,475.94a10.15,10.15,0,0,0,2.29-7.84,9.84,9.84,0,0,0-3.53-6.41c-.06,0-.15.06-.09.12a11.74,11.74,0,0,1,1.21,14A.08.08,0,0,0,458,475.94Z" transform="translate(-34.11 -39.66)" fill="#262525"/><path d="M480.57,465.68c3.2-3.92,5.45-9.62,4.17-14.66,0-.2-.33-.12-.36,0a70,70,0,0,1-4.35,14.3A.32.32,0,0,0,480.57,465.68Z" transform="translate(-34.11 -39.66)" fill="#262525"/><path d="M476.95,467.79c3.2-3.92,5.45-9.62,4.17-14.66,0-.2-.33-.12-.36,0a70,70,0,0,1-4.35,14.3A.32.32,0,0,0,476.95,467.79Z" transform="translate(-34.11 -39.66)" fill="#262525"/><path d="M473.33,469.9c3.2-3.92,5.45-9.62,4.17-14.66,0-.2-.33-.12-.36,0a69.93,69.93,0,0,1-4.35,14.3A.32.32,0,0,0,473.33,469.9Z" transform="translate(-34.11 -39.66)" fill="#262525"/><path d="M469.7,472c3.2-3.92,5.45-9.62,4.17-14.66,0-.2-.33-.12-.36,0a69.93,69.93,0,0,1-4.35,14.3A.32.32,0,0,0,469.7,472Z" transform="translate(-34.11 -39.66)" fill="#262525"/><path d="M500.39,424.58c3.52-4.46-3.4-9.93-6.92-5.47S496.87,429,500.39,424.58Z" transform="translate(-34.11 -39.66)" fill="#262525"/><path d="M487.74,478.36c3.26-.68,3.64-4.5,2.89-7.11a26.56,26.56,0,0,0-7.27-11.65.13.13,0,0,0-.21,0,.62.62,0,0,0-.89.46c-.29,4.37-1.14,9-.08,13.34C482.8,476,484.66,479,487.74,478.36Zm-4.56-11.55c.09-2.15.29-4.29.3-6.44a79.59,79.59,0,0,1,4.1,6.9,28.62,28.62,0,0,1,1.52,3.57c.63,1.9.85,8.42-3.78,5.39C482.77,474.55,483.07,469.38,483.18,466.81Z" transform="translate(-34.11 -39.66)" fill="#262525"/><path d="M489.71,448.59c-3.27,3-5.11,7.37-7.28,11.18a.62.62,0,0,0,.49.87.13.13,0,0,0,.16.14,26.55,26.55,0,0,0,12.49-5.71c2.06-1.77,3.84-5.16,1.5-7.53S491.62,446.82,489.71,448.59Zm4.15-.6c5.53,0,1.75,5.34.18,6.58a28.54,28.54,0,0,1-3.24,2.14,79.6,79.6,0,0,1-7.22,3.5c1.18-1.81,2.19-3.69,3.3-5.54C488.22,452.47,490.82,448,493.87,448Z" transform="translate(-34.11 -39.66)" fill="#262525"/><path d="M531,407.86s60-9.44,79.85-4.57c27.65,6.78,31.54,39.73,10.66,52.77-26.46,16.52-119.69,9.74-119.69,9.74l25-44.35s38.81-8.14,73.8-6.11l-70.29,10.31Z" transform="translate(-34.11 -39.66)" fill="#37474f"/><path d="M525.1,424.44a1.14,1.14,0,0,0,.06-.24l0-.19.12-.45c.09-.31.2-.61.31-.91s.24-.59.37-.88a7.12,7.12,0,0,1,.49-.82s0,0,.07-.05l0,0,.06,0,.06,0c4.27-.78,33.22-4.72,37.52-5.17s8.69-.81,13-1.12a235,235,0,0,1,26.07-.49c.81,0,1.63.09,2.44.13.17-.06.36-.09.54-.13.42-.1.84-.21,1.26-.29.79-.15,1.58-.26,2.37-.38,1.65-.24,3.3-.4,4.94-.7.1,0,.14.15,0,.17-1.65.37-3.28.86-4.93,1.22l-1.43.3c3.18.25,6.36.59,9.53,1,.1,0,.1.18,0,.17-4.32-.37-8.68-.5-13-.51s-8.61,0-12.91.18c-8.7.37-17.4,1-26.08,1.86-4.87.46-34.39,4.57-39.28,4.69h-.06a3.28,3.28,0,0,1-.14.36c-.14.29-.28.57-.43.86s-.29.54-.45.8l-.25.38-.13.19a1,1,0,0,0-.13.2C525.2,424.63,525,424.55,525.1,424.44Z" transform="translate(-34.11 -39.66)" fill="#263238"/><path d="M515.13,462.78c1.48-2.55,2.75-5.28,4.11-7.92l4.09-7.93c2.73-5.27,12.49-23,13.45-24.2.06-.08.18,0,.15.11-.47,1.38-6.58,13.1-8,15.72-2.81,5.23-5.75,10.35-8.66,15.51-.83,1.47-1.69,2.93-2.53,4.39s-1.73,2.9-2.51,4.41C515.21,463,515.08,462.87,515.13,462.78Z" transform="translate(-34.11 -39.66)" fill="#263238"/><path d="M538.47,427.5c2.58-.62,5.21-1,7.81-1.49l7.82-1.45q7.83-1.43,15.67-2.72c10.43-1.71,20.9-3.09,31.42-4,5.94-.5,11.88-.79,17.82-1.14.13,0,.12.21,0,.22A297,297,0,0,0,587.34,420q-15.6,2.13-31.13,4.71l-8.77,1.46c-3,.5-5.94,1.14-8.93,1.49C538.4,427.7,538.35,427.52,538.47,427.5Z" transform="translate(-34.11 -39.66)" fill="#263238"/><path d="M560.95,302.45s-2.7-5.28-6.81-5.25-4.85,3-7.37,3.21-7.71-1.12-10.54,1.47-2.28,8.48-3.61,10.1-5.35,1.5-6.58,5.73c-1.42,4.92,1.08,8.17.77,10.75-.51,4.29-3.36,7.54-1.65,12.77,1.84,5.63,6,5.9,8.54,7.92s2.6,7.71,8.38,8.64,7.6-3.16,11.11-4.37,8.22,1.87,12.06-.62,3-6.67,4.12-8.71,4.09-1.85,5.49-5.51-1.27-7.31-1.39-8.81c-.21-2.56,1.39-3.79,1.11-7.43s-3.9-6.51-4.58-7.67c-1.62-2.8.55-8.14-2.2-10.82C564.31,300.45,560.95,302.45,560.95,302.45Z" transform="translate(-34.11 -39.66)" fill="#263238"/><path d="M534.49,304.8c-.46,2.5-.57,5.61-3.08,7-4,1.71-7,4.76-6.41,9.4a25.08,25.08,0,0,0,1.32,4.87,6,6,0,0,1,.3,2.74,23.79,23.79,0,0,1-.86,2.5,20,20,0,0,0-1.25,4.91,10.09,10.09,0,0,0,.65,5,9.7,9.7,0,0,1-1.12-5c.06-2.57,1.08-5.11,1.73-7.52.13-2.51-1.59-4.75-1.75-7.36a8.72,8.72,0,0,1,4.75-9c.78-.42,1.61-.73,2.35-1.08,2.38-1.21,2.61-4.12,3.37-6.45Z" transform="translate(-34.11 -39.66)" fill="#263238"/><path d="M562.08,353.78c4.8-.5,6.43-2.11,7.09-6.89a7.09,7.09,0,0,1,.77-2.45c1.15-1.34,3-2,4-3.42a7.83,7.83,0,0,0,1-6.92c-.33-1.21-.84-2.39-1.26-3.59a33.58,33.58,0,0,1,1.72,3.43,8.14,8.14,0,0,1-.71,7.66,13.12,13.12,0,0,1-3,2.59c-.51.38-1,.69-1.13,1.14-1.32,5.42-1.87,8.74-8.49,8.46Z" transform="translate(-34.11 -39.66)" fill="#263238"/><path d="M542.11,354.58c-16.71,16.24-36.43,33.08-46,32-7.46-.83-24.26-8.62-39.73-21.11-2.94-2.38,18.81-22.69,21.1-21.34,6.09,3.61,23.11,15.15,24.31,14.64,1.58-.67,20.56-10,33.43-15.66C552.55,335.51,550.75,346.18,542.11,354.58Z" transform="translate(-34.11 -39.66)" fill="#ad6359"/><path d="M460.27,368.59c-2.94-1.29-15.91-8.4-19.08-11.18s-11.7-11.46-9.81-14.1S436,343,436,343s-3-4.23-.88-6.72,6.22,1.29,6.22,1.29-2.79-4.57-.47-6.9,5.78,2.16,5.78,2.16-2.74-4.06,0-5.18c3.26-1.34,7.47,6.72,11.2,9.53.85.64,18.07,11.72,18.07,11.72Z" transform="translate(-34.11 -39.66)" fill="#ad6359"/><path d="M446.32,332.46c3.11,5.92,5.5,8,11.2,11.27.11.06,0,.24-.08.19-5.88-2.72-9.24-4.86-11.41-11.32C445.91,332.28,446.17,332.18,446.32,332.46Z" transform="translate(-34.11 -39.66)" fill="#263238"/><path d="M441.07,337.11c3.77,5.87,6.33,8.12,12.05,12,.08.06,0,.2-.09.15-5.93-3.35-9.23-5.56-12.23-11.92C440.67,337.06,440.9,336.84,441.07,337.11Z" transform="translate(-34.11 -39.66)" fill="#263238"/><path d="M436.27,343.2c4.06,5.42,6.77,8,12.8,11.07a.12.12,0,0,1-.1.23c-6.46-2.53-9.86-5.73-12.85-11.16C435.91,343,436,342.86,436.27,343.2Z" transform="translate(-34.11 -39.66)" fill="#263238"/><path d="M480.44,349.12s-3.22-7.74-5.39-10.82-14.47-11.61-16.46-9.06c-2.57,3.3,3.56,9.62,7,12.32,0,0-6,7.62-2.54,13.11S480.44,349.12,480.44,349.12Z" transform="translate(-34.11 -39.66)" fill="#ad6359"/><path d="M458.17,330.37c-.18,4.7,4.53,8,7.64,10.83a.39.39,0,0,1-.06.63c-2.28,3.36-4.53,8.77-3,12.77a.1.1,0,0,1-.18.09c-2.23-4.07-.46-9.56,2.28-13.08-3.24-2.89-7.81-6.37-6.73-11.24A0,0,0,0,1,458.17,330.37Z" transform="translate(-34.11 -39.66)" fill="#263238"/><path d="M482.8,346.43l-21.9,25.42s26.59,16.5,36.91,15.69,34.4-20.43,46.1-34.31c12-14.2.86-15.19-8.24-10.68s-33.3,15.46-34,15.43S482.8,346.43,482.8,346.43Z" transform="translate(-34.11 -39.66)" fill="#dbdbdb"/><path d="M478.63,362.28q2.19-2.64,4.41-5.27c1.47-1.74,2.9-3.56,4.49-5.19.07-.07.21,0,.15.1-1.23,1.82-2.67,3.54-4,5.27s-2.9,3.67-4.36,5.5c-2.89,3.61-5.91,7.1-9,10.56-.08.09-.19,0-.12-.11C472.91,369.46,475.7,365.82,478.63,362.28Z" transform="translate(-34.11 -39.66)" fill="#263238"/><path d="M543.91,353.23c-11.7,13.88-35.77,33.49-46.1,34.31-5.08.4-14.1-3.4-21.95-7.35l69.37-40C549.79,340.53,551.49,344.22,543.91,353.23Z" transform="translate(-34.11 -39.66)" opacity="0.1"/><path d="M517.52,383.28l-5.46,18.27s2.35.31,10.11,1.27l.71.08,50.64,5.38S564.31,359,556.21,348c-6.43-8.79-15.11-9.17-21.22-4.22-1.55,1.25-16.84,19-20,27C513.18,375.38,517.52,383.28,517.52,383.28Z" transform="translate(-34.11 -39.66)" fill="#dbdbdb"/><path d="M533.62,381.58a37.44,37.44,0,0,0-6.82.25c-1.13.16-2.26.39-3.38.65-.56.13-1.12.23-1.69.33a6,6,0,0,1-1.77.11c-.05,0-.07.09,0,.1a7.88,7.88,0,0,0,3.26.13c1.15-.15,2.3-.37,3.45-.54,2.32-.34,4.63-.67,7-.8C533.71,381.81,533.72,381.58,533.62,381.58Z" transform="translate(-34.11 -39.66)" fill="#263238"/><path d="M538.68,385a39.58,39.58,0,0,0-5.45-1.26,26.42,26.42,0,0,0-2.78-.26l-1.34,0c-.49,0-1,.07-1.48.06-.05,0-.07.1,0,.1.46,0,.92.15,1.37.22l1.38.19c.92.13,1.84.27,2.76.38,1.85.23,3.69.48,5.52.8C538.75,385.17,538.77,385,538.68,385Z" transform="translate(-34.11 -39.66)" fill="#263238"/><path d="M548.8,343.44c-.4,1.06-6.58,7.47-11.55,6.57-1.62-.3-.4-9.21-.4-9.21l-.06-.68-.83-9.5,11.76-5.51,1.69-.71s.06,2.61.09,5.87c0,.15,0,.3,0,.46s0,.36,0,.53c0,.49,0,1,0,1.48s0,.74,0,1.14,0,.78,0,1.18A61.41,61.41,0,0,1,548.8,343.44Z" transform="translate(-34.11 -39.66)" fill="#ad6359"/><path d="M549.5,330.27a19.13,19.13,0,0,1-12.71,9.85l-.83-9.5,11.76-5.51,1.69-.71S549.47,327,549.5,330.27Z" transform="translate(-34.11 -39.66)" fill="#263238"/><path d="M529.52,309.86c-9,14.08-1.63,21.09,1.41,23,2.76,1.77,12.37,7.44,22.83-5.64s6.76-21.73.67-26.1S538.57,295.78,529.52,309.86Z" transform="translate(-34.11 -39.66)" fill="#ad6359"/><path d="M533.32,308.79a11.05,11.05,0,0,0,1.09.41,1.89,1.89,0,0,0,1.2.21.6.6,0,0,0,.39-.62,1.49,1.49,0,0,0-1.05-1.08,2.19,2.19,0,0,0-1.58-.09A.64.64,0,0,0,533.32,308.79Z" transform="translate(-34.11 -39.66)" fill="#263238"/><path d="M543.24,314.74a11.12,11.12,0,0,1-.83-.82,1.89,1.89,0,0,1-.69-1,.6.6,0,0,1,.4-.62,1.49,1.49,0,0,1,1.43.5,2.19,2.19,0,0,1,.74,1.39A.64.64,0,0,1,543.24,314.74Z" transform="translate(-34.11 -39.66)" fill="#263238"/><path d="M539.41,316.18s0,.1,0,.13c-.7.91-1.35,2.08-.73,3,0,0,0,.07,0,0C537.72,318.48,538.6,316.94,539.41,316.18Z" transform="translate(-34.11 -39.66)" fill="#263238"/><path d="M540.95,315.81c1.59,1-.46,4.07-1.93,3.18S539.62,315,540.95,315.81Z" transform="translate(-34.11 -39.66)" fill="#263238"/><path d="M541.45,316.37c.16.35.22.84.52,1.09a1.38,1.38,0,0,0,1.31,0s.06,0,0,.07a1.36,1.36,0,0,1-1.71.73,1.38,1.38,0,0,1-.46-1.8C541.18,316.33,541.39,316.23,541.45,316.37Z" transform="translate(-34.11 -39.66)" fill="#263238"/><path d="M534.06,312.1s-.11,0-.13,0c-.56,1-1.38,2.06-2.47,1.85,0,0-.06,0,0,.06C532.62,314.56,533.69,313.14,534.06,312.1Z" transform="translate(-34.11 -39.66)" fill="#263238"/><path d="M533.81,310.54c-1.51-1.08-3.56,2-2.16,3S535.07,311.45,533.81,310.54Z" transform="translate(-34.11 -39.66)" fill="#263238"/><path d="M533,310.32c-.35,0-.79.14-1.1,0s-.38-.7-.39-1.17c0,0,0,0-.07,0-.41.58-.62,1.33-.12,1.82s1.17.19,1.7-.31C533.14,310.54,533.17,310.32,533,310.32Z" transform="translate(-34.11 -39.66)" fill="#263238"/><path d="M533.9,324.14a1.75,1.75,0,0,1-1.18.12,3,3,0,0,1-.94-.85,0,0,0,0,0-.07,0,1.55,1.55,0,0,0,1,1.26,1.23,1.23,0,0,0,1.29-.45S534,324.13,533.9,324.14Z" transform="translate(-34.11 -39.66)" fill="#263238"/><path d="M532.06,318.05s-1.12,1.33-1.55,2c0,.06.11.2.33.36,0,0,0,0,0,0a3.86,3.86,0,0,0,3.94.78.08.08,0,0,0,0-.16,5.81,5.81,0,0,1-3.52-1c.07-.22,2-2.21,1.89-2.29a7.07,7.07,0,0,0-1.78-.63c2.25-2.83,4.94-5.28,7.14-8.14.08-.1-.06-.23-.15-.16a58.56,58.56,0,0,0-8.06,8.44C530,317.62,531.71,318,532.06,318.05Z" transform="translate(-34.11 -39.66)" fill="#263238"/><path d="M531.06,320.22a4.67,4.67,0,0,0,.67,2.27,2.1,2.1,0,0,0,1,.81c.89.34,1.4-.33,1.69-1a5,5,0,0,0,.31-1.14A6,6,0,0,1,531.06,320.22Z" transform="translate(-34.11 -39.66)" fill="#263238"/><path d="M531.74,322.48a2.1,2.1,0,0,0,1,.81c.89.34,1.4-.33,1.69-1A2.17,2.17,0,0,0,531.74,322.48Z" transform="translate(-34.11 -39.66)" fill="#ff9cbd"/><path d="M551.84,327.49c-2.91-1.18-.13-7.79-.13-7.79s-10.48-8.44-6.19-18.42a18.28,18.28,0,0,1-12.93,4.23s6.19-10.11,15.5-7.54c0,0,12.24,2,13.45,13.25S553.79,328.28,551.84,327.49Z" transform="translate(-34.11 -39.66)" fill="#263238"/><path d="M545.87,300.56a11.75,11.75,0,0,0-1.89,4.59,12.24,12.24,0,0,0,.06,5,10.42,10.42,0,0,0,.34,1.22l.19.6c.08.2.17.39.26.58.18.38.35.77.54,1.14s.45.71.68,1.06c.12.17.22.35.35.52l.4.48.8,1c.59.59,1.21,1.14,1.83,1.68-.5-.66-1.06-1.26-1.55-1.92l-.7-1-.35-.5c-.1-.17-.19-.36-.29-.53-.19-.36-.38-.71-.58-1.06s-.31-.74-.47-1.11l-.23-.55-.17-.58a10.08,10.08,0,0,1-.31-1.16,14,14,0,0,1-.22-4.78,14.59,14.59,0,0,1,.48-2.38A14.19,14.19,0,0,1,545.87,300.56Z" transform="translate(-34.11 -39.66)" fill="#263238"/><path d="M550.2,325.8s5.67-2.92,7.16-.67-4.47,7.68-7.41,7.3a2.83,2.83,0,0,1-2.65-3.11Z" transform="translate(-34.11 -39.66)" fill="#ad6359"/><path d="M555.61,326.65a0,0,0,0,1,0,.07c-2.09-.21-3.85.91-5.36,2.24a1.56,1.56,0,0,1,2.27.71c0,.06-.05.1-.1.07a1.74,1.74,0,0,0-2-.35,8.38,8.38,0,0,0-1.53.94c-.16.11-.4-.12-.25-.26l0,0C549.79,327.8,553.13,325.62,555.61,326.65Z" transform="translate(-34.11 -39.66)" fill="#263238"/><path d="M536.51,342.58s-12.47,17-12.23,18.06,10.09,2.78,11.41,2.37,13.12-19.56,13.12-19.56Z" transform="translate(-34.11 -39.66)" fill="#ad6359"/><path d="M437.3,378.15Q427.61,365.23,430,346l12.45-99.8a2.46,2.46,0,0,1,2.75-2.14l23.88,3a2.46,2.46,0,0,1,2.14,2.75L458.43,352.5q-.82,6.53,1.94,11a10.52,10.52,0,0,0,8.06,5.15,10.25,10.25,0,0,0,9-3q3.67-3.69,4.49-10.22L494.7,252.77a2.46,2.46,0,0,1,2.75-2.14l23.88,3a2.46,2.46,0,0,1,2.14,2.75L511,356.16q-2.39,19.19-15,29.33t-30.72,7.88Q447,391.07,437.3,378.15Z" transform="translate(-34.11 -39.66)" fill="#262525"/><path d="M548.14,361.19c-19.41,1.59-49.31-1.33-55.06-5.23-5.1-3.46-10.81-28.47-12.54-39.25-.65-4,27.28-10.3,27.89-6,.73,5.19,3.29,24.91,4.48,25.6s22.9,7.72,37.26,13.43C563.19,354.93,555.48,360.59,548.14,361.19Z" transform="translate(-34.11 -39.66)" fill="#ad6359"/><path d="M499.8,296.88c1.05,1.44,1.82.89,1.92-2.27s-2.16-15.8,2.32-16.22,7.41,17.45,6.83,22.71-3.37,13.57-3.37,13.57C506.23,311.31,502.37,303.44,499.8,296.88Z" transform="translate(-34.11 -39.66)" fill="#ad6359"/><path d="M482.15,321.62c-3.53-9.73-8.12-21.74-5.76-32.92a5.66,5.66,0,0,1,1.83-3.22c1-5,3.63-6.09,3.63-6.09,2.34-4.41,5.21-5.11,5.21-5.11s1.2-5.9,4.88-5.76c4.13.14,1.64,8.39,3,13.77,3.22,12.32,11.23,28.93,12.51,32.39Z" transform="translate(-34.11 -39.66)" fill="#ad6359"/><path d="M489.28,297.56a81.91,81.91,0,0,1-2.2-10.95,82.2,82.2,0,0,1,.07-12.23.1.1,0,0,0-.2,0,43.29,43.29,0,0,0,2.16,23.24C489.18,297.77,489.33,297.74,489.28,297.56Z" transform="translate(-34.11 -39.66)" fill="#263238"/><path d="M482.13,300.58c-.65-3.59-1.76-9.92-.16-21.18,0,0-.06-.06-.07,0a38.85,38.85,0,0,0,.05,21.23C482,300.83,482.17,300.82,482.13,300.58Z" transform="translate(-34.11 -39.66)" fill="#263238"/><path d="M478.25,302.13c-.88-6.15-.65-10.14,0-16.63,0,0-.06-.05-.07,0-1.5,7.3-1.22,10.11-.12,16.7C478.08,302.42,478.29,302.37,478.25,302.13Z" transform="translate(-34.11 -39.66)" fill="#263238"/><path d="M478,321.29l32-5.68,4.3,19.53c10.74,4.43,31.45,11.71,38.8,15.45,8.63,4.39,5.5,10-4.29,11.21-22.4,2.66-53.18-1.71-57.82-4.91C484.3,352.32,478,321.29,478,321.29Z" transform="translate(-34.11 -39.66)" fill="#dbdbdb"/><path d="M482.52,328.26c2.32,0,11.8-1.54,14.16-1.95s9-2.24,11.44-2.67c.13,0,.14-.22,0-.2-2.4.39-23.39,3.92-25.61,4.69A.06.06,0,0,0,482.52,328.26Z" transform="translate(-34.11 -39.66)" fill="#263238"/><path d="M484.49,344.63a64.63,64.63,0,0,0,3.18,7.38c1.1,1.95,2.17,4.24,4.36,5.07,5.29,1.94,11,2.5,16.64,3.18,5.32.6,10.67,1,16,1.43,4.69.38,11.32.77,16.06,1.1-5.37.08-10.74-.08-16.11-.31a200.63,200.63,0,0,1-24.07-2.39,37.79,37.79,0,0,1-8.81-2.4c-2.31-1-3.44-3.38-4.47-5.49a55.63,55.63,0,0,1-2.8-7.56Z" transform="translate(-34.11 -39.66)" fill="#263238"/><path d="M535.2,362.73a35.92,35.92,0,0,1,3.59.73,8.25,8.25,0,0,1-3.59-.73Z" transform="translate(-34.11 -39.66)" fill="#263238"/><path d="M545.47,347.41c-8.37-3.1-16.82-6-25.13-9.25-1.1-.46-3.62-1.39-4.67-1.88-.55-.29-1.74-.58-1.87-1.34-1.62-6.33-2.75-12.88-3.86-19.32l0,0-.93.13.92-.2c.09-.06,3,13,3,13.07.41,1.73,1,4.71,1.54,6.26,9.44,4.27,21.49,8.27,30.92,12.49Z" transform="translate(-34.11 -39.66)" fill="#263238"/><path d="M544.66,346.23a36.19,36.19,0,0,1-3.66-.31,8.31,8.31,0,0,1,3.66.31Z" transform="translate(-34.11 -39.66)" fill="#263238"/><path d="M73.36,351.91,47.23,385.15c-5.34,7.06-9.89,13.34-11.94,16.81a.13.13,0,0,0,0,.06,6.18,6.18,0,0,0-1.13,2.57.26.26,0,0,0,0,.08c1,3,56.17,47.31,58.62,48.21s5.19-6,4.43-9.42-14.31-29.84-14.31-29.84l24.59-34.24Z" transform="translate(-34.11 -39.66)" fill="#262525"/><path d="M92.75,452.87c-2.44-.89-57.59-45.2-58.62-48.22,0,0,0,0,0-.07A6.21,6.21,0,0,1,35.25,402a.07.07,0,0,1,0-.05c2-3.47,6.6-9.76,11.94-16.81L50.5,381l35.6,28.1-3.24,4.52S96.38,440,97.17,443.45,95.19,453.78,92.75,452.87Z" transform="translate(-34.11 -39.66)" fill="#262525"/><path d="M92.74,452.87c-2.45-.9-57.59-45.2-58.62-48.22-.41-1.14,5.58-9.55,13.1-19.51l.24-.31L83.36,413l-.5.59s13.52,26.4,14.3,29.84S95.19,453.78,92.74,452.87Z" transform="translate(-34.11 -39.66)" fill="#262525"/><path d="M92.74,452.87c-2.45-.9-57.59-45.2-58.62-48.22-.41-1.14,5.58-9.55,13.1-19.51l.24-.31L83.36,413l-.5.59s13.52,26.4,14.3,29.84S95.19,453.78,92.74,452.87Z" transform="translate(-34.11 -39.66)" fill="#262525" opacity="0.3"/><path d="M93.84,450.23c-9.11-7.7-46.59-37.87-56.18-44.79-.08-.06-.12,0,0,.06,8.87,7.82,46.59,37.7,56.11,44.88C93.92,450.54,94,450.4,93.84,450.23Z" transform="translate(-34.11 -39.66)" fill="#262525"/><path d="M85.77,416.12c-3.11-3.62-8-6.65-12.92-6.29-.19,0-.17.28,0,.34a66,66,0,0,1,12.56,6.4A.3.3,0,0,0,85.77,416.12Z" transform="translate(-34.11 -39.66)" fill="#262525"/><path d="M87.13,419.83c-3.11-3.62-8-6.65-12.92-6.29-.19,0-.17.28,0,.34a66,66,0,0,1,12.56,6.4A.3.3,0,0,0,87.13,419.83Z" transform="translate(-34.11 -39.66)" fill="#262525"/><path d="M88.49,423.55c-3.11-3.62-8-6.65-12.92-6.29-.19,0-.17.28,0,.34A66,66,0,0,1,88.11,424,.3.3,0,0,0,88.49,423.55Z" transform="translate(-34.11 -39.66)" fill="#262525"/><path d="M47.18,383.06l37.08,29.81s64.48-78.64,66.54-88.63c2.35-11.37,8.89-100.38,8.74-104.82-.18-5.38-6.11-29-6.11-29H111.17s-5.91,116.41-7.14,120C102.7,314.29,47.18,383.06,47.18,383.06Z" transform="translate(-34.11 -39.66)" fill="#263238"/><path d="M87.59,404.05c-5.45-5.26-26.7-22.13-29.34-23.52-.06,0-.14.07-.1.12,1.92,2.28,20,17.13,29.3,23.57C87.55,404.29,87.67,404.14,87.59,404.05Z" transform="translate(-34.11 -39.66)" fill="#37474f"/><path d="M155.52,207.9a13.41,13.41,0,0,0-1.72-.4,10.3,10.3,0,0,1-1.78-.68,13.31,13.31,0,0,1-3.26-2.31,12.31,12.31,0,0,1-2.5-4c-.37-.85-2.09-5.38-2.11-5.42s-.18,0-.16.07c.12.63,1.3,4.54,1.65,5.52a12.82,12.82,0,0,0,2.61,4.68,10.4,10.4,0,0,0,3.61,2.43,7.79,7.79,0,0,0,1.94.52,3.11,3.11,0,0,0,1.77-.1C155.66,208.13,155.6,207.93,155.52,207.9Z" transform="translate(-34.11 -39.66)" fill="#37474f"/><path d="M118.14,192.46l-.89,23.38-1,23.37L114,286c-.42,7.79-.84,15.57-1.33,23.36-.05,1-.13,2-.23,3a1.28,1.28,0,0,1-.09.45,4,4,0,0,1-.19.38c-.13.23-.26.44-.39.65-.27.42-.55.82-.83,1.22-1.13,1.6-2.31,3.16-3.49,4.72-2.36,3.11-4.79,6.16-7.21,9.22q-7.29,9.15-14.69,18.21l-23,30.11,22.6-30.41c4.84-6.11,9.69-12.22,14.47-18.38q3.59-4.61,7.12-9.27c1.17-1.55,2.34-3.11,3.45-4.7.28-.4.55-.8.81-1.2s.56-.81.54-1.15c.08-.94.15-1.89.21-2.87.46-7.78.85-15.57,1.24-23.36l2.47-46.73,1.29-23.36Z" transform="translate(-34.11 -39.66)" fill="#37474f"/><path d="M151.65,318c-.31,2.87-.59,5-.84,6.2-1.16,5.61-27.53,41.14-43.35,60.63l-2.79-80.32c1.93-24.22,6.5-114.16,6.5-114.16h21.06Z" transform="translate(-34.11 -39.66)" fill="#37474f"/><path d="M126.46,398.49,134.64,440c1.87,8.65,3.67,16.2,5,20a.14.14,0,0,0,0,.06,6.18,6.18,0,0,0,1.22,2.53l.06,0c3,1.19,72.49-11.76,74.77-13s-1.16-7.85-4.26-9.5-32-8.6-32-8.6l-9.94-41Z" transform="translate(-34.11 -39.66)" fill="#262525"/><path d="M215.67,449.59c-2.27,1.27-71.82,14.22-74.77,13,0,0,0,0-.06,0a6.21,6.21,0,0,1-1.21-2.53.07.07,0,0,1,0-.06c-1.3-3.81-3.1-11.36-5-20,0,0-.4-2-1-5.2l44.51-8.69,1.32,5.41s28.83,7,32,8.6S217.95,448.33,215.67,449.59Z" transform="translate(-34.11 -39.66)" fill="#262525"/><path d="M215.67,449.59c-2.28,1.27-71.81,14.22-74.77,13-1.13-.43-3.61-10.46-6.26-22.65l-.08-.38,44.77-8.86.12.76s28.83,6.95,32,8.6S217.95,448.33,215.67,449.59Z" transform="translate(-34.11 -39.66)" fill="#262525"/><path d="M215.67,449.59c-2.28,1.27-71.81,14.22-74.77,13-1.13-.43-3.61-10.46-6.26-22.65l-.08-.38,44.77-8.86.12.76s28.83,6.95,32,8.6S217.95,448.33,215.67,449.59Z" transform="translate(-34.11 -39.66)" fill="#262525" opacity="0.3"/><path d="M214.38,447c-11.78,1.89-59.09,10.65-70.59,13.42-.09,0-.08.09,0,.07,11.71-1.62,59-10.76,70.61-13.3C214.66,447.18,214.63,447,214.38,447Z" transform="translate(-34.11 -39.66)" fill="#262525"/><path d="M183.25,430.93c-4.77,0-10.28,1.76-13.2,5.7-.11.15.11.31.25.24a66,66,0,0,1,13-5.35A.3.3,0,0,0,183.25,430.93Z" transform="translate(-34.11 -39.66)" fill="#262525"/><path d="M187,432.32c-4.77,0-10.28,1.76-13.2,5.7-.11.15.11.31.25.24a66,66,0,0,1,13-5.35A.3.3,0,0,0,187,432.32Z" transform="translate(-34.11 -39.66)" fill="#262525"/><path d="M190.65,433.7c-4.77,0-10.28,1.76-13.2,5.7-.11.15.11.31.25.24a66,66,0,0,1,13-5.35A.3.3,0,0,0,190.65,433.7Z" transform="translate(-34.11 -39.66)" fill="#262525"/><path d="M150.09,447.33c-2.39-5.21-10.49-1.5-8.1,3.72S152.48,452.55,150.09,447.33Z" transform="translate(-34.11 -39.66)" fill="#262525"/><path d="M145,190.4s-1.11,18.07-6.1,30.94c0,0-7.19,4.48-7.94,5.19l47.68,203.63-47.24,8.65s-18.78-104.31-20.24-110.71c-2.36-10.29-21-97.73-21.82-102.7-1.73-10.39,7.87-35,7.87-35Z" transform="translate(-34.11 -39.66)" fill="#263238"/><path d="M171.85,420.37c-12.07,1.81-35.16,6.7-38,7.88-.06,0,0,.15,0,.15,3.07,0,31.2-5.63,38-7.81C172,420.55,172,420.36,171.85,420.37Z" transform="translate(-34.11 -39.66)" fill="#37474f"/><path d="M102.62,207.9c.88-.19,1.82-.13,2.71-.25a21,21,0,0,0,2.79-.52,20.35,20.35,0,0,0,5-2,10.7,10.7,0,0,0,3.63-3.85c.51-.83,2.85-5.27,2.87-5.3s.28,0,.26.08c-.13.62-1.66,4.49-2.13,5.45A10.48,10.48,0,0,1,114,206a16.37,16.37,0,0,1-5.54,2.13,17.27,17.27,0,0,1-3,.35,7.92,7.92,0,0,1-2.83-.27C102.41,208.13,102.49,207.93,102.62,207.9Z" transform="translate(-34.11 -39.66)" fill="#37474f"/><path d="M140,220.85a73.14,73.14,0,0,0-11.57,5.26.13.13,0,0,0,.1.24c3.9-1.63,7.87-3.19,11.67-5A.25.25,0,0,0,140,220.85Z" transform="translate(-34.11 -39.66)" fill="#37474f"/><path d="M141.44,194.22c0-.13-.24-.17-.25,0a129.39,129.39,0,0,1-.77,13c-.2,2-1.91,13-5.37,12.2-.58-.14-.87-.71-1-1.59a13.92,13.92,0,0,1,.49-3.39c.41-2.31.74-4.63,1-7a63.43,63.43,0,0,0,0-13.08.11.11,0,0,0-.22,0,119.94,119.94,0,0,1-1.22,18c-.46,2.87-1.95,7.19,1.06,7.65s5.1-6.75,5.5-8.73A66.21,66.21,0,0,0,141.44,194.22Z" transform="translate(-34.11 -39.66)" fill="#37474f"/><path d="M135.15,219.66a18.66,18.66,0,0,0-.8,2.28,5.2,5.2,0,0,0-.34,1.88c0,.12.17.14.24.05a6.62,6.62,0,0,0,.82-1.82c.27-.71.56-1.41.81-2.12A.39.39,0,0,0,135.15,219.66Z" transform="translate(-34.11 -39.66)" fill="#37474f"/><path d="M100.81,190.4c-1.2,4.58-2.33,9.18-3.36,13.8s-2,9.26-2.58,13.94l-.16,1.76c0,.58,0,1.17-.05,1.75l.52,3.47,1.32,7L99.32,246l11.6,55.61,11.62,55.61,8.31,38.42,5.69,27.83-6.17-27.73-8.59-38.37-11.84-55.57c-3.84-18.55-7.71-37.08-11.38-55.67L95.87,232.2l-1.26-7-.49-3.56a29.79,29.79,0,0,1,.26-3.58c.66-4.71,1.73-9.33,2.83-13.94S99.54,195,100.81,190.4Z" transform="translate(-34.11 -39.66)" fill="#37474f"/><path d="M131.08,138.76c7.67,3.65,41.16,7.84,49.22,2.27s7.29-53.76,3.12-69.12c-1.47-5.4-22.76,4.94-25,9.47-1.94,3.89,1.22,40.07-.32,40.87-2.61,1.34-11,2.34-24.51,4.22C120.91,128.24,125.68,136.18,131.08,138.76Z" transform="translate(-34.11 -39.66)" fill="#eb9481"/><path d="M155.66,95.18l32-6s3.95,47.84-6.52,54.72c-3.33,2.19-29.92,1.57-48.47-3.34-6.55-1.73-15.89-11.85,2.6-14.78s21.86-4,22.19-4.42S155.66,95.18,155.66,95.18Z" transform="translate(-34.11 -39.66)" fill="#455a64"/><path d="M185.68,97.76c-2.31.17-4.61.68-6.89,1.08s-4.49.81-6.73,1.24c-4.52.86-9.09,1.62-13.55,2.77a.09.09,0,0,0,0,.17c4.62-.42,9.22-1.31,13.78-2.15q3.43-.63,6.85-1.36a60.31,60.31,0,0,0,6.56-1.58C185.83,97.9,185.78,97.76,185.68,97.76Z" transform="translate(-34.11 -39.66)" fill="#263238"/><path d="M151.88,144a136.91,136.91,0,0,1-19.19-3.43c-6.52-1.72-15.81-11.77,2.38-14.73Z" transform="translate(-34.11 -39.66)" opacity="0.1"/><path d="M158.78,205.06,90.23,206.5c-.84-1,13.13-58.46,28.74-78.83,3.63-4.74,13.94-4.55,17.57-1.63C146.93,134.39,159.58,204.16,158.78,205.06Z" transform="translate(-34.11 -39.66)" fill="#455a64"/><path d="M215.77,55.75a2.39,2.39,0,0,1,1.09,1.54l4.46,19.44a2.46,2.46,0,0,1-1.85,3l-25.06,5.75a.91.91,0,0,0-.77,1.23l25.86,112.65a2.46,2.46,0,0,1-1.85,3l-23.45,5.38a2.46,2.46,0,0,1-3-1.85L165.39,93.16a.91.91,0,0,0-1.23-.77L140.1,97.91a2.46,2.46,0,0,1-3-1.85l-4.46-19.44a2.46,2.46,0,0,1,1.85-3l79.38-18.22A2.39,2.39,0,0,1,215.77,55.75Z" transform="translate(-34.11 -39.66)" fill="#f71700"/><path d="M116.14,144.08c2.32,9.89,14.37,48.57,27.27,52.29,14.91,4.3,30.07,4,43.06,4.53,5.59.22-1.16-30.17-6.18-29.55-7.92,1-20.81-.06-23.71-.45s-19.74-19.72-29.14-30.35C119,131,114.77,138.25,116.14,144.08Z" transform="translate(-34.11 -39.66)" fill="#eb9481"/><path d="M216,165a4.54,4.54,0,0,1-.1,5.18,6.74,6.74,0,0,1,3.4,3.07c1.19,2.51-2.22,5.47-2.22,5.47a8.3,8.3,0,0,1,3.07,3.81c.89,2.51-2.12,6-2.12,6a7.28,7.28,0,0,1,.59,5c-1.29,4.49-8.16,6.45-12.51,7.74s-21,0-22.62-1.21l-7.65-25.93s13.36-10.81,24.45-11.79C204.85,162,214,162.13,216,165Z" transform="translate(-34.11 -39.66)" fill="#eb9481"/><path d="M215.62,169.8c-4.95-.44-9.75.61-14.61,1.38a.09.09,0,0,0,0,.17c4.82-.83,9.75-.68,14.59-1.32A.12.12,0,0,0,215.62,169.8Z" transform="translate(-34.11 -39.66)" fill="#263238"/><path d="M216.92,178.38a12.93,12.93,0,0,0-3.35.47q-1.76.37-3.51.8-3.5.86-7,1.89c-.1,0-.08.19,0,.17,2.33-.57,4.66-1.1,7-1.57l3.53-.68a15.39,15.39,0,0,0,3.3-.77A.17.17,0,0,0,216.92,178.38Z" transform="translate(-34.11 -39.66)" fill="#263238"/><path d="M218,188.54a9,9,0,0,0-3,.58l-3.18.83c-2.12.54-4.24,1.08-6.38,1.55-.11,0-.08.19,0,.17,2.18-.47,4.36-.9,6.53-1.38l3.19-.73a8.46,8.46,0,0,0,2.83-.92A.06.06,0,0,0,218,188.54Z" transform="translate(-34.11 -39.66)" fill="#263238"/><path d="M176,170.91,180.58,203s-29.35.06-39.74-6.52-20.68-31.85-25-46.27,1.62-24.53,16.76-6.31,22.75,25.59,24,26.12S176,170.91,176,170.91Z" transform="translate(-34.11 -39.66)" fill="#455a64"/><path d="M155,200.92c-2.48-.76-10.73-2.13-16.46-6.24-4.21-3-11.78-16.83-17.17-28.35-2.34-5-4-9.84-6.33-14.59a.05.05,0,0,0-.09,0c.93,3.27,2.07,6.48,3.31,9.65L118,161c-1-1.28-2-2.54-2.87-3.91-.06-.1-.21,0-.14.11.89,1.33,1.65,2.74,2.5,4.1.41.65.83,1.3,1.29,1.92.17.23.36.49.56.73,7.65,17.29,14.79,28.43,19.19,31.56,4.17,3,9.3,4.62,16.59,5.76C155.22,201.28,155.17,201,155,200.92Z" transform="translate(-34.11 -39.66)" fill="#263238"/><path d="M174.19,201.66c-.07-2.48-.48-5-.8-7.43s-.63-4.85-1-7.27c-.69-4.88-1.26-9.82-2.26-14.65a.09.09,0,0,0-.18,0c.2,5,.93,9.94,1.59,14.86q.5,3.71,1.1,7.4A64.76,64.76,0,0,0,174,201.7C174,201.81,174.2,201.76,174.19,201.66Z" transform="translate(-34.11 -39.66)" fill="#263238"/><path d="M176.17,170.63c-2.86-.3-14.43-.43-17.28-.74a5.93,5.93,0,0,1-3.44-1.49c-1.07-.93-18.27-19.1-20.15-21.24-.08-.09-.22,0-.14.11,2,2.15,15.13,17.24,17.19,19.41a26.85,26.85,0,0,0,2.89,2.85,5.42,5.42,0,0,0,3.43,1.13c2.75,0,13.47.22,17.22.31.07,0,.32,1.44.39,1.44h.15A6.09,6.09,0,0,0,176.17,170.63Z" transform="translate(-34.11 -39.66)" fill="#263238"/><path d="M150.65,69.07c3.19-3.5,6.16-10.25,9.24-12a4,4,0,0,1,4.8.46s.29-3.88,3.33-5c1.57-.56,3.84,1.44,3.84,1.44s.36-3.1,3.13-3.91c2.21-.64,4.16,1.47,4.16,1.47s1.74-2.81,4.19-2.75c5,.13,12.47,18.38,6.9,24-2.59,2.6-4.18-2-4.18-2s.7,7.1-3,8.74-5.43-4.41-5.43-4.41.62,6.89-3.41,8.2c-4.2,1.36-4.87-5-4.87-5s-1.09,5.19-4.4,5.48c-5.48.49-2.52-9.7-5.11-13.32l-7.52.5Z" transform="translate(-34.11 -39.66)" fill="#eb9481"/><path d="M154.9,63.05c-3.31,3.05-10.11.2-13.69,2.66C136.36,69,144,72.89,152.3,71.06l6.17-2.55Z" transform="translate(-34.11 -39.66)" fill="#eb9481"/><path d="M179.58,51.78a.05.05,0,0,1,.09-.06A34.21,34.21,0,0,1,186.26,71c0,.22-.36.32-.4.07A70,70,0,0,0,179.58,51.78Z" transform="translate(-34.11 -39.66)" fill="#263238"/><path d="M171.86,53.92c0-.07.08-.13.13-.06,4,5.59,6.78,13.71,5.88,21.46,0,.27-.32.47-.31.16C177.76,70.29,174.77,59.59,171.86,53.92Z" transform="translate(-34.11 -39.66)" fill="#263238"/><path d="M169.09,78.94c.58-7.46-1.3-14.35-4.24-21.16,0-.09.09-.13.14-.07,2.35,2.94,3.77,7.47,4.58,11.09A19.72,19.72,0,0,1,169.35,79C169.32,79.09,169.08,79.1,169.09,78.94Z" transform="translate(-34.11 -39.66)" fill="#263238"/><path d="M134.63,135.5c-3.28.75-10.09-3.16-12.4-7.86-.16-.32.48-3.62,1.05-7.66.34-2.45.66-5.19.78-7.71,0-.52,15.64,4.55,15.64,4.55a40.23,40.23,0,0,0-2,9.61,5.65,5.65,0,0,0,.06,1s0,.11,0,.17C138,129.62,138.14,134.69,134.63,135.5Z" transform="translate(-34.11 -39.66)" fill="#eb9481"/><path d="M137.8,127.46c0,.05,0,.11,0,.17a10.61,10.61,0,0,1-1.62,0c-9.3-.62-11.23-12.38-11.57-15.36,2.79.53,15.08,4.52,15.08,4.52a40.31,40.31,0,0,0-2,9.62A5.6,5.6,0,0,0,137.8,127.46Z" transform="translate(-34.11 -39.66)" fill="#263238"/><path d="M117.63,95.6c-.56,5.84,5.58,21.14,10.21,23.89,6.72,4,16.1,2.58,19.08-5.12,2.89-7.47-5.46-27.26-10.49-29.59C129,81.34,118.46,87,117.63,95.6Z" transform="translate(-34.11 -39.66)" fill="#eb9481"/><path d="M135.07,102s-.06.08,0,.12c.44,1,.77,2.26,0,3,0,0,0,.07,0,.05C136.11,104.49,135.65,102.85,135.07,102Z" transform="translate(-34.11 -39.66)" fill="#263238"/><path d="M133.72,101.24c-1.71.53-.52,3.91,1.06,3.42S135.15,100.8,133.72,101.24Z" transform="translate(-34.11 -39.66)" fill="#263238"/><path d="M141.19,100s.1,0,.11.06c.33,1.06.9,2.22,2,2.23,0,0,0,.05,0,.06C142.07,102.6,141.34,101.05,141.19,100Z" transform="translate(-34.11 -39.66)" fill="#263238"/><path d="M141.74,98.58c1.64-.72,3,2.61,1.44,3.28S140.37,99.18,141.74,98.58Z" transform="translate(-34.11 -39.66)" fill="#263238"/><path d="M131.84,100.16a13.9,13.9,0,0,0,1.15-.92,2.38,2.38,0,0,0,1-1.16.76.76,0,0,0-.42-.83,1.88,1.88,0,0,0-1.85.44,2.76,2.76,0,0,0-1.11,1.65A.81.81,0,0,0,131.84,100.16Z" transform="translate(-34.11 -39.66)" fill="#263238"/><path d="M142.45,96.41a13.94,13.94,0,0,1-1.47.12,2.38,2.38,0,0,1-1.52-.16.76.76,0,0,1-.26-.89,1.88,1.88,0,0,1,1.65-1,2.76,2.76,0,0,1,1.94.44A.81.81,0,0,1,142.45,96.41Z" transform="translate(-34.11 -39.66)" fill="#263238"/><path d="M137.51,112a1.69,1.69,0,0,0,1.1.31,2.93,2.93,0,0,0,1-.66,0,0,0,0,1,.06,0,1.49,1.49,0,0,1-1.13,1,1.18,1.18,0,0,1-1.15-.64C137.39,112,137.46,112,137.51,112Z" transform="translate(-34.11 -39.66)" fill="#263238"/><path d="M137.51,108.49a3.78,3.78,0,0,0,2.94.75,4.76,4.76,0,0,0,1.3-.39l.24-.11.22-.12a.28.28,0,0,0,.13-.31h0a.53.53,0,0,0,0-.1h0l0-.09c-.26-.81-.77-2-.77-2,.35,0,2.09.19,1.91-.22a56.88,56.88,0,0,0-5.17-10.31.1.1,0,0,0-.18.09c1.25,3.34,3.07,6.43,4.38,9.76a6.62,6.62,0,0,0-1.86.08c-.1.07,1,2.3,1.11,2.67a.15.15,0,0,1,0,0,5.24,5.24,0,0,1-4.09.15C137.48,108.33,137.42,108.43,137.51,108.49Z" transform="translate(-34.11 -39.66)" fill="#263238"/><path d="M141.13,108.61a4.49,4.49,0,0,1-1.23,1.91,2,2,0,0,1-1.13.48c-.91.07-1.2-.69-1.28-1.4a4.83,4.83,0,0,1,0-1.14A5.81,5.81,0,0,0,141.13,108.61Z" transform="translate(-34.11 -39.66)" fill="#263238"/><path d="M139.9,110.52a2,2,0,0,1-1.13.48c-.91.07-1.2-.69-1.28-1.4A2.08,2.08,0,0,1,139.9,110.52Z" transform="translate(-34.11 -39.66)" fill="#ff9bbc"/><path d="M125.49,116.26s-1.71.53-2.57-.36-.93-4.22-4.35-4.54c-1.19-.11-2.09-.07-2.9-.75-1.5-1.25-1.18-2.86-1.91-3.77-.9-1.12-3.32-.44-4.66-2.82-1.78-3.17.68-5.26.7-6.61s-1.35-2.74-.65-5.48c.64-2.52,3.36-3,4.49-4.4s-.42-3.72,1.78-6.12c1.6-1.75,4.84-.91,6.08-1.88,2-1.53,1.08-3.69,3.78-5.35,3-1.85,9.59,1.72,11.11,3.56,1.69,2.06.65,4.14,1.72,5.44,1.55,1.86,3.37.94,4.26,2.8s0,3.24.51,4.45c.63,1.64,1.06,1.86,1.58,3.29a4.08,4.08,0,0,1-.22,2.95s-3.64-7-8.13-10.79c-1.5-1.26-3.07-1.91-3.56-1.57s.84,2.92-.26,3.61-4.77-1-6,.64c-1.66,2.21.77,5.28-1,7.4s-3.34,2-3.57,3.37c-.28,1.73,1.39,2.22,2.58,4.63,1.07,2.17.9,3.14.9,3.14l-1.51.94s-2.61-.77-3.11-.25S125.49,116.26,125.49,116.26Z" transform="translate(-34.11 -39.66)" fill="#263238"/><path d="M109.54,95.56c.94,2.6-1.88,5-1.34,7.55.59,2.06,2.26,2.83,4.25,3.15.62.15,1.45.32,1.68,1-.36-.6-1.1-.62-1.73-.69a5.31,5.31,0,0,1-3.79-1.46,3.85,3.85,0,0,1-.88-4c.54-1.9,2.14-3.52,1.81-5.58Z" transform="translate(-34.11 -39.66)" fill="#263238"/><path d="M139,84c1.15.28,2.51-.08,3.53.74,1.61,1.32,1.1,2.94.49,4.61a2.17,2.17,0,0,0-.11,1.12,1.87,1.87,0,0,1-.19-1.18c.11-1.07.57-2.31.06-3.26a2.46,2.46,0,0,0-1.54-1.32A8.25,8.25,0,0,1,139,84Z" transform="translate(-34.11 -39.66)" fill="#263238"/><path d="M124.32,107.91s-4.73-4.31-6.76-2.52,2.32,8.61,5.27,9a2.84,2.84,0,0,0,3.38-2.32Z" transform="translate(-34.11 -39.66)" fill="#eb9481"/><path d="M118.86,107.31a0,0,0,0,0,0,.08c2.08.35,3.49,1.89,4.6,3.57a1.57,1.57,0,0,0-2.38.1s0,.11.07.09a1.75,1.75,0,0,1,2,.17,8.42,8.42,0,0,1,1.24,1.32c.13.15.42,0,.31-.19l0,0C124.19,110,121.53,107,118.86,107.31Z" transform="translate(-34.11 -39.66)" fill="#263238"/><path d="M53.15,70.38a20.91,20.91,0,0,0,33.39,16.8l10.25,2.62-4.27-9.54a20.92,20.92,0,1,0-39.37-9.87Z" transform="translate(-34.11 -39.66)" fill="#fff"/><path d="M53.15,70.38C53.18,52.53,74,42.72,87.83,54,95.52,60.2,97.9,71.89,93,80.52l0-.51,4.22,9.56.44,1c-3.77-1-7.53-2-11.28-3l.36-.07A21.19,21.19,0,0,1,53.15,70.38Zm0,0c.13,17,19.53,26.74,33.13,16.45l.16-.12.2,0c3.43.83,6.86,1.65,10.27,2.52l-.61.73L92,80.48l-.12-.26a20.65,20.65,0,0,0-12.8-29.8c-12.91-3.58-26,6.59-25.93,20Z" transform="translate(-34.11 -39.66)" fill="#263238"/><path d="M59.76,86A21.11,21.11,0,0,1,53,70.38a20.57,20.57,0,0,1,.28-3.45A21.45,21.45,0,0,1,88,53.88a21.52,21.52,0,0,1,5.43,26.4l4.5,10.21a.2.2,0,0,1-.23.27c-3.67-.94-7.3-1.91-11-2.91A21.25,21.25,0,0,1,75.92,91.7q-.82.07-1.63.07A21.4,21.4,0,0,1,59.76,86Zm26.48,1.62a.2.2,0,0,1,.16-.19l.36-.07a.2.2,0,0,1,.24.21c3,.82,6,1.63,9.06,2.41l-.34-.76c-3-.74-6-1.47-8.88-2.17l-.35-.08-.08.06a20.36,20.36,0,0,1-17.66,3.6,20.2,20.2,0,0,0,7.15.71,20.86,20.86,0,0,0,10.36-3.65A.21.21,0,0,1,86.23,87.58Zm.26-1.07.44.11c2.81.68,5.71,1.38,8.57,2.09L91.7,80.31a.2.2,0,0,1,0-.18,20.37,20.37,0,0,0-30.22-26A20.38,20.38,0,0,0,53.63,67a21.39,21.39,0,0,0-.27,3.39A20.5,20.5,0,0,0,64.85,88.71a20,20,0,0,0,21.32-2l.16-.12a.2.2,0,0,1,.12,0Zm10,3.55.84.22L97,89.48Zm-.31-.75.15.33.2-.24ZM93,80.71a.2.2,0,0,1-.15-.2l0-.51a.2.2,0,0,1,.16-.19.19.19,0,0,1,.16,0,21.12,21.12,0,0,0-5.46-25.66,20.83,20.83,0,0,0-16.4-4.54,20,20,0,0,1,7.82.58,20.85,20.85,0,0,1,13,30l3.9,8.6.82.21-3.69-8.35A.2.2,0,0,1,93,80.71Z" transform="translate(-34.11 -39.66)" fill="#263238"/><path d="M84.36,73.32c-3,6.14-10.29,9.78-10.29,9.78s-7.24-3.64-10.28-9.78c-2.54-5.12-.93-10.66,3.07-11.86,5.74-1.73,7.21,4.27,7.21,4.27s1.47-6,7.21-4.27C85.29,62.67,86.9,68.2,84.36,73.32Z" transform="translate(-34.11 -39.66)" fill="#f71700"/></g></svg>