<svg xmlns="http://www.w3.org/2000/svg" xmlns:xlink="http://www.w3.org/1999/xlink" width="612" height="612" viewBox="0 0 612 612">
  <defs>
    <filter id="Ellipse_489" x="0" y="0" width="612" height="612" filterUnits="userSpaceOnUse">
      <feOffset dy="3" input="SourceAlpha"/>
      <feGaussianBlur stdDeviation="7" result="blur"/>
      <feFlood flood-color="#ffcfcf" flood-opacity="0.012"/>
      <feComposite operator="in" in2="blur"/>
      <feComposite in="SourceGraphic"/>
    </filter>
  </defs>
  <g id="react-native_2" data-name="react-native 2" transform="translate(-4061.809 990.191)">
    <g id="laraval_2" data-name="laraval 2" transform="translate(4082.809 -972.191)">
      <g transform="matrix(1, 0, 0, 1, -21, -18)" filter="url(#Ellipse_489)">
        <circle id="Ellipse_489-2" data-name="Ellipse 489" cx="285" cy="285" r="285" transform="translate(21 18)" fill="#f8f7f7"/>
      </g>
      <circle id="Ellipse_488" data-name="Ellipse 488" cx="233" cy="233" r="233" transform="translate(52 52)" fill="#f3f3f3"/>
      <circle id="Ellipse_487" data-name="Ellipse 487" cx="180" cy="180" r="180" transform="translate(105 105)" fill="#eee"/>
      <path id="Path_19249" data-name="Path 19249" d="M121.633,0A121.633,121.633,0,1,1,0,121.633,121.633,121.633,0,0,1,121.633,0Z" transform="translate(163.367 163.367)" fill="#e9e9e9"/>
    </g>
    <g id="react-native-1" transform="translate(4246.207 -819.82)">
      <path id="Path_10" data-name="Path 10" d="M915.9,379.921c0-15.893-19.9-30.953-50.416-40.293,7.041-31.1,3.913-55.849-9.878-63.765a21.436,21.436,0,0,0-10.952-2.741v10.9a11.323,11.323,0,0,1,5.575,1.271c6.65,3.813,9.535,18.331,7.286,37.018-.536,4.6-1.417,9.438-2.493,14.377a237.033,237.033,0,0,0-31.051-5.33,238.478,238.478,0,0,0-20.344-24.448c15.941-14.817,30.905-22.934,41.076-22.934v-10.9c-13.448,0-31.051,9.585-48.85,26.211-17.8-16.528-35.4-26.014-48.85-26.014v10.9c10.123,0,25.134,8.069,41.076,22.785a230.984,230.984,0,0,0-20.2,24.4,228.329,228.329,0,0,0-31.1,5.379c-1.126-4.889-1.957-9.633-2.544-14.181-2.3-18.673.538-33.2,7.141-37.066A10.879,10.879,0,0,1,747,284.226v-10.9a21.8,21.8,0,0,0-11.052,2.741c-13.741,7.922-16.821,32.617-9.732,63.618C695.8,349.065,676,364.086,676,379.921c0,15.893,19.9,30.955,50.416,40.293-7.043,31.1-3.913,55.849,9.878,63.765a21.5,21.5,0,0,0,11,2.741c13.446,0,31.052-9.583,48.85-26.211,17.8,16.529,35.4,26.016,48.85,26.016a21.8,21.8,0,0,0,11.051-2.741c13.74-7.922,16.821-32.617,9.731-63.618C896.1,410.826,915.9,395.764,915.9,379.921ZM852.235,347.3c-1.809,6.308-4.058,12.811-6.6,19.316-2-3.911-4.112-7.824-6.406-11.737-2.249-3.911-4.646-7.726-7.043-11.442C839.129,344.469,845.828,345.74,852.235,347.3Zm-22.394,52.08c-3.813,6.6-7.724,12.861-11.785,18.673-7.286.636-14.67.978-22.1.978-7.384,0-14.767-.343-22-.93q-6.088-8.737-11.834-18.583-5.574-9.608-10.171-19.461c3.032-6.553,6.455-13.106,10.123-19.511,3.813-6.6,7.725-12.861,11.785-18.673,7.286-.636,14.67-.978,22.1-.978,7.384,0,14.767.343,22,.929q6.089,8.737,11.834,18.583c3.716,6.405,7.089,12.909,10.171,19.463C836.88,386.424,833.507,392.976,829.841,399.377Zm15.8-6.356q3.851,9.559,6.748,19.461c-6.407,1.564-13.154,2.885-20.147,3.913,2.4-3.769,4.8-7.629,7.041-11.589,2.248-3.906,4.35-7.868,6.354-11.78ZM796.052,445.2a201.779,201.779,0,0,1-13.594-15.648c4.4.2,8.9.343,13.447.343,4.6,0,9.145-.1,13.6-.343A190.932,190.932,0,0,1,796.052,445.2Zm-36.38-28.8c-6.943-1.028-13.643-2.3-20.044-3.863,1.809-6.308,4.058-12.813,6.6-19.316,2,3.913,4.112,7.824,6.405,11.735s4.638,7.733,7.033,11.451Zm36.137-101.761A201.546,201.546,0,0,1,809.4,330.28c-4.4-.2-8.9-.343-13.446-.343-4.6,0-9.145.1-13.594.343A190.96,190.96,0,0,1,795.8,314.639Zm-36.19,28.808c-2.4,3.769-4.8,7.629-7.041,11.589-2.249,3.913-4.351,7.824-6.358,11.737q-3.851-9.559-6.748-19.461C745.878,345.789,752.626,344.469,759.619,343.441Zm-44.254,61.223c-17.3-7.384-28.509-17.065-28.509-24.743s11.2-17.407,28.509-24.743c4.206-1.809,8.8-3.426,13.546-4.939a234.9,234.9,0,0,0,11,29.78,231.534,231.534,0,0,0-10.856,29.637C724.215,408.136,719.618,406.474,715.365,404.663Zm26.309,69.878c-6.651-3.813-9.535-18.331-7.286-37.018.538-4.6,1.417-9.438,2.493-14.377a236.905,236.905,0,0,0,31.051,5.331,238.528,238.528,0,0,0,20.342,24.45c-15.941,14.817-30.905,22.934-41.076,22.934a11.665,11.665,0,0,1-5.525-1.321Zm115.99-37.261c2.3,18.673-.538,33.2-7.14,37.066a10.881,10.881,0,0,1-5.624,1.271c-10.121,0-25.134-8.069-41.074-22.785a230.964,230.964,0,0,0,20.191-24.4,228.367,228.367,0,0,0,31.1-5.379,136.855,136.855,0,0,1,2.546,14.231Zm18.826-32.617c-4.206,1.809-8.8,3.426-13.546,4.939a234.855,234.855,0,0,0-11-29.78A231.374,231.374,0,0,0,862.8,350.185c4.841,1.516,9.438,3.178,13.741,4.989,17.3,7.384,28.508,17.065,28.508,24.743-.051,7.682-11.249,17.4-28.56,24.746Z" transform="translate(-675.354 -273.075)" fill="#00c0ff"/>
      <path id="Path_11" data-name="Path 11" d="M790.635,1090.545a22.346,22.346,0,1,0-22.346-22.347,22.347,22.347,0,0,0,22.346,22.347ZM681.628,1213.471h-7.377v12.7h-4.163v-31.405h10.4a12.259,12.259,0,0,1,8.153,2.416,8.674,8.674,0,0,1,2.87,7.024,8.417,8.417,0,0,1-1.6,5.114,9.4,9.4,0,0,1-4.4,3.255l7.377,13.33v.259h-4.449Zm-7.377-3.387h6.363a7.145,7.145,0,0,0,4.9-1.6,5.378,5.378,0,0,0,1.833-4.271,5.654,5.654,0,0,0-1.747-4.464,7.321,7.321,0,0,0-5-1.574h-6.339Zm32.14,16.523a10.215,10.215,0,0,1-7.723-3.106,11.606,11.606,0,0,1-2.977-8.348v-.733a14.031,14.031,0,0,1,1.316-6.19,10.356,10.356,0,0,1,3.711-4.271,9.334,9.334,0,0,1,5.177-1.554,8.736,8.736,0,0,1,7.075,3,12.98,12.98,0,0,1,2.524,8.585v1.662H699.683a8.367,8.367,0,0,0,2.006,5.586,6.391,6.391,0,0,0,4.918,2.114,6.946,6.946,0,0,0,3.581-.856,9,9,0,0,0,2.57-2.287l2.438,1.9a9.8,9.8,0,0,1-8.8,4.5Zm-.5-20.923a5.311,5.311,0,0,0-4.055,1.768,8.495,8.495,0,0,0-2.028,4.918H711.5v-.3a7.553,7.553,0,0,0-1.639-4.7,5,5,0,0,0-3.968-1.682Zm28.646,20.491a8.324,8.324,0,0,1-.56-2.458,8.908,8.908,0,0,1-6.644,2.89,8.31,8.31,0,0,1-5.672-1.941,6.366,6.366,0,0,1-2.2-4.968,6.581,6.581,0,0,1,2.762-5.654,13.063,13.063,0,0,1,7.808-2.028h3.882v-1.833a4.454,4.454,0,0,0-1.251-3.322,5,5,0,0,0-3.69-1.251,5.813,5.813,0,0,0-3.58,1.078,3.178,3.178,0,0,0-1.446,2.611h-4.012a5.5,5.5,0,0,1,1.228-3.366,8.536,8.536,0,0,1,3.366-2.588,11.408,11.408,0,0,1,4.68-.949,9.188,9.188,0,0,1,6.32,2.028,7.241,7.241,0,0,1,2.373,5.542v10.741a13.12,13.12,0,0,0,.821,5.112v.343Zm-6.621-3.041a7.022,7.022,0,0,0,3.56-.971,5.884,5.884,0,0,0,2.438-2.524v-4.8h-3.128q-7.334,0-7.334,4.292a3.633,3.633,0,0,0,1.25,2.933,4.816,4.816,0,0,0,3.212,1.057Zm25.6.214a5.746,5.746,0,0,0,3.731-1.295,4.551,4.551,0,0,0,1.768-3.234h3.769a7.243,7.243,0,0,1-1.381,3.819,9.085,9.085,0,0,1-3.409,2.89,10.382,10.382,0,0,1-12.079-2.092,12.749,12.749,0,0,1-2.8-8.715v-.668a14.05,14.05,0,0,1,1.251-6.061,9.547,9.547,0,0,1,3.581-4.112,10.244,10.244,0,0,1,5.542-1.468,9.32,9.32,0,0,1,6.51,2.352,8.393,8.393,0,0,1,2.782,6.1h-3.762a5.435,5.435,0,0,0-1.725-3.711,5.276,5.276,0,0,0-3.8-1.467,5.6,5.6,0,0,0-4.723,2.2,10.279,10.279,0,0,0-1.662,6.32v.754a10.081,10.081,0,0,0,1.662,6.212,5.61,5.61,0,0,0,4.745,2.179Zm19.175-26.163v5.654h4.357v3.084H772.7V1220.4a3.277,3.277,0,0,0,.582,2.114,2.475,2.475,0,0,0,1.984.686,9.627,9.627,0,0,0,1.9-.259v3.236a11.562,11.562,0,0,1-3.063.432,4.969,4.969,0,0,1-4.034-1.619,6.955,6.955,0,0,1-1.359-4.595v-14.473h-4.25v-3.084h4.25v-5.654Zm44.758,28.99H813.29l-15.811-24.2v24.2h-4.163v-31.405h4.163l15.854,24.309v-24.309h4.112Zm21.139,0a8.323,8.323,0,0,1-.562-2.458,8.909,8.909,0,0,1-6.644,2.89,8.308,8.308,0,0,1-5.672-1.941,6.365,6.365,0,0,1-2.2-4.968,6.577,6.577,0,0,1,2.762-5.654,13.063,13.063,0,0,1,7.808-2.028h3.882v-1.833a4.443,4.443,0,0,0-1.252-3.322,5,5,0,0,0-3.688-1.25,5.814,5.814,0,0,0-3.581,1.078A3.178,3.178,0,0,0,828,1209.3h-4.012a5.5,5.5,0,0,1,1.228-3.366,8.532,8.532,0,0,1,3.366-2.588,11.409,11.409,0,0,1,4.68-.949,9.189,9.189,0,0,1,6.32,2.028,7.242,7.242,0,0,1,2.373,5.542v10.741a13.122,13.122,0,0,0,.821,5.112v.343Zm-6.621-3.041a7.022,7.022,0,0,0,3.56-.971,5.884,5.884,0,0,0,2.438-2.524v-4.8h-3.128q-7.334,0-7.334,4.292a3.634,3.634,0,0,0,1.251,2.933,4.813,4.813,0,0,0,3.214,1.057Zm21.656-25.949v5.654h4.357v3.084h-4.357V1220.4a3.278,3.278,0,0,0,.582,2.114,2.473,2.473,0,0,0,1.984.686,9.665,9.665,0,0,0,1.9-.259v3.237a11.572,11.572,0,0,1-3.063.432,4.97,4.97,0,0,1-4.035-1.619,6.955,6.955,0,0,1-1.359-4.595v-14.473h-4.249v-3.084h4.249v-5.654ZM867,1226.176h-3.993v-23.338H867Zm-4.315-29.529a2.411,2.411,0,0,1,.583-1.639,2.676,2.676,0,0,1,3.538,0,2.36,2.36,0,0,1,.6,1.64,2.477,2.477,0,0,1-4.141,1.619,2.33,2.33,0,0,1-.584-1.626Zm18.421,24.116,5.78-17.925h4.077l-8.369,23.338h-3.042l-8.454-23.338h4.072Zm23.079,5.845a10.214,10.214,0,0,1-7.723-3.106,11.606,11.606,0,0,1-2.976-8.348v-.733a14.031,14.031,0,0,1,1.316-6.19,10.348,10.348,0,0,1,3.711-4.271,9.332,9.332,0,0,1,5.175-1.554,8.738,8.738,0,0,1,7.075,3,12.984,12.984,0,0,1,2.523,8.584v1.66H897.477a8.364,8.364,0,0,0,2.006,5.587,6.389,6.389,0,0,0,4.917,2.114,6.951,6.951,0,0,0,3.58-.856,9.01,9.01,0,0,0,2.57-2.287l2.438,1.9a9.8,9.8,0,0,1-8.8,4.5Zm-.5-20.923a5.311,5.311,0,0,0-4.055,1.768,8.486,8.486,0,0,0-2.027,4.918H909.3v-.3a7.555,7.555,0,0,0-1.639-4.7,5,5,0,0,0-3.971-1.682Z" transform="translate(-670.088 -961.349)" fill="#00c0ff"/>
    </g>
  </g>
</svg>
