<svg xmlns="http://www.w3.org/2000/svg" xmlns:xlink="http://www.w3.org/1999/xlink" width="612" height="612" viewBox="0 0 612 612">
  <defs>
    <filter id="Ellipse_489" x="0" y="0" width="612" height="612" filterUnits="userSpaceOnUse">
      <feOffset dy="3" input="SourceAlpha"/>
      <feGaussianBlur stdDeviation="7" result="blur"/>
      <feFlood flood-color="#ffcfcf" flood-opacity="0.012"/>
      <feComposite operator="in" in2="blur"/>
      <feComposite in="SourceGraphic"/>
    </filter>
  </defs>
  <g id="laraval_2" data-name="laraval 2" transform="translate(-4062 990)">
    <g id="laraval_2-2" data-name="laraval 2" transform="translate(4083 -972)">
      <g transform="matrix(1, 0, 0, 1, -21, -18)" filter="url(#Ellipse_489)">
        <circle id="Ellipse_489-2" data-name="Ellipse 489" cx="285" cy="285" r="285" transform="translate(21 18)" fill="#f8f7f7"/>
      </g>
      <circle id="Ellipse_488" data-name="Ellipse 488" cx="234" cy="234" r="234" transform="translate(51 51)" fill="#f3f3f3"/>
      <circle id="Ellipse_487" data-name="Ellipse 487" cx="182" cy="182" r="182" transform="translate(103 103)" fill="#eee"/>
      <path id="Path_19249" data-name="Path 19249" d="M120.024,0A120.024,120.024,0,1,1,0,120.024,120.024,120.024,0,0,1,120.024,0Z" transform="translate(164.976 164.976)" fill="#e9e9e9"/>
    </g>
    <path id="laravel-2" d="M246.512,57.442a4.02,4.02,0,0,1,.139,1.038v54.5a3.974,3.974,0,0,1-2,3.447L198.91,142.768v52.2a3.984,3.984,0,0,1-1.986,3.447l-95.5,54.969a4.273,4.273,0,0,1-.695.287c-.09.03-.169.085-.269.11a4,4,0,0,1-2.029,0c-.11-.03-.208-.09-.313-.128a4.13,4.13,0,0,1-.656-.269L2,198.416a3.979,3.979,0,0,1-2-3.447V31.463A4.057,4.057,0,0,1,.139,30.42c.03-.115.1-.218.139-.338a3.917,3.917,0,0,1,.254-.615A3.719,3.719,0,0,1,.8,29.113a4.057,4.057,0,0,1,.353-.461,3.888,3.888,0,0,1,.392-.3,3.239,3.239,0,0,1,.438-.338h0L49.729.531a3.984,3.984,0,0,1,3.974,0l47.736,27.485h.01a4.871,4.871,0,0,1,.438.338,4.7,4.7,0,0,1,.387.3,4.65,4.65,0,0,1,.358.467,3.663,3.663,0,0,1,.269.353,4.147,4.147,0,0,1,.259.615,3.464,3.464,0,0,1,.139.338,4.019,4.019,0,0,1,.139,1.038V133.588l39.777-22.906V58.475a4.015,4.015,0,0,1,.139-1.033c.035-.12.1-.223.139-.338a4.477,4.477,0,0,1,.259-.615c.074-.128.184-.233.269-.353a4.088,4.088,0,0,1,.358-.462,3.819,3.819,0,0,1,.387-.3,4.013,4.013,0,0,1,.438-.338h0l47.746-27.484a3.979,3.979,0,0,1,3.974,0l47.737,27.484a4.4,4.4,0,0,1,.446.338c.123.1.269.189.382.3a4.646,4.646,0,0,1,.358.467,3,3,0,0,1,.269.353,3.939,3.939,0,0,1,.259.615,2.842,2.842,0,0,1,.139.338Zm-7.817,53.24V65.361L221.99,74.978,198.912,88.265v45.322ZM190.958,192.67V147.317l-22.7,12.966-64.825,37v45.78ZM7.957,38.343V192.67l87.516,50.376V197.279L49.754,171.414l-.015-.01-.02-.01q-.4-.309-.8-.615l-.01-.015a3.788,3.788,0,0,1-.328-.418,4.25,4.25,0,0,1-.3-.387v-.015a3.169,3.169,0,0,1-.208-.5,2.94,2.94,0,0,1-.189-.446h0a3.8,3.8,0,0,1-.079-.582,3.448,3.448,0,0,1-.059-.446V61.248L24.662,47.955,7.957,38.348ZM51.729,8.569,11.947,31.463,51.71,54.357l39.77-22.9L51.71,8.569ZM72.4,151.45l23.073-13.282V38.343l-16.7,9.617L55.7,61.248v99.824ZM194.936,35.586,155.165,58.48l39.768,22.894,39.763-22.9Zm-3.979,52.679L167.878,74.978l-16.705-9.617v45.322l23.073,13.282,16.71,9.622ZM99.447,190.4l58.332-33.3,29.159-16.641L147.2,117.578,101.444,143.92l-41.7,24Z" transform="translate(4244.595 -852.386)" fill="#f80101"/>
    <path id="laravel-wordmark-1" d="M7.506,0V38.965H21.6v6.711H0V0ZM48.077,19.373V15.265h7.134V45.694h-7.1V41.569a9.773,9.773,0,0,1-4.091,3.55,11.637,11.637,0,0,1-5.325,1.319,15.5,15.5,0,0,1-6.339-1.268,14.808,14.808,0,0,1-4.936-3.482,16.228,16.228,0,0,1-3.212-5.071,16.979,16.979,0,0,1,.017-12.239,16.161,16.161,0,0,1,3.212-5.139,14.826,14.826,0,0,1,4.9-3.516,15.667,15.667,0,0,1,6.339-1.268,11.984,11.984,0,0,1,5.308,1.3,9.774,9.774,0,0,1,4.057,3.584ZM47.435,34.2a10.65,10.65,0,0,0,.676-3.719,10.515,10.515,0,0,0-.676-3.719,9.433,9.433,0,0,0-1.826-3.094,8.841,8.841,0,0,0-2.84-2.062,8.723,8.723,0,0,0-3.685-.795,8.283,8.283,0,0,0-3.651.811,8.534,8.534,0,0,0-4.6,5.139,11.089,11.089,0,0,0-.625,3.719,10.944,10.944,0,0,0,.625,3.719,8.537,8.537,0,0,0,1.792,3.043,8.926,8.926,0,0,0,2.806,2.113,9.041,9.041,0,0,0,7.337,0,8.824,8.824,0,0,0,2.84-2.1,9.433,9.433,0,0,0,1.826-3.043Zm13.389,11.5V15.265H80.129v7H67.923V45.677h-7.1Zm45.085-26.321V15.265h7.1V45.694h-7.1V41.569a9.577,9.577,0,0,1-4.057,3.55,11.7,11.7,0,0,1-5.342,1.319A15.5,15.5,0,0,1,90.17,45.17a14.809,14.809,0,0,1-4.936-3.482,16.229,16.229,0,0,1-3.212-5.071,17.218,17.218,0,0,1,.017-12.239,16.161,16.161,0,0,1,3.212-5.139,14.825,14.825,0,0,1,4.9-3.516,15.667,15.667,0,0,1,6.339-1.268,11.984,11.984,0,0,1,5.308,1.3,9.671,9.671,0,0,1,4.057,3.584ZM105.266,34.2a10.65,10.65,0,0,0,.642-3.719,10.885,10.885,0,0,0-.642-3.719,9.433,9.433,0,0,0-1.809-3.094,8.841,8.841,0,0,0-2.874-2.062,8.7,8.7,0,0,0-3.668-.795,8.407,8.407,0,0,0-3.668.811,8.534,8.534,0,0,0-4.6,5.139,11.09,11.09,0,0,0-.609,3.719,11.361,11.361,0,0,0,.609,3.719,8.79,8.79,0,0,0,1.792,3.043,8.926,8.926,0,0,0,2.806,2.113,8.638,8.638,0,0,0,3.668.778,8.52,8.52,0,0,0,3.685-.778,8.824,8.824,0,0,0,2.874-2.1,9.433,9.433,0,0,0,1.809-3.043Zm36.278-18.933h7.218L137.1,45.694h-8.96L116.474,15.265h7.185l8.96,23.295,8.926-23.278Zm22.72-.778c9.686,0,16.3,8.588,15.045,18.629H155.693a8.567,8.567,0,0,0,8.96,7.675c5.41,0,9.044-4.733,9.044-4.733l4.8,3.719c-4.311,4.564-7.827,6.677-13.355,6.677-9.839,0-16.5-6.255-16.5-16.009a15.738,15.738,0,0,1,15.6-15.992Zm-8.537,13.355H172.8a8.462,8.462,0,0,0-8.588-7.709,8.314,8.314,0,0,0-8.486,7.709Zm28.231,17.8V0h7.1V45.677h-7.1Z" transform="translate(4271.639 -575.438)" fill="#f80101"/>
  </g>
</svg>
