<svg xmlns="http://www.w3.org/2000/svg" width="29" height="29" viewBox="0 0 29 29">
  <path id="Shape" d="M18.338,28H4.056A4.065,4.065,0,0,1,0,23.944V9.769A4.065,4.065,0,0,1,4.056,5.712H5.605V4.056A4.065,4.065,0,0,1,9.661,0H23.944A4.065,4.065,0,0,1,28,4.056V18.231a4.065,4.065,0,0,1-4.056,4.056H22.395v1.656A4.065,4.065,0,0,1,18.338,28ZM4.056,7.09A2.689,2.689,0,0,0,1.377,9.77V23.944a2.689,2.689,0,0,0,2.679,2.679H18.338a2.689,2.689,0,0,0,2.679-2.679V22.288H9.661a4.065,4.065,0,0,1-4.056-4.056V7.09ZM23.943,1.376H9.661A2.689,2.689,0,0,0,6.981,4.056V18.229a2.689,2.689,0,0,0,2.679,2.679H23.943a2.689,2.689,0,0,0,2.679-2.679V4.055a2.689,2.689,0,0,0-2.679-2.679Z" transform="translate(0.5 0.5)" fill="#28b67e" stroke="#1ab77c" stroke-miterlimit="10" stroke-width="1"/>
</svg>
