<svg xmlns="http://www.w3.org/2000/svg" width="25.846" height="24" viewBox="0 0 25.846 24">
  <path id="Shape" d="M0,18.77a5.176,5.176,0,0,1,5.109-5.231,5.04,5.04,0,0,1,4.017,2.038l4.7-3.6L9.148,8.4a5.048,5.048,0,0,1-4.038,2.064A5.177,5.177,0,0,1,0,5.231,5.177,5.177,0,0,1,5.109,0a5.178,5.178,0,0,1,5.109,5.231,5.288,5.288,0,0,1-.239,1.5l5.35,4.1L24.4,3.876a.89.89,0,0,1,1.262.186.938.938,0,0,1-.182,1.292l-8.651,6.624L25.484,18.6a.937.937,0,0,1,.182,1.292.888.888,0,0,1-1.262.186l-9.076-6.95-5.36,4.1a5.265,5.265,0,0,1,.25,1.533A5.178,5.178,0,0,1,5.109,24,5.177,5.177,0,0,1,0,18.77Z" fill="#28b67e"/>
</svg>
