<svg xmlns="http://www.w3.org/2000/svg" width="18" height="31.894" viewBox="0 0 18 31.894">
  <path id="Path" d="M15.66,16.106a8.584,8.584,0,0,0-4.439-1.929l-2.2-.288L7.28,13.643h0a4.484,4.484,0,0,1-2.238-1,2.572,2.572,0,0,1,.623-4.29,7.87,7.87,0,0,1,3.086-.638A8.149,8.149,0,0,1,13.994,9.7a2.059,2.059,0,1,0,2.9-2.922,12.238,12.238,0,0,0-6.085-2.989V2.058a2.058,2.058,0,0,0-4.115,0V3.786a12.087,12.087,0,0,0-2.639.782A6.687,6.687,0,0,0,2.409,15.829a8.6,8.6,0,0,0,4.285,1.9l1.764.252h.036l2.212.278h0a4.473,4.473,0,0,1,2.315,1.029,2.428,2.428,0,0,1-.576,4.085,9.232,9.232,0,0,1-3.694.8A8.149,8.149,0,0,1,3.51,22.2a2.059,2.059,0,1,0-2.9,2.922,12.236,12.236,0,0,0,6.085,2.989v1.728a2.058,2.058,0,0,0,4.115,0V28.118a14.018,14.018,0,0,0,3.287-.993,6.543,6.543,0,0,0,1.543-11.019Z" fill="#1d4c4f"/>
</svg>
