<svg xmlns="http://www.w3.org/2000/svg" width="12.8" height="12.37" viewBox="0 0 12.8 12.37">
  <g id="download_icon" transform="translate(0)">
    <g id="Group_3" data-name="Group 3">
      <path id="Fill_1" data-name="Fill 1" d="M6.59,12.212a.536.536,0,0,1-.761,0L.159,7.228a.537.537,0,0,1,.375-.917H1.922a.536.536,0,0,0,.536-.536V.536A.536.536,0,0,1,2.994,0H9.426a.536.536,0,0,1,.536.536V5.774a.536.536,0,0,0,.536.536h1.763a.537.537,0,0,1,.381.917Z" transform="translate(0 0)"/>
    </g>
  </g>
</svg>
