<svg xmlns="http://www.w3.org/2000/svg" xmlns:xlink="http://www.w3.org/1999/xlink" width="36.283" height="65.434" viewBox="0 0 36.283 65.434">
  <defs>
    <clipPath id="clip-path">
      <path id="Path_21" data-name="Path 21" d="M707.152,930.7c-19.052-11.325-27.537-27.315-25.292-47.74l.072-.621.027-.156,2.282-9.959-8.5,9.349a1.5,1.5,0,0,1-2.008.194l-.111-.092a1.5,1.5,0,0,1-.194-2.008l.092-.111,12.345-13.587a1.5,1.5,0,0,1,2.507.462l.042.121,5.2,17.606a1.5,1.5,0,0,1-2.83.986l-.047-.136-3.579-12.115-2.262,9.88-.059.508c-2.1,19.037,5.619,33.8,23.3,44.514l.544.326a1.5,1.5,0,1,1-1.533,2.579Z" fill="none" clip-rule="evenodd"/>
    </clipPath>
    <clipPath id="clip-path-2">
      <rect id="Rectangle_83" data-name="Rectangle 83" width="1440" height="1684" fill="none"/>
    </clipPath>
  </defs>
  <g id="Group_162" data-name="Group 162" transform="translate(-673.136 -865.475)">
    <g id="Group_161" data-name="Group 161" clip-path="url(#clip-path)">
      <g id="Group_160" data-name="Group 160">
        <g id="Group_159" data-name="Group 159" clip-path="url(#clip-path-2)">
          <rect id="Rectangle_82" data-name="Rectangle 82" width="58.143" height="76.327" transform="matrix(0.946, -0.326, 0.326, 0.946, 651.391, 871.507)" fill="#d3dcde"/>
        </g>
      </g>
    </g>
  </g>
</svg>
