<svg xmlns="http://www.w3.org/2000/svg" width="40" height="45.454" viewBox="0 0 40 45.454">
  <path id="Shape" d="M0,37.714a7.726,7.726,0,0,1,7.692-7.742,7.591,7.591,0,0,1,4.615,1.588V11.392a7.772,7.772,0,0,1,5.644-7.273L33.611.179a5.141,5.141,0,0,1,4.483.851A5.223,5.223,0,0,1,40,5.2h0V31.521a7.692,7.692,0,1,1-7.692-7.741,7.586,7.586,0,0,1,4.616,1.588V5.2A2.129,2.129,0,0,0,36.2,3.47a2.1,2.1,0,0,0-1.844-.287L18.7,7.124a4.756,4.756,0,0,0-3.313,4.27v26.32A7.692,7.692,0,1,1,0,37.714ZM18.508,14.866a1.549,1.549,0,0,1,1.12-1.878l12.307-3.1a1.548,1.548,0,0,1,.747,3.005l-12.308,3.1a1.537,1.537,0,0,1-1.866-1.126Z" transform="translate(0 0)" fill="#1ab77c"/>
</svg>
