<svg id="Group" xmlns="http://www.w3.org/2000/svg" width="42" height="45.455" viewBox="0 0 42 45.455">
  <g id="Group_2" data-name="Group 2">
    <path id="Path" d="M40,5.2v26.32a7.692,7.692,0,1,1-7.692-7.741,7.589,7.589,0,0,1,4.615,1.588V5.2A2.126,2.126,0,0,0,36.2,3.471a2.093,2.093,0,0,0-1.843-.287L18.7,7.124a4.756,4.756,0,0,0-3.313,4.269v26.32a7.692,7.692,0,1,1-7.692-7.741,7.589,7.589,0,0,1,4.615,1.588V11.392a7.773,7.773,0,0,1,5.644-7.273L33.61.179a5.142,5.142,0,0,1,4.483.851A5.223,5.223,0,0,1,40,5.2Z" fill="#d3dcde"/>
    <path id="Path-2" data-name="Path" d="M15.339,1.173A1.539,1.539,0,0,0,13.473.047L1.165,3.143a1.548,1.548,0,1,0,.747,3l12.308-3.1a1.55,1.55,0,0,0,1.119-1.878Z" transform="translate(18.461 9.845)" fill="#d3dcde"/>
  </g>
  <g id="X_VERDE" data-name="X VERDE" transform="translate(8 7)">
    <path id="Line_2" data-name="Line 2" d="M.417.417l30.1,30.1" transform="translate(0.469 0.469)" fill="none" stroke="#28b67e" stroke-linecap="round" stroke-miterlimit="10" stroke-width="4"/>
    <path id="Line_2-2" data-name="Line 2" d="M15.521.417l-30.1,30.1" transform="translate(15.469 0.469)" fill="none" stroke="#28b67e" stroke-linecap="round" stroke-miterlimit="10" stroke-width="4"/>
  </g>
</svg>
