<svg id="Upload" xmlns="http://www.w3.org/2000/svg" width="34" height="25" viewBox="0 0 34 25">
  <path id="Fill_1" data-name="Fill 1" d="M26.609,25H8.5A8.43,8.43,0,0,1,6.883,8.284,10.34,10.34,0,0,1,24.31,3.011a10.167,10.167,0,0,1,2.968,7.353,7.43,7.43,0,0,1,4.77,2.335A7.24,7.24,0,0,1,34,17.647,7.381,7.381,0,0,1,26.609,25ZM17,2.222a8.075,8.075,0,0,0-5.739,2.352A7.988,7.988,0,0,0,8.933,9.357a1.1,1.1,0,0,1-.991.963,6.241,6.241,0,0,0,.576,12.458H26.589a5.139,5.139,0,1,0,0-10.278h-.437a1.111,1.111,0,0,1-.828-.373,1.1,1.1,0,0,1-.267-.865A8.084,8.084,0,0,0,17,2.223Zm0,18.056a1.105,1.105,0,0,1-1.113-1.094V12.178L13.669,14.16a1.181,1.181,0,0,1-1.578-.068,1.089,1.089,0,0,1,.07-1.549L16.245,8.9A1,1,0,0,1,17,8.611a.945.945,0,0,1,.754.285l4.083,3.646a1.143,1.143,0,0,1,.362.818.979.979,0,0,1-.292.731,1.229,1.229,0,0,1-.849.331,1.09,1.09,0,0,1-.729-.262l-2.216-1.982v7.006A1.106,1.106,0,0,1,17,20.278Z" fill="#1d4c4f"/>
</svg>
