<svg xmlns="http://www.w3.org/2000/svg" width="50" height="50" viewBox="0 0 50 50">
  <g id="comprehensive-solutions" transform="translate(-556 -188)">
    <g id="lamp-charge" transform="translate(556 188)">
      <path id="Vector" d="M3.849,13.428a1.374,1.374,0,0,1-.741-.2,1.511,1.511,0,0,1-.561-2.042l1.7-2.963H2.567A2.538,2.538,0,0,1,.3,7.041,2.515,2.515,0,0,1,.4,4.478L2.547.754a1.5,1.5,0,1,1,2.6,1.482l-1.7,2.984H5.13A2.538,2.538,0,0,1,7.393,6.4a2.515,2.515,0,0,1-.1,2.563L5.151,12.688A1.494,1.494,0,0,1,3.849,13.428Z" transform="translate(21.151 15.107)" fill="#292d32"/>
      <path id="Vector-2" data-name="Vector" d="M24.11,37.009H12.457a4.091,4.091,0,0,1-2.9-.861,2.792,2.792,0,0,1-.719-2.283V32.083C3.511,28.719,0,22.872,0,17.306A16.931,16.931,0,0,1,6.831,3.81,19.2,19.2,0,0,1,22.418.426,17.948,17.948,0,0,1,34.642,9.376c4.589,8.75.169,18.221-6.895,22.727v1.5a3.079,3.079,0,0,1-.825,2.483A4.012,4.012,0,0,1,24.11,37.009ZM11.992,33.985c.106,0,.254.02.444.02H24.11a2.029,2.029,0,0,0,.444-.04V31.242a1.49,1.49,0,0,1,.761-1.282c6.26-3.584,10.405-11.774,6.45-19.283A14.736,14.736,0,0,0,21.7,3.329a15.913,15.913,0,0,0-12.922,2.8A14,14,0,0,0,3.13,17.306c0,5.567,4.061,10.372,8.079,12.675a1.47,1.47,0,0,1,.761,1.282v2.7C11.992,33.965,11.992,33.965,11.992,33.985Z" transform="translate(6.748 2.538)" fill="#dd1828"/>
      <path id="Vector-3" data-name="Vector" d="M15.54,4a1.524,1.524,0,0,1-.42-.06,23.841,23.841,0,0,0-13.2,0A1.521,1.521,0,0,1,.062,2.9,1.5,1.5,0,0,1,1.1,1.036a27.075,27.075,0,0,1,14.837,0A1.512,1.512,0,0,1,16.982,2.9,1.473,1.473,0,0,1,15.54,4Z" transform="translate(16.467 43.497)" fill="#292d32"/>
      <path id="Vector-4" data-name="Vector" d="M0,0H50V50H0Z" fill="none" opacity="0"/>
    </g>
  </g>
</svg>
