<svg xmlns="http://www.w3.org/2000/svg" width="50" height="50" viewBox="0 0 50 50">
  <g id="confidentiality" transform="translate(-487 -293)">
    <g id="vuesax_outline_shield" data-name="vuesax/outline/shield" transform="translate(487 293)">
      <g id="shield">
        <path id="Vector" d="M19.377,44.712a10.526,10.526,0,0,1-6.259-1.975L4.207,36.064A11.661,11.661,0,0,1,0,27.665V12.2A8.749,8.749,0,0,1,5.347,4.464L15.688.577a11.951,11.951,0,0,1,7.336,0L33.366,4.464A8.749,8.749,0,0,1,38.713,12.2V27.644a11.624,11.624,0,0,1-4.207,8.4l-8.911,6.673A10.2,10.2,0,0,1,19.377,44.712Zm-2.591-41.2L6.445,7.4a5.7,5.7,0,0,0-3.316,4.823V27.665a8.6,8.6,0,0,0,2.943,5.9l8.911,6.673a7.9,7.9,0,0,0,8.808,0L32.7,33.569a8.563,8.563,0,0,0,2.943-5.9V12.2A5.749,5.749,0,0,0,32.33,7.375L21.988,3.487A9.045,9.045,0,0,0,16.787,3.508Z" transform="translate(5.622 2.657)" fill="#dd1828"/>
        <path id="Vector-2" data-name="Vector" d="M0,0H50V50H0Z" fill="none" opacity="0"/>
      </g>
    </g>
    <path id="Vector-3" data-name="Vector" d="M8.852,7.212a.991.991,0,0,1-.984-.984V4.918C7.868,3,7.4,1.967,4.918,1.967S1.967,3,1.967,4.918V6.229a.991.991,0,0,1-.984.984A.991.991,0,0,1,0,6.229V4.918C0,3.7,0,0,4.918,0S9.835,3.7,9.835,4.918V6.229A.991.991,0,0,1,8.852,7.212Z" transform="translate(507.082 309.038)" fill="#292d32"/>
    <path id="Vector-4" data-name="Vector" d="M10.819,9.835H4.262C1.115,9.835,0,8.72,0,5.573V4.262C0,1.115,1.115,0,4.262,0h6.557c3.147,0,4.262,1.115,4.262,4.262V5.573C15.081,8.72,13.966,9.835,10.819,9.835ZM4.262,1.967c-2.085,0-2.295.21-2.295,2.295V5.573c0,2.085.21,2.295,2.295,2.295h6.557c2.085,0,2.295-.21,2.295-2.295V4.262c0-2.085-.21-2.295-2.295-2.295Z" transform="translate(504.46 315.126)" fill="#292d32"/>
  </g>
</svg>
