<svg xmlns="http://www.w3.org/2000/svg" width="43.087" height="37.587" viewBox="0 0 43.087 37.587">
  <g id="Group_3455" data-name="Group 3455" transform="translate(10.348 -170.921)">
    <path id="Path_12568" data-name="Path 12568" d="M26.32,179.19H-7.57c-.008.162-.023.313-.023.464q0,6.421,0,12.841A2.048,2.048,0,0,0-5.3,194.764q6.335,0,12.67,0A1.367,1.367,0,0,1,8.9,196.048,1.345,1.345,0,0,1,7.75,197.48a2.438,2.438,0,0,1-.427.031q-6.378,0-12.755,0a4.705,4.705,0,0,1-4.792-3.8,6.391,6.391,0,0,1-.114-1.322q-.012-6.85,0-13.7c0-.959-.011-1.918,0-2.877a4.758,4.758,0,0,1,4.932-4.886q5.283-.01,10.565,0,9.491,0,18.983,0a4.711,4.711,0,0,1,4.795,3.691,4.485,4.485,0,0,1,.128,1.018q.015,4.724.005,9.448a1.372,1.372,0,0,1-2.714.334,2.765,2.765,0,0,1-.032-.555C26.319,182.986,26.32,181.112,26.32,179.19Zm-.044-2.787a2.181,2.181,0,0,0-2.321-2.748c-9.776.034-19.553.016-29.329.018a2.1,2.1,0,0,0-2.156,2.73Z" fill="#dd1928"/>
    <path id="Path_12569" data-name="Path 12569" d="M202.791,325.481a10.544,10.544,0,1,1-10.563-10.536A10.57,10.57,0,0,1,202.791,325.481Zm-10.481.778c-.081-.019-.1-.018-.107-.026-.559-.552-1.115-1.109-1.678-1.657a1.373,1.373,0,1,0-1.949,1.93q1.31,1.329,2.638,2.639a1.357,1.357,0,0,0,2.052.012q1.8-1.779,3.575-3.583a1.632,1.632,0,0,0,.384-.652,1.331,1.331,0,0,0-.634-1.542,1.355,1.355,0,0,0-1.656.234C194.052,324.49,193.183,325.38,192.31,326.26Z" transform="translate(-170.052 -127.526)" fill="#dd1928"/>
    <path id="Path_12570" data-name="Path 12570" d="M26.814,341.661c-1.186,0-2.373,0-3.559,0a1.377,1.377,0,1,1-.015-2.744q3.559-.013,7.118,0a1.376,1.376,0,1,1-.027,2.745C29.158,341.666,27.986,341.661,26.814,341.661Z" transform="translate(-28.428 -148.745)"/>
    <path id="Path_12571" data-name="Path 12571" d="M24.982,298.983c.586,0,1.173-.006,1.759,0a1.374,1.374,0,1,1,.014,2.745q-1.78.014-3.561,0a1.374,1.374,0,1,1-.014-2.745C23.781,298.976,24.381,298.983,24.982,298.983Z" transform="translate(-28.432 -113.39)"/>
    <path id="Path_12572" data-name="Path 12572" d="M47.472,197.535H13.666a2.1,2.1,0,0,1,2.156-2.73c9.776,0,19.553.016,29.329-.018A2.181,2.181,0,0,1,47.472,197.535Z" transform="translate(-21.196 -21.132)" fill="#fff"/>
  </g>
</svg>
