<svg xmlns="http://www.w3.org/2000/svg" width="38.448" height="47.353" viewBox="0 0 38.448 47.353">
  <g id="Group_3451" data-name="Group 3451" transform="translate(44.871 -56.75)">
    <path id="Path_12563" data-name="Path 12563" d="M-37.858,293.4a8.948,8.948,0,0,1-.98-.741c-1.831-1.809-3.647-3.634-5.466-5.455a1.428,1.428,0,0,1,.011-2.287c.653-.655,1.291-1.326,1.969-1.954a1.257,1.257,0,0,0,.429-1.047,7.239,7.239,0,0,1,2.311-5.637,7.205,7.205,0,0,1,5.073-2c1.9-.013,3.792-.009,5.688,0a4.361,4.361,0,0,1,4.335,5.75c-.012.042-.015.086-.033.187a3.027,3.027,0,0,0,1.971-.36c2.991-2.146,6.013-4.25,9.043-6.343A4.441,4.441,0,0,1-6.846,275.3a6.643,6.643,0,0,1,.4,1.6,1.491,1.491,0,0,1-.492,1.334q-5.824,5.816-11.639,11.642a1.862,1.862,0,0,1-1.41.559c-4.516-.009-9.033,0-13.549-.012a1,1,0,0,0-.8.335c-.605.636-1.224,1.261-1.863,1.864a11.825,11.825,0,0,1-1.012.775Zm.372-3.388c.532-.535,1.087-1.048,1.588-1.611a2.192,2.192,0,0,1,1.791-.755c4.469.025,8.938.016,13.407,0a1,1,0,0,0,.645-.24q5.28-5.246,10.541-10.511a.43.43,0,0,0,.061-.632,1.716,1.716,0,0,0-2.576-.414q-4.791,3.347-9.573,6.709a2.343,2.343,0,0,1-1.419.446c-3.252-.01-6.5,0-9.755-.007a3.078,3.078,0,0,1-.6-.046,1.352,1.352,0,0,1-1.081-1.273,1.374,1.374,0,0,1,1.494-1.45c1.433-.011,2.867.013,4.3-.012a1.566,1.566,0,0,0,1.623-1.6,1.59,1.59,0,0,0-1.655-1.571c-1.957-.013-3.915-.029-5.871,0a4.487,4.487,0,0,0-4.438,3.6,9.815,9.815,0,0,0-.115,2.116,1.942,1.942,0,0,1-.65,1.558c-.595.552-1.16,1.134-1.721,1.686Z" transform="translate(0 -189.297)" fill="#dd1928"/>
    <path id="Path_12564" data-name="Path 12564" d="M23.018,56.75c.974.213,1.973.349,2.918.652a12.485,12.485,0,1,1-5.677-.535c.242-.036.483-.078.725-.117ZM12.247,69.3a9.753,9.753,0,1,0,9.7-9.774A9.767,9.767,0,0,0,12.247,69.3Z" transform="translate(-47.65)" fill="#dd1928"/>
    <path id="Path_12565" data-name="Path 12565" d="M84.471,118.459a4.466,4.466,0,0,1-.42.846q-2.9,3.658-5.825,7.291a1.388,1.388,0,1,1-2.158-1.732q2.894-3.631,5.8-7.252A1.382,1.382,0,0,1,83.5,117.1,1.561,1.561,0,0,1,84.471,118.459Z" transform="translate(-105.697 -52.823)"/>
    <path id="Path_12566" data-name="Path 12566" d="M71.053,119.739a1.37,1.37,0,0,1-1.359-1.4,1.4,1.4,0,0,1,1.4-1.37,1.421,1.421,0,0,1,1.37,1.41A1.387,1.387,0,0,1,71.053,119.739Z" transform="translate(-100.437 -52.796)"/>
    <path id="Path_12567" data-name="Path 12567" d="M131.219,177.343a1.367,1.367,0,0,1,1.4,1.358,1.4,1.4,0,0,1-1.362,1.409,1.424,1.424,0,0,1-1.408-1.372A1.389,1.389,0,0,1,131.219,177.343Z" transform="translate(-153.172 -105.722)"/>
  </g>
</svg>
