<svg xmlns="http://www.w3.org/2000/svg" width="40.177" height="37" viewBox="0 0 40.177 37">
  <g id="Group_3456" data-name="Group 3456" transform="translate(-64.491 38.454)">
    <path id="Path_12573" data-name="Path 12573" d="M101.961-10.2c.055.117.111.241.172.363.709,1.421,1.372,2.866,2.138,4.255a2.747,2.747,0,0,1-2.527,4.128c-4.657-.057-9.315-.016-13.972-.018a2.684,2.684,0,0,1-2.5-4.061c.668-1.347,1.345-2.69,2.017-4.035.066-.133.127-.268.214-.453H86.94q-9.12,0-18.24,0a4.018,4.018,0,0,1-4.08-3.053,4.732,4.732,0,0,1-.123-1.117q-.011-10.04,0-20.08a4.015,4.015,0,0,1,4.165-4.168q15.959-.013,31.919-.012a4.008,4.008,0,0,1,4.082,4.109c0,6.624-.014,13.247.009,19.871a4.144,4.144,0,0,1-2.625,4.2C102.018-10.263,102-10.237,101.961-10.2ZM81.4-35.745c-.176-.008-.312-.02-.448-.02q-6.107,0-12.215,0A1.377,1.377,0,0,0,67.17-34.2q0,9.956,0,19.912A1.394,1.394,0,0,0,68.762-12.7q9.83,0,19.661.008a.569.569,0,0,0,.6-.369q1.607-3.257,3.245-6.5a3.667,3.667,0,0,1,.435-.709,2.677,2.677,0,0,1,4.494.536q1.7,3.343,3.348,6.713c.153.311.319.323.586.215a1.383,1.383,0,0,0,.848-1.4q0-7.258,0-14.516c0-.133-.014-.266-.024-.428h-.534q-7.843,0-15.687,0a5.658,5.658,0,0,1-1.041-.065,3.993,3.993,0,0,1-3.3-3.961C81.388-34.025,81.4-34.872,81.4-35.745ZM94.775-18.52,87.582-4.18h14.386Zm7.206-13.307c0-.792,0-1.542,0-2.291,0-1.126-.5-1.626-1.632-1.627H84.074c0,.815,0,1.567,0,2.318,0,1.11.491,1.6,1.609,1.6h16.3Z" fill="#dd1928"/>
    <path id="Path_12574" data-name="Path 12574" d="M102.726-14.344c0,.873-.008,1.72,0,2.567a3.993,3.993,0,0,0,3.3,3.961,5.658,5.658,0,0,0,1.041.065q7.843.006,15.687,0h.534c.009.161.024.295.024.428q0,7.258,0,14.516a1.383,1.383,0,0,1-.848,1.4c-.267.108-.433.1-.586-.215q-1.653-3.367-3.348-6.713a2.677,2.677,0,0,0-4.494-.536,3.666,3.666,0,0,0-.435.709q-1.632,3.244-3.245,6.5a.569.569,0,0,1-.6.369q-9.83-.014-19.661-.008A1.394,1.394,0,0,1,88.5,7.115q0-9.956,0-19.912a1.377,1.377,0,0,1,1.564-1.568q6.107,0,12.215,0C102.414-14.364,102.549-14.352,102.726-14.344Zm-4.91,5.253a1.467,1.467,0,0,0,1.472-1.451A1.488,1.488,0,0,0,97.8-12.025a1.47,1.47,0,0,0-1.441,1.483A1.443,1.443,0,0,0,97.816-9.091Zm-3.684-1.443A1.471,1.471,0,0,0,92.7-12.025a1.492,1.492,0,0,0-1.5,1.475,1.469,1.469,0,0,0,1.465,1.459A1.441,1.441,0,0,0,94.131-10.534Z" transform="translate(-21.329 -21.401)" fill="#fff"/>
    <path id="Path_12575" data-name="Path 12575" d="M160.374,9.544a1.443,1.443,0,0,1-1.46-1.452,1.47,1.47,0,0,1,1.441-1.483,1.488,1.488,0,0,1,1.491,1.484A1.467,1.467,0,0,1,160.374,9.544Z" transform="translate(-83.888 -40.036)"/>
    <path id="Path_12576" data-name="Path 12576" d="M115.618,8.1a1.441,1.441,0,0,1-1.469,1.443,1.469,1.469,0,0,1-1.465-1.459,1.492,1.492,0,0,1,1.5-1.475A1.471,1.471,0,0,1,115.618,8.1Z" transform="translate(-42.816 -40.033)"/>
    <path id="Path_12577" data-name="Path 12577" d="M323.938,176.312c0-.641-.006-1.283,0-1.924a1.336,1.336,0,1,1,2.671-.022q.021,1.986,0,3.973a1.336,1.336,0,1,1-2.671-.02C323.931,177.65,323.938,176.981,323.938,176.312Z" transform="translate(-230.497 -187.868)"/>
    <path id="Path_12578" data-name="Path 12578" d="M325.643,238.175a1.463,1.463,0,0,1-1.459,1.463,1.466,1.466,0,1,1,.013-2.933A1.45,1.45,0,0,1,325.643,238.175Z" transform="translate(-229.406 -244.459)"/>
  </g>
</svg>
