<svg xmlns="http://www.w3.org/2000/svg" xmlns:xlink="http://www.w3.org/1999/xlink" width="590.979" height="590.979" viewBox="0 0 590.979 590.979">
  <defs>
    <radialGradient id="radial-gradient" cx="0.561" cy="0.483" r="0.5" gradientUnits="objectBoundingBox">
      <stop offset="0" stop-color="#e2e1e1"/>
      <stop offset="0.837" stop-color="#d1d1d1"/>
      <stop offset="1" stop-color="#fff"/>
    </radialGradient>
  </defs>
  <g id="Group_3458" data-name="Group 3458" transform="translate(-843.691 -2055.244)">
    <g id="Group_3038" data-name="Group 3038" transform="matrix(1, 0, 0, 1, -9501.308, -9095.755)">
      <path id="Ellipse_387" data-name="Ellipse 387" d="M295.489,1.057A296.61,296.61,0,0,0,236.15,7.039a292.814,292.814,0,0,0-105.28,44.3A295.3,295.3,0,0,0,24.195,180.883,292.942,292.942,0,0,0,7.039,236.15a297.313,297.313,0,0,0,0,118.679,292.813,292.813,0,0,0,44.3,105.28A295.3,295.3,0,0,0,180.883,566.784,292.94,292.94,0,0,0,236.15,583.94a297.311,297.311,0,0,0,118.679,0,292.811,292.811,0,0,0,105.28-44.3A295.3,295.3,0,0,0,566.784,410.1a292.94,292.94,0,0,0,17.156-55.266,297.311,297.311,0,0,0,0-118.679,292.811,292.811,0,0,0-44.3-105.28A295.295,295.295,0,0,0,410.1,24.195,292.943,292.943,0,0,0,354.829,7.039a296.609,296.609,0,0,0-59.339-5.982m0-1.057C458.684,0,590.979,132.3,590.979,295.489s-132.3,295.489-295.489,295.489S0,458.684,0,295.489,132.3,0,295.489,0Z" transform="translate(10345 11151)" fill="url(#radial-gradient)"/>
      <path id="Ellipse_388" data-name="Ellipse 388" d="M279.631,1.057a280.637,280.637,0,0,0-56.143,5.66,277.044,277.044,0,0,0-99.609,41.916A279.39,279.39,0,0,0,22.949,171.2a277.163,277.163,0,0,0-16.232,52.29,281.3,281.3,0,0,0,0,112.287,277.044,277.044,0,0,0,41.916,99.609A279.391,279.391,0,0,0,171.2,536.314a277.168,277.168,0,0,0,52.29,16.232,281.3,281.3,0,0,0,112.287,0,277.041,277.041,0,0,0,99.609-41.916,279.391,279.391,0,0,0,100.93-122.565,277.17,277.17,0,0,0,16.232-52.29,281.3,281.3,0,0,0,0-112.287,277.041,277.041,0,0,0-41.916-99.609A279.39,279.39,0,0,0,388.064,22.949a277.164,277.164,0,0,0-52.29-16.232,280.638,280.638,0,0,0-56.143-5.66m0-1.057C434.067,0,559.263,125.2,559.263,279.631s-125.2,279.631-279.631,279.631S0,434.067,0,279.631,125.2,0,279.631,0Z" transform="translate(10360.857 11166.857)" fill="url(#radial-gradient)"/>
      <path id="Ellipse_389" data-name="Ellipse 389" d="M260.6,1.057A261.47,261.47,0,0,0,208.293,6.33a258.116,258.116,0,0,0-92.8,39.052A260.306,260.306,0,0,0,21.453,159.575,258.232,258.232,0,0,0,6.33,208.293a262.085,262.085,0,0,0,0,104.617,258.115,258.115,0,0,0,39.052,92.8A260.306,260.306,0,0,0,159.575,499.75a258.235,258.235,0,0,0,48.718,15.123,262.083,262.083,0,0,0,104.617,0,258.113,258.113,0,0,0,92.8-39.052A260.306,260.306,0,0,0,499.75,361.628a258.234,258.234,0,0,0,15.123-48.718,262.083,262.083,0,0,0,0-104.617,258.113,258.113,0,0,0-39.052-92.8A260.306,260.306,0,0,0,361.628,21.453,258.231,258.231,0,0,0,312.91,6.33,261.469,261.469,0,0,0,260.6,1.057M260.6,0C404.528,0,521.2,116.675,521.2,260.6S404.528,521.2,260.6,521.2,0,404.528,0,260.6,116.675,0,260.6,0Z" transform="translate(10379.89 11185.89)" fill="url(#radial-gradient)"/>
      <path id="Ellipse_390" data-name="Ellipse 390" d="M240.515,1.057a241.231,241.231,0,0,0-48.26,4.865,238.138,238.138,0,0,0-85.622,36.03A240.16,240.16,0,0,0,19.875,147.307,238.248,238.248,0,0,0,5.922,192.254a241.8,241.8,0,0,0,0,96.52A238.139,238.139,0,0,0,41.952,374.4a240.16,240.16,0,0,0,105.355,86.758,238.249,238.249,0,0,0,44.947,13.952,241.8,241.8,0,0,0,96.52,0,238.14,238.14,0,0,0,85.622-36.03,240.16,240.16,0,0,0,86.758-105.355,238.249,238.249,0,0,0,13.952-44.947,241.8,241.8,0,0,0,0-96.52,238.139,238.139,0,0,0-36.03-85.622A240.16,240.16,0,0,0,333.722,19.875,238.248,238.248,0,0,0,288.775,5.922a241.231,241.231,0,0,0-48.26-4.865m0-1.057C373.347,0,481.029,107.682,481.029,240.515S373.347,481.029,240.515,481.029,0,373.347,0,240.515,107.682,0,240.515,0Z" transform="translate(10399.975 11205.975)" fill="url(#radial-gradient)"/>
      <path id="Ellipse_391" data-name="Ellipse 391" d="M220.428,1.057a221,221,0,0,0-44.212,4.457A218.16,218.16,0,0,0,97.776,38.522,220.015,220.015,0,0,0,18.3,135.039,218.261,218.261,0,0,0,5.514,176.216a221.518,221.518,0,0,0,0,88.424,218.161,218.161,0,0,0,33.008,78.44,220.015,220.015,0,0,0,96.517,79.48,218.259,218.259,0,0,0,41.177,12.782,221.515,221.515,0,0,0,88.424,0,218.159,218.159,0,0,0,78.44-33.008,220.015,220.015,0,0,0,79.48-96.517,218.258,218.258,0,0,0,12.782-41.177,221.515,221.515,0,0,0,0-88.424,218.159,218.159,0,0,0-33.008-78.439A220.014,220.014,0,0,0,305.816,18.3,218.26,218.26,0,0,0,264.64,5.514a221,221,0,0,0-44.212-4.457m0-1.057C342.167,0,440.855,98.689,440.855,220.428S342.167,440.855,220.428,440.855,0,342.167,0,220.428,98.689,0,220.428,0Z" transform="translate(10420.062 11226.062)" fill="url(#radial-gradient)"/>
      <path id="Ellipse_392" data-name="Ellipse 392" d="M202.455,1.057a202.89,202.89,0,0,0-40.59,4.092,200.29,200.29,0,0,0-72.013,30.3,201.989,201.989,0,0,0-72.969,88.61,200.373,200.373,0,0,0-11.735,37.8,203.372,203.372,0,0,0,0,81.18,200.29,200.29,0,0,0,30.3,72.013,201.989,201.989,0,0,0,88.61,72.969,200.369,200.369,0,0,0,37.8,11.735,203.373,203.373,0,0,0,81.18,0,200.289,200.289,0,0,0,72.013-30.3,201.989,201.989,0,0,0,72.969-88.61,200.371,200.371,0,0,0,11.735-37.8,203.373,203.373,0,0,0,0-81.18,200.289,200.289,0,0,0-30.3-72.013,201.989,201.989,0,0,0-88.61-72.969,200.374,200.374,0,0,0-37.8-11.735,202.891,202.891,0,0,0-40.59-4.092m0-1.057C314.268,0,404.91,90.642,404.91,202.455S314.268,404.91,202.455,404.91,0,314.268,0,202.455,90.642,0,202.455,0Z" transform="translate(10438.035 11244.035)" fill="url(#radial-gradient)"/>
      <path id="Ellipse_393" data-name="Ellipse 393" d="M183.425,1.057a183.724,183.724,0,0,0-36.755,3.705A181.364,181.364,0,0,0,81.462,32.2,182.9,182.9,0,0,0,15.388,112.44,181.444,181.444,0,0,0,4.762,146.671a184.158,184.158,0,0,0,0,73.509A181.365,181.365,0,0,0,32.2,285.388a182.9,182.9,0,0,0,80.238,66.074,181.442,181.442,0,0,0,34.231,10.626,184.157,184.157,0,0,0,73.509,0,181.365,181.365,0,0,0,65.208-27.44,182.9,182.9,0,0,0,66.074-80.238,181.443,181.443,0,0,0,10.626-34.231,184.157,184.157,0,0,0,0-73.509,181.365,181.365,0,0,0-27.44-65.208,182.9,182.9,0,0,0-80.238-66.074A181.444,181.444,0,0,0,220.18,4.762a183.725,183.725,0,0,0-36.755-3.705m0-1.057A183.425,183.425,0,1,1,0,183.425,183.425,183.425,0,0,1,183.425,0Z" transform="translate(10457.063 11263.063)" fill="url(#radial-gradient)"/>
      <path id="Ellipse_394" data-name="Ellipse 394" d="M166.51,1.057a166.682,166.682,0,0,0-33.346,3.361A164.54,164.54,0,0,0,74,29.313a165.939,165.939,0,0,0-59.946,72.8,164.611,164.611,0,0,0-9.64,31.056,167.077,167.077,0,0,0,0,66.691,164.54,164.54,0,0,0,24.895,59.16,165.939,165.939,0,0,0,72.8,59.946,164.609,164.609,0,0,0,31.056,9.64,167.077,167.077,0,0,0,66.691,0,164.54,164.54,0,0,0,59.16-24.895,165.94,165.94,0,0,0,59.946-72.8,164.61,164.61,0,0,0,9.64-31.056,167.077,167.077,0,0,0,0-66.691A164.541,164.541,0,0,0,303.707,74a165.94,165.94,0,0,0-72.8-59.946,164.612,164.612,0,0,0-31.056-9.64A166.682,166.682,0,0,0,166.51,1.057m0-1.057A166.51,166.51,0,1,1,0,166.51,166.51,166.51,0,0,1,166.51,0Z" transform="translate(10473.979 11279.979)" fill="url(#radial-gradient)"/>
      <path id="Ellipse_395" data-name="Ellipse 395" d="M150.652,1.057A150.706,150.706,0,0,0,120.5,4.1,148.768,148.768,0,0,0,67.013,26.605a150.035,150.035,0,0,0-54.2,65.818A148.835,148.835,0,0,0,4.1,120.5a151.064,151.064,0,0,0,0,60.3,148.768,148.768,0,0,0,22.509,53.489,150.036,150.036,0,0,0,65.818,54.2,148.834,148.834,0,0,0,28.079,8.716,151.064,151.064,0,0,0,60.3,0A148.768,148.768,0,0,0,234.291,274.7a150.036,150.036,0,0,0,54.2-65.818,148.835,148.835,0,0,0,8.716-28.079,151.064,151.064,0,0,0,0-60.3A148.768,148.768,0,0,0,274.7,67.013a150.035,150.035,0,0,0-65.818-54.2A148.835,148.835,0,0,0,180.8,4.1a150.706,150.706,0,0,0-30.15-3.039m0-1.057A150.652,150.652,0,1,1,0,150.652,150.652,150.652,0,0,1,150.652,0Z" transform="translate(10489.838 11295.838)" fill="url(#radial-gradient)"/>
      <path id="Ellipse_396" data-name="Ellipse 396" d="M134.794,1.057A134.732,134.732,0,0,0,107.84,3.774,133,133,0,0,0,60.021,23.9,134.13,134.13,0,0,0,11.566,82.738a133.057,133.057,0,0,0-7.792,25.1,135.052,135.052,0,0,0,0,53.907A133,133,0,0,0,23.9,209.567a134.131,134.131,0,0,0,58.841,48.455,133.056,133.056,0,0,0,25.1,7.792,135.053,135.053,0,0,0,53.907,0,133,133,0,0,0,47.819-20.122,134.13,134.13,0,0,0,48.455-58.841,133.056,133.056,0,0,0,7.792-25.1,135.053,135.053,0,0,0,0-53.907,133,133,0,0,0-20.122-47.819A134.13,134.13,0,0,0,186.85,11.566a133.056,133.056,0,0,0-25.1-7.792,134.732,134.732,0,0,0-26.954-2.717m0-1.057A134.794,134.794,0,1,1,0,134.794,134.794,134.794,0,0,1,134.794,0Z" transform="translate(10505.694 11311.694)" fill="url(#radial-gradient)"/>
      <path id="Ellipse_397" data-name="Ellipse 397" d="M118.936,1.057A118.755,118.755,0,0,0,95.178,3.452,117.228,117.228,0,0,0,53.03,21.188,118.226,118.226,0,0,0,10.32,73.052,117.279,117.279,0,0,0,3.452,95.178a119.039,119.039,0,0,0,0,47.516,117.227,117.227,0,0,0,17.736,42.149,118.226,118.226,0,0,0,51.864,42.709,117.281,117.281,0,0,0,22.126,6.868,119.039,119.039,0,0,0,47.516,0,117.227,117.227,0,0,0,42.149-17.736,118.226,118.226,0,0,0,42.709-51.864,117.281,117.281,0,0,0,6.868-22.126,119.039,119.039,0,0,0,0-47.516A117.228,117.228,0,0,0,216.683,53.03,118.226,118.226,0,0,0,164.819,10.32a117.279,117.279,0,0,0-22.126-6.868,118.755,118.755,0,0,0-23.758-2.395m0-1.057A118.936,118.936,0,1,1,0,118.936,118.936,118.936,0,0,1,118.936,0Z" transform="translate(10521.553 11327.553)" fill="url(#radial-gradient)"/>
      <path id="Ellipse_398" data-name="Ellipse 398" d="M99.906,1.057A99.585,99.585,0,0,0,79.983,3.065,98.3,98.3,0,0,0,44.639,17.938,99.14,99.14,0,0,0,8.825,61.43,98.344,98.344,0,0,0,3.065,79.983a99.823,99.823,0,0,0,0,39.845,98.3,98.3,0,0,0,14.873,35.344A99.141,99.141,0,0,0,61.43,190.987a98.345,98.345,0,0,0,18.554,5.759,99.824,99.824,0,0,0,39.845,0,98.3,98.3,0,0,0,35.344-14.873,99.141,99.141,0,0,0,35.815-43.492,98.345,98.345,0,0,0,5.759-18.554,99.824,99.824,0,0,0,0-39.845,98.3,98.3,0,0,0-14.873-35.344A99.14,99.14,0,0,0,138.382,8.825a98.344,98.344,0,0,0-18.554-5.759A99.585,99.585,0,0,0,99.906,1.057m0-1.057A99.906,99.906,0,1,1,0,99.906,99.906,99.906,0,0,1,99.906,0Z" transform="translate(10540.584 11346.584)" fill="url(#radial-gradient)"/>
      <path id="Ellipse_399" data-name="Ellipse 399" d="M81.934,1.057A80.494,80.494,0,0,0,36.716,14.869a81.116,81.116,0,0,0-29.3,35.584,80.769,80.769,0,0,0,7.457,76.7,81.115,81.115,0,0,0,35.584,29.3,80.769,80.769,0,0,0,76.7-7.457,81.115,81.115,0,0,0,29.3-35.584A80.769,80.769,0,0,0,149,36.716a81.116,81.116,0,0,0-35.584-29.3,80.369,80.369,0,0,0-31.48-6.355m0-1.057A81.934,81.934,0,1,1,0,81.934,81.934,81.934,0,0,1,81.934,0Z" transform="translate(10558.555 11364.555)" fill="url(#radial-gradient)"/>
      <path id="Ellipse_400" data-name="Ellipse 400" d="M66.075,1.057a64.71,64.71,0,0,0-36.352,11.1A65.211,65.211,0,0,0,6.166,40.768a64.931,64.931,0,0,0,5.994,61.659,65.211,65.211,0,0,0,28.607,23.558,64.931,64.931,0,0,0,61.659-5.994,65.211,65.211,0,0,0,23.558-28.607,64.931,64.931,0,0,0-5.994-61.659A65.211,65.211,0,0,0,91.383,6.166,64.61,64.61,0,0,0,66.075,1.057m0-1.057A66.075,66.075,0,1,1,0,66.075,66.075,66.075,0,0,1,66.075,0Z" transform="translate(10574.414 11380.414)" fill="url(#radial-gradient)"/>
      <path id="Ellipse_401" data-name="Ellipse 401" d="M51.275,1.057A50.231,50.231,0,0,0,31.728,97.546,50.231,50.231,0,0,0,70.821,5,49.9,49.9,0,0,0,51.275,1.057m0-1.057A51.275,51.275,0,1,1,0,51.275,51.275,51.275,0,0,1,51.275,0Z" transform="translate(10589.214 11395.214)" fill="url(#radial-gradient)"/>
      <path id="Ellipse_402" data-name="Ellipse 402" d="M34.359,1.057A33.311,33.311,0,0,0,21.4,65.045,33.311,33.311,0,0,0,47.322,3.674,33.093,33.093,0,0,0,34.359,1.057m0-1.057A34.359,34.359,0,1,1,0,34.359,34.359,34.359,0,0,1,34.359,0Z" transform="translate(10606.132 11412.132)" fill="url(#radial-gradient)"/>
    </g>
  </g>
</svg>
