<svg xmlns="http://www.w3.org/2000/svg" xmlns:xlink="http://www.w3.org/1999/xlink" width="197.625" height="167.867" viewBox="0 0 197.625 167.867">
  <defs>
    <linearGradient id="linear-gradient" x1="0.939" y1="-0.007" x2="0.362" y2="0.865" gradientUnits="objectBoundingBox">
      <stop offset="0" stop-color="#db242a"/>
      <stop offset="1" stop-color="#e58924"/>
    </linearGradient>
    <linearGradient id="linear-gradient-2" x1="0.516" y1="-0.648" x2="0.492" y2="1.065" xlink:href="#linear-gradient"/>
    <linearGradient id="linear-gradient-3" x1="0.517" y1="-0.779" x2="0.493" y2="1.005" xlink:href="#linear-gradient"/>
    <linearGradient id="linear-gradient-4" x1="0.995" y1="0.958" x2="0.365" y2="0.411" xlink:href="#linear-gradient"/>
    <linearGradient id="linear-gradient-5" x1="0.026" y1="1.131" x2="0.456" y2="0.256" xlink:href="#linear-gradient"/>
  </defs>
  <g id="Group_1608" data-name="Group 1608" transform="translate(-54.528 -334.713)">
    <g id="Group_1604" data-name="Group 1604" transform="translate(54.944 463.947)">
      <g id="Group_1603" data-name="Group 1603" transform="translate(0 0)">
        <path id="Path_8341" data-name="Path 8341" d="M-38.2,0l4.62-23.1H-21.9a10.556,10.556,0,0,1,5.973,1.4,4.57,4.57,0,0,1,2.046,4.01,5.627,5.627,0,0,1-1.188,3.63,7.4,7.4,0,0,1-3.2,2.26,12.493,12.493,0,0,1-4.521.776l.924-1.584A8.389,8.389,0,0,1-16.78-11.22,4.557,4.557,0,0,1-14.9-7.326,6.069,6.069,0,0,1-16.3-3.2,8.371,8.371,0,0,1-20.1-.792a17.122,17.122,0,0,1-5.4.792Zm7.392-4.719h5.676a4.729,4.729,0,0,0,2.722-.693A2.324,2.324,0,0,0-21.4-7.458a1.607,1.607,0,0,0-.759-1.485,3.7,3.7,0,0,0-1.947-.462h-6.3l.891-4.521h5.247a5.719,5.719,0,0,0,1.964-.3,2.373,2.373,0,0,0,1.2-.891,2.559,2.559,0,0,0,.4-1.452,1.487,1.487,0,0,0-.726-1.386,3.968,3.968,0,0,0-2.013-.429h-4.62ZM-.016.462a13.441,13.441,0,0,1-6.138-1.3,9.568,9.568,0,0,1-3.96-3.58A9.952,9.952,0,0,1-11.5-9.7a14.27,14.27,0,0,1,1.056-5.561,13.131,13.131,0,0,1,2.97-4.389A13.324,13.324,0,0,1-2.9-22.539a16.078,16.078,0,0,1,5.824-1.023,13.441,13.441,0,0,1,6.138,1.3,9.568,9.568,0,0,1,3.96,3.58A9.952,9.952,0,0,1,14.4-13.4a14.27,14.27,0,0,1-1.056,5.561,13.131,13.131,0,0,1-2.97,4.389A13.324,13.324,0,0,1,5.808-.561,16.078,16.078,0,0,1-.016.462ZM.545-4.95A7.107,7.107,0,0,0,3.6-5.577,6.5,6.5,0,0,0,5.874-7.343,8.164,8.164,0,0,0,7.31-9.933,9.446,9.446,0,0,0,7.8-13a5.47,5.47,0,0,0-.644-2.706,4.482,4.482,0,0,0-1.848-1.8A6.2,6.2,0,0,0,2.36-18.15a7.137,7.137,0,0,0-3.036.627A6.458,6.458,0,0,0-2.97-15.758a8.164,8.164,0,0,0-1.436,2.59A9.446,9.446,0,0,0-4.9-10.1a5.5,5.5,0,0,0,.644,2.689A4.454,4.454,0,0,0-2.409-5.594,6.2,6.2,0,0,0,.545-4.95ZM12.524,0,25.262-13.86,24.5-10.1l-6.9-13h6.963l4.422,8.679H26.12L33.809-23.1H41.2L29.255-10.032l.231-3.7L36.944,0H29.882l-4.62-9.141,2.97.066L20.345,0Z" transform="translate(156.008 32.171)" fill="#020428"/>
        <path id="Path_8340" data-name="Path 8340" d="M-50.473.33a16.781,16.781,0,0,1-3.514-.363,16.282,16.282,0,0,1-3.1-.974,9.838,9.838,0,0,1-2.326-1.37L-57.6-5.742a9.835,9.835,0,0,0,2.178,1.353,12.56,12.56,0,0,0,2.59.858,12.965,12.965,0,0,0,2.756.3,9.782,9.782,0,0,0,2.937-.4A4.38,4.38,0,0,0-45.21-4.752,2.474,2.474,0,0,0-44.534-6.5,1.947,1.947,0,0,0-45.16-8a4.922,4.922,0,0,0-1.667-.957q-1.04-.38-2.277-.726t-2.491-.792A10.45,10.45,0,0,1-53.872-11.6a5.452,5.452,0,0,1-1.667-1.733,4.994,4.994,0,0,1-.644-2.64,6.317,6.317,0,0,1,1.271-3.943,8.232,8.232,0,0,1,3.531-2.59,13.841,13.841,0,0,1,5.263-.924,17.774,17.774,0,0,1,4.257.495A11.035,11.035,0,0,1-38.4-21.483l-1.683,3.4a10.293,10.293,0,0,0-2.9-1.32,12.192,12.192,0,0,0-3.366-.462,9.2,9.2,0,0,0-2.97.429,4.326,4.326,0,0,0-1.914,1.188,2.773,2.773,0,0,0-.693,1.782,1.986,1.986,0,0,0,.627,1.535,5.156,5.156,0,0,0,1.65.974q1.023.4,2.277.742t2.492.776a11.283,11.283,0,0,1,2.293,1.089A5.185,5.185,0,0,1-40.9-9.686a4.7,4.7,0,0,1,.627,2.524A6.387,6.387,0,0,1-41.547-3.2,8.152,8.152,0,0,1-45.111-.594,14.292,14.292,0,0,1-50.473.33Zm20.691-.1A7.213,7.213,0,0,1-33.561-.71a5.159,5.159,0,0,1-2.228-2.739,8.108,8.108,0,0,1-.132-4.405l1.947-9.768h4.125L-31.8-7.953a4.455,4.455,0,0,0,.413,3.35A3.3,3.3,0,0,0-28.43-3.4a5.6,5.6,0,0,0,3.712-1.254,6.35,6.35,0,0,0,2-3.828l1.848-9.141h4.092L-20.279,0h-3.927l.99-5.016.66,1.584A7.682,7.682,0,0,1-25.707-.66,9.469,9.469,0,0,1-29.783.231Zm25.905,0A8.467,8.467,0,0,1-7.705-.577a5.393,5.393,0,0,1-2.442-2.409,8.115,8.115,0,0,1-.759-3.977,14.343,14.343,0,0,1,1.188-5.742,8.785,8.785,0,0,1,3.151-3.779A8.59,8.59,0,0,1-1.732-17.82a8.4,8.4,0,0,1,3.927.907,6.919,6.919,0,0,1,2.789,2.64A7.969,7.969,0,0,1,6.023-10.1,11.139,11.139,0,0,1,5.28-5.973a9.739,9.739,0,0,1-2.1,3.267A9.76,9.76,0,0,1,.033-.544,9.77,9.77,0,0,1-3.877.231ZM-15.823,6.4l4.785-24.024h3.927L-7.9-13.6-8.992-8.91l-.594,4.719L-11.7,6.4ZM-4.207-3.3a5.812,5.812,0,0,0,3.135-.842A6,6,0,0,0,1.073-6.468,7.183,7.183,0,0,0,1.865-9.9,4.3,4.3,0,0,0,.644-13.134a4.716,4.716,0,0,0-3.432-1.188,5.835,5.835,0,0,0-3.119.842,5.963,5.963,0,0,0-2.161,2.326A7.183,7.183,0,0,0-8.86-7.722,4.3,4.3,0,0,0-7.639-4.488,4.716,4.716,0,0,0-4.207-3.3ZM19.091.231a8.467,8.467,0,0,1-3.828-.808,5.393,5.393,0,0,1-2.442-2.409,8.115,8.115,0,0,1-.759-3.977,14.343,14.343,0,0,1,1.188-5.742A8.785,8.785,0,0,1,16.4-16.484a8.59,8.59,0,0,1,4.835-1.337,8.4,8.4,0,0,1,3.927.907,6.919,6.919,0,0,1,2.789,2.64A7.969,7.969,0,0,1,28.991-10.1a11.139,11.139,0,0,1-.743,4.125,9.739,9.739,0,0,1-2.1,3.267A9.76,9.76,0,0,1,23-.544,9.77,9.77,0,0,1,19.091.231ZM7.145,6.4,11.93-17.622h3.927L15.065-13.6,13.976-8.91l-.594,4.719L11.27,6.4ZM18.761-3.3A5.812,5.812,0,0,0,21.9-4.142a6,6,0,0,0,2.145-2.326A7.183,7.183,0,0,0,24.833-9.9a4.3,4.3,0,0,0-1.221-3.234,4.716,4.716,0,0,0-3.432-1.188,5.835,5.835,0,0,0-3.119.842A5.963,5.963,0,0,0,14.9-11.154a7.183,7.183,0,0,0-.792,3.432,4.3,4.3,0,0,0,1.221,3.234A4.716,4.716,0,0,0,18.761-3.3ZM31.4,0l4.884-24.486h4.125L35.525,0ZM41.729,6.633a8.046,8.046,0,0,1-2.59-.429,5.653,5.653,0,0,1-2.029-1.122l2.046-3a4.9,4.9,0,0,0,1.271.809,4.007,4.007,0,0,0,1.633.313,3.2,3.2,0,0,0,1.832-.544A6.137,6.137,0,0,0,45.524.792l1.551-2.409.4-.429,9.7-15.576H61.3L49.154,1.551a18.04,18.04,0,0,1-2.343,3.036,6.746,6.746,0,0,1-2.326,1.584A7.657,7.657,0,0,1,41.729,6.633ZM46.25.627,41.927-17.622h4.125L49.517-2.409Z" transform="translate(59 32)" fill="#e58924"/>
      </g>
    </g>
    <g id="Group_1607" data-name="Group 1607" transform="translate(54.944 334.713)">
      <path id="Path_2299" data-name="Path 2299" d="M200.04,336.554c.478,1.277-1.956,10.784-9.631,22.8-15.033,23.535-39.619,39.435-64.839,45.963-8.866,2.3-18.068,3.775-27.184,2.945-7.033-.639-15.731-2.332-21.355-7.445,0,0,24.306,33.92,80.748,17.891C223.723,399.977,200.041,336.557,200.04,336.554Z" transform="translate(-31.21 -327.685)" fill="url(#linear-gradient)"/>
      <g id="Group_1605" data-name="Group 1605" transform="translate(63.75 92.437)">
        <circle id="Ellipse_299" data-name="Ellipse 299" cx="11.242" cy="11.242" r="11.242" transform="translate(0 15.684) rotate(-44.229)" fill="url(#linear-gradient-2)"/>
        <circle id="Ellipse_300" data-name="Ellipse 300" cx="11.242" cy="11.242" r="11.242" transform="translate(51.389 15.898) rotate(-45)" fill="url(#linear-gradient-3)"/>
      </g>
      <path id="Path_2300" data-name="Path 2300" d="M44.995,325.052s17.232,4.373,22.42,24.238c4.892,18.737,5.926,39.9,33.483,50.9s46.319-7.28,46.319-7.28-20.411,9.731-37.813-12.19C90.98,357.511,98.1,327.137,44.995,325.052Z" transform="translate(-44.995 -325.052)" fill="url(#linear-gradient-4)"/>
      <path id="Path_2302" data-name="Path 2302" d="M135.114,379.174c1.743-.968,3.092-5.253,3.726-7.02a35.074,35.074,0,0,0,1.77-7.844c1.34-11.527-1.456-22.9-5.661-33.569l6.862,1.143c3.473.578,7.045,1.193,10.041,3.043,8.3,5.126,4.009,17.149.954,24.311A41.025,41.025,0,0,1,135.114,379.174Z" transform="translate(-0.745 -330.742)" fill="url(#linear-gradient-5)"/>
    </g>
  </g>
</svg>
