<svg xmlns="http://www.w3.org/2000/svg" xmlns:xlink="http://www.w3.org/1999/xlink" width="612" height="612" viewBox="0 0 612 612">
  <defs>
    <filter id="Ellipse_489" x="0" y="0" width="612" height="612" filterUnits="userSpaceOnUse">
      <feOffset dy="3" input="SourceAlpha"/>
      <feGaussianBlur stdDeviation="7" result="blur"/>
      <feFlood flood-color="#ffcfcf" flood-opacity="0.012"/>
      <feComposite operator="in" in2="blur"/>
      <feComposite in="SourceGraphic"/>
    </filter>
  </defs>
  <g id="codeigniter_2" data-name="codeigniter 2" transform="translate(-4062.228 989.772)">
    <g id="react-native_2" data-name="react-native 2" transform="translate(4083.193 -971.807)">
      <g id="laraval_2" data-name="laraval 2" transform="translate(0 0)">
        <g transform="matrix(1, 0, 0, 1, -20.97, -17.97)" filter="url(#Ellipse_489)">
          <circle id="Ellipse_489-2" data-name="Ellipse 489" cx="285" cy="285" r="285" transform="translate(21 18)" fill="#f8f7f7"/>
        </g>
        <circle id="Ellipse_488" data-name="Ellipse 488" cx="234" cy="234" r="234" transform="translate(51.035 51.035)" fill="#f3f3f3"/>
        <circle id="Ellipse_487" data-name="Ellipse 487" cx="182" cy="182" r="182" transform="translate(103.035 103.035)" fill="#eee"/>
        <path id="Path_19249" data-name="Path 19249" d="M120.543,0A120.543,120.543,0,1,1,0,120.543,120.543,120.543,0,0,1,120.543,0Z" transform="translate(164.492 164.492)" fill="#e9e9e9"/>
      </g>
    </g>
    <path id="codeigniter" d="M13.073,286.445c-5.188,0-6.7-3.02-6.7-7.547a40.25,40.25,0,0,1,.414-5c1.136-7.827,3.9-12.306,10.608-12.306,4.53,0,6.739,2.025,6.739,5.7v1.793h4.494c.049,0,.049-1.65.049-2.027,0-5.375-3.255-10.474-11.273-10.474-10.9,0-15.377,5.919-17.027,17.523A29.772,29.772,0,0,0,0,278.671c0,6.839,2.691,13.061,12.312,13.061a15.387,15.387,0,0,0,14.2-7.951L22.216,280.9c-2.781,4.387-5.8,5.555-9.151,5.555Zm29.48-21.6c-8.728,0-12.5,4.479-13.771,13.392a23.26,23.26,0,0,0-.239,3.116c0,5.752,2.689,10.331,10.139,10.331,8.728,0,12.548-4.671,13.822-13.445a25.651,25.651,0,0,0,.236-3.205c0-5.847-2.779-10.187-10.187-10.187Zm3.626,13.394c-.944,6.464-2.969,8.445-6.791,8.445-3.056,0-4.572-1.275-4.572-5.093a23.6,23.6,0,0,1,.284-3.35c.944-6.414,2.83-8.394,6.7-8.394,3.114,0,4.667,1.273,4.667,5.141a21.846,21.846,0,0,1-.284,3.255Zm28.492-21.188-1.46,8.659c-.093.752-.046.509.239,1.211a10.42,10.42,0,0,0-5.474-1.723c-7.83,0-12.216,3.545-13.628,13.45a19.354,19.354,0,0,0-.236,3.161c0,7.219,4.244,9.91,9.951,9.91,2.409,0,4.766.049,6.6-1.5l.47,2.934h4.53l5.278-36.1H74.664ZM70.192,285.3a10.827,10.827,0,0,1-5.467,1.557c-3.443,0-4.387-1.793-4.387-4.669a28.356,28.356,0,0,1,.34-3.735c1.083-7.5,3.489-8.829,6.6-8.829a9.979,9.979,0,0,1,5.048,1.136L70.2,285.289ZM94.72,264.843c-8.633,0-12.688,4.1-14.056,13.392a26.114,26.114,0,0,0-.238,3.256c0,6.368,3.256,10.187,10.423,10.187,5.567,0,9.722-2.312,11.935-6.559l-4.764-1.925a7.085,7.085,0,0,1-6.46,3.489c-3.489,0-4.9-.939-4.9-4.053a4.6,4.6,0,0,1,.143-1.506h17.024c.239-2.408.518-4.107.518-5.518,0-4.713-1.791-10.757-9.62-10.757Zm3.253,11.465H87.6c1.039-2.407,2.781-6.131,6.368-6.131,2.781,0,4.151,1.626,4.151,4.414a7.253,7.253,0,0,1-.143,1.723Zm24.518-12.032.565-4.813h-13.3l-.564,4.813h3.489l-3.771,24.063h-3.494l-.562,4.813h13.3l.569-4.813h-3.494L119,264.274Zm27.029,7.219,1.7-4.813h-4.574l-3.3.679a13.059,13.059,0,0,0-6.7-2.059c-6.747,0-12.5,3.258-12.5,10.665a7.878,7.878,0,0,0,1.649,4.888,4.39,4.39,0,0,0-2.638,3.715,3.565,3.565,0,0,0,.849,2.231,9.019,9.019,0,0,0-4.572,7.818c0,6.37,6.649,7.73,11.742,7.73,6.414,0,14.056-1.465,14.056-9.626,0-2.781-1.745-4.956-6.791-5.9l-9.1-1.7c-1.037-.19-1.273-.521-1.273-.992a1.007,1.007,0,0,1,1.132-1.083l.615.093a18.636,18.636,0,0,0,4.1.426c6.559,0,12.406-2.832,12.406-10.187a6.681,6.681,0,0,0-.659-2.876,10.254,10.254,0,0,0,2.261.991h1.6Zm-12.968,19.525c1.791.34,2.4.992,2.4,2.17,0,3.822-4.1,4.294-7.073,4.294-4.528,0-6.226-1.083-6.226-3.492a5.791,5.791,0,0,1,2.037-4.623Zm-1.937-12.355c-2.735,0-4.244-.99-4.244-3.35a5.053,5.053,0,0,1,5.567-5.518c2.83,0,4.2,1.18,4.2,3.487,0,3.489-1.985,5.379-5.521,5.379Zm31.662-13.82c-2.642,0-5,1.3-7.924,3.6l-.424-1.767h-5.19l-3.632,26.47h6.273l2.737-20.073c1.84-1.132,4.1-2.774,6.037-2.774,2.357,0,3.209,1.138,3.209,3.306a25,25,0,0,1-.144,2.623l-2.307,16.918h6.282L173.5,276.1c.1-.8.19-2.112.19-2.866,0-4.487-2.122-8.387-7.4-8.387ZM185.6,286.522l.048-.649,2.733-19.185H177.955L177.3,271.5h4.572c-.379,0-.613.421-.659.8l-1.888,12.781a22.14,22.14,0,0,0-.139,2.411,5.109,5.109,0,0,0,5.467,5.666h3.209l.708-4.813h-2.027c-.71,0-.944-1.253-.944-1.818Zm4.054-29.465h-6.131c-.379,0-.379-1.389-.424-.917l-.849,6.781c-.049.426-.049,1.358.329,1.358h6.134c.379,0,.379-1.649.424-2.078l.849-5.234c.048-.472.048.092-.34.092Zm12.793,29.626c-1.553,0-2.311-.66-2.311-2.073l.048-.1,1.981-13.017h7.173l2.168-4.813h-8.677l1.46-10.591-6.6,2.11-1.188,8.48h-3.82l-.659,4.813h4.433c-.424,2.408-.849.849-.895,1.319l-1.7,11.414a6.963,6.963,0,0,0-.093,1.367c0,4.482,3.3,6.158,7.267,6.158a13.511,13.511,0,0,0,8.963-3.01l-2.927-3.6a7.572,7.572,0,0,1-4.626,1.54Zm23.02-21.84c-8.632,0-12.688,4.1-14.056,13.392a26.493,26.493,0,0,0-.236,3.256c0,6.368,3.255,10.187,10.423,10.187,5.567,0,9.72-2.312,11.934-6.559l-4.762-1.934a7.088,7.088,0,0,1-6.464,3.489c-3.487,0-4.9-.939-4.9-4.053a4.572,4.572,0,0,1,.146-1.506h17.02c.236-2.407.518-4.107.518-5.518,0-4.713-1.791-10.757-9.623-10.757Zm3.256,11.465H218.336c1.037-2.407,2.779-6.131,6.368-6.131,2.781,0,4.151,1.626,4.151,4.414a7.419,7.419,0,0,1-.143,1.723Zm23.725-11.465a9.83,9.83,0,0,0-6.511,3.323l-.377-1.482h-5.187l-3.633,26.47h6.321l2.781-20.5a10.984,10.984,0,0,1,5.331-1.832,25.33,25.33,0,0,1,3.253-.039l.806-5.469a15.062,15.062,0,0,0-2.786-.47ZM92.261,238.1c-14.277-6.171-27.637-21.856-27.674-37.9-.032-17.506,11.056-32.353,24.847-42.124-1.659,6.265-2.562,11.993,1.545,17.6a16.638,16.638,0,0,0,16.822,6.367c14.755-3.226,15.433-19.452,6.684-28.9-8.649-9.358-17.015-19.93-13.723-33.5A34.9,34.9,0,0,1,111.884,101.9c-4.075,10.7,7.491,21.233,15.11,26.486,13.2,9.107,27.7,15.993,39.847,26.672,12.778,11.224,22.214,26.4,20.307,44-2.065,19.078-17.226,32.348-34.229,39.049,35.934-7.93,73.063-35.823,73.823-75.672.63-32.786-21.861-58.019-49.721-72.463l-1.455-.795a11.862,11.862,0,0,1,.986,4.847,16.953,16.953,0,0,0,.467-3.217,15.682,15.682,0,0,1-.509,3.888l.044-.679a16.333,16.333,0,0,1-2.063,4.924l.409-.44c-5.562,9.217-20.611,11.221-28.042,1.667-11.951-15.356.25-31.918,1.958-48.173,2.136-20.373-10.643-40.165-26.486-52,8.722,14.126-2.778,32.8-11.975,43.246-8.92,10.122-19.769,18.574-29.616,27.771A246.856,246.856,0,0,0,51.3,102.889c-17.39,23.209-28.037,52.4-20.212,81.346s32.878,47.346,61.178,53.859Z" transform="translate(4240.612 -837.948)" fill="#ee4323"/>
  </g>
</svg>
