<svg id="Group_4492" data-name="Group 4492" xmlns="http://www.w3.org/2000/svg" width="31.661" height="37.428" viewBox="0 0 31.661 37.428">
  <path id="Path_14667" data-name="Path 14667" d="M162.125,70.548a12.256,12.256,0,0,1-1.893-.61,5.678,5.678,0,0,1-3.285-5.062c-.04-.753-.011-1.51-.011-2.265q0-11.749,0-23.5a5.788,5.788,0,0,1,3.944-5.648,6.33,6.33,0,0,1,1.967-.324c4.677-.027,9.355-.023,14.033-.012a5.844,5.844,0,0,1,5.928,5.932c0,.694.005,1.389,0,2.083a1.464,1.464,0,1,1-2.921,0c-.006-.682,0-1.364,0-2.046a2.928,2.928,0,0,0-3.035-3.049q-6.98-.013-13.96,0a2.913,2.913,0,0,0-3.028,3.016q-.011,12.772,0,25.545a2.905,2.905,0,0,0,3,3.007q7.016.018,14.033,0a2.913,2.913,0,0,0,2.988-2.982c.014-.913-.009-1.827.01-2.741a1.454,1.454,0,0,1,2.756-.612,1.174,1.174,0,0,1,.143.486,35.47,35.47,0,0,1-.067,3.721,5.736,5.736,0,0,1-4.906,4.987,1.125,1.125,0,0,0-.2.069Z" transform="translate(-156.925 -33.12)" fill="#dd1928"/>
  <path id="Path_14668" data-name="Path 14668" d="M255.02,214.233a3.224,3.224,0,0,1,1.036-2.433c1.259-1.11,2.549-2.186,3.851-3.245a1.415,1.415,0,0,1,2.021.228,1.44,1.44,0,0,1-.22,2.054c-1.072.918-2.161,1.817-3.242,2.723-.075.063-.151.123-.224.188-.4.349-.4.62,0,.96,1.143.966,2.3,1.921,3.436,2.89a1.46,1.46,0,1,1-1.887,2.224c-.928-.767-1.848-1.545-2.77-2.32-.326-.274-.661-.539-.967-.834A3.378,3.378,0,0,1,255.02,214.233Z" transform="translate(-247.85 -195.432)" fill="#2a2a2a"/>
  <path id="Path_14669" data-name="Path 14669" d="M499.2,214.416a3.219,3.219,0,0,1-1.013,2.4c-1.241,1.114-2.512,2.2-3.795,3.262a1.452,1.452,0,0,1-1.833-2.252c1.1-.963,2.218-1.9,3.326-2.856.53-.456.527-.679,0-1.133-1.082-.927-2.168-1.849-3.248-2.779a1.462,1.462,0,1,1,1.879-2.233c.906.758,1.8,1.533,2.695,2.3.314.269.637.53.936.817A3.4,3.4,0,0,1,499.2,214.416Z" transform="translate(-467.54 -195.607)" fill="#2a2a2a"/>
  <path id="Path_14670" data-name="Path 14670" d="M383.484,204.021a1.389,1.389,0,0,1-1.359-1.746c.344-1.354.744-2.693,1.124-4.038.711-2.513,1.429-5.025,2.137-7.539a1.554,1.554,0,0,1,1.149-1.238,1.444,1.444,0,0,1,1.777,1.711c-.409,1.6-.883,3.184-1.333,4.774q-.979,3.454-1.966,6.906A1.542,1.542,0,0,1,383.484,204.021Z" transform="translate(-365.622 -177.992)" fill="#2a2a2a"/>
  <path id="Path_14671" data-name="Path 14671" d="M297.025,107.048c-.487,0-.974.009-1.461,0a1.452,1.452,0,0,1-1.465-1.422,1.437,1.437,0,0,1,1.4-1.485c1.009-.033,2.021-.032,3.031,0a1.44,1.44,0,0,1,1.411,1.476,1.455,1.455,0,0,1-1.491,1.434C297.975,107.056,297.5,107.048,297.025,107.048Z" transform="translate(-284.073 -98.925)" fill="#2a2a2a"/>
  <path id="Path_14672" data-name="Path 14672" d="M315.549,437.237a1.458,1.458,0,0,1,0-2.917,1.474,1.474,0,0,1,1.466,1.464A1.459,1.459,0,0,1,315.549,437.237Z" transform="translate(-302.613 -404.996)" fill="#2a2a2a"/>
</svg>
