<svg xmlns="http://www.w3.org/2000/svg" width="34.764" height="31.916" viewBox="0 0 34.764 31.916">
  <g id="Group_4495" data-name="Group 4495" transform="translate(0)">
    <path id="Path_14679" data-name="Path 14679" d="M145.064,151.448a.507.507,0,0,1,0,.543Z" transform="translate(-145.064 -141.473)" fill="#3648c8"/>
    <path id="Path_14680" data-name="Path 14680" d="M145.064,140.948c.08.045.07.091,0,.136Z" transform="translate(-145.064 -131.924)" fill="#5866d1"/>
    <path id="Path_14681" data-name="Path 14681" d="M145.064,159.7c.078.045.088.091,0,.136Z" transform="translate(-145.064 -148.977)" fill="#8892de"/>
    <path id="Path_14682" data-name="Path 14682" d="M179.7,49.415a9.432,9.432,0,0,0-10.2-8.088,9.762,9.762,0,0,0-6.922,3.817c-.051.065-.077.161-.187.175-.055-.073-.108-.147-.165-.217a9.6,9.6,0,0,0-9-3.738,9.423,9.423,0,0,0-7.893,7.288,6.983,6.983,0,0,1-.267,1.237V50.3a.088.088,0,0,1,0,.136v.815a.883.883,0,0,1,0,.543v.2a.088.088,0,0,1,0,.136v.34c.1.041.063.133.072.2.054.426.091.855.159,1.279a22.4,22.4,0,0,0,3.885,9.334,36.039,36.039,0,0,0,7.866,8.052,8.821,8.821,0,0,0,10.836-.022,37.2,37.2,0,0,0,5.86-5.539A24.71,24.71,0,0,0,179.386,54.8,15.035,15.035,0,0,0,179.7,49.415ZM176.737,54.2a22.269,22.269,0,0,1-5.249,10.034,35.836,35.836,0,0,1-5.29,4.954,5.479,5.479,0,0,1-2.309,1.081c-.219.059-.365-.079-.513-.2-.922-.729-1.839-1.463-2.735-2.222-1.025-.869-2.025-1.769-2.976-2.717a34.953,34.953,0,0,1-2.977-3.333,25.766,25.766,0,0,1-2.31-3.505c-.089-.165-.3-.327-.137-.564a6.419,6.419,0,0,0,1.212.265,2.763,2.763,0,0,1,2.238,1.986A7.8,7.8,0,0,0,156.055,61a2.841,2.841,0,0,0,5.353-.733c.322-1.574.64-3.149.974-4.72.028-.132.009-.357.186-.348.156.008.155.222.177.366.341,2.328.69,4.654,1.024,6.983a2.824,2.824,0,0,0,5.564.1c.151-.892.284-1.787.43-2.68a2.487,2.487,0,0,1,2.259-2.014,1.279,1.279,0,1,0-.2-2.534,4.931,4.931,0,0,0-4.354,3.379,16.585,16.585,0,0,0-.513,2.73c-.034.177-.055.358-.09.535-.029.15-.085.292-.268.3-.2.012-.281-.129-.323-.289a10.606,10.606,0,0,1-.184-1.138c-.291-2.015-.581-4.03-.891-6.042a2.649,2.649,0,0,0-5.234-.184c-.328,1.619-.666,3.236-1,4.853-.046.224-.041.531-.355.539-.287.008-.308-.29-.384-.493a10.476,10.476,0,0,0-.464-1.238,5.349,5.349,0,0,0-4.458-2.958,1.277,1.277,0,0,0-1.467,1.017.527.527,0,0,1-.109.245c-.143.017-.162-.1-.2-.189a14.992,14.992,0,0,1-1.066-4.259,9.628,9.628,0,0,1,.157-3.2,8.4,8.4,0,0,1,2.969-4.774,1.2,1.2,0,0,1,.776-.269,6.977,6.977,0,0,1,6.045,3.274,4.116,4.116,0,0,1,.683,2.2,1.352,1.352,0,0,0,2.7.022,4.611,4.611,0,0,1,1.336-3.174,6.745,6.745,0,0,1,7.162-2.034,6.557,6.557,0,0,1,4.731,5.608A11.5,11.5,0,0,1,176.737,54.2Z" transform="translate(-145.064 -41.273)" fill="#dd1928"/>
    <path id="Path_14683" data-name="Path 14683" d="M179.34,85.03a21.945,21.945,0,0,0,2.372,3.77,31.413,31.413,0,0,0,3.112,3.514,55.682,55.682,0,0,0,5.087,4.44,4.068,4.068,0,0,0,1.12.8,5.785,5.785,0,0,1-5.074-1.006,32.665,32.665,0,0,1-7.651-7.915,19.282,19.282,0,0,1-3.219-8.083,9.184,9.184,0,0,1,.314-4.882,6.628,6.628,0,0,1,5.771-4.39,3.183,3.183,0,0,1,.338,0,3.485,3.485,0,0,0-1.743,1.31,8.206,8.206,0,0,0-1.883,3.628,9.784,9.784,0,0,0-.188,3.186,15,15,0,0,0,1.155,4.558C179.005,84.317,179.174,84.673,179.34,85.03Z" transform="translate(-172.207 -68.553)" fill="#e5e5e5"/>
    <path id="Path_14684" data-name="Path 14684" d="M218.929,170.181a1.625,1.625,0,0,1-.491-1.075,1.385,1.385,0,0,1,1.584-1.347,5.484,5.484,0,0,1,4.81,3.612c.094.29.188.58.29.868.04.112.06.265.224.259s.2-.169.222-.3c.233-1.127.459-2.255.692-3.382a21.3,21.3,0,0,1,.458-2.081,2.679,2.679,0,0,1,2.851-1.828,2.719,2.719,0,0,1,2.458,2.378q.512,3.534,1.029,7.067c.008.056.027.11.037.165.022.117.052.225.2.229.17,0,.2-.122.22-.248.074-.468.144-.937.216-1.405a7.01,7.01,0,0,1,.832-2.87,5.009,5.009,0,0,1,4.2-2.465,1.355,1.355,0,1,1,.06,2.71,2.393,2.393,0,0,0-2.25,2.031c-.132.881-.264,1.763-.418,2.641a2.924,2.924,0,0,1-5.757-.183c-.3-2.112-.619-4.219-.93-6.329a5.876,5.876,0,0,0-.185-1.046c-.319,1.556-.622,3.02-.919,4.486a4.048,4.048,0,0,1-.736,1.975,2.88,2.88,0,0,1-2.646,1.081,2.816,2.816,0,0,1-2.39-1.9,5.459,5.459,0,0,0-.726-1.7,2.728,2.728,0,0,0-2.05-1.041A1.968,1.968,0,0,1,218.929,170.181Z" transform="translate(-211.795 -153.703)" fill="#fff"/>
  </g>
</svg>
