<svg id="Default" xmlns="http://www.w3.org/2000/svg" width="34.764" height="34.777" viewBox="0 0 34.764 34.777">
  <path id="Path_14686" data-name="Path 14686" d="M204.047,58.4a5.4,5.4,0,0,0-1.764.718,4.142,4.142,0,0,0-1.693,2.569c-.014.063.005.14-.074.175,0-1.092,0-2.185,0-3.277,0-.16.032-.192.191-.19C201.817,58.405,202.932,58.4,204.047,58.4Z" transform="translate(-200.512 -58.397)" fill="#fefefe"/>
  <path id="Path_14687" data-name="Path 14687" d="M200.6,68.218l.066.708c.061.266.063.544.117.811A12.238,12.238,0,0,0,211.123,79.5c.226.033.313.1.311.353-.013,2.138-.005,4.277-.009,6.415a8.034,8.034,0,0,0,.135,1.484A6.789,6.789,0,0,0,225,86.3q0-1.918,0-3.836a4.043,4.043,0,0,1,.07-.776,2.423,2.423,0,0,1,2.14-2.049,2.346,2.346,0,0,1,2.506,1.656c.031.085.06.17.1.252a1.352,1.352,0,0,0,2.533-.932,5.1,5.1,0,0,0-7.439-3.029,5.183,5.183,0,0,0-2.611,4.588c-.048,1.458.006,2.919-.017,4.378a4.071,4.071,0,0,1-8.139-.155c-.007-2,0-4.005,0-6.008,0-.27-.087-.625.05-.787s.5-.127.766-.172A12.249,12.249,0,0,0,225,67.772q.04-2.664,0-5.329a3.969,3.969,0,0,0-1.623-3.177,4.506,4.506,0,0,0-1.649-.752,1.874,1.874,0,0,0-.495-.066h-.756c-.057,0-.115,0-.172.007a3.765,3.765,0,0,0-2.374,1.2,4.159,4.159,0,0,0,.588,6.252,4.048,4.048,0,0,0,3.355.662c.238-.056.33,0,.331.251a12.178,12.178,0,0,1-.1,1.895,9.19,9.19,0,0,1-2.746,5.4,9.038,9.038,0,0,1-7.821,2.605,9.169,9.169,0,0,1-7.182-5.136,9.387,9.387,0,0,1-.985-4.7c.01-.374.009-.384.394-.3a4.1,4.1,0,0,0,2.3-.159,4.205,4.205,0,0,0,2.662-4.7,4.12,4.12,0,0,0-3.478-3.278c-.046,0-.093,0-.139,0h-.875a1.919,1.919,0,0,0-.283.022,3.307,3.307,0,0,0-1.057.275,4,4,0,0,0-2.314,3.031,1.732,1.732,0,0,0-.019.27v5.616l.031.413m20.323-4.2a1.357,1.357,0,1,1,1.37-1.344A1.361,1.361,0,0,1,220.918,63.878Zm-16.3-2.714a1.357,1.357,0,1,1-1.342,1.371A1.361,1.361,0,0,1,204.623,61.165Z" transform="translate(-200.559 -58.443)" fill="#dd1928"/>
  <path id="Path_14688" data-name="Path 14688" d="M498.643,352.451a4.073,4.073,0,1,0,4.07,4.085A4.09,4.09,0,0,0,498.643,352.451Zm-.033,5.43A1.357,1.357,0,1,1,500,356.553,1.354,1.354,0,0,1,498.611,357.881Z" transform="translate(-467.949 -325.833)" fill="#fff"/>
</svg>
