<svg xmlns="http://www.w3.org/2000/svg" width="92" height="92" viewBox="0 0 92 92">
  <g id="fixscope" transform="translate(-674 -4520)">
    <g id="Ellipse_334" data-name="Ellipse 334" transform="translate(674 4520)" fill="#fff" stroke="#db1826" stroke-width="2">
      <circle cx="46" cy="46" r="46" stroke="none"/>
      <circle cx="46" cy="46" r="45" fill="none"/>
    </g>
    <g id="Group_667" data-name="Group 667" transform="translate(579.25 4335.25)">
      <path id="Path_10000" data-name="Path 10000" d="M317.25,574.626a6.807,6.807,0,0,1,1.61-.267,22.384,22.384,0,0,0,6.078-1.862.486.486,0,0,1,.593.023,10.041,10.041,0,0,0,4.651,1.994c.081.013.172.005.2.111Z" transform="translate(-175.012 -317.751)" fill="#fefefe"/>
      <path id="Path_10001" data-name="Path 10001" d="M297,588.009a.459.459,0,0,1,.611,0Z" transform="translate(-157.511 -331.134)" fill="#1435c8"/>
      <path id="Path_10002" data-name="Path 10002" d="M305.25,588.012a.46.46,0,0,1,.611,0Z" transform="translate(-164.641 -331.137)" fill="#1435c8"/>
      <path id="Path_10003" data-name="Path 10003" d="M313.5,588.159c.068-.113.136-.135.2,0Z" transform="translate(-171.771 -331.284)" fill="#7688de"/>
      <path id="Path_10004" data-name="Path 10004" d="M133.6,329.5a9.9,9.9,0,0,0-10.193-4.784c-.23.026-.391.093-.426-.266a18.554,18.554,0,0,1,.921-7.915,18.761,18.761,0,0,1,3.875-6.442,2.027,2.027,0,1,0-2.993-2.734,22.156,22.156,0,0,0-5.707,18.592.686.686,0,0,1-.314.752,10.146,10.146,0,0,0-3.708,5.559,3.94,3.94,0,0,1-.309,1.2V336c.11.373.061.767.154,1.142a10.09,10.09,0,0,0,4.039,6.011,9.261,9.261,0,0,0,4.766,1.805h2.342c.039-.1.131-.085.211-.1A10.152,10.152,0,0,0,133.6,329.5Zm-8.662,11.391a6.108,6.108,0,1,1,6.1-6.134A6.131,6.131,0,0,1,124.942,340.891Z" transform="translate(0 -88.089)" fill="#db1826"/>
      <path id="Path_10005" data-name="Path 10005" d="M263.863,231.2a22.158,22.158,0,0,0-11.335-15.582.8.8,0,0,1-.511-.8,10.143,10.143,0,0,0-7.344-9.658c-.56-.159-1.134-.272-1.7-.406h-2.24c-.039.1-.132.084-.212.095a10.177,10.177,0,1,0,10.273,14.924c.161-.291.266-.337.555-.159a18.292,18.292,0,0,1,6.717,7.132,18.873,18.873,0,0,1,1.81,5.208,2.032,2.032,0,1,0,3.988-.755Zm-20.917-10.259c-.083.013-.169.011-.253.017a.6.6,0,0,1-.672-.233,8.455,8.455,0,0,1-2.179-4.222c-.043-.238-.15-.505.141-.681.21.031.294.212.417.348a1.908,1.908,0,1,0,.009-2.482c-.123.136-.208.316-.411.361-.3-.14-.206-.4-.168-.619a8.425,8.425,0,0,1,2.225-4.321.573.573,0,0,1,.638-.2,6.092,6.092,0,0,1,.252,12.03Z" transform="translate(-101.039 0)" fill="#db1826"/>
      <path id="Path_10006" data-name="Path 10006" d="M268.673,234.79c-.647.079-.858.675-1.193,1.079a7.686,7.686,0,0,0-1.561,3.507c-.034.173-.093.368.074.52a.27.27,0,0,1,.056.279,2.075,2.075,0,0,0,0,1.275.27.27,0,0,1-.055.279c-.263.343-.038.694.035,1.009a8.489,8.489,0,0,0,2.119,3.836.759.759,0,0,0,.524.261,5.812,5.812,0,0,1-5.214-1.783,6.016,6.016,0,0,1-1.114-6.915,6.166,6.166,0,0,1,6.139-3.409A.965.965,0,0,1,268.673,234.79Z" transform="translate(-127.017 -25.883)" fill="#eeecec"/>
      <path id="Path_10007" data-name="Path 10007" d="M303.588,447.335a9.822,9.822,0,0,0-6.734-8.25,9.682,9.682,0,0,0-10.361,2.227,10.053,10.053,0,0,0-2.247,11.582c.092.205.267.388-.113.534a20.092,20.092,0,0,1-4.255,1.148,21.863,21.863,0,0,1-4.717.107,1.988,1.988,0,0,0-2.1,1.8,2.069,2.069,0,0,0,1.616,2.216c.166.041.383-.058.5.148h1.12a.778.778,0,0,1,.611,0h.509a.778.778,0,0,1,.611,0h.509a.132.132,0,0,1,.2,0h.305c.529-.106,1.071-.065,1.6-.139a21.968,21.968,0,0,0,5.921-1.753.777.777,0,0,1,.853.036,9.579,9.579,0,0,0,4.755,1.857h2.443c.408-.105.836-.053,1.244-.155a10.068,10.068,0,0,0,5.983-4,9.308,9.308,0,0,0,1.834-4.809v-2.342C303.581,447.508,303.6,447.415,303.588,447.335ZM293.5,454.775a6.108,6.108,0,1,1,6.112-6.118A6.131,6.131,0,0,1,293.5,454.775Z" transform="translate(-136.809 -201.972)" fill="#db1826"/>
      <path id="Path_10008" data-name="Path 10008" d="M267.878,381.753a6.108,6.108,0,1,0,6.091,6.137A6.13,6.13,0,0,0,267.878,381.753Zm-.026,8.143a2.035,2.035,0,1,1,2.044-2.026A2.029,2.029,0,0,1,267.852,389.9Z" transform="translate(-127.048 -152.976)" fill="#2a2a2a"/>
      <path id="Path_10009" data-name="Path 10009" d="M178.83,500.778a2.035,2.035,0,1,1-2.05-2.019A2.038,2.038,0,0,1,178.83,500.778Z" transform="translate(-51.865 -254.099)" fill="#2a2a2a"/>
      <path id="Path_10010" data-name="Path 10010" d="M292.019,267.7a2.324,2.324,0,0,1,0-1.834,2.05,2.05,0,0,1,3.41-.371,2.033,2.033,0,1,1-3.208,2.5C292.151,267.9,292.087,267.8,292.019,267.7Z" transform="translate(-153.044 -51.853)" fill="#2a2a2a"/>
      <path id="Path_10011" data-name="Path 10011" d="M412.83,500.781a2.035,2.035,0,1,1-2.047-2.022A2.038,2.038,0,0,1,412.83,500.781Z" transform="translate(-254.101 -254.099)" fill="#2a2a2a"/>
    </g>
  </g>
</svg>
