<svg id="Group_675" data-name="Group 675" xmlns="http://www.w3.org/2000/svg" width="118.125" height="118.125" viewBox="0 0 118.125 118.125">
  <g id="Group_667" data-name="Group 667">
    <path id="Path_10000" data-name="Path 10000" d="M317.25,577.435a15.428,15.428,0,0,1,3.648-.6,50.724,50.724,0,0,0,13.774-4.219,1.1,1.1,0,0,1,1.345.053,22.755,22.755,0,0,0,10.539,4.519c.183.03.39.011.455.251Z" transform="translate(-254.957 -459.31)" fill="#fefefe"/>
    <path id="Path_10001" data-name="Path 10001" d="M297,588.156a1.04,1.04,0,0,1,1.384,0Z" transform="translate(-240.937 -470.031)" fill="#1435c8"/>
    <path id="Path_10002" data-name="Path 10002" d="M305.25,588.159a1.043,1.043,0,0,1,1.384,0Z" transform="translate(-246.649 -470.034)" fill="#1435c8"/>
    <path id="Path_10003" data-name="Path 10003" d="M313.5,588.276c.154-.255.308-.305.461,0Z" transform="translate(-252.361 -470.151)" fill="#7688de"/>
    <path id="Path_10004" data-name="Path 10004" d="M157.478,358.4c-5.3-8.453-13.183-11.957-23.1-10.842-.522.059-.887.211-.965-.6a42.047,42.047,0,0,1,2.087-17.937,42.515,42.515,0,0,1,8.782-14.6,4.593,4.593,0,1,0-6.783-6.2q-16.221,18.06-12.934,42.132a1.554,1.554,0,0,1-.712,1.7,22.992,22.992,0,0,0-8.4,12.6,8.929,8.929,0,0,1-.7,2.715v5.768c.25.845.139,1.739.35,2.589a22.865,22.865,0,0,0,9.153,13.623,20.987,20.987,0,0,0,10.8,4.091h5.306c.088-.232.3-.193.479-.216C157.3,391.118,166.3,372.456,157.478,358.4Zm-19.63,25.814a13.842,13.842,0,1,1,13.814-13.9A13.895,13.895,0,0,1,137.848,384.216Z" transform="translate(-114.75 -275.32)" fill="#db1826"/>
    <path id="Path_10005" data-name="Path 10005" d="M304.64,264.68c-3.158-15.7-11.759-27.451-25.688-35.312a1.82,1.82,0,0,1-1.158-1.812,22.986,22.986,0,0,0-16.643-21.886c-1.27-.36-2.569-.616-3.855-.92H252.22c-.089.23-.3.191-.48.214a23.063,23.063,0,1,0,23.28,33.821c.365-.66.6-.763,1.258-.36A41.453,41.453,0,0,1,291.5,254.588a42.77,42.77,0,0,1,4.1,11.8,4.6,4.6,0,1,0,9.038-1.71Zm-47.4-23.248c-.188.03-.382.026-.574.038a1.359,1.359,0,0,1-1.522-.527,19.16,19.16,0,0,1-4.937-9.567c-.1-.539-.34-1.145.32-1.543.475.069.667.48.944.788a4.324,4.324,0,1,0,.022-5.625c-.279.308-.47.715-.931.818-.673-.318-.467-.9-.381-1.4a19.094,19.094,0,0,1,5.042-9.791,1.3,1.3,0,0,1,1.446-.448c5.745.472,10.769,5.463,11.777,11.7A13.876,13.876,0,0,1,257.239,241.432Z" transform="translate(-195.695 -204.75)" fill="#db1826"/>
    <path id="Path_10006" data-name="Path 10006" d="M277.48,234.906c-1.466.18-1.945,1.529-2.7,2.446a17.418,17.418,0,0,0-3.537,7.947c-.076.393-.211.833.168,1.179a.611.611,0,0,1,.126.633,4.7,4.7,0,0,0,0,2.889.612.612,0,0,1-.126.633c-.6.777-.085,1.573.079,2.287a19.238,19.238,0,0,0,4.8,8.693,1.72,1.72,0,0,0,1.188.591,13.172,13.172,0,0,1-11.817-4.041,13.633,13.633,0,0,1-2.523-15.67,13.974,13.974,0,0,1,13.913-7.725A2.185,2.185,0,0,1,277.48,234.906Z" transform="translate(-216.507 -225.485)" fill="#eeecec"/>
    <path id="Path_10007" data-name="Path 10007" d="M342.26,458.593c-1.483-9.174-6.516-15.615-15.26-18.7-8.716-3.071-16.71-1.223-23.48,5.046a22.782,22.782,0,0,0-5.093,26.247c.209.465.6.879-.256,1.21a45.534,45.534,0,0,1-9.643,2.6,49.542,49.542,0,0,1-10.69.242,4.506,4.506,0,0,0-4.757,4.082,4.689,4.689,0,0,0,3.661,5.021c.376.094.867-.132,1.136.334h2.538a1.764,1.764,0,0,1,1.384,0h1.154a1.764,1.764,0,0,1,1.384,0h1.154a.3.3,0,0,1,.461,0h.692c1.2-.239,2.426-.147,3.633-.316a49.784,49.784,0,0,0,13.419-3.974,1.762,1.762,0,0,1,1.933.082,21.707,21.707,0,0,0,10.777,4.208h5.537c.925-.238,1.894-.121,2.819-.35a22.816,22.816,0,0,0,13.559-9.055,21.093,21.093,0,0,0,4.155-10.9v-5.306C342.245,458.984,342.289,458.774,342.26,458.593ZM319.4,475.452a13.842,13.842,0,1,1,13.85-13.864A13.893,13.893,0,0,1,319.4,475.452Z" transform="translate(-224.351 -366.556)" fill="#db1826"/>
    <path id="Path_10008" data-name="Path 10008" d="M275.633,381.753a13.842,13.842,0,1,0,13.8,13.908A13.892,13.892,0,0,0,275.633,381.753Zm-.059,18.453a4.611,4.611,0,1,1,4.632-4.591A4.6,4.6,0,0,1,275.574,400.206Z" transform="translate(-216.532 -327.304)" fill="#2a2a2a"/>
    <path id="Path_10009" data-name="Path 10009" d="M183.982,503.334a4.611,4.611,0,1,1-4.646-4.575A4.619,4.619,0,0,1,183.982,503.334Z" transform="translate(-156.3 -408.317)" fill="#2a2a2a"/>
    <path id="Path_10010" data-name="Path 10010" d="M292.258,271.44a5.266,5.266,0,0,1,0-4.155,4.646,4.646,0,0,1,7.729-.841,4.607,4.607,0,1,1-7.269,5.656C292.557,271.886,292.411,271.66,292.258,271.44Z" transform="translate(-237.358 -246.291)" fill="#2a2a2a"/>
    <path id="Path_10011" data-name="Path 10011" d="M417.982,503.341a4.611,4.611,0,1,1-4.639-4.582A4.619,4.619,0,0,1,417.982,503.341Z" transform="translate(-318.318 -408.317)" fill="#2a2a2a"/>
  </g>
</svg>
