<svg xmlns="http://www.w3.org/2000/svg" width="134.635" height="124.814" viewBox="0 0 134.635 124.814">
  <g id="Group_676" data-name="Group 676" transform="translate(-1086.016 -4539)">
    <g id="Group_668" data-name="Group 668" transform="translate(1087 4540)">
      <path id="Path_10013" data-name="Path 10013" d="M300.75,588.118a.609.609,0,0,1,.9,0Z" transform="translate(-268.433 -473.626)" fill="#fe82f3"/>
      <g id="Group_673" data-name="Group 673" transform="translate(48.675 82.807)">
        <path id="Path_10012" data-name="Path 10012" d="M276.524,527.962a4.655,4.655,0,0,1-2.33-2.01,3.614,3.614,0,0,1,3.33-5.207,40.8,40.8,0,0,0,8.793-.753,35.532,35.532,0,0,0,17.352-9.125c.436-.415.84-.867,1.288-1.268a3.579,3.579,0,0,1,4.778-.087,3.422,3.422,0,0,1,.551,4.858,30.135,30.135,0,0,1-6.119,5.452,42.633,42.633,0,0,1-19.948,7.832c-.507.063-1.088-.073-1.543.31h-1.447a.977.977,0,0,0-.9,0Z" transform="translate(-273.829 -496.277)" fill="#2a2a2a"/>
        <path id="Path_10017" data-name="Path 10017" d="M383.961,464.672c-1.507,0-3.015.007-4.522,0a3.568,3.568,0,0,1-3.733-3.381,3.509,3.509,0,0,1,3.495-3.812,104.408,104.408,0,0,1,11.2.127,11.014,11.014,0,0,1,9.385,9.791,83.21,83.21,0,0,1-.005,11.1,3.455,3.455,0,0,1-3.823,3.155,3.566,3.566,0,0,1-3.266-3.66c-.015-2.984,0-5.969-.006-8.953-.005-2.794-1.586-4.364-4.385-4.367Q386.132,464.67,383.961,464.672Z" transform="translate(-351.132 -457.388)" fill="#2a2a2a"/>
      </g>
      <g id="Group_672" data-name="Group 672" transform="translate(0 30.376)">
        <g id="Group_669" data-name="Group 669">
          <path id="Path_10016" data-name="Path 10016" d="M173.109,436.669a36.678,36.678,0,0,1,13.267,1.757c.341.119.685.231,1.018.367a3.612,3.612,0,0,1,2.113,4.523,3.493,3.493,0,0,1-4.424,2.277c-5.676-2.15-11.558-1.954-17.411-1.514-10.547.793-19.935,9.207-22.27,19.651a38.666,38.666,0,0,0-.712,6.182,3.579,3.579,0,0,1-7.088.282,14.531,14.531,0,0,1,.077-3.876,32.987,32.987,0,0,1,32.988-29.649C171.482,436.667,172.3,436.669,173.109,436.669Z" transform="translate(-137.5 -380.714)" fill="#db1826" stroke="#db1726" stroke-width="2"/>
          <path id="Path_10018" data-name="Path 10018" d="M231.06,227.066a24.335,24.335,0,0,0-17.751-21.415c-1.315-.358-2.66-.6-3.991-.9h-.543a.234.234,0,0,1-.362,0h-3.256a.234.234,0,0,1-.362,0h-.543c-.424.344-.96.247-1.439.325a24.379,24.379,0,1,0,28.246,21.99Zm-21.941,19.045a9.83,9.83,0,0,1-3.418.06,12.515,12.515,0,0,1-4.234-3.728,19.6,19.6,0,0,1-4.6-10.451,20.722,20.722,0,0,1,4.658-16.277,21.66,21.66,0,0,1,3.025-2.969,2.97,2.97,0,0,1,1.334-.723,17.136,17.136,0,0,1,3.236,34.09Z" transform="translate(-171.571 -204.75)" fill="#db1826" stroke="#db1726" stroke-width="2"/>
        </g>
        <path id="Path_10019" data-name="Path 10019" d="M228.539,234.9a19.267,19.267,0,0,0-8.62,12.656,18.537,18.537,0,0,0,3.955,15.627,26.374,26.374,0,0,0,4.482,4.176,16,16,0,0,1-10.34-4.1c-5.137-4.557-6.943-10.2-4.989-16.614s6.675-10.2,13.542-11.557A18.743,18.743,0,0,1,228.539,234.9Z" transform="translate(-192.148 -226.746)" fill="#eeecec"/>
      </g>
      <g id="Group_671" data-name="Group 671" transform="translate(73.094 0)">
        <g id="Group_670" data-name="Group 670">
          <path id="Path_10016-2" data-name="Path 10016" d="M154.091,436.669a36.68,36.68,0,0,0-13.267,1.757c-.341.119-.685.231-1.018.367a3.612,3.612,0,0,0-2.113,4.522,3.493,3.493,0,0,0,4.424,2.277c5.676-2.15,11.558-1.954,17.412-1.514,10.547.793,19.935,9.207,22.27,19.651a38.67,38.67,0,0,1,.712,6.182,3.58,3.58,0,0,0,7.088.282,14.532,14.532,0,0,0-.077-3.876,32.987,32.987,0,0,0-32.989-29.649C155.718,436.667,154.9,436.669,154.091,436.669Z" transform="translate(-130.129 -380.714)" fill="#db1826" stroke="#db1826" stroke-width="2"/>
          <path id="Path_10018-2" data-name="Path 10018" d="M182.481,227.065a24.335,24.335,0,0,1,17.752-21.414c1.315-.358,2.66-.6,3.991-.9h.543a.234.234,0,0,0,.362,0h3.256a.234.234,0,0,0,.362,0h.543c.424.344.96.247,1.439.325a24.379,24.379,0,1,1-28.247,21.99Zm21.942,19.045a9.828,9.828,0,0,0,3.419.06,12.515,12.515,0,0,0,4.235-3.728,19.6,19.6,0,0,0,4.6-10.451,20.721,20.721,0,0,0-4.658-16.277,21.66,21.66,0,0,0-3.025-2.969,2.97,2.97,0,0,0-1.334-.723,17.136,17.136,0,0,0-3.236,34.09Z" transform="translate(-182.401 -204.75)" fill="#db1826" stroke="#db1826" stroke-width="2"/>
        </g>
        <path id="Path_10034" data-name="Path 10034" d="M212.258,234.9a19.208,19.208,0,0,1,8.62,12.618,18.442,18.442,0,0,1-3.955,15.581,26.342,26.342,0,0,1-4.483,4.163,16.031,16.031,0,0,0,10.341-4.09c5.137-4.544,6.943-10.167,4.989-16.565s-6.675-10.172-13.542-11.523A18.791,18.791,0,0,0,212.258,234.9Z" transform="translate(-188.227 -226.72)" fill="#eeecec"/>
      </g>
    </g>
  </g>
</svg>
