<svg xmlns="http://www.w3.org/2000/svg" width="92" height="92" viewBox="0 0 92 92">
  <g id="hire_team" data-name="hire team" transform="translate(-1069 -4520)">
    <g id="Ellipse_335" data-name="Ellipse 335" transform="translate(1069 4520)" fill="#fff" stroke="#db1826" stroke-width="2">
      <circle cx="46" cy="46" r="46" stroke="none"/>
      <circle cx="46" cy="46" r="45" fill="none"/>
    </g>
    <g id="Group_668" data-name="Group 668" transform="translate(946.506 4344.528)">
      <path id="Path_10013" data-name="Path 10013" d="M300.75,588a.259.259,0,0,1,.384,0Z" transform="translate(-146.547 -343.965)" fill="#fe82f3"/>
      <path id="Path_10014" data-name="Path 10014" d="M275.4,204.75c-.051.082-.1.1-.153,0Z" transform="translate(-123.656)" fill="#7480d9"/>
      <path id="Path_10015" data-name="Path 10015" d="M290.4,204.75c-.051.1-.1.082-.153,0Z" transform="translate(-137.121)" fill="#727ed8"/>
      <g id="Group_673" data-name="Group 673" transform="translate(3 2.636)">
        <path id="Path_10012" data-name="Path 10012" d="M274.972,516.836a1.974,1.974,0,0,1-.989-.853,1.533,1.533,0,0,1,1.412-2.209,17.307,17.307,0,0,0,3.73-.32,15.072,15.072,0,0,0,7.361-3.871c.185-.176.356-.368.546-.538a1.518,1.518,0,0,1,2.027-.037,1.452,1.452,0,0,1,.234,2.061,12.783,12.783,0,0,1-2.6,2.312,18.085,18.085,0,0,1-8.462,3.322c-.215.027-.462-.031-.655.131h-.614a.415.415,0,0,0-.384,0Z" transform="translate(-115.688 -275.434)" fill="#2a2a2a"/>
        <path id="Path_10017" data-name="Path 10017" d="M379.206,460.478c-.639,0-1.279,0-1.918,0a1.514,1.514,0,0,1-1.584-1.434,1.489,1.489,0,0,1,1.482-1.617,44.29,44.29,0,0,1,4.752.054,4.672,4.672,0,0,1,3.981,4.153,35.3,35.3,0,0,1,0,4.71,1.466,1.466,0,0,1-1.622,1.338,1.513,1.513,0,0,1-1.385-1.553c-.006-1.266,0-2.532,0-3.8a1.685,1.685,0,0,0-1.86-1.853Z" transform="translate(-207.139 -229.427)" fill="#2a2a2a"/>
      </g>
      <g id="Group_672" data-name="Group 672" transform="translate(2.994 0)">
        <g id="Group_669" data-name="Group 669" transform="translate(0 3.606)">
          <path id="Path_10016" data-name="Path 10016" d="M152.605,436.656a15.558,15.558,0,0,1,5.628.745c.145.05.29.1.432.156a1.532,1.532,0,0,1,.9,1.918,1.482,1.482,0,0,1-1.877.966,16.846,16.846,0,0,0-7.386-.642,10.852,10.852,0,0,0-9.447,8.336,16.4,16.4,0,0,0-.3,2.623,1.518,1.518,0,0,1-3.007.12,6.164,6.164,0,0,1,.033-1.644,13.993,13.993,0,0,1,13.993-12.577C151.915,436.655,152.26,436.656,152.605,436.656Z" transform="translate(0 -208.17)" fill="#db1826"/>
          <path id="Path_10018" data-name="Path 10018" d="M203.042,214.216a10.322,10.322,0,0,0-7.53-9.084c-.558-.152-1.128-.256-1.693-.382h-.23a.1.1,0,0,1-.153,0h-1.381a.1.1,0,0,1-.153,0h-.23c-.18.146-.407.1-.61.138a10.341,10.341,0,1,0,11.982,9.328Zm-9.307,8.079a4.169,4.169,0,0,1-1.45.025,5.309,5.309,0,0,1-1.8-1.582,8.316,8.316,0,0,1-1.951-4.433,8.79,8.79,0,0,1,1.976-6.9,9.187,9.187,0,0,1,1.283-1.259,1.26,1.26,0,0,1,.566-.307,7.269,7.269,0,0,1,1.373,14.461Z" transform="translate(-40.307)" fill="#db1826"/>
        </g>
        <path id="Path_10019" data-name="Path 10019" d="M219.164,234.9a8.815,8.815,0,0,0-1.979,12.622,11.435,11.435,0,0,0,1.9,1.864,6.61,6.61,0,0,1-4.386-1.831,6.937,6.937,0,0,1-2.116-7.414,7.041,7.041,0,0,1,5.744-5.158A7.565,7.565,0,0,1,219.164,234.9Z" transform="translate(-67.109 -23.454)" fill="#eeecec"/>
      </g>
      <g id="Group_671" data-name="Group 671" transform="translate(3)">
        <g id="Group_670" data-name="Group 670" transform="translate(168.5 195.472)">
          <path id="Path_10016-2" data-name="Path 10016" d="M144.538,436.656a15.559,15.559,0,0,0-5.628.745c-.145.05-.29.1-.432.156a1.532,1.532,0,0,0-.9,1.918,1.482,1.482,0,0,0,1.877.966,16.847,16.847,0,0,1,7.386-.642,10.852,10.852,0,0,1,9.447,8.336,16.4,16.4,0,0,1,.3,2.622,1.518,1.518,0,0,0,3.007.12,6.164,6.164,0,0,0-.033-1.644,13.993,13.993,0,0,0-13.993-12.577C145.228,436.655,144.883,436.656,144.538,436.656Z" transform="translate(-134.374 -412.921)" fill="#db1826"/>
          <path id="Path_10018-2" data-name="Path 10018" d="M182.435,214.216a10.322,10.322,0,0,1,7.53-9.084c.558-.152,1.128-.256,1.693-.382h.23a.1.1,0,0,0,.153,0h1.381a.1.1,0,0,0,.153,0h.23c.18.146.407.1.61.138a10.341,10.341,0,1,1-11.982,9.328Zm9.307,8.079a4.169,4.169,0,0,0,1.45.025,5.309,5.309,0,0,0,1.8-1.582,8.316,8.316,0,0,0,1.951-4.433,8.79,8.79,0,0,0-1.976-6.9,9.188,9.188,0,0,0-1.283-1.259,1.26,1.26,0,0,0-.566-.307,7.269,7.269,0,0,0-1.373,14.46Z" transform="translate(-182.401 -204.75)" fill="#db1826"/>
        </g>
        <path id="Path_10034" data-name="Path 10034" d="M212.258,234.9a8.815,8.815,0,0,1,1.979,12.623,11.435,11.435,0,0,1-1.9,1.864,6.61,6.61,0,0,0,4.386-1.831,6.937,6.937,0,0,0,2.116-7.415,7.041,7.041,0,0,0-5.745-5.158A7.565,7.565,0,0,0,212.258,234.9Z" transform="translate(-33.123 -36.388)" fill="#eeecec"/>
      </g>
    </g>
  </g>
</svg>
