<svg id="Layer_1" data-name="Layer 1" xmlns="http://www.w3.org/2000/svg" width="118.201" height="118.201" viewBox="0 0 118.201 118.201">
  <path id="Path_10020" data-name="Path 10020" d="M239.536,204.75c1.7.551,3.5.611,5.215,1.126q17.2,5.169,22.61,22.272a4.616,4.616,0,0,1-3.028,6.067c-2.553.746-4.995-.714-5.838-3.489a23.083,23.083,0,0,0-44.357-.11c-.844,2.832-3.173,4.3-5.757,3.633a4.633,4.633,0,0,1-3.176-6,32.537,32.537,0,0,1,27.057-23.26c.211-.03.477.053.58-.243h.923a.3.3,0,0,0,.462,0h4.156a.3.3,0,0,0,.462,0Z" transform="translate(-177.204 -204.75)" fill="#db1826"/>
  <path id="Path_10021" data-name="Path 10021" d="M498,487.939a1.347,1.347,0,0,1,.2-1.189V487.9A.366.366,0,0,1,498,487.939Z" transform="translate(-379.998 -399.946)" fill="#6177da"/>
  <path id="Path_10022" data-name="Path 10022" d="M298.962,204.75c-.154.248-.308.29-.462,0Z" transform="translate(-241.939 -204.75)" fill="#6177da"/>
  <path id="Path_10023" data-name="Path 10023" d="M313.962,204.75c-.154.29-.308.248-.462,0Z" transform="translate(-252.322 -204.75)" fill="#6177da"/>
  <path id="Path_10024" data-name="Path 10024" d="M300.93,283.223c-1.5,0-3,.017-4.5,0a4.562,4.562,0,0,1-4.7-4.647q-.046-4.559,0-9.118a4.612,4.612,0,1,1,9.223-.03c.019,1.039,0,2.078.006,3.116.015,1.644-.183,1.432,1.5,1.447,1.039.01,2.078-.016,3.116.007a4.612,4.612,0,1,1-.03,9.223C304.008,283.244,302.469,283.223,300.93,283.223Z" transform="translate(-237.237 -246.286)" fill="#2a2a2a"/>
  <path id="Path_10025" data-name="Path 10025" d="M192.638,408.412a6.028,6.028,0,0,1-2.179-.115c.607-.492,1.171-.266,1.688-.291C192.194,408.283,192.5,408.24,192.638,408.412Z" transform="translate(-167.155 -345.419)" fill="#0f30c7"/>
  <path id="Path_10026" data-name="Path 10026" d="M426.631,408.413a6.02,6.02,0,0,1-2.178-.117c.609-.488,1.172-.265,1.69-.29C426.189,408.282,426.5,408.24,426.631,408.413Z" transform="translate(-329.122 -345.42)" fill="#0f30c7"/>
  <path id="Path_10027" data-name="Path 10027" d="M297.294,437.993a.952.952,0,0,1,.827.1,2.652,2.652,0,0,1-1.968.3C296.479,438.1,297,438.364,297.294,437.993Z" transform="translate(-240.314 -366.164)" fill="#5e74d9"/>
  <path id="Path_10028" data-name="Path 10028" d="M310.582,438.041l.934.018c.3.372.816.108,1.141.4l-1.4.024C311.141,438.171,310.494,438.669,310.582,438.041Z" transform="translate(-250.296 -366.23)" fill="#5e74d9"/>
  <path id="Path_10029" data-name="Path 10029" d="M263.318,394.94c-5.371-10.758-14-17.024-26.009-18.475-.388-.171-.811,0-1.205-.13a2.614,2.614,0,0,0-.617-.072.963.963,0,0,0,.68-.2,3.442,3.442,0,0,0,.459-.044c5.829-1.349,9.641-4.9,10.925-10.73a12.978,12.978,0,0,0-5.076-13.8c-4.662-3.6-9.821-3.932-15.045-1.217a13.8,13.8,0,0,0,4.5,25.793c.156.178.391.085.574.158-.558.19-1.152.1-1.716.241a26.437,26.437,0,0,0-8.364,1.987c-12.427,5.285-19.361,14.671-20.625,28.124-.621,6.612,2.443,11.958,8.052,14.617,1.177.558,2.479.7,3.652,1.245h40.863c.069-.168.218-.178.37-.2A13.827,13.827,0,0,0,266.363,408.3,30.167,30.167,0,0,0,263.318,394.94Zm-33.884-32.5a4.614,4.614,0,1,1,4.641,4.587A4.623,4.623,0,0,1,229.434,362.441ZM252.261,413.2q-11.532.017-23.063,0c-2.613,0-5.226-.024-7.839-.038a5.892,5.892,0,0,1-1.446-4.363,26.4,26.4,0,0,1,2.237-11.211,28.025,28.025,0,0,1,8.286-10.9,4.669,4.669,0,0,1,2.689-1.154,23.044,23.044,0,0,1,23.8,20.187,25.249,25.249,0,0,1,.191,2.525A4.605,4.605,0,0,1,252.261,413.2Z" transform="translate(-174.948 -304.237)" fill="#db1826"/>
  <path id="Path_10030" data-name="Path 10030" d="M308.612,438.025l.676.441c-.494-.038-1.013.142-1.561-.177C307.973,437.908,308.32,438.047,308.612,438.025Z" transform="translate(-248.326 -366.214)" fill="#0f30c7"/>
  <path id="Path_10031" data-name="Path 10031" d="M147.3,348.445a17.861,17.861,0,0,0-7.07-1.868,5.777,5.777,0,0,0-1.064-.2.925.925,0,0,0,.574-.211,6.924,6.924,0,0,0,.915-.077,13.862,13.862,0,1,0-16.67-13.861c-.086,7.023,4.633,12.606,11.891,14.032a1.412,1.412,0,0,1-.969.318,23.091,23.091,0,0,0-19.52,17.487,9.555,9.555,0,0,1-.64,2.624v4.848c.269.12.2.382.251.595a13.948,13.948,0,0,0,14.591,11.177,4.629,4.629,0,1,0-.5-9.24c-3.32.01-5.208-1.975-5.1-5.284A13.989,13.989,0,0,1,134.2,356.1a14.656,14.656,0,0,1,9.36.7,4.585,4.585,0,0,0,3.74-8.357Zm-14.081-15.879a4.614,4.614,0,1,1,4.653,4.575A4.624,4.624,0,0,1,133.222,332.566Z" transform="translate(-114.75 -283.584)" fill="#db1826"/>
  <path id="Path_10032" data-name="Path 10032" d="M415.645,366.966c-.231-.088-.193-.3-.216-.479a21.687,21.687,0,0,0-3.7-9.8,22.349,22.349,0,0,0-16.774-10.071,9.356,9.356,0,0,0-1.224-.228.931.931,0,0,0,.736-.178,5.741,5.741,0,0,0,.915-.078c5.227-1.288,8.83-4.427,10.4-9.595a13.188,13.188,0,0,0-3.265-13.543,13.686,13.686,0,0,0-15.582-3.081,13.944,13.944,0,0,0-8.193,13.869c.584,6.34,5.084,11.109,11.882,12.539a2.37,2.37,0,0,1-1.239.323,21.454,21.454,0,0,0-6.073,1.708,4.6,4.6,0,0,0,1.344,8.775,6.252,6.252,0,0,0,3.123-.614c8.953-3.309,18.685,3.417,18.626,12.869a4.625,4.625,0,0,1-4.626,4.736c-.384.01-.77-.009-1.154.012a4.619,4.619,0,0,0-.307,9.2,13.974,13.974,0,0,0,15.125-11.713c.212-.372-.076-.827.2-1.189Zm-23.1-29.785a4.614,4.614,0,1,1,4.632-4.6A4.625,4.625,0,0,1,392.54,337.181Z" transform="translate(-297.444 -283.624)" fill="#db1826"/>
  <path id="Path_10033" data-name="Path 10033" d="M252.71,468.62c-2.645.863-4.378,2.932-6.124,4.877a25.97,25.97,0,0,0-5.957,11.414A20.7,20.7,0,0,0,240,493.66c.174.926.691,1.7.946,2.583-2,.011-4,.079-5.992.018a4.574,4.574,0,0,1-4.4-4.7,23.14,23.14,0,0,1,18.514-22.512A16.292,16.292,0,0,1,252.71,468.62Z" transform="translate(-194.903 -387.393)" fill="#eeecec"/>
</svg>
