<svg xmlns="http://www.w3.org/2000/svg" width="92" height="92" viewBox="0 0 92 92">
  <g id="time_meterial" data-name="time&amp;meterial" transform="translate(-272 -4520)">
    <g id="Ellipse_333" data-name="Ellipse 333" transform="translate(272 4520)" fill="#fff" stroke="#db1826" stroke-width="2">
      <circle cx="46" cy="46" r="46" stroke="none"/>
      <circle cx="46" cy="46" r="45" fill="none"/>
    </g>
    <g id="Layer_1" data-name="Layer 1" transform="translate(177.25 4335.25)">
      <path id="Path_10020" data-name="Path 10020" d="M220.239,204.75c.751.243,1.546.27,2.3.5a14.16,14.16,0,0,1,9.985,9.836,2.038,2.038,0,0,1-1.337,2.68,2.067,2.067,0,0,1-2.578-1.541,10.194,10.194,0,0,0-19.589-.049,2.073,2.073,0,0,1-2.542,1.6,2.046,2.046,0,0,1-1.4-2.648,14.369,14.369,0,0,1,11.949-10.272c.093-.013.211.023.256-.108h.408a.132.132,0,0,0,.2,0h1.835a.132.132,0,0,0,.2,0Z" transform="translate(-77.961)" fill="#db1826"/>
      <path id="Path_10021" data-name="Path 10021" d="M497.975,487.275a.6.6,0,0,1,.088-.525v.51A.162.162,0,0,1,497.975,487.275Z" transform="translate(-331.111 -243.665)" fill="#6177da"/>
      <path id="Path_10022" data-name="Path 10022" d="M298.7,204.75c-.068.11-.136.128-.2,0Z" transform="translate(-158.771)" fill="#6177da"/>
      <path id="Path_10023" data-name="Path 10023" d="M313.7,204.75c-.068.128-.136.11-.2,0Z" transform="translate(-171.732)" fill="#6177da"/>
      <path id="Path_10024" data-name="Path 10024" d="M295.78,272.912c-.663,0-1.325.008-1.988,0a2.015,2.015,0,0,1-2.076-2.052q-.02-2.013,0-4.027a2.037,2.037,0,1,1,4.073-.013c.008.459,0,.918,0,1.376.006.726-.081.632.664.639.459,0,.918-.007,1.376,0a2.037,2.037,0,1,1-.013,4.073C297.139,272.922,296.459,272.912,295.78,272.912Z" transform="translate(-152.901 -51.85)" fill="#2a2a2a"/>
      <path id="Path_10025" data-name="Path 10025" d="M191.421,408.168a2.663,2.663,0,0,1-.962-.051c.268-.217.517-.117.746-.128C191.225,408.111,191.362,408.092,191.421,408.168Z" transform="translate(-65.417 -175.599)" fill="#0f30c7"/>
      <path id="Path_10026" data-name="Path 10026" d="M425.415,408.169a2.658,2.658,0,0,1-.962-.052c.269-.216.518-.117.746-.128C425.22,408.111,425.357,408.093,425.415,408.169Z" transform="translate(-267.602 -175.599)" fill="#0f30c7"/>
      <path id="Path_10027" data-name="Path 10027" d="M296.657,437.966a.42.42,0,0,1,.365.046,1.171,1.171,0,0,1-.869.13C296.3,438.014,296.526,438.13,296.657,437.966Z" transform="translate(-156.743 -201.494)" fill="#5e74d9"/>
      <path id="Path_10028" data-name="Path 10028" d="M310.578,438.041l.413.008c.131.164.36.048.5.176l-.618.01C310.824,438.1,310.539,438.318,310.578,438.041Z" transform="translate(-169.204 -201.577)" fill="#5e74d9"/>
      <path id="Path_10029" data-name="Path 10029" d="M228.922,369a14.051,14.051,0,0,0-11.486-8.159c-.171-.075-.358,0-.532-.058a1.154,1.154,0,0,0-.272-.032.425.425,0,0,0,.3-.087,1.521,1.521,0,0,0,.2-.019,5.936,5.936,0,0,0,4.825-4.739,5.732,5.732,0,0,0-2.242-6.1,5.817,5.817,0,0,0-6.644-.538,6.1,6.1,0,0,0,1.986,11.391c.069.078.173.038.254.07-.246.084-.509.044-.758.106a11.675,11.675,0,0,0-3.694.878,14.09,14.09,0,0,0-9.109,12.42,6.174,6.174,0,0,0,3.556,6.455c.52.246,1.095.31,1.613.55h18.046c.03-.074.1-.079.164-.09a6.106,6.106,0,0,0,5.136-6.154A13.322,13.322,0,0,0,228.922,369Zm-14.964-14.352a2.038,2.038,0,1,1,2.05,2.026A2.042,2.042,0,0,1,213.958,354.645Zm10.081,22.416q-5.093.008-10.185,0c-1.154,0-2.308-.011-3.462-.017a2.6,2.6,0,0,1-.639-1.927,11.661,11.661,0,0,1,.988-4.951,12.377,12.377,0,0,1,3.659-4.812,2.062,2.062,0,0,1,1.188-.51,10.177,10.177,0,0,1,10.513,8.915,11.152,11.152,0,0,1,.084,1.115A2.034,2.034,0,0,1,224.039,377.062Z" transform="translate(-75.145 -124.19)" fill="#db1826"/>
      <path id="Path_10030" data-name="Path 10030" d="M308.118,438.021l.3.195c-.218-.017-.447.063-.689-.078C307.836,437.969,307.989,438.031,308.118,438.021Z" transform="translate(-166.744 -201.557)" fill="#0f30c7"/>
      <path id="Path_10031" data-name="Path 10031" d="M129.127,331.8a7.887,7.887,0,0,0-3.123-.825,2.549,2.549,0,0,0-.47-.086.408.408,0,0,0,.253-.093,3.06,3.06,0,0,0,.4-.034,6.094,6.094,0,1,0-2.111.076.623.623,0,0,1-.428.141,10.2,10.2,0,0,0-8.621,7.723,4.22,4.22,0,0,1-.283,1.159V342c.119.053.089.169.111.263A6.16,6.16,0,0,0,121.3,347.2a2.044,2.044,0,1,0-.22-4.081,2.059,2.059,0,0,1-2.252-2.334,6.178,6.178,0,0,1,4.508-5.605,6.473,6.473,0,0,1,4.134.311,2.025,2.025,0,0,0,1.652-3.691Zm-6.219-7.012a2.038,2.038,0,1,1,2.055,2.02A2.042,2.042,0,0,1,122.908,324.791Z" transform="translate(0 -98.409)" fill="#db1826"/>
      <path id="Path_10032" data-name="Path 10032" d="M395.01,340.015c-.1-.039-.085-.131-.1-.211a9.578,9.578,0,0,0-1.635-4.327,9.87,9.87,0,0,0-7.408-4.448,4.13,4.13,0,0,0-.541-.1.411.411,0,0,0,.325-.079,2.534,2.534,0,0,0,.4-.035,5.975,5.975,0,0,0,4.595-4.237,5.824,5.824,0,0,0-1.442-5.981,6.044,6.044,0,0,0-6.882-1.361,6.124,6.124,0,0,0,1.629,11.662,1.047,1.047,0,0,1-.547.143,9.474,9.474,0,0,0-2.682.754,2.032,2.032,0,0,0,.594,3.875,2.761,2.761,0,0,0,1.379-.271,6.124,6.124,0,0,1,8.226,5.684,2.043,2.043,0,0,1-2.043,2.092c-.17,0-.34,0-.51.005a2.04,2.04,0,0,0-.135,4.063,6.171,6.171,0,0,0,6.68-5.173c.094-.164-.034-.365.088-.525Zm-10.2-13.154a2.038,2.038,0,1,1,2.046-2.03A2.042,2.042,0,0,1,384.806,326.862Z" transform="translate(-228.058 -98.46)" fill="#db1826"/>
      <path id="Path_10033" data-name="Path 10033" d="M240.335,468.617a6.528,6.528,0,0,0-2.7,2.154A11.47,11.47,0,0,0,235,475.812a9.142,9.142,0,0,0-.279,3.864c.077.409.305.751.418,1.141-.882,0-1.765.035-2.646.008a2.02,2.02,0,0,1-1.944-2.077,10.219,10.219,0,0,1,8.176-9.942A7.191,7.191,0,0,1,240.335,468.617Z" transform="translate(-100.056 -227.995)" fill="#eeecec"/>
    </g>
  </g>
</svg>
