<svg xmlns="http://www.w3.org/2000/svg" viewBox="0 0 444.06 432.42"><defs><style>.cls-1{fill:#e0e0e0;}.cls-2{fill:#f5f5f5;}.cls-3{fill:#292d32;}.cls-4,.cls-8{fill:#fff;}.cls-5{fill:#414242;}.cls-6{fill:#263238;}.cls-7{fill:#e8505b;}.cls-8{opacity:0.4;}.cls-9{opacity:0.2;}.cls-10{fill:#dd1928;}.cls-11{fill:#fafafa;}.cls-12{fill:#455a64;}.cls-13{opacity:0.5;}.cls-14{opacity:0.3;}.cls-15{opacity:0.7;}.cls-16{fill:#ebebeb;}.cls-17{fill:#c21523;}</style></defs><title>uiux</title><g id="Screens"><path class="cls-1" d="M271.69,100.81a2.89,2.89,0,0,1,1.28-.15h.43l-.14.14c0-.5.08-.85.14-.85s.12.35.14.85v.14H273A2.89,2.89,0,0,1,271.69,100.81Z" transform="translate(-21.6 -37.06)"/><ellipse class="cls-1" cx="247.52" cy="63.74" rx="0.86" ry="0.15"/><ellipse class="cls-1" cx="244.09" cy="63.74" rx="0.86" ry="0.15"/><ellipse class="cls-1" cx="240.66" cy="63.74" rx="0.86" ry="0.15"/><ellipse class="cls-1" cx="237.24" cy="63.74" rx="0.86" ry="0.15"/><ellipse class="cls-1" cx="233.81" cy="63.74" rx="0.86" ry="0.15"/><ellipse class="cls-1" cx="230.38" cy="63.74" rx="0.86" ry="0.15"/><ellipse class="cls-1" cx="226.96" cy="63.74" rx="0.86" ry="0.15"/><ellipse class="cls-1" cx="223.53" cy="63.74" rx="0.86" ry="0.15"/><ellipse class="cls-1" cx="220.1" cy="63.74" rx="0.86" ry="0.15"/><ellipse class="cls-1" cx="216.67" cy="63.74" rx="0.86" ry="0.15"/><ellipse class="cls-1" cx="213.25" cy="63.74" rx="0.86" ry="0.15"/><ellipse class="cls-1" cx="209.82" cy="63.74" rx="0.86" ry="0.15"/><ellipse class="cls-1" cx="206.39" cy="63.74" rx="0.86" ry="0.15"/><ellipse class="cls-1" cx="202.97" cy="63.74" rx="0.86" ry="0.15"/><ellipse class="cls-1" cx="199.54" cy="63.74" rx="0.86" ry="0.15"/><ellipse class="cls-1" cx="196.11" cy="63.74" rx="0.86" ry="0.15"/><ellipse class="cls-1" cx="192.68" cy="63.74" rx="0.86" ry="0.15"/><ellipse class="cls-1" cx="190.76" cy="62.24" rx="0.15" ry="0.86"/><ellipse class="cls-1" cx="190.76" cy="58.82" rx="0.15" ry="0.86"/><ellipse class="cls-1" cx="190.76" cy="55.39" rx="0.15" ry="0.86"/><ellipse class="cls-1" cx="190.76" cy="51.96" rx="0.15" ry="0.86"/><ellipse class="cls-1" cx="190.76" cy="48.53" rx="0.15" ry="0.86"/><ellipse class="cls-1" cx="190.76" cy="45.11" rx="0.15" ry="0.86"/><ellipse class="cls-1" cx="190.76" cy="41.68" rx="0.15" ry="0.86"/><ellipse class="cls-1" cx="190.76" cy="38.25" rx="0.15" ry="0.86"/><ellipse class="cls-1" cx="190.76" cy="34.83" rx="0.15" ry="0.86"/><ellipse class="cls-1" cx="190.76" cy="31.4" rx="0.15" ry="0.86"/><ellipse class="cls-1" cx="190.76" cy="27.97" rx="0.15" ry="0.86"/><ellipse class="cls-1" cx="190.76" cy="24.54" rx="0.15" ry="0.86"/><ellipse class="cls-1" cx="190.76" cy="21.12" rx="0.15" ry="0.86"/><ellipse class="cls-1" cx="190.76" cy="17.69" rx="0.15" ry="0.86"/><ellipse class="cls-1" cx="190.76" cy="14.26" rx="0.15" ry="0.86"/><ellipse class="cls-1" cx="190.76" cy="10.84" rx="0.15" ry="0.86"/><ellipse class="cls-1" cx="190.76" cy="7.41" rx="0.15" ry="0.86"/><ellipse class="cls-1" cx="190.76" cy="3.98" rx="0.15" ry="0.86"/><ellipse class="cls-1" cx="192.9" cy="2.7" rx="0.86" ry="0.15"/><ellipse class="cls-1" cx="196.33" cy="2.7" rx="0.86" ry="0.15"/><ellipse class="cls-1" cx="199.76" cy="2.7" rx="0.86" ry="0.15"/><ellipse class="cls-1" cx="203.18" cy="2.7" rx="0.86" ry="0.15"/><ellipse class="cls-1" cx="206.61" cy="2.7" rx="0.86" ry="0.15"/><ellipse class="cls-1" cx="210.04" cy="2.7" rx="0.86" ry="0.15"/><ellipse class="cls-1" cx="213.47" cy="2.7" rx="0.86" ry="0.15"/><ellipse class="cls-1" cx="216.89" cy="2.7" rx="0.86" ry="0.15"/><ellipse class="cls-1" cx="220.32" cy="2.7" rx="0.86" ry="0.15"/><ellipse class="cls-1" cx="223.75" cy="2.7" rx="0.86" ry="0.15"/><ellipse class="cls-1" cx="227.17" cy="2.7" rx="0.86" ry="0.15"/><ellipse class="cls-1" cx="230.6" cy="2.7" rx="0.86" ry="0.15"/><ellipse class="cls-1" cx="234.03" cy="2.7" rx="0.86" ry="0.15"/><ellipse class="cls-1" cx="237.45" cy="2.7" rx="0.86" ry="0.15"/><ellipse class="cls-1" cx="240.88" cy="2.7" rx="0.86" ry="0.15"/><ellipse class="cls-1" cx="244.31" cy="2.7" rx="0.86" ry="0.15"/><ellipse class="cls-1" cx="247.74" cy="2.7" rx="0.86" ry="0.15"/><path class="cls-1" d="M273.4,40s-.07-.08-.1-.22l.1.1a3.51,3.51,0,0,1-.64,0c-.47,0-.86-.07-.86-.15s.38-.15.86-.15a3.51,3.51,0,0,1,.64,0l.11,0v.08C273.47,39.9,273.44,40,273.4,40Z" transform="translate(-21.6 -37.06)"/><ellipse class="cls-1" cx="251.8" cy="5.49" rx="0.15" ry="0.86"/><ellipse class="cls-1" cx="251.8" cy="8.92" rx="0.15" ry="0.86"/><ellipse class="cls-1" cx="251.8" cy="12.34" rx="0.15" ry="0.86"/><ellipse class="cls-1" cx="251.8" cy="15.77" rx="0.15" ry="0.86"/><ellipse class="cls-1" cx="251.8" cy="19.2" rx="0.15" ry="0.86"/><ellipse class="cls-1" cx="251.8" cy="22.62" rx="0.15" ry="0.86"/><ellipse class="cls-1" cx="251.8" cy="26.05" rx="0.15" ry="0.86"/><ellipse class="cls-1" cx="251.8" cy="29.48" rx="0.15" ry="0.86"/><ellipse class="cls-1" cx="251.8" cy="32.91" rx="0.15" ry="0.86"/><ellipse class="cls-1" cx="251.8" cy="36.33" rx="0.15" ry="0.86"/><ellipse class="cls-1" cx="251.8" cy="39.76" rx="0.15" ry="0.86"/><ellipse class="cls-1" cx="251.8" cy="43.19" rx="0.15" ry="0.86"/><ellipse class="cls-1" cx="251.8" cy="46.61" rx="0.15" ry="0.86"/><ellipse class="cls-1" cx="251.8" cy="50.04" rx="0.15" ry="0.86"/><ellipse class="cls-1" cx="251.8" cy="53.47" rx="0.15" ry="0.86"/><ellipse class="cls-1" cx="251.8" cy="56.9" rx="0.15" ry="0.86"/><ellipse class="cls-1" cx="251.8" cy="60.32" rx="0.15" ry="0.86"/><rect class="cls-1" x="249.54" y="60.86" width="4.52" height="4.52"/><rect class="cls-1" x="188.5" y="61.48" width="4.52" height="4.52"/><rect class="cls-1" x="249.54" width="4.52" height="4.52"/><rect class="cls-1" x="188.5" y="0.44" width="4.52" height="4.52"/><ellipse class="cls-1" cx="136.54" cy="429.6" rx="1.56" ry="0.27"/><ellipse class="cls-1" cx="130.3" cy="429.6" rx="1.56" ry="0.27"/><ellipse class="cls-1" cx="124.06" cy="429.6" rx="1.56" ry="0.27"/><ellipse class="cls-1" cx="117.83" cy="429.6" rx="1.56" ry="0.27"/><ellipse class="cls-1" cx="111.59" cy="429.6" rx="1.56" ry="0.27"/><ellipse class="cls-1" cx="105.36" cy="429.6" rx="1.56" ry="0.27"/><ellipse class="cls-1" cx="99.12" cy="429.6" rx="1.56" ry="0.27"/><ellipse class="cls-1" cx="92.89" cy="429.6" rx="1.56" ry="0.27"/><ellipse class="cls-1" cx="86.65" cy="429.6" rx="1.56" ry="0.27"/><ellipse class="cls-1" cx="80.41" cy="429.6" rx="1.56" ry="0.27"/><ellipse class="cls-1" cx="74.18" cy="429.6" rx="1.56" ry="0.27"/><ellipse class="cls-1" cx="67.94" cy="429.6" rx="1.56" ry="0.27"/><path class="cls-1" d="M83.54,464.88c.15,0,.27.7.27,1.56v.23l-.27-.27c.75,0,1.33.13,1.33.27s-.57.25-1.33.27h-.26v-.51C83.27,465.57,83.39,464.88,83.54,464.88Z" transform="translate(-21.6 -37.06)"/><ellipse class="cls-1" cx="61.94" cy="423.14" rx="0.27" ry="1.56"/><ellipse class="cls-1" cx="61.94" cy="416.9" rx="0.27" ry="1.56"/><ellipse class="cls-1" cx="61.94" cy="410.66" rx="0.27" ry="1.56"/><ellipse class="cls-1" cx="61.94" cy="404.43" rx="0.27" ry="1.56"/><ellipse class="cls-1" cx="61.94" cy="398.19" rx="0.27" ry="1.56"/><ellipse class="cls-1" cx="61.94" cy="391.96" rx="0.27" ry="1.56"/><ellipse class="cls-1" cx="61.94" cy="385.72" rx="0.27" ry="1.56"/><ellipse class="cls-1" cx="61.94" cy="379.49" rx="0.27" ry="1.56"/><ellipse class="cls-1" cx="61.94" cy="373.25" rx="0.27" ry="1.56"/><ellipse class="cls-1" cx="61.94" cy="367.01" rx="0.27" ry="1.56"/><ellipse class="cls-1" cx="61.94" cy="360.78" rx="0.27" ry="1.56"/><path class="cls-1" d="M84,390.52c0,.08-.18.14-.47.19l.19-.19a6.83,6.83,0,0,1,.08,1.09c0,.86-.12,1.56-.27,1.56s-.27-.7-.27-1.56a6.81,6.81,0,0,1,.08-1.09l0-.22.16,0C83.83,390.37,84,390.44,84,390.52Z" transform="translate(-21.6 -37.06)"/><ellipse class="cls-1" cx="67.08" cy="353.45" rx="1.56" ry="0.27"/><ellipse class="cls-1" cx="73.32" cy="353.45" rx="1.56" ry="0.27"/><ellipse class="cls-1" cx="79.56" cy="353.45" rx="1.56" ry="0.27"/><ellipse class="cls-1" cx="85.79" cy="353.45" rx="1.56" ry="0.27"/><ellipse class="cls-1" cx="92.03" cy="353.45" rx="1.56" ry="0.27"/><ellipse class="cls-1" cx="98.26" cy="353.45" rx="1.56" ry="0.27"/><ellipse class="cls-1" cx="104.5" cy="353.45" rx="1.56" ry="0.27"/><ellipse class="cls-1" cx="110.73" cy="353.45" rx="1.56" ry="0.27"/><ellipse class="cls-1" cx="116.97" cy="353.45" rx="1.56" ry="0.27"/><ellipse class="cls-1" cx="123.21" cy="353.45" rx="1.56" ry="0.27"/><ellipse class="cls-1" cx="129.44" cy="353.45" rx="1.56" ry="0.27"/><ellipse class="cls-1" cx="135.68" cy="353.45" rx="1.56" ry="0.27"/><ellipse class="cls-1" cx="138.09" cy="357.27" rx="0.27" ry="1.56"/><ellipse class="cls-1" cx="138.09" cy="363.5" rx="0.27" ry="1.56"/><ellipse class="cls-1" cx="138.09" cy="369.74" rx="0.27" ry="1.56"/><ellipse class="cls-1" cx="138.09" cy="375.98" rx="0.27" ry="1.56"/><ellipse class="cls-1" cx="138.09" cy="382.21" rx="0.27" ry="1.56"/><ellipse class="cls-1" cx="138.09" cy="388.45" rx="0.27" ry="1.56"/><ellipse class="cls-1" cx="138.09" cy="394.68" rx="0.27" ry="1.56"/><ellipse class="cls-1" cx="138.09" cy="400.92" rx="0.27" ry="1.56"/><ellipse class="cls-1" cx="138.09" cy="407.15" rx="0.27" ry="1.56"/><ellipse class="cls-1" cx="138.09" cy="413.39" rx="0.27" ry="1.56"/><ellipse class="cls-1" cx="138.09" cy="419.63" rx="0.27" ry="1.56"/><ellipse class="cls-1" cx="138.09" cy="425.86" rx="0.27" ry="1.56"/><rect class="cls-1" x="135.27" y="426.01" width="5.64" height="5.64"/><rect class="cls-1" x="59.12" y="426.78" width="5.64" height="5.64"/><rect class="cls-1" x="135.27" y="350.08" width="5.64" height="5.64"/><rect class="cls-1" x="59.12" y="350.63" width="5.64" height="5.64"/><path class="cls-2" d="M127.1,403c21.69-17.53,24.8-47.46,22-74-.46-4.43-.3-9.14-2.68-12.88s-7.49-6.06-11.34-3.91c-3.19,1.78-4.35,5.71-6,9a26,26,0,0,1-9.71,10.67c-2.72,1.66-6.16,2.8-9.05,1.46-4-1.84-4.8-7.1-5.08-11.52l-1.57-24.69c-.28-4.41-.58-8.92-2.25-13s-5-7.77-9.25-8.65-9.3,1.9-9.89,6.28c-.24,1.82.25,3.66.26,5.5s-.71,3.93-2.41,4.56-3.58-.49-5-1.69C70.33,286,66.84,280.47,63.55,275s-6.5-11.15-11-15.73-10.46-8-16.8-7.94-12.81,4.46-14,10.77,2.9,12.39,7.21,17.15a98.76,98.76,0,0,0,21.88,18.12c1.46.89,3,1.85,3.69,3.45,1.16,2.88-1.42,6-4.26,7.16-3.21,1.33-6.81,1.23-10.22,1.88s-7,2.42-8.11,5.77c-1.49,4.64,2.61,9.1,6.54,11.94a84.6,84.6,0,0,0,26,12.67c3.33,1,6.82,1.76,9.6,3.86s4.63,6,3.27,9.17-5.36,4.5-8.8,4.11-6.62-2-9.94-3c-6.22-1.87-14-.9-17.55,4.61-2.31,3.62-2.2,8.44-.62,12.45s4.44,7.37,7.45,10.44c10.52,10.72,23.6,19,38,22.93s27.54,4.3,41.16-1.79" transform="translate(-21.6 -37.06)"/><path class="cls-1" d="M123.95,405.15c-1.7-10.46,0-5.22-4.88-18.35a396.25,396.25,0,0,0-18.67-41.48L94.94,334.7c-1.8-3.48-3.58-6.93-5.53-10.2a197.9,197.9,0,0,0-12.3-18.14c-4.19-5.58-8.37-10.73-12.31-15.51s-7.73-9.16-11.33-13A157,157,0,0,0,35.12,261c-2.31-1.82-4.16-3.16-5.42-4.06l-1.44-1a3.34,3.34,0,0,0-.51-.32,3.1,3.1,0,0,0,.46.39L29.6,257c1.23.94,3,2.33,5.32,4.18a166.14,166.14,0,0,1,18.13,17c3.57,3.86,7.31,8.25,11.23,13s8.07,9.95,12.24,15.53a200.19,200.19,0,0,1,12.21,18.1c1.94,3.25,3.7,6.68,5.5,10.17l5.45,10.62a406.26,406.26,0,0,1,18.7,41.37c4.9,13.07,3.25,7.77,5,18.18" transform="translate(-21.6 -37.06)"/><path class="cls-1" d="M89.17,324.48a9,9,0,0,0,.3-1.91c.15-1.24.3-3,.46-5.25.32-4.44.54-10.58.77-17.35s.54-12.9.92-17.32c.19-2.21.35-4,.49-5.23a8.87,8.87,0,0,0,.11-1.93,8.78,8.78,0,0,0-.43,1.89c-.23,1.22-.49,3-.74,5.22-.53,4.42-.94,10.57-1.17,17.35s-.39,12.73-.53,17.35c-.08,2.09-.14,3.85-.2,5.26A8.85,8.85,0,0,0,89.17,324.48Z" transform="translate(-21.6 -37.06)"/><path class="cls-1" d="M31.69,317.84A12.32,12.32,0,0,0,34,318c1.46,0,3.58.06,6.2.18,5.24.2,12.46.72,20.4,1.65s15.1,2.1,20.25,3.09c2.58.48,4.66.92,6.09,1.21a12.19,12.19,0,0,0,2.25.39,12.14,12.14,0,0,0-2.18-.7c-1.42-.39-3.48-.92-6.05-1.47-5.14-1.14-12.3-2.39-20.27-3.34a200.68,200.68,0,0,0-20.48-1.42c-2.63,0-4.75,0-6.22.09A12.05,12.05,0,0,0,31.69,317.84Z" transform="translate(-21.6 -37.06)"/><path class="cls-1" d="M118.3,385.8a2.91,2.91,0,0,0,.34-.72l.83-2.12c.71-1.84,1.67-4.54,2.81-7.89,2.28-6.69,5.15-16,8.17-26.39s5.79-19.71,7.93-26.44l2.56-8,.68-2.17a2.91,2.91,0,0,0,.19-.78,3,3,0,0,0-.34.72l-.83,2.12c-.71,1.84-1.67,4.54-2.81,7.89-2.28,6.69-5.15,16-8.17,26.39s-5.79,19.71-7.93,26.44l-2.56,8-.68,2.17A3,3,0,0,0,118.3,385.8Z" transform="translate(-21.6 -37.06)"/><path class="cls-1" d="M41.2,366.77A3,3,0,0,0,42,367l2.24.58,8.26,2.05c7,1.73,16.57,4.24,27.18,7s20.24,5.2,27.25,6.79c3.5.8,6.35,1.41,8.32,1.8l2.27.43a3,3,0,0,0,.8.09,3.1,3.1,0,0,0-.77-.26l-2.24-.58L107,382.91c-7-1.73-16.57-4.24-27.18-7s-20.24-5.2-27.25-6.79c-3.5-.8-6.35-1.41-8.32-1.8L42,366.86A3,3,0,0,0,41.2,366.77Z" transform="translate(-21.6 -37.06)"/><path class="cls-2" d="M452.29,282a15.13,15.13,0,0,1,2.48,11.59,26.71,26.71,0,0,1-5,11c-4.6,6.37-12.34,11.06-19.56,14.16-2.92-8.23.68-17.69,2.8-22.38,3.36-7.41,13.92-18.76,19.28-14.36" transform="translate(-21.6 -37.06)"/><path class="cls-2" d="M430.55,333.76a12.91,12.91,0,0,1,9.66-8.65,17.15,17.15,0,0,1,13,2.76c1.74,1.17,3.42,2.81,3.61,4.89a5.52,5.52,0,0,1-2.67,4.92,11.2,11.2,0,0,1-5.61,1.52c-6.72.32-13.28-.6-17.95-5.45" transform="translate(-21.6 -37.06)"/><path class="cls-1" d="M414.9,345.69a25.39,25.39,0,0,1,3.28-4,24.12,24.12,0,0,1,4.34-3.67,52.93,52.93,0,0,1,5.92-3.6,25.84,25.84,0,0,1,12.22-2.9,18.74,18.74,0,0,1,3.79.53,4.13,4.13,0,0,1,1.32.49c0,.16-2-.42-5.12-.4a27.71,27.71,0,0,0-11.82,3.07,62.15,62.15,0,0,0-5.86,3.49,26.59,26.59,0,0,0-4.35,3.43A37.44,37.44,0,0,1,414.9,345.69Z" transform="translate(-21.6 -37.06)"/><path class="cls-1" d="M445,291.39a15,15,0,0,1-1.06,2.41c-.73,1.52-1.82,3.72-3.18,6.41-2.73,5.39-6.59,12.79-11.05,20.87s-8.71,15.27-11.9,20.41c-1.59,2.57-2.9,4.63-3.84,6a15,15,0,0,1-1.52,2.14,15,15,0,0,1,1.23-2.32l3.6-6.18c3-5.22,7.2-12.45,11.66-20.51l11.27-20.73,3.43-6.28A15,15,0,0,1,445,291.39Z" transform="translate(-21.6 -37.06)"/><path class="cls-2" d="M420.42,331.51a30.21,30.21,0,0,0-7.25-26.63c-1.66-1.78-4.08-3.47-6.36-2.61s-3,3.74-3,6.18A25.81,25.81,0,0,0,420,332" transform="translate(-21.6 -37.06)"/><path class="cls-1" d="M412.07,311.93s.37.34.91,1,1.28,1.75,2.14,3.09A34.07,34.07,0,0,1,420,327.51a21.38,21.38,0,0,1,.18,6.9,20.81,20.81,0,0,1-3.45,8.69c-.51.73-.81,1.12-.86,1.08s1-1.72,2.14-4.61a22.32,22.32,0,0,0,1.36-5.27,22,22,0,0,0-.24-6.63,38.32,38.32,0,0,0-4.49-11.29A44,44,0,0,1,412.07,311.93Z" transform="translate(-21.6 -37.06)"/><ellipse class="cls-1" cx="436.73" cy="226.75" rx="1.87" ry="0.32"/><ellipse class="cls-1" cx="429.26" cy="226.75" rx="1.87" ry="0.32"/><ellipse class="cls-1" cx="421.79" cy="226.75" rx="1.87" ry="0.32"/><ellipse class="cls-1" cx="414.32" cy="226.75" rx="1.87" ry="0.32"/><ellipse class="cls-1" cx="406.86" cy="226.75" rx="1.87" ry="0.32"/><ellipse class="cls-1" cx="399.39" cy="226.75" rx="1.87" ry="0.32"/><ellipse class="cls-1" cx="391.92" cy="226.75" rx="1.87" ry="0.32"/><ellipse class="cls-1" cx="384.45" cy="226.75" rx="1.87" ry="0.32"/><ellipse class="cls-1" cx="376.98" cy="226.75" rx="1.87" ry="0.32"/><ellipse class="cls-1" cx="369.52" cy="226.75" rx="1.87" ry="0.32"/><ellipse class="cls-1" cx="362.05" cy="226.75" rx="1.87" ry="0.32"/><ellipse class="cls-1" cx="354.58" cy="226.75" rx="1.87" ry="0.32"/><path class="cls-1" d="M369,261.67c.18,0,.32.84.32,1.87v.28l-.32-.32c.9,0,1.59.16,1.59.32s-.69.3-1.59.32h-.32v-.33c0-.1,0-.19,0-.28C368.67,262.51,368.81,261.67,369,261.67Z" transform="translate(-21.6 -37.06)"/><ellipse class="cls-1" cx="347.39" cy="219" rx="0.32" ry="1.87"/><ellipse class="cls-1" cx="347.39" cy="211.54" rx="0.32" ry="1.87"/><ellipse class="cls-1" cx="347.39" cy="204.07" rx="0.32" ry="1.87"/><ellipse class="cls-1" cx="347.39" cy="196.6" rx="0.32" ry="1.87"/><ellipse class="cls-1" cx="347.39" cy="189.13" rx="0.32" ry="1.87"/><ellipse class="cls-1" cx="347.39" cy="181.66" rx="0.32" ry="1.87"/><ellipse class="cls-1" cx="347.39" cy="174.19" rx="0.32" ry="1.87"/><ellipse class="cls-1" cx="347.39" cy="166.73" rx="0.32" ry="1.87"/><ellipse class="cls-1" cx="347.39" cy="159.26" rx="0.32" ry="1.87"/><ellipse class="cls-1" cx="347.39" cy="151.79" rx="0.32" ry="1.87"/><ellipse class="cls-1" cx="347.39" cy="144.32" rx="0.32" ry="1.87"/><path class="cls-1" d="M369.55,172.61c0,.09-.21.17-.56.23l.23-.23a8.18,8.18,0,0,1,.09,1.31c0,1-.15,1.87-.32,1.87s-.32-.84-.32-1.87a8.16,8.16,0,0,1,.09-1.31l0-.26.19,0C369.33,172.44,369.55,172.52,369.55,172.61Z" transform="translate(-21.6 -37.06)"/><ellipse class="cls-1" cx="353.55" cy="135.55" rx="1.87" ry="0.32"/><ellipse class="cls-1" cx="361.02" cy="135.55" rx="1.87" ry="0.32"/><ellipse class="cls-1" cx="368.49" cy="135.55" rx="1.87" ry="0.32"/><ellipse class="cls-1" cx="375.96" cy="135.55" rx="1.87" ry="0.32"/><ellipse class="cls-1" cx="383.42" cy="135.55" rx="1.87" ry="0.32"/><ellipse class="cls-1" cx="390.89" cy="135.55" rx="1.87" ry="0.32"/><ellipse class="cls-1" cx="398.36" cy="135.55" rx="1.87" ry="0.32"/><ellipse class="cls-1" cx="405.83" cy="135.55" rx="1.87" ry="0.32"/><ellipse class="cls-1" cx="413.3" cy="135.55" rx="1.87" ry="0.32"/><ellipse class="cls-1" cx="420.76" cy="135.55" rx="1.87" ry="0.32"/><ellipse class="cls-1" cx="428.23" cy="135.55" rx="1.87" ry="0.32"/><ellipse class="cls-1" cx="435.7" cy="135.55" rx="1.87" ry="0.32"/><ellipse class="cls-1" cx="438.6" cy="140.12" rx="0.32" ry="1.87"/><ellipse class="cls-1" cx="438.6" cy="147.59" rx="0.32" ry="1.87"/><ellipse class="cls-1" cx="438.6" cy="155.06" rx="0.32" ry="1.87"/><ellipse class="cls-1" cx="438.6" cy="162.52" rx="0.32" ry="1.87"/><ellipse class="cls-1" cx="438.6" cy="169.99" rx="0.32" ry="1.87"/><ellipse class="cls-1" cx="438.6" cy="177.46" rx="0.32" ry="1.87"/><ellipse class="cls-1" cx="438.6" cy="184.93" rx="0.32" ry="1.87"/><ellipse class="cls-1" cx="438.6" cy="192.4" rx="0.32" ry="1.87"/><ellipse class="cls-1" cx="438.6" cy="199.86" rx="0.32" ry="1.87"/><ellipse class="cls-1" cx="438.6" cy="207.33" rx="0.32" ry="1.87"/><ellipse class="cls-1" cx="438.6" cy="214.8" rx="0.32" ry="1.87"/><ellipse class="cls-1" cx="438.6" cy="222.27" rx="0.32" ry="1.87"/><rect class="cls-1" x="435.22" y="222.45" width="6.75" height="6.75"/><rect class="cls-1" x="344.01" y="223.37" width="6.75" height="6.75"/><rect class="cls-1" x="435.22" y="131.51" width="6.75" height="6.75"/><rect class="cls-1" x="344.01" y="132.17" width="6.75" height="6.75"/><path class="cls-2" d="M447.9,186.86c-3.63-41.32-23.26-83.15-58.94-104.31-23.76-14.09-52.53-17.91-80-15.48-32.35,2.86-66.18,15.8-83.3,43.4-15.9,25.62-16.11,61.31-39.71,80.09-16.41,13.06-39.07,13.59-59.49,18.36-31,7.23-59.53,26.11-76.19,53.2s-20.44,62.3-7.62,91.4c9.61,21.82,22.27,37.7,44.35,48.34a102,102,0,0,0,38.15,9.7l143.57,8.74c44.5-2.93,93.17-8.35,124.23-40.35,18.65-19.21,28.06-45.36,36-70.91C441.28,269.43,451.52,228.18,447.9,186.86Z" transform="translate(-21.6 -37.06)"/><ellipse class="cls-3" cx="426.58" cy="107.22" rx="1.26" ry="0.22"/><ellipse class="cls-3" cx="421.53" cy="107.22" rx="1.26" ry="0.22"/><ellipse class="cls-3" cx="416.48" cy="107.22" rx="1.26" ry="0.22"/><ellipse class="cls-3" cx="411.43" cy="107.22" rx="1.26" ry="0.22"/><ellipse class="cls-3" cx="406.38" cy="107.22" rx="1.26" ry="0.22"/><ellipse class="cls-3" cx="401.32" cy="107.22" rx="1.26" ry="0.22"/><ellipse class="cls-3" cx="396.27" cy="107.22" rx="1.26" ry="0.22"/><ellipse class="cls-3" cx="391.22" cy="107.22" rx="1.26" ry="0.22"/><ellipse class="cls-3" cx="386.17" cy="107.22" rx="1.26" ry="0.22"/><ellipse class="cls-3" cx="381.12" cy="107.22" rx="1.26" ry="0.22"/><ellipse class="cls-3" cx="376.07" cy="107.22" rx="1.26" ry="0.22"/><ellipse class="cls-3" cx="371.02" cy="107.22" rx="1.26" ry="0.22"/><path class="cls-3" d="M387.76,142.84c.12,0,.22.57.22,1.26v.19l-.22-.22c.61,0,1.07.11,1.07.22s-.47.2-1.07.22h-.21v-.41C387.54,143.4,387.64,142.84,387.76,142.84Z" transform="translate(-21.6 -37.06)"/><ellipse class="cls-3" cx="366.16" cy="101.99" rx="0.22" ry="1.26"/><ellipse class="cls-3" cx="366.16" cy="96.93" rx="0.22" ry="1.26"/><ellipse class="cls-3" cx="366.16" cy="91.88" rx="0.22" ry="1.26"/><ellipse class="cls-3" cx="366.16" cy="86.83" rx="0.22" ry="1.26"/><ellipse class="cls-3" cx="366.16" cy="81.78" rx="0.22" ry="1.26"/><ellipse class="cls-3" cx="366.16" cy="76.73" rx="0.22" ry="1.26"/><ellipse class="cls-3" cx="366.16" cy="71.68" rx="0.22" ry="1.26"/><ellipse class="cls-3" cx="366.16" cy="66.63" rx="0.22" ry="1.26"/><ellipse class="cls-3" cx="366.16" cy="61.58" rx="0.22" ry="1.26"/><ellipse class="cls-3" cx="366.16" cy="56.53" rx="0.22" ry="1.26"/><ellipse class="cls-3" cx="366.16" cy="51.48" rx="0.22" ry="1.26"/><path class="cls-3" d="M388.14,82.61c0,.06-.14.12-.38.16l.16-.16a5.53,5.53,0,0,1,.06.88c0,.7-.1,1.26-.22,1.26s-.22-.57-.22-1.26a5.52,5.52,0,0,1,.06-.88l0-.18.13,0C388,82.49,388.14,82.55,388.14,82.61Z" transform="translate(-21.6 -37.06)"/><ellipse class="cls-3" cx="370.33" cy="45.54" rx="1.26" ry="0.22"/><ellipse class="cls-3" cx="375.38" cy="45.54" rx="1.26" ry="0.22"/><ellipse class="cls-3" cx="380.43" cy="45.54" rx="1.26" ry="0.22"/><ellipse class="cls-3" cx="385.48" cy="45.54" rx="1.26" ry="0.22"/><ellipse class="cls-3" cx="390.53" cy="45.54" rx="1.26" ry="0.22"/><ellipse class="cls-3" cx="395.58" cy="45.54" rx="1.26" ry="0.22"/><ellipse class="cls-3" cx="400.63" cy="45.54" rx="1.26" ry="0.22"/><ellipse class="cls-3" cx="405.68" cy="45.54" rx="1.26" ry="0.22"/><ellipse class="cls-3" cx="410.73" cy="45.54" rx="1.26" ry="0.22"/><ellipse class="cls-3" cx="415.78" cy="45.54" rx="1.26" ry="0.22"/><ellipse class="cls-3" cx="420.83" cy="45.54" rx="1.26" ry="0.22"/><ellipse class="cls-3" cx="425.88" cy="45.54" rx="1.26" ry="0.22"/><ellipse class="cls-3" cx="427.84" cy="48.64" rx="0.22" ry="1.26"/><ellipse class="cls-3" cx="427.84" cy="53.69" rx="0.22" ry="1.26"/><ellipse class="cls-3" cx="427.84" cy="58.74" rx="0.22" ry="1.26"/><ellipse class="cls-3" cx="427.84" cy="63.79" rx="0.22" ry="1.26"/><ellipse class="cls-3" cx="427.84" cy="68.84" rx="0.22" ry="1.26"/><ellipse class="cls-3" cx="427.84" cy="73.89" rx="0.22" ry="1.26"/><ellipse class="cls-3" cx="427.84" cy="78.94" rx="0.22" ry="1.26"/><ellipse class="cls-3" cx="427.84" cy="83.99" rx="0.22" ry="1.26"/><ellipse class="cls-3" cx="427.84" cy="89.04" rx="0.22" ry="1.26"/><ellipse class="cls-3" cx="427.84" cy="94.09" rx="0.22" ry="1.26"/><ellipse class="cls-3" cx="427.84" cy="99.14" rx="0.22" ry="1.26"/><ellipse class="cls-3" cx="427.84" cy="104.19" rx="0.22" ry="1.26"/><rect class="cls-3" x="425.56" y="104.32" width="4.57" height="4.57"/><rect class="cls-3" x="363.88" y="104.94" width="4.57" height="4.57"/><rect class="cls-3" x="425.56" y="42.81" width="4.57" height="4.57"/><rect class="cls-3" x="363.88" y="43.26" width="4.57" height="4.57"/><ellipse class="cls-3" cx="81.77" cy="196.34" rx="1.26" ry="0.22"/><ellipse class="cls-3" cx="76.72" cy="196.34" rx="1.26" ry="0.22"/><ellipse class="cls-3" cx="71.67" cy="196.34" rx="1.26" ry="0.22"/><ellipse class="cls-3" cx="66.62" cy="196.34" rx="1.26" ry="0.22"/><ellipse class="cls-3" cx="61.57" cy="196.34" rx="1.26" ry="0.22"/><ellipse class="cls-3" cx="56.52" cy="196.34" rx="1.26" ry="0.22"/><ellipse class="cls-3" cx="51.47" cy="196.34" rx="1.26" ry="0.22"/><ellipse class="cls-3" cx="46.42" cy="196.34" rx="1.26" ry="0.22"/><ellipse class="cls-3" cx="41.37" cy="196.34" rx="1.26" ry="0.22"/><ellipse class="cls-3" cx="36.32" cy="196.34" rx="1.26" ry="0.22"/><ellipse class="cls-3" cx="31.26" cy="196.34" rx="1.26" ry="0.22"/><ellipse class="cls-3" cx="26.21" cy="196.34" rx="1.26" ry="0.22"/><path class="cls-3" d="M43,232c.12,0,.22.57.22,1.26v.19l-.22-.22c.61,0,1.07.11,1.07.22s-.47.2-1.07.22h-.21v-.41C42.73,232.52,42.83,232,43,232Z" transform="translate(-21.6 -37.06)"/><ellipse class="cls-3" cx="21.35" cy="191.1" rx="0.22" ry="1.26"/><ellipse class="cls-3" cx="21.35" cy="186.05" rx="0.22" ry="1.26"/><ellipse class="cls-3" cx="21.35" cy="181" rx="0.22" ry="1.26"/><ellipse class="cls-3" cx="21.35" cy="175.95" rx="0.22" ry="1.26"/><ellipse class="cls-3" cx="21.35" cy="170.9" rx="0.22" ry="1.26"/><ellipse class="cls-3" cx="21.35" cy="165.84" rx="0.22" ry="1.26"/><ellipse class="cls-3" cx="21.35" cy="160.79" rx="0.22" ry="1.26"/><ellipse class="cls-3" cx="21.35" cy="155.74" rx="0.22" ry="1.26"/><ellipse class="cls-3" cx="21.35" cy="150.69" rx="0.22" ry="1.26"/><ellipse class="cls-3" cx="21.35" cy="145.64" rx="0.22" ry="1.26"/><ellipse class="cls-3" cx="21.35" cy="140.59" rx="0.22" ry="1.26"/><path class="cls-3" d="M43.33,171.72c0,.06-.14.12-.38.16l.16-.16a5.53,5.53,0,0,1,.06.88c0,.7-.1,1.26-.22,1.26s-.22-.57-.22-1.26a5.52,5.52,0,0,1,.06-.88l0-.18.13,0C43.19,171.6,43.33,171.66,43.33,171.72Z" transform="translate(-21.6 -37.06)"/><ellipse class="cls-3" cx="25.52" cy="134.66" rx="1.26" ry="0.22"/><ellipse class="cls-3" cx="30.57" cy="134.66" rx="1.26" ry="0.22"/><ellipse class="cls-3" cx="35.62" cy="134.66" rx="1.26" ry="0.22"/><ellipse class="cls-3" cx="40.67" cy="134.66" rx="1.26" ry="0.22"/><ellipse class="cls-3" cx="45.72" cy="134.66" rx="1.26" ry="0.22"/><ellipse class="cls-3" cx="50.77" cy="134.66" rx="1.26" ry="0.22"/><ellipse class="cls-3" cx="55.82" cy="134.66" rx="1.26" ry="0.22"/><ellipse class="cls-3" cx="60.87" cy="134.66" rx="1.26" ry="0.22"/><ellipse class="cls-3" cx="65.92" cy="134.66" rx="1.26" ry="0.22"/><ellipse class="cls-3" cx="70.97" cy="134.66" rx="1.26" ry="0.22"/><ellipse class="cls-3" cx="76.03" cy="134.66" rx="1.26" ry="0.22"/><ellipse class="cls-3" cx="81.08" cy="134.66" rx="1.26" ry="0.22"/><ellipse class="cls-3" cx="83.03" cy="137.75" rx="0.22" ry="1.26"/><ellipse class="cls-3" cx="83.03" cy="142.8" rx="0.22" ry="1.26"/><ellipse class="cls-3" cx="83.03" cy="147.85" rx="0.22" ry="1.26"/><ellipse class="cls-3" cx="83.03" cy="152.9" rx="0.22" ry="1.26"/><ellipse class="cls-3" cx="83.03" cy="157.95" rx="0.22" ry="1.26"/><ellipse class="cls-3" cx="83.03" cy="163" rx="0.22" ry="1.26"/><ellipse class="cls-3" cx="83.03" cy="168.05" rx="0.22" ry="1.26"/><ellipse class="cls-3" cx="83.03" cy="173.1" rx="0.22" ry="1.26"/><ellipse class="cls-3" cx="83.03" cy="178.15" rx="0.22" ry="1.26"/><ellipse class="cls-3" cx="83.03" cy="183.21" rx="0.22" ry="1.26"/><ellipse class="cls-3" cx="83.03" cy="188.26" rx="0.22" ry="1.26"/><ellipse class="cls-3" cx="83.03" cy="193.31" rx="0.22" ry="1.26"/><rect class="cls-3" x="80.75" y="193.43" width="4.57" height="4.57"/><rect class="cls-3" x="19.07" y="194.05" width="4.57" height="4.57"/><rect class="cls-3" x="80.75" y="131.93" width="4.57" height="4.57"/><rect class="cls-3" x="19.07" y="132.37" width="4.57" height="4.57"/><rect class="cls-4" x="103.7" y="153.43" width="275.61" height="257.45"/><rect class="cls-3" x="103.7" y="153.16" width="275.61" height="17.74"/><ellipse class="cls-5" cx="113.88" cy="163.42" rx="2.57" ry="2.71"/><ellipse class="cls-5" cx="123.18" cy="163.42" rx="2.57" ry="2.71"/><path class="cls-5" d="M155.9,198.57a2.81,2.81,0,0,1,0,3.83,2.48,2.48,0,0,1-3.63,0,2.81,2.81,0,0,1,0-3.83A2.48,2.48,0,0,1,155.9,198.57Z" transform="translate(-21.6 -37.06)"/><path class="cls-6" d="M400.91,447.67c0-1.35-.06-102.73-.16-257.45l.16.16-275.58,0h0l.19-.19c0,93.91,0,182.14,0,257.45l-.16-.16,275.61.16-275.61.16h-.16v-.16c0-75.31,0-163.54,0-257.45V190h.21l275.58,0h.16v.16C401,344.94,400.91,446.32,400.91,447.67Z" transform="translate(-21.6 -37.06)"/><rect class="cls-7" x="221.04" y="184.24" width="13.76" height="13.76"/><rect class="cls-7" x="238.58" y="184.24" width="13.76" height="13.76"/><rect class="cls-7" x="256.11" y="184.24" width="13.76" height="13.76"/><rect class="cls-8" x="256.11" y="184.24" width="13.76" height="13.76"/><rect class="cls-9" x="221.04" y="184.24" width="13.76" height="13.76"/><path class="cls-10" d="M328.21,316.19s0,.41,0,1.2,0,2-.12,3.51a62.45,62.45,0,0,1-2.45,13.15c-.47,1.37-.86,2.85-1.5,4.32l-.92,2.28c-.33.77-.73,1.53-1.1,2.32-.72,1.6-1.67,3.16-2.61,4.81-.47.83-1,1.6-1.58,2.43a29.57,29.57,0,0,1-1.73,2.44,58.5,58.5,0,0,1-8.83,9.47,61.58,61.58,0,0,1-11.91,8.12l.11-.19-.42,16.24v.22h-.22l-53.11,0h-.26v-.26c0-4.86,0-10,0-15.29l.15.24c-1.78-.94-3.75-1.85-5.58-3a60.51,60.51,0,0,1-29.29-51.1,60.09,60.09,0,0,1,5.43-26,60.76,60.76,0,0,1,13.49-18.89,62.75,62.75,0,0,1,7.93-6.37,65.56,65.56,0,0,1,7.89-4.48,61.24,61.24,0,0,1,13.76-4.57,64.34,64.34,0,0,1,9.1-1.12l2.39,0h.81l-.81,0-2.38.09a67.82,67.82,0,0,0-9.07,1.21,61.74,61.74,0,0,0-13.68,4.64,65.69,65.69,0,0,0-7.83,4.49,62.67,62.67,0,0,0-7.86,6.37,60.52,60.52,0,0,0-13.35,18.81,59.74,59.74,0,0,0-5.34,25.86,60.08,60.08,0,0,0,29.08,50.66c1.81,1.18,3.77,2.08,5.53,3l.15.08V371c0,5.24,0,10.42,0,15.29l-.26-.26,53.11,0-.23.22.46-16.23v-.13l.11-.06a61.34,61.34,0,0,0,11.85-8,58.34,58.34,0,0,0,8.81-9.39,29.41,29.41,0,0,0,1.73-2.42c.53-.82,1.11-1.59,1.58-2.41.94-1.63,1.89-3.18,2.62-4.77.38-.79.78-1.54,1.11-2.31l.93-2.27c.65-1.46,1-2.93,1.52-4.29A64.18,64.18,0,0,0,328,320.9c.11-1.53.13-2.71.18-3.5S328.21,316.19,328.21,316.19Z" transform="translate(-21.6 -37.06)"/><path class="cls-10" d="M275.7,386.05s0-.25.06-.75l.25-2.19c.23-1.92.58-4.75,1.11-8.38s1.25-8.08,2.41-13.17A89.84,89.84,0,0,1,285,344.7a57.63,57.63,0,0,1,5-9.07,11.17,11.17,0,0,1,4.14-3.72,6.25,6.25,0,0,1,5.75.19,4.13,4.13,0,0,1,1.92,2.4,4.23,4.23,0,0,1-.25,3.11,8.62,8.62,0,0,1-4.68,4,16.57,16.57,0,0,1-12.6-.89,16.79,16.79,0,0,1-8.56-10.11,12.68,12.68,0,0,1-.36-7,5.45,5.45,0,0,1,5.51-4.21,3.91,3.91,0,0,1,3.08,2.14,5.49,5.49,0,0,1,.49,3.74c-.58,2.53-2.41,4.42-4.26,6a18.07,18.07,0,0,1-14.12,4.1,15.75,15.75,0,0,1-11.72-8.73,9.16,9.16,0,0,1-.41-7.34,4.64,4.64,0,0,1,2.66-2.68,4.54,4.54,0,0,1,3.73.34,6,6,0,0,1,2.56,2.66,9.44,9.44,0,0,1,.92,3.49,17.46,17.46,0,0,1-.92,6.93,18,18,0,0,1-8.54,10.16A18.37,18.37,0,0,1,241.81,342a9.61,9.61,0,0,1-5.45-2.89,4.69,4.69,0,0,1-.34-5.84,4,4,0,0,1,2.72-1.33,5.7,5.7,0,0,1,2.89.56,8.77,8.77,0,0,1,3.71,4.16c1.52,3.29,2.75,6.48,4,9.53,4.85,12.21,8.28,22.28,10.59,29.25,1.15,3.49,2,6.21,2.57,8.06l.63,2.11c.14.48.19.73.19.73s-.1-.23-.26-.7l-.7-2.08-2.7-8c-2.39-6.94-5.9-17-10.8-29.14-1.25-3-2.5-6.26-4-9.47a8.22,8.22,0,0,0-3.45-3.88c-1.55-.76-3.72-.76-4.88.63a4.08,4.08,0,0,0,.35,5,9,9,0,0,0,5.11,2.66A17.72,17.72,0,0,0,254,339.65a17.35,17.35,0,0,0,8.19-9.78,16.76,16.76,0,0,0,.88-6.64c-.16-2.21-1.09-4.53-3.1-5.57a3.81,3.81,0,0,0-3.14-.3,3.9,3.9,0,0,0-2.23,2.28,8.43,8.43,0,0,0,.4,6.75,15,15,0,0,0,11.16,8.31,17.34,17.34,0,0,0,13.53-3.93c1.79-1.54,3.51-3.37,4-5.61a4.76,4.76,0,0,0-.41-3.23,3.18,3.18,0,0,0-2.51-1.76,4.26,4.26,0,0,0-3,1,5.23,5.23,0,0,0-1.73,2.71,12,12,0,0,0,.34,6.58,16.1,16.1,0,0,0,8.18,9.7,15.94,15.94,0,0,0,12.06.9,8,8,0,0,0,4.34-3.69,3.58,3.58,0,0,0-1.4-4.71,5.65,5.65,0,0,0-5.18-.18,10.61,10.61,0,0,0-3.93,3.52,57.47,57.47,0,0,0-5,8.95,90.5,90.5,0,0,0-5.57,16.74c-1.19,5.07-1.95,9.5-2.53,13.12l-1.25,8.36-.32,2.18C275.76,385.8,275.7,386.05,275.7,386.05Z" transform="translate(-21.6 -37.06)"/><path class="cls-10" d="M292.26,396.13a2.45,2.45,0,0,0,1.07-.38,2,2,0,0,0,.76-1.11,11.86,11.86,0,0,0,0-1.91v-1.15a2.22,2.22,0,0,0-.22-1.18,1.87,1.87,0,0,0-.95-.84,3.73,3.73,0,0,0-1.43-.12l-7,0-40.72.08a1.72,1.72,0,0,0-1.71,1.59v2.91a1.73,1.73,0,0,0,1.43,1.8c.87.05,1.87,0,2.79,0l10.81,0,18.31.06,12.34.08,3.36,0,.87,0,.3,0-.3,0-.87,0-3.36,0-12.34.08-18.31.06-10.81,0c-1,0-1.84,0-2.88,0a2.25,2.25,0,0,1-1.87-2.31q0-1.46,0-2.94a2.25,2.25,0,0,1,2.23-2.08l40.72.08,7,0a4,4,0,0,1,1.53.17,2.13,2.13,0,0,1,1.07,1,2.46,2.46,0,0,1,.23,1.29v1.15a11.19,11.19,0,0,1-.09,2,2,2,0,0,1-.85,1.16,1.94,1.94,0,0,1-.83.3A1,1,0,0,1,292.26,396.13Z" transform="translate(-21.6 -37.06)"/><path class="cls-10" d="M290.81,399.12a2.6,2.6,0,0,1,1,.09,3.46,3.46,0,0,1,2.15,1.7,3.51,3.51,0,0,1-.68,4.21,3.63,3.63,0,0,1-2.65,1l-3.18,0,.14-.09-4.5,8.87-1.28,2.53-.67,1.31a4.61,4.61,0,0,1-3.89,2.43H274c-4.34,0-8.9,0-13.77,0a4.66,4.66,0,0,1-3.25-1.87,16.22,16.22,0,0,1-.93-1.65L255.2,416l-3.55-6.76L250,406.09l.23.14h-4.77a4,4,0,0,1-1.63-.27,3.67,3.67,0,0,1,1.07-7.06c1,0,2,0,2.95,0h5.65l19.48.06L286,399l3.54,0,.92,0,.31,0-.31,0-.92,0-3.54,0L273,399.3l-19.48.06h-5.65c-1,0-2,0-2.9,0a3.17,3.17,0,0,0-.92,6.09,3.52,3.52,0,0,0,1.44.23h4.92l.07.14,1.66,3.16,3.55,6.76.87,1.66a16.24,16.24,0,0,0,.88,1.58,4.15,4.15,0,0,0,2.89,1.67c4.76.06,9.4,0,13.72,0h3.18a4.17,4.17,0,0,0,2.65-1.07,7.76,7.76,0,0,0,1.55-2.41l1.3-2.52,4.57-8.84,0-.08h.1c2.19-.11,4.4.45,5.66-.86a3.32,3.32,0,0,0,.7-3.95,3.42,3.42,0,0,0-2-1.7A7.36,7.36,0,0,0,290.81,399.12Z" transform="translate(-21.6 -37.06)"/><rect class="cls-10" x="272.21" y="332.55" width="2.79" height="2.79"/><rect class="cls-10" x="271.92" y="347.39" width="2.79" height="2.79"/><rect class="cls-10" x="218.8" y="347.39" width="2.79" height="2.79"/><rect class="cls-10" x="218.8" y="332.55" width="2.79" height="2.79"/><rect class="cls-10" x="244.62" y="217.14" width="2.79" height="2.79"/><rect class="cls-10" x="305.21" y="277.73" width="2.79" height="2.79"/><ellipse class="cls-7" cx="245.16" cy="218.15" rx="23.64" ry="0.26"/><circle class="cls-7" cx="268.51" cy="218.15" r="0.83"/><circle class="cls-7" cx="221.52" cy="218.15" r="0.83"/><ellipse class="cls-7" cx="299.35" cy="269.3" rx="0.26" ry="33.84" transform="translate(-91.71 392.34) rotate(-65.4)"/><path class="cls-11" d="M210,156.07c0,.1-1.49-.38-3.92-.71a28,28,0,0,0-4.29-.23,27.9,27.9,0,0,0-10.22,2.19,28,28,0,0,0-3.81,2c-2.08,1.3-3.21,2.33-3.28,2.25a4.26,4.26,0,0,1,.76-.77,10.11,10.11,0,0,1,1-.81c.39-.3.83-.66,1.36-1a24.94,24.94,0,0,1,3.82-2.1,26.28,26.28,0,0,1,10.4-2.23,25,25,0,0,1,4.35.35c.62.08,1.16.23,1.64.34a10.1,10.1,0,0,1,1.22.34A4.27,4.27,0,0,1,210,156.07Z" transform="translate(-21.6 -37.06)"/><rect class="cls-4" x="320.52" y="306.25" width="123.36" height="47.95"/><rect class="cls-10" x="320.52" y="306.25" width="123.36" height="10.28"/><rect class="cls-4" x="327.47" y="329.35" width="12.19" height="12.19"/><path class="cls-6" d="M361.26,378.6a7.35,7.35,0,0,1-.05-.92l-.06-2.5-.11-8.76.23.23-12.19,0,.26-.26h0v1.63q0,.82,0,1.63,0,1.61,0,3.15l0,5.75-.23-.23,8.76.11,2.5.06a7.34,7.34,0,0,1,.92.05,4.89,4.89,0,0,1-.83.05l-2.45.06c-2.13,0-5.2.09-8.91.11h-.22v-.23c0-1.78,0-3.71,0-5.75q0-1.54,0-3.15,0-.81,0-1.63v-1.63h0l.26-.26,12.19,0h.23v.22c0,3.7-.07,6.78-.11,8.91l-.06,2.45A4.88,4.88,0,0,1,361.26,378.6Z" transform="translate(-21.6 -37.06)"/><line class="cls-11" x1="339.66" y1="329.35" x2="327.47" y2="341.54"/><ellipse class="cls-7" cx="355.16" cy="372.51" rx="8.62" ry="0.26" transform="translate(-180.98 323.18) rotate(-45)"/><rect class="cls-3" x="343.33" y="329.35" width="12.19" height="12.19"/><rect class="cls-12" x="359.19" y="329.35" width="12.19" height="12.19"/><rect class="cls-10" x="375.05" y="329.35" width="12.19" height="12.19"/><rect class="cls-7" x="390.91" y="329.35" width="12.19" height="12.19"/><g class="cls-13"><rect class="cls-4" x="390.91" y="329.35" width="12.19" height="12.19"/></g><rect class="cls-7" x="406.76" y="329.35" width="12.19" height="12.19"/><g class="cls-14"><rect x="406.76" y="329.35" width="12.19" height="12.19"/></g><rect class="cls-7" x="422.62" y="329.35" width="12.19" height="12.19"/><g class="cls-15"><rect x="422.62" y="329.35" width="12.19" height="12.19"/></g><path class="cls-6" d="M465.47,391.27s0-.3,0-.86l0-2.48,0-9.52c0-8.27-.06-20.23-.1-35.09l.18.18-123.35.08h0l.26-.26c0,16.77,0,33,0,48l-.25-.25,88.38.12,25.69.07,6.88,0,1.78,0,.62,0-.58,0-1.76,0-6.83,0-25.63.07-88.55.12h-.25v-.25c0-15,0-31.19,0-48v-.26h.27l123.35.08h.18v.18c0,14.91-.07,26.91-.1,35.2,0,4.11,0,7.31,0,9.48l0,2.45C465.49,391,465.47,391.27,465.47,391.27Z" transform="translate(-21.6 -37.06)"/><rect class="cls-4" x="41.55" y="28.29" width="114.53" height="83.64"/><rect class="cls-10" x="41.55" y="28.29" width="114.53" height="10.45"/><ellipse class="cls-4" cx="46.58" cy="33.82" rx="1.19" ry="1.31"/><ellipse class="cls-4" cx="51.42" cy="33.82" rx="1.19" ry="1.31"/><ellipse class="cls-4" cx="56.27" cy="33.82" rx="1.19" ry="1.31"/><rect class="cls-10" x="52.44" y="48.99" width="16.32" height="41.06"/><rect class="cls-16" x="77.61" y="48.99" width="16.32" height="41.06"/><rect class="cls-11" x="102.78" y="48.99" width="16.32" height="41.06"/><rect class="cls-1" x="127.95" y="49.31" width="16.32" height="41.06"/><rect class="cls-17" x="50.55" y="94.58" width="98.93" height="9.38"/><polygon class="cls-3" points="141.96 102.04 144.09 113.34 145.84 110.19 149.6 115.82 151.48 114.55 147.72 108.92 151.17 108.39 141.96 102.04"/><path class="cls-6" d="M177.68,149s0-.53,0-1.54,0-2.5,0-4.44l-.05-16.89c0-14.56-.06-35.45-.11-60.77l.21.21-114.52,0h0l.26-.26c0,30,0,58.45,0,83.64l-.24-.24,82.61.12,23.51.06,6.24,0h.05l-6.2,0-23.45.06-82.76.12h-.24V149c0-25.19,0-53.63,0-83.64V65.1h.27l114.52,0h.21v.21c0,25.38-.08,46.31-.11,60.9,0,7.27,0,13-.05,16.84l0,4.4C177.7,148.5,177.68,149,177.68,149Z" transform="translate(-21.6 -37.06)"/><rect class="cls-4" x="42.96" y="353.39" width="116.62" height="45.34"/><rect class="cls-10" x="42.96" y="353.39" width="116.62" height="9.72"/><rect class="cls-10" x="56.82" y="370.51" width="11.45" height="11.45"/><rect class="cls-10" x="63.76" y="377.45" width="11.45" height="11.45"/><rect class="cls-10" x="84.12" y="370.51" width="11.45" height="11.45"/><rect class="cls-4" x="91.06" y="377.45" width="11.45" height="11.45"/><path class="cls-7" d="M124.11,426a6.59,6.59,0,0,1-.05-.87l-.06-2.35c0-2-.09-4.85-.11-8.23l.23.23-11.45,0,.26-.26h0v6c0,1.92,0,3.73,0,5.4l-.23-.23c3.39,0,6.22.07,8.23.11l2.35.06a6.53,6.53,0,0,1,.87.05,4.26,4.26,0,0,1-.78.05l-2.3.06c-2,0-4.89.09-8.37.11h-.22V426c0-1.67,0-3.48,0-5.4v-6h0l.26-.26,11.45,0h.23v.22c0,3.48-.07,6.38-.11,8.37l-.06,2.3A4.26,4.26,0,0,1,124.11,426Z" transform="translate(-21.6 -37.06)"/><rect class="cls-4" x="109.59" y="370.51" width="11.45" height="11.45"/><path class="cls-7" d="M142.65,419a6.59,6.59,0,0,1-.05-.87l-.06-2.35c0-2-.09-4.85-.11-8.23l.23.23-11.45,0,.26-.26h0v1.54q0,.77,0,1.53,0,1.51,0,3c0,1.92,0,3.73,0,5.4l-.23-.23c3.39,0,6.22.07,8.23.11l2.35.06a6.58,6.58,0,0,1,.87.05,4.25,4.25,0,0,1-.78.05l-2.3.06c-2,0-4.89.09-8.37.11H131V419c0-1.67,0-3.48,0-5.4v-6h0l.26-.26,11.45,0h.23v.22c0,3.48-.07,6.38-.11,8.37l-.06,2.3A4.24,4.24,0,0,1,142.65,419Z" transform="translate(-21.6 -37.06)"/><rect class="cls-4" x="116.53" y="377.45" width="11.45" height="11.45"/><path class="cls-7" d="M149.58,426a6.58,6.58,0,0,1-.05-.87l-.06-2.35c0-2-.09-4.85-.11-8.23l.23.23-11.45,0,.26-.26h0v3.07q0,1.51,0,3l0,5.4-.23-.23c3.39,0,6.22.07,8.23.11l2.35.06a6.53,6.53,0,0,1,.87.05,4.26,4.26,0,0,1-.78.05l-2.3.06c-2,0-4.89.09-8.37.11h-.22V426l0-5.4q0-1.44,0-3,0-.76,0-1.53v-1.54h0l.26-.26,11.45,0h.23v.22c0,3.48-.07,6.38-.11,8.37l-.06,2.3A4.25,4.25,0,0,1,149.58,426Z" transform="translate(-21.6 -37.06)"/><rect class="cls-10" x="116.53" y="377.45" width="4.52" height="4.52"/><rect class="cls-10" x="133.01" y="370.51" width="11.45" height="11.45"/><rect class="cls-10" x="139.95" y="377.45" width="11.45" height="11.45"/><rect class="cls-11" x="139.95" y="377.45" width="4.52" height="4.52"/><path class="cls-6" d="M181.18,435.79s0-.28,0-.81l0-2.35,0-9c0-7.82-.06-19.13-.1-33.17l.18.18-116.62.08h0l.26-.26c0,15.85,0,31.17,0,45.34l-.25-.25,83.55.12,24.29.07,6.51,0,1.69,0,.58,0-.55,0-1.66,0-6.46,0-24.23.07L64.56,436h-.25v-.25c0-14.17,0-29.49,0-45.34v-.26h.27l116.62.08h.18v.18c0,14.09-.07,25.44-.1,33.28,0,3.89,0,6.9,0,9l0,2.31C181.2,435.53,181.18,435.79,181.18,435.79Z" transform="translate(-21.6 -37.06)"/><rect class="cls-4" x="67.77" y="183.08" width="80.92" height="138.8"/><rect class="cls-10" x="67.77" y="183.08" width="80.92" height="11.7"/><polygon class="cls-10" points="87.22 209.37 88.19 222.33 91.82 217.6 97.87 217.35 87.22 209.37"/><path class="cls-10" d="M143.79,246.44l.19.13.58.42,2.21,1.61,7.76,5.7.34.25-.42,0-5.84.25h-.21l.12-.06-3.63,4.72-.24.31,0-.39L144,250l-.16-2.66,0-.7a1.57,1.57,0,0,1,0-.23s0,.1,0,.27l.07.73.24,2.71.78,9.24-.26-.08,3.61-4.73,0-.06h.28l5.84-.24-.08.27-7.54-5.76-2.21-1.7-.6-.46Z" transform="translate(-21.6 -37.06)"/><ellipse class="cls-10" cx="115.63" cy="293.39" rx="13.15" ry="0.16" transform="translate(-196.96 134.78) rotate(-45.82)"/><path class="cls-10" d="M162.64,293.26a19.12,19.12,0,0,0-.42-2.89,12.06,12.06,0,0,0-4.22-6.56,11.48,11.48,0,0,0-4.92-2.27,11.35,11.35,0,0,0-6.16.54,10.66,10.66,0,0,0-2.94,1.65,11.21,11.21,0,0,0-2.43,2.55,12.15,12.15,0,0,0,0,14,11.21,11.21,0,0,0,2.43,2.55,10.66,10.66,0,0,0,2.94,1.65,11.35,11.35,0,0,0,6.16.54,11.48,11.48,0,0,0,4.92-2.27,12.06,12.06,0,0,0,4.22-6.56,19.13,19.13,0,0,0,.42-2.89s0,.26,0,.76a5.78,5.78,0,0,1-.07.92,8.92,8.92,0,0,1-.22,1.24,12,12,0,0,1-4.2,6.7,11.51,11.51,0,0,1-11.32,1.82,10.92,10.92,0,0,1-3-1.69,11.49,11.49,0,0,1-2.5-2.61,12.42,12.42,0,0,1,0-14.31,11.48,11.48,0,0,1,2.5-2.61,10.92,10.92,0,0,1,3-1.69,11.51,11.51,0,0,1,11.32,1.82,12,12,0,0,1,4.2,6.7,8.91,8.91,0,0,1,.22,1.24,5.78,5.78,0,0,1,.07.92C162.65,293,162.64,293.26,162.64,293.26Z" transform="translate(-21.6 -37.06)"/><path class="cls-7" d="M152.16,324.09l.29.23.83.71,3.16,2.75.07.06-.06.07-13.61,15.6,0,0h-.06l-1.64.25-2.95.45-.22,0,0-.22,1.06-5.35v0l0,0c3.68-4.34,6.89-8,9.21-10.62s3.79-4,3.87-3.94l-.28.25c-.17.18-.43.43-.75.78-.65.69-1.56,1.72-2.7,3-2.28,2.61-5.46,6.34-9.12,10.69l0-.07-1,5.36-.18-.18,2.95-.45,1.64-.25-.09.05,13.71-15.52v.13l-3.07-2.79-.81-.75Z" transform="translate(-21.6 -37.06)"/><path class="cls-7" d="M122.56,343s0-.13,0-.37l0-1.06,0-4c0-3.46,0-8.31-.07-14.11l.14.14-19,0,.15-.15h0v2.64q0,1.32,0,2.61c0,1.72,0,3.41,0,5,0,3.28,0,6.37,0,9.2l-.13-.13,13.72.07,3.87,0,1,0,.36,0-.33,0-1,0-3.84,0-13.8.07h-.13V343c0-2.83,0-5.92,0-9.2,0-1.64,0-3.33,0-5q0-1.29,0-2.61,0-.66,0-1.33v-1.32h0l.16-.16,19,0h.14v.14l-.07,14.19,0,4,0,1A2.76,2.76,0,0,1,122.56,343Z" transform="translate(-21.6 -37.06)"/><ellipse class="cls-7" cx="80.75" cy="286.43" rx="4.11" ry="0.16"/><ellipse class="cls-7" cx="81.99" cy="285.56" rx="0.16" ry="4.63"/><path class="cls-6" d="M170.29,358.94s0-.23,0-.68v-2c0-1.75,0-4.31,0-7.64L170.17,320c0-24.52-.07-59.18-.12-99.84l.24.24-80.91,0h0l.26-.26c0,52.95,0,101.51-.06,138.8l-.2-.2,59,.11,16.2.05,4.24,0,1.46,0-1.42,0-4.2,0-16.15.05-59.15.11h-.2v-.2c0-37.28,0-85.85-.06-138.8v-.26h.27l80.91,0h.24v.24c0,40.72-.09,75.44-.12,100l-.07,28.61c0,3.31,0,5.86,0,7.59v1.95C170.3,358.73,170.29,358.94,170.29,358.94Z" transform="translate(-21.6 -37.06)"/></g></svg>