<svg xmlns="http://www.w3.org/2000/svg" width="49.114" height="41.622" viewBox="0 0 49.114 41.622">
  <path id="Path_11364" data-name="Path 11364" d="M750.384,601.682a1.454,1.454,0,0,1-1.208,1.534c-4.452,1.368-8.867,2.859-13.3,4.3-.474.154-1.057.27-1.369-.19-.293-.432-.005-.9.234-1.366,1.123-2.172,2.07-4.446,3.323-6.537.854-1.425.655-2.3-.58-3.272-4.138-3.249-8.2-6.589-12.353-9.821-6.117-4.765-12.336-9.4-18.248-14.425-1.473-1.252-3.136-2.284-4.579-3.565-.509-.452-1.47-1.267-.819-2,.57-.646,1.454-.153,2.171.42,3.716,2.97,7.483,5.874,11.218,8.819q11.883,9.367,23.744,18.76c1.107.878,1.751.523,2.29-.6.924-1.914,1.864-3.82,2.807-5.725.471-.951,1.337-2.082,1.947-.47C747.422,592.189,748.838,596.967,750.384,601.682Z" transform="translate(-701.269 -566.024)" fill="#dd1928"/>
</svg>
