<svg xmlns="http://www.w3.org/2000/svg" width="107.526" height="73.739" viewBox="0 0 107.526 73.739">
  <path id="Path_11362" data-name="Path 11362" d="M1069.988,199.426c3.94,1.291,8.093,1.5,12.117,2.4a130.008,130.008,0,0,1,81.1,57c.7,1.09,2.355,2.729,1.084,3.606-1.571,1.084-2.17-1.241-2.8-2.265a122.694,122.694,0,0,0-22.185-26.39,127.059,127.059,0,0,0-23.89-17.013,140.163,140.163,0,0,0-20.71-9.235,111.891,111.891,0,0,0-18.465-4.728c-1.742-.31-3.544-.223-5.245-.888-1.121-.439-1.212.149-1.131,1.231.184,2.464.1,4.947.139,7.422.01.61-.052,1.155-.669,1.458-.727.358-1.045-.261-1.429-.639-3.22-3.164-6.3-6.474-9.825-9.317-1.172-.946-1.076-1.7-.063-2.825,2.967-3.3,6.674-5.893,9.2-9.612a1.481,1.481,0,0,1,1.766-.562c.941.331.3,1.322.64,1.93C1070.038,193.8,1069.37,196.641,1069.988,199.426Z" transform="translate(-1057.228 -188.981)" fill="#dd1928"/>
</svg>
