<svg xmlns="http://www.w3.org/2000/svg" width="24.448" height="130.639" viewBox="0 0 24.448 130.639">
  <path id="Path_11361" data-name="Path 11361" d="M789.371,391.029a120.736,120.736,0,0,1,6.585-31.681A127.82,127.82,0,0,1,806.5,336.409c.462-.795.989-1.807,2.046-1.256,1.321.688.22,1.486-.193,2.2A132.97,132.97,0,0,0,793.1,377.991c-.623,3.09-1.419,6.238-1.135,9.473-.514.779-.011,1.707-.37,2.509l-.132,2.92c-.542,1.469.009,3.018-.333,4.5a61.464,61.464,0,0,0,0,9c.342,1.484-.208,3.033.333,4.5l.133,2.919c.359.8-.143,1.73.37,2.509.327,7.991,2.351,15.654,4.666,23.235,1.263,4.134,2.931,8.143,4.37,12.224.611,1.732,1.361,2.455,3.347,1.5a63.408,63.408,0,0,1,7.113-2.557c.6-.2,1.281-.559,1.816.081.479.574-.052,1.068-.284,1.556-1.826,3.848-3.707,7.671-5.477,11.544-.831,1.819-1.808,2.182-3.64,1.2-3.486-1.864-7.088-3.512-10.653-5.227-.705-.339-1.686-.432-1.591-1.488s1.151-1.041,1.88-1.306c1.679-.611,3.388-1.142,5.076-1.732,1.024-.358,1.532-.76.9-2.079-4.441-9.251-6.8-19.168-8.876-29.136-.775-3.718-.845-7.584-1.237-11.382-.347-1.13.222-2.353-.35-3.46l.01-14.777C789.578,393.4,789.032,392.17,789.371,391.029Z" transform="translate(-789.021 -334.997)" fill="#dd1928"/>
</svg>
