<svg xmlns="http://www.w3.org/2000/svg" width="103.54" height="65.401" viewBox="0 0 103.54 65.401">
  <path id="Path_11363" data-name="Path 11363" d="M1078.976,660.988a98.268,98.268,0,0,0,23.186-5.1,130.744,130.744,0,0,0,35.879-18.531,147.637,147.637,0,0,0,19.639-17.665c3.032-3.144,5.491-6.838,8.254-10.245.765-.943.411-1.424-.452-1.936-2.137-1.268-4.243-2.586-6.378-3.856-1.47-.875-1.072-1.487.277-1.849,4.668-1.252,9.342-2.484,14.031-3.655.974-.243,1.439.4,1.664,1.363,1.056,4.529,2.17,9.043,3.273,13.56.116.473.372.943-.23,1.273a1.232,1.232,0,0,1-1.5-.073c-1.994-1.34-4.138-2.459-6.13-3.8-1.4-.944-2.265-.808-3.256.622a109.223,109.223,0,0,1-13.425,15.726,131.366,131.366,0,0,1-40.361,27.08,146.71,146.71,0,0,1-31.04,8.993,46.971,46.971,0,0,1-5.84.536c-.567.035-1.378.346-1.564-.681-.23-1.273.676-1.257,1.491-1.362C1077.278,660.988,1078.213,661.533,1078.976,660.988Z" transform="translate(-1074.964 -598.095)" fill="#dd1928"/>
</svg>
