<svg xmlns="http://www.w3.org/2000/svg" width="82.972" height="74.58" viewBox="0 0 82.972 74.58">
  <g id="Default" transform="translate(-76.875 -218.481)">
    <path id="Path_14694" data-name="Path 14694" d="M359.066,496.3a6.529,6.529,0,0,0-.677.521c-2.521,2.514-5.035,5.036-7.5,7.5l-3.447-3.474,2.2-2.1-.1-.175H331.015v-4.854H349.69l-2.3-2.215,3.506-3.52c.082.078.3.274.5.478q3.494,3.491,6.989,6.981a6.869,6.869,0,0,0,.676.527Z" transform="translate(-199.218 -211.266)" fill="#dd1928"/>
    <path id="Path_14695" data-name="Path 14695" d="M76.9,287.3v-4.862h.948c10.157,0,20.314.018,30.471,0A26.742,26.742,0,0,0,112.8,229.3c-.105-.016-.213-.011-.571-.028l2.2,1.847-3.521,3.526-8.059-8.067,8.1-8.1,3.324,3.335-2.446,2.338c1.756.374,3.419.6,5,1.085,12.548,3.888,20.443,12.225,22.735,25.174,2.979,16.827-7.745,32.447-24.423,36.158a31.526,31.526,0,0,1-6.585.7c-10.318.072-20.638.032-30.957.032Z" transform="translate(-0.016 0)" fill="#dd1928"/>
    <path id="Path_14696" data-name="Path 14696" d="M178.352,328.958a17.017,17.017,0,1,1-17.009-17.005A17.049,17.049,0,0,1,178.352,328.958Zm-4.862.054a12.155,12.155,0,1,0-12.2,12.113A12.176,12.176,0,0,0,173.489,329.013Z" transform="translate(-52.867 -73.272)"/>
    <path id="Path_14697" data-name="Path 14697" d="M96.481,255.182l2.163,4.3c-8.816,3.974-14.627,10.434-16.419,20.01-1.783,9.527,1.183,17.669,7.936,24.6L86.6,307.3A31.678,31.678,0,0,1,96.481,255.182Z" transform="translate(0 -28.77)" fill="#dd1928"/>
    <path id="Path_14698" data-name="Path 14698" d="M202.087,367l-10.519,10.512-5.623-5.624,3.266-3.285,2.117,2.3,7.314-7.349Z" transform="translate(-85.499 -113.723)"/>
  </g>
</svg>
