<svg xmlns="http://www.w3.org/2000/svg" width="50" height="50" viewBox="0 0 50 50">
  <g id="cloud-based-platforms" transform="translate(-300 -188)">
    <g id="cloud-plus" transform="translate(300 188)">
      <path id="Vector" d="M25.477,36.554h-.083a1.563,1.563,0,0,1,.021-3.127H25.5a9.333,9.333,0,0,0,6.387-2.5,9.222,9.222,0,0,0,2.58-9.734,9.168,9.168,0,0,0-7.511-6.628A1.568,1.568,0,0,1,25.6,13.271C24.769,8.289,22.085,4.85,18.049,3.6A12.109,12.109,0,0,0,5.962,6.768c-2.954,3.106-3.641,7.42-1.935,12.194a1.56,1.56,0,1,1-2.933,1.063c-2.1-5.857-1.144-11.464,2.621-15.4A15.28,15.28,0,0,1,18.985.64c4.848,1.5,8.28,5.5,9.508,11.047A12.28,12.28,0,0,1,37.481,20.3,12.254,12.254,0,0,1,34.007,33.26,12.752,12.752,0,0,1,25.477,36.554Z" transform="translate(9.232 6.685)" fill="#dd1828"/>
      <path id="Vector-2" data-name="Vector" d="M8.821,18.6h-.1A9.064,9.064,0,0,1,0,9.3,9.076,9.076,0,0,1,8.717,0a9.574,9.574,0,0,1,4.39,1,1.579,1.579,0,0,1,.687,2.1,1.579,1.579,0,0,1-2.1.687,6.421,6.421,0,0,0-2.829-.666A5.949,5.949,0,0,0,3.142,9.3,5.968,5.968,0,0,0,8.967,15.48,1.558,1.558,0,0,1,10.4,17.144,1.6,1.6,0,0,1,8.821,18.6Z" transform="translate(2.767 24.638)" fill="#dd1828"/>
      <path id="Vector-3" data-name="Vector" d="M1.565,3.995A1.548,1.548,0,0,1,.171,3.121a1.551,1.551,0,0,1,.707-2.1A9.487,9.487,0,0,1,5,0,1.615,1.615,0,0,1,6.579,1.54a1.545,1.545,0,0,1-1.54,1.581,6.561,6.561,0,0,0-2.788.687A1.183,1.183,0,0,1,1.565,3.995Z" transform="translate(31.398 18.169)" fill="#dd1828"/>
      <path id="Vector-4" data-name="Vector" d="M9.882,3.121H1.56A1.572,1.572,0,0,1,0,1.56,1.572,1.572,0,0,1,1.56,0H9.882a1.56,1.56,0,1,1,0,3.121Z" transform="translate(18.132 40.118)" fill="#292d32"/>
      <path id="Vector-5" data-name="Vector" d="M1.56,11.443A1.572,1.572,0,0,1,0,9.882V1.56A1.572,1.572,0,0,1,1.56,0a1.572,1.572,0,0,1,1.56,1.56V9.882A1.558,1.558,0,0,1,1.56,11.443Z" transform="translate(22.294 35.957)" fill="#292d32"/>
      <path id="Vector-6" data-name="Vector" d="M0,0H50V50H0Z" fill="none" opacity="0"/>
    </g>
  </g>
</svg>
