<svg xmlns="http://www.w3.org/2000/svg" width="55.538" height="64.582" viewBox="0 0 55.538 64.582">
  <g id="Default" transform="translate(-191.452 -38.956)">
    <path id="Path_14689" data-name="Path 14689" d="M246.974,290.754a12.234,12.234,0,0,0-.2-2.382,12.588,12.588,0,0,0-12.668-10.44c-4.328,0-8.657,0-12.985-.009-.2,0-.457.14-.624-.113-.242-.119-.5-.028-.745-.042a5.882,5.882,0,0,1-.957-.032c-.333.036-.7-.126-.982.19q-6.744,0-13.487,0a12.644,12.644,0,0,0-12.856,12.828c0,2.752.044,5.505-.018,8.256a2.846,2.846,0,0,0,2.036,3.138h51.465a2.848,2.848,0,0,0,2.035-3.139C246.928,296.26,246.968,293.506,246.974,290.754Zm-5.5,6.361q-19.891-.02-39.782-.013a.884.884,0,0,1-.125-.018,1,1,0,0,1-.183-.774c0-2.059-.057-4.119.012-6.175a10.3,10.3,0,0,1,2.913-6.8,1.444,1.444,0,0,1,.661-.341c1.954-.006,3.908-.016,5.862-.017q11.6,0,23.2,0a7.577,7.577,0,0,1,7.895,7.889c0,1.912-.007,3.825.007,5.737C241.935,296.952,241.9,297.116,241.472,297.115Z" transform="translate(0 -198.612)" fill="#dd1928"/>
    <path id="Path_14690" data-name="Path 14690" d="M229.73,308.97a9.521,9.521,0,0,0-3.267,6.046,78.648,78.648,0,0,0-.135,8.044q-2.33.01-4.66.022c-.231,0-.4-.005-.394-.321a64.262,64.262,0,0,1,.113-7.3,7.452,7.452,0,0,1,7.589-6.511C229.227,308.953,229.479,308.964,229.73,308.97Z" transform="translate(-24.762 -224.588)" fill="#cde0f1"/>
    <path id="Path_14691" data-name="Path 14691" d="M353.635,278.15c.37.048.762-.123,1.111.119C354.377,278.22,353.983,278.395,353.635,278.15Z" transform="translate(-134.906 -198.953)" fill="#7185de"/>
    <path id="Path_14692" data-name="Path 14692" d="M261.878,51.528a6.744,6.744,0,0,0-.194-1.622,7.55,7.55,0,0,0-7.562-5.9Q241.7,44,229.278,44a2.532,2.532,0,0,1-2.718-2.46,2.527,2.527,0,1,0-5.046.144c0,3.237-.027,6.474.006,9.711a7.409,7.409,0,0,0,4.66,7.141.563.563,0,0,1,.386.607,34.5,34.5,0,0,0,.126,4.66c.044.321-.064.395-.366.387-.714-.019-1.429-.01-2.144-.005a2.525,2.525,0,1,0-.028,5.043c1.177.008,2.355.025,3.531-.01a.818.818,0,0,1,.854.523,17.606,17.606,0,0,0,11.912,9.113,16.346,16.346,0,0,1,2.359.461l.914-.117c.358.155.754-.044,1.111.119l.659-.117c.522-.051,1.049-.074,1.565-.159a17.669,17.669,0,0,0,14.811-17.3C261.9,58.338,261.875,54.933,261.878,51.528Zm-35.32-.339c0-.836,0-1.671,0-2.578a15.286,15.286,0,0,0,5.3.428q11.031.023,22.062.007a2.578,2.578,0,0,1,2.908,2.9c0,.588-.016,1.177.006,1.765.012.309-.1.42-.393.381a2.456,2.456,0,0,0-.315,0H229.466A2.578,2.578,0,0,1,226.559,51.189Zm29.41,15.034a12.654,12.654,0,0,1-21.555,3.312c-.052-.064-.1-.134-.221-.308,1.744,0,3.376.015,5.008,0a2.491,2.491,0,0,0,2.436-1.99,2.522,2.522,0,0,0-1.295-2.759A2.821,2.821,0,0,0,239,64.179c-2.206.008-4.413-.01-6.619.015-.429.005-.577-.132-.636-.535a32.928,32.928,0,0,1-.149-4.216c0-.262.107-.328.337-.308.125.011.252,0,.378,0q11.914,0,23.828-.015c.594,0,.7.173.7.723A16.694,16.694,0,0,1,255.969,66.223Z" transform="translate(-24.997)" fill="#dd1928"/>
    <path id="Path_14693" data-name="Path 14693" d="M406.593,343.958c-.819,0-1.639.01-2.458,0a2.52,2.52,0,1,1-.013-5.039q2.489-.023,4.978,0a2.52,2.52,0,1,1,.013,5.039C408.273,343.969,407.433,343.958,406.593,343.958Z" transform="translate(-174.783 -249.503)" fill="#2a2a2a"/>
  </g>
</svg>
