<svg xmlns="http://www.w3.org/2000/svg" width="72.354" height="67.878" viewBox="0 0 72.354 67.878">
  <g id="Group_4407" data-name="Group 4407" transform="translate(-48.75 -70.878)">
    <path id="Path_14463" data-name="Path 14463" d="M121.034,80.81a9.113,9.113,0,0,0-3.131-6.642,11.261,11.261,0,0,0-8.158-3.289q-24.819,0-49.637,0a11.1,11.1,0,0,0-1.824.136,11.65,11.65,0,0,0-8.535,6.069,10.539,10.539,0,0,0-1,3.851V128.7a.757.757,0,0,1,.077.477,9.145,9.145,0,0,0,3.026,6.188,11.193,11.193,0,0,0,8.185,3.388q24.889.006,49.777,0a10.806,10.806,0,0,0,1.754-.136,11.663,11.663,0,0,0,8.535-6.069,10.457,10.457,0,0,0,1-3.851V81.076A.428.428,0,0,1,121.034,80.81ZM109.295,132.8H62.953c-.259,0-.517-.015-.776-.022-1.079-.4-1.38-1.427-1.784-2.328a7.683,7.683,0,0,1-.641-3.155q-.01-8.216,0-16.432a1.949,1.949,0,0,1,.121-.967c.258-.351.552-.184.8-.016a4.077,4.077,0,0,0,1.923.61,3.042,3.042,0,0,1,2.825,3.078,8.318,8.318,0,0,0,7.342,8.171,2.784,2.784,0,0,0,3.223-1.664,2.511,2.511,0,0,0-2.357-3.365,3.221,3.221,0,0,1-2.656-1.492,3.345,3.345,0,0,1-.471-1.678,8.589,8.589,0,0,0-1.491-4.634c-.649-.945-.649-1.008-.009-1.938a8.577,8.577,0,0,0,1.5-4.632,3.093,3.093,0,0,1,3.04-3.171,2.529,2.529,0,0,0,2.438-1.705,2.481,2.481,0,0,0-2.425-3.349,7.747,7.747,0,0,0-5.286,2.011,8.268,8.268,0,0,0-2.851,6.222,3.037,3.037,0,0,1-2.806,3.023,4.122,4.122,0,0,0-1.925.6c-.247.166-.538.348-.81,0a2.046,2.046,0,0,1-.129-1.038q-.008-11.257,0-22.515a8.49,8.49,0,0,1,1.419-4.727,1.862,1.862,0,0,1,1.006-.829c2.731-.008,5.462-.006,8.193-.032.429,0,.423.2.43.514a18.81,18.81,0,0,0,.264,4.425,8.478,8.478,0,0,0,8.1,6.367q13.846.033,27.692.005a2.826,2.826,0,1,0,0-5.647q-13.564-.009-27.127,0c-2.2,0-3.291-1.088-3.274-3.3.006-.768-.334-1.794.138-2.229.412-.38,1.427-.12,2.176-.121q15.259,0,30.518,0c3.826,0,6.164,2.332,6.164,6.147q0,21.829,0,43.658C115.451,130.459,113.112,132.8,109.295,132.8Z" fill="#dd1928"/>
    <path id="Path_14464" data-name="Path 14464" d="M84.414,135.384c-.005,5.953-.047,11.907,0,17.86a8.069,8.069,0,0,0,2.1,5.2,12.97,12.97,0,0,1-3.581-.174,5.645,5.645,0,0,1-4.19-5.609q-.012-11.723,0-23.447,0-10.311,0-20.622a5.676,5.676,0,0,1,6.082-6.085c.564,0,1.129.014,1.693.021A8.919,8.919,0,0,0,84.39,108.5q.033,11.65.024,23.3a.546.546,0,0,1,0,.6,2.856,2.856,0,0,0,0,2.385A.549.549,0,0,1,84.414,135.384Z" transform="translate(-24.341 -25.669)" fill="#f6f6f6"/>
    <path id="Path_14465" data-name="Path 14465" d="M106.364,208.416a3.071,3.071,0,0,1,0-3.581,3.561,3.561,0,0,1,2.455-1.059,2.786,2.786,0,0,0,2.616-2.957,8.493,8.493,0,0,1,5.749-7.865,7.784,7.784,0,0,1,2.771-.457,2.824,2.824,0,0,1,2.78,2.737,2.726,2.726,0,0,1-2.607,2.878,3.054,3.054,0,0,0-3.075,3.222,7.639,7.639,0,0,1-1.8,4.875.55.55,0,0,0,0,.835,8.507,8.507,0,0,1,1.838,5.228,2.806,2.806,0,0,0,2.755,2.832,2.833,2.833,0,1,1-.245,5.65,8.457,8.457,0,0,1-8.138-8.109,3.026,3.026,0,0,0-3.068-3.214A2.868,2.868,0,0,1,106.364,208.416Z" transform="translate(-46.29 -98.7)" fill="#2a2a2a"/>
    <path id="Path_14466" data-name="Path 14466" d="M288.871,192.517a8.531,8.531,0,0,1,8.188,8.153c.057,2.014.985,2.986,3.014,3.154a2.828,2.828,0,0,1,2.64,2.8,2.722,2.722,0,0,1-2.606,2.809,3.11,3.11,0,0,0-3.082,3.289,8.435,8.435,0,0,1-8.26,8.049,2.828,2.828,0,1,1-.2-5.65,2.819,2.819,0,0,0,2.843-2.891,8.373,8.373,0,0,1,1.828-5.157c.291-.363.23-.563-.026-.889a8.425,8.425,0,0,1-1.8-5.1,2.823,2.823,0,0,0-2.81-2.925,2.831,2.831,0,1,1,.271-5.649Z" transform="translate(-192.351 -98.719)" fill="#2a2a2a"/>
    <path id="Path_14467" data-name="Path 14467" d="M198.549,258.158a2.824,2.824,0,1,1,2.862-2.785A2.827,2.827,0,0,1,198.549,258.158Z" transform="translate(-119.314 -147.409)" fill="#2a2a2a"/>
    <path id="Path_14468" data-name="Path 14468" d="M261.412,255.313a2.823,2.823,0,1,1-2.845-2.8A2.826,2.826,0,0,1,261.412,255.313Z" transform="translate(-168.008 -147.41)" fill="#2a2a2a"/>
  </g>
</svg>
