<svg xmlns="http://www.w3.org/2000/svg" width="50" height="50" viewBox="0 0 50 50">
  <g id="design-driven-company" transform="translate(-748 -188)">
    <g id="shapes" transform="translate(748 188)">
      <path id="Vector" d="M15.331,30.662A15.342,15.342,0,0,1,0,15.331c0-.381.021-.761.042-1.142a1.581,1.581,0,0,1,1.586-1.5h9.325a3.443,3.443,0,0,0,3-1.713A3.408,3.408,0,0,0,14,7.528L11.292,2.6a1.569,1.569,0,0,1-.042-1.438A1.591,1.591,0,0,1,12.371.275,15.117,15.117,0,0,1,15.331,0a15.331,15.331,0,0,1,0,30.662ZM3.193,15.86A12.154,12.154,0,1,0,15.331,3.172h-.106L16.79,6.006a6.669,6.669,0,0,1-5.836,9.875H3.193Z" transform="translate(17.695 17.695)" fill="#292d32"/>
      <path id="Vector-2" data-name="Vector" d="M0,0H50V50H0Z" fill="none" opacity="0"/>
      <path id="Vector-3" data-name="Vector" d="M25.76,30.683H6.665A6.669,6.669,0,0,1,.828,20.808L10.365,3.447a6.665,6.665,0,0,1,11.673,0L31.6,20.808a6.669,6.669,0,0,1-5.836,9.875ZM16.2,3.193a3.429,3.429,0,0,0-3.045,1.8L3.62,22.352A3.512,3.512,0,0,0,3.662,25.8a3.443,3.443,0,0,0,3,1.713h19.1a3.443,3.443,0,0,0,3-1.713,3.408,3.408,0,0,0,.042-3.447L19.247,4.991A3.429,3.429,0,0,0,16.2,3.193Z" transform="translate(2.64 2.622)" fill="#dd1828"/>
    </g>
  </g>
</svg>
