<svg xmlns="http://www.w3.org/2000/svg" width="67.769" height="67.714" viewBox="0 0 67.769 67.714">
  <g id="Default" transform="translate(-94.821 -130.437)">
    <path id="Path_14702" data-name="Path 14702" d="M359.915,466.876c-.211.057-.141.252-.177.385a2.779,2.779,0,0,1-1.671,1.916,43.581,43.581,0,0,1-10.517,2.978,61.964,61.964,0,0,1-10.145.752,2.688,2.688,0,0,1-2.909-2.071,2.6,2.6,0,0,1,2.6-3.2c1.9-.024,3.793-.06,5.683-.229a42.767,42.767,0,0,0,12.949-2.976c2.06-.869,3.541-.118,4.061,2.056.012.05.082.085.124.127Z" transform="translate(-197.325 -274.758)" fill="#dd1928"/>
    <path id="Path_14704" data-name="Path 14704" d="M347.869,130.554c-.352-.026-.728.172-1.055-.106h1.059c.044.025.058.049.042.073S347.885,130.554,347.869,130.554Z" transform="translate(-207.52 -0.012)" fill="#98a1e2"/>
    <path id="Path_14705" data-name="Path 14705" d="M352.791,130.554c0-.035,0-.071,0-.106h1.059c.041.023.056.047.044.072s-.025.039-.038.039Z" transform="translate(-212.442 -0.012)" fill="#8892de"/>
    <path id="Path_14706" data-name="Path 14706" d="M358.82,130.559c0-.037,0-.074-.006-.111h1.059C359.548,130.729,359.171,130.523,358.82,130.559Z" transform="translate(-217.402 -0.012)" fill="#a8afe6"/>
    <path id="Path_14707" data-name="Path 14707" d="M356.019,270.661a7.07,7.07,0,0,1-1.516.012,2.653,2.653,0,0,1-2.182-2.682,2.609,2.609,0,0,1,2.485-2.535,51.281,51.281,0,0,0,12.3-1.957,34.613,34.613,0,0,0,3.533-1.288,2.648,2.648,0,1,1,2.079,4.854,44.917,44.917,0,0,1-11.963,3.161C359.186,270.441,357.607,270.6,356.019,270.661Z" transform="translate(-212.053 -108.295)" fill="#dd1928"/>
    <path id="Path_14708" data-name="Path 14708" d="M389.835,400.2a2.607,2.607,0,0,1-1.734,2.28,42.937,42.937,0,0,1-9.017,2.694c-1.709.328-3.433.545-5.161.74a2.674,2.674,0,0,1-2.981-2.354,2.633,2.633,0,0,1,2.375-2.889,44.754,44.754,0,0,0,11.309-2.492c.6-.227,1.175-.5,1.78-.7A2.657,2.657,0,0,1,389.835,400.2Z" transform="translate(-227.373 -219.809)" fill="#dd1928"/>
    <path id="Path_14709" data-name="Path 14709" d="M378.553,338.464a2.723,2.723,0,0,1-3.03-2.417,2.581,2.581,0,0,1,2.189-2.785c1.891-.3,3.792-.53,5.663-.953a41.847,41.847,0,0,0,6.589-2.111,2.639,2.639,0,1,1,1.886,4.927,43.878,43.878,0,0,1-10.391,2.925C380.4,338.222,379.324,338.355,378.553,338.464Z" transform="translate(-231.152 -164.335)" fill="#dd1928"/>
    <path id="Path_14710" data-name="Path 14710" d="M272.591,136.31a9.6,9.6,0,0,0-2.491-2.046,29.691,29.691,0,0,0-12.063-3.6c-1.154-.135-2.32-.065-3.473-.216h-.529a3.672,3.672,0,0,1-1.09.068h-1a3.633,3.633,0,0,1-1.084-.068h-.927c-.1.221-.307.124-.465.132a43.438,43.438,0,0,0-8.356,1.2,20.6,20.6,0,0,0-7.956,3.543c-3.72,2.934-3.824,7.177-.239,10.25A18.012,18.012,0,0,0,240.3,149.1a48.215,48.215,0,0,0,21.8.505,22.5,22.5,0,0,0,8.437-3.269,8.553,8.553,0,0,0,3.18-3.628,4.64,4.64,0,0,1,.437-1.143v-1.853A5.79,5.79,0,0,0,272.591,136.31Zm-4.2,4.992a9.732,9.732,0,0,1-3.466,2,34.343,34.343,0,0,1-10.745,1.958,43.58,43.58,0,0,1-8.246-.394,3.6,3.6,0,0,1-.381-.1,9.013,9.013,0,0,1-3.268-1.617,3.187,3.187,0,0,1-1.522-2.891,3.468,3.468,0,0,1,1.686-2.407A8.528,8.528,0,0,1,245.7,136.3a42.908,42.908,0,0,1,11.6-.216,28.93,28.93,0,0,1,8.134,1.92,8.9,8.9,0,0,1,2.971,1.811C269,140.408,269,140.709,268.394,141.3Z" transform="translate(-111.565 -0.012)" fill="#dd1928"/>
    <path id="Path_14711" data-name="Path 14711" d="M270.54,163.582a16.836,16.836,0,0,0-3.168,1.7,2.823,2.823,0,0,0-.118,5.043,19.9,19.9,0,0,0,3.144,1.729,20.132,20.132,0,0,1-8.8-2.9c-1.525-1.022-1.513-1.614.006-2.663a17.178,17.178,0,0,1,6.025-2.393A18.418,18.418,0,0,1,270.54,163.582Z" transform="translate(-136.407 -27.298)" fill="#f6f6f6"/>
    <path id="Path_14712" data-name="Path 14712" d="M117.345,259.521a22.467,22.467,0,1,0,22.384,22.549A22.508,22.508,0,0,0,117.345,259.521Zm2.394,39.456a14.679,14.679,0,0,1-4.931-.037,8.989,8.989,0,0,1-2.6-1.781,19.583,19.583,0,0,1-6.842-12.941A19.677,19.677,0,0,1,110.019,269a20.848,20.848,0,0,1,3.758-3.4,3.506,3.506,0,0,1,1.427-.64,17.162,17.162,0,0,1,4.534,34.022Z" transform="translate(0 -106.305)" fill="#dd1928"/>
    <path id="Path_14713" data-name="Path 14713" d="M140,290.31a17.467,17.467,0,0,0-5.392,4.555,19.39,19.39,0,0,0-4.077,8.822,19.646,19.646,0,0,0,1.424,11.838,20.009,20.009,0,0,0,5.1,6.811c.8.71,1.7,1.31,2.55,1.96a14.529,14.529,0,0,1-6.574-2.379c-6.09-4.044-8.821-9.754-7.935-17.009a17.03,17.03,0,0,1,12.577-14.162A11.642,11.642,0,0,1,140,290.31Z" transform="translate(-24.798 -131.66)" fill="#f6f6f6"/>
    <path id="Path_14714" data-name="Path 14714" d="M180.257,331.9a2.6,2.6,0,0,1,3.441-2.48,19.891,19.891,0,0,0,4.158,1.019,2.256,2.256,0,0,0,.913-.055,1.261,1.261,0,0,0,.964-1.137,1.183,1.183,0,0,0-.74-1.151,5.991,5.991,0,0,0-2.459-.367,7.043,7.043,0,0,1-5.989-5.066A6.58,6.58,0,0,1,184.777,315c.412-.145.628-.3.675-.8a2.563,2.563,0,0,1,2.48-2.235,2.534,2.534,0,0,1,2.646,2.107c.094.821.377,1.247,1.213,1.37a4.852,4.852,0,0,1,1.357.5,2.622,2.622,0,0,1-1.839,4.888,25.671,25.671,0,0,0-3.046-.854,6.716,6.716,0,0,0-1.383-.07,1.2,1.2,0,0,0-1.172.989,1.085,1.085,0,0,0,.683,1.284,4.5,4.5,0,0,0,1.924.376,6.873,6.873,0,0,1,5.906,3.545,6.47,6.47,0,0,1-2.991,8.991.807.807,0,0,0-.553.762,2.689,2.689,0,0,1-2.572,2.552,2.486,2.486,0,0,1-2.563-1.96c-.1-1.028-.631-1.194-1.427-1.365a13.736,13.736,0,0,1-2.191-.724A2.513,2.513,0,0,1,180.257,331.9Z" transform="translate(-70.358 -149.493)" fill="#2a2a2a"/>
  </g>
</svg>
