<svg xmlns="http://www.w3.org/2000/svg" width="66.949" height="66.879" viewBox="0 0 66.949 66.879">
  <g id="Group_4408" data-name="Group 4408" transform="translate(-4.5 -59.75)">
    <path id="Path_14469" data-name="Path 14469" d="M123.547,394.208c-.1-.044-.191-.095-.29-.132a2.609,2.609,0,0,1,.869-5.09c2.393-.011,4.787-.016,7.18.008.47,0,.652-.084.615-.6a20.7,20.7,0,0,1-.007-2.088,2.607,2.607,0,0,1,5.213,0c.022.717.034,1.437,0,2.153-.024.444.135.532.546.528,2.35-.019,4.7-.011,7.049-.008a2.617,2.617,0,0,1,.877,5.147.443.443,0,0,0-.1.078Z" transform="translate(-96.58 -267.579)" fill="#2a2a2a"/>
    <path id="Path_14471" data-name="Path 14471" d="M71.434,72.18a10.484,10.484,0,0,0-.72-4.34,13.785,13.785,0,0,0-2.4-3.862,11.56,11.56,0,0,0-7.538-4.112,3.5,3.5,0,0,1-1.025-.117H16.125a11.1,11.1,0,0,0-5.179,1.487,13.774,13.774,0,0,0-5.739,6.534A14.129,14.129,0,0,0,4.5,71.245V100.5a21.634,21.634,0,0,0,.383,2.627,13.361,13.361,0,0,0,12.675,9.146q20.342.01,40.683.005a12.652,12.652,0,0,0,6.833-1.851c4.063-2.533,6.382-6.1,6.374-11.021C71.433,90.334,71.454,81.257,71.434,72.18ZM66.154,98.54a7.855,7.855,0,0,1-8.244,8.234H19.195c-.239,0-.478-.011-.717-.017-.8-.121-1.2-.756-1.623-1.316a10.366,10.366,0,0,1-2.185-6.428c-.009-8.075-1.391-25.172-.964-25.5.331-.052,1.553-3.386.909-2.6a21.047,21.047,0,0,1,1.532-3.528,16.911,16.911,0,0,1,1.383-1.881,1.768,1.768,0,0,1,.95-.516c.239-.006.478-.017.717-.017H57.911a7.849,7.849,0,0,1,8.243,8.233Q66.155,85.874,66.154,98.54Z" transform="translate(0)" fill="#dd1928"/>
    <path id="Path_14472" data-name="Path 14472" d="M43.237,89.772a10.342,10.342,0,0,0-3.382,6.091c-.034.19-.143,3.064-.143,3.34q-.006,12.18,0,24.359a10.336,10.336,0,0,0,3.526,7.973,7.928,7.928,0,0,1-8.322-5.274,8.169,8.169,0,0,1-.434-2.689q.009-12.92.006-25.839a7.838,7.838,0,0,1,7.97-7.978C42.716,89.754,42.976,89.766,43.237,89.772Z" transform="translate(-24.759 -24.779)" fill="#f6f6f6"/>
    <path id="Path_14474" data-name="Path 14474" d="M273.715,154.934c-.847,0-1.695.012-2.542,0a2.608,2.608,0,1,1-.021-5.216q2.575-.028,5.15,0a2.608,2.608,0,1,1,.021,5.216C275.454,154.947,274.584,154.934,273.715,154.934Z" transform="translate(-223.034 -76.755)" fill="#2a2a2a"/>
    <path id="Path_14699" data-name="Path 14699" d="M273.715,154.934c-.847,0-1.695.012-2.542,0a2.608,2.608,0,1,1-.021-5.216q2.575-.028,5.15,0a2.608,2.608,0,1,1,.021,5.216C275.454,154.947,274.584,154.934,273.715,154.934Z" transform="translate(-246.02 -76.761)" fill="#2a2a2a"/>
    <path id="Path_14475" data-name="Path 14475" d="M273.725,214.933c-.87,0-1.74.014-2.609,0a2.608,2.608,0,1,1,.018-5.216q2.609-.026,5.218,0a2.608,2.608,0,1,1-.018,5.215C275.464,214.946,274.594,214.933,273.725,214.933Z" transform="translate(-223.03 -126.303)" fill="#dd1928"/>
    <path id="Path_14700" data-name="Path 14700" d="M273.725,214.933c-.87,0-1.74.014-2.609,0a2.608,2.608,0,1,1,.018-5.216q2.609-.026,5.218,0a2.608,2.608,0,1,1-.018,5.215C275.464,214.946,274.594,214.933,273.725,214.933Z" transform="translate(-246.016 -126.309)" fill="#dd1928"/>
    <path id="Path_14476" data-name="Path 14476" d="M273.8,269.729c.847,0,1.695-.014,2.542,0a2.607,2.607,0,1,1,0,5.214q-2.607.033-5.215,0a2.607,2.607,0,1,1,0-5.214C272.023,269.714,272.914,269.729,273.8,269.729Z" transform="translate(-223.034 -175.873)" fill="#2a2a2a"/>
    <path id="Path_14701" data-name="Path 14701" d="M273.8,269.729c.847,0,1.695-.014,2.542,0a2.607,2.607,0,1,1,0,5.214q-2.607.033-5.215,0a2.607,2.607,0,1,1,0-5.214C272.023,269.714,272.914,269.729,273.8,269.729Z" transform="translate(-246.02 -175.879)" fill="#2a2a2a"/>
  </g>
</svg>
