<svg xmlns="http://www.w3.org/2000/svg" xmlns:xlink="http://www.w3.org/1999/xlink" width="597.31" height="597.31" viewBox="0 0 597.31 597.31">
  <defs>
    <linearGradient id="linear-gradient" y1="0.5" x2="1" y2="0.5" gradientUnits="objectBoundingBox">
      <stop offset="0" stop-color="#fff"/>
      <stop offset="0.08" stop-color="#fff" stop-opacity="0.804"/>
      <stop offset="0.168" stop-color="#fff" stop-opacity="0.616"/>
      <stop offset="0.261" stop-color="#fff" stop-opacity="0.451"/>
      <stop offset="0.358" stop-color="#fff" stop-opacity="0.314"/>
      <stop offset="0.46" stop-color="#fff" stop-opacity="0.2"/>
      <stop offset="0.568" stop-color="#fff" stop-opacity="0.11"/>
      <stop offset="0.685" stop-color="#fff" stop-opacity="0.047"/>
      <stop offset="0.817" stop-color="#fff" stop-opacity="0.012"/>
      <stop offset="1" stop-color="#fff" stop-opacity="0"/>
    </linearGradient>
    <filter id="Ellipse_1335" x="95.703" y="54.031" width="119.225" height="119.225" filterUnits="userSpaceOnUse">
      <feOffset dy="3" input="SourceAlpha"/>
      <feGaussianBlur stdDeviation="3" result="blur"/>
      <feFlood flood-color="#838282" flood-opacity="0.161"/>
      <feComposite operator="in" in2="blur"/>
      <feComposite in="SourceGraphic"/>
    </filter>
    <filter id="Ellipse_1337" x="10.197" y="219.995" width="101.2" height="101.2" filterUnits="userSpaceOnUse">
      <feOffset dy="3" input="SourceAlpha"/>
      <feGaussianBlur stdDeviation="3" result="blur-2"/>
      <feFlood flood-color="#b7b1b1" flood-opacity="0.161"/>
      <feComposite operator="in" in2="blur-2"/>
      <feComposite in="SourceGraphic"/>
    </filter>
    <filter id="Ellipse_1338" x="15.929" y="119.593" width="79.643" height="79.643" filterUnits="userSpaceOnUse">
      <feOffset dy="3" input="SourceAlpha"/>
      <feGaussianBlur stdDeviation="3" result="blur-3"/>
      <feFlood flood-color="#b8b8b8" flood-opacity="0.161"/>
      <feComposite operator="in" in2="blur-3"/>
      <feComposite in="SourceGraphic"/>
    </filter>
    <filter id="Ellipse_1339" x="306.467" y="84.899" width="72.801" height="72.801" filterUnits="userSpaceOnUse">
      <feOffset dy="3" input="SourceAlpha"/>
      <feGaussianBlur stdDeviation="3" result="blur-4"/>
      <feFlood flood-color="#606060" flood-opacity="0.212"/>
      <feComposite operator="in" in2="blur-4"/>
      <feComposite in="SourceGraphic"/>
    </filter>
  </defs>
  <g id="note_book" transform="translate(-10.436 -25.401)">
    <g id="Group_41710" data-name="Group 41710" transform="translate(10.789 25.755)">
      <circle id="Ellipse_1317" data-name="Ellipse 1317" cx="198.518" cy="198.518" r="198.518" transform="translate(17.555 298.301) rotate(-45)" fill="#cdcdcd"/>
      <circle id="Ellipse_1318" data-name="Ellipse 1318" cx="210.931" cy="210.931" r="210.931" transform="translate(0 298.301) rotate(-45)" fill="none" stroke="#cdcdcd" stroke-miterlimit="10" stroke-width="0.5"/>
    </g>
    <g id="Group_41712" data-name="Group 41712" transform="translate(221.188 467.66)">
      <g id="Group_41711" data-name="Group 41711">
        <path id="Path_43507" data-name="Path 43507" d="M335.31,447.8H199.452A19.453,19.453,0,0,1,180,428.348h0a19.454,19.454,0,0,1,19.453-19.455H335.31a19.455,19.455,0,0,1,19.455,19.455h0A19.454,19.454,0,0,1,335.31,447.8Z" transform="translate(-179.999 -374.396)" fill="#222323" stroke="#fff" stroke-miterlimit="10" stroke-width="0.46"/>
        <line id="Line_120" data-name="Line 120" y1="34.497" transform="translate(86.049)" fill="none" stroke="#fff" stroke-miterlimit="10" stroke-width="0.46"/>
      </g>
      <text id="Web_APP_DEVELOPMENT" data-name="Web APP DEVELOPMENT" transform="translate(83.999 57.492)" fill="#fff" font-size="10" font-family="Montserrat-SemiBold, Montserrat" font-weight="600"><tspan x="-66.77" y="0">WEB APP DEVELOPMENT</tspan></text>
    </g>
    <g id="Group_41741" data-name="Group 41741" transform="translate(85.039 197.376)">
      <g id="Group_41715" data-name="Group 41715">
        <g id="Group_41713" data-name="Group 41713" transform="translate(16.048)">
          <path id="Rectangle_1160" data-name="Rectangle 1160" d="M12.389,0h391.23a12.389,12.389,0,0,1,12.389,12.389V259.6a0,0,0,0,1,0,0H0a0,0,0,0,1,0,0V12.389A12.389,12.389,0,0,1,12.389,0Z" fill="#fff"/>
          <rect id="Rectangle_1161" data-name="Rectangle 1161" width="416.008" height="11.127" transform="translate(0 248.473)" fill="#dcecf4"/>
          <path id="Rectangle_1162" data-name="Rectangle 1162" d="M9,0h385.42a9,9,0,0,1,9,9V247.528a0,0,0,0,1,0,0H0a0,0,0,0,1,0,0V9A9,9,0,0,1,9,0Z" transform="translate(6.295 6.036)" fill="#222323"/>
          <path id="Rectangle_1163" data-name="Rectangle 1163" d="M9,0H35.385a0,0,0,0,1,0,0V247.528a0,0,0,0,1,0,0H0a0,0,0,0,1,0,0V9A9,9,0,0,1,9,0Z" transform="translate(6.295 6.036)"/>
          <path id="Rectangle_1164" data-name="Rectangle 1164" d="M9,0h385.42a9,9,0,0,1,9,9V22.025a0,0,0,0,1,0,0H0a0,0,0,0,1,0,0V9A9,9,0,0,1,9,0Z" transform="translate(6.295 6.036)"/>
        </g>
        <g id="Group_41714" data-name="Group 41714" transform="translate(0 256.098)">
          <path id="Path_43508" data-name="Path 43508" d="M497.606,388.538H91.5a21.094,21.094,0,0,1-20.81-17.648l-.19-1.149h448.1l-.19,1.149A21.094,21.094,0,0,1,497.606,388.538Z" transform="translate(-70.503 -369.741)" fill="#fff"/>
          <path id="Path_43509" data-name="Path 43509" d="M513.463,369.741a21.091,21.091,0,0,1-19.923,14.186H87.437a21.057,21.057,0,0,1-14.8-6.075,21.1,21.1,0,0,0,18.345,10.686h406.1A21.094,21.094,0,0,0,517.9,370.89l.19-1.149Z" transform="translate(-69.983 -369.741)" fill="#dcecf4"/>
        </g>
      </g>
      <g id="Group_41739" data-name="Group 41739" transform="translate(74.307 46.909)">
        <g id="Group_41716" data-name="Group 41716">
          <line id="Line_121" data-name="Line 121" x2="141.858" fill="none" stroke="#690f0f" stroke-linecap="round" stroke-miterlimit="10" stroke-width="1.077"/>
          <line id="Line_122" data-name="Line 122" x2="47.168" transform="translate(153.562)" fill="none" stroke="#690f0f" stroke-linecap="round" stroke-miterlimit="10" stroke-width="1.077"/>
        </g>
        <g id="Group_41717" data-name="Group 41717" transform="translate(0 100.971)">
          <line id="Line_123" data-name="Line 123" x2="141.858" fill="none" stroke="#373839" stroke-linecap="round" stroke-miterlimit="10" stroke-width="1.077"/>
          <line id="Line_124" data-name="Line 124" x2="28.017" transform="translate(153.562)" fill="none" stroke="#373839" stroke-linecap="round" stroke-miterlimit="10" stroke-width="1.077"/>
        </g>
        <g id="Group_41718" data-name="Group 41718" transform="translate(0 130.004)">
          <line id="Line_125" data-name="Line 125" x2="141.858" fill="none" stroke="#690f0f" stroke-linecap="round" stroke-miterlimit="10" stroke-width="1.077"/>
          <line id="Line_126" data-name="Line 126" x2="28.017" transform="translate(153.562)" fill="none" stroke="#690f0f" stroke-linecap="round" stroke-miterlimit="10" stroke-width="1.077"/>
        </g>
        <g id="Group_41719" data-name="Group 41719" transform="translate(0 181.619)">
          <line id="Line_127" data-name="Line 127" x2="141.858" fill="none" stroke="#373839" stroke-linecap="round" stroke-miterlimit="10" stroke-width="1.077"/>
          <line id="Line_128" data-name="Line 128" x2="47.168" transform="translate(153.562)" fill="none" stroke="#373839" stroke-linecap="round" stroke-miterlimit="10" stroke-width="1.077"/>
        </g>
        <g id="Group_41720" data-name="Group 41720" transform="translate(97.528 189.684)">
          <line id="Line_129" data-name="Line 129" x2="44.331" fill="none" stroke="#690f0f" stroke-linecap="round" stroke-miterlimit="10" stroke-width="1.077"/>
          <line id="Line_130" data-name="Line 130" x2="47.168" transform="translate(56.034)" fill="none" stroke="#690f0f" stroke-linecap="round" stroke-miterlimit="10" stroke-width="1.077"/>
        </g>
        <g id="Group_41726" data-name="Group 41726" transform="translate(31.564 11.613)">
          <g id="Group_41721" data-name="Group 41721">
            <line id="Line_131" data-name="Line 131" x2="110.295" fill="none" stroke="#373839" stroke-linecap="round" stroke-miterlimit="10" stroke-width="1.077"/>
            <line id="Line_132" data-name="Line 132" x2="17.378" transform="translate(121.998)" fill="none" stroke="#373839" stroke-linecap="round" stroke-miterlimit="10" stroke-width="1.077"/>
          </g>
          <g id="Group_41722" data-name="Group 41722" transform="translate(0 7.097)">
            <line id="Line_133" data-name="Line 133" x2="110.295" fill="none" stroke="#373839" stroke-linecap="round" stroke-miterlimit="10" stroke-width="1.077"/>
            <line id="Line_134" data-name="Line 134" x2="30.145" transform="translate(121.998)" fill="none" stroke="#373839" stroke-linecap="round" stroke-miterlimit="10" stroke-width="1.077"/>
          </g>
          <g id="Group_41723" data-name="Group 41723" transform="translate(0 14.194)">
            <line id="Line_135" data-name="Line 135" x2="110.295" fill="none" stroke="#690f0f" stroke-linecap="round" stroke-miterlimit="10" stroke-width="1.077"/>
            <line id="Line_136" data-name="Line 136" x2="17.378" transform="translate(121.998)" fill="none" stroke="#690f0f" stroke-linecap="round" stroke-miterlimit="10" stroke-width="1.077"/>
          </g>
          <g id="Group_41724" data-name="Group 41724" transform="translate(0 21.291)">
            <line id="Line_137" data-name="Line 137" x2="110.295" fill="none" stroke="#373839" stroke-linecap="round" stroke-miterlimit="10" stroke-width="1.077"/>
            <line id="Line_138" data-name="Line 138" x2="30.145" transform="translate(121.998)" fill="none" stroke="#373839" stroke-linecap="round" stroke-miterlimit="10" stroke-width="1.077"/>
          </g>
          <g id="Group_41725" data-name="Group 41725" transform="translate(0 28.388)">
            <line id="Line_139" data-name="Line 139" x2="110.295" fill="none" stroke="#373839" stroke-linecap="round" stroke-miterlimit="10" stroke-width="1.077"/>
            <line id="Line_140" data-name="Line 140" x2="17.378" transform="translate(121.998)" fill="none" stroke="#373839" stroke-linecap="round" stroke-miterlimit="10" stroke-width="1.077"/>
          </g>
        </g>
        <g id="Group_41727" data-name="Group 41727" transform="translate(73.057 48.711)">
          <line id="Line_141" data-name="Line 141" x2="68.801" fill="none" stroke="#373839" stroke-linecap="round" stroke-miterlimit="10" stroke-width="1.077"/>
          <line id="Line_142" data-name="Line 142" x2="36.528" transform="translate(80.505)" fill="none" stroke="#373839" stroke-linecap="round" stroke-miterlimit="10" stroke-width="1.077"/>
        </g>
        <g id="Group_41728" data-name="Group 41728" transform="translate(73.057 57.421)">
          <line id="Line_143" data-name="Line 143" x2="68.801" fill="none" stroke="#373839" stroke-linecap="round" stroke-miterlimit="10" stroke-width="1.077"/>
          <line id="Line_144" data-name="Line 144" x2="36.528" transform="translate(80.505)" fill="none" stroke="#373839" stroke-linecap="round" stroke-miterlimit="10" stroke-width="1.077"/>
        </g>
        <g id="Group_41729" data-name="Group 41729" transform="translate(73.057 66.131)">
          <line id="Line_145" data-name="Line 145" x2="54.615" fill="none" stroke="#373839" stroke-linecap="round" stroke-miterlimit="10" stroke-width="1.077"/>
          <line id="Line_146" data-name="Line 146" x2="50.714" transform="translate(66.319)" fill="none" stroke="#373839" stroke-linecap="round" stroke-miterlimit="10" stroke-width="1.077"/>
        </g>
        <g id="Group_41730" data-name="Group 41730" transform="translate(73.057 74.841)">
          <line id="Line_147" data-name="Line 147" x2="68.801" fill="none" stroke="#373839" stroke-linecap="round" stroke-miterlimit="10" stroke-width="1.077"/>
          <line id="Line_148" data-name="Line 148" x2="36.528" transform="translate(80.505)" fill="none" stroke="#373839" stroke-linecap="round" stroke-miterlimit="10" stroke-width="1.077"/>
        </g>
        <g id="Group_41731" data-name="Group 41731" transform="translate(73.057 83.551)">
          <line id="Line_149" data-name="Line 149" x2="54.615" fill="none" stroke="#373839" stroke-linecap="round" stroke-miterlimit="10" stroke-width="1.077"/>
          <line id="Line_150" data-name="Line 150" x2="50.714" transform="translate(66.319)" fill="none" stroke="#373839" stroke-linecap="round" stroke-miterlimit="10" stroke-width="1.077"/>
        </g>
        <g id="Group_41732" data-name="Group 41732" transform="translate(73.057 92.261)">
          <line id="Line_151" data-name="Line 151" x2="68.801" fill="none" stroke="#373839" stroke-linecap="round" stroke-miterlimit="10" stroke-width="1.077"/>
          <line id="Line_152" data-name="Line 152" x2="36.528" transform="translate(80.505)" fill="none" stroke="#373839" stroke-linecap="round" stroke-miterlimit="10" stroke-width="1.077"/>
        </g>
        <g id="Group_41733" data-name="Group 41733" transform="translate(90.435 112.584)">
          <line id="Line_153" data-name="Line 153" x2="68.801" fill="none" stroke="#373839" stroke-linecap="round" stroke-miterlimit="10" stroke-width="1.077"/>
          <line id="Line_154" data-name="Line 154" x2="36.528" transform="translate(80.505)" fill="none" stroke="#373839" stroke-linecap="round" stroke-miterlimit="10" stroke-width="1.077"/>
        </g>
        <g id="Group_41734" data-name="Group 41734" transform="translate(90.435 121.294)">
          <line id="Line_155" data-name="Line 155" x2="48.941" fill="none" stroke="#373839" stroke-linecap="round" stroke-miterlimit="10" stroke-width="1.077"/>
          <line id="Line_156" data-name="Line 156" x2="56.389" transform="translate(60.644)" fill="none" stroke="#373839" stroke-linecap="round" stroke-miterlimit="10" stroke-width="1.077"/>
        </g>
        <g id="Group_41735" data-name="Group 41735" transform="translate(118.452 141.295)">
          <line id="Line_157" data-name="Line 157" x2="20.924" fill="none" stroke="#373839" stroke-linecap="round" stroke-miterlimit="10" stroke-width="1.077"/>
          <line id="Line_158" data-name="Line 158" x2="39.011" transform="translate(32.627)" fill="none" stroke="#373839" stroke-linecap="round" stroke-miterlimit="10" stroke-width="1.077"/>
        </g>
        <g id="Group_41736" data-name="Group 41736" transform="translate(124.835 149.36)">
          <line id="Line_159" data-name="Line 159" x2="14.541" fill="none" stroke="#373839" stroke-linecap="round" stroke-miterlimit="10" stroke-width="1.077"/>
          <line id="Line_160" data-name="Line 160" x2="49.65" transform="translate(26.244)" fill="none" stroke="#373839" stroke-linecap="round" stroke-miterlimit="10" stroke-width="1.077"/>
        </g>
        <g id="Group_41737" data-name="Group 41737" transform="translate(118.452 157.425)">
          <line id="Line_161" data-name="Line 161" x2="20.924" fill="none" stroke="#690f0f" stroke-linecap="round" stroke-miterlimit="10" stroke-width="1.077"/>
          <line id="Line_162" data-name="Line 162" x2="39.011" transform="translate(32.627)" fill="none" stroke="#690f0f" stroke-linecap="round" stroke-miterlimit="10" stroke-width="1.077"/>
        </g>
        <g id="Group_41738" data-name="Group 41738" transform="translate(124.835 165.489)">
          <line id="Line_163" data-name="Line 163" x2="14.541" fill="none" stroke="#373839" stroke-linecap="round" stroke-miterlimit="10" stroke-width="1.077"/>
          <line id="Line_164" data-name="Line 164" x2="49.65" transform="translate(26.244)" fill="none" stroke="#373839" stroke-linecap="round" stroke-miterlimit="10" stroke-width="1.077"/>
        </g>
      </g>
      <g id="Group_41740" data-name="Group 41740" transform="translate(35.996 14.122)">
        <path id="Path_43510" data-name="Path 43510" d="M105.689,200.454a4.039,4.039,0,1,1-4.039-4.039A4.039,4.039,0,0,1,105.689,200.454Z" transform="translate(-97.611 -176.462)" fill="#26508c"/>
        <path id="Path_43511" data-name="Path 43511" d="M107.095,178.062a2.926,2.926,0,1,1-2.926-2.926A2.927,2.927,0,0,1,107.095,178.062Z" transform="translate(-99.016 -175.136)" fill="#e62f15"/>
        <path id="Path_43512" data-name="Path 43512" d="M115.723,178.062a2.926,2.926,0,1,1-2.926-2.926A2.927,2.927,0,0,1,115.723,178.062Z" transform="translate(-96.916 -175.136)" fill="#e62f15"/>
        <path id="Path_43513" data-name="Path 43513" d="M124.35,178.062a2.926,2.926,0,1,1-2.926-2.926A2.926,2.926,0,0,1,124.35,178.062Z" transform="translate(-94.816 -175.136)" fill="#e62f15"/>
        <path id="Path_43514" data-name="Path 43514" d="M105.689,220.592a4.039,4.039,0,1,1-4.039-4.04A4.039,4.039,0,0,1,105.689,220.592Z" transform="translate(-97.611 -180.618)" fill="#26508c"/>
        <ellipse id="Ellipse_1319" data-name="Ellipse 1319" cx="4.039" cy="4.039" rx="4.039" ry="4.039" transform="translate(0 51.916)" fill="#26508c"/>
        <path id="Path_43515" data-name="Path 43515" d="M105.689,260.867a4.039,4.039,0,1,1-4.039-4.039A4.039,4.039,0,0,1,105.689,260.867Z" transform="translate(-97.611 -188.93)" fill="#26508c"/>
      </g>
    </g>
    <path id="Path_43516" data-name="Path 43516" d="M433.3,203.744h31.608a15.427,15.427,0,0,1,15.427,15.427V375.216a15.427,15.427,0,0,1-15.427,15.427H417.121" transform="translate(98.91 43.326)" fill="none" stroke="#fff" stroke-miterlimit="10" stroke-width="1.129"/>
    <g id="Group_41742" data-name="Group 41742" transform="translate(359.919 138.282)">
      <circle id="Ellipse_1320" data-name="Ellipse 1320" cx="109.664" cy="109.664" r="109.664" fill="#fff" opacity="0.05"/>
      <circle id="Ellipse_1321" data-name="Ellipse 1321" cx="101.698" cy="101.698" r="101.698" transform="translate(7.965 7.965)" fill="#fff" opacity="0.15"/>
      <circle id="Ellipse_1322" data-name="Ellipse 1322" cx="84.129" cy="84.129" r="84.129" transform="matrix(0.23, -0.973, 0.973, 0.23, 8.456, 172.213)" fill="#fff" opacity="0.5"/>
    </g>
    <g id="Group_41748" data-name="Group 41748" transform="translate(406.002 124.973)">
      <g id="Group_41743" data-name="Group 41743">
        <path id="Path_43571" data-name="Path 43571" d="M5.063,0H122.078a5.063,5.063,0,0,1,5.063,5.063v228.5a5.063,5.063,0,0,1-5.063,5.063H5.063A5.063,5.063,0,0,1,0,233.563V5.063A5.063,5.063,0,0,1,5.063,0Z" fill="#2d2d2d"/>
        <rect id="Rectangle_1166" data-name="Rectangle 1166" width="119.853" height="230.268" rx="3.883" transform="translate(3.643 4.179)" fill="#fff"/>
        <path id="Path_43572" data-name="Path 43572" d="M0,0H42.38V1.762a2.494,2.494,0,0,1-2.494,2.494H2.494A2.494,2.494,0,0,1,0,1.762Z" transform="translate(42.38 2.804)" fill="#2d2e2e"/>
        <line id="Line_165" data-name="Line 165" x2="17.54" transform="translate(54.8 4.179)" fill="none" stroke="#fff" stroke-linecap="round" stroke-miterlimit="10" stroke-width="0.726"/>
      </g>
      <path id="Path_43573" data-name="Path 43573" d="M27.662,0A27.662,27.662,0,1,1,0,27.662,27.662,27.662,0,0,1,27.662,0Z" transform="translate(30.292 77.41) rotate(-76.718)" fill="#4c4d4d"/>
      <path id="Path_43517" data-name="Path 43517" d="M389.97,154.369h-2.9a9.045,9.045,0,1,0-8.449,0h-2.9a8.651,8.651,0,0,0-8.652,8.652v2.885a3.381,3.381,0,0,0,3.38,3.381h24.79a3.381,3.381,0,0,0,3.38-3.381v-2.885A8.651,8.651,0,0,0,389.97,154.369Z" transform="translate(-319.276 -97.813)" fill="#fff"/>
      <path id="Path_43518" data-name="Path 43518" d="M395.972,284.2H369.72a2.649,2.649,0,0,1-2.648-2.65h0a2.649,2.649,0,0,1,2.648-2.65h26.252a2.649,2.649,0,0,1,2.648,2.65h0A2.649,2.649,0,0,1,395.972,284.2Z" transform="translate(-319.276 -63.352)" fill="#e7e9ea"/>
      <g id="Group_41745" data-name="Group 41745" transform="translate(22.343 145.12)">
        <path id="Path_43519" data-name="Path 43519" d="M418.9,242.577H356.76A10.159,10.159,0,0,1,346.6,232.418h0a10.159,10.159,0,0,1,10.159-10.159H418.9a10.159,10.159,0,0,1,10.159,10.159h0A10.159,10.159,0,0,1,418.9,242.577Z" transform="translate(-346.601 -222.259)" fill="none" stroke="#4c4d4d" stroke-miterlimit="10" stroke-width="1.04"/>
        <g id="Group_41744" data-name="Group 41744" transform="translate(22.364 8.485)">
          <path id="Path_43520" data-name="Path 43520" d="M367.934,230.757a1.674,1.674,0,1,1-1.674-1.674A1.673,1.673,0,0,1,367.934,230.757Z" transform="translate(-364.587 -229.083)" fill="#e1e8ea" stroke="#4c4d4d" stroke-width="1"/>
          <path id="Path_43521" data-name="Path 43521" d="M374.852,230.757a1.674,1.674,0,1,1-1.674-1.674A1.673,1.673,0,0,1,374.852,230.757Z" transform="translate(-362.904 -229.083)" fill="#e1e8ea" stroke="#4c4d4d" stroke-width="1"/>
          <path id="Path_43522" data-name="Path 43522" d="M381.767,230.757a1.674,1.674,0,1,1-1.674-1.674A1.673,1.673,0,0,1,381.767,230.757Z" transform="translate(-361.22 -229.083)" fill="#e1e8ea" stroke="#4c4d4d" stroke-width="1"/>
          <path id="Path_43523" data-name="Path 43523" d="M388.685,230.757a1.674,1.674,0,1,1-1.674-1.674A1.673,1.673,0,0,1,388.685,230.757Z" transform="translate(-359.536 -229.083)" fill="#e1e8ea" stroke="#4c4d4d" stroke-width="1"/>
          <path id="Path_43524" data-name="Path 43524" d="M395.6,230.757a1.674,1.674,0,1,1-1.674-1.674A1.673,1.673,0,0,1,395.6,230.757Z" transform="translate(-357.853 -229.083)" fill="#e1e8ea" stroke="#4c4d4d" stroke-width="1"/>
        </g>
      </g>
      <g id="Group_41747" data-name="Group 41747" transform="translate(22.343 113.868)">
        <path id="Path_43525" data-name="Path 43525" d="M418.9,217.443H356.76A10.159,10.159,0,0,1,346.6,207.284h0a10.159,10.159,0,0,1,10.159-10.159H418.9a10.159,10.159,0,0,1,10.159,10.159h0A10.159,10.159,0,0,1,418.9,217.443Z" transform="translate(-346.601 -197.125)" fill="none" stroke="#4c4d4d" stroke-miterlimit="10" stroke-width="1.04"/>
        <g id="Group_41746" data-name="Group 41746" transform="translate(14.651 9.106)">
          <path id="Path_43526" data-name="Path 43526" d="M410.506,206.554h-51.07a1.053,1.053,0,0,1,0-2.106h51.07a1.053,1.053,0,0,1,0,2.106Z" transform="translate(-358.384 -204.448)" fill="#2d2d2d"/>
        </g>
      </g>
    </g>
    <g id="Group_41749" data-name="Group 41749" transform="translate(517.095 429.137)">
      <rect id="Rectangle_1168" data-name="Rectangle 1168" width="39.1" height="6.827" transform="translate(0 0.975)" fill="url(#linear-gradient)"/>
      <rect id="Rectangle_1169" data-name="Rectangle 1169" width="24.692" height="1.951" fill="url(#linear-gradient)"/>
      <rect id="Rectangle_1170" data-name="Rectangle 1170" width="24.692" height="1.951" transform="translate(0 6.827)" fill="url(#linear-gradient)"/>
    </g>
    <g id="Group_41750" data-name="Group 41750" transform="translate(533.143 242.682)">
      <rect id="Rectangle_1171" data-name="Rectangle 1171" width="39.1" height="6.827" transform="translate(0 0.975)" fill="url(#linear-gradient)"/>
      <rect id="Rectangle_1172" data-name="Rectangle 1172" width="24.692" height="1.951" fill="url(#linear-gradient)"/>
      <rect id="Rectangle_1173" data-name="Rectangle 1173" width="24.692" height="1.951" transform="translate(0 6.827)" fill="url(#linear-gradient)"/>
    </g>
    <g id="Group_41756" data-name="Group 41756" transform="translate(65.69 115.822)">
      <g id="Group_41751" data-name="Group 41751" transform="translate(0 284.822)">
        <path id="Path_43527" data-name="Path 43527" d="M81.662,329.968v32.289a2.58,2.58,0,0,1-2.58,2.58H57.658" transform="translate(-54.281 -326.592)" fill="none" stroke="#fff" stroke-miterlimit="10" stroke-width="0.5"/>
        <circle id="Ellipse_1324" data-name="Ellipse 1324" cx="1.688" cy="1.688" r="1.688" transform="translate(25.693 0)" fill="none" stroke="#fff" stroke-miterlimit="10" stroke-width="0.5"/>
        <circle id="Ellipse_1325" data-name="Ellipse 1325" cx="1.688" cy="1.688" r="1.688" transform="translate(0 36.557)" fill="none" stroke="#fff" stroke-miterlimit="10" stroke-width="0.5"/>
        <circle id="Ellipse_1326" data-name="Ellipse 1326" cx="1.688" cy="1.688" r="1.688" transform="translate(7.694 55.071)" fill="none" stroke="#fff" stroke-miterlimit="10" stroke-width="0.5"/>
        <circle id="Ellipse_1327" data-name="Ellipse 1327" cx="1.688" cy="1.688" r="1.688" transform="translate(27.381 40.876)" fill="none" stroke="#fff" stroke-miterlimit="10" stroke-width="0.5"/>
        <path id="Path_43528" data-name="Path 43528" d="M80.487,361.484H65.067a2.58,2.58,0,0,0-2.58,2.58v10.143" transform="translate(-53.106 -318.92)" fill="none" stroke="#fff" stroke-miterlimit="10" stroke-width="0.5"/>
      </g>
      <g id="Group_41752" data-name="Group 41752" transform="translate(61.027 72.825)">
        <circle id="Ellipse_1328" data-name="Ellipse 1328" cx="1.688" cy="1.688" r="1.688" fill="none" stroke="#fff" stroke-miterlimit="10" stroke-width="0.5"/>
        <path id="Path_43529" data-name="Path 43529" d="M167.574,158.447a1.689,1.689,0,1,1-1.689-1.689A1.689,1.689,0,0,1,167.574,158.447Z" transform="translate(-89.375 -156.758)" fill="none" stroke="#fff" stroke-miterlimit="10" stroke-width="0.5"/>
        <line id="Line_166" data-name="Line 166" x1="71.577" transform="translate(3.246 1.688)" fill="none" stroke="#fff" stroke-miterlimit="10" stroke-width="0.5"/>
      </g>
      <g id="Group_41753" data-name="Group 41753" transform="translate(333.836 0)">
        <circle id="Ellipse_1329" data-name="Ellipse 1329" cx="1.688" cy="1.688" r="1.688" transform="translate(34.868)" fill="none" stroke="#fff" stroke-miterlimit="10" stroke-width="0.5"/>
        <path id="Path_43530" data-name="Path 43530" d="M362.529,99.877a1.688,1.688,0,1,1-1.687-1.687A1.688,1.688,0,0,1,362.529,99.877Z" transform="translate(-314.727 -98.189)" fill="none" stroke="#fff" stroke-miterlimit="10" stroke-width="0.5"/>
        <path id="Path_43531" data-name="Path 43531" d="M323.424,142.583V105.515a5.968,5.968,0,0,1,5.968-5.968h28.9" transform="translate(-323.424 -97.859)" fill="none" stroke="#fff" stroke-miterlimit="10" stroke-width="0.5"/>
        <line id="Line_167" data-name="Line 167" x2="25.985" transform="translate(47.803 1.688)" fill="none" stroke="#fff" stroke-miterlimit="10" stroke-width="0.5"/>
      </g>
      <g id="Group_41754" data-name="Group 41754" transform="translate(336.935 360.723)">
        <circle id="Ellipse_1330" data-name="Ellipse 1330" cx="1.688" cy="1.688" r="1.688" transform="translate(0)" fill="none" stroke="#fff" stroke-miterlimit="10" stroke-width="0.5"/>
        <circle id="Ellipse_1331" data-name="Ellipse 1331" cx="1.688" cy="1.688" r="1.688" transform="translate(109.005)" fill="none" stroke="#fff" stroke-miterlimit="10" stroke-width="0.5"/>
        <line id="Line_168" data-name="Line 168" x2="105.628" transform="translate(3.377 1.688)" fill="none" stroke="#fff" stroke-miterlimit="10" stroke-width="0.5"/>
      </g>
      <g id="Group_41755" data-name="Group 41755" transform="translate(456.974 233.462)">
        <path id="Path_43532" data-name="Path 43532" d="M439.1,344.731a1.689,1.689,0,1,1-1.689-1.689A1.689,1.689,0,0,1,439.1,344.731Z" transform="translate(-419.227 -272.049)" fill="none" stroke="#fff" stroke-miterlimit="10" stroke-width="0.5"/>
        <circle id="Ellipse_1332" data-name="Ellipse 1332" cx="1.688" cy="1.688" r="1.688" transform="translate(17.434)" fill="none" stroke="#fff" stroke-miterlimit="10" stroke-width="0.5"/>
        <circle id="Ellipse_1333" data-name="Ellipse 1333" cx="1.688" cy="1.688" r="1.688" transform="translate(0 54.501)" fill="none" stroke="#fff" stroke-miterlimit="10" stroke-width="0.5"/>
        <path id="Path_43533" data-name="Path 43533" d="M423.814,339.788V321.451A1.453,1.453,0,0,1,425.266,320H439.8a1.452,1.452,0,0,0,1.452-1.452V288.663" transform="translate(-422.125 -285.286)" fill="none" stroke="#fff" stroke-miterlimit="10" stroke-width="0.5"/>
        <path id="Path_43534" data-name="Path 43534" d="M423.814,320.116h15.038a1.453,1.453,0,0,1,1.454,1.452v27.054" transform="translate(-422.125 -277.63)" fill="none" stroke="#fff" stroke-miterlimit="10" stroke-width="0.5"/>
      </g>
    </g>
    <g id="Group_41774" data-name="Group 41774" transform="translate(23.851 85.432)">
      <g id="Group_41758" data-name="Group 41758" transform="translate(48.442 251.354)">
        <circle id="Ellipse_1334" data-name="Ellipse 1334" cx="22.038" cy="22.038" r="22.038" transform="translate(0 16.867) rotate(-22.5)" fill="#fff"/>
        <path id="Path_43535" data-name="Path 43535" d="M104.273,285.855a25.108,25.108,0,0,1-28.55,39.628" transform="translate(-56.487 -273.472)" fill="none" stroke="#fff" stroke-linecap="round" stroke-miterlimit="10" stroke-width="0.639"/>
        <path id="Path_43536" data-name="Path 43536" d="M71.338,322.446a25.1,25.1,0,0,1,16.985-43.579" transform="translate(-59.53 -275.173)" fill="none" stroke="#fff" stroke-linecap="round" stroke-miterlimit="10" stroke-width="0.639"/>
        <g id="Group_41757" data-name="Group 41757" transform="translate(14.129 18.528)">
          <path id="Path_43537" data-name="Path 43537" d="M87.078,290.8H88.89l-6.875,19.627H80.2Z" transform="translate(-69.526 -290.797)" fill="#365c9e"/>
          <path id="Path_43538" data-name="Path 43538" d="M97.029,299.043v1.792L87.7,304.523v-1.73l7.417-2.854L87.7,297.085v-1.73Z" transform="translate(-67.702 -289.688)" fill="#365c9e"/>
          <path id="Path_43539" data-name="Path 43539" d="M71.616,300.835v-1.792l9.334-3.688v1.73l-7.417,2.855,7.417,2.854v1.73Z" transform="translate(-71.616 -289.688)" fill="#365c9e"/>
        </g>
      </g>
      <g id="Group_41760" data-name="Group 41760" transform="translate(91.288 0)">
        <g transform="matrix(1, 0, 0, 1, -104.7, -60.03)" filter="url(#Ellipse_1335)">
          <circle id="Ellipse_1335-2" data-name="Ellipse 1335" cx="35.788" cy="35.788" r="35.788" transform="translate(104.7 110.64) rotate(-45)" fill="#fff"/>
        </g>
        <path id="Path_43540" data-name="Path 43540" d="M169.3,93.021a40.774,40.774,0,0,1-46.365,64.353" transform="translate(-87.841 -69.058)" fill="none" stroke="#fff" stroke-linecap="round" stroke-miterlimit="10" stroke-width="1.038"/>
        <path id="Path_43541" data-name="Path 43541" d="M115.811,152.445a40.763,40.763,0,0,1,27.584-70.774" transform="translate(-92.782 -71.821)" fill="none" stroke="#fff" stroke-linecap="round" stroke-miterlimit="10" stroke-width="1.038"/>
        <g id="Group_41759" data-name="Group 41759" transform="translate(35.543 39.488)">
          <path id="Path_43542" data-name="Path 43542" d="M123.3,123.331l2.166-2.6a4.974,4.974,0,0,0,4.068,2.341c2.109,0,3.191-1.258,3.191-3.776V108.7h-7.288v-3.191h11.091v13.581c0,4.829-2.4,7.2-6.906,7.2A7.728,7.728,0,0,1,123.3,123.331Z" transform="translate(-123.296 -105.507)" fill="#e62f15"/>
          <path id="Path_43543" data-name="Path 43543" d="M136.509,123.528l1.4-2.78a10.535,10.535,0,0,0,5.446,1.551c2.312,0,3.276-.644,3.276-1.727,0-2.985-9.659-.175-9.659-6.41,0-2.957,2.665-4.888,6.88-4.888a12.443,12.443,0,0,1,5.854,1.347L148.3,113.4a8.553,8.553,0,0,0-4.478-1.171c-2.224,0-3.278.732-3.278,1.757,0,3.162,9.659.352,9.659,6.468,0,2.927-2.692,4.829-7.085,4.829A12.415,12.415,0,0,1,136.509,123.528Z" transform="translate(-120.08 -104.59)" fill="#e62f15"/>
        </g>
      </g>
      <g id="Group_41762" data-name="Group 41762" transform="translate(196.899 52.866)">
        <circle id="Ellipse_1336" data-name="Ellipse 1336" cx="40.434" cy="40.434" r="40.434" transform="translate(5.62 5.62)" fill="#fff"/>
        <path id="Path_43544" data-name="Path 43544" d="M254.966,129.089A46.067,46.067,0,0,1,202.583,201.8" transform="translate(-174.064 -113.145)" fill="none" stroke="#fff" stroke-linecap="round" stroke-miterlimit="10" stroke-width="1.173"/>
        <path id="Path_43545" data-name="Path 43545" d="M194.536,196.225A46.053,46.053,0,0,1,225.7,116.266" transform="translate(-179.647 -116.266)" fill="none" stroke="#fff" stroke-linecap="round" stroke-miterlimit="10" stroke-width="1.173"/>
        <g id="Group_41761" data-name="Group 41761" transform="translate(24.692 38.976)">
          <path id="Path_43546" data-name="Path 43546" d="M211.355,152.647c0,3.115-2.305,5.035-6.026,5.035h-3.194v4.085h-2.63V147.612h5.824C209.05,147.612,211.355,149.512,211.355,152.647Zm-2.65,0c0-1.779-1.191-2.81-3.5-2.81h-3.074v5.622h3.074C207.514,155.458,208.705,154.426,208.705,152.647Z" transform="translate(-199.505 -147.612)"/>
          <path id="Path_43547" data-name="Path 43547" d="M223.732,147.612v14.154H221.1V155.7h-7.321v6.065h-2.629V147.612h2.629v5.844H221.1v-5.844Z" transform="translate(-196.669 -147.612)"/>
          <path id="Path_43548" data-name="Path 43548" d="M236.184,152.647c0,3.115-2.305,5.035-6.026,5.035h-3.194v4.085h-2.63V147.612h5.824C233.878,147.612,236.184,149.512,236.184,152.647Zm-2.65,0c0-1.779-1.191-2.81-3.5-2.81h-3.074v5.622h3.074C232.343,155.458,233.534,154.426,233.534,152.647Z" transform="translate(-193.461 -147.612)"/>
        </g>
      </g>
      <g id="Group_41764" data-name="Group 41764" transform="translate(0 160.182)">
        <g transform="matrix(1, 0, 0, 1, -13.42, -220.21)" filter="url(#Ellipse_1337)">
          <circle id="Ellipse_1337-2" data-name="Ellipse 1337" cx="41.6" cy="41.6" r="41.6" transform="translate(19.2 226)" fill="#fff"/>
        </g>
        <path id="Path_43549" data-name="Path 43549" d="M98.786,215.766a47.4,47.4,0,0,1-53.895,74.8" transform="translate(-15.55 -199.362)" fill="none" stroke="#fff" stroke-linecap="round" stroke-miterlimit="10" stroke-width="1.207"/>
        <path id="Path_43550" data-name="Path 43550" d="M36.612,284.84a47.382,47.382,0,0,1,32.064-82.267" transform="translate(-21.294 -202.573)" fill="none" stroke="#fff" stroke-linecap="round" stroke-miterlimit="10" stroke-width="1.207"/>
        <g id="Group_41763" data-name="Group 41763" transform="translate(20.965 41.712)">
          <path id="Path_43551" data-name="Path 43551" d="M49.637,236.119v12.923h-2.4V243.5H40.555v5.538h-2.4V236.119h2.4v5.336h6.682v-5.336Z" transform="translate(-38.155 -236.119)" fill="#e62f15"/>
          <path id="Path_43552" data-name="Path 43552" d="M53.121,238.151H48.839v-2.032H59.8v2.032H55.521v10.891h-2.4Z" transform="translate(-35.554 -236.119)" fill="#e62f15"/>
          <path id="Path_43553" data-name="Path 43553" d="M70.979,249.042l-.019-8.566-4.245,7.089H65.644L61.4,240.587v8.455H59.109V236.119h1.975l5.133,8.566,5.04-8.566h1.975l.019,12.923Z" transform="translate(-33.054 -236.119)" fill="#e62f15"/>
          <path id="Path_43554" data-name="Path 43554" d="M73.282,236.119h2.4v10.892h6.757v2.031H73.282Z" transform="translate(-29.604 -236.119)" fill="#e62f15"/>
        </g>
      </g>
      <g id="Group_41769" data-name="Group 41769" transform="translate(11.514 65.562)">
        <g transform="matrix(1, 0, 0, 1, -24.93, -125.59)" filter="url(#Ellipse_1338)">
          <circle id="Ellipse_1338-2" data-name="Ellipse 1338" cx="25.62" cy="25.62" r="25.62" transform="translate(24.93 175.46) rotate(-76.72)" fill="#fff"/>
        </g>
        <path id="Path_43555" data-name="Path 43555" d="M79.6,135.921a29.19,29.19,0,0,1-33.192,46.07" transform="translate(-26.695 -124.178)" fill="none" stroke="#fff" stroke-linecap="round" stroke-miterlimit="10" stroke-width="0.743"/>
        <path id="Path_43556" data-name="Path 43556" d="M41.307,178.462A29.181,29.181,0,0,1,61.054,127.8" transform="translate(-30.233 -126.156)" fill="none" stroke="#fff" stroke-linecap="round" stroke-miterlimit="10" stroke-width="0.743"/>
        <g id="Group_41768" data-name="Group 41768" transform="translate(16.07 24.392)">
          <g id="Group_41765" data-name="Group 41765">
            <path id="Path_43557" data-name="Path 43557" d="M43.478,152.4a6.25,6.25,0,0,1,6.57-6.307,6.214,6.214,0,0,1,4.852,2.049l-1.471,1.384a4.31,4.31,0,0,0-3.275-1.436,4.31,4.31,0,1,0,0,8.618,4.263,4.263,0,0,0,3.275-1.454l1.471,1.4a6.226,6.226,0,0,1-4.869,2.049A6.244,6.244,0,0,1,43.478,152.4Z" transform="translate(-43.478 -146.094)"/>
          </g>
          <g id="Group_41766" data-name="Group 41766" transform="translate(13.929 2.964)">
            <path id="Path_43558" data-name="Path 43558" d="M61.529,152.563H58.9v2.6H57.31v-2.6H54.68v-1.485h2.63v-2.6H58.9v2.6h2.63Z" transform="translate(-54.68 -148.478)"/>
          </g>
          <g id="Group_41767" data-name="Group 41767" transform="translate(22.654 2.964)">
            <path id="Path_43559" data-name="Path 43559" d="M68.545,152.563H65.916v2.6h-1.59v-2.6H61.7v-1.485h2.629v-2.6h1.59v2.6h2.629Z" transform="translate(-61.697 -148.478)"/>
          </g>
        </g>
      </g>
      <g id="Group_41771" data-name="Group 41771" transform="translate(298.243 27.06)">
        <g transform="matrix(1, 0, 0, 1, -311.66, -87.09)" filter="url(#Ellipse_1339)">
          <circle id="Ellipse_1339-2" data-name="Ellipse 1339" cx="27.401" cy="27.401" r="27.401" transform="translate(315.47 90.9)" fill="#fff"/>
        </g>
        <path id="Path_43560" data-name="Path 43560" d="M312.192,104.2a31.218,31.218,0,0,1-35.5,49.271" transform="translate(-257.368 -93.397)" fill="none" stroke="#fff" stroke-linecap="round" stroke-miterlimit="10" stroke-width="0.795"/>
        <path id="Path_43561" data-name="Path 43561" d="M271.24,149.7a31.209,31.209,0,0,1,21.12-54.186" transform="translate(-261.151 -95.512)" fill="none" stroke="#fff" stroke-linecap="round" stroke-miterlimit="10" stroke-width="0.795"/>
        <g id="Group_41770" data-name="Group 41770" transform="translate(14.767 24.856)">
          <path id="Path_43562" data-name="Path 43562" d="M273.027,121.724a6.546,6.546,0,0,1,11.269-4.2l-1.452,1.365a4.251,4.251,0,0,0-3.232-1.416,4.252,4.252,0,1,0,0,8.5,4.209,4.209,0,0,0,3.232-1.435l1.452,1.383a6.545,6.545,0,0,1-11.269-4.2Z" transform="translate(-273.027 -115.502)" fill="#e62f15"/>
          <path id="Path_43563" data-name="Path 43563" d="M282.957,126.494l.778-1.746a6.689,6.689,0,0,0,3.99,1.33c1.885,0,2.68-.674,2.68-1.572,0-2.61-7.189-.9-7.189-5.393,0-1.952,1.555-3.612,4.873-3.612a7.657,7.657,0,0,1,4.027,1.071l-.709,1.746a6.724,6.724,0,0,0-3.335-.95c-1.866,0-2.627.726-2.627,1.643,0,2.575,7.172.9,7.172,5.34,0,1.935-1.573,3.595-4.892,3.595A7.793,7.793,0,0,1,282.957,126.494Z" transform="translate(-270.61 -115.502)" fill="#e62f15"/>
          <path id="Path_43564" data-name="Path 43564" d="M291.7,126.494l.777-1.746a6.7,6.7,0,0,0,3.991,1.33c1.885,0,2.68-.674,2.68-1.572,0-2.61-7.189-.9-7.189-5.393,0-1.952,1.556-3.612,4.874-3.612a7.656,7.656,0,0,1,4.026,1.071l-.709,1.746a6.72,6.72,0,0,0-3.335-.95c-1.866,0-2.627.726-2.627,1.643,0,2.575,7.172.9,7.172,5.34,0,1.935-1.573,3.595-4.892,3.595A7.792,7.792,0,0,1,291.7,126.494Z" transform="translate(-268.481 -115.502)" fill="#e62f15"/>
        </g>
      </g>
      <g id="Group_41772" data-name="Group 41772" transform="translate(252.364 11.823)">
        <path id="Path_43565" data-name="Path 43565" d="M252.367,89.816l-4.424.226.226-4.424a15.445,15.445,0,0,0-5.716-2.36l-2.963,3.283-2.963-3.283a15.445,15.445,0,0,0-5.716,2.36l.226,4.424-4.424-.226a15.436,15.436,0,0,0-2.36,5.716l3.283,2.963-3.283,2.963a15.445,15.445,0,0,0,2.36,5.716l4.424-.226-.226,4.424a15.445,15.445,0,0,0,5.716,2.36l2.963-3.283,2.963,3.283a15.445,15.445,0,0,0,5.716-2.36l-.226-4.424,4.424.226a15.446,15.446,0,0,0,2.36-5.716l-3.283-2.963,3.283-2.963A15.438,15.438,0,0,0,252.367,89.816Z" transform="translate(-224.253 -83.258)" fill="none" stroke="#fff" stroke-miterlimit="10" stroke-width="0.5"/>
        <path id="Path_43566" data-name="Path 43566" d="M244.63,96.842a6.793,6.793,0,1,1-6.793-6.793A6.793,6.793,0,0,1,244.63,96.842Z" transform="translate(-222.6 -81.605)" fill="none" stroke="#fff" stroke-miterlimit="10" stroke-width="0.5"/>
      </g>
      <g id="Group_41773" data-name="Group 41773" transform="translate(408.241 306.493)">
        <path id="Path_43567" data-name="Path 43567" d="M377.728,326.8l-4.423.226.226-4.424a15.453,15.453,0,0,0-5.716-2.36l-2.964,3.283-2.963-3.283a15.438,15.438,0,0,0-5.715,2.36l.225,4.424-4.423-.226a15.436,15.436,0,0,0-2.36,5.716l3.281,2.963-3.281,2.963a15.445,15.445,0,0,0,2.36,5.716l4.423-.226-.225,4.424a15.439,15.439,0,0,0,5.715,2.36l2.963-3.283,2.964,3.283a15.453,15.453,0,0,0,5.716-2.36l-.226-4.424,4.423.226a15.445,15.445,0,0,0,2.36-5.716l-3.281-2.963,3.281-2.963A15.436,15.436,0,0,0,377.728,326.8Z" transform="translate(-349.615 -320.241)" fill="none" stroke="#fff" stroke-miterlimit="10" stroke-width="0.5"/>
        <path id="Path_43568" data-name="Path 43568" d="M369.992,333.825a6.793,6.793,0,1,1-6.794-6.793A6.793,6.793,0,0,1,369.992,333.825Z" transform="translate(-347.962 -318.588)" fill="none" stroke="#fff" stroke-miterlimit="10" stroke-width="0.5"/>
      </g>
      <path id="Path_43569" data-name="Path 43569" d="M59.081,296.4a10.724,10.724,0,0,0-1.638-3.965l-3.069.157.157-3.069a10.717,10.717,0,0,0-3.965-1.638l-2.055,2.278-2.057-2.278a10.717,10.717,0,0,0-3.965,1.638l.157,3.069-3.069-.157a10.724,10.724,0,0,0-1.638,3.965l2.278,2.057-2.278,2.055a10.722,10.722,0,0,0,1.638,3.967l3.069-.158-.157,3.07a10.693,10.693,0,0,0,3.965,1.636l2.057-2.277,2.055,2.277a10.693,10.693,0,0,0,3.965-1.636l-.157-3.07,3.069.158a10.722,10.722,0,0,0,1.638-3.967L56.8,298.461Zm-10.57,6.769a4.713,4.713,0,1,1,4.713-4.713A4.713,4.713,0,0,1,48.511,303.173Z" transform="translate(-17.242 -21.623)" fill="#fff"/>
      <path id="Path_43570" data-name="Path 43570" d="M417.941,90.062A10.717,10.717,0,0,0,416.3,86.1l-3.069.157.157-3.069a10.716,10.716,0,0,0-3.965-1.638l-2.055,2.278-2.057-2.278a10.724,10.724,0,0,0-3.965,1.638l.157,3.069-3.069-.157a10.715,10.715,0,0,0-1.638,3.965l2.278,2.057L396.8,94.174a10.714,10.714,0,0,0,1.638,3.965l3.069-.157-.157,3.069a10.724,10.724,0,0,0,3.965,1.638l2.057-2.277,2.055,2.277a10.716,10.716,0,0,0,3.965-1.638l-.157-3.069,3.069.157a10.717,10.717,0,0,0,1.638-3.965l-2.277-2.055Zm-10.57,6.769a4.713,4.713,0,1,1,4.713-4.713A4.713,4.713,0,0,1,407.371,96.831Z" transform="translate(70.112 -71.851)" fill="#fff"/>
    </g>
  </g>
</svg>
