<svg xmlns="http://www.w3.org/2000/svg" xmlns:xlink="http://www.w3.org/1999/xlink" width="657" height="599" viewBox="0 0 657 599">
  <defs>
    <linearGradient id="linear-gradient" x1="0.5" x2="0.5" y2="1" gradientUnits="objectBoundingBox">
      <stop offset="0" stop-color="#dd1928"/>
      <stop offset="1" stop-color="red" stop-opacity="0"/>
    </linearGradient>
    <filter id="Ellipse_443" x="0" y="303" width="157" height="157" filterUnits="userSpaceOnUse">
      <feOffset dy="7" input="SourceAlpha"/>
      <feGaussianBlur stdDeviation="12" result="blur"/>
      <feFlood flood-opacity="0.031"/>
      <feComposite operator="in" in2="blur"/>
      <feComposite in="SourceGraphic"/>
    </filter>
    <filter id="Ellipse_443-2" x="76" y="127" width="157" height="157" filterUnits="userSpaceOnUse">
      <feOffset dy="7" input="SourceAlpha"/>
      <feGaussianBlur stdDeviation="12" result="blur-2"/>
      <feFlood flood-opacity="0.031"/>
      <feComposite operator="in" in2="blur-2"/>
      <feComposite in="SourceGraphic"/>
    </filter>
    <filter id="Ellipse_443-3" x="215" y="8" width="157" height="157" filterUnits="userSpaceOnUse">
      <feOffset dy="7" input="SourceAlpha"/>
      <feGaussianBlur stdDeviation="12" result="blur-3"/>
      <feFlood flood-opacity="0.031"/>
      <feComposite operator="in" in2="blur-3"/>
      <feComposite in="SourceGraphic"/>
    </filter>
    <filter id="Ellipse_443-4" x="286" y="240" width="157" height="157" filterUnits="userSpaceOnUse">
      <feOffset dy="7" input="SourceAlpha"/>
      <feGaussianBlur stdDeviation="12" result="blur-4"/>
      <feFlood flood-opacity="0.031"/>
      <feComposite operator="in" in2="blur-4"/>
      <feComposite in="SourceGraphic"/>
    </filter>
    <filter id="Ellipse_443-5" x="500" y="30" width="157" height="157" filterUnits="userSpaceOnUse">
      <feOffset dy="7" input="SourceAlpha"/>
      <feGaussianBlur stdDeviation="12" result="blur-5"/>
      <feFlood flood-opacity="0.031"/>
      <feComposite operator="in" in2="blur-5"/>
      <feComposite in="SourceGraphic"/>
    </filter>
    <filter id="Ellipse_443-6" x="143" y="325" width="157" height="157" filterUnits="userSpaceOnUse">
      <feOffset dy="7" input="SourceAlpha"/>
      <feGaussianBlur stdDeviation="12" result="blur-6"/>
      <feFlood flood-opacity="0.031"/>
      <feComposite operator="in" in2="blur-6"/>
      <feComposite in="SourceGraphic"/>
    </filter>
    <filter id="Ellipse_443-7" x="429" y="362" width="157" height="157" filterUnits="userSpaceOnUse">
      <feOffset dy="7" input="SourceAlpha"/>
      <feGaussianBlur stdDeviation="12" result="blur-7"/>
      <feFlood flood-opacity="0.031"/>
      <feComposite operator="in" in2="blur-7"/>
      <feComposite in="SourceGraphic"/>
    </filter>
    <filter id="Ellipse_443-8" x="286" y="432" width="157" height="157" filterUnits="userSpaceOnUse">
      <feOffset dy="7" input="SourceAlpha"/>
      <feGaussianBlur stdDeviation="12" result="blur-8"/>
      <feFlood flood-opacity="0.031"/>
      <feComposite operator="in" in2="blur-8"/>
      <feComposite in="SourceGraphic"/>
    </filter>
    <clipPath id="clip-path">
      <rect id="Rectangle_628" data-name="Rectangle 628" width="38.561" height="37.605" transform="translate(0 1)" fill="#fff"/>
    </clipPath>
    <filter id="Ellipse_443-9" x="500" y="214" width="157" height="157" filterUnits="userSpaceOnUse">
      <feOffset dy="7" input="SourceAlpha"/>
      <feGaussianBlur stdDeviation="12" result="blur-9"/>
      <feFlood flood-opacity="0.031"/>
      <feComposite operator="in" in2="blur-9"/>
      <feComposite in="SourceGraphic"/>
    </filter>
    <clipPath id="clip-path-2">
      <rect id="Rectangle_629" data-name="Rectangle 629" width="27.637" height="41.447" transform="translate(17)" fill="#fff"/>
    </clipPath>
    <filter id="Ellipse_443-10" x="359" y="101" width="157" height="157" filterUnits="userSpaceOnUse">
      <feOffset dy="7" input="SourceAlpha"/>
      <feGaussianBlur stdDeviation="12" result="blur-10"/>
      <feFlood flood-opacity="0.031"/>
      <feComposite operator="in" in2="blur-10"/>
      <feComposite in="SourceGraphic"/>
    </filter>
  </defs>
  <g id="techno_webapp" transform="translate(-683 -3071)">
    <g id="Group_4340" data-name="Group 4340">
      <g id="Lines" transform="translate(603.62 3181.948)" opacity="0.52">
        <g id="Group_1000001643" data-name="Group 1000001643" transform="translate(115)">
          <rect id="Rectangle_3722" data-name="Rectangle 3722" height="424" transform="translate(0.38 0.052)" fill="url(#linear-gradient)"/>
          <rect id="Rectangle_3723" data-name="Rectangle 3723" height="424" transform="translate(77.38 0.052)" fill="url(#linear-gradient)"/>
          <rect id="Rectangle_3724" data-name="Rectangle 3724" height="424" transform="translate(146.38 0.052)" fill="url(#linear-gradient)"/>
          <rect id="Rectangle_3725" data-name="Rectangle 3725" width="1" height="599" transform="translate(42.38 -110.948)" fill="#dedede"/>
          <rect id="Rectangle_3725-2" data-name="Rectangle 3725" width="1" height="599" transform="translate(256.38 -110.948)" fill="#dedede"/>
          <rect id="Rectangle_3726" data-name="Rectangle 3726" width="1" height="599" transform="translate(114.38 -110.948)" fill="#dedede"/>
          <rect id="Rectangle_3726-2" data-name="Rectangle 3726" width="1" height="47" transform="translate(114.38 -110.948)" fill="#ff1919"/>
          <rect id="Rectangle_3726-3" data-name="Rectangle 3726" width="1" height="47" transform="translate(42.38 149.052)" fill="#ff1919"/>
          <rect id="Rectangle_3726-4" data-name="Rectangle 3726" width="1" height="599" transform="translate(326.38 -110.948)" fill="#dedede"/>
          <rect id="Rectangle_3726-5" data-name="Rectangle 3726" width="1" height="599" transform="translate(468.381 -110.948)" fill="#dedede"/>
          <rect id="Rectangle_3731" data-name="Rectangle 3731" width="1" height="599" transform="translate(185.381 -110.948)" fill="#dedede"/>
          <rect id="Rectangle_3731-2" data-name="Rectangle 3731" width="1" height="599" transform="translate(397.379 -110.948)" fill="#dedede"/>
          <rect id="Rectangle_3731-3" data-name="Rectangle 3731" width="1" height="599" transform="translate(542.38 -110.948)" fill="#dedede"/>
          <rect id="Rectangle_3732" data-name="Rectangle 3732" height="424" transform="translate(439.38 0.052)" fill="url(#linear-gradient)"/>
          <rect id="Rectangle_3733" data-name="Rectangle 3733" height="424" transform="translate(508.38 0.052)" fill="url(#linear-gradient)"/>
          <rect id="Rectangle_3734" data-name="Rectangle 3734" height="424" transform="translate(585.38 0.052)" fill="url(#linear-gradient)"/>
          <rect id="Rectangle_3726-6" data-name="Rectangle 3726" width="1" height="47" transform="translate(185.38 132.052)" fill="#ff1919"/>
          <rect id="Rectangle_3726-7" data-name="Rectangle 3726" width="1" height="47" transform="translate(326.38 26.052)" fill="#ff1919"/>
          <rect id="Rectangle_3726-8" data-name="Rectangle 3726" width="1" height="47" transform="translate(397.38 229.052)" fill="#ff1919"/>
          <rect id="Rectangle_3726-9" data-name="Rectangle 3726" width="1" height="47" transform="translate(467.38 424.052)" fill="#ff1919"/>
          <rect id="Rectangle_3726-10" data-name="Rectangle 3726" width="1" height="47" transform="translate(542.38 59.052)" fill="#ff1919"/>
          <rect id="Rectangle_3726-11" data-name="Rectangle 3726" width="1" height="47" transform="translate(256.38 333.052)" fill="#ff1919"/>
        </g>
      </g>
      <g id="Group_4333" data-name="Group 4333">
        <g transform="matrix(1, 0, 0, 1, 683, 3071)" filter="url(#Ellipse_443)">
          <circle id="Ellipse_443-11" data-name="Ellipse 443" cx="42.5" cy="42.5" r="42.5" transform="translate(36 332)" fill="#fff"/>
        </g>
        <g id="html-1" transform="translate(742 3424)">
          <path id="Path_14408" data-name="Path 14408" d="M3.209,39.218,0,0,38.323.079,34.93,39.218,19.306,43.742Z" fill="#e34f26"/>
          <path id="Path_14409" data-name="Path 14409" d="M62.468,48.3V12.085l15.782.053-2.814,32.4Z" transform="translate(-43.162 -8.35)" fill="#ef652a"/>
          <path id="Path_14410" data-name="Path 14410" d="M46.214,30.659l.447-4.787H22.383l1.341,14.677H40.479l-.657,6.26-5.366,1.446-5.445-1.578-.289-3.735H23.909l.658,7.628,9.89,2.762,9.969-2.762,1.341-14.887H28.17l-.5-5.024Z" transform="translate(-15.465 -17.876)" fill="#fff"/>
        </g>
      </g>
      <g id="Group_4339" data-name="Group 4339">
        <g id="Group_4255" data-name="Group 4255" transform="translate(75 165)">
          <g transform="matrix(1, 0, 0, 1, 608, 2906)" filter="url(#Ellipse_443-2)">
            <circle id="Ellipse_443-12" data-name="Ellipse 443" cx="42.5" cy="42.5" r="42.5" transform="translate(112 156)" fill="#fff"/>
          </g>
        </g>
        <g id="Group_4243" data-name="Group 4243" transform="translate(601.246 84.34)">
          <path id="Subtraction_13" data-name="Subtraction 13" d="M16.735,37.917h0L2.782,33.995,0,0,33.221.068,30.28,33.995,16.736,37.917ZM10.1,3.674a.707.707,0,0,0,.129.42.837.837,0,0,0,.352.278,1.259,1.259,0,0,0,.5.1,1.1,1.1,0,0,0,.514-.114.83.83,0,0,0,.332-.3.77.77,0,0,0,.113-.4.678.678,0,0,0-.122-.422.756.756,0,0,0-.3-.234,3.56,3.56,0,0,0-.45-.152,3.036,3.036,0,0,1-.328-.1.549.549,0,0,1-.2-.131.29.29,0,0,1-.078-.21.349.349,0,0,1,.124-.288.5.5,0,0,1,.319-.1.536.536,0,0,1,.348.108.367.367,0,0,1,.144.26H12a.751.751,0,0,0-.286-.554,1.048,1.048,0,0,0-.661-.2,1.23,1.23,0,0,0-.5.1A.779.779,0,0,0,10.226,2a.741.741,0,0,0-.121.42.668.668,0,0,0,.121.416.734.734,0,0,0,.29.23,3.394,3.394,0,0,0,.442.146,3.164,3.164,0,0,1,.338.1.552.552,0,0,1,.2.136.321.321,0,0,1,.082.229.372.372,0,0,1-.131.293.546.546,0,0,1-.368.114.508.508,0,0,1-.355-.116.438.438,0,0,1-.141-.3Zm-2.416,0a.707.707,0,0,0,.128.42.837.837,0,0,0,.352.278,1.259,1.259,0,0,0,.5.1,1.091,1.091,0,0,0,.514-.114.818.818,0,0,0,.332-.3.762.762,0,0,0,.114-.4A.673.673,0,0,0,9.5,3.232.759.759,0,0,0,9.208,3a3.561,3.561,0,0,0-.45-.152,3.131,3.131,0,0,1-.329-.1.551.551,0,0,1-.2-.131.29.29,0,0,1-.078-.21.349.349,0,0,1,.124-.288.5.5,0,0,1,.32-.1.531.531,0,0,1,.347.108.363.363,0,0,1,.144.26h.5A.747.747,0,0,0,9.3,1.833a1.05,1.05,0,0,0-.662-.2,1.227,1.227,0,0,0-.5.1A.78.78,0,0,0,7.809,2a.741.741,0,0,0-.12.42.669.669,0,0,0,.12.416.738.738,0,0,0,.29.23,3.37,3.37,0,0,0,.443.146,3.065,3.065,0,0,1,.338.1.551.551,0,0,1,.2.136.321.321,0,0,1,.082.229.37.37,0,0,1-.132.293.546.546,0,0,1-.368.114.5.5,0,0,1-.354-.116.444.444,0,0,1-.142-.3ZM5.926,1.626a1.442,1.442,0,0,0-.714.182,1.361,1.361,0,0,0-.517.506,1.433,1.433,0,0,0-.19.733,1.432,1.432,0,0,0,.19.732,1.366,1.366,0,0,0,.514.506,1.442,1.442,0,0,0,.716.182,1.471,1.471,0,0,0,.79-.216,1.234,1.234,0,0,0,.5-.616H6.67a.739.739,0,0,1-.3.328.893.893,0,0,1-.444.108.958.958,0,0,1-.492-.126A.877.877,0,0,1,5.1,3.586a1.143,1.143,0,0,1-.122-.54,1.138,1.138,0,0,1,.122-.54.865.865,0,0,1,.338-.356.974.974,0,0,1,.492-.124.893.893,0,0,1,.444.108.74.74,0,0,1,.3.329h.547a1.24,1.24,0,0,0-.5-.618,1.464,1.464,0,0,0-.795-.219Z" transform="translate(219.645 3168.088)" fill="#1b73ba"/>
          <g id="css-3" transform="translate(225.619 3171.325)">
            <path id="Path_14406" data-name="Path 14406" d="M62.468,43.481v-31.4l13.68.046-2.44,28.09Z" transform="translate(-51.706 -12.085)" fill="#1c88c7"/>
            <path id="Path_14407" data-name="Path 14407" d="M43.343,27.064H22.3l.57,4.1h9.987L23.03,35.382l.57,3.967H38.076l-.525,5.54-4.9.958L28.2,44.711l-.342-3.147H23.78l.547,6.544,8.756,2.44,8.391-2.668,1.072-12.791h-8.87l9.667-4.013Z" transform="translate(-22.298 -23.051)" fill="#fff"/>
          </g>
        </g>
      </g>
      <g id="Group_4338" data-name="Group 4338">
        <g transform="matrix(1, 0, 0, 1, 683, 3071)" filter="url(#Ellipse_443-3)">
          <circle id="Ellipse_443-13" data-name="Ellipse 443" cx="42.5" cy="42.5" r="42.5" transform="translate(251 37)" fill="#fff"/>
        </g>
        <g id="logo-javascript" transform="translate(955.534 3129.534)">
          <path id="Path_14411" data-name="Path 14411" d="M0,0H41.933V41.933H0Z" fill="#f0db4f"/>
          <path id="Path_14412" data-name="Path 14412" d="M310.59,493.251c-.381-2.374-1.928-4.366-6.512-6.225-1.592-.732-3.367-1.256-3.9-2.463a2.687,2.687,0,0,1-.094-1.523c.341-1.38,1.988-1.81,3.293-1.414a3.623,3.623,0,0,1,2.116,1.963c2.245-1.454,2.24-1.444,3.808-2.443a9.708,9.708,0,0,0-1.256-1.681c-1.35-1.508-3.189-2.284-6.132-2.225-.509.064-1.023.134-1.533.2a6.954,6.954,0,0,0-3.689,2.176,6.81,6.81,0,0,0,1.236,9.7c2.952,2.215,7.289,2.72,7.843,4.792.539,2.537-1.864,3.358-4.253,3.066a5.573,5.573,0,0,1-3.8-2.888c-1.948,1.127-1.948,1.127-3.951,2.279a8.792,8.792,0,0,0,1.77,2.408c3.768,3.822,13.2,3.635,14.889-2.151a7.143,7.143,0,0,0,.165-3.571Zm-19.483-15.7h-4.866c0,4.2-.02,8.376-.02,12.58,0,2.675.138,5.128-.3,5.879-.712,1.478-2.556,1.3-3.4,1.009a4.176,4.176,0,0,1-1.795-1.864,2.5,2.5,0,0,0-.277-.445q-1.98,1.209-3.956,2.423a7.818,7.818,0,0,0,2.868,3.283,9.446,9.446,0,0,0,6.952.856,6.143,6.143,0,0,0,3.926-3.076c1.108-2.042.87-4.515.86-7.249.033-4.465.008-8.925.008-13.4Z" transform="translate(-272.635 -462.393)" fill="#323330"/>
        </g>
      </g>
      <g id="Group_4334" data-name="Group 4334">
        <g id="Group_4258" data-name="Group 4258" transform="translate(285 278)">
          <g transform="matrix(1, 0, 0, 1, 398, 2793)" filter="url(#Ellipse_443-4)">
            <circle id="Ellipse_443-14" data-name="Ellipse 443" cx="42.5" cy="42.5" r="42.5" transform="translate(322 269)" fill="#fff"/>
          </g>
        </g>
        <g id="angular-3" transform="translate(1016.001 3366)">
          <g id="Group_4236" data-name="Group 4236" transform="translate(4.999 24.021)">
            <g id="Group_4228" data-name="Group 4228" transform="translate(8.475)">
              <path id="Path_14401" data-name="Path 14401" d="M150.6,40.362v-7.83h1.007l4.785,6.3v-6.3h.957v7.83h-1.007L151.557,34v6.364Zm14.542-.311a5.811,5.811,0,0,1-2.038.36q-4.251,0-4.251-4.077,0-3.859,4.1-3.865a7.269,7.269,0,0,1,2.188.323v.87a5.689,5.689,0,0,0-2.076-.385c-2.138,0-3.207,1.019-3.207,3.033,0,2.175,1.057,3.256,3.157,3.256a5.473,5.473,0,0,0,1.119-.137V36.807h1.007Zm1.616-2.71v-4.81h1.007v4.81a2.25,2.25,0,0,0,4.5,0v-4.81h1.007v4.81c0,2.051-1.081,3.082-3.257,3.082s-3.257-1.03-3.257-3.081Zm9.322-4.81v7.01h4.1v.82h-5.108v-7.83Zm5.556,7.83H180.58l3.89-8.862,3.89,8.862h-1.119L186.235,37.9H183.65l.273-.82H185.9l-1.467-3.542Zm7.806,0v-7.83h3.344c1.492,0,2.237.621,2.237,1.877,0,1.019-.733,1.777-2.188,2.262l2.685,3.691h-1.33l-2.49-3.516v-.659c1.492-.236,2.25-.808,2.25-1.728,0-.721-.41-1.081-1.243-1.081H190.47v6.985h-1.032Z" transform="translate(-150.6 -31.5)" fill="#b52e31" fill-rule="evenodd"/>
            </g>
            <path id="Path_14401-2" data-name="Path 14401" d="M212.467,40.362H211.41L215.3,31.5l3.89,8.862h-1.119L217.066,37.9h-2.585l.273-.82h1.976l-1.467-3.542Z" transform="translate(-211.41 -31.5)" fill="#b52e31" fill-rule="evenodd"/>
          </g>
          <g id="Group_4234" data-name="Group 4234" transform="translate(22.253)">
            <path id="Path_14402" data-name="Path 14402" d="M0,3.314,9.294,0l9.539,3.256L17.291,15.547l-8,4.424L1.426,15.6Z" fill="#e23237" fill-rule="evenodd"/>
            <path id="Path_14403" data-name="Path 14403" d="M74.039,3.256,64.5,0V19.971l8-4.424Z" transform="translate(-55.206)" fill="#b52e31" fill-rule="evenodd"/>
            <path id="Path_14404" data-name="Path 14404" d="M30.192,16.2,24.4,29.081l2.161-.043,1.167-2.911H32.9l1.268,2.939,2.06.043Zm.014,4.135,1.96,4.092H28.492Z" transform="translate(-20.884 -13.866)" fill="#fff" fill-rule="evenodd"/>
          </g>
        </g>
      </g>
      <g id="Group_4337" data-name="Group 4337">
        <g id="Group_4261" data-name="Group 4261" transform="translate(499 68)">
          <g transform="matrix(1, 0, 0, 1, 184, 3003)" filter="url(#Ellipse_443-5)">
            <circle id="Ellipse_443-15" data-name="Ellipse 443" cx="42.5" cy="42.5" r="42.5" transform="translate(536 59)" fill="#fff"/>
          </g>
        </g>
        <g id="Group_4242" data-name="Group 4242" transform="translate(620.293 -17.011)">
          <g id="react-2" transform="translate(630.88 3168.088)">
            <path id="Path_14413" data-name="Path 14413" d="M197.355,87.644c0-1.435-1.8-2.794-4.551-3.637.636-2.807.353-5.041-.892-5.756a1.935,1.935,0,0,0-.989-.247v.984a1.022,1.022,0,0,1,.5.115c.6.344.861,1.655.658,3.341-.049.415-.128.852-.225,1.3a21.392,21.392,0,0,0-2.8-.481,21.53,21.53,0,0,0-1.836-2.207c1.439-1.337,2.79-2.07,3.708-2.07V78c-1.214,0-2.8.865-4.41,2.366-1.607-1.492-3.2-2.348-4.41-2.348V79c.914,0,2.269.728,3.708,2.057a20.85,20.85,0,0,0-1.823,2.2,20.612,20.612,0,0,0-2.807.486c-.1-.441-.177-.87-.23-1.28-.207-1.686.049-3,.644-3.346a.982.982,0,0,1,.508-.115v-.984a1.968,1.968,0,0,0-1,.247c-1.24.715-1.518,2.944-.878,5.742-2.745.847-4.533,2.2-4.533,3.633s1.8,2.794,4.551,3.637c-.636,2.807-.353,5.041.892,5.756a1.94,1.94,0,0,0,.993.247c1.214,0,2.8-.865,4.409-2.366,1.607,1.492,3.2,2.348,4.41,2.348a1.968,1.968,0,0,0,1-.247c1.24-.715,1.518-2.944.878-5.742,2.737-.843,4.524-2.2,4.524-3.633ZM191.608,84.7c-.163.569-.366,1.156-.6,1.743-.181-.353-.371-.706-.578-1.059s-.419-.7-.636-1.033C190.425,84.444,191.03,84.559,191.608,84.7Zm-2.022,4.7q-.516.9-1.064,1.686c-.658.057-1.324.088-2,.088s-1.333-.031-1.986-.084q-.55-.788-1.068-1.677-.5-.867-.918-1.757c.274-.591.583-1.183.914-1.761q.516-.9,1.064-1.686c.658-.057,1.324-.088,2-.088s1.333.031,1.986.084q.55.788,1.068,1.677.5.867.918,1.757c-.278.592-.583,1.184-.914,1.761Zm1.426-.574c.238.591.441,1.183.609,1.757-.578.141-1.187.26-1.819.353.216-.34.433-.689.636-1.046s.393-.71.574-1.063Zm-4.476,4.71a18.2,18.2,0,0,1-1.227-1.412c.4.018.8.031,1.214.031s.825-.009,1.227-.031a17.221,17.221,0,0,1-1.214,1.413Zm-3.284-2.6c-.627-.093-1.231-.207-1.81-.349.163-.569.366-1.156.6-1.743.181.353.371.706.578,1.059s.416.7.632,1.034Zm3.262-9.185a18.2,18.2,0,0,1,1.227,1.412c-.4-.018-.8-.031-1.214-.031s-.825.009-1.227.031a17.226,17.226,0,0,1,1.214-1.411Zm-3.266,2.6c-.216.34-.433.689-.636,1.046s-.393.706-.574,1.059c-.238-.591-.441-1.183-.609-1.757.579-.136,1.188-.255,1.819-.347Zm-3.995,5.526c-1.563-.667-2.573-1.54-2.573-2.233s1.011-1.571,2.573-2.233c.38-.163.794-.309,1.223-.446a21.2,21.2,0,0,0,.993,2.688,20.909,20.909,0,0,0-.98,2.675c-.437-.137-.852-.287-1.236-.45Zm2.375,6.307c-.6-.344-.861-1.655-.658-3.341.049-.415.128-.852.225-1.3a21.391,21.391,0,0,0,2.8.481,21.528,21.528,0,0,0,1.836,2.207c-1.439,1.337-2.79,2.07-3.708,2.07a1.053,1.053,0,0,1-.5-.116Zm10.47-3.363c.207,1.686-.049,3-.644,3.346a.982.982,0,0,1-.508.115c-.914,0-2.269-.728-3.708-2.057a20.841,20.841,0,0,0,1.823-2.2,20.615,20.615,0,0,0,2.807-.486,12.378,12.378,0,0,1,.232,1.283Zm1.7-2.944c-.38.163-.795.309-1.223.446a21.2,21.2,0,0,0-.993-2.688,20.9,20.9,0,0,0,.98-2.675c.437.137.852.287,1.24.45,1.563.667,2.573,1.54,2.573,2.233s-1.015,1.573-2.575,2.235Z" transform="translate(-175.7 -78)" fill="#61dafb"/>
            <circle id="Ellipse_442" data-name="Ellipse 442" cx="2.017" cy="2.017" r="2.017" transform="translate(8.806 7.627)" fill="#61dafb"/>
          </g>
          <path id="Path_14416" data-name="Path 14416" d="M8.3-7.521,5.553-12.3H4.058v4.776H2.1V-19.46H6.223a5.127,5.127,0,0,1,2.328.481,3.337,3.337,0,0,1,1.426,1.288,3.505,3.505,0,0,1,.472,1.8,3.575,3.575,0,0,1-.679,2.122,3.444,3.444,0,0,1-2.087,1.3l2.955,4.948ZM4.058-13.86H6.223a2.271,2.271,0,0,0,1.658-.55,1.979,1.979,0,0,0,.558-1.477,1.91,1.91,0,0,0-.55-1.452,2.336,2.336,0,0,0-1.666-.524H4.058Zm17.574,1.374a6.123,6.123,0,0,1-.069.962H14.331A2.627,2.627,0,0,0,15.173-9.7a2.657,2.657,0,0,0,1.855.687,2.292,2.292,0,0,0,2.233-1.323h2.113A4.264,4.264,0,0,1,19.82-8.2a4.562,4.562,0,0,1-2.792.833,4.834,4.834,0,0,1-2.431-.61,4.339,4.339,0,0,1-1.684-1.718,5.241,5.241,0,0,1-.61-2.568,5.363,5.363,0,0,1,.6-2.567,4.168,4.168,0,0,1,1.666-1.709,4.959,4.959,0,0,1,2.465-.6,4.821,4.821,0,0,1,2.388.584,4.127,4.127,0,0,1,1.632,1.641,4.941,4.941,0,0,1,.582,2.429ZM19.588-13.1a2.229,2.229,0,0,0-.773-1.735,2.764,2.764,0,0,0-1.873-.653,2.515,2.515,0,0,0-1.735.644,2.692,2.692,0,0,0-.859,1.744Zm3.312.8a5.238,5.238,0,0,1,.593-2.525,4.344,4.344,0,0,1,1.615-1.709,4.326,4.326,0,0,1,2.259-.61,4.132,4.132,0,0,1,1.95.438,3.957,3.957,0,0,1,1.331,1.091v-1.374h1.976v9.466H30.651V-8.929a3.889,3.889,0,0,1-1.357,1.117,4.183,4.183,0,0,1-1.958.447A4.162,4.162,0,0,1,25.1-7.993a4.447,4.447,0,0,1-1.6-1.752,5.39,5.39,0,0,1-.6-2.555Zm7.748.034a3.428,3.428,0,0,0-.4-1.7,2.834,2.834,0,0,0-1.057-1.1,2.764,2.764,0,0,0-1.409-.378,2.814,2.814,0,0,0-1.409.369,2.785,2.785,0,0,0-1.057,1.082,3.379,3.379,0,0,0-.4,1.692,3.526,3.526,0,0,0,.4,1.718,2.848,2.848,0,0,0,1.065,1.125,2.732,2.732,0,0,0,1.4.387,2.764,2.764,0,0,0,1.409-.378,2.82,2.82,0,0,0,1.057-1.108,3.477,3.477,0,0,0,.4-1.705Zm3.9,0a5.363,5.363,0,0,1,.593-2.568,4.216,4.216,0,0,1,1.641-1.709,4.746,4.746,0,0,1,2.405-.6,4.719,4.719,0,0,1,2.843.816A4.017,4.017,0,0,1,43.553-14H41.44a2.235,2.235,0,0,0-.825-1.1,2.435,2.435,0,0,0-1.426-.4,2.371,2.371,0,0,0-1.915.85,3.6,3.6,0,0,0-.713,2.379,3.633,3.633,0,0,0,.713,2.388,2.361,2.361,0,0,0,1.915.859,2.174,2.174,0,0,0,2.25-1.5h2.113a4.23,4.23,0,0,1-1.546,2.293,4.563,4.563,0,0,1-2.817.85,4.693,4.693,0,0,1-2.4-.61A4.274,4.274,0,0,1,35.143-9.7a5.363,5.363,0,0,1-.592-2.558ZM47.8-15.389v5.24a1.006,1.006,0,0,0,.249.764,1.238,1.238,0,0,0,.85.232h1.2v1.632H48.552a2.98,2.98,0,0,1-2.027-.618,2.549,2.549,0,0,1-.7-2.01v-5.24H44.7v-1.6h1.117V-19.34H47.8v2.354h2.3v1.6Z" transform="translate(615.607 3213.876)" fill="#61dafb" opacity="0.8"/>
        </g>
      </g>
      <g id="Group_4263" data-name="Group 4263" transform="translate(-1 288)">
        <g id="Group_4256" data-name="Group 4256" transform="translate(143 75)">
          <g transform="matrix(1, 0, 0, 1, 541, 2708)" filter="url(#Ellipse_443-6)">
            <circle id="Ellipse_443-16" data-name="Ellipse 443" cx="42.5" cy="42.5" r="42.5" transform="translate(179 354)" fill="#fff"/>
          </g>
        </g>
        <g id="adobe-photoshop-2" transform="translate(886 3160.249)">
          <path id="Path_3455" data-name="Path 3455" d="M6.947,0H32.284a6.941,6.941,0,0,1,6.947,6.947V31.3a6.941,6.941,0,0,1-6.947,6.947H6.947A6.941,6.941,0,0,1,0,31.3V6.947A6.941,6.941,0,0,1,6.947,0Z" fill="#001e36"/>
          <g id="Group_256" data-name="Group 256" transform="translate(8.827 9.726)">
            <path id="Path_3456" data-name="Path 3456" d="M54,76.6V59.778c0-.114.049-.18.163-.18.278,0,.539,0,.915-.016.392-.016.8-.016,1.242-.033s.915-.016,1.422-.033,1-.016,1.488-.016a9.612,9.612,0,0,1,3.367.507,5.837,5.837,0,0,1,2.19,1.34,5.2,5.2,0,0,1,1.193,1.864,6.257,6.257,0,0,1,.376,2.125,5.844,5.844,0,0,1-.981,3.482,5.6,5.6,0,0,1-2.632,1.994,10.594,10.594,0,0,1-3.678.556c-.392,0-.654,0-.817-.016s-.392-.016-.7-.016v5.247a.2.2,0,0,1-.18.229H54.2C54.065,76.811,54,76.746,54,76.6Zm3.564-13.846v5.492c.229.016.441.033.638.033h.866a6.106,6.106,0,0,0,1.88-.294,2.811,2.811,0,0,0,1.34-.866,2.526,2.526,0,0,0,.507-1.684,2.69,2.69,0,0,0-.376-1.455,2.37,2.37,0,0,0-1.144-.932,4.8,4.8,0,0,0-1.929-.327c-.425,0-.8,0-1.112.016a3.743,3.743,0,0,0-.67.016Zm18.995,4.5A5.786,5.786,0,0,0,74.99,66.7a8.618,8.618,0,0,0-1.831-.213,3.292,3.292,0,0,0-.981.114.839.839,0,0,0-.507.327.866.866,0,0,0-.131.441.727.727,0,0,0,.163.425,1.845,1.845,0,0,0,.556.441c.376.2.768.376,1.161.539a11.84,11.84,0,0,1,2.517,1.193,3.8,3.8,0,0,1,1.291,1.357A3.529,3.529,0,0,1,77.6,73a3.8,3.8,0,0,1-.638,2.174,4.1,4.1,0,0,1-1.831,1.455,7.49,7.49,0,0,1-2.959.523,11.26,11.26,0,0,1-2.223-.213,6.594,6.594,0,0,1-1.667-.523.321.321,0,0,1-.18-.311V73.264a.177.177,0,0,1,.065-.147.124.124,0,0,1,.147.016,7,7,0,0,0,2.027.8,7.61,7.61,0,0,0,1.929.245,3.12,3.12,0,0,0,1.357-.229.759.759,0,0,0,.441-.687.866.866,0,0,0-.392-.654,6.932,6.932,0,0,0-1.6-.768,10,10,0,0,1-2.321-1.177,4.233,4.233,0,0,1-1.242-1.389,3.507,3.507,0,0,1-.376-1.667A3.845,3.845,0,0,1,68.7,65.63a4.029,4.029,0,0,1,1.716-1.5,6.339,6.339,0,0,1,2.893-.572,14.081,14.081,0,0,1,2.024.147,5.752,5.752,0,0,1,1.409.376.287.287,0,0,1,.163.147.82.82,0,0,1,.033.2v2.664a.2.2,0,0,1-.082.163.435.435,0,0,1-.294,0Z" transform="translate(-54 -59.5)" fill="#31a8ff"/>
          </g>
        </g>
      </g>
      <g id="Group_4264" data-name="Group 4264" transform="translate(-5 306)">
        <g id="Group_4260" data-name="Group 4260" transform="translate(433 94)">
          <g transform="matrix(1, 0, 0, 1, 255, 2671)" filter="url(#Ellipse_443-7)">
            <circle id="Ellipse_443-17" data-name="Ellipse 443" cx="42.5" cy="42.5" r="42.5" transform="translate(465 391)" fill="#fff"/>
          </g>
        </g>
        <g id="adobe-illustrator-cc-icon" transform="translate(1178 3181)">
          <path id="Path_3457" data-name="Path 3457" d="M6.228,0H28.94a6.222,6.222,0,0,1,6.228,6.228V28.061a6.222,6.222,0,0,1-6.228,6.228H6.228A6.222,6.222,0,0,1,0,28.061V6.228A6.222,6.222,0,0,1,6.228,0Z" fill="#300"/>
          <g id="Group_257" data-name="Group 257" transform="translate(7.223 7.605)">
            <path id="Path_3458" data-name="Path 3458" d="M59.065,64.809h-5.45L52.5,68.253a.256.256,0,0,1-.278.2H49.468c-.161,0-.205-.088-.161-.264l4.718-13.583c.044-.147.088-.308.147-.484a5.119,5.119,0,0,0,.088-.952.145.145,0,0,1,.117-.161h3.8c.117,0,.176.044.19.117l5.348,15.093c.044.161,0,.234-.147.234H60.5a.221.221,0,0,1-.234-.161Zm-4.6-2.975h3.722c-.088-.308-.205-.674-.337-1.055s-.264-.821-.4-1.26-.278-.894-.425-1.348-.278-.879-.4-1.3-.22-.791-.322-1.143h-.029a17.992,17.992,0,0,1-.5,1.89c-.22.7-.44,1.436-.674,2.169-.2.744-.416,1.432-.636,2.048Zm12.514-6.257a1.813,1.813,0,0,1-1.3-.513,1.9,1.9,0,0,1-.5-1.348,1.724,1.724,0,0,1,.528-1.3,1.877,1.877,0,0,1,1.3-.513,1.755,1.755,0,0,1,1.333.513,2.014,2.014,0,0,1-.029,2.652,1.723,1.723,0,0,1-1.333.51ZM65.337,68.3V57.014c0-.147.059-.205.19-.205h2.9c.132,0,.19.073.19.205V68.3c0,.161-.059.234-.19.234h-2.87a.205.205,0,0,1-.22-.234Z" transform="translate(-49.29 -51.9)" fill="#ff9a00"/>
          </g>
        </g>
      </g>
      <g id="Group_4335" data-name="Group 4335">
        <g id="Group_4265" data-name="Group 4265" transform="translate(-148 376)">
          <g id="Group_4260-2" data-name="Group 4260" transform="translate(433 94)">
            <g transform="matrix(1, 0, 0, 1, 398, 2601)" filter="url(#Ellipse_443-8)">
              <circle id="Ellipse_443-18" data-name="Ellipse 443" cx="42.5" cy="42.5" r="42.5" transform="translate(322 461)" fill="#fff"/>
            </g>
          </g>
        </g>
        <g id="Xd" transform="translate(1028.001 3555)" clip-path="url(#clip-path)">
          <path id="Path_14417" data-name="Path 14417" d="M4.168,10.961A5.784,5.784,0,0,1,9.952,5.177h23.78a5.784,5.784,0,0,1,5.784,5.784V33.776a5.784,5.784,0,0,1-5.784,5.784H9.952a5.784,5.784,0,0,1-5.784-5.784Z" transform="translate(-2.561 -2.566)" fill="#2e001e"/>
          <path id="Path_14418" data-name="Path 14418" d="M5.784,1.01A5.784,5.784,0,0,0,0,6.794V32.823a5.784,5.784,0,0,0,5.784,5.784H32.777a5.784,5.784,0,0,0,5.784-5.784V6.794A5.784,5.784,0,0,0,32.777,1.01ZM1.607,8.4A5.784,5.784,0,0,1,7.39,2.617H31.17A5.784,5.784,0,0,1,36.955,8.4V31.217A5.784,5.784,0,0,1,31.171,37H7.391a5.784,5.784,0,0,1-5.784-5.784Z" transform="translate(0 -0.006)" fill="#ff26be"/>
          <path id="Path_14419" data-name="Path 14419" d="M39.578,31.012a2.206,2.206,0,0,0-.932-.161c-2.024,0-3.374,1.559-3.374,4.145,0,2.956,1.382,4.145,3.181,4.145a3.031,3.031,0,0,0,1.109-.177V31.012Zm-7.2,4.113c0-3.744,2.41-6.668,6.363-6.668a7.128,7.128,0,0,1,.836.032V24.312a.161.161,0,0,1,.161-.161h2.587c.129,0,.161.048.161.129V38.965a11.44,11.44,0,0,0,.08,1.575c0,.112,0,.129-.1.177a9.571,9.571,0,0,1-4.113.932c-3.487,0-5.977-2.153-5.977-6.523Zm-5.479-2.6,4.5,8.724c.08.129.032.257-.1.257H28.5a.315.315,0,0,1-.337-.209q-1.542-3.181-3.149-6.6h-.032c-.964,2.153-2.024,4.5-3.053,6.62a.309.309,0,0,1-.289.177H18.98c-.161,0-.177-.129-.1-.225l4.4-8.467-4.258-8.419a.142.142,0,0,1,.112-.241H21.9c.161,0,.241.032.289.177,1.012,2.137,2.041,4.242,3,6.4h.032c.932-2.121,1.96-4.258,2.94-6.363.08-.129.129-.209.289-.209h2.587c.129,0,.177.1.1.241L26.9,32.522Z" transform="translate(-11.573 -14.214)" fill="#ffd9f2"/>
        </g>
      </g>
      <g id="Group_4336" data-name="Group 4336">
        <g id="Group_4267" data-name="Group 4267" transform="translate(-1 343)">
          <g id="Group_4261-2" data-name="Group 4261" transform="translate(500 -91)">
            <g transform="matrix(1, 0, 0, 1, 184, 2819)" filter="url(#Ellipse_443-9)">
              <circle id="Ellipse_443-19" data-name="Ellipse 443" cx="42.5" cy="42.5" r="42.5" transform="translate(536 243)" fill="#fff"/>
            </g>
          </g>
        </g>
        <g id="figma" transform="translate(1230.999 3335.776)" clip-path="url(#clip-path-2)">
          <path id="Path_14420" data-name="Path 14420" d="M23.916,80.482a6.91,6.91,0,0,0,6.908-6.908V66.667H23.916a6.908,6.908,0,1,0,0,13.816Z" transform="translate(-0.005 -39.035)" fill="#0acf83"/>
          <path id="Path_14421" data-name="Path 14421" d="M17.008,40.241a6.91,6.91,0,0,1,6.908-6.908h6.908V47.149H23.916a6.91,6.91,0,0,1-6.908-6.908Z" transform="translate(-0.005 -19.518)" fill="#a259ff"/>
          <path id="Path_14422" data-name="Path 14422" d="M17.008,6.908A6.91,6.91,0,0,1,23.916,0h6.908V13.816H23.916a6.91,6.91,0,0,1-6.908-6.908Z" transform="translate(-0.005)" fill="#f24e1e"/>
          <path id="Path_14423" data-name="Path 14423" d="M50.34,0h6.908a6.908,6.908,0,1,1,0,13.816H50.34Z" transform="translate(-19.521)" fill="#ff7262"/>
          <path id="Path_14424" data-name="Path 14424" d="M64.156,40.241a6.908,6.908,0,1,1-6.908-6.908,6.908,6.908,0,0,1,6.908,6.908Z" transform="translate(-19.521 -19.518)" fill="#1abcfe"/>
        </g>
      </g>
    </g>
    <g id="Group_4341" data-name="Group 4341">
      <g transform="matrix(1, 0, 0, 1, 683, 3071)" filter="url(#Ellipse_443-10)">
        <circle id="Ellipse_443-20" data-name="Ellipse 443" cx="42.5" cy="42.5" r="42.5" transform="translate(395 130)" fill="#fff"/>
      </g>
      <g id="Group_4262" data-name="Group 4262" transform="translate(-16262.999 -10052.342)">
        <path id="Subtraction_14" data-name="Subtraction 14" d="M43.077,43.077H0V0H43.077V43.076ZM33.427,9.963v5.692h.8V13.261a1.78,1.78,0,0,0,.56.445,1.683,1.683,0,0,0,.784.178,1.734,1.734,0,0,0,.921-.256,1.782,1.782,0,0,0,.654-.714,2.228,2.228,0,0,0,.238-1.039,2.165,2.165,0,0,0-.238-1.03A1.748,1.748,0,0,0,35.569,9.9a1.692,1.692,0,0,0-.79.183,1.611,1.611,0,0,0-.554.447V9.963Zm-21.539,0v5.692h.8V13.261a1.78,1.78,0,0,0,.56.445,1.683,1.683,0,0,0,.784.178,1.738,1.738,0,0,0,.921-.256,1.787,1.787,0,0,0,.654-.714,2.238,2.238,0,0,0,.239-1.039,2.175,2.175,0,0,0-.239-1.03A1.748,1.748,0,0,0,14.03,9.9a1.7,1.7,0,0,0-.791.183,1.616,1.616,0,0,0-.553.447V9.963Zm-4.529,0,1.519,3.794-.784,1.876H8.92l2.366-5.67h-.825L9.333,12.9,8.249,9.963ZM26.315,9.9a1.942,1.942,0,0,0-.98.246,1.717,1.717,0,0,0-.668.7,2.384,2.384,0,0,0,0,2.093,1.745,1.745,0,0,0,.668.7,1.925,1.925,0,0,0,.98.248,1.866,1.866,0,0,0,1.148-.347,1.738,1.738,0,0,0,.63-.934h-.861a.889.889,0,0,1-.917.608.964.964,0,0,1-.78-.35,1.487,1.487,0,0,1-.291-.973,1.474,1.474,0,0,1,.291-.969.969.969,0,0,1,.78-.347,1,1,0,0,1,.581.161.914.914,0,0,1,.336.448h.861a1.645,1.645,0,0,0-.62-.949A1.925,1.925,0,0,0,26.315,9.9Zm-5.572,2.737a1.116,1.116,0,0,0,.224.634,1.444,1.444,0,0,0,.571.448,2.124,2.124,0,0,0,1.6.018,1.216,1.216,0,0,0,.515-.407,1,1,0,0,0,.182-.588.9.9,0,0,0-.2-.6,1.289,1.289,0,0,0-.466-.339,5.125,5.125,0,0,0-.689-.228c-.2-.059-.364-.109-.476-.15a.8.8,0,0,1-.273-.165.343.343,0,0,1-.112-.259.37.37,0,0,1,.167-.315.837.837,0,0,1,.483-.119.789.789,0,0,1,.511.154.572.572,0,0,1,.21.413h.8a1.2,1.2,0,0,0-.431-.906A1.615,1.615,0,0,0,22.29,9.9a1.952,1.952,0,0,0-.78.148,1.22,1.22,0,0,0-.522.4.952.952,0,0,0-.182.563.9.9,0,0,0,.2.609,1.249,1.249,0,0,0,.472.343,6.246,6.246,0,0,0,.707.23,3.884,3.884,0,0,1,.655.231.344.344,0,0,1,.206.322.393.393,0,0,1-.185.332.909.909,0,0,1-.522.13.858.858,0,0,1-.535-.165.561.561,0,0,1-.234-.41ZM18.293,9.9a2.025,2.025,0,0,0-1,.246,1.7,1.7,0,0,0-.68.7,2.2,2.2,0,0,0-.241,1.047,2.144,2.144,0,0,0,.248,1.047,1.777,1.777,0,0,0,.686.7,1.98,1.98,0,0,0,.991.248,1.871,1.871,0,0,0,1.138-.339,1.754,1.754,0,0,0,.634-.872H19.2a.937.937,0,0,1-.91.539,1.085,1.085,0,0,1-.756-.28,1.074,1.074,0,0,1-.343-.742h2.947a2.462,2.462,0,0,0,.028-.392,2.02,2.02,0,0,0-.238-.99,1.686,1.686,0,0,0-.665-.669A1.965,1.965,0,0,0,18.293,9.9Zm19.551.063v.652H38.3V12.75a1.043,1.043,0,0,0,.287.819,1.216,1.216,0,0,0,.825.252h.63v-.665h-.49a.506.506,0,0,1-.346-.1.412.412,0,0,1-.1-.311V10.615h.938V9.963H39.1V9h-.8v.958Zm-6.265,0V13.82h.8V9.963Zm-2.688,0V13.82h.8V11.79a1.144,1.144,0,0,1,.241-.825.975.975,0,0,1,.711-.238h.2V9.9h-.006a1.368,1.368,0,0,0-.683.164,1.264,1.264,0,0,0-.465.459v-.56ZM3.614,8.955v.652h1.3V13.82h.8V9.607h1.3V8.955ZM31.985,8.43a.49.49,0,0,0-.364.147.512.512,0,0,0,.364.876.516.516,0,0,0,.353-.876.488.488,0,0,0-.353-.147Zm3.409,4.76a1.136,1.136,0,0,1-1-.606,1.42,1.42,0,0,1-.165-.7,1.4,1.4,0,0,1,.165-.693,1.142,1.142,0,0,1,1-.6,1.169,1.169,0,0,1,.578.151,1.129,1.129,0,0,1,.434.441,1.381,1.381,0,0,1,.165.689,1.441,1.441,0,0,1-.165.7,1.173,1.173,0,0,1-.434.459A1.13,1.13,0,0,1,35.394,13.19Zm-21.539,0a1.136,1.136,0,0,1-1-.606,1.42,1.42,0,0,1-.165-.7,1.4,1.4,0,0,1,.165-.693,1.15,1.15,0,0,1,.434-.448,1.135,1.135,0,0,1,.571-.154,1.163,1.163,0,0,1,.577.151,1.126,1.126,0,0,1,.435.441,1.39,1.39,0,0,1,.164.689,1.45,1.45,0,0,1-.164.7,1.169,1.169,0,0,1-.435.459,1.124,1.124,0,0,1-.581.161Zm5.481-1.645H17.2a1.1,1.1,0,0,1,.349-.71,1.029,1.029,0,0,1,.707-.263,1.131,1.131,0,0,1,.763.266.911.911,0,0,1,.315.705Z" transform="translate(17362 13273.521)" fill="#007acc"/>
        <g id="typescript" transform="translate(17377.361 13296.209)">
          <path id="Path_14415" data-name="Path 14415" d="M87.7,183.587v1.362h4.346v12.368H95.13V184.949h4.346v-1.337a10.413,10.413,0,0,0-.033-1.379c0-.025-2.649-.033-5.867-.033l-5.85.025V183.6Zm19.53-1.4a4.046,4.046,0,0,1,2.089,1.2,5.259,5.259,0,0,1,.8,1.07c0,.05-1.446,1.028-2.323,1.571-.033.025-.167-.117-.3-.334a1.911,1.911,0,0,0-1.571-.936c-1-.067-1.671.46-1.671,1.337a1.321,1.321,0,0,0,.15.635c.226.46.643.735,1.939,1.3,2.39,1.028,3.426,1.7,4.053,2.674a4.869,4.869,0,0,1,.393,4.07,4.461,4.461,0,0,1-3.7,2.649,10.424,10.424,0,0,1-2.549-.025,6.309,6.309,0,0,1-3.4-1.78,5.973,5.973,0,0,1-.869-1.287l.318-.2,1.254-.727.944-.552.217.293a4.548,4.548,0,0,0,1.254,1.22,3.107,3.107,0,0,0,3.259-.167,1.252,1.252,0,0,0,.443-1,1.29,1.29,0,0,0-.251-.852c-.267-.368-.8-.669-2.307-1.337a8.389,8.389,0,0,1-3.151-1.922,4.747,4.747,0,0,1-.919-1.671,6.4,6.4,0,0,1-.05-2.148,4.071,4.071,0,0,1,3.426-3.176,8.1,8.1,0,0,1,2.54.084l-.017.017Z" transform="translate(-87.7 -182.027)" fill="#fff"/>
        </g>
      </g>
    </g>
  </g>
</svg>
