<svg xmlns="http://www.w3.org/2000/svg" xmlns:xlink="http://www.w3.org/1999/xlink" width="614" height="614" viewBox="0 0 614 614">
  <defs>
    <filter id="Ellipse_489" x="0" y="0" width="614" height="614" filterUnits="userSpaceOnUse">
      <feOffset dy="3" input="SourceAlpha"/>
      <feGaussianBlur stdDeviation="7" result="blur"/>
      <feFlood flood-color="#ffcfcf" flood-opacity="0.012"/>
      <feComposite operator="in" in2="blur"/>
      <feComposite in="SourceGraphic"/>
    </filter>
  </defs>
  <g id="vue-js-2" transform="translate(-4742 7628)">
    <g id="ai_2" data-name="ai 2" transform="translate(2740 -326)">
      <g id="ionic_2" data-name="ionic 2" transform="translate(-306 -1365)">
        <g id="yii_2" data-name="yii 2" transform="translate(-1813 -893)">
          <g id="Kotlin_2" data-name="Kotlin 2" transform="translate(1485 -625)">
            <g id="magento_2" data-name="magento 2" transform="translate(65 -1543)">
              <g id="django_2" data-name="django 2" transform="translate(-945 -1191)">
                <g id="symfony_2" data-name="symfony 2" transform="translate(-545.879 -694.879)">
                  <g id="ruby-on-rails_2" data-name="ruby-on-rails 2" transform="translate(4083 -972)">
                    <g id="django_2-2" data-name="django 2">
                      <g id="codeigniter_2" data-name="codeigniter 2">
                        <g id="react-native_2" data-name="react-native 2">
                          <g id="laraval_2" data-name="laraval 2">
                            <g transform="matrix(1, 0, 0, 1, -21.12, -18.12)" filter="url(#Ellipse_489)">
                              <circle id="Ellipse_489-2" data-name="Ellipse 489" cx="286" cy="286" r="286" transform="translate(21 18)" fill="#f8f7f7"/>
                            </g>
                            <circle id="Ellipse_488" data-name="Ellipse 488" cx="235" cy="235" r="235" transform="translate(50.879 50.879)" fill="#f3f3f3"/>
                            <circle id="Ellipse_487" data-name="Ellipse 487" cx="182" cy="182" r="182" transform="translate(103.879 103.879)" fill="#eee"/>
                            <path id="Path_19249" data-name="Path 19249" d="M120.818,0A120.818,120.818,0,1,1,0,120.818,120.818,120.818,0,0,1,120.818,0Z" transform="translate(165.061 165.061)" fill="#e9e9e9"/>
                          </g>
                        </g>
                      </g>
                    </g>
                  </g>
                </g>
              </g>
            </g>
          </g>
        </g>
      </g>
    </g>
    <g id="vue-js-1" transform="translate(4897.646 -7447.078)">
      <path id="Path_47" data-name="Path 47" d="M186.31,0,151.354,60.541,116.4,0H0L151.354,262.157,302.707,0Z" fill="#4dba87"/>
      <path id="Path_48" data-name="Path 48" d="M625.769,0,590.812,60.541,555.856,0H500l90.812,157.287L681.625,0Z" transform="translate(-439.458)" fill="#435466"/>
    </g>
  </g>
</svg>
