<svg xmlns="http://www.w3.org/2000/svg" xmlns:xlink="http://www.w3.org/1999/xlink" width="614" height="614" viewBox="0 0 614 614">
  <defs>
    <filter id="Ellipse_489" x="0" y="0" width="614" height="614" filterUnits="userSpaceOnUse">
      <feOffset dy="3" input="SourceAlpha"/>
      <feGaussianBlur stdDeviation="7" result="blur"/>
      <feFlood flood-color="#ffcfcf" flood-opacity="0.012"/>
      <feComposite operator="in" in2="blur"/>
      <feComposite in="SourceGraphic"/>
    </filter>
  </defs>
  <g id="ionic_2" data-name="ionic 2" transform="translate(-2308 5937)">
    <g id="yii_2" data-name="yii 2" transform="translate(-1813 -893)">
      <g id="Kotlin_2" data-name="Kotlin 2" transform="translate(1485 -625)">
        <g id="magento_2" data-name="magento 2" transform="translate(65 -1543)">
          <g id="django_2" data-name="django 2" transform="translate(-945 -1191)">
            <g id="symfony_2" data-name="symfony 2" transform="translate(-545.879 -694.879)">
              <g id="ruby-on-rails_2" data-name="ruby-on-rails 2" transform="translate(4083 -972)">
                <g id="django_2-2" data-name="django 2">
                  <g id="codeigniter_2" data-name="codeigniter 2">
                    <g id="react-native_2" data-name="react-native 2">
                      <g id="laraval_2" data-name="laraval 2">
                        <g transform="matrix(1, 0, 0, 1, -21.12, -18.12)" filter="url(#Ellipse_489)">
                          <circle id="Ellipse_489-2" data-name="Ellipse 489" cx="286" cy="286" r="286" transform="translate(21 18)" fill="#f8f7f7"/>
                        </g>
                        <circle id="Ellipse_488" data-name="Ellipse 488" cx="235" cy="235" r="235" transform="translate(50.879 50.879)" fill="#f3f3f3"/>
                        <circle id="Ellipse_487" data-name="Ellipse 487" cx="182" cy="182" r="182" transform="translate(103.879 103.879)" fill="#eee"/>
                        <path id="Path_19249" data-name="Path 19249" d="M120.818,0A120.818,120.818,0,1,1,0,120.818,120.818,120.818,0,0,1,120.818,0Z" transform="translate(165.061 165.061)" fill="#e9e9e9"/>
                      </g>
                    </g>
                  </g>
                </g>
              </g>
            </g>
          </g>
        </g>
      </g>
    </g>
    <g id="Group_17" data-name="Group 17" transform="translate(2898.124 -5792.076)">
      <path id="Path_23" data-name="Path 23" d="M-548.183,315.37c-.061,42.391-31.649,78.723-73.4,84.426a85.77,85.77,0,0,1-96.363-71.358c-7.353-46.171,24.716-90.406,70.888-97.646a84.647,84.647,0,0,1,51.993,8.091c1.872.931,2.166,1.511.414,2.89a22.135,22.135,0,0,0-6.767,8.662c-.834,1.943-1.663,2.148-3.511,1.3a69.46,69.46,0,0,0-30.7-6.141c-31.839.616-60.525,24.973-66.31,56.414-7.086,38.516,17.158,74.31,55.515,81.963,37.349,7.451,74.946-18.287,81.534-55.794a68.738,68.738,0,0,0-3.837-38.62c-.6-1.478-.621-2.239,1.091-2.873a23.073,23.073,0,0,0,9.51-6.529c1.409-1.622,1.921-1.283,2.693.491A83.28,83.28,0,0,1-548.183,315.37Z" transform="translate(353.214 -211)" fill="#3a81fe"/>
      <path id="Path_24" data-name="Path 24" d="M-617.214,370.823a39.133,39.133,0,0,1-38.777-38.936,38.91,38.91,0,0,1,39.3-38.867,39.054,39.054,0,0,1,38.658,39A39.093,39.093,0,0,1-617.214,370.823Z" transform="translate(336.821 -227.475)" fill="#3880fe"/>
      <path id="Path_25" data-name="Path 25" d="M-354.162,292.859c22.511.154,38.95,16.985,38.757,39.679-.186,21.735-17.2,38.381-39.089,38.244-22.191-.138-38.873-17.323-38.7-39.865C-393.026,309.513-375.8,292.711-354.162,292.859Zm21.7,39.176c.026-13.686-9.483-23.964-22.037-23.82-11.932.137-21.346,9.834-21.833,22.488-.409,10.65,5.362,20.033,14.411,23.428C-347.259,359.634-332.495,348.559-332.464,332.035Z" transform="translate(-9.177 -71.333)" fill="#3a81fe"/>
      <path id="Path_26" data-name="Path 26" d="M-277.175,331.69c0-11.467.049-22.934-.046-34.4-.017-2.066.537-2.751,2.639-2.64a94.791,94.791,0,0,0,9.982,0c2.032-.108,2.638.576,2.9,2.561.652,4.994.768,4.963,4.97,2.188,9.016-5.956,18.862-7.951,29.386-5.555,12.623,2.873,18.97,11.655,21.422,23.791a57.386,57.386,0,0,1,1.037,11.3c.018,12.392-.071,24.784.073,37.174.03,2.532-.732,3.127-3.118,3.015-4.152-.194-8.324-.164-12.48-.007-2.064.078-2.66-.509-2.646-2.614.094-13.408.046-26.817.038-40.226a19.53,19.53,0,0,0-4.8-13.25A13.735,13.735,0,0,0-241,308.23a25.241,25.241,0,0,0-12.893,6.006,14.419,14.419,0,0,0-5.262,11.676c.151,13.315,0,26.632.1,39.948.018,2.407-.417,3.453-3.127,3.277a103.722,103.722,0,0,0-11.922-.012c-2.407.121-3.16-.533-3.13-3.037C-277.1,354.624-277.175,343.156-277.175,331.69Z" transform="translate(-39.348 -71.332)" fill="#3a81fe"/>
      <path id="Path_27" data-name="Path 27" d="M-130.62,332.148c.027-20.665,14.981-37.023,34.935-39.1,14.493-1.511,25.293,4.846,34.392,15.292,1.484,1.705,1.159,2.663-.709,3.768a73.163,73.163,0,0,0-7.817,5.256c-2.08,1.626-3.3,1.608-5.1-.613-4.093-5.057-9.342-8.436-16.1-8.6-11.87-.282-20.65,7.507-22.685,19.965-2.066,12.656,5.553,24.449,17.534,26.9,9.047,1.849,16.112-1.736,21.66-8.65,1.409-1.756,2.315-2.069,4.16-.664a100.734,100.734,0,0,0,8.752,5.853c1.645,1,1.636,1.882.5,3.221-9.791,11.534-21.68,18.137-37.255,15.133-16.069-3.1-26.55-12.613-31.073-28.45A30.352,30.352,0,0,1-130.62,332.148Z" transform="translate(-77.491 -71.324)" fill="#3a81fe"/>
      <path id="Path_28" data-name="Path 28" d="M-147.64,332.67c0,11.269-.1,22.539.07,33.8.041,2.764-.8,3.421-3.41,3.283-4.237-.223-8.5-.119-12.743-.03-1.565.033-2.052-.462-2.049-2.04q.066-35.192,0-70.384c0-1.612.553-2.034,2.077-2.007,4.525.079,9.057.156,13.576-.027,2.264-.092,2.526.869,2.514,2.762C-147.675,309.578-147.64,321.124-147.64,332.67Z" transform="translate(-68.35 -71.959)" fill="#3a81fe"/>
      <path id="Path_29" data-name="Path 29" d="M-428.415,332.458c0-11.557.042-23.115-.041-34.671-.014-1.921.495-2.569,2.468-2.5,4.249.142,8.509.159,12.756-.005,2.161-.083,2.791.527,2.78,2.742-.092,17.843-.052,35.688-.052,53.533,0,5.27-.07,10.542.039,15.809.036,1.789-.44,2.429-2.306,2.375-4.342-.126-8.693-.145-13.034.006-2.056.072-2.678-.5-2.659-2.615C-428.361,355.573-428.415,344.015-428.415,332.458Z" transform="translate(0 -71.961)" fill="#3880fe"/>
      <path id="Path_30" data-name="Path 30" d="M-534.235,249.629a17.6,17.6,0,0,1,17.806,17.729,17.777,17.777,0,0,1-17.806,17.814,17.945,17.945,0,0,1-17.721-17.681A17.715,17.715,0,0,1-534.235,249.629Z" transform="translate(309.752 -216.185)" fill="#3a81fe"/>
    </g>
  </g>
</svg>
