<svg xmlns="http://www.w3.org/2000/svg" width="150" height="56" viewBox="0 0 150 56">
  <g id="Collabra-w" transform="translate(-828 -1092)">
    <rect id="Rectangle_2" data-name="Rectangle 2" width="150" height="56" rx="11" transform="translate(828 1092)" fill="#00a4e4"/>
    <g id="Collabra-w-2" data-name="Collabra-w" transform="translate(1342.153 660.832)">
      <path id="Path_4" data-name="Path 4" d="M-268.59,445.168c.055.07.145.067.217.1a.788.788,0,0,1,.472.721c0,.115,0,.23,0,.344q0,5.159,0,10.317a.646.646,0,0,0,.019.254c.071-.029.088-.1.119-.148a5.933,5.933,0,0,1,1.4-1.639,4.5,4.5,0,0,1,2.338-.95,5.737,5.737,0,0,1,4.207,1.163,6.113,6.113,0,0,1,1.6,1.913,9.437,9.437,0,0,1,1.109,3.366,26.97,26.97,0,0,1,.176,4.912,15.425,15.425,0,0,1-.627,3.972,7.551,7.551,0,0,1-1.282,2.558,5.022,5.022,0,0,1-3.218,1.875,6.788,6.788,0,0,1-2.83-.1,4.467,4.467,0,0,1-2.312-1.464,8.082,8.082,0,0,1-.645-.868c-.033-.051-.048-.125-.142-.147l-.206,1.105c-.036.193-.066.388-.109.58a.937.937,0,0,1-.958.793c-.3.011-.591.007-.886,0a.867.867,0,0,1-.9-.921q0-5.922,0-11.843,0-7.411,0-14.823c0-.016,0-.033,0-.049a.847.847,0,0,1,.655-.99c.014-.006.022-.023.033-.034Zm.6,19.017c-.016.179.026.382.026.588a14.677,14.677,0,0,0,.258,2.762,6.586,6.586,0,0,0,.777,2.19,3.171,3.171,0,0,0,1.6,1.4,3.66,3.66,0,0,0,1.812.2,2.824,2.824,0,0,0,1.64-.767,3.793,3.793,0,0,0,.929-1.517,11.831,11.831,0,0,0,.568-3.357c.036-.695.066-1.391.034-2.09-.03-.663-.035-1.327-.109-1.988a10.44,10.44,0,0,0-.657-2.739,3.433,3.433,0,0,0-.867-1.328,3.069,3.069,0,0,0-2.76-.672,2.922,2.922,0,0,0-1.777,1.153,6.227,6.227,0,0,0-1.086,2.428A17.4,17.4,0,0,0-267.986,464.185Z" transform="translate(-169.034)" fill="#fff"/>
      <path id="Path_5" data-name="Path 5" d="M-501.153,463.306a7.4,7.4,0,0,0,.089-.927,17.026,17.026,0,0,1,1.241-5.738,11.229,11.229,0,0,1,2.2-3.474,9.071,9.071,0,0,1,4.785-2.662,9.879,9.879,0,0,1,1.73-.212,13.887,13.887,0,0,1,2.985.214,6.079,6.079,0,0,1,2.1.808,1.194,1.194,0,0,1,.28.238.754.754,0,0,1,.112.87c-.211.417-.428.831-.642,1.247-.008.015-.014.03-.022.044a.73.73,0,0,1-1.1.37,9.288,9.288,0,0,0-1.854-.647,6.919,6.919,0,0,0-1.981-.094,6.746,6.746,0,0,0-1.91.435,5.679,5.679,0,0,0-2.721,2.292,9.333,9.333,0,0,0-1.2,3.156,19.261,19.261,0,0,0-.361,2.875,30.1,30.1,0,0,0-.025,3.1,16.4,16.4,0,0,0,.827,4.779,8.163,8.163,0,0,0,1.512,2.713,5.607,5.607,0,0,0,2.934,1.79,6.228,6.228,0,0,0,2.97.02,10.889,10.889,0,0,0,2.034-.651.635.635,0,0,1,.823.234,2.155,2.155,0,0,1,.2.368c.2.415.394.83.583,1.249a.678.678,0,0,1-.323.974,6.936,6.936,0,0,1-.923.406,9.083,9.083,0,0,1-2.08.576c-.365.049-.733.093-1.1.11a10.907,10.907,0,0,1-4.962-.768,8.355,8.355,0,0,1-2.983-2.206,12.106,12.106,0,0,1-2.518-5.064,20.454,20.454,0,0,1-.508-2.9c-.062-.571-.076-1.145-.139-1.715-.007-.063.011-.134-.049-.183Z" transform="translate(0 -3.757)" fill="#fff"/>
      <path id="Path_6" data-name="Path 6" d="M-352.173,445.168a.552.552,0,0,0,.085.045.827.827,0,0,1,.644.874c0,.082,0,.164,0,.246q0,11.595,0,23.189a5.5,5.5,0,0,0,.054,1.055,2.5,2.5,0,0,0,.1.355.6.6,0,0,0,.6.429,3.165,3.165,0,0,0,.756-.074c.08-.016.159-.041.239-.057a.632.632,0,0,1,.829.518,10.3,10.3,0,0,1,.251,1.152.65.65,0,0,1-.454.774,4.751,4.751,0,0,1-.879.23,5.824,5.824,0,0,1-2.272.033,2.738,2.738,0,0,1-2.253-2.2,3.831,3.831,0,0,1-.111-.876c0-.386,0-.771,0-1.157q0-11.755,0-23.509c0-.074,0-.148,0-.222a.747.747,0,0,1,.5-.719c.065-.029.148-.023.2-.089Z" transform="translate(-107.661)" fill="#fff"/>
      <path id="Path_7" data-name="Path 7" d="M-378.879,445.168c.006.006.011.014.018.016.59.218.718.4.718,1.041q0,11.668,0,23.336a4.654,4.654,0,0,0,.1,1.2.67.67,0,0,0,.787.6,3.332,3.332,0,0,0,.753-.106,1.284,1.284,0,0,1,.267-.04.583.583,0,0,1,.653.474c.077.285.136.574.2.861.023.1.043.209.059.314a.665.665,0,0,1-.484.821,5.4,5.4,0,0,1-.928.234,6.658,6.658,0,0,1-1.567.1,3.43,3.43,0,0,1-1.464-.377,2.764,2.764,0,0,1-1.425-1.99,5.8,5.8,0,0,1-.1-1.173c0-1.1,0-2.2,0-3.3q0-10.314,0-20.628c0-.172.006-.345,0-.517a.793.793,0,0,1,.542-.8c.05-.023.117-.014.15-.073Z" transform="translate(-88.047)" fill="#fff"/>
      <path id="Path_8" data-name="Path 8" d="M-321.517,495.941c-.161.22-.317.44-.479.653a5.45,5.45,0,0,1-2.926,1.931,7.49,7.49,0,0,1-2.5.294,4.878,4.878,0,0,1-3.282-1.376,4.775,4.775,0,0,1-1.277-2.32,8.2,8.2,0,0,1-.213-2.366,7.132,7.132,0,0,1,.285-1.841,5.167,5.167,0,0,1,3.92-3.664,11.3,11.3,0,0,1,2.162-.305c.925-.044,1.849-.117,2.773-.174.417-.026.835-.05,1.253-.063.138,0,.194-.061.2-.188,0-.254.022-.51,0-.763-.038-.458-.011-.919-.08-1.375a4.04,4.04,0,0,0-.266-1.045,2.3,2.3,0,0,0-1.588-1.29,7.519,7.519,0,0,0-2.464-.19,16.355,16.355,0,0,0-3,.63,1.493,1.493,0,0,1-.387.059.719.719,0,0,1-.723-.557c-.116-.393-.164-.8-.24-1.2a2.011,2.011,0,0,1-.05-.365.681.681,0,0,1,.559-.759c.324-.089.652-.16.98-.232a20.527,20.527,0,0,1,2.417-.437,12.906,12.906,0,0,1,2.334-.029,7.953,7.953,0,0,1,1.6.257,5.065,5.065,0,0,1,3.838,4.2,13.446,13.446,0,0,1,.2,2.1c.068,2.716.007,5.432.034,8.148,0,.23.01.46,0,.689a10.648,10.648,0,0,0,.277,2.511c.07.336.135.675.193,1.014a.564.564,0,0,1-.59.739q-.886.02-1.773,0a.763.763,0,0,1-.819-.7c-.111-.579-.194-1.163-.287-1.745A.444.444,0,0,0-321.517,495.941Zm-.087-5.249h0c0-.492,0-.985,0-1.477,0-.2,0-.205-.21-.2-.393.012-.787.024-1.18.044-.688.034-1.376.047-2.062.113a6.64,6.64,0,0,0-1.774.375,2.929,2.929,0,0,0-1.8,1.835,5.35,5.35,0,0,0-.13,2.982,2.244,2.244,0,0,0,1.8,1.785,3.937,3.937,0,0,0,1.782-.015,4.679,4.679,0,0,0,2.664-1.7,3.923,3.923,0,0,0,.913-2.638C-321.614,491.431-321.6,491.061-321.6,490.692Z" transform="translate(-124.107 -24.798)" fill="#fff"/>
      <path id="Path_9" data-name="Path 9" d="M-107.945,495.94c-.163.222-.319.441-.482.654a5.47,5.47,0,0,1-2.951,1.934,7.389,7.389,0,0,1-2.529.284,4.734,4.734,0,0,1-3.806-2.081,5.421,5.421,0,0,1-.845-2.364,9.214,9.214,0,0,1-.045-2.036,5.742,5.742,0,0,1,1.634-3.726,5.28,5.28,0,0,1,2.529-1.352,11.03,11.03,0,0,1,2.137-.309c.941-.045,1.881-.118,2.822-.176.409-.025.819-.043,1.228-.064.192-.01.2-.011.2-.195,0-.583,0-1.166-.023-1.747a4.418,4.418,0,0,0-.207-1.183,2.243,2.243,0,0,0-1.434-1.452,5.452,5.452,0,0,0-1.664-.291,10.028,10.028,0,0,0-3.321.455c-.306.089-.616.171-.929.233a.752.752,0,0,1-.923-.566,14.115,14.115,0,0,1-.269-1.449.707.707,0,0,1,.624-.876c.861-.2,1.723-.409,2.6-.547a12.718,12.718,0,0,1,3.089-.123,7.5,7.5,0,0,1,1.9.354,5.05,5.05,0,0,1,3.505,4.1,14.939,14.939,0,0,1,.205,2.718c0,.771,0,1.543,0,2.314,0,1.05-.005,2.1,0,3.149.007,1.124.017,2.248.039,3.372a10.568,10.568,0,0,0,.263,1.871c.069.345.138.691.2,1.038a.564.564,0,0,1-.591.738q-.886.018-1.772,0a.761.761,0,0,1-.818-.7c-.109-.571-.192-1.147-.285-1.721A.585.585,0,0,0-107.945,495.94Zm-.11-5.113h0c0-.541,0-1.083,0-1.624,0-.191-.006-.2-.195-.191-.377.011-.753.025-1.13.044-.7.035-1.409.049-2.111.115a6.611,6.611,0,0,0-1.727.358,2.946,2.946,0,0,0-1.847,1.881,5.376,5.376,0,0,0-.124,2.936,2.247,2.247,0,0,0,1.785,1.8,3.863,3.863,0,0,0,1.781-.007,4.7,4.7,0,0,0,2.942-2.068,3.526,3.526,0,0,0,.629-2.158C-108.071,491.549-108.055,491.188-108.055,490.827Z" transform="translate(-280.995 -24.795)" fill="#fff"/>
      <path id="Path_10" data-name="Path 10" d="M-203.453,489.678H-208.4c-.319,0-.324.007-.295.311a16.789,16.789,0,0,0,.236,1.827,7.863,7.863,0,0,0,.634,1.882,3.817,3.817,0,0,0,2.66,2.115,6.405,6.405,0,0,0,1.142.164,11.31,11.31,0,0,0,4.05-.532,3.653,3.653,0,0,1,.549-.133.664.664,0,0,1,.667.272.433.433,0,0,1,.055.081,6.641,6.641,0,0,1,.517,1.456.673.673,0,0,1-.4.727,4.553,4.553,0,0,1-.746.318,10,10,0,0,1-2.921.622c-.583.033-1.165.05-1.746.027a9,9,0,0,1-3.66-.855,6.938,6.938,0,0,1-2.776-2.477,9.375,9.375,0,0,1-1.272-3.153,15.333,15.333,0,0,1-.316-2.36q-.061-.948-.027-1.894a13.111,13.111,0,0,1,.926-4.627,7.839,7.839,0,0,1,1.974-2.879,6.255,6.255,0,0,1,3.239-1.547,7.683,7.683,0,0,1,3.429.235,5.741,5.741,0,0,1,3.346,2.626,9.852,9.852,0,0,1,1.259,3.42,16.6,16.6,0,0,1,.26,2.442c.013.344.033.688.032,1.033a.93.93,0,0,1-.327.715.651.651,0,0,1-.421.178c-.09,0-.18.006-.271.006h-4.85Zm-1.374-2.578h3.593c.057,0,.115,0,.172,0,.1,0,.157-.032.146-.142,0-.041,0-.082-.006-.123a10.523,10.523,0,0,0-.208-1.681,5.463,5.463,0,0,0-.972-2.315,2.991,2.991,0,0,0-2.706-1.313,3.178,3.178,0,0,0-2.081.882,5.791,5.791,0,0,0-1.423,2.467,11.141,11.141,0,0,0-.384,2.049c-.019.154-.006.166.152.173.049,0,.1,0,.148,0Z" transform="translate(-212.368 -24.799)" fill="#fff"/>
      <path id="Path_11" data-name="Path 11" d="M-430.148,488.69a14.706,14.706,0,0,1-.45,4.062,8.9,8.9,0,0,1-1.762,3.538,6.869,6.869,0,0,1-3.953,2.372,7.63,7.63,0,0,1-3.817-.159,6.96,6.96,0,0,1-3.808-2.881,9.7,9.7,0,0,1-1.381-3.371,14.776,14.776,0,0,1-.31-2.336c-.03-.517-.044-1.033-.027-1.549a13.6,13.6,0,0,1,.877-4.637,7.973,7.973,0,0,1,1.861-2.839,6.751,6.751,0,0,1,3.768-1.876,7.783,7.783,0,0,1,3.36.192,6.971,6.971,0,0,1,3.762,2.667,9.31,9.31,0,0,1,1.477,3.328,14.109,14.109,0,0,1,.361,2.3C-430.153,487.965-430.156,488.423-430.148,488.69Zm-3.349.143a14.855,14.855,0,0,0-.252-3.02,6.864,6.864,0,0,0-.816-2.279,3.77,3.77,0,0,0-1.932-1.673,4.074,4.074,0,0,0-1.62-.23,3.567,3.567,0,0,0-2.468,1.063,5.329,5.329,0,0,0-1.287,2.374,14.19,14.19,0,0,0-.433,3.379c-.016.451.006.9.025,1.352a14.963,14.963,0,0,0,.211,2.052,7.261,7.261,0,0,0,.735,2.231,3.815,3.815,0,0,0,1.764,1.722,4.072,4.072,0,0,0,2.185.315,3.574,3.574,0,0,0,2.489-1.379,5.942,5.942,0,0,0,1.1-2.524A15.314,15.314,0,0,0-433.5,488.834Z" transform="translate(-40.763 -24.791)" fill="#fff"/>
      <path id="Path_12" data-name="Path 12" d="M-146.689,481.838a.877.877,0,0,0,.233-.311,6.408,6.408,0,0,1,1.2-1.548,3.948,3.948,0,0,1,1.789-.989,2.983,2.983,0,0,1,2.038.205,1.3,1.3,0,0,1,.4.319.785.785,0,0,1,.188.71c-.128.567-.263,1.134-.428,1.692a2.2,2.2,0,0,1-.148.364.491.491,0,0,1-.642.308c-.216-.046-.429-.107-.644-.161a5.205,5.205,0,0,0-.943-.162,2.113,2.113,0,0,0-1.79.811,4.974,4.974,0,0,0-1,2.117,6.607,6.607,0,0,0-.2,1.583c-.009,2.125-.008,4.251-.009,6.376q0,2.265,0,4.53a.861.861,0,0,1-.682.9.826.826,0,0,1-.194.024c-.492,0-.985,0-1.477,0a.883.883,0,0,1-.777-.44.841.841,0,0,1-.11-.471q0-2.191,0-4.382,0-6.549,0-13.1c0-.09,0-.18,0-.271a.814.814,0,0,1,.777-.829,10.008,10.008,0,0,1,1.107,0,.772.772,0,0,1,.741.615c.132.473.251.95.376,1.426Z" transform="translate(-258.054 -24.781)" fill="#fff"/>
      <path id="Path_13" data-name="Path 13" d="M-51.652,449.425a2.534,2.534,0,0,1-2.589,2.636,2.566,2.566,0,0,1-2.626-2.622,2.582,2.582,0,0,1,2.6-2.622A2.553,2.553,0,0,1-51.652,449.425Zm-2.6,2.189a2.134,2.134,0,0,0,2.184-2.156,2.145,2.145,0,0,0-2.191-2.2,2.152,2.152,0,0,0-2.174,2.172A2.148,2.148,0,0,0-54.249,451.614Z" transform="translate(-326.374 -1.211)" fill="#fff"/>
      <path id="Path_14" data-name="Path 14" d="M-49.884,453.082a5.034,5.034,0,0,1,.935,1.247c-.194,0-.344.006-.494,0-.09,0-.113-.084-.149-.147-.148-.255-.29-.513-.459-.756a.72.72,0,0,0-.656-.308c-.125,0-.178.044-.176.172,0,.27,0,.541,0,.812,0,.076.041.185-.057.218a.62.62,0,0,1-.34,0c-.031-.008-.042-.048-.043-.082s0-.082,0-.123q0-1.193,0-2.386c0-.229,0-.232.228-.23a9.534,9.534,0,0,1,1.252.037.767.767,0,0,1,.678.583.755.755,0,0,1-.4.827C-49.658,453-49.76,453.03-49.884,453.082Zm-.531-.351a1.426,1.426,0,0,0,.532-.059.363.363,0,0,0,.23-.458.371.371,0,0,0-.3-.291,3.736,3.736,0,0,0-.831-.035c-.072,0-.1.046-.1.112,0,.1,0,.2,0,.295C-50.884,452.733-50.883,452.733-50.416,452.731Z" transform="translate(-330.443 -4.65)" fill="#fff"/>
    </g>
  </g>
</svg>
