<svg xmlns="http://www.w3.org/2000/svg" width="150" height="56" viewBox="0 0 150 56">
  <g id="jio-w" transform="translate(-835 -1164)">
    <rect id="Rectangle_4" data-name="Rectangle 4" width="150" height="56" rx="11" transform="translate(835 1164)" fill="#182987"/>
    <g id="jio-w-2" data-name="jio-w" transform="translate(2037.052 1267.74)">
      <path id="Path_15" data-name="Path 15" d="M-1126.282-76.017c-.277,8.022-3.45,14.172-10.053,18.388a18.11,18.11,0,0,1-8.486,2.818,19.622,19.622,0,0,1-17.867-7.963,20.354,20.354,0,0,1-4.222-15.169,20.5,20.5,0,0,1,10.281-16.109,18.916,18.916,0,0,1,10.7-2.67,19.611,19.611,0,0,1,13.682,6.19,20.711,20.711,0,0,1,5.563,10.9C-1126.446-78.357-1126.392-77.052-1126.282-76.017Zm-16.949,1.754c.049.486.065.978.154,1.456a5.6,5.6,0,0,0,2.751,4.13,7.416,7.416,0,0,0,6.251.457,5.521,5.521,0,0,0,3.524-3.548,7.511,7.511,0,0,0,.226-4.068,5.706,5.706,0,0,0-1.309-2.74,6.513,6.513,0,0,0-6.44-1.976A5.99,5.99,0,0,0-1143.23-74.262Zm-7.394-3.7-.075,0c0-1.24.005-2.479,0-3.719a6.669,6.669,0,0,0-.08-1,1.724,1.724,0,0,0-1.6-1.569,7.217,7.217,0,0,0-1.466-.009,1.723,1.723,0,0,0-1.632,1.432,4.081,4.081,0,0,0-.093.908c-.007,2.449,0,4.9-.009,7.346a6.609,6.609,0,0,1-.112,1.184,1.57,1.57,0,0,1-1.372,1.341,3.3,3.3,0,0,1-3.2-1.174c-.209-.229-.359-.256-.61-.079a2.657,2.657,0,0,0-1.133,1.662,2.924,2.924,0,0,0,2.333,3.541,9.127,9.127,0,0,0,5.117.044,4.877,4.877,0,0,0,3.668-4.5C-1150.681-74.347-1150.7-76.161-1150.624-77.963Zm1.55,3.69h.018c0,1.469-.026,2.938.008,4.405A1.77,1.77,0,0,0-1147.2-68a9.8,9.8,0,0,0,1.009.012,1.722,1.722,0,0,0,1.664-1.437,3.46,3.46,0,0,0,.089-.68c.005-2.784.014-5.569,0-8.353a1.835,1.835,0,0,0-1.8-2.109,4.988,4.988,0,0,0-1.008,0,1.825,1.825,0,0,0-1.778,1.618,4.2,4.2,0,0,0-.041.732C-1149.077-76.9-1149.074-75.588-1149.074-74.272Zm2.361-12.034a2.261,2.261,0,0,0-2.343,1.326,2.252,2.252,0,0,0,2.006,3.184,2.354,2.354,0,0,0,2.51-1.124C-1143.635-84.573-1144.735-86.268-1146.714-86.306Z" fill="#fff"/>
      <path id="Path_16" data-name="Path 16" d="M-673.585,55.746V49.4c1.146,0,2.278-.083,3.391.025a2.2,2.2,0,0,1,1.877,1.675,4.4,4.4,0,0,1-.041,2.925,2.486,2.486,0,0,1-2.423,1.709C-671.7,55.776-672.615,55.746-673.585,55.746Zm1.356-1.17c.949-.026,1.931.244,2.527-.738a2.935,2.935,0,0,0-.145-2.794,2.39,2.39,0,0,0-2.381-.5Z" transform="translate(-447.612 -132.693)" fill="#fff"/>
      <path id="Path_17" data-name="Path 17" d="M-570.077,53.463h-.775L-571,52.91a6.207,6.207,0,0,1-1.317.663,2.754,2.754,0,0,1-3.044-1.438,3.759,3.759,0,0,1,.9-4.722,2.786,2.786,0,0,1,4.229,1.217,4.852,4.852,0,0,1,.1.487,10.466,10.466,0,0,1-1.057-.012.5.5,0,0,1-.3-.263,1.3,1.3,0,0,0-1.191-.79,1.415,1.415,0,0,0-1.427.724,3.03,3.03,0,0,0-.012,2.945,1.583,1.583,0,0,0,1.873.693,1.347,1.347,0,0,0,.971-1.379h-1.3v-.97h2.5Z" transform="translate(-536.294 -130.438)" fill="#fff"/>
      <path id="Path_18" data-name="Path 18" d="M-527.464,150.477v1.6h3.33v1.129h-4.639v-6.331a.878.878,0,0,1,.21-.053c1.346,0,2.693,0,4.039-.009.247,0,.348.079.363.339.045.79.051.794-.732.795-.734,0-1.469.01-2.2,0-.3-.006-.406.1-.4.4.025,1.261-.145,1.02.991,1.043a15.411,15.411,0,0,0,1.56-.008c.471-.038.514.191.515.568s-.056.558-.5.538C-525.751,150.451-526.577,150.477-527.464,150.477Z" transform="translate(-578.975 -221.186)" fill="#fff"/>
      <path id="Path_19" data-name="Path 19" d="M-420.391,55.138a1.3,1.3,0,0,1-.174.039c-1.149.06-1.162.064-1.519-1.03a.505.505,0,0,0-.591-.41c-.534.023-1.071-.015-1.6.021-.147.01-.285.186-.424.291-.02.015-.021.056-.031.085-.4,1.114-.4,1.114-1.682,1.023.2-.537.386-1.06.578-1.582.54-1.474,1.087-2.946,1.614-4.424a.5.5,0,0,1,.551-.4c.994.009.99-.006,1.327.93q.891,2.474,1.789,4.945C-420.5,54.787-420.448,54.958-420.391,55.138Zm-2.19-2.435-.816-2.451-.842,2.451Z" transform="translate(-671.747 -132.122)" fill="#fff"/>
      <path id="Path_20" data-name="Path 20" d="M-586.44,147.185h4.3v1.092h-2.979v1.535h2.538v1.083h-2.543v2.657h-1.317Z" transform="translate(-526.669 -221.521)" fill="#fff"/>
      <path id="Path_21" data-name="Path 21" d="M-472.247,55.246h-1.328V49.971c-.523,0-.992-.013-1.461,0-.3.012-.437-.072-.439-.406,0-.73-.021-.73.706-.73h4.344v1.132c-.421,0-.845.028-1.263-.008-.434-.037-.579.1-.57.55.029,1.406.01,2.812.01,4.218Z" transform="translate(-627.195 -132.208)" fill="#fff"/>
      <path id="Path_22" data-name="Path 22" d="M-352.738,55.645V49.28h1.316V54.5h3.028v1.146Z" transform="translate(-738.658 -132.608)" fill="#fff"/>
      <path id="Path_23" data-name="Path 23" d="M-673.609,153.575v-6.358h1.321v5.214h3.011v1.143Z" transform="translate(-447.598 -221.55)" fill="#fff"/>
      <path id="Path_24" data-name="Path 24" d="M-614.33,153.555H-615.6v-6.376h1.272Z" transform="translate(-500.239 -221.515)" fill="#fff"/>
      <path id="Path_25" data-name="Path 25" d="M-600.2,55.007h-1.274V48.66c.027-.017.05-.044.076-.046,1.2-.116,1.2-.116,1.2,1.08v5.312Z" transform="translate(-513.054 -131.959)" fill="#fff"/>
      <path id="Path_26" data-name="Path 26" d="M-498.752,48.471a.428.428,0,0,1,.1-.052c1.2-.143,1.2-.143,1.2,1.037V54.8h-1.3Z" transform="translate(-606.237 -131.768)" fill="#fff"/>
      <path id="Path_27" data-name="Path 27" d="M-864.142,120.677a2.607,2.607,0,0,1,1.517-2.637,2.413,2.413,0,0,1,2.764.475,2.9,2.9,0,0,1,.67,3.1,2.329,2.329,0,0,1-2.073,1.76,2.5,2.5,0,0,1-2.851-2.277C-864.137,120.931-864.137,120.762-864.142,120.677Z" transform="translate(-274.763 -194.843)" fill="#fff"/>
    </g>
  </g>
</svg>
