<svg xmlns="http://www.w3.org/2000/svg" width="70" height="70" viewBox="0 0 70 70">
  <g id="Inventory_Solution" data-name="Inventory Solution" transform="translate(-364 -252)">
    <g id="_3d-rotate" data-name="3d-rotate" transform="translate(364 252)">
      <path id="Vector" d="M17.157,13.66a2.024,2.024,0,0,1-1.077-.3L1.058,4.18A2.3,2.3,0,0,1,.293,1.12,2.061,2.061,0,0,1,3.212.31L17.157,8.86,31.017.37a2.091,2.091,0,0,1,2.919.81,2.312,2.312,0,0,1-.765,3.06L18.263,13.36A2.548,2.548,0,0,1,17.157,13.66Z" transform="translate(17.84 24.703)" fill="#292d32"/>
      <path id="Vector-2" data-name="Vector" d="M2.25,20.82A2.266,2.266,0,0,1,0,18.57V2.25A2.266,2.266,0,0,1,2.25,0,2.266,2.266,0,0,1,4.5,2.25V18.57A2.266,2.266,0,0,1,2.25,20.82Z" transform="translate(32.75 33.382)" fill="#292d32"/>
      <path id="Vector-3" data-name="Vector" d="M18.53,38.537a9.707,9.707,0,0,1-4.583-1.084L4.839,32.377A10.223,10.223,0,0,1,0,24.106V14.438A10.335,10.335,0,0,1,4.839,6.167l9.108-5.077a10.171,10.171,0,0,1,9.165,0l9.108,5.077a10.223,10.223,0,0,1,4.839,8.271v9.668a10.335,10.335,0,0,1-4.839,8.271l-9.108,5.077A9.707,9.707,0,0,1,18.53,38.537Zm0-34.224a5.243,5.243,0,0,0-2.5.542L6.917,9.932A5.967,5.967,0,0,0,4.27,14.438v9.668a5.919,5.919,0,0,0,2.647,4.506l9.108,5.077a5.919,5.919,0,0,0,5.01,0l9.108-5.077a5.966,5.966,0,0,0,2.647-4.506V14.438a5.919,5.919,0,0,0-2.647-4.506L21.035,4.856A5.243,5.243,0,0,0,18.53,4.314Z" transform="translate(16.471 15.712)" fill="#292d32"/>
      <path id="Vector-4" data-name="Vector" d="M2.239,25.53a2.257,2.257,0,0,1-1.95-1.14,2.292,2.292,0,0,1,.03-2.28l3.15-5.25a2.273,2.273,0,0,1,3.09-.78,2.246,2.246,0,0,1,.78,3.09l-.81,1.35A18.815,18.815,0,0,0,21.019,2.25a2.25,2.25,0,1,1,4.5,0A23.341,23.341,0,0,1,2.239,25.53Z" transform="translate(40.762 40.72)" fill="#dd1928"/>
      <path id="Vector-5" data-name="Vector" d="M2.25,25.5A2.266,2.266,0,0,1,0,23.25,23.289,23.289,0,0,1,23.25,0,2.257,2.257,0,0,1,25.2,1.14a2.292,2.292,0,0,1-.03,2.28L22.02,8.67a2.273,2.273,0,0,1-3.09.78,2.246,2.246,0,0,1-.78-3.09l.81-1.35A18.815,18.815,0,0,0,4.47,23.28,2.215,2.215,0,0,1,2.25,25.5Z" transform="translate(3.75 3.75)" fill="#dd1928"/>
      <path id="Vector-6" data-name="Vector" d="M0,0H70V70H0Z" fill="none" opacity="0"/>
    </g>
  </g>
</svg>
