<svg xmlns="http://www.w3.org/2000/svg" width="70" height="70" viewBox="0 0 70 70">
  <g id="Order_Managment" data-name="Order Managment" transform="translate(-300 -252)">
    <g id="_3d-square" data-name="3d-square" transform="translate(300 252)">
      <path id="Vector" d="M39.971,62.5H22.529C6.744,62.5,0,55.756,0,39.971V22.529C0,6.744,6.744,0,22.529,0H39.971C55.756,0,62.5,6.744,62.5,22.529V39.971C62.5,55.756,55.756,62.5,39.971,62.5ZM22.529,4.36C9.128,4.36,4.36,9.128,4.36,22.529V39.971c0,13.4,4.767,18.169,18.169,18.169H39.971c13.4,0,18.169-4.767,18.169-18.169V22.529c0-13.4-4.767-18.169-18.169-18.169Z" transform="translate(3.75 3.75)" fill="#dd1928"/>
      <path id="Vector-2" data-name="Vector" d="M17.155,13.66a2.023,2.023,0,0,1-1.077-.3L1.058,4.18A2.3,2.3,0,0,1,.293,1.12,2.041,2.041,0,0,1,3.184.31L17.127,8.86,30.985.37a2.053,2.053,0,0,1,2.891.81,2.349,2.349,0,0,1-.765,3.06L18.2,13.36A2.137,2.137,0,0,1,17.155,13.66Z" transform="translate(17.84 24.703)" fill="#292d32"/>
      <path id="Vector-3" data-name="Vector" d="M2.25,20.82A2.266,2.266,0,0,1,0,18.57V2.25A2.266,2.266,0,0,1,2.25,0,2.266,2.266,0,0,1,4.5,2.25V18.57A2.266,2.266,0,0,1,2.25,20.82Z" transform="translate(32.75 33.382)" fill="#292d32"/>
      <path id="Vector-4" data-name="Vector" d="M18.53,38.537a9.707,9.707,0,0,1-4.583-1.084L4.839,32.377A10.223,10.223,0,0,1,0,24.106V14.438A10.377,10.377,0,0,1,4.839,6.167l9.108-5.077a10.171,10.171,0,0,1,9.165,0l9.108,5.077a10.223,10.223,0,0,1,4.839,8.271v9.668a10.377,10.377,0,0,1-4.839,8.271l-9.108,5.077A9.381,9.381,0,0,1,18.53,38.537Zm0-34.224a5.243,5.243,0,0,0-2.5.542L6.917,9.932A5.967,5.967,0,0,0,4.27,14.438v9.668a5.919,5.919,0,0,0,2.647,4.506l9.108,5.077a5.919,5.919,0,0,0,5.01,0l9.108-5.077a5.966,5.966,0,0,0,2.647-4.506V14.438a5.919,5.919,0,0,0-2.647-4.506L21.035,4.856A5.243,5.243,0,0,0,18.53,4.314Z" transform="translate(16.471 15.712)" fill="#292d32"/>
      <path id="Vector-5" data-name="Vector" d="M0,0H70V70H0Z" fill="none" opacity="0"/>
    </g>
  </g>
</svg>
