<svg xmlns="http://www.w3.org/2000/svg" width="70" height="70" viewBox="0 0 70 70">
  <g id="Shipment_and_logistics" data-name="Shipment and logistics" transform="translate(-236 -188)">
    <g id="convert-3d-cube" transform="translate(236 188)">
      <path id="Vector" d="M2.263,25.771a2.263,2.263,0,0,1-1.94-3.426l3.184-5.306a2.277,2.277,0,1,1,3.911,2.335L6.6,20.738A19.015,19.015,0,0,0,21.242,2.274a2.274,2.274,0,1,1,4.548,0A23.583,23.583,0,0,1,2.263,25.771Z" transform="translate(40.451 40.439)" fill="#dd1928"/>
      <path id="Vector-2" data-name="Vector" d="M2.274,25.771A2.29,2.29,0,0,1,0,23.5,23.537,23.537,0,0,1,23.5,0a2.263,2.263,0,0,1,1.94,3.426L22.254,8.732A2.277,2.277,0,1,1,18.343,6.4l.819-1.364A19.015,19.015,0,0,0,4.518,23.5,2.245,2.245,0,0,1,2.274,25.771Z" transform="translate(3.79 3.79)" fill="#dd1928"/>
      <path id="Vector-3" data-name="Vector" d="M14.321,11.531a2.261,2.261,0,0,1-1.152-.3L1.132,4.255A2.279,2.279,0,0,1,.313,1.132,2.251,2.251,0,0,1,3.406.313L14.321,6.62,25.145.344a2.263,2.263,0,0,1,3.093.819,2.306,2.306,0,0,1-.819,3.123L15.443,11.2A2.11,2.11,0,0,1,14.321,11.531Z" transform="translate(36.517 10.701)" fill="#292d32"/>
      <path id="Vector-4" data-name="Vector" d="M2.274,16.918A2.29,2.29,0,0,1,0,14.644V2.274A2.29,2.29,0,0,1,2.274,0,2.29,2.29,0,0,1,4.548,2.274v12.37A2.271,2.271,0,0,1,2.274,16.918Z" transform="translate(49.25 17.261)" fill="#292d32"/>
      <path id="Vector-5" data-name="Vector" d="M15.372,31.8a8.142,8.142,0,0,1-3.941-.94L4.154,26.825A8.668,8.668,0,0,1,0,19.761v-7.7A8.678,8.678,0,0,1,4.184,4.965L11.461.932a8.8,8.8,0,0,1,7.883,0L26.62,4.965a8.668,8.668,0,0,1,4.154,7.064v7.7a8.626,8.626,0,0,1-4.154,7.064l-7.277,4.032A8.11,8.11,0,0,1,15.372,31.8ZM13.644,4.874,6.367,8.906A4.3,4.3,0,0,0,4.548,12v7.7a4.189,4.189,0,0,0,1.819,3.093l7.277,4.063a4.286,4.286,0,0,0,3.456,0l7.277-4.032A4.3,4.3,0,0,0,26.2,19.73v-7.7a4.189,4.189,0,0,0-1.819-3.092L17.1,4.9A4.169,4.169,0,0,0,13.644,4.874Z" transform="translate(35.466 3.828)" fill="#292d32"/>
      <path id="Vector-6" data-name="Vector" d="M14.321,11.531a2.261,2.261,0,0,1-1.152-.3L1.132,4.255A2.279,2.279,0,0,1,.313,1.132,2.251,2.251,0,0,1,3.406.313L14.321,6.62,25.145.344a2.263,2.263,0,0,1,3.093.819,2.306,2.306,0,0,1-.819,3.123L15.443,11.2A2.11,2.11,0,0,1,14.321,11.531Z" transform="translate(4.841 42.546)" fill="#292d32"/>
      <path id="Vector-7" data-name="Vector" d="M2.274,16.918A2.29,2.29,0,0,1,0,14.644V2.274A2.29,2.29,0,0,1,2.274,0,2.29,2.29,0,0,1,4.548,2.274v12.37A2.252,2.252,0,0,1,2.274,16.918Z" transform="translate(16.203 48.746)" fill="#292d32"/>
      <path id="Vector-8" data-name="Vector" d="M15.372,31.767a8.142,8.142,0,0,1-3.941-.94L4.154,26.794A8.668,8.668,0,0,1,0,19.73v-7.7A8.626,8.626,0,0,1,4.154,4.965L11.43.932a8.8,8.8,0,0,1,7.883,0L26.59,4.965a8.669,8.669,0,0,1,4.154,7.064v7.7a8.678,8.678,0,0,1-4.184,7.095l-7.277,4.032A8.184,8.184,0,0,1,15.372,31.767ZM13.644,4.843,6.367,8.876a4.3,4.3,0,0,0-1.819,3.092v7.7a4.189,4.189,0,0,0,1.819,3.093l7.277,4.032a4.286,4.286,0,0,0,3.456,0l7.277-4.032A4.3,4.3,0,0,0,26.2,19.669v-7.7a4.189,4.189,0,0,0-1.819-3.092L17.1,4.813A4.414,4.414,0,0,0,13.644,4.843Z" transform="translate(3.79 34.443)" fill="#292d32"/>
      <path id="Vector-9" data-name="Vector" d="M0,0H70V70H0Z" fill="none" opacity="0"/>
    </g>
  </g>
</svg>
