<svg xmlns="http://www.w3.org/2000/svg" width="42.904" height="42.904" viewBox="0 0 42.904 42.904">
  <g id="experience" transform="translate(-428 -252)">
    <g id="like-tag" transform="translate(428 252)">
      <path id="Vector" d="M9.3,20.1H5.756a4.074,4.074,0,0,1-2.717-.948L.286,17.02l1.645-2.127,2.878,2.235a1.741,1.741,0,0,0,.947.268H9.3a1.5,1.5,0,0,0,1.305-.93l2.252-6.883a.571.571,0,0,0,.018-.483.622.622,0,0,0-.5-.179H8.652a2.322,2.322,0,0,1-1.734-.786,2.381,2.381,0,0,1-.536-1.859l.465-2.986a.527.527,0,0,0-.3-.572.58.58,0,0,0-.5.125L2.235,8.511,0,7.01,3.808,1.343A3.161,3.161,0,0,1,9.493,3.774L9.117,6.223h3.254a3.225,3.225,0,0,1,2.7,1.323,3.171,3.171,0,0,1,.34,2.9L13.193,17.2A4.155,4.155,0,0,1,9.3,20.1Z" transform="translate(16.142 8.704)" fill="#292d32"/>
      <path id="Vector-2" data-name="Vector" d="M4.13,15.321H3.2A2.851,2.851,0,0,1,0,12.21v-9.1A2.851,2.851,0,0,1,3.2,0h.93a2.851,2.851,0,0,1,3.2,3.111v9.1A2.851,2.851,0,0,1,4.13,15.321Zm-1.394-2.7c.054,0,.2.018.465.018h.93a1.764,1.764,0,0,0,.5-.054c0-.036.018-.143.018-.375v-9.1a1.27,1.27,0,0,0-.036-.393c-.036,0-.179-.018-.483-.018H3.2a1.764,1.764,0,0,0-.5.054c0,.036-.018.143-.018.375v9.1a1.537,1.537,0,0,0,.036.411A.018.018,0,0,1,2.735,12.621Z" transform="translate(11.173 12.46)" fill="#292d32"/>
      <path id="Vector-3" data-name="Vector" d="M17.43,38.417a4.915,4.915,0,0,1-3.468-1.43L10.9,33.966A4.032,4.032,0,0,0,8.062,32.8H6.7A6.683,6.683,0,0,1,0,26.154V6.65A6.683,6.683,0,0,1,6.7,0H28.156a6.683,6.683,0,0,1,6.7,6.65v19.5a6.683,6.683,0,0,1-6.7,6.65H26.8a4,4,0,0,0-2.842,1.162L20.9,36.987A4.915,4.915,0,0,1,17.43,38.417ZM6.7,2.664A4.006,4.006,0,0,0,2.682,6.632v19.5A3.994,3.994,0,0,0,6.7,30.1H8.062A6.711,6.711,0,0,1,12.8,32.053l3.057,3.021a2.266,2.266,0,0,0,3.164,0l3.057-3.021A6.711,6.711,0,0,1,26.815,30.1h1.341a4.006,4.006,0,0,0,4.022-3.969V6.632a3.994,3.994,0,0,0-4.022-3.969Z" transform="translate(4.022 2.252)" fill="#dd1928"/>
      <path id="Vector-4" data-name="Vector" d="M0,0H42.9V42.9H0Z" fill="none" opacity="0"/>
    </g>
  </g>
</svg>
