<svg xmlns="http://www.w3.org/2000/svg" width="42.728" height="42.728" viewBox="0 0 42.728 42.728">
  <g id="Professionals" transform="translate(-556 -252)">
    <g id="tag-user" transform="translate(556 252)">
      <path id="Vector" d="M17.272,38.181a4.864,4.864,0,0,1-3.437-1.421l-3.029-3A3.99,3.99,0,0,0,7.989,32.6H6.643A6.631,6.631,0,0,1,0,26V6.606A6.631,6.631,0,0,1,6.643,0H27.9a6.631,6.631,0,0,1,6.643,6.606V25.981A6.631,6.631,0,0,1,27.9,32.587H26.554a4.067,4.067,0,0,0-2.817,1.154l-3.029,3A4.809,4.809,0,0,1,17.272,38.181ZM6.643,2.664A3.974,3.974,0,0,0,2.657,6.606V25.981a3.963,3.963,0,0,0,3.986,3.942H7.989a6.718,6.718,0,0,1,4.694,1.936l3.029,3a2.242,2.242,0,0,0,3.135,0l3.029-3a6.718,6.718,0,0,1,4.694-1.936H27.9a3.974,3.974,0,0,0,3.986-3.942V6.606A3.963,3.963,0,0,0,27.9,2.664Z" transform="translate(4.092 2.273)" fill="#dd1928"/>
      <path id="Vector-2" data-name="Vector" d="M5.038,9.821H4.729a4.92,4.92,0,1,1,.346,0ZM4.911,2.728A2.184,2.184,0,0,0,4.82,7.093c0-.018.109-.018.236,0a2.185,2.185,0,0,0-.146-4.365Z" transform="translate(16.453 7.607)" fill="#292d32"/>
      <path id="Vector-3" data-name="Vector" d="M8.185,11.358A10.554,10.554,0,0,1,2.419,9.74,4.959,4.959,0,0,1,0,5.684,4.945,4.945,0,0,1,2.419,1.61a11.1,11.1,0,0,1,11.513,0,4.984,4.984,0,0,1,2.419,4.056A4.969,4.969,0,0,1,13.932,9.74,10.3,10.3,0,0,1,8.185,11.358ZM3.929,3.883a2.3,2.3,0,0,0-1.2,1.8,2.346,2.346,0,0,0,1.2,1.8,8.357,8.357,0,0,0,8.494,0,2.257,2.257,0,0,0,1.2-1.8,2.346,2.346,0,0,0-1.2-1.8A8.357,8.357,0,0,0,3.929,3.883Z" transform="translate(13.18 18.472)" fill="#292d32"/>
      <path id="Vector-4" data-name="Vector" d="M0,0H42.728V42.728H0Z" fill="none" opacity="0"/>
    </g>
  </g>
</svg>
