<svg xmlns="http://www.w3.org/2000/svg" width="42.678" height="42.678" viewBox="0 0 42.678 42.678">
  <g id="project" transform="translate(-748 -444)">
    <g id="document" transform="translate(748 444)">
      <path id="Vector" d="M24.451,38.232H13.781C4.126,38.232,0,34.107,0,24.451V13.781C0,4.126,4.126,0,13.781,0H24.451c9.656,0,13.781,4.126,13.781,13.781V24.451C38.232,34.107,34.107,38.232,24.451,38.232ZM13.781,2.667c-8.2,0-11.114,2.916-11.114,11.114V24.451c0,8.2,2.916,11.114,11.114,11.114H24.451c8.2,0,11.114-2.916,11.114-11.114V13.781c0-8.2-2.916-11.114-11.114-11.114Z" transform="translate(2.223 2.223)" fill="#dd1928"/>
      <path id="Vector-2" data-name="Vector" d="M14.67,2.667H1.334A1.343,1.343,0,0,1,0,1.334,1.343,1.343,0,0,1,1.334,0H14.67A1.343,1.343,0,0,1,16,1.334,1.343,1.343,0,0,1,14.67,2.667Z" transform="translate(13.337 14.67)" fill="#292d32"/>
      <path id="Vector-3" data-name="Vector" d="M14.67,2.667H1.334A1.343,1.343,0,0,1,0,1.334,1.343,1.343,0,0,1,1.334,0H14.67A1.343,1.343,0,0,1,16,1.334,1.343,1.343,0,0,1,14.67,2.667Z" transform="translate(13.337 25.34)" fill="#292d32"/>
      <path id="Vector-4" data-name="Vector" d="M0,0H42.678V42.678H0Z" fill="none" opacity="0"/>
    </g>
  </g>
</svg>
