<svg xmlns="http://www.w3.org/2000/svg" width="42.709" height="42.709" viewBox="0 0 42.709 42.709">
  <g id="success" transform="translate(-236 -316)">
    <g id="like" transform="translate(236 316)">
      <path id="Vector" d="M17.351,38.242A4.892,4.892,0,0,1,13.9,36.819l-3.043-3.007a4.014,4.014,0,0,0-2.829-1.157H6.673A6.653,6.653,0,0,1,0,26.035V6.62A6.653,6.653,0,0,1,6.673,0H28.028A6.653,6.653,0,0,1,34.7,6.62V26.035a6.653,6.653,0,0,1-6.673,6.62H26.675a4.092,4.092,0,0,0-2.829,1.157L20.8,36.819A4.892,4.892,0,0,1,17.351,38.242ZM6.673,2.651a3.987,3.987,0,0,0-4,3.951V26.017a3.976,3.976,0,0,0,4,3.951H8.026a6.757,6.757,0,0,1,4.716,1.94l3.043,3.007a2.256,2.256,0,0,0,3.15,0l3.043-3.007a6.757,6.757,0,0,1,4.716-1.94h1.335a3.987,3.987,0,0,0,4-3.951V6.6a3.976,3.976,0,0,0-4-3.951Z" transform="translate(4.004 2.242)" fill="#dd1928"/>
      <path id="Vector-2" data-name="Vector" d="M9.325,16.906a3.146,3.146,0,0,1-.925-.142C6.05,15.962,0,12.421,0,5.8A5.781,5.781,0,0,1,9.343,1.228,5.781,5.781,0,0,1,18.685,5.8c0,6.62-6.068,10.161-8.4,10.962A3.59,3.59,0,0,1,9.325,16.906ZM5.766,2.669A3.133,3.133,0,0,0,2.651,5.8c0,5.036,4.894,7.848,6.6,8.435H9.4c1.726-.605,6.584-3.417,6.584-8.417a3.114,3.114,0,0,0-5.606-1.886,1.377,1.377,0,0,1-2.135,0A3,3,0,0,0,5.766,2.669Z" transform="translate(12.029 11.122)" fill="#292d32"/>
      <path id="Vector-3" data-name="Vector" d="M0,0H42.709V42.709H0Z" transform="translate(42.709 42.709) rotate(180)" fill="none" opacity="0"/>
    </g>
  </g>
</svg>
