<svg xmlns="http://www.w3.org/2000/svg" xmlns:xlink="http://www.w3.org/1999/xlink" width="1170" height="587.84" viewBox="0 0 1170 587.84">
  <defs>
    <linearGradient id="linear-gradient" x1="1" y1="1" x2="0.011" y2="0.278" gradientUnits="objectBoundingBox">
      <stop offset="0" stop-color="#0a0808"/>
      <stop offset="0.153"/>
      <stop offset="0.398" stop-color="#020202"/>
      <stop offset="0.509" stop-color="#373737"/>
      <stop offset="0.703" stop-color="#b4b4b4"/>
      <stop offset="0.926" stop-color="#b4b4b4"/>
      <stop offset="1" stop-color="#fff"/>
    </linearGradient>
    <linearGradient id="linear-gradient-2" x2="0.989" y2="0.98" gradientUnits="objectBoundingBox">
      <stop offset="0" stop-color="#0a0808"/>
      <stop offset="0.153"/>
      <stop offset="0.398" stop-color="#020202"/>
      <stop offset="0.509" stop-color="#373737"/>
      <stop offset="1" stop-color="#fff"/>
    </linearGradient>
  </defs>
  <g id="Group_3102" data-name="Group 3102" transform="translate(-134.5 -799.783)">
    <g id="Group_3100" data-name="Group 3100" transform="translate(134.5 799.783)">
      <path id="Path_11827" data-name="Path 11827" d="M617.5,445.514h-4.022a.5.5,0,1,1,0-1H617.5a.5.5,0,1,1,0,1Zm-8.044,0h-4.022a.5.5,0,1,1,0-1h4.022a.5.5,0,1,1,0,1Zm-8.044,0h-4.022a.5.5,0,1,1,0-1h4.022a.5.5,0,1,1,0,1Zm-8.044,0h-4.022a.5.5,0,1,1,0-1h4.022a.5.5,0,1,1,0,1Zm-8.044,0H581.3a.5.5,0,1,1,0-1h4.022a.5.5,0,1,1,0,1Zm-8.044,0h-4.022a.5.5,0,1,1,0-1h4.022a.5.5,0,1,1,0,1Zm-8.044,0h-4.022a.5.5,0,1,1,0-1h4.022a.5.5,0,1,1,0,1Zm-8.044,0h-4.022a.5.5,0,1,1,0-1h4.022a.5.5,0,1,1,0,1Zm-8.044,0h-4.022a.5.5,0,1,1,0-1h4.022a.5.5,0,1,1,0,1Zm-8.044,0h-4.022a.5.5,0,1,1,0-1H545.1a.5.5,0,1,1,0,1Zm-8.044,0h-4.022a.5.5,0,1,1,0-1h4.022a.5.5,0,1,1,0,1Zm-8.044,0h-4.022a.5.5,0,1,1,0-1h4.022a.5.5,0,1,1,0,1Zm-8.044,0h-4.022a.5.5,0,1,1,0-1h4.022a.5.5,0,1,1,0,1Zm-8.044,0H508.9a.5.5,0,1,1,0-1h4.022a.5.5,0,1,1,0,1Zm-8.044,0h-4.022a.5.5,0,1,1,0-1h4.022a.5.5,0,1,1,0,1Zm-8.044,0h-4.022a.5.5,0,1,1,0-1h4.022a.5.5,0,1,1,0,1Zm-8.044,0h-4.022a.5.5,0,1,1,0-1h4.022a.5.5,0,1,1,0,1Zm-8.044,0h-4.022a.5.5,0,1,1,0-1h4.022a.5.5,0,1,1,0,1Zm-8.044,0h-4.022a.5.5,0,1,1,0-1h4.022a.5.5,0,1,1,0,1Zm-8.044,0h-4.022a.5.5,0,1,1,0-1h4.022a.5.5,0,1,1,0,1Zm-8.044,0H452.6a.5.5,0,1,1,0-1h4.022a.5.5,0,1,1,0,1Zm-8.044,0h-4.022a.5.5,0,1,1,0-1h4.022a.5.5,0,1,1,0,1Zm-8.044,0h-4.022a.5.5,0,1,1,0-1h4.022a.5.5,0,1,1,0,1Zm-8.044,0h-4.022a.5.5,0,1,1,0-1h4.022a.5.5,0,1,1,0,1Zm-8.044,0h-4.022a.5.5,0,1,1,0-1h4.022a.5.5,0,1,1,0,1Zm-8.044,0h-4.022a.5.5,0,1,1,0-1H416.4a.5.5,0,1,1,0,1Zm-8.044,0h-4.022a.5.5,0,1,1,0-1h4.022a.5.5,0,1,1,0,1Zm-8.044,0h-4.022a.5.5,0,1,1,0-1h4.022a.5.5,0,1,1,0,1Zm-8.044,0h-4.022a.5.5,0,1,1,0-1h4.022a.5.5,0,1,1,0,1Zm-8.044,0H380.2a.5.5,0,1,1,0-1h4.022a.5.5,0,1,1,0,1Zm-8.044,0h-4.022a.5.5,0,1,1,0-1h4.022a.5.5,0,1,1,0,1Zm-8.044,0h-4.022a.5.5,0,1,1,0-1h4.022a.5.5,0,1,1,0,1Zm-8.044,0h-4.022a.5.5,0,1,1,0-1h4.022a.5.5,0,1,1,0,1Zm-8.044,0h-4.022a.5.5,0,1,1,0-1h4.022a.5.5,0,1,1,0,1Zm-8.044,0h-4.022a.5.5,0,1,1,0-1H344a.5.5,0,1,1,0,1Zm-8.044,0h-4.022a.5.5,0,1,1,0-1h4.022a.5.5,0,1,1,0,1Zm-8.044,0h-4.022a.5.5,0,1,1,0-1h4.022a.5.5,0,1,1,0,1Zm-8.044,0h-4.022a.5.5,0,1,1,0-1h4.022a.5.5,0,1,1,0,1Zm-8.044,0H307.8a.5.5,0,1,1,0-1h4.022a.5.5,0,1,1,0,1Zm-8.044,0h-4.022a.5.5,0,1,1,0-1h4.022a.5.5,0,1,1,0,1Zm-8.044,0h-4.022a.5.5,0,1,1,0-1h4.022a.5.5,0,1,1,0,1Zm-8.044,0h-4.022a.5.5,0,1,1,0-1h4.022a.5.5,0,1,1,0,1Zm-8.044,0h-4.022a.5.5,0,1,1,0-1h4.022a.5.5,0,1,1,0,1Zm-8.044,0h-4.022a.5.5,0,1,1,0-1H271.6a.5.5,0,1,1,0,1Zm-8.044,0h-4.022a.5.5,0,1,1,0-1h4.022a.5.5,0,1,1,0,1Zm-8.044,0h-4.022a.5.5,0,1,1,0-1h4.022a.5.5,0,1,1,0,1Zm-8.044,0h-4.022a.5.5,0,1,1,0-1h4.022a.5.5,0,1,1,0,1Zm-8.044,0h-4.022a.5.5,0,1,1,0-1h4.022a.5.5,0,1,1,0,1Zm-8.044,0h-4.022a.5.5,0,1,1,0-1h4.022a.5.5,0,1,1,0,1Zm-8.044,0h-4.022a.5.5,0,1,1,0-1h4.022a.5.5,0,1,1,0,1Zm-8.044,0h-4.022a.5.5,0,1,1,0-1H215.3a.5.5,0,1,1,0,1Zm-8.044,0h-4.022a.5.5,0,1,1,0-1h4.022a.5.5,0,1,1,0,1Zm-8.044,0h-4.022a.5.5,0,1,1,0-1h4.022a.5.5,0,1,1,0,1Zm-8.044,0h-4.022a.5.5,0,1,1,0-1h4.022a.5.5,0,1,1,0,1Zm-8.044,0H179.1a.5.5,0,1,1,0-1h4.022a.5.5,0,1,1,0,1Zm-8.044,0h-4.022a.5.5,0,1,1,0-1h4.022a.5.5,0,1,1,0,1Zm-8.044,0h-4.022a.5.5,0,1,1,0-1h4.022a.5.5,0,1,1,0,1Zm-8.044,0h-4.022a.5.5,0,1,1,0-1h4.022a.5.5,0,1,1,0,1Zm-8.044,0h-4.022a.5.5,0,1,1,0-1h4.022a.5.5,0,1,1,0,1Zm-8.044,0h-4.022a.5.5,0,1,1,0-1H142.9a.5.5,0,1,1,0,1Zm-8.044,0h-4.022a.5.5,0,1,1,0-1h4.022a.5.5,0,1,1,0,1Zm-8.044,0h-1.93c-.7,0-1.406-.008-2.1-.023a.5.5,0,1,1,.022-1c.69.015,1.39.023,2.081.023h1.93a.5.5,0,1,1,0,1Zm-8.041-.2h-.033c-1.34-.086-2.7-.2-4.028-.346a.5.5,0,1,1,.108-.994c1.319.142,2.66.257,3.985.342a.5.5,0,0,1-.032,1Zm-7.995-.859a.509.509,0,0,1-.076-.006c-1.327-.2-2.667-.432-3.983-.689a.5.5,0,1,1,.194-.981c1.3.254,2.628.484,3.94.682a.5.5,0,0,1-.075.994Zm-7.891-1.541a.505.505,0,0,1-.119-.014c-1.3-.314-2.62-.66-3.909-1.03a.5.5,0,1,1,.278-.961c1.275.366,2.576.708,3.867,1.018a.5.5,0,0,1-.118.986ZM95.159,440.7a.5.5,0,0,1-.16-.026c-1.272-.425-2.552-.883-3.8-1.363a.5.5,0,1,1,.361-.933c1.239.474,2.5.928,3.763,1.348a.5.5,0,0,1-.16.974Zm-7.505-2.872a.5.5,0,0,1-.2-.042c-1.23-.533-2.465-1.1-3.671-1.685a.5.5,0,0,1-.231-.669.5.5,0,0,1,.672-.23c1.193.579,2.415,1.14,3.632,1.667a.5.5,0,0,1-.2.959Zm-7.226-3.508a.5.5,0,0,1-.239-.061c-1.179-.637-2.36-1.308-3.511-2a.5.5,0,0,1-.172-.686.5.5,0,0,1,.69-.171c1.138.68,2.306,1.344,3.473,1.974a.5.5,0,0,1-.24.939ZM73.533,430.2a.5.5,0,0,1-.277-.083c-1.12-.736-2.238-1.507-3.324-2.29a.5.5,0,0,1-.112-.7.5.5,0,0,1,.7-.111c1.074.775,2.181,1.537,3.288,2.266a.5.5,0,0,1-.278.917Zm-6.509-4.7a.5.5,0,0,1-.312-.108c-1.051-.83-2.1-1.694-3.112-2.568a.5.5,0,0,1-.05-.705.5.5,0,0,1,.709-.05c1,.865,2.038,1.719,3.078,2.541a.5.5,0,0,1-.313.892Zm-6.074-5.24a.5.5,0,0,1-.346-.137c-.975-.918-1.942-1.87-2.875-2.828a.5.5,0,0,1,.012-.707.5.5,0,0,1,.711.012c.922.948,1.879,1.889,2.843,2.8a.5.5,0,0,1-.346.863Zm-5.591-5.748a.5.5,0,0,1-.376-.168c-.891-1-1.77-2.032-2.614-3.068a.5.5,0,0,1,.074-.7.5.5,0,0,1,.707.074c.835,1.025,1.7,2.046,2.586,3.035a.5.5,0,0,1-.376.832ZM50.3,408.306a.5.5,0,0,1-.4-.2c-.8-1.074-1.583-2.18-2.331-3.287a.5.5,0,0,1,.137-.694.5.5,0,0,1,.7.136c.74,1.094,1.515,2.188,2.305,3.25a.5.5,0,0,1-.4.8ZM45.81,401.67a.5.5,0,0,1-.43-.24c-.7-1.141-1.38-2.312-2.026-3.481a.5.5,0,0,1,.2-.679.5.5,0,0,1,.683.2c.638,1.156,1.312,2.314,2,3.442a.5.5,0,0,1-.429.76Zm-3.869-7.011a.5.5,0,0,1-.452-.28c-.592-1.2-1.164-2.427-1.7-3.65a.5.5,0,0,1,.922-.4c.53,1.209,1.1,2.423,1.681,3.608a.5.5,0,0,1-.451.721Zm-3.213-7.331a.5.5,0,0,1-.47-.322c-.48-1.248-.936-2.523-1.357-3.79a.5.5,0,0,1,.955-.314c.416,1.252.867,2.513,1.341,3.746a.5.5,0,0,1-.29.646A.5.5,0,0,1,38.728,387.328Zm-2.522-7.594a.5.5,0,0,1-.484-.365c-.362-1.286-.7-2.6-1-3.9a.5.5,0,0,1,.98-.224c.3,1.286.63,2.582.987,3.854a.5.5,0,0,1-.349.616A.506.506,0,0,1,36.206,379.733Zm-1.8-7.793a.5.5,0,0,1-.494-.411c-.24-1.313-.452-2.65-.631-3.973a.5.5,0,0,1,1-.133c.176,1.308.386,2.629.623,3.927a.5.5,0,0,1-.4.581A.511.511,0,0,1,34.4,371.94Zm-1.07-7.926a.5.5,0,0,1-.5-.456c-.117-1.329-.2-2.679-.258-4.014a.5.5,0,0,1,1-.041c.054,1.32.14,2.655.256,3.968a.5.5,0,0,1-.457.542ZM33,356.023a.5.5,0,0,1-.5-.5v-4a.5.5,0,0,1,1.006,0v4A.5.5,0,0,1,33,356.023Zm0-8a.5.5,0,0,1-.5-.5v-4a.5.5,0,0,1,1.006,0v4A.5.5,0,0,1,33,348.023Zm0-8a.5.5,0,0,1-.5-.5v-4a.5.5,0,0,1,1.006,0v4A.5.5,0,0,1,33,340.023Zm0-8a.5.5,0,0,1-.5-.5v-4a.5.5,0,0,1,1.006,0v4A.5.5,0,0,1,33,332.023Zm0-8a.5.5,0,0,1-.5-.5v-4a.5.5,0,0,1,1.006,0v4A.5.5,0,0,1,33,324.023Zm0-8a.5.5,0,0,1-.5-.5v-4a.5.5,0,0,1,1.006,0v4A.5.5,0,0,1,33,316.023Zm0-8a.5.5,0,0,1-.5-.5v-4a.5.5,0,0,1,1.006,0v4A.5.5,0,0,1,33,308.023Zm0-8a.5.5,0,0,1-.5-.5v-4a.5.5,0,0,1,1.006,0v4A.5.5,0,0,1,33,300.023Zm0-8a.5.5,0,0,1-.5-.5v-4a.5.5,0,0,1,1.006,0v4A.5.5,0,0,1,33,292.023Zm0-8a.5.5,0,0,1-.5-.5v-4a.5.5,0,0,1,1.006,0v4A.5.5,0,0,1,33,284.023Zm0-8a.5.5,0,0,1-.5-.5v-4a.5.5,0,0,1,1.006,0v4A.5.5,0,0,1,33,276.023Zm0-8a.5.5,0,0,1-.5-.5v-4a.5.5,0,0,1,1.006,0v4A.5.5,0,0,1,33,268.023Zm0-8a.5.5,0,0,1-.5-.5v-4a.5.5,0,0,1,1.006,0v4A.5.5,0,0,1,33,260.023Zm0-8a.5.5,0,0,1-.5-.5v-4a.5.5,0,0,1,1.006,0v4A.5.5,0,0,1,33,252.023Zm0-8a.5.5,0,0,1-.5-.5v-4a.5.5,0,0,1,1.006,0v4A.5.5,0,0,1,33,244.023Zm0-8a.5.5,0,0,1-.5-.5v-4a.5.5,0,0,1,1.006,0v4A.5.5,0,0,1,33,236.023Zm0-8a.5.5,0,0,1-.5-.5v-4a.5.5,0,0,1,1.006,0v4A.5.5,0,0,1,33,228.023Zm0-8a.5.5,0,0,1-.5-.5v-4a.5.5,0,0,1,1.006,0v4A.5.5,0,0,1,33,220.023Zm0-8a.5.5,0,0,1-.5-.5v-4a.5.5,0,0,1,1.006,0v4A.5.5,0,0,1,33,212.023Zm0-8a.5.5,0,0,1-.5-.5v-4a.5.5,0,0,1,1.006,0v4A.5.5,0,0,1,33,204.023Zm0-8a.5.5,0,0,1-.5-.5v-4a.5.5,0,0,1,1.006,0v4A.5.5,0,0,1,33,196.023Zm0-8a.5.5,0,0,1-.5-.5v-4a.5.5,0,0,1,1.006,0v4A.5.5,0,0,1,33,188.023Zm0-8a.5.5,0,0,1-.5-.5v-4a.5.5,0,0,1,1.006,0v4A.5.5,0,0,1,33,180.023Zm0-8a.5.5,0,0,1-.5-.5v-4a.5.5,0,0,1,1.006,0v4A.5.5,0,0,1,33,172.023Zm0-8a.5.5,0,0,1-.5-.5v-4a.5.5,0,0,1,1.006,0v4A.5.5,0,0,1,33,164.023Zm0-8a.5.5,0,0,1-.5-.5v-4a.5.5,0,0,1,1.006,0v4A.5.5,0,0,1,33,156.023Zm0-8a.5.5,0,0,1-.5-.5v-4a.5.5,0,0,1,1.006,0v4A.5.5,0,0,1,33,148.023Zm0-8a.5.5,0,0,1-.5-.5v-4a.5.5,0,0,1,1.006,0v4A.5.5,0,0,1,33,140.023Zm0-8a.5.5,0,0,1-.5-.5v-3.856a.5.5,0,0,1,1.006,0v3.856A.5.5,0,0,1,33,132.023Z" transform="translate(-32.5 -127.167)" fill="url(#linear-gradient)"/>
    </g>
    <g id="Group_3101" data-name="Group 3101" transform="translate(722.203 1117.131)">
      <path id="Path_11827-2" data-name="Path 11827" d="M33,127.167h4a.5.5,0,0,1,0,1H33a.5.5,0,0,1,0-1Zm8,0h4a.5.5,0,0,1,0,1H41a.5.5,0,0,1,0-1Zm8,0h4a.5.5,0,0,1,0,1H49a.5.5,0,0,1,0-1Zm8,0h4a.5.5,0,0,1,0,1H57a.5.5,0,0,1,0-1Zm8,0h4a.5.5,0,0,1,0,1H65a.5.5,0,0,1,0-1Zm8,0h4a.5.5,0,0,1,0,1H73a.5.5,0,0,1,0-1Zm8,0h4a.5.5,0,0,1,0,1H81a.5.5,0,0,1,0-1Zm8,0h4a.5.5,0,0,1,0,1H89a.5.5,0,0,1,0-1Zm8,0h4a.5.5,0,0,1,0,1H97a.5.5,0,0,1,0-1Zm8,0h4a.5.5,0,0,1,0,1h-4a.5.5,0,0,1,0-1Zm8,0h4a.5.5,0,0,1,0,1h-4a.5.5,0,0,1,0-1Zm8,0h4a.5.5,0,0,1,0,1h-4a.5.5,0,0,1,0-1Zm8,0h4a.5.5,0,0,1,0,1h-4a.5.5,0,0,1,0-1Zm8,0h4a.5.5,0,0,1,0,1h-4a.5.5,0,0,1,0-1Zm8,0h4a.5.5,0,0,1,0,1h-4a.5.5,0,0,1,0-1Zm8,0h4a.5.5,0,0,1,0,1h-4a.5.5,0,0,1,0-1Zm8,0h4a.5.5,0,0,1,0,1h-4a.5.5,0,0,1,0-1Zm8,0h4a.5.5,0,0,1,0,1h-4a.5.5,0,0,1,0-1Zm8,0h4a.5.5,0,0,1,0,1h-4a.5.5,0,0,1,0-1Zm8,0h4a.5.5,0,0,1,0,1h-4a.5.5,0,0,1,0-1Zm8,0h4a.5.5,0,0,1,0,1h-4a.5.5,0,0,1,0-1Zm8,0h4a.5.5,0,0,1,0,1h-4a.5.5,0,0,1,0-1Zm8,0h4a.5.5,0,0,1,0,1h-4a.5.5,0,0,1,0-1Zm8,0h4a.5.5,0,0,1,0,1h-4a.5.5,0,0,1,0-1Zm8,0h4a.5.5,0,0,1,0,1h-4a.5.5,0,0,1,0-1Zm8,0h4a.5.5,0,0,1,0,1h-4a.5.5,0,0,1,0-1Zm8,0h4a.5.5,0,0,1,0,1h-4a.5.5,0,0,1,0-1Zm8,0h4a.5.5,0,0,1,0,1h-4a.5.5,0,0,1,0-1Zm8,0h4a.5.5,0,0,1,0,1h-4a.5.5,0,0,1,0-1Zm8,0h4a.5.5,0,0,1,0,1h-4a.5.5,0,0,1,0-1Zm8,0h4a.5.5,0,0,1,0,1h-4a.5.5,0,0,1,0-1Zm8,0h4a.5.5,0,0,1,0,1h-4a.5.5,0,0,1,0-1Zm8,0h4a.5.5,0,0,1,0,1h-4a.5.5,0,0,1,0-1Zm8,0h4a.5.5,0,0,1,0,1h-4a.5.5,0,0,1,0-1Zm8,0h4a.5.5,0,0,1,0,1h-4a.5.5,0,0,1,0-1Zm8,0h4a.5.5,0,0,1,0,1h-4a.5.5,0,0,1,0-1Zm8,0h4a.5.5,0,0,1,0,1h-4a.5.5,0,0,1,0-1Zm8,0h4a.5.5,0,0,1,0,1h-4a.5.5,0,0,1,0-1Zm8,0h4a.5.5,0,0,1,0,1h-4a.5.5,0,0,1,0-1Zm8,0h4a.5.5,0,0,1,0,1h-4a.5.5,0,0,1,0-1Zm8,0h4a.5.5,0,0,1,0,1h-4a.5.5,0,0,1,0-1Zm8,0h4a.5.5,0,0,1,0,1h-4a.5.5,0,0,1,0-1Zm8,0h4a.5.5,0,0,1,0,1h-4a.5.5,0,0,1,0-1Zm8,0h4a.5.5,0,0,1,0,1h-4a.5.5,0,0,1,0-1Zm8,0h4a.5.5,0,0,1,0,1h-4a.5.5,0,0,1,0-1Zm8,0h4a.5.5,0,0,1,0,1h-4a.5.5,0,0,1,0-1Zm8,0h4a.5.5,0,0,1,0,1h-4a.5.5,0,0,1,0-1Zm8,0h4a.5.5,0,0,1,0,1h-4a.5.5,0,0,1,0-1Zm8,0h4a.5.5,0,0,1,0,1h-4a.5.5,0,0,1,0-1Zm8,0h4a.5.5,0,0,1,0,1h-4a.5.5,0,0,1,0-1Zm8,0h4a.5.5,0,0,1,0,1h-4a.5.5,0,0,1,0-1Zm8,0h4a.5.5,0,0,1,0,1h-4a.5.5,0,0,1,0-1Zm8,0h4a.5.5,0,0,1,0,1h-4a.5.5,0,0,1,0-1Zm8,0h4a.5.5,0,0,1,0,1h-4a.5.5,0,0,1,0-1Zm8,0h4a.5.5,0,0,1,0,1h-4a.5.5,0,0,1,0-1Zm8,0h4a.5.5,0,0,1,0,1h-4a.5.5,0,0,1,0-1Zm8,0h4a.5.5,0,0,1,0,1h-4a.5.5,0,0,1,0-1Zm8,0h4a.5.5,0,0,1,0,1h-4a.5.5,0,0,1,0-1Zm8,0h4a.5.5,0,0,1,0,1h-4a.5.5,0,0,1,0-1Zm8,0h4a.5.5,0,0,1,0,1h-4a.5.5,0,0,1,0-1Zm8,0h4a.5.5,0,0,1,0,1h-4a.5.5,0,0,1,0-1Zm8,0h1.92c.695,0,1.4.008,2.092.023a.5.5,0,1,1-.022,1c-.686-.015-1.383-.023-2.07-.023H521a.5.5,0,0,1,0-1Zm8,.2h.033c1.333.086,2.681.2,4.006.346a.5.5,0,1,1-.107.994c-1.312-.142-2.645-.257-3.964-.342a.5.5,0,0,1,.032-1Zm7.951.859a.5.5,0,0,1,.076.006c1.32.2,2.653.432,3.961.689a.5.5,0,0,1-.193.981c-1.295-.254-2.613-.484-3.919-.682a.5.5,0,0,1,.074-.994Zm7.848,1.541a.5.5,0,0,1,.118.014c1.3.314,2.605.66,3.888,1.03a.5.5,0,1,1-.277.961c-1.268-.366-2.562-.708-3.846-1.018a.5.5,0,0,1,.117-.986Zm7.686,2.215a.5.5,0,0,1,.159.026c1.265.425,2.538.883,3.784,1.363a.5.5,0,1,1-.359.933c-1.232-.474-2.491-.928-3.743-1.348a.5.5,0,0,1,.159-.974Zm7.464,2.872a.5.5,0,0,1,.2.042c1.223.533,2.452,1.1,3.651,1.685a.5.5,0,0,1-.439.9c-1.186-.579-2.4-1.14-3.612-1.667a.5.5,0,0,1,.2-.959Zm7.187,3.508a.5.5,0,0,1,.238.061c1.173.637,2.348,1.308,3.492,2a.5.5,0,0,1-.515.857c-1.132-.68-2.294-1.344-3.454-1.974a.5.5,0,0,1,.239-.939Zm6.856,4.118a.5.5,0,0,1,.275.083c1.113.736,2.226,1.507,3.306,2.29a.5.5,0,1,1-.587.809c-1.068-.775-2.169-1.537-3.27-2.266a.5.5,0,0,1,.276-.917Zm6.474,4.7a.5.5,0,0,1,.311.108c1.046.83,2.087,1.694,3.094,2.568a.5.5,0,0,1-.655.755c-1-.865-2.027-1.719-3.061-2.541a.5.5,0,0,1,.311-.892Zm6.041,5.24a.5.5,0,0,1,.344.137c.97.918,1.932,1.87,2.859,2.828a.5.5,0,0,1-.719.7c-.917-.948-1.869-1.889-2.828-2.8a.5.5,0,0,1,.344-.863Zm5.561,5.748a.5.5,0,0,1,.374.168c.886,1,1.761,2.032,2.6,3.068a.5.5,0,1,1-.777.629c-.83-1.025-1.7-2.046-2.571-3.035a.5.5,0,0,1,.374-.832Zm5.034,6.214a.5.5,0,0,1,.4.2c.794,1.074,1.574,2.18,2.318,3.287a.5.5,0,0,1-.83.558c-.736-1.094-1.507-2.188-2.292-3.25a.5.5,0,0,1,.4-.8Zm4.462,6.637a.5.5,0,0,1,.427.24c.7,1.141,1.373,2.312,2.015,3.481a.5.5,0,0,1-.877.481c-.634-1.156-1.3-2.314-1.992-3.442a.5.5,0,0,1,.427-.76Zm3.848,7.011a.5.5,0,0,1,.449.28c.589,1.2,1.158,2.427,1.691,3.65a.5.5,0,0,1-.917.4c-.527-1.209-1.089-2.423-1.672-3.608a.5.5,0,0,1,.448-.721Zm3.195,7.331a.5.5,0,0,1,.467.322c.477,1.248.931,2.523,1.349,3.79a.5.5,0,0,1-.95.314c-.414-1.252-.862-2.513-1.334-3.746a.5.5,0,0,1,.467-.679Zm2.508,7.594a.5.5,0,0,1,.481.365c.36,1.286.694,2.6.993,3.9a.5.5,0,1,1-.974.224c-.3-1.286-.626-2.582-.982-3.854a.5.5,0,0,1,.482-.635Zm1.794,7.793a.5.5,0,0,1,.491.411c.239,1.313.45,2.65.627,3.973a.5.5,0,0,1-.991.133c-.176-1.308-.384-2.629-.62-3.927a.5.5,0,0,1,.4-.581A.505.505,0,0,1,612.905,200.741Zm1.064,7.926a.5.5,0,0,1,.5.456c.116,1.329.2,2.679.257,4.015a.5.5,0,1,1-1,.041c-.054-1.32-.14-2.655-.254-3.968a.5.5,0,0,1,.455-.542Zm.328,7.992a.5.5,0,0,1,.5.5v4a.5.5,0,1,1-1,0v-4A.5.5,0,0,1,614.3,216.659Zm0,8a.5.5,0,0,1,.5.5v4a.5.5,0,1,1-1,0v-4A.5.5,0,0,1,614.3,224.659Zm0,8a.5.5,0,0,1,.5.5v4a.5.5,0,1,1-1,0v-4A.5.5,0,0,1,614.3,232.659Zm0,8a.5.5,0,0,1,.5.5v4a.5.5,0,1,1-1,0v-4A.5.5,0,0,1,614.3,240.659Zm0,8a.5.5,0,0,1,.5.5v4a.5.5,0,0,1-1,0v-4A.5.5,0,0,1,614.3,248.659Zm0,8a.5.5,0,0,1,.5.5v4a.5.5,0,0,1-1,0v-4A.5.5,0,0,1,614.3,256.659Zm0,8a.5.5,0,0,1,.5.5v4a.5.5,0,0,1-1,0v-4A.5.5,0,0,1,614.3,264.659Zm0,8a.5.5,0,0,1,.5.5v4a.5.5,0,0,1-1,0v-4A.5.5,0,0,1,614.3,272.659Zm0,8a.5.5,0,0,1,.5.5v4a.5.5,0,0,1-1,0v-4A.5.5,0,0,1,614.3,280.659Zm0,8a.5.5,0,0,1,.5.5v4a.5.5,0,0,1-1,0v-4A.5.5,0,0,1,614.3,288.659Zm0,8a.5.5,0,0,1,.5.5v4a.5.5,0,1,1-1,0v-4A.5.5,0,0,1,614.3,296.659Zm0,8a.5.5,0,0,1,.5.5v4a.5.5,0,1,1-1,0v-4A.5.5,0,0,1,614.3,304.659Zm0,8a.5.5,0,0,1,.5.5v4a.5.5,0,1,1-1,0v-4A.5.5,0,0,1,614.3,312.659Zm0,8a.5.5,0,0,1,.5.5v4a.5.5,0,1,1-1,0v-4A.5.5,0,0,1,614.3,320.659Zm0,8a.5.5,0,0,1,.5.5v4a.5.5,0,0,1-1,0v-4A.5.5,0,0,1,614.3,328.659Zm0,8a.5.5,0,0,1,.5.5v4a.5.5,0,0,1-1,0v-4A.5.5,0,0,1,614.3,336.659Zm0,8a.5.5,0,0,1,.5.5v4a.5.5,0,0,1-1,0v-4A.5.5,0,0,1,614.3,344.659Zm0,8a.5.5,0,0,1,.5.5v4a.5.5,0,0,1-1,0v-4A.5.5,0,0,1,614.3,352.659Zm0,8a.5.5,0,0,1,.5.5v4a.5.5,0,0,1-1,0v-4A.5.5,0,0,1,614.3,360.659Zm0,8a.5.5,0,0,1,.5.5v4a.5.5,0,0,1-1,0v-4A.5.5,0,0,1,614.3,368.659Zm0,8a.5.5,0,0,1,.5.5v4a.5.5,0,0,1-1,0v-4A.5.5,0,0,1,614.3,376.659Zm0,8a.5.5,0,0,1,.5.5v4a.5.5,0,0,1-1,0v-4A.5.5,0,0,1,614.3,384.659Zm0,8a.5.5,0,0,1,.5.5v4a.5.5,0,0,1-1,0v-4A.5.5,0,0,1,614.3,392.659Z" transform="translate(-32.5 -127.167)" fill="url(#linear-gradient-2)"/>
    </g>
  </g>
</svg>
