<svg xmlns="http://www.w3.org/2000/svg" xmlns:xlink="http://www.w3.org/1999/xlink" width="511.344" height="505.903" viewBox="0 0 511.344 505.903">
  <defs>
    <radialGradient id="radial-gradient" cx="0.5" cy="0.5" r="0.394" gradientTransform="matrix(-1, 0.024, -0.017, -0.703, 1.008, 0.839)" gradientUnits="objectBoundingBox">
      <stop offset="0"/>
      <stop offset="1" stop-color="#504b4b"/>
    </radialGradient>
  </defs>
  <g id="Group_3114" data-name="Group 3114" transform="matrix(1, 0, 0, 1, -10344.999, -11150.999)" opacity="0.2">
    <path id="Ellipse_387" data-name="Ellipse 387" d="M255.672.905a259.305,259.305,0,0,0-51.343,5.121,255,255,0,0,0-159.906,106,249.672,249.672,0,0,0,0,281.842,254.993,254.993,0,0,0,159.906,106,259.958,259.958,0,0,0,102.687,0,255,255,0,0,0,159.906-106,249.672,249.672,0,0,0,0-281.842,254.993,254.993,0,0,0-159.906-106A259.3,259.3,0,0,0,255.672.905m0-.905c141.2,0,255.672,113.25,255.672,252.951S396.876,505.9,255.672,505.9,0,392.653,0,252.951,114.468,0,255.672,0Z" transform="translate(10345 11151)" fill="url(#radial-gradient)"/>
    <path id="Ellipse_388" data-name="Ellipse 388" d="M242.1.905A245.632,245.632,0,0,0,193.489,5.75,241.391,241.391,0,0,0,42.1,106.045a236.117,236.117,0,0,0,0,266.662A241.435,241.435,0,0,0,193.489,473a246.257,246.257,0,0,0,97.215,0,241.392,241.392,0,0,0,151.384-100.3,236.117,236.117,0,0,0,0-266.662A241.435,241.435,0,0,0,290.7,5.75,245.633,245.633,0,0,0,242.1.905m0-.905c133.706,0,242.1,107.172,242.1,239.376S375.8,478.753,242.1,478.753,0,371.58,0,239.376,108.39,0,242.1,0Z" transform="translate(10358.576 11164.576)" fill="url(#radial-gradient)"/>
    <path id="Ellipse_389" data-name="Ellipse 389" d="M225.806.905a229.225,229.225,0,0,0-45.324,4.514A225.064,225.064,0,0,0,39.323,98.863,221.376,221.376,0,0,0,18.589,136.6a220.036,220.036,0,0,0,0,172.965,221.369,221.369,0,0,0,20.735,37.74,225.165,225.165,0,0,0,141.159,93.444,229.8,229.8,0,0,0,90.648,0A225.065,225.065,0,0,0,412.29,347.309a221.369,221.369,0,0,0,20.735-37.74,220.036,220.036,0,0,0,0-172.965,221.376,221.376,0,0,0-20.735-37.74A225.166,225.166,0,0,0,271.131,5.419,229.224,229.224,0,0,0,225.806.905m0-.905c124.71,0,225.806,99.879,225.806,223.086s-101.1,223.086-225.806,223.086S0,346.293,0,223.086,101.1,0,225.806,0Z" transform="translate(10374.866 11180.866)" fill="url(#radial-gradient)"/>
    <path id="Ellipse_390" data-name="Ellipse 390" d="M208.611.905A211.9,211.9,0,0,0,166.753,5.07,207.83,207.83,0,0,0,36.387,91.282,204.175,204.175,0,0,0,17.238,126.1a202.823,202.823,0,0,0,0,159.579A204.176,204.176,0,0,0,36.387,320.5a207.992,207.992,0,0,0,130.365,86.212,212.443,212.443,0,0,0,83.717,0A207.83,207.83,0,0,0,380.835,320.5a204.181,204.181,0,0,0,19.149-34.819,202.823,202.823,0,0,0,0-159.579,204.179,204.179,0,0,0-19.149-34.819A207.992,207.992,0,0,0,250.47,5.07,211.9,211.9,0,0,0,208.611.905m0-.905C323.824,0,417.222,92.18,417.222,205.891s-93.4,205.891-208.611,205.891S0,319.6,0,205.891,93.4,0,208.611,0Z" transform="translate(10392.06 11198.06)" fill="url(#radial-gradient)"/>
    <path id="Ellipse_391" data-name="Ellipse 391" d="M191.416.905A194.579,194.579,0,0,0,153.023,4.72,190.6,190.6,0,0,0,33.452,83.7a186.984,186.984,0,0,0-17.564,31.9,185.611,185.611,0,0,0,0,146.192,186.988,186.988,0,0,0,17.564,31.9,190.818,190.818,0,0,0,119.571,78.98,195.076,195.076,0,0,0,76.786,0A190.6,190.6,0,0,0,349.38,293.69a186.988,186.988,0,0,0,17.564-31.9,185.612,185.612,0,0,0,0-146.192A186.985,186.985,0,0,0,349.38,83.7,190.819,190.819,0,0,0,229.809,4.72,194.579,194.579,0,0,0,191.416.905m0-.905C297.132,0,382.832,84.482,382.832,188.7s-85.7,188.7-191.416,188.7S0,292.909,0,188.7,85.7,0,191.416,0Z" transform="translate(10409.256 11215.256)" fill="url(#radial-gradient)"/>
    <path id="Ellipse_392" data-name="Ellipse 392" d="M176.031.905a179.082,179.082,0,0,0-35.292,3.5A175.588,175.588,0,0,0,52.208,51.4,174.27,174.27,0,0,0,30.825,76.917,171.6,171.6,0,0,0,14.68,106.2a170.21,170.21,0,0,0,0,134.215A171.6,171.6,0,0,0,30.825,269.7a175.294,175.294,0,0,0,77.045,62.464,176.229,176.229,0,0,0,32.869,10.045,179.549,179.549,0,0,0,70.584,0,175.588,175.588,0,0,0,88.53-46.994A174.258,174.258,0,0,0,321.236,269.7a171.592,171.592,0,0,0,16.145-29.285,170.21,170.21,0,0,0,0-134.215,171.6,171.6,0,0,0-16.145-29.285,175.293,175.293,0,0,0-77.045-62.464A176.229,176.229,0,0,0,211.323,4.408a179.081,179.081,0,0,0-35.292-3.5m0-.905C273.25,0,352.061,77.594,352.061,173.31S273.25,346.62,176.031,346.62,0,269.027,0,173.31,78.812,0,176.031,0Z" transform="translate(10424.642 11230.642)" fill="url(#radial-gradient)"/>
    <path id="Ellipse_393" data-name="Ellipse 393" d="M159.74.905a162.676,162.676,0,0,0-32.009,3.172A159.311,159.311,0,0,0,47.438,46.63,157.861,157.861,0,0,0,28.044,69.735,155.309,155.309,0,0,0,13.4,96.253a153.905,153.905,0,0,0,0,121.533A155.309,155.309,0,0,0,28.044,244.3a158.37,158.37,0,0,0,42.9,42.169,159.42,159.42,0,0,0,56.788,23.49,163.1,163.1,0,0,0,64.017,0,159.311,159.311,0,0,0,80.294-42.553A157.863,157.863,0,0,0,291.437,244.3a155.31,155.31,0,0,0,14.643-26.518,153.905,153.905,0,0,0,0-121.533,155.31,155.31,0,0,0-14.643-26.518,158.37,158.37,0,0,0-42.9-42.169,159.42,159.42,0,0,0-56.788-23.49A162.677,162.677,0,0,0,159.74.905m0-.905c88.222,0,159.74,70.3,159.74,157.02S247.963,314.04,159.74,314.04,0,243.74,0,157.02,71.518,0,159.74,0Z" transform="translate(10440.93 11246.93)" fill="url(#radial-gradient)"/>
    <path id="Ellipse_394" data-name="Ellipse 394" d="M145.26.905a148.088,148.088,0,0,0-29.09,2.878A144.845,144.845,0,0,0,43.2,42.389,143.276,143.276,0,0,0,25.572,63.351,140.83,140.83,0,0,0,12.265,87.409a139.414,139.414,0,0,0,0,110.261,140.831,140.831,0,0,0,13.308,24.058A143.273,143.273,0,0,0,43.2,242.691,144.93,144.93,0,0,0,116.17,281.3a148.48,148.48,0,0,0,58.18,0,144.845,144.845,0,0,0,72.972-38.606,143.272,143.272,0,0,0,17.625-20.962,140.83,140.83,0,0,0,13.308-24.058,139.414,139.414,0,0,0,0-110.261,140.829,140.829,0,0,0-13.308-24.058,143.274,143.274,0,0,0-17.625-20.962A144.93,144.93,0,0,0,174.35,3.783,148.088,148.088,0,0,0,145.26.905m0-.905c80.225,0,145.26,63.817,145.26,142.54s-65.035,142.54-145.26,142.54S0,221.262,0,142.54,65.035,0,145.26,0Z" transform="translate(10455.413 11261.413)" fill="url(#radial-gradient)"/>
    <path id="Ellipse_395" data-name="Ellipse 395" d="M131.685.905a134.414,134.414,0,0,0-26.354,2.6A131.282,131.282,0,0,0,39.223,38.413,129.6,129.6,0,0,0,23.255,57.366,127.262,127.262,0,0,0,11.2,79.118a125.829,125.829,0,0,0,0,99.693,127.262,127.262,0,0,0,12.056,21.752,129.6,129.6,0,0,0,15.968,18.953,131.4,131.4,0,0,0,66.108,34.906,134.775,134.775,0,0,0,52.708,0,131.283,131.283,0,0,0,66.108-34.906,129.6,129.6,0,0,0,15.968-18.953,127.26,127.26,0,0,0,12.056-21.752,125.829,125.829,0,0,0,0-99.693,127.26,127.26,0,0,0-12.056-21.752,129.6,129.6,0,0,0-15.968-18.953A131.4,131.4,0,0,0,158.039,3.507a134.414,134.414,0,0,0-26.354-2.6m0-.905C204.413,0,263.37,57.739,263.37,128.964S204.413,257.929,131.685,257.929,0,200.19,0,128.964,58.957,0,131.685,0Z" transform="translate(10468.986 11274.986)" fill="url(#radial-gradient)"/>
    <path id="Ellipse_396" data-name="Ellipse 396" d="M115.389.905A115.337,115.337,0,0,0,92.316,3.231,113.853,113.853,0,0,0,51.381,20.457,114.821,114.821,0,0,0,9.9,70.827a113.9,113.9,0,0,0-6.67,21.489,115.61,115.61,0,0,0,0,46.147A113.853,113.853,0,0,0,20.457,179.4a114.821,114.821,0,0,0,50.371,41.479,113.9,113.9,0,0,0,21.489,6.67,115.611,115.611,0,0,0,46.147,0A113.852,113.852,0,0,0,179.4,210.322a114.821,114.821,0,0,0,41.479-50.37,113.9,113.9,0,0,0,6.67-21.489,115.611,115.611,0,0,0,0-46.147,113.853,113.853,0,0,0-17.226-40.935A114.821,114.821,0,0,0,159.951,9.9a113.9,113.9,0,0,0-21.489-6.67A115.336,115.336,0,0,0,115.389.905m0-.905A115.389,115.389,0,1,1,0,115.389,115.389,115.389,0,0,1,115.389,0Z" transform="translate(10485.282 11288.562)" fill="url(#radial-gradient)"/>
    <path id="Ellipse_397" data-name="Ellipse 397" d="M101.814.905a101.659,101.659,0,0,0-20.338,2.05A100.352,100.352,0,0,0,45.4,18.138a101.206,101.206,0,0,0-36.561,44.4,100.4,100.4,0,0,0-5.879,18.94,101.9,101.9,0,0,0,0,40.675,100.352,100.352,0,0,0,15.183,36.081,101.206,101.206,0,0,0,44.4,36.561,100.4,100.4,0,0,0,18.94,5.879,101.9,101.9,0,0,0,40.675,0,100.352,100.352,0,0,0,36.081-15.183,101.206,101.206,0,0,0,36.561-44.4,100.4,100.4,0,0,0,5.879-18.94,101.9,101.9,0,0,0,0-40.675A100.352,100.352,0,0,0,185.49,45.4a101.206,101.206,0,0,0-44.4-36.561,100.4,100.4,0,0,0-18.94-5.879A101.659,101.659,0,0,0,101.814.905m0-.905A101.814,101.814,0,1,1,0,101.814,101.814,101.814,0,0,1,101.814,0Z" transform="translate(10498.857 11302.137)" fill="url(#radial-gradient)"/>
    <path id="Ellipse_398" data-name="Ellipse 398" d="M85.524.905A85.249,85.249,0,0,0,68.469,2.624,84.151,84.151,0,0,0,38.213,15.356,84.868,84.868,0,0,0,7.554,52.587a84.187,84.187,0,0,0-4.93,15.883,85.453,85.453,0,0,0,0,34.109,84.151,84.151,0,0,0,12.732,30.256,84.868,84.868,0,0,0,37.231,30.659,84.185,84.185,0,0,0,15.883,4.93,85.453,85.453,0,0,0,34.109,0,84.151,84.151,0,0,0,30.256-12.732,84.868,84.868,0,0,0,30.659-37.231,84.186,84.186,0,0,0,4.93-15.883,85.453,85.453,0,0,0,0-34.109,84.151,84.151,0,0,0-12.732-30.256A84.868,84.868,0,0,0,118.461,7.554a84.187,84.187,0,0,0-15.883-4.93A85.249,85.249,0,0,0,85.524.905m0-.905A85.524,85.524,0,1,1,0,85.524,85.524,85.524,0,0,1,85.524,0Z" transform="translate(10515.148 11318.428)" fill="url(#radial-gradient)"/>
    <path id="Ellipse_399" data-name="Ellipse 399" d="M70.139.905A68.906,68.906,0,0,0,31.43,12.728,69.438,69.438,0,0,0,6.345,43.19a69.141,69.141,0,0,0,6.383,65.657A69.438,69.438,0,0,0,43.19,133.932a69.142,69.142,0,0,0,65.657-6.383,69.438,69.438,0,0,0,25.085-30.462,69.141,69.141,0,0,0-6.383-65.657A69.439,69.439,0,0,0,97.087,6.345,68.8,68.8,0,0,0,70.139.905m0-.905A70.139,70.139,0,1,1,0,70.139,70.139,70.139,0,0,1,70.139,0Z" transform="translate(10530.532 11333.812)" fill="url(#radial-gradient)"/>
    <path id="Ellipse_400" data-name="Ellipse 400" d="M56.563.905A55.394,55.394,0,0,0,25.445,10.41,55.823,55.823,0,0,0,5.279,34.9,55.584,55.584,0,0,0,10.41,87.682,55.824,55.824,0,0,0,34.9,107.848a55.584,55.584,0,0,0,52.783-5.132,55.824,55.824,0,0,0,20.166-24.489,55.584,55.584,0,0,0-5.132-52.783A55.823,55.823,0,0,0,78.228,5.279,55.309,55.309,0,0,0,56.563.905m0-.905A56.563,56.563,0,1,1,0,56.563,56.563,56.563,0,0,1,56.563,0Z" transform="translate(10544.108 11347.388)" fill="url(#radial-gradient)"/>
    <path id="Ellipse_401" data-name="Ellipse 401" d="M43.893.905A43,43,0,0,0,27.161,83.5,43,43,0,0,0,60.626,4.283,42.718,42.718,0,0,0,43.893.905m0-.905A43.893,43.893,0,1,1,0,43.893,43.893,43.893,0,0,1,43.893,0Z" transform="translate(10556.778 11360.058)" fill="url(#radial-gradient)"/>
    <path id="Ellipse_402" data-name="Ellipse 402" d="M29.413.905a28.516,28.516,0,0,0-11.1,54.776A28.516,28.516,0,0,0,40.509,3.145a28.329,28.329,0,0,0-11.1-2.24m0-.905A29.413,29.413,0,1,1,0,29.413,29.413,29.413,0,0,1,29.413,0Z" transform="translate(10571.262 11374.541)" fill="url(#radial-gradient)"/>
  </g>
</svg>
