<svg xmlns="http://www.w3.org/2000/svg" xmlns:xlink="http://www.w3.org/1999/xlink" width="235.509" height="520.089" viewBox="0 0 235.509 520.089">
  <defs>
    <linearGradient id="linear-gradient" x1="0.057" x2="0.023" y2="1" gradientUnits="objectBoundingBox">
      <stop offset="0" stop-color="#fff"/>
      <stop offset="0.04" stop-color="#717171"/>
      <stop offset="0.833" stop-color="#868686"/>
      <stop offset="1" stop-color="#f6f6f6"/>
    </linearGradient>
  </defs>
  <path id="Subtraction_12" data-name="Subtraction 12" d="M-13009.4-8949.921c-1.27-.132-.658-.622.057-.547Zm7.631.914c-1.262-.171-2.545-.333-3.812-.484l.066-.547.715.086s0,0,.008,0l.1.012.035,0,.072.008a.452.452,0,0,0,.051.007l.055.007.059.008.041,0c.088.013.174.023.26.033a.025.025,0,0,1,.012,0l.086.011.02,0,.088.011a.025.025,0,0,0,.012,0q.9.113,1.793.232l.018,0,.084.011.023,0,.082.013h.02c.064.01.125.018.189.025Zm7.6,1.138c-1.258-.207-2.535-.407-3.8-.6l.082-.544c.7.1,1.393.212,2.088.32l.021,0,.078.013a.228.228,0,0,1,.033,0l.068.011.043.007.064.011c.02,0,.043.007.066.011l.039,0,.109.019c.008,0,.018,0,.027,0l.088.016.023,0,.1.016.016,0,.941.153Zm7.564,1.361c-1.25-.245-2.521-.483-3.777-.708l.1-.543.787.144h0l.094.018.012,0,.092.018h0q1.4.258,2.793.529Zm7.52,1.584c-1.24-.282-2.5-.558-3.754-.82l.113-.538q1.887.4,3.764.822Zm7.471,1.809c-1.234-.319-2.488-.632-3.729-.932l.131-.534q.58.139,1.162.283l.012,0,.1.023a.036.036,0,0,0,.014,0l.113.028h0l.1.026.051.013.051.012.064.016.037.011.07.016a.057.057,0,0,0,.02.006q.706.177,1.414.357l.008,0,.09.023.006,0,.254.064.033.009c.018,0,.037.009.055.015s.037.009.055.015a.1.1,0,0,1,.023,0Zm7.414,2.03c-1.227-.354-2.469-.705-3.7-1.043l.145-.529.568.155.023.007.072.02.045.013.027.008c.813.227,1.627.455,2.438.689l.014,0,.084.024a.069.069,0,0,0,.016,0l.125.036.055.017.037.01.076.023.027.008.092.025.008,0Zm7.35,2.249c-1.213-.392-2.447-.777-3.666-1.151l.16-.525q.677.207,1.354.418h0l.068.022.041.013.057.019.055.016.047.016c.029.008.059.018.088.027l.014,0c.037.011.074.024.111.034h0c.035.013.072.024.109.035l.012,0,.105.033h0q.8.253,1.6.512Zm7.279,2.467c-1.2-.428-2.424-.852-3.631-1.261l.178-.521.4.137h0l.092.032h0q1.573.536,3.141,1.094Zm7.205,2.679c-1.189-.462-2.4-.922-3.594-1.366l.191-.517q1.8.672,3.6,1.371Zm7.121,2.892c-1.174-.5-2.369-.993-3.551-1.472l.209-.511c.107.045.221.09.328.136h.006l.439.18.01,0,.1.04.01,0,.33.136,0,0,.1.042a.019.019,0,0,0,.01,0q1.11.46,2.217.928Zm7.031,3.1c-.836-.382-1.682-.767-2.521-1.141-.324-.146-.656-.292-.984-.437l.225-.5.984.437,1.014.455a.25.25,0,0,0,.023.011l.051.022.041.019.033.015.07.032a.01.01,0,0,0,.008,0c.428.2.857.391,1.285.588Zm6.936,3.313c-1.143-.567-2.3-1.133-3.455-1.683l.236-.5c.287.137.576.275.861.414a.045.045,0,0,1,.02.009l.078.037.035.017c.02.011.041.02.063.03a.38.38,0,0,0,.041.019.515.515,0,0,0,.057.029c.031.015.063.029.094.046l.035.016.063.032a.153.153,0,0,1,.031.015l.066.031.025.013.322.156.016.008c.025.013.049.024.074.035l.02.011c.023.012.051.023.074.036l.012.006.15.072.014.008c.02.01.041.019.059.028l.043.021c.016.006.033.016.049.023l.059.028.037.019q.533.261,1.066.525Zm6.836,3.514c-1.125-.6-2.271-1.2-3.4-1.783l.25-.488.363.187,0,0,.248.127.012.006.061.032.035.019c.02.009.037.019.057.029l.041.021.053.028.047.022.086.047.053.025.051.027a.3.3,0,0,1,.043.023l.055.027.041.021.057.029.035.019c.072.036.141.073.213.11a.161.161,0,0,0,.025.014l.066.034.025.014c.023.012.047.023.068.036a.172.172,0,0,0,.02.009l.24.128s0,0,0,0c.025.012.051.025.074.038l.02.01c.023.013.049.026.074.038l.014.008c.076.04.15.08.229.12l.023.014a.551.551,0,0,1,.059.03l.039.02c.018.01.035.021.055.029l.047.025c.018.008.029.017.047.024.066.034.133.069.2.1l.006,0,.527.279Zm6.729,3.714c-1.107-.632-2.234-1.266-3.352-1.882l.266-.481q1.157.639,2.3,1.287l.021.012c.025.015.049.029.074.043l.029.017c.025.012.047.025.07.039l.031.017c.027.017.053.032.082.047l.055.032c.016.008.029.018.045.025l.055.03.037.021c.021.012.039.022.063.034l.023.015.32.183h0c.051.028.1.055.146.084Zm6.617,3.911c-1.088-.664-2.2-1.331-3.295-1.979l.281-.474c.4.238.809.479,1.211.72l.012.007c.02.013.037.024.057.035l.041.023.047.029.055.032c.012.008.025.015.037.021l.084.052.01,0c.033.02.064.04.1.06l.016.01c.029.016.057.033.084.049l.018.011.088.054.012,0c.1.062.2.122.3.184h0c.033.021.066.04.1.061,0,0,0,0,.006,0,.1.062.2.122.3.184l.01,0c.029.018.059.035.086.054a.077.077,0,0,1,.018.011c.029.016.057.034.084.051l.016.009.1.059.025.015.068.041c.014.01.029.019.045.028s.027.018.043.025l.055.034.029.018.148.091Zm6.5,4.1c-1.068-.7-2.156-1.4-3.234-2.076l.293-.466s0,0,0,0c.4.256.809.513,1.209.769l.012.007c.031.019.061.039.092.059l.006,0,.2.125c.008,0,.014.01.021.014l.07.045.033.023c.021.012.041.024.061.037l.035.022c.021.015.043.027.066.042a.131.131,0,0,0,.027.018l.086.056a.351.351,0,0,0,.047.029.439.439,0,0,1,.041.029c.018.011.039.021.055.033s.023.017.037.024l.053.033a.277.277,0,0,0,.033.021l.207.134a.049.049,0,0,0,.018.011l.064.043.023.016c.021.015.045.028.066.042a.069.069,0,0,0,.016.01c.076.048.15.1.225.146,0,0,.006,0,.01.007.025.015.045.029.068.044a.131.131,0,0,0,.021.014l.064.042.023.015c.068.044.135.09.2.134a.153.153,0,0,1,.029.02l.02.011Zm6.375,4.292c-1.047-.728-2.111-1.457-3.172-2.17l.309-.456q1.6,1.075,3.178,2.175Zm6.246,4.48c-1.027-.76-2.07-1.521-3.107-2.264l.322-.446c.213.152.428.307.641.463a.084.084,0,0,1,.021.015c.02.012.035.025.053.038l.037.026.049.035c.016.012.033.022.049.036l.035.025c.029.02.059.042.088.063,0,0,.01.006.012.009l.082.059.018.014.076.055.018.013c.094.068.188.138.283.205,0,0,0,0,.006,0,.027.022.057.044.086.065.006,0,.008,0,.01.007.1.069.191.138.287.209l0,0,.086.064a.075.075,0,0,1,.016.011c.029.021.059.041.088.063l0,0c.061.045.121.09.184.134l.029.021c.018.015.037.028.055.041s.027.021.041.031a.535.535,0,0,1,.045.033l.045.032c.01.006.018.015.029.021l.637.472Zm6.111,4.663c-1-.789-2.025-1.581-3.039-2.355l.334-.437.031.023a.045.045,0,0,0,.016.011l.213.165.008.006.064.049.018.014.064.049s.012.008.018.014l.289.222.008.006c.023.02.049.037.074.056h0q1.107.851,2.205,1.716h0a.236.236,0,0,0,.035.026Zm5.971,4.838c-.979-.818-1.977-1.64-2.969-2.442l.348-.427c.484.394.971.79,1.453,1.188l.018.013.053.044.035.029a.484.484,0,0,1,.041.035c.02.014.041.031.059.046l.023.021q.647.532,1.291,1.071Zm5.828,5.011c-.955-.846-1.928-1.7-2.895-2.528l.357-.416q.943.81,1.881,1.631s0,0,0,0l.061.054.023.02.051.044.039.036.039.033c.027.024.053.048.08.07l.014.015.074.063a.081.081,0,0,0,.014.013l.078.069.006,0c.18.16.359.318.539.477Zm5.68,5.179c-.928-.873-1.879-1.751-2.82-2.61l.369-.407q1.427,1.3,2.83,2.616Zm5.525,5.343c-.9-.9-1.824-1.806-2.742-2.691l.381-.4q1,.959,1.98,1.934h0c.025.025.051.049.074.074a.075.075,0,0,1,.016.015l.064.064.061.06a.311.311,0,0,1,.025.025c.023.021.045.044.066.065h0c.154.151.309.3.461.458Zm5.367,5.5c-.871-.919-1.76-1.844-2.643-2.75l-.021-.021.395-.383a.034.034,0,0,1,.012.012.043.043,0,0,0,.01.008c.023.026.051.052.074.078l.027.027c.016.017.033.034.049.053a.166.166,0,0,1,.029.029c.018.016.033.033.051.05s.02.02.027.029l.053.056.035.034c.02.021.039.043.061.063s.023.025.037.037.025.027.037.04l.039.04c.012.012.023.025.037.037s.027.029.041.044a.305.305,0,0,0,.025.024c.057.06.113.119.172.178a.064.064,0,0,0,.014.015c.018.021.039.042.059.061a.052.052,0,0,0,.01.012l.063.063v0q.469.482.932.97l0,0c.021.021.041.044.063.063a.028.028,0,0,0,.008.011c.021.021.041.042.061.064,0,0,0,0,0,0,.031.033.063.066.094.1l.041.044.029.029c.016.019.035.036.053.055s.014.015.02.022c.023.022.045.047.066.071l.008.006.326.345Zm5.2,5.659c-.85-.951-1.717-1.909-2.58-2.849l.4-.373c.109.119.217.237.326.354v0c.027.029.055.059.08.088h0c.051.057.1.114.156.171l.018.021c.02.019.035.04.055.059a.391.391,0,0,1,.027.031l.049.053a.237.237,0,0,1,.025.029c.023.024.045.048.068.071l.02.024c.021.021.039.042.059.063l.029.033c.016.016.029.032.045.048l.031.036c.016.016.031.033.045.049l.027.029c.023.027.045.051.068.076a.073.073,0,0,1,.012.014c.023.023.045.049.068.073a.255.255,0,0,1,.021.026c.02.019.035.037.053.057l.025.027c.018.021.037.041.055.063a.093.093,0,0,1,.02.02c.051.058.1.113.154.171l.006.006.07.08.012.011c.023.028.051.056.074.082v0c.295.326.586.65.879.978l.006.008Zm5.035,5.809c-.824-.976-1.662-1.959-2.5-2.922l.416-.361c.307.353.611.71.918,1.063l.008.012.049.054.025.032.037.045a.485.485,0,0,1,.037.041.483.483,0,0,1,.035.043c.016.017.033.035.049.055s.027.033.043.05.027.035.045.054.021.023.031.036.027.033.043.049a.238.238,0,0,0,.029.036c.014.016.029.033.043.051l.027.031c.021.025.041.05.063.073a.292.292,0,0,0,.021.025l.055.065.033.038c.014.015.023.029.037.043l.035.043c.012.013.023.026.033.039a.273.273,0,0,1,.037.046.183.183,0,0,1,.029.033c.031.036.063.071.092.107l.01.011c.018.021.035.04.051.06l.018.021c.018.021.035.04.051.062a.033.033,0,0,1,.012.012l.506.6Zm4.861,5.953c-.793-1-1.6-2.007-2.41-2.994l.426-.349c.025.03.049.062.074.091l.006.008c.02.024.039.048.061.072l.023.031c.014.015.025.029.039.046q.867,1.068,1.727,2.144l.01.012c.018.021.033.043.051.063a.076.076,0,0,0,.016.02l.223.282a.15.15,0,0,0,.012.013l.055.068s0,0,0,.007c.039.048.076.1.117.146Zm4.686,6.092c-.764-1.021-1.543-2.052-2.32-3.063l.436-.335q.806,1.049,1.6,2.106h0l.068.091a.037.037,0,0,1,.008.011c.021.026.041.053.063.081l.01.015c.045.059.09.118.133.178.008.01.014.019.021.027l.047.063a.326.326,0,0,1,.023.031c.014.019.029.037.043.057a.386.386,0,0,0,.025.034c.016.021.033.043.049.065l.037.05.041.054c.01.016.021.029.031.043s.023.029.033.045l.033.044c.01.015.021.027.031.041l.023.033Zm4.506,6.228c-.73-1.044-1.482-2.1-2.23-3.13l.445-.322c.154.213.309.425.461.639l.012.016c.016.021.029.04.043.061a.169.169,0,0,1,.021.03l.041.056.025.035.041.059c.018.025.037.049.055.074a.289.289,0,0,0,.021.03c.014.021.029.042.045.063a.237.237,0,0,0,.02.027c.016.023.033.048.051.071a.153.153,0,0,1,.014.019q.7.974,1.385,1.958Zm4.32,6.357c-.117-.179-.234-.354-.352-.531-.586-.888-1.187-1.783-1.785-2.664l.455-.309c.313.461.623.92.934,1.383,0,0,0,0,.006.008a.689.689,0,0,0,.041.063c.006.01.012.017.016.024s.021.031.033.048.018.027.027.042a.308.308,0,0,1,.021.032l.037.056a.143.143,0,0,0,.016.021.744.744,0,0,0,.047.071s0,0,0,0q.308.46.611.919h0l.049.075.012.015c.014.024.029.047.045.07,0,0,0,0,0,0,.053.08.105.16.158.242.029.041.055.083.084.125Zm4.129,6.482c-.67-1.086-1.357-2.182-2.041-3.257l.463-.3q1.037,1.623,2.045,3.263Zm3.938,6.6c-.639-1.1-1.291-2.22-1.945-3.315l.473-.28q.369.618.734,1.24s.006,0,.006.008c.018.028.033.056.051.085.006.008.012.021.018.029s.025.043.037.064.014.025.021.037.021.037.033.056l.023.041c.006.011.014.021.02.032.023.038.047.078.068.117.006.009.01.018.016.026s.023.043.037.065a.081.081,0,0,1,.014.022l.041.069s.006.009.008.015c.063.106.127.214.188.322,0,0,0,0,.006.006q.316.542.627,1.085Zm3.74,6.714c-.6-1.123-1.227-2.257-1.846-3.37l.48-.268q.381.683.756,1.365s0,0,0,.007c.018.033.035.066.055.1v0c.037.067.074.136.113.2a.178.178,0,0,1,.01.019c.016.027.029.055.045.08a.17.17,0,0,0,.014.026c.014.024.027.05.039.073l.018.028c.033.063.068.128.1.191.008.014.014.024.02.037s.023.042.033.063.014.025.021.038.021.039.031.06a.375.375,0,0,1,.021.038c.012.021.023.04.033.061s.023.044.037.065.02.041.031.061.021.037.031.056.014.025.02.038.021.039.031.059a.248.248,0,0,1,.02.035c.012.021.023.04.033.062l.012.021.318.588Zm3.543,6.822c-.572-1.141-1.158-2.291-1.748-3.424l.488-.254q.545,1.047,1.078,2.1a.041.041,0,0,1,.008.012c.012.024.021.046.033.069a.262.262,0,0,1,.018.032c.008.019.02.037.027.056s.021.041.031.062a.233.233,0,0,1,.016.031q.272.536.539,1.07Zm3.338,6.923c-.535-1.156-1.09-2.325-1.643-3.474l.494-.238q.51,1.056,1.01,2.117l0,0c.014.028.027.055.041.084a.05.05,0,0,0,0,.014l.1.209c.008.02.018.038.025.059a.247.247,0,0,1,.018.036l.035.072.012.025c.135.288.27.574.4.861Zm3.135,7.019c-.5-1.171-1.021-2.355-1.541-3.521l.5-.224q.785,1.759,1.545,3.527Zm2.922,7.107c-.469-1.187-.951-2.387-1.436-3.564l.51-.21c.016.037.029.073.045.11v0c.016.034.029.071.045.106,0,0,0,0,0,0,.029.069.059.141.086.21a.384.384,0,0,0,.018.042l.023.059c.006.017.014.033.02.05s.014.032.02.048.018.04.025.059a.174.174,0,0,0,.012.028c.244.6.486,1.2.727,1.8,0,0,0,.008.006.01a.6.6,0,0,0,.029.075c0,.009.008.019.01.029s.02.044.027.066.012.03.018.047a.35.35,0,0,1,.02.048l.041.1h0c.012.035.025.072.041.108a.012.012,0,0,0,0,.008c.072.186.146.37.217.554Zm2.709,7.193c-.434-1.2-.879-2.413-1.328-3.607l.514-.193.006.012c.012.032.023.065.037.1v0q.659,1.745,1.287,3.5Zm2.494,7.27c-.4-1.212-.807-2.438-1.221-3.645l.52-.179a.037.037,0,0,1,.006.018l.029.083a.271.271,0,0,0,.012.037l.023.066a.255.255,0,0,0,.016.041c.006.021.014.043.02.064a.409.409,0,0,1,.016.045.388.388,0,0,1,.018.051l.041.114a.119.119,0,0,0,.01.032c.006.021.014.045.021.066s.008.021.012.034.018.047.025.07c0,.008.006.017.008.024a.62.62,0,0,0,.027.078v.006c.041.123.084.244.125.368l0,0c.063.187.125.374.188.559a.005.005,0,0,1,0,0l.123.367s0,0,0,.008l.025.075c0,.01.006.02.01.028l.023.069.012.037c.006.021.014.041.02.063a.554.554,0,0,1,.021.064c0,.01.008.023.012.034.012.036.023.072.037.106,0,.007,0,.014,0,.021.012.029.021.059.033.089a.093.093,0,0,0,0,.021c.012.033.021.066.033.1l0,0c.088.266.176.533.262.8Zm2.277,7.341c-.359-1.224-.734-2.461-1.113-3.679l.527-.162c.131.419.258.839.387,1.26,0,0,0,.007,0,.011l.029.1s0,.013.006.019c.012.033.02.066.031.1,0,0,0,.008,0,.011.01.038.021.075.033.112,0,0,0,0,0,0,.01.035.02.067.029.1,0,.011.008.025.012.037s.014.044.02.066a.385.385,0,0,1,.014.048.311.311,0,0,1,.018.059.377.377,0,0,1,.016.047l.018.06c.006.018.01.035.016.054s.018.061.029.09.01.038.016.055.01.033.016.051.01.036.016.055.01.036.016.053a.486.486,0,0,1,.016.054l.018.053a.431.431,0,0,0,.014.051c.008.026.018.055.025.083a.128.128,0,0,1,.008.029l.029.1a.2.2,0,0,1,.008.03c.01.027.018.054.025.082a.158.158,0,0,0,.008.026c.01.03.018.062.029.092,0,0,0,.009,0,.013.07.229.137.46.2.688Zm2.061,7.405c-.322-1.233-.66-2.481-1-3.71l.529-.147c.035.129.072.26.107.39a.057.057,0,0,0,.006.015c.008.028.014.055.021.083l.006.021c.01.038.021.075.031.112l.018.066.012.039c.006.023.012.048.02.071s.006.024.01.036.014.051.02.076a.186.186,0,0,1,.01.033c.01.03.018.061.025.093a.024.024,0,0,1,0,.011c.02.077.041.153.063.229v.006c.012.034.02.069.029.1l.006.018c.008.033.018.066.027.1,0,0,0,.009,0,.013.021.076.041.152.061.228,0,0,0,0,0,0,.01.034.02.07.027.105a.14.14,0,0,1,.008.024c.008.027.014.055.021.083a.2.2,0,0,1,.01.032c.006.026.016.053.021.078a.25.25,0,0,0,.01.033c.008.032.018.065.025.1a.044.044,0,0,0,0,.008c.01.035.02.069.027.1a.342.342,0,0,0,.014.048c.006.021.012.039.016.059a.541.541,0,0,0,.014.054c.006.018.008.033.014.049s.01.04.016.061l.012.039c.023.087.045.171.068.257v0c.008.026.014.055.021.081l.006.021c.008.026.016.056.021.084,0,0,0,.007,0,.011.057.214.111.429.17.643Zm1.84,7.462c-.287-1.241-.588-2.5-.893-3.737l.535-.133c.074.295.145.591.217.887a.015.015,0,0,0,0,.009c.006.027.014.054.02.082a.067.067,0,0,1,.006.025.53.53,0,0,1,.018.073l.012.041c.006.021.008.04.014.062s.018.069.025.1l.006.026c.006.028.014.055.02.083a.193.193,0,0,1,.008.032c.008.027.014.056.021.083a.124.124,0,0,1,0,.025c.008.033.016.066.025.1,0,0,0,0,0,0,.027.117.057.233.082.351h0c.139.586.277,1.171.41,1.757Zm1.617,7.515c-.021-.117-.047-.234-.07-.352-.227-1.134-.465-2.28-.711-3.412l.539-.115c.031.141.061.283.092.424,0,.01,0,.018,0,.027a.465.465,0,0,1,.016.073.5.5,0,0,1,.014.055.267.267,0,0,0,.008.042c0,.021.01.044.014.065a.216.216,0,0,1,.008.034c0,.022.01.048.016.071,0,.008,0,.017,0,.024.006.027.012.051.018.077a.076.076,0,0,0,0,.021l.018.08a.051.051,0,0,0,0,.017c0,.028.012.057.016.084a.029.029,0,0,0,0,.011c.031.157.064.313.1.471v0c.008.027.014.054.02.082,0,.007,0,.012,0,.019.006.024.012.052.016.076a.128.128,0,0,1,.006.026c.006.022.01.045.016.066s0,.025.006.037.01.043.014.064a.227.227,0,0,0,.008.037c.006.021.01.041.014.062a.267.267,0,0,0,.008.042c0,.019.008.04.014.059a.407.407,0,0,0,.008.048c0,.016.008.035.012.052l.012.061a.424.424,0,0,0,.01.042c.006.033.012.066.02.1,0,.01,0,.018.006.025,0,.027.01.052.016.077a.2.2,0,0,1,.006.032c.006.024.01.049.016.073,0,.009,0,.02.006.03s.01.048.016.072l.006.033c0,.023.01.048.014.072a.163.163,0,0,1,.008.031c0,.024.01.047.014.07a.2.2,0,0,1,.008.035c0,.023.01.047.014.07l.006.032c.006.025.01.051.016.075,0,.009,0,.02.006.027.006.027.01.056.016.082l.006.021c.006.034.014.069.021.1.023.117.047.235.068.353Zm1.395,7.558c-.213-1.259-.439-2.531-.668-3.784l.539-.1c.031.176.064.35.1.525a.243.243,0,0,1,.008.034c0,.021.006.04.012.061s.006.041.01.061a.346.346,0,0,1,.008.044c.006.032.012.064.016.1a.017.017,0,0,1,0,.01q.267,1.479.518,2.962Zm1.168,7.6c-.176-1.264-.363-2.543-.557-3.8l.543-.084s0,.008,0,.012c.006.035.012.068.016.1v.008q.284,1.843.539,3.688Zm.943,7.629c-.139-1.269-.287-2.553-.445-3.818l.547-.067c.064.518.125,1.035.188,1.553h0c0,.039.01.079.014.119h0c.084.716.166,1.435.244,2.151Zm.719,7.652c-.1-1.272-.213-2.561-.33-3.828l.547-.053q.182,1.915.332,3.837Zm.5,7.669c-.064-1.273-.139-2.563-.221-3.836l.549-.036c0,.038,0,.076.008.113,0,.007,0,.015,0,.021l.006.085c0,.015,0,.028,0,.043s0,.041,0,.063,0,.037,0,.056,0,.026,0,.041q.108,1.711.2,3.423Zm.273,7.683c-.025-1.275-.062-2.568-.107-3.842l.551-.021c.021.624.041,1.25.059,1.874a.025.025,0,0,1,0,.012c0,.028,0,.056,0,.084v.029c0,.023,0,.051,0,.074v.043c0,.021,0,.042,0,.065s0,.044,0,.064v.043c0,.037,0,.074,0,.11v.028c0,.03,0,.061,0,.09v.025a.729.729,0,0,1,0,.092v.024c0,.031,0,.065,0,.1v.016c0,.117.006.237.008.354v0c0,.037,0,.074,0,.111v.021c0,.03,0,.061,0,.093v.029c0,.028,0,.056,0,.084v.033c0,.025,0,.051,0,.076v.059c0,.071,0,.144,0,.217Zm.6,7.69-.551,0c.008-.7.01-1.407.01-2.105,0-.576,0-1.16-.006-1.737l.551,0c0,.435,0,.871,0,1.3v.642h0C-12775.535-8689.676-12775.537-8689.042-12775.543-8688.406Zm-.172,7.7-.551-.021c.047-1.273.086-2.567.113-3.842l.551.013c0,.257-.012.517-.018.774v.02c0,.026,0,.053,0,.081v.035c0,.023,0,.047,0,.069s0,.047,0,.069v.037c0,.039,0,.077,0,.114v.01c0,.036,0,.072,0,.107v.017a.891.891,0,0,1,0,.1v.015c0,.037,0,.073,0,.108v.007c-.006.158-.008.315-.014.473v.016c0,.033,0,.065,0,.1,0,.008,0,.015,0,.024,0,.03,0,.061,0,.09v.026c0,.031,0,.062,0,.091a.124.124,0,0,0,0,.026c0,.036,0,.072,0,.108,0,.02,0,.04,0,.059v.05c0,.023,0,.049,0,.071v.036c0,.027,0,.053,0,.079v.021C-12775.691-8681.382-12775.7-8681.044-12775.715-8680.706Zm-.4,7.691-.549-.036c.084-1.271.16-2.562.227-3.836l.551.028c-.01.159-.02.32-.027.479v0c0,.036,0,.071-.006.108v.02c0,.029,0,.059,0,.089a.162.162,0,0,0,0,.032c0,.026,0,.052,0,.078l-.006.136h0c0,.028,0,.055-.006.081a.124.124,0,0,1,0,.027c0,.026,0,.056,0,.083a.073.073,0,0,1,0,.021c0,.03,0,.06,0,.091,0,0,0,0,0,.008-.035.643-.074,1.288-.115,1.929v.006C-12776.086-8673.451-12776.1-8673.231-12776.113-8673.015Zm-.621,7.678-.549-.052c.123-1.27.236-2.558.338-3.828l.549.044v.006c0,.036-.006.073-.008.112l0,0c-.068.838-.139,1.674-.217,2.511v.028c0,.026-.006.053-.01.08a.463.463,0,0,1,0,.054.445.445,0,0,0,0,.05c0,.023-.006.048-.008.07a.163.163,0,0,1,0,.03C-12776.678-8665.931-12776.705-8665.634-12776.734-8665.337Zm-.844,7.655-.547-.068c.158-1.266.311-2.548.449-3.817l.547.062c-.033.316-.07.633-.105.95a.2.2,0,0,0,0,.034c0,.025-.008.051-.01.076a.318.318,0,0,1-.006.044l-.006.066a.423.423,0,0,1-.008.049l-.006.063-.006.05-.006.063a.425.425,0,0,0-.006.051c-.006.034-.01.068-.014.1a.215.215,0,0,1,0,.036c0,.025-.006.051-.008.074l-.006.047c0,.022-.006.045-.008.067l-.006.043c0,.024-.006.051-.008.074a.189.189,0,0,1-.006.035c0,.031-.006.063-.01.093a.057.057,0,0,1,0,.018Q-12777.467-8658.575-12777.578-8657.682Zm-1.07,7.628-.543-.083c.2-1.259.385-2.539.563-3.8l.543.077c0,.021-.006.043-.008.063v0c-.092.638-.182,1.272-.275,1.908a.007.007,0,0,1,0,.006c0,.032-.008.063-.014.1v.007c-.006.033-.01.063-.016.1v0l-.059.393s0,.008,0,.012c0,.027-.008.059-.012.088,0,0,0,.012,0,.017,0,.028-.01.059-.014.087v.015C-12778.543-8650.732-12778.594-8650.393-12778.648-8650.054Zm-1.293,7.593-.541-.1c.232-1.254.459-2.525.674-3.784l.543.093-.141.82-.006.026c-.006.026-.01.051-.014.075a.423.423,0,0,1-.008.049c0,.017-.006.035-.01.053a.358.358,0,0,1-.012.062.048.048,0,0,1,0,.017Q-12779.691-8643.8-12779.941-8642.461Zm-1.52,7.552-.537-.117c.271-1.247.535-2.513.785-3.761l.539.108q-.29,1.449-.6,2.894h0c-.008.032-.014.064-.021.1v0l-.082.384v0c-.008.029-.014.059-.02.088a.151.151,0,0,1,0,.015C-12781.418-8635.1-12781.439-8635.007-12781.461-8634.909Zm-1.742,7.5-.535-.132c.309-1.239.609-2.5.9-3.737l.535.125c-.027.115-.053.231-.08.346,0,0,0,0,0,.008l-.023.107a.017.017,0,0,0,0,.01c-.01.037-.018.074-.025.11a.119.119,0,0,0-.006.025c-.008.026-.014.053-.02.08a.369.369,0,0,0-.01.045c-.006.021-.012.043-.016.063l-.012.049c0,.02-.008.039-.014.059l-.012.048-.018.073-.012.055c-.006.027-.014.055-.02.083a.355.355,0,0,0-.01.044c-.006.022-.012.044-.016.064a.351.351,0,0,0-.012.043c-.006.024-.01.047-.016.069a.2.2,0,0,1-.01.038c-.006.031-.014.061-.021.09a.041.041,0,0,1,0,.016c-.018.077-.035.153-.055.229v.009c-.01.035-.018.07-.027.1,0,0,0,.01,0,.013q-.126.523-.254,1.046a.006.006,0,0,1,0,0c-.008.034-.016.07-.025.1,0,.006,0,.011,0,.015-.01.033-.018.068-.025.1,0,0,0,.008,0,.012-.008.036-.018.072-.025.108a.587.587,0,0,0-.014.06l-.012.037c-.008.028-.014.058-.021.085a.015.015,0,0,1,0,.01C-12783.156-8627.6-12783.18-8627.5-12783.2-8627.407Zm-1.965,7.447-.531-.147c.346-1.229.684-2.477,1.008-3.71l.531.141v.007c-.01.035-.018.069-.029.1a.137.137,0,0,1-.006.027.768.768,0,0,1-.023.083.144.144,0,0,1-.008.029c-.006.029-.014.059-.021.086l-.006.021c-.01.033-.018.066-.025.1a.025.025,0,0,0,0,.011c-.021.076-.043.151-.062.229v0c-.01.037-.021.073-.031.11a.019.019,0,0,1,0,.01c-.008.034-.02.07-.027.106a.011.011,0,0,0,0,.008l-.094.344v0l-.029.106a.082.082,0,0,0,0,.014c-.01.034-.02.07-.027.106,0,0,0,0,0,0-.031.113-.062.226-.092.339l-.006.019c-.008.032-.018.063-.025.094a.109.109,0,0,1-.006.022c-.008.03-.016.061-.025.092,0,.007,0,.012,0,.019-.021.073-.041.146-.061.221a.1.1,0,0,0-.006.024l-.023.083c0,.01-.006.023-.01.032a.52.52,0,0,0-.02.079.25.25,0,0,0-.012.031l-.023.09a.08.08,0,0,1-.006.019c-.01.035-.018.071-.029.108,0,.007-.006.018-.008.025-.006.026-.014.054-.021.081a.286.286,0,0,0-.01.039c-.008.022-.014.047-.02.069a.27.27,0,0,0-.012.04c-.006.023-.014.049-.02.074l-.012.033c-.008.034-.018.067-.027.1a0,0,0,0,1,0,0l-.029.11a.063.063,0,0,0,0,.019c-.01.03-.018.062-.027.092,0,.008-.006.016-.008.025l-.023.088-.006.021-.029.1Zm-2.186,7.387-.525-.165c.379-1.217.756-2.454,1.117-3.676l.527.154q-.372,1.266-.76,2.527a.068.068,0,0,1-.008.02l-.023.083-.012.033c-.008.021-.012.043-.02.063C-12787.154-8613.214-12787.254-8612.893-12787.354-8612.573Zm-2.4,7.318-.521-.18c.416-1.206.828-2.432,1.225-3.642l.523.17c-.383,1.168-.775,2.337-1.176,3.5a.057.057,0,0,1-.006.015c-.006.021-.012.043-.02.064l-.018.048A.118.118,0,0,0-12789.754-8605.255Zm-2.617,7.244-.518-.2c.453-1.19.9-2.4,1.334-3.6l.52.186c-.209.576-.418,1.148-.631,1.724h0c-.033.084-.062.167-.094.253-.006.011-.008.022-.014.034a.6.6,0,0,1-.021.059.489.489,0,0,0-.018.049.454.454,0,0,1-.02.051.5.5,0,0,1-.021.058.409.409,0,0,1-.016.045c-.014.033-.025.066-.039.1v0c-.014.033-.025.066-.037.1a.1.1,0,0,0-.012.025l-.029.081a.129.129,0,0,0-.01.029c-.012.025-.021.052-.031.078a.162.162,0,0,1-.01.028c-.014.033-.025.064-.037.1,0,0,0,0,0,0l-.041.109-.006.016c-.012.029-.023.059-.033.088l-.012.033c-.01.022-.018.047-.027.07s-.01.027-.014.039-.018.045-.025.066a.3.3,0,0,1-.016.041l-.023.063c-.014.033-.025.066-.039.1l-.012.031c-.01.025-.018.049-.027.072a.122.122,0,0,1-.01.026C-12792.365-8598.031-12792.367-8598.021-12792.371-8598.011Zm-2.834,7.161-.508-.209c.484-1.178.969-2.377,1.439-3.563l.512.2Q-12794.471-8592.627-12795.205-8590.85Zm-3.043,7.076-.5-.227c.523-1.162,1.043-2.347,1.547-3.518l.506.218c-.23.532-.461,1.064-.7,1.6l-.006.018c-.012.025-.023.05-.033.074,0,.007-.006.014-.008.02-.033.071-.064.143-.1.215-.006.016-.014.032-.02.048a.515.515,0,0,0-.021.048c-.008.019-.018.037-.025.056a.315.315,0,0,1-.02.041.465.465,0,0,1-.029.068.188.188,0,0,1-.014.032c-.031.07-.062.141-.092.21l0,0C-12797.922-8584.5-12798.086-8584.14-12798.248-8583.773Zm-3.254,6.98-.5-.239c.557-1.147,1.111-2.315,1.65-3.471l.5.231Q-12800.664-8578.527-12801.5-8576.793Zm-3.457,6.884-.488-.255c.588-1.131,1.178-2.283,1.748-3.422l.494.247-.352.7a.337.337,0,0,0-.023.046l-.018.035c-.014.023-.023.046-.035.068a.281.281,0,0,1-.016.028c-.012.028-.029.058-.043.087,0,0,0,0,0,.007Q-12804.319-8571.137-12804.959-8569.909Zm-3.66,6.776-.48-.268c.621-1.113,1.244-2.247,1.852-3.369l.484.263-.2.367s0,0,0,0l-.17.313c-.008.012-.014.024-.021.036s-.018.034-.027.052a.434.434,0,0,0-.025.047c-.008.016-.018.03-.025.046s-.021.038-.029.057a.387.387,0,0,0-.021.039c-.018.032-.035.063-.051.094-.006.008-.008.015-.014.021-.014.026-.027.05-.041.077l-.018.031c-.012.021-.023.044-.037.067a.352.352,0,0,1-.02.034c-.012.022-.025.048-.037.072a.124.124,0,0,0-.012.022c-.039.064-.074.132-.109.2a.127.127,0,0,0-.014.025c-.016.023-.027.048-.041.071a.187.187,0,0,1-.016.031c-.014.023-.025.048-.039.07a.169.169,0,0,0-.016.029c-.018.029-.033.059-.049.088l-.006.009c-.018.032-.037.065-.055.1l-.012.022c-.014.025-.029.051-.041.076l-.018.029c-.012.023-.025.048-.039.07l-.016.028c-.016.029-.031.057-.045.086a.107.107,0,0,1-.01.011c-.018.035-.037.068-.053.1,0,0-.006.009-.01.013-.014.028-.029.057-.045.084-.006.01-.01.018-.014.025-.016.025-.029.052-.045.078,0,.009-.008.014-.012.021-.055.1-.113.2-.168.307l0,0C-12808.463-8563.411-12808.541-8563.271-12808.619-8563.133Zm-3.855,6.668-.475-.282c.654-1.094,1.313-2.209,1.949-3.312l.477.273c-.115.2-.23.4-.348.6a.03.03,0,0,1,0,.007l-.035.06-.023.042c-.008.013-.02.029-.027.044s-.023.043-.037.064a.2.2,0,0,1-.016.027Q-12811.735-8557.7-12812.475-8556.465Zm-4.053,6.551-.465-.3c.688-1.074,1.377-2.168,2.047-3.253l.469.29q-.568.917-1.145,1.83l-.016.025c-.014.021-.027.043-.039.064a.345.345,0,0,0-.025.04c-.01.016-.021.031-.031.048l-.031.049-.018.029c-.047.073-.092.146-.139.22a0,0,0,0,0,0,0Q-12816.224-8550.39-12816.527-8549.914Zm-4.242,6.427-.455-.309c.668-.98,1.338-1.979,1.99-2.966.051-.076.1-.15.15-.225l.459.3c-.037.056-.074.111-.111.169l-.037.057h0c-.021.031-.041.062-.061.092a.032.032,0,0,1-.008.009c-.018.027-.037.056-.053.084a.017.017,0,0,0-.008.009c-.018.028-.037.058-.055.085l0,0Q-12819.854-8544.827-12820.77-8543.487Zm-4.432,6.3-.445-.323c.748-1.033,1.5-2.084,2.234-3.127l.449.316c-.016.021-.029.043-.045.063,0,0,0,0,0,.006-.018.023-.033.049-.051.074l-.006.007Q-12824.123-8538.671-12825.2-8537.187Zm-4.615,6.167-.436-.336c.779-1.011,1.563-2.04,2.326-3.06l.438.329c-.2.275-.412.551-.619.824a.2.2,0,0,1-.021.029.313.313,0,0,1-.029.039l-.039.053a.254.254,0,0,1-.025.031.835.835,0,0,1-.053.071l-.01.015Q-12829.047-8532.019-12829.816-8531.02Zm-4.793,6.029-.426-.349c.809-.986,1.621-1.992,2.414-2.991l.43.344q-1.2,1.5-2.412,2.991Zm-4.967,5.887-.416-.36c.838-.962,1.68-1.944,2.5-2.92l.42.355Q-12838.315-8520.555-12839.576-8519.1Zm-5.137,5.739-.4-.373c.863-.937,1.732-1.894,2.584-2.845l.41.367q-.48.538-.963,1.07l-.012.012-.064.072a.156.156,0,0,0-.016.019c-.02.022-.041.044-.059.064a.134.134,0,0,0-.02.021c-.025.026-.051.055-.076.083l0,0c-.021.025-.045.049-.068.075l-.031.035c-.014.013-.027.029-.041.044s-.023.026-.037.041-.021.022-.031.034-.029.032-.043.049a.094.094,0,0,0-.014.015l-.18.2s-.006.006-.006.008Zm-5.3,5.586-.393-.385c.09-.093.182-.187.273-.279.8-.819,1.6-1.656,2.393-2.487l.4.378-.07.076-.012.011c-.02.021-.039.042-.061.063a.131.131,0,0,0-.016.019c-.02.019-.037.037-.055.057a.138.138,0,0,1-.021.02c-.016.019-.033.037-.049.055l-.025.025c-.016.016-.031.031-.047.049a.3.3,0,0,1-.023.025.6.6,0,0,0-.049.051l-.023.025a.7.7,0,0,0-.053.057c-.008.006-.014.013-.02.018-.021.024-.045.048-.068.072a.325.325,0,0,0-.035.038l-.035.035c-.01.013-.025.026-.037.039l-.033.035-.035.037-.037.037a.438.438,0,0,0-.035.039l-.033.033-.039.041-.031.032-.041.041c-.008.011-.018.02-.025.029s-.029.029-.043.045l-.023.024c-.053.053-.105.108-.158.162-.008.011-.018.02-.025.029l-.039.038c-.012.013-.023.023-.033.036s-.025.025-.037.039l-.033.033-.037.038a.362.362,0,0,0-.033.036c-.014.014-.027.026-.039.04a.364.364,0,0,0-.033.034l-.037.036c-.012.014-.025.026-.037.039l-.035.037-.035.036a.3.3,0,0,1-.035.035c-.012.014-.025.027-.037.04l-.061.063-.043.044-.029.031-.041.041c-.01.011-.021.023-.033.034l-.039.04-.033.035a.453.453,0,0,0-.037.038l-.033.033-.041.044-.031.031c-.014.013-.027.029-.041.042l-.029.03c-.016.017-.033.034-.047.05l-.023.023c-.025.025-.049.05-.072.075h0c-.029.027-.057.056-.084.084l-.137.14C-12849.979-8507.815-12850-8507.8-12850.016-8507.778Zm-5.465,5.428-.383-.4c.92-.886,1.844-1.791,2.748-2.687l.387.39-.033.033c-.014.014-.025.026-.041.04s-.021.021-.033.032l-.047.049-.029.028c-.021.021-.041.041-.062.061l-.014.014-.162.162a.112.112,0,0,1-.016.014l-.066.066-.018.018c-.021.022-.047.045-.068.067a.045.045,0,0,0-.012.012c-.055.054-.109.106-.162.16-.006.007-.014.012-.02.018s-.039.039-.061.06l-.025.025c-.018.019-.037.036-.055.053s-.016.019-.025.027l-.061.058-.045.044-.047.047-.041.041a.314.314,0,0,0-.031.031l-.051.048-.023.023c-.086.086-.174.171-.262.256h0C-12854.65-8503.154-12855.066-8502.751-12855.48-8502.351Zm-5.623,5.264-.371-.406c.945-.859,1.895-1.734,2.826-2.606l.375.4c-.059.053-.117.107-.174.162l0,0-.086.08h0l-.262.243s0,0-.006.007c-.027.023-.055.051-.082.076l0,0c-.088.079-.172.161-.26.242,0,0-.006,0-.008,0-.025.025-.053.05-.08.074l-.006.007c-.086.08-.174.16-.262.24,0,0,0,0,0,.006-.029.025-.055.051-.082.076l-.006,0-.262.242h0Q-12860.479-8497.652-12861.1-8497.087Zm-5.773,5.1-.359-.416c.969-.831,1.945-1.68,2.9-2.523l.363.413Q-12865.414-8493.241-12866.877-8491.989Zm-5.922,4.929-.346-.429c.994-.8,1.992-1.62,2.973-2.437l.352.423-.023.021-.035.028-.047.041a.2.2,0,0,0-.027.021c-.039.031-.074.063-.115.095a.066.066,0,0,0-.012.012c-.02.015-.037.03-.057.046l-.027.021-.055.048a.171.171,0,0,0-.02.016q-1.028.853-2.062,1.691l-.018.015-.037.03c-.02.015-.037.031-.057.047a.129.129,0,0,0-.021.018C-12872.557-8487.258-12872.676-8487.159-12872.8-8487.061Zm-6.061,4.752-.334-.438c1.018-.771,2.039-1.562,3.043-2.349l.34.433-.006.006-.078.061-.02.017c-.023.016-.045.034-.066.051l-.027.021-.076.061-.049.037c-.014.011-.025.021-.039.03s-.037.031-.057.044l-.023.019c-.021.018-.043.033-.062.05l-.008.006q-1.061.828-2.127,1.642l-.006.006-.057.042-.039.03c-.012.009-.025.018-.035.026l-.076.058-.006,0Zm-6.2,4.573-.32-.448c1.037-.741,2.084-1.5,3.109-2.259l.326.442c-.271.2-.545.4-.818.6l-.029.02c-.018.014-.033.027-.053.04l-.037.027c-.016.01-.031.022-.047.034s-.033.024-.049.036-.043.03-.064.046l-.055.04-.045.032-.043.032-.043.031c-.016.011-.031.023-.049.034l-.041.031c-.018.012-.029.022-.047.033l-.084.062-.035.026c-.018.012-.035.024-.051.037a.364.364,0,0,0-.037.027c-.018.012-.035.023-.053.037s-.02.015-.029.022-.041.028-.059.041l-.014.011Q-12884.388-8478.216-12885.057-8477.735Zm-6.33,4.387-.307-.456c1.059-.712,2.127-1.439,3.174-2.166l.313.452q-.639.442-1.283.884a.137.137,0,0,1-.018.012c-.023.018-.049.033-.072.051l-.029.019-.064.044-.029.021-.074.05-.018.013-.088.06-.033.022c-.02.012-.037.025-.059.039a.359.359,0,0,1-.037.026c-.018.013-.037.023-.055.037l-.037.025-.062.041c-.008.007-.02.015-.029.021l-.088.059-.029.02-.062.044a.251.251,0,0,0-.031.021l-.07.047c-.008,0-.012.009-.02.013Q-12890.941-8473.648-12891.387-8473.349Zm-6.459,4.2-.293-.466c1.08-.68,2.17-1.376,3.238-2.07l.3.461c-.117.074-.234.151-.35.226-.01.007-.021.014-.031.021s-.037.021-.053.033-.029.019-.045.028-.029.02-.043.029-.033.022-.053.033a.389.389,0,0,0-.039.026l-.086.055c-.014.009-.027.017-.039.025l-.055.035c-.014.009-.029.018-.043.027l-.049.031-.043.028-.051.033-.043.026c-.029.019-.057.037-.084.057a.34.34,0,0,0-.043.026l-.047.029-.053.034-.039.024c-.016.012-.035.023-.053.034l-.033.021-.059.037,0,0-.238.151a.017.017,0,0,1-.008.006l-.076.049-.006,0C-12896.855-8469.775-12897.352-8469.462-12897.846-8469.15Zm-6.578,4.007-.279-.474c1.1-.648,2.209-1.312,3.3-1.977l.287.472q-1.594.968-3.2,1.916l-.02.012a.74.74,0,0,0-.066.039Zm-6.691,3.811-.266-.481c1.117-.615,2.244-1.247,3.354-1.878l.271.479c-.033.019-.066.038-.1.057l-.01.007-.082.046-.035.02a.491.491,0,0,1-.055.03c-.016.011-.031.019-.049.028l-.027.018c-.078.042-.154.086-.229.129h0c-.307.173-.613.348-.922.521l-.014.008c-.025.014-.051.026-.074.04l-.02.012-.2.11-.055.029c-.012.009-.025.015-.039.023l-.062.035-.029.017-.088.048-.008,0Q-12910.482-8461.68-12911.115-8461.333Zm-6.8,3.614-.25-.49c1.135-.581,2.281-1.18,3.408-1.777l.256.485q-1.093.583-2.2,1.154l-.016.008-.066.034-.031.017-.059.03-.043.022-.051.025c-.031.016-.061.032-.094.048a.17.17,0,0,1-.018.011c-.029.015-.057.028-.082.043l-.023.011-.084.044a.063.063,0,0,0-.016.009C-12917.494-8457.936-12917.707-8457.828-12917.92-8457.719Zm-6.9,3.41-.236-.5c1.15-.547,2.313-1.11,3.457-1.676l.244.494c-.285.141-.572.28-.857.422a.03.03,0,0,0-.012,0l-.092.045-.014.007c-.035.016-.066.032-.1.05l-.035.016-.059.029-.055.026-.041.021-.059.029c-.01,0-.021.009-.031.015-.109.053-.217.1-.324.158,0,0,0,0-.006,0l-.084.04,0,0Q-12923.977-8454.713-12924.824-8454.309Zm-7,3.2-.223-.5c.439-.191.881-.388,1.316-.583.727-.324,1.465-.657,2.191-.988l.229.5a.106.106,0,0,0-.014,0c-.039.019-.08.038-.119.055l-.006,0q-.955.437-1.916.865l-.01,0c-.02.01-.039.018-.059.025l-.072.033Zm-7.1,2.994-.205-.51c1.184-.479,2.377-.973,3.551-1.468l.213.507Q-12937.14-8448.833-12938.926-8448.11Zm-7.182,2.781-.191-.516c1.2-.442,2.406-.9,3.6-1.36l.2.512-.377.147a.007.007,0,0,0-.006,0l-.088.033-.006,0c-.041.016-.082.031-.121.048l-.064.023-.035.014c-.025.009-.049.019-.074.029l-.029.009-.086.033a.054.054,0,0,1-.016.007Q-12944.755-8445.829-12946.107-8445.329Zm-7.264,2.567-.174-.52c1.207-.409,2.432-.831,3.631-1.255l.184.519-1.133.4h0l-.1.034-.037.013-.062.022a.388.388,0,0,0-.051.018l-.043.015-.064.022-.008,0-.271.095h0c-.309.108-.621.215-.932.319,0,0,0,0,0,0-.021.006-.043.015-.064.022l-.047.015a.448.448,0,0,1-.047.017c-.023.009-.045.015-.066.023l-.035.01C-12952.92-8442.913-12953.145-8442.836-12953.371-8442.762Zm-7.332,2.354-.162-.526c1.221-.371,2.455-.757,3.67-1.146l.168.524-.279.089h0l-.092.028a.028.028,0,0,1-.012,0l-.141.045-.039.013-.041.013-.07.022-.035.011-.078.025-.025.008-.1.032h-.006q-.917.29-1.836.574l-.008,0-.1.031c-.008,0-.012,0-.018,0l-.094.029-.018.006-.219.066a.187.187,0,0,1-.031.009c-.025.008-.049.017-.074.022s-.027.01-.043.014l-.061.019-.049.015-.055.018-.053.016-.045.014Zm-7.4,2.134-.146-.531c1.23-.334,2.477-.684,3.7-1.036l.152.528c-.385.11-.768.221-1.154.33l-.01,0-.094.026-.029.008-.076.022-.039.011-.068.019-.082.024a.385.385,0,0,0-.051.015c-.025.006-.049.012-.07.019a.187.187,0,0,1-.031.009l-.076.021a.069.069,0,0,1-.021,0c-.5.142-.994.278-1.494.416l-.025.008c-.025,0-.047.012-.07.019l-.045.012-.053.015c-.033.008-.062.016-.094.025,0,0-.006,0-.008,0C-12968.027-8438.3-12968.066-8438.285-12968.1-8438.274Zm-7.461,1.913-.129-.534c1.238-.3,2.494-.609,3.729-.927l.137.532c-.541.139-1.08.277-1.623.411l-.027.007-.078.021-.041.009-.062.017-.047.012-.053.012c-.047.014-.094.024-.141.036h-.006l-.084.021-.018,0-.086.021h-.008C-12974.59-8436.6-12975.076-8436.478-12975.564-8436.361Zm-7.516,1.69-.111-.538c1.248-.262,2.512-.536,3.754-.815l.123.536-.117.027h0c-.039.009-.076.017-.113.026h-.006l-.459.1a.2.2,0,0,0-.023,0l-.086.021-.031.006-.078.018-.035.008-.082.018-.031.007-.1.022-.053.012-.053.012-.062.014-.045.01-.066.015-.035.008-.072.016-.02,0Q-12981.982-8434.9-12983.08-8434.671Zm-7.561,1.466-.1-.542c1.256-.224,2.525-.461,3.777-.7l.105.54c-.609.117-1.219.234-1.828.348l-.027,0-.07.014-.047.008-.057.011-.072.014-.033.006-.23.043h0l-.117.021h0c-.434.08-.865.158-1.3.235Zm-7.6,1.24-.082-.544c1.264-.187,2.541-.386,3.8-.591l.09.543-.143.022-.021,0-.08.014-.111.018h-.006Q-12996.519-8432.218-12998.242-8431.965Zm-7.635,1.019-.064-.547c1.266-.149,2.547-.312,3.813-.479l.072.546-.539.07h-.014c-.029.006-.059.009-.088.013l-.018,0-.088.013h-.012l-.293.038h0l-.082.011-.027,0-.076.01c-.01,0-.021,0-.031,0l-.074.011a.242.242,0,0,0-.035,0c-.023,0-.049.007-.074.009l-.02,0-.16.02-.025,0-.064.008-.047,0-.059.008-.051.006-.059.008-.057.007-.053.007-.07.009-.039.006-.109.013a.225.225,0,0,1-.025,0l-.088.012c-.01,0-.021,0-.033,0l-.082.011-.029,0c-.031,0-.061.007-.09.012l-.021,0Zm-3.885-.123.055.547c-.395.042-.789.081-1.186.121l-.027,0-.086.008-.033,0C-13011.066-8430.384-13011.031-8430.937-13009.762-8431.069Z" transform="translate(13011.044 8950.476)" fill="url(#linear-gradient)"/>
</svg>
