<svg xmlns="http://www.w3.org/2000/svg" viewBox="0 0 41.53 37.63"><defs><style>.cls-1{fill:#f64a19;}</style></defs><title>Asset 3</title><g id="Layer_2" data-name="Layer 2"><g id="Layer_1-2" data-name="Layer 1"><path class="cls-1" d="M37.22,3.9a2.31,2.31,0,1,0,2.31,2.31A2.31,2.31,0,0,0,37.22,3.9m1.24,2.31a1.22,1.22,0,0,1-.07.42L36.81,5A1.23,1.23,0,0,1,37.22,5,1.24,1.24,0,0,1,38.47,6.21ZM36,6.21a1.25,1.25,0,0,1,.07-.42l1.59,1.58a1.23,1.23,0,0,1-.42.07A1.24,1.24,0,0,1,36,6.21"/><path class="cls-1" d="M37.22,11.26a2.31,2.31,0,1,0,2.31,2.31,2.31,2.31,0,0,0-2.31-2.31m1.24,2.31a1.23,1.23,0,0,1-.07.42L36.81,12.4a1.23,1.23,0,0,1,.42-.07,1.24,1.24,0,0,1,1.24,1.24Zm-2.48,0a1.24,1.24,0,0,1,.07-.42l1.59,1.58a1.23,1.23,0,0,1-.42.07A1.24,1.24,0,0,1,36,13.57Z"/><path class="cls-1" d="M37.22,18.71A2.31,2.31,0,1,0,39.53,21a2.31,2.31,0,0,0-2.31-2.31m0,1.07a1.24,1.24,0,0,1,1.12.71H36.1A1.24,1.24,0,0,1,37.22,19.78Zm0,2.48a1.24,1.24,0,0,1-1.12-.71h2.24A1.24,1.24,0,0,1,37.22,22.26Z"/><path class="cls-1" d="M37.22,26.08a2.31,2.31,0,1,0,2.31,2.31,2.31,2.31,0,0,0-2.31-2.31m0,1.07a1.24,1.24,0,0,1,1.12.71H36.1A1.24,1.24,0,0,1,37.22,27.14Zm0,2.48a1.24,1.24,0,0,1-1.12-.71h2.24A1.24,1.24,0,0,1,37.22,29.62Z"/><path class="cls-1" d="M39.22,0H2.31A2.3,2.3,0,0,0,0,2.29v30a2.33,2.33,0,0,0,2.31,2.34H5.12l0,.49a2.33,2.33,0,0,0,2.29,2.53H26.62a2.33,2.33,0,0,0,2.3-2.53l0-.49h4.59a.53.53,0,0,0,.53-.53v-33h5.24a1.24,1.24,0,0,1,1.24,1.24v30a1.24,1.24,0,0,1-1.24,1.24H38.15a.53.53,0,1,0,0,1.06h1.07a2.31,2.31,0,0,0,2.31-2.31v-30A2.31,2.31,0,0,0,39.22,0ZM25.56,18.9v-.44a.54.54,0,0,0,0-.14c-.12-1.43-2.87-2.24-6-2.52l9.42-9.43V10.2l-3,3a.53.53,0,0,0,.75.75l2.24-2.24v3.82Zm-19,1.29-.2,2-1.3,1.31v-3.9L8.67,16a.53.53,0,0,0-.75-.75L5.06,18.12V14.3l9.22-9.23H18.1l-6.35,6.36a.53.53,0,0,0,.75.75l7.1-7.11h3.82l-10.94,11c-2.27.41-4,1.16-4,2.3a.55.55,0,0,0,0,.1v.44H8A1.42,1.42,0,0,0,6.57,20.19ZM28.74,5.06,18.09,15.72a29,29,0,0,0-3.88.11L24.92,5.06ZM9.5,19.82c1.68,1,5,1.33,7.49,1.33s5.82-.38,7.5-1.33v2.79a1.53,1.53,0,0,1-1.09,1.45,22,22,0,0,1-6.41.87,22,22,0,0,1-6.4-.87A1.53,1.53,0,0,1,9.5,22.61ZM12.78,5.06,5.06,12.79V5.06ZM5.63,29.55H5.06V25L6.19,23.9Zm.56,5.09,0-.47v0L7.63,20.31A.37.37,0,0,1,8,20h.45v2.64a2.45,2.45,0,0,0,0,.31,2.57,2.57,0,0,0-.69,1.68c0,1.23,1,2.35,2.87,3.15A16.47,16.47,0,0,0,17,28.9a16.65,16.65,0,0,0,6.26-1.1.53.53,0,0,0-.41-1,15.56,15.56,0,0,1-5.84,1c-4.81,0-8.16-1.71-8.16-3.24a1.21,1.21,0,0,1,.1-.48,2.64,2.64,0,0,0,1.33,1A23.07,23.07,0,0,0,17,26a23.1,23.1,0,0,0,6.73-.92,2.59,2.59,0,0,0,1.84-2.47V20H26a.37.37,0,0,1,.35.34l1.39,13.82v0l0,.47Zm22.17-5.09-.94-9.37a1.41,1.41,0,0,0-.61-1L28.93,17V29.55Z"/><path class="cls-1" d="M36.42,34.06a.62.62,0,1,1-.62-.62.62.62,0,0,1,.62.62"/><path class="cls-1" d="M25.33,26a.62.62,0,1,1-.62-.62.62.62,0,0,1,.62.62"/><path class="cls-1" d="M11.45,13.39a.62.62,0,1,1-.62-.62.62.62,0,0,1,.62.62"/><path class="cls-1" d="M25.63,15.05a.62.62,0,1,1-.62-.62.62.62,0,0,1,.62.62"/></g></g></svg>