<svg xmlns="http://www.w3.org/2000/svg" viewBox="0 0 44.25 39.67"><defs><style>.cls-1,.cls-2{fill:#afafaf;}.cls-1{fill-rule:evenodd;}</style></defs><title>scooter-gray</title><g id="Layer_2" data-name="Layer 2"><g id="Layer_1-2" data-name="Layer 1"><path class="cls-1" d="M21.36,29.75a6.86,6.86,0,0,0-6.86-6.86H10.68a6.86,6.86,0,0,0-6.86,6.86V32.8a.76.76,0,0,0,.76.76h16a.76.76,0,0,0,.76-.76Zm-1.52,0V32H5.34V29.75a5.34,5.34,0,0,1,5.34-5.34h3.81A5.34,5.34,0,0,1,19.83,29.75Z"/><path class="cls-1" d="M9.91,19.83H28.26a.78.78,0,0,0,.73-.77v-.75a4.58,4.58,0,0,0-4.58-4.58H13.73a4.58,4.58,0,0,0-4.58,4.58v.75Zm17.55-1.53H10.68a3.05,3.05,0,0,1,3.05-3.05H24.41A3.05,3.05,0,0,1,27.46,18.31Z"/><path class="cls-1" d="M39.67,6.1a.76.76,0,0,0-.76-.76H34.33A2.29,2.29,0,0,0,32,7.63V9.16a2.29,2.29,0,0,0,2.29,2.29h4.58a.76.76,0,0,0,.76-.76Z"/><path class="cls-1" d="M38.91,10.68h3.81a.76.76,0,0,0,.76-.76V6.87a.76.76,0,0,0-.76-.76H38.91V7.63H42V9.15H38.91Z"/><path class="cls-1" d="M32.8,7.63V9.15H28.23a.76.76,0,1,1,0-1.53Z"/><path class="cls-1" d="M43.76,30.55a.76.76,0,0,0,0-1.08A6.87,6.87,0,0,0,32,34.33a.76.76,0,0,0,.76.76h6.1a.76.76,0,0,0,.54-.22Zm-1.66-.5-3.51,3.51h-5a5.34,5.34,0,0,1,8.48-3.51"/><path class="cls-1" d="M16,11.45H2.29V4.58H16ZM6.1,7.63a.76.76,0,1,0,.76.76.76.76,0,0,0-.76-.76m6.1,0H9.15a.76.76,0,1,0,0,1.53h3.05a.76.76,0,0,0,0-1.53"/><path class="cls-1" d="M.76,12.21H17.55a.76.76,0,0,0,0-1.53H.76a.76.76,0,1,0,0,1.53"/><path class="cls-1" d="M1.75,12,9,19.23a.76.76,0,1,0,1.08-1.08L2.83,10.9Z"/><rect class="cls-2" x="0.76" width="16.78" height="3.05" rx="0.76" ry="0.76"/><path class="cls-1" d="M38.91,28.23l.68-2a15.26,15.26,0,0,0,0-9.65L37.38,9.92H34.33V23.65a6.1,6.1,0,0,1-6.1,6.1h-.76a3.81,3.81,0,0,1-3.81-3.81V22.12a3.05,3.05,0,0,1,3.05-3.05h-16l-1.14-.4s-.56.47-.82.73A8.92,8.92,0,0,0,6.1,25.7h0a6.09,6.09,0,0,1,4.58-2.07h3.81a6.1,6.1,0,0,1,6.1,6.1V32.8H33A6.11,6.11,0,0,1,38.91,28.23Z"/><path class="cls-1" d="M14.67,32.8h3.41a5.34,5.34,0,1,1-10.24,0h3.41a2.29,2.29,0,1,0,3.41,0Z"/><path class="cls-1" d="M40.52,32.71l2.16-2.16a5.34,5.34,0,1,1-9.11,3.78h3.05a2.29,2.29,0,1,0,3.91-1.62Z"/></g></g></svg>