<svg id="aws-rds" xmlns="http://www.w3.org/2000/svg" width="14.362" height="16.186" viewBox="0 0 14.362 16.186">
  <path id="Path_10054" data-name="Path 10054" d="M0,39.609l1.681,1.971.151-.18V28.8l-.151-.19L0,30.575v9.034" transform="translate(0 -27)" fill="#b81a1a"/>
  <path id="Path_10055" data-name="Path 10055" d="M29.976,14.579l3.213,1.606.134-.215,0-15.8L33.191,0,29.976,1.6V14.579" transform="translate(-28.294)" fill="#981f1f"/>
  <path id="Path_10056" data-name="Path 10056" d="M224.537,30.575l-1.682-1.97-.188.06.037,12.754.151.161,1.682-1.97V30.575" transform="translate(-210.175 -27)" fill="#de1414"/>
  <path id="Path_10057" data-name="Path 10057" d="M166.154,16.186l3.213-1.606V1.6L166.152,0,166,.206l0,15.746.152.234" transform="translate(-156.687)" fill="#db4848"/>
  <path id="Path_10058" data-name="Path 10058" d="M87.286,0h4.568V16.186H87.286Z" transform="translate(-82.389)" fill="#b82d2d"/>
</svg>
