<svg xmlns="http://www.w3.org/2000/svg" width="19.45" height="11.683" viewBox="0 0 19.45 11.683">
  <path id="Icon_awesome-aws" data-name="Icon awesome-aws" d="M5.482,8.716A2.9,2.9,0,0,0,5.813,9.9a.248.248,0,0,1-.125.191l-.389.272a.324.324,0,0,1-.171.058c-.013,0-.249.056-.622-.778a2.389,2.389,0,0,1-1.9.895A1.638,1.638,0,0,1,.837,8.832,1.89,1.89,0,0,1,2.992,7.007,6.1,6.1,0,0,1,4.42,7.2V6.723A1.155,1.155,0,0,0,3.059,5.389,3.625,3.625,0,0,0,1.666,5.7c-.224.1-.252.086-.327.086-.225,0-.132-.653-.089-.735a3.527,3.527,0,0,1,2-.552,2.336,2.336,0,0,1,1.692.525A2.136,2.136,0,0,1,5.483,6.61V8.716ZM2.856,9.7a1.482,1.482,0,0,0,1.5-.926,3.044,3.044,0,0,0,.062-.833,5.223,5.223,0,0,0-1.2-.148c-.46-.035-1.3.171-1.268.98a.844.844,0,0,0,.91.926Zm5.194.7a.351.351,0,0,1-.385-.315l-1.513-5a1.161,1.161,0,0,1-.058-.261.14.14,0,0,1,.117-.16c.007,0-.065,0,.676,0a.345.345,0,0,1,.381.315l1.086,4.28,1.008-4.28a.344.344,0,0,1,.389-.311h.521a.336.336,0,0,1,.385.315l1.016,4.334,1.12-4.334a.356.356,0,0,1,.385-.315h.6c.026,0,.187-.025.16.261-.013.056.1-.324-1.6,5.163a.351.351,0,0,1-.385.315h-.568A.351.351,0,0,1,11,10.078L9.988,5.91l-1,4.163a.35.35,0,0,1-.385.327H8.05Zm8.311.171a4.106,4.106,0,0,1-1.743-.373.389.389,0,0,1-.237-.362V9.509c0-.257.188-.21.268-.179a4.173,4.173,0,0,0,.876.292,2.3,2.3,0,0,0,1.724-.136.7.7,0,0,0,.16-1.062c-.318-.267-.47-.277-1.615-.638a1.758,1.758,0,0,1-1.331-1.591c-.019-.858.761-1.707,2.113-1.7.385,0,1.411.126,1.689.475a.367.367,0,0,1,.058.214V5.49q0,.2-.148.2a4.287,4.287,0,0,0-1.494-.327c-.209-.011-1.212.028-1.167.759-.013.576.809.792.9.817,1.108.333,1.478.389,1.918.9a1.651,1.651,0,0,1,.132,1.685,2.311,2.311,0,0,1-2.1,1.046Zm1.222,3.187a13.93,13.93,0,0,1-7.855,2.408A14.256,14.256,0,0,1,.086,12.5c-.2-.179-.023-.424.218-.288a19.369,19.369,0,0,0,9.63,2.556,19.152,19.152,0,0,0,7.342-1.506c.358-.152.662.237.308.5Zm.887-1.012c-.272-.35-1.8-.163-2.486-.082-.206.023-.241-.156-.054-.288a3.823,3.823,0,0,1,3.447-.323,3.806,3.806,0,0,1-1.2,3.249c-.175.148-.342.07-.265-.125.256-.646.832-2.081.56-2.432Z" transform="translate(0 -4.484)" fill="#db1010"/>
</svg>
