<svg xmlns="http://www.w3.org/2000/svg" xmlns:xlink="http://www.w3.org/1999/xlink" width="13.801" height="9.924" viewBox="0 0 13.801 9.924">
  <defs>
    <clipPath id="clip-path">
      <path id="Path_10079" data-name="Path 10079" d="M3.71,9.6a.748.748,0,0,1-.75-.714.725.725,0,0,1,.75-.714.725.725,0,0,1,.75.714.748.748,0,0,1-.75.714Zm9.21-3.891a2.126,2.126,0,0,0-.892-1.392l-.178-.143-.143.178a1.933,1.933,0,0,0-.036,2.213c-.143.071-.321.143-.464.214a3.007,3.007,0,0,1-.964.143H1l-.036.214a4.016,4.016,0,0,0,.321,2.035l.143.25v.036a4.532,4.532,0,0,0,4.069,2.07c3.213,0,5.854-1.392,7.1-4.391a2,2,0,0,0,2.035-.964l.107-.178-.178-.107a2.179,2.179,0,0,0-1.642-.178Zm-4.6-.571H6.923V6.526H8.315Zm0-1.749H6.923V4.777H8.315Zm0-1.785H6.923V2.992H8.315Zm1.713,3.534H8.636V6.526h1.392Zm-5.176,0H3.46V6.526H4.852V5.134Zm1.749,0H5.209V6.526H6.6Zm-3.463,0H1.747V6.526H3.139V5.134ZM6.6,3.385H5.209V4.777H6.6Zm-1.749,0H3.46V4.777H4.852V3.385Z" transform="translate(-0.94 -1.6)" fill="#db1010"/>
    </clipPath>
  </defs>
  <g id="docker-1" transform="translate(-0.94 -1.6)">
    <path id="SVGID_1_" d="M3.71,9.6a.748.748,0,0,1-.75-.714.725.725,0,0,1,.75-.714.725.725,0,0,1,.75.714.748.748,0,0,1-.75.714Zm9.21-3.891a2.126,2.126,0,0,0-.892-1.392l-.178-.143-.143.178a1.933,1.933,0,0,0-.036,2.213c-.143.071-.321.143-.464.214a3.007,3.007,0,0,1-.964.143H1l-.036.214a4.016,4.016,0,0,0,.321,2.035l.143.25v.036a4.532,4.532,0,0,0,4.069,2.07c3.213,0,5.854-1.392,7.1-4.391a2,2,0,0,0,2.035-.964l.107-.178-.178-.107a2.179,2.179,0,0,0-1.642-.178Zm-4.6-.571H6.923V6.526H8.315Zm0-1.749H6.923V4.777H8.315Zm0-1.785H6.923V2.992H8.315Zm1.713,3.534H8.636V6.526h1.392Zm-5.176,0H3.46V6.526H4.852V5.134Zm1.749,0H5.209V6.526H6.6Zm-3.463,0H1.747V6.526H3.139V5.134ZM6.6,3.385H5.209V4.777H6.6Zm-1.749,0H3.46V4.777H4.852V3.385Z" transform="translate(0)" fill="#061d2f"/>
    <g id="Group_690" data-name="Group 690" transform="translate(0.94 1.6)" clip-path="url(#clip-path)">
      <path id="SVGID_3_" d="M-48.8-21H406.268V33.046H-48.8Z" transform="translate(31.044 12.932)" fill="#db1010"/>
    </g>
  </g>
</svg>
