<svg xmlns="http://www.w3.org/2000/svg" width="14.867" height="10.348" viewBox="0 0 14.867 10.348">
  <g id="Group_692" data-name="Group 692" transform="translate(-185 -67.25)">
    <path id="Path_10080" data-name="Path 10080" d="M185,116a.6.6,0,0,1,.451-.133c.372.023.778-.1,1.108.082a.982.982,0,0,0,1.083-.008,2.7,2.7,0,0,1,1.362-.055c.156.007.179.149.151.287a1.085,1.085,0,0,1-1.088.768c-.5.016-.54.05-.6.557a1.133,1.133,0,0,0,.883.92,1.175,1.175,0,0,0,1.292-.416c.41-.482.785-.994,1.175-1.493a2.088,2.088,0,0,0,1.047-.367,4.391,4.391,0,0,1,2.46-.784,12.732,12.732,0,0,1,2.3.041,3.536,3.536,0,0,1,1.794.714c.271.22.614.313.891.521a1.935,1.935,0,0,1,.108,1.179,20.1,20.1,0,0,1-.4,2.161,1.811,1.811,0,0,1-.1.235.315.315,0,0,1-.269.076,2.307,2.307,0,0,0-1.523.517,3.592,3.592,0,0,1-1.1.567,2.313,2.313,0,0,1-2.551-1.026c-.06-.087-.128-.189-.076-.294.1-.2,0-.23-.168-.223a.641.641,0,0,0-.276.042,1.115,1.115,0,0,1,.348.439,2.545,2.545,0,0,0,1.793,1.237,2.253,2.253,0,0,0,1.349-.194,6.1,6.1,0,0,0,.866-.517,2.539,2.539,0,0,1,1.114-.447c.129-.015.269-.06.373.07a1.068,1.068,0,0,1-.176.349,1.9,1.9,0,0,0-.939.531,3.863,3.863,0,0,1-2.806,1.141,22.937,22.937,0,0,1-2.733-.051,2.019,2.019,0,0,1-1.122-.4.363.363,0,0,0-.492-.025,2.6,2.6,0,0,1-1.117.436,2.471,2.471,0,0,1-2.025-.694.213.213,0,0,1-.053-.1c.2-.109.411-.04.617-.052a6,6,0,0,0,.939-.046c.408-.209.418-.258.049-.591a7.745,7.745,0,0,1-1.416-1.5,4.355,4.355,0,0,1-.643-2.039c-.035-.417-.074-.479-.5-.469a1.522,1.522,0,0,1-1.006-.271c-.179-.135-.227-.354-.38-.5Z" transform="translate(0 -45.303)" fill="#db1010"/>
    <path id="Path_10081" data-name="Path 10081" d="M185,130c.1,0,.146.07.191.149a1.043,1.043,0,0,0,.975.543h.173c.6,0,.576.007.63.611a4,4,0,0,0,1.111,2.551c.33.333.683.644,1.021.969.122.117.295.226.211.431s-.272.081-.41.119a6.377,6.377,0,0,1-1.9-2.93,7.516,7.516,0,0,1-.2-1.014c-.032-.213-.134-.393-.358-.377a1.277,1.277,0,0,1-1.447-.938Z" transform="translate(0 -59.129)" fill="#ce0d0d"/>
    <path id="Path_10082" data-name="Path 10082" d="M224.084,210.317a4.815,4.815,0,0,0,1.031.611,2.29,2.29,0,0,0,2-.242,1.035,1.035,0,0,0,.12-.078.374.374,0,0,1,.584.033,1.652,1.652,0,0,0,1.031.379,25.639,25.639,0,0,0,2.585.057,3.936,3.936,0,0,0,3.024-1.2,1.511,1.511,0,0,1,.762-.434c.064-.015.11-.02.146.041a3.907,3.907,0,0,1-3.319,2.063c-1,.056-2,.017-3,.006a4.579,4.579,0,0,1-1.625-.337.931.931,0,0,0-.739,0,2.347,2.347,0,0,1-2.56-.484C224.014,210.6,223.9,210.476,224.084,210.317Z" transform="translate(-36.738 -133.974)" fill="#ce0d0d"/>
    <path id="Path_10083" data-name="Path 10083" d="M294.364,111.054a2.083,2.083,0,0,1-.921-.444,3.729,3.729,0,0,0-2.322-.76,14.2,14.2,0,0,0-2.237.051,4.414,4.414,0,0,0-2.056.812,2.061,2.061,0,0,1-.748.278.174.174,0,0,1-.206-.062,1.789,1.789,0,0,1,.277-.389,1.578,1.578,0,0,1,.744-.59,3.992,3.992,0,0,1,.4-.169,6.5,6.5,0,0,1,1.365-.3c.1-.015.2,0,.3-.019a9.525,9.525,0,0,1,1.575-.047c.1,0,.208,0,.311,0,.2.006.406-.008.609,0s.415.057.623.078c.144.043.295.056.439.1a3.2,3.2,0,0,1,1.251.54c.11.087.244.155.281.309A1.9,1.9,0,0,1,294.364,111.054Z" transform="translate(-95.054 -39.722)" fill="#ce0d0d"/>
    <path id="Path_10084" data-name="Path 10084" d="M343.329,67.292a3.956,3.956,0,0,1,2.3.359c.09.183-.059.277-.152.385-.313.363-.732.606-1.073.937a.281.281,0,0,1-.208.082c-.5-.017-1.007.009-1.51.017-.138-.089-.05-.184,0-.269a1.613,1.613,0,0,1,.221-.3A1.627,1.627,0,0,0,343.329,67.292Z" transform="translate(-148.52 0)" fill="#db1010"/>
    <path id="Path_10085" data-name="Path 10085" d="M309.772,68.822a4.616,4.616,0,0,1,1.91-.675c.207.107.2.285.149.471a2.019,2.019,0,0,1-.365.647,7.163,7.163,0,0,0-.486.677.243.243,0,0,1-.173.131,3.608,3.608,0,0,0-1.025.232c-.133.039-.264.123-.41.041a.257.257,0,0,1,.036-.293A2.068,2.068,0,0,0,309.772,68.822Z" transform="translate(-117.163 -0.845)" fill="#db1010"/>
    <path id="Path_10086" data-name="Path 10086" d="M379.071,75.911a4.585,4.585,0,0,1,1.5,1.1c.078.2-.082.27-.208.339a3.644,3.644,0,0,1-.634.241.428.428,0,0,1-.226.018,8.976,8.976,0,0,0-1.67-.385c-.11-.125.008-.189.079-.249.161-.136.331-.26.5-.39a1.735,1.735,0,0,0,.5-.547C378.939,75.973,378.965,75.883,379.071,75.911Z" transform="translate(-181.664 -8.157)" fill="#db1010"/>
    <path id="Path_10087" data-name="Path 10087" d="M326.372,192.505a2.208,2.208,0,0,0-1.381.4,4.052,4.052,0,0,1-1.648.767,2.521,2.521,0,0,1-1.964-.594,2.475,2.475,0,0,1-.668-.858c-.049-.1-.092-.185-.222-.193a.11.11,0,0,1-.108-.14c.017-.076.083-.1.156-.1.125,0,.25,0,.375,0,.082,0,.182-.032.233.067s-.029.15-.094.21c-.1.1,0,.177.043.251a2.246,2.246,0,0,0,3.206.7,4.623,4.623,0,0,1,1.327-.721,4.335,4.335,0,0,1,.86-.039Z" transform="translate(-127.565 -117.349)" fill="#ce0d0d"/>
    <path id="Path_10088" data-name="Path 10088" d="M275.481,85.353c-.185-.15-.058-.3.018-.429a6.188,6.188,0,0,1,1.99-2.1c.275-.025.183.171.15.286a4.152,4.152,0,0,1-.405.856,1.859,1.859,0,0,0-.179.36.232.232,0,0,1-.092.139A4.936,4.936,0,0,0,275.481,85.353Z" transform="translate(-85.169 -14.67)" fill="#db1010"/>
    <path id="Path_10089" data-name="Path 10089" d="M402.552,107.3a3.409,3.409,0,0,0-1.529-.785c0-.16.137-.189.242-.238a5.125,5.125,0,0,1,.559-.195.35.35,0,0,1,.173,0,4.466,4.466,0,0,1,1.379.795c.1.3.047.4-.253.411A1.35,1.35,0,0,1,402.552,107.3Z" transform="translate(-203.556 -36.579)" fill="#ee1414"/>
    <path id="Path_10090" data-name="Path 10090" d="M277.042,111.915c.011-.045.006-.111.034-.133a4.011,4.011,0,0,1,1.406-.775.985.985,0,0,1,.109.506,4.764,4.764,0,0,0-.763.536A.931.931,0,0,1,277.042,111.915Z" transform="translate(-86.73 -41.232)" fill="#ee1414"/>
    <path id="Path_10091" data-name="Path 10091" d="M227.1,131.32c-.125-.434.012-.651.441-.626a1.28,1.28,0,0,0,1.244-.7,1.028,1.028,0,0,1-1.091,1.043C227.444,131.041,227.2,131.028,227.1,131.32Z" transform="translate(-39.625 -59.124)" fill="#ce0d0d"/>
    <path id="Path_10092" data-name="Path 10092" d="M419.378,101.051l-1.373-.757a1.148,1.148,0,0,1,.7-.406A3.19,3.19,0,0,1,419.378,101.051Z" transform="translate(-219.559 -30.755)" fill="#db1010"/>
    <path id="Path_10093" data-name="Path 10093" d="M336.965,69.77a5.206,5.206,0,0,1,.58-.844c.182-.286.426-.568.17-.937l.29-.01A1.037,1.037,0,0,1,337.824,69a8.041,8.041,0,0,0-.512.715.14.14,0,0,1-.085.1A.239.239,0,0,1,336.965,69.77Z" transform="translate(-143.195 -0.688)" fill="#ce0d0d"/>
    <path id="Path_10094" data-name="Path 10094" d="M374.6,74.283a3.245,3.245,0,0,1-1.088,1.094c-.066.052-.124.114-.186.172a.124.124,0,0,1-.073.037c-.089-.021-.2-.006-.207-.146.334-.331.747-.569,1.064-.92a.619.619,0,0,0,.2-.341A.434.434,0,0,1,374.6,74.283Z" transform="translate(-177.197 -6.528)" fill="#ce0d0d"/>
    <path id="Path_10095" data-name="Path 10095" d="M303.025,81.53a8.308,8.308,0,0,1,.449-.894c.054-.133.115-.263.163-.4.036-.1.032-.193-.1-.216l.29-.174c.2.426-.044.768-.217,1.121a1.97,1.97,0,0,0-.187.382.2.2,0,0,1-.118.163C303.211,81.545,303.122,81.606,303.025,81.53Z" transform="translate(-111.214 -11.872)" fill="#ce0d0d"/>
    <path id="Path_10096" data-name="Path 10096" d="M412.14,95.272a6.031,6.031,0,0,1-.7.406l-.173,0c-.108-.015-.221-.021-.229-.171.2-.076.39-.154.586-.227a.377.377,0,0,0,.278-.295A.782.782,0,0,1,412.14,95.272Z" transform="translate(-212.994 -26.138)" fill="#ce0d0d"/>
    <path id="Path_10097" data-name="Path 10097" d="M355.907,181.414a.641.641,0,0,1,.619.5c.016.092.042.211-.076.249s-.169-.067-.188-.162a.37.37,0,0,0-.138-.242c-.224-.167-.475-.067-.568.234-.029.092-.033.214-.168.168-.118-.041-.124-.146-.09-.264A.673.673,0,0,1,355.907,181.414Z" transform="translate(-160.454 -107.576)" fill="#ce0d0d"/>
    <path id="Path_10098" data-name="Path 10098" d="M337.2,97.058l.063-.056a8.49,8.49,0,0,1,1.355-.055c.091,0,.192-.03.265.059a3.9,3.9,0,0,1-.236.726l-1.617.06C336.825,97.565,336.885,97.306,337.2,97.058Z" transform="translate(-143.143 -27.979)" fill="#ee1414"/>
    <path id="Path_10099" data-name="Path 10099" d="M371.124,97.935l.049-.007a6.275,6.275,0,0,1,1.635.309c.038.01.066.062.1.095a2.1,2.1,0,0,1-.8.42l-.645-.08a.275.275,0,0,0-.316-.045.843.843,0,0,1-.337.021C370.679,98.4,370.8,98.113,371.124,97.935Z" transform="translate(-175.04 -28.907)" fill="#ee1414"/>
    <path id="Path_10100" data-name="Path 10100" d="M305.176,100.494l.11-.121c.4-.043.748-.246,1.14-.305.111-.017.217-.076.315.026.066.217-.062.415-.063.625-.467.092-.937.167-1.393.3-.116.04-.219.021-.257-.1A.352.352,0,0,1,305.176,100.494Z" transform="translate(-113.081 -30.894)" fill="#ee1414"/>
    <path id="Path_10101" data-name="Path 10101" d="M394.17,104.51a2.728,2.728,0,0,1,.8-.42l.178-.052.229.171c-.251.167-.593.146-.807.389Z" transform="translate(-197.099 -34.665)" fill="#ce0d0d"/>
    <path id="Path_10102" data-name="Path 10102" d="M367.495,96.156c-.141.213-.391.379-.29.693l0,.033h-.289a1.026,1.026,0,0,1,.236-.726l.116-.115Z" transform="translate(-171.411 -27.129)" fill="#ce0d0d"/>
    <path id="Path_10103" data-name="Path 10103" d="M333.119,99.7c-.132-.224.021-.419.063-.625l.11-.118.283,0c-.121.229-.328.439-.169.733Z" transform="translate(-139.522 -29.873)" fill="#ce0d0d"/>
    <path id="Path_10104" data-name="Path 10104" d="M302.285,107.985a2.048,2.048,0,0,0-.1.325c-.023.15.082.2.212.2l-.343.151c-.147-.145-.108-.33-.109-.506l.059-.116Z" transform="translate(-110.19 -38.384)" fill="#ce0d0d"/>
    <path id="Path_10105" data-name="Path 10105" d="M371.96,108.074a.135.135,0,0,0,0-.033.644.644,0,0,0,.345-.076c.129-.086.251-.062.288.12Z" transform="translate(-176.171 -38.321)" fill="#ee1414"/>
  </g>
</svg>
