<svg id="Layer_2" data-name="Layer 2" xmlns="http://www.w3.org/2000/svg" width="20.993" height="13.383" viewBox="0 0 20.993 13.383">
  <g id="Layer_1" data-name="Layer 1">
    <path id="Path_10049" data-name="Path 10049" d="M9.38,27.734c-.04,0-.051-.021-.03-.051l.212-.273a.145.145,0,0,1,.112-.051h3.611c.04,0,.051.03.03.061l-.175.262a.154.154,0,0,1-.1.061Z" transform="translate(-7.706 -22.574)" fill="#db1010"/>
    <path id="Path_10050" data-name="Path 10050" d="M.64,33.077c-.04,0-.051-.021-.03-.051l.212-.268a.145.145,0,0,1,.112-.051H5.547a.047.047,0,0,1,.051.061l-.08.243a.089.089,0,0,1-.091.061Z" transform="translate(-0.495 -26.986)" fill="#db1010"/>
    <path id="Path_10051" data-name="Path 10051" d="M14.64,38.374c-.04,0-.051-.03-.03-.061l.142-.254A.135.135,0,0,1,14.845,38h2.031c.04,0,.061.03.061.07l-.021.243a.075.075,0,0,1-.07.07Z" transform="translate(-12.046 -31.352)" fill="#db1010"/>
    <path id="Path_10052" data-name="Path 10052" d="M39.62,18.227c-.637.163-1.072.283-1.7.446-.152.04-.163.051-.294-.1a1.354,1.354,0,0,0-.476-.385,1.761,1.761,0,0,0-1.832.152,2.152,2.152,0,0,0-1.032,1.924,1.587,1.587,0,0,0,1.366,1.588,1.868,1.868,0,0,0,1.716-.67c.091-.112.175-.233.273-.374H35.694c-.212,0-.262-.131-.192-.3.131-.313.374-.84.516-1.1a.273.273,0,0,1,.254-.163h3.682c-.021.273-.021.546-.061.82a4.316,4.316,0,0,1-.829,1.984,4.216,4.216,0,0,1-2.885,1.72,3.584,3.584,0,0,1-2.722-.668,3.179,3.179,0,0,1-1.284-2.246,3.971,3.971,0,0,1,.861-2.965,4.491,4.491,0,0,1,2.834-1.749,3.476,3.476,0,0,1,2.682.5,3.172,3.172,0,0,1,1.174,1.427C39.78,18.147,39.74,18.2,39.62,18.227Z" transform="translate(-26.522 -13.248)" fill="#db1010"/>
    <path id="Path_10053" data-name="Path 10053" d="M76.978,24.256a3.8,3.8,0,0,1-2.467-.89,3.173,3.173,0,0,1-1.093-1.952,3.863,3.863,0,0,1,.82-3.056,4.245,4.245,0,0,1,2.834-1.69,3.734,3.734,0,0,1,2.879.514,3.149,3.149,0,0,1,1.428,2.257,3.906,3.906,0,0,1-1.163,3.431,4.636,4.636,0,0,1-2.428,1.295C77.517,24.216,77.244,24.227,76.978,24.256Zm2.409-4.088a2.912,2.912,0,0,0-.03-.334,1.667,1.667,0,0,0-2.064-1.345,2.211,2.211,0,0,0-1.769,1.762,1.667,1.667,0,0,0,.929,1.912A1.854,1.854,0,0,0,78.1,22.1a2.215,2.215,0,0,0,1.286-1.924Z" transform="translate(-60.534 -13.683)" fill="#db1010"/>
    <rect id="Rectangle_467" data-name="Rectangle 467" width="20.993" height="13.383" fill="none"/>
  </g>
</svg>
