<svg id="google-cloud-1" xmlns="http://www.w3.org/2000/svg" width="20.186" height="15.652" viewBox="0 0 20.186 15.652">
  <path id="Path_10059" data-name="Path 10059" d="M298.173,4.356h.616l1.755-1.691.086-.717a8.1,8.1,0,0,0-11.132.669,7.5,7.5,0,0,0-1.7,3.039.989.989,0,0,1,.616-.036l3.509-.558s.179-.285.271-.267a4.5,4.5,0,0,1,5.991-.439h-.013Z" transform="translate(-285.365 -0.046)" fill="#db1010"/>
  <path id="Path_10060" data-name="Path 10060" d="M1144.959,237.7a7.581,7.581,0,0,0-2.383-3.7l-2.462,2.372a4.157,4.157,0,0,1,1.607,3.346v.421a2.113,2.113,0,1,1,0,4.223h-4.384l-.437.427v2.533l.438.421h4.384a5.685,5.685,0,0,0,5.489-3.863,5.394,5.394,0,0,0-2.251-6.181Z" transform="translate(-1127.281 -232.093)" fill="#db1010"/>
  <path id="Path_10061" data-name="Path 10061" d="M266.442,1482.571h4.384v-3.381h-4.384a2.241,2.241,0,0,1-.905-.19l-.616.183-1.767,1.691-.154.594a5.818,5.818,0,0,0,3.442,1.1Z" transform="translate(-260.775 -1466.943)" fill="#db1010"/>
  <path id="Path_10062" data-name="Path 10062" d="M5.715,571.6a5.685,5.685,0,0,0-5.369,3.74,5.376,5.376,0,0,0,1.927,6.107l2.543-2.45A2.081,2.081,0,0,1,3.721,576.2a2.226,2.226,0,0,1,2.9-1.055A2.16,2.16,0,0,1,7.716,576.2l2.543-2.45A5.777,5.777,0,0,0,5.715,571.6Z" transform="translate(-0.048 -566.937)" fill="#db1010"/>
</svg>
