<svg xmlns="http://www.w3.org/2000/svg" width="15.635" height="21.206" viewBox="0 0 15.635 21.206">
  <path id="java" d="M11.589,12.96a6.7,6.7,0,0,1,.969-.518s-1.6.29-3.2.422a29.129,29.129,0,0,1-5.1.054c-2.489-.331,1.367-1.247,1.367-1.247a7.336,7.336,0,0,0-3.338.787C.116,13.511,7.675,13.991,11.589,12.96ZM8.052,11.63c-.787-1.769-3.442-3.322,0-6.039C12.345,2.2,10.143,0,10.143,0c.89,3.5-3.131,4.56-4.585,6.735-.99,1.487.485,3.081,2.493,4.9Zm4.747-7.3s-7.256,1.814-3.79,5.807a1.553,1.553,0,0,1-.269,2.237s2.6-1.342,1.4-3.019C9.029,7.791,8.176,7.012,12.8,4.332Zm-.253,11.2a.5.5,0,0,1-.083.108c5.314-1.4,3.359-4.925.82-4.03a.718.718,0,0,0-.34.261,2.918,2.918,0,0,1,.456-.124c1.284-.269,3.127,1.719-.853,3.786Zm1.953,2.58s.6.493-.659.878c-2.4.725-9.973.944-12.077.029-.758-.327.663-.787,1.11-.882a3,3,0,0,1,.733-.083c-.841-.592-5.438,1.164-2.336,1.665C9.729,21.1,16.694,19.106,14.5,18.116ZM5.239,16.4c-3.26.911,1.984,2.792,6.134,1.015a7.7,7.7,0,0,1-1.168-.572,12.121,12.121,0,0,1-4.39.186c-1.388-.157-.576-.63-.576-.63Zm7.447,4.026a31.394,31.394,0,0,1-9.663.149s.489.4,3,.563c3.819.244,9.684-.137,9.82-1.943C15.842,19.2,15.577,19.881,12.686,20.427Zm-1.806-5.807a17.11,17.11,0,0,1-5.666.273c-1.388-.145-.48-.816-.48-.816-3.6,1.193,2,2.543,7.02,1.073a2.5,2.5,0,0,1-.874-.53Z" transform="translate(-0.208)" fill="#db1010"/>
</svg>
