<svg xmlns="http://www.w3.org/2000/svg" width="15" height="15" viewBox="0 0 15 15">
  <path id="Icon_simple-javascript" data-name="Icon simple-javascript" d="M0,0H15V15H0ZM13.771,11.422c-.109-.684-.555-1.259-1.877-1.8-.46-.216-.971-.366-1.123-.712a.738.738,0,0,1-.029-.441.716.716,0,0,1,.947-.413,1.017,1.017,0,0,1,.61.563c.646-.423.646-.423,1.1-.7a2.58,2.58,0,0,0-.366-.488,2.1,2.1,0,0,0-1.771-.646l-.441.056a2.015,2.015,0,0,0-1.069.628,1.961,1.961,0,0,0,.356,2.794c.853.637,2.1.777,2.26,1.378.15.731-.544.966-1.229.881a1.646,1.646,0,0,1-1.1-.835L8.9,12.346a2.527,2.527,0,0,0,.506.693c1.087,1.1,3.806,1.041,4.294-.628a2.115,2.115,0,0,0,.046-1.031l.029.042ZM8.157,6.894h-1.4c0,1.211-.006,2.415-.006,3.628a5.918,5.918,0,0,1-.086,1.694c-.206.431-.738.376-.979.3a1.206,1.206,0,0,1-.519-.534.536.536,0,0,0-.079-.123l-1.141.7a2.211,2.211,0,0,0,.827.948,2.751,2.751,0,0,0,2,.253,1.755,1.755,0,0,0,1.132-.882,4.332,4.332,0,0,0,.248-2.091c.008-1.284,0-2.568,0-3.862l0-.035Z" fill="#db1010"/>
</svg>
