<svg xmlns="http://www.w3.org/2000/svg" width="13.407" height="13.056" viewBox="0 0 13.407 13.056">
  <g id="Group_691" data-name="Group 691" transform="translate(-1178.137 -5672.013)">
    <path id="Path_10076" data-name="Path 10076" d="M8.623,16.456a1.023,1.023,0,0,1-.806-.39L4.782,12.295a1.018,1.018,0,0,1-.2-.884L5.666,6.7A1.025,1.025,0,0,1,6.23,6l4.387-2.1a1.029,1.029,0,0,1,.9,0L15.9,5.992a1.025,1.025,0,0,1,.563.7L17.552,11.4a1.046,1.046,0,0,1-.2.884l-3.034,3.771a1.05,1.05,0,0,1-.806.39l-4.889.009Z" transform="translate(1173.795 5668.404)" fill="#db1010"/>
    <path id="Path_10077" data-name="Path 10077" d="M7.248.572A.848.848,0,0,1,7.6.65L11.99,2.74a.842.842,0,0,1,.451.564l1.084,4.707a.811.811,0,0,1-.165.711l-3.034,3.771a.826.826,0,0,1-.65.312H4.812a.826.826,0,0,1-.65-.312L1.128,8.721a.868.868,0,0,1-.165-.711L2.047,3.3A.828.828,0,0,1,2.5,2.74L6.884.642A1.044,1.044,0,0,1,7.248.573Zm0-.407a1.312,1.312,0,0,0-.537.121l-4.387,2.1a1.228,1.228,0,0,0-.676.841L.564,7.933A1.229,1.229,0,0,0,.807,8.99l3.034,3.771a1.225,1.225,0,0,0,.962.459H9.667a1.225,1.225,0,0,0,.962-.459L13.664,8.99a1.223,1.223,0,0,0,.243-1.058L12.823,3.225a1.228,1.228,0,0,0-.676-.841L7.777.286A1.244,1.244,0,0,0,7.248.165Z" transform="translate(1177.605 5671.848)" fill="#fff"/>
    <path id="Path_10078" data-name="Path 10078" d="M50.029,43.788h-.009c-.009,0-.017,0-.017-.009-.017,0-.035-.009-.052-.009a1.185,1.185,0,0,0-.165-.017.324.324,0,0,1-.087-.009h-.009a2.287,2.287,0,0,1-.468-.078.169.169,0,0,1-.1-.1c0-.009-.009-.009-.009-.017l-.113-.035a3.429,3.429,0,0,0-.061-1.222,3.572,3.572,0,0,0-.485-1.136l.087-.078v-.017a.2.2,0,0,1,.043-.13,2.529,2.529,0,0,1,.39-.269c.026-.017.052-.026.078-.043a1.3,1.3,0,0,0,.147-.087c.009-.009.026-.017.043-.035s.017-.009.017-.017a.29.29,0,0,0,.061-.39.247.247,0,0,0-.2-.1.322.322,0,0,0-.191.069l-.017.017c-.017.009-.026.026-.043.035a1.43,1.43,0,0,0-.113.121.4.4,0,0,1-.061.061,2.2,2.2,0,0,1-.347.312.14.14,0,0,1-.078.026.109.109,0,0,1-.052-.009h-.017l-.1.069a4.214,4.214,0,0,0-.355-.329,3.462,3.462,0,0,0-1.812-.72l-.009-.113-.017-.017a.181.181,0,0,1-.069-.113,3.046,3.046,0,0,1,.026-.468v-.009a.308.308,0,0,1,.017-.087c.009-.052.017-.1.026-.165V38.6a.265.265,0,0,0-.459-.2.275.275,0,0,0-.078.2v.069a.505.505,0,0,0,.026.165c.009.026.009.052.017.087v.009a2.242,2.242,0,0,1,.026.468.181.181,0,0,1-.069.113l-.017.017-.009.113a4.348,4.348,0,0,0-.468.069,3.342,3.342,0,0,0-1.716.971l-.087-.061h-.017c-.017,0-.035.009-.052.009a.14.14,0,0,1-.078-.026,2.3,2.3,0,0,1-.347-.321.4.4,0,0,0-.061-.061,1.434,1.434,0,0,0-.113-.121c-.009-.009-.026-.017-.043-.035s-.017-.009-.017-.017a.3.3,0,0,0-.191-.069.247.247,0,0,0-.2.1.29.29,0,0,0,.061.39c.009,0,.009.009.017.009s.026.026.043.035a1.315,1.315,0,0,0,.147.087.35.35,0,0,1,.078.043,2.528,2.528,0,0,1,.39.269.159.159,0,0,1,.043.13v.017l.087.078a.306.306,0,0,0-.043.069,3.376,3.376,0,0,0-.485,2.289l-.113.035c0,.009-.009.009-.009.017a.2.2,0,0,1-.1.1,2.187,2.187,0,0,1-.468.078H41.6a.3.3,0,0,0-.087.009,1.186,1.186,0,0,0-.165.017c-.017,0-.035.009-.052.009a.032.032,0,0,0-.026.009.284.284,0,0,0-.225.321.267.267,0,0,0,.277.2.19.19,0,0,0,.069-.009c.009,0,.017,0,.017-.009.017,0,.035-.009.052-.009a.831.831,0,0,0,.156-.061c.026-.009.052-.026.078-.035h.009a2.126,2.126,0,0,1,.451-.13h.017a.193.193,0,0,1,.113.043c.009,0,.009.009.017.009l.121-.017a3.429,3.429,0,0,0,1.136,1.63,3.515,3.515,0,0,0,.373.251l-.052.113c0,.009.009.009.009.017a.178.178,0,0,1,.017.139,2.439,2.439,0,0,1-.225.407v.009c-.017.026-.035.043-.052.069-.035.043-.061.087-.1.139a.189.189,0,0,0-.026.043.03.03,0,0,1-.009.017.274.274,0,0,0,.113.373.231.231,0,0,0,.1.026.312.312,0,0,0,.26-.165.03.03,0,0,1,.009-.017.191.191,0,0,1,.026-.043,1.628,1.628,0,0,0,.052-.156l.026-.078a2.038,2.038,0,0,1,.182-.433.223.223,0,0,1,.113-.078c.009,0,.009,0,.017-.009l.061-.113a3.387,3.387,0,0,0,1.214.225,3.148,3.148,0,0,0,.754-.087,3.852,3.852,0,0,0,.451-.13l.052.1c.009,0,.009,0,.017.009a.161.161,0,0,1,.113.078,2.969,2.969,0,0,1,.182.433v.009l.026.078a1.1,1.1,0,0,0,.052.156c.009.017.017.026.026.043a.03.03,0,0,0,.009.017.294.294,0,0,0,.26.165.231.231,0,0,0,.1-.026.258.258,0,0,0,.13-.156.314.314,0,0,0-.017-.217c0-.009-.009-.009-.009-.017a.191.191,0,0,0-.026-.043.786.786,0,0,0-.1-.139c-.017-.026-.035-.043-.052-.069v-.009a1.941,1.941,0,0,1-.225-.407.242.242,0,0,1,.009-.139c0-.009.009-.009.009-.017l-.043-.1a3.439,3.439,0,0,0,1.508-1.9l.1.017c.009,0,.009-.009.017-.009a.221.221,0,0,1,.113-.043h.017a2.126,2.126,0,0,1,.451.13h.009c.026.009.052.026.078.035a.836.836,0,0,0,.156.061c.017,0,.035.009.052.009a.032.032,0,0,1,.026.009.191.191,0,0,0,.069.009.292.292,0,0,0,.277-.2.334.334,0,0,0-.251-.286Zm-4.014-.425-.381.182-.381-.182-.1-.407.26-.329h.425l.26.329-.087.407Zm2.263-.9a2.734,2.734,0,0,1,.061.876l-1.326-.381a.235.235,0,0,1-.165-.277.207.207,0,0,1,.052-.1l1.049-.945a2.78,2.78,0,0,1,.329.824Zm-.746-1.344-1.136.806a.231.231,0,0,1-.3-.052.193.193,0,0,1-.043-.1l-.078-1.413A2.631,2.631,0,0,1,47.533,41.118Zm-2.514-.711.277-.052-.078,1.387a.237.237,0,0,1-.234.225.206.206,0,0,1-.1-.026l-1.153-.824a2.645,2.645,0,0,1,1.292-.711Zm-1.708,1.231,1.032.919a.231.231,0,0,1,.026.321.173.173,0,0,1-.1.069l-1.344.39A2.791,2.791,0,0,1,43.311,41.638Zm-.234,2.349,1.378-.234a.234.234,0,0,1,.243.182.248.248,0,0,1-.009.139l-.529,1.274a2.733,2.733,0,0,1-1.084-1.361Zm3.164,1.725a2.831,2.831,0,0,1-.607.069,2.936,2.936,0,0,1-.876-.139l.685-1.24a.228.228,0,0,1,.277-.061.37.37,0,0,1,.1.1l.667,1.205c-.078.026-.165.043-.251.069Zm1.69-1.2a2.752,2.752,0,0,1-.832.841l-.546-1.309a.233.233,0,0,1,.121-.269.277.277,0,0,1,.121-.026l1.387.234A1.745,1.745,0,0,1,47.931,44.508Z" transform="translate(1139.22 5635.697)" fill="#fff"/>
  </g>
</svg>
