<svg xmlns="http://www.w3.org/2000/svg" width="8.716" height="19.439" viewBox="0 0 8.716 19.439">
  <path id="Icon_simple-mongodb" data-name="Icon simple-mongodb" d="M18.482,7.709c-1.023-4.5-3.436-5.983-3.7-6.549A7.278,7.278,0,0,1,14.193,0c0,.015,0,.025,0,.04V.05h0c0,.012,0,.02,0,.032V.094h0c0,.008,0,.015,0,.021V.136h0a.154.154,0,0,1,0,.02V.173h0a.058.058,0,0,1,0,.017V.207h0c0,.008,0,.018,0,.026v0l-.007.04V.281h0a.043.043,0,0,0,0,.01V.3h0V.322h0V.337h0V.354h0V.369h0V.383h0V.394h0V.409h0V.42h0V.431h0V.443h0a0,0,0,0,0,0,0V.454h0a.01.01,0,0,0,0,0v0h0a.036.036,0,0,0,0,.008l-.008.017v0L14.1.5V.5h0V.509h0V.516h0V.524h0V.535h0v0h0V.545h0V.554h0V.561h0V.569h0V.576h0V.582h0V.59h0V.6h0v0h0V.608h0V.616h0v0h0V.627h0V.636h0v0h0V.646h0v0h0V.657h0v0h0V.667h0v0h0l0,0v0h0s0,0,0,0h0a.013.013,0,0,1,0,.006v0h0a.152.152,0,0,0-.01.015h0a.036.036,0,0,0-.007.008v0h0l0,0v0h0l0,0h0l0,0v0h0l0,0v0h0s0,0,0,0v0h0l0,0v0h0v0h0v0h0V.76h0V.753h0v0h0v0h0V.768h0v0h0v0h0v0h0V.786h0v0h0v0h0v0h0v0h0V.809h0v0h0v0h0v0h0v0h0V.829h0v0h0v0h0v0h0v0h0v0h0v0h0V.859h0v0h0v0h0v0h0v0h0v0h0V.883h0v0h0v0h0v0h0v0h0v0h0v0h0v0h0v0h0l0,0,0,0v0h0v0h0v0h0v0h0l0,0v0h0l0,0v0h0a.081.081,0,0,1-.011.013l-.01.008a.3.3,0,0,0-.032.026L13.709,1h0l-.04.032h0l-.06.05h0c-.046.038-.095.081-.151.129h0c-.137.12-.3.274-.482.46l-.012.012,0,0a11.152,11.152,0,0,0-3.02,7.352,8.4,8.4,0,0,0,0,.927v.007A8.825,8.825,0,0,0,11.1,13.829h0a10.145,10.145,0,0,0,.75,1.138h0a10.365,10.365,0,0,0,2.036,2.046,6.768,6.768,0,0,1,.324,2.251l.522.174a9.715,9.715,0,0,1,.043-2.043,1.262,1.262,0,0,1,.283-.536,6.788,6.788,0,0,0,.646-.522c.015-.015.023-.029.036-.044a9.253,9.253,0,0,0,2.744-8.585Z" transform="translate(-9.927)" fill="#db1010"/>
</svg>
