<svg xmlns="http://www.w3.org/2000/svg" width="21.158" height="15.046" viewBox="0 0 21.158 15.046">
  <path id="Icon_simple-mysql" data-name="Icon simple-mysql" d="M15.146,7.562a1.019,1.019,0,0,0-.253.03V7.6h.013a2.083,2.083,0,0,0,.2.252c.05.1.092.2.142.3l.013-.014a.343.343,0,0,0,.129-.307c-.037-.043-.042-.087-.074-.129-.037-.062-.116-.092-.166-.141ZM6.327,19.744H5.471c-.028-1.442-.114-2.8-.249-4.072H5.215l-1.3,4.072H3.262L1.969,15.672H1.96q-.143,1.832-.18,4.072H1q.076-2.723.379-5.106H2.44L3.673,18.39H3.68l1.244-3.752H5.935q.335,2.791.4,5.106Zm3.709-3.767a11.544,11.544,0,0,1-1.378,4.118,1.835,1.835,0,0,1-1.462.991,1.441,1.441,0,0,1-.523-.127V20.5a2.369,2.369,0,0,0,.356.024.861.861,0,0,0,.6-.2.744.744,0,0,0,.272-.559,3.7,3.7,0,0,0-.212-.872l-.936-2.914h.84l.671,2.179a2.925,2.925,0,0,1,.189,1.037,14.085,14.085,0,0,0,.771-3.216h.812Zm11.379,3.767H18.987V14.638H19.8v4.478h1.611Zm-3.065.125-.938-.462a1.983,1.983,0,0,0,.235-.231,3.127,3.127,0,0,0,.6-2.08q0-2.534-1.99-2.535a1.893,1.893,0,0,0-1.523.644,3.134,3.134,0,0,0-.6,2.073,3.027,3.027,0,0,0,.53,1.976,1.815,1.815,0,0,0,1.462.568,2.347,2.347,0,0,0,.669-.09l1.223.713.332-.574Zm-3.039-1.147a3.137,3.137,0,0,1-.311-1.6q0-1.929,1.173-1.93a.986.986,0,0,1,.9.462,3.123,3.123,0,0,1,.31,1.591q0,1.944-1.173,1.946a.987.987,0,0,1-.9-.462Zm-1.531-.392A1.353,1.353,0,0,1,13.3,19.4a1.872,1.872,0,0,1-1.278.415,2.561,2.561,0,0,1-1.452-.475l.219-.439a2.477,2.477,0,0,0,1.1.3,1.154,1.154,0,0,0,.723-.2.7.7,0,0,0,.277-.568c0-.3-.212-.563-.6-.78-.358-.2-1.074-.607-1.074-.607a1.222,1.222,0,0,1-.583-1.087,1.267,1.267,0,0,1,.434-1,1.636,1.636,0,0,1,1.126-.383,2.318,2.318,0,0,1,1.293.379l-.2.439a2.517,2.517,0,0,0-.982-.212.869.869,0,0,0-.6.19.632.632,0,0,0-.229.484c0,.3.216.563.615.785.363.2,1.1.619,1.1.619a1.2,1.2,0,0,1,.6,1.078Zm7.662-5.4a2.831,2.831,0,0,0-1.2.174c-.092.037-.24.037-.253.154.051.049.058.129.1.2a1.416,1.416,0,0,0,.319.376c.129.1.259.2.394.286.24.148.512.235.748.384.134.087.271.2.406.289.067.046.111.129.2.159v-.018c-.042-.055-.055-.136-.1-.2-.062-.062-.124-.117-.185-.178a2.976,2.976,0,0,0-.642-.623c-.2-.135-.63-.323-.711-.549l-.012-.013a2.484,2.484,0,0,0,.425-.1c.21-.055.4-.043.619-.1.1-.025.2-.055.3-.087v-.055c-.111-.111-.194-.261-.308-.365a8.187,8.187,0,0,0-1.019-.76c-.194-.124-.439-.2-.644-.308-.074-.037-.2-.055-.24-.117A2.38,2.38,0,0,1,19.386,11c-.177-.34-.351-.716-.505-1.074a6.393,6.393,0,0,0-.314-.7,6.22,6.22,0,0,0-2.388-2.308,3.007,3.007,0,0,0-.79-.253c-.154-.007-.308-.018-.462-.025a2.24,2.24,0,0,1-.286-.217c-.351-.222-1.259-.7-1.518-.066-.166.4.247.8.39,1a2.846,2.846,0,0,1,.314.462c.043.107.055.217.1.329a7.388,7.388,0,0,0,.32.828,2.831,2.831,0,0,0,.228.381c.05.067.135.1.154.21a1.8,1.8,0,0,0-.142.462,2.735,2.735,0,0,0,.179,2.077c.1.153.334.493.649.363.277-.111.216-.462.3-.771.018-.074.006-.123.044-.173v.014c.087.174.174.339.253.512a3.474,3.474,0,0,0,.8.826c.148.111.265.3.45.371v-.018h-.014A.824.824,0,0,0,17,13.1a3.18,3.18,0,0,1-.323-.369,8.088,8.088,0,0,1-.69-1.125c-.1-.194-.186-.4-.268-.594-.037-.074-.037-.185-.1-.222a2.278,2.278,0,0,0-.3.418,3.527,3.527,0,0,0-.174.932c-.025.006-.013,0-.025.013-.2-.048-.265-.253-.339-.425a2.68,2.68,0,0,1-.055-1.648c.043-.129.228-.537.154-.661-.039-.117-.161-.185-.228-.28a2.288,2.288,0,0,1-.222-.394c-.148-.345-.222-.728-.382-1.073a3.2,3.2,0,0,0-.308-.474,3.107,3.107,0,0,1-.34-.48c-.03-.067-.074-.179-.025-.253a.105.105,0,0,1,.087-.083c.081-.066.309.02.39.057a3.157,3.157,0,0,1,.611.308c.087.061.18.178.291.209h.129c.2.043.42.013.6.067a3.951,3.951,0,0,1,.888.425,5.5,5.5,0,0,1,1.925,2.111c.074.142.106.272.174.42.129.3.289.612.42.907a4.02,4.02,0,0,0,.439.828c.092.129.463.2.63.264a4.485,4.485,0,0,1,.425.174c.212.129.419.277.619.419.1.07.409.224.427.349Z" transform="translate(-1 -6.039)" fill="#db1010"/>
</svg>
