<svg xmlns="http://www.w3.org/2000/svg" width="12.755" height="14.386" viewBox="0 0 12.755 14.386">
  <path id="Icon_awesome-node-js" data-name="Icon awesome-node-js" d="M6.424,14.671a1.118,1.118,0,0,1-.554-.148L4.109,13.48c-.263-.148-.134-.2-.049-.228a3.469,3.469,0,0,0,.8-.363.129.129,0,0,1,.131.011l1.353.8a.165.165,0,0,0,.163,0l5.273-3.043a.169.169,0,0,0,.08-.143V4.431a.17.17,0,0,0-.083-.146L6.5,1.245a.165.165,0,0,0-.163,0L1.074,4.288a.167.167,0,0,0-.083.146v6.083a.158.158,0,0,0,.083.14l1.444.834c.785.391,1.265-.069,1.265-.534V4.951A.151.151,0,0,1,3.937,4.8h.668a.153.153,0,0,1,.154.151V10.96A1.461,1.461,0,0,1,3.2,12.6a2.242,2.242,0,0,1-1.213-.331L.6,11.476a1.11,1.11,0,0,1-.554-.962V4.431A1.114,1.114,0,0,1,.6,3.469L5.87.426a1.156,1.156,0,0,1,1.108,0L12.25,3.472a1.11,1.11,0,0,1,.554.962v6.083a1.117,1.117,0,0,1-.554.962L6.977,14.522a1.11,1.11,0,0,1-.554.148Zm4.256-6c0-1.139-.771-1.442-2.389-1.656-1.639-.217-1.8-.328-1.8-.711,0-.317.14-.739,1.353-.739,1.082,0,1.482.234,1.647.965a.153.153,0,0,0,.148.12h.685a.149.149,0,0,0,.111-.049.159.159,0,0,0,.04-.117c-.106-1.259-.942-1.844-2.632-1.844-1.5,0-2.4.634-2.4,1.7,0,1.153.894,1.473,2.335,1.616,1.727.168,1.861.422,1.861.762,0,.588-.474.839-1.584.839-1.4,0-1.7-.351-1.8-1.045A.151.151,0,0,0,6.1,8.385H5.413a.15.15,0,0,0-.151.151c0,.888.482,1.947,2.792,1.947,1.667,0,2.626-.662,2.626-1.81Z" transform="translate(-0.049 -0.285)" fill="#db1010"/>
</svg>
