<svg xmlns="http://www.w3.org/2000/svg" width="33.997" height="11.331" viewBox="0 0 33.997 11.331">
  <g id="OBJ-C" transform="translate(-44.52 -189.026)">
    <path id="Path_15685" data-name="Path 15685" d="M116.628,222.7a2.894,2.894,0,0,1-3.054-2.188,3.89,3.89,0,0,1,.566-3.461,2.954,2.954,0,0,1,4.125-.537,2.857,2.857,0,0,1,1.028,1.63,4.222,4.222,0,0,1-.239,2.913A2.737,2.737,0,0,1,116.628,222.7Zm-2.182-3.352a3.44,3.44,0,0,0,.358,1.493,1.78,1.78,0,0,0,3.126.208,2.9,2.9,0,0,0,.477-1.579,2.852,2.852,0,0,0-.816-2.287,1.792,1.792,0,0,0-2.477.148A3.19,3.19,0,0,0,114.446,219.352Z" transform="translate(-63.054 -24.471)" fill="#db1010" stroke="#db1010" stroke-width="0.5"/>
    <path id="Path_15686" data-name="Path 15686" d="M199.42,219.641l-.053.577h-.828v-6.89h.992v2.692c.133-.123.22-.22.322-.295a1.951,1.951,0,0,1,2.821.57,2.935,2.935,0,0,1-.131,3.2,2,2,0,0,1-2.9.385A3.012,3.012,0,0,1,199.42,219.641Zm.116-1.745c0,.154,0,.307,0,.461a1.216,1.216,0,0,0,2.148.726,2.139,2.139,0,0,0,.233-2.067,1.154,1.154,0,0,0-1.008-.826,1.207,1.207,0,0,0-1.225.666A1.982,1.982,0,0,0,199.536,217.9Z" transform="translate(-141.266 -22.096)" fill="#db1010" stroke="#db1010" stroke-width="0.5"/>
    <path id="Path_15687" data-name="Path 15687" d="M47.235,199.026v.831a1.759,1.759,0,0,1-.183.02c-.692,0-1.384,0-2.075,0-.149,0-.207-.035-.207-.2q.007-4.937,0-9.874c0-.054.008-.108.012-.174h2.447v.819H45.791v8.573Z" transform="translate(0 -0.329)" fill="#db1010" stroke="#db1010" stroke-width="0.5"/>
    <path id="Path_15688" data-name="Path 15688" d="M426.648,198.7h1.462v-8.562h-1.446v-.861h2.426v10.257c-.072.006-.133.014-.194.015-.678,0-1.356,0-2.034,0-.158,0-.23-.037-.218-.21C426.659,199.14,426.648,198.938,426.648,198.7Z" transform="translate(-350.823 0)" fill="#db1010" stroke="#db1010" stroke-width="0.5"/>
    <path id="Path_15689" data-name="Path 15689" d="M331.754,217.12a3.188,3.188,0,0,0-1.434-.288,2.262,2.262,0,0,0-2.327,2.3,3.2,3.2,0,0,0,.2,1.458,2.186,2.186,0,0,0,1.887,1.313,3.674,3.674,0,0,0,1.69-.275c.067.248.139.48.184.717.008.044-.086.141-.147.157a7.75,7.75,0,0,1-1.035.231,3.884,3.884,0,0,1-1.972-.227,2.872,2.872,0,0,1-1.795-2.363,3.755,3.755,0,0,1,.438-2.6,3.137,3.137,0,0,1,2.426-1.52,4.047,4.047,0,0,1,1.935.2c.146.053.2.112.139.272C331.871,216.687,331.821,216.9,331.754,217.12Z" transform="translate(-259.234 -24.531)" fill="#db1010" stroke="#db1010" stroke-width="0.5"/>
    <path id="Path_15690" data-name="Path 15690" d="M251.387,245.856c.185-.043.361-.076.533-.125a.823.823,0,0,0,.618-.716,5.721,5.721,0,0,0,.079-.829c.008-1.341,0-2.683,0-4.024V239.9h.988c0,.063.014.123.014.183,0,1.313.013,2.627-.006,3.94a6.1,6.1,0,0,1-.15,1.28,1.77,1.77,0,0,1-1.856,1.311.182.182,0,0,1-.141-.1C251.432,246.3,251.413,246.079,251.387,245.856Z" transform="translate(-189.817 -46.508)" fill="#db1010" stroke="#db1010" stroke-width="0.5"/>
    <path id="Path_15691" data-name="Path 15691" d="M290.982,260.931c0,.2,0,.392,0,.58,0,.048-.007.1-.011.153a1.676,1.676,0,0,1-.171.018c-.706,0-1.412,0-2.118,0-.156,0-.213-.047-.2-.2.011-.179,0-.36,0-.552Z" transform="translate(-223.892 -65.829)" fill="#db1010" stroke="#db1010" stroke-width="0.5"/>
    <path id="Path_15692" data-name="Path 15692" d="M265.787,217.408a.54.54,0,0,1,.576.592.554.554,0,0,1-.6.574.584.584,0,1,1,.023-1.166Z" transform="translate(-202.475 -25.845)" fill="#db1010" stroke="#db1010" stroke-width="0.5"/>
  </g>
</svg>
