<svg id="Group_686" data-name="Group 686" xmlns="http://www.w3.org/2000/svg" width="21.254" height="12.415" viewBox="0 0 21.254 12.415">
  <path id="Path_10063" data-name="Path 10063" d="M48.959,248.072H34.722c-.041-.013-.081-.028-.122-.038a7.049,7.049,0,0,1-.925-.244,4.382,4.382,0,0,1-2.656-3.178c-.066-.259-.1-.527-.143-.791v-.708a1.58,1.58,0,0,0,.034-.163,4.607,4.607,0,0,1,1.465-3.005A3.769,3.769,0,0,1,35.51,238.9c.124.015.161-.034.2-.138a4.548,4.548,0,0,1,3.329-2.978c.222-.056.45-.083.676-.123h.675l.314.052a4.555,4.555,0,0,1,3.443,2.438.2.2,0,0,0,.219.124,6.339,6.339,0,0,1,1.107.046,3.79,3.79,0,0,1,2.685,1.882.211.211,0,0,0,.225.124,2.792,2.792,0,0,1,.538.011,3.544,3.544,0,0,1,3.1,2.94c.046.236.072.476.107.715v.4c-.011.049-.023.1-.033.146a7.557,7.557,0,0,1-.216,1.035,3.478,3.478,0,0,1-2.661,2.442ZM35.47,239.751a.7.7,0,0,0-.077-.006,3.833,3.833,0,0,0-3.445,4.566,3.774,3.774,0,0,0,3.619,3.054c4.188.037,8.377.013,12.566.007a3.153,3.153,0,0,0,3.149-3.046,2.827,2.827,0,0,0-1.375-2.68A3.128,3.128,0,0,0,48,241.22a.187.187,0,0,1-.219-.124,2.917,2.917,0,0,0-.248-.44,3.41,3.41,0,0,0-4.7-.926c-.047.031-.122.07-.161.053-.235-.1-.462-.222-.711-.344a4,4,0,0,1,1.351-.918,3.669,3.669,0,0,0-4-1.757,3.748,3.748,0,0,0-2.791,4.466c-.283-.094-.55-.195-.823-.269a.273.273,0,0,1-.231-.311C35.475,240.354,35.47,240.057,35.47,239.751Z" transform="translate(-30.876 -235.657)" fill="#db1010"/>
  <path id="Path_10064" data-name="Path 10064" d="M180.045,403.87c.129,0,.259-.005.388,0a.6.6,0,0,1,.574.592.576.576,0,0,1-.542.615,7.026,7.026,0,0,1-.842,0,.574.574,0,0,1-.547-.626.59.59,0,0,1,.582-.582C179.786,403.866,179.916,403.87,180.045,403.87Zm-.007.2c-.118,0-.236,0-.353,0a.406.406,0,0,0-.027.811,6.784,6.784,0,0,0,.756,0,.407.407,0,0,0-.023-.812C180.273,404.069,180.155,404.073,180.038,404.073Z" transform="translate(-173.369 -397.392)" fill="#db1010"/>
  <path id="Path_10065" data-name="Path 10065" d="M187.86,452.059h-9.645C178.33,451.977,187.664,451.958,187.86,452.059Z" transform="translate(-172.542 -443.661)" fill="#db1010"/>
  <path id="Path_10066" data-name="Path 10066" d="M391.458,403.874a.231.231,0,0,1-.273.206c-.173-.013-.348,0-.523,0a.392.392,0,0,0-.389.3h1.111c-.027.148-.083.215-.224.211-.286-.008-.572,0-.859,0a.341.341,0,0,0,.359.31c.213.006.427,0,.641,0h.171a.212.212,0,0,1-.254.2c-.2-.01-.394,0-.59-.006a.583.583,0,0,1-.587-.625.591.591,0,0,1,.609-.589C390.913,403.871,391.177,403.874,391.458,403.874Z" transform="translate(-376.212 -397.396)" fill="#db1010"/>
  <path id="Path_10067" data-name="Path 10067" d="M233.43,405.073v-1.2h.464c.174,0,.349,0,.523,0a.391.391,0,0,1,.434.374.4.4,0,0,1-.38.447c-.026,0-.052.01-.115.023l.411.356a.426.426,0,0,1-.428-.094c-.162-.16-.342-.3-.554-.489.227,0,.4,0,.58,0s.272-.073.275-.2-.09-.209-.266-.21c-.235,0-.47,0-.731,0,0,.29-.005.564,0,.838C233.647,405.066,233.6,405.131,233.43,405.073Z" transform="translate(-225.631 -397.398)" fill="#db1010"/>
  <path id="Path_10068" data-name="Path 10068" d="M272.044,404.809c.041-.07.078-.136.118-.2q.278-.441.559-.88c.1-.156.24-.174.334-.031.232.351.454.708.68,1.063a.169.169,0,0,1,.01.054c-.124.03-.226.035-.3-.1a.253.253,0,0,0-.174-.094,1.879,1.879,0,0,0-.37,0c-.134.011-.213-.038-.245-.2h.6l-.353-.57-.4.628a1.465,1.465,0,0,0-.123.2C272.313,404.832,272.2,404.857,272.044,404.809Z" transform="translate(-262.758 -397.133)" fill="#db1010"/>
  <path id="Path_10069" data-name="Path 10069" d="M316.1,404.89c-.036.151-.107.2-.236.2-.2-.009-.4,0-.607-.006a.594.594,0,0,1-.6-.619.6.6,0,0,1,.623-.6c.263,0,.527,0,.8,0a.227.227,0,0,1-.265.206c-.174-.011-.348-.006-.523,0a.4.4,0,0,0-.413.4.4.4,0,0,0,.412.419C315.557,404.9,315.82,404.89,316.1,404.89Z" transform="translate(-303.732 -397.391)" fill="#db1010"/>
  <path id="Path_10070" data-name="Path 10070" d="M357.485,405.272a.234.234,0,0,1-.263.2c-.286-.009-.573,0-.86,0-.1,0-.179-.027-.18-.148,0-.348,0-.7,0-1.057h.221c0,.265,0,.528,0,.79,0,.217,0,.217.225.218Z" transform="translate(-343.657 -397.772)" fill="#db1010"/>
  <path id="Path_10071" data-name="Path 10071" d="M337.995,472.888c.232.022.477-.063.633.168a.385.385,0,0,1,.008.433c-.151.245-.4.163-.641.183Zm.222.151v.474c.166.015.23-.07.24-.212C338.47,473.132,338.409,473.061,338.217,473.039Z" transform="translate(-326.17 -463.754)" fill="#db1010"/>
  <path id="Path_10072" data-name="Path 10072" d="M290.529,473.484a.36.36,0,0,1-.359-.417.353.353,0,0,1,.376-.382.362.362,0,0,1,.36.417A.357.357,0,0,1,290.529,473.484Zm.15-.385c0-.048,0-.089-.012-.113a1.467,1.467,0,0,0-.128-.149c-.044.049-.111.092-.125.149a.507.507,0,0,0,.01.246.154.154,0,0,0,.114.092c.04,0,.091-.052.116-.094A.364.364,0,0,0,290.678,473.1Z" transform="translate(-280.186 -463.559)" fill="#db1010"/>
  <path id="Path_10073" data-name="Path 10073" d="M314.811,472.94c0,.144,0,.266,0,.388,0,.1-.026.226.124.23s.129-.124.131-.222c0-.123,0-.245,0-.381l.168-.013c0,.191.011.369,0,.546s-.147.25-.345.241c-.181-.008-.283-.091-.292-.259s0-.335,0-.518Z" transform="translate(-303.667 -463.804)" fill="#db1010"/>
  <path id="Path_10074" data-name="Path 10074" d="M250.976,472.987a1.657,1.657,0,0,0-.2-.106.189.189,0,0,0-.145-.007.38.38,0,0,0,0,.423c.076.068.136.035.2-.026a.7.7,0,0,1,.191-.08c-.069.237-.194.319-.388.293a.408.408,0,0,1,.015-.789.29.29,0,0,1,.357.239Z" transform="translate(-241.89 -463.561)" fill="#db1010"/>
  <path id="Path_10075" data-name="Path 10075" d="M273.107,473.172h.215v.593l.313.015v.153h-.528Z" transform="translate(-263.78 -464.027)" fill="#db1010"/>
</svg>
