<svg xmlns="http://www.w3.org/2000/svg" width="14.078" height="14.511" viewBox="0 0 14.078 14.511">
  <path id="Icon_simple-postgresql" data-name="Icon simple-postgresql" d="M10.715,0A6.127,6.127,0,0,0,9.049.244L9.011.256a6.6,6.6,0,0,0-1.034-.1A3.454,3.454,0,0,0,6.16.6,7.019,7.019,0,0,0,3.6.2a3.116,3.116,0,0,0-2.146.9A3.862,3.862,0,0,0,.61,4.04a11.88,11.88,0,0,0,.3,1.741,20.5,20.5,0,0,0,.721,2.51,5.494,5.494,0,0,0,1.158,2.078,1.424,1.424,0,0,0,1.04.449,1.334,1.334,0,0,0,.8-.334.954.954,0,0,0,.342.273,1.66,1.66,0,0,0,.411.161,2.857,2.857,0,0,0,1.178.06,2.226,2.226,0,0,0,.529-.163c.007.2.015.395.022.593a5.626,5.626,0,0,0,.229,1.712,2.233,2.233,0,0,0,.44.886,1.757,1.757,0,0,0,1.695.457,2.457,2.457,0,0,0,1.6-.926,5.229,5.229,0,0,0,.661-2.908c.01-.077.021-.142.033-.2l.1.009h.012a3.592,3.592,0,0,0,1.64-.284,2.233,2.233,0,0,0,1.016-.776.776.776,0,0,0,.145-.389.79.79,0,0,0-.27-.62.812.812,0,0,0-.828-.119,3.791,3.791,0,0,1-.727.088A13.91,13.91,0,0,0,14.339,4.8a7.7,7.7,0,0,0,.272-1.782,2.073,2.073,0,0,0-.351-1.4A4.333,4.333,0,0,0,10.815,0h-.1Zm-.028.387a3.927,3.927,0,0,1,3.242,1.464,1.79,1.79,0,0,1,.264,1.139,7.44,7.44,0,0,1-.259,1.687A13.557,13.557,0,0,1,12.181,8.6a.457.457,0,0,0,.1.052,2.537,2.537,0,0,0,1.373-.029.548.548,0,0,1,.5.045.314.314,0,0,1,.111.257.426.426,0,0,1-.079.2,2.063,2.063,0,0,1-.848.632,3.339,3.339,0,0,1-1.279.25,1.96,1.96,0,0,1-.6-.068l-.011,0c-.067.641-.219,1.906-.319,2.484a2.031,2.031,0,0,1-.486,1.113,2.153,2.153,0,0,1-1.149.553,1.558,1.558,0,0,1-1.38-.259,1.887,1.887,0,0,1-.51-.778,2.274,2.274,0,0,1-.112-.56c-.028-.241-.048-.535-.062-.867Q7.4,10.861,7.409,10.1a1.851,1.851,0,0,1-.938.46A2.476,2.476,0,0,1,5.46,10.5a1.376,1.376,0,0,1-.314-.122.581.581,0,0,1-.266-.24.339.339,0,0,1-.034-.23.369.369,0,0,1,.132-.2,1.168,1.168,0,0,1,.517-.2,1.659,1.659,0,0,0,.679-.224A3.717,3.717,0,0,0,6.5,8.909q0-.012,0-.025a1.79,1.79,0,0,1-.8-.216c-.091.1-.554.585-1.119,1.265a1.106,1.106,0,0,1-.777.459,1.017,1.017,0,0,1-.74-.334A5.356,5.356,0,0,1,2,8.132,20.14,20.14,0,0,1,1.29,5.673,12.108,12.108,0,0,1,1,4,3.451,3.451,0,0,1,1.74,1.358,2.717,2.717,0,0,1,3.613.582a6.719,6.719,0,0,1,2.6.444A2.957,2.957,0,0,1,7.958.543,4.468,4.468,0,0,1,8.975.675L8.987.669A4.144,4.144,0,0,1,9.434.54,5.82,5.82,0,0,1,10.686.388Zm.092.405H10.69A5.285,5.285,0,0,0,9.66.908a4.53,4.53,0,0,1,1.723,1.36,5.1,5.1,0,0,1,.684,1.161,2.78,2.78,0,0,1,.137.4.829.829,0,0,1,.024.143.266.266,0,0,1-.007.087s0,.006,0,.008c.018.53-.113.889-.129,1.394-.012.366.082.8.1,1.267a2.4,2.4,0,0,1-.318,1.4c.024.029.046.058.069.087a13.211,13.211,0,0,0,1.6-3.642,7.119,7.119,0,0,0,.246-1.591,1.565,1.565,0,0,0-.178-.883A3.469,3.469,0,0,0,10.778.791Zm-2.9.155a2.429,2.429,0,0,0-1.616.541A2.993,2.993,0,0,0,5.42,2.749a5.347,5.347,0,0,0-.31,1.46l.008,0a3.133,3.133,0,0,1,.8-.312,1.588,1.588,0,0,1,.927.024,1.052,1.052,0,0,1,.63.8,4.346,4.346,0,0,1-.338,3.254,5.811,5.811,0,0,0-.2.613.594.594,0,0,1,.078-.016.661.661,0,0,1,.327.065.794.794,0,0,1,.426.472.83.83,0,0,1,.043.172.2.2,0,0,1,.012.077q-.034,1.13.008,2.26c.014.325.034.612.06.838a2.309,2.309,0,0,0,.086.455,1.536,1.536,0,0,0,.395.619,1.11,1.11,0,0,0,1.033.172,1.76,1.76,0,0,0,.943-.437,1.634,1.634,0,0,0,.379-.9c.109-.635.33-2.476.356-2.822a1.158,1.158,0,0,1,.11-.615.715.715,0,0,1,.334-.305,1.135,1.135,0,0,1,.155-.056q-.07-.1-.147-.2a2.694,2.694,0,0,1-.4-.665q-.073-.149-.155-.292c-.08-.145-.182-.327-.288-.53a6.586,6.586,0,0,1-.565-1.385,1.444,1.444,0,0,1,.17-1.331,1.635,1.635,0,0,1,1.467-.369c-.021-.063-.034-.116-.07-.2a4.726,4.726,0,0,0-.629-1.067A3.909,3.909,0,0,0,7.952.948h-.07ZM3.866.978c-.077,0-.154,0-.23.007a2.308,2.308,0,0,0-1.6.65,3.041,3.041,0,0,0-.626,2.344,12.744,12.744,0,0,0,.278,1.6A19.9,19.9,0,0,0,2.377,7.99a5.26,5.26,0,0,0,.961,1.776.619.619,0,0,0,.44.219.7.7,0,0,0,.482-.313q.528-.636,1.094-1.238a2.114,2.114,0,0,1-.706-1.9,7.514,7.514,0,0,0,.063-1.195c-.007-.322-.03-.536-.03-.669q0-.006,0-.011V4.647h0A5.982,5.982,0,0,1,5.04,2.6a3.492,3.492,0,0,1,.8-1.277A6.851,6.851,0,0,0,4.1.984Q3.981.978,3.866.978Zm7.5,3.194a.986.986,0,0,0-.762.25,1.091,1.091,0,0,0-.081.966,6.31,6.31,0,0,0,.53,1.3c.1.2.2.375.283.52a3.657,3.657,0,0,1,.177.336,1.944,1.944,0,0,0,.108.219,2.035,2.035,0,0,0,.171-1.009c-.021-.425-.12-.86-.105-1.3.016-.515.118-.85.127-1.247a3.5,3.5,0,0,0-.447-.029Zm-4.979.07a1.705,1.705,0,0,0-.372.045,2.821,2.821,0,0,0-.7.271A1.461,1.461,0,0,0,5.1,4.7l-.013.012c0,.088.021.3.028.617a7.929,7.929,0,0,1-.068,1.26A1.6,1.6,0,0,0,6.538,8.477a5.914,5.914,0,0,1,.221-.654A3.824,3.824,0,0,0,7.08,4.8a.6.6,0,0,0-.38-.5.891.891,0,0,0-.317-.051Zm4.787.123h.03a.531.531,0,0,1,.109.013.249.249,0,0,1,.083.033.1.1,0,0,1,.045.067v0h0a.145.145,0,0,1-.021.082.4.4,0,0,1-.067.091.409.409,0,0,1-.233.128.357.357,0,0,1-.248-.062.368.368,0,0,1-.079-.071.157.157,0,0,1-.038-.077.1.1,0,0,1,.025-.077.232.232,0,0,1,.071-.054.674.674,0,0,1,.226-.07.781.781,0,0,1,.1-.008Zm-4.728.1a.73.73,0,0,1,.1.008.662.662,0,0,1,.238.074.27.27,0,0,1,.08.064.135.135,0,0,1,.033.1.183.183,0,0,1-.045.093.392.392,0,0,1-.086.079.387.387,0,0,1-.271.068.44.44,0,0,1-.254-.138.429.429,0,0,1-.071-.1.169.169,0,0,1-.025-.107.155.155,0,0,1,.115-.118.524.524,0,0,1,.186-.024Zm5.478,4.44h0c-.089.032-.162.045-.224.073a.273.273,0,0,0-.145.129.777.777,0,0,0-.061.4.308.308,0,0,0,.089.042,1.687,1.687,0,0,0,.47.049,3.151,3.151,0,0,0,1.113-.212,2.388,2.388,0,0,0,.57-.372h0a2.827,2.827,0,0,1-1.61.007.8.8,0,0,1-.2-.121Zm-4.856.057H7.052c-.032,0-.079.014-.169.114a4.375,4.375,0,0,1-.458.522,1.94,1.94,0,0,1-.85.3,1.16,1.16,0,0,0-.279.087.157.157,0,0,0,.042.032,1.008,1.008,0,0,0,.219.086,2.11,2.11,0,0,0,.843.048,1.444,1.444,0,0,0,.972-.629.312.312,0,0,0,.015-.29A.449.449,0,0,0,7.188,9a.4.4,0,0,0-.123-.036Z" transform="translate(-0.601)" fill="#db1010"/>
</svg>
