<svg xmlns="http://www.w3.org/2000/svg" width="14.993" height="14.993" viewBox="0 0 14.993 14.993">
  <path id="Icon_awesome-python" data-name="Icon awesome-python" d="M14.718,7.889c-.258-1.034-.746-1.814-1.787-1.814H11.589V7.661A2.3,2.3,0,0,1,9.354,9.93H5.779a1.824,1.824,0,0,0-1.787,1.817v3.407c0,.97.843,1.539,1.787,1.817a6.014,6.014,0,0,0,3.574,0c.9-.261,1.787-.786,1.787-1.817V13.792H7.57v-.455h5.361c1.041,0,1.426-.726,1.787-1.814a6.121,6.121,0,0,0,0-3.634ZM9.578,14.7a.681.681,0,1,1-.673.679A.676.676,0,0,1,9.578,14.7ZM5.615,9.482H9.19a1.8,1.8,0,0,0,1.787-1.817V4.255A2,2,0,0,0,9.19,2.394a11.031,11.031,0,0,0-3.574,0c-1.513.268-1.787.827-1.787,1.861V5.62H7.406v.455H2.486A2.234,2.234,0,0,0,.251,7.889a6.7,6.7,0,0,0,0,3.634c.254,1.058.86,1.814,1.9,1.814H3.38V11.7A2.272,2.272,0,0,1,5.615,9.482ZM5.391,4.71a.681.681,0,1,1,.673-.679A.676.676,0,0,1,5.391,4.71Z" transform="translate(0 -2.25)" fill="#db1010"/>
</svg>
