<svg xmlns="http://www.w3.org/2000/svg" width="17.923" height="15.683" viewBox="0 0 17.923 15.683">
  <path id="Icon_awesome-react" data-name="Icon awesome-react" d="M14.639,7.333q-.284-.095-.567-.179c.032-.13.06-.259.088-.389C14.59,4.68,14.307,3,13.351,2.45c-.921-.529-2.422.021-3.942,1.344-.151.13-.3.266-.438.4-.095-.091-.193-.182-.291-.27C7.089,2.513,5.492,1.918,4.537,2.474c-.917.532-1.19,2.111-.805,4.085.039.2.081.389.13.585-.224.063-.445.133-.651.207C1.341,8,0,9.021,0,10.078c0,1.092,1.428,2.188,3.371,2.853.158.053.315.105.476.151-.053.21-.1.417-.14.63-.368,1.943-.081,3.483.837,4.012.945.546,2.534-.014,4.082-1.369.123-.109.245-.221.368-.34.154.151.315.294.476.434,1.5,1.288,2.979,1.81,3.893,1.281.945-.546,1.253-2.2.854-4.218q-.047-.231-.105-.473c.112-.032.221-.067.329-.1,2.02-.669,3.483-1.75,3.483-2.86C17.923,9.017,16.544,7.988,14.639,7.333ZM9.9,4.361c1.3-1.134,2.517-1.579,3.07-1.26.592.34.819,1.712.448,3.515-.025.119-.049.235-.081.35a17.92,17.92,0,0,0-2.356-.371A17.686,17.686,0,0,0,9.494,4.736c.137-.13.27-.252.41-.375Zm-4.05,7.533c.179.3.361.609.553.907a15.852,15.852,0,0,1-1.624-.263,16.352,16.352,0,0,1,.571-1.558c.161.308.326.613.5.914ZM4.792,7.683c.5-.112,1.04-.2,1.6-.273C6.2,7.7,6.021,8,5.849,8.3s-.34.6-.5.91C5.132,8.688,4.946,8.177,4.792,7.683ZM5.751,10.1c.231-.483.483-.956.749-1.421s.553-.917.854-1.362c.525-.039,1.061-.06,1.607-.06s1.085.021,1.607.06q.446.662.851,1.355t.76,1.414q-.352.725-.756,1.428c-.266.466-.55.917-.847,1.365-.522.039-1.064.056-1.614.056s-1.082-.018-1.6-.049q-.457-.667-.861-1.365C6.234,11.051,5.986,10.578,5.751,10.1Zm6.322,1.792c.179-.308.347-.62.511-.935a16.25,16.25,0,0,1,.592,1.551,15.375,15.375,0,0,1-1.645.28C11.72,12.49,11.9,12.189,12.073,11.887Zm.5-2.678c-.165-.308-.333-.616-.508-.917s-.35-.592-.536-.882a16.109,16.109,0,0,1,1.607.28,15.492,15.492,0,0,1-.564,1.519ZM8.968,5.271A15.372,15.372,0,0,1,10,6.525c-.693-.032-1.39-.032-2.083,0C8.265,6.073,8.618,5.653,8.968,5.271ZM4.908,3.126c.588-.343,1.894.147,3.27,1.365.088.077.175.161.266.245a17.785,17.785,0,0,0-1.5,1.859,18.452,18.452,0,0,0-2.352.364c-.046-.179-.084-.361-.123-.543C4.138,4.722,4.355,3.444,4.908,3.126ZM4.05,12.353c-.147-.042-.291-.088-.434-.137a7.139,7.139,0,0,1-2.205-1.092,1.571,1.571,0,0,1-.658-1.047c0-.641,1.106-1.46,2.7-2.016.2-.07.4-.133.606-.193A18.614,18.614,0,0,0,4.918,10.1a19.135,19.135,0,0,0-.868,2.258Zm4.082,3.431a6.407,6.407,0,0,1-1.974,1.236,1.549,1.549,0,0,1-1.236.046c-.557-.322-.788-1.558-.473-3.221.039-.2.081-.392.13-.585a17.512,17.512,0,0,0,2.377.343,18.474,18.474,0,0,0,1.512,1.869C8.356,15.581,8.244,15.686,8.132,15.784Zm.858-.851c-.357-.385-.714-.812-1.061-1.271.336.014.683.021,1.033.021s.714-.007,1.064-.025A15.1,15.1,0,0,1,8.989,14.933Zm4.575,1.05a1.556,1.556,0,0,1-.578,1.1c-.557.322-1.743-.1-3.024-1.2-.147-.126-.294-.263-.445-.4A17.317,17.317,0,0,0,11,13.6a17.257,17.257,0,0,0,2.387-.368c.035.144.067.287.095.427a6.381,6.381,0,0,1,.088,2.321ZM14.2,12.22c-.1.032-.2.063-.3.091a17.783,17.783,0,0,0-.893-2.233,17.694,17.694,0,0,0,.858-2.2c.182.053.357.109.525.165,1.631.56,2.776,1.393,2.776,2.03C17.17,10.757,15.949,11.642,14.2,12.22Zm-5.24-.525a1.6,1.6,0,1,0-1.6-1.6A1.6,1.6,0,0,0,8.961,11.695Z" transform="translate(0 -2.251)" fill="#db1010"/>
</svg>
