<svg xmlns="http://www.w3.org/2000/svg" width="12.136" height="10.619" viewBox="0 0 12.136 10.619">
  <path id="react_native" d="M9.913,5.692q-.192-.064-.384-.121c.021-.088.04-.175.059-.263.292-1.413.1-2.548-.548-2.923-.623-.358-1.64.014-2.669.91-.1.088-.2.18-.3.273-.064-.062-.13-.123-.2-.183C4.8,2.428,3.719,2.025,3.072,2.4c-.621.36-.806,1.429-.545,2.766.026.133.055.263.088.4-.152.043-.3.09-.441.14C.908,6.143,0,6.835,0,7.551c0,.74.967,1.481,2.283,1.932.107.036.213.071.322.1-.036.142-.066.282-.095.427-.249,1.316-.055,2.358.566,2.716.64.37,1.716-.009,2.764-.927.083-.073.166-.149.249-.23.1.1.213.2.322.294,1.014.872,2.017,1.225,2.636.868.64-.37.849-1.491.578-2.856q-.032-.156-.071-.32c.076-.021.149-.045.223-.069,1.368-.453,2.358-1.185,2.358-1.937,0-.718-.934-1.415-2.223-1.858ZM6.706,3.68c.882-.768,1.7-1.069,2.079-.853.4.23.555,1.159.3,2.38-.017.081-.033.159-.055.237a12.134,12.134,0,0,0-1.6-.251,11.976,11.976,0,0,0-1.01-1.259c.092-.088.183-.171.277-.254Zm-2.742,5.1c.121.206.244.412.375.614a10.733,10.733,0,0,1-1.1-.178,11.072,11.072,0,0,1,.386-1.055c.109.209.22.415.339.619ZM3.245,5.929c.341-.076.7-.137,1.081-.185-.126.2-.249.4-.365.6s-.23.408-.337.616c-.149-.353-.275-.7-.379-1.033Zm.649,1.633c.156-.327.327-.647.507-.962s.375-.621.578-.922c.356-.026.718-.04,1.088-.04s.735.014,1.088.04q.3.448.576.917t.514.958q-.238.491-.512.967c-.18.315-.372.621-.574.924-.353.026-.721.038-1.093.038s-.732-.012-1.081-.033Q4.678,9,4.4,8.525c-.183-.315-.351-.635-.51-.962ZM8.175,8.776c.121-.209.235-.42.346-.633a11,11,0,0,1,.4,1.05,10.411,10.411,0,0,1-1.114.19C7.936,9.184,8.057,8.98,8.175,8.776Zm.341-1.813c-.111-.209-.225-.417-.344-.621s-.237-.4-.363-.6a10.907,10.907,0,0,1,1.088.19,10.49,10.49,0,0,1-.382,1.029ZM6.073,4.3a10.408,10.408,0,0,1,.7.849c-.469-.021-.941-.021-1.41,0C5.6,4.839,5.836,4.554,6.073,4.3ZM3.323,2.843c.4-.232,1.282.1,2.214.924.059.052.119.109.18.166A12.042,12.042,0,0,0,4.7,5.192a12.5,12.5,0,0,0-1.593.247c-.031-.121-.057-.244-.083-.367-.223-1.147-.076-2.012.3-2.228ZM2.742,9.091c-.1-.028-.2-.059-.294-.092a4.834,4.834,0,0,1-1.493-.74A1.064,1.064,0,0,1,.51,7.551c0-.434.749-.988,1.83-1.365.135-.047.273-.09.41-.13A12.6,12.6,0,0,0,3.33,7.562a12.957,12.957,0,0,0-.588,1.529Zm2.764,2.323a4.338,4.338,0,0,1-1.337.837,1.049,1.049,0,0,1-.837.031c-.377-.218-.533-1.055-.32-2.181.026-.133.055-.265.088-.4a11.858,11.858,0,0,0,1.609.232A12.509,12.509,0,0,0,5.734,11.2C5.658,11.277,5.582,11.348,5.506,11.414Zm.581-.576c-.242-.261-.484-.55-.718-.86.228.009.462.014.7.014s.484,0,.721-.017a10.222,10.222,0,0,1-.7.863Zm3.1.711a1.053,1.053,0,0,1-.391.742c-.377.218-1.18-.066-2.048-.811-.1-.085-.2-.178-.3-.273a11.725,11.725,0,0,0,1-1.27,11.685,11.685,0,0,0,1.617-.249c.024.1.045.194.064.289a4.321,4.321,0,0,1,.059,1.571ZM9.616,9c-.066.021-.133.043-.2.062a12.041,12.041,0,0,0-.6-1.512A11.981,11.981,0,0,0,9.391,6.06c.123.036.242.073.356.111,1.1.379,1.88.943,1.88,1.375C11.626,8.01,10.8,8.61,9.616,9ZM6.068,8.646A1.086,1.086,0,1,0,4.982,7.56,1.085,1.085,0,0,0,6.068,8.646Z" transform="translate(0 -2.251)" fill="#db1010"/>
</svg>
