<svg xmlns="http://www.w3.org/2000/svg" width="17.372" height="14.889" viewBox="0 0 17.372 14.889">
  <path id="Icon_simple-redis" data-name="Icon simple-redis" d="M17.367,11.71c-.007.166-.227.351-.677.586-.927.483-5.729,2.458-6.751,2.991a2.282,2.282,0,0,1-2.4.141c-.808-.386-5.918-2.451-6.838-2.89-.46-.22-.694-.405-.7-.58v1.756c0,.175.242.361.7.581.921.44,6.031,2.5,6.838,2.89a2.281,2.281,0,0,0,2.4-.142c1.022-.533,5.824-2.507,6.751-2.991.471-.245.68-.436.68-.609s0-1.731,0-1.731h0Zm0-2.863c-.008.166-.227.35-.676.586-.927.483-5.729,2.458-6.751,2.991a2.284,2.284,0,0,1-2.4.142C6.733,12.18,1.623,10.115.7,9.675.243,9.455.008,9.269,0,9.1v1.756c0,.175.242.36.7.58.921.44,6.031,2.5,6.838,2.89a2.282,2.282,0,0,0,2.4-.141c1.022-.533,5.824-2.508,6.751-2.991.471-.246.68-.437.68-.61s0-1.731,0-1.731h0Zm0-2.969c.009-.177-.222-.331-.687-.5-.9-.331-5.677-2.231-6.591-2.566a2.726,2.726,0,0,0-2.36.064C6.654,3.261,1.572,5.254.668,5.608c-.452.178-.674.342-.666.518V7.881c0,.175.242.36.7.58.921.44,6.031,2.505,6.838,2.891a2.284,2.284,0,0,0,2.4-.142c1.022-.533,5.824-2.508,6.751-2.991.471-.246.68-.437.68-.61s0-1.731,0-1.731h-.006ZM6.22,7.54l4.025-.618L9.029,8.7,6.22,7.54Zm8.9-1.605-2.38.94-.258.1L10.1,6.036l2.636-1.042ZM8.134,4.21l-.389-.718,1.215.475L10.1,3.592l-.31.742,1.167.437-1.5.156-.337.811-.544-.9L6.837,4.678Zm-3,1.013c1.188,0,2.151.373,2.151.834s-.963.834-2.151.834-2.152-.374-2.152-.834S3.947,5.223,5.135,5.223Z" transform="translate(0 -2.572)" fill="#db1010"/>
</svg>
