<svg xmlns="http://www.w3.org/2000/svg" width="16.025" height="14.265" viewBox="0 0 16.025 14.265">
  <path id="swift" d="M14.681,12.014c.037-.075.037-.15.075-.224.9-3.52-1.236-7.639-4.906-9.811a8.608,8.608,0,0,1,1.685,7.078,3.683,3.683,0,0,1-.187.6,3.454,3.454,0,0,1-.3-.187A45.792,45.792,0,0,1,3.522,3.289,45.15,45.15,0,0,0,8.09,9.019,49.731,49.731,0,0,1,1.574,4.075a8.64,8.64,0,0,0,.9,1.236,38.458,38.458,0,0,0,6.666,6.965,7.744,7.744,0,0,1-7.265,0A10.757,10.757,0,0,1,0,11.153a11.06,11.06,0,0,0,4.981,4.232,7.9,7.9,0,0,0,6.89,0h.038a.782.782,0,0,0,.224-.15c.9-.449,2.659-.936,3.633.936.262.524.749-1.91-1.086-4.157Z" transform="translate(-0.002 -1.979)" fill="#db1010"/>
</svg>
