<svg xmlns="http://www.w3.org/2000/svg" width="15.615" height="15.615" viewBox="0 0 15.615 15.615">
  <path id="Icon_simple-typescript" data-name="Icon simple-typescript" d="M0,7.808v7.808H15.615V0H0Zm12.584-.622a1.941,1.941,0,0,1,.977.563,2.524,2.524,0,0,1,.374.5c.005.02-.674.475-1.085.731-.015.01-.075-.055-.141-.154a.886.886,0,0,0-.734-.441c-.474-.033-.778.215-.776.629a.573.573,0,0,0,.066.293c.1.215.3.345.9.607a3.9,3.9,0,0,1,1.894,1.249,2.267,2.267,0,0,1,.181,1.9A2.09,2.09,0,0,1,12.517,14.3a4.765,4.765,0,0,1-1.189-.012,2.871,2.871,0,0,1-1.589-.828,2.75,2.75,0,0,1-.407-.6,1.029,1.029,0,0,1,.143-.092l.58-.335.449-.26.094.139a2.1,2.1,0,0,0,.592.567A1.449,1.449,0,0,0,12.71,12.8a.677.677,0,0,0,.087-.865c-.121-.173-.369-.319-1.073-.625a3.862,3.862,0,0,1-1.47-.9,2.059,2.059,0,0,1-.429-.781,3.141,3.141,0,0,1-.027-1,1.9,1.9,0,0,1,1.6-1.482,3.952,3.952,0,0,1,1.185.034Zm-3.666.652.005.64H6.89v5.775H5.452V8.477H3.421V7.85a6.24,6.24,0,0,1,.017-.644c.008-.01,1.245-.016,2.744-.013L8.911,7.2Z" fill="#db1010"/>
</svg>
