<svg xmlns="http://www.w3.org/2000/svg" xmlns:xlink="http://www.w3.org/1999/xlink" width="1440" height="682" viewBox="0 0 1440 682">
  <defs>
    <clipPath id="clip-path">
      <rect id="Rectangle_556" data-name="Rectangle 556" width="1440" height="682" fill="#fff"/>
    </clipPath>
  </defs>
  <g id="Mask_Group_33" data-name="Mask Group 33" clip-path="url(#clip-path)">
    <g id="Group_4346" data-name="Group 4346" transform="matrix(-0.966, 0.259, -0.259, -0.966, 1457.505, 537.161)" opacity="0.3" style="mix-blend-mode: multiply;isolation: isolate">
      <path id="Path_11449" data-name="Path 11449" d="M.544,4.576c-6.006,49.928,44.948,92.491,96.1,100.6S198.942,97.609,249.5,87.68,357,74.743,399.492,104.007c54.324,37.412,67.369,115.436,123.232,150.607,43.542,27.414,99.92,19.679,144.2-.2,25.036-11.241,46.258-30.288,70.172-43.5C845.546,151.025,852.035,27.175,944.4,9.322c100.007-19.331,154.673,28.573,173.8,61.67,24.5,42.394,65.622,152.249-32.769,227.735-39.969,30.666-79.416,63.37-108.7,103.905-43.84,60.688-42.9,153.93,14.047,204.706,39.028,34.8,98.691,47.829,125.347,92.289,17.917,29.883,15.76,68.237.749,99.175s-41.362,55.309-70.036,75.023" transform="translate(0.245 47.718)" fill="none" stroke="#8a8a8a" stroke-miterlimit="10" stroke-width="1"/>
      <path id="Path_11450" data-name="Path 11450" d="M.255,0C-3.774,51.375,46.919,96.128,99.6,105.32c51.423,8.971,103.418-6.574,153.975-17.569C303.538,76.885,359.056,72.179,401.395,98.8c54.082,34.07,69.736,108.153,125.528,142.868,44.442,27.507,99.947,22.824,145.3,5.491,26.057-9.957,49.082-27.89,74.13-41.282C852.538,149.112,860.478,29.3,950.83,11.685c97.184-18.907,151.534,26.447,171.4,59.022,25.17,41.279,64.411,147.119-28.535,221.774-38.319,30.778-76.3,64.126-105.108,104.414-42.544,59.251-42.316,149.168,11.446,199.485,37.2,34.812,94.729,49.28,121.27,93.168,18.216,30,17.368,67.819,4.28,99-13.209,31.473-37.518,57.251-65.057,78.437" transform="translate(2.811 49.814)" fill="none" stroke="#909090" stroke-miterlimit="10" stroke-width="1"/>
      <path id="Path_11451" data-name="Path 11451" d="M.077,0c-2.053,52.821,48.378,99.747,102.6,110.038,51.694,9.81,104.533-5.568,155.09-17.644,49.362-11.79,103.458-18.206,145.645,5.78C457.251,128.9,475.432,199.168,531.23,233.3c45.279,27.7,100.027,26,146.406,11.183,27.107-8.662,51.894-25.5,78.087-39.069,103.818-53.783,113.31-169.423,201.653-186.8,94.362-18.48,148.385,24.321,168.993,56.375,25.825,40.165,63.212,142.062-24.3,215.814-36.681,30.913-73.187,64.879-101.518,104.922-41.249,57.812-41.735,144.435,8.845,194.262,35.371,34.844,90.768,50.733,117.193,94.049,18.516,30.125,18.987,67.427,7.812,98.829-11.4,32.035-33.675,59.195-60.078,81.85" transform="translate(5.266 47.336)" fill="none" stroke="#959595" stroke-miterlimit="10" stroke-width="1"/>
      <path id="Path_11452" data-name="Path 11452" d="M0,0C-.076,54.27,50.09,103.352,105.844,114.757c51.968,10.631,105.647-4.551,156.208-17.719,48.762-12.7,101.437-20.841,143.472.509,53.6,27.385,74.358,93.759,130.115,127.388,46.156,27.838,100.156,29.223,147.509,16.874,28.185-7.352,54.7-23.116,82.045-36.857,101.362-50.926,112.5-162.262,198.83-179.394,91.54-18.055,145.226,22.2,166.591,53.727,26.462,39.055,62.023,137.083-20.067,209.853-35.055,31.075-69.954,65.713-97.93,105.431-39.787,56.488-41.158,139.737,6.245,189.041,33.551,34.9,86.7,52.246,113.115,94.928,18.743,30.288,20.624,67.062,11.345,98.656-9.582,32.623-29.83,61.137-55.1,85.264" transform="translate(7.62 44.857)" fill="none" stroke="#9b9b9b" stroke-miterlimit="10" stroke-width="1"/>
      <path id="Path_11453" data-name="Path 11453" d="M0,0C1.9,55.718,51.8,106.94,109.092,119.476c52.24,11.432,106.761-3.521,157.324-17.792,48.164-13.594,99.416-23.477,141.3-4.765,53.359,24.043,76.7,86.52,132.409,119.649,47.035,27.969,100.325,32.488,148.612,22.564,29.287-6.017,57.486-20.739,86-34.642,98.828-48.187,111.682-155.1,196.007-172,88.717-17.629,142.053,20.073,164.185,51.081,27.087,37.949,60.855,132.187-15.833,203.892-33.437,31.267-66.8,66.491-94.339,105.94-38.447,55.08-40.589,135.074,3.644,183.82,31.734,34.971,82.716,53.714,109.037,95.807,19.024,30.422,22.279,66.719,14.875,98.483-7.745,33.237-25.985,63.081-50.116,88.677" transform="translate(9.899 42.378)" fill="none" stroke="#a0a0a0" stroke-miterlimit="10" stroke-width="1"/>
      <path id="Path_11454" data-name="Path 11454" d="M0,0C3.874,57.164,53.516,110.512,112.339,124.194c52.516,12.216,107.875-2.477,158.442-17.867,47.565-14.475,97.428-26.192,139.125-10.038,53.161,20.6,79.046,79.273,134.7,111.91,47.918,28.1,100.523,35.8,149.716,28.256,30.407-4.661,60.264-18.372,89.96-32.431,96.228-45.552,110.87-147.942,193.184-164.593,85.9-17.2,138.872,17.951,161.783,48.432,27.694,36.847,59.713,127.386-11.6,197.932-31.831,31.489-63.657,67.266-90.749,106.448-37.112,53.668-40.033,130.449,1.042,178.6,29.916,35.072,78.733,55.179,104.96,96.687,19.305,30.555,23.957,66.4,18.407,98.31-5.891,33.872-22.143,65.022-45.138,92.091" transform="translate(12.176 39.9)" fill="none" stroke="#a6a6a6" stroke-miterlimit="10" stroke-width="1"/>
      <path id="Path_11455" data-name="Path 11455" d="M0,0C5.851,58.612,55.232,114.068,115.586,128.913c52.794,12.984,108.991-1.422,159.56-17.94C322.113,95.63,370.552,82.131,412.1,95.661c52.919,17.235,81.4,72.019,137,104.169,48.8,28.22,100.742,39.154,150.817,33.949,31.539-3.281,63.034-16.018,93.918-30.217C887.4,160.545,903.887,62.779,984.193,46.367c83.071-16.778,135.677,15.833,159.377,45.786,28.287,35.748,58.61,122.682-7.364,191.971a869.819,869.819,0,0,0-87.161,106.955c-35.782,52.255-39.489,125.867-1.559,173.379,28.1,35.2,74.756,56.642,100.883,97.566,19.591,30.685,25.663,66.091,21.939,98.137-4.011,34.526-18.3,66.966-40.157,95.5" transform="translate(14.453 37.421)" fill="none" stroke="#ababab" stroke-miterlimit="10" stroke-width="1"/>
      <path id="Path_11456" data-name="Path 11456" d="M0,0C7.827,60.059,56.951,117.611,118.835,133.631c53.074,13.74,110.106-.352,160.676-18.015,46.372-16.2,93.381-31.489,134.778-20.584,52.675,13.877,83.752,64.758,139.292,96.43C603.272,219.8,654.558,234.018,705.5,231.1c32.683-1.871,65.791-13.676,97.876-28C894.229,162.528,912.62,69.475,990.917,53.3c80.248-16.353,132.472,13.719,156.973,43.138,28.865,34.659,57.553,118.085-3.131,186.011a1034.575,1034.575,0,0,0-83.571,107.463c-34.457,50.834-38.966,121.327-4.16,168.158,26.276,35.353,70.781,58.1,96.805,98.445a163.161,163.161,0,0,1,25.472,97.963c-2.105,35.191-14.456,68.908-35.177,98.917" transform="translate(16.731 34.943)" fill="none" stroke="#b1b1b1" stroke-miterlimit="10" stroke-width="1"/>
      <path id="Path_11457" data-name="Path 11457" d="M0,0C9.8,61.5,58.672,121.139,122.082,138.349c53.359,14.483,111.226.73,161.793-18.089,45.782-17.037,91.356-34.133,132.606-25.856,52.427,10.519,86.112,57.49,141.586,88.689,50.584,28.449,101.22,46,153.024,45.33,33.829-.438,68.538-11.352,101.832-25.791,88.1-38.2,108.431-126.463,184.718-142.391,77.426-15.929,129.258,11.609,154.571,40.49,29.428,33.575,56.554,113.6,1.1,180.05-27.026,32.384-54.233,69.578-79.983,107.972-33.137,49.41-38.469,116.831-6.76,162.937,24.442,35.539,66.811,59.563,92.729,99.324a178.144,178.144,0,0,1,29,97.79c-.17,35.867-10.61,70.852-30.2,102.331" transform="translate(19.008 32.465)" fill="none" stroke="#b7b7b7" stroke-miterlimit="10" stroke-width="1"/>
      <path id="Path_11458" data-name="Path 11458" d="M0,0C11.779,62.954,60.4,124.657,125.33,143.07c53.643,15.212,112.349,1.825,162.909-18.163,45.194-17.866,89.328-36.777,130.432-31.13,52.178,7.168,88.475,50.215,143.879,80.95,51.481,28.557,101.463,49.483,154.127,51.022,34.976,1.022,71.274-9.046,105.789-23.579,85.3-35.914,107.619-119.3,181.9-134.991,74.6-15.5,126.031,9.508,152.166,37.843,29.979,32.5,55.63,109.232,5.336,174.088-25.409,32.768-51.1,70.344-76.391,108.481-31.827,47.982-38.006,112.381-9.362,157.715,22.6,35.758,62.844,61.02,88.65,100.2,20.463,31.07,30.946,65.232,32.536,97.617a195.758,195.758,0,0,1-25.218,105.744" transform="translate(21.286 29.985)" fill="none" stroke="#bcbcbc" stroke-miterlimit="10" stroke-width="1"/>
      <path id="Path_11459" data-name="Path 11459" d="M0,0C13.756,64.4,62.126,128.159,128.577,147.789,182.51,163.72,242.055,150.721,292.6,129.55c44.612-18.683,87.3-39.415,128.259-36.4,51.926,3.819,90.842,42.937,146.173,73.211,52.38,28.659,101.7,53,155.23,56.712,36.121,2.506,74-6.757,109.747-21.364,82.462-33.695,106.8-112.141,179.072-127.59,71.781-15.078,122.794,7.414,149.763,35.195,30.517,31.436,54.791,104.982,9.569,168.129-23.776,33.2-47.965,71.106-72.8,108.989-30.519,46.549-37.583,107.977-11.962,152.494,20.724,36.009,58.881,62.475,84.573,101.084,20.759,31.193,32.76,64.95,36.067,97.444a197.211,197.211,0,0,1-20.238,109.158" transform="translate(23.564 27.506)" fill="none" stroke="#c2c2c2" stroke-miterlimit="10" stroke-width="1"/>
      <path id="Path_11460" data-name="Path 11460" d="M0,0C15.732,65.849,63.858,131.648,131.826,152.508c54.225,16.641,114.612,4.052,165.143-18.312C341,114.706,382.238,92.143,423.055,92.519c51.673.476,93.212,35.65,148.468,65.471,53.282,28.754,101.933,56.547,156.332,62.4,37.262,4.011,76.715-4.494,113.705-19.152,79.6-31.538,105.991-104.98,176.249-120.19,68.96-14.651,119.547,5.329,147.359,32.549,31.042,30.381,54.056,100.849,13.8,162.168-22.113,33.685-44.839,71.868-69.214,109.5-29.22,45.111-37.207,103.616-14.564,147.272,18.822,36.292,54.921,63.926,80.5,101.964,21.056,31.318,34.6,64.664,39.6,97.271a199.151,199.151,0,0,1-15.258,112.571" transform="translate(25.841 25.028)" fill="none" stroke="#c7c7c7" stroke-miterlimit="10" stroke-width="1"/>
      <path id="Path_11461" data-name="Path 11461" d="M0,0C17.709,67.3,65.6,135.126,135.074,157.226c54.522,17.343,115.753,5.185,166.261-18.387,43.459-20.284,83.238-44.683,123.911-46.949,51.42-2.863,95.585,28.36,150.762,57.732,54.187,28.846,102.155,60.122,157.435,68.095,38.394,5.537,79.419-2.26,117.663-16.939,76.709-29.443,105.145-97.957,173.427-112.789,66.1-14.359,116.289,3.253,144.956,29.9,31.558,29.337,53.438,96.831,18.037,156.208-20.4,34.221-41.718,72.622-65.624,110.006-27.927,43.67-36.884,99.3-17.166,142.051,16.882,36.6,50.966,65.377,76.418,102.843,21.359,31.439,36.459,64.369,43.131,97.1a201.478,201.478,0,0,1-10.277,115.984" transform="translate(28.118 22.549)" fill="none" stroke="#cdcdcd" stroke-miterlimit="10" stroke-width="1"/>
      <path id="Path_11462" data-name="Path 11462" d="M0,0C19.686,68.743,67.338,138.591,138.323,161.945c54.82,18.035,116.9,6.331,167.378-18.462,42.893-21.066,81.208-47.311,121.738-52.221,51.17-6.2,97.962,21.064,153.056,49.993s102.364,63.72,158.54,73.785c39.517,7.082,82.107-.054,121.619-14.724,73.8-27.4,104.331-90.8,170.6-105.39,63.282-13.931,113.024,1.188,142.553,27.254,32.062,28.3,52.955,92.918,22.269,150.246-18.632,34.812-38.6,73.376-62.035,110.515-26.64,42.224-36.622,95.008-19.764,136.83,14.892,36.947,47.013,66.824,72.34,103.722,21.664,31.558,38.338,64.066,46.663,96.925a204.243,204.243,0,0,1-5.3,119.4" transform="translate(30.395 20.071)" fill="none" stroke="#d2d2d2" stroke-miterlimit="10" stroke-width="1"/>
      <path id="Path_11463" data-name="Path 11463" d="M0,0C21.661,70.19,69.084,142.046,141.568,166.663c55.124,18.722,118.055,7.488,168.494-18.535C352.4,126.285,389.243,98.19,429.628,90.634c50.92-9.529,100.34,13.76,155.35,42.251,56.008,29.009,102.559,67.337,159.643,79.478C785.254,221,829.406,214.477,870.2,199.85c70.869-25.411,103.518-83.636,167.781-97.988,60.461-13.5,109.748-.866,140.149,24.606,32.558,27.282,52.624,89.1,26.5,144.287-16.78,35.454-35.492,74.123-58.445,111.022-25.363,40.773-36.431,90.746-22.366,131.609,12.842,37.311,43.064,68.27,68.264,104.6,21.969,31.675,40.233,63.751,50.194,96.751,12.03,39.856,12.451,82.509-.319,122.811" transform="translate(32.674 17.592)" fill="none" stroke="#d8d8d8" stroke-miterlimit="10" stroke-width="1"/>
      <path id="Path_11464" data-name="Path 11464" d="M0,0C23.638,71.636,70.838,145.489,144.816,171.382c55.43,19.4,119.221,8.659,169.612-18.61,41.782-22.608,77.155-52.56,117.392-62.766,50.674-12.855,102.721,6.452,157.645,34.512C646.385,153.6,692.2,195.488,750.21,209.686c41.736,10.215,87.448,4.242,129.534-10.3C947.67,175.918,982.45,122.916,1044.7,108.8c57.64-13.071,106.466-2.909,137.745,21.957,33.049,26.273,52.456,85.35,30.737,138.325-14.817,36.145-32.391,74.868-54.856,111.532-24.092,39.318-36.312,86.5-24.967,126.388,10.721,37.69,39.118,69.713,64.185,105.48,22.283,31.79,42.142,63.423,53.726,96.578,14.145,40.48,16.3,84.451,4.663,126.225" transform="translate(34.951 15.114)" fill="none" stroke="#dedede" stroke-miterlimit="10" stroke-width="1"/>
      <path id="Path_11465" data-name="Path 11465" d="M0,0C25.614,73.086,72.594,148.923,148.065,176.1c55.74,20.074,120.395,9.839,170.729-18.683,41.236-23.367,75.131-55.18,115.219-68.04,50.429-16.179,105.105-.859,159.939,26.772,57.838,29.148,102.9,74.618,161.849,90.86,42.83,11.8,90.1,6.323,133.491-8.086,64.971-21.573,101.893-69.3,162.136-83.187,54.819-12.635,103.177-4.935,135.34,19.311,33.532,25.278,52.467,81.647,34.973,132.364-12.719,36.874-29.3,75.609-51.266,112.039-22.829,37.86-36.272,82.26-27.569,121.167,8.518,38.077,35.176,71.156,60.109,106.361,22.6,31.9,44.061,63.083,57.258,96.405,16.275,41.089,20.138,86.395,9.642,129.638" transform="translate(37.228 12.634)" fill="none" stroke="#e3e3e3" stroke-miterlimit="10" stroke-width="1"/>
      <path id="Path_11466" data-name="Path 11466" d="M0,0C27.591,74.533,74.358,152.346,151.312,180.82c56.054,20.74,121.581,11.03,171.847-18.758,40.7-24.117,73.143-57.724,113.045-73.313,50.229-19.408,107.491-8.177,162.233,19.033,58.758,29.207,103.054,78.276,162.952,96.551,43.913,13.4,92.73,8.346,137.449-5.873,62.012-19.719,101.112-62.021,159.313-75.786,52.024-12.1,99.88-6.95,132.938,16.663,34.01,24.294,52.66,77.954,39.206,126.4a467.411,467.411,0,0,1-47.678,112.547c-21.574,36.4-36.309,78-30.169,115.946,6.224,38.457,31.236,72.594,56.032,107.24,22.912,32.013,45.986,62.727,60.789,96.232,18.417,41.679,23.984,88.337,14.622,133.052" transform="translate(39.505 10.156)" fill="none" stroke="#e9e9e9" stroke-miterlimit="10" stroke-width="1"/>
      <path id="Path_11467" data-name="Path 11467" d="M0,0C29.568,75.981,76.126,155.76,154.561,185.538c56.369,21.4,122.773,12.231,172.963-18.833,40.168-24.861,71.122-60.358,110.872-78.586,49.987-22.75,109.879-15.5,164.526,11.294,59.682,29.26,103.191,81.941,164.055,102.242,44.987,15,95.347,10.307,141.407-3.661,59.049-17.905,100.3-54.859,156.492-68.386,49.2-11.673,96.579-8.949,130.533,14.018,34.484,23.323,53.043,74.227,43.438,120.442-7.975,38.38-23.141,77.072-44.087,113.056-20.331,34.927-36.423,73.721-32.771,110.725,3.831,38.815,27.3,74.031,51.953,108.12,23.234,32.121,47.92,62.36,64.323,96.059,20.568,42.253,27.826,90.28,19.6,136.465" transform="translate(41.782 7.677)" fill="none" stroke="#eee" stroke-miterlimit="10" stroke-width="1"/>
      <path id="Path_11468" data-name="Path 11468" d="M0,0C31.544,77.427,77.9,159.163,157.808,190.258c56.689,22.058,123.98,13.441,174.081-18.908,39.645-25.6,69.1-62.993,108.7-83.86,49.747-26.091,112.319-22.928,166.82,3.555,60.664,29.193,103.313,85.615,165.158,107.933,46.049,16.619,97.946,12.191,145.365-1.446,56.089-16.131,99.485-47.7,153.668-60.985,46.379-11.248,93.274-10.934,128.129,11.37,34.956,22.366,53.607,70.413,47.673,114.482-5.264,39.1-20.082,77.793-40.5,113.563-19.094,33.454-36.606,69.392-35.371,105.5,1.338,39.135,23.427,75.423,47.877,109,23.618,32.187,49.854,61.98,67.853,95.887,22.729,42.812,31.671,92.223,24.583,139.878" transform="translate(44.06 5.199)" fill="none" stroke="#f4f4f4" stroke-miterlimit="10" stroke-width="1"/>
      <path id="Path_11469" data-name="Path 11469" d="M0,0C33.519,78.874,79.722,162.448,161.056,194.977c57.043,22.633,125.2,14.662,175.2-18.982,39.131-26.332,67.08-65.627,106.525-89.131,49.506-29.435,114.685-30.211,169.115-4.186,61.565,29.287,103.42,89.292,166.26,113.624,47.1,18.238,100.524,13.983,149.322.766,53.136-14.393,98.671-40.538,150.846-53.584,43.556-10.822,89.965-12.9,125.726,8.723,35.427,21.423,54.334,66.453,51.907,108.521-2.294,39.753-17.037,78.509-36.909,114.073-17.868,31.977-36.849,65-37.973,100.283-1.252,39.4,19.465,76.875,43.8,109.877,23.918,32.308,51.792,61.586,71.386,95.713,24.892,43.355,35.513,94.168,29.562,143.293" transform="translate(46.338 2.72)" fill="none" stroke="#f9f9f9" stroke-miterlimit="10" stroke-width="1"/>
      <path id="Path_11470" data-name="Path 11470" d="M0,0C35.5,80.321,81.461,165.945,164.3,199.7c57.338,23.359,126.429,15.892,176.314-19.056,38.626-27.061,65.059-68.262,104.353-94.4C494.234,53.458,562.02,48.742,616.378,74.31c62.466,29.38,103.516,92.975,167.364,119.316,48.145,19.863,103.083,15.67,153.28,2.979s97.858-33.378,148.023-46.184c40.734-10.4,86.655-14.857,123.321,6.075,35.9,20.493,55.2,62.282,56.142,102.561s-14.011,79.216-33.319,114.58c-16.652,30.5-37.146,60.535-40.574,95.062-3.933,39.6,15.5,78.327,39.72,110.756s53.73,61.181,74.918,95.54c27.061,43.884,39.357,96.111,34.542,146.706" transform="translate(48.615 0.242)" fill="none" stroke="#fff" stroke-miterlimit="10" stroke-width="1"/>
    </g>
  </g>
</svg>
