<svg xmlns="http://www.w3.org/2000/svg" viewBox="0 0 42.53 41.65"><title>bike</title><g id="Layer_2" data-name="Layer 2"><g id="Layer_1-2" data-name="Layer 1"><path d="M29.24,39H17.72a.89.89,0,0,1-.71-.35l-2.39-3.19H.89A.89.89,0,0,1,0,34.56,13.27,13.27,0,0,1,2,29c1.67-2.73,3.73-4.17,6-4.17h9.41a2.67,2.67,0,0,1,2.49,1.73l2,5.36h5.3c2.15-1.58,2.19-2.68,2-3.38l-2.54-7.45L25,19.19A.89.89,0,0,1,26.37,18l1.75,2a.89.89,0,0,1,.17.3L30.89,28l0,.06c.76,2.88-2,4.83-2.93,5.47a.88.88,0,0,1-.51.16h-6.2a.89.89,0,0,1-.83-.58l-2.23-5.94a.89.89,0,0,0-.83-.57H8c-1.1,0-2.77.58-4.45,3.32a14.27,14.27,0,0,0-1.61,3.77H15.06a.89.89,0,0,1,.71.35l2.39,3.19H28.92L34,33a.89.89,0,0,1,.57-.21h5.78a5.19,5.19,0,0,0-4-2.86.89.89,0,0,1-.59-.45L31.12,20.8a.89.89,0,0,1,.16-1l1.51-1.51V15.95H26.34a.89.89,0,1,1,0-1.77h7.34a.89.89,0,0,1,.89.89v3.54a.89.89,0,0,1-.26.63L33,20.54l4.15,7.74a7.09,7.09,0,0,1,5.34,5.1.89.89,0,0,1-.84,1.18H34.88l-5.07,4.23a.89.89,0,0,1-.57.2" fill="#333"/><path d="M8.86,41.65A5.33,5.33,0,0,1,3.65,37.4.89.89,0,0,1,5.39,37a3.55,3.55,0,0,0,6.94,0,.89.89,0,0,1,1.73.36,5.34,5.34,0,0,1-5.2,4.22" fill="#333"/><path d="M36.33,41.65a5.29,5.29,0,0,1-4.52-2.51.89.89,0,1,1,1.51-.94,3.54,3.54,0,0,0,6.56-1.87.89.89,0,0,1,1.77,0,5.32,5.32,0,0,1-5.32,5.32" fill="#333"/><path d="M24.81,31a.89.89,0,0,1-.86-.66c0-.17-1.1-4.28-1.39-5.49-.22-.94-.25-1.06-1.53-1.71-1.5-.76-3.72-2-3.74-2a.88.88,0,0,1-.46-.78V14.82a.89.89,0,0,1,1.77,0v5c.73.4,2.16,1.17,3.23,1.71,1.67.84,2.1,1.36,2.46,2.89.28,1.19,1.36,5.4,1.38,5.45A.89.89,0,0,1,25,31l-.22,0" fill="#333"/><path d="M11.52,18.61a.89.89,0,0,1-.89-.89V12.41s0,0,0,0a4.09,4.09,0,0,1,2-3.51,6.4,6.4,0,0,1,6,.4c1.93,1,8.49,4.39,8.56,4.43a.89.89,0,0,1,.35,1.25c-.07.12-1.86,3-4.8,2.36a74.2,74.2,0,0,1-7.36-2.36A.89.89,0,0,1,16,13.26a74.1,74.1,0,0,0,7.11,2.29,2.56,2.56,0,0,0,2.29-.8c-1.92-1-6.12-3.14-7.61-3.94a4.73,4.73,0,0,0-4.29-.42,2.31,2.31,0,0,0-1.11,2v5.29a.89.89,0,0,1-.89.89" fill="#333"/><path d="M11.52,23H.89A.89.89,0,0,1,0,22.15V5.32a.89.89,0,0,1,.89-.89H11.52a.89.89,0,0,1,.89.89V7.09a.89.89,0,0,1-1.77,0V6.2H1.77V21.27h9.75a.89.89,0,1,1,0,1.77" fill="#333"/><path d="M11.52,23a.89.89,0,0,1-.69-1.44l3.54-4.43a.89.89,0,1,1,1.38,1.11l-3.54,4.43a.89.89,0,0,1-.69.33" fill="#333"/><path d="M18.17,8a4,4,0,1,1,4-4,4,4,0,0,1-4,4m0-6.2A2.22,2.22,0,1,0,20.38,4a2.22,2.22,0,0,0-2.21-2.22" fill="#333"/></g></g></svg>