<svg xmlns="http://www.w3.org/2000/svg" viewBox="0 0 39.86 41.8"><title>pack</title><g id="Layer_2" data-name="Layer 2"><g id="Layer_1-2" data-name="Layer 1"><path d="M32.08,41.8H2.92a1,1,0,0,1-1-1V16.53A1,1,0,0,1,2,16.17L5.37,7.78H1A1,1,0,0,1,.16,6.27L4.05.43A1,1,0,0,1,4.86,0H35a1,1,0,0,1,.94.72L39.82,15.3a1,1,0,0,1,0,.25V36a1,1,0,0,1-1,1H36.44l-3.6,4.49a1,1,0,0,1-.76.36M3.89,39.86H31.61l3.6-4.49A1,1,0,0,1,36,35h1.94V15.68L34.25,1.95H5.38L2.79,5.83H29.62l1.66-2.48a1,1,0,1,1,1.62,1.08L30.94,7.34a1,1,0,0,1-.81.43H7.46L3.89,16.71Z" fill="#333"/><path d="M32.08,41.8a1,1,0,0,1-1-1V15.55a.9.9,0,0,1,0-.14l1-6.8A1,1,0,1,1,34,8.89l-1,6.74v25.2a1,1,0,0,1-1,1" fill="#333"/><path d="M26.38,32H8.89a1,1,0,0,1-1-1V30a1,1,0,0,1,1.94,0H25.41a1,1,0,0,1,1.94,0v1a1,1,0,0,1-1,1" fill="#333"/><path d="M26.38,25.2H8.89a1,1,0,1,1,0-1.94h17.5a1,1,0,0,1,0,1.94" fill="#333"/></g></g></svg>