<svg xmlns="http://www.w3.org/2000/svg" viewBox="0 0 47.82 47.82"><title>clock</title><g id="Layer_2" data-name="Layer 2"><g id="Layer_1-2" data-name="Layer 1"><path d="M23.91,0A23.91,23.91,0,1,0,47.82,23.91,23.92,23.92,0,0,0,23.91,0m0,2.08A21.83,21.83,0,1,1,2.08,23.91,21.84,21.84,0,0,1,23.91,2.08" fill="#333" fill-rule="evenodd"/><path d="M22.87,13.62V23.91a1,1,0,0,0,.3.74l7.28,7.28a1,1,0,0,0,1.47-1.47l-7-7V13.62a1,1,0,0,0-2.08,0Z" fill="#333" fill-rule="evenodd"/><path d="M23.91,4.16A19.75,19.75,0,1,0,43.66,23.91,19.76,19.76,0,0,0,23.91,4.16m1,2.11a17.61,17.61,0,0,1,10.7,4.44l-2.18,2.18a1,1,0,0,0,1.47,1.47l2.18-2.18a17.61,17.61,0,0,1,4.43,10.7H38.46a1,1,0,0,0,0,2.08h3.09a17.61,17.61,0,0,1-4.43,10.7l-2.18-2.18a1,1,0,0,0-1.47,1.47l2.18,2.18a17.61,17.61,0,0,1-10.7,4.43V38.46a1,1,0,1,0-2.08,0v3.09a17.61,17.61,0,0,1-10.7-4.43l2.18-2.18a1,1,0,0,0-1.47-1.47L10.7,35.65a17.61,17.61,0,0,1-4.43-10.7H9.36a1,1,0,0,0,0-2.08H6.27a17.6,17.6,0,0,1,4.43-10.7l2.18,2.18a1,1,0,0,0,1.47-1.47L12.17,10.7a17.6,17.6,0,0,1,10.7-4.44V9.36a1,1,0,0,0,2.08,0Z" fill="#333" fill-rule="evenodd"/></g></g></svg>