<svg xmlns="http://www.w3.org/2000/svg" viewBox="0 0 17.92 17.92"><defs><style>.cls-1{fill:#333;}</style></defs><title>editicon</title><g id="Layer_2" data-name="Layer 2"><g id="Layer_1-2" data-name="Layer 1"><path class="cls-1" d="M14.29,9a.59.59,0,0,1,1.19,0v7.73a1.19,1.19,0,0,1-1.18,1.18H1.18A1.19,1.19,0,0,1,0,16.74V3.63A1.19,1.19,0,0,1,1.18,2.44H9.09a.59.59,0,0,1,0,1.19H1.18V16.74h13.1Zm.87-7.13.81.81c.19.19.26.27.48,0a.89.89,0,0,0-1.26-1.26c-.25.25-.19.26,0,.41m-.07,1.6-.72-.72c-.19-.19-.28-.18-.51,0L8.79,7.88A3.43,3.43,0,0,0,7.66,9.53c-.35.94-.42,1.14.75.67A5.09,5.09,0,0,0,10.1,9.08l5-5c.27-.27.16-.39,0-.58M14.36.63a2.07,2.07,0,0,1,2.93,2.93L11.05,9.81a6.33,6.33,0,0,1-1.29,1.06c-.68.4-2.86,1.4-3.45.64-.43-.55,0-1.75.24-2.38A4.3,4.3,0,0,1,8,7Z"/></g></g></svg>