<svg xmlns="http://www.w3.org/2000/svg" viewBox="0 0 41.25 43.82"><title>spoon</title><g id="Layer_2" data-name="Layer 2"><g id="Layer_1-2" data-name="Layer 1"><path d="M22.83,43.82a2.94,2.94,0,0,1-2.26-.92,3,3,0,0,1-.72-2.32l1.07-16.91c0-.35-.18-.65-.55-1.16a5.05,5.05,0,0,1-1-1.85A70.16,70.16,0,0,1,19.39,7c.57-3.31,2.53-7,4.29-7a1.29,1.29,0,0,1,.86.33c.39.34.83.73,1,10.6.1,4.71.09,9.39.09,9.43a4.21,4.21,0,0,1-.51,2.06,1.92,1.92,0,0,0-.28,1.08l1,17.11a2.91,2.91,0,0,1-.73,2.25,3.1,3.1,0,0,1-2.34,1m.62-42A11,11,0,0,0,21,7.3a71.1,71.1,0,0,0,0,13,3.58,3.58,0,0,0,.69,1.26,3.3,3.3,0,0,1,.86,2.22L21.47,40.71a1.39,1.39,0,0,0,.3,1.09,1.37,1.37,0,0,0,1.06.39A1.48,1.48,0,0,0,24,41.77a1.32,1.32,0,0,0,.31-1l-1-17.13a3.47,3.47,0,0,1,.44-1.89A2.63,2.63,0,0,0,24,20.37c0-7.84-.2-16.43-.6-18.56" fill="#333"/><path d="M36.11,43.82a3.05,3.05,0,0,1-2.36-.94,2.8,2.8,0,0,1-.68-2.18L34,24.27a5.06,5.06,0,0,0-1.59-4.53,4.49,4.49,0,0,1-1.54-3.29V4a.81.81,0,1,1,1.63,0V16.45a2.92,2.92,0,0,0,1.11,2.18,6.63,6.63,0,0,1,2,5.74l-.9,16.46a1.22,1.22,0,0,0,.26,1,1.85,1.85,0,0,0,2.3,0,1.2,1.2,0,0,0,.26-.94l-.95-16.49a6.7,6.7,0,0,1,2-5.72,3,3,0,0,0,1.08-2.19V4a.82.82,0,1,1,1.63,0V16.45a4.54,4.54,0,0,1-1.5,3.28,5.14,5.14,0,0,0-1.55,4.54l.94,16.47a2.79,2.79,0,0,1-.68,2.16,3,3,0,0,1-2.35.93" fill="#333"/><path d="M34.57,14a.82.82,0,0,1-.82-.81V4a.82.82,0,0,1,1.63,0v9.12a.82.82,0,0,1-.81.81" fill="#333"/><path d="M37.51,14a.82.82,0,0,1-.82-.81V4a.82.82,0,0,1,1.63,0v9.12a.82.82,0,0,1-.81.81" fill="#333"/><path d="M7.46,43.82a3,3,0,0,1-2.24-.92,2.83,2.83,0,0,1-.7-2.2L5.4,24.27c.13-2-.33-3.27-.8-3.66A10.88,10.88,0,0,1,0,11.74C0,6.25,3.24,2.12,7.53,2.12S15,6.25,15,11.74a10.89,10.89,0,0,1-4.61,8.89c-.46.38-.91,1.68-.79,3.63l.88,16.47a2.76,2.76,0,0,1-.71,2.13,3.07,3.07,0,0,1-2.32,1M7.53,3.75c-3.37,0-5.9,3.44-5.9,8a9.22,9.22,0,0,0,4,7.6c1,.85,1.56,2.72,1.42,5L6.15,40.82a1.25,1.25,0,0,0,.28,1,1.35,1.35,0,0,0,1,.38,1.45,1.45,0,0,0,1.11-.42,1.17,1.17,0,0,0,.29-.91L8,24.36c-.14-2.29.38-4.17,1.4-5a9.24,9.24,0,0,0,4-7.62c0-4.56-2.51-8-5.84-8" fill="#333"/></g></g></svg>