<svg xmlns="http://www.w3.org/2000/svg" width="590.719" height="396.747" viewBox="0 0 590.719 396.747">
  <g id="note_book" transform="translate(-15860.546 -4022.997)">
    <g id="Background_Complete" data-name="Background Complete" transform="translate(15774.417 3975.199)">
      <g id="Group_9303" data-name="Group 9303">
        <g id="Group_9293" data-name="Group 9293">
          <g id="Group_9292" data-name="Group 9292">
            <g id="Group_9291" data-name="Group 9291">
              <path id="Path_28033" data-name="Path 28033" d="M637.771,117.565a51.316,51.316,0,0,1,11.144,7.85l11.906-4.239,11.192,17.665-8.918,8.956a51.249,51.249,0,0,1,2.34,13.432l11.413,5.42-4.579,20.4-12.633.028a51.109,51.109,0,0,1-7.853,11.144l4.239,11.908-17.662,11.2-8.958-8.917a51.289,51.289,0,0,1-13.432,2.337l-5.419,11.413-20.406-4.576-.027-12.635a51.181,51.181,0,0,1-11.144-7.851l-11.909,4.239-11.192-17.665,8.92-8.957a51.363,51.363,0,0,1-2.339-13.43l-11.411-5.421,4.577-20.4,12.633-.027a51.141,51.141,0,0,1,7.853-11.146l-4.239-11.908,17.662-11.191,8.958,8.919a51.2,51.2,0,0,1,13.432-2.338l5.418-11.412,20.4,4.576.03,12.635Zm-17.99,24.01a22.432,22.432,0,1,0,16.979,26.8A22.432,22.432,0,0,0,619.781,141.575Z" fill="#e0e0e0" fill-rule="evenodd"/>
            </g>
          </g>
        </g>
        <g id="Group_9302" data-name="Group 9302">
          <g id="Group_9297" data-name="Group 9297">
            <g id="Group_9296" data-name="Group 9296">
              <g id="Group_9295" data-name="Group 9295">
                <g id="Group_9294" data-name="Group 9294">
                  <path id="Path_28034" data-name="Path 28034" d="M525.529,78.511a12.509,12.509,0,0,1,3.916,1.225,16.491,16.491,0,0,1,7.8,7.9,16.683,16.683,0,0,1,1.592,7.629,16.959,16.959,0,1,1-32.5-7.287,16.686,16.686,0,0,1,4.7-6.217,16.486,16.486,0,0,1,10.428-3.808,12.512,12.512,0,0,1,4.063.564c-.018.117-1.448-.288-4.053-.194a16.511,16.511,0,0,0-10.006,3.952,16.144,16.144,0,1,0,25.167,5.646,16.5,16.5,0,0,0-7.359-7.848A40.253,40.253,0,0,0,525.529,78.511Z" fill="#e0e0e0"/>
                </g>
              </g>
            </g>
          </g>
          <g id="Group_9301" data-name="Group 9301">
            <g id="Group_9300" data-name="Group 9300">
              <g id="Group_9299" data-name="Group 9299">
                <g id="Group_9298" data-name="Group 9298">
                  <path id="Path_28035" data-name="Path 28035" d="M538.811,60.786a3.538,3.538,0,0,1-.036-.581c-.01-.434-.024-1.014-.041-1.766-.023-1.619-.055-3.952-.1-6.98l.118.147L523.67,48.315l.27-.132-3.966,8.441-.071.152-.17.007a37.767,37.767,0,0,0-9.833,1.745l-.18.058-.135-.134-6.631-6.565.42.045-13.02,8.292.152-.441,3.147,8.785.08.223-.162.176a37.528,37.528,0,0,0-5.722,8.15l-.113.22h-.25l-9.326.033.412-.331c-1.055,4.733-2.193,9.837-3.36,15.068l-.242-.5L483.4,95.6l.247.116.011.274a37.658,37.658,0,0,0,1.714,9.794l.084.265-.2.2-6.581,6.616.063-.577L487,125.326l-.557-.192L495.238,122l.271-.1.211.2a37.422,37.422,0,0,0,8.116,5.718h0c.115.189-.253-.419.258.422v2.338l.005,2.339q0,2.335.009,4.65l-.371-.461,15.064,3.382-.527.257q2.022-4.254,4-8.424l.121-.255.282-.011a37.408,37.408,0,0,0,9.8-1.7l.266-.084.2.2,6.608,6.588-.562-.061,13.047-8.249-.177.516q-1.588-4.476-3.119-8.8l-.086-.244.175-.188a37.466,37.466,0,0,0,5.745-8.128l.116-.221h9.574l-.384.308c1.2-5.3,2.332-10.3,3.411-15.056l.2.408-8.416-4.022-.187-.089-.008-.206a37.642,37.642,0,0,0-1.684-9.835l-.057-.182.133-.132,6.606-6.59-.038.348-8.205-13.077.251.087-8.81,3.072-.088.031-.067-.063a39.237,39.237,0,0,0-5.991-4.615l-1.6-.966a3.937,3.937,0,0,1-.528-.326,4.743,4.743,0,0,1,.567.256c.368.189.925.476,1.647.9a36.573,36.573,0,0,1,6.116,4.525l-.155-.032,8.77-3.186.16-.058.092.145c2.351,3.674,5.1,7.967,8.319,13l.121.188-.159.16-6.561,6.634.076-.314a38.163,38.163,0,0,1,1.771,10l-.2-.3,8.436,3.981.262.124-.063.284c-1.059,4.765-2.172,9.769-3.35,15.07l-.068.308h-.317l-9.326.037.363-.221a38.249,38.249,0,0,1-5.849,8.327l.089-.432,3.14,8.787.117.328-.3.188-13.031,8.275-.3.193-.257-.255-6.618-6.578.463.113a38.286,38.286,0,0,1-10.037,1.752l.4-.266-4,8.428-.161.339-.367-.082-15.066-3.374-.37-.083v-.379q-.006-2.316-.01-4.651V128.25c.511.84.14.232.254.419h0a38.3,38.3,0,0,1-8.323-5.865l.481.1-8.792,3.127-.356.127-.2-.319-8.256-13.045-.2-.314.262-.264c2.274-2.28,4.526-4.538,6.589-6.608l-.112.462a38.507,38.507,0,0,1-1.74-10.034l.258.389-8.42-4.01-.32-.152.078-.344c1.179-5.228,2.329-10.33,3.4-15.06l.075-.331h.338l9.327-.006-.363.221A38.26,38.26,0,0,1,493,68.433l-.082.4c-1.088-3.074-2.149-6.074-3.112-8.8l-.1-.283.252-.159,13.058-8.232.23-.144.191.191,6.594,6.6-.314-.076a38.161,38.161,0,0,1,10-1.707l-.241.159c1.454-3.029,2.812-5.861,4.035-8.409l.084-.175.186.043,15.044,3.466.12.028v.12c-.027,3-.049,5.314-.064,6.919-.014.762-.025,1.35-.033,1.789a4.621,4.621,0,0,1-.037.623Z" fill="#e0e0e0"/>
                </g>
              </g>
            </g>
          </g>
        </g>
      </g>
      <g id="Group_9319" data-name="Group 9319">
        <g id="Group_9315" data-name="Group 9315">
          <g id="Group_9306" data-name="Group 9306">
            <g id="Group_9305" data-name="Group 9305">
              <g id="Group_9304" data-name="Group 9304">
                <path id="Path_28036" data-name="Path 28036" d="M133.328,280.935a25.969,25.969,0,0,1,4.936,4.834l6.3-1.15,4.16,9.748-5.19,3.754a26.012,26.012,0,0,1,.076,6.91l5.268,3.641-3.952,9.834L138.6,317.49a25.92,25.92,0,0,1-4.836,4.936l1.15,6.3-9.747,4.16-3.754-5.19a26.012,26.012,0,0,1-6.91.075l-3.64,5.268-9.836-3.951,1.016-6.323a25.946,25.946,0,0,1-4.936-4.835l-6.3,1.15-4.159-9.748,5.191-3.754a26.047,26.047,0,0,1-.076-6.909L86.5,295.03l3.951-9.835,6.323,1.016a25.891,25.891,0,0,1,4.836-4.936l-1.151-6.3,9.747-4.159L113.958,276a25.969,25.969,0,0,1,6.91-.076l3.64-5.267,9.835,3.951-1.015,6.323ZM122.373,291.48a11.37,11.37,0,1,0,6.312,14.789,11.37,11.37,0,0,0-6.312-14.789Z" fill="none"/>
              </g>
            </g>
          </g>
          <g id="Group_9310" data-name="Group 9310">
            <g id="Group_9309" data-name="Group 9309">
              <g id="Group_9308" data-name="Group 9308">
                <g id="Group_9307" data-name="Group 9307">
                  <path id="Path_28037" data-name="Path 28037" d="M122.373,291.48a8.592,8.592,0,0,1,2.518,1.263,11.31,11.31,0,0,1,4.416,6.212,11.459,11.459,0,0,1,.238,5.345,11.643,11.643,0,1,1-21.219-8.526,11.462,11.462,0,0,1,3.87-3.695,11.317,11.317,0,0,1,7.486-1.429,8.579,8.579,0,0,1,2.691.83c-.024.077-.949-.355-2.725-.579a11.334,11.334,0,0,0-7.216,1.575,11.084,11.084,0,1,0,16.434,6.6,11.327,11.327,0,0,0-4.121-6.13C123.305,291.881,122.338,291.553,122.373,291.48Z" fill="#e0e0e0"/>
                </g>
              </g>
            </g>
          </g>
          <g id="Group_9314" data-name="Group 9314">
            <g id="Group_9313" data-name="Group 9313">
              <g id="Group_9312" data-name="Group 9312">
                <g id="Group_9311" data-name="Group 9311">
                  <path id="Path_28038" data-name="Path 28038" d="M133.328,280.935a2.5,2.5,0,0,1,.04-.4l.167-1.2c.164-1.1.4-2.684.705-4.741l.064.113-9.857-3.894.2-.059-3.618,5.282-.065.1-.116-.014a25.944,25.944,0,0,0-6.856.1l-.128.019-.076-.106-3.77-5.18.28.077-9.737,4.183.152-.283c.36,1.951.756,4.1,1.163,6.3l.029.161-.129.1A25.78,25.78,0,0,0,97,286.379l-.1.137-.169-.027L90.4,285.482l.316-.178c-1.237,3.09-2.571,6.423-3.939,9.839l-.109-.363,5.27,3.636.155.106-.023.187a25.835,25.835,0,0,0,.081,6.825l.028.189-.156.113-5.189,3.757.107-.384,4.164,9.746-.357-.192,6.3-1.152.194-.035.121.155a25.649,25.649,0,0,0,4.869,4.771h0c.057.14-.126-.313.128.314v.044l-.008.049-.016.1-.032.2-.064.4-.128.8-.255,1.585q-.253,1.582-.506,3.152l-.2-.354,9.834,3.954-.386.116,3.642-5.266.111-.16.192.024a25.668,25.668,0,0,0,6.825-.07l.19-.028.112.155,3.75,5.194-.374-.1,9.751-4.15-.177.33-1.143-6.3-.032-.175.14-.109a25.69,25.69,0,0,0,4.789-4.873l.1-.138.168.028,6.32,1.026-.294.166,3.972-9.826.09.3-5.259-3.654-.117-.081.018-.14a25.843,25.843,0,0,0-.057-6.85l-.018-.13.1-.075,5.2-3.736-.064.231-4.117-9.766.16.086-6.308,1.11-.064.012-.038-.05a26.991,26.991,0,0,0-3.55-3.788l-.981-.832a2.7,2.7,0,0,1-.322-.279,2.954,2.954,0,0,1,.356.236c.229.169.575.425,1.017.793a25.115,25.115,0,0,1,3.645,3.74l-.1-.038,6.294-1.191.114-.022.047.108,4.2,9.73.061.141-.125.091L143.66,298.3l.087-.2a26.2,26.2,0,0,1,.1,6.969l-.1-.221,5.277,3.628.164.113-.074.186-3.932,9.842-.081.2-.214-.035-6.324-1,.271-.11a26.245,26.245,0,0,1-4.883,5l.108-.283q.568,3.095,1.159,6.3l.043.236-.221.1-9.742,4.169-.229.1-.146-.2-3.758-5.187.3.127a26.263,26.263,0,0,1-6.994.08l.3-.135-3.637,5.269-.147.213-.24-.1-9.836-3.948-.242-.1.041-.257.506-3.152.255-1.586.128-.8.064-.4.032-.2.016-.1.008-.05v-.044c.253.626.069.173.126.313h0a26.326,26.326,0,0,1-4.992-4.893l.315.12-6.3,1.149-.255.047-.1-.238c-1.429-3.355-2.84-6.663-4.155-9.75l-.1-.236.207-.149,5.194-3.751-.127.3a26.443,26.443,0,0,1-.072-6.992l.132.293-5.263-3.646-.2-.139.091-.224c1.375-3.413,2.718-6.742,3.963-9.83l.087-.216.229.037,6.32,1.025-.27.109a26.257,26.257,0,0,1,4.9-4.98l-.1.261c-.4-2.2-.786-4.353-1.138-6.3l-.037-.2.189-.08,9.756-4.137.172-.073.108.151,3.74,5.2-.2-.086a26.168,26.168,0,0,1,6.963-.054l-.18.081,3.661-5.252.076-.11.122.05,9.811,4.008.078.032-.014.081c-.35,2.031-.619,3.6-.806,4.681-.094.515-.166.913-.22,1.209A3.058,3.058,0,0,1,133.328,280.935Z" fill="#e0e0e0"/>
                </g>
              </g>
            </g>
          </g>
        </g>
        <g id="Group_9318" data-name="Group 9318">
          <g id="Group_9317" data-name="Group 9317">
            <g id="Group_9316" data-name="Group 9316">
              <path id="Path_28039" data-name="Path 28039" d="M216.936,334.08a45.58,45.58,0,0,1,8.649,8.472l11.043-2.016,7.289,17.083-9.1,6.579a45.492,45.492,0,0,1,.134,12.108l9.232,6.381-6.926,17.233-11.079-1.778a45.447,45.447,0,0,1-8.475,8.649l2.017,11.044-17.081,7.289-6.58-9.1a45.54,45.54,0,0,1-12.109.131l-6.379,9.232-17.236-6.924,1.78-11.08a45.467,45.467,0,0,1-8.649-8.473l-11.045,2.016-7.29-17.083,9.1-6.579a45.568,45.568,0,0,1-.133-12.107l-9.23-6.381,6.924-17.234,11.079,1.779a45.476,45.476,0,0,1,8.474-8.65l-2.016-11.044,17.081-7.29,6.579,9.1A45.5,45.5,0,0,1,195.1,325.3l6.379-9.231L218.713,323Zm-19.2,18.481a19.924,19.924,0,1,0,11.06,25.916,19.924,19.924,0,0,0-11.06-25.916Z" fill="#e0e0e0" fill-rule="evenodd"/>
            </g>
          </g>
        </g>
      </g>
    </g>
    <g id="JavaScript" transform="translate(15774.417 3975.199)">
      <g id="Group_9342" data-name="Group 9342" transform="translate(89 2)">
        <g id="Group_9335" data-name="Group 9335">
          <g id="Group_9334" data-name="Group 9334">
            <g id="Group_9321" data-name="Group 9321">
              <g id="Group_9320" data-name="Group 9320">
                <path id="Path_28040" data-name="Path 28040" d="M216.179,224.08H95.648V74.18l92.2.272,28.332,30.764Z" fill="#ebebeb"/>
              </g>
            </g>
            <g id="Group_9331" data-name="Group 9331">
              <g id="Group_9324" data-name="Group 9324">
                <g id="Group_9323" data-name="Group 9323">
                  <g id="Group_9322" data-name="Group 9322">
                    <path id="Path_28041" data-name="Path 28041" d="M131.705,159.7c-.156.149-2.158-1.658-5.27-4.7s-7.334-7.323-11.931-12.119l-.515-.537.512-.54.049-.052c4.581-4.836,8.791-9.153,11.9-12.224s5.1-4.9,5.259-4.748-1.558,2.242-4.457,5.507-6.983,7.7-11.564,12.539l-.049.052V141.8c4.6,4.8,8.692,9.2,11.6,12.436S131.86,159.553,131.705,159.7Z" fill="#263238"/>
                  </g>
                </g>
              </g>
              <g id="Group_9327" data-name="Group 9327">
                <g id="Group_9326" data-name="Group 9326">
                  <g id="Group_9325" data-name="Group 9325">
                    <path id="Path_28042" data-name="Path 28042" d="M180.071,124.781c.156-.149,2.158,1.658,5.27,4.7s7.335,7.323,11.931,12.118l.515.538-.512.54-.049.052c-4.581,4.836-8.791,9.153-11.9,12.224s-5.1,4.9-5.259,4.748,1.558-2.242,4.457-5.508,6.983-7.7,11.564-12.538l.049-.052v1.077c-4.6-4.8-8.691-9.2-11.6-12.436S179.916,124.93,180.071,124.781Z" fill="#263238"/>
                  </g>
                </g>
              </g>
              <g id="Group_9330" data-name="Group 9330">
                <g id="Group_9329" data-name="Group 9329">
                  <g id="Group_9328" data-name="Group 9328">
                    <path id="Path_28043" data-name="Path 28043" d="M141.223,165.211c-.368-.226,5.889-11.123,13.973-24.337s14.939-23.75,15.307-23.524-5.887,11.12-13.974,24.339S141.591,165.436,141.223,165.211Z" fill="#263238"/>
                  </g>
                </g>
              </g>
            </g>
            <g id="Group_9333" data-name="Group 9333">
              <g id="Group_9332" data-name="Group 9332">
                <path id="Path_28044" data-name="Path 28044" d="M187.84,74.461l-.108,25.109a6.459,6.459,0,0,0,6.65,6.484l21.8-.816Z" fill="#e0e0e0"/>
              </g>
            </g>
          </g>
        </g>
        <g id="Group_9341" data-name="Group 9341">
          <g id="Group_9337" data-name="Group 9337">
            <g id="Group_9336" data-name="Group 9336">
              <rect id="Rectangle_1057" data-name="Rectangle 1057" width="53.453" height="32.486" transform="translate(81.579 175.721)" fill="#e8505b"/>
            </g>
          </g>
          <g id="Group_9340" data-name="Group 9340">
            <g id="Group_9338" data-name="Group 9338">
              <path id="Path_28045" data-name="Path 28045" d="M96.767,198.607l1.391-1.63a4.184,4.184,0,0,0,3.5,1.99c1.894,0,2.877-1.151,2.877-3.4v-9.42H98.469v-2.086h8.438v11.387c0,3.739-1.821,5.585-5.25,5.585a5.85,5.85,0,0,1-4.89-2.426Z" fill="#fff"/>
            </g>
            <g id="Group_9339" data-name="Group 9339">
              <path id="Path_28046" data-name="Path 28046" d="M110.26,198.919l.887-1.87a8.635,8.635,0,0,0,5.538,1.941c2.9,0,4.147-1.126,4.147-2.588,0-4.1-10.164-1.511-10.164-7.743,0-2.589,2.013-4.794,6.424-4.794a9.881,9.881,0,0,1,5.394,1.485l-.791,1.918a8.666,8.666,0,0,0-4.6-1.366c-2.853,0-4.075,1.2-4.075,2.661,0,4.1,10.164,1.534,10.164,7.7,0,2.565-2.062,4.77-6.5,4.77A9.966,9.966,0,0,1,110.26,198.919Z" fill="#fff"/>
            </g>
          </g>
        </g>
      </g>
    </g>
    <g id="Screen" transform="translate(15744.089 3992.199)">
      <g id="Group_9480" data-name="Group 9480">
        <g id="Group_9353" data-name="Group 9353">
          <g id="Group_9352" data-name="Group 9352">
            <rect id="Rectangle_1058" data-name="Rectangle 1058" width="271.844" height="158.396" transform="translate(344.862 156.274)" fill="#263238"/>
          </g>
        </g>
        <g id="Group_9356" data-name="Group 9356">
          <g id="Group_9355" data-name="Group 9355">
            <g id="Group_9354" data-name="Group 9354">
              <path id="Path_28050" data-name="Path 28050" d="M366.123,306.7c-.144,0-.26-32.391-.26-72.337s.116-72.344.26-72.344.261,32.383.261,72.344S366.267,306.7,366.123,306.7Z" fill="#e0e0e0"/>
            </g>
          </g>
        </g>
        <g id="Group_9359" data-name="Group 9359">
          <g id="Group_9358" data-name="Group 9358">
            <g id="Group_9357" data-name="Group 9357">
              <path id="Path_28051" data-name="Path 28051" d="M360.534,168.119a38.958,38.958,0,0,1-9,0,39.1,39.1,0,0,1,9,0Z" fill="#e0e0e0"/>
            </g>
          </g>
        </g>
        <g id="Group_9362" data-name="Group 9362">
          <g id="Group_9361" data-name="Group 9361">
            <g id="Group_9360" data-name="Group 9360">
              <path id="Path_28052" data-name="Path 28052" d="M360.534,177.653a39.108,39.108,0,0,1-9,0,38.959,38.959,0,0,1,9,0Z" fill="#e0e0e0"/>
            </g>
          </g>
        </g>
        <g id="Group_9365" data-name="Group 9365">
          <g id="Group_9364" data-name="Group 9364">
            <g id="Group_9363" data-name="Group 9363">
              <path id="Path_28053" data-name="Path 28053" d="M360.534,187.186a39.108,39.108,0,0,1-9,0,39.1,39.1,0,0,1,9,0Z" fill="#e0e0e0"/>
            </g>
          </g>
        </g>
        <g id="Group_9368" data-name="Group 9368">
          <g id="Group_9367" data-name="Group 9367">
            <g id="Group_9366" data-name="Group 9366">
              <path id="Path_28054" data-name="Path 28054" d="M360.534,196.719a38.958,38.958,0,0,1-9,0,39.106,39.106,0,0,1,9,0Z" fill="#e0e0e0"/>
            </g>
          </g>
        </g>
        <g id="Group_9371" data-name="Group 9371">
          <g id="Group_9370" data-name="Group 9370">
            <g id="Group_9369" data-name="Group 9369">
              <path id="Path_28055" data-name="Path 28055" d="M360.534,206.253a39.108,39.108,0,0,1-9,0,38.958,38.958,0,0,1,9,0Z" fill="#e0e0e0"/>
            </g>
          </g>
        </g>
        <g id="Group_9374" data-name="Group 9374">
          <g id="Group_9373" data-name="Group 9373">
            <g id="Group_9372" data-name="Group 9372">
              <path id="Path_28056" data-name="Path 28056" d="M360.534,215.786a38.958,38.958,0,0,1-9,0,39.106,39.106,0,0,1,9,0Z" fill="#e0e0e0"/>
            </g>
          </g>
        </g>
        <g id="Group_9377" data-name="Group 9377">
          <g id="Group_9376" data-name="Group 9376">
            <g id="Group_9375" data-name="Group 9375">
              <path id="Path_28057" data-name="Path 28057" d="M360.534,225.32a39.107,39.107,0,0,1-9,0A38.958,38.958,0,0,1,360.534,225.32Z" fill="#e0e0e0"/>
            </g>
          </g>
        </g>
        <g id="Group_9380" data-name="Group 9380">
          <g id="Group_9379" data-name="Group 9379">
            <g id="Group_9378" data-name="Group 9378">
              <path id="Path_28058" data-name="Path 28058" d="M360.534,234.853a39.1,39.1,0,0,1-9,0A39.107,39.107,0,0,1,360.534,234.853Z" fill="#e0e0e0"/>
            </g>
          </g>
        </g>
        <g id="Group_9383" data-name="Group 9383">
          <g id="Group_9382" data-name="Group 9382">
            <g id="Group_9381" data-name="Group 9381">
              <path id="Path_28059" data-name="Path 28059" d="M360.534,244.386a38.958,38.958,0,0,1-9,0,39.106,39.106,0,0,1,9,0Z" fill="#e0e0e0"/>
            </g>
          </g>
        </g>
        <g id="Group_9386" data-name="Group 9386">
          <g id="Group_9385" data-name="Group 9385">
            <g id="Group_9384" data-name="Group 9384">
              <path id="Path_28060" data-name="Path 28060" d="M360.534,253.92a39.108,39.108,0,0,1-9,0,38.959,38.959,0,0,1,9,0Z" fill="#e0e0e0"/>
            </g>
          </g>
        </g>
        <g id="Group_9389" data-name="Group 9389">
          <g id="Group_9388" data-name="Group 9388">
            <g id="Group_9387" data-name="Group 9387">
              <path id="Path_28061" data-name="Path 28061" d="M360.534,263.453a38.958,38.958,0,0,1-9,0,39.1,39.1,0,0,1,9,0Z" fill="#e0e0e0"/>
            </g>
          </g>
        </g>
        <g id="Group_9392" data-name="Group 9392">
          <g id="Group_9391" data-name="Group 9391">
            <g id="Group_9390" data-name="Group 9390">
              <path id="Path_28062" data-name="Path 28062" d="M360.534,272.987a39.1,39.1,0,0,1-9,0A38.962,38.962,0,0,1,360.534,272.987Z" fill="#e0e0e0"/>
            </g>
          </g>
        </g>
        <g id="Group_9395" data-name="Group 9395">
          <g id="Group_9394" data-name="Group 9394">
            <g id="Group_9393" data-name="Group 9393">
              <path id="Path_28063" data-name="Path 28063" d="M360.534,282.52a39.1,39.1,0,0,1-9,0,39.109,39.109,0,0,1,9,0Z" fill="#e0e0e0"/>
            </g>
          </g>
        </g>
        <g id="Group_9398" data-name="Group 9398">
          <g id="Group_9397" data-name="Group 9397">
            <g id="Group_9396" data-name="Group 9396">
              <path id="Path_28064" data-name="Path 28064" d="M360.534,292.053a38.958,38.958,0,0,1-9,0,39.1,39.1,0,0,1,9,0Z" fill="#e0e0e0"/>
            </g>
          </g>
        </g>
        <g id="Group_9401" data-name="Group 9401">
          <g id="Group_9400" data-name="Group 9400">
            <g id="Group_9399" data-name="Group 9399">
              <path id="Path_28065" data-name="Path 28065" d="M360.534,301.587a39.108,39.108,0,0,1-9,0,39.1,39.1,0,0,1,9,0Z" fill="#e0e0e0"/>
            </g>
          </g>
        </g>
        <g id="Group_9404" data-name="Group 9404">
          <g id="Group_9403" data-name="Group 9403">
            <g id="Group_9402" data-name="Group 9402">
              <path id="Path_28066" data-name="Path 28066" d="M396.619,167.557c0,.144-5.231.26-11.682.26s-11.683-.116-11.683-.26,5.23-.26,11.683-.26S396.619,167.413,396.619,167.557Z" fill="#e8505b"/>
            </g>
          </g>
        </g>
        <g id="Group_9407" data-name="Group 9407">
          <g id="Group_9406" data-name="Group 9406">
            <g id="Group_9405" data-name="Group 9405">
              <path id="Path_28067" data-name="Path 28067" d="M396.619,301.587c0,.144-5.231.26-11.682.26s-11.683-.116-11.683-.26,5.23-.26,11.683-.26S396.619,301.443,396.619,301.587Z" fill="#e8505b"/>
            </g>
          </g>
        </g>
        <g id="Group_9410" data-name="Group 9410">
          <g id="Group_9409" data-name="Group 9409">
            <g id="Group_9408" data-name="Group 9408">
              <path id="Path_28068" data-name="Path 28068" d="M429.157,187.186c0,.144-9.787.26-21.857.26s-21.858-.116-21.858-.26,9.784-.26,21.858-.26S429.157,187.042,429.157,187.186Z" fill="#e8505b"/>
            </g>
          </g>
        </g>
        <g id="Group_9413" data-name="Group 9413">
          <g id="Group_9412" data-name="Group 9412">
            <g id="Group_9411" data-name="Group 9411">
              <path id="Path_28069" data-name="Path 28069" d="M479.7,187.186c0,.144-9.787.26-21.857.26s-21.858-.116-21.858-.26,9.784-.26,21.858-.26S479.7,187.042,479.7,187.186Z" fill="#e0e0e0"/>
            </g>
          </g>
        </g>
        <g id="Group_9416" data-name="Group 9416">
          <g id="Group_9415" data-name="Group 9415">
            <g id="Group_9414" data-name="Group 9414">
              <path id="Path_28070" data-name="Path 28070" d="M460.386,196.719c0,.144-14.423.261-32.211.261s-32.213-.117-32.213-.261,14.42-.26,32.213-.26S460.386,196.576,460.386,196.719Z" fill="#e0e0e0"/>
            </g>
          </g>
        </g>
        <g id="Group_9419" data-name="Group 9419">
          <g id="Group_9418" data-name="Group 9418">
            <g id="Group_9417" data-name="Group 9417">
              <path id="Path_28071" data-name="Path 28071" d="M460.386,206.253c0,.144-14.423.26-32.211.26s-32.213-.116-32.213-.26,14.42-.261,32.213-.261S460.386,206.109,460.386,206.253Z" fill="#e0e0e0"/>
            </g>
          </g>
        </g>
        <g id="Group_9422" data-name="Group 9422">
          <g id="Group_9421" data-name="Group 9421">
            <g id="Group_9420" data-name="Group 9420">
              <path id="Path_28072" data-name="Path 28072" d="M504.732,234.853c0,.144-14.423.26-32.211.26s-32.213-.116-32.213-.26,14.42-.26,32.213-.26S504.732,234.709,504.732,234.853Z" fill="#e0e0e0"/>
            </g>
          </g>
        </g>
        <g id="Group_9425" data-name="Group 9425">
          <g id="Group_9424" data-name="Group 9424">
            <g id="Group_9423" data-name="Group 9423">
              <path id="Path_28073" data-name="Path 28073" d="M485.6,215.786c0,.144-14.423.261-32.211.261s-32.214-.117-32.214-.261,14.42-.26,32.214-.26S485.6,215.642,485.6,215.786Z" fill="#e0e0e0"/>
            </g>
          </g>
        </g>
        <g id="Group_9428" data-name="Group 9428">
          <g id="Group_9427" data-name="Group 9427">
            <g id="Group_9426" data-name="Group 9426">
              <path id="Path_28074" data-name="Path 28074" d="M564.323,215.786c0,.144-14.423.261-32.21.261s-32.214-.117-32.214-.261,14.42-.26,32.214-.26S564.323,215.642,564.323,215.786Z" fill="#e0e0e0"/>
            </g>
          </g>
        </g>
        <g id="Group_9431" data-name="Group 9431">
          <g id="Group_9430" data-name="Group 9430">
            <g id="Group_9429" data-name="Group 9429">
              <path id="Path_28075" data-name="Path 28075" d="M536.944,196.719c0,.144-14.423.261-32.211.261s-32.213-.117-32.213-.261,14.42-.26,32.213-.26S536.944,196.576,536.944,196.719Z" fill="#fafafa"/>
            </g>
          </g>
        </g>
        <g id="Group_9434" data-name="Group 9434">
          <g id="Group_9433" data-name="Group 9433">
            <g id="Group_9432" data-name="Group 9432">
              <path id="Path_28076" data-name="Path 28076" d="M581.446,234.853c0,.144-14.423.26-32.211.26s-32.214-.116-32.214-.26,14.42-.26,32.214-.26S581.446,234.709,581.446,234.853Z" fill="#fafafa"/>
            </g>
          </g>
        </g>
        <g id="Group_9437" data-name="Group 9437">
          <g id="Group_9436" data-name="Group 9436">
            <g id="Group_9435" data-name="Group 9435">
              <path id="Path_28077" data-name="Path 28077" d="M572.559,206.253c0,.144-22.4.26-50.017.26s-50.022-.116-50.022-.26,22.391-.261,50.022-.261S572.559,206.109,572.559,206.253Z" fill="#455a64"/>
            </g>
          </g>
        </g>
        <g id="Group_9440" data-name="Group 9440">
          <g id="Group_9439" data-name="Group 9439">
            <g id="Group_9438" data-name="Group 9438">
              <path id="Path_28078" data-name="Path 28078" d="M396.619,177.653c0,.143-5.231.26-11.682.26s-11.683-.117-11.683-.26,5.23-.261,11.683-.261S396.619,177.509,396.619,177.653Z" fill="#fafafa"/>
            </g>
          </g>
        </g>
        <g id="Group_9443" data-name="Group 9443">
          <g id="Group_9442" data-name="Group 9442">
            <g id="Group_9441" data-name="Group 9441">
              <path id="Path_28079" data-name="Path 28079" d="M396.619,292.053c0,.144-5.231.261-11.682.261s-11.683-.117-11.683-.261,5.23-.26,11.683-.26S396.619,291.91,396.619,292.053Z" fill="#fafafa"/>
            </g>
          </g>
        </g>
        <g id="Group_9446" data-name="Group 9446">
          <g id="Group_9445" data-name="Group 9445">
            <g id="Group_9444" data-name="Group 9444">
              <path id="Path_28080" data-name="Path 28080" d="M408.193,215.786c0,.144-5.23.261-11.681.261s-11.683-.117-11.683-.261,5.229-.26,11.683-.26S408.193,215.642,408.193,215.786Z" fill="#fafafa"/>
            </g>
          </g>
        </g>
        <g id="Group_9449" data-name="Group 9449">
          <g id="Group_9448" data-name="Group 9448">
            <g id="Group_9447" data-name="Group 9447">
              <path id="Path_28081" data-name="Path 28081" d="M595.451,215.786c0,.144-5.231.261-11.682.261s-11.683-.117-11.683-.261,5.23-.26,11.683-.26S595.451,215.642,595.451,215.786Z" fill="#e8505b"/>
            </g>
          </g>
        </g>
        <g id="Group_9452" data-name="Group 9452">
          <g id="Group_9451" data-name="Group 9451">
            <g id="Group_9450" data-name="Group 9450">
              <path id="Path_28082" data-name="Path 28082" d="M429.157,253.864c0,.143-9.787.26-21.857.26s-21.858-.117-21.858-.26,9.784-.261,21.858-.261S429.157,253.72,429.157,253.864Z" fill="#e8505b"/>
            </g>
          </g>
        </g>
        <g id="Group_9455" data-name="Group 9455">
          <g id="Group_9454" data-name="Group 9454">
            <g id="Group_9453" data-name="Group 9453">
              <path id="Path_28083" data-name="Path 28083" d="M479.7,253.864c0,.143-9.787.26-21.857.26s-21.858-.117-21.858-.26,9.784-.261,21.858-.261S479.7,253.72,479.7,253.864Z" fill="#e0e0e0"/>
            </g>
          </g>
        </g>
        <g id="Group_9458" data-name="Group 9458">
          <g id="Group_9457" data-name="Group 9457">
            <g id="Group_9456" data-name="Group 9456">
              <path id="Path_28084" data-name="Path 28084" d="M460.386,263.4c0,.144-14.423.261-32.211.261s-32.213-.117-32.213-.261,14.42-.26,32.213-.26S460.386,263.253,460.386,263.4Z" fill="#e0e0e0"/>
            </g>
          </g>
        </g>
        <g id="Group_9461" data-name="Group 9461">
          <g id="Group_9460" data-name="Group 9460">
            <g id="Group_9459" data-name="Group 9459">
              <path id="Path_28085" data-name="Path 28085" d="M460.386,272.931c0,.143-14.423.26-32.211.26s-32.213-.117-32.213-.26,14.42-.261,32.213-.261S460.386,272.787,460.386,272.931Z" fill="#e0e0e0"/>
            </g>
          </g>
        </g>
        <g id="Group_9464" data-name="Group 9464">
          <g id="Group_9463" data-name="Group 9463">
            <g id="Group_9462" data-name="Group 9462">
              <path id="Path_28086" data-name="Path 28086" d="M485.6,282.464c0,.144-14.423.26-32.211.26s-32.214-.116-32.214-.26,14.42-.26,32.214-.26S485.6,282.32,485.6,282.464Z" fill="#e0e0e0"/>
            </g>
          </g>
        </g>
        <g id="Group_9467" data-name="Group 9467">
          <g id="Group_9466" data-name="Group 9466">
            <g id="Group_9465" data-name="Group 9465">
              <path id="Path_28087" data-name="Path 28087" d="M564.323,282.464c0,.144-14.423.26-32.21.26s-32.214-.116-32.214-.26,14.42-.26,32.214-.26S564.323,282.32,564.323,282.464Z" fill="#e0e0e0"/>
            </g>
          </g>
        </g>
        <g id="Group_9470" data-name="Group 9470">
          <g id="Group_9469" data-name="Group 9469">
            <g id="Group_9468" data-name="Group 9468">
              <path id="Path_28088" data-name="Path 28088" d="M536.944,263.4c0,.144-14.423.261-32.211.261s-32.213-.117-32.213-.261,14.42-.26,32.213-.26S536.944,263.253,536.944,263.4Z" fill="#fafafa"/>
            </g>
          </g>
        </g>
        <g id="Group_9473" data-name="Group 9473">
          <g id="Group_9472" data-name="Group 9472">
            <g id="Group_9471" data-name="Group 9471">
              <path id="Path_28089" data-name="Path 28089" d="M572.559,272.931c0,.143-22.4.26-50.017.26s-50.022-.117-50.022-.26,22.391-.261,50.022-.261S572.559,272.787,572.559,272.931Z" fill="#455a64"/>
            </g>
          </g>
        </g>
        <g id="Group_9476" data-name="Group 9476">
          <g id="Group_9475" data-name="Group 9475">
            <g id="Group_9474" data-name="Group 9474">
              <path id="Path_28090" data-name="Path 28090" d="M408.193,282.464c0,.144-5.23.26-11.681.26s-11.683-.116-11.683-.26,5.229-.26,11.683-.26S408.193,282.32,408.193,282.464Z" fill="#fafafa"/>
            </g>
          </g>
        </g>
        <g id="Group_9479" data-name="Group 9479">
          <g id="Group_9478" data-name="Group 9478">
            <g id="Group_9477" data-name="Group 9477">
              <path id="Path_28091" data-name="Path 28091" d="M595.451,282.464c0,.144-5.231.26-11.682.26s-11.683-.116-11.683-.26,5.23-.26,11.683-.26S595.451,282.32,595.451,282.464Z" fill="#e8505b"/>
            </g>
          </g>
        </g>
      </g>
    </g>
    <g id="React" transform="translate(15744.089 3992.199)">
      <g id="Group_9492" data-name="Group 9492">
        <g id="Group_9483" data-name="Group 9483">
          <g id="Group_9482" data-name="Group 9482">
            <g id="Group_9481" data-name="Group 9481">
              <path id="Path_28092" data-name="Path 28092" d="M652.646,312.482c-.183.108-1.872-2.706-5.284-7.523-1.706-2.407-3.854-5.309-6.522-8.528a94.317,94.317,0,0,0-9.789-10.212,54.762,54.762,0,0,0-6.465-4.971,24.6,24.6,0,0,0-7.827-3.52,9.6,9.6,0,0,0-4.214-.056,6.263,6.263,0,0,0-3.444,2.2,10.278,10.278,0,0,0-1.9,4.084,22.5,22.5,0,0,0-.595,4.869,47.831,47.831,0,0,0,1.142,10.394,84.494,84.494,0,0,0,3.027,10.613A132.779,132.779,0,0,0,634,350.059a84.322,84.322,0,0,0,7.683,7.933,47.793,47.793,0,0,0,8.428,6.184,22.553,22.553,0,0,0,4.515,1.919,10.28,10.28,0,0,0,4.484.4,6.269,6.269,0,0,0,3.631-1.881,9.623,9.623,0,0,0,2.059-3.679,24.626,24.626,0,0,0,.863-8.539,54.536,54.536,0,0,0-1.073-8.084,94.474,94.474,0,0,0-3.949-13.584c-1.454-3.919-2.893-7.23-4.124-9.911-2.466-5.363-4.058-8.231-3.873-8.336a8.3,8.3,0,0,1,1.4,1.942c.827,1.327,2.008,3.311,3.383,5.947s2.973,5.914,4.573,9.83a89.553,89.553,0,0,1,4.392,13.723,55.063,55.063,0,0,1,1.279,8.354,26.355,26.355,0,0,1-.811,9.3,11.73,11.73,0,0,1-2.5,4.557,8.524,8.524,0,0,1-4.874,2.611,12.521,12.521,0,0,1-5.492-.4,24.682,24.682,0,0,1-5.031-2.074,49.625,49.625,0,0,1-8.934-6.433,85.386,85.386,0,0,1-7.962-8.125,132.087,132.087,0,0,1-23.7-41.047,85.472,85.472,0,0,1-3.054-10.956,49.6,49.6,0,0,1-1.1-10.952,24.679,24.679,0,0,1,.72-5.393,12.51,12.51,0,0,1,2.4-4.954,8.53,8.53,0,0,1,4.7-2.917,11.727,11.727,0,0,1,5.2.114,26.341,26.341,0,0,1,8.464,3.95,55.071,55.071,0,0,1,6.6,5.284,89.67,89.67,0,0,1,9.689,10.665c2.593,3.348,4.64,6.364,6.23,8.876s2.723,4.524,3.459,5.9A8.308,8.308,0,0,1,652.646,312.482Z" fill="#e8505b"/>
            </g>
          </g>
        </g>
        <g id="Group_9486" data-name="Group 9486">
          <g id="Group_9485" data-name="Group 9485">
            <g id="Group_9484" data-name="Group 9484">
              <path id="Path_28093" data-name="Path 28093" d="M621.771,312.421c.183.111-1.442,2.84-3.965,7.966-1.26,2.562-2.732,5.73-4.226,9.489a86.985,86.985,0,0,0-4.067,13.063,49.2,49.2,0,0,0-1.125,7.8,23.071,23.071,0,0,0,.8,8.243,9.564,9.564,0,0,0,1.986,3.565,6.565,6.565,0,0,0,3.484,1.946,10.082,10.082,0,0,0,4.35-.12,20.393,20.393,0,0,0,4.455-1.6,43.9,43.9,0,0,0,8.431-5.548,78.7,78.7,0,0,0,7.744-7.346A122.475,122.475,0,0,0,663.265,311.7a78.531,78.531,0,0,0,3.119-10.21,43.889,43.889,0,0,0,1.2-10.023,20.444,20.444,0,0,0-.554-4.7,10.077,10.077,0,0,0-1.835-3.947,6.559,6.559,0,0,0-3.3-2.249,9.581,9.581,0,0,0-4.077-.185,23.058,23.058,0,0,0-7.736,2.96,49.194,49.194,0,0,0-6.478,4.488,86.953,86.953,0,0,0-9.875,9.47c-2.7,3.014-4.875,5.745-6.606,8.015-3.46,4.545-5.177,7.216-5.358,7.1a7.832,7.832,0,0,1,1.01-2.087c.752-1.314,1.9-3.231,3.526-5.608s3.7-5.231,6.33-8.379a82.984,82.984,0,0,1,9.8-9.935,49.986,49.986,0,0,1,6.637-4.8,24.838,24.838,0,0,1,8.414-3.358,11.692,11.692,0,0,1,5.033.179,8.824,8.824,0,0,1,4.456,2.947,12.334,12.334,0,0,1,2.328,4.805,22.6,22.6,0,0,1,.68,5.237,45.8,45.8,0,0,1-1.174,10.611,79.81,79.81,0,0,1-3.157,10.562A121.957,121.957,0,0,1,641.5,351.619a79.722,79.722,0,0,1-8.041,7.536,45.761,45.761,0,0,1-8.971,5.785,22.643,22.643,0,0,1-4.989,1.729,12.347,12.347,0,0,1-5.338.061,8.82,8.82,0,0,1-4.626-2.672,11.7,11.7,0,0,1-2.407-4.423,24.828,24.828,0,0,1-.751-9.027,49.873,49.873,0,0,1,1.336-8.083,82.934,82.934,0,0,1,4.516-13.206c1.643-3.758,3.265-6.893,4.673-9.4s2.606-4.4,3.446-5.659A8.057,8.057,0,0,1,621.771,312.421Z" fill="#e8505b"/>
            </g>
          </g>
        </g>
        <g id="Group_9489" data-name="Group 9489">
          <g id="Group_9488" data-name="Group 9488">
            <g id="Group_9487" data-name="Group 9487">
              <path id="Path_28094" data-name="Path 28094" d="M635.236,300.915c0,.213-3.175.268-8.861.819-2.842.277-6.311.692-10.293,1.4a87,87,0,0,0-13.249,3.415,49.277,49.277,0,0,0-7.225,3.147,23.063,23.063,0,0,0-6.586,5.022,9.565,9.565,0,0,0-1.988,3.564,6.562,6.562,0,0,0,.179,3.987,10.079,10.079,0,0,0,2.391,3.637,20.409,20.409,0,0,0,3.706,2.944,43.925,43.925,0,0,0,9.155,4.251,78.738,78.738,0,0,0,10.321,2.719,122.429,122.429,0,0,0,44.9,0,78.629,78.629,0,0,0,10.324-2.72,43.89,43.89,0,0,0,9.156-4.251,20.417,20.417,0,0,0,3.706-2.945,10.1,10.1,0,0,0,2.392-3.637,6.561,6.561,0,0,0,.177-3.987,9.558,9.558,0,0,0-1.988-3.564,23.066,23.066,0,0,0-6.587-5.022,49.34,49.34,0,0,0-7.226-3.147,86.881,86.881,0,0,0-13.248-3.414c-3.982-.708-7.451-1.123-10.292-1.4-5.686-.551-8.861-.606-8.859-.819a7.786,7.786,0,0,1,2.3-.24c1.513-.052,3.748-.082,6.625.048s6.4.394,10.455.974a82.967,82.967,0,0,1,13.606,3.107,49.984,49.984,0,0,1,7.576,3.117,24.829,24.829,0,0,1,7.283,5.388,11.7,11.7,0,0,1,2.495,4.374,8.816,8.816,0,0,1-.161,5.34,12.336,12.336,0,0,1-2.86,4.508,22.67,22.67,0,0,1-4.1,3.334,45.8,45.8,0,0,1-9.641,4.585,79.865,79.865,0,0,1-10.643,2.873,121.994,121.994,0,0,1-45.893,0,79.679,79.679,0,0,1-10.64-2.873,45.814,45.814,0,0,1-9.64-4.584,22.662,22.662,0,0,1-4.1-3.333,12.339,12.339,0,0,1-2.861-4.508,8.822,8.822,0,0,1-.162-5.339,11.683,11.683,0,0,1,2.5-4.374,24.833,24.833,0,0,1,7.282-5.389,49.971,49.971,0,0,1,7.575-3.117,82.986,82.986,0,0,1,13.607-3.108c4.06-.58,7.58-.85,10.456-.974s5.112-.1,6.625-.048a7.811,7.811,0,0,1,2.316.24Z" fill="#e8505b"/>
            </g>
          </g>
        </g>
        <g id="Group_9491" data-name="Group 9491">
          <g id="Group_9490" data-name="Group 9490">
            <circle id="Ellipse_491" data-name="Ellipse 491" cx="8.375" cy="8.375" r="8.375" transform="matrix(0.161, -0.987, 0.987, 0.161, 628.103, 329.207)" fill="#e8505b"/>
          </g>
        </g>
      </g>
    </g>
    <g id="Device" transform="translate(15774.417 3975.199)">
      <g id="Group_9646" data-name="Group 9646">
        <g id="Group_9509" data-name="Group 9509">
          <g id="Group_9496" data-name="Group 9496">
            <g id="Group_9495" data-name="Group 9495">
              <g id="Group_9494" data-name="Group 9494">
                <g id="Group_9493" data-name="Group 9493">
                  <path id="Rectangle_1059" data-name="Rectangle 1059" d="M7.751,0H305.2a6.74,6.74,0,0,1,6.74,6.74V191.713a14.567,14.567,0,0,1-14.567,14.567H14.567A14.567,14.567,0,0,1,0,191.713V7.751A7.751,7.751,0,0,1,7.751,0Z" transform="translate(194.38 235.472)" fill="#455a64"/>
                </g>
              </g>
            </g>
          </g>
          <g id="Group_9500" data-name="Group 9500">
            <g id="Group_9499" data-name="Group 9499">
              <g id="Group_9498" data-name="Group 9498">
                <g id="Group_9497" data-name="Group 9497">
                  <path id="Rectangle_1060" data-name="Rectangle 1060" d="M0,0H337.96V4.328a13.721,13.721,0,0,1-13.721,13.721H13.721A13.721,13.721,0,0,1,0,4.328Z" transform="translate(181.335 426.496)" fill="#455a64"/>
                </g>
              </g>
            </g>
          </g>
          <g id="Group_9504" data-name="Group 9504">
            <g id="Group_9503" data-name="Group 9503">
              <g id="Group_9502" data-name="Group 9502">
                <g id="Group_9501" data-name="Group 9501">
                  <rect id="Rectangle_1061" data-name="Rectangle 1061" width="294.318" height="174.2" transform="translate(202.753 243.668)" fill="#e0e0e0"/>
                </g>
              </g>
            </g>
          </g>
          <g id="Group_9508" data-name="Group 9508">
            <g id="Group_9507" data-name="Group 9507">
              <g id="Group_9506" data-name="Group 9506">
                <g id="Group_9505" data-name="Group 9505">
                  <path id="Path_28095" data-name="Path 28095" d="M319.6,426.5l4.194,6.671H382.8l3.9-6.671Z" fill="#263238"/>
                </g>
              </g>
            </g>
          </g>
        </g>
        <g id="Group_9513" data-name="Group 9513">
          <g id="Group_9512" data-name="Group 9512">
            <g id="Group_9511" data-name="Group 9511">
              <g id="Group_9510" data-name="Group 9510">
                <rect id="Rectangle_1062" data-name="Rectangle 1062" width="311.937" height="0.995" transform="translate(194.43 426.435)" fill="#263238"/>
              </g>
            </g>
          </g>
        </g>
        <g id="Group_9645" data-name="Group 9645">
          <g id="Group_9515" data-name="Group 9515">
            <g id="Group_9514" data-name="Group 9514">
              <rect id="Rectangle_1063" data-name="Rectangle 1063" width="277.563" height="164.108" transform="translate(211.486 253.76)" fill="#263238"/>
            </g>
          </g>
          <g id="Group_9518" data-name="Group 9518">
            <g id="Group_9517" data-name="Group 9517">
              <g id="Group_9516" data-name="Group 9516">
                <path id="Path_28096" data-name="Path 28096" d="M232.781,413.052c-.144,0-.26-34.952-.26-78.057,0-43.121.116-78.065.26-78.065s.261,34.944.261,78.065C233.042,378.1,232.925,413.052,232.781,413.052Z" fill="#e0e0e0"/>
              </g>
            </g>
          </g>
          <g id="Group_9521" data-name="Group 9521">
            <g id="Group_9520" data-name="Group 9520">
              <g id="Group_9519" data-name="Group 9519">
                <path id="Path_28097" data-name="Path 28097" d="M227.182,271.081a19.7,19.7,0,0,1-4.508.261,19.7,19.7,0,0,1-4.509-.261,19.744,19.744,0,0,1,4.509-.26,19.741,19.741,0,0,1,4.508.26Z" fill="#e0e0e0"/>
              </g>
            </g>
          </g>
          <g id="Group_9524" data-name="Group 9524">
            <g id="Group_9523" data-name="Group 9523">
              <g id="Group_9522" data-name="Group 9522">
                <path id="Path_28098" data-name="Path 28098" d="M227.53,262.222a19.712,19.712,0,0,1-4.509.261,19.7,19.7,0,0,1-4.509-.261,19.816,19.816,0,0,1,4.509-.26A19.821,19.821,0,0,1,227.53,262.222Z" fill="#e0e0e0"/>
              </g>
            </g>
          </g>
          <g id="Group_9527" data-name="Group 9527">
            <g id="Group_9526" data-name="Group 9526">
              <g id="Group_9525" data-name="Group 9525">
                <path id="Path_28099" data-name="Path 28099" d="M227.182,280.63a19.739,19.739,0,0,1-4.508.26,19.744,19.744,0,0,1-4.509-.26,19.743,19.743,0,0,1,4.509-.26A19.739,19.739,0,0,1,227.182,280.63Z" fill="#e0e0e0"/>
              </g>
            </g>
          </g>
          <g id="Group_9530" data-name="Group 9530">
            <g id="Group_9529" data-name="Group 9529">
              <g id="Group_9528" data-name="Group 9528">
                <path id="Path_28100" data-name="Path 28100" d="M227.182,290.179a19.737,19.737,0,0,1-4.508.26,19.743,19.743,0,0,1-4.509-.26,19.708,19.708,0,0,1,4.509-.261,19.7,19.7,0,0,1,4.508.261Z" fill="#e0e0e0"/>
              </g>
            </g>
          </g>
          <g id="Group_9533" data-name="Group 9533">
            <g id="Group_9532" data-name="Group 9532">
              <g id="Group_9531" data-name="Group 9531">
                <path id="Path_28101" data-name="Path 28101" d="M227.182,299.727a19.7,19.7,0,0,1-4.508.261,19.7,19.7,0,0,1-4.509-.261,19.816,19.816,0,0,1,4.509-.26,19.807,19.807,0,0,1,4.508.26Z" fill="#e0e0e0"/>
              </g>
            </g>
          </g>
          <g id="Group_9536" data-name="Group 9536">
            <g id="Group_9535" data-name="Group 9535">
              <g id="Group_9534" data-name="Group 9534">
                <path id="Path_28102" data-name="Path 28102" d="M227.182,309.276a19.7,19.7,0,0,1-4.508.261,19.7,19.7,0,0,1-4.509-.261,19.742,19.742,0,0,1,4.509-.26,19.738,19.738,0,0,1,4.508.26Z" fill="#e0e0e0"/>
              </g>
            </g>
          </g>
          <g id="Group_9539" data-name="Group 9539">
            <g id="Group_9538" data-name="Group 9538">
              <g id="Group_9537" data-name="Group 9537">
                <path id="Path_28103" data-name="Path 28103" d="M227.182,318.825a19.741,19.741,0,0,1-4.508.26,19.744,19.744,0,0,1-4.509-.26,19.743,19.743,0,0,1,4.509-.26,19.734,19.734,0,0,1,4.508.26Z" fill="#e0e0e0"/>
              </g>
            </g>
          </g>
          <g id="Group_9542" data-name="Group 9542">
            <g id="Group_9541" data-name="Group 9541">
              <g id="Group_9540" data-name="Group 9540">
                <path id="Path_28104" data-name="Path 28104" d="M227.182,328.374a19.805,19.805,0,0,1-4.508.26,19.81,19.81,0,0,1-4.509-.26,19.707,19.707,0,0,1,4.509-.261,19.7,19.7,0,0,1,4.508.261Z" fill="#e0e0e0"/>
              </g>
            </g>
          </g>
          <g id="Group_9545" data-name="Group 9545">
            <g id="Group_9544" data-name="Group 9544">
              <g id="Group_9543" data-name="Group 9543">
                <path id="Path_28105" data-name="Path 28105" d="M227.182,337.922a19.7,19.7,0,0,1-4.508.261,19.7,19.7,0,0,1-4.509-.261,19.811,19.811,0,0,1,4.509-.26,19.8,19.8,0,0,1,4.508.26Z" fill="#e0e0e0"/>
              </g>
            </g>
          </g>
          <g id="Group_9548" data-name="Group 9548">
            <g id="Group_9547" data-name="Group 9547">
              <g id="Group_9546" data-name="Group 9546">
                <path id="Path_28106" data-name="Path 28106" d="M227.182,347.471a19.7,19.7,0,0,1-4.508.261,19.708,19.708,0,0,1-4.509-.261,19.744,19.744,0,0,1,4.509-.26,19.734,19.734,0,0,1,4.508.26Z" fill="#e0e0e0"/>
              </g>
            </g>
          </g>
          <g id="Group_9551" data-name="Group 9551">
            <g id="Group_9550" data-name="Group 9550">
              <g id="Group_9549" data-name="Group 9549">
                <path id="Path_28107" data-name="Path 28107" d="M227.182,357.02a19.737,19.737,0,0,1-4.508.26,19.744,19.744,0,0,1-4.509-.26,19.746,19.746,0,0,1,4.509-.26A19.739,19.739,0,0,1,227.182,357.02Z" fill="#e0e0e0"/>
              </g>
            </g>
          </g>
          <g id="Group_9554" data-name="Group 9554">
            <g id="Group_9553" data-name="Group 9553">
              <g id="Group_9552" data-name="Group 9552">
                <path id="Path_28108" data-name="Path 28108" d="M227.182,366.569a19.805,19.805,0,0,1-4.508.26,19.811,19.811,0,0,1-4.509-.26,19.7,19.7,0,0,1,4.509-.261,19.7,19.7,0,0,1,4.508.261Z" fill="#e0e0e0"/>
              </g>
            </g>
          </g>
          <g id="Group_9557" data-name="Group 9557">
            <g id="Group_9556" data-name="Group 9556">
              <g id="Group_9555" data-name="Group 9555">
                <path id="Path_28109" data-name="Path 28109" d="M227.182,376.117a19.7,19.7,0,0,1-4.508.261,19.707,19.707,0,0,1-4.509-.261,19.811,19.811,0,0,1,4.509-.26A19.8,19.8,0,0,1,227.182,376.117Z" fill="#e0e0e0"/>
              </g>
            </g>
          </g>
          <g id="Group_9560" data-name="Group 9560">
            <g id="Group_9559" data-name="Group 9559">
              <g id="Group_9558" data-name="Group 9558">
                <path id="Path_28110" data-name="Path 28110" d="M227.182,385.666a19.7,19.7,0,0,1-4.508.261,19.7,19.7,0,0,1-4.509-.261,19.812,19.812,0,0,1,4.509-.26A19.809,19.809,0,0,1,227.182,385.666Z" fill="#e0e0e0"/>
              </g>
            </g>
          </g>
          <g id="Group_9563" data-name="Group 9563">
            <g id="Group_9562" data-name="Group 9562">
              <g id="Group_9561" data-name="Group 9561">
                <path id="Path_28111" data-name="Path 28111" d="M227.182,395.215a19.736,19.736,0,0,1-4.508.26,19.741,19.741,0,0,1-4.509-.26,19.743,19.743,0,0,1,4.509-.26A19.741,19.741,0,0,1,227.182,395.215Z" fill="#e0e0e0"/>
              </g>
            </g>
          </g>
          <g id="Group_9566" data-name="Group 9566">
            <g id="Group_9565" data-name="Group 9565">
              <g id="Group_9564" data-name="Group 9564">
                <path id="Path_28112" data-name="Path 28112" d="M227.182,404.764a19.739,19.739,0,0,1-4.508.26,19.746,19.746,0,0,1-4.509-.26,19.7,19.7,0,0,1,4.509-.261,19.7,19.7,0,0,1,4.508.261Z" fill="#e0e0e0"/>
              </g>
            </g>
          </g>
          <g id="Group_9569" data-name="Group 9569">
            <g id="Group_9568" data-name="Group 9568">
              <g id="Group_9567" data-name="Group 9567">
                <path id="Path_28113" data-name="Path 28113" d="M263.326,270.518c0,.144-5.24.261-11.7.261s-11.7-.117-11.7-.261,5.238-.26,11.7-.26S263.326,270.374,263.326,270.518Z" fill="#e8505b"/>
              </g>
            </g>
          </g>
          <g id="Group_9572" data-name="Group 9572">
            <g id="Group_9571" data-name="Group 9571">
              <g id="Group_9570" data-name="Group 9570">
                <path id="Path_28114" data-name="Path 28114" d="M263.326,404.764c0,.144-5.24.26-11.7.26s-11.7-.116-11.7-.26,5.238-.261,11.7-.261S263.326,404.62,263.326,404.764Z" fill="#e8505b"/>
              </g>
            </g>
          </g>
          <g id="Group_9575" data-name="Group 9575">
            <g id="Group_9574" data-name="Group 9574">
              <g id="Group_9573" data-name="Group 9573">
                <path id="Path_28115" data-name="Path 28115" d="M295.916,290.179c0,.144-9.8.26-21.892.26s-21.893-.116-21.893-.26,9.8-.261,21.893-.261S295.916,290.035,295.916,290.179Z" fill="#e8505b"/>
              </g>
            </g>
          </g>
          <g id="Group_9578" data-name="Group 9578">
            <g id="Group_9577" data-name="Group 9577">
              <g id="Group_9576" data-name="Group 9576">
                <path id="Path_28116" data-name="Path 28116" d="M346.546,290.179c0,.144-9.8.26-21.892.26s-21.894-.116-21.894-.26,9.8-.261,21.894-.261S346.546,290.035,346.546,290.179Z" fill="#e0e0e0"/>
              </g>
            </g>
          </g>
          <g id="Group_9581" data-name="Group 9581">
            <g id="Group_9580" data-name="Group 9580">
              <g id="Group_9579" data-name="Group 9579">
                <path id="Path_28117" data-name="Path 28117" d="M327.2,299.727c0,.144-14.447.261-32.263.261s-32.265-.117-32.265-.261,14.443-.26,32.265-.26S327.2,299.584,327.2,299.727Z" fill="#e0e0e0"/>
              </g>
            </g>
          </g>
          <g id="Group_9584" data-name="Group 9584">
            <g id="Group_9583" data-name="Group 9583">
              <g id="Group_9582" data-name="Group 9582">
                <path id="Path_28118" data-name="Path 28118" d="M327.2,309.276c0,.144-14.447.261-32.263.261s-32.265-.117-32.265-.261,14.443-.26,32.265-.26S327.2,309.132,327.2,309.276Z" fill="#e0e0e0"/>
              </g>
            </g>
          </g>
          <g id="Group_9587" data-name="Group 9587">
            <g id="Group_9586" data-name="Group 9586">
              <g id="Group_9585" data-name="Group 9585">
                <path id="Path_28119" data-name="Path 28119" d="M371.613,337.922c0,.144-14.446.261-32.263.261s-32.265-.117-32.265-.261,14.443-.26,32.265-.26S371.613,337.779,371.613,337.922Z" fill="#e0e0e0"/>
              </g>
            </g>
          </g>
          <g id="Group_9590" data-name="Group 9590">
            <g id="Group_9589" data-name="Group 9589">
              <g id="Group_9588" data-name="Group 9588">
                <path id="Path_28120" data-name="Path 28120" d="M352.446,318.825c0,.144-14.446.26-32.263.26s-32.265-.116-32.265-.26,14.443-.26,32.265-.26S352.446,318.681,352.446,318.825Z" fill="#e0e0e0"/>
              </g>
            </g>
          </g>
          <g id="Group_9593" data-name="Group 9593">
            <g id="Group_9592" data-name="Group 9592">
              <g id="Group_9591" data-name="Group 9591">
                <path id="Path_28121" data-name="Path 28121" d="M431.3,318.825c0,.144-14.446.26-32.262.26s-32.266-.116-32.266-.26,14.443-.26,32.266-.26S431.3,318.681,431.3,318.825Z" fill="#e0e0e0"/>
              </g>
            </g>
          </g>
          <g id="Group_9596" data-name="Group 9596">
            <g id="Group_9595" data-name="Group 9595">
              <g id="Group_9594" data-name="Group 9594">
                <path id="Path_28122" data-name="Path 28122" d="M403.877,299.727c0,.144-14.446.261-32.263.261s-32.265-.117-32.265-.261,14.443-.26,32.265-.26S403.877,299.584,403.877,299.727Z" fill="#fafafa"/>
              </g>
            </g>
          </g>
          <g id="Group_9599" data-name="Group 9599">
            <g id="Group_9598" data-name="Group 9598">
              <g id="Group_9597" data-name="Group 9597">
                <path id="Path_28123" data-name="Path 28123" d="M448.45,337.922c0,.144-14.446.261-32.262.261s-32.266-.117-32.266-.261,14.443-.26,32.266-.26S448.45,337.779,448.45,337.922Z" fill="#fafafa"/>
              </g>
            </g>
          </g>
          <g id="Group_9602" data-name="Group 9602">
            <g id="Group_9601" data-name="Group 9601">
              <g id="Group_9600" data-name="Group 9600">
                <path id="Path_28124" data-name="Path 28124" d="M439.549,309.276c0,.144-22.432.261-50.1.261s-50.1-.117-50.1-.261,22.427-.26,50.1-.26S439.549,309.132,439.549,309.276Z" fill="#455a64"/>
              </g>
            </g>
          </g>
          <g id="Group_9605" data-name="Group 9605">
            <g id="Group_9604" data-name="Group 9604">
              <g id="Group_9603" data-name="Group 9603">
                <path id="Path_28125" data-name="Path 28125" d="M263.326,280.63c0,.144-5.24.26-11.7.26s-11.7-.116-11.7-.26,5.238-.26,11.7-.26S263.326,280.486,263.326,280.63Z" fill="#fafafa"/>
              </g>
            </g>
          </g>
          <g id="Group_9608" data-name="Group 9608">
            <g id="Group_9607" data-name="Group 9607">
              <g id="Group_9606" data-name="Group 9606">
                <path id="Path_28126" data-name="Path 28126" d="M263.326,395.215c0,.144-5.24.26-11.7.26s-11.7-.116-11.7-.26,5.238-.26,11.7-.26S263.326,395.071,263.326,395.215Z" fill="#fafafa"/>
              </g>
            </g>
          </g>
          <g id="Group_9611" data-name="Group 9611">
            <g id="Group_9610" data-name="Group 9610">
              <g id="Group_9609" data-name="Group 9609">
                <path id="Path_28127" data-name="Path 28127" d="M274.919,318.825c0,.144-5.239.26-11.7.26s-11.7-.116-11.7-.26,5.238-.26,11.7-.26S274.919,318.681,274.919,318.825Z" fill="#fafafa"/>
              </g>
            </g>
          </g>
          <g id="Group_9614" data-name="Group 9614">
            <g id="Group_9613" data-name="Group 9613">
              <g id="Group_9612" data-name="Group 9612">
                <path id="Path_28128" data-name="Path 28128" d="M462.478,318.825c0,.144-5.24.26-11.7.26s-11.7-.116-11.7-.26,5.239-.26,11.7-.26S462.478,318.681,462.478,318.825Z" fill="#e8505b"/>
              </g>
            </g>
          </g>
          <g id="Group_9617" data-name="Group 9617">
            <g id="Group_9616" data-name="Group 9616">
              <g id="Group_9615" data-name="Group 9615">
                <path id="Path_28129" data-name="Path 28129" d="M295.916,356.964c0,.144-9.8.26-21.892.26s-21.893-.116-21.893-.26,9.8-.261,21.893-.261S295.916,356.82,295.916,356.964Z" fill="#e8505b"/>
              </g>
            </g>
          </g>
          <g id="Group_9620" data-name="Group 9620">
            <g id="Group_9619" data-name="Group 9619">
              <g id="Group_9618" data-name="Group 9618">
                <path id="Path_28130" data-name="Path 28130" d="M346.546,356.964c0,.144-9.8.26-21.892.26s-21.894-.116-21.894-.26,9.8-.261,21.894-.261S346.546,356.82,346.546,356.964Z" fill="#e0e0e0"/>
              </g>
            </g>
          </g>
          <g id="Group_9623" data-name="Group 9623">
            <g id="Group_9622" data-name="Group 9622">
              <g id="Group_9621" data-name="Group 9621">
                <path id="Path_28131" data-name="Path 28131" d="M327.2,366.513c0,.143-14.447.26-32.263.26s-32.265-.117-32.265-.26,14.443-.261,32.265-.261S327.2,366.369,327.2,366.513Z" fill="#e0e0e0"/>
              </g>
            </g>
          </g>
          <g id="Group_9626" data-name="Group 9626">
            <g id="Group_9625" data-name="Group 9625">
              <g id="Group_9624" data-name="Group 9624">
                <path id="Path_28132" data-name="Path 28132" d="M327.2,376.061c0,.144-14.447.261-32.263.261s-32.265-.117-32.265-.261,14.443-.26,32.265-.26S327.2,375.917,327.2,376.061Z" fill="#e0e0e0"/>
              </g>
            </g>
          </g>
          <g id="Group_9629" data-name="Group 9629">
            <g id="Group_9628" data-name="Group 9628">
              <g id="Group_9627" data-name="Group 9627">
                <path id="Path_28133" data-name="Path 28133" d="M352.446,385.61c0,.144-14.446.26-32.263.26s-32.265-.116-32.265-.26,14.443-.26,32.265-.26S352.446,385.466,352.446,385.61Z" fill="#e0e0e0"/>
              </g>
            </g>
          </g>
          <g id="Group_9632" data-name="Group 9632">
            <g id="Group_9631" data-name="Group 9631">
              <g id="Group_9630" data-name="Group 9630">
                <path id="Path_28134" data-name="Path 28134" d="M431.3,385.61c0,.144-14.446.26-32.262.26s-32.266-.116-32.266-.26,14.443-.26,32.266-.26S431.3,385.466,431.3,385.61Z" fill="#e0e0e0"/>
              </g>
            </g>
          </g>
          <g id="Group_9635" data-name="Group 9635">
            <g id="Group_9634" data-name="Group 9634">
              <g id="Group_9633" data-name="Group 9633">
                <path id="Path_28135" data-name="Path 28135" d="M403.877,366.513c0,.143-14.446.26-32.263.26s-32.265-.117-32.265-.26,14.443-.261,32.265-.261S403.877,366.369,403.877,366.513Z" fill="#fafafa"/>
              </g>
            </g>
          </g>
          <g id="Group_9638" data-name="Group 9638">
            <g id="Group_9637" data-name="Group 9637">
              <g id="Group_9636" data-name="Group 9636">
                <path id="Path_28136" data-name="Path 28136" d="M439.549,376.061c0,.144-22.432.261-50.1.261s-50.1-.117-50.1-.261,22.427-.26,50.1-.26S439.549,375.917,439.549,376.061Z" fill="#455a64"/>
              </g>
            </g>
          </g>
          <g id="Group_9641" data-name="Group 9641">
            <g id="Group_9640" data-name="Group 9640">
              <g id="Group_9639" data-name="Group 9639">
                <path id="Path_28137" data-name="Path 28137" d="M274.919,385.61c0,.144-5.239.26-11.7.26s-11.7-.116-11.7-.26,5.238-.26,11.7-.26S274.919,385.466,274.919,385.61Z" fill="#fafafa"/>
              </g>
            </g>
          </g>
          <g id="Group_9644" data-name="Group 9644">
            <g id="Group_9643" data-name="Group 9643">
              <g id="Group_9642" data-name="Group 9642">
                <path id="Path_28138" data-name="Path 28138" d="M462.478,385.61c0,.144-5.24.26-11.7.26s-11.7-.116-11.7-.26,5.239-.26,11.7-.26S462.478,385.466,462.478,385.61Z" fill="#e8505b"/>
              </g>
            </g>
          </g>
        </g>
      </g>
    </g>
    <g id="Angular" transform="translate(15774.417 3975.199)">
      <g id="Group_9351" data-name="Group 9351">
        <g id="Group_9348" data-name="Group 9348">
          <g id="Group_9345" data-name="Group 9345">
            <g id="Group_9344" data-name="Group 9344">
              <g id="Group_9343" data-name="Group 9343">
                <path id="Path_28047" data-name="Path 28047" d="M318.9,83.049a7.928,7.928,0,0,0-4.362,7.172l.373,59.466a7.951,7.951,0,0,0,3.84,6.79l49.381,29.431a.023.023,0,0,0,.024,0l47.266-30.643a7.955,7.955,0,0,0,3.592-6.734l-.39-62.091A7.919,7.919,0,0,0,413.9,79.2L367.344,59.077Z" fill="#e8505b"/>
              </g>
            </g>
          </g>
          <g id="Group_9347" data-name="Group 9347" opacity="0.2">
            <g id="Group_9346" data-name="Group 9346">
              <path id="Path_28048" data-name="Path 28048" d="M367.344,59.077l.8,126.831,47.2-30.585a7.92,7.92,0,0,0,3.666-6.7l-.367-62.341a7.752,7.752,0,0,0-4.68-7.073Z"/>
            </g>
          </g>
        </g>
        <g id="Group_9350" data-name="Group 9350">
          <g id="Group_9349" data-name="Group 9349">
            <path id="Path_28049" data-name="Path 28049" d="M381.162,130.3l-28.8.18-5.875,13.92-7.974.05,24.2-55.674,7.664-.048L395.339,144.1l-8.128.05Zm-2.749-6.329-11.862-27.13-11.52,27.277Z" fill="#fff"/>
          </g>
        </g>
      </g>
    </g>
  </g>
</svg>
