<svg xmlns="http://www.w3.org/2000/svg" xmlns:xlink="http://www.w3.org/1999/xlink" width="32" height="32" viewBox="0 0 32 32">
  <defs>
    <clipPath id="clip-path">
      <rect id="Rectangle_555" data-name="Rectangle 555" width="32" height="32" transform="translate(1746 -403)" fill="#fff"/>
    </clipPath>
  </defs>
  <g id="Mask_Group_29" data-name="Mask Group 29" transform="translate(-1746 403)" clip-path="url(#clip-path)">
    <g id="instalogo" transform="translate(1727.397 -592.463)">
      <g id="Layer_2" data-name="Layer 2" transform="translate(21.603 192.463)">
        <path id="Path_14" data-name="Path 14" d="M127.851,197.769h-.043a.421.421,0,0,1-.338-.119.3.3,0,0,0-.36-.054l.058.1a1.044,1.044,0,0,1-.133-.025,1.9,1.9,0,0,0-.3-.1.472.472,0,0,0-.281.025c-.209.119-.4.263-.6.4a.173.173,0,0,0-.061.09l.158-.076a1.015,1.015,0,0,1,.162-.058c.115-.025.158,0,.166.126a1.719,1.719,0,0,1,0,.2v.23a.41.41,0,0,0-.065.086c-.032.09-.05.184-.09.27a.72.72,0,0,0,0,.695,1.08,1.08,0,0,1,.126.4c0,.086.09.166.137.248h.025l-.112-.392.317.489a.126.126,0,0,1,.018.065.36.36,0,0,0,.248.328,6.769,6.769,0,0,0,.691.263.536.536,0,0,1,.274.2,1.232,1.232,0,0,0,.313.2.072.072,0,0,0,.054,0c.094-.04.191-.032.23.05a.36.36,0,0,1,0,.223,1.372,1.372,0,0,1-.119.205.439.439,0,0,0,.065.547.642.642,0,0,1,.094.119.907.907,0,0,0,.36.378.288.288,0,0,1,.1.36,4.034,4.034,0,0,1-.2.511.831.831,0,0,0-.086.4,1.941,1.941,0,0,0,.04.22,3.545,3.545,0,1,1,.133-.025,1.047,1.047,0,0,1,.385-.457,2.628,2.628,0,0,0,.554-.4,4.092,4.092,0,0,0,1.062-1.389,1.29,1.29,0,0,0,.05-.173c.022-.112,0-.173-.115-.205a2.309,2.309,0,0,0-.328-.054h-.162a.126.126,0,0,1-.13-.126c0-.158-.108-.216-.245-.256a2.6,2.6,0,0,1-.475-.191.54.54,0,0,0-.677.047.5.5,0,0,1-.5.115.281.281,0,0,1-.23-.263c-.025-.194-.086-.259-.3-.317a.948.948,0,0,0,.036-.151.421.421,0,0,0-.022-.115.429.429,0,0,0-.1.029c-.065.036-.126.086-.194.119a.18.18,0,0,1-.274-.083.36.36,0,0,1,.119-.511.587.587,0,0,1,.77.072.8.8,0,0,0,.09.068l.032-.022a1.348,1.348,0,0,0-.05-.166.212.212,0,0,1,.065-.277.36.36,0,0,0,.151-.36.245.245,0,0,1,.205-.277c0-.137.047-.162.187-.169.058,0,.115-.061.191-.108l-.126-.072c-.083-.047-.09-.086,0-.151l.184-.133-.457-.31h-.018a.673.673,0,0,1-.36-.079c-.086-.029-.112,0-.1.086a2.162,2.162,0,0,1,.029.216c0,.1-.05.137-.137.083l-.36-.227c-.058-.036-.05-.072,0-.112h0C127.715,197.971,127.851,197.938,127.851,197.769Zm.421-.529a.216.216,0,0,0-.187.1c-.047.065-.029.126.05.13a.936.936,0,0,1,.551.256,2.737,2.737,0,0,0,.331.2h.1a.407.407,0,0,0,0-.1.931.931,0,0,1-.086-.2.309.309,0,0,0-.23-.274C128.622,197.312,128.445,197.28,128.273,197.24Zm-.2.691a2.127,2.127,0,0,0,.245.029c.036,0,.1-.029.1-.043a.18.18,0,0,0-.05-.126,1.105,1.105,0,0,0-.245-.14.889.889,0,0,0-.385-.029c.079.094.173.076.252.094C128.132,197.744,128.157,197.794,128.071,197.931Zm-.054,2.418c.036.029.043.04.05.04a1.285,1.285,0,0,1,.5.176.36.36,0,0,0,.4-.04c-.047,0-.1-.047-.137-.029-.119.061-.2,0-.3-.058a2.519,2.519,0,0,0-.36-.122C128.136,200.3,128.085,200.331,128.017,200.349ZM127.7,197.5a.292.292,0,0,0,.324-.1c.036-.065,0-.1-.058-.1h-.083c-.115.022-.126.13-.187.2Z" transform="translate(-124.563 -197.239)" fill="#ffffff"/>
        <path id="Path_15" data-name="Path 15" d="M134.466,197.239a5.132,5.132,0,0,1,.515.122.309.309,0,0,1,.23.273.933.933,0,0,0,.086.2.4.4,0,0,1,0,.1h-.1a2.741,2.741,0,0,1-.331-.2.936.936,0,0,0-.551-.256c-.079,0-.1-.065-.05-.13A.216.216,0,0,1,134.466,197.239Z" transform="translate(-130.757 -197.238)" fill="#ffffff"/>
        <path id="Path_16" data-name="Path 16" d="M133.721,198.587c.086-.14.061-.187-.079-.22a.289.289,0,0,1-.252-.094.889.889,0,0,1,.385.029,1.1,1.1,0,0,1,.245.14.18.18,0,0,1,.05.126.241.241,0,0,1-.1.043,2.137,2.137,0,0,1-.245-.025Z" transform="translate(-130.213 -197.895)" fill="#ffffff"/>
        <path id="Path_17" data-name="Path 17" d="M134.16,205.819c.068,0,.119-.043.158-.032a2.519,2.519,0,0,1,.36.122c.1.043.18.115.3.058a.26.26,0,0,1,.137.029.36.36,0,0,1-.4.04,1.285,1.285,0,0,0-.5-.176S134.192,205.862,134.16,205.819Z" transform="translate(-130.706 -202.709)" fill="#ffffff"/>
        <path id="Union_6" data-name="Union 6" d="M.011,11.344H0V.007H5.618V11.344h0S5.532,14.008,7.5,14.075c2.217.08,2.106-2.49,2.106-2.49h.007V9.5l0-.006V7.655s-.122-5.827,4.5-7.238a16.233,16.233,0,0,1,3.551-.4L17.693,0c7.382,0,7.244,5.084,7.244,5.084V6.7l-.018-.012v11.49a.145.145,0,0,1-.115.147h-5.4c-.079,0-.079-.07-.079-.151V7.082s-.083-2.159-2.127-2a1.968,1.968,0,0,0-1.738,1.54c-.056.2-.1.406-.141.618a4.443,4.443,0,0,0-.053.764v3.207c.013.118.021.185.021.185l-.04.026c-.046,1.136-.615,6.706-7.32,7-.17.007-.337.01-.5.01C.82,18.434.049,12.505.011,11.344Z" transform="translate(0.661 8.146)" fill="#ffffff"/>
      </g>
    </g>
  </g>
</svg>
