<svg xmlns="http://www.w3.org/2000/svg" xmlns:xlink="http://www.w3.org/1999/xlink" width="49.979" height="49.867" viewBox="0 0 49.979 49.867">
  <defs>
    <radialGradient id="radial-gradient" cx="0.5" cy="0.5" r="0.5" gradientUnits="objectBoundingBox">
      <stop offset="0" stop-color="#f1f1f1" stop-opacity="0.831"/>
      <stop offset="0.143" stop-color="#eae8e8" stop-opacity="0.361"/>
      <stop offset="1" stop-color="#e8e8e8" stop-opacity="0.831"/>
    </radialGradient>
  </defs>
  <g id="elearning-solution" transform="translate(-634 -370.067)">
    <path id="Ellipse_1" data-name="Ellipse 1" d="M22.3-.058A22.431,22.431,0,1,1-.059,22.366,22.414,22.414,0,0,1,22.3-.058Z" transform="translate(634.065 414.414) rotate(-83)" fill="url(#radial-gradient)"/>
    <g id="Group_33" data-name="Group 33" transform="translate(-69 -9)">
      <g id="vuesax_outline_teacher" data-name="vuesax/outline/teacher" transform="translate(553 140)">
        <g id="teacher" transform="translate(172 252)">
          <path id="Vector" d="M5.944,9.188a2.61,2.61,0,0,1-1.388-.379L1.044,6.517a2.3,2.3,0,0,1,0-3.85L4.562.38A2.709,2.709,0,0,1,7.338.386l3.494,2.293a2.293,2.293,0,0,1,0,3.838L7.338,8.809A2.565,2.565,0,0,1,5.944,9.188Zm0-8.312a1.636,1.636,0,0,0-.9.239L1.528,3.4a1.417,1.417,0,0,0,0,2.38L5.04,8.074a1.871,1.871,0,0,0,1.82,0l3.494-2.293a1.424,1.424,0,0,0,0-2.38L6.86,1.109A1.78,1.78,0,0,0,5.944.876Z" transform="translate(1.062 0.728)" fill="#292d32"/>
          <path id="Vector-2" data-name="Vector" d="M4.159,6.078a2.393,2.393,0,0,1-.729-.105L1.569,5.355A2.411,2.411,0,0,1,0,3.173L.006.438A.441.441,0,0,1,.443,0,.441.441,0,0,1,.881.438L.875,3.173a1.569,1.569,0,0,0,.974,1.353l1.861.618a1.8,1.8,0,0,0,.9,0l1.861-.618a1.568,1.568,0,0,0,.974-1.347V.473a.438.438,0,0,1,.875,0V3.179A2.426,2.426,0,0,1,6.749,5.361l-1.861.618A2.593,2.593,0,0,1,4.159,6.078Z" transform="translate(2.841 7.192)" fill="#292d32"/>
          <path id="Vector-3" data-name="Vector" d="M.438,4.375A.441.441,0,0,1,0,3.938V.438A.441.441,0,0,1,.438,0,.441.441,0,0,1,.875.438v3.5A.441.441,0,0,1,.438,4.375Z" transform="translate(12.046 4.813)" fill="#292d32"/>
          <path id="Vector-4" data-name="Vector" d="M0,0H14V14H0Z" fill="none" opacity="0"/>
        </g>
      </g>
      <path id="Vector-5" data-name="Vector" d="M16.31,16.72H5.19C1.21,16.72,0,15.51,0,11.53V5.19C0,1.21,1.21,0,5.19,0H6.75A.755.755,0,0,1,7.5.75a.755.755,0,0,1-.75.75H5.19c-3.14,0-3.69.55-3.69,3.69v6.33c0,3.14.55,3.69,3.69,3.69H16.3c3.14,0,3.69-.55,3.69-3.69v-.89a.75.75,0,0,1,1.5,0v.89C21.5,15.51,20.29,16.72,16.31,16.72Z" transform="translate(717.25 396.25)" fill="#ff0101"/>
      <path id="Vector-6" data-name="Vector" d="M20.75,1.5H.75A.755.755,0,0,1,0,.75.755.755,0,0,1,.75,0h20a.755.755,0,0,1,.75.75A.755.755,0,0,1,20.75,1.5Z" transform="translate(717.25 407.25)" fill="#ff0101"/>
      <path id="Vector-7" data-name="Vector" d="M0,0H24V24H0Z" transform="translate(716 395)" fill="none" opacity="0"/>
    </g>
  </g>
</svg>
