<svg xmlns="http://www.w3.org/2000/svg" xmlns:xlink="http://www.w3.org/1999/xlink" width="49.979" height="49.867" viewBox="0 0 49.979 49.867">
  <defs>
    <radialGradient id="radial-gradient" cx="0.5" cy="0.5" r="0.5" gradientUnits="objectBoundingBox">
      <stop offset="0" stop-color="#f1f1f1" stop-opacity="0.831"/>
      <stop offset="0.143" stop-color="#eae8e8" stop-opacity="0.361"/>
      <stop offset="1" stop-color="#e8e8e8" stop-opacity="0.831"/>
    </radialGradient>
  </defs>
  <g id="real-estate-solutions" transform="translate(-690.021 -370.067)">
    <path id="Ellipse_1" data-name="Ellipse 1" d="M22.3-.058A22.431,22.431,0,1,1-.059,22.366,22.414,22.414,0,0,1,22.3-.058Z" transform="translate(690.086 414.414) rotate(-83)" fill="url(#radial-gradient)"/>
    <g id="vuesax_outline_house" data-name="vuesax/outline/house" transform="translate(467 195)">
      <g id="house">
        <path id="Vector" d="M5.75,6.5h-5A.755.755,0,0,1,0,5.75V2.25A2.253,2.253,0,0,1,2.25,0h2A2.253,2.253,0,0,1,6.5,2.25v3.5A.755.755,0,0,1,5.75,6.5ZM1.5,5H5V2.25a.755.755,0,0,0-.75-.75h-2a.755.755,0,0,0-.75.75Z" transform="translate(244.75 204.25)" fill="#292d32"/>
        <path id="Vector-2" data-name="Vector" d="M20.75,1.5H.75A.755.755,0,0,1,0,.75.755.755,0,0,1,.75,0h20a.755.755,0,0,1,.75.75A.755.755,0,0,1,20.75,1.5Z" transform="translate(237.25 209.25)" fill="#ff0101"/>
        <path id="Vector-3" data-name="Vector" d="M1.5,20.218H0L.05,8.187a2.724,2.724,0,0,1,1.06-2.16l7-5.45a2.762,2.762,0,0,1,3.38,0l7,5.44a2.788,2.788,0,0,1,1.06,2.17v12.03h-1.5V8.2a1.281,1.281,0,0,0-.48-.99l-7-5.44a1.261,1.261,0,0,0-1.54,0l-7,5.45a1.246,1.246,0,0,0-.48.98Z" transform="translate(238.2 189.782)" fill="#ff0101"/>
        <path id="Vector-4" data-name="Vector" d="M3.75,5h-2A1.758,1.758,0,0,1,0,3.25V1.75A1.758,1.758,0,0,1,1.75,0h2A1.758,1.758,0,0,1,5.5,1.75v1.5A1.758,1.758,0,0,1,3.75,5Zm-2-3.5a.248.248,0,0,0-.25.25v1.5a.248.248,0,0,0,.25.25h2A.248.248,0,0,0,4,3.25V1.75a.248.248,0,0,0-.25-.25Z" transform="translate(241.75 197.5)" fill="#292d32"/>
        <path id="Vector-5" data-name="Vector" d="M3.75,5h-2A1.758,1.758,0,0,1,0,3.25V1.75A1.758,1.758,0,0,1,1.75,0h2A1.758,1.758,0,0,1,5.5,1.75v1.5A1.758,1.758,0,0,1,3.75,5Zm-2-3.5a.248.248,0,0,0-.25.25v1.5a.248.248,0,0,0,.25.25h2A.248.248,0,0,0,4,3.25V1.75a.248.248,0,0,0-.25-.25Z" transform="translate(248.75 197.5)" fill="#292d32"/>
        <path id="Vector-6" data-name="Vector" d="M5.17,4.5a.747.747,0,0,1-.75-.74L4.4,1.5H.75A.755.755,0,0,1,0,.75.755.755,0,0,1,.75,0h4.4A.747.747,0,0,1,5.9.74l.03,3a.766.766,0,0,1-.76.76Z" transform="translate(249.83 191.25)" fill="#ff0101"/>
        <path id="Vector-7" data-name="Vector" d="M0,0H24V24H0Z" transform="translate(236 188)" fill="none" opacity="0"/>
      </g>
    </g>
  </g>
</svg>
