<svg xmlns="http://www.w3.org/2000/svg" xmlns:xlink="http://www.w3.org/1999/xlink" width="49.979" height="49.867" viewBox="0 0 49.979 49.867">
  <defs>
    <radialGradient id="radial-gradient" cx="0.5" cy="0.5" r="0.5" gradientUnits="objectBoundingBox">
      <stop offset="0" stop-color="#f1f1f1" stop-opacity="0.831"/>
      <stop offset="0.143" stop-color="#eae8e8" stop-opacity="0.361"/>
      <stop offset="1" stop-color="#e8e8e8" stop-opacity="0.831"/>
    </radialGradient>
  </defs>
  <g id="social-media-solution" transform="translate(-697 -428.067)">
    <path id="Ellipse_1" data-name="Ellipse 1" d="M22.3-.058A22.431,22.431,0,1,1-.059,22.366,22.414,22.414,0,0,1,22.3-.058Z" transform="translate(697.065 472.414) rotate(-83)" fill="url(#radial-gradient)"/>
    <g id="vuesax_outline_like-tag" data-name="vuesax/outline/like-tag" transform="translate(281.398 188.398)">
      <g id="like-tag" transform="translate(428 252)">
        <path id="Vector" d="M5.461,11.8H3.381a2.393,2.393,0,0,1-1.6-.557L.168,10l.966-1.25,1.691,1.313a1.023,1.023,0,0,0,.557.158H5.461a.882.882,0,0,0,.767-.546L7.55,5.63a.335.335,0,0,0,.01-.284.365.365,0,0,0-.294-.1H5.083a1.364,1.364,0,0,1-1.019-.462,1.4,1.4,0,0,1-.315-1.092l.273-1.754A.31.31,0,0,0,3.843,1.6a.341.341,0,0,0-.294.073L1.313,5,0,4.118,2.237.789A1.857,1.857,0,0,1,5.576,2.217L5.356,3.655H7.267a1.894,1.894,0,0,1,1.586.777,1.863,1.863,0,0,1,.2,1.7L7.75,10.1A2.44,2.44,0,0,1,5.461,11.8Z" transform="translate(9.482 5.113)" fill="#292d32"/>
        <path id="Vector-2" data-name="Vector" d="M2.426,9H1.88A1.675,1.675,0,0,1,0,7.172V1.827A1.675,1.675,0,0,1,1.88,0h.546a1.675,1.675,0,0,1,1.88,1.827V7.172A1.675,1.675,0,0,1,2.426,9ZM1.607,7.414c.032,0,.116.011.273.011h.546a1.036,1.036,0,0,0,.294-.032c0-.021.011-.084.011-.22V1.827A.746.746,0,0,0,2.709,1.6c-.021,0-.105-.011-.284-.011H1.88a1.036,1.036,0,0,0-.294.032c0,.021-.01.084-.01.22V7.183a.9.9,0,0,0,.021.242A.01.01,0,0,1,1.607,7.414Z" transform="translate(6.563 7.319)" fill="#292d32"/>
        <path id="Vector-3" data-name="Vector" d="M10.239,22.567a2.887,2.887,0,0,1-2.037-.84l-1.8-1.775a2.369,2.369,0,0,0-1.67-.683h-.8A3.926,3.926,0,0,1,0,15.363V3.906A3.926,3.926,0,0,1,3.938,0h12.6a3.926,3.926,0,0,1,3.938,3.906V15.363A3.926,3.926,0,0,1,16.54,19.27h-.8a2.351,2.351,0,0,0-1.67.683l-1.8,1.775A2.887,2.887,0,0,1,10.239,22.567Zm-6.3-21A2.353,2.353,0,0,0,1.575,3.9V15.353a2.346,2.346,0,0,0,2.363,2.331h.8a3.942,3.942,0,0,1,2.783,1.145l1.8,1.775a1.331,1.331,0,0,0,1.859,0l1.8-1.775a3.942,3.942,0,0,1,2.783-1.145h.788A2.353,2.353,0,0,0,18.9,15.353V3.9A2.346,2.346,0,0,0,16.54,1.565Z" transform="translate(2.363 1.323)" fill="#ff0101"/>
        <path id="Vector-4" data-name="Vector" d="M0,0H25.2V25.2H0Z" fill="none" opacity="0"/>
      </g>
    </g>
  </g>
</svg>
