<svg xmlns="http://www.w3.org/2000/svg" xmlns:xlink="http://www.w3.org/1999/xlink" width="49.979" height="49.867" viewBox="0 0 49.979 49.867">
  <defs>
    <radialGradient id="radial-gradient" cx="0.5" cy="0.5" r="0.5" gradientUnits="objectBoundingBox">
      <stop offset="0" stop-color="#f1f1f1" stop-opacity="0.831"/>
      <stop offset="0.143" stop-color="#eae8e8" stop-opacity="0.361"/>
      <stop offset="1" stop-color="#e8e8e8" stop-opacity="0.831"/>
    </radialGradient>
  </defs>
  <g id="supply-chain-management" transform="translate(-882 -370)">
    <path id="Ellipse_1" data-name="Ellipse 1" d="M22.3-.058A22.431,22.431,0,1,1-.059,22.366,22.414,22.414,0,0,1,22.3-.058Z" transform="translate(882.065 414.348) rotate(-83)" fill="url(#radial-gradient)"/>
    <g id="vuesax_outline_share" data-name="vuesax/outline/share" transform="translate(530 66)">
      <g id="share" transform="translate(364 316)">
        <path id="Vector" d="M4.9,8.481a.848.848,0,0,1-.832-.744A8.7,8.7,0,0,0,.356,1.51.835.835,0,0,1,.145.356.837.837,0,0,1,1.3.145,10.361,10.361,0,0,1,5.706,7.559a.842.842,0,0,1-.744.921Z" transform="translate(17.991 6.026)" fill="#292d32"/>
        <path id="Vector-2" data-name="Vector" d="M.836,8.5H.748A.85.85,0,0,1,0,7.579,10.383,10.383,0,0,1,4.344.154a.836.836,0,0,1,.966,1.365A8.709,8.709,0,0,0,1.658,7.757.821.821,0,0,1,.836,8.5Z" transform="translate(3.037 6.062)" fill="#292d32"/>
        <path id="Vector-3" data-name="Vector" d="M5.131,2.689A10.342,10.342,0,0,1,.458,1.579.834.834,0,0,1,1.213.092a8.773,8.773,0,0,0,7.7.067.832.832,0,0,1,.721,1.5A10.231,10.231,0,0,1,5.131,2.689Z" transform="translate(8.255 22.407)" fill="#292d32"/>
        <path id="Vector-4" data-name="Vector" d="M3.918,7.836A3.918,3.918,0,1,1,7.836,3.918,3.917,3.917,0,0,1,3.918,7.836Zm0-6.16A2.253,2.253,0,1,0,6.171,3.929,2.255,2.255,0,0,0,3.918,1.676Z" transform="translate(9.468 1.532)" fill="#ff0101"/>
        <path id="Vector-5" data-name="Vector" d="M3.918,7.836A3.918,3.918,0,1,1,7.836,3.918,3.917,3.917,0,0,1,3.918,7.836Zm0-6.171A2.253,2.253,0,1,0,6.171,3.918,2.255,2.255,0,0,0,3.918,1.665Z" transform="translate(1.443 15.106)" fill="#ff0101"/>
        <path id="Vector-6" data-name="Vector" d="M3.918,7.836A3.918,3.918,0,1,1,7.836,3.918,3.917,3.917,0,0,1,3.918,7.836Zm0-6.171A2.253,2.253,0,1,0,6.171,3.918,2.255,2.255,0,0,0,3.918,1.665Z" transform="translate(17.359 15.106)" fill="#ff0101"/>
        <path id="Vector-7" data-name="Vector" d="M0,0H26.638V26.638H0Z" fill="none" opacity="0"/>
      </g>
    </g>
  </g>
</svg>
