<svg xmlns="http://www.w3.org/2000/svg" xmlns:xlink="http://www.w3.org/1999/xlink" width="49.979" height="49.867" viewBox="0 0 49.979 49.867">
  <defs>
    <radialGradient id="radial-gradient" cx="0.5" cy="0.5" r="0.5" gradientUnits="objectBoundingBox">
      <stop offset="0" stop-color="#f1f1f1" stop-opacity="0.831"/>
      <stop offset="0.143" stop-color="#eae8e8" stop-opacity="0.361"/>
      <stop offset="1" stop-color="#e8e8e8" stop-opacity="0.831"/>
    </radialGradient>
  </defs>
  <g id="travel_tour" data-name="travel &amp; tour" transform="translate(-757 -372)">
    <path id="Ellipse_1" data-name="Ellipse 1" d="M22.3-.058A22.431,22.431,0,1,1-.059,22.366,22.414,22.414,0,0,1,22.3-.058Z" transform="translate(757.065 416.348) rotate(-83)" fill="url(#radial-gradient)"/>
    <g id="vuesax_outline_airplane-square" data-name="vuesax/outline/airplane-square" transform="translate(278 197)">
      <g id="airplane-square">
        <path id="Vector" d="M9.69,15.648a1.438,1.438,0,0,1-.67-.16.71.71,0,0,1-.14-.1l-1.67-1.42-1.64,1.42a1.3,1.3,0,0,1-.15.1,1.448,1.448,0,0,1-1.22.04,1.511,1.511,0,0,1-.84-.91l-.32-.96a1.552,1.552,0,0,1,.35-1.51l1.67-1.64-.01-1.45-3.01,1.29a1.48,1.48,0,0,1-1.42-.08A1.462,1.462,0,0,1,0,9.007v-.93a2.206,2.206,0,0,1,1.26-1.92l3.79-1.63V2.618A2.888,2.888,0,0,1,6.57.157a1.525,1.525,0,0,1,1.35,0,2.967,2.967,0,0,1,1.52,2.46v1.91l3.79,1.63a2.182,2.182,0,0,1,1.26,1.92v.93a1.461,1.461,0,0,1-.64,1.27,1.509,1.509,0,0,1-1.42.08l-3-1.29v1.47l1.63,1.63a1.546,1.546,0,0,1,.35,1.51l-.32.95a1.468,1.468,0,0,1-.84.9A1.376,1.376,0,0,1,9.69,15.648Zm-2.46-3.16a1.526,1.526,0,0,1,.94.32l1.55,1.32.27-.93-1.63-1.62a1.529,1.529,0,0,1-.43-1.04V8.688a1.256,1.256,0,0,1,.53-1.07,1.24,1.24,0,0,1,1.2-.08l3.32,1.42.01-.88a.7.7,0,0,0-.35-.54l-3.95-1.7a1.286,1.286,0,0,1-.75-1.15V2.618A1.49,1.49,0,0,0,7.25,1.5a1.457,1.457,0,0,0-.7,1.12v2.07a1.3,1.3,0,0,1-.75,1.15l-3.94,1.7a.731.731,0,0,0-.36.54v.88l3.31-1.41A1.224,1.224,0,0,1,6,7.617,1.253,1.253,0,0,1,6.55,8.7v1.85a1.568,1.568,0,0,1-.43,1.04l-1.68,1.65.32.88,1.51-1.28A1.515,1.515,0,0,1,7.23,12.488Zm2.05-8.03.01.01A.01.01,0,0,0,9.28,4.457Z" transform="translate(496.77 192.182)" fill="#292d32"/>
        <path id="Vector-2" data-name="Vector" d="M0,0H24V24H0Z" transform="translate(492 188)" fill="none" opacity="0"/>
        <path id="Vector-3" data-name="Vector" d="M13.75,21.5h-6C2.32,21.5,0,19.18,0,13.75v-6C0,2.32,2.32,0,7.75,0h6c5.43,0,7.75,2.32,7.75,7.75v6C21.5,19.18,19.18,21.5,13.75,21.5Zm-6-20C3.14,1.5,1.5,3.14,1.5,7.75v6C1.5,18.36,3.14,20,7.75,20h6C18.36,20,20,18.36,20,13.75v-6c0-4.61-1.64-6.25-6.25-6.25Z" transform="translate(493.25 189.25)" fill="#ff0101"/>
      </g>
    </g>
  </g>
</svg>
