<svg xmlns="http://www.w3.org/2000/svg" xmlns:xlink="http://www.w3.org/1999/xlink" width="40" height="40" viewBox="0 0 29.991 30.005">
  <defs>
    <radialGradient id="radial-gradient" cx="0.5" cy="0.5" r="0.5" gradientUnits="objectBoundingBox">
      <stop offset="0" stop-color="#f1f1f1" stop-opacity="0.831"/>
      <stop offset="0.143" stop-color="#eae8e8" stop-opacity="0.361"/>
      <stop offset="1" stop-color="#e8e8e8" stop-opacity="0.831"/>
    </radialGradient>
  </defs>
  <g id="frontend-devlopment" transform="translate(-427.999 -360.02)">
    <path id="Ellipse_1" data-name="Ellipse 1" d="M13.467,0A13.455,13.455,0,1,1,0,13.459,13.454,13.454,0,0,1,13.467,0Z" transform="translate(427.997 386.747) rotate(-83)" fill="url(#radial-gradient)"/>
    <g id="vuesax_outline_document-code-2" data-name="vuesax/outline/document-code-2" transform="translate(434.108 365.845)">
      <g id="document-code-2">
        <path id="Vector" d="M10.786,16.682H6.864a.582.582,0,1,1,0-1.164h3.922c2.244,0,3.334-1.079,3.334-3.3V4.462c0-2.219-1.09-3.3-3.334-3.3H4.511c-2.244,0-3.334,1.079-3.334,3.3V9.893A.588.588,0,0,1,0,9.893V4.462C0,1.629,1.647,0,4.511,0h6.276C13.65,0,15.3,1.629,15.3,4.462v7.759C15.3,15.053,13.65,16.682,10.786,16.682Z" transform="translate(1.558 0.866)" fill="#ff0101"/>
        <path id="Vector-2" data-name="Vector" d="M3.29,3.809H1.9A1.9,1.9,0,0,1,0,1.9V.519A.523.523,0,0,1,.519,0a.523.523,0,0,1,.519.519V1.9A.866.866,0,0,0,1.9,2.77H3.29a.519.519,0,1,1,0,1.039Z" transform="translate(10.855 2.96)" fill="#2a2a2a"/>
        <path id="Vector-3" data-name="Vector" d="M1.9,3.807a.514.514,0,0,1-.367-.152L.151,2.27a.523.523,0,0,1,0-.734L1.536.151A.519.519,0,0,1,2.27.885L1.252,1.9,2.27,2.921a.523.523,0,0,1,0,.734A.514.514,0,0,1,1.9,3.807Z" transform="translate(0.867 13.048)" fill="#2a2a2a"/>
        <path id="Vector-4" data-name="Vector" d="M.518,3.807a.514.514,0,0,1-.367-.152.523.523,0,0,1,0-.734L1.169,1.9.151.885A.519.519,0,0,1,.885.151L2.27,1.536a.523.523,0,0,1,0,.734L.885,3.655A.514.514,0,0,1,.518,3.807Z" transform="translate(4.877 13.048)" fill="#2a2a2a"/>
        <path id="Vector-5" data-name="Vector" d="M0,0H18.414V18.414H0Z" fill="none" opacity="0"/>
      </g>
    </g>
  </g>
</svg>
