<svg xmlns="http://www.w3.org/2000/svg" xmlns:xlink="http://www.w3.org/1999/xlink" width="40" height="40" viewBox="0 0 30.045 30.329">
  <defs>
    <radialGradient id="radial-gradient" cx="0.5" cy="0.5" r="0.5" gradientUnits="objectBoundingBox">
      <stop offset="0" stop-color="#f1f1f1" stop-opacity="0.831"/>
      <stop offset="0.143" stop-color="#eae8e8" stop-opacity="0.361"/>
      <stop offset="1" stop-color="#e8e8e8" stop-opacity="0.831"/>
    </radialGradient>
  </defs>
  <g id="mobile-app-development" transform="translate(-498.977 -360.042)">
    <path id="Ellipse_1" data-name="Ellipse 1" d="M13.8.169A13.494,13.494,0,0,1,27.4,13.61,13.6,13.6,0,0,1,13.757,27.094,13.494,13.494,0,0,1,.152,13.653,13.6,13.6,0,0,1,13.8.169Z" transform="translate(498.791 387.22) rotate(-83)" fill="url(#radial-gradient)"/>
    <g id="Group_9" data-name="Group 9" transform="translate(506.338 366.479)">
      <path id="Path_32" data-name="Path 32" d="M-1312.433,183a5.743,5.743,0,0,1,.887.286,2.66,2.66,0,0,1,1.54,2.372c.02.382.01.765,0,1.147a.677.677,0,0,1-.686.685.679.679,0,0,1-.681-.689c-.006-.325,0-.651,0-.976a1.379,1.379,0,0,0-1.451-1.453q-1.936,0-3.871,0h-2.586a1.383,1.383,0,0,0-1.48,1.475q0,5.927,0,11.853a1.383,1.383,0,0,0,1.481,1.475h6.423a1.386,1.386,0,0,0,1.485-1.488c0-.377,0-.754,0-1.13a.691.691,0,0,1,.691-.735.687.687,0,0,1,.677.731,15.318,15.318,0,0,1-.037,1.624,2.7,2.7,0,0,1-2.3,2.337.524.524,0,0,0-.093.032h-7.265c-.192-.049-.388-.085-.575-.15a2.74,2.74,0,0,1-1.858-2.662q0-5.524,0-11.048c0-.343-.014-.686.005-1.028a2.663,2.663,0,0,1,1.541-2.372,5.739,5.739,0,0,1,.887-.286Z" transform="translate(1322.135 -183)" fill="#fe0f0f"/>
      <path id="Path_33" data-name="Path 33" d="M-1223.985,360.806a1.494,1.494,0,0,1,.514-1.1c.576-.5,1.163-.992,1.755-1.476a.668.668,0,0,1,.963.085.677.677,0,0,1-.1.976c-.516.44-1.04.873-1.56,1.309-.268.224-.269.325,0,.551.52.437,1.041.871,1.559,1.31a.659.659,0,0,1,.246.686.655.655,0,0,1-.494.514.645.645,0,0,1-.609-.135c-.579-.481-1.16-.961-1.729-1.453A1.591,1.591,0,0,1-1223.985,360.806Z" transform="translate(1227.349 -352.065)" fill="#2a2a2a"/>
      <path id="Path_34" data-name="Path 34" d="M-983.672,361.035a1.526,1.526,0,0,1-.492,1.147c-.575.513-1.162,1.013-1.754,1.506a.669.669,0,0,1-.951-.091.674.674,0,0,1,.089-.965c.516-.451,1.04-.892,1.56-1.339.241-.207.24-.314,0-.52q-.761-.652-1.523-1.3a.688.688,0,0,1-.185-.917.683.683,0,0,1,1.052-.143c.426.354.843.718,1.264,1.079.152.13.308.256.451.394A1.6,1.6,0,0,1-983.672,361.035Z" transform="translate(998.516 -352.225)" fill="#2a2a2a"/>
      <path id="Path_35" data-name="Path 35" d="M-1096.329,346.066a.652.652,0,0,1-.639-.818c.164-.646.354-1.285.536-1.926.329-1.162.662-2.323.989-3.485a.741.741,0,0,1,.543-.6.677.677,0,0,1,.834.8c-.191.75-.414,1.493-.625,2.238q-.459,1.619-.922,3.238A.723.723,0,0,1-1096.329,346.066Z" transform="translate(1104.704 -333.866)" fill="#2a2a2a"/>
      <path id="Path_36" data-name="Path 36" d="M-1183.6,255.275c-.228,0-.457,0-.685,0a.679.679,0,0,1-.675-.643.662.662,0,0,1,.615-.714c.5-.024,1.005-.024,1.506,0a.662.662,0,0,1,.615.713.679.679,0,0,1-.675.643C-1183.134,255.28-1183.368,255.275-1183.6,255.275Z" transform="translate(1189.663 -251.47)" fill="#2a2a2a"/>
      <path id="Path_37" data-name="Path 37" d="M-1164.283,585.488a.684.684,0,0,1-.68-.691.691.691,0,0,1,.68-.677.691.691,0,0,1,.688.686A.684.684,0,0,1-1164.283,585.488Z" transform="translate(1170.349 -570.375)" fill="#2a2a2a"/>
    </g>
  </g>
</svg>
