<svg xmlns="http://www.w3.org/2000/svg" xmlns:xlink="http://www.w3.org/1999/xlink" width="40" height="40" viewBox="0 0 29.966 30.039">
  <defs>
    <radialGradient id="radial-gradient" cx="0.5" cy="0.5" r="0.5" gradientUnits="objectBoundingBox">
      <stop offset="0" stop-color="#f1f1f1" stop-opacity="0.831"/>
      <stop offset="0.143" stop-color="#eae8e8" stop-opacity="0.361"/>
      <stop offset="1" stop-color="#e8e8e8" stop-opacity="0.831"/>
    </radialGradient>
  </defs>
  <g id="open-source-development" transform="translate(-462.994 -360.025)">
    <path id="Ellipse_1" data-name="Ellipse 1" d="M13.505.018A13.44,13.44,0,1,1,.017,13.464,13.446,13.446,0,0,1,13.505.018Z" transform="translate(462.975 386.803) rotate(-83)" fill="url(#radial-gradient)"/>
    <g id="Group_7" data-name="Group 7" transform="translate(468.634 365.9)">
      <g id="Group_8" data-name="Group 8">
        <path id="Path_29" data-name="Path 29" d="M-362.757,44.071l-.32-.453c3.416-2.7,4.706-6.107,3.357-10.3a8.3,8.3,0,0,0-4.665-5.1,8.8,8.8,0,0,0-11.771,4.7,8.668,8.668,0,0,0,4.323,11.157l1.895-4.516c.434.042.587.19.4.623-.6,1.4-1.183,2.816-1.756,4.231-.182.448-.418.5-.847.294a9.536,9.536,0,0,1-5.19-9.61,9.431,9.431,0,0,1,7.865-8.145,9.364,9.364,0,0,1,10.231,5.817A9.438,9.438,0,0,1-362.757,44.071Z" transform="translate(377.421 -26.835)" fill="#ff0101" stroke="#fe0f0f" stroke-width="0.25"/>
        <path id="Path_30" data-name="Path 30" d="M-330.022,75.635l1.884,4.607-.491.294a2.293,2.293,0,0,1-.144-.248c-.6-1.448-1.185-2.9-1.814-4.341-.2-.453-.11-.666.3-.926a3.416,3.416,0,0,0,1.428-4.057,3.5,3.5,0,0,0-3.637-2.319,3.5,3.5,0,0,0-3.1,3,3.656,3.656,0,0,0,.83,2.783l-.392.333a3.993,3.993,0,0,1,.118-5.584,4.1,4.1,0,0,1,5.895.127A4.149,4.149,0,0,1-330.022,75.635Z" transform="translate(341.562 -62.66)" fill="#2a2a2a" stroke="#2a2a2a" stroke-width="0.25"/>
        <path id="Path_31" data-name="Path 31" d="M-355.249,41.781l-.027.521a7.056,7.056,0,0,0-6.909,6.946l-.594.051a7.314,7.314,0,0,1,.6-2.97A7.453,7.453,0,0,1-355.249,41.781Z" transform="translate(364.673 -39.845)" fill="#ff0101" stroke="#fe0f0f" stroke-width="0.25"/>
      </g>
    </g>
  </g>
</svg>
