<svg xmlns="http://www.w3.org/2000/svg" xmlns:xlink="http://www.w3.org/1999/xlink" width="40" height="40" viewBox="0 0 30.045 30.329">
  <defs>
    <radialGradient id="radial-gradient" cx="0.5" cy="0.5" r="0.5" gradientUnits="objectBoundingBox">
      <stop offset="0" stop-color="#f1f1f1" stop-opacity="0.831"/>
      <stop offset="0.143" stop-color="#eae8e8" stop-opacity="0.361"/>
      <stop offset="1" stop-color="#e8e8e8" stop-opacity="0.831"/>
    </radialGradient>
  </defs>
  <g id="other-development" transform="translate(-534.977 -359.992)">
    <path id="Ellipse_1" data-name="Ellipse 1" d="M13.8.169A13.494,13.494,0,0,1,27.4,13.61,13.6,13.6,0,0,1,13.757,27.094,13.494,13.494,0,0,1,.152,13.653,13.6,13.6,0,0,1,13.8.169Z" transform="translate(534.791 387.171) rotate(-83)" fill="url(#radial-gradient)"/>
    <g id="vuesax_outline_code-circle" data-name="vuesax/outline/code-circle" transform="translate(540.072 365.229)">
      <g id="code-circle">
        <path id="Vector" d="M2.756,5.516a.744.744,0,0,1-.532-.221L.218,3.288a.757.757,0,0,1,0-1.064L2.225.218A.752.752,0,1,1,3.288,1.282L1.813,2.757,3.288,4.231a.757.757,0,0,1,0,1.064A.744.744,0,0,1,2.756,5.516Z" transform="translate(4.188 7.171)" fill="#292d32"/>
        <path id="Vector-2" data-name="Vector" d="M.75,5.516a.744.744,0,0,1-.532-.221.757.757,0,0,1,0-1.064L1.693,2.757.218,1.282A.752.752,0,0,1,1.282.218L3.288,2.225a.757.757,0,0,1,0,1.064L1.282,5.295A.744.744,0,0,1,.75,5.516Z" transform="translate(12.161 7.171)" fill="#292d32"/>
        <path id="Vector-3" data-name="Vector" d="M8.674,17.347a8.674,8.674,0,1,1,8.674-8.674A8.681,8.681,0,0,1,8.674,17.347Zm0-16.137a7.463,7.463,0,1,0,7.463,7.463A7.472,7.472,0,0,0,8.674,1.21Z" transform="translate(1.254 1.254)" fill="#ff0101"/>
        <path id="Vector-4" data-name="Vector" d="M.747,6.195a.72.72,0,0,1-.291-.06.747.747,0,0,1-.391-.993L2.071.456A.74.74,0,0,1,3.054.064a.747.747,0,0,1,.391.993L1.439,5.743A.755.755,0,0,1,.747,6.195Z" transform="translate(8.177 6.825)" fill="#292d32"/>
        <path id="Vector-5" data-name="Vector" d="M0,0H19.856V19.856H0Z" fill="none" opacity="0"/>
      </g>
    </g>
  </g>
</svg>
