<svg xmlns="http://www.w3.org/2000/svg" width="31.959" height="43.9" viewBox="0 0 31.959 43.9">
  <g id="Layer_1" data-name="Layer 1" transform="translate(-113.648 -72.593)">
    <path id="Path_19235" data-name="Path 19235" d="M129.62,86.475a14.005,14.005,0,0,0-4.639,27.214c.127.044.255.082.381.13a1.023,1.023,0,0,1,.711,1.306.965.965,0,0,1-1.349.587,23.582,23.582,0,0,1-3.876-1.878,15.535,15.535,0,0,1-7.119-15.073,15.193,15.193,0,0,1,4.483-9.451.711.711,0,0,0,.186-.831c-1.047-3.36-2.074-6.726-3.119-10.087a1.065,1.065,0,0,1,1.583-1.368q1.859.892,3.73,1.758a4.529,4.529,0,0,0,6.153-2q.9-1.629,1.773-3.273c.243-.455.484-.908,1.087-.915.63-.007.874.464,1.125.934q.863,1.621,1.749,3.229a4.532,4.532,0,0,0,6.142,2.039q1.9-.874,3.776-1.779a1.06,1.06,0,0,1,1.575,1.35c-1.049,3.377-2.08,6.759-3.137,10.134a.7.7,0,0,0,.209.825,16.012,16.012,0,0,1-6.639,26.447,1.1,1.1,0,0,1-1.323-.282.841.841,0,0,1-.057-1.115,2,2,0,0,1,.857-.551,13.983,13.983,0,0,0-2.261-27.153C130.959,86.578,130.288,86.539,129.62,86.475ZM141.447,79.7c-.857.4-1.592.762-2.347,1.082a6.386,6.386,0,0,1-7.318-1.594,21.941,21.941,0,0,1-1.855-2.915c-.1-.159-.188-.323-.315-.542-.442.81-.8,1.548-1.232,2.247a6.446,6.446,0,0,1-6.33,3.284,9,9,0,0,1-3.262-1.106c-.3-.143-.607-.278-1-.455l2.4,7.785c6.313-4.01,12.573-4.01,18.856,0Z" fill="#dd1928"/>
    <path id="Path_19236" data-name="Path 19236" d="M168.733,227.707a4.4,4.4,0,0,1,.007-.8,3.437,3.437,0,0,0-1.059-3.165,28.064,28.064,0,0,1-1.779-2.25,1.035,1.035,0,0,1,.588-1.777c1.365-.408,2.735-.8,4.092-1.228a1.361,1.361,0,0,0,.654-.474c.818-1.148,1.6-2.32,2.4-3.48a1.037,1.037,0,0,1,1.9.01c.792,1.146,1.563,2.305,2.374,3.438a1.449,1.449,0,0,0,.689.505c1.34.429,2.7.812,4.042,1.221a1.05,1.05,0,0,1,.583,1.841c-.854,1.1-1.727,2.186-2.565,3.3a1.346,1.346,0,0,0-.248.769c.015,1.41.075,2.819.107,4.229.025,1.1-.577,1.517-1.622,1.137-1.291-.47-2.575-.961-3.874-1.408a1.4,1.4,0,0,0-.849,0c-1.332.455-2.648.955-3.972,1.432-.971.35-1.58-.091-1.563-1.127.006-.369.02-.738.034-1.107.014-.352.033-.7.049-1.056Zm5.852-10.994c-.567.824-1.135,1.571-1.614,2.37a2.7,2.7,0,0,1-1.867,1.371c-.785.163-1.545.443-2.316.674-.149.045-.294.1-.482.168.585.748,1.084,1.469,1.669,2.113a2.827,2.827,0,0,1,.813,2.467,15.781,15.781,0,0,0-.061,2.012c0,.241,0,.482,0,.774,1-.362,1.941-.658,2.844-1.05a2.4,2.4,0,0,1,2.027,0c.921.389,1.876.7,2.776,1.024,0-1.138.025-2.243-.011-3.347a1.926,1.926,0,0,1,.451-1.385c.692-.835,1.344-1.7,2.058-2.619-1.157-.344-2.24-.679-3.331-.985a1.717,1.717,0,0,1-1.022-.75C175.9,218.612,175.259,217.7,174.585,216.713Z" transform="translate(-44.963 -122.337)"/>
    <path id="Path_19237" data-name="Path 19237" d="M227.079,385.508a1,1,0,0,1-.976,1.012,1.023,1.023,0,0,1-1.026-.969,1.011,1.011,0,0,1,1.008-1.033A1,1,0,0,1,227.079,385.508Z" transform="translate(-96.462 -270.028)"/>
  </g>
</svg>
