<svg xmlns="http://www.w3.org/2000/svg" width="43.047" height="42.911" viewBox="0 0 43.047 42.911">
  <g id="Group_9257" data-name="Group 9257" transform="translate(-10 -10.136)">
    <path id="Vector" d="M6.205,6.205,0,0" transform="translate(45.428 45.428)" fill="none" stroke="#292d32" stroke-linecap="round" stroke-linejoin="round" stroke-width="2"/>
    <g id="Group_9254" data-name="Group 9254">
      <path id="Vector-2" data-name="Vector" d="M38.92,19.46A19.46,19.46,0,1,1,19.46,0,19.46,19.46,0,0,1,38.92,19.46Z" transform="translate(11 11.136)" fill="none" stroke="#dd1928" stroke-linecap="round" stroke-linejoin="round" stroke-width="2"/>
      <path id="Path_19225" data-name="Path 19225" d="M-8.476.091a4.046,4.046,0,0,1-1.638-.319,2.688,2.688,0,0,1-1.144-.9A2.3,2.3,0,0,1-11.674-2.5h1.586a1.432,1.432,0,0,0,.462.962,1.636,1.636,0,0,0,1.151.377,1.772,1.772,0,0,0,1.2-.371,1.2,1.2,0,0,0,.429-.956,1.043,1.043,0,0,0-.266-.741,1.783,1.783,0,0,0-.663-.442A10,10,0,0,0-8.879-4a10.292,10.292,0,0,1-1.436-.474,2.374,2.374,0,0,1-.943-.748,2.16,2.16,0,0,1-.39-1.352,2.4,2.4,0,0,1,.39-1.365,2.491,2.491,0,0,1,1.092-.9,3.968,3.968,0,0,1,1.625-.312A3.386,3.386,0,0,1-6.39-8.5a2.422,2.422,0,0,1,.93,1.8H-7.1a1.187,1.187,0,0,0-.468-.845A1.73,1.73,0,0,0-8.7-7.891a1.6,1.6,0,0,0-1.04.325,1.132,1.132,0,0,0-.4.936.95.95,0,0,0,.253.683,1.79,1.79,0,0,0,.644.423,9.99,9.99,0,0,0,1.066.338,11.129,11.129,0,0,1,1.463.494,2.434,2.434,0,0,1,.962.761,2.186,2.186,0,0,1,.4,1.372,2.466,2.466,0,0,1-.371,1.3A2.673,2.673,0,0,1-6.806-.28,3.558,3.558,0,0,1-8.476.091Zm6.357-7.93v2.652H1v1.209h-3.12v2.769h3.51V0H-3.6V-9.048H1.391v1.209ZM7.332.091A4.68,4.68,0,0,1,5.012-.5,4.383,4.383,0,0,1,3.335-2.152a4.649,4.649,0,0,1-.618-2.385,4.614,4.614,0,0,1,.618-2.379A4.4,4.4,0,0,1,5.012-8.561a4.68,4.68,0,0,1,2.32-.592,4.706,4.706,0,0,1,2.334.592,4.35,4.35,0,0,1,1.67,1.645,4.653,4.653,0,0,1,.611,2.379,4.688,4.688,0,0,1-.611,2.385A4.337,4.337,0,0,1,9.666-.5,4.706,4.706,0,0,1,7.332.091Zm0-1.287a3.114,3.114,0,0,0,1.6-.41,2.839,2.839,0,0,0,1.1-1.17,3.757,3.757,0,0,0,.4-1.762,3.717,3.717,0,0,0-.4-1.755,2.8,2.8,0,0,0-1.1-1.157,3.154,3.154,0,0,0-1.6-.4,3.154,3.154,0,0,0-1.6.4,2.8,2.8,0,0,0-1.1,1.157,3.717,3.717,0,0,0-.4,1.755,3.757,3.757,0,0,0,.4,1.762,2.839,2.839,0,0,0,1.1,1.17A3.114,3.114,0,0,0,7.332-1.2Z" transform="translate(30.174 34.788)" fill="#2a2a2a"/>
    </g>
  </g>
</svg>
