<svg xmlns="http://www.w3.org/2000/svg" width="44.973" height="44.984" viewBox="0 0 44.973 44.984">
  <g id="Group_9255" data-name="Group 9255" transform="translate(-59.039 -58.906)">
    <path id="Path_19226" data-name="Path 19226" d="M58.5,92.305a8.192,8.192,0,0,1,.48-1.066c.767-1.221,2.11-1.6,3.768-1.069L77.184,64.239l-.309-.331a2.932,2.932,0,0,1,0-4.085,2.885,2.885,0,0,1,4.107-.093c1.439,1.375,2.826,2.8,4.234,4.212q8.6,8.6,17.207,17.2a2.958,2.958,0,0,1,.889,3.19,2.926,2.926,0,0,1-4.684,1.318c-.144-.123-.278-.26-.412-.395l-17.3-17.3a3.437,3.437,0,0,1-.332-.35.746.746,0,0,1,.062-.965.719.719,0,0,1,.958-.086,3.244,3.244,0,0,1,.386.357q8.664,8.663,17.325,17.329a1.636,1.636,0,0,0,1.217.6,1.433,1.433,0,0,0,1.152-2.277,3.067,3.067,0,0,0-.355-.389Q90.748,71.591,80.161,61a1.538,1.538,0,0,0-1.4-.555,1.44,1.44,0,0,0-.844,2.372c.192.221.41.418.614.627a.8.8,0,0,1,.162,1.172c-.751,1.356-1.5,2.715-2.27,4.058a.528.528,0,0,0,.1.773q6.628,6.6,13.234,13.222c.093.093.187.186.279.28.417.427.455.852.108,1.189a.786.786,0,0,1-1.161-.125q-2.362-2.358-4.72-4.72l-8.447-8.446c-.112-.112-.229-.219-.373-.356-.1.161-.181.292-.256.427q-5.517,9.906-11.039,19.809a.528.528,0,0,0,.1.769c1.445,1.412,2.862,2.851,4.3,4.274a.871.871,0,0,1,.319.9.747.747,0,0,1-1.272.268c-.478-.453-.934-.929-1.4-1.394-1.232-1.231-2.456-2.471-3.7-3.691a1.432,1.432,0,0,0-2.447.672,1.452,1.452,0,0,0,.479,1.425q2.831,2.821,5.653,5.65,1.133,1.133,2.268,2.266a1.442,1.442,0,1,0,2.165-1.9c-.4-.516-.3-.945.307-1.286q5.784-3.226,11.572-6.447,5.94-3.307,11.884-6.608a1.583,1.583,0,0,1,.561-.231.686.686,0,0,1,.752.48.678.678,0,0,1-.294.877c-.443.282-.911.526-1.371.782l-17.9,9.961c-.1.056-.2.119-.3.18a5.333,5.333,0,0,0,6.627,1.814A6.12,6.12,0,0,0,86,95.035c.118-.554.443-.848.876-.784.473.071.7.449.606,1.033-.013.087-.034.172-.053.258a7.571,7.571,0,0,1-2.481,4.095,6.853,6.853,0,0,1-9.472-.112c-.365-.335-.68-.725-1.031-1.1l-2.094,1.162a9.718,9.718,0,0,1,.068,1.967,2.737,2.737,0,0,1-1.928,2.194c-.135.047-.266.1-.4.157H69.041a4.97,4.97,0,0,1-2.205-1.505q-3.4-3.433-6.83-6.83A4.96,4.96,0,0,1,58.5,93.359Z" transform="translate(0.539 -0.01)" fill="#dd1928"/>
    <path id="Path_19228" data-name="Path 19228" d="M406.051,59.608a3.89,3.89,0,0,1-.411.665q-1.584,1.612-3.193,3.2a.753.753,0,1,1-1.071-1.043q1.606-1.621,3.226-3.227a.678.678,0,0,1,.865-.208A3.308,3.308,0,0,1,406.051,59.608Z" transform="translate(-302.47)"/>
    <path id="Path_19229" data-name="Path 19229" d="M335.01,59.036c.65,0,1.017.407.891.889-.23.874-.5,1.739-.8,2.594a.682.682,0,0,1-.9.4.71.71,0,0,1-.486-.868c.243-.857.493-1.714.8-2.548C334.6,59.276,334.905,59.131,335.01,59.036Z" transform="translate(-242.959 -0.115)"/>
    <path id="Path_19230" data-name="Path 19230" d="M409.779,150.906c-.526-.043-.777-.243-.86-.612a.64.64,0,0,1,.39-.8c.881-.307,1.776-.58,2.678-.82a.649.649,0,0,1,.792.47.616.616,0,0,1-.271.839C411.573,150.347,410.607,150.632,409.779,150.906Z" transform="translate(-309.36 -79.237)"/>
    <path id="Path_19231" data-name="Path 19231" d="M368.757,114.544c-.168-.137-.45-.259-.531-.462a.907.907,0,0,1,.054-.76,9.117,9.117,0,0,1,1.193-1.214.667.667,0,0,1,.921.021.631.631,0,0,1,.162.9,15.237,15.237,0,0,1-1.345,1.366C369.127,114.476,368.969,114.479,368.757,114.544Z" transform="translate(-273.401 -46.818)"/>
  </g>
</svg>
