<svg xmlns="http://www.w3.org/2000/svg" xmlns:xlink="http://www.w3.org/1999/xlink" width="614" height="614" viewBox="0 0 614 614">
  <defs>
    <filter id="Ellipse_489" x="0" y="0" width="614" height="614" filterUnits="userSpaceOnUse">
      <feOffset dy="3" input="SourceAlpha"/>
      <feGaussianBlur stdDeviation="7" result="blur"/>
      <feFlood flood-color="#ffcfcf" flood-opacity="0.012"/>
      <feComposite operator="in" in2="blur"/>
      <feComposite in="SourceGraphic"/>
    </filter>
  </defs>
  <g id="devops-2" transform="translate(-6055 10837)">
    <g id="vue-js-2" transform="translate(1313 -3209)">
      <g id="ai_2" data-name="ai 2" transform="translate(2740 -326)">
        <g id="ionic_2" data-name="ionic 2" transform="translate(-306 -1365)">
          <g id="yii_2" data-name="yii 2" transform="translate(-1813 -893)">
            <g id="Kotlin_2" data-name="Kotlin 2" transform="translate(1485 -625)">
              <g id="magento_2" data-name="magento 2" transform="translate(65 -1543)">
                <g id="django_2" data-name="django 2" transform="translate(-945 -1191)">
                  <g id="symfony_2" data-name="symfony 2" transform="translate(-545.879 -694.879)">
                    <g id="ruby-on-rails_2" data-name="ruby-on-rails 2" transform="translate(4083 -972)">
                      <g id="django_2-2" data-name="django 2">
                        <g id="codeigniter_2" data-name="codeigniter 2">
                          <g id="react-native_2" data-name="react-native 2">
                            <g id="laraval_2" data-name="laraval 2">
                              <g transform="matrix(1, 0, 0, 1, -21.12, -18.12)" filter="url(#Ellipse_489)">
                                <circle id="Ellipse_489-2" data-name="Ellipse 489" cx="286" cy="286" r="286" transform="translate(21 18)" fill="#f8f7f7"/>
                              </g>
                              <circle id="Ellipse_488" data-name="Ellipse 488" cx="235" cy="235" r="235" transform="translate(50.879 50.879)" fill="#f3f3f3"/>
                              <circle id="Ellipse_487" data-name="Ellipse 487" cx="182" cy="182" r="182" transform="translate(103.879 103.879)" fill="#eee"/>
                              <path id="Path_19249" data-name="Path 19249" d="M120.818,0A120.818,120.818,0,1,1,0,120.818,120.818,120.818,0,0,1,120.818,0Z" transform="translate(165.061 165.061)" fill="#e9e9e9"/>
                            </g>
                          </g>
                        </g>
                      </g>
                    </g>
                  </g>
                </g>
              </g>
            </g>
          </g>
        </g>
      </g>
    </g>
    <g id="devops-2-2" data-name="devops-2" transform="translate(6189.785 -10690.161)">
      <g id="Group_1365" data-name="Group 1365" transform="translate(0.889 77.674)">
        <path id="Path_1918" data-name="Path 1918" d="M107.9,177.2l25.034,1.844v21.382S86.157,246.5,18,191.951H41.226L43.8,170.94s26.506,26.9,64.1,6.261Z" transform="translate(2.485 -59.195)" fill="#0d2c40"/>
        <path id="Path_1919" data-name="Path 1919" d="M26.5,93.66s-50.869,47.362-9.218,108l23.25,2.215,2.215-22.484s-21.37-35.018,6.237-62.662l-24.758-1.916Z" transform="translate(-0.889 -74.435)" fill="#0d2c40"/>
        <path id="Path_1920" data-name="Path 1920" d="M27.143,93.51S90.595,52.6,138.83,101.987l-21.382-1.473-2.215,23.944s-24.327-29.475-64.865-6.621l-24.7-1.1Z" transform="translate(3.998 -77.602)" fill="#0d2c40"/>
        <path id="Path_1921" data-name="Path 1921" d="M105.1,125.748l1.473-24.7,22.484,2.215,67.822,75.556H173.664l-2.215,21.011Z" transform="translate(19.662 -72.978)" fill="#0d2c40"/>
      </g>
      <g id="Group_1366" data-name="Group 1366" transform="translate(117.546 77.24)">
        <path id="Path_1922" data-name="Path 1922" d="M98.33,188.4,184.206,93.66l22.855,2.215L205.588,119.1l-84.4,93.981.359-24.327Z" transform="translate(-98.33 -74.002)" fill="#02d35f"/>
        <path id="Path_1923" data-name="Path 1923" d="M172.83,93.486l23.777,1.939L194.954,118.1s35.1-22.4,60.818,1.377l25.141,1.1L283.177,98.5S243.884,54.206,172.83,93.486Z" transform="translate(-83.638 -77.24)" fill="#02d35f"/>
        <path id="Path_1924" data-name="Path 1924" d="M245.384,118.936l25.141,1.473L272.465,98.2s55.012,61.285-4.43,113.986L243.72,210.5l2.215-25.141s32.9-36.838-.551-66.421Z" transform="translate(-69.658 -73.107)" fill="#02d35f"/>
        <path id="Path_1925" data-name="Path 1925" d="M191.107,171.3l-25.393-2.215-1.425,22.4s45.063,51.971,113.064,10.5l-23.226-1.88,2.215-24.052s-29.583,23.717-65.236-4.753Z" transform="translate(-85.322 -59.127)" fill="#02d35f"/>
      </g>
      <path id="Path_1926" data-name="Path 1926" d="M214.563,138.61v8.38a4.515,4.515,0,0,0-.108.994,4.621,4.621,0,0,0,.108,1.006v13.5H208.29V138.55Z" transform="translate(40.901 12.091)" fill="#0d2c40"/>
      <path id="Path_1927" data-name="Path 1927" d="M224.948,139.693a9.961,9.961,0,0,0-5.519,2.6,9.578,9.578,0,0,0-3.675,6.788,10.212,10.212,0,0,0,3.675,7.183,8.129,8.129,0,0,0,4.9,2.215c5.83.144,8.7-4.873,8.7-9.386S229.461,139.429,224.948,139.693Zm-1.9,13.54a3.819,3.819,0,0,1-3.592-3.149,4.619,4.619,0,0,1-.108-1.006,4.514,4.514,0,0,1,.108-.994,3.819,3.819,0,0,1,3.592-3.149,4.166,4.166,0,0,1,0,8.3Zm22.46-6.393c-.91-.287-4.274-.814-4.274-2.083,0-.718,1.03-.8,1.532-.778,1.437,0,3.592,1.712,4.789,1.389,1.066-.275,2-3.029,2.394-3.963a15.288,15.288,0,0,0-9.985-1.82,5.986,5.986,0,0,0-4.513,7.9c1.52,3.939,6.19,2.394,8.548,4.789.97,1.006-1.03,1.461-1.688,1.437a14.187,14.187,0,0,1-5.675-2.155c-.587.838-2.394,2.837-2.179,3.879s2.6,1.82,3.592,2.131c3.328,1.077,8.464,1.485,10.966-1.544,3.125-3.64.4-7.914-3.508-9.183Zm-48.714-13.78a13.169,13.169,0,1,0,13.169,13.169,13.169,13.169,0,0,0-13.169-13.169Zm0,19.886a6.8,6.8,0,1,0-.012,0Z" transform="translate(36.036 11.008)" fill="#0d2c40"/>
      <path id="Path_1928" data-name="Path 1928" d="M99.841,139.372H92.334l7.937,20.76H103.7v-8.847Zm7.722.036h7.506l-7.949,20.76H103.7V151.32ZM63.4,136.451a18.066,18.066,0,0,0-8.5-3.137c-4.047-.383-8.38.108-12.128.108v26.686h.18c.718.084,1.437.156,2.167.2a47.566,47.566,0,0,0,8.644-.072c5.5-.611,9.027-2.394,11.194-4.717a12.1,12.1,0,0,0,3.053-7.83v-.97c-.048-3.8-1.137-7.614-4.609-10.272Zm-6.106,16.306c-2.263,1.269-5.016.958-7.506.958v-13.9c2.646,0,5.627-.347,7.949,1.281,3.855,2.718,3.711,9.314-.479,11.661Zm31.75,2.083c-.611-.515-1.389-1.389-2.215-1.532-1.317-.18-2.957,1.592-4.418,1.736-2.275.227-3.915-1.341-4.789-3.232H91.46c0-3.831-.323-7.866-3.592-10.5-6.07-4.956-16.031-1.293-17.144,6.525-1.2,8.237,5.28,13.552,13.169,12.523a10.344,10.344,0,0,0,5.292-2.394c.539-.479,1.329-1.137.934-1.916a4.454,4.454,0,0,0-1.077-1.209Zm-4.418-6.788H77.561a3.592,3.592,0,0,1,7.064,0Z" transform="translate(8.259 11.029)" fill="#02d35f"/>
    </g>
  </g>
</svg>
