<svg xmlns="http://www.w3.org/2000/svg" width="50" height="50" viewBox="0 0 50 50">
  <g id="superb-compliance" transform="translate(-492 -316)">
    <g id="task-square" transform="translate(492 316)">
      <path id="Vector" d="M13.61,3.4H1.7A1.714,1.714,0,0,1,0,1.7,1.714,1.714,0,0,1,1.7,0H13.61a1.7,1.7,0,1,1,0,3.4Z" transform="translate(23.367 16.816)" fill="#292d32"/>
      <path id="Vector-2" data-name="Vector" d="M3.4,8.5a1.683,1.683,0,0,1-1.2-.5L.493,6.3A1.7,1.7,0,0,1,2.9,3.9l.5.5L7.3.493A1.7,1.7,0,0,1,9.7,2.9L4.6,8A1.7,1.7,0,0,1,3.4,8.5Z" transform="translate(11.474 13.591)" fill="#292d32"/>
      <path id="Vector-3" data-name="Vector" d="M13.61,3.4H1.7A1.714,1.714,0,0,1,0,1.7,1.714,1.714,0,0,1,1.7,0H13.61a1.7,1.7,0,0,1,0,3.4Z" transform="translate(23.367 31.313)" fill="#292d32"/>
      <path id="Vector-4" data-name="Vector" d="M3.4,8.5a1.683,1.683,0,0,1-1.2-.5L.493,6.3A1.7,1.7,0,0,1,2.9,3.9l.5.5L7.3.493A1.7,1.7,0,0,1,9.7,2.9L4.6,8A1.7,1.7,0,0,1,3.4,8.5Z" transform="translate(11.474 27.934)" fill="#292d32"/>
      <path id="Vector-5" data-name="Vector" d="M0,0H50V50H0Z" fill="none" opacity="0"/>
      <path id="Vector-6" data-name="Vector" d="M28.35,44.329H15.979C4.783,44.329,0,39.546,0,28.35V15.979C0,4.783,4.783,0,15.979,0H28.35c11.2,0,15.979,4.783,15.979,15.979V28.35C44.329,39.546,39.546,44.329,28.35,44.329ZM15.979,3.093c-9.5,0-12.886,3.381-12.886,12.886V28.35c0,9.5,3.381,12.886,12.886,12.886H28.35c9.5,0,12.886-3.381,12.886-12.886V15.979c0-9.5-3.381-12.886-12.886-12.886Z" transform="translate(2.835 2.835)" fill="#dd1828"/>
    </g>
  </g>
</svg>
