<svg xmlns="http://www.w3.org/2000/svg" width="50" height="51.547" viewBox="0 0 50 51.547">
  <g id="technological-edge" transform="translate(-364 -188)">
    <g id="cloud-minus" transform="translate(364 188)">
      <path id="Vector" d="M25.692,35.3h-.084a1.511,1.511,0,1,1,.021-3.019h.084a9.644,9.644,0,0,0,6.441-2.416,8.653,8.653,0,0,0,2.6-9.4,9.11,9.11,0,0,0-7.574-6.4,1.553,1.553,0,0,1-1.364-1.248c-.839-4.811-3.546-8.132-7.616-9.34a12.583,12.583,0,0,0-12.19,3.06c-2.979,3-3.672,7.166-1.951,11.776a1.492,1.492,0,0,1-.944,1.932A1.591,1.591,0,0,1,1.1,19.338C-1.017,13.682-.052,8.267,3.746,4.463A15.891,15.891,0,0,1,19.146.618c4.888,1.449,8.35,5.314,9.588,10.669A12.168,12.168,0,0,1,37.8,19.6a11.51,11.51,0,0,1-3.5,12.521A13.185,13.185,0,0,1,25.692,35.3Z" transform="translate(8.888 5.741)" fill="#dd1828"/>
      <path id="Vector-2" data-name="Vector" d="M8.9,18.758h-.1A9.14,9.14,0,0,1,0,9.379,9.153,9.153,0,0,1,8.791,0a9.655,9.655,0,0,1,4.427,1.007,1.592,1.592,0,0,1,.692,2.119,1.592,1.592,0,0,1-2.119.692,6.476,6.476,0,0,0-2.853-.671,6,6,0,0,0-5.77,6.231A6.018,6.018,0,0,0,9.043,15.61a1.571,1.571,0,0,1,1.448,1.678A1.614,1.614,0,0,1,8.9,18.758Z" transform="translate(2.79 23.285)" fill="#dd1828"/>
      <path id="Vector-3" data-name="Vector" d="M1.578,4.028A1.561,1.561,0,0,1,.172,3.147,1.564,1.564,0,0,1,.886,1.028,9.567,9.567,0,0,1,5.04,0,1.628,1.628,0,0,1,6.635,1.553,1.558,1.558,0,0,1,5.082,3.147a6.617,6.617,0,0,0-2.811.692A1.193,1.193,0,0,1,1.578,4.028Z" transform="translate(31.358 17.706)" fill="#dd1828"/>
      <path id="Vector-4" data-name="Vector" d="M0,0H50V48.861H0Z" fill="none" opacity="0"/>
    </g>
    <g id="vuesax_outline_cpu-setting" data-name="vuesax/outline/cpu-setting" transform="translate(376.933 219.507)">
      <g id="cpu-setting">
        <path id="Vector-5" data-name="Vector" d="M5.3,14.613c-3.666,0-5.3-1.637-5.3-5.3V5.3C0,1.637,1.637,0,5.3,0H9.31c3.666,0,5.3,1.637,5.3,5.3a.626.626,0,1,1-1.253,0c0-2.989-1.06-4.05-4.05-4.05H5.3c-2.989,0-4.05,1.06-4.05,4.05V9.31c0,2.989,1.06,4.05,4.05,4.05a.626.626,0,1,1,0,1.253Z" transform="translate(2.714 2.714)" fill="#292d32"/>
        <path id="Vector-6" data-name="Vector" d="M1.461,9.06a.637.637,0,0,1-.392-.134A3.4,3.4,0,0,1,0,6.054V3.549C0,1.127,1.127,0,3.549,0H6.054A3.408,3.408,0,0,1,8.926,1.069a.624.624,0,0,1-.1.877.616.616,0,0,1-.877-.1c-.2-.259-.618-.593-1.887-.593H3.557c-1.737,0-2.3.559-2.3,2.3V6.054c0,1.269.342,1.687.593,1.887A.63.63,0,0,1,1.461,9.06Z" transform="translate(5.21 5.219)" fill="#292d32"/>
        <path id="Vector-7" data-name="Vector" d="M.626,2.923A.625.625,0,0,1,0,2.3V.626A.631.631,0,0,1,.626,0a.631.631,0,0,1,.626.626V2.3A.631.631,0,0,1,.626,2.923Z" transform="translate(6.062 1.044)" fill="#292d32"/>
        <path id="Vector-8" data-name="Vector" d="M.626,2.923A.631.631,0,0,1,0,2.3V.626A.631.631,0,0,1,.626,0a.631.631,0,0,1,.626.626V2.3A.631.631,0,0,1,.626,2.923Z" transform="translate(9.394 1.044)" fill="#292d32"/>
        <path id="Vector-9" data-name="Vector" d="M.626,2.923A.631.631,0,0,1,0,2.3V.626A.631.631,0,0,1,.626,0a.631.631,0,0,1,.626.626V2.3A.631.631,0,0,1,.626,2.923Z" transform="translate(12.734 1.044)" fill="#292d32"/>
        <path id="Vector-10" data-name="Vector" d="M2.3,1.253H.626A.631.631,0,0,1,0,.626.631.631,0,0,1,.626,0H2.3a.626.626,0,1,1,0,1.253Z" transform="translate(16.074 6.054)" fill="#292d32"/>
        <path id="Vector-11" data-name="Vector" d="M.626,2.923A.631.631,0,0,1,0,2.3V.626A.631.631,0,0,1,.626,0a.631.631,0,0,1,.626.626V2.3A.631.631,0,0,1,.626,2.923Z" transform="translate(6.062 16.074)" fill="#292d32"/>
        <path id="Vector-12" data-name="Vector" d="M2.3,1.253H.626A.626.626,0,0,1,.626,0H2.3a.626.626,0,1,1,0,1.253Z" transform="translate(1.044 6.054)" fill="#292d32"/>
        <path id="Vector-13" data-name="Vector" d="M2.3,1.253H.626A.631.631,0,0,1,0,.626.631.631,0,0,1,.626,0H2.3a.626.626,0,1,1,0,1.253Z" transform="translate(1.044 9.394)" fill="#292d32"/>
        <path id="Vector-14" data-name="Vector" d="M2.3,1.253H.626A.631.631,0,0,1,0,.626.631.631,0,0,1,.626,0H2.3a.626.626,0,1,1,0,1.253Z" transform="translate(1.044 12.734)" fill="#292d32"/>
        <path id="Vector-15" data-name="Vector" d="M1.954,3.908A1.954,1.954,0,1,1,3.908,1.954,1.956,1.956,0,0,1,1.954,3.908Zm0-2.655a.7.7,0,1,0,.7.7A.706.706,0,0,0,1.954,1.253Z" transform="translate(11.999 12.241)" fill="#292d32"/>
        <path id="Vector-16" data-name="Vector" d="M6.471,9.595a1.359,1.359,0,0,1-1.177-.676l-.058-.092a.5.5,0,0,0-.184-.209.489.489,0,0,0-.184.209l-.05.084a1.361,1.361,0,0,1-1.87.493L2.2,8.968a1.425,1.425,0,0,1-.685-.893,1.471,1.471,0,0,1,.142-1.111c.092-.159.092-.251.083-.267a.485.485,0,0,0-.267-.05A1.47,1.47,0,0,1,0,5.186V4.409A1.463,1.463,0,0,1,1.461,2.948a.515.515,0,0,0,.276-.058.55.55,0,0,0-.092-.259A1.438,1.438,0,0,1,1.5,1.52,1.469,1.469,0,0,1,2.188.627l.76-.443A1.356,1.356,0,0,1,4.8.677l.05.092a.5.5,0,0,0,.184.209A.489.489,0,0,0,5.219.769l.05-.084A1.363,1.363,0,0,1,7.139.192l.777.426a1.425,1.425,0,0,1,.685.893,1.471,1.471,0,0,1-.142,1.111c-.092.159-.092.251-.084.267a.485.485,0,0,0,.267.05A1.47,1.47,0,0,1,10.112,4.4v.777A1.463,1.463,0,0,1,8.651,6.639a.515.515,0,0,0-.276.058.55.55,0,0,0,.092.259,1.438,1.438,0,0,1,.142,1.111,1.469,1.469,0,0,1-.685.893l-.76.443A1.425,1.425,0,0,1,6.471,9.595ZM5.06,7.365A1.492,1.492,0,0,1,6.329,8.2l.05.092a.1.1,0,0,0,.142.033l.768-.443a.2.2,0,0,0,.1-.134.224.224,0,0,0-.017-.159A1.479,1.479,0,0,1,7.29,6.079a1.493,1.493,0,0,1,1.353-.685.22.22,0,0,0,.217-.209V4.409A.212.212,0,0,0,8.651,4.2,1.483,1.483,0,0,1,7.3,3.516,1.5,1.5,0,0,1,7.381,2,.161.161,0,0,0,7.4,1.846a.223.223,0,0,0-.1-.134l-.76-.443a.119.119,0,0,0-.159.042l-.042.075a1.492,1.492,0,0,1-1.269.835A1.492,1.492,0,0,1,3.8,1.386L3.749,1.3a.109.109,0,0,0-.142-.042L2.839,1.7a.2.2,0,0,0-.1.134A.224.224,0,0,0,2.756,2a1.479,1.479,0,0,1,.084,1.511,1.493,1.493,0,0,1-1.353.685.22.22,0,0,0-.217.209v.777a.212.212,0,0,0,.209.209,1.483,1.483,0,0,1,1.353.685,1.5,1.5,0,0,1-.084,1.511.223.223,0,0,0,.084.292l.76.443a.119.119,0,0,0,.159-.042l.042-.084A1.489,1.489,0,0,1,5.06,7.365Z" transform="translate(8.893 9.402)" fill="#292d32"/>
        <path id="Vector-17" data-name="Vector" d="M0,0H20.04V20.04H0Z" fill="none" opacity="0"/>
      </g>
    </g>
  </g>
</svg>
