<svg xmlns="http://www.w3.org/2000/svg" width="50" height="50" viewBox="0 0 50 50">
  <g id="unmatched-security" transform="translate(-364 -316)">
    <g id="security-safe" transform="translate(364 316)">
      <path id="Vector" d="M20.03,44.716a5.041,5.041,0,0,1-1.472-.208A25.418,25.418,0,0,1,0,20.521V11.4A6.616,6.616,0,0,1,3.836,5.659L15.385.92a12.186,12.186,0,0,1,9.289,0L36.223,5.659A6.616,6.616,0,0,1,40.059,11.4v9.125c0,10.913-7.817,20.994-18.557,23.987A5.041,5.041,0,0,1,20.03,44.716Zm0-41.572a9.1,9.1,0,0,0-3.463.686L5.018,8.569A3.5,3.5,0,0,0,3.11,11.417v9.125c0,9.541,6.842,18.354,16.277,20.973a2.255,2.255,0,0,0,1.286,0C30.106,38.9,36.949,30.083,36.949,20.542V11.417a3.5,3.5,0,0,0-1.908-2.848L23.492,3.83A9.1,9.1,0,0,0,20.03,3.144Z" transform="translate(4.97 2.629)" fill="#dd1828"/>
      <path id="Vector-2" data-name="Vector" d="M5.841,11.683a5.841,5.841,0,1,1,5.841-5.841A5.838,5.838,0,0,1,5.841,11.683Zm0-8.5A2.655,2.655,0,1,0,8.5,5.841,2.656,2.656,0,0,0,5.841,3.186Z" transform="translate(19.159 16.052)" fill="#292d32"/>
      <path id="Vector-3" data-name="Vector" d="M1.593,9.559A1.6,1.6,0,0,1,0,7.966V1.593A1.6,1.6,0,0,1,1.593,0,1.6,1.6,0,0,1,3.186,1.593V7.966A1.6,1.6,0,0,1,1.593,9.559Z" transform="translate(23.407 24.369)" fill="#292d32"/>
      <path id="Vector-4" data-name="Vector" d="M0,0H50V50H0Z" transform="translate(50 50) rotate(180)" fill="none" opacity="0"/>
    </g>
  </g>
</svg>
