<svg xmlns="http://www.w3.org/2000/svg" width="50" height="50" viewBox="0 0 50 50">
  <g id="versatile-solutions" transform="translate(-108 -190)">
    <g id="category" transform="translate(108 190)">
      <path id="Vector" d="M11.831,19.547H7.716C2.737,19.547,0,16.81,0,11.831V7.716C0,2.737,2.737,0,7.716,0h4.115c4.979,0,7.716,2.737,7.716,7.716v4.115C19.547,16.81,16.81,19.547,11.831,19.547ZM7.716,3.086c-3.251,0-4.629,1.379-4.629,4.629v4.115c0,3.251,1.379,4.629,4.629,4.629h4.115c3.251,0,4.629-1.379,4.629-4.629V7.716c0-3.251-1.379-4.629-4.629-4.629Z" transform="translate(2.572 2.572)" fill="#292d32"/>
      <path id="Vector-2" data-name="Vector" d="M11.831,19.547H7.716C2.737,19.547,0,16.81,0,11.831V7.716C0,2.737,2.737,0,7.716,0h4.115c4.979,0,7.716,2.737,7.716,7.716v4.115C19.547,16.81,16.81,19.547,11.831,19.547ZM7.716,3.086c-3.251,0-4.629,1.379-4.629,4.629v4.115c0,3.251,1.379,4.629,4.629,4.629h4.115c3.251,0,4.629-1.379,4.629-4.629V7.716c0-3.251-1.379-4.629-4.629-4.629Z" transform="translate(27.882 2.572)" fill="#dd1828"/>
      <path id="Vector-3" data-name="Vector" d="M11.831,19.547H7.716C2.737,19.547,0,16.81,0,11.831V7.716C0,2.737,2.737,0,7.716,0h4.115c4.979,0,7.716,2.737,7.716,7.716v4.115C19.547,16.81,16.81,19.547,11.831,19.547ZM7.716,3.086c-3.251,0-4.629,1.379-4.629,4.629v4.115c0,3.251,1.379,4.629,4.629,4.629h4.115c3.251,0,4.629-1.379,4.629-4.629V7.716c0-3.251-1.379-4.629-4.629-4.629Z" transform="translate(27.882 27.882)" fill="#292d32"/>
      <path id="Vector-4" data-name="Vector" d="M11.831,19.547H7.716C2.737,19.547,0,16.81,0,11.831V7.716C0,2.737,2.737,0,7.716,0h4.115c4.979,0,7.716,2.737,7.716,7.716v4.115C19.547,16.81,16.81,19.547,11.831,19.547ZM7.716,3.086c-3.251,0-4.629,1.379-4.629,4.629v4.115c0,3.251,1.379,4.629,4.629,4.629h4.115c3.251,0,4.629-1.379,4.629-4.629V7.716c0-3.251-1.379-4.629-4.629-4.629Z" transform="translate(2.572 27.882)" fill="#dd1828"/>
      <path id="Vector-5" data-name="Vector" d="M0,0H50V50H0Z" fill="none" opacity="0"/>
    </g>
  </g>
</svg>
