<svg xmlns="http://www.w3.org/2000/svg" width="50" height="50" viewBox="0 0 50 50">
  <g id="veteran-developers" transform="translate(-108 -252)">
    <g id="code-circle" transform="translate(108 252)">
      <path id="Vector" d="M5.882,11.769A1.588,1.588,0,0,1,4.747,11.3L.466,7.017a1.615,1.615,0,0,1,0-2.269L4.747.466A1.6,1.6,0,0,1,7.017,2.735L3.87,5.882,7.017,9.029a1.615,1.615,0,0,1,0,2.269A1.588,1.588,0,0,1,5.882,11.769Z" transform="translate(10.891 19.118)" fill="#292d32"/>
      <path id="Vector-2" data-name="Vector" d="M1.6,11.769A1.588,1.588,0,0,1,.466,11.3a1.615,1.615,0,0,1,0-2.269L3.613,5.882.466,2.735A1.6,1.6,0,0,1,2.735.466L7.017,4.747a1.615,1.615,0,0,1,0,2.269L2.735,11.3A1.588,1.588,0,0,1,1.6,11.769Z" transform="translate(31.626 19.118)" fill="#292d32"/>
      <path id="Vector-3" data-name="Vector" d="M22.324,44.648A22.324,22.324,0,1,1,44.648,22.324,22.343,22.343,0,0,1,22.324,44.648Zm0-41.533A19.209,19.209,0,1,0,41.533,22.324,19.232,19.232,0,0,0,22.324,3.115Z" transform="translate(2.676 2.676)" fill="#dd1828"/>
      <path id="Vector-4" data-name="Vector" d="M1.593,13.218a1.536,1.536,0,0,1-.621-.128A1.6,1.6,0,0,1,.138,10.97l4.282-10a1.578,1.578,0,0,1,2.1-.835,1.6,1.6,0,0,1,.835,2.12l-4.282,10A1.61,1.61,0,0,1,1.593,13.218Z" transform="translate(21.266 18.376)" fill="#292d32"/>
      <path id="Vector-5" data-name="Vector" d="M0,0H50V50H0Z" fill="none" opacity="0"/>
    </g>
  </g>
</svg>
