<svg xmlns="http://www.w3.org/2000/svg" width="73.307" height="73.307" viewBox="0 0 73.307 73.307">
  <g id="Group_4978" data-name="Group 4978" transform="translate(-1047 -2374.856)">
    <g id="Group_4711" data-name="Group 4711" transform="translate(1047 2374.856)">
      <g id="Group_612" data-name="Group 612">
        <circle id="Ellipse_82" data-name="Ellipse 82" cx="36.653" cy="36.653" r="36.653" fill="#bbddf3"/>
      </g>
      <g id="Group_611" data-name="Group 611" transform="translate(16.127 16.127)">
        <path id="Path_9944" data-name="Path 9944" d="M497.97,310.958c-.141-.093-.074-.236-.074-.354q-.005-8.875,0-17.75c0-.118-.066-.261.074-.354Z" transform="translate(-458.261 -283.426)" fill="#7f90e0"/>
        <path id="Path_9945" data-name="Path 9945" d="M114.75,293.25c.137.094.075.237.075.356q.005,8.835,0,17.671c0,.118.065.261-.074.354Z" transform="translate(-114.75 -284.098)" fill="#7f90e0"/>
        <path id="Path_9947" data-name="Path 9947" d="M149.236,288.9a7.131,7.131,0,0,1-1.7-.036,3.11,3.11,0,0,1-2.54-3.275q0-8.78,0-17.56a3.963,3.963,0,0,1,.117-1.036,3.069,3.069,0,0,1,2.923-2.288c.4-.006.8.008,1.2.013a5.354,5.354,0,0,0-1.167,3.587q.016,8.465,0,16.929A5.478,5.478,0,0,0,149.236,288.9Z" transform="translate(-141.868 -258.507)" fill="rgba(216,216,216,0.35)"/>
      </g>
    </g>
    <g id="Group_4755" data-name="Group 4755" transform="translate(1003.705 2331.878)">
      <path id="Path_12523" data-name="Path 12523" d="M100.19,322.411c-.151.5-.275,1-.456,1.485a6.543,6.543,0,0,1-6.006,4.309q-13.662.05-27.325,0a6.631,6.631,0,0,1-6.438-6.457c-.025-.863-.011-1.727-.009-2.591a4,4,0,0,1,4.295-4.323q10.207-.009,20.415,0c3.481,0,6.965.087,10.442-.029,2.51-.084,4.252.772,5.083,3.212ZM80.111,317.5v.011q-7.816,0-15.633,0c-1.45,0-1.846.407-1.847,1.878,0,.733-.015,1.467.005,2.2a3.987,3.987,0,0,0,3.97,3.951q13.472.029,26.945,0a3.989,3.989,0,0,0,3.959-3.964c.02-.733.006-1.466.005-2.2,0-1.467-.4-1.874-1.85-1.874Q87.888,317.5,80.111,317.5Z" transform="translate(0 -228.991)"/>
      <path id="Path_12524" data-name="Path 12524" d="M100.212,82.261c-.411.526-.843,1-1.617.834a1.343,1.343,0,0,1-1.063-1.519q-.009-4.478,0-8.956c0-2.226.008-4.452,0-6.677a4.039,4.039,0,0,0-4.3-4.265q-13.159,0-26.317,0a4.017,4.017,0,0,0-4.253,4.227q-.013,7.856,0,15.712c0,.757-.2,1.359-.986,1.582a1.319,1.319,0,0,1-1.691-1.409c-.013-2.619,0-5.237,0-7.856q0-3.889,0-7.777a6.7,6.7,0,0,1,5.469-7.034A.709.709,0,0,0,65.635,59H94.554c.239.082.475.174.717.245a6.608,6.608,0,0,1,4.547,4.239c.162.432.264.887.394,1.331Z" transform="translate(-0.022 0)"/>
      <path id="Path_12526" data-name="Path 12526" d="M211.758,128.921a4.691,4.691,0,0,1-4.677-4.695,4.706,4.706,0,1,1,4.677,4.695Zm.058-2.687a2,2,0,1,0-2.045-1.947A2.014,2.014,0,0,0,211.816,126.234Z" transform="translate(-131.715 -54.184)"/>
      <path id="Path_12527" data-name="Path 12527" d="M194.9,228.532a8.108,8.108,0,0,1,6.245,3.039,1.348,1.348,0,1,1-2.031,1.745,5.364,5.364,0,0,0-8.5.022,1.318,1.318,0,0,1-1.939.268,1.351,1.351,0,0,1-.09-2.016A8.043,8.043,0,0,1,194.9,228.532Z" transform="translate(-114.802 -151.769)"/>
      <path id="Path_12528" data-name="Path 12528" d="M223.405,366.26q3.455,0,6.91,0c1.01,0,1.6.487,1.608,1.308.011.846-.6,1.367-1.647,1.368q-6.949.006-13.9,0c-1.27,0-2-1.027-1.438-2a1.431,1.431,0,0,1,1.4-.68C218.694,366.269,221.049,366.26,223.405,366.26Z" transform="translate(-138.579 -275.06)"/>
      <path id="Path_12529" data-name="Path 12529" d="M164.84,360.782c0,.262.018.525,0,.784a1.28,1.28,0,0,1-1.257,1.255,1.218,1.218,0,0,1-1.341-1.069,7.338,7.338,0,0,1-.019-1.951,1.258,1.258,0,0,1,1.4-1.089A1.275,1.275,0,0,1,164.843,360c.017.261,0,.523,0,.785Z" transform="translate(-91.504 -268.306)"/>
      <path id="Path_12530" data-name="Path 12530" d="M124.072,360.707c0-.235-.014-.472,0-.706a1.278,1.278,0,0,1,1.22-1.286,1.247,1.247,0,0,1,1.4,1.089,7.571,7.571,0,0,1-.017,1.949,1.208,1.208,0,0,1-1.335,1.07,1.275,1.275,0,0,1-1.256-1.253c-.024-.286,0-.575,0-.863Z" transform="translate(-57.399 -268.308)"/>
    </g>
  </g>
</svg>
