<svg id="Group_4711" data-name="Group 4711" xmlns="http://www.w3.org/2000/svg" width="73.307" height="73.307" viewBox="0 0 73.307 73.307">
  <g id="Group_612" data-name="Group 612">
    <circle id="Ellipse_82" data-name="Ellipse 82" cx="36.653" cy="36.653" r="36.653" fill="#dfcda1"/>
  </g>
  <g id="Group_611" data-name="Group 611" transform="translate(16.127 16.127)">
    <path id="Path_9944" data-name="Path 9944" d="M497.97,310.958c-.141-.093-.074-.236-.074-.354q-.005-8.875,0-17.75c0-.118-.066-.261.074-.354Z" transform="translate(-458.261 -283.426)" fill="#7f90e0"/>
    <path id="Path_9945" data-name="Path 9945" d="M114.75,293.25c.137.094.075.237.075.356q.005,8.835,0,17.671c0,.118.065.261-.074.354Z" transform="translate(-114.75 -284.098)" fill="#7f90e0"/>
    <path id="Subtraction_8" data-name="Subtraction 8" d="M10.666,17.3c-1.054,0-2.038,0-3.006-.012a4.572,4.572,0,0,1-4.519-4.038,11.827,11.827,0,0,1-.056-1.687v-.043c.006-.4.012-.808-.015-1.211l-.114-.092c-.027.039-.058.08-.089.129a1.755,1.755,0,0,1-.237.3,1.581,1.581,0,0,1-1.105.456,1.51,1.51,0,0,1-1.054-.424,1.547,1.547,0,0,1-.028-2.2c.317-.332.648-.661.971-.979l.059-.06.223-.221L1.919,7q.7-.694,1.389-1.388l1.381-1.38Q6.071,2.844,7.457,1.462A4.8,4.8,0,0,1,10.839,0,4.776,4.776,0,0,1,14.2,1.451c2.344,2.336,4.783,4.781,6.937,6.938a1.685,1.685,0,0,1,.5,1.5,1.485,1.485,0,0,1-.918,1.083,1.674,1.674,0,0,1-.64.136,1.409,1.409,0,0,1-.955-.381,2.8,2.8,0,0,1-.282-.308l-.007-.008-.007-.01c-.046-.056-.092-.108-.14-.162l-.111.042c0,.031,0,.065,0,.1v.049c0,.095,0,.19,0,.291-.01.312,0,.638,0,.926a8.225,8.225,0,0,1-.137,2.082,4.607,4.607,0,0,1-4.428,3.554C12.706,17.291,11.64,17.3,10.666,17.3ZM10.83,11.1h.014a1.564,1.564,0,0,1,1.542,1.609c0,.105,0,.212,0,.319,0,.265.006.537-.01.8a.373.373,0,0,0,.066.286.3.3,0,0,0,.231.071h.046c.135-.008.276-.013.444-.013l.309,0h.1c.035,0,.067,0,.1,0h.206a1.525,1.525,0,0,0,1.6-1.615q0-1.3,0-2.6t0-2.6a.605.605,0,0,0-.191-.477c-.433-.428-.869-.868-1.293-1.292L13.993,5.6l-.206-.208c-.559-.559-1.136-1.136-1.707-1.7a1.807,1.807,0,0,0-1.244-.61,1.826,1.826,0,0,0-1.261.624C8.989,4.291,8.4,4.876,7.839,5.443S6.805,6.478,6.391,6.888a.633.633,0,0,0-.21.509c.007.614.006,1.234,0,1.832q0,.382,0,.765v.433c0,.145,0,.289,0,.434,0,.565,0,1.151,0,1.731a1.529,1.529,0,0,0,1.577,1.595l.291,0,.291,0c.225,0,.438,0,.66.007h.025a.257.257,0,0,0,.2-.062.3.3,0,0,0,.059-.233c-.012-.419-.007-.842,0-1.2A1.565,1.565,0,0,1,10.83,11.1Z" transform="translate(9.022 10.238)" fill="#393939" stroke="rgba(0,0,0,0)" stroke-miterlimit="10" stroke-width="1"/>
    <path id="Path_9947" data-name="Path 9947" d="M149.236,288.9a7.131,7.131,0,0,1-1.7-.036,3.11,3.11,0,0,1-2.54-3.275q0-8.78,0-17.56a3.963,3.963,0,0,1,.117-1.036,3.069,3.069,0,0,1,2.923-2.288c.4-.006.8.008,1.2.013a5.354,5.354,0,0,0-1.167,3.587q.016,8.465,0,16.929A5.478,5.478,0,0,0,149.236,288.9Z" transform="translate(-141.868 -258.507)" fill="rgba(216,216,216,0.35)"/>
    <path id="Path_9948" data-name="Path 9948" d="M154.459,213.514c-.086-.362-.052-.739-.149-1.1a6.3,6.3,0,0,0-2.207-3.33,6.07,6.07,0,0,0-2.954-1.264c-.464-.071-.478-.1-.481-.57,0-.284.011-.568-.006-.851a1.606,1.606,0,0,0-1.337-1.647h-.7a1.735,1.735,0,0,0-1.182,1.973c.025.256-.018.519.009.774.032.3-.082.362-.366.359-1.421-.015-2.842-.01-4.263-.005a1.529,1.529,0,0,0-1.486,1.031,1.556,1.556,0,0,0,1.566,2.064c2.364.008,4.729,0,7.093,0a3.1,3.1,0,0,1,3.331,3.3q.006,8.8,0,17.6a3.846,3.846,0,0,1-.172,1.221,3.2,3.2,0,0,1-3.187,2.108c-8.488-.025-16.977-.011-25.465-.012-.129,0-.257-.012-.386-.018a2.806,2.806,0,0,0-1.22-.111,2.952,2.952,0,0,1-2.341-1.246,3.642,3.642,0,0,1-.585-2.248q-.009-8.488,0-16.976c0-.1,0-.207,0-.31a3.07,3.07,0,0,1,1.8-2.929,3.017,3.017,0,0,1,1.279-.262,2.179,2.179,0,0,0,1.067-.1c.155-.005.309-.015.464-.015q5.929,0,11.858,0a1.571,1.571,0,0,0,1.712-1.709c0-.866-.028-1.732.008-2.6a1.711,1.711,0,0,0-1.247-1.893h-.62a1.511,1.511,0,0,0-1.356,1.635c-.008.258,0,.516,0,.774,0,.566-.011.574-.593.575h-6.66c-.465,0-.93-.011-1.394,0-.321.01-.441-.124-.428-.436s.007-.619,0-.929a1.5,1.5,0,0,0-1.279-1.623h-.7a1.563,1.563,0,0,0-1.322,1.493,8.41,8.41,0,0,0-.02,1.006c-.006.475-.027.5-.482.569a6.186,6.186,0,0,0-4.089,2.422,5.8,5.8,0,0,0-1.222,3.2v.465a.68.68,0,0,1,.038.379q0,8.812,0,17.623a.68.68,0,0,1-.038.379v.388c.089.35.06.715.15,1.065a6.311,6.311,0,0,0,5.963,4.632q4.224,0,8.448,0c.5,0,.524.021.525.523,0,1.279,0,2.558,0,3.837a1.573,1.573,0,0,0,1.352,1.731h6.825a1.459,1.459,0,0,0,1.307-1.231,2.068,2.068,0,0,0,.047-.578q0-1.86,0-3.72c0-.551.01-.561.564-.562,2.79,0,5.581.009,8.371,0a6.084,6.084,0,0,0,4.866-2.4,5.615,5.615,0,0,0,1.286-3.294v-.388a.791.791,0,0,1-.038-.417q0-8.812,0-17.623a.791.791,0,0,1,.038-.417Zm-18.541,27.849q-1.317-.013-2.635,0c-.2,0-.233-.073-.232-.248.007-.865.009-1.731,0-2.6,0-.2.052-.266.259-.264q1.3.016,2.6,0c.217,0,.256.082.251.272-.011.426,0,.852,0,1.279s-.008.878,0,1.317C136.163,241.309,136.1,241.365,135.918,241.363Z" transform="translate(-114.75 -204.75)" fill="#dd1928"/>
  </g>
</svg>
