<svg id="Group_4711" data-name="Group 4711" xmlns="http://www.w3.org/2000/svg" width="73.307" height="73.307" viewBox="0 0 73.307 73.307">
  <g id="Group_612" data-name="Group 612">
    <circle id="Ellipse_82" data-name="Ellipse 82" cx="36.653" cy="36.653" r="36.653" fill="#f9d7bf"/>
  </g>
  <g id="Group_611" data-name="Group 611" transform="translate(16.127 16.127)">
    <path id="Path_9944" data-name="Path 9944" d="M497.97,310.958c-.141-.093-.074-.236-.074-.354q-.005-8.875,0-17.75c0-.118-.066-.261.074-.354Z" transform="translate(-458.261 -283.426)" fill="#7f90e0"/>
    <path id="Path_9945" data-name="Path 9945" d="M114.75,293.25c.137.094.075.237.075.356q.005,8.835,0,17.671c0,.118.065.261-.074.354Z" transform="translate(-114.75 -284.098)" fill="#7f90e0"/>
    <path id="Path_9947" data-name="Path 9947" d="M149.236,288.9a7.131,7.131,0,0,1-1.7-.036,3.11,3.11,0,0,1-2.54-3.275q0-8.78,0-17.56a3.963,3.963,0,0,1,.117-1.036,3.069,3.069,0,0,1,2.923-2.288c.4-.006.8.008,1.2.013a5.354,5.354,0,0,0-1.167,3.587q.016,8.465,0,16.929A5.478,5.478,0,0,0,149.236,288.9Z" transform="translate(-141.868 -258.507)" fill="rgba(216,216,216,0.35)"/>
    <path id="Path_9948" data-name="Path 9948" d="M154.459,213.514c-.086-.362-.052-.739-.149-1.1a6.3,6.3,0,0,0-2.207-3.33,6.07,6.07,0,0,0-2.954-1.264c-.464-.071-.478-.1-.481-.57,0-.284.011-.568-.006-.851a1.606,1.606,0,0,0-1.337-1.647h-.7a1.735,1.735,0,0,0-1.182,1.973c.025.256-.018.519.009.774.032.3-.082.362-.366.359-1.421-.015-2.842-.01-4.263-.005a1.529,1.529,0,0,0-1.486,1.031,1.556,1.556,0,0,0,1.566,2.064c2.364.008,4.729,0,7.093,0a3.1,3.1,0,0,1,3.331,3.3q.006,8.8,0,17.6a3.846,3.846,0,0,1-.172,1.221,3.2,3.2,0,0,1-3.187,2.108c-8.488-.025-16.977-.011-25.465-.012-.129,0-.257-.012-.386-.018a2.806,2.806,0,0,0-1.22-.111,2.952,2.952,0,0,1-2.341-1.246,3.642,3.642,0,0,1-.585-2.248q-.009-8.488,0-16.976c0-.1,0-.207,0-.31a3.07,3.07,0,0,1,1.8-2.929,3.017,3.017,0,0,1,1.279-.262,2.179,2.179,0,0,0,1.067-.1c.155-.005.309-.015.464-.015q5.929,0,11.858,0a1.571,1.571,0,0,0,1.712-1.709c0-.866-.028-1.732.008-2.6a1.711,1.711,0,0,0-1.247-1.893h-.62a1.511,1.511,0,0,0-1.356,1.635c-.008.258,0,.516,0,.774,0,.566-.011.574-.593.575h-6.66c-.465,0-.93-.011-1.394,0-.321.01-.441-.124-.428-.436s.007-.619,0-.929a1.5,1.5,0,0,0-1.279-1.623h-.7a1.563,1.563,0,0,0-1.322,1.493,8.41,8.41,0,0,0-.02,1.006c-.006.475-.027.5-.482.569a6.186,6.186,0,0,0-4.089,2.422,5.8,5.8,0,0,0-1.222,3.2v.465a.68.68,0,0,1,.038.379q0,8.812,0,17.623a.68.68,0,0,1-.038.379v.388c.089.35.06.715.15,1.065a6.311,6.311,0,0,0,5.963,4.632q4.224,0,8.448,0c.5,0,.524.021.525.523,0,1.279,0,2.558,0,3.837a1.573,1.573,0,0,0,1.352,1.731h6.825a1.459,1.459,0,0,0,1.307-1.231,2.068,2.068,0,0,0,.047-.578q0-1.86,0-3.72c0-.551.01-.561.564-.562,2.79,0,5.581.009,8.371,0a6.084,6.084,0,0,0,4.866-2.4,5.615,5.615,0,0,0,1.286-3.294v-.388a.791.791,0,0,1-.038-.417q0-8.812,0-17.623a.791.791,0,0,1,.038-.417Zm-18.541,27.849q-1.317-.013-2.635,0c-.2,0-.233-.073-.232-.248.007-.865.009-1.731,0-2.6,0-.2.052-.266.259-.264q1.3.016,2.6,0c.217,0,.256.082.251.272-.011.426,0,.852,0,1.279s-.008.878,0,1.317C136.163,241.309,136.1,241.365,135.918,241.363Z" transform="translate(-114.75 -204.75)" fill="#393939"/>
    <path id="Icon_material-slow-motion-video" data-name="Icon material-slow-motion-video" d="M11.788,9.205,9.372,7.392V14.52l2.416-1.814,2.337-1.75Zm0,0L9.372,7.392V14.52l2.416-1.814,2.337-1.75Zm0,0L9.372,7.392V14.52l2.416-1.814,2.337-1.75ZM10.164,4.675v-1.6A7.88,7.88,0,0,0,5.95,4.825L7.075,5.958a6.29,6.29,0,0,1,3.089-1.283Zm-4.206,2.4L4.825,5.95a7.88,7.88,0,0,0-1.75,4.214h1.6A6.29,6.29,0,0,1,5.958,7.075ZM4.675,11.748h-1.6a7.88,7.88,0,0,0,1.75,4.214l1.133-1.133a6.232,6.232,0,0,1-1.283-3.081ZM5.95,17.086a7.906,7.906,0,0,0,4.214,1.75v-1.6a6.29,6.29,0,0,1-3.089-1.283L5.95,17.086Zm12.926-6.13a7.932,7.932,0,0,1-7.089,7.881v-1.6a6.336,6.336,0,0,0,0-12.562v-1.6A7.932,7.932,0,0,1,18.876,10.956Z" transform="translate(8.878 7.386)" fill="#393939"/>
  </g>
</svg>
