<svg xmlns="http://www.w3.org/2000/svg" xmlns:xlink="http://www.w3.org/1999/xlink" width="49.979" height="49.867" viewBox="0 0 49.979 49.867">
  <defs>
    <radialGradient id="radial-gradient" cx="0.5" cy="0.5" r="0.5" gradientUnits="objectBoundingBox">
      <stop offset="0" stop-color="#f1f1f1" stop-opacity="0.831"/>
      <stop offset="0.143" stop-color="#eae8e8" stop-opacity="0.361"/>
      <stop offset="1" stop-color="#e8e8e8" stop-opacity="0.831"/>
    </radialGradient>
  </defs>
  <g id="about-us" transform="translate(-604.011 -211.133)">
    <path id="Ellipse_1" data-name="Ellipse 1" d="M22.3-.058A22.431,22.431,0,1,1-.059,22.366,22.414,22.414,0,0,1,22.3-.058Z" transform="translate(604.076 255.481) rotate(-83)" fill="url(#radial-gradient)"/>
    <g id="about-us-2" data-name="about-us" transform="translate(-3.941 -28.875)">
      <path id="Vector" d="M7.28,22.249a1.9,1.9,0,0,1-.9-.226,1.877,1.877,0,0,1-.992-1.661V18.83A5.815,5.815,0,0,1,0,12.672V6.2A5.87,5.87,0,0,1,6.2,0H16.986a5.87,5.87,0,0,1,6.2,6.2v6.471a5.87,5.87,0,0,1-6.2,6.2H12.92L8.326,21.936A1.916,1.916,0,0,1,7.28,22.249ZM6.2,1.607A4.3,4.3,0,0,0,1.618,6.19v6.471A4.3,4.3,0,0,0,6.2,17.245a.815.815,0,0,1,.809.809v2.3a.271.271,0,0,0,.421.226l4.8-3.192a.832.832,0,0,1,.453-.14H17a4.3,4.3,0,0,0,4.583-4.583V6.19A4.3,4.3,0,0,0,17,1.607Z" transform="translate(621.078 254.157)" fill="#ff0101"/>
      <path id="Vector-2" data-name="Vector" d="M0,0H25.883V25.883H0Z" transform="translate(620 252)" fill="none" opacity="0"/>
      <g id="Group_10" data-name="Group 10" transform="translate(631.399 258.43)">
        <path id="Vector-3" data-name="Vector" d="M1.273,2.547A1.273,1.273,0,1,1,2.547,1.273,1.272,1.272,0,0,1,1.273,2.547Z" transform="translate(0)" fill="#2a2a2a"/>
        <line id="Line_1" data-name="Line 1" x1="0.174" y2="5.333" transform="translate(1.099 4.225)" fill="none" stroke="#292d32" stroke-width="2"/>
      </g>
    </g>
  </g>
</svg>
