<svg xmlns="http://www.w3.org/2000/svg" xmlns:xlink="http://www.w3.org/1999/xlink" width="49.979" height="49.867" viewBox="0 0 49.979 49.867">
  <defs>
    <radialGradient id="radial-gradient" cx="0.5" cy="0.5" r="0.5" gradientUnits="objectBoundingBox">
      <stop offset="0" stop-color="#f1f1f1" stop-opacity="0.831"/>
      <stop offset="0.143" stop-color="#eae8e8" stop-opacity="0.361"/>
      <stop offset="1" stop-color="#e8e8e8" stop-opacity="0.831"/>
    </radialGradient>
  </defs>
  <g id="affiliate-program" transform="translate(-673 -210.567)">
    <path id="Ellipse_1" data-name="Ellipse 1" d="M22.3-.058A22.431,22.431,0,1,1-.059,22.366,22.414,22.414,0,0,1,22.3-.058Z" transform="translate(673.065 254.914) rotate(-83)" fill="url(#radial-gradient)"/>
    <g id="Group_13" data-name="Group 13" transform="translate(15.296 24.296)">
      <g id="Group_12" data-name="Group 12" transform="translate(668 197)">
        <path id="Vector" d="M2.187,7.838a7.924,7.924,0,0,1-1.4-.118.9.9,0,1,1,.312-1.777A5.853,5.853,0,0,0,5.176,5.22,1.647,1.647,0,0,0,6.04,3.912a1.658,1.658,0,0,0-.865-1.294,5.874,5.874,0,0,0-4.117-.706.892.892,0,0,1-1.045-.74A.9.9,0,0,1,.746.13a7.6,7.6,0,0,1,5.427.983,3.42,3.42,0,0,1,1.669,2.8A3.442,3.442,0,0,1,6.173,6.724,7.307,7.307,0,0,1,2.187,7.837Z" transform="translate(20.029 10.804)" fill="#292d32"/>
        <path id="Vector-2" data-name="Vector" d="M5.654,7.838A7.307,7.307,0,0,1,1.669,6.725,3.438,3.438,0,0,1,0,3.912a3.436,3.436,0,0,1,1.669-2.8A7.6,7.6,0,0,1,7.1.13a.9.9,0,0,1,.732,1.042A.892.892,0,0,1,6.783,1.9a5.881,5.881,0,0,0-4.117.706A1.629,1.629,0,0,0,1.8,3.9a1.681,1.681,0,0,0,.865,1.309,5.853,5.853,0,0,0,4.082.72.906.906,0,0,1,.31,1.784,7.924,7.924,0,0,1-1.4.118Z" transform="translate(1.501 10.804)" fill="#292d32"/>
        <path id="Vector-3" data-name="Vector" d="M5.667,7.852a7.2,7.2,0,0,1-4-1.129A3.42,3.42,0,0,1,0,3.926,3.427,3.427,0,0,1,1.669,1.118a7.716,7.716,0,0,1,8,0,3.42,3.42,0,0,1,1.666,2.8,3.427,3.427,0,0,1-1.669,2.81,7.3,7.3,0,0,1-4,1.129Zm-3-5.223A1.647,1.647,0,0,0,1.8,3.941a1.658,1.658,0,0,0,.865,1.294,5.881,5.881,0,0,0,5.991,0,1.647,1.647,0,0,0,.865-1.309,1.658,1.658,0,0,0-.865-1.294,5.913,5.913,0,0,0-5.991,0Z" transform="translate(9.136 20.067)" fill="#ff0101"/>
        <path id="Vector-4" data-name="Vector" d="M0,0H29.407V29.407H0Z" fill="none" opacity="0"/>
        <path id="Vector-5" data-name="Vector" d="M3.7,7.4A3.7,3.7,0,1,1,7.4,3.7,3.7,3.7,0,0,1,3.7,7.4ZM3.7,1.8a1.9,1.9,0,1,0,1.9,1.9A1.9,1.9,0,0,0,3.7,1.8Z" transform="translate(3.506 1.986)" fill="#292d32"/>
        <path id="Vector-6" data-name="Vector" d="M3.7,7.4A3.7,3.7,0,1,1,7.4,3.7,3.7,3.7,0,0,1,3.7,7.4ZM3.7,1.8a1.9,1.9,0,1,0,1.9,1.9A1.9,1.9,0,0,0,3.7,1.8Z" transform="translate(18.506 1.986)" fill="#292d32"/>
        <path id="Vector-7" data-name="Vector" d="M3.7,7.4A3.7,3.7,0,1,1,7.4,3.7,3.7,3.7,0,0,1,3.7,7.4ZM3.7,1.8a1.9,1.9,0,1,0,1.9,1.9A1.9,1.9,0,0,0,3.7,1.8Z" transform="translate(11.105 11.252)" fill="#ff0101"/>
      </g>
    </g>
  </g>
</svg>
