<svg xmlns="http://www.w3.org/2000/svg" xmlns:xlink="http://www.w3.org/1999/xlink" width="49.979" height="49.867" viewBox="0 0 49.979 49.867">
  <defs>
    <radialGradient id="radial-gradient" cx="0.5" cy="0.5" r="0.5" gradientUnits="objectBoundingBox">
      <stop offset="0" stop-color="#f1f1f1" stop-opacity="0.831"/>
      <stop offset="0.143" stop-color="#eae8e8" stop-opacity="0.361"/>
      <stop offset="1" stop-color="#e8e8e8" stop-opacity="0.831"/>
    </radialGradient>
  </defs>
  <g id="become-a-partner" transform="translate(-679 -274)">
    <path id="Ellipse_1" data-name="Ellipse 1" d="M22.3-.058A22.431,22.431,0,1,1-.059,22.366,22.414,22.414,0,0,1,22.3-.058Z" transform="translate(679.065 318.348) rotate(-83)" fill="url(#radial-gradient)"/>
    <g id="Group_34" data-name="Group 34" transform="translate(1171.674 596.671)">
      <path id="Path_66" data-name="Path 66" d="M-455.362-208.661a6.473,6.473,0,0,1-.385,1.052,2.769,2.769,0,0,1-2.531,1.47c-1.388.01-2.776,0-4.163,0a.51.51,0,0,0-.4.164q-1.4,1.411-2.806,2.81a2.894,2.894,0,0,1-4.263,0c-.67-.669-1.347-1.33-2.006-2.01a3.034,3.034,0,0,0-2.3-.958c-.939.007-1.877,0-2.816,0a2.887,2.887,0,0,1-2.971-2.981q0-2.792,0-5.583a2.883,2.883,0,0,1,2.874-2.982c.385-.014.77-.012,1.155,0a2.744,2.744,0,0,0,1.976-.734,4.468,4.468,0,0,1,2.421-1.139,3.769,3.769,0,0,1,.743-.038.946.946,0,0,1,.883.941.959.959,0,0,1-.842.957c-.2.025-.4.024-.6.059a2.715,2.715,0,0,0-1.356.682,4.552,4.552,0,0,1-3.185,1.2c-.369,0-.738-.007-1.107,0a.969.969,0,0,0-1.037,1.062q0,2.78,0,5.559a.973.973,0,0,0,1.09,1.079c1.051,0,2.1-.013,3.152.018a4.575,4.575,0,0,1,3.143,1.368c.729.712,1.443,1.439,2.164,2.158a.965.965,0,0,0,1.517,0q1.967-1.964,3.931-3.931a.969.969,0,0,0,.006-1.5c-.214-.217-.434-.428-.646-.648a.954.954,0,0,1-.011-1.379.952.952,0,0,1,1.362.01c.244.232.484.469.715.714a2.861,2.861,0,0,1,.692,3c-.016.053-.03.106-.047.17,1,0,2,.025,2.985-.012a.871.871,0,0,0,.737-.888q.01-2.924,0-5.848a.931.931,0,0,0-.951-.921c-.625-.02-1.253-.034-1.877,0a4.721,4.721,0,0,1-3.486-1.295,2.338,2.338,0,0,0-3.332.107q-1.706,1.7-3.4,3.4a.967.967,0,0,0-.05,1.414.958.958,0,0,0,1.413-.059c.825-.82,1.644-1.646,2.469-2.466a.966.966,0,0,1,1.227-.185.945.945,0,0,1,.211,1.457c-.906.932-1.806,1.872-2.764,2.748a2.842,2.842,0,0,1-3.957-.174,2.864,2.864,0,0,1-.033-3.964c1.208-1.253,2.434-2.49,3.694-3.691a4.229,4.229,0,0,1,5.754-.071,2.987,2.987,0,0,0,2.245.852,18.475,18.475,0,0,1,2.045.009,2.857,2.857,0,0,1,2.68,2.377,1.057,1.057,0,0,0,.045.136Z" transform="translate(0 -83.929)" fill="#ff0101"/>
      <path id="Path_67" data-name="Path 67" d="M-250.107-298.5a.945.945,0,0,1,.919,1.221c-.208.647-.444,1.285-.691,1.918a.941.941,0,0,1-1.212.533.939.939,0,0,1-.587-1.186c.213-.637.449-1.267.691-1.893A.924.924,0,0,1-250.107-298.5Z" transform="translate(-213.629 -10.123)"/>
      <path id="Path_68" data-name="Path 68" d="M-364.531-297.535a.977.977,0,0,1,.758-.994.924.924,0,0,1,1.058.517c.264.652.509,1.313.724,1.983a.938.938,0,0,1-.627,1.166.948.948,0,0,1-1.184-.558c-.24-.619-.458-1.246-.681-1.871A1.336,1.336,0,0,1-364.531-297.535Z" transform="translate(-108.066 -10.07)"/>
      <path id="Path_69" data-name="Path 69" d="M-301.123-307.393c0,.32.005.641,0,.961a.955.955,0,0,1-.961.961.952.952,0,0,1-.961-.961q-.011-.961,0-1.921a.951.951,0,0,1,.96-.961.953.953,0,0,1,.962.96C-301.118-308.034-301.123-307.713-301.123-307.393Z" transform="translate(-165.599)"/>
    </g>
  </g>
</svg>
