<svg xmlns="http://www.w3.org/2000/svg" xmlns:xlink="http://www.w3.org/1999/xlink" width="49.979" height="49.867" viewBox="0 0 49.979 49.867">
  <defs>
    <radialGradient id="radial-gradient" cx="0.5" cy="0.5" r="0.5" gradientUnits="objectBoundingBox">
      <stop offset="0" stop-color="#f1f1f1" stop-opacity="0.831"/>
      <stop offset="0.143" stop-color="#eae8e8" stop-opacity="0.361"/>
      <stop offset="1" stop-color="#e8e8e8" stop-opacity="0.831"/>
    </radialGradient>
  </defs>
  <g id="career" transform="translate(-739.021 -275.607)">
    <path id="Ellipse_1" data-name="Ellipse 1" d="M22.3-.058A22.431,22.431,0,1,1-.059,22.366,22.414,22.414,0,0,1,22.3-.058Z" transform="translate(739.086 319.955) rotate(-83)" fill="url(#radial-gradient)"/>
    <g id="Group_24" data-name="Group 24" transform="translate(1198.866 -338.617)">
      <path id="Path_44" data-name="Path 44" d="M-360.627,625.5a.389.389,0,0,0,.08.042,1.962,1.962,0,0,1,1.57,1.986,4.062,4.062,0,0,1-.035.661,6.161,6.161,0,0,1-.177.653c.184-.03.365-.051.542-.091a5.689,5.689,0,0,0,2.807-1.542,1.519,1.519,0,0,1,1.494-.448,1.444,1.444,0,0,1,1.108,1.062,1.475,1.475,0,0,1-.406,1.525,8.737,8.737,0,0,1-1.955,1.49,8.583,8.583,0,0,1-2.777.984c-.062.01-.123.029-.209.049,0,.083,0,.168,0,.252,0,.909.009,1.819-.006,2.728a.426.426,0,0,0,.26.438c.409.222.807.467,1.21.7a1.691,1.691,0,0,1,.743.863c.5,1.246,1,2.49,1.5,3.737a1.69,1.69,0,0,1-.04,1.422c.086,0,.168.011.25.011,1.234,0,2.467.008,3.7,0a.644.644,0,0,1,.645.338v7.122a.647.647,0,0,1-.646.337c-1.8-.01-3.592,0-5.388-.005-.455,0-.613-.158-.613-.615q0-3.1,0-6.195a.321.321,0,0,0-.2-.347,1.6,1.6,0,0,1-.76-.9c-.393-.991-.8-1.979-1.186-2.97a.511.511,0,0,0-.295-.309q-.728-.315-1.446-.656c-.147-.07-.229-.065-.327.081-.247.367-.513.722-.774,1.08a.486.486,0,0,1-.714.164.475.475,0,0,1-.057-.713q.544-.763,1.1-1.521a.474.474,0,0,1,.661-.181c.757.34,1.515.676,2.261,1.037a.8.8,0,0,1,.35.383c.456,1.093.889,2.2,1.334,3.294a.671.671,0,0,0,.759.466.675.675,0,0,0,.5-.962c-.373-.948-.807-1.875-1.121-2.842a2.643,2.643,0,0,0-1.568-1.79,1.692,1.692,0,0,1-.409-.238,2.6,2.6,0,0,0-1.865-.5c-.67.041-1.345.016-2.017,0a.32.32,0,0,0-.34.216c-.457.946-.929,1.885-1.385,2.832a.961.961,0,0,1-.493.48c-1.131.527-2.257,1.065-3.384,1.6a.7.7,0,0,0-.444.713.635.635,0,0,0,.517.577,1.007,1.007,0,0,0,.522-.077c.614-.272,1.216-.569,1.823-.857.064-.03.128-.062.195-.086a.464.464,0,0,1,.6.238.441.441,0,0,1-.182.6c-.774.376-1.54.778-2.342,1.085a1.569,1.569,0,0,1-1.961-.938,1.6,1.6,0,0,1,.772-2.057q1.541-.76,3.105-1.471a1.149,1.149,0,0,0,.612-.6c.353-.759.737-1.5,1.1-2.259a.71.71,0,0,0,.026-.3c0-.1-.03-.2-.03-.3,0-.847,0-1.693,0-2.54v-.332c-.43.166-.824.3-1.2.469a6.247,6.247,0,0,0-1.629,1.171,1.52,1.52,0,0,1-2.368-.341,1.513,1.513,0,0,1,.244-1.856,8.68,8.68,0,0,1,4.87-2.508c.474-.076.956-.1,1.45-.148a.222.222,0,0,0-.01-.077,2.6,2.6,0,0,1-.165-1.762,1.892,1.892,0,0,1,1.447-1.477c.051-.014.1-.035.152-.053Zm1.093,9.118c0-1.04,0-2.051,0-3.063,0-.4.141-.551.543-.6a7.664,7.664,0,0,0,3.69-1.44,10.308,10.308,0,0,0,1-.867.556.556,0,0,0,.006-.809.585.585,0,0,0-.813-.014c-.066.057-.127.119-.191.178a6.528,6.528,0,0,1-4.291,1.821c-1,.039-1.993.023-2.99.02a7.973,7.973,0,0,0-3.809.914,7.836,7.836,0,0,0-1.9,1.4.58.58,0,0,0-.044.847.582.582,0,0,0,.848-.008c.053-.048.1-.1.154-.148a6.6,6.6,0,0,1,3.606-1.762c.423-.063.633.115.634.541,0,.91,0,1.819,0,2.729,0,.083.007.166.011.253Zm3.529,8.364v5.858h4.718v-5.858Zm-6.012-15.332.067.022c0,.095-.007.19,0,.284a1.012,1.012,0,0,0,.961.936.98.98,0,0,0,1.035-.843,2.656,2.656,0,0,0-.01-.8.924.924,0,0,0-.789-.779.9.9,0,0,0-.991.4A3.65,3.65,0,0,0-362.017,627.65Z" transform="translate(-72.377)" fill="#ff0101"/>
      <path id="Path_45" data-name="Path 45" d="M-304.178,916.765h-2.7c-.457,0-.62-.159-.62-.607q0-2.526,0-5.052c0-.45.161-.608.618-.608h5.408c.467,0,.62.156.621.63q0,2.5,0,5c0,.483-.152.632-.642.632Zm-2.358-5.307V915.8h4.718v-4.338Z" transform="translate(-130.676 -266.956)"/>
      <path id="Path_46" data-name="Path 46" d="M-443.661,936h2.7c.425,0,.594.166.595.584q0,1.743,0,3.486c0,.408-.171.581-.574.582q-2.751,0-5.5,0c-.392,0-.57-.174-.57-.561q0-1.767,0-3.534c0-.384.179-.557.573-.557Q-445.049,935.993-443.661,936Zm2.339.967h-4.718v2.724h4.718Z" transform="translate(0 -290.839)"/>
      <path id="Path_47" data-name="Path 47" d="M-280.578,855.4a.46.46,0,0,1,.457-.474.475.475,0,0,1,.486.476.489.489,0,0,1-.476.468A.475.475,0,0,1-280.578,855.4Z" transform="translate(-155.896 -214.907)" fill="#ff0101"/>
    </g>
  </g>
</svg>
