<svg xmlns="http://www.w3.org/2000/svg" xmlns:xlink="http://www.w3.org/1999/xlink" width="49.979" height="49.867" viewBox="0 0 49.979 49.867">
  <defs>
    <radialGradient id="radial-gradient" cx="0.5" cy="0.5" r="0.5" gradientUnits="objectBoundingBox">
      <stop offset="0" stop-color="#f1f1f1" stop-opacity="0.831"/>
      <stop offset="0.143" stop-color="#eae8e8" stop-opacity="0.361"/>
      <stop offset="1" stop-color="#e8e8e8" stop-opacity="0.831"/>
    </radialGradient>
  </defs>
  <g id="contact-us" transform="translate(-821 -211)">
    <g id="Group_26" data-name="Group 26">
      <path id="Ellipse_1" data-name="Ellipse 1" d="M22.3-.058A22.431,22.431,0,1,1-.059,22.366,22.414,22.414,0,0,1,22.3-.058Z" transform="translate(821.065 255.348) rotate(-83)" fill="url(#radial-gradient)"/>
      <path id="Vector" d="M16.181,21.475a9.138,9.138,0,0,1-3.546-.789,18.753,18.753,0,0,1-3.586-2.058,31.178,31.178,0,0,1-3.366-2.867,29.841,29.841,0,0,1-2.867-3.356A18.64,18.64,0,0,1,.779,8.85,9.248,9.248,0,0,1,0,5.284,6.019,6.019,0,0,1,.41,3.076,5.335,5.335,0,0,1,1.748,1.139,3.627,3.627,0,0,1,4.335,0,2.7,2.7,0,0,1,5.464.25a2.286,2.286,0,0,1,.959.809L8.74,4.325a3.869,3.869,0,0,1,.479.849,2.244,2.244,0,0,1,.2.889,2.119,2.119,0,0,1-.32,1.1,4,4,0,0,1-.669.849l-.679.709a.487.487,0,0,0,.03.07A7.681,7.681,0,0,0,8.6,9.9c.489.559.949,1.069,1.408,1.538.589.579,1.079,1.039,1.538,1.418a6.506,6.506,0,0,0,1.159.829l-.02.05.729-.719a3.731,3.731,0,0,1,.9-.689,2.108,2.108,0,0,1,1.948-.11,4.547,4.547,0,0,1,.839.469l3.316,2.357a2.146,2.146,0,0,1,.8.949,2.89,2.89,0,0,1,.22,1.079,3.331,3.331,0,0,1-.32,1.408,4.652,4.652,0,0,1-.8,1.2,5.123,5.123,0,0,1-1.908,1.368A5.9,5.9,0,0,1,16.181,21.475ZM4.335,1.5a2.189,2.189,0,0,0-1.548.719,3.832,3.832,0,0,0-.979,1.408A4.37,4.37,0,0,0,1.5,5.284,7.7,7.7,0,0,0,2.157,8.26a16.673,16.673,0,0,0,1.878,3.256,27.634,27.634,0,0,0,2.707,3.176A28.124,28.124,0,0,0,9.928,17.41,16.229,16.229,0,0,0,13.215,19.3a5.957,5.957,0,0,0,4.625.35,3.688,3.688,0,0,0,1.368-.989,3.239,3.239,0,0,0,.559-.839,1.769,1.769,0,0,0,.18-.769,1.192,1.192,0,0,0-.11-.5.756.756,0,0,0-.28-.3l-3.316-2.357a2.863,2.863,0,0,0-.549-.31.525.525,0,0,0-.649.03,2.277,2.277,0,0,0-.579.449l-.759.749a1.424,1.424,0,0,1-1.448.3l-.27-.12a8.515,8.515,0,0,1-1.418-1.009c-.479-.41-1-.889-1.628-1.508-.489-.5-.979-1.029-1.488-1.618A8.522,8.522,0,0,1,6.432,9.449l-.12-.3a1.864,1.864,0,0,1-.08-.5,1.282,1.282,0,0,1,.38-.929l.749-.779a2.892,2.892,0,0,0,.449-.559.641.641,0,0,0,.11-.34.928.928,0,0,0-.08-.32,2.865,2.865,0,0,0-.32-.529L5.2,1.918a.92.92,0,0,0-.37-.31A1.251,1.251,0,0,0,4.335,1.5Zm8.35,12.246-.16.679.27-.7A.123.123,0,0,0,12.685,13.744Z" transform="translate(835.794 224.792)" fill="#ff0101"/>
    </g>
  </g>
</svg>
