<svg xmlns="http://www.w3.org/2000/svg" xmlns:xlink="http://www.w3.org/1999/xlink" width="49.979" height="49.867" viewBox="0 0 49.979 49.867">
  <defs>
    <radialGradient id="radial-gradient" cx="0.5" cy="0.5" r="0.5" gradientUnits="objectBoundingBox">
      <stop offset="0" stop-color="#f1f1f1" stop-opacity="0.831"/>
      <stop offset="0.143" stop-color="#eae8e8" stop-opacity="0.361"/>
      <stop offset="1" stop-color="#e8e8e8" stop-opacity="0.831"/>
    </radialGradient>
  </defs>
  <g id="hire-dedicated-develope" transform="translate(-615.64 -273.607)">
    <path id="Ellipse_1" data-name="Ellipse 1" d="M22.3-.058A22.431,22.431,0,1,1-.059,22.366,22.414,22.414,0,0,1,22.3-.058Z" transform="translate(615.705 317.955) rotate(-83)" fill="url(#radial-gradient)"/>
    <g id="vuesax_outline_document-code-2" data-name="vuesax/outline/document-code-2" transform="translate(627.469 284.877)">
      <g id="document-code-2" transform="translate(1.62 1.62)">
        <path id="Vector" d="M14.17,21.916H9.017a.765.765,0,1,1,0-1.529H14.17c2.947,0,4.38-1.417,4.38-4.332V5.861c0-2.915-1.432-4.332-4.38-4.332H5.926c-2.947,0-4.38,1.417-4.38,4.332V13A.773.773,0,0,1,0,13V5.861C0,2.141,2.164,0,5.926,0H14.17C17.932,0,20.1,2.141,20.1,5.861V16.054C20.1,19.775,17.932,21.916,14.17,21.916Z" transform="translate(2.047 1.137)" fill="#ff0101"/>
        <path id="Vector-2" data-name="Vector" d="M4.322,5H2.5A2.5,2.5,0,0,1,0,2.5V.682A.687.687,0,0,1,.682,0a.687.687,0,0,1,.682.682V2.5A1.138,1.138,0,0,0,2.5,3.639h1.82A.682.682,0,1,1,4.322,5Z" transform="translate(14.26 3.889)" fill="#2a2a2a"/>
        <path id="Vector-3" data-name="Vector" d="M2.5,5a.675.675,0,0,1-.482-.2L.2,2.982a.686.686,0,0,1,0-.964L2.017.2a.682.682,0,0,1,.964.964L1.644,2.5,2.982,3.837a.686.686,0,0,1,0,.964A.675.675,0,0,1,2.5,5Z" transform="translate(1.139 17.141)" fill="#2a2a2a"/>
        <path id="Vector-4" data-name="Vector" d="M.68,5A.675.675,0,0,1,.2,4.8a.686.686,0,0,1,0-.964L1.535,2.5.2,1.162A.682.682,0,0,1,1.162.2l1.82,1.82a.686.686,0,0,1,0,.964L1.162,4.8A.675.675,0,0,1,.68,5Z" transform="translate(6.407 17.141)" fill="#2a2a2a"/>
        <path id="Vector-5" data-name="Vector" d="M0,0H24.19V24.19H0Z" fill="none" opacity="0"/>
      </g>
    </g>
  </g>
</svg>
