<svg xmlns="http://www.w3.org/2000/svg" xmlns:xlink="http://www.w3.org/1999/xlink" width="49.979" height="49.867" viewBox="0 0 49.979 49.867">
  <defs>
    <radialGradient id="radial-gradient" cx="0.5" cy="0.5" r="0.5" gradientUnits="objectBoundingBox">
      <stop offset="0" stop-color="#f1f1f1" stop-opacity="0.831"/>
      <stop offset="0.143" stop-color="#eae8e8" stop-opacity="0.361"/>
      <stop offset="1" stop-color="#e8e8e8" stop-opacity="0.831"/>
    </radialGradient>
  </defs>
  <g id="our-methodology" transform="translate(-883 -283)">
    <path id="Ellipse_1" data-name="Ellipse 1" d="M22.3-.058A22.431,22.431,0,1,1-.059,22.366,22.414,22.414,0,0,1,22.3-.058Z" transform="translate(883.065 327.348) rotate(-83)" fill="url(#radial-gradient)"/>
    <g id="Group_25" data-name="Group 25" transform="translate(1755.747 -177.759)">
      <path id="Path_48" data-name="Path 48" d="M-628.714,504.839l.247-.809a12.107,12.107,0,0,1,5.275,3.329l-.068-.827.841-.1c.056.531.111,1.049.166,1.567.016.15.034.3.047.45.038.432-.2.648-.632.572-.515-.09-1.029-.19-1.543-.286l-.449-.086.144-.841.836.13A11.247,11.247,0,0,0-628.714,504.839Z" transform="translate(-215.774 -29.287)" fill="#292d32"/>
      <path id="Path_49" data-name="Path 49" d="M-858.889,590.168a2.126,2.126,0,0,1-2.1-2.16,2.143,2.143,0,0,1,2.144-2.1,2.141,2.141,0,0,1,2.117,2.181A2.127,2.127,0,0,1-858.889,590.168Zm.019-.855a1.269,1.269,0,0,0,1.284-1.278,1.288,1.288,0,0,0-1.272-1.274,1.287,1.287,0,0,0-1.283,1.26A1.27,1.27,0,0,0-858.869,589.313Z" transform="translate(0 -105.346)" fill="#ff0101"/>
      <path id="Path_50" data-name="Path 50" d="M-705,474.636a2.135,2.135,0,0,1,2.136-2.133,2.134,2.134,0,0,1,2.126,2.116,2.136,2.136,0,0,1-2.15,2.147A2.135,2.135,0,0,1-705,474.636Zm2.108,1.276a1.283,1.283,0,0,0,1.3-1.24,1.284,1.284,0,0,0-1.254-1.314,1.284,1.284,0,0,0-1.3,1.24A1.285,1.285,0,0,0-702.888,475.912Z" transform="translate(-144.913)" fill="#ff0101"/>
      <path id="Path_51" data-name="Path 51" d="M-546.864,586.507a2.135,2.135,0,0,1,2.13,2.139,2.132,2.132,0,0,1-2.146,2.122A2.134,2.134,0,0,1-549,588.617,2.133,2.133,0,0,1-546.864,586.507Zm.009,3.409a1.282,1.282,0,0,0,1.267-1.274,1.282,1.282,0,0,0-1.287-1.281,1.283,1.283,0,0,0-1.268,1.274A1.284,1.284,0,0,0-546.855,589.916Z" transform="translate(-289.827 -105.903)" fill="#ff0101"/>
      <path id="Path_52" data-name="Path 52" d="M-796.731,774.638a2.134,2.134,0,0,1-2.141,2.128,2.136,2.136,0,0,1-2.121-2.149,2.134,2.134,0,0,1,2.128-2.114A2.133,2.133,0,0,1-796.731,774.638Zm-2.123,1.273a1.282,1.282,0,0,0,1.269-1.272,1.283,1.283,0,0,0-1.286-1.283,1.281,1.281,0,0,0-1.269,1.272A1.283,1.283,0,0,0-798.854,775.911Z" transform="translate(-55.737 -278.683)" fill="#ff0101"/>
      <path id="Path_53" data-name="Path 53" d="M-606.84,776.768A2.136,2.136,0,0,1-609,774.681a2.135,2.135,0,0,1,2.093-2.175,2.133,2.133,0,0,1,2.169,2.1A2.137,2.137,0,0,1-606.84,776.768Zm-.026-3.409a1.283,1.283,0,0,0-1.275,1.266,1.283,1.283,0,0,0,1.28,1.289,1.282,1.282,0,0,0,1.275-1.267A1.283,1.283,0,0,0-606.867,773.359Z" transform="translate(-234.091 -278.685)" fill="#ff0101"/>
      <path id="Path_54" data-name="Path 54" d="M-551.054,670.707l.734-.321.349.771c-.286.128-.565.254-.845.377-.357.157-.713.317-1.074.464-.289.117-.558.009-.606-.277-.119-.714-.2-1.434-.306-2.168l.843-.114.13.774A11.134,11.134,0,0,0-550.4,664.8h.847A12.54,12.54,0,0,1-551.054,670.707Z" transform="translate(-286.291 -178.637)" fill="#292d32"/>
      <path id="Path_55" data-name="Path 55" d="M-807.2,499.927l-.909-.12.1-.847c.742.088,1.462.164,2.18.263a.414.414,0,0,1,.316.591c-.267.646-.553,1.284-.844,1.952l-.806-.333.286-.7a8.972,8.972,0,0,0-2.361,1.527c-.676.622-1.3,1.305-1.961,1.984l-.617-.44A11.985,11.985,0,0,1-807.2,499.927Z" transform="translate(-45.676 -24.577)" fill="#292d32"/>
      <path id="Path_56" data-name="Path 56" d="M-853.9,666.035l-.6.627-.534-.6-.067.048a10.991,10.991,0,0,0,2,4.851l-.681.5a11.9,11.9,0,0,1-2.178-5.277l-.406.693-.74-.424c.362-.631.7-1.242,1.061-1.844a.4.4,0,0,1,.637-.109C-854.889,665-854.4,665.522-853.9,666.035Z" transform="translate(-3.618 -178.244)" fill="#292d32"/>
      <path id="Path_57" data-name="Path 57" d="M-721.49,804.528l.582.638-.618.579-.738-.791c-.224-.24-.452-.477-.67-.721a.441.441,0,0,1,.137-.76c.6-.308,1.2-.606,1.839-.925l.391.77-.716.375a11.18,11.18,0,0,0,4.886-.359l.256.807A11.838,11.838,0,0,1-721.49,804.528Z" transform="translate(-128.1 -306.592)" fill="#292d32"/>
    </g>
  </g>
</svg>
