<svg xmlns="http://www.w3.org/2000/svg" xmlns:xlink="http://www.w3.org/1999/xlink" width="44.863" height="44.863" viewBox="0 0 44.863 44.863">
  <defs>
    <radialGradient id="radial-gradient" cx="0.5" cy="0.5" r="0.5" gradientUnits="objectBoundingBox">
      <stop offset="0" stop-color="#f1f1f1" stop-opacity="0.831"/>
      <stop offset="0.143" stop-color="#eae8e8" stop-opacity="0.361"/>
      <stop offset="1" stop-color="#e8e8e8" stop-opacity="0.831"/>
    </radialGradient>
  </defs>
  <g id="portfolio" transform="translate(-7796 1922)">
    <g id="react" transform="translate(-1784 -11647)">
      <g id="python" transform="translate(130 7)">
        <g id="webapp" transform="translate(-177 62)">
          <g id="Group_12" data-name="Group 12" transform="translate(174 -1)">
            <g id="Group_7" data-name="Group 7" transform="translate(-99 144)">
              <g id="Group_5" data-name="Group 5" transform="translate(42 -70)">
                <g id="hire-dedicated-develope" transform="translate(8891.793 9306.955)">
                  <path id="Ellipse_1" data-name="Ellipse 1" d="M22.3-.058A22.431,22.431,0,1,1-.059,22.366,22.431,22.431,0,0,1,22.3-.058Z" transform="translate(618.265 320.848) rotate(-90)" fill="url(#radial-gradient)"/>
                </g>
              </g>
            </g>
          </g>
        </g>
      </g>
    </g>
    <g id="Group_4359" data-name="Group 4359" transform="translate(0 0)">
      <path id="Path_11476" data-name="Path 11476" d="M74.783,71.939c-.4-.089-.516-.231-.516-.632q0-1.975,0-3.95a1.535,1.535,0,0,1,1.642-1.643c.944,0,1.889,0,2.833,0h.2c.514-1.991,1.727-3.135,3.834-3.084a3.581,3.581,0,0,1,3.352,3.084h.2q1.434,0,2.868,0a1.491,1.491,0,0,1,1.47.876,1.651,1.651,0,0,1,.151.661c.014,1.374.008,2.747.006,4.121,0,.336-.142.488-.515.563v.2q0,2.713,0,5.426a1.511,1.511,0,0,1-1.137,1.545,1.9,1.9,0,0,1-.475.057q-6.148,0-12.3,0a1.53,1.53,0,0,1-1.615-1.618q0-2.7,0-5.409Zm1.034-.007v.2q0,2.678,0,5.357c0,.483.166.649.65.649H88.623c.483,0,.649-.167.649-.65q0-2.678,0-5.357v-.194H84.093c0,.172,0,.337,0,.5a.474.474,0,0,1-.51.52q-1.039.009-2.077,0a.475.475,0,0,1-.509-.52c0-.164,0-.328,0-.5Zm13.972-1.048V70.7q0-1.657,0-3.315c0-.462-.168-.631-.632-.631H75.933c-.466,0-.633.166-.633.629q0,1.657,0,3.315v.182H81c0-.164,0-.318,0-.471a.49.49,0,0,1,.552-.549q1,0,1.992,0c.374,0,.551.185.554.565,0,.152,0,.3,0,.462Zm-4.73-5.178a2.559,2.559,0,0,0-5.019,0Zm-2.008,6.209V70.9h-1.01v1.014Z" transform="translate(7735.733 -1970.628)" fill="#db1010"/>
    </g>
  </g>
</svg>
