<svg xmlns="http://www.w3.org/2000/svg" xmlns:xlink="http://www.w3.org/1999/xlink" width="49.979" height="49.867" viewBox="0 0 49.979 49.867">
  <defs>
    <radialGradient id="radial-gradient" cx="0.5" cy="0.5" r="0.5" gradientUnits="objectBoundingBox">
      <stop offset="0" stop-color="#f1f1f1" stop-opacity="0.831"/>
      <stop offset="0.143" stop-color="#eae8e8" stop-opacity="0.361"/>
      <stop offset="1" stop-color="#e8e8e8" stop-opacity="0.831"/>
    </radialGradient>
  </defs>
  <g id="staff-augmentation" transform="translate(-736.511 -210.567)">
    <path id="Ellipse_1" data-name="Ellipse 1" d="M22.3-.058A22.431,22.431,0,1,1-.059,22.366,22.414,22.414,0,0,1,22.3-.058Z" transform="translate(736.576 254.914) rotate(-83)" fill="url(#radial-gradient)"/>
    <g id="Group_22" data-name="Group 22" transform="translate(92.578 -40.756)">
      <g id="Group_15" data-name="Group 15" transform="translate(663.474 268.353)">
        <path id="Vector" d="M5.479,7.592A6.965,6.965,0,0,1,1.612,6.5,3.306,3.306,0,0,1,0,3.8,3.313,3.313,0,0,1,1.613,1.081a7.46,7.46,0,0,1,7.734,0,3.306,3.306,0,0,1,1.611,2.7A3.313,3.313,0,0,1,9.345,6.5,7.058,7.058,0,0,1,5.478,7.592Zm-2.9-5.05A1.592,1.592,0,0,0,1.741,3.81a1.6,1.6,0,0,0,.836,1.251,5.687,5.687,0,0,0,5.792,0A1.592,1.592,0,0,0,9.206,3.8,1.6,1.6,0,0,0,8.37,2.545a5.717,5.717,0,0,0-5.792,0Z" transform="translate(0 7.311)" fill="#ff0101"/>
        <path id="Vector-2" data-name="Vector" d="M3.575,7.15A3.575,3.575,0,1,1,7.15,3.575,3.575,3.575,0,0,1,3.575,7.15Zm0-5.409A1.834,1.834,0,1,0,5.409,3.575,1.834,1.834,0,0,0,3.575,1.741Z" transform="translate(1.904)" fill="#ff0101"/>
      </g>
      <g id="Group_18" data-name="Group 18" transform="translate(654.642 264.776)">
        <g id="Ellipse_15" data-name="Ellipse 15" transform="translate(-0.22 -0.02)" fill="none" stroke="#292d32" stroke-width="0.5">
          <circle cx="4.5" cy="4.5" r="4.5" stroke="none"/>
          <circle cx="4.5" cy="4.5" r="4.25" fill="none"/>
        </g>
        <g id="Group_17" data-name="Group 17" transform="translate(2.145 1.615)">
          <path id="Vector-3" data-name="Vector" d="M2.17,3.007A2.759,2.759,0,0,1,.639,2.575,1.31,1.31,0,0,1,0,1.5,1.312,1.312,0,0,1,.639.428,2.955,2.955,0,0,1,3.7.428,1.31,1.31,0,0,1,4.341,1.5,1.312,1.312,0,0,1,3.7,2.575a2.8,2.8,0,0,1-1.532.432Zm-1.149-2a.631.631,0,0,0-.332.5.635.635,0,0,0,.331.5A2.253,2.253,0,0,0,3.315,2a.631.631,0,0,0,.331-.5.635.635,0,0,0-.331-.5,2.265,2.265,0,0,0-2.295,0Z" transform="translate(0 2.832)" fill="#292d32"/>
          <path id="Vector-4" data-name="Vector" d="M1.416,2.832A1.416,1.416,0,1,1,2.832,1.416,1.416,1.416,0,0,1,1.416,2.832Zm0-2.143a.726.726,0,1,0,.726.726A.726.726,0,0,0,1.416.69Z" transform="translate(0.754)" fill="#292d32"/>
        </g>
      </g>
      <g id="Group_19" data-name="Group 19" transform="translate(674.802 264.776)">
        <g id="Group_17-2" data-name="Group 17" transform="translate(1.915 1.615)">
          <path id="Vector-5" data-name="Vector" d="M2.17,3.007A2.759,2.759,0,0,1,.639,2.575,1.31,1.31,0,0,1,0,1.5,1.312,1.312,0,0,1,.639.428,2.955,2.955,0,0,1,3.7.428,1.31,1.31,0,0,1,4.341,1.5,1.312,1.312,0,0,1,3.7,2.575a2.8,2.8,0,0,1-1.532.432Zm-1.149-2a.631.631,0,0,0-.332.5.635.635,0,0,0,.331.5A2.253,2.253,0,0,0,3.315,2a.631.631,0,0,0,.331-.5.635.635,0,0,0-.331-.5,2.265,2.265,0,0,0-2.295,0Z" transform="translate(0 2.832)" fill="#292d32"/>
          <path id="Vector-6" data-name="Vector" d="M1.416,2.832A1.416,1.416,0,1,1,2.832,1.416,1.416,1.416,0,0,1,1.416,2.832Zm0-2.143a.726.726,0,1,0,.726.726A.726.726,0,0,0,1.416.69Z" transform="translate(0.754)" fill="#292d32"/>
        </g>
        <g id="Ellipse_15-2" data-name="Ellipse 15" transform="translate(-0.38 -0.02)" fill="none" stroke="#292d32" stroke-width="0.5">
          <circle cx="4.5" cy="4.5" r="4.5" stroke="none"/>
          <circle cx="4.5" cy="4.5" r="4.25" fill="none"/>
        </g>
      </g>
      <g id="Group_20" data-name="Group 20" transform="translate(674.802 278.776)">
        <g id="Group_17-3" data-name="Group 17" transform="translate(1.915 1.505)">
          <path id="Vector-7" data-name="Vector" d="M2.17,3.007A2.759,2.759,0,0,1,.639,2.575,1.31,1.31,0,0,1,0,1.5,1.312,1.312,0,0,1,.639.428,2.955,2.955,0,0,1,3.7.428,1.31,1.31,0,0,1,4.341,1.5,1.312,1.312,0,0,1,3.7,2.575a2.8,2.8,0,0,1-1.532.432Zm-1.149-2a.631.631,0,0,0-.332.5.635.635,0,0,0,.331.5A2.253,2.253,0,0,0,3.315,2a.631.631,0,0,0,.331-.5.635.635,0,0,0-.331-.5,2.265,2.265,0,0,0-2.295,0Z" transform="translate(0 2.832)" fill="#292d32"/>
          <path id="Vector-8" data-name="Vector" d="M1.416,2.832A1.416,1.416,0,1,1,2.832,1.416,1.416,1.416,0,0,1,1.416,2.832Zm0-2.143a.726.726,0,1,0,.726.726A.726.726,0,0,0,1.416.69Z" transform="translate(0.754)" fill="#292d32"/>
        </g>
        <g id="Ellipse_15-3" data-name="Ellipse 15" transform="translate(-0.38 -0.02)" fill="none" stroke="#292d32" stroke-width="0.5">
          <circle cx="4.5" cy="4.5" r="4.5" stroke="none"/>
          <circle cx="4.5" cy="4.5" r="4.25" fill="none"/>
        </g>
      </g>
      <g id="Group_21" data-name="Group 21" transform="translate(654.642 278.776)">
        <g id="Group_17-4" data-name="Group 17" transform="translate(2.145 1.505)">
          <path id="Vector-9" data-name="Vector" d="M2.17,3.007A2.759,2.759,0,0,1,.639,2.575,1.31,1.31,0,0,1,0,1.5,1.312,1.312,0,0,1,.639.428,2.955,2.955,0,0,1,3.7.428,1.31,1.31,0,0,1,4.341,1.5,1.312,1.312,0,0,1,3.7,2.575a2.8,2.8,0,0,1-1.532.432Zm-1.149-2a.631.631,0,0,0-.332.5.635.635,0,0,0,.331.5A2.253,2.253,0,0,0,3.315,2a.631.631,0,0,0,.331-.5.635.635,0,0,0-.331-.5,2.265,2.265,0,0,0-2.295,0Z" transform="translate(0 2.832)" fill="#292d32"/>
          <path id="Vector-10" data-name="Vector" d="M1.416,2.832A1.416,1.416,0,1,1,2.832,1.416,1.416,1.416,0,0,1,1.416,2.832Zm0-2.143a.726.726,0,1,0,.726.726A.726.726,0,0,0,1.416.69Z" transform="translate(0.754)" fill="#292d32"/>
        </g>
        <g id="Ellipse_15-4" data-name="Ellipse 15" transform="translate(-0.22 -0.02)" fill="none" stroke="#292d32" stroke-width="0.5">
          <circle cx="4.5" cy="4.5" r="4.5" stroke="none"/>
          <circle cx="4.5" cy="4.5" r="4.25" fill="none"/>
        </g>
      </g>
    </g>
  </g>
</svg>
