<svg xmlns="http://www.w3.org/2000/svg" xmlns:xlink="http://www.w3.org/1999/xlink" width="49.979" height="49.867" viewBox="0 0 49.979 49.867">
  <defs>
    <radialGradient id="radial-gradient" cx="0.5" cy="0.5" r="0.5" gradientUnits="objectBoundingBox">
      <stop offset="0" stop-color="#f1f1f1" stop-opacity="0.831"/>
      <stop offset="0.143" stop-color="#eae8e8" stop-opacity="0.361"/>
      <stop offset="1" stop-color="#e8e8e8" stop-opacity="0.831"/>
    </radialGradient>
  </defs>
  <g id="testimonial" transform="translate(-815.011 -282.576)">
    <path id="Ellipse_1" data-name="Ellipse 1" d="M22.3-.058A22.431,22.431,0,1,1-.059,22.366,22.414,22.414,0,0,1,22.3-.058Z" transform="translate(815.075 326.924) rotate(-83)" fill="url(#radial-gradient)"/>
    <g id="vuesax_outline_messages-3" data-name="vuesax/outline/messages-3" transform="translate(229 -7)">
      <g id="messages-3" transform="translate(107 51)">
        <path id="Vector" d="M12.65,17.75a1.6,1.6,0,0,1-.89-.27l-.96-.63a.755.755,0,0,1-.31-.83,2.779,2.779,0,0,0,.1-.8V11.15A2.463,2.463,0,0,0,7.94,8.5H1.15c-.12,0-.23.01-.34.02a.8.8,0,0,1-.57-.2A.72.72,0,0,1,0,7.77V5A4.788,4.788,0,0,1,5,0h8.5a4.788,4.788,0,0,1,5,5v5.1a4.963,4.963,0,0,1-1.39,3.61,4.8,4.8,0,0,1-2.86,1.34v1.11a1.61,1.61,0,0,1-.85,1.42A1.821,1.821,0,0,1,12.65,17.75Zm-.6-1.88.65.37a.1.1,0,0,0,.06-.09V14.34a.755.755,0,0,1,.75-.75,3.489,3.489,0,0,0,2.55-.95,3.465,3.465,0,0,0,.95-2.55V4.99a3.276,3.276,0,0,0-3.5-3.5H5.01a3.276,3.276,0,0,0-3.5,3.5v2H7.95a3.974,3.974,0,0,1,4.15,4.15v4.07C12.09,15.44,12.08,15.66,12.05,15.87Z" transform="translate(496.25 253.26)" fill="#292d32"/>
        <path id="Vector-2" data-name="Vector" d="M4.82,14.5A1.413,1.413,0,0,1,3.4,13.07v-.76a4.023,4.023,0,0,1-2.24-1.09A4.134,4.134,0,0,1,0,8.22V4.15A3.956,3.956,0,0,1,3.68.02C3.84.01,3.99,0,4.15,0h6.79a3.974,3.974,0,0,1,4.15,4.15V8.22a4.288,4.288,0,0,1-.16,1.22,3.883,3.883,0,0,1-3.99,2.93H8.45L5.62,14.25A1.377,1.377,0,0,1,4.82,14.5Zm-.67-13c-.12,0-.23.01-.34.02A2.423,2.423,0,0,0,1.5,4.15V8.22a2.667,2.667,0,0,0,.72,1.94,2.662,2.662,0,0,0,1.93.71.755.755,0,0,1,.75.75v1.31L7.8,11a.771.771,0,0,1,.42-.13h2.72a2.4,2.4,0,0,0,2.54-1.82,3.086,3.086,0,0,0,.11-.83V4.15A2.463,2.463,0,0,0,10.94,1.5Z" transform="translate(493.25 260.25)" fill="#ff0101"/>
        <path id="Vector-3" data-name="Vector" d="M0,0H24V24H0Z" transform="translate(492 252)" fill="none" opacity="0"/>
      </g>
    </g>
    <path id="Vector-4" data-name="Vector" d="M1.573,5.375A.912.912,0,0,1,1.024,5.2,1.209,1.209,0,0,1,.682,3.84l.032-.133A.347.347,0,0,0,.657,3.5L.436,3.278A1.22,1.22,0,0,1,.045,2.059,1.208,1.208,0,0,1,1.068,1.3l.24-.038a.365.365,0,0,0,.158-.12l.177-.36A1.215,1.215,0,0,1,2.685,0,1.215,1.215,0,0,1,3.727.783l.177.36a.377.377,0,0,0,.158.12L4.3,1.3a1.208,1.208,0,0,1,1.023.758,1.215,1.215,0,0,1-.392,1.219L4.712,3.5a.347.347,0,0,0-.057.208l.032.133A1.209,1.209,0,0,1,4.346,5.2a1.194,1.194,0,0,1-1.389-.1L2.8,5.008a.314.314,0,0,0-.215,0L2.419,5.1A1.684,1.684,0,0,1,1.573,5.375ZM2.678.954a.7.7,0,0,0-.183.253l-.177.36a1.25,1.25,0,0,1-.846.632l-.24.038c-.2.032-.272.1-.278.114a.491.491,0,0,0,.164.259l.221.221a1.255,1.255,0,0,1,.309,1.08l-.032.133a.838.838,0,0,0-.019.392,1.563,1.563,0,0,0,.335-.152L2.1,4.187a1.218,1.218,0,0,1,1.194,0l.158.095a.743.743,0,0,0,.354.139,1.394,1.394,0,0,0-.038-.379l-.032-.133a1.249,1.249,0,0,1,.309-1.08l.221-.221a.474.474,0,0,0,.164-.265c-.006-.013-.076-.076-.278-.114l-.24-.038a1.236,1.236,0,0,1-.846-.632l-.177-.354C2.786,1.017,2.7.96,2.678.954Z" transform="translate(834.064 307.51)" fill="#ff0101"/>
  </g>
</svg>
