<svg xmlns="http://www.w3.org/2000/svg" width="11.905" height="11.833" viewBox="0 0 11.905 11.833">
  <path id="Icon_simple-ruby" data-name="Icon simple-ruby" d="M10,.114a2.108,2.108,0,0,1,1.9,2.366l.007-.015-.677,8.873-8.8.6h.008A2.182,2.182,0,0,1,0,9.567L.816,8.079l1.4,3.267.25.581L3.855,7.391l-.015,0,.008-.015L8.439,8.846,7.747,6.152,7.256,4.218l4.375-.282-.305-.253L8.185,1.122,10,.109v0ZM0,9.542v0ZM2.545,2.59C4.311.837,6.591-.2,7.467.685s-.052,3.028-1.822,4.78S1.625,8.309.752,7.428.774,4.344,2.543,2.591h0Z" transform="translate(0 -0.109)" fill="#db1010"/>
</svg>
