<svg id="Notifiche" xmlns="http://www.w3.org/2000/svg" width="25" height="26.124" viewBox="0 0 25 26.124">
  <path id="Path_Copy" data-name="Path Copy" d="M10.8,1.7a1.774,1.774,0,0,0,.1.57,6.359,6.359,0,0,0-3.686,1.7,4.9,4.9,0,0,0-1.42,3.749A18.173,18.173,0,0,1,4.3,14.992a14.4,14.4,0,0,1-1.234,2.38c-.036.056-.074.111-.111.167A15.14,15.14,0,0,1,0,20.786c0,.016,0,.029,0,.044l0,0a1.769,1.769,0,0,0,.568,1.313,1.886,1.886,0,0,0,1.35.568H9.091a3.407,3.407,0,0,0,.07.672l0-.022c0,.011,0,.022.007.033a3.419,3.419,0,0,0,2.61,2.645l.023,0c.015,0,.031,0,.046.007a3.289,3.289,0,0,0,.622.064h0c.011,0,.022,0,.033,0v0a3.408,3.408,0,0,0,3.409-3.4h7.173a1.885,1.885,0,0,0,1.35-.568A1.766,1.766,0,0,0,25,20.835a14.747,14.747,0,0,1-4.3-5.75,18.565,18.565,0,0,1-1.491-7.276,5.124,5.124,0,0,0-1.42-3.833A6.455,6.455,0,0,0,14.1,2.307a1.771,1.771,0,0,0,.107-.6A1.7,1.7,0,0,0,12.5,0,1.654,1.654,0,0,0,10.8,1.7Z" transform="translate(0 0.001)" fill="#28b67e"/>
</svg>
