<svg xmlns="http://www.w3.org/2000/svg" xmlns:xlink="http://www.w3.org/1999/xlink" width="585" height="719" viewBox="0 0 585 719">
  <defs>
    <linearGradient id="linear-gradient" x1="0.5" x2="0.5" y2="1" gradientUnits="objectBoundingBox">
      <stop offset="0" stop-color="#e7e7e7"/>
      <stop offset="1" stop-color="#a0abae"/>
    </linearGradient>
    <linearGradient id="linear-gradient-9" x1="0.5" x2="0.5" y2="1" gradientUnits="objectBoundingBox">
      <stop offset="0" stop-color="#fdfdfd"/>
      <stop offset="1" stop-color="#d5dfe1"/>
    </linearGradient>
    <linearGradient id="linear-gradient-10" x1="0.5" x2="0.5" y2="1" gradientUnits="objectBoundingBox">
      <stop offset="0" stop-color="#ededed"/>
      <stop offset="1" stop-color="#dce3e5"/>
    </linearGradient>
    <linearGradient id="linear-gradient-13" x1="0.5" x2="0.5" y2="1" gradientUnits="objectBoundingBox">
      <stop offset="0" stop-color="#a6ffdc"/>
      <stop offset="1" stop-color="#28b67e"/>
    </linearGradient>
    <linearGradient id="linear-gradient-14" x1="0.5" x2="0.5" y2="1" gradientUnits="objectBoundingBox">
      <stop offset="0" stop-color="#28b67e"/>
      <stop offset="1" stop-color="#1d4c4f"/>
    </linearGradient>
  </defs>
  <g id="Group_3" data-name="Group 3" transform="translate(-191 -338)">
    <path id="Fill_126_Copy_2" data-name="Fill 126 Copy 2" d="M0,115.51S83.847,37.069,106.216,25.16c0,0,55.9-42.731,92.236-16.818,0,0,27.252,18.915,43.331,18.221,0,0,30.743,1.4,72.666-7.014,0,0,21.661-2.8,26.552,10.513L125.785,129.515S9.789,209.374,0,257V115.51" transform="translate(191 800)" fill="#d3dcde"/>
    <path id="Fill_127_Copy_2" data-name="Fill 127 Copy 2" d="M2.342,197s90.989-25.127,191.09-17.445c0,0,17.509-.691,47.6-26.533,0,0,53.9-12.8,82.831-38.847,0,0,84-49.34,89.132-51.2,0,0-6.994-17.223-33.131-11.162,0,0,17.732-17.691,26.137-36.3,0,0,1.394-13.966-14-12.575,0,0-22.408.469-43.869,40.03,0,0-8.4,6.975-10.73,7.92,0,0,20.066-29.321,17.725-45.615,0,0-14.466-19.074-35,15.356,0,0-24.735,36.3-35.927,44.67,0,0,4.66-31.641,5.608-33.5,0,0-16.808-18.621-39.209,43.287,0,0-22.393,9.771-32.669,22.8L0,164.429,2.342,197" transform="translate(314 732)" fill="#d3dcde"/>
    <g id="Fill_128_Copy_2" data-name="Fill 128 Copy 2" transform="translate(10568.5 13751)">
      <path id="Fill_128_Copy_2-2" data-name="Fill 128 Copy 2" d="M210,31.551s.931-21.639-67.107-5.645c0,0-34.015,9.41-65.238-13.168,0,0-41.715-27.369-77.654-1.871,0,0,67.4,45.608,210,20.684" transform="translate(-10246.5 -12951)" fill="url(#linear-gradient)"/>
      <path id="Fill_128_Copy_2-3" data-name="Fill 128 Copy 2" d="M210,31.551s.931-21.639-67.107-5.645c0,0-34.015,9.41-65.238-13.168,0,0-41.715-27.369-77.654-1.871,0,0,67.4,45.608,210,20.684" transform="translate(-10246.5 -12951)" fill="none"/>
    </g>
    <g id="Fill_129_Copy_2" data-name="Fill 129 Copy 2" transform="translate(10568.5 13751)">
      <path id="Fill_129_Copy_2-2" data-name="Fill 129 Copy 2" d="M147,0,85.6,89.323,52.568,123.279,0,147l48.852-27.906L80.941,85.6s3-4.5,7.656-20.326c0,0,23.973-29.91,28.634-35.969,0,0,16.025-29.3,29.77-29.3" transform="translate(-10058.5 -13019)" fill="url(#linear-gradient)"/>
      <path id="Fill_129_Copy_2-3" data-name="Fill 129 Copy 2" d="M147,0,85.6,89.323,52.568,123.279,0,147l48.852-27.906L80.941,85.6s3-4.5,7.656-20.326c0,0,23.973-29.91,28.634-35.969,0,0,16.025-29.3,29.77-29.3" transform="translate(-10058.5 -13019)" fill="none"/>
    </g>
    <g id="Fill_130_Copy_2" data-name="Fill 130 Copy 2" transform="translate(10568.5 13751)">
      <path id="Fill_130_Copy_2-2" data-name="Fill 130 Copy 2" d="M0,145l54.809-28.055L116.58,69.234,166,.5s-23.146-8.083-50.815,40.67l-9.369,7.18S89.639,77.186,82.21,84.667c0,0-20.186,18.235-30.192,28.534L0,145" transform="translate(-10023.5 -13016)" fill="url(#linear-gradient)"/>
      <path id="Fill_130_Copy_2-3" data-name="Fill 130 Copy 2" d="M0,145l54.809-28.055L116.58,69.234,166,.5s-23.146-8.083-50.815,40.67l-9.369,7.18S89.639,77.186,82.21,84.667c0,0-20.186,18.235-30.192,28.534L0,145" transform="translate(-10023.5 -13016)" fill="none"/>
    </g>
    <g id="Fill_131_Copy_2" data-name="Fill 131 Copy 2" transform="translate(10568.5 13751)">
      <path id="Fill_131_Copy_2-2" data-name="Fill 131 Copy 2" d="M82,4.079,27.826,43.349,0,63,23.05,41.481s23.839-16.655,34.9-39.363c0,0,12.635-5.884,24.045,1.961" transform="translate(-9932.5 -12969)" fill="url(#linear-gradient)"/>
      <path id="Fill_131_Copy_2-3" data-name="Fill 131 Copy 2" d="M82,4.079,27.826,43.349,0,63,23.05,41.481s23.839-16.655,34.9-39.363c0,0,12.635-5.884,24.045,1.961" transform="translate(-9932.5 -12969)" fill="none"/>
    </g>
    <g id="Fill_136_Copy_2" data-name="Fill 136 Copy 2" transform="translate(10568.5 13751)">
      <path id="Fill_136_Copy_2-2" data-name="Fill 136 Copy 2" d="M0,7.455S-.938,29.086,67.116,13.1c0,0,34.015-9.41,65.238,13.16,0,0,41.715,27.369,77.646,1.879,0,0-67.392-45.622-210-20.684" transform="translate(-10133.5 -13194)" fill="url(#linear-gradient)"/>
      <path id="Fill_136_Copy_2-3" data-name="Fill 136 Copy 2" d="M0,7.455S-.938,29.086,67.116,13.1c0,0,34.015-9.41,65.238,13.16,0,0,41.715,27.369,77.646,1.879,0,0-67.392-45.622-210-20.684" transform="translate(-10133.5 -13194)" fill="none"/>
    </g>
    <g id="Fill_137_Copy_2" data-name="Fill 137 Copy 2" transform="translate(10568.5 13751)">
      <path id="Fill_137_Copy_2-2" data-name="Fill 137 Copy 2" d="M0,147,61.414,57.68,94.432,23.714,147,0,98.148,27.9,66.059,61.4s-3,4.5-7.656,20.32c0,0-23.973,29.927-28.626,35.978,0,0-16.018,29.3-29.778,29.3" transform="translate(-10258.5 -13235)" fill="url(#linear-gradient)"/>
      <path id="Fill_137_Copy_2-3" data-name="Fill 137 Copy 2" d="M0,147,61.414,57.68,94.432,23.714,147,0,98.148,27.9,66.059,61.4s-3,4.5-7.656,20.32c0,0-23.973,29.927-28.626,35.978,0,0-16.018,29.3-29.778,29.3" transform="translate(-10258.5 -13235)" fill="none"/>
    </g>
    <g id="Fill_138_Copy_2" data-name="Fill 138 Copy 2" transform="translate(10568.5 13751)">
      <path id="Fill_138_Copy_2-2" data-name="Fill 138 Copy 2" d="M166,0,111.191,28.047,49.412,75.75,0,144.5s23.154,8.091,50.815-40.685l9.376-7.172S76.361,67.806,83.8,60.325c0,0,20.186-18.243,30.176-28.534L166,0" transform="translate(-10313.5 -13236)" fill="url(#linear-gradient)"/>
      <path id="Fill_138_Copy_2-3" data-name="Fill 138 Copy 2" d="M166,0,111.191,28.047,49.412,75.75,0,144.5s23.154,8.091,50.815-40.685l9.376-7.172S76.361,67.806,83.8,60.325c0,0,20.186-18.243,30.176-28.534L166,0" transform="translate(-10313.5 -13236)" fill="none"/>
    </g>
    <g id="Fill_139_Copy_2" data-name="Fill 139 Copy 2" transform="translate(10568.5 13751)">
      <path id="Fill_139_Copy_2-2" data-name="Fill 139 Copy 2" d="M0,58.915,54.182,19.643,82,0,58.957,21.512S35.111,38.175,24.045,60.884c0,0-12.627,5.884-24.045-1.969" transform="translate(-10319.5 -13201)" fill="url(#linear-gradient)"/>
      <path id="Fill_139_Copy_2-3" data-name="Fill 139 Copy 2" d="M0,58.915,54.182,19.643,82,0,58.957,21.512S35.111,38.175,24.045,60.884c0,0-12.627,5.884-24.045-1.969" transform="translate(-10319.5 -13201)" fill="none"/>
    </g>
    <g id="Fill_141_Copy_2" data-name="Fill 141 Copy 2" transform="translate(10568.5 13751)">
      <path id="Fill_141_Copy_2-2" data-name="Fill 141 Copy 2" d="M0,106.806S21.946,88.765,27.546,63.538c0,0,32.661-24.787,34.525-31.318L108.967,0S304.955,38.735,332,25.929c0,0-30.881,29-49.839,34.232,0,0-69.366-44.918-210.292-20.539,0,0-12.14,17.525-32.668,23.747,0,0-20.228,61.063-39.2,43.438" transform="translate(-10205.5 -13227)" fill="url(#linear-gradient-9)"/>
      <path id="Fill_141_Copy_2-3" data-name="Fill 141 Copy 2" d="M0,106.806S21.946,88.765,27.546,63.538c0,0,32.661-24.787,34.525-31.318L108.967,0S304.955,38.735,332,25.929c0,0-30.881,29-49.839,34.232,0,0-69.366-44.918-210.292-20.539,0,0-12.14,17.525-32.668,23.747,0,0-20.228,61.063-39.2,43.438" transform="translate(-10205.5 -13227)" fill="none"/>
    </g>
    <g id="Group_2" data-name="Group 2">
      <g id="Group_1" data-name="Group 1">
        <g id="Fill_132_Copy_2" data-name="Fill 132 Copy 2" transform="translate(10568.5 13751)">
          <path id="Fill_132_Copy_2-2" data-name="Fill 132 Copy 2" d="M0,166V92.672L123.627,6.629S176.354-15.75,317,21.73c0,0-132.953.851-191.032,17.417C125.968,39.147,5.6,124.324,0,166" transform="translate(-10377.5 -12860)" fill="url(#linear-gradient-10)"/>
          <path id="Fill_132_Copy_2-3" data-name="Fill 132 Copy 2" d="M0,166V92.672L123.627,6.629S176.354-15.75,317,21.73c0,0-132.953.851-191.032,17.417C125.968,39.147,5.6,124.324,0,166" transform="translate(-10377.5 -12860)" fill="none"/>
        </g>
        <g id="Fill_133_Copy_2" data-name="Fill 133 Copy 2" transform="translate(10568.5 13751)">
          <path id="Fill_133_Copy_2-2" data-name="Fill 133 Copy 2" d="M332,3.194s-21.953,18.034-27.545,43.268c0,0-32.66,24.788-34.524,31.318L223.028,110S27.045,71.257,0,84.079c0,0,30.888-29.013,49.837-34.232,0,0,69.364,44.911,210.287,20.539,0,0,12.14-17.532,32.668-23.747,0,0,20.228-61.071,39.207-43.446" transform="translate(-10296.5 -12990)" fill="url(#linear-gradient-9)"/>
          <path id="Fill_133_Copy_2-3" data-name="Fill 133 Copy 2" d="M332,3.194s-21.953,18.034-27.545,43.268c0,0-32.66,24.788-34.524,31.318L223.028,110S27.045,71.257,0,84.079c0,0,30.888-29.013,49.837-34.232,0,0,69.364,44.911,210.287,20.539,0,0,12.14-17.532,32.668-23.747,0,0,20.228-61.071,39.207-43.446" transform="translate(-10296.5 -12990)" fill="none"/>
        </g>
        <path id="Fill_134_Copy_2" data-name="Fill 134 Copy 2" d="M341,141.5s-83.854,78.448-106.216,90.341c0,0-55.9,42.739-92.228,16.818,0,0-27.252-18.907-43.331-18.205,0,0-30.743-1.4-72.666,7.006,0,0-21.669,2.806-26.56-10.513l215.222-99.451S331.219,47.648,341,0V141.5" transform="translate(435 338)" fill="#d3dcde"/>
        <path id="Fill_135_Copy_2" data-name="Fill 135 Copy 2" d="M410.674,0s-91.006,25.135-191.1,17.446c0,0-17.5.691-47.606,26.533,0,0-53.892,12.79-82.833,38.847,0,0-84,49.341-89.134,51.2,0,0,6.995,17.215,33.132,11.169,0,0-17.733,17.684-26.137,36.3,0,0-1.387,13.966,14,12.575,0,0,22.4-.469,43.862-40.022,0,0,8.4-6.99,10.738-7.928,0,0-20.075,29.329-17.725,45.615,0,0,14.459,19.074,34.988-15.364,0,0,24.743-36.289,35.935-44.67,0,0-4.66,31.649-5.6,33.508,0,0,16.8,18.621,39.2-43.28,0,0,22.393-9.771,32.669-22.807L413,32.563,410.674,0" transform="translate(240 466)" fill="#d3dcde"/>
        <g id="Fill_140_Copy_2" data-name="Fill 140 Copy 2" transform="translate(10568.5 13751)">
          <path id="Fill_140_Copy_2-2" data-name="Fill 140 Copy 2" d="M317,0V73.341L193.365,159.367S140.661,181.753,0,144.274c0,0,132.961-.851,191.039-17.417,0,0,120.37-85.175,125.961-126.857" transform="translate(-10109.5 -13413)" fill="url(#linear-gradient-10)"/>
          <path id="Fill_140_Copy_2-3" data-name="Fill 140 Copy 2" d="M317,0V73.341L193.365,159.367S140.661,181.753,0,144.274c0,0,132.961-.851,191.039-17.417,0,0,120.37-85.175,125.961-126.857" transform="translate(-10109.5 -13413)" fill="none"/>
        </g>
        <g id="Group_30" data-name="Group 30" transform="matrix(0.996, 0.087, -0.087, 0.996, 441.718, 618.142)">
          <g id="Combined_Shape" data-name="Combined Shape">
            <path id="Combined_Shape-2" data-name="Combined Shape" d="M110.133,149H7.867A7.864,7.864,0,0,1,0,141.158V7.842A7.863,7.863,0,0,1,7.867,0H74.733L118,43.132v98.026A7.864,7.864,0,0,1,110.133,149ZM54.355,44.945a3.141,3.141,0,0,0-3.14,3.135v66.934a3.237,3.237,0,0,0,.559,1.821,3.136,3.136,0,0,0,2.5,1.384h.083a3.141,3.141,0,0,0,3.139-3.135V99.878a2.462,2.462,0,0,1,4.611-1.2c.02.035.038.07.056.106s.035.072.05.108.031.075.046.112.028.076.041.115.024.078.035.118.021.081.03.122.016.083.023.125v.008c.006.041.012.08.016.122s.008.088.011.133,0,.085,0,.129v5.078a2.651,2.651,0,0,0,2.652,2.648h.976a2.653,2.653,0,0,0,2.652-2.648V58.208a2.647,2.647,0,0,0-2.652-2.648h-.976a2.653,2.653,0,0,0-2.652,2.648v5.077a2.469,2.469,0,0,1-2.264,2.45c-.042,0-.085.005-.127.007H59.9c-.055,0-.094,0-.126-.006s-.077-.006-.127-.013L59.52,65.7c-.043-.008-.085-.016-.127-.026s-.085-.022-.126-.033-.086-.026-.127-.041l-.127-.049c-.042-.018-.085-.037-.126-.057s-.084-.042-.12-.062-.082-.045-.119-.07-.08-.052-.109-.073-.07-.05-.1-.076-.066-.053-.1-.08-.061-.055-.091-.084-.059-.058-.086-.087-.055-.06-.081-.091A1.151,1.151,0,0,1,58,64.782c-.024-.031-.048-.063-.071-.1a2.434,2.434,0,0,1-.438-1.4V48.151a3.244,3.244,0,0,0-.433-1.619,3.11,3.11,0,0,0-2.624-1.586ZM41.928,66.328a3.143,3.143,0,0,0-3.141,3.138V93.834a3.141,3.141,0,0,0,6.282,0V69.467a3.137,3.137,0,0,0-3.141-3.138Zm36.738,5.584a3.14,3.14,0,0,0-3.141,3.131V88.121a3.141,3.141,0,0,0,6.283,0V75.043a3.123,3.123,0,0,0-.415-1.555A3.155,3.155,0,0,0,78.666,71.912ZM28.68,75.045a3.148,3.148,0,0,0-3.141,3.147v6.781a3.141,3.141,0,1,0,6.282,0V78.192a3.143,3.143,0,0,0-3.141-3.147Zm60.844,3.677a2.929,2.929,0,1,0,2.553,1.48A2.935,2.935,0,0,0,89.524,78.722ZM60.612,92.045h-.026l-.127-.005c-.041,0-.083-.007-.126-.013s-.092-.013-.127-.02c-.053-.01-.093-.019-.127-.028s-.09-.025-.126-.036c-.052-.016-.1-.033-.127-.044l-.022-.009c-.035-.015-.07-.029-.1-.045s-.077-.036-.125-.062-.079-.044-.116-.068a1.156,1.156,0,0,1-.11-.073c-.034-.024-.068-.05-.1-.076l-.017-.014c-.027-.022-.053-.044-.078-.068s-.051-.046-.09-.085l-.083-.088c-.027-.031-.052-.061-.077-.093s-.049-.064-.072-.1a2.158,2.158,0,0,1-.4-1.25V72.527A2.178,2.178,0,0,1,62.52,71.48c.017.03.035.065.055.106s.034.073.049.11.03.075.043.113.027.081.037.116.022.079.031.121.017.083.024.124.012.081.017.13.008.093.01.134,0,.062,0,.093V89.87a2.161,2.161,0,0,1-1.7,2.121q-.062.014-.127.024l-.126.017c-.046,0-.087.007-.127.009Z" fill="#50e6ff"/>
            <path id="Combined_Shape-3" data-name="Combined Shape" d="M110.133,149H7.867A7.864,7.864,0,0,1,0,141.158V7.842A7.863,7.863,0,0,1,7.867,0H74.733L118,43.132v98.026A7.864,7.864,0,0,1,110.133,149ZM54.355,44.945a3.141,3.141,0,0,0-3.14,3.135v66.934a3.237,3.237,0,0,0,.559,1.821,3.136,3.136,0,0,0,2.5,1.384h.083a3.141,3.141,0,0,0,3.139-3.135V99.878a2.462,2.462,0,0,1,4.611-1.2c.02.035.038.07.056.106s.035.072.05.108.031.075.046.112.028.076.041.115.024.078.035.118.021.081.03.122.016.083.023.125v.008c.006.041.012.08.016.122s.008.088.011.133,0,.085,0,.129v5.078a2.651,2.651,0,0,0,2.652,2.648h.976a2.653,2.653,0,0,0,2.652-2.648V58.208a2.647,2.647,0,0,0-2.652-2.648h-.976a2.653,2.653,0,0,0-2.652,2.648v5.077a2.469,2.469,0,0,1-2.264,2.45c-.042,0-.085.005-.127.007H59.9c-.055,0-.094,0-.126-.006s-.077-.006-.127-.013L59.52,65.7c-.043-.008-.085-.016-.127-.026s-.085-.022-.126-.033-.086-.026-.127-.041l-.127-.049c-.042-.018-.085-.037-.126-.057s-.084-.042-.12-.062-.082-.045-.119-.07-.08-.052-.109-.073-.07-.05-.1-.076-.066-.053-.1-.08-.061-.055-.091-.084-.059-.058-.086-.087-.055-.06-.081-.091A1.151,1.151,0,0,1,58,64.782c-.024-.031-.048-.063-.071-.1a2.434,2.434,0,0,1-.438-1.4V48.151a3.244,3.244,0,0,0-.433-1.619,3.11,3.11,0,0,0-2.624-1.586ZM41.928,66.328a3.143,3.143,0,0,0-3.141,3.138V93.834a3.141,3.141,0,0,0,6.282,0V69.467a3.137,3.137,0,0,0-3.141-3.138Zm36.738,5.584a3.14,3.14,0,0,0-3.141,3.131V88.121a3.141,3.141,0,0,0,6.283,0V75.043a3.123,3.123,0,0,0-.415-1.555A3.155,3.155,0,0,0,78.666,71.912ZM28.68,75.045a3.148,3.148,0,0,0-3.141,3.147v6.781a3.141,3.141,0,1,0,6.282,0V78.192a3.143,3.143,0,0,0-3.141-3.147Zm60.844,3.677a2.929,2.929,0,1,0,2.553,1.48A2.935,2.935,0,0,0,89.524,78.722ZM60.612,92.045h-.026l-.127-.005c-.041,0-.083-.007-.126-.013s-.092-.013-.127-.02c-.053-.01-.093-.019-.127-.028s-.09-.025-.126-.036c-.052-.016-.1-.033-.127-.044l-.022-.009c-.035-.015-.07-.029-.1-.045s-.077-.036-.125-.062-.079-.044-.116-.068a1.156,1.156,0,0,1-.11-.073c-.034-.024-.068-.05-.1-.076l-.017-.014c-.027-.022-.053-.044-.078-.068s-.051-.046-.09-.085l-.083-.088c-.027-.031-.052-.061-.077-.093s-.049-.064-.072-.1a2.158,2.158,0,0,1-.4-1.25V72.527A2.178,2.178,0,0,1,62.52,71.48c.017.03.035.065.055.106s.034.073.049.11.03.075.043.113.027.081.037.116.022.079.031.121.017.083.024.124.012.081.017.13.008.093.01.134,0,.062,0,.093V89.87a2.161,2.161,0,0,1-1.7,2.121q-.062.014-.127.024l-.126.017c-.046,0-.087.007-.127.009Z" fill="url(#linear-gradient-13)"/>
          </g>
          <g id="Path">
            <path id="Path-2" data-name="Path" d="M0,0V35.182A7.816,7.816,0,0,0,7.818,43H43Z" transform="translate(75)" fill="none"/>
            <path id="Path-3" data-name="Path" d="M0,0V35.182A7.816,7.816,0,0,0,7.818,43H43Z" transform="translate(75)" fill="url(#linear-gradient-14)"/>
          </g>
        </g>
      </g>
    </g>
  </g>
</svg>
