<svg xmlns="http://www.w3.org/2000/svg" width="29.512" height="27.25" viewBox="0 0 29.512 27.25">
  <g id="Carrello" transform="translate(0.25 0.25)">
    <path id="Shape" d="M11.6,19a2.917,2.917,0,0,1-2.839-2.146L5.038,2.559a1,1,0,0,0-.977-.735H.947A.934.934,0,0,1,0,.912.935.935,0,0,1,.947,0H4.061A2.916,2.916,0,0,1,6.9,2.147l.58,2.176H26.074a2.979,2.979,0,0,1,2.291,1.088,2.621,2.621,0,0,1,.549,2.382l-2.29,9.059A2.889,2.889,0,0,1,23.784,19Z" fill="#28b67e" stroke="#1ab77c" stroke-miterlimit="10" stroke-width="0.5"/>
    <path id="Shape-2" data-name="Shape" d="M0,2.5A2.513,2.513,0,0,0,2.5,5,2.513,2.513,0,0,0,5,2.5,2.514,2.514,0,0,0,2.5,0,2.513,2.513,0,0,0,0,2.5Z" transform="translate(10 22)" fill="#28b67e"/>
    <path id="Shape-3" data-name="Shape" d="M2.5,0A2.514,2.514,0,0,0,0,2.5,2.514,2.514,0,0,0,2.5,5,2.514,2.514,0,0,0,5,2.5,2.529,2.529,0,0,0,2.5,0Z" transform="translate(21 22)" fill="#28b67e"/>
  </g>
</svg>
