<svg xmlns="http://www.w3.org/2000/svg" xmlns:xlink="http://www.w3.org/1999/xlink" width="118" height="118" viewBox="0 0 118 118">
  <defs>
    <filter id="Rectangle_Copy" x="0" y="0" width="118" height="118" filterUnits="userSpaceOnUse">
      <feOffset dy="-15" input="SourceAlpha"/>
      <feGaussianBlur stdDeviation="10" result="blur"/>
      <feFlood flood-color="#fff" flood-opacity="0.651"/>
      <feComposite operator="in" in2="blur"/>
    </filter>
  </defs>
  <g id="Upload_" data-name="Upload +" transform="translate(30 45)">
    <g id="Upload_più" data-name="Upload più">
      <g id="Rectangle_Copy-2" data-name="Rectangle Copy">
        <g transform="matrix(1, 0, 0, 1, -30, -45)" filter="url(#Rectangle_Copy)">
          <rect id="Rectangle_Copy-3" data-name="Rectangle Copy" width="58" height="58" rx="29" transform="translate(30 45)" fill="#fff"/>
        </g>
        <rect id="Rectangle_Copy-4" data-name="Rectangle Copy" width="58" height="58" rx="29" fill="#f7f7f7"/>
      </g>
      <path id="Shape" d="M30,15a1.789,1.789,0,0,1-1.789,1.789H16.79V28.211a1.789,1.789,0,1,1-3.578,0V16.789H1.789a1.789,1.789,0,0,1,0-3.578H13.212V1.789a1.789,1.789,0,1,1,3.578,0V13.212H28.211A1.788,1.788,0,0,1,30,15Z" transform="translate(14 14)" fill="#28b67e"/>
    </g>
  </g>
</svg>
