<svg id="Account" xmlns="http://www.w3.org/2000/svg" width="27" height="27" viewBox="0 0 27 27">
  <g id="Group_2_Copy" data-name="Group 2 Copy">
    <path id="Shape" d="M13.551,27H13.5A13.5,13.5,0,0,1,8.334,1.028,13.5,13.5,0,0,1,23.48,22.59a13.744,13.744,0,0,1-1.516,1.427A13.4,13.4,0,0,1,13.551,27ZM13.5,1.795A11.7,11.7,0,0,0,4.3,20.722a6.207,6.207,0,0,1,3.13-3.739A12.33,12.33,0,0,1,13.5,15.475a12.332,12.332,0,0,1,6.07,1.508A6.21,6.21,0,0,1,22.7,20.721,11.7,11.7,0,0,0,13.5,1.795Z" fill="#d3dcde"/>
    <path id="Path" d="M9.156,3.575A4.64,4.64,0,1,1,3.575.125a4.64,4.64,0,0,1,5.581,3.45" transform="translate(9.281 4.219)"/>
  </g>
</svg>
