<svg id="after-effects" xmlns="http://www.w3.org/2000/svg" width="63.338" height="61.755" viewBox="0 0 63.338 61.755">
  <path id="Path_15663" data-name="Path 15663" d="M11.216,0H52.122A11.207,11.207,0,0,1,63.338,11.216V50.539A11.207,11.207,0,0,1,52.122,61.755H11.216A11.207,11.207,0,0,1,0,50.539V11.216A11.207,11.207,0,0,1,11.216,0Z" transform="translate(0 0)" fill="#00005b"/>
  <g id="Group_6864" data-name="Group 6864" transform="translate(7.836 15.887)">
    <path id="Path_15664" data-name="Path 15664" d="M326.886,648.13h-9.817l-2.006,6.228a.462.462,0,0,1-.5.369H309.6c-.29,0-.369-.158-.29-.475l8.5-24.359c.079-.264.158-.5.264-.818a9.208,9.208,0,0,0,.158-1.716.261.261,0,0,1,.211-.29h6.835c.185,0,.317.079.343.211l9.633,26.919c.079.29,0,.422-.264.422h-5.516a.4.4,0,0,1-.422-.29L326.886,648v.132Zm-8.287-5.252h6.7c-.158-.554-.369-1.214-.607-1.9-.238-.712-.475-1.478-.712-2.27-.264-.818-.5-1.61-.765-2.428s-.5-1.583-.712-2.349c-.211-.739-.4-1.425-.581-2.059h-.053a32.4,32.4,0,0,1-.9,3.4c-.4,1.267-.792,2.586-1.214,3.906-.343,1.346-.765,2.586-1.161,3.695Zm32.2,2.877H342.43a5.818,5.818,0,0,0,.818,2.349,4.185,4.185,0,0,0,1.927,1.583,8.207,8.207,0,0,0,3.378.66,15.868,15.868,0,0,0,2.745-.29,9.915,9.915,0,0,0,2.349-.607c.132-.106.211-.053.211.211V653.7a1.325,1.325,0,0,1-.053.317.615.615,0,0,1-.185.185,11.3,11.3,0,0,1-2.639.792,17.837,17.837,0,0,1-3.748.317,12.506,12.506,0,0,1-5.067-.924,8.887,8.887,0,0,1-3.325-2.507,9.683,9.683,0,0,1-1.821-3.457,13.671,13.671,0,0,1,.105-8.049,10.774,10.774,0,0,1,1.979-3.616,9.565,9.565,0,0,1,3.193-2.507,9.966,9.966,0,0,1,4.407-.818,9.536,9.536,0,0,1,4.091.818,7.271,7.271,0,0,1,2.771,2.111,9.665,9.665,0,0,1,1.584,3.009,10.383,10.383,0,0,1,.5,3.22c0,.633-.026,1.188-.053,1.689-.053.5-.079.871-.106,1.108a.394.394,0,0,1-.369.343c-.158,0-.449.026-.871.053a12.525,12.525,0,0,1-1.531.079c-.607,0-1.24-.106-1.927-.106ZM342.43,641.9H348c.686,0,1.188,0,1.5-.026a1.292,1.292,0,0,0,.607-.211V641.4a3.026,3.026,0,0,0-.158-.976A3.493,3.493,0,0,0,346.521,638a3.715,3.715,0,0,0-3.51,2.006,5.475,5.475,0,0,0-.581,1.9Z" transform="translate(-309.281 -627.07)" fill="#99f"/>
  </g>
</svg>
