<svg xmlns="http://www.w3.org/2000/svg" width="59.695" height="64.949" viewBox="0 0 59.695 64.949">
  <g id="Group_479" data-name="Group 479" transform="translate(-171.083 -312.722)">
    <path id="Path_3431" data-name="Path 3431" d="M205.5,312.722c.878.11,1.758.2,2.633.334.809.121,1.008.379.947,1.2-.127,1.686-.265,3.371-.4,5.056-.052.631-.42,1-.946.956a.9.9,0,0,1-.805-1.084c.09-1.18.2-2.358.3-3.537.024-.291.039-.584.062-.932a30.542,30.542,0,0,0-7.476,0c.1,1.28.2,2.516.3,3.753.015.189.044.378.055.568.052.86-.175,1.15-1.016,1.3a24.335,24.335,0,0,0-7.448,2.572c-.872.47-1.7,1.018-2.543,1.546-.643.4-.979.384-1.49-.184-.975-1.084-1.938-2.178-2.947-3.314a30.091,30.091,0,0,0-5.414,5.4c.195.182.369.352.552.515.884.788,1.771,1.571,2.654,2.359.7.625.74.917.218,1.676a24.91,24.91,0,0,0-3.8,8.643c-.094.411-.172.826-.249,1.241a.947.947,0,0,1-1.119.86q-1.487-.1-2.974-.187c-.482-.029-.964-.049-1.5-.076a30.613,30.613,0,0,0-.019,7.581c.47,0,.926.02,1.38,0,1.013-.053,2.024-.136,3.037-.189.77-.04,1.071.17,1.2.9a25.11,25.11,0,0,0,4.142,9.982c.4.583.343.939-.21,1.436-1.084.974-2.176,1.937-3.315,2.949a30.41,30.41,0,0,0,5.41,5.426c.779-.877,1.555-1.732,2.31-2.6,1.334-1.541,1.292-1.453,2.862-.42A24.649,24.649,0,0,0,199,370.05c.815.153,1.02.429.97,1.261-.086,1.43-.163,2.861-.248,4.353a30.059,30.059,0,0,0,7.653,0c-.08-1.394-.157-2.74-.234-4.086-.009-.169-.016-.338-.023-.507a.867.867,0,1,1,1.725-.105c.13,1.792.233,3.585.329,5.379a.845.845,0,0,1-.807.955,31.512,31.512,0,0,1-9.6,0c-.655-.1-.892-.443-.85-1.172.076-1.329.153-2.659.244-3.987.022-.321-.042-.5-.4-.572a26.474,26.474,0,0,1-8.949-3.734,1.712,1.712,0,0,0-.233-.1c-.912,1.028-1.835,2.066-2.755,3.107-.744.842-1.025.875-1.9.207a32.26,32.26,0,0,1-6.33-6.363c-.544-.726-.508-1.049.184-1.663l3.26-2.9a27.055,27.055,0,0,1-3.971-9.576c-1.413.079-2.8.161-4.187.233-1.215.063-1.349-.076-1.512-1.31a33.736,33.736,0,0,1,.026-8.848c.111-.85.39-1.091,1.254-1.045,1.453.077,2.905.161,4.414.245a27.078,27.078,0,0,1,3.978-9.571l-3.278-2.919c-.68-.606-.711-.928-.157-1.666a32.286,32.286,0,0,1,6.435-6.435c.721-.542,1.07-.507,1.673.17q1.392,1.563,2.781,3.128a1.11,1.11,0,0,0,.158.111,27.558,27.558,0,0,1,9.71-3.974c-.117-1.483-.243-2.91-.339-4.339-.064-.944.12-1.168,1.045-1.3.833-.122,1.671-.21,2.507-.312Z" fill="#2a2a2a"/>
    <path id="Path_3432" data-name="Path 3432" d="M203.3,358.907a7.119,7.119,0,0,1-1.919-7.817,7.029,7.029,0,0,1,4.852-4.539.613.613,0,0,0,.524-.685,5.7,5.7,0,0,1,5.343-5.653.811.811,0,0,0,.738-.451,5.763,5.763,0,0,1,10.833,2.809c.022,4.883.007,9.766.007,14.648v.793c.255.014.459.034.663.034q8.973,0,17.946.009a.885.885,0,0,0,.9-.491,2.447,2.447,0,0,1,2.864-1.061,2.55,2.55,0,0,1-.057,4.88,2.451,2.451,0,0,1-2.807-1.079.925.925,0,0,0-.946-.51q-8.91.023-17.819.01h-.74v.75c0,4.862.009,9.724,0,14.585a5.769,5.769,0,0,1-5.09,5.908,5.688,5.688,0,0,1-5.691-2.89.919.919,0,0,0-.808-.558,5.7,5.7,0,0,1-5.333-5.658c-.017-.361-.076-.535-.474-.656a7.238,7.238,0,0,1-3.119-12.2A1.784,1.784,0,0,0,203.3,358.907Zm11.167,18.481c.12.167.239.361.385.532a4.008,4.008,0,0,0,7.058-2.582c.014-5.051.006-10.1,0-15.155a2.383,2.383,0,0,0-.05-.351,1.762,1.762,0,0,0-.22-.032q-8.117,0-16.233.009a1.24,1.24,0,0,0-.729.29,5.3,5.3,0,0,0-1.914,5.089c.428,2.965,3.834,5.617,7.077,4.176.288-.128.472-.223.439-.626a2.5,2.5,0,0,1,1.727-2.648,2.546,2.546,0,1,1-.362,4.686.788.788,0,0,0-.51-.066c-.854.284-1.7.6-2.583.92a3.814,3.814,0,0,0,1.923,3.693,3.943,3.943,0,0,0,4.357-.2.731.731,0,0,0,.144-.469,6.929,6.929,0,0,1,.058-1.434,2.5,2.5,0,0,1,3.111-1.685,2.545,2.545,0,0,1-1.386,4.9,1.032,1.032,0,0,0-.645-.045C215.562,376.674,215.041,377.032,214.47,377.388ZM221.918,358c0-2.359,0-4.659,0-6.959,0-2.874.017-5.747-.009-8.621a3.967,3.967,0,0,0-3.048-3.816,3.9,3.9,0,0,0-4.389,1.89c1.009.364,1.78,1.469,3.068.931a.4.4,0,0,1,.188.012,2.551,2.551,0,1,1-.8,5.033,2.507,2.507,0,0,1-1.948-3.059.68.68,0,0,0-.4-.9,4.007,4.007,0,0,0-5.936,2.38,8.652,8.652,0,0,0-.158,1.289c.914.312,1.706.535,2.455.858a1.18,1.18,0,0,0,1,.034,2.494,2.494,0,0,1,3.268,1.558,2.551,2.551,0,0,1-1.643,3.247,2.515,2.515,0,0,1-3.193-1.725,8.731,8.731,0,0,1-.124-1.5,4.6,4.6,0,0,0-2.46-.617,5.579,5.579,0,0,0-4.863,3.859,5.411,5.411,0,0,0,1.811,5.857,1.336,1.336,0,0,0,.743.255q8.019.021,16.038.009C221.628,358.028,221.731,358.016,221.918,358Zm-8.332-8.534a.772.772,0,0,0-.794-.8.757.757,0,0,0-.764.772.774.774,0,0,0,.8.8A.755.755,0,0,0,213.587,349.47Zm3.876-6.279a.789.789,0,0,0-.8.743.784.784,0,0,0,1.565.091A.786.786,0,0,0,217.463,343.191Zm27.816,14.961a.775.775,0,0,0-.767.83.735.735,0,0,0,.8.725.721.721,0,0,0,.764-.757A.77.77,0,0,0,245.279,358.152Zm-33.254,10.279a.808.808,0,0,0,.8.864.786.786,0,0,0-.037-1.572A.757.757,0,0,0,212.025,368.431Zm5.548,4.78a.773.773,0,0,0-.9.667.782.782,0,1,0,1.556.145A.744.744,0,0,0,217.573,373.211Z" transform="translate(-17.054 -13.717)" fill="#2a2a2a"/>
    <path id="Path_3433" data-name="Path 3433" d="M263.166,344.551c-1.521,0-3.043,0-4.565,0-.739,0-1.144-.33-1.137-.894s.409-.869,1.16-.87c2.768,0,5.537-.009,8.306.007a.964.964,0,0,0,.934-.466c.852-1.285,1.742-2.545,2.635-3.8a.643.643,0,0,0,.067-.788,2.464,2.464,0,0,1,.531-3.058,2.533,2.533,0,0,1,3.055-.268,2.574,2.574,0,0,1,1.1,2.873,2.511,2.511,0,0,1-2.531,1.812.791.791,0,0,0-.771.4c-1.012,1.483-2.054,2.945-3.064,4.43a1.319,1.319,0,0,1-1.217.635C266.167,344.537,264.667,344.551,263.166,344.551Zm9.739-7.21a.734.734,0,0,0,.68-.773.757.757,0,0,0-.818-.774.741.741,0,0,0-.755.774A.785.785,0,0,0,272.9,337.341Z" transform="translate(-49.365 -12.171)" fill="#2a2a2a"/>
    <path id="Path_3434" data-name="Path 3434" d="M270.129,365.778c1.817,0,3.634-.018,5.45.012a1.219,1.219,0,0,0,1.091-.48c.181-.232.409-.427.613-.641.532-.558,1.054-.964.775-2.006a2.406,2.406,0,0,1,2.443-2.809,2.568,2.568,0,0,1,2.568,2.709,2.492,2.492,0,0,1-2.87,2.343,1.044,1.044,0,0,0-1.082.38,20.229,20.229,0,0,1-1.723,1.769,1.764,1.764,0,0,1-1.043.457c-3.908.032-7.817.023-11.725.017-.7,0-1.087-.331-1.091-.877s.378-.87,1.08-.872C266.453,365.775,268.291,365.778,270.129,365.778Zm11.178-3.3a.786.786,0,0,0-.811-.856.743.743,0,0,0-.742.788.755.755,0,0,0,.807.783A.739.739,0,0,0,281.306,362.479Z" transform="translate(-52.834 -26.934)" fill="#2a2a2a"/>
    <path id="Path_3435" data-name="Path 3435" d="M270.514,399.37c1.9,0,3.8.013,5.707-.009a1.523,1.523,0,0,1,1.283.537c.37.433.8.818,1.178,1.242a2.538,2.538,0,0,0,1.979,1.061,2.425,2.425,0,0,1,2.141,3.056,2.571,2.571,0,0,1-3.244,1.848,2.5,2.5,0,0,1-1.581-3.354c.211-.481.059-.7-.211-1.074a3.881,3.881,0,0,0-3.688-1.593c-3.017.134-6.043.039-9.066.039-.19,0-.381,0-.57-.01a.852.852,0,0,1-.9-.868c-.021-.516.345-.863.951-.867,2.008-.012,4.016,0,6.024,0Zm9.013,5.286a.806.806,0,0,0,.808.806.791.791,0,0,0,.028-1.58A.8.8,0,0,0,279.527,404.656Z" transform="translate(-52.836 -49.512)" fill="#2a2a2a"/>
    <path id="Path_3436" data-name="Path 3436" d="M270.744,424.338c-1.022-1.469-2.021-2.932-3.061-4.366a.981.981,0,0,0-.705-.253c-2.684-.017-5.368-.011-8.052-.011-.19,0-.381.006-.57-.01a.866.866,0,1,1,.021-1.731c.127-.006.254-.006.381-.006,2.938,0,5.875.014,8.813-.011a1.514,1.514,0,0,1,1.409.754c1.01,1.51,2.057,2.995,3.114,4.472a1.024,1.024,0,0,0,.629.4,2.588,2.588,0,0,1,2.389,2.168,2.548,2.548,0,1,1-4.6-1.078C270.577,424.563,270.653,424.464,270.744,424.338Zm1.823,1.014a.776.776,0,1,0,.051,1.551.738.738,0,0,0,.757-.769A.762.762,0,0,0,272.567,425.352Z" transform="translate(-49.367 -60.136)" fill="#2a2a2a"/>
  </g>
</svg>
