<svg xmlns="http://www.w3.org/2000/svg" width="65.474" height="74.904" viewBox="0 0 65.474 74.904">
  <g id="android" transform="translate(-32.164 -67.96)">
    <path id="Path_15665" data-name="Path 15665" d="M92.222,207.092A4.578,4.578,0,0,1,96.8,211.67v19.637a4.577,4.577,0,0,1-9.155,0V211.67a4.577,4.577,0,0,1,4.577-4.577Z" transform="translate(-37.647 -93.019)" fill="#a4c639"/>
    <path id="Path_15666" data-name="Path 15666" d="M69.314,133.645c-.015.174-.028.349-.028.527v29.751a5.716,5.716,0,0,0,5.677,5.777h30.255a5.716,5.716,0,0,0,5.677-5.777V134.172c0-.177-.006-.354-.021-.527Z" transform="translate(-25.19 -43.181)" fill="#a4c639"/>
    <path id="Path_15667" data-name="Path 15667" d="M75.227,115.935a4.578,4.578,0,0,1,4.578,4.578v19.637a4.577,4.577,0,0,1-9.155,0V120.512a4.577,4.577,0,0,1,4.577-4.577ZM36.742,94.974a4.578,4.578,0,0,1,4.577,4.578v19.637a4.577,4.577,0,0,1-9.155,0V99.552a4.577,4.577,0,0,1,4.578-4.578Zm56.319,0a4.578,4.578,0,0,1,4.577,4.578v19.637a4.577,4.577,0,1,1-9.155,0V99.552a4.578,4.578,0,0,1,4.578-4.578Zm-48.8-4.6c.127-9.138,8.1-16.631,18.342-17.619h4.6c10.239.988,18.215,8.481,18.342,17.619Z" transform="translate(0 -1.862)" fill="#a4c639"/>
    <path id="Path_15668" data-name="Path 15668" d="M74.743,70.009l4.829,8.364m33.272-8.364-4.829,8.364" transform="translate(-28.893)" fill="none" stroke="#a4c639" stroke-linecap="round" stroke-linejoin="round" stroke-width="3"/>
    <path id="Path_15669" data-name="Path 15669" d="M104.879,97.19a2.369,2.369,0,0,1-4.736.013V97.19a2.369,2.369,0,0,1,4.736-.013Zm17.678,0a2.369,2.369,0,0,1-4.736.013V97.19a2.369,2.369,0,0,1,4.736-.013Z" transform="translate(-46.128 -16.87)" fill="#fff"/>
  </g>
</svg>
