<svg xmlns="http://www.w3.org/2000/svg" xmlns:xlink="http://www.w3.org/1999/xlink" width="60" height="62" viewBox="0 0 60 62">
  <defs>
    <clipPath id="clip-path">
      <rect id="Rectangle_1200" data-name="Rectangle 1200" width="60" height="62" transform="translate(1305 2205)" fill="#fff"/>
    </clipPath>
  </defs>
  <g id="blender" transform="translate(-1305 -2205)" clip-path="url(#clip-path)">
    <g id="logo-blender" transform="translate(1288.86 1946.766)">
      <path id="Path_43544" data-name="Path 43544" d="M112.849,334.6a6.042,6.042,0,0,1,2.191-4.275,7.439,7.439,0,0,1,9.434,0,6.047,6.047,0,0,1,2.192,4.275,5.932,5.932,0,0,1-1.845,4.59,7.413,7.413,0,0,1-10.129,0A5.931,5.931,0,0,1,112.849,334.6Z" transform="translate(-65.536 -42.783)" fill="#005385"/>
      <path id="Path_43545" data-name="Path 43545" d="M36.31,295.272a12.693,12.693,0,0,0,.545,2.978,15.71,15.71,0,0,0,3.4,5.879,17.53,17.53,0,0,0,5.941,4.265,19.423,19.423,0,0,0,15.6-.026,17.666,17.666,0,0,0,5.938-4.284,15.835,15.835,0,0,0,3.393-5.891,14.8,14.8,0,0,0,.533-6.553,15.214,15.214,0,0,0-2.165-5.926,16.614,16.614,0,0,0-3.951-4.355l0,0L49.562,269.085l-.04-.034a3.559,3.559,0,0,0-3.967.006,1.8,1.8,0,0,0-.263,3.018l0,0,6.667,5.423-20.322.021H31.6a3.707,3.707,0,0,0-3.613,2.5c-.327,1.419.815,2.6,2.56,2.6l0,.007,10.3-.02L22.468,296.713l-.07.053c-1.732,1.327-2.294,3.536-1.2,4.934,1.109,1.421,3.465,1.422,5.218.006L36.445,293.5a15.812,15.812,0,0,0-.134,1.775Zm25.776,3.709a11.59,11.59,0,0,1-16.186.026,9.641,9.641,0,0,1-2.211-3.459,9,9,0,0,1-.507-3.863,9.137,9.137,0,0,1,1.108-3.639,10.071,10.071,0,0,1,2.46-2.924,11.679,11.679,0,0,1,14.486-.021,10,10,0,0,1,2.457,2.914,9.137,9.137,0,0,1,1.111,3.636,9,9,0,0,1-.508,3.864A9.667,9.667,0,0,1,62.086,298.982Z" transform="translate(0 0)" fill="#ff7021"/>
    </g>
  </g>
</svg>
