<svg xmlns="http://www.w3.org/2000/svg" xmlns:xlink="http://www.w3.org/1999/xlink" width="42.591" height="63.874" viewBox="0 0 42.591 63.874">
  <defs>
    <clipPath id="clip-path">
      <rect id="Rectangle_102" data-name="Rectangle 102" width="42.591" height="63.874" transform="translate(17)" fill="#fff"/>
    </clipPath>
  </defs>
  <g id="figma" transform="translate(-17)" clip-path="url(#clip-path)">
    <path id="Path_3442" data-name="Path 3442" d="M27.653,87.958A10.649,10.649,0,0,0,38.3,77.312V66.667H27.653a10.646,10.646,0,1,0,0,21.291Z" transform="translate(-0.003 -24.084)" fill="#0acf83"/>
    <path id="Path_3443" data-name="Path 3443" d="M17.008,43.979A10.649,10.649,0,0,1,27.653,33.333H38.3V54.624H27.653A10.649,10.649,0,0,1,17.008,43.979Z" transform="translate(-0.003 -12.042)" fill="#a259ff"/>
    <path id="Path_3444" data-name="Path 3444" d="M17.008,10.646A10.65,10.65,0,0,1,27.653,0H38.3V21.291H27.653A10.649,10.649,0,0,1,17.008,10.646Z" transform="translate(-0.003)" fill="#f24e1e"/>
    <path id="Path_3445" data-name="Path 3445" d="M50.34,0H60.985a10.646,10.646,0,1,1,0,21.291H50.34Z" transform="translate(-12.044)" fill="#ff7262"/>
    <path id="Path_3446" data-name="Path 3446" d="M71.631,43.979A10.646,10.646,0,1,1,60.985,33.333,10.649,10.649,0,0,1,71.631,43.979Z" transform="translate(-12.044 -12.042)" fill="#1abcfe"/>
  </g>
</svg>
