<svg id="flutter" xmlns="http://www.w3.org/2000/svg" xmlns:xlink="http://www.w3.org/1999/xlink" width="59.2" height="73.273" viewBox="0 0 59.2 73.273">
  <defs>
    <linearGradient id="linear-gradient" x1="-7.075" y1="0.283" x2="-7.075" y2="0.281" gradientUnits="objectBoundingBox">
      <stop offset="0.2" stop-opacity="0.149"/>
      <stop offset="0.85" stop-color="#616161" stop-opacity="0.012"/>
    </linearGradient>
    <linearGradient id="linear-gradient-2" x1="-5.425" y1="0.364" x2="-5.424" y2="0.364" gradientUnits="objectBoundingBox">
      <stop offset="0.2" stop-opacity="0.549"/>
      <stop offset="0.85" stop-color="#616161" stop-opacity="0.012"/>
    </linearGradient>
  </defs>
  <path id="Path_15670" data-name="Path 15670" d="M11.283,47.917,0,36.634,36.637,0H59.2m0,33.806H36.637l-8.452,8.452L39.468,53.541" fill="rgba(66,165,245,0.8)"/>
  <path id="Path_15671" data-name="Path 15671" d="M951.7,1819.18l8.452,8.452h22.564L962.983,1807.9" transform="translate(-923.515 -1754.359)" fill="#0d47a1"/>
  <path id="Path_15672" data-name="Path 15672" d="M571.6,1438.869l11.266-11.269,11.266,11.266-11.266,11.268Z" transform="translate(-554.672 -1385.321)" fill="#42a5f5"/>
  <path id="Path_15673" data-name="Path 15673" d="M952,1819.365l11.266-11.266,1.573,1.573-11.266,11.266Z" transform="translate(-923.806 -1754.553)" fill="url(#linear-gradient)"/>
  <path id="Path_15674" data-name="Path 15674" d="M951.7,1819.083l16.741-5.784-5.458-5.5" transform="translate(-923.515 -1754.262)" fill="url(#linear-gradient-2)"/>
</svg>
