<svg xmlns="http://www.w3.org/2000/svg" xmlns:xlink="http://www.w3.org/1999/xlink" width="65" height="65" viewBox="0 0 65 65">
  <defs>
    <clipPath id="clip-path">
      <rect id="Rectangle_1022" data-name="Rectangle 1022" width="65" height="65" transform="translate(147 2466)" fill="#292727"/>
    </clipPath>
  </defs>
  <g id="game_black" transform="translate(-147 -2466)" clip-path="url(#clip-path)">
    <g id="Group_6853" data-name="Group 6853" transform="translate(137.333 2099.6)">
      <path id="Path_15626" data-name="Path 15626" d="M71.476,408.8c-.11.873-.2,1.751-.335,2.62a9.112,9.112,0,0,1-1.263,3.533,4.933,4.933,0,0,1-5.164,2.361,12.892,12.892,0,0,1-5.834-2.551,38.5,38.5,0,0,1-4.59-3.646,14.907,14.907,0,0,0-9.533-4.1,21.836,21.836,0,0,0-9.075.987,12.089,12.089,0,0,0-4.287,2.643,39.373,39.373,0,0,1-6.2,4.793,12.706,12.706,0,0,1-4.4,1.833,5.269,5.269,0,0,1-6.171-3.446,15.063,15.063,0,0,1-.965-5.7,49.565,49.565,0,0,1,3.806-19.463,18.777,18.777,0,0,1,4.5-6.692,8.731,8.731,0,0,1,7.131-2.468c2.4.276,4.76.878,7.138,1.337a57.221,57.221,0,0,0,5.647,1.042A14.257,14.257,0,0,0,45.9,381.5c2.652-.534,5.27-1.231,7.917-1.789a10.846,10.846,0,0,1,6.491.4,11.2,11.2,0,0,1,4.546,3.69,28.422,28.422,0,0,1,4.558,9.869,51.6,51.6,0,0,1,1.964,11.2,2.671,2.671,0,0,0,.1.43ZM16.32,406.536a17.905,17.905,0,0,0,.655,5.951c.611,1.771,1.832,2.535,3.622,2.019a11.016,11.016,0,0,0,3.277-1.448c2.086-1.47,4.086-3.071,6.04-4.715a15.638,15.638,0,0,1,5.867-3.143,24.045,24.045,0,0,1,13.416-.017,14.635,14.635,0,0,1,5.738,3.133c1.676,1.479,3.408,2.9,5.2,4.242a10.918,10.918,0,0,0,4.665,2.168,2.538,2.538,0,0,0,2.985-1.463,10.387,10.387,0,0,0,.972-4.37,46.861,46.861,0,0,0-1.871-14.374,25.7,25.7,0,0,0-4.024-8.881,7.726,7.726,0,0,0-7.633-3.4,62.535,62.535,0,0,0-6.946,1.445,21,21,0,0,1-11.187.061,65.562,65.562,0,0,0-6.988-1.527,7.468,7.468,0,0,0-6.562,1.99,15.791,15.791,0,0,0-3.675,5.625A46.789,46.789,0,0,0,16.32,406.536Z" fill="#dd1928"/>
      <path id="Path_15627" data-name="Path 15627" d="M54.94,411.435a4.128,4.128,0,0,1,3.922,3.429.491.491,0,0,0,.47.444,4.173,4.173,0,0,1,.066,8.19.584.584,0,0,0-.558.543,4.235,4.235,0,0,1-4.123,3.357,4.163,4.163,0,0,1-4.07-3.458c-.065-.365-.277-.378-.539-.43a4.169,4.169,0,0,1-2.807-6.262,3.954,3.954,0,0,1,2.786-1.927c.38-.068.512-.216.582-.6A4.188,4.188,0,0,1,54.94,411.435Zm5.2,7.988a1.44,1.44,0,0,0-1.414-1.514c-.319-.017-.639,0-.959-.01a1.412,1.412,0,0,1-1.494-1.481,8.684,8.684,0,0,0-.075-1.176,1.4,1.4,0,0,0-1.554-1.23,1.474,1.474,0,0,0-1.4,1.485c-.011.263,0,.526,0,.789a1.452,1.452,0,0,1-1.593,1.615,8.819,8.819,0,0,0-1.013.035,1.409,1.409,0,0,0-1.264,1.531,1.446,1.446,0,0,0,1.388,1.372c.337.025.676,0,1.015.011a1.4,1.4,0,0,1,1.461,1.394c.022.318,0,.639.009.958a1.512,1.512,0,0,0,3.022.069c.023-.3,0-.6.012-.9a1.35,1.35,0,0,1,1.347-1.431c.412-.032.829,0,1.237-.052A1.418,1.418,0,0,0,60.14,419.422Z" transform="translate(-25.591 -24.816)" fill="#292727"/>
      <path id="Path_15628" data-name="Path 15628" d="M191.58,415.515a2.5,2.5,0,1,1-2.526-2.482A2.485,2.485,0,0,1,191.58,415.515Z" transform="translate(-133.982 -26.062)" fill="#292727"/>
      <path id="Path_15629" data-name="Path 15629" d="M166.325,435.719a2.511,2.511,0,1,1-2.535,2.492A2.526,2.526,0,0,1,166.325,435.719Z" transform="translate(-116.328 -43.64)" fill="#292727"/>
      <path id="Path_15630" data-name="Path 15630" d="M209.244,438.207a2.513,2.513,0,1,1,2.494,2.529A2.518,2.518,0,0,1,209.244,438.207Z" transform="translate(-151.55 -43.637)" fill="#292727"/>
      <path id="Path_15631" data-name="Path 15631" d="M191.578,460.892a2.5,2.5,0,1,1-2.526-2.5A2.52,2.52,0,0,1,191.578,460.892Z" transform="translate(-133.98 -61.21)" fill="#292727"/>
    </g>
  </g>
</svg>
