<svg id="adobe-illustrator-cc-icon" xmlns="http://www.w3.org/2000/svg" width="65.511" height="63.874" viewBox="0 0 65.511 63.874">
  <path id="Path_3457" data-name="Path 3457" d="M11.6,0H53.91a11.591,11.591,0,0,1,11.6,11.6V52.273a11.591,11.591,0,0,1-11.6,11.6H11.6A11.591,11.591,0,0,1,0,52.273V11.6A11.591,11.591,0,0,1,11.6,0Z" fill="#300"/>
  <g id="Group_257" data-name="Group 257" transform="translate(13.455 14.167)">
    <path id="Path_3458" data-name="Path 3458" d="M67.5,75.948H57.346l-2.075,6.415a.478.478,0,0,1-.519.382H49.621c-.3,0-.382-.164-.3-.491l8.789-25.3c.082-.273.164-.573.273-.9a9.535,9.535,0,0,0,.164-1.774.27.27,0,0,1,.218-.3h7.07c.218,0,.328.082.355.218l9.963,28.115c.082.3,0,.437-.273.437h-5.7a.412.412,0,0,1-.437-.3Zm-8.571-5.541h6.933c-.164-.573-.382-1.256-.628-1.965-.246-.737-.491-1.529-.737-2.348-.273-.846-.519-1.665-.792-2.511s-.519-1.638-.737-2.429c-.218-.764-.409-1.474-.6-2.129h-.055a33.513,33.513,0,0,1-.928,3.521c-.409,1.31-.819,2.675-1.256,4.04C59.748,67.978,59.338,69.261,58.929,70.407ZM82.24,58.751A3.378,3.378,0,0,1,79.81,57.8a3.546,3.546,0,0,1-.928-2.511,3.211,3.211,0,0,1,.983-2.429,3.5,3.5,0,0,1,2.429-.955,3.269,3.269,0,0,1,2.484.955,3.753,3.753,0,0,1-.055,4.941A3.21,3.21,0,0,1,82.24,58.751ZM79.183,82.445V61.426c0-.273.109-.382.355-.382h5.4c.246,0,.355.136.355.382V82.445c0,.3-.109.437-.355.437h-5.35A.382.382,0,0,1,79.183,82.445Z" transform="translate(-49.29 -51.9)" fill="#ff9a00"/>
  </g>
</svg>
