<svg xmlns="http://www.w3.org/2000/svg" width="40.756" height="66.433" viewBox="0 0 40.756 66.433">
  <g id="mobile_white" transform="translate(-95.218 -90.5)">
    <path id="Path_15642" data-name="Path 15642" d="M130.775,90.5c.385.123.775.232,1.154.37a6.02,6.02,0,0,1,4.031,5.642c.026,3.286.009,6.572.009,9.858q0,22.115,0,44.229a6.056,6.056,0,0,1-4.6,6.128,6.878,6.878,0,0,1-1.666.2q-14.105.017-28.211.006a6.078,6.078,0,0,1-6.267-6.264q-.009-26.946,0-53.892a6.059,6.059,0,0,1,4.971-6.161,1.029,1.029,0,0,0,.221-.111ZM98.334,123.716q0,13.329,0,26.657c0,2.281,1.153,3.443,3.413,3.444h27.7c2.236,0,3.412-1.164,3.412-3.381q0-26.722,0-53.445c0-2.217-1.175-3.377-3.414-3.377H101.81c-2.329,0-3.476,1.136-3.476,3.445Q98.333,110.388,98.334,123.716Z" fill="#fff"/>
    <path id="Path_15643" data-name="Path 15643" d="M187.344,231.752a1.556,1.556,0,0,1-1.447-2.1c.327-1.3.687-2.585,1.034-3.877,1.721-6.418,3.432-12.839,5.182-19.249a2.67,2.67,0,0,1,.846-1.3,1.326,1.326,0,0,1,1.685.1,1.548,1.548,0,0,1,.526,1.75c-.336,1.317-.7,2.627-1.051,3.94q-2.573,9.6-5.147,19.191C188.685,231.28,188.183,231.757,187.344,231.752Z" transform="translate(-74.935 -94.664)" fill="#fff"/>
    <path id="Path_15644" data-name="Path 15644" d="M130.187,244.492c.184.195.34.368.5.533,1.558,1.56,3.125,3.112,4.673,4.681a1.543,1.543,0,0,1,.071,2.3,1.57,1.57,0,0,1-2.261-.1q-3.131-3.1-6.236-6.236a1.544,1.544,0,0,1,0-2.356q3.1-3.134,6.236-6.236a1.571,1.571,0,0,1,2.262-.107,1.542,1.542,0,0,1-.066,2.3c-1.549,1.569-3.115,3.121-4.673,4.681C130.53,244.123,130.373,244.3,130.187,244.492Z" transform="translate(-25.781 -120.778)" fill="#fff"/>
    <path id="Path_15645" data-name="Path 15645" d="M250.368,244.55c-1.809-1.807-3.5-3.5-5.2-5.195a1.638,1.638,0,0,1-.575-1.566,1.548,1.548,0,0,1,2.592-.8c.658.592,1.262,1.244,1.889,1.87q2.156,2.155,4.31,4.311a1.633,1.633,0,0,1-.011,2.683q-3,3.007-6.008,6.007a1.6,1.6,0,0,1-1.937.435,1.539,1.539,0,0,1-.335-2.556c1.546-1.572,3.113-3.124,4.675-4.68C249.932,244.889,250.127,244.751,250.368,244.55Z" transform="translate(-123.501 -120.787)" fill="#fff"/>
  </g>
</svg>
