<svg id="adobe-photoshop-2" xmlns="http://www.w3.org/2000/svg" width="63.056" height="61.479" viewBox="0 0 63.056 61.479">
  <path id="Path_3455" data-name="Path 3455" d="M11.166,0H51.89A11.157,11.157,0,0,1,63.056,11.166V50.313A11.157,11.157,0,0,1,51.89,61.479H11.166A11.157,11.157,0,0,1,0,50.313V11.166A11.157,11.157,0,0,1,11.166,0Z" fill="#001e36"/>
  <g id="Group_256" data-name="Group 256" transform="translate(14.188 15.633)">
    <path id="Path_3456" data-name="Path 3456" d="M54,86.982V59.947c0-.184.079-.289.263-.289.447,0,.867,0,1.471-.026.631-.026,1.287-.026,2-.053s1.471-.026,2.286-.053,1.6-.026,2.391-.026a15.448,15.448,0,0,1,5.412.814,9.382,9.382,0,0,1,3.521,2.154,8.365,8.365,0,0,1,1.918,3,10.056,10.056,0,0,1,.6,3.416,9.393,9.393,0,0,1-1.576,5.6,9,9,0,0,1-4.23,3.205,17.027,17.027,0,0,1-5.911.893c-.631,0-1.051,0-1.314-.026s-.631-.026-1.13-.026v8.434a.327.327,0,0,1-.289.368h-5.1C54.105,87.323,54,87.218,54,86.982Zm5.728-22.253v8.828c.368.026.709.053,1.025.053h1.392a9.814,9.814,0,0,0,3.021-.473,4.518,4.518,0,0,0,2.154-1.392,4.06,4.06,0,0,0,.814-2.706,4.324,4.324,0,0,0-.6-2.338,3.81,3.81,0,0,0-1.839-1.5,7.71,7.71,0,0,0-3.1-.525c-.683,0-1.287,0-1.787.026a6.015,6.015,0,0,0-1.077.026Zm30.53,7.225a9.3,9.3,0,0,0-2.522-.893,13.851,13.851,0,0,0-2.943-.342,5.29,5.29,0,0,0-1.576.184,1.349,1.349,0,0,0-.814.525,1.392,1.392,0,0,0-.21.709,1.169,1.169,0,0,0,.263.683,2.965,2.965,0,0,0,.893.709c.6.315,1.235.6,1.865.867a19.03,19.03,0,0,1,4.046,1.918A6.113,6.113,0,0,1,91.334,78.5a5.672,5.672,0,0,1,.6,2.706A6.113,6.113,0,0,1,90.914,84.7a6.584,6.584,0,0,1-2.943,2.338,12.038,12.038,0,0,1-4.755.841,18.1,18.1,0,0,1-3.573-.342,10.6,10.6,0,0,1-2.68-.841.517.517,0,0,1-.289-.5V81.622a.285.285,0,0,1,.105-.236.2.2,0,0,1,.236.026A11.247,11.247,0,0,0,80.273,82.7a12.231,12.231,0,0,0,3.1.394,5.015,5.015,0,0,0,2.181-.368,1.221,1.221,0,0,0,.709-1.1,1.392,1.392,0,0,0-.631-1.051,11.142,11.142,0,0,0-2.575-1.235,16.075,16.075,0,0,1-3.731-1.892,6.8,6.8,0,0,1-2-2.233,5.637,5.637,0,0,1-.6-2.68,6.179,6.179,0,0,1,.893-3.179,6.476,6.476,0,0,1,2.759-2.417,10.188,10.188,0,0,1,4.65-.92,22.65,22.65,0,0,1,3.258.236,9.244,9.244,0,0,1,2.26.6.462.462,0,0,1,.263.236,1.319,1.319,0,0,1,.053.315v4.283a.323.323,0,0,1-.131.263.7.7,0,0,1-.473,0Z" transform="translate(-54 -59.5)" fill="#31a8ff"/>
  </g>
</svg>
