<svg xmlns="http://www.w3.org/2000/svg" width="128.234" height="114.198" viewBox="0 0 128.234 114.198">
  <g id="react" transform="translate(-175.7 -78)">
    <path id="Path_15678" data-name="Path 15678" d="M303.934,135.112c0-8.495-10.638-16.546-26.948-21.538,3.764-16.624,2.091-29.85-5.28-34.084a11.46,11.46,0,0,0-5.855-1.464v5.829a6.053,6.053,0,0,1,2.98.68c3.555,2.039,5.1,9.8,3.895,19.787-.288,2.457-.758,5.045-1.333,7.685a126.672,126.672,0,0,0-16.6-2.849,127.507,127.507,0,0,0-10.874-13.069c8.521-7.92,16.519-12.259,21.956-12.259V78c-7.188,0-16.6,5.123-26.112,14.01C230.251,83.175,220.841,78.1,213.653,78.1v5.829c5.411,0,13.435,4.313,21.956,12.18a123.453,123.453,0,0,0-10.8,13.043,122.061,122.061,0,0,0-16.624,2.875c-.6-2.614-1.046-5.149-1.359-7.58-1.229-9.985.288-17.748,3.816-19.813a5.817,5.817,0,0,1,3.006-.68V78.131a11.655,11.655,0,0,0-5.907,1.464c-7.345,4.234-8.992,17.434-5.2,34.006-16.258,5.019-26.844,13.043-26.844,21.512,0,8.495,10.638,16.546,26.949,21.538-3.764,16.624-2.091,29.85,5.28,34.084a11.49,11.49,0,0,0,5.881,1.464c7.188,0,16.6-5.123,26.112-14.01,9.514,8.835,18.924,13.906,26.112,13.906a11.654,11.654,0,0,0,5.907-1.464c7.345-4.234,8.992-17.434,5.2-34.006,16.206-4.992,26.792-13.043,26.792-21.512ZM269.9,117.678c-.967,3.372-2.169,6.848-3.529,10.325-1.072-2.091-2.2-4.182-3.424-6.273-1.2-2.091-2.483-4.13-3.764-6.116C262.9,116.162,266.478,116.841,269.9,117.678Zm-11.971,27.837c-2.039,3.529-4.13,6.874-6.3,9.985-3.895.34-7.841.523-11.814.523-3.947,0-7.894-.183-11.762-.5q-3.254-4.666-6.325-9.933-2.98-5.136-5.437-10.4c1.621-3.5,3.45-7.005,5.411-10.429,2.039-3.529,4.13-6.874,6.3-9.985,3.895-.34,7.841-.523,11.814-.523,3.947,0,7.894.183,11.762.5q3.254,4.666,6.325,9.933,2.98,5.136,5.437,10.4c-1.647,3.5-3.45,7.005-5.411,10.429Zm8.443-3.4c1.411,3.5,2.614,7.005,3.607,10.4-3.424.836-7.031,1.542-10.769,2.091,1.281-2.013,2.562-4.078,3.764-6.195,1.2-2.091,2.326-4.208,3.4-6.3Zm-26.5,27.889a107.752,107.752,0,0,1-7.266-8.364c2.352.1,4.757.183,7.188.183,2.457,0,4.888-.052,7.266-.183A102.018,102.018,0,0,1,239.869,170.007Zm-19.447-15.4c-3.712-.549-7.293-1.229-10.717-2.065.967-3.372,2.169-6.848,3.529-10.325,1.072,2.091,2.2,4.182,3.424,6.273S219.142,152.625,220.423,154.611Zm19.316-54.394a107.761,107.761,0,0,1,7.266,8.364c-2.352-.1-4.757-.183-7.188-.183-2.457,0-4.888.052-7.266.183A102.023,102.023,0,0,1,239.739,100.218Zm-19.342,15.4c-1.281,2.013-2.562,4.078-3.764,6.195-1.2,2.091-2.326,4.182-3.4,6.273-1.411-3.5-2.614-7.005-3.607-10.4,3.424-.81,7.031-1.516,10.769-2.065Zm-23.655,32.725c-9.253-3.947-15.239-9.122-15.239-13.226s5.986-9.305,15.239-13.226c2.248-.967,4.7-1.83,7.24-2.64a125.54,125.54,0,0,0,5.881,15.918,123.765,123.765,0,0,0-5.8,15.84c-2.588-.81-5.045-1.7-7.319-2.666ZM210.8,185.69c-3.555-2.039-5.1-9.8-3.895-19.787.288-2.457.758-5.045,1.333-7.685a126.671,126.671,0,0,0,16.6,2.849,127.506,127.506,0,0,0,10.874,13.069c-8.521,7.92-16.519,12.259-21.956,12.259A6.238,6.238,0,0,1,210.8,185.69Zm62-19.917c1.228,9.985-.288,17.748-3.816,19.813a5.817,5.817,0,0,1-3.006.68c-5.411,0-13.435-4.313-21.956-12.18a123.46,123.46,0,0,0,10.8-13.043,122.057,122.057,0,0,0,16.624-2.875A73.172,73.172,0,0,1,272.8,165.772Zm10.063-17.434c-2.248.967-4.7,1.83-7.24,2.64a125.54,125.54,0,0,0-5.881-15.918,123.767,123.767,0,0,0,5.8-15.84c2.588.81,5.045,1.7,7.345,2.666,9.253,3.947,15.239,9.122,15.239,13.226C298.105,139.216,292.12,144.417,282.867,148.338Z" fill="#61dafb"/>
    <circle id="Ellipse_455" data-name="Ellipse 455" cx="11.945" cy="11.945" r="11.945" transform="translate(227.846 123.167)" fill="#61dafb"/>
  </g>
</svg>
