<svg xmlns="http://www.w3.org/2000/svg" width="59.903" height="59.896" viewBox="0 0 59.903 59.896">
  <g id="ui_ux_black" transform="translate(-45.6 -45.6)">
    <path id="Path_15617" data-name="Path 15617" d="M102.57,45.6a3.975,3.975,0,0,1,2.412,1.706,3.5,3.5,0,1,1-6.107,3.413c-.073-.137-.138-.277-.2-.409H87.063c.879.442,1.688.776,2.422,1.233,1.353.842,2.67,1.742,3.983,2.646a1.112,1.112,0,0,1,.449,1.34.976.976,0,0,1-.992.758,1.855,1.855,0,0,1-1-.367,25.114,25.114,0,0,0-8.9-4.52c-1.282-.368-2.6-.613-3.972-.931,0,.382.013.653,0,.922a1.173,1.173,0,0,1-1.223,1.22q-2.28.035-4.561,0a1.173,1.173,0,0,1-1.226-1.218c-.016-.269,0-.54,0-.85a26,26,0,0,0-8.993,2.882c-1.376.754-2.649,1.7-3.955,2.58-.887.6-1.885.227-1.972-.759a1.321,1.321,0,0,1,.636-1.171,25.476,25.476,0,0,1,5.408-3.328c.259-.118.513-.245.911-.435H52.414a3.548,3.548,0,0,1-2.294,2.153,3.487,3.487,0,0,1-4.333-2.287c-.054-.164-.125-.322-.188-.482v-1.17c.118-.305.221-.617.356-.914a3.8,3.8,0,0,1,2.569-2.01h1.17a3.675,3.675,0,0,1,2.512,1.909.681.681,0,0,0,.758.436q9.256-.012,18.512-.006h.551c.013-.909-.151-1.843.829-2.34h5.381c1,.5.8,1.473.831,2.339,6.488,0,12.892,0,19.3-.007a.479.479,0,0,0,.374-.171A3.863,3.863,0,0,1,101.4,45.6ZM76.684,50.252V47.978H74.421v2.274ZM50.27,49.09a1.161,1.161,0,1,0-1.141,1.179A1.2,1.2,0,0,0,50.27,49.09Zm51.7-1.141a1.161,1.161,0,1,0,1.172,1.149A1.2,1.2,0,0,0,101.974,47.949Z"/>
    <path id="Path_15618" data-name="Path 15618" d="M45.6,163.135c.564-1.1,1.624-.75,2.458-.827.4-1.594.677-3.171,1.188-4.671.543-1.6,1.277-3.129,1.977-4.666a1.167,1.167,0,0,1,1.628-.683,1.2,1.2,0,0,1,.432,1.762,25.047,25.047,0,0,0-2.224,5.694c-.2.83-.358,1.672-.548,2.573.323,0,.593-.012.862,0a1.169,1.169,0,0,1,1.235,1.208q.037,2.309,0,4.619a1.135,1.135,0,0,1-1.2,1.178c-1.539.024-3.079.009-4.619.006a1.442,1.442,0,0,1-1.189-.814Zm4.648,3.834v-2.277H47.981v2.277Z" transform="translate(0 -90.98)"/>
    <path id="Path_15622" data-name="Path 15622" d="M175.477,173.859q-3.3,0-6.608,0c-1.143,0-1.543-.4-1.544-1.555,0-1.813-.01-3.626.007-5.438a.749.749,0,0,0-.463-.8,3.469,3.469,0,0,1-.356-5.956.544.544,0,0,0,.238-.8c-1.316-3.454-2.607-6.919-3.929-10.371a1.7,1.7,0,0,1,.114-1.551q5.7-10.4,11.377-20.805c.265-.487.571-.9,1.178-.911.637-.011.953.417,1.229.923Q182.4,137,188.1,147.4a1.7,1.7,0,0,1,.1,1.552c-1.3,3.4-2.567,6.809-3.87,10.206-.179.467-.167.707.285,1.032a3.451,3.451,0,0,1-.471,5.871.709.709,0,0,0-.448.758c.018,1.852.011,3.7.007,5.555,0,1.063-.425,1.481-1.5,1.482Q178.84,173.863,175.477,173.859Zm1.332-42.216-.126.012v.56c0,4.016.007,8.032-.01,12.048a.885.885,0,0,0,.535.939,3.427,3.427,0,0,1,1.491,4.475,3.5,3.5,0,1,1-4.4-4.734V131.5l-8.508,15.574h.665c.682,0,1.366-.022,2.046.013a1.168,1.168,0,0,1,1.153,1.166,1.183,1.183,0,0,1-1.113,1.148,6.712,6.712,0,0,1-.7.013c-.75,0-1.5,0-2.307,0,.062.191.093.3.133.406,1.158,3.078,2.326,6.153,3.466,9.237.141.381.356.424.7.423q5.673-.014,11.346,0a.67.67,0,0,0,.754-.519c1.109-2.993,2.243-5.975,3.368-8.962.066-.176.119-.357.2-.59h-.772c-.721,0-1.443.019-2.164-.01a1.176,1.176,0,0,1-1.189-1.133,1.191,1.191,0,0,1,1.194-1.19c.272-.019.546-.006.818-.006h1.853Zm-7.118,39.836h11.625v-4.959H169.691Zm5.8-7.329q3.3,0,6.608,0a3.281,3.281,0,0,0,.64-.039,1.178,1.178,0,0,0,.951-1.11,1.155,1.155,0,0,0-.915-1.134,2.851,2.851,0,0,0-.637-.052q-6.637,0-13.274,0a3.4,3.4,0,0,0-.467.016,1.194,1.194,0,0,0-1.065,1.135,1.182,1.182,0,0,0,1.028,1.164,3.722,3.722,0,0,0,.583.024Q172.22,164.15,175.495,164.149Zm1.179-15.889a1.161,1.161,0,1,0-1.181,1.14A1.2,1.2,0,0,0,176.674,148.26Z" transform="translate(-99.966 -68.364)" fill="#dd1928"/>
    <path id="Path_15623" data-name="Path 15623" d="M404.26,162.337a23.931,23.931,0,0,0-2.076-6.94c-.209-.439-.441-.867-.651-1.306-.374-.782-.215-1.457.407-1.772s1.257-.058,1.672.7a25.382,25.382,0,0,1,2.432,6.233c.242,1,.424,2.017.646,3.085.375,0,.781-.009,1.187,0a1.2,1.2,0,0,1,1.329,1.3q.026,2.221,0,4.442a1.182,1.182,0,0,1-1.288,1.274q-2.221.025-4.442,0a1.183,1.183,0,0,1-1.277-1.284q-.026-2.221,0-4.442a1.2,1.2,0,0,1,1.281-1.284C403.727,162.328,403.978,162.337,404.26,162.337Zm.292,4.631h2.286v-2.255h-2.286Z" transform="translate(-303.714 -91)"/>
    <path id="Path_15624" data-name="Path 15624" d="M103.984,126.837a1.16,1.16,0,1,1-1.147-1.174A1.2,1.2,0,0,1,103.984,126.837Z" transform="translate(-47.865 -68.356)"/>
    <path id="Path_15625" data-name="Path 15625" d="M385.584,126.812a1.161,1.161,0,1,1-1.172-1.149A1.2,1.2,0,0,1,385.584,126.812Z" transform="translate(-288.288 -68.356)"/>
  </g>
</svg>
