<svg xmlns="http://www.w3.org/2000/svg" xmlns:xlink="http://www.w3.org/1999/xlink" width="60" height="62" viewBox="0 0 60 62">
  <defs>
    <clipPath id="clip-path">
      <rect id="Rectangle_1202" data-name="Rectangle 1202" width="60" height="62" transform="translate(1305 2205)" fill="#fff"/>
    </clipPath>
  </defs>
  <g id="unreal" transform="translate(-1323 -2122)">
    <g id="Group_41882" data-name="Group 41882" transform="translate(14488.479 -2386.671)">
      <g id="unreal-tournament" transform="translate(-13164.979 4510.17)">
        <path id="Path_43548" data-name="Path 43548" d="M33.591,24.484a19.4,19.4,0,0,1,2.654-2.51A13.388,13.388,0,0,1,39.4,20.037a12.28,12.28,0,0,1,4.047-.887,17.4,17.4,0,0,1,.92,19.011,26.837,26.837,0,0,0-.539-7.1A12.551,12.551,0,0,0,41.8,26.5l2.8-2.482A16,16,0,0,0,42.986,20.7a5.257,5.257,0,0,0-2.252,1.1A7,7,0,0,0,38.745,25V35.079a7.523,7.523,0,0,0,.7,3.266A8.976,8.976,0,0,0,41.9,41.416,17.4,17.4,0,0,1,13.126,23.1a14.838,14.838,0,0,0,1,6.121,14.849,14.849,0,0,0,3.541,5.1l-2.308,3.087A16.144,16.144,0,0,0,39.978,41.52l-7.126-3-.037-1.739-4.182,3.96L22.6,38.7H20.157a4.468,4.468,0,0,0,1.609-2.8,2.481,2.481,0,0,0-1.321-2.053A10.535,10.535,0,0,0,17.2,32.516c.991-.05,2.013-.093,2.89-.175.578-.054,1.093-.126,1.266-.363.143-.2.051-.506-.2-.788a7.022,7.022,0,0,0-2.127-1.238,17.587,17.587,0,0,1-2.268-1.165,16.6,16.6,0,0,0,4.31-.48.944.944,0,0,0,.563-.691,4.017,4.017,0,0,0-.071-2.372,5.274,5.274,0,0,0-2.118-2.273,31.863,31.863,0,0,0-4.948-2.649,17.4,17.4,0,0,1,23.24-6.214,26.2,26.2,0,0,0-6.206.4,12.556,12.556,0,0,0-5.663,2.7l-2.454-2.848a16.144,16.144,0,0,0-6.9,5.239l9.8,5.038,2.914-1.87-1.045,3.134V33.7c.221,1.253,1.011,2.162,1.912,2.185,1.025.026,2.194-1.092,2.859-2.221V27.64l-2.51-3.514Zm14.779,4.875a19.01,19.01,0,1,0-19.01,19.01A19.01,19.01,0,0,0,48.369,29.359Zm-37.088-10.4A20.856,20.856,0,1,1,9.224,34.794a20.827,20.827,0,0,1,2.058-15.835Z" transform="translate(0 0)" fill-rule="evenodd"/>
      </g>
    </g>
  </g>
</svg>
