<svg xmlns="http://www.w3.org/2000/svg" width="57.381" height="57.381" viewBox="0 0 57.381 57.381">
  <g id="web_app_white" transform="translate(-82.498 -82.998)">
    <path id="Path_15652" data-name="Path 15652" d="M129.632,95.325H84.548V96q0,15.368,0,30.737a3.1,3.1,0,0,0,3.431,3.4h25.742a4.243,4.243,0,0,1,.64.013.986.986,0,0,1,.916.984,1.006,1.006,0,0,1-.925,1.041,4.754,4.754,0,0,1-.576.011q-12.9,0-25.806,0a5.138,5.138,0,0,1-5.471-5.5q0-19.082,0-38.165A5.141,5.141,0,0,1,88.011,83q19.083,0,38.165,0a5.141,5.141,0,0,1,5.5,5.528q0,5.7,0,11.4c0,.107,0,.213,0,.32-.018.742-.426,1.205-1.046,1.191a1.041,1.041,0,0,1-1-1.17c-.009-1.43,0-2.86,0-4.29ZM84.566,93.2H129.59a1.046,1.046,0,0,0,.036-.168q0-2.24.006-4.48c0-2.306-1.2-3.5-3.512-3.5H88.037c-.171,0-.342,0-.512,0a2.987,2.987,0,0,0-2.936,2.692C84.492,89.547,84.566,91.36,84.566,93.2Z" fill="#fff"/>
    <path id="Path_15653" data-name="Path 15653" d="M286.5,221.424q0-7.008,0-14.017A4.088,4.088,0,0,1,290.935,203q6.849,0,13.7,0a4.087,4.087,0,0,1,4.408,4.44q0,14.017,0,28.034a4.089,4.089,0,0,1-4.437,4.412q-6.816,0-13.633,0a4.1,4.1,0,0,1-4.471-4.442Q286.5,228.433,286.5,221.424Zm16.395-16.372c0,.635.01,1.188,0,1.74a2.339,2.339,0,0,1-2.369,2.348c-1.792.014-3.585.017-5.377,0a2.309,2.309,0,0,1-2.5-2.533c-.008-.5,0-1.01,0-1.56h-1.729a2.078,2.078,0,0,0-2.37,2.341q0,14.052,0,28.1a2.079,2.079,0,0,0,2.368,2.344h13.636c1.7,0,2.439-.748,2.439-2.466q0-13.924,0-27.848c0-.213.01-.428-.011-.64a2,2,0,0,0-1.843-1.82C304.417,205.02,303.694,205.052,302.893,205.052Zm-8.2.023a13.157,13.157,0,0,0,.021,1.539c.021.174.273.455.424.458,1.745.032,3.491.029,5.236.006.153,0,.424-.2.434-.319.047-.56.021-1.126.021-1.683Z" transform="translate(-169.162 -99.505)" fill="#fff"/>
    <path id="Path_15654" data-name="Path 15654" d="M178.893,199.486c-.126.356-.188.582-.283.792q-3.476,7.654-6.955,15.306c-.241.531-.557.933-1.191.861-.751-.085-1.075-.83-.713-1.627q2.124-4.687,4.261-9.368c.918-2.017,1.83-4.036,2.753-6.051.337-.736.91-1.032,1.456-.692A3.314,3.314,0,0,1,178.893,199.486Z" transform="translate(-72.229 -95.831)" fill="#fff"/>
    <path id="Path_15655" data-name="Path 15655" d="M237.52,221.469c-1.4-1.4-2.711-2.7-4.021-4.011a3.552,3.552,0,0,1-.437-.466.963.963,0,0,1,.09-1.336.973.973,0,0,1,1.339-.08,2.048,2.048,0,0,1,.283.258q2.331,2.33,4.659,4.662c.707.711.7,1.182-.018,1.9q-2.281,2.289-4.569,4.571c-.045.045-.089.092-.136.135a1.04,1.04,0,1,1-1.417-1.483q1.485-1.5,2.987-2.986C236.659,222.261,237.055,221.905,237.52,221.469Z" transform="translate(-124.665 -109.748)" fill="#fff"/>
    <path id="Path_15656" data-name="Path 15656" d="M120.906,221.43l3.968,3.994a5.413,5.413,0,0,1,.442.462,1.017,1.017,0,0,1-1.416,1.448,2.521,2.521,0,0,1-.327-.3q-2.285-2.284-4.568-4.57c-.747-.749-.747-1.2,0-1.945q2.259-2.264,4.522-4.525c.075-.075.148-.153.227-.225a1.047,1.047,0,0,1,1.491-.081,1.035,1.035,0,0,1-.05,1.535c-1.211,1.231-2.437,2.448-3.662,3.666C121.35,221.064,121.147,221.221,120.906,221.43Z" transform="translate(-29.808 -109.799)" fill="#fff"/>
    <path id="Path_15658" data-name="Path 15658" d="M282.569,114.051a1.019,1.019,0,1,1-1.017-1.022A1.031,1.031,0,0,1,282.569,114.051Z" transform="translate(-164.214 -24.902)" fill="#fff"/>
    <path id="Path_15659" data-name="Path 15659" d="M306.569,114.055a1.019,1.019,0,1,1-1.012-1.027A1.031,1.031,0,0,1,306.569,114.055Z" transform="translate(-184.115 -24.902)" fill="#fff"/>
    <path id="Path_15660" data-name="Path 15660" d="M330.569,114.051a1.019,1.019,0,1,1-1.017-1.022A1.031,1.031,0,0,1,330.569,114.051Z" transform="translate(-204.017 -24.902)" fill="#fff"/>
  </g>
</svg>
