<svg xmlns="http://www.w3.org/2000/svg" xmlns:xlink="http://www.w3.org/1999/xlink" width="63.043" height="61.48" viewBox="0 0 63.043 61.48">
  <defs>
    <clipPath id="clip-path">
      <rect id="Rectangle_101" data-name="Rectangle 101" width="63.043" height="61.48" transform="translate(0 1)" fill="#fff"/>
    </clipPath>
  </defs>
  <g id="Xd" transform="translate(0 -1)" clip-path="url(#clip-path)">
    <path id="Path_3439" data-name="Path 3439" d="M4.168,14.633a9.457,9.457,0,0,1,9.457-9.456H52.5a9.457,9.457,0,0,1,9.456,9.456v37.3A9.457,9.457,0,0,1,52.5,61.39H13.625a9.457,9.457,0,0,1-9.457-9.457Z" transform="translate(-1.54 -1.544)" fill="#2e001e"/>
    <path id="Path_3440" data-name="Path 3440" d="M9.457,1.01A9.457,9.457,0,0,0,0,10.467V53.021a9.457,9.457,0,0,0,9.457,9.457h44.13a9.456,9.456,0,0,0,9.457-9.457V10.467A9.456,9.456,0,0,0,53.587,1.01ZM2.627,13.094a9.457,9.457,0,0,1,9.457-9.457H50.96a9.456,9.456,0,0,1,9.457,9.457v37.3a9.456,9.456,0,0,1-9.457,9.457H12.083a9.457,9.457,0,0,1-9.457-9.457Z" transform="translate(0 -0.004)" fill="#ff26be"/>
    <path id="Path_3441" data-name="Path 3441" d="M52.746,35.378a3.607,3.607,0,0,0-1.524-.263c-3.31,0-5.516,2.548-5.516,6.777,0,4.833,2.259,6.777,5.2,6.777a4.955,4.955,0,0,0,1.813-.289v-13ZM40.978,42.1c0-6.12,3.94-10.9,10.4-10.9a11.654,11.654,0,0,1,1.366.053v-6.83a.263.263,0,0,1,.263-.263h4.229c.21,0,.263.079.263.21V48.38a18.7,18.7,0,0,0,.131,2.574c0,.184,0,.21-.158.289a15.647,15.647,0,0,1-6.725,1.524c-5.7,0-9.772-3.52-9.772-10.665Zm-8.957-4.255L39.376,52.11c.131.21.053.42-.158.42H34.648a.515.515,0,0,1-.552-.342q-2.522-5.2-5.149-10.8h-.053c-1.576,3.52-3.31,7.355-4.991,10.822a.5.5,0,0,1-.473.289H19.071c-.263,0-.289-.21-.158-.368l7.2-13.843L19.149,24.529a.233.233,0,0,1,.184-.394h4.518c.263,0,.394.053.473.289,1.655,3.494,3.336,6.935,4.912,10.455h.053c1.524-3.467,3.2-6.961,4.807-10.4.131-.21.21-.342.473-.342H38.8c.21,0,.289.158.158.394L32.021,37.847Z" transform="translate(-6.961 -8.55)" fill="#ffd9f2"/>
  </g>
</svg>
