<svg xmlns="http://www.w3.org/2000/svg" width="74.151" height="59.272" viewBox="0 0 74.151 59.272">
  <g id="zeplinsoftware" transform="translate(0 -10)">
    <path id="Path_3447" data-name="Path 3447" d="M13.99,65.115l-3.879,1.417L9.9,78.07l13.427-4.9c-4.609-1.544-7.971-4.264-9.342-8.051" transform="translate(-2.56 -14.245)" fill="#fdbd39"/>
    <path id="Path_3448" data-name="Path 3448" d="M13.461,48.657,0,53.574l7.552,8.707,3.879-1.417C10.063,57.09,10.907,52.829,13.461,48.657Z" transform="translate(0 -9.991)" fill="#f69833"/>
    <path id="Path_3449" data-name="Path 3449" d="M39.867,25.032c-17.14,6.261-28.191,19.182-24.679,28.857L77.255,31.216c-3.512-9.674-20.248-12.444-37.388-6.184" transform="translate(-3.757 -3.02)" fill="#fecf33"/>
    <path id="Path_3450" data-name="Path 3450" d="M52.8,63.4c17.14-6.261,28.21-19.124,24.679-28.857L15.41,57.213C18.941,66.949,35.659,69.66,52.8,63.4Z" transform="translate(-3.983 -6.343)" fill="#ee6723"/>
    <path id="Path_3451" data-name="Path 3451" d="M77.478,34.539,15.414,57.212c1.214,3.352,5.851,5,12.352,5,6.341,0,14.456-1.568,22.917-4.658,17.14-6.261,29.2-16.4,26.8-23.018" transform="translate(-3.984 -6.342)" fill="#f69833"/>
    <path id="Path_3452" data-name="Path 3452" d="M65.021,27.8c-6.338,0-14.456,1.568-22.917,4.658-17.14,6.261-29.2,16.4-26.8,23.015L77.375,32.8c-1.217-3.352-5.851-5-12.355-5" transform="translate(-3.878 -4.599)" fill="#fdbd39"/>
    <path id="Path_3453" data-name="Path 3453" d="M66.08,66.151c-1.827,0-4.52-1.648-8.008-4.9A103.56,103.56,0,0,1,44.766,45.376,103.664,103.664,0,0,1,34.457,27.4c-2.388-5.675-2.73-9.163-1.014-10.371a2.289,2.289,0,0,1,1.35-.4c1.4,0,4.119,1.038,9.151,5.993l.111.108-.015.154c-.034.357-.065.715-.092,1.069l-.055.7-.493-.5c-5.423-5.463-7.807-6.051-8.584-6.051a.9.9,0,0,0-.524.133c-.746.524-.795,3.087,1.522,8.587A102.228,102.228,0,0,0,45.971,44.528,101.788,101.788,0,0,0,59.077,60.168c4.369,4.076,6.338,4.517,6.982,4.517a.912.912,0,0,0,.536-.142c.786-.551.786-3.3-1.8-9.218l-.12-.271.259-.142c.259-.142.511-.28.746-.416l.311-.176.145.327c1.83,4.2,3.543,9.53,1.3,11.107A2.3,2.3,0,0,1,66.08,66.151Zm0-.647v0Z" transform="translate(-8.366 -1.713)" fill="#ee6723"/>
    <path id="Path_3454" data-name="Path 3454" d="M61.319,56.878l-.025.32C60.86,62.559,59.72,69,56.744,69.266a1.8,1.8,0,0,1-.182.006c-2.021,0-3.934-2.9-5.681-8.605a103.558,103.558,0,0,1-3.617-20.424A103.8,103.8,0,0,1,47.291,19.5c.758-6.113,2.2-9.3,4.289-9.489.062-.006.126-.009.188-.009,1.467,0,3.676,1.661,5.937,9.394l-1.476.283a30.4,30.4,0,0,0-2.394-6.131c-.755-1.334-1.491-2.07-2.067-2.07a.4.4,0,0,0-.059,0c-.906.08-2.225,2.274-2.958,8.2a102.312,102.312,0,0,0-.025,20.433,102.29,102.29,0,0,0,3.559,20.119A27.427,27.427,0,0,0,54.6,65.9c.721,1.226,1.42,1.9,1.966,1.9a.33.33,0,0,0,.055,0c.866-.074,2.5-2.36,3.186-10.4Z" transform="translate(-12.086)" fill="#ee6723"/>
  </g>
</svg>
