<svg xmlns="http://www.w3.org/2000/svg" xmlns:xlink="http://www.w3.org/1999/xlink" width="148" height="84" viewBox="0 0 148 84">
  <defs>
    <clipPath id="clip-path">
      <rect id="Rectangle_13" data-name="Rectangle 13" width="148" height="84" transform="translate(1972 204)" fill="#fff" stroke="#707070" stroke-width="1"/>
    </clipPath>
  </defs>
  <g id="bing-ads-microsoft" transform="translate(-1972 -204)" clip-path="url(#clip-path)">
    <g id="bing_ads" data-name="bing ads" transform="translate(-904.817 -251.603)">
      <g id="Group_99" data-name="Group 99" transform="translate(2897.817 460.603)">
        <path id="Path_478" data-name="Path 478" d="M-466.6-2926.6c-1.97,4.054,1.394,5.807,4.638,5.693a7.148,7.148,0,0,0,5.076-2.013c.363-.375.569-.319.843.094a4.732,4.732,0,0,0,3.952,1.966,9.243,9.243,0,0,0,5.319-.863,2.69,2.69,0,0,0,1.477-2.891c-.115-1.2-1.014-1.538-1.946-1.781a26.385,26.385,0,0,0-2.682-.489c-.358-.055-.677-.087-.66-.555.017-.5.433-.46.733-.492.477-.05.941-.1,1.291.433.36.549,3.151.893,3.728.529.416-.262.318-.623.166-.992a2.123,2.123,0,0,0-1.351-1.235c-2.538-.74-5.077-1.067-7.558.294a2.069,2.069,0,0,0-1.182,2.016,2.035,2.035,0,0,0,1.66,1.81c1,.254,2,.483,3,.724.372.089.757.169.737.681s-.318.724-.807.762c-.6.048-1.4.056-1.625-.409-.577-1.193-1.553-.875-2.455-.9a22.043,22.043,0,0,1-3.145-.187,1.648,1.648,0,0,1,.314-.171c.609-.177,1.486-.042,1.668-.8a3.122,3.122,0,0,0-.7-2.918,4.737,4.737,0,0,0-3.23-1.382,8.368,8.368,0,0,0-5.881,1.468c-.045-.058-.14-.127-.13-.172.294-1.332.216-1.517-1.028-.983-1.3.559-2.442,0-3.638-.087-1.235-.09-1.906.2-2.115,1.535-.247,1.581-1.143,3.023-1.1,4.685a.5.5,0,0,1-.064.238c-.311.588-1.264,1.254-.209,1.809,1.256.661,3.127-.031,3.453-1.045.316-.981.592-1.977.966-2.936a2.011,2.011,0,0,1,2.507-1.427c-.02-.057-.038-.113-.056-.17.015.014.04.027.041.042A.729.729,0,0,1-466.6-2926.6Zm3.457,2.043a3.585,3.585,0,0,1,2.106-2.982c.923-.336,1.717.018,1.87.833a3.6,3.6,0,0,1-1.653,3.368C-462.14-2922.661-463.171-2923.2-463.143-2924.554Z" transform="translate(515.192 2988.758)" fill="#5b5b5b"/>
        <path id="Path_479" data-name="Path 479" d="M-446.727-3082.568c.651-.523,1.271-.94,1.795-1.457a4.167,4.167,0,0,0,.612-5.671c-.15-.235-.485-.443-.342-.751.174-.375.59-.2.9-.235a3.4,3.4,0,0,1,.876,0c.747.106.972-.237.893-.927a4.392,4.392,0,0,1,0-1c.09-.763-.29-.915-.962-.881a10.357,10.357,0,0,0-3.88.917,2.442,2.442,0,0,1-1.794.1,12.342,12.342,0,0,0-8.57.594,7.173,7.173,0,0,0-2.23,1.6,4.145,4.145,0,0,0-.04,6.068c2.344,2.408,5.357,2.941,8.545,2.7a3.516,3.516,0,0,1,2.249.507c2.551,1.584,2.546,4.5-.009,6.089a6.558,6.558,0,0,1-8.049-1.037c-.384-.4-3.025-.808-3.407-.5-.415.335-.014.615.15.84a8.052,8.052,0,0,0,5,3.085,11.477,11.477,0,0,0,8.717-1.2c3.634-2.188,3.725-5.851.276-8.29C-446.222-3082.194-446.446-3082.363-446.727-3082.568Zm-4.926-8.624a5.737,5.737,0,0,1,3.53,1.324,3.206,3.206,0,0,1,.228,5.1,6.594,6.594,0,0,1-8.579-.137,3.115,3.115,0,0,1-.023-4.579A6.226,6.226,0,0,1-451.653-3091.191Z" transform="translate(507.5 3096.606)" fill="#6d6f74"/>
        <path id="Path_480" data-name="Path 480" d="M-390.812-2930.663c-.5,1.785-.958,3.575-1.5,5.338-.208.671.017.767.6.815,2.843.232,3.04.1,3.739-2.663.172-.681.388-1.355.507-2.045.234-1.351.925-1.931,2.353-1.46-.287,1.127-.583,2.276-.872,3.427-.451,1.8.018,2.5,1.891,2.714a11.264,11.264,0,0,0,2.128.007c1.234-.092.732-1.308,1.273-1.937a2.682,2.682,0,0,0-.555-.122c-.99.024-1.3-.389-.947-1.337a16.742,16.742,0,0,0,.646-2.132c.117-.52.3-.85.891-.741,1.223.223,1.424-.644,1.448-1.5.03-1.038-.954-.2-1.37-.738.081-.487.183-1.106.3-1.8a19.467,19.467,0,0,1-2.175-.015c-1.065-.122-1.636.135-1.838,1.335-.22,1.306-1.347.447-2.094.689.066-.564.14-.958.771-1,.942-.056.571-.969.849-1.46.12-.212-.213-.255-.417-.293a4.239,4.239,0,0,0-4.968,2.278c-.2.331-.37.5-.754.475-.7-.046-1.394-.122-1.577.855-.084.445-.328.129-.518.013a7.85,7.85,0,0,0-9.505.919,3.923,3.923,0,0,0-1.233,4.061,3.7,3.7,0,0,0,3.146,2.473,7.87,7.87,0,0,0,7.32-2.109,3.8,3.8,0,0,0,1.256-3.136C-392.14-2930.835-391.767-2931.027-390.812-2930.663Zm-4.987.979a3.853,3.853,0,0,1-1.753,2.978,1.559,1.559,0,0,1-2.418-1.161,4.069,4.069,0,0,1,2.4-3.1A1.254,1.254,0,0,1-395.8-2929.684Z" transform="translate(474.411 2992.166)" fill="#5b5b5b"/>
        <path id="Path_481" data-name="Path 481" d="M-541.014-2929.945c-.2-1.794-.044-3.283-.216-4.763-.094-.8-.383-.963-1.083-.939a33.388,33.388,0,0,1-3.506-.011,1.245,1.245,0,0,0-1.5,1.084c-.911,3.3-1.871,6.581-2.868,10.065,1.343,0,2.609-.017,3.873.008.528.011.449-.418.547-.683.437-1.185.839-2.384,1.35-3.858a9,9,0,0,1,.287,2.937c.064.583-.114,1.491.606,1.531.952.053,2.126.591,2.884-.523.807-1.187,1.571-2.4,2.431-3.572a12.641,12.641,0,0,1-.588,3.072c-.264.658-.213,1.23.8,1.108a8.077,8.077,0,0,1,2,0c.945.125,1.3-.3,1.527-1.156.788-3,1.6-5.989,2.5-8.951.294-.963-.021-1.1-.824-1.044-.374.026-.751,0-1.127,0-3.622,0-3.619,0-5.471,3.089C-539.862-2931.769-540.354-2931-541.014-2929.945Z" transform="translate(559.536 2992.152)" fill="#5b5b5b"/>
        <path id="Path_482" data-name="Path 482" d="M-571.523-3094.29c0,1.255.061,2.513-.013,3.763a5.882,5.882,0,0,0,2.4,5.114c4.042,3.32,11.959,3.225,15.941-.187,3-2.571,2.94-6.242-.213-8.665-3-2.309-6.482-2.726-10.121-2.27a10.118,10.118,0,0,0-3.815,1.164c-1.032.591-1.191.134-1.147-.8.044-.917-.033-1.842.024-2.758.046-.749-.169-1.043-.968-1.016-2.493.081-2.052-.3-2.09,2.018C-571.54-3096.716-571.523-3095.5-571.523-3094.29Zm10.162-.657a8.357,8.357,0,0,1,4.771,1.276c2.989,1.84,3.168,5.2.407,7.36a9.039,9.039,0,0,1-10.218-.03c-2.614-2.072-2.528-5.228.209-7.143A8.062,8.062,0,0,1-561.36-3094.947Z" transform="translate(571.965 3100.359)" fill="#6d6f74"/>
        <path id="Path_483" data-name="Path 483" d="M-488.766-3085.6a4.514,4.514,0,0,0-1.887-4.477c-3.809-2.82-10.69-2.824-14.57-.072a5.228,5.228,0,0,0-2.087,4.468c-.056,1.92.022,3.843-.031,5.762-.023.827.335.967,1.047.952,2.516-.052,2.043.241,2.08-2.026.029-1.8.038-3.591.04-5.386a2.929,2.929,0,0,1,1.579-2.655,8.43,8.43,0,0,1,9.239-.03,2.966,2.966,0,0,1,1.579,2.78c-.019,2.046.047,4.094-.024,6.138-.033.954.281,1.336,1.2,1.171.607-.109,1.322.35,1.818-.341a.689.689,0,0,1-.3-.636q0-2.525,0-5.049C-489.082-3085.261-489.054-3085.5-488.766-3085.6Z" transform="translate(534.601 3095.852)" fill="#6d6f74"/>
        <path id="Path_484" data-name="Path 484" d="M-475.84-2975.556q-9.463,0-18.926.011c-.469,0-1.169-.3-1.222.615-.025.428.037.757.572.747.334-.006.668,0,1,0q18.174,0,36.349-.005c.623,0,1.247-.105,1.871-.119.469-.01.715-.215.7-.672-.016-.507-.382-.581-.793-.573-.292.005-.585,0-.877,0Z" transform="translate(528.32 3023.789)" fill="#a9a9a9"/>
        <path id="Path_485" data-name="Path 485" d="M-490.359-2924.151a2.479,2.479,0,0,0-2.365.831,1.246,1.246,0,0,1-1.607.26,1.335,1.335,0,0,1-.561-1.538,3.237,3.237,0,0,1,1.663-2.491c.745-.392,1.513-.589,1.842.544.123.426.467.422.8.42.794,0,1.591-.067,2.38-.015.916.06.939-.379.727-1.061a3.226,3.226,0,0,0-3.065-2.145c-2.816-.325-5.475.112-7.391,2.5a3.583,3.583,0,0,0,1.794,5.867,7.07,7.07,0,0,0,7.157-1.7c.378-.361.977-.76.742-1.306-.176-.408-.831-.106-1.269-.165A8.036,8.036,0,0,0-490.359-2924.151Z" transform="translate(529.649 2988.529)" fill="#5b5b5b"/>
        <path id="Path_486" data-name="Path 486" d="M-358.811-3084.535q0-2.7,0-5.4c0-.558.01-1.187-.778-1.156-.757.03-.592.67-.6,1.147-.016.752-.01,1.506-.007,2.258,0,.834-.184,1.163-1.1.687a6.081,6.081,0,0,0-4.994-.235,4.529,4.529,0,0,0-3.188,5.292c.254,1.987,2.382,3.728,4.783,3.912a6.5,6.5,0,0,0,3.4-.676c.421-.206.87-.632,1.2.167.155.377.561.316.886.221.415-.12.393-.492.394-.826q0-2.7,0-5.4Zm-9.218,1.66c0-2.079,1.635-3.543,3.983-3.56a3.514,3.514,0,0,1,3.846,3.643c-.017,2.269-1.352,3.518-3.773,3.526S-368.027-3080.7-368.03-3082.875Z" transform="translate(454.41 3095.203)" fill="#f4b64e"/>
        <path id="Path_487" data-name="Path 487" d="M-335.827-3082.779a8.152,8.152,0,0,0-3.077.489,2.561,2.561,0,0,0-1.7,2.647,2.374,2.374,0,0,0,2.089,2.026c1.607.313,3.255.041,4.859.408.648.149,1.316.3,1.377,1.031.053.651-.523,1.052-1.09,1.215-2.066.591-4.117.8-5.883-.8a.981.981,0,0,0-1.442-.053c-.395.41.076.837.389,1.162,1.718,1.79,6.7,2,8.553.35a2.416,2.416,0,0,0,.865-2.464,2.18,2.18,0,0,0-1.884-1.781c-1.563-.236-3.147-.335-4.724-.472-.683-.059-1.451-.07-1.565-.919-.127-.947.665-1.144,1.375-1.292,1.8-.376,3.544-.458,5.088.822a.929.929,0,0,0,1.349-.163c.293-.391-.154-.763-.462-1.028A6.2,6.2,0,0,0-335.827-3082.779Z" transform="translate(437.708 3090.369)" fill="#f4b64e"/>
        <path id="Path_488" data-name="Path 488" d="M-396.679-3091.176a1.145,1.145,0,0,0-1.205.8q-2.329,5.052-4.954,9.956a3.641,3.641,0,0,0-.445,1.018c-.058.321-.481.765.023.995a.925.925,0,0,0,1.274-.468c.33-.629.683-1.249.956-1.9a1.252,1.252,0,0,1,1.365-.826c1.964.034,3.928.041,5.892,0a1.437,1.437,0,0,1,1.62,1.035,11.232,11.232,0,0,0,.982,1.882.841.841,0,0,0,1.119.281c.531-.232.19-.643.037-.95q-2.77-5.551-5.558-11.094C-395.821-3090.946-396.151-3091.276-396.679-3091.176Zm-.005,1.4c1.166,2.336,2.169,4.345,3.17,6.355.206.414.092.625-.39.623q-2.755-.011-5.51-.008c-.457,0-.617-.19-.407-.617C-398.83-3085.434-397.835-3087.446-396.685-3089.774Z" transform="translate(474.174 3095.265)" fill="#f4b64e"/>
        <path id="Path_489" data-name="Path 489" d="M-519.218-3078.063c.809.875,1.834.375,2.713.29.677-.066.345-.911.35-1.4.03-3.163-.016-6.326.035-9.488.015-.948-.047-1.537-1.234-1.227a6.154,6.154,0,0,1-1.484.028c.005,3.581.016,7.163.008,10.745C-518.831-3078.736-518.632-3078.242-519.218-3078.063Z" transform="translate(541.513 3094.553)" fill="#6d6f74"/>
        <path id="Path_490" data-name="Path 490" d="M-505.359-2928.916c-1.318,0-2.758-.4-3.664.119-.829.478-.775,2.051-1.085,3.15-.391,1.389-.78,2.782-1.24,4.149-.213.632-.069.857.566.832.042,0,.084,0,.125,0,3.457-.136,2.916.836,3.892-2.962A36.4,36.4,0,0,0-505.359-2928.916Z" transform="translate(536.987 2988.31)" fill="#5b5b5b"/>
        <path id="Path_491" data-name="Path 491" d="M-566.167-3024.731q-.541-3.147-1.079-6.294c-.052-.3-.133-.576-.515-.6a.7.7,0,0,0-.749.319c-1.316,2.23-2.642,4.452-3.955,6.684a.736.736,0,0,0-.071.441,1.064,1.064,0,0,0,.585.1c.47-.1.626-.545.777-.915a1.738,1.738,0,0,1,1.938-1.157c1.161.035,2.209-.045,2.1,1.591-.027.42.292.579.683.514C-566.006-3024.116-566.134-3024.45-566.167-3024.731Zm-1.984-5.52c.872,3.344.756,3.536-1.75,3.09Z" transform="translate(572.548 3060.601)" fill="#767879"/>
        <path id="Path_492" data-name="Path 492" d="M-509.805-3024.445c.853.034,1.525-.818,2.37-.171.183.14.386-.236.414-.5.241-2.208.858-4.342,1.262-6.518.059-.32.327-.818-.264-.914-.508-.083-.6.37-.628.751-.074,1.2-.518,1.709-1.888,1.767-2.009.086-3.363,2.938-2.463,4.745A1.433,1.433,0,0,0-509.805-3024.445Zm1.845-4.868c.253.067.771-.095.684.418a5.294,5.294,0,0,1-1.3,3.278c-.508.466-1.151.6-1.56-.143A2.605,2.605,0,0,1-507.96-3029.313Z" transform="translate(536.897 3061.139)" fill="#767879"/>
        <path id="Path_493" data-name="Path 493" d="M-468.9-3024.454c.668.06,1.28-1,2.117-.186.147.143.335-.266.385-.516.439-2.21.884-4.418,1.319-6.629.061-.31.236-.709-.282-.788-.437-.067-.554.266-.62.621-.061.328-.169.651-.2.981-.062.679-.4.857-1.074.872a3.43,3.43,0,0,0-3.306,4.184A1.6,1.6,0,0,0-468.9-3024.454Zm1.616-4.864c.247.023.694-.043.614.554a5.261,5.261,0,0,1-1.113,2.993c-.61.676-1.419.624-1.76-.057A2.624,2.624,0,0,1-467.282-3029.318Z" transform="translate(513.238 3061.156)" fill="#767879"/>
        <path id="Path_494" data-name="Path 494" d="M-447.652-3030.855c-1.058-.322-1.406.315-1.579,1.42-.278,1.765-.724,3.5-1.084,5.258-.068.331-.341.781.247.91.534.117.587-.312.658-.692a4.4,4.4,0,0,0,.148-.6c.04-1.092.494-1.641,1.683-1.564a2.629,2.629,0,0,0,2.237-.925,2.4,2.4,0,0,0,.481-2.565C-445.353-3030.8-446.4-3030.879-447.652-3030.855Zm.66.913a1.17,1.17,0,0,1,1.3,1.281c.01,1.064-.912,1.763-2.29,1.748-.394,0-.721.02-.7-.572C-448.637-3028.99-448.134-3029.939-446.993-3029.943Z" transform="translate(501.487 3060.2)" fill="#767879"/>
        <path id="Path_495" data-name="Path 495" d="M-406.46-3022.47a2.182,2.182,0,0,0,3.193,2.087c.333-.142.676-.34.594-.694-.133-.571-.518-.108-.775-.07a2.758,2.758,0,0,1-1.233.022,1.041,1.041,0,0,1-.793-1.011c0-.6.552-.342.868-.392a5.038,5.038,0,0,0,2.02-.585,1.444,1.444,0,0,0,.742-1.586,1.447,1.447,0,0,0-1.314-1.153C-404.871-3026.156-406.459-3024.533-406.46-3022.47Zm2.022-.908c-.308-.077-.867.151-.776-.348a1.538,1.538,0,0,1,1.6-1.3c.445-.013.913.1.819.666C-402.956-3023.428-403.794-3023.524-404.438-3023.379Z" transform="translate(475.894 3057.261)" fill="#767879"/>
        <path id="Path_496" data-name="Path 496" d="M-336.345-3025.9a3.546,3.546,0,0,0-3.236,4.587,1.453,1.453,0,0,0,1.505,1.089c.708-.028,1.315-.629,2.126-.259.349.16.311-.359.369-.626.222-1.018.46-2.031.683-3.049C-334.539-3025.8-334.638-3025.915-336.345-3025.9Zm-.208.863c.278.09.877-.172.79.441a4.845,4.845,0,0,1-1.277,3.188c-.582.52-1.209.642-1.635-.207A2.6,2.6,0,0,1-336.553-3025.041Z" transform="translate(437.079 3057.27)" fill="#767879"/>
        <path id="Path_497" data-name="Path 497" d="M-427.057-3022.491c-.01,1.48.7,2.264,2.056,2.273a3.158,3.158,0,0,0,2.9-3.439,2,2,0,0,0-2.016-2.229C-425.778-3025.905-427.044-3024.446-427.057-3022.491Zm4.005-1.02c-.029,1.386-.94,2.555-1.972,2.481-.951-.069-1.087-.776-1.081-1.535.01-1.364.82-2.442,1.838-2.454S-423.034-3024.355-423.052-3023.512Z" transform="translate(487.88 3057.26)" fill="#767879"/>
        <path id="Path_498" data-name="Path 498" d="M-362.6-3023.67a1.976,1.976,0,0,0-2.1-2.234,3.212,3.212,0,0,0-2.867,3.467,1.976,1.976,0,0,0,1.985,2.209C-363.854-3020.2-362.6-3021.649-362.6-3023.67Zm-.955-.137c-.028,1.638-.906,2.84-1.893,2.78s-1.176-.767-1.156-1.585c.033-1.388.924-2.474,1.979-2.423C-363.639-3024.988-363.558-3024.294-363.552-3023.807Z" transform="translate(453.256 3057.271)" fill="#767879"/>
        <path id="Path_499" data-name="Path 499" d="M-352.1-3025.021c-.267-.231-.03-.853-.636-.754-.446.073-.424.449-.49.768-.27,1.307-.546,2.613-.807,3.922-.059.3-.3.7.259.776.432.058.561-.269.635-.62.127-.613.268-1.223.38-1.839a2.661,2.661,0,0,1,.551-1.243c.483-.588,1.025-1.31,1.852-.913.784.376.323,1.18.218,1.8-.117.7-.282,1.39-.435,2.083-.064.287-.2.6.223.711.435.114.589-.166.667-.536.216-1.02.474-2.033.653-3.06a1.5,1.5,0,0,0-.6-1.77,1.7,1.7,0,0,0-1.883.208C-351.721-3025.345-351.906-3025.177-352.1-3025.021Z" transform="translate(445.445 3057.263)" fill="#767879"/>
        <path id="Path_500" data-name="Path 500" d="M-523.683-3023.329a1.985,1.985,0,0,0,1.038,1.985,2.538,2.538,0,0,0,2.293.015c.292-.136.525-.357.4-.678-.128-.338-.414-.09-.636-.061a4.708,4.708,0,0,1-1.106.117,1,1,0,0,1-1.008-1.065c.026-.682.618-.386.968-.44a5.038,5.038,0,0,0,1.8-.461,1.484,1.484,0,0,0,.8-1.786,1.466,1.466,0,0,0-1.52-1.07C-522.277-3026.9-523.7-3025.274-523.683-3023.329Zm1.1-.979a1.958,1.958,0,0,1,1.374-1.578c.445-.138.975-.157,1.173.377s-.177.848-.639,1.033A3.113,3.113,0,0,1-522.585-3024.308Z" transform="translate(544.111 3057.779)" fill="#767879"/>
        <path id="Path_501" data-name="Path 501" d="M-411.009-3032a1.7,1.7,0,0,0-1.622,1.159c-.278.642-.181,1.524-1.218,1.636-.191.021-.311.517-.026.591.982.254.482.915.4,1.388-.237,1.308-.561,2.6-.836,3.9-.064.3-.235.7.294.776.438.058.541-.258.614-.616.284-1.385.589-2.766.881-4.15.135-.641.132-1.392,1.146-1.229a.387.387,0,0,0,.433-.36c.037-.24-.069-.414-.327-.421-.531-.012-.771-.229-.62-.782s.353-1.049,1.035-1.056c.355,0,.737.01.663-.479C-410.266-3032.1-410.7-3031.969-411.009-3032Z" transform="translate(480.511 3060.816)" fill="#767879"/>
        <path id="Path_502" data-name="Path 502" d="M-482.892-3023.367a2.159,2.159,0,0,0,3.127,2.163c.326-.132.693-.306.6-.682-.134-.554-.524-.131-.784-.083a2.244,2.244,0,0,1-1.23,0,.99.99,0,0,1-.733-1.041c.05-.594.553-.372.877-.409a4.361,4.361,0,0,0,2.025-.555,1.441,1.441,0,0,0,.684-1.611,1.381,1.381,0,0,0-1.337-1.108C-481.4-3026.9-482.872-3025.393-482.892-3023.367Zm1.882-.8c-.216-.146-.8.2-.717-.312a1.686,1.686,0,0,1,1.53-1.42c.472-.066,1.049.053.969.655C-479.358-3024.272-480.256-3024.333-481.011-3024.166Z" transform="translate(520.373 3057.74)" fill="#767879"/>
        <path id="Path_503" data-name="Path 503" d="M-519.019-3100.932a5.189,5.189,0,0,0-.953.217,1.5,1.5,0,0,0-1.031,1.31,1.5,1.5,0,0,0,.944,1.364,2.5,2.5,0,0,0,1.333.267c1.256-.016,2.23-.669,2.269-1.534C-516.416-3100.228-517.423-3100.942-519.019-3100.932Z" transform="translate(542.554 3100.932)" fill="#f4b64e"/>
        <path id="Path_504" data-name="Path 504" d="M-391.519-3025c.2,0,.663.418.754-.253s-.489-.562-.851-.6a1.828,1.828,0,0,0-2.171,1.059c-.363.944.131,1.568.9,2.091.414.283,1.08.569.727,1.246-.3.581-.924.4-1.463.35-.309-.031-.783-.473-.884.193-.09.592.431.638.84.67.975.077,1.977.12,2.436-1.008.422-1.037-.207-1.641-.99-2.152-.388-.253-.829-.518-.659-1.071C-392.692-3025.1-392.138-3025.031-391.519-3025Z" transform="translate(468.946 3057.254)" fill="#767879"/>
        <path id="Path_505" data-name="Path 505" d="M-381.472-3025c.253-.015.735.43.809-.25.072-.654-.5-.568-.875-.6a1.851,1.851,0,0,0-2.163,1.093c-.38.981.19,1.574.937,2.071.417.278.947.56.695,1.164-.268.641-.884.468-1.425.428-.308-.023-.779-.492-.888.18-.095.584.421.659.833.688.982.071,1.99.08,2.443-1.036.424-1.046-.264-1.628-1.03-2.145-.381-.258-.828-.524-.655-1.082C-382.592-3025.128-382.027-3025.014-381.472-3025Z" transform="translate(463.052 3057.248)" fill="#767879"/>
        <path id="Path_506" data-name="Path 506" d="M-488.611-3029.935c-.472-.071-.647.223-.885.618-.472.784-1.06,1.367-.588,2.5.265.637-.291,1.594-.405,2.417-.142,1.022.415,1.574,1.342,1.412.344-.061.706-.167.721-.564.021-.543-.4-.232-.638-.249-.467-.035-.549-.341-.482-.7.168-.9.363-1.792.56-2.684.108-.491.51-.479.889-.475.338,0,.578-.122.606-.478.029-.376-.27-.345-.513-.359C-489.192-3028.568-488.187-3029.53-488.611-3029.935Z" transform="translate(524.807 3059.622)" fill="#767879"/>
        <path id="Path_507" data-name="Path 507" d="M-542.644-3023.446c0-1.75.954-2.583,2.673-2.313.252.039.486.183.6-.167a.5.5,0,0,0-.359-.683,2.683,2.683,0,0,0-2.7.5,3.7,3.7,0,0,0-1.051,3.762,2.046,2.046,0,0,0,2.9,1.037c.281-.165.508-.4.39-.694-.133-.336-.41-.064-.632-.021C-542.161-3021.768-542.648-3022.149-542.644-3023.446Z" transform="translate(555.723 3057.779)" fill="#767879"/>
        <path id="Path_508" data-name="Path 508" d="M-552.678-3021.062a2.385,2.385,0,0,0,1.166-.355.5.5,0,0,0,.214-.547c-.082-.311-.306-.177-.493-.114-.622.213-1.27.35-1.691-.306a2.48,2.48,0,0,1,.17-2.617,1.708,1.708,0,0,1,1.775-.933,1.715,1.715,0,0,1,.475.146c.25.1.484.167.611-.166.137-.362-.059-.559-.365-.671a2.583,2.583,0,0,0-1.482-.08,3.415,3.415,0,0,0-2.144,4.618A1.94,1.94,0,0,0-552.678-3021.062Z" transform="translate(562.185 3057.777)" fill="#767879"/>
        <path id="Path_509" data-name="Path 509" d="M-323.618-3030.975c.04-.362.07-.621-.287-.669-.448-.062-.564.234-.638.588q-.525,2.5-1.058,4.994c-.1.487-.226.973-.294,1.466-.043.316-.42.769.2.909.538.122.579-.328.657-.694q.586-2.742,1.17-5.483C-323.779-3030.27-323.685-3030.674-323.618-3030.975Z" transform="translate(429.098 3060.615)" fill="#767879"/>
        <path id="Path_510" data-name="Path 510" d="M-435.908-3020.933c-.011.245-.084.521.27.6a.473.473,0,0,0,.635-.413c.14-.652.245-1.314.442-1.949.326-1.052.5-2.266,2.066-2.192.413.02.379-.415.327-.672-.078-.386-.436-.354-.713-.273-.536.156-1.006.71-1.63.1-.162-.159-.418.1-.478.4C-435.286-3023.869-435.6-3022.4-435.908-3020.933Z" transform="translate(493.039 3057.26)" fill="#767879"/>
        <path id="Path_511" data-name="Path 511" d="M-532.209-3021.192c.459.027.523-.3.6-.641a17.807,17.807,0,0,1,.55-2.3c.3-.812.645-1.685,1.776-1.615.431.027.49-.264.484-.554-.01-.531-.431-.418-.735-.372-.524.08-.966.8-1.6.09-.175-.2-.492.139-.559.472-.282,1.424-.578,2.846-.858,4.27C-532.61-3021.549-532.641-3021.238-532.209-3021.192Z" transform="translate(549.292 3057.741)" fill="#767879"/>
        <path id="Path_512" data-name="Path 512" d="M-502.956-2933.787c.8-.07,1.963.418,2.105-1.187.047-.532-.051-.674-.528-.671a17,17,0,0,1-2.237-.018c-1.21-.154-1.174.766-1.38,1.478-.1.355.188.393.444.4C-504.055-2933.782-503.557-2933.787-502.956-2933.787Z" transform="translate(533.249 2992.16)" fill="#5b5b5b"/>
        <path id="Path_513" data-name="Path 513" d="M-372.105-3024.965c.023-.321.042-.573-.314-.622a.461.461,0,0,0-.571.362c-.339,1.549-.662,3.1-.982,4.654a.33.33,0,0,0,.324.43c.263.021.5-.047.572-.359C-372.749-3022.008-372.421-3023.517-372.105-3024.965Z" transform="translate(456.995 3057.09)" fill="#767879"/>
        <path id="Path_514" data-name="Path 514" d="M-495.629-3025.886c.06-.262.079-.519-.275-.564a.486.486,0,0,0-.594.336c-.345,1.54-.672,3.085-1,4.63a.33.33,0,0,0,.311.437.516.516,0,0,0,.634-.446Q-496.089-3023.69-495.629-3025.886Z" transform="translate(528.878 3057.592)" fill="#767879"/>
        <path id="Path_515" data-name="Path 515" d="M-519.3-3077.962c.586-.179.387-.672.388-1.05.008-3.582,0-7.163-.008-10.744-.514-.164-.431.229-.431.49Q-519.329-3083.613-519.3-3077.962Z" transform="translate(541.591 3094.451)" fill="#5b5b5b"/>
        <path id="Path_516" data-name="Path 516" d="M-342.184-2929.178c-.678.092-1.3.336-1.289,1.092.011.711.889.995,1.237.927a1.548,1.548,0,0,0,1.23-1.191C-340.97-2928.98-341.637-2929.124-342.184-2929.178Z" transform="translate(439.239 2988.376)" fill="#a9a9a9"/>
        <path id="Path_517" data-name="Path 517" d="M-463.348-3076.409c-.288.1-.316.339-.316.6q0,2.525,0,5.049a.69.69,0,0,0,.3.636A48.992,48.992,0,0,0-463.348-3076.409Z" transform="translate(509.184 3086.661)" fill="#686868"/>
        <path id="Path_518" data-name="Path 518" d="M-370.2-3031.373a.532.532,0,0,0-.472.6c.021.305.185.57.531.549a.549.549,0,0,0,.544-.665C-369.633-3031.222-369.87-3031.366-370.2-3031.373Z" transform="translate(455.07 3060.453)" fill="#767879"/>
        <path id="Path_519" data-name="Path 519" d="M-493.686-3032.238a.524.524,0,0,0-.544.537.511.511,0,0,0,.479.6.526.526,0,0,0,.61-.591A.524.524,0,0,0-493.686-3032.238Z" transform="translate(526.971 3060.956)" fill="#767879"/>
        <path id="Path_520" data-name="Path 520" d="M-456.364-2922.312a.735.735,0,0,0,.006-.117c0-.014-.026-.027-.041-.041.018.056.036.112.056.169Z" transform="translate(504.956 2997.077)" fill="#fdfdfd"/>
      </g>
    </g>
  </g>
</svg>
