<svg xmlns="http://www.w3.org/2000/svg" xmlns:xlink="http://www.w3.org/1999/xlink" width="223" height="84" viewBox="0 0 223 84">
  <defs>
    <clipPath id="clip-path">
      <rect id="Rectangle_28" data-name="Rectangle 28" width="223" height="84" transform="translate(4556 601)" fill="#fff" stroke="#707070" stroke-width="1"/>
    </clipPath>
  </defs>
  <g id="hubspot" transform="translate(-4556 -601)" clip-path="url(#clip-path)">
    <g id="hubspot-2" data-name="hubspot" transform="translate(2474.377 -324)">
      <g id="Group_95" data-name="Group 95" transform="translate(2115.623 931)">
        <path id="Path_284" data-name="Path 284" d="M-4418.667-2238.833c.6.258.6.516,0,.774Z" transform="translate(4418.667 2298.792)" fill="#333"/>
        <path id="Path_285" data-name="Path 285" d="M-4398.97-2675.369q0-13.056,0-26.112c0-1.741,2.01-3.566,4.149-3.679.941-.049,1.887-.014,2.83-.014q44.191,0,88.382.017a4.851,4.851,0,0,0,2.648-.733c12.833-7.771,30.271-6.277,41.495,3.5a35.066,35.066,0,0,1,12.559,29.753,34.288,34.288,0,0,1-8.391,20.7,35.222,35.222,0,0,1-22.448,12.32,35.091,35.091,0,0,1-23.217-4.67,5.005,5.005,0,0,0-2.651-.72q-44.9.024-89.8.013c-.386,0-.772.006-1.157-.006a4.226,4.226,0,0,1-4.382-4.5q-.013-12.93,0-25.859Zm96.865,28.873c.417.215.848.4,1.249.647a34.131,34.131,0,0,0,22.423,4.892,34.346,34.346,0,0,0,30.1-36.623c-1.493-22.281-24.192-37.355-45.306-30.123a55.042,55.042,0,0,0-8.447,4.024c-.427-.018-.855-.051-1.283-.051q-45.229,0-90.46.006c-2.85,0-3.732.9-3.732,3.789q0,24.77,0,49.54c0,3.121.823,3.949,3.97,3.949q44.974,0,89.945,0C-4303.132-2646.446-4302.618-2646.479-4302.1-2646.5Z" transform="translate(4401.475 2710.855)" fill="#efefee"/>
        <path id="Path_286" data-name="Path 286" d="M-4292.391-2597.526c-.514.017-1.028.05-1.542.05q-44.973,0-89.945,0c-3.146,0-3.97-.828-3.969-3.949q0-24.77,0-49.541c0-2.889.883-3.788,3.733-3.789q45.23-.005,90.46-.006c.428,0,.855.033,1.283.051a41.874,41.874,0,0,0-8.486,8.331,34.415,34.415,0,0,0,1.258,42.124A46.939,46.939,0,0,0-4292.391-2597.526Zm-41.327-39.723a1.422,1.422,0,0,1,1.3.3c1.444,1.072,2.877,2.158,4.326,3.224a.689.689,0,0,1,.219,1.076,4.4,4.4,0,0,0,.623,5.849.926.926,0,0,1,.107,1.358c-.438.611-.736,1.282-1.592,1.561a1.3,1.3,0,0,0-.869,1.539,1.335,1.335,0,0,0,1.077,1.136c1.111.23,1.733-.277,1.825-1.527a2.8,2.8,0,0,1,2.751-2.784,4.435,4.435,0,0,0,4.293-3.717,4.359,4.359,0,0,0-2.7-4.984c-.988-.361-1.045-.92-1.038-1.736a2.14,2.14,0,0,1,.656-1.342,1.663,1.663,0,0,0,.061-1.935c-.346-.646-.807-.685-1.333-.169-.05.05-.232-.02-.349-.052-.974-.271-1.54.183-1.463,1.2a2.758,2.758,0,0,0,.655,1.361,1.857,1.857,0,0,1,.03,2.265c-.588.712-1.347.368-2.018-.163-1.376-1.089-2.78-2.145-4.2-3.181a1.877,1.877,0,0,1-.864-1.322,1.887,1.887,0,0,0-2.186-1.673,1.938,1.938,0,0,0-1.525,2.07C-4335.831-2637.809-4335.036-2637.209-4333.717-2637.249Zm-45.53,5.563c0,1.629.026,3.26-.011,4.889-.017.747.061,1.185,1.009,1.178s.86-.519.891-1.15c.062-1.264-.576-2.951.275-3.682.884-.761,2.55-.134,3.867-.244.828-.07,1.032.3,1,1.052-.049,1.027.029,2.061-.028,3.087-.044.782.312.938.994.924.6-.012.963-.1.958-.836q-.038-5.147,0-10.294c.007-.8-.384-.888-1.034-.891s-.941.174-.914.871c.042,1.071-.016,2.145.02,3.216.022.677-.133,1.044-.917,1.008-1.113-.052-2.231-.04-3.345,0-.667.023-.921-.218-.9-.892.04-1.071-.023-2.146.019-3.216.028-.7-.165-1-.929-.992-.713.009-.988.215-.97.956C-4379.22-2635.032-4379.249-2633.359-4379.248-2631.685Zm39.5,4.671c0,1.207.018,2.193-.007,3.177-.019.733-.059,1.313,1.017,1.3,1.134-.01.953-.7.952-1.368,0-.471.029-.945-.006-1.414-.054-.732.162-.916.867-.59a4.221,4.221,0,0,0,3.611-.009,4.556,4.556,0,0,0,2.635-5.06,4.553,4.553,0,0,0-4.517-3.643,4.492,4.492,0,0,0-4.434,3.723A27.548,27.548,0,0,0-4339.746-2627.014Zm-18.871-6.352h.008c0,1.155-.047,2.312.011,3.464a4.508,4.508,0,0,0,4.814,4.288,4.541,4.541,0,0,0,4.254-4.731,4.592,4.592,0,0,0-4.8-4.332c-.835.01-1.764.99-2.285.325-.419-.533-.133-1.646-.1-2.5.028-.751-.4-.795-.977-.8-.6-.005-.971.072-.936.82C-4358.577-2635.678-4358.617-2634.521-4358.617-2633.366Zm13.507,7.8c2.409.044,3.792-1.012,4.124-3.15.261-1.678-.975-3.34-2.954-3.976-.408-.131-.827-.234-1.22-.4-.577-.242-1.112-.6-1-1.319a1.49,1.49,0,0,1,1.428-1.264,1.946,1.946,0,0,1,1.709.685c.865.867,1.1-.309,1.559-.6.624-.388.065-.72-.24-.967a4.666,4.666,0,0,0-3.625-.955,3.184,3.184,0,0,0-3.149,3.122,3.2,3.2,0,0,0,2.539,3.393,14.907,14.907,0,0,1,1.6.454c.727.319,1.412.776,1.216,1.728s-.966,1.249-1.842,1.277a1.877,1.877,0,0,1-1.736-.651c-.776-1.118-1.107.043-1.55.307-.67.4-.458.915.02,1.358A4.489,4.489,0,0,0-4345.11-2625.563Zm-23.211-5.773c0,.685-.005,1.37,0,2.054.023,2.416,1.241,3.658,3.612,3.689,2.481.031,4.041-1.3,4.119-3.584.052-1.539-.025-3.082.022-4.621.023-.739-.23-.969-.956-.947-.669.021-1.024.144-1,.926.052,1.453.035,2.91,0,4.364a1.732,1.732,0,0,1-2.007,1.936,1.724,1.724,0,0,1-1.868-1.95c-.028-1.412-.042-2.825,0-4.236.025-.763-.2-1.045-1.008-1.059-.9-.015-.965.437-.937,1.118C-4368.3-2632.877-4368.322-2632.106-4368.321-2631.336Zm52.134-6.009a2.187,2.187,0,0,0-2.006,2.652c.149,2.173.021,4.364.047,6.547.025,2.069,1.345,3.057,3.337,2.537.8-.209.774-.991.914-1.544.154-.613-.5-.407-.816-.428a1.308,1.308,0,0,1-1.359-1.51c0-.685.049-1.374-.012-2.054-.085-.954.054-1.617,1.254-1.429.576.091.767-.255.708-.772-.047-.418.209-1.134-.545-1.036-1.531.2-1.4-.757-1.376-1.732A1.885,1.885,0,0,0-4316.187-2637.345Zm-6.146,24.414-.3.033c-.43-1.291-.868-2.578-1.285-3.873-.134-.415-.332-.66-.818-.619-.535.045-.446.426-.447.749q-.014,2.316,0,4.632c0,.274-.1.706.339.686.4-.017.329-.432.331-.72.006-1.139,0-2.278,0-3.45.549.109.507.472.6.73.34.971.676,1.945.98,2.927a.7.7,0,0,0,.85.575c.489-.061.456-.43.456-.774,0-1.544,0-3.088-.005-4.631,0-.281.063-.689-.382-.662s-.3.449-.309.712C-4322.344-2615.388-4322.334-2614.159-4322.334-2612.931Zm5.843-1.4h0c0,.643-.034,1.289.012,1.928.028.375-.267,1.049.332,1.05s.248-.681.346-1.052a.573.573,0,0,0,0-.256c-.185-.823.411-1,.983-1.122.7-.149.984.3,1.155.906.152.543-.313,1.58.6,1.485.477-.05-.014-1.1.027-1.7a1.054,1.054,0,0,0-.24-.71c-.28-.308-.289-.482-.021-.839a1.665,1.665,0,0,0-.042-2.245,2.729,2.729,0,0,0-2.8-.43c-.719.174-.263,1.11-.345,1.7A9.476,9.476,0,0,0-4316.491-2614.328Zm-53.716-.04v1.026c0,.385-.028.772.008,1.154.03.3-.19.826.281.849.588.029.323-.552.418-.88.13-.457-.384-1.108.515-1.344,1.293-.339,1.355-.323,1.624,1.49.051.338.047.79.486.775.633-.021.25-.509.223-.775-.065-.664.082-1.4-.5-1.924-.246-.221-.069-.367.057-.521a1.7,1.7,0,0,0,.064-2.342,2.566,2.566,0,0,0-2.771-.449c-.868.247-.248,1.261-.394,1.919A4.643,4.643,0,0,0-4370.207-2614.368Zm36.292.036c0,.64-.031,1.282.012,1.92.026.38-.25,1.055.326,1.058s.259-.676.348-1.052a.32.32,0,0,0,0-.127c-.2-.978.527-1.165,1.178-1.229.809-.08.924.574.968,1.211a5.159,5.159,0,0,0,.128,1.007.382.382,0,0,0,.519.241c.207-.071.194-.251.152-.421-.17-.7.026-1.5-.432-2.1-.271-.353-.25-.5-.005-.831a1.631,1.631,0,0,0-.054-2.229,2.7,2.7,0,0,0-2.782-.421c-.748.193-.253,1.109-.345,1.695A8.154,8.154,0,0,0-4333.915-2614.332Zm-15.583-.082h-.007q0,1.218,0,2.435c0,.365.061.623.514.731a2.372,2.372,0,0,0,3.236-2.26,8.655,8.655,0,0,0-.018-2.171c-.216-1.415-1.21-1.954-3.046-1.71-1.325.177-.451,1.215-.656,1.829A3.779,3.779,0,0,0-4349.5-2614.414Zm-21.706-2.982a18.343,18.343,0,0,1-1.928-.012c-.975-.116-1.378.191-1.3,1.24a24.008,24.008,0,0,1,0,3.59c-.076,1.065.278,1.539,1.353,1.33.554-.107,1.563.31,1.57-.288.008-.7-.973-.311-1.5-.337-.934-.047-.672-.7-.718-1.2-.048-.535-.056-1.015.736-1,.468.009,1.317.26,1.328-.3.014-.688-.821-.328-1.255-.331-.872,0-.8-.546-.813-1.117s.041-.992.8-.995C-4372.445-2616.808-4371.841-2616.535-4371.2-2617.4Zm36.244,5.667c-.447-1.658-.878-3.272-1.318-4.883-.1-.36-.135-.778-.679-.783s-.589.409-.689.771c-.413,1.485-.826,2.971-1.213,4.463-.074.28-.436.7.095.849.474.136.556-.327.578-.654.077-1.115.816-1.126,1.639-1.044s.587.829.812,1.281c.122.244.209.482.53.441C-4334.9-2611.327-4334.943-2611.562-4334.958-2611.729Zm17.233-5.382c-2.136-.9-2.971-.416-2.977,1.7,0,.686,0,1.372,0,2.058,0,2.3.07,2.359,2.362,2.11.244-.027.587.046.612-.293.027-.357-.317-.312-.562-.345-1.772-.242-1.772-.242-1.649-1.984.407-.015.854.242,1.215-.073.258-.227.946.115.818-.524-.085-.43-.585-.278-.895-.252-.812.07-1.224-.079-1.238-1.073-.016-1.119.611-1,1.319-1.007C-4318.377-2616.8-4317.927-2616.6-4317.726-2617.111Zm-24.924,2.827c0,.771-.012,1.541.006,2.311.006.266-.121.692.35.66.4-.027.373-.418.352-.708-.066-.9-.08-1.71,1.2-1.633.214.013.438-.236.667-.344a1.756,1.756,0,0,0,.9-2.277c-.245-1-1.413-1.417-2.941-1.11-1.046.21-.392,1.037-.511,1.566A7.182,7.182,0,0,0-4342.649-2614.284Zm-8.029-2.94c-2.88-.578-3-.485-3,2.2,0,.6-.01,1.2,0,1.8.044,2.147-.459,1.977,2.106,1.975.311,0,.855.156.858-.28,0-.568-.581-.293-.916-.356-.549-.1-1.333.341-1.371-.795-.032-.967.075-1.592,1.267-1.4.289.047.814.2.862-.267.055-.525-.468-.366-.769-.366-.747,0-1.386.1-1.377-1.071.009-1.23.735-.983,1.434-1.006C-4351.271-2616.8-4350.879-2616.657-4350.678-2617.224Zm-28,2.848a5.6,5.6,0,0,0,.252,2.024,1.606,1.606,0,0,0,1.7,1.092,1.464,1.464,0,0,0,1.444-1.23c.078-.335.4-.833-.172-.958-.5-.11-.37.455-.468.739-.153.438-.377.784-.884.792-.562.008-.835-.364-.986-.849a6.866,6.866,0,0,1-.105-2.546c.041-.6.161-1.248.879-1.413.666-.153,1.036.231,1.189.86a.335.335,0,0,0,.476.275c.332-.134.215-.4.134-.646a1.54,1.54,0,0,0-1.393-1.148,1.584,1.584,0,0,0-1.7.883A4.307,4.307,0,0,0-4378.683-2614.376Zm22.217-3.011c-.893,0-1.641,0-2.388,0-.226,0-.453.088-.456.344-.014,1.795-.012,3.59-.01,5.385a.333.333,0,0,0,.314.343c.268.025.369-.165.375-.4a7.829,7.829,0,0,0-.005-1.153c-.114-.9.134-1.383,1.156-1.211.287.048.8.148.759-.374-.03-.38-.484-.293-.754-.26-.862.1-1.167-.179-1.189-1.107-.023-1.01.506-.983,1.191-.979C-4357.164-2616.8-4356.769-2616.65-4356.466-2617.387Zm-9.561.124c-.025.333.118.468.291.442,1.118-.164,1.261.456,1.212,1.364-.058,1.068-.036,2.143,0,3.214.01.324-.253.909.352.9.444-.007.313-.531.317-.85.015-1.114.031-2.23,0-3.344-.022-.756-.005-1.41,1.04-1.266a.33.33,0,0,0,.4-.244.254.254,0,0,0-.271-.333A15.613,15.613,0,0,0-4366.027-2617.263Zm36.163.161c2.11.047,1.584,1.5,1.6,2.631.014.855,0,1.711.012,2.566,0,.24-.058.575.309.583.34.008.363-.3.365-.559.006-.984.053-1.97,0-2.95-.067-1.1-.047-2.082,1.416-2.157a2.143,2.143,0,0,0,.05-.35A10.962,10.962,0,0,0-4329.864-2617.1Zm-25,2.911h-.011c0-.9,0-1.791,0-2.686,0-.218-.05-.451-.32-.464s-.329.217-.329.438q-.01,2.559-.008,5.118c0,.215.033.464.315.454.343-.012.356-.289.354-.556C-4354.871-2612.655-4354.869-2613.423-4354.869-2614.191Zm-6.577-.213c0,.851,0,1.7,0,2.553,0,.254.013.555.368.54.244-.01.337-.228.337-.46q0-2.553-.01-5.107c0-.219-.053-.443-.318-.468-.383-.035-.373.267-.375.515C-4361.45-2616.021-4361.444-2615.213-4361.446-2614.4Z" transform="translate(4391.762 2661.885)" fill="#586772"/>
        <path id="Path_287" data-name="Path 287" d="M-3739.812-2637.4a46.957,46.957,0,0,1-7.2-6.727,34.415,34.415,0,0,1-1.258-42.124,41.84,41.84,0,0,1,8.486-8.331,55.086,55.086,0,0,1,8.447-4.025c21.114-7.231,43.813,7.843,45.306,30.124a34.347,34.347,0,0,1-30.106,36.623,34.127,34.127,0,0,1-22.422-4.893C-3738.963-2636.993-3739.395-2637.183-3739.812-2637.4Zm10.032-33.011a4.713,4.713,0,0,1-3.367-1.582,3.037,3.037,0,0,1,.2-4.606,63.651,63.651,0,0,1,5.787-4.054c.572-.382,1.7-.655,1.372-1.414-.37-.864-1.424-.345-2.192-.2a5.962,5.962,0,0,0-.732.24c-2.119.685-4.256,1.322-6.352,2.073a4.152,4.152,0,0,1-3.34-.189c-2.986-1.374-3-1.348-4.512,1.564-1.858,3.574-3.725,7.143-5.567,10.725-.341.662-.883,1.4.092,2.011,2.074,1.29,4.162,2.556,6.239,3.84.389.24.619.229.948-.18,1.874-2.334,3.44-2.289,5.145.119.237.335.328.463.763.176,2.16-1.427,3.42-1.224,4.911.744.268.355.441.485.922.323,2.888-.974,3.219-.865,5.076,1.56a1.7,1.7,0,0,0,1.47.812c1.961.01,2.952.871,3.378,2.823a1.728,1.728,0,0,0,.54,1.114c1.6,1.292,3.156,2.64,4.785,3.894a2.014,2.014,0,0,0,3.142-.742c.553-1,.3-1.978-.8-2.938-2.944-2.558-5.913-5.087-8.839-7.665-.521-.459-1.643-.991-.947-1.772.669-.751,1.239.372,1.723.777,3.745,3.133,7.451,6.313,11.16,9.491.811.695,1.638,1.108,2.662.446,1.47-.952,1.51-2.452.059-3.738-3.752-3.325-7.53-6.621-11.268-9.961-.447-.4-1.419-.875-.715-1.6.6-.615,1.134.247,1.577.626q6.745,5.76,13.448,11.567c.829.719,1.657,1.1,2.646.417,1.046-.727.926-1.72.553-2.766a3.182,3.182,0,0,0-1.014-1.3q-8.106-7.13-16.208-14.264a1.434,1.434,0,0,0-1.719-.291c-2.661,1.074-5.349,2.085-8.042,3.078A11.081,11.081,0,0,1-3729.78-2670.409Zm-3.216-3.809a1.929,1.929,0,0,0,.627,1.364c1.412,1.539,3.094,1.433,4.848.773,2.125-.8,4.232-1.644,6.362-2.43,1.358-.5,2.793-1.678,4.048-1.336,1.3.354,2.309,1.8,3.416,2.806q7.185,6.516,14.349,13.054c.43.393.768.737,1.408.234,1.953-1.533,3.948-3.013,5.944-4.489a.894.894,0,0,0,.356-1.286q-3.038-6.66-6.006-13.352c-.287-.647-.609-.828-1.263-.516-.459.219-.985.3-1.458.49a3.72,3.72,0,0,1-3.632-.4c-2.036-1.263-4.292-2.2-6.229-3.587a6.938,6.938,0,0,0-7.273-.848c-2.052.838-4.455.971-6.323,2.065-3.011,1.765-5.707,4.068-8.545,6.131A1.619,1.619,0,0,0-3733-2674.218Zm12.489,19.053c-.014-1.22-.46-1.979-1.431-2.256a1.909,1.909,0,0,0-2.5,1.005,44.7,44.7,0,0,0-2.017,5.521c-.46,1.681,1.007,2.832,2.713,2.406,1.087-.272,1.214-1.132,1.525-1.944A49.93,49.93,0,0,0-3720.506-2655.165Zm-8.846,3.88a1.819,1.819,0,0,0,1.768-1.078c.733-1.827,1.459-3.664,2.042-5.542a1.844,1.844,0,0,0-1.231-2.376,1.946,1.946,0,0,0-2.612.981,52.127,52.127,0,0,0-2,5.419A1.99,1.99,0,0,0-3729.352-2651.285Zm-3.753-10.452a1.671,1.671,0,0,0-1.492.605,9.656,9.656,0,0,0-1.723,4.838,1.788,1.788,0,0,0,1.507,1.832,1.841,1.841,0,0,0,2.24-.818,13.209,13.209,0,0,0,1.519-4.2A1.978,1.978,0,0,0-3733.1-2661.737Zm-3.479,1.219a2.1,2.1,0,0,0-.969-2.078,2.061,2.061,0,0,0-2.185-.021,2.977,2.977,0,0,0-1.336,2.293,2.162,2.162,0,0,0,1.344,2.779,2.1,2.1,0,0,0,2.7-1.508C-3736.823-2659.6-3736.683-2660.185-3736.584-2660.518ZM-3717-2650.3c-.216-1.057-1.1-1.727-1.76-2.543-.551-.679-.97-.843-1.331.2a9.036,9.036,0,0,1-1.162,2.4,1.056,1.056,0,0,0-.058,1.409c.714.669,1.521,1.345,2.616.977A2.728,2.728,0,0,0-3717-2650.3Z" transform="translate(3839.183 2701.757)" fill="#e78231"/>
        <path id="Path_288" data-name="Path 288" d="M-3976.972-2542.609c-1.318.039-2.113-.56-2.211-1.646a1.939,1.939,0,0,1,1.526-2.07,1.886,1.886,0,0,1,2.185,1.674,1.878,1.878,0,0,0,.865,1.322c1.415,1.036,2.819,2.092,4.195,3.181.671.531,1.431.875,2.018.164a1.856,1.856,0,0,0-.029-2.265,2.759,2.759,0,0,1-.655-1.361c-.077-1.012.49-1.467,1.462-1.2.116.032.3.1.35.052.526-.516.986-.477,1.333.169a1.663,1.663,0,0,1-.06,1.935,2.144,2.144,0,0,0-.656,1.341c-.007.816.05,1.375,1.038,1.737a4.358,4.358,0,0,1,2.7,4.983,4.432,4.432,0,0,1-4.292,3.718,2.8,2.8,0,0,0-2.752,2.784c-.092,1.25-.714,1.758-1.825,1.528a1.334,1.334,0,0,1-1.077-1.136,1.3,1.3,0,0,1,.869-1.539c.856-.278,1.154-.949,1.591-1.561a.924.924,0,0,0-.106-1.358,4.4,4.4,0,0,1-.623-5.849.689.689,0,0,0-.219-1.076c-1.448-1.066-2.883-2.153-4.326-3.225A1.423,1.423,0,0,0-3976.972-2542.609Zm9.714,9.756a2.676,2.676,0,0,0,2.417-2.529,2.589,2.589,0,0,0-2.493-2.538,2.475,2.475,0,0,0-2.547,2.6A2.708,2.708,0,0,0-3967.258-2532.854Z" transform="translate(4035.015 2567.246)" fill="#e78231"/>
        <path id="Path_289" data-name="Path 289" d="M-4320.259-2514.175c0-1.673.029-3.346-.014-5.018-.02-.741.256-.947.969-.957.764-.01.957.294.929.992-.042,1.071.021,2.146-.018,3.216-.025.674.228.914.9.891,1.114-.038,2.232-.05,3.345,0,.784.036.939-.331.917-1.008-.036-1.071.022-2.146-.02-3.216-.028-.7.268-.875.913-.871s1.041.087,1.035.891q-.047,5.147,0,10.294c.005.732-.355.823-.958.836-.682.014-1.038-.143-.993-.924.056-1.026-.021-2.059.028-3.087.036-.751-.168-1.122-1-1.052-1.317.11-2.982-.518-3.867.244-.85.732-.213,2.418-.274,3.683-.031.632.055,1.144-.891,1.15s-1.026-.431-1.008-1.178C-4320.231-2510.915-4320.257-2512.545-4320.259-2514.175Z" transform="translate(4332.772 2544.375)" fill="#fdfbf9"/>
        <path id="Path_290" data-name="Path 290" d="M-4009.287-2488.6a27.664,27.664,0,0,1,.118-3.882,4.493,4.493,0,0,1,4.434-3.722,4.553,4.553,0,0,1,4.517,3.643,4.554,4.554,0,0,1-2.635,5.059,4.222,4.222,0,0,1-3.612.009c-.7-.326-.92-.142-.866.59.035.469.005.942.006,1.414,0,.672.182,1.357-.951,1.368-1.076.01-1.035-.571-1.017-1.3C-4009.268-2486.406-4009.287-2487.392-4009.287-2488.6Zm7.222-3.126a2.62,2.62,0,0,0-2.63-2.6,2.664,2.664,0,0,0-2.654,2.725,2.638,2.638,0,0,0,2.647,2.594A2.61,2.61,0,0,0-4002.064-2491.724Z" transform="translate(4061.302 2523.469)" fill="#efefee"/>
        <path id="Path_291" data-name="Path 291" d="M-4157.847-2515.785c0-1.155.04-2.312-.014-3.464-.035-.748.337-.825.935-.82.58.005,1.005.049.977.8-.033.854-.319,1.966.1,2.5.521.665,1.45-.315,2.285-.325a4.591,4.591,0,0,1,4.8,4.332,4.54,4.54,0,0,1-4.254,4.731,4.508,4.508,0,0,1-4.814-4.287c-.058-1.152-.01-2.31-.01-3.464Zm4.563.563a2.722,2.722,0,0,0-2.723,2.685,2.743,2.743,0,0,0,2.626,2.657,2.7,2.7,0,0,0,2.771-2.619A2.7,2.7,0,0,0-4153.284-2515.222Z" transform="translate(4190.992 2544.304)" fill="#fdfbf9"/>
        <path id="Path_292" data-name="Path 292" d="M-4075.906-2507.27a4.488,4.488,0,0,1-3.121-.953c-.478-.443-.69-.96-.02-1.358.443-.264.775-1.425,1.55-.307a1.877,1.877,0,0,0,1.736.651c.876-.028,1.644-.315,1.843-1.277s-.49-1.409-1.217-1.728a14.78,14.78,0,0,0-1.6-.454,3.2,3.2,0,0,1-2.539-3.393,3.185,3.185,0,0,1,3.15-3.122,4.664,4.664,0,0,1,3.624.955c.306.247.865.578.24.967-.459.286-.694,1.463-1.558.6a1.948,1.948,0,0,0-1.71-.685,1.49,1.49,0,0,0-1.428,1.264c-.112.723.424,1.077,1,1.319.393.166.812.269,1.219.4,1.98.635,3.215,2.3,2.954,3.976C-4072.115-2508.282-4073.5-2507.226-4075.906-2507.27Z" transform="translate(4122.558 2543.593)" fill="#efefee"/>
        <path id="Path_293" data-name="Path 293" d="M-4234.224-2493.92c0-.77.023-1.541-.007-2.311-.027-.681.042-1.133.938-1.117.806.014,1.032.3,1.007,1.059-.046,1.411-.033,2.824,0,4.236a1.724,1.724,0,0,0,1.868,1.95,1.733,1.733,0,0,0,2.008-1.937c.03-1.454.047-2.911-.006-4.364-.028-.781.327-.906,1-.926.728-.022.979.208.957.947-.047,1.539.03,3.082-.022,4.621-.078,2.288-1.638,3.616-4.119,3.584-2.372-.03-3.589-1.272-3.612-3.688C-4234.229-2492.551-4234.224-2493.236-4234.224-2493.92Z" transform="translate(4257.663 2524.47)" fill="#efefee"/>
        <path id="Path_294" data-name="Path 294" d="M-3837.583-2517.669a1.886,1.886,0,0,1,.144,1.232c-.02.975-.154,1.93,1.377,1.731.755-.1.5.619.545,1.037.059.518-.132.863-.708.772-1.2-.188-1.34.475-1.254,1.429.061.68.014,1.369.013,2.054a1.307,1.307,0,0,0,1.359,1.509c.314.021.971-.185.816.428-.139.553-.114,1.335-.913,1.544-1.993.52-3.312-.469-3.337-2.538-.026-2.183.1-4.374-.046-6.547A2.186,2.186,0,0,1-3837.583-2517.669Z" transform="translate(3913.157 2542.208)" fill="#fdfbf9"/>
        <path id="Path_295" data-name="Path 295" d="M-3891.76-2356.14c0-1.229-.01-2.457.008-3.685,0-.263-.133-.685.309-.712s.379.381.381.662c.01,1.543.007,3.087.007,4.631,0,.344.032.713-.456.774a.7.7,0,0,1-.849-.575c-.3-.983-.64-1.956-.98-2.927-.091-.258-.05-.621-.6-.73,0,1.173,0,2.312,0,3.45,0,.288.065.7-.331.72-.437.019-.338-.413-.34-.686q-.015-2.316,0-4.632c0-.322-.088-.7.447-.748.487-.041.684.2.819.619.417,1.294.854,2.582,1.284,3.873Z" transform="translate(3961.188 2405.094)" fill="#efefee"/>
        <path id="Path_296" data-name="Path 296" d="M-3826.493-2358.243a9.472,9.472,0,0,1,.011-1.285c.082-.591-.374-1.527.345-1.7a2.727,2.727,0,0,1,2.8.43,1.665,1.665,0,0,1,.042,2.244c-.268.357-.258.53.022.839a1.054,1.054,0,0,1,.239.71c-.041.6.45,1.651-.027,1.7-.919.1-.453-.942-.606-1.485-.171-.61-.454-1.054-1.155-.906-.572.122-1.167.3-.983,1.122a.558.558,0,0,1,0,.256c-.1.372.25,1.053-.347,1.053s-.3-.675-.331-1.05c-.046-.64-.013-1.285-.013-1.929Zm1.456-2.466c-1-.079-.737.666-.781,1.221-.053.68.039,1.168.933,1.092.774-.065,1.224-.4,1.223-1.17C-3823.662-2360.436-3824.235-2360.73-3825.037-2360.708Z" transform="translate(3901.763 2405.8)" fill="#efefee"/>
        <path id="Path_297" data-name="Path 297" d="M-4249.467-2358.355a4.677,4.677,0,0,1,.011-1.023c.146-.657-.474-1.672.394-1.919a2.565,2.565,0,0,1,2.771.45,1.705,1.705,0,0,1-.064,2.342c-.126.154-.3.3-.056.521.583.524.437,1.26.5,1.924.026.266.409.754-.223.775-.44.015-.437-.437-.486-.775-.269-1.813-.331-1.83-1.624-1.49-.9.236-.385.887-.515,1.344-.095.329.17.909-.418.88-.471-.023-.251-.545-.28-.849-.038-.381-.009-.769-.009-1.153Q-4249.466-2357.842-4249.467-2358.355Zm.7-1.293c.048.507-.214,1.221.794,1.179.8-.034,1.333-.311,1.329-1.176,0-.884-.593-1.106-1.363-1.15C-4248.924-2360.848-4248.755-2360.219-4248.767-2359.648Z" transform="translate(4271.02 2405.872)" fill="#efefee"/>
        <path id="Path_298" data-name="Path 298" d="M-3963.713-2358.225a8.271,8.271,0,0,1,.012-1.279c.093-.585-.4-1.5.346-1.695a2.7,2.7,0,0,1,2.782.421,1.63,1.63,0,0,1,.054,2.229c-.244.327-.266.478,0,.832.459.6.263,1.4.433,2.1.041.17.053.351-.153.421a.381.381,0,0,1-.518-.242,5.161,5.161,0,0,1-.128-1.007c-.044-.638-.16-1.292-.968-1.212-.65.065-1.382.252-1.178,1.229a.3.3,0,0,1,0,.127c-.088.376.235,1.056-.347,1.052s-.3-.679-.326-1.059C-3963.745-2356.942-3963.713-2357.585-3963.713-2358.225Zm1.5-.16c.813.03,1.315-.31,1.321-1.169.006-.813-.52-1.068-1.239-1.145-.791-.083-.96.34-.888.992C-3962.957-2359.145-3963.323-2358.313-3962.214-2358.385Z" transform="translate(4021.56 2405.778)" fill="#efefee"/>
        <path id="Path_299" data-name="Path 299" d="M-4086.45-2357.976a3.8,3.8,0,0,1,.021-1.146c.206-.614-.669-1.653.657-1.829,1.835-.244,2.829.3,3.045,1.71a8.653,8.653,0,0,1,.019,2.17,2.372,2.372,0,0,1-3.237,2.259c-.454-.107-.515-.365-.514-.73,0-.812,0-1.623,0-2.434Zm.7.016c0,.428-.031.86.008,1.285.046.487-.288,1.191.662,1.223.767.026,1.4-.154,1.564-.987a6.734,6.734,0,0,0-.066-3.057c-.206-.781-.834-.879-1.523-.866-.855.016-.611.65-.638,1.117C-4085.765-2358.818-4085.746-2358.388-4085.747-2357.96Z" transform="translate(4128.715 2405.448)" fill="#efefee"/>
        <path id="Path_300" data-name="Path 300" d="M-4279.048-2360.853c-.639.861-1.242.587-1.733.589-.756,0-.812.423-.8.995s-.06,1.113.813,1.118c.435,0,1.27-.358,1.256.33-.011.556-.86.3-1.328.3-.791-.015-.784.465-.736,1,.046.5-.216,1.15.719,1.2.531.027,1.512-.359,1.5.337-.007.6-1.017.18-1.57.288-1.075.209-1.428-.265-1.353-1.33a24.015,24.015,0,0,0,0-3.591c-.083-1.049.321-1.356,1.3-1.24A18.427,18.427,0,0,0-4279.048-2360.853Z" transform="translate(4299.607 2405.343)" fill="#efefee"/>
        <path id="Path_301" data-name="Path 301" d="M-3999.589-2354.941c.015.167.057.4-.246.441-.322.042-.408-.2-.531-.441-.226-.451,0-1.2-.812-1.281s-1.562-.071-1.638,1.043c-.023.327-.1.79-.578.655-.531-.152-.169-.569-.1-.849.388-1.492.8-2.978,1.214-4.463.1-.362.145-.775.69-.771s.58.422.679.783C-4000.467-2358.213-4000.036-2356.6-3999.589-2354.941Zm-1.877-4.494-.294.026c-.138.578-.283,1.155-.411,1.736-.06.273-.288.629.1.788a1.423,1.423,0,0,0,.878.018c.432-.125.213-.48.153-.752C-4001.177-2358.226-4001.324-2358.83-4001.466-2359.435Z" transform="translate(4056.392 2405.097)" fill="#efefee"/>
        <path id="Path_302" data-name="Path 302" d="M-3856.285-2361.323c-.2.51-.651.31-.99.314-.708.009-1.335-.113-1.32,1.007.014.994.427,1.142,1.238,1.073.31-.027.81-.178.9.251.126.639-.56.3-.819.524-.36.316-.808.058-1.215.073-.123,1.742-.123,1.743,1.649,1.984.243.033.589-.012.562.345-.026.34-.37.267-.613.293-2.292.249-2.359.189-2.361-2.11,0-.686,0-1.372,0-2.058C-3859.256-2361.738-3858.42-2362.218-3856.285-2361.323Z" transform="translate(3930.32 2406.096)" fill="#efefee"/>
        <path id="Path_303" data-name="Path 303" d="M-4032.521-2358.113a7.15,7.15,0,0,1,.023-1.535c.119-.529-.535-1.357.511-1.566,1.527-.306,2.7.115,2.941,1.11a1.757,1.757,0,0,1-.9,2.278c-.229.108-.453.357-.667.344-1.282-.077-1.27.738-1.2,1.633.021.291.051.681-.351.708-.471.032-.344-.395-.35-.66C-4032.533-2356.572-4032.521-2357.342-4032.521-2358.113Zm.725-1.333c.157.309-.392,1.158.69,1.131.753-.019,1.37-.183,1.407-1.1.037-.9-.521-1.137-1.292-1.221C-4031.869-2360.728-4031.844-2360.184-4031.8-2359.446Z" transform="translate(4081.633 2405.714)" fill="#efefee"/>
        <path id="Path_304" data-name="Path 304" d="M-4115.962-2361.238c-.2.567-.593.421-.907.431-.7.023-1.424-.224-1.434,1.006-.009,1.175.63,1.07,1.377,1.071.3,0,.824-.159.769.366-.048.466-.573.314-.863.267-1.192-.192-1.3.433-1.267,1.4.037,1.136.821.691,1.371.795.335.063.92-.212.917.356,0,.436-.548.28-.858.28-2.566,0-2.063.173-2.106-1.975-.013-.6,0-1.2,0-1.8C-4118.965-2361.722-4118.843-2361.815-4115.962-2361.238Z" transform="translate(4157.046 2405.898)" fill="#efefee"/>
        <path id="Path_305" data-name="Path 305" d="M-4315.728-2357.6a4.276,4.276,0,0,1,.366-2.127,1.585,1.585,0,0,1,1.7-.883,1.539,1.539,0,0,1,1.392,1.148c.082.242.2.513-.134.646a.334.334,0,0,1-.475-.275c-.153-.63-.523-1.013-1.189-.861-.718.165-.839.808-.879,1.413a6.854,6.854,0,0,0,.1,2.546c.15.486.424.857.986.849.507-.007.73-.354.883-.792.1-.283-.036-.848.469-.738.573.125.25.623.172.958a1.464,1.464,0,0,1-1.445,1.23,1.6,1.6,0,0,1-1.7-1.093A5.507,5.507,0,0,1-4315.728-2357.6Z" transform="translate(4328.809 2405.107)" fill="#efefee"/>
        <path id="Path_306" data-name="Path 306" d="M-4160.425-2360.557c-.3.737-.7.59-1.007.588-.685,0-1.214-.031-1.19.979.021.927.327,1.21,1.189,1.107.27-.032.724-.12.754.26.041.522-.472.423-.759.374-1.022-.172-1.27.311-1.156,1.211a7.765,7.765,0,0,1,0,1.153c-.006.235-.106.425-.375.4a.335.335,0,0,1-.315-.343c0-1.795,0-3.59.011-5.385,0-.255.229-.341.455-.343C-4162.066-2360.562-4161.318-2360.557-4160.425-2360.557Z" transform="translate(4195.721 2405.055)" fill="#efefee"/>
        <path id="Path_307" data-name="Path 307" d="M-4216.1-2360.6a15.605,15.605,0,0,1,3.334-.117.255.255,0,0,1,.271.333.33.33,0,0,1-.4.244c-1.045-.143-1.062.51-1.041,1.267.031,1.113.016,2.229,0,3.344,0,.318.127.843-.317.85-.6.009-.341-.576-.351-.9-.034-1.07-.056-2.145,0-3.214.049-.908-.094-1.528-1.211-1.364C-4215.976-2360.135-4216.12-2360.269-4216.1-2360.6Z" transform="translate(4241.83 2405.225)" fill="#efefee"/>
        <path id="Path_308" data-name="Path 308" d="M-3931.382-2360.3a10.956,10.956,0,0,1,3.749-.237,2.2,2.2,0,0,1-.05.35c-1.463.076-1.483,1.053-1.417,2.158.059.98.012,1.967.005,2.95,0,.261-.025.566-.365.559-.367-.008-.305-.343-.309-.583-.01-.855,0-1.711-.012-2.566C-3929.8-2358.805-3929.272-2360.256-3931.382-2360.3Z" transform="translate(3993.28 2405.086)" fill="#efefee"/>
        <path id="Path_309" data-name="Path 309" d="M-4132.834-2357.033c0,.767,0,1.535,0,2.3,0,.267-.011.544-.355.556-.282.01-.314-.24-.314-.454q0-2.559.009-5.117c0-.221.051-.45.328-.437s.317.246.32.463c.005.9,0,1.791,0,2.687Z" transform="translate(4169.727 2404.728)" fill="#fdfbf9"/>
        <path id="Path_310" data-name="Path 310" d="M-4180.016-2357.3c0-.808,0-1.617,0-2.426,0-.248-.008-.551.375-.516.264.024.317.249.317.468q.01,2.554.011,5.107c0,.232-.094.451-.337.461-.355.015-.366-.286-.368-.54C-4180.021-2355.6-4180.017-2356.449-4180.016-2357.3Z" transform="translate(4210.332 2404.781)" fill="#efefee"/>
        <path id="Path_311" data-name="Path 311" d="M-3689.108-2547.531a11.064,11.064,0,0,0,2.984-.849c2.693-.993,5.381-2,8.041-3.078a1.436,1.436,0,0,1,1.72.291q8.089,7.148,16.208,14.264a3.182,3.182,0,0,1,1.014,1.3c.373,1.046.493,2.039-.553,2.766-.989.688-1.817.3-2.646-.417q-6.7-5.811-13.448-11.567c-.444-.379-.981-1.241-1.577-.626-.7.727.268,1.2.715,1.6,3.738,3.34,7.516,6.636,11.268,9.961,1.452,1.287,1.411,2.786-.059,3.738-1.023.663-1.85.249-2.662-.446-3.708-3.177-7.414-6.357-11.159-9.491-.484-.406-1.055-1.528-1.723-.777-.7.781.426,1.313.946,1.772,2.926,2.578,5.9,5.107,8.839,7.665,1.1.96,1.353,1.939.8,2.938a2.015,2.015,0,0,1-3.142.743c-1.629-1.254-3.186-2.6-4.786-3.894a1.729,1.729,0,0,1-.54-1.114c-.426-1.953-1.418-2.813-3.379-2.824a1.7,1.7,0,0,1-1.47-.811c-1.857-2.425-2.189-2.534-5.076-1.56-.48.162-.653.031-.922-.323-1.49-1.968-2.75-2.17-4.911-.744-.435.287-.526.159-.763-.176-1.705-2.408-3.271-2.453-5.145-.119-.329.409-.559.421-.948.181-2.077-1.284-4.166-2.55-6.239-3.84-.976-.606-.434-1.349-.093-2.011,1.843-3.582,3.71-7.151,5.568-10.725,1.514-2.912,1.525-2.938,4.512-1.564a4.151,4.151,0,0,0,3.34.189c2.1-.751,4.233-1.388,6.353-2.073a5.829,5.829,0,0,1,.731-.24c.769-.142,1.822-.66,2.192.2.326.759-.8,1.032-1.371,1.414a63.655,63.655,0,0,0-5.787,4.054,3.038,3.038,0,0,0-.2,4.606A4.717,4.717,0,0,0-3689.108-2547.531Z" transform="translate(3798.511 2578.879)" fill="#fdfbf9"/>
        <path id="Path_312" data-name="Path 312" d="M-3582.732-2564.035a1.623,1.623,0,0,1,.63-1.331c2.839-2.062,5.534-4.365,8.546-6.131,1.867-1.094,4.271-1.227,6.323-2.065a6.939,6.939,0,0,1,7.273.847c1.938,1.388,4.193,2.324,6.229,3.587a3.72,3.72,0,0,0,3.632.4c.474-.194,1-.271,1.458-.49.653-.312.975-.132,1.263.516q2.97,6.691,6.006,13.352a.894.894,0,0,1-.357,1.286c-2,1.476-3.991,2.957-5.943,4.489-.641.5-.978.158-1.409-.234q-7.167-6.534-14.349-13.053c-1.107-1-2.118-2.452-3.417-2.806-1.254-.342-2.69.834-4.048,1.336-2.129.786-4.237,1.63-6.362,2.43-1.755.66-3.436.766-4.848-.773A1.936,1.936,0,0,1-3582.732-2564.035Z" transform="translate(3688.917 2591.573)" fill="#fdfbf9"/>
        <path id="Path_313" data-name="Path 313" d="M-3525.835-2360.375a50.03,50.03,0,0,1-1.706,4.732c-.311.812-.438,1.672-1.525,1.944-1.707.426-3.173-.725-2.713-2.406a44.553,44.553,0,0,1,2.017-5.521,1.908,1.908,0,0,1,2.5-1.005C-3526.3-2362.355-3525.849-2361.6-3525.835-2360.375Z" transform="translate(3644.511 2406.967)" fill="#fdfbf9"/>
        <path id="Path_314" data-name="Path 314" d="M-3568.667-2376.511a1.99,1.99,0,0,1-2.035-2.6,52.347,52.347,0,0,1,2-5.419,1.946,1.946,0,0,1,2.612-.982,1.845,1.845,0,0,1,1.232,2.376c-.583,1.878-1.308,3.715-2.042,5.542A1.818,1.818,0,0,1-3568.667-2376.511Z" transform="translate(3678.498 2426.983)" fill="#fdfbf9"/>
        <path id="Path_315" data-name="Path 315" d="M-3605.688-2395.8a1.978,1.978,0,0,1,2.05,2.256,13.181,13.181,0,0,1-1.519,4.2,1.841,1.841,0,0,1-2.24.818,1.789,1.789,0,0,1-1.507-1.832,9.659,9.659,0,0,1,1.724-4.838A1.67,1.67,0,0,1-3605.688-2395.8Z" transform="translate(3711.764 2435.822)" fill="#fdfbf9"/>
        <path id="Path_316" data-name="Path 316" d="M-3642.414-2402.707c-.1.332-.239.912-.449,1.466a2.1,2.1,0,0,1-2.7,1.508,2.163,2.163,0,0,1-1.344-2.78,2.977,2.977,0,0,1,1.337-2.293,2.06,2.06,0,0,1,2.185.02A2.1,2.1,0,0,1-3642.414-2402.707Z" transform="translate(3745.012 2443.947)" fill="#fdfbf9"/>
        <path id="Path_317" data-name="Path 317" d="M-3488.162-2326.964a2.727,2.727,0,0,1-1.7,2.445c-1.1.369-1.9-.307-2.615-.976a1.056,1.056,0,0,1,.058-1.409,9.051,9.051,0,0,0,1.162-2.4c.361-1.042.781-.878,1.331-.2C-3489.261-2328.69-3488.378-2328.021-3488.162-2326.964Z" transform="translate(3610.34 2378.425)" fill="#fdfbf9"/>
        <path id="Path_318" data-name="Path 318" d="M-3903.282-2474.926a2.708,2.708,0,0,1-2.623-2.467,2.475,2.475,0,0,1,2.547-2.6,2.589,2.589,0,0,1,2.494,2.538A2.676,2.676,0,0,1-3903.282-2474.926Z" transform="translate(3971.04 2509.318)" fill="#586772"/>
        <path id="Path_319" data-name="Path 319" d="M-3988.641-2478.837a2.61,2.61,0,0,1-2.636,2.715,2.638,2.638,0,0,1-2.647-2.594,2.664,2.664,0,0,1,2.654-2.725A2.62,2.62,0,0,1-3988.641-2478.837Z" transform="translate(4047.878 2510.582)" fill="#586772"/>
        <path id="Path_320" data-name="Path 320" d="M-4140.525-2481.907a2.7,2.7,0,0,1,2.673,2.722,2.694,2.694,0,0,1-2.77,2.62,2.743,2.743,0,0,1-2.626-2.657A2.721,2.721,0,0,1-4140.525-2481.907Z" transform="translate(4178.233 2510.989)" fill="#586772"/>
        <path id="Path_321" data-name="Path 321" d="M-3820.092-2355.917c.8-.021,1.376.273,1.376,1.144,0,.765-.45,1.1-1.224,1.17-.9.076-.986-.412-.933-1.092C-3820.829-2355.251-3821.094-2356-3820.092-2355.917Z" transform="translate(3896.818 2401.009)" fill="#586772"/>
        <path id="Path_322" data-name="Path 322" d="M-4243.512-2354.866c.012-.571-.156-1.2.76-1.147.77.044,1.359.266,1.364,1.15,0,.866-.53,1.143-1.329,1.176C-4243.727-2353.644-4243.464-2354.359-4243.512-2354.866Z" transform="translate(4265.766 2401.09)" fill="#586772"/>
        <path id="Path_323" data-name="Path 323" d="M-3957.108-2353.731c-1.11.073-.744-.758-.807-1.321-.073-.653.1-1.076.887-.992.719.076,1.244.332,1.239,1.144C-3955.794-2354.041-3956.3-2353.7-3957.108-2353.731Z" transform="translate(4016.456 2401.124)" fill="#586772"/>
        <path id="Path_324" data-name="Path 324" d="M-4080.486-2353.527c0-.428-.019-.858.007-1.285.027-.467-.217-1.1.638-1.117.689-.013,1.317.084,1.523.865a6.729,6.729,0,0,1,.066,3.057c-.167.834-.8,1.013-1.564.988-.95-.032-.616-.737-.662-1.223C-4080.518-2352.667-4080.486-2353.1-4080.486-2353.527Z" transform="translate(4123.455 2401.015)" fill="#586772"/>
        <path id="Path_325" data-name="Path 325" d="M-3991.944-2351.389c.142.605.289,1.209.424,1.816.06.272.279.627-.153.752a1.419,1.419,0,0,1-.878-.018c-.385-.16-.157-.515-.1-.789.128-.581.273-1.158.41-1.736Z" transform="translate(4046.87 2397.051)" fill="#586772"/>
        <path id="Path_326" data-name="Path 326" d="M-4026.458-2354.844c-.049-.738-.073-1.282.8-1.186.771.083,1.329.323,1.292,1.221s-.655,1.077-1.406,1.1C-4026.851-2353.686-4026.3-2354.534-4026.458-2354.844Z" transform="translate(4076.295 2401.111)" fill="#586772"/>
      </g>
    </g>
  </g>
</svg>
