<svg xmlns="http://www.w3.org/2000/svg" width="34.557" height="39.907" viewBox="0 0 34.557 39.907">
  <g id="Group_3433" data-name="Group 3433" transform="translate(-104.068 -80.159)">
    <path id="Path_12542" data-name="Path 12542" d="M138.621,100.159q0,6.305,0,12.611c-.006,4.549-2.76,7.291-7.32,7.293q-10.115,0-20.23,0a6.628,6.628,0,0,1-6.78-5.086,9.027,9.027,0,0,1-.21-2.082q-.02-12.786-.006-25.572c.005-4.384,2.791-7.152,7.183-7.156q10.115-.009,20.23,0c4.33.005,7.115,2.784,7.13,7.121C138.633,91.577,138.621,95.868,138.621,100.159Zm-31.878-.04q0,6.346,0,12.693c0,3.045,1.536,4.586,4.564,4.587q10.023,0,20.046,0c3.043,0,4.594-1.534,4.6-4.557q.005-12.737,0-25.473c0-2.987-1.552-4.54-4.521-4.541q-10.067,0-20.133,0c-2.987,0-4.546,1.544-4.55,4.511Q106.737,93.728,106.743,100.119Z" fill="#db1010"/>
    <path id="Path_12543" data-name="Path 12543" d="M229.715,208.587v-2.543H244.2v2.543Z" transform="translate(-110.971 -111.182)"/>
    <path id="Path_12544" data-name="Path 12544" d="M244.414,274.126v2.532H229.928v-2.532Z" transform="translate(-111.159 -171.312)"/>
    <path id="Path_12545" data-name="Path 12545" d="M229.709,345.123v-2.542h14.484v2.542Z" transform="translate(-110.966 -231.772)"/>
    <path id="Path_12546" data-name="Path 12546" d="M217.58,137.531v2.533h-10.5v-2.533Z" transform="translate(-90.983 -50.671)"/>
    <path id="Path_12547" data-name="Path 12547" d="M146.869,194.788l1.856-1.912,1.168,1.117c.361-.413.713-.826,1.075-1.228s.747-.808,1.155-1.248l1.691,1.954c-.986,1.035-2.079,2.264-3.268,3.393a1.169,1.169,0,0,1-1.664-.13C148.2,196.1,147.546,195.444,146.869,194.788Z" transform="translate(-37.802 -98.351)"/>
    <path id="Path_12548" data-name="Path 12548" d="M147.187,263.175l1.833-1.832,1.128,1.02,2.145-2.391,1.947,1.914c-1.055,1.07-2.137,2.213-3.272,3.3a1.213,1.213,0,0,1-1.865-.09C148.465,264.5,147.866,263.86,147.187,263.175Z" transform="translate(-38.082 -158.811)"/>
    <path id="Path_12549" data-name="Path 12549" d="M150.085,345.2v-2.521h5.187V345.2Z" transform="translate(-40.642 -231.86)"/>
  </g>
</svg>
