<svg xmlns="http://www.w3.org/2000/svg" width="40.317" height="40.326" viewBox="0 0 40.317 40.326">
  <g id="Group_3435" data-name="Group 3435" transform="translate(-81.203 -80.16)">
    <path id="Path_12552" data-name="Path 12552" d="M121.519,100.352q0,6.415,0,12.831c0,4.481-2.809,7.3-7.285,7.3q-12.875.008-25.75,0c-4.463,0-7.276-2.834-7.277-7.313q0-12.875,0-25.75c0-4.42,2.825-7.25,7.246-7.254q12.919-.01,25.838,0c4.416,0,7.223,2.833,7.228,7.267Q121.524,93.892,121.519,100.352Zm-20.21,17.44q6.461,0,12.923,0c2.989,0,4.6-1.6,4.6-4.582q.007-12.878,0-25.757c0-3-1.6-4.6-4.589-4.6q-12.878,0-25.757,0c-3,0-4.6,1.6-4.6,4.58q-.005,12.878,0,25.757c0,3,1.6,4.6,4.587,4.6Q94.892,117.795,101.309,117.792Z" fill="#db1010"/>
    <path id="Path_12553" data-name="Path 12553" d="M148.892,278.976a5.383,5.383,0,1,1-5.379-5.344A5.425,5.425,0,0,1,148.892,278.976Zm-2.7,0a2.744,2.744,0,0,0-2.685-2.642,2.681,2.681,0,1,0,2.685,2.642Z" transform="translate(-50.205 -170.637)"/>
    <path id="Path_12554" data-name="Path 12554" d="M143.48,147.889a5.383,5.383,0,1,1,5.412-5.4A5.424,5.424,0,0,1,143.48,147.889Zm2.714-5.38a2.755,2.755,0,0,0-2.644-2.689,2.684,2.684,0,1,0,2.644,2.689Z" transform="translate(-50.205 -50.239)"/>
    <path id="Path_12555" data-name="Path 12555" d="M265.736,151.681H252.408v-2.59h13.328Z" transform="translate(-150.998 -60.795)"/>
    <path id="Path_12556" data-name="Path 12556" d="M265.907,285.8v2.563H252.579V285.8Z" transform="translate(-151.149 -181.368)"/>
    <path id="Path_12557" data-name="Path 12557" d="M252.4,194.449h6.6v2.57h-6.6Z" transform="translate(-150.996 -100.8)"/>
    <path id="Path_12558" data-name="Path 12558" d="M252.383,330.949h6.609v2.576h-6.609Z" transform="translate(-150.976 -221.189)"/>
  </g>
</svg>
