<svg xmlns="http://www.w3.org/2000/svg" width="41.143" height="39.779" viewBox="0 0 41.143 39.779">
  <g id="Group_3432" data-name="Group 3432" transform="translate(-59.946 -65.145)">
    <path id="Path_12538" data-name="Path 12538" d="M215.43,90.2c-.76,1.189-1.434,1.32-2.563.479-1.352-1.007-2.716-2-4.038-3.046a2.214,2.214,0,0,0-1.613-.534,10.654,10.654,0,0,1-1.525-.008,1.346,1.346,0,0,1-1.364-1.388,1.31,1.31,0,0,1,1.4-1.334c.91-.025,1.823-.049,2.729.014a2.457,2.457,0,0,1,1.167.429c.988.684,1.934,1.429,2.99,2.221.032-.281.073-.471.073-.662,0-4.712.012-9.424,0-14.136a4.084,4.084,0,0,0-4.2-4.314q-6.746-.073-13.493,0a4.1,4.1,0,0,0-4.246,4.276c-.019.856.008,1.714-.01,2.57a1.363,1.363,0,1,1-2.719.065,24.135,24.135,0,0,1,.183-4.24,6.688,6.688,0,0,1,6.678-5.4q6.866-.076,13.734,0a6.766,6.766,0,0,1,6.682,5.518,2.8,2.8,0,0,0,.141.37Z" transform="translate(-114.341)" fill="#db1010"/>
    <path id="Path_12539" data-name="Path 12539" d="M59.952,208.772c0-2.758-.006-5.517,0-8.275A6.8,6.8,0,0,1,67,193.38q6.668-.046,13.336,0a6.8,6.8,0,0,1,7.037,6.975q.064,3.976,0,7.953a6.828,6.828,0,0,1-7.125,6.976c-4.071.007-8.141-.013-12.211.022a2.573,2.573,0,0,0-1.371.463c-1.442,1.019-2.84,2.1-4.247,3.168a1.5,1.5,0,0,1-1.7.307,1.541,1.541,0,0,1-.77-1.556C59.959,214.717,59.952,211.745,59.952,208.772Zm2.743,6.52c1.077-.8,1.962-1.541,2.926-2.154a3.4,3.4,0,0,1,1.681-.559c4.284-.046,8.569-.02,12.854-.027a4.141,4.141,0,0,0,4.485-4.437q.023-3.776,0-7.552a4.111,4.111,0,0,0-4.465-4.444q-6.467,0-12.935.01c-2.886,0-4.545,1.651-4.547,4.521q-.005,6.869,0,13.738Z" transform="translate(0 -114.477)" fill="#db1010"/>
    <path id="Path_12540" data-name="Path 12540" d="M128.455,257.627c1.338,0,2.677-.01,4.015,0,1.014.01,1.639.546,1.641,1.37s-.624,1.37-1.636,1.375q-3.975.017-7.949,0c-1.035,0-1.623-.522-1.624-1.37s.584-1.363,1.62-1.374C125.832,257.617,127.144,257.627,128.455,257.627Z" transform="translate(-56.211 -171.858)"/>
    <path id="Path_12541" data-name="Path 12541" d="M126.473,311.517c-.7,0-1.391.018-2.086,0a1.371,1.371,0,0,1-1.491-1.342,1.344,1.344,0,0,1,1.508-1.393q2.045-.034,4.091,0a1.34,1.34,0,0,1,1.492,1.328,1.371,1.371,0,0,1-1.509,1.406C127.81,311.535,127.141,311.517,126.473,311.517Z" transform="translate(-56.206 -217.518)"/>
  </g>
</svg>
