<svg xmlns="http://www.w3.org/2000/svg" width="41.406" height="41.402" viewBox="0 0 41.406 41.402">
  <g id="Group_3434" data-name="Group 3434" transform="translate(-59.74 -59)">
    <path id="Path_12550" data-name="Path 12550" d="M101.146,67.4V91.973a4.281,4.281,0,0,0-.164.517,9.556,9.556,0,0,1-9.179,7.861q-11.348.1-22.7,0A9.5,9.5,0,0,1,59.8,91.041q-.107-11.347.008-22.7a8.9,8.9,0,0,1,4.583-7.867A23.707,23.707,0,0,1,68.173,59H92.741a3.358,3.358,0,0,0,.438.155,9.5,9.5,0,0,1,7.493,6.567C100.864,66.271,100.99,66.843,101.146,67.4ZM62.52,79.663c0,3.581-.006,7.163,0,10.744a6.911,6.911,0,0,0,7.225,7.209q10.7.01,21.407,0a6.909,6.909,0,0,0,7.231-7.206q.015-10.7,0-21.407a6.914,6.914,0,0,0-7.275-7.242q-10.663-.01-21.326-.007A6.907,6.907,0,0,0,62.521,69Q62.512,74.331,62.52,79.663Z" transform="translate(0)" fill="#db1010"/>
    <path id="Path_12551" data-name="Path 12551" d="M178.269,185.093c0-1.292-.026-2.584.006-3.875a4.056,4.056,0,0,1,5.717-3.694q4.1,1.869,8.073,4.034a4.043,4.043,0,0,1,.035,7.094c-2.631,1.455-5.332,2.8-8.069,4.043a4.068,4.068,0,0,1-5.759-3.726C178.247,187.676,178.269,186.384,178.269,185.093Zm2.764.039c0,1.183-.009,2.367,0,3.55.013,1.43.987,2.033,2.278,1.394,2.359-1.167,4.707-2.356,7.062-3.532a1.5,1.5,0,0,0,1.009-1.333,1.481,1.481,0,0,0-1.006-1.413c-2.407-1.193-4.8-2.407-7.213-3.594a1.347,1.347,0,0,0-2.128,1.3C181.02,182.71,181.034,183.921,181.034,185.131Z" transform="translate(-105.748 -105.422)"/>
  </g>
</svg>
