<svg xmlns="http://www.w3.org/2000/svg" width="32.808" height="32.819" viewBox="0 0 32.808 32.819">
  <g id="Contract" transform="translate(316.44 680.545)">
    <path id="Path_85" data-name="Path 85" d="M-316.44-663.173V-665.1c.026-.231.053-.461.079-.692a16.211,16.211,0,0,1,4.122-9.287,16.1,16.1,0,0,1,9.383-5.214c.617-.109,1.243-.171,1.865-.255h1.923c.549.069,1.1.119,1.647.21a15.976,15.976,0,0,1,8.872,4.5,16.026,16.026,0,0,1,4.838,13.347,15.655,15.655,0,0,1-4.006,9.171,16.066,16.066,0,0,1-11.623,5.567,15.6,15.6,0,0,1-9.051-2.287,16.169,16.169,0,0,1-7.793-11.277C-316.3-661.926-316.356-662.552-316.44-663.173ZM-300.034-678a13.868,13.868,0,0,0-13.858,13.857,13.869,13.869,0,0,0,13.849,13.866,13.872,13.872,0,0,0,13.874-13.873A13.868,13.868,0,0,0-300.034-678Z" fill="#1c2021"/>
    <path id="Path_86" data-name="Path 86" d="M-125.031-580.821c0,1.079.007,2.158-.005,3.237a.6.6,0,0,0,.269.557c1.409,1.04,2.8,2.1,4.207,3.147a1.271,1.271,0,0,1,.566,1.39,1.26,1.26,0,0,1-2.008.7c-.881-.639-1.745-1.3-2.616-1.958-.786-.589-1.569-1.182-2.359-1.766a1.365,1.365,0,0,1-.6-1.142q-.006-3.765,0-7.531a1.272,1.272,0,0,1,1.032-1.29,1.247,1.247,0,0,1,1.4.762,1.932,1.932,0,0,1,.11.656C-125.025-582.979-125.031-581.9-125.031-580.821Z" transform="translate(-173.723 -87.431)" fill="#ef1d26"/>
  </g>
</svg>
