<svg xmlns="http://www.w3.org/2000/svg" width="14.359" height="17.056" viewBox="0 0 14.359 17.056">
  <g id="Copy" transform="translate(-3616.401 -267.482)">
    <g id="Group_50" data-name="Group 50" transform="translate(3616.401 267.482)">
      <path id="Path_87" data-name="Path 87" d="M623.667-567.678c-.112-.025-.225-.049-.337-.076a2.664,2.664,0,0,1-2.027-2.574q-.006-4.53,0-9.059a2.653,2.653,0,0,1,2.638-2.645q3.206-.01,6.412,0a2.65,2.65,0,0,1,2.638,2.628q.012,4.546,0,9.093a2.655,2.655,0,0,1-2.271,2.6.557.557,0,0,0-.092.03Zm-1.033-7.2q0,2.223,0,4.446a1.336,1.336,0,0,0,1.42,1.416h6.178a1.338,1.338,0,0,0,1.429-1.425q0-4.421,0-8.843a1.337,1.337,0,0,0-1.429-1.424h-6.162a1.338,1.338,0,0,0-1.437,1.433Q622.634-577.072,622.634-574.874Z" transform="translate(-621.3 584.734)"/>
      <path id="Path_88" data-name="Path 88" d="M741.1-655.333q0,2.531,0,5.062a.664.664,0,0,1-.866.665.664.664,0,0,1-.464-.591c0-.061,0-.122,0-.183q0-4.929,0-9.858a1.329,1.329,0,0,0-1.144-1.378,1.858,1.858,0,0,0-.3-.015H731.1a.669.669,0,0,1-.723-.661.667.667,0,0,1,.613-.669c.039,0,.078,0,.117,0q3.655,0,7.31,0a2.649,2.649,0,0,1,2.629,2.14,2.985,2.985,0,0,1,.055.595Q741.105-657.78,741.1-655.333Z" transform="translate(-726.742 662.964)" fill="#ef1d26"/>
    </g>
  </g>
</svg>
