<svg xmlns="http://www.w3.org/2000/svg" width="9.748" height="12.792" viewBox="0 0 9.748 12.792">
  <g id="Doc" transform="translate(-3635.764 -242.005)">
    <path id="Path_89" data-name="Path 89" d="M1203.778-574.425a3.072,3.072,0,0,1-.487-.177,1.325,1.325,0,0,1-.711-1.219c0-.9,0-1.8,0-2.7q0-3.64,0-7.281a1.367,1.367,0,0,1,1.061-1.378,1.576,1.576,0,0,1,.358-.038c1.5,0,3,0,4.5,0a1.43,1.43,0,0,1,1.026.41q1.154,1.1,2.314,2.188a1.487,1.487,0,0,1,.49,1.143c0,2.535-.008,5.07,0,7.605a1.393,1.393,0,0,1-1.171,1.428c-.011,0-.021.012-.032.018Zm4.647-12.042h-4.4a.629.629,0,0,0-.692.687q0,4.959,0,9.918a.63.63,0,0,0,.693.687h6.857a.632.632,0,0,0,.694-.7q0-3.728,0-7.457v-.139h-2.2a.88.88,0,0,1-.947-.952q0-.949,0-1.9Zm2.74,2.248-1.983-1.875c0,.04-.008.056-.008.071q0,.817,0,1.634c0,.13.041.169.173.169.324,0,.649,0,.973,0Z" transform="translate(2433.186 829.222)"/>
    <path id="Path_90" data-name="Path 90" d="M1255.945-436.47q-1.354,0-2.708,0a.374.374,0,0,1-.377-.513.362.362,0,0,1,.351-.235c.158,0,.316,0,.474,0h4.98a.375.375,0,0,1,.381.519.377.377,0,0,1-.38.231Z" transform="translate(2384.607 684.221)" fill="#ef1d26"/>
    <path id="Path_91" data-name="Path 91" d="M1255.951-376.449q-1.36,0-2.721,0a.374.374,0,0,1-.373-.515.368.368,0,0,1,.365-.233h5.442a.375.375,0,0,1,.377.521.379.379,0,0,1-.381.229q-1.173,0-2.346,0Z" transform="translate(2384.612 626.199)" fill="#ef1d26"/>
    <path id="Path_92" data-name="Path 92" d="M1254.149-316.453h-.862a.38.38,0,0,1-.415-.371.38.38,0,0,1,.42-.378h1.724a.385.385,0,0,1,.423.377.386.386,0,0,1-.428.372Z" transform="translate(2384.567 568.203)" fill="#ef1d26"/>
  </g>
</svg>
