<svg xmlns="http://www.w3.org/2000/svg" width="30.552" height="38.654" viewBox="0 0 30.552 38.654">
  <g id="Doller" transform="translate(815.74 604.445)">
    <path id="Path_75" data-name="Path 75" d="M-765.724-594.79a41.342,41.342,0,0,1-3.1-3.132,12.23,12.23,0,0,1-1.816-2.628,3.22,3.22,0,0,1-.385-1.594,1.838,1.838,0,0,1,2.312-1.743,8.623,8.623,0,0,1,2.417.817,18.367,18.367,0,0,1,2.342,1.365c.207.141.3.111.441-.083.247-.348.52-.678.793-1.006a5.163,5.163,0,0,1,2.152-1.65h.6a6.675,6.675,0,0,1,2.876,2.565c.2.263.316.311.606.119a13.648,13.648,0,0,1,4.216-2.038,3.15,3.15,0,0,1,1.2-.1,1.866,1.866,0,0,1,1.487,2.463,7.9,7.9,0,0,1-1.671,2.962,35.518,35.518,0,0,1-3.556,3.683c-.9,0-1.806.01-2.709.01Q-761.623-594.783-765.724-594.79Z" transform="translate(-40.208)" fill="#4cae50"/>
    <path id="Path_76" data-name="Path 76" d="M-795.325-492.587c.012.171.157.251.255.359a79.18,79.18,0,0,1,7.4,9.192,32.1,32.1,0,0,1,1.682,2.9,7.224,7.224,0,0,1,.281,6.023,12.313,12.313,0,0,1-5.782,6.61,17.347,17.347,0,0,1-7.666,2.26,18.028,18.028,0,0,1-10.3-2.263,12.806,12.806,0,0,1-4.916-4.731,8.181,8.181,0,0,1-.06-8.946,60.989,60.989,0,0,1,5.179-7.183c1.113-1.349,2.271-2.659,3.454-3.948.074-.081.182-.143.177-.276Zm-4.34,13.058c0-.478,0-.956,0-1.435,0-.1-.046-.228.166-.191a1.884,1.884,0,0,1,1.439,1.384.8.8,0,0,0,.966.713.8.8,0,0,0,.587-1.08,3.467,3.467,0,0,0-2.32-2.532c-.618-.2-.953-.379-.868-1.1a.732.732,0,0,0-.787-.745.806.806,0,0,0-.8.754,3.62,3.62,0,0,0-.007.6c.012.2-.06.269-.266.313a3.609,3.609,0,0,0-2.644,2.1,2.5,2.5,0,0,0,1.007,3.365,6.4,6.4,0,0,0,1.661.7c.127.037.241.049.24.224,0,.981,0,1.963,0,2.945,0,.1-.018.151-.152.135a1.941,1.941,0,0,1-1.448-1.336c-.121-.59-.5-.882-1-.759a.807.807,0,0,0-.544,1.132,3.641,3.641,0,0,0,2.861,2.649c.222.05.3.124.282.339a3.259,3.259,0,0,0,0,.566.81.81,0,0,0,.789.766.811.811,0,0,0,.82-.773,2.63,2.63,0,0,0,0-.49c-.022-.248.039-.354.323-.42a3.593,3.593,0,0,0,2.722-2.413,2.391,2.391,0,0,0-.757-2.752,4.529,4.529,0,0,0-1.878-.923c-.332-.081-.444-.226-.414-.564C-799.638-478.747-799.664-479.139-799.664-479.529Z" transform="translate(0 -100.596)" fill="#4cae50"/>
    <path id="Path_77" data-name="Path 77" d="M-723.726-506.948h-10.3c-.425,0-.85.014-1.275,0a.8.8,0,0,1-.821-.793.809.809,0,0,1,.817-.8c.324-.013.65-.009.974-.013q4.1.006,8.2.01c.9,0,1.806-.006,2.709-.01.325,0,.65,0,.975.013a.808.808,0,0,1,.818.8.8.8,0,0,1-.821.794C-722.875-506.934-723.3-506.946-723.726-506.948Z" transform="translate(-71.599 -86.234)" fill="#388e3c"/>
    <path id="Path_78" data-name="Path 78" d="M-699.147-407.423c0,.39.026.783-.008,1.17-.03.339.082.483.414.564a4.529,4.529,0,0,1,1.878.923,2.391,2.391,0,0,1,.757,2.752,3.593,3.593,0,0,1-2.722,2.413c-.284.066-.344.172-.323.42a2.63,2.63,0,0,1,0,.49.811.811,0,0,1-.82.773.81.81,0,0,1-.789-.766,3.259,3.259,0,0,1,0-.566c.016-.216-.06-.289-.282-.339a3.641,3.641,0,0,1-2.861-2.649.807.807,0,0,1,.544-1.132c.492-.122.874.169,1,.759a1.941,1.941,0,0,0,1.448,1.336c.134.017.152-.033.152-.135,0-.982,0-1.963,0-2.945,0-.175-.113-.187-.24-.224a6.394,6.394,0,0,1-1.661-.7,2.5,2.5,0,0,1-1.007-3.365,3.609,3.609,0,0,1,2.644-2.1c.205-.044.278-.111.266-.313a3.62,3.62,0,0,1,.007-.6.806.806,0,0,1,.8-.754.732.732,0,0,1,.787.745c-.085.722.25.9.868,1.1a3.468,3.468,0,0,1,2.32,2.531.8.8,0,0,1-.587,1.08.8.8,0,0,1-.966-.713,1.884,1.884,0,0,0-1.438-1.384c-.211-.037-.165.091-.166.191C-699.149-408.379-699.147-407.9-699.147-407.423Zm-1.624-.226c0-.4-.007-.8,0-1.207,0-.2-.057-.235-.241-.17a2.42,2.42,0,0,0-1.016.625,1.107,1.107,0,0,0,.179,1.758,3.325,3.325,0,0,0,.81.395c.195.073.274.024.269-.194C-700.779-406.844-700.771-407.247-700.771-407.649Zm3.233,4.931a1.114,1.114,0,0,0-.352-.812,2.722,2.722,0,0,0-.874-.506c-.276-.117-.4-.1-.39.255.024.653.007,1.307.007,1.96s0,.67.608.364A1.56,1.56,0,0,0-697.538-402.718Z" transform="translate(-100.517 -172.702)" fill="#fefefe"/>
    <path id="Path_79" data-name="Path 79" d="M-686.567-377.7c0,.4-.008.8,0,1.207.006.218-.074.267-.269.194a3.327,3.327,0,0,1-.81-.395,1.107,1.107,0,0,1-.179-1.758,2.42,2.42,0,0,1,1.016-.625c.184-.065.246-.028.241.17C-686.573-378.506-686.567-378.1-686.567-377.7Z" transform="translate(-114.722 -202.65)" fill="#4cae50"/>
    <path id="Path_80" data-name="Path 80" d="M-654.535-328.523a1.56,1.56,0,0,1-1,1.261c-.607.305-.608.3-.608-.364s.017-1.308-.007-1.96c-.013-.357.115-.372.39-.255a2.722,2.722,0,0,1,.874.506A1.114,1.114,0,0,1-654.535-328.523Z" transform="translate(-143.52 -246.896)" fill="#4cae50"/>
  </g>
</svg>
