<svg xmlns="http://www.w3.org/2000/svg" width="36.891" height="30.574" viewBox="0 0 36.891 30.574">
  <g id="Resources" transform="translate(830.13 1151.073)">
    <path id="Path_81" data-name="Path 81" d="M-793.239-988.18a3.692,3.692,0,0,1-.8,1.775,3.209,3.209,0,0,1-2.12,1.1,5.819,5.819,0,0,1-.611.024q-14.91,0-29.821.006a3.38,3.38,0,0,1-2.865-1.3,3.213,3.213,0,0,1-.661-2.013c-.007-1.921-.022-3.842,0-5.762a5.342,5.342,0,0,1,5.072-5.317,37.983,37.983,0,0,1,4.5.047,1.217,1.217,0,0,0,1.328-.587,5.008,5.008,0,0,1,4.253-2.238c2.256-.026,4.515-.05,6.77.018a5.054,5.054,0,0,1,4.293,2.559c.173.278.325.394.647.291a2.125,2.125,0,0,1,.639-.088c1.559,0,3.127-.084,4.676.049a5.283,5.283,0,0,1,4.629,4.463,2.63,2.63,0,0,0,.072.275Zm-24.851.712h12.819c.006-.09.016-.159.016-.229,0-3.1.014-6.191,0-9.286a3.2,3.2,0,0,0-3.358-3.312c-2.039-.013-4.079-.024-6.118.012a3.8,3.8,0,0,0-1.525.325,3.141,3.141,0,0,0-1.845,3.077q0,4.535,0,9.07C-818.1-987.705-818.1-987.6-818.09-987.468Zm-2.176,0v-.449q0-4.39,0-8.781c0-.817,0-.83-.846-.839q-1.763-.019-3.526,0a3.372,3.372,0,0,0-.852.11,3.217,3.217,0,0,0-2.468,3.256c-.008,1.811,0,3.623,0,5.434,0,.892.4,1.286,1.3,1.287q3,0,6.01,0C-820.535-987.447-820.419-987.458-820.267-987.466Zm17.189.011c2.264,0,4.482.01,6.7-.007a1.022,1.022,0,0,0,.974-1.09c.008-1.907.023-3.815,0-5.722a3.113,3.113,0,0,0-2.921-3.2c-1.407-.107-2.827-.034-4.241-.032a2.728,2.728,0,0,0-.508.094Z" transform="translate(0 -135.219)"/>
    <path id="Path_82" data-name="Path 82" d="M-690.017-1151.073a6.417,6.417,0,0,1,6.4,6.416,6.439,6.439,0,0,1-6.421,6.408,6.439,6.439,0,0,1-6.4-6.427A6.417,6.417,0,0,1-690.017-1151.073Zm.01,2.161a4.247,4.247,0,0,0-4.269,4.234,4.269,4.269,0,0,0,4.248,4.267,4.27,4.27,0,0,0,4.251-4.228A4.246,4.246,0,0,0-690.007-1148.912Z" transform="translate(-121.654)" fill="#ef1d26"/>
    <path id="Path_83" data-name="Path 83" d="M-803.318-1080.1a4.813,4.813,0,0,1,4.827-4.789,4.817,4.817,0,0,1,4.78,4.8,4.831,4.831,0,0,1-4.83,4.8A4.824,4.824,0,0,1-803.318-1080.1Zm4.8-2.624a2.647,2.647,0,0,0-2.634,2.633,2.664,2.664,0,0,0,2.639,2.637,2.674,2.674,0,0,0,2.638-2.642A2.655,2.655,0,0,0-798.519-1082.721Z" transform="translate(-24.397 -60.226)" fill="#ef1d26"/>
    <path id="Path_84" data-name="Path 84" d="M-544.246-1080.087a4.824,4.824,0,0,1-4.822,4.8,4.831,4.831,0,0,1-4.786-4.8,4.818,4.818,0,0,1,4.825-4.794A4.811,4.811,0,0,1-544.246-1080.087Zm-4.795-2.632a2.655,2.655,0,0,0-2.648,2.624,2.674,2.674,0,0,0,2.633,2.646,2.665,2.665,0,0,0,2.644-2.632A2.647,2.647,0,0,0-549.041-1082.719Z" transform="translate(-251.399 -60.229)" fill="#ef1d26"/>
  </g>
</svg>
