<svg xmlns="http://www.w3.org/2000/svg" width="31.68" height="31.68" viewBox="0 0 31.68 31.68">
  <g id="Accountability" transform="translate(-428 -252)">
    <g id="note" transform="translate(428 252)">
      <path id="Vector" d="M16.83,25.41H6.27C2.284,25.41,0,23.126,0,19.14V6.27C0,2.112,2.112,0,6.27,0a1,1,0,0,1,.99.99A1.983,1.983,0,0,0,9.24,2.97h4.62A1.977,1.977,0,0,0,15.84.99,1,1,0,0,1,16.83,0c4.158,0,6.27,2.112,6.27,6.27V19.14C23.1,23.126,20.816,25.41,16.83,25.41ZM5.412,2.006C3.326,2.178,1.98,3.115,1.98,6.27V19.14c0,2.93,1.36,4.29,4.29,4.29H16.83c2.93,0,4.29-1.36,4.29-4.29V6.27c0-3.155-1.346-4.079-3.432-4.264A3.968,3.968,0,0,1,13.86,4.95H9.24a3.924,3.924,0,0,1-2.8-1.162A3.988,3.988,0,0,1,5.412,2.006Z" transform="translate(4.29 4.62)" fill="#dd1928"/>
      <path id="Vector-2" data-name="Vector" d="M8.58,7.92H3.96A3.966,3.966,0,0,1,0,3.96,3.972,3.972,0,0,1,3.96,0H8.58a3.966,3.966,0,0,1,3.96,3.96A3.972,3.972,0,0,1,8.58,7.92ZM3.96,1.98a1.98,1.98,0,0,0,0,3.96H8.58a1.98,1.98,0,0,0,0-3.96Z" transform="translate(9.57 1.65)" fill="#dd1928"/>
      <path id="Vector-3" data-name="Vector" d="M6.27,1.98H.99A1,1,0,0,1,0,.99,1,1,0,0,1,.99,0H6.27a1,1,0,0,1,.99.99A1,1,0,0,1,6.27,1.98Z" transform="translate(9.57 16.17)" fill="#292d32"/>
      <path id="Vector-4" data-name="Vector" d="M11.55,1.98H.99A1,1,0,0,1,0,.99,1,1,0,0,1,.99,0H11.55a1,1,0,0,1,.99.99A1,1,0,0,1,11.55,1.98Z" transform="translate(9.57 21.45)" fill="#292d32"/>
      <path id="Vector-5" data-name="Vector" d="M0,0H31.68V31.68H0Z" fill="none" opacity="0"/>
      <path id="Vector-6" data-name="Vector" d="M0,0H31.68V31.68H0Z" fill="none" opacity="0"/>
    </g>
  </g>
</svg>
