<svg xmlns="http://www.w3.org/2000/svg" width="33.635" height="33.635" viewBox="0 0 33.635 33.635">
  <g id="honesty" transform="translate(-881.754 -2561.886)">
    <g id="Honesty-2" data-name="Honesty" transform="translate(197.754 2373.886)">
      <g id="heart-tick" transform="translate(684 188)">
        <path id="Vector" d="M1.712,3.437a.659.659,0,0,1-.471-.2L.193,2.193a.666.666,0,1,1,.942-.942l.6.6,1.8-1.67a.666.666,0,1,1,.906.977L2.166,3.25A.611.611,0,0,1,1.712,3.437Z" transform="translate(14.492 13.381)" fill="#292d32"/>
        <path id="Vector-2" data-name="Vector" d="M0,0H33.635V33.635H0Z" transform="translate(33.635 33.635) rotate(180)" fill="none" opacity="0"/>
        <path id="Vector-3" data-name="Vector" d="M6.29,12.58A6.278,6.278,0,0,1,.907,9.52,6.172,6.172,0,0,1,0,6.29a6.29,6.29,0,0,1,12.58,0,6.187,6.187,0,0,1-.918,3.253A6.274,6.274,0,0,1,6.29,12.58Zm0-10.88A4.6,4.6,0,0,0,1.7,6.29a4.6,4.6,0,0,0,4.59,4.59,4.508,4.508,0,0,0,3.921-2.221A4.483,4.483,0,0,0,10.88,6.29,4.6,4.6,0,0,0,6.29,1.7Z" transform="translate(10.527 8.815)" fill="#292d32"/>
      </g>
    </g>
    <path id="Vector-4" data-name="Vector" d="M13.571,29.913a3.827,3.827,0,0,1-2.7-1.114l-2.38-2.352a3.14,3.14,0,0,0-2.213-.9H5.22A5.2,5.2,0,0,1,0,20.364V5.178A5.2,5.2,0,0,1,5.22,0h16.7a5.2,5.2,0,0,1,5.22,5.178V20.364a5.2,5.2,0,0,1-5.22,5.178H20.865a3.116,3.116,0,0,0-2.213.9L16.272,28.8A3.827,3.827,0,0,1,13.571,29.913ZM5.22,2.074a3.119,3.119,0,0,0-3.132,3.09V20.35A3.11,3.11,0,0,0,5.22,23.44H6.278a5.226,5.226,0,0,1,3.689,1.517l2.38,2.352a1.765,1.765,0,0,0,2.464,0l2.38-2.352a5.225,5.225,0,0,1,3.689-1.517h1.044a3.119,3.119,0,0,0,3.132-3.09V5.164a3.11,3.11,0,0,0-3.132-3.09Z" transform="translate(885 2563)" fill="#dd1928"/>
  </g>
</svg>
