<svg xmlns="http://www.w3.org/2000/svg" width="33.178" height="33.178" viewBox="0 0 33.178 33.178">
  <g id="loyalty" transform="translate(-236 -316)">
    <g id="like" transform="translate(236 316)">
      <path id="Vector" d="M13.478,29.708A3.8,3.8,0,0,1,10.8,28.6L8.433,26.266a3.118,3.118,0,0,0-2.2-.9H5.184A5.168,5.168,0,0,1,0,20.225V5.143A5.168,5.168,0,0,1,5.184,0H21.773a5.168,5.168,0,0,1,5.184,5.143V20.225a5.168,5.168,0,0,1-5.184,5.143H20.722a3.178,3.178,0,0,0-2.2.9L16.16,28.6A3.8,3.8,0,0,1,13.478,29.708ZM5.184,2.06a3.1,3.1,0,0,0-3.11,3.069V20.211a3.089,3.089,0,0,0,3.11,3.069H6.235A5.249,5.249,0,0,1,9.9,24.787l2.364,2.336a1.753,1.753,0,0,0,2.447,0l2.364-2.336a5.249,5.249,0,0,1,3.663-1.507h1.037a3.1,3.1,0,0,0,3.11-3.069V5.129a3.089,3.089,0,0,0-3.11-3.069Z" transform="translate(3.11 1.742)" fill="#dd1928"/>
      <path id="Vector-2" data-name="Vector" d="M5.873,10.648a1.982,1.982,0,0,1-.583-.09C3.811,10.054,0,7.824,0,3.654A3.641,3.641,0,0,1,5.885.773a3.641,3.641,0,0,1,5.885,2.881c0,4.17-3.822,6.4-5.291,6.9A2.261,2.261,0,0,1,5.873,10.648ZM3.632,1.681A1.973,1.973,0,0,0,1.67,3.654c0,3.172,3.082,4.943,4.159,5.313h.09c1.087-.381,4.147-2.152,4.147-5.3A1.962,1.962,0,0,0,6.535,2.477a.868.868,0,0,1-1.345,0A1.892,1.892,0,0,0,3.632,1.681Z" transform="translate(10.718 9.882)" fill="#2a2a2a"/>
      <path id="Vector-3" data-name="Vector" d="M0,0H33.178V33.178H0Z" transform="translate(33.178 33.178) rotate(180)" fill="none" opacity="0"/>
    </g>
  </g>
</svg>
