<svg xmlns="http://www.w3.org/2000/svg" width="33.406" height="33.406" viewBox="0 0 33.406 33.406">
  <g id="transparency" transform="translate(-979.297 -2562)">
    <g id="like-tag" transform="translate(979.297 2562)">
      <path id="Vector" d="M13.571,29.913a3.827,3.827,0,0,1-2.7-1.114l-2.38-2.352a3.14,3.14,0,0,0-2.213-.9H5.22A5.2,5.2,0,0,1,0,20.364V5.178A5.2,5.2,0,0,1,5.22,0h16.7a5.2,5.2,0,0,1,5.22,5.178V20.364a5.2,5.2,0,0,1-5.22,5.178H20.865a3.116,3.116,0,0,0-2.213.9L16.272,28.8A3.827,3.827,0,0,1,13.571,29.913ZM5.22,2.074a3.119,3.119,0,0,0-3.132,3.09V20.35A3.11,3.11,0,0,0,5.22,23.44H6.278a5.226,5.226,0,0,1,3.689,1.517l2.38,2.352a1.765,1.765,0,0,0,2.464,0l2.38-2.352a5.225,5.225,0,0,1,3.689-1.517h1.044a3.119,3.119,0,0,0,3.132-3.09V5.164a3.11,3.11,0,0,0-3.132-3.09Z" transform="translate(3.132 1.754)" fill="#dd1928"/>
      <path id="Vector-2" data-name="Vector" d="M0,0H33.406V33.406H0Z" fill="none" opacity="0"/>
    </g>
    <g id="Group_41749" data-name="Group 41749" transform="translate(911.143 2513.652)">
      <path id="Path_43529" data-name="Path 43529" d="M83.169,57.672c.276.05.556.084.827.152a4.368,4.368,0,0,1,3.174,3.533c.014.1,0,.235.058.3s.192.048.293.063a4.362,4.362,0,1,1-4.946,5.159,3.568,3.568,0,0,1-.054-.38c-.007-.087-.042-.118-.128-.127a4.14,4.14,0,0,1-2.051-.778,4.3,4.3,0,0,1-1.821-3.142c0-.036-.014-.071-.021-.107V61.72c.024-.159.048-.317.074-.476a4.374,4.374,0,0,1,3.27-3.449c.233-.051.47-.083.7-.124Zm.069,8.347a3.617,3.617,0,1,0,3.621-3.609A3.62,3.62,0,0,0,83.238,66.019Zm3.211-4.364a3.61,3.61,0,1,0-3.964,3.963A4.453,4.453,0,0,1,86.449,61.656Z" transform="translate(-0.383 0)" stroke="#000" stroke-width="0.8"/>
      <path id="Path_43530" data-name="Path 43530" d="M247.845,225.4l.5.175a3.157,3.157,0,0,1-1.919,1.919l-.176-.5A2.641,2.641,0,0,0,247.845,225.4Z" transform="translate(-161.779 -161.76)" stroke="#000" stroke-width="0.8"/>
    </g>
  </g>
</svg>
