<svg xmlns="http://www.w3.org/2000/svg" width="27.143" height="29.913" viewBox="0 0 27.143 29.913">
  <g id="trust" transform="translate(-943.429 -2563.754)">
    <path id="Vector" d="M5.3,11.458H3.282a2.323,2.323,0,0,1-1.549-.54L.163,9.7,1.1,8.492,2.742,9.766a.993.993,0,0,0,.54.153H5.3a.856.856,0,0,0,.744-.53L7.329,5.464a.326.326,0,0,0,.01-.275.354.354,0,0,0-.285-.1H4.933a1.324,1.324,0,0,1-.989-.448,1.358,1.358,0,0,1-.306-1.06l.265-1.7a.3.3,0,0,0-.173-.326.331.331,0,0,0-.285.071L1.274,4.853,0,4,2.171.765A1.8,1.8,0,0,1,5.412,2.152L5.2,3.548H7.054A1.839,1.839,0,0,1,8.593,4.3a1.808,1.808,0,0,1,.194,1.651L7.522,9.807A2.369,2.369,0,0,1,5.3,11.458Z" transform="translate(953.975 2570.872)" fill="#292d32"/>
    <path id="Vector-2" data-name="Vector" d="M2.355,8.736h-.53A1.625,1.625,0,0,1,0,6.962V1.774A1.625,1.625,0,0,1,1.825,0h.53A1.625,1.625,0,0,1,4.179,1.774V6.962A1.625,1.625,0,0,1,2.355,8.736ZM1.56,7.2c.031,0,.112.01.265.01h.53a1.006,1.006,0,0,0,.285-.031c0-.02.01-.082.01-.214V1.774a.724.724,0,0,0-.02-.224c-.02,0-.1-.01-.275-.01h-.53a1.006,1.006,0,0,0-.285.031c0,.02-.01.082-.01.214V6.972a.876.876,0,0,0,.02.234A.01.01,0,0,1,1.56,7.2Z" transform="translate(951.141 2573.013)" fill="#292d32"/>
    <path id="Vector-3" data-name="Vector" d="M13.571,29.913a3.827,3.827,0,0,1-2.7-1.114l-2.38-2.352a3.14,3.14,0,0,0-2.213-.9H5.22A5.2,5.2,0,0,1,0,20.364V5.178A5.2,5.2,0,0,1,5.22,0h16.7a5.2,5.2,0,0,1,5.22,5.178V20.364a5.2,5.2,0,0,1-5.22,5.178H20.865a3.116,3.116,0,0,0-2.213.9L16.272,28.8A3.827,3.827,0,0,1,13.571,29.913ZM5.22,2.074a3.119,3.119,0,0,0-3.132,3.09V20.35A3.11,3.11,0,0,0,5.22,23.44H6.278a5.226,5.226,0,0,1,3.689,1.517l2.38,2.352a1.765,1.765,0,0,0,2.464,0l2.38-2.352a5.225,5.225,0,0,1,3.689-1.517h1.044a3.119,3.119,0,0,0,3.132-3.09V5.164a3.11,3.11,0,0,0-3.132-3.09Z" transform="translate(943.429 2563.754)" fill="#dd1928"/>
  </g>
</svg>
