<svg xmlns="http://www.w3.org/2000/svg" width="28.492" height="28.492" viewBox="0 0 28.492 28.492">
  <g id="value-centricity" transform="translate(-300 -636)">
    <g id="maximize-circle" transform="translate(300 636)">
      <path id="Vector" d="M.89,0a.9.9,0,0,1,.89.89V4.749H5.639a.89.89,0,0,1,0,1.781H.89A.9.9,0,0,1,0,5.639V.89A.9.9,0,0,1,.89,0Z" transform="translate(15.73 6.233)" fill="#292d32"/>
      <path id="Vector-2" data-name="Vector" d="M.887,8.9A.881.881,0,0,1,.258,8.64a.9.9,0,0,1,0-1.258L7.381.258A.89.89,0,0,1,8.64,1.517L1.517,8.64A.881.881,0,0,1,.887,8.9Z" transform="translate(16.92 2.674)" fill="#292d32"/>
      <path id="Vector-3" data-name="Vector" d="M.89,6.529H5.639a.9.9,0,0,0,.89-.89V.89a.89.89,0,0,0-1.781,0V4.749H.89a.89.89,0,0,0,0,1.781Z" transform="matrix(0.017, -1, 1, 0.017, 6.191, 22.206)" fill="#292d32"/>
      <path id="Vector-4" data-name="Vector" d="M.887,8.9A.881.881,0,0,1,.258,8.64a.9.9,0,0,1,0-1.258L7.381.258A.89.89,0,0,1,8.64,1.517L1.517,8.64A.881.881,0,0,1,.887,8.9Z" transform="translate(2.674 16.92)" fill="#292d32"/>
      <path id="Vector-5" data-name="Vector" d="M1.128,16.027a.888.888,0,0,1-.867-.712A13.112,13.112,0,0,1,0,12.762,12.773,12.773,0,0,1,12.762,0a12.48,12.48,0,0,1,2.576.261.889.889,0,0,1,.7,1.045.9.9,0,0,1-1.045.7,11.543,11.543,0,0,0-2.22-.226A11,11,0,0,0,1.793,12.762a10.448,10.448,0,0,0,.226,2.2A.883.883,0,0,1,1.318,16,.555.555,0,0,1,1.128,16.027Z" transform="translate(1.484 1.484)" fill="#dd1928"/>
      <path id="Vector-6" data-name="Vector" d="M3.294,16.02a12.48,12.48,0,0,1-2.576-.261.889.889,0,0,1-.7-1.045.9.9,0,0,1,1.045-.7,11.543,11.543,0,0,0,2.22.226A11,11,0,0,0,14.263,3.258a11.381,11.381,0,0,0-.214-2.2A.889.889,0,0,1,15.795.718a12.982,12.982,0,0,1,.249,2.541A12.755,12.755,0,0,1,3.294,16.02Z" transform="translate(10.952 10.988)" fill="#dd1928"/>
      <path id="Vector-7" data-name="Vector" d="M0,0H28.492V28.492H0Z" fill="none" opacity="0"/>
    </g>
  </g>
</svg>
