<svg width="50" height="50" viewBox="0 0 50 50" fill="none" xmlns="http://www.w3.org/2000/svg">
<path d="M34.409 34.0532L31.3144 33.5153L28.9223 31.7144C30.1978 30.7809 31.1599 29.496 31.6984 28.0252C33.0361 27.9894 34.1153 26.7755 34.1153 25.2816C34.1153 24.4719 33.793 23.7503 33.2903 23.247V22.5314C33.2903 17.982 29.589 14.2806 25.0395 14.2806C20.49 14.2806 16.7887 17.9818 16.7887 22.5313V23.5741C16.4498 24.045 16.2386 24.6335 16.2386 25.2815C16.2386 26.6665 17.1682 27.8046 18.369 27.9932C18.8987 29.4586 19.8475 30.7407 21.1082 31.6774L18.7584 33.5162L15.6699 34.0536C13.4284 34.4436 11.6232 36.2043 11.1771 38.4348L10.0671 43.9831H21.9054H24.5626H25.5158H28.173H40.0117L38.9018 38.4342C38.4557 36.2038 36.6499 34.4431 34.409 34.0532ZM25.0868 42.883H24.9922L22.3845 32.4531C22.5247 32.5212 22.665 32.589 22.8096 32.6494C23.5186 32.9447 24.2788 33.0921 25.0395 33.0921C25.7996 33.0921 26.561 32.9442 27.2688 32.6488C27.4139 32.5882 27.5543 32.5207 27.6939 32.4525L25.0868 42.883ZM32.0273 26.8568C32.1313 26.3398 32.1902 25.809 32.1902 25.2672V23.7716C32.6748 24.0269 33.0152 24.6071 33.0152 25.2821C33.0152 26.0291 32.5961 26.6544 32.0273 26.8568ZM25.0395 15.3806C28.9822 15.3806 32.1902 18.5886 32.1902 22.5313H31.6401C29.4168 22.5313 28.2667 21.1457 28.2204 21.089L27.963 20.7656L27.5807 20.9224C27.541 20.9384 23.606 22.5313 18.4389 22.5313H17.8888C17.8888 18.5886 21.0967 15.3806 25.0395 15.3806ZM17.3388 25.2815C17.3388 24.7446 17.5572 24.271 17.8889 23.9696V25.2666C17.8889 25.7539 17.9378 26.232 18.022 26.6989C17.6154 26.4125 17.3388 25.8877 17.3388 25.2815ZM18.9889 25.2672V23.6259C23.2677 23.5389 26.5796 22.4642 27.6429 22.0764C28.1439 22.5565 29.2997 23.4503 31.0901 23.6077V25.2672C31.0901 28.0603 29.424 30.5591 26.8459 31.634C25.6979 32.112 24.3817 32.112 23.2337 31.634C20.6551 30.5593 18.9889 28.0603 18.9889 25.2672ZM11.4092 42.883L12.2557 38.6505C12.6133 36.8617 14.0615 35.4503 15.8585 35.1373L18.2265 34.7253L17.694 36.6455L19.0614 37.0817L17.711 38.4321L21.074 42.883H11.4092ZM19.1666 38.5332L21.1165 36.5833L19.0372 35.9194L19.4712 34.3561L21.3578 32.8793L23.8583 42.883H22.4529L19.1666 38.5332ZM26.2204 42.883L28.7088 32.931L30.6092 34.3617L31.0415 35.9194L28.9623 36.5833L30.9122 38.5332L27.6262 42.883H26.2204ZM29.0048 42.883L32.3677 38.4321L31.0173 37.0817L32.3847 36.6455L31.8522 34.7253L34.2202 35.1373C36.0178 35.4498 37.4655 36.8617 37.823 38.6505L38.6695 42.883H29.0048Z" fill="#74797E"/>
<path d="M11.5934 13.2472L12.4095 15.7587L12.4656 15.9315H12.6472H15.288L13.1516 17.4837L13.0046 17.5904L13.0607 17.7632L13.8768 20.2747L11.7404 18.7225L11.5934 18.6158L11.4465 18.7225L9.31002 20.2747L10.1261 17.7632L10.1822 17.5904L10.0352 17.4837L7.89881 15.9315H10.5396H10.7212L10.7774 15.7587L11.5934 13.2472Z" stroke="#74797E" stroke-width="0.5"/>
<path d="M38.5824 13.2472L39.3985 15.7587L39.4546 15.9315H39.6362H42.277L40.1406 17.4837L39.9936 17.5904L40.0498 17.7632L40.8658 20.2747L38.7294 18.7225L38.5824 18.6158L38.4355 18.7225L36.299 20.2747L37.1151 17.7632L37.1712 17.5904L37.0243 17.4837L34.8878 15.9315H37.5286H37.7102L37.7664 15.7587L38.5824 13.2472Z" stroke="#74797E" stroke-width="0.5"/>
<path d="M25.0878 5.73712L25.9038 8.24865L25.96 8.4214H26.1416H28.7824L26.6459 9.97362L26.499 10.0804L26.5551 10.2531L27.3712 12.7647L25.2347 11.2124L25.0878 11.1057L24.9408 11.2124L22.8044 12.7647L23.6205 10.2531L23.6766 10.0804L23.5296 9.97362L21.3932 8.4214H24.034H24.2156L24.2717 8.24865L25.0878 5.73712Z" stroke="#74797E" stroke-width="0.5"/>
</svg>
