<svg width="50" height="50" viewBox="0 0 50 50" fill="none" xmlns="http://www.w3.org/2000/svg">
<path d="M22.9239 29.0268L20.587 28.6206L18.7805 27.2607C19.7437 26.5558 20.4703 25.5855 20.8769 24.4748C21.8871 24.4478 22.7021 23.5311 22.7021 22.4029C22.7021 21.7915 22.4586 21.2465 22.079 20.8665V20.3261C22.079 16.8906 19.284 14.0955 15.8484 14.0955C12.4128 14.0955 9.6178 16.8904 9.6178 20.326V21.1135C9.36189 21.4691 9.20239 21.9135 9.20239 22.4028C9.20239 23.4487 9.90438 24.3082 10.8111 24.4506C11.2111 25.5572 11.9277 26.5254 12.8797 27.2328L11.1053 28.6213L8.77297 29.0272C7.0803 29.3216 5.71708 30.6513 5.38018 32.3356L4.54199 36.5255H13.4817H15.4883H16.2081H18.2147H27.1547L26.3166 32.3352C25.9797 30.6509 24.6161 29.3213 22.9239 29.0268ZM15.8841 35.6947H15.8127L13.8435 27.8185C13.9494 27.87 14.0553 27.9211 14.1645 27.9667C14.6999 28.1898 15.2739 28.3011 15.8484 28.3011C16.4224 28.3011 16.9974 28.1893 17.5319 27.9663C17.6415 27.9206 17.7475 27.8695 17.8529 27.818L15.8841 35.6947ZM21.1253 23.5925C21.2038 23.202 21.2483 22.8012 21.2483 22.392V21.2627C21.6142 21.4554 21.8713 21.8936 21.8713 22.4033C21.8713 22.9674 21.5548 23.4396 21.1253 23.5925ZM15.8484 14.9262C18.8258 14.9262 21.2483 17.3487 21.2483 20.326H20.8329C19.1539 20.326 18.2854 19.2797 18.2505 19.2369L18.0561 18.9927L17.7674 19.1111C17.7375 19.1231 14.7659 20.326 10.864 20.326H10.4485C10.4485 17.3487 12.871 14.9262 15.8484 14.9262ZM10.0332 22.4028C10.0332 21.9974 10.1981 21.6398 10.4486 21.4122V22.3916C10.4486 22.7596 10.4856 23.1206 10.5491 23.4732C10.2421 23.2569 10.0332 22.8606 10.0332 22.4028ZM11.2793 22.392V21.1526C14.5105 21.087 17.0114 20.2754 17.8144 19.9825C18.1927 20.3451 19.0655 21.0201 20.4175 21.1389V22.392C20.4175 24.5013 19.1594 26.3883 17.2125 27.2C16.3456 27.5609 15.3516 27.5609 14.4848 27.2C12.5375 26.3884 11.2793 24.5013 11.2793 22.392ZM5.55545 35.6947L6.1947 32.4985C6.46471 31.1477 7.55836 30.0818 8.91537 29.8455L10.7036 29.5344L10.3014 30.9844L11.334 31.3138L10.3143 32.3336L12.8538 35.6947H5.55545ZM11.4134 32.4099L12.8859 30.9375L11.3158 30.4361L11.6435 29.2556L13.0682 28.1403L14.9564 35.6947H13.8951L11.4134 32.4099ZM16.7402 35.6947L18.6193 28.1794L20.0544 29.2598L20.3808 30.4361L18.8107 30.9375L20.2832 32.4099L17.8018 35.6947H16.7402ZM18.8428 35.6947L21.3823 32.3336L20.3626 31.3138L21.3952 30.9844L20.9931 29.5344L22.7813 29.8455C24.1387 30.0815 25.2319 31.1477 25.5019 32.4985L26.1412 35.6947H18.8428Z" fill="#74797E"/>
<rect x="28.9829" y="17.004" width="4.28507" height="4.28507" stroke="#74797E" stroke-width="0.5"/>
<rect x="28.9829" y="23.207" width="4.28507" height="4.28507" stroke="#74797E" stroke-width="0.5"/>
<rect x="28.9829" y="29.4097" width="4.28507" height="4.28507" stroke="#74797E" stroke-width="0.5"/>
<path d="M29.2651 19.569L30.2314 20.5643L32.8982 17.8173" stroke="#74797E" stroke-width="0.5"/>
<path d="M29.2651 25.6832L30.2314 26.6785L32.8982 23.9315" stroke="#74797E" stroke-width="0.5"/>
<path d="M29.2651 31.8862L30.2314 32.8814L32.8982 30.1345" stroke="#74797E" stroke-width="0.5"/>
<rect x="34.0498" y="17.9059" width="8.15235" height="0.886125" rx="0.443062" fill="#74797E"/>
<rect x="34.0498" y="19.5896" width="12.3171" height="0.886125" rx="0.443062" fill="#74797E"/>
<rect x="34.0498" y="24.02" width="8.15235" height="0.886125" rx="0.443062" fill="#74797E"/>
<rect x="34.0498" y="25.7037" width="12.3171" height="0.886125" rx="0.443062" fill="#74797E"/>
<rect x="34.0498" y="30.223" width="8.15235" height="0.886125" rx="0.443062" fill="#74797E"/>
<rect x="34.0498" y="31.9067" width="12.3171" height="0.886125" rx="0.443062" fill="#74797E"/>
</svg>
