<svg width="338" height="507" viewBox="0 0 338 507" fill="none" xmlns="http://www.w3.org/2000/svg">
<path d="M3.02333 176.13H109.267L108.407 148.668C108.407 132.878 112.739 118.577 121.22 106.161C129.239 94.4053 144.317 88.4533 166.009 88.4533C184.46 88.4533 198.332 93.3803 207.276 103.102C216.469 113.121 220.933 126.067 220.933 142.699C220.933 157.579 217.097 170.525 209.525 181.156C201.456 192.481 189.354 205.559 173.499 220.092C157.114 235.567 144.863 248.761 137.076 259.309C128.71 270.618 124.477 284.473 124.477 300.526V345.431H227.777V318.068C227.777 310.479 230.274 304.031 235.399 298.327C241.236 291.846 250.891 282.951 264.019 272.023C278.981 260.235 291.431 249.29 301.004 239.485C310.857 229.4 319.521 216.256 326.746 200.417C334.021 184.446 337.724 165.482 337.724 144.055C337.724 118.445 331.458 94.3392 319.108 72.416C306.708 50.4267 288.356 32.6533 264.581 19.592C240.872 6.58027 212.484 0 180.195 0H165.364C133.521 0 104.67 6.92747 79.6223 20.6005C54.5412 34.3067 34.8665 52.5925 21.1439 74.9125C7.3716 97.3152 0.394531 121.024 0.394531 145.394C0.394531 150.156 1.0724 158.538 2.4612 170.988L3.03987 176.13H3.02333ZM30.9977 80.9637C43.6457 60.3632 61.8655 43.4661 85.1609 30.7355C108.473 18.0048 135.455 11.5403 165.348 11.5403H180.178C210.5 11.5403 237.036 17.6576 259.009 29.7104C280.866 41.7136 297.697 57.9824 309.022 78.0704C320.381 98.2411 326.151 120.429 326.151 144.022C326.151 163.779 322.811 181.123 316.214 195.573C309.551 210.188 301.648 222.241 292.72 231.367C283.495 240.808 271.442 251.422 256.744 262.996C242.889 274.553 233.085 283.563 226.819 290.557C219.792 298.361 216.221 307.603 216.221 318.035V333.825H136.067V300.493C136.067 286.787 139.44 275.561 146.4 266.154C153.791 256.151 165.579 243.47 181.401 228.54C197.786 213.511 210.434 199.822 218.965 187.835C227.959 175.187 232.506 159.993 232.506 142.666C232.506 123.273 226.885 107.334 215.807 95.2485C204.581 83.0469 187.833 76.8469 166.009 76.8469C140.25 76.8469 121.964 84.5019 111.664 99.5968C101.81 113.997 96.8335 130.531 96.8335 148.734L97.3295 164.54H13.4063C12.4473 155.43 11.9679 148.998 11.9679 145.361C11.9679 123.173 18.3663 101.498 31.0143 80.9472L30.9977 80.9637Z" fill="#FF4103"/>
<path d="M219.594 506.724H231.167V495.15V396H120.443V495.15L120.442 506.724H132.017V407.573H219.594" fill="#1C1C1C"/>
</svg>
