<svg width="51" height="50" viewBox="0 0 51 50" fill="none" xmlns="http://www.w3.org/2000/svg">
<path d="M11.4418 18.0535L2.94019 32.0603L9.24896 35.8941L10.3586 34.0671L11.4722 34.8845C11.2183 35.2306 11.0715 35.6435 11.0498 36.0722C11.0281 36.5009 11.1326 36.9265 11.3503 37.2964C11.568 37.6663 11.8893 37.9642 12.2746 38.1534C12.6599 38.3426 13.0921 38.4147 13.5179 38.3607C13.4361 38.7461 13.4595 39.1464 13.5857 39.5197C13.7119 39.8929 13.9362 40.2253 14.2351 40.482C14.534 40.7387 14.8965 40.9102 15.2845 40.9785C15.6725 41.0468 16.0718 41.0094 16.4404 40.8703C16.4156 41.2876 16.5106 41.7034 16.7141 42.0687C16.9176 42.4339 17.2211 42.7335 17.5891 42.932C17.957 43.1306 18.374 43.2199 18.791 43.1896C19.208 43.1592 19.6077 43.0104 19.943 42.7607C19.9469 43.1753 20.0682 43.5802 20.2928 43.9288C20.5173 44.2773 20.836 44.5551 21.2119 44.73C21.5879 44.9049 22.0056 44.9697 22.4169 44.9171C22.8281 44.8644 23.2161 44.6963 23.5357 44.4323L25.0622 43.1734C25.0622 43.1708 25.0622 43.1682 25.0622 43.1656L27.0874 44.6226C27.3956 44.8443 27.7596 44.9757 28.1384 45.0018C28.5172 45.0279 28.8958 44.9477 29.2315 44.7704C29.5672 44.5931 29.8468 44.3256 30.0388 43.998C30.2308 43.6705 30.3276 43.2958 30.3183 42.9162C30.6717 43.1309 31.0785 43.2414 31.492 43.2351C31.9054 43.2287 32.3087 43.1057 32.6552 42.8801C33.0018 42.6546 33.2777 42.3358 33.451 41.9604C33.6244 41.585 33.6881 41.1683 33.635 40.7583C34.0085 40.8691 34.4048 40.8785 34.7832 40.7855C35.1615 40.6926 35.5084 40.5006 35.788 40.2293C36.0676 39.958 36.27 39.6172 36.3744 39.2419C36.4788 38.8665 36.4813 38.4701 36.3819 38.0934C36.6932 38.1159 37.0056 38.0695 37.2969 37.9575C37.5883 37.8456 37.8514 37.6709 38.0675 37.4457C38.2837 37.2206 38.4475 36.9505 38.5475 36.6549C38.6475 36.3592 38.681 36.0451 38.6459 35.735L41.452 33.1601L42.7045 35.1649L48.9682 31.2535L40.8387 18.2398L34.575 22.1513L35.4723 23.588L32.8607 24.5422L29.1434 23.2139C28.6721 23.046 28.1708 22.9787 27.672 23.0167C27.1731 23.0548 26.6878 23.1971 26.2474 23.4346C24.5927 23.0437 22.8642 23.0967 21.2365 23.5881C19.6989 23.7233 18.1554 23.7806 16.612 23.7597L17.7502 21.8857L11.4418 18.0535ZM11.7147 19.1755L16.6274 22.159L8.96423 34.7722L4.05103 31.7864L11.7147 19.1755ZM40.5785 19.3657L47.8415 30.9937L42.9655 34.0407L35.7005 22.4127L40.5785 19.3657ZM28.0594 23.8249C28.3356 23.8371 28.6083 23.8908 28.8685 23.9842L32.8658 25.4107L35.9168 24.2948L41.0139 32.4549L38.3611 34.8889C38.2335 34.6737 38.0688 34.4827 37.8747 34.3248L28.5272 26.7369C27.5938 27.2653 26.5647 27.6032 25.4996 27.7309C24.4346 27.8586 23.3548 27.7736 22.3229 27.4808C22.2083 27.4487 22.1069 27.3811 22.0332 27.2877C21.9596 27.1942 21.9175 27.0798 21.9131 26.9608C21.9087 26.8419 21.9422 26.7247 22.0087 26.6261C22.0753 26.5274 22.1714 26.4524 22.2833 26.412C23.7321 25.8913 25.1074 25.1851 26.3747 24.3111C26.8682 23.9701 27.4602 23.7995 28.0594 23.8249ZM24.0048 23.9925C24.4191 23.9914 24.833 24.0194 25.2433 24.0764C24.2234 24.7117 23.1391 25.2371 22.0085 25.6438C21.7342 25.7429 21.4985 25.9263 21.3351 26.1678C21.1718 26.4093 21.0892 26.6965 21.0993 26.9879C21.1094 27.2793 21.2117 27.56 21.3914 27.7896C21.5711 28.0192 21.819 28.1859 22.0994 28.2657C24.2058 28.8635 26.4584 28.6656 28.4284 27.7098L37.359 34.9606C37.617 35.1767 37.7817 35.484 37.8189 35.8185C37.856 36.153 37.7627 36.489 37.5584 36.7565C37.3541 37.024 37.0545 37.2025 36.722 37.2547C36.3895 37.3069 36.0497 37.2288 35.7732 37.0368L29.0927 32.2363C29.0046 32.1742 28.8955 32.1495 28.7892 32.1674C28.6829 32.1854 28.588 32.2447 28.5252 32.3323C28.4624 32.4199 28.4368 32.5288 28.4539 32.6352C28.471 32.7416 28.5295 32.8371 28.6166 32.9006L35.0642 37.5334C35.3501 37.7508 35.5398 38.0711 35.593 38.4263C35.6462 38.7814 35.5587 39.1434 35.3491 39.4351C35.1395 39.7267 34.8244 39.925 34.4708 39.9878C34.1172 40.0506 33.753 39.9728 33.4559 39.7712L27.3677 35.3979C27.2797 35.3348 27.1701 35.3092 27.0632 35.3268C26.9563 35.3445 26.8608 35.4039 26.7977 35.4919C26.7346 35.58 26.709 35.6895 26.7266 35.7964C26.7442 35.9033 26.8036 35.9989 26.8916 36.0621L32.2643 39.9224C32.4166 40.0258 32.5466 40.1587 32.6467 40.3132C32.7468 40.4677 32.8149 40.6407 32.847 40.822C32.8792 41.0032 32.8747 41.1891 32.8338 41.3686C32.793 41.5481 32.7165 41.7175 32.6091 41.867C32.5017 42.0165 32.3654 42.143 32.2083 42.2389C32.0512 42.3349 31.8764 42.3983 31.6944 42.4256C31.5123 42.453 31.3267 42.4436 31.1483 42.398C30.97 42.3524 30.8026 42.2715 30.656 42.1601L25.6024 38.5307C25.5144 38.4745 25.4082 38.4541 25.3057 38.4738C25.2031 38.4935 25.112 38.5517 25.051 38.6365C24.9901 38.7213 24.9639 38.8262 24.9779 38.9296C24.9919 39.0331 25.045 39.1273 25.1263 39.1929L28.9927 41.9721C29.2436 42.166 29.4094 42.4497 29.4553 42.7634C29.5011 43.0772 29.4234 43.3964 29.2384 43.654C29.0535 43.9115 28.7758 44.0871 28.4639 44.144C28.1519 44.2008 27.8301 44.1343 27.5663 43.9585L25.5818 42.5341C25.7873 42.1584 25.8783 41.7307 25.8437 41.3039C25.809 40.877 25.6503 40.4696 25.3871 40.1318C25.1238 39.794 24.7675 39.5406 24.362 39.4028C23.9566 39.2651 23.5196 39.249 23.1051 39.3564C23.1428 39.0325 23.1078 38.7042 23.0028 38.3955C22.8977 38.0868 22.7252 37.8054 22.4978 37.5717C22.2704 37.338 21.9937 37.1581 21.688 37.0447C21.3823 36.9313 21.0551 36.8874 20.7303 36.9163C20.842 36.4678 20.8092 35.9954 20.6366 35.5666C20.4641 35.1379 20.1606 34.7745 19.7695 34.5283C19.3783 34.2821 18.9194 34.1658 18.4582 34.1957C17.997 34.2256 17.557 34.4003 17.2009 34.6949L17.0545 34.8176C17.0499 34.4036 16.9282 33.9993 16.7036 33.6515C16.479 33.3037 16.1606 33.0265 15.7852 32.852C15.4098 32.6774 14.9927 32.6125 14.582 32.6649C14.1713 32.7173 13.7838 32.8847 13.4642 33.1479L12.0579 34.3086L10.7746 33.3666L16.1228 24.5668C17.8821 24.6087 19.6424 24.5507 21.3951 24.3932C22.2408 24.1295 23.1189 23.9944 24.0048 23.9925ZM14.7739 33.4707C14.82 33.4684 14.8662 33.4684 14.9123 33.4707C15.19 33.4826 15.4577 33.5782 15.6801 33.7449C15.9025 33.9116 16.0693 34.1417 16.1586 34.4049C16.2479 34.6682 16.2555 34.9523 16.1805 35.2199C16.1054 35.4876 15.9512 35.7261 15.7381 35.9046L14.1096 37.2473C13.8263 37.4657 13.4692 37.5655 13.1137 37.5255C12.7582 37.4855 12.4322 37.3089 12.2046 37.033C11.9769 36.757 11.8655 36.4033 11.8937 36.0467C11.922 35.6901 12.0878 35.3585 12.3561 35.1219L13.9826 33.7772C14.208 33.5941 14.4839 33.4868 14.7739 33.4707ZM18.53 35.0115C18.8193 34.9974 19.1056 35.0748 19.3484 35.2326C19.5913 35.3904 19.7782 35.6207 19.8827 35.8908C19.9873 36.1609 20.0041 36.457 19.9308 36.7372C19.8575 37.0173 19.6978 37.2673 19.4744 37.4516L16.5333 39.8794C16.2511 40.1085 15.8898 40.2167 15.5281 40.1807C15.1664 40.1446 14.8336 39.9671 14.6021 39.6868C14.3707 39.4066 14.2593 39.0463 14.2922 38.6843C14.3251 38.3223 14.4997 37.988 14.7779 37.7541L17.7189 35.3262C17.9482 35.1365 18.2328 35.0261 18.53 35.0115ZM20.8415 37.7316C21.1305 37.716 21.4171 37.7917 21.6606 37.9481C21.9042 38.1045 22.0923 38.3336 22.1984 38.6029C22.3044 38.8723 22.3229 39.1681 22.2514 39.4486C22.1798 39.729 22.0218 39.9799 21.7997 40.1655L19.4989 42.066C19.2168 42.2987 18.8538 42.4099 18.4897 42.375C18.1257 42.3401 17.7904 42.162 17.5576 41.8799C17.3249 41.5978 17.2137 41.2349 17.2485 40.8709C17.2834 40.5068 17.4614 40.1715 17.7434 39.9387L20.0442 38.0402C20.2706 37.8555 20.5497 37.7473 20.8415 37.7316ZM23.6983 40.1124C23.976 40.1236 24.2438 40.2186 24.4666 40.3847C24.6894 40.5509 24.8567 40.7806 24.9466 41.0436C25.0366 41.3065 25.0449 41.5906 24.9705 41.8584C24.8962 42.1262 24.7426 42.3653 24.5299 42.5443L23.0054 43.8031C22.723 44.0303 22.3624 44.137 22.0019 44.1003C21.6413 44.0635 21.3097 43.8862 21.0789 43.6068C20.848 43.3273 20.7366 42.9682 20.7686 42.6072C20.8006 42.2461 20.9736 41.9122 21.25 41.6778L22.7769 40.4189C23.0002 40.2381 23.2746 40.1316 23.5614 40.1144C23.6075 40.1114 23.6521 40.1107 23.6983 40.1124Z" fill="#74797E"/>
<path d="M4.46582 29.5334L11.4421 18.0525L4.46582 29.5334Z" fill="#74797E"/>
<circle cx="26.5954" cy="12.1387" r="6.64932" stroke="#74797E" stroke-width="0.5"/>
<path d="M21.6672 13.5814L24.2886 16.0811L31.5234 9.18182" stroke="#74797E" stroke-width="0.5" stroke-linecap="round"/>
</svg>
