<svg width="50" height="51" viewBox="0 0 50 51" fill="none" xmlns="http://www.w3.org/2000/svg">
<mask id="mask0_149_73" style="mask-type:alpha" maskUnits="userSpaceOnUse" x="13" y="13" width="26" height="26">
<circle cx="25.9049" cy="25.8985" r="12.1832" fill="#D9D9D9"/>
</mask>
<g mask="url(#mask0_149_73)">
<path d="M32.2304 27.9291L30.1304 27.564L28.5071 26.342C29.3727 25.7085 30.0256 24.8366 30.391 23.8385C31.2988 23.8142 32.0311 22.9905 32.0311 21.9767C32.0311 21.4273 31.8124 20.9376 31.4712 20.596V20.1105C31.4712 17.0233 28.9596 14.5115 25.8723 14.5115C22.785 14.5115 20.2734 17.0231 20.2734 20.1104V20.818C20.0434 21.1376 19.9001 21.5369 19.9001 21.9766C19.9001 22.9165 20.5309 23.6888 21.3457 23.8168C21.7052 24.8112 22.3491 25.6812 23.2046 26.3169L21.61 27.5647L19.5142 27.9294C17.9931 28.194 16.7681 29.3888 16.4654 30.9024L15.7122 34.6675H23.7455H25.5487H26.1955H27.9987H36.0324L35.2792 30.902C34.9765 29.3885 33.7511 28.1937 32.2304 27.9291ZM25.9044 33.921H25.8402L24.0706 26.8432C24.1658 26.8895 24.261 26.9354 24.3591 26.9765C24.8402 27.1769 25.3561 27.2769 25.8723 27.2769C26.3881 27.2769 26.9048 27.1765 27.3851 26.9761C27.4836 26.935 27.5788 26.8891 27.6736 26.8428L25.9044 33.921ZM30.6142 23.0457C30.6847 22.6948 30.7247 22.3346 30.7247 21.9669V20.9521C31.0536 21.1253 31.2846 21.519 31.2846 21.977C31.2846 22.484 31.0002 22.9083 30.6142 23.0457ZM25.8723 15.258C28.5478 15.258 30.7247 17.4349 30.7247 20.1104H30.3514C28.8427 20.1104 28.0623 19.1701 28.0309 19.1317L27.8562 18.9122L27.5967 19.0186C27.5698 19.0294 24.8996 20.1104 21.3932 20.1104H21.0199C21.0199 17.4349 23.1968 15.258 25.8723 15.258ZM20.6467 21.9766C20.6467 21.6123 20.7949 21.291 21.02 21.0864V21.9665C21.02 22.2972 21.0532 22.6216 21.1103 22.9385C20.8344 22.7441 20.6467 22.388 20.6467 21.9766ZM21.7664 21.9669V20.8532C24.67 20.7942 26.9174 20.0648 27.6389 19.8017C27.979 20.1275 28.7632 20.734 29.9782 20.8408V21.9669C29.9782 23.8623 28.8476 25.558 27.0981 26.2874C26.3191 26.6118 25.4259 26.6118 24.6469 26.2874C22.8971 25.5581 21.7664 23.8623 21.7664 21.9669ZM16.6229 33.921L17.1973 31.0487C17.4399 29.8349 18.4227 28.8771 19.6422 28.6647L21.2491 28.3852L20.8877 29.6882L21.8156 29.9842L20.8993 30.9006L23.1813 33.921H16.6229ZM21.887 30.9692L23.2102 29.646L21.7992 29.1955L22.0937 28.1347L23.374 27.1324L25.0708 33.921H24.117L21.887 30.9692ZM26.6737 33.921L28.3623 27.1676L29.6519 28.1384L29.9452 29.1955L28.5343 29.646L29.8575 30.9692L27.6276 33.921H26.6737ZM28.5631 33.921L30.8452 30.9006L29.9288 29.9842L30.8567 29.6882L30.4954 28.3852L32.1023 28.6647C33.3221 28.8768 34.3045 29.8349 34.5471 31.0487L35.1216 33.921H28.5631Z" fill="#74797E"/>
</g>
<circle cx="25.9051" cy="25.8985" r="11.9332" stroke="#74797E" stroke-width="0.5"/>
<path d="M14.6188 18.8763L13.047 18.6038L11.832 17.6913C12.4799 17.2183 12.9685 16.5673 13.2421 15.822C13.9215 15.8039 14.4696 15.1888 14.4696 14.4319C14.4696 14.0216 14.3059 13.656 14.0506 13.401V13.0384C14.0506 10.7333 12.1707 8.85785 9.85994 8.85785C7.5492 8.85785 5.6693 10.7332 5.6693 13.0383V13.5667C5.49718 13.8053 5.3899 14.1035 5.3899 14.4318C5.3899 15.1336 5.86205 15.7103 6.47193 15.8058C6.74097 16.5483 7.22289 17.1979 7.86323 17.6725L6.66975 18.6042L5.10108 18.8765C3.96261 19.0741 3.04572 19.9663 2.81913 21.0964L2.25537 23.9077H8.26809H9.61773H10.1019H11.4515H17.4645L16.9007 21.0961C16.6742 19.966 15.757 19.0739 14.6188 18.8763ZM9.88396 23.3503H9.83592L8.51144 18.0656C8.58266 18.1001 8.65394 18.1344 8.72737 18.165C9.08747 18.3147 9.47356 18.3894 9.85994 18.3894C10.246 18.3894 10.6327 18.3144 10.9922 18.1647C11.0659 18.134 11.1372 18.0998 11.2081 18.0653L9.88396 23.3503ZM13.4091 15.23C13.4619 14.9681 13.4918 14.6991 13.4918 14.4246V13.6668C13.738 13.7961 13.9109 14.0901 13.9109 14.4321C13.9109 14.8106 13.698 15.1275 13.4091 15.23ZM9.85994 9.41519C11.8625 9.41519 13.4918 11.0406 13.4918 13.0383H13.2124C12.0832 13.0383 11.4991 12.3363 11.4756 12.3076L11.3448 12.1437L11.1506 12.2231C11.1305 12.2312 9.13187 13.0383 6.50746 13.0383H6.22805C6.22805 11.0406 7.85739 9.41519 9.85994 9.41519ZM5.94871 14.4318C5.94871 14.1598 6.05962 13.9198 6.22811 13.7671V14.4243C6.22811 14.6712 6.25297 14.9134 6.2957 15.15C6.08918 15.0049 5.94871 14.739 5.94871 14.4318ZM6.7868 14.4246V13.593C8.96005 13.5489 10.6422 13.0043 11.1822 12.8078C11.4367 13.0511 12.0237 13.504 12.9331 13.5837V14.4246C12.9331 15.8398 12.0869 17.1059 10.7774 17.6505C10.1944 17.8927 9.52583 17.8927 8.94276 17.6505C7.63306 17.106 6.7868 15.8398 6.7868 14.4246ZM2.93701 23.3503L3.36697 21.2057C3.54857 20.2993 4.28415 19.5842 5.19686 19.4256L6.39958 19.2169L6.12912 20.1898L6.82363 20.4108L6.13776 21.095L7.84583 23.3503H2.93701ZM6.87703 21.1463L7.8674 20.1583L6.81136 19.8219L7.03175 19.0298L7.99 18.2815L9.26001 23.3503H8.54618L6.87703 21.1463ZM10.4598 23.3503L11.7236 18.3077L12.6888 19.0326L12.9084 19.8219L11.8524 20.1583L12.8427 21.1463L11.1738 23.3503H10.4598ZM11.8739 23.3503L13.582 21.095L12.8961 20.4108L13.5906 20.1898L13.3202 19.2169L14.5229 19.4256C15.4359 19.5839 16.1712 20.2993 16.3528 21.2057L16.7828 23.3503H11.8739Z" fill="#74797E"/>
<path d="M45.6745 18.8764L44.1027 18.6039L42.8877 17.6914C43.5356 17.2184 44.0242 16.5674 44.2977 15.8222C44.9772 15.804 45.5253 15.1889 45.5253 14.432C45.5253 14.0218 45.3616 13.6561 45.1062 13.4011V13.0385C45.1062 10.7334 43.2263 8.85797 40.9156 8.85797C38.6049 8.85797 36.725 10.7333 36.725 13.0385V13.5669C36.5528 13.8055 36.4456 14.1036 36.4456 14.4319C36.4456 15.1337 36.9177 15.7104 37.5276 15.8059C37.7966 16.5484 38.2786 17.198 38.9189 17.6727L37.7254 18.6044L36.1567 18.8767C35.0183 19.0742 34.1014 19.9664 33.8748 21.0965L33.311 23.9078H39.3238H40.6734H41.1575H42.5072H48.5201L47.9564 21.0962C47.7298 19.9661 46.8126 19.074 45.6745 18.8764ZM40.9396 23.3504H40.8916L39.5671 18.0657C39.6383 18.1002 39.7096 18.1345 39.783 18.1651C40.1431 18.3148 40.5292 18.3895 40.9156 18.3895C41.3017 18.3895 41.6884 18.3145 42.0479 18.1648C42.1216 18.1342 42.1929 18.0999 42.2638 18.0654L40.9396 23.3504ZM44.4648 15.2301C44.5176 14.9682 44.5475 14.6992 44.5475 14.4247V13.6669C44.7936 13.7962 44.9665 14.0902 44.9665 14.4322C44.9665 14.8107 44.7537 15.1276 44.4648 15.2301ZM40.9156 9.41531C42.9182 9.41531 44.5475 11.0407 44.5475 13.0385H44.2681C43.1389 13.0385 42.5547 12.3364 42.5312 12.3077L42.4005 12.1438L42.2063 12.2233C42.1862 12.2313 40.1875 13.0385 37.5631 13.0385H37.2837C37.2837 11.0407 38.9131 9.41531 40.9156 9.41531ZM37.0044 14.4319C37.0044 14.1599 37.1153 13.92 37.2838 13.7672V14.4244C37.2838 14.6713 37.3086 14.9135 37.3514 15.1501C37.1448 15.005 37.0044 14.7391 37.0044 14.4319ZM37.8425 14.4247V13.5931C40.0157 13.549 41.6979 13.0045 42.2379 12.808C42.4924 13.0512 43.0794 13.5041 43.9887 13.5839V14.4247C43.9887 15.8399 43.1426 17.1061 41.8331 17.6507C41.25 17.8928 40.5815 17.8928 39.9984 17.6507C38.6887 17.1061 37.8425 15.8399 37.8425 14.4247ZM33.9927 23.3504L34.4226 21.2058C34.6042 20.2994 35.3398 19.5843 36.2525 19.4257L37.4552 19.217L37.1848 20.1899L37.8793 20.4109L37.1934 21.0952L38.9015 23.3504H33.9927ZM37.9327 21.1464L38.9231 20.1584L37.867 19.822L38.0874 19.0299L39.0457 18.2816L40.3157 23.3504H39.6018L37.9327 21.1464ZM41.5154 23.3504L42.7793 18.3078L43.7445 19.0327L43.9641 19.822L42.908 20.1584L43.8984 21.1464L42.2294 23.3504H41.5154ZM42.9296 23.3504L44.6377 21.0952L43.9518 20.4109L44.6463 20.1899L44.3758 19.217L45.5786 19.4257C46.4916 19.5841 47.2269 20.2994 47.4085 21.2058L47.8384 23.3504H42.9296Z" fill="#74797E"/>
<path d="M41.3561 41.9371L36.2408 35.906C38.5023 33.6108 39.9166 30.6426 40.2685 27.3909C40.6816 23.5736 39.5811 19.8273 37.1697 16.8422C34.4221 13.438 30.3344 11.4856 25.9546 11.4856C22.6884 11.4856 19.4859 12.6153 16.9373 14.6663C13.9448 17.0715 12.0694 20.4969 11.6566 24.3115C11.2437 28.1268 12.3437 31.8738 14.754 34.862C17.4973 38.2644 21.5841 40.2158 25.9663 40.2158C29.2342 40.2158 32.4389 39.087 34.9903 37.0371C35.0866 36.9597 35.1817 36.881 35.2757 36.8015L40.3517 42.7861C40.4819 42.9396 40.6674 43.0186 40.8542 43.0186C41.0045 43.0186 41.1555 42.9675 41.2791 42.8629C41.5565 42.6285 41.5909 42.2139 41.3561 41.9371ZM34.1649 36.0137C31.8468 37.8762 28.9351 38.9019 25.9663 38.9019C21.9845 38.9019 18.2714 37.1291 15.779 34.038C13.5893 31.3231 12.5899 27.919 12.965 24.4526C13.3401 20.987 15.0439 17.8749 17.763 15.6895C20.0787 13.8258 22.9879 12.7995 25.9546 12.7995C29.9341 12.7995 33.6483 14.5735 36.1451 17.6668C38.3356 20.3785 39.3353 23.7819 38.96 27.2497C38.5849 30.7162 36.8819 33.8287 34.1649 36.0137Z" fill="#74797E"/>
</svg>
