<svg width="34" height="178" viewBox="0 0 34 178" fill="none" xmlns="http://www.w3.org/2000/svg">
<path fill-rule="evenodd" clip-rule="evenodd" d="M34 11.886H17.194C18.4291 11.876 25.2785 11.6697 29.5 8.39011C33.7215 5.11055 33.9871 0.876406 34 0.118663V11.886ZM34 0V0.118663C34.0013 0.0411361 34 0 34 0ZM17.194 11.886H17C7.61116 11.886 0 19.4971 0 28.886V148.705C0 158.094 7.61116 165.705 17 165.705H34V11.886H17.1928L17.194 11.886ZM34 177.473C33.9871 176.715 33.7215 172.481 29.5 169.201C25.2785 165.922 18.4291 165.715 17.194 165.705H34V177.473ZM34 177.591C34 177.591 34.0013 177.55 34 177.473V177.591ZM17 165.705H17.194C17.0676 165.704 17 165.705 17 165.705Z" fill="#FF4103"/>
<path d="M22.16 128.858C22.16 129.733 22 130.48 21.68 131.098C21.36 131.717 20.896 132.266 20.288 132.746L19.264 131.722C19.7547 131.37 20.128 130.965 20.384 130.506C20.6293 130.048 20.752 129.482 20.752 128.81C20.752 128.149 20.608 127.621 20.32 127.226C20.032 126.821 19.6373 126.618 19.136 126.618C18.72 126.618 18.384 126.714 18.128 126.906C17.872 127.098 17.664 127.36 17.504 127.69C17.3333 128.01 17.184 128.362 17.056 128.746C16.9173 129.13 16.7733 129.514 16.624 129.898C16.464 130.282 16.272 130.634 16.048 130.954C15.8133 131.274 15.5093 131.536 15.136 131.738C14.7627 131.93 14.2933 132.026 13.728 132.026C13.0987 132.026 12.5653 131.877 12.128 131.578C11.68 131.269 11.3387 130.853 11.104 130.33C10.8587 129.797 10.736 129.2 10.736 128.538C10.736 127.813 10.88 127.162 11.168 126.586C11.4453 126.01 11.8133 125.541 12.272 125.178L13.296 126.202C12.912 126.533 12.624 126.89 12.432 127.274C12.24 127.648 12.144 128.08 12.144 128.57C12.144 129.168 12.2773 129.642 12.544 129.994C12.8 130.346 13.1627 130.522 13.632 130.522C14.0053 130.522 14.3093 130.426 14.544 130.234C14.768 130.032 14.96 129.77 15.12 129.45C15.28 129.13 15.4293 128.778 15.568 128.394C15.696 128 15.84 127.61 16 127.226C16.16 126.842 16.3627 126.49 16.608 126.17C16.8533 125.85 17.1733 125.594 17.568 125.402C17.952 125.2 18.4373 125.098 19.024 125.098C20.0053 125.098 20.7733 125.44 21.328 126.122C21.8827 126.794 22.16 127.706 22.16 128.858ZM22.16 119.965C22.16 120.711 21.984 121.383 21.632 121.981C21.28 122.578 20.8053 123.053 20.208 123.405C19.6 123.757 18.9227 123.933 18.176 123.933C17.44 123.933 16.7787 123.757 16.192 123.405C15.5947 123.053 15.12 122.578 14.768 121.981C14.416 121.383 14.24 120.711 14.24 119.965C14.24 119.229 14.416 118.562 14.768 117.965C15.1093 117.357 15.5787 116.877 16.176 116.525C16.7733 116.173 17.44 115.997 18.176 115.997C18.9227 115.997 19.6 116.173 20.208 116.525C20.8053 116.877 21.28 117.357 21.632 117.965C21.984 118.562 22.16 119.229 22.16 119.965ZM20.768 119.965C20.768 119.485 20.656 119.058 20.432 118.685C20.208 118.311 19.904 118.018 19.52 117.805C19.1253 117.591 18.6773 117.485 18.176 117.485C17.6853 117.485 17.248 117.597 16.864 117.821C16.48 118.034 16.1813 118.327 15.968 118.701C15.744 119.063 15.632 119.485 15.632 119.965C15.632 120.445 15.744 120.871 15.968 121.245C16.1813 121.618 16.48 121.911 16.864 122.125C17.248 122.338 17.6853 122.445 18.176 122.445C18.6773 122.445 19.1253 122.338 19.52 122.125C19.904 121.911 20.208 121.618 20.432 121.245C20.656 120.871 20.768 120.445 20.768 119.965ZM22.16 110.902C22.16 111.649 21.984 112.326 21.632 112.934C21.28 113.532 20.8053 114.006 20.208 114.358C19.6 114.7 18.928 114.87 18.192 114.87C17.4453 114.87 16.7733 114.7 16.176 114.358C15.5787 114.006 15.1093 113.532 14.768 112.934C14.416 112.326 14.24 111.649 14.24 110.902C14.24 110.316 14.352 109.772 14.576 109.27C14.7893 108.769 15.104 108.337 15.52 107.974L16.48 108.934C16.2027 109.169 15.9947 109.457 15.856 109.798C15.7067 110.129 15.632 110.497 15.632 110.902C15.632 111.382 15.744 111.809 15.968 112.182C16.1813 112.556 16.48 112.849 16.864 113.062C17.248 113.276 17.6907 113.382 18.192 113.382C18.6933 113.382 19.136 113.276 19.52 113.062C19.904 112.849 20.208 112.556 20.432 112.182C20.656 111.809 20.768 111.382 20.768 110.902C20.768 110.497 20.6987 110.129 20.56 109.798C20.4107 109.457 20.1973 109.164 19.92 108.918L20.88 107.974C21.2853 108.326 21.6 108.758 21.824 109.27C22.048 109.772 22.16 110.316 22.16 110.902ZM22 106.53L14.4 106.53L14.4 105.09L22 105.09L22 106.53ZM12.88 105.81C12.88 106.077 12.7947 106.295 12.624 106.466C12.4427 106.637 12.2187 106.722 11.952 106.722C11.696 106.722 11.4827 106.637 11.312 106.466C11.1307 106.295 11.04 106.077 11.04 105.81C11.04 105.543 11.1307 105.325 11.312 105.154C11.4827 104.983 11.696 104.898 11.952 104.898C12.2187 104.898 12.4427 104.983 12.624 105.154C12.7947 105.325 12.88 105.543 12.88 105.81ZM22.16 99.7359C22.16 100.429 21.9893 101.059 21.648 101.624C21.296 102.189 20.8213 102.637 20.224 102.968C19.6267 103.288 18.9547 103.448 18.208 103.448C17.4613 103.448 16.7893 103.288 16.192 102.968C15.5947 102.637 15.12 102.195 14.768 101.64C14.416 101.075 14.24 100.44 14.24 99.7359C14.24 99.1599 14.3627 98.6479 14.608 98.1999C14.8427 97.7413 15.1733 97.3733 15.6 97.0959C16.016 96.8186 16.5013 96.6639 17.056 96.6319L19.344 96.6319C19.888 96.6639 20.3733 96.8186 20.8 97.0959C21.2267 97.3626 21.5627 97.7253 21.808 98.1839C22.0427 98.6319 22.16 99.1493 22.16 99.7359ZM20.8 99.4959C20.8 98.7813 20.56 98.2053 20.08 97.7679C19.5893 97.3306 18.9653 97.1119 18.208 97.1119C17.6853 97.1119 17.232 97.2133 16.848 97.4159C16.4533 97.6079 16.1493 97.8853 15.936 98.2479C15.712 98.6106 15.6 99.0319 15.6 99.5119C15.6 99.9919 15.712 100.419 15.936 100.792C16.16 101.155 16.4693 101.443 16.864 101.656C17.248 101.859 17.6907 101.96 18.192 101.96C18.704 101.96 19.1573 101.859 19.552 101.656C19.936 101.443 20.24 101.149 20.464 100.776C20.688 100.403 20.8 99.9759 20.8 99.4959ZM22 97.2079L19.952 97.2079L18.096 96.9359L16.256 97.2079L14.4 97.2079L14.4 95.7519L22 95.7519L22 97.2079ZM22 93.6554L10.576 93.6554L10.576 92.2154L22 92.2154L22 93.6554ZM22 86.5244L10.896 86.5244L10.896 85.4684L18.624 80.7644L18.624 81.4844L10.896 76.7804L10.896 75.7244L22 75.7244L22 77.2284L13.536 77.2284L13.632 76.8764L19.728 80.5884L19.728 81.6444L13.632 85.3564L13.536 85.0204L22 85.0204L22 86.5244ZM22.16 69.8386C22.16 70.5959 21.9893 71.2786 21.648 71.8866C21.296 72.4946 20.8213 72.9746 20.224 73.3266C19.6267 73.6786 18.9493 73.8546 18.192 73.8546C17.4453 73.8546 16.7733 73.6839 16.176 73.3426C15.5787 72.9906 15.1093 72.5212 14.768 71.9346C14.416 71.3372 14.24 70.6706 14.24 69.9346C14.24 69.2306 14.4 68.6119 14.72 68.0786C15.04 67.5346 15.4827 67.1132 16.048 66.8146C16.6133 66.5052 17.2533 66.3506 17.968 66.3506C18.0747 66.3506 18.192 66.3559 18.32 66.3666C18.4373 66.3772 18.576 66.3985 18.736 66.4306L18.736 72.8466L17.536 72.8466L17.536 67.1985L18 67.7266C17.488 67.7266 17.056 67.8172 16.704 67.9986C16.3413 68.1799 16.064 68.4359 15.872 68.7666C15.6693 69.0972 15.568 69.4972 15.568 69.9666C15.568 70.4572 15.6747 70.8892 15.888 71.2626C16.1013 71.6359 16.4 71.9239 16.784 72.1266C17.168 72.3292 17.6213 72.4306 18.144 72.4306C18.6773 72.4306 19.1467 72.3239 19.552 72.1106C19.9467 71.8972 20.256 71.5932 20.48 71.1986C20.6933 70.8039 20.8 70.3506 20.8 69.8386C20.8 69.4119 20.7253 69.0226 20.576 68.6705C20.4267 68.3079 20.2027 67.9986 19.904 67.7425L20.848 66.8145C21.2747 67.1772 21.6 67.6252 21.824 68.1585C22.048 68.6812 22.16 69.2412 22.16 69.8386ZM22.16 61.5644C22.16 62.2684 21.9893 62.8978 21.648 63.4524C21.296 64.0071 20.8213 64.4498 20.224 64.7804C19.6267 65.1004 18.9547 65.2604 18.208 65.2604C17.4613 65.2604 16.7893 65.1004 16.192 64.7804C15.5947 64.4498 15.12 64.0071 14.768 63.4524C14.416 62.8978 14.24 62.2684 14.24 61.5644C14.24 60.9991 14.3627 60.4871 14.608 60.0284C14.8427 59.5698 15.1733 59.2018 15.6 58.9244C16.016 58.6364 16.5013 58.4764 17.056 58.4444L19.344 58.4444C19.888 58.4764 20.3733 58.6311 20.8 58.9084C21.2267 59.1858 21.5627 59.5538 21.808 60.0124C22.0427 60.4711 22.16 60.9884 22.16 61.5644ZM20.8 61.3244C20.8 60.8444 20.688 60.4284 20.464 60.0764C20.24 59.7138 19.936 59.4311 19.552 59.2284C19.1573 59.0258 18.7093 58.9244 18.208 58.9244C17.6853 58.9244 17.232 59.0311 16.848 59.2444C16.464 59.4471 16.16 59.7298 15.936 60.0924C15.712 60.4444 15.6 60.8604 15.6 61.3404C15.6 61.8204 15.712 62.2418 15.936 62.6044C16.16 62.9671 16.4693 63.2551 16.864 63.4684C17.248 63.6711 17.6907 63.7724 18.192 63.7724C18.704 63.7724 19.1573 63.6711 19.552 63.4684C19.936 63.2551 20.24 62.9671 20.464 62.6044C20.688 62.2311 20.8 61.8044 20.8 61.3244ZM22 57.5644L22 59.0204L19.952 59.0204L18.096 58.7484L16.256 59.0204L10.576 59.0204L10.576 57.5644L22 57.5644ZM22 55.4519L14.4 55.4519L14.4 54.0119L22 54.0119L22 55.4519ZM12.88 54.7319C12.88 54.9986 12.7947 55.2173 12.624 55.3879C12.4427 55.5586 12.2187 55.6439 11.952 55.6439C11.696 55.6439 11.4827 55.5586 11.312 55.3879C11.1307 55.2173 11.04 54.9986 11.04 54.7319C11.04 54.4653 11.1307 54.2466 11.312 54.0759C11.4827 53.9053 11.696 53.8199 11.952 53.8199C12.2187 53.8199 12.4427 53.9053 12.624 54.0759C12.7947 54.2466 12.88 54.4653 12.88 54.7319ZM22.16 48.6578C22.16 49.3511 21.9893 49.9805 21.648 50.5458C21.296 51.1111 20.8213 51.5591 20.224 51.8898C19.6267 52.2098 18.9547 52.3698 18.208 52.3698C17.4613 52.3698 16.7893 52.2098 16.192 51.8898C15.5947 51.5591 15.12 51.1165 14.768 50.5618C14.416 49.9965 14.24 49.3618 14.24 48.6578C14.24 48.0818 14.3627 47.5698 14.608 47.1218C14.8427 46.6631 15.1733 46.2951 15.6 46.0178C16.016 45.7405 16.5013 45.5858 17.056 45.5538L19.344 45.5538C19.888 45.5858 20.3733 45.7405 20.8 46.0178C21.2267 46.2845 21.5627 46.6471 21.808 47.1058C22.0427 47.5538 22.16 48.0711 22.16 48.6578ZM20.8 48.4178C20.8 47.7031 20.56 47.1271 20.08 46.6898C19.5893 46.2525 18.9653 46.0338 18.208 46.0338C17.6853 46.0338 17.232 46.1351 16.848 46.3378C16.4533 46.5298 16.1493 46.8071 15.936 47.1698C15.712 47.5325 15.6 47.9538 15.6 48.4338C15.6 48.9138 15.712 49.3405 15.936 49.7138C16.16 50.0765 16.4693 50.3645 16.864 50.5778C17.248 50.7805 17.6907 50.8818 18.192 50.8818C18.704 50.8818 19.1573 50.7805 19.552 50.5778C19.936 50.3645 20.24 50.0711 20.464 49.6978C20.688 49.3245 20.8 48.8978 20.8 48.4178ZM22 46.1298L19.952 46.1298L18.096 45.8578L16.256 46.1298L14.4 46.1298L14.4 44.6738L22 44.6738L22 46.1298Z" fill="white"/>
</svg>
