<svg width="30" height="48" viewBox="0 0 30 48" fill="none" xmlns="http://www.w3.org/2000/svg">
<path fill-rule="evenodd" clip-rule="evenodd" d="M14.9591 1.61328L0.174805 1.61328V0.613281H14.9591V0.627665L15.9591 0.627665V1.61328L14.9591 1.61328ZM29.7433 47.9373H15.9591H14.9591V46.9373H29.7433V47.9373ZM14.9591 3.58452V5.55575L15.9591 5.55575V3.58452H14.9591ZM14.9591 7.52699V9.49822H15.9591V7.52699L14.9591 7.52699ZM14.9591 11.4695L14.9591 13.4407H15.9591L15.9591 11.4695H14.9591ZM14.9591 15.4119V17.3832H15.9591V15.4119H14.9591ZM14.9591 19.3544V21.3256H15.9591V19.3544H14.9591ZM14.9591 23.2969V25.2681H15.9591V23.2969H14.9591ZM14.9591 27.2393V29.2106H15.9591V27.2393H14.9591ZM14.9591 31.1818V33.153H15.9591V31.1818H14.9591ZM14.9591 35.1243V37.0955H15.9591V35.1243H14.9591ZM14.9591 39.0667V41.038H15.9591V39.0667H14.9591ZM14.9591 43.0092V44.9804H15.9591V43.0092H14.9591Z" fill="#1C1C1C"/>
</svg>
