<svg width="31" height="48" viewBox="0 0 31 48" fill="none" xmlns="http://www.w3.org/2000/svg">
<path fill-rule="evenodd" clip-rule="evenodd" d="M15.6446 46.9517L0.860352 46.9517V47.9517H15.6446L15.6446 47.9373L16.6446 47.9373V46.9517L15.6446 46.9517ZM30.4289 0.627647H16.6446H15.6446V1.62765H30.4289V0.627647ZM15.6446 44.9804V43.0092H16.6446V44.9804H15.6446ZM15.6446 41.038V39.0667H16.6446V41.038H15.6446ZM15.6446 37.0955L15.6446 35.1243H16.6446L16.6446 37.0955H15.6446ZM15.6446 33.153V31.1818H16.6446V33.153H15.6446ZM15.6446 29.2105V27.2393H16.6446V29.2105H15.6446ZM15.6446 25.2681V23.2968H16.6446V25.2681H15.6446ZM15.6446 21.3256V19.3544H16.6446V21.3256H15.6446ZM15.6446 17.3831V15.4119H16.6446V17.3831H15.6446ZM15.6446 13.4407V11.4694H16.6446V13.4407H15.6446ZM15.6446 9.4982V7.52697H16.6446V9.4982H15.6446ZM15.6446 5.55573V3.5845H16.6446V5.55573H15.6446Z" fill="#1C1C1C"/>
</svg>
