<svg xmlns="http://www.w3.org/2000/svg" width="555.927" height="479.188" viewBox="0 0 555.927 479.188">
  <g id="cross-platform-3" transform="translate(-855.317 -235.39)">
    <g id="Group_221" data-name="Group 221" transform="translate(1148.804 235.389)">
      <g id="Group_216" data-name="Group 216" transform="translate(5.961 7.203)">
        <g id="Group_75" data-name="Group 75" transform="translate(167.893 170.328)">
          <g id="Group_74" data-name="Group 74">
            <path id="Path_136" data-name="Path 136" d="M1132.4,343.05c0-.231,1.621-.42,3.62-.42l1.218.025-.4.395c.059-1.4.214-2.4.4-2.4s.337,1,.395,2.4l.017.386-.411.008-1.218.025C1134.025,343.47,1132.4,343.281,1132.4,343.05Z" transform="translate(-1132.404 -340.648)" fill="#e0e0e0"/>
          </g>
        </g>
        <g id="Group_77" data-name="Group 77" transform="translate(158.218 172.31)">
          <g id="Group_76" data-name="Group 76">
            <path id="Path_137" data-name="Path 137" d="M1126.668,342.243c0-.231,1.083-.42,2.419-.42s2.419.189,2.419.42-1.083.42-2.419.42S1126.668,342.474,1126.668,342.243Z" transform="translate(-1126.668 -341.823)" fill="#e0e0e0"/>
          </g>
        </g>
        <g id="Group_79" data-name="Group 79" transform="translate(148.546 172.31)">
          <g id="Group_78" data-name="Group 78">
            <path id="Path_138" data-name="Path 138" d="M1120.933,342.243c0-.231,1.083-.42,2.418-.42s2.419.189,2.419.42-1.083.42-2.419.42S1120.933,342.474,1120.933,342.243Z" transform="translate(-1120.933 -341.823)" fill="#e0e0e0"/>
          </g>
        </g>
        <g id="Group_81" data-name="Group 81" transform="translate(138.871 172.31)">
          <g id="Group_80" data-name="Group 80">
            <path id="Path_139" data-name="Path 139" d="M1115.2,342.243c0-.231,1.083-.42,2.419-.42s2.418.189,2.418.42-1.083.42-2.418.42S1115.2,342.474,1115.2,342.243Z" transform="translate(-1115.197 -341.823)" fill="#e0e0e0"/>
          </g>
        </g>
        <g id="Group_83" data-name="Group 83" transform="translate(129.198 172.31)">
          <g id="Group_82" data-name="Group 82">
            <path id="Path_140" data-name="Path 140" d="M1109.462,342.243c0-.231,1.083-.42,2.417-.42s2.418.189,2.418.42-1.083.42-2.418.42S1109.462,342.474,1109.462,342.243Z" transform="translate(-1109.462 -341.823)" fill="#e0e0e0"/>
          </g>
        </g>
        <g id="Group_85" data-name="Group 85" transform="translate(119.524 172.31)">
          <g id="Group_84" data-name="Group 84">
            <path id="Path_141" data-name="Path 141" d="M1103.726,342.243c0-.231,1.083-.42,2.419-.42s2.418.189,2.418.42-1.083.42-2.418.42S1103.726,342.474,1103.726,342.243Z" transform="translate(-1103.726 -341.823)" fill="#e0e0e0"/>
          </g>
        </g>
        <g id="Group_87" data-name="Group 87" transform="translate(109.85 172.31)">
          <g id="Group_86" data-name="Group 86">
            <path id="Path_142" data-name="Path 142" d="M1097.99,342.243c0-.231,1.083-.42,2.419-.42s2.419.189,2.419.42-1.083.42-2.419.42S1097.99,342.474,1097.99,342.243Z" transform="translate(-1097.99 -341.823)" fill="#e0e0e0"/>
          </g>
        </g>
        <g id="Group_89" data-name="Group 89" transform="translate(100.177 172.31)">
          <g id="Group_88" data-name="Group 88">
            <path id="Path_143" data-name="Path 143" d="M1092.255,342.243c0-.231,1.083-.42,2.419-.42s2.419.189,2.419.42-1.083.42-2.419.42S1092.255,342.474,1092.255,342.243Z" transform="translate(-1092.255 -341.823)" fill="#e0e0e0"/>
          </g>
        </g>
        <g id="Group_91" data-name="Group 91" transform="translate(90.502 172.31)">
          <g id="Group_90" data-name="Group 90">
            <path id="Path_144" data-name="Path 144" d="M1086.519,342.243c0-.231,1.083-.42,2.418-.42s2.419.189,2.419.42-1.083.42-2.419.42S1086.519,342.474,1086.519,342.243Z" transform="translate(-1086.519 -341.823)" fill="#e0e0e0"/>
          </g>
        </g>
        <g id="Group_93" data-name="Group 93" transform="translate(80.83 172.31)">
          <g id="Group_92" data-name="Group 92">
            <path id="Path_145" data-name="Path 145" d="M1080.784,342.243c0-.231,1.083-.42,2.417-.42s2.418.189,2.418.42-1.083.42-2.418.42S1080.784,342.474,1080.784,342.243Z" transform="translate(-1080.784 -341.823)" fill="#e0e0e0"/>
          </g>
        </g>
        <g id="Group_95" data-name="Group 95" transform="translate(71.155 172.31)">
          <g id="Group_94" data-name="Group 94">
            <path id="Path_146" data-name="Path 146" d="M1075.048,342.243c0-.231,1.083-.42,2.419-.42s2.418.189,2.418.42-1.083.42-2.418.42S1075.048,342.474,1075.048,342.243Z" transform="translate(-1075.048 -341.823)" fill="#e0e0e0"/>
          </g>
        </g>
        <g id="Group_97" data-name="Group 97" transform="translate(61.481 172.31)">
          <g id="Group_96" data-name="Group 96">
            <path id="Path_147" data-name="Path 147" d="M1069.312,342.243c0-.231,1.083-.42,2.419-.42s2.419.189,2.419.42-1.083.42-2.419.42S1069.312,342.474,1069.312,342.243Z" transform="translate(-1069.312 -341.823)" fill="#e0e0e0"/>
          </g>
        </g>
        <g id="Group_99" data-name="Group 99" transform="translate(51.808 172.31)">
          <g id="Group_98" data-name="Group 98">
            <path id="Path_148" data-name="Path 148" d="M1063.577,342.243c0-.231,1.083-.42,2.418-.42s2.419.189,2.419.42-1.083.42-2.419.42S1063.577,342.474,1063.577,342.243Z" transform="translate(-1063.577 -341.823)" fill="#e0e0e0"/>
          </g>
        </g>
        <g id="Group_101" data-name="Group 101" transform="translate(42.133 172.31)">
          <g id="Group_100" data-name="Group 100">
            <path id="Path_149" data-name="Path 149" d="M1057.841,342.243c0-.231,1.083-.42,2.419-.42s2.419.189,2.419.42-1.083.42-2.419.42S1057.841,342.474,1057.841,342.243Z" transform="translate(-1057.841 -341.823)" fill="#e0e0e0"/>
          </g>
        </g>
        <g id="Group_103" data-name="Group 103" transform="translate(32.461 172.31)">
          <g id="Group_102" data-name="Group 102">
            <path id="Path_150" data-name="Path 150" d="M1052.106,342.243c0-.231,1.083-.42,2.417-.42s2.419.189,2.419.42-1.083.42-2.419.42S1052.106,342.474,1052.106,342.243Z" transform="translate(-1052.106 -341.823)" fill="#e0e0e0"/>
          </g>
        </g>
        <g id="Group_105" data-name="Group 105" transform="translate(22.786 172.31)">
          <g id="Group_104" data-name="Group 104">
            <path id="Path_151" data-name="Path 151" d="M1046.37,342.243c0-.231,1.083-.42,2.418-.42s2.419.189,2.419.42-1.083.42-2.419.42S1046.37,342.474,1046.37,342.243Z" transform="translate(-1046.37 -341.823)" fill="#e0e0e0"/>
          </g>
        </g>
        <g id="Group_107" data-name="Group 107" transform="translate(13.112 172.31)">
          <g id="Group_106" data-name="Group 106">
            <path id="Path_152" data-name="Path 152" d="M1040.634,342.243c0-.231,1.083-.42,2.419-.42s2.418.189,2.418.42-1.083.42-2.418.42S1040.634,342.474,1040.634,342.243Z" transform="translate(-1040.634 -341.823)" fill="#e0e0e0"/>
          </g>
        </g>
        <g id="Group_109" data-name="Group 109" transform="translate(3.439 172.31)">
          <g id="Group_108" data-name="Group 108">
            <path id="Path_153" data-name="Path 153" d="M1034.9,342.243c0-.231,1.083-.42,2.419-.42s2.418.189,2.418.42-1.083.42-2.418.42S1034.9,342.474,1034.9,342.243Z" transform="translate(-1034.899 -341.823)" fill="#e0e0e0"/>
          </g>
        </g>
        <g id="Group_111" data-name="Group 111" transform="translate(0 166.075)">
          <g id="Group_110" data-name="Group 110">
            <path id="Path_154" data-name="Path 154" d="M1033.28,338.126c.231,0,.42,1.083.42,2.419s-.189,2.419-.42,2.419-.42-1.083-.42-2.419S1033.047,338.126,1033.28,338.126Z" transform="translate(-1032.86 -338.126)" fill="#e0e0e0"/>
          </g>
        </g>
        <g id="Group_113" data-name="Group 113" transform="translate(0 156.402)">
          <g id="Group_112" data-name="Group 112">
            <path id="Path_155" data-name="Path 155" d="M1033.28,332.391c.231,0,.42,1.083.42,2.419s-.189,2.417-.42,2.417-.42-1.081-.42-2.417S1033.047,332.391,1033.28,332.391Z" transform="translate(-1032.86 -332.391)" fill="#e0e0e0"/>
          </g>
        </g>
        <g id="Group_115" data-name="Group 115" transform="translate(0 146.727)">
          <g id="Group_114" data-name="Group 114">
            <path id="Path_156" data-name="Path 156" d="M1033.28,326.655c.231,0,.42,1.083.42,2.419s-.189,2.419-.42,2.419-.42-1.083-.42-2.419S1033.047,326.655,1033.28,326.655Z" transform="translate(-1032.86 -326.655)" fill="#e0e0e0"/>
          </g>
        </g>
        <g id="Group_117" data-name="Group 117" transform="translate(0 137.055)">
          <g id="Group_116" data-name="Group 116">
            <path id="Path_157" data-name="Path 157" d="M1033.28,320.92c.231,0,.42,1.081.42,2.417s-.189,2.419-.42,2.419-.42-1.083-.42-2.419S1033.047,320.92,1033.28,320.92Z" transform="translate(-1032.86 -320.92)" fill="#e0e0e0"/>
          </g>
        </g>
        <g id="Group_119" data-name="Group 119" transform="translate(0 127.38)">
          <g id="Group_118" data-name="Group 118">
            <path id="Path_158" data-name="Path 158" d="M1033.28,315.184c.231,0,.42,1.083.42,2.419s-.189,2.419-.42,2.419-.42-1.083-.42-2.419S1033.047,315.184,1033.28,315.184Z" transform="translate(-1032.86 -315.184)" fill="#e0e0e0"/>
          </g>
        </g>
        <g id="Group_121" data-name="Group 121" transform="translate(0 117.706)">
          <g id="Group_120" data-name="Group 120">
            <path id="Path_159" data-name="Path 159" d="M1033.28,309.448c.231,0,.42,1.083.42,2.419s-.189,2.419-.42,2.419-.42-1.083-.42-2.419S1033.047,309.448,1033.28,309.448Z" transform="translate(-1032.86 -309.448)" fill="#e0e0e0"/>
          </g>
        </g>
        <g id="Group_123" data-name="Group 123" transform="translate(0 108.033)">
          <g id="Group_122" data-name="Group 122">
            <path id="Path_160" data-name="Path 160" d="M1033.28,303.713c.231,0,.42,1.083.42,2.419s-.189,2.419-.42,2.419-.42-1.083-.42-2.419S1033.047,303.713,1033.28,303.713Z" transform="translate(-1032.86 -303.713)" fill="#e0e0e0"/>
          </g>
        </g>
        <g id="Group_125" data-name="Group 125" transform="translate(0 98.359)">
          <g id="Group_124" data-name="Group 124">
            <path id="Path_161" data-name="Path 161" d="M1033.28,297.977c.231,0,.42,1.083.42,2.419s-.189,2.419-.42,2.419-.42-1.083-.42-2.419S1033.047,297.977,1033.28,297.977Z" transform="translate(-1032.86 -297.977)" fill="#e0e0e0"/>
          </g>
        </g>
        <g id="Group_127" data-name="Group 127" transform="translate(0 88.686)">
          <g id="Group_126" data-name="Group 126">
            <path id="Path_162" data-name="Path 162" d="M1033.28,292.242c.231,0,.42,1.083.42,2.417s-.189,2.419-.42,2.419-.42-1.083-.42-2.419S1033.047,292.242,1033.28,292.242Z" transform="translate(-1032.86 -292.242)" fill="#e0e0e0"/>
          </g>
        </g>
        <g id="Group_129" data-name="Group 129" transform="translate(0 79.011)">
          <g id="Group_128" data-name="Group 128">
            <path id="Path_163" data-name="Path 163" d="M1033.28,286.506c.231,0,.42,1.083.42,2.419s-.189,2.419-.42,2.419-.42-1.083-.42-2.419S1033.047,286.506,1033.28,286.506Z" transform="translate(-1032.86 -286.506)" fill="#e0e0e0"/>
          </g>
        </g>
        <g id="Group_131" data-name="Group 131" transform="translate(0 69.337)">
          <g id="Group_130" data-name="Group 130">
            <path id="Path_164" data-name="Path 164" d="M1033.28,280.77c.231,0,.42,1.083.42,2.419s-.189,2.419-.42,2.419-.42-1.083-.42-2.419S1033.047,280.77,1033.28,280.77Z" transform="translate(-1032.86 -280.77)" fill="#e0e0e0"/>
          </g>
        </g>
        <g id="Group_133" data-name="Group 133" transform="translate(0 59.664)">
          <g id="Group_132" data-name="Group 132">
            <path id="Path_165" data-name="Path 165" d="M1033.28,275.035c.231,0,.42,1.083.42,2.419s-.189,2.419-.42,2.419-.42-1.083-.42-2.419S1033.047,275.035,1033.28,275.035Z" transform="translate(-1032.86 -275.035)" fill="#e0e0e0"/>
          </g>
        </g>
        <g id="Group_135" data-name="Group 135" transform="translate(0 49.99)">
          <g id="Group_134" data-name="Group 134">
            <path id="Path_166" data-name="Path 166" d="M1033.28,269.3c.231,0,.42,1.083.42,2.419s-.189,2.419-.42,2.419-.42-1.083-.42-2.419S1033.047,269.3,1033.28,269.3Z" transform="translate(-1032.86 -269.299)" fill="#e0e0e0"/>
          </g>
        </g>
        <g id="Group_137" data-name="Group 137" transform="translate(0 40.317)">
          <g id="Group_136" data-name="Group 136">
            <path id="Path_167" data-name="Path 167" d="M1033.28,263.564c.231,0,.42,1.083.42,2.417s-.189,2.419-.42,2.419-.42-1.081-.42-2.419S1033.047,263.564,1033.28,263.564Z" transform="translate(-1032.86 -263.564)" fill="#e0e0e0"/>
          </g>
        </g>
        <g id="Group_139" data-name="Group 139" transform="translate(0 30.642)">
          <g id="Group_138" data-name="Group 138">
            <path id="Path_168" data-name="Path 168" d="M1033.28,257.828c.231,0,.42,1.083.42,2.419s-.189,2.419-.42,2.419-.42-1.083-.42-2.419S1033.047,257.828,1033.28,257.828Z" transform="translate(-1032.86 -257.828)" fill="#e0e0e0"/>
          </g>
        </g>
        <g id="Group_141" data-name="Group 141" transform="translate(0 20.968)">
          <g id="Group_140" data-name="Group 140">
            <path id="Path_169" data-name="Path 169" d="M1033.28,252.092c.231,0,.42,1.083.42,2.419s-.189,2.419-.42,2.419-.42-1.083-.42-2.419S1033.047,252.092,1033.28,252.092Z" transform="translate(-1032.86 -252.092)" fill="#e0e0e0"/>
          </g>
        </g>
        <g id="Group_143" data-name="Group 143" transform="translate(0 11.295)">
          <g id="Group_142" data-name="Group 142">
            <path id="Path_170" data-name="Path 170" d="M1033.28,246.357c.231,0,.42,1.083.42,2.419s-.189,2.419-.42,2.419-.42-1.083-.42-2.419S1033.047,246.357,1033.28,246.357Z" transform="translate(-1032.86 -246.357)" fill="#e0e0e0"/>
          </g>
        </g>
        <g id="Group_145" data-name="Group 145" transform="translate(0 1.621)">
          <g id="Group_144" data-name="Group 144">
            <path id="Path_171" data-name="Path 171" d="M1033.28,240.621c.231,0,.42,1.083.42,2.419s-.189,2.419-.42,2.419-.42-1.083-.42-2.419S1033.047,240.621,1033.28,240.621Z" transform="translate(-1032.86 -240.621)" fill="#e0e0e0"/>
          </g>
        </g>
        <g id="Group_147" data-name="Group 147" transform="translate(4.056)">
          <g id="Group_146" data-name="Group 146">
            <path id="Path_172" data-name="Path 172" d="M1040.1,240.08c0,.233-1.083.42-2.419.42s-2.418-.187-2.418-.42,1.083-.42,2.418-.42S1040.1,239.849,1040.1,240.08Z" transform="translate(-1035.265 -239.66)" fill="#e0e0e0"/>
          </g>
        </g>
        <g id="Group_149" data-name="Group 149" transform="translate(13.729)">
          <g id="Group_148" data-name="Group 148">
            <path id="Path_173" data-name="Path 173" d="M1045.837,240.08c0,.233-1.083.42-2.419.42s-2.419-.187-2.419-.42,1.083-.42,2.419-.42S1045.837,239.849,1045.837,240.08Z" transform="translate(-1041 -239.66)" fill="#e0e0e0"/>
          </g>
        </g>
        <g id="Group_151" data-name="Group 151" transform="translate(23.403)">
          <g id="Group_150" data-name="Group 150">
            <path id="Path_174" data-name="Path 174" d="M1051.573,240.08c0,.233-1.083.42-2.419.42s-2.419-.187-2.419-.42,1.083-.42,2.419-.42S1051.573,239.849,1051.573,240.08Z" transform="translate(-1046.736 -239.66)" fill="#e0e0e0"/>
          </g>
        </g>
        <g id="Group_153" data-name="Group 153" transform="translate(33.077 0)">
          <g id="Group_152" data-name="Group 152">
            <ellipse id="Ellipse_9" data-name="Ellipse 9" cx="2.418" cy="0.42" rx="2.418" ry="0.42" fill="#e0e0e0"/>
          </g>
        </g>
        <g id="Group_155" data-name="Group 155" transform="translate(42.751)">
          <g id="Group_154" data-name="Group 154">
            <path id="Path_175" data-name="Path 175" d="M1063.044,240.08c0,.233-1.083.42-2.419.42s-2.419-.187-2.419-.42,1.083-.42,2.419-.42S1063.044,239.849,1063.044,240.08Z" transform="translate(-1058.207 -239.66)" fill="#e0e0e0"/>
          </g>
        </g>
        <g id="Group_157" data-name="Group 157" transform="translate(52.425)">
          <g id="Group_156" data-name="Group 156">
            <path id="Path_176" data-name="Path 176" d="M1068.779,240.08c0,.233-1.083.42-2.417.42s-2.419-.187-2.419-.42,1.083-.42,2.419-.42S1068.779,239.849,1068.779,240.08Z" transform="translate(-1063.943 -239.66)" fill="#e0e0e0"/>
          </g>
        </g>
        <g id="Group_159" data-name="Group 159" transform="translate(62.098)">
          <g id="Group_158" data-name="Group 158">
            <path id="Path_177" data-name="Path 177" d="M1074.515,240.08c0,.233-1.083.42-2.419.42s-2.419-.187-2.419-.42,1.083-.42,2.419-.42S1074.515,239.849,1074.515,240.08Z" transform="translate(-1069.678 -239.66)" fill="#e0e0e0"/>
          </g>
        </g>
        <g id="Group_161" data-name="Group 161" transform="translate(71.772)">
          <g id="Group_160" data-name="Group 160">
            <path id="Path_178" data-name="Path 178" d="M1080.251,240.08c0,.233-1.083.42-2.418.42s-2.419-.187-2.419-.42,1.083-.42,2.419-.42S1080.251,239.849,1080.251,240.08Z" transform="translate(-1075.414 -239.66)" fill="#e0e0e0"/>
          </g>
        </g>
        <g id="Group_163" data-name="Group 163" transform="translate(81.445)">
          <g id="Group_162" data-name="Group 162">
            <path id="Path_179" data-name="Path 179" d="M1085.986,240.08c0,.233-1.083.42-2.419.42s-2.418-.187-2.418-.42,1.083-.42,2.418-.42S1085.986,239.849,1085.986,240.08Z" transform="translate(-1081.149 -239.66)" fill="#e0e0e0"/>
          </g>
        </g>
        <g id="Group_165" data-name="Group 165" transform="translate(91.12)">
          <g id="Group_164" data-name="Group 164">
            <path id="Path_180" data-name="Path 180" d="M1091.722,240.08c0,.233-1.083.42-2.419.42s-2.418-.187-2.418-.42,1.083-.42,2.418-.42S1091.722,239.849,1091.722,240.08Z" transform="translate(-1086.885 -239.66)" fill="#e0e0e0"/>
          </g>
        </g>
        <g id="Group_167" data-name="Group 167" transform="translate(100.794)">
          <g id="Group_166" data-name="Group 166">
            <path id="Path_181" data-name="Path 181" d="M1097.457,240.08c0,.233-1.083.42-2.417.42s-2.419-.187-2.419-.42,1.083-.42,2.419-.42S1097.457,239.849,1097.457,240.08Z" transform="translate(-1092.621 -239.66)" fill="#e0e0e0"/>
          </g>
        </g>
        <g id="Group_169" data-name="Group 169" transform="translate(110.467)">
          <g id="Group_168" data-name="Group 168">
            <path id="Path_182" data-name="Path 182" d="M1103.193,240.08c0,.233-1.083.42-2.419.42s-2.419-.187-2.419-.42,1.083-.42,2.419-.42S1103.193,239.849,1103.193,240.08Z" transform="translate(-1098.356 -239.66)" fill="#e0e0e0"/>
          </g>
        </g>
        <g id="Group_171" data-name="Group 171" transform="translate(120.141)">
          <g id="Group_170" data-name="Group 170">
            <path id="Path_183" data-name="Path 183" d="M1108.929,240.08c0,.233-1.083.42-2.419.42s-2.419-.187-2.419-.42,1.083-.42,2.419-.42S1108.929,239.849,1108.929,240.08Z" transform="translate(-1104.092 -239.66)" fill="#e0e0e0"/>
          </g>
        </g>
        <g id="Group_173" data-name="Group 173" transform="translate(129.814)">
          <g id="Group_172" data-name="Group 172">
            <path id="Path_184" data-name="Path 184" d="M1114.664,240.08c0,.233-1.083.42-2.419.42s-2.419-.187-2.419-.42,1.083-.42,2.419-.42S1114.664,239.849,1114.664,240.08Z" transform="translate(-1109.827 -239.66)" fill="#e0e0e0"/>
          </g>
        </g>
        <g id="Group_175" data-name="Group 175" transform="translate(139.488)">
          <g id="Group_174" data-name="Group 174">
            <path id="Path_185" data-name="Path 185" d="M1120.4,240.08c0,.233-1.083.42-2.419.42s-2.419-.187-2.419-.42,1.083-.42,2.419-.42S1120.4,239.849,1120.4,240.08Z" transform="translate(-1115.563 -239.66)" fill="#e0e0e0"/>
          </g>
        </g>
        <g id="Group_177" data-name="Group 177" transform="translate(149.163)">
          <g id="Group_176" data-name="Group 176">
            <path id="Path_186" data-name="Path 186" d="M1126.135,240.08c0,.233-1.083.42-2.417.42s-2.419-.187-2.419-.42,1.083-.42,2.419-.42S1126.135,239.849,1126.135,240.08Z" transform="translate(-1121.299 -239.66)" fill="#e0e0e0"/>
          </g>
        </g>
        <g id="Group_179" data-name="Group 179" transform="translate(158.836)">
          <g id="Group_178" data-name="Group 178">
            <path id="Path_187" data-name="Path 187" d="M1131.871,240.08c0,.233-1.083.42-2.418.42s-2.419-.187-2.419-.42,1.083-.42,2.419-.42S1131.871,239.849,1131.871,240.08Z" transform="translate(-1127.034 -239.66)" fill="#e0e0e0"/>
          </g>
        </g>
        <g id="Group_181" data-name="Group 181" transform="translate(168.51)">
          <g id="Group_180" data-name="Group 180">
            <path id="Path_188" data-name="Path 188" d="M1136.99,240.7c-.108,0-.206-.231-.28-.617l.28.28a10.008,10.008,0,0,1-1.8.14c-1.336,0-2.418-.187-2.418-.42s1.083-.42,2.418-.42a9.985,9.985,0,0,1,1.8.142l.319.064-.041.214C1137.194,240.466,1137.1,240.7,1136.99,240.7Z" transform="translate(-1132.77 -239.66)" fill="#e0e0e0"/>
          </g>
        </g>
        <g id="Group_183" data-name="Group 183" transform="translate(172.31 5.874)">
          <g id="Group_182" data-name="Group 182">
            <path id="Path_189" data-name="Path 189" d="M1135.443,247.98c-.233,0-.42-1.083-.42-2.419s.187-2.419.42-2.419.42,1.083.42,2.419S1135.674,247.98,1135.443,247.98Z" transform="translate(-1135.023 -243.143)" fill="#e0e0e0"/>
          </g>
        </g>
        <g id="Group_185" data-name="Group 185" transform="translate(172.31 15.549)">
          <g id="Group_184" data-name="Group 184">
            <path id="Path_190" data-name="Path 190" d="M1135.443,253.715c-.233,0-.42-1.083-.42-2.417s.187-2.419.42-2.419.42,1.081.42,2.419S1135.674,253.715,1135.443,253.715Z" transform="translate(-1135.023 -248.879)" fill="#e0e0e0"/>
          </g>
        </g>
        <g id="Group_187" data-name="Group 187" transform="translate(172.31 25.222)">
          <g id="Group_186" data-name="Group 186">
            <path id="Path_191" data-name="Path 191" d="M1135.443,259.451c-.233,0-.42-1.083-.42-2.419s.187-2.419.42-2.419.42,1.083.42,2.419S1135.674,259.451,1135.443,259.451Z" transform="translate(-1135.023 -254.614)" fill="#e0e0e0"/>
          </g>
        </g>
        <g id="Group_189" data-name="Group 189" transform="translate(172.31 34.896)">
          <g id="Group_188" data-name="Group 188">
            <path id="Path_192" data-name="Path 192" d="M1135.443,265.187c-.233,0-.42-1.083-.42-2.419s.187-2.419.42-2.419.42,1.083.42,2.419S1135.674,265.187,1135.443,265.187Z" transform="translate(-1135.023 -260.35)" fill="#e0e0e0"/>
          </g>
        </g>
        <g id="Group_191" data-name="Group 191" transform="translate(172.31 44.569)">
          <g id="Group_190" data-name="Group 190">
            <path id="Path_193" data-name="Path 193" d="M1135.443,270.922c-.233,0-.42-1.083-.42-2.419s.187-2.419.42-2.419.42,1.083.42,2.419S1135.674,270.922,1135.443,270.922Z" transform="translate(-1135.023 -266.085)" fill="#e0e0e0"/>
          </g>
        </g>
        <g id="Group_193" data-name="Group 193" transform="translate(172.31 54.243)">
          <g id="Group_192" data-name="Group 192">
            <path id="Path_194" data-name="Path 194" d="M1135.443,276.658c-.233,0-.42-1.083-.42-2.419s.187-2.419.42-2.419.42,1.083.42,2.419S1135.674,276.658,1135.443,276.658Z" transform="translate(-1135.023 -271.821)" fill="#e0e0e0"/>
          </g>
        </g>
        <g id="Group_195" data-name="Group 195" transform="translate(172.31 63.918)">
          <g id="Group_194" data-name="Group 194">
            <path id="Path_195" data-name="Path 195" d="M1135.443,282.393c-.233,0-.42-1.083-.42-2.419s.187-2.417.42-2.417.42,1.081.42,2.417S1135.674,282.393,1135.443,282.393Z" transform="translate(-1135.023 -277.557)" fill="#e0e0e0"/>
          </g>
        </g>
        <g id="Group_197" data-name="Group 197" transform="translate(172.31 73.591)">
          <g id="Group_196" data-name="Group 196">
            <path id="Path_196" data-name="Path 196" d="M1135.443,288.129c-.233,0-.42-1.083-.42-2.419s.187-2.419.42-2.419.42,1.083.42,2.419S1135.674,288.129,1135.443,288.129Z" transform="translate(-1135.023 -283.292)" fill="#e0e0e0"/>
          </g>
        </g>
        <g id="Group_199" data-name="Group 199" transform="translate(172.31 83.265)">
          <g id="Group_198" data-name="Group 198">
            <path id="Path_197" data-name="Path 197" d="M1135.443,293.865c-.233,0-.42-1.083-.42-2.419s.187-2.419.42-2.419.42,1.083.42,2.419S1135.674,293.865,1135.443,293.865Z" transform="translate(-1135.023 -289.028)" fill="#e0e0e0"/>
          </g>
        </g>
        <g id="Group_201" data-name="Group 201" transform="translate(172.31 92.938)">
          <g id="Group_200" data-name="Group 200">
            <path id="Path_198" data-name="Path 198" d="M1135.443,299.6c-.233,0-.42-1.083-.42-2.419s.187-2.419.42-2.419.42,1.083.42,2.419S1135.674,299.6,1135.443,299.6Z" transform="translate(-1135.023 -294.763)" fill="#e0e0e0"/>
          </g>
        </g>
        <g id="Group_203" data-name="Group 203" transform="translate(172.31 102.612)">
          <g id="Group_202" data-name="Group 202">
            <path id="Path_199" data-name="Path 199" d="M1135.443,305.336c-.233,0-.42-1.083-.42-2.419s.187-2.419.42-2.419.42,1.083.42,2.419S1135.674,305.336,1135.443,305.336Z" transform="translate(-1135.023 -300.499)" fill="#e0e0e0"/>
          </g>
        </g>
        <g id="Group_205" data-name="Group 205" transform="translate(172.31 112.287)">
          <g id="Group_204" data-name="Group 204">
            <path id="Path_200" data-name="Path 200" d="M1135.443,311.071c-.233,0-.42-1.083-.42-2.419s.187-2.417.42-2.417.42,1.081.42,2.417S1135.674,311.071,1135.443,311.071Z" transform="translate(-1135.023 -306.235)" fill="#e0e0e0"/>
          </g>
        </g>
        <g id="Group_207" data-name="Group 207" transform="translate(172.31 121.959)">
          <g id="Group_206" data-name="Group 206">
            <path id="Path_201" data-name="Path 201" d="M1135.443,316.807c-.233,0-.42-1.083-.42-2.419s.187-2.419.42-2.419.42,1.083.42,2.419S1135.674,316.807,1135.443,316.807Z" transform="translate(-1135.023 -311.97)" fill="#e0e0e0"/>
          </g>
        </g>
        <g id="Group_209" data-name="Group 209" transform="translate(172.31 131.634)">
          <g id="Group_208" data-name="Group 208">
            <path id="Path_202" data-name="Path 202" d="M1135.443,322.543c-.233,0-.42-1.083-.42-2.419s.187-2.419.42-2.419.42,1.083.42,2.419S1135.674,322.543,1135.443,322.543Z" transform="translate(-1135.023 -317.706)" fill="#e0e0e0"/>
          </g>
        </g>
        <g id="Group_211" data-name="Group 211" transform="translate(172.31 141.307)">
          <g id="Group_210" data-name="Group 210">
            <path id="Path_203" data-name="Path 203" d="M1135.443,328.278c-.233,0-.42-1.083-.42-2.419s.187-2.419.42-2.419.42,1.083.42,2.419S1135.674,328.278,1135.443,328.278Z" transform="translate(-1135.023 -323.441)" fill="#e0e0e0"/>
          </g>
        </g>
        <g id="Group_213" data-name="Group 213" transform="translate(172.31 150.981)">
          <g id="Group_212" data-name="Group 212">
            <path id="Path_204" data-name="Path 204" d="M1135.443,334.014c-.233,0-.42-1.083-.42-2.419s.187-2.419.42-2.419.42,1.083.42,2.419S1135.674,334.014,1135.443,334.014Z" transform="translate(-1135.023 -329.177)" fill="#e0e0e0"/>
          </g>
        </g>
        <g id="Group_215" data-name="Group 215" transform="translate(172.31 160.656)">
          <g id="Group_214" data-name="Group 214">
            <path id="Path_205" data-name="Path 205" d="M1135.443,339.749c-.233,0-.42-1.083-.42-2.419s.187-2.417.42-2.417.42,1.081.42,2.417S1135.674,339.749,1135.443,339.749Z" transform="translate(-1135.023 -334.913)" fill="#e0e0e0"/>
          </g>
        </g>
      </g>
      <g id="Group_217" data-name="Group 217" transform="translate(172.31 171.806)">
        <rect id="Rectangle_1" data-name="Rectangle 1" width="12.761" height="12.761" fill="#e0e0e0"/>
      </g>
      <g id="Group_218" data-name="Group 218" transform="translate(0 173.552)">
        <rect id="Rectangle_2" data-name="Rectangle 2" width="12.762" height="12.761" fill="#e0e0e0"/>
      </g>
      <g id="Group_219" data-name="Group 219" transform="translate(172.31)">
        <rect id="Rectangle_3" data-name="Rectangle 3" width="12.761" height="12.762" fill="#e0e0e0"/>
      </g>
      <g id="Group_220" data-name="Group 220" transform="translate(0 1.242)">
        <rect id="Rectangle_4" data-name="Rectangle 4" width="12.762" height="12.761" fill="#e0e0e0"/>
      </g>
    </g>
    <g id="Group_369" data-name="Group 369" transform="translate(1192.236 528.264)">
      <g id="Group_364" data-name="Group 364" transform="translate(5.961 7.203)">
        <g id="Group_223" data-name="Group 223" transform="translate(167.893 170.328)">
          <g id="Group_222" data-name="Group 222">
            <path id="Path_206" data-name="Path 206" d="M1158.155,516.7c0-.233,1.621-.42,3.619-.42l1.218.023-.4.4c.059-1.4.214-2.4.4-2.4s.337,1,.395,2.4l.017.386-.411.008-1.218.025C1159.776,517.116,1158.155,516.927,1158.155,516.7Z" transform="translate(-1158.155 -514.294)" fill="#e0e0e0"/>
          </g>
        </g>
        <g id="Group_225" data-name="Group 225" transform="translate(158.218 172.31)">
          <g id="Group_224" data-name="Group 224">
            <path id="Path_207" data-name="Path 207" d="M1152.419,515.889c0-.233,1.083-.42,2.419-.42s2.419.187,2.419.42-1.083.42-2.419.42S1152.419,516.12,1152.419,515.889Z" transform="translate(-1152.419 -515.469)" fill="#e0e0e0"/>
          </g>
        </g>
        <g id="Group_227" data-name="Group 227" transform="translate(148.546 172.31)">
          <g id="Group_226" data-name="Group 226">
            <path id="Path_208" data-name="Path 208" d="M1146.684,515.889c0-.233,1.083-.42,2.419-.42s2.418.187,2.418.42-1.083.42-2.418.42S1146.684,516.12,1146.684,515.889Z" transform="translate(-1146.684 -515.469)" fill="#e0e0e0"/>
          </g>
        </g>
        <g id="Group_229" data-name="Group 229" transform="translate(138.871 172.31)">
          <g id="Group_228" data-name="Group 228">
            <path id="Path_209" data-name="Path 209" d="M1140.948,515.889c0-.233,1.083-.42,2.419-.42s2.419.187,2.419.42-1.083.42-2.419.42S1140.948,516.12,1140.948,515.889Z" transform="translate(-1140.948 -515.469)" fill="#e0e0e0"/>
          </g>
        </g>
        <g id="Group_231" data-name="Group 231" transform="translate(129.198 172.31)">
          <g id="Group_230" data-name="Group 230">
            <path id="Path_210" data-name="Path 210" d="M1135.213,515.889c0-.233,1.083-.42,2.417-.42s2.418.187,2.418.42-1.081.42-2.418.42S1135.213,516.12,1135.213,515.889Z" transform="translate(-1135.213 -515.469)" fill="#e0e0e0"/>
          </g>
        </g>
        <g id="Group_233" data-name="Group 233" transform="translate(119.524 172.31)">
          <g id="Group_232" data-name="Group 232">
            <path id="Path_211" data-name="Path 211" d="M1129.477,515.889c0-.233,1.083-.42,2.419-.42s2.418.187,2.418.42-1.083.42-2.418.42S1129.477,516.12,1129.477,515.889Z" transform="translate(-1129.477 -515.469)" fill="#e0e0e0"/>
          </g>
        </g>
        <g id="Group_235" data-name="Group 235" transform="translate(109.85 172.31)">
          <g id="Group_234" data-name="Group 234">
            <path id="Path_212" data-name="Path 212" d="M1123.741,515.889c0-.233,1.083-.42,2.419-.42s2.419.187,2.419.42-1.083.42-2.419.42S1123.741,516.12,1123.741,515.889Z" transform="translate(-1123.741 -515.469)" fill="#e0e0e0"/>
          </g>
        </g>
        <g id="Group_237" data-name="Group 237" transform="translate(100.177 172.31)">
          <g id="Group_236" data-name="Group 236">
            <path id="Path_213" data-name="Path 213" d="M1118.006,515.889c0-.233,1.083-.42,2.419-.42s2.419.187,2.419.42-1.083.42-2.419.42S1118.006,516.12,1118.006,515.889Z" transform="translate(-1118.006 -515.469)" fill="#e0e0e0"/>
          </g>
        </g>
        <g id="Group_239" data-name="Group 239" transform="translate(90.502 172.31)">
          <g id="Group_238" data-name="Group 238">
            <path id="Path_214" data-name="Path 214" d="M1112.27,515.889c0-.233,1.083-.42,2.418-.42s2.419.187,2.419.42-1.083.42-2.419.42S1112.27,516.12,1112.27,515.889Z" transform="translate(-1112.27 -515.469)" fill="#e0e0e0"/>
          </g>
        </g>
        <g id="Group_241" data-name="Group 241" transform="translate(80.83 172.31)">
          <g id="Group_240" data-name="Group 240">
            <path id="Path_215" data-name="Path 215" d="M1106.535,515.889c0-.233,1.083-.42,2.417-.42s2.418.187,2.418.42-1.081.42-2.418.42S1106.535,516.12,1106.535,515.889Z" transform="translate(-1106.535 -515.469)" fill="#e0e0e0"/>
          </g>
        </g>
        <g id="Group_243" data-name="Group 243" transform="translate(71.155 172.31)">
          <g id="Group_242" data-name="Group 242">
            <path id="Path_216" data-name="Path 216" d="M1100.8,515.889c0-.233,1.083-.42,2.419-.42s2.419.187,2.419.42-1.083.42-2.419.42S1100.8,516.12,1100.8,515.889Z" transform="translate(-1100.799 -515.469)" fill="#e0e0e0"/>
          </g>
        </g>
        <g id="Group_245" data-name="Group 245" transform="translate(61.481 172.31)">
          <g id="Group_244" data-name="Group 244">
            <path id="Path_217" data-name="Path 217" d="M1095.063,515.889c0-.233,1.083-.42,2.419-.42s2.419.187,2.419.42-1.083.42-2.419.42S1095.063,516.12,1095.063,515.889Z" transform="translate(-1095.063 -515.469)" fill="#e0e0e0"/>
          </g>
        </g>
        <g id="Group_247" data-name="Group 247" transform="translate(51.808 172.31)">
          <g id="Group_246" data-name="Group 246">
            <path id="Path_218" data-name="Path 218" d="M1089.328,515.889c0-.233,1.083-.42,2.419-.42s2.419.187,2.419.42-1.083.42-2.419.42S1089.328,516.12,1089.328,515.889Z" transform="translate(-1089.328 -515.469)" fill="#e0e0e0"/>
          </g>
        </g>
        <g id="Group_249" data-name="Group 249" transform="translate(42.134 172.31)">
          <g id="Group_248" data-name="Group 248">
            <path id="Path_219" data-name="Path 219" d="M1083.592,515.889c0-.233,1.083-.42,2.419-.42s2.418.187,2.418.42-1.083.42-2.418.42S1083.592,516.12,1083.592,515.889Z" transform="translate(-1083.592 -515.469)" fill="#e0e0e0"/>
          </g>
        </g>
        <g id="Group_251" data-name="Group 251" transform="translate(32.461 172.31)">
          <g id="Group_250" data-name="Group 250">
            <path id="Path_220" data-name="Path 220" d="M1077.857,515.889c0-.233,1.083-.42,2.417-.42s2.419.187,2.419.42-1.081.42-2.419.42S1077.857,516.12,1077.857,515.889Z" transform="translate(-1077.857 -515.469)" fill="#e0e0e0"/>
          </g>
        </g>
        <g id="Group_253" data-name="Group 253" transform="translate(22.786 172.31)">
          <g id="Group_252" data-name="Group 252">
            <path id="Path_221" data-name="Path 221" d="M1072.121,515.889c0-.233,1.083-.42,2.419-.42s2.418.187,2.418.42-1.083.42-2.418.42S1072.121,516.12,1072.121,515.889Z" transform="translate(-1072.121 -515.469)" fill="#e0e0e0"/>
          </g>
        </g>
        <g id="Group_255" data-name="Group 255" transform="translate(13.112 172.31)">
          <g id="Group_254" data-name="Group 254">
            <path id="Path_222" data-name="Path 222" d="M1066.385,515.889c0-.233,1.083-.42,2.418-.42s2.419.187,2.419.42-1.083.42-2.419.42S1066.385,516.12,1066.385,515.889Z" transform="translate(-1066.385 -515.469)" fill="#e0e0e0"/>
          </g>
        </g>
        <g id="Group_257" data-name="Group 257" transform="translate(3.439 172.31)">
          <g id="Group_256" data-name="Group 256">
            <path id="Path_223" data-name="Path 223" d="M1060.65,515.889c0-.233,1.083-.42,2.419-.42s2.418.187,2.418.42-1.083.42-2.418.42S1060.65,516.12,1060.65,515.889Z" transform="translate(-1060.65 -515.469)" fill="#e0e0e0"/>
          </g>
        </g>
        <g id="Group_259" data-name="Group 259" transform="translate(0 166.075)">
          <g id="Group_258" data-name="Group 258">
            <path id="Path_224" data-name="Path 224" d="M1059.031,511.772c.231,0,.42,1.083.42,2.419s-.189,2.419-.42,2.419-.42-1.083-.42-2.419S1058.8,511.772,1059.031,511.772Z" transform="translate(-1058.611 -511.772)" fill="#e0e0e0"/>
          </g>
        </g>
        <g id="Group_261" data-name="Group 261" transform="translate(0 156.4)">
          <g id="Group_260" data-name="Group 260">
            <path id="Path_225" data-name="Path 225" d="M1059.031,506.036c.231,0,.42,1.083.42,2.419s-.189,2.419-.42,2.419-.42-1.083-.42-2.419S1058.8,506.036,1059.031,506.036Z" transform="translate(-1058.611 -506.036)" fill="#e0e0e0"/>
          </g>
        </g>
        <g id="Group_263" data-name="Group 263" transform="translate(0 146.727)">
          <g id="Group_262" data-name="Group 262">
            <path id="Path_226" data-name="Path 226" d="M1059.031,500.3c.231,0,.42,1.083.42,2.419s-.189,2.419-.42,2.419-.42-1.083-.42-2.419S1058.8,500.3,1059.031,500.3Z" transform="translate(-1058.611 -500.301)" fill="#e0e0e0"/>
          </g>
        </g>
        <g id="Group_265" data-name="Group 265" transform="translate(0 137.053)">
          <g id="Group_264" data-name="Group 264">
            <path id="Path_227" data-name="Path 227" d="M1059.031,494.565c.231,0,.42,1.083.42,2.419s-.189,2.419-.42,2.419-.42-1.083-.42-2.419S1058.8,494.565,1059.031,494.565Z" transform="translate(-1058.611 -494.565)" fill="#e0e0e0"/>
          </g>
        </g>
        <g id="Group_267" data-name="Group 267" transform="translate(0 127.38)">
          <g id="Group_266" data-name="Group 266">
            <path id="Path_228" data-name="Path 228" d="M1059.031,488.83c.231,0,.42,1.083.42,2.419s-.189,2.417-.42,2.417-.42-1.081-.42-2.417S1058.8,488.83,1059.031,488.83Z" transform="translate(-1058.611 -488.83)" fill="#e0e0e0"/>
          </g>
        </g>
        <g id="Group_269" data-name="Group 269" transform="translate(0 117.706)">
          <g id="Group_268" data-name="Group 268">
            <path id="Path_229" data-name="Path 229" d="M1059.031,483.094c.231,0,.42,1.083.42,2.419s-.189,2.419-.42,2.419-.42-1.083-.42-2.419S1058.8,483.094,1059.031,483.094Z" transform="translate(-1058.611 -483.094)" fill="#e0e0e0"/>
          </g>
        </g>
        <g id="Group_271" data-name="Group 271" transform="translate(0 108.033)">
          <g id="Group_270" data-name="Group 270">
            <path id="Path_230" data-name="Path 230" d="M1059.031,477.359c.231,0,.42,1.083.42,2.417s-.189,2.419-.42,2.419-.42-1.083-.42-2.419S1058.8,477.359,1059.031,477.359Z" transform="translate(-1058.611 -477.359)" fill="#e0e0e0"/>
          </g>
        </g>
        <g id="Group_273" data-name="Group 273" transform="translate(0 98.359)">
          <g id="Group_272" data-name="Group 272">
            <path id="Path_231" data-name="Path 231" d="M1059.031,471.623c.231,0,.42,1.083.42,2.419s-.189,2.419-.42,2.419-.42-1.083-.42-2.419S1058.8,471.623,1059.031,471.623Z" transform="translate(-1058.611 -471.623)" fill="#e0e0e0"/>
          </g>
        </g>
        <g id="Group_275" data-name="Group 275" transform="translate(0 88.684)">
          <g id="Group_274" data-name="Group 274">
            <path id="Path_232" data-name="Path 232" d="M1059.031,465.887c.231,0,.42,1.083.42,2.419s-.189,2.419-.42,2.419-.42-1.083-.42-2.419S1058.8,465.887,1059.031,465.887Z" transform="translate(-1058.611 -465.887)" fill="#e0e0e0"/>
          </g>
        </g>
        <g id="Group_277" data-name="Group 277" transform="translate(0 79.011)">
          <g id="Group_276" data-name="Group 276">
            <path id="Path_233" data-name="Path 233" d="M1059.031,460.152c.231,0,.42,1.083.42,2.419s-.189,2.419-.42,2.419-.42-1.083-.42-2.419S1058.8,460.152,1059.031,460.152Z" transform="translate(-1058.611 -460.152)" fill="#e0e0e0"/>
          </g>
        </g>
        <g id="Group_279" data-name="Group 279" transform="translate(0 69.337)">
          <g id="Group_278" data-name="Group 278">
            <path id="Path_234" data-name="Path 234" d="M1059.031,454.416c.231,0,.42,1.083.42,2.419s-.189,2.419-.42,2.419-.42-1.083-.42-2.419S1058.8,454.416,1059.031,454.416Z" transform="translate(-1058.611 -454.416)" fill="#e0e0e0"/>
          </g>
        </g>
        <g id="Group_281" data-name="Group 281" transform="translate(0 59.664)">
          <g id="Group_280" data-name="Group 280">
            <path id="Path_235" data-name="Path 235" d="M1059.031,448.681c.231,0,.42,1.083.42,2.417s-.189,2.419-.42,2.419-.42-1.083-.42-2.419S1058.8,448.681,1059.031,448.681Z" transform="translate(-1058.611 -448.681)" fill="#e0e0e0"/>
          </g>
        </g>
        <g id="Group_283" data-name="Group 283" transform="translate(0 49.99)">
          <g id="Group_282" data-name="Group 282">
            <path id="Path_236" data-name="Path 236" d="M1059.031,442.945c.231,0,.42,1.083.42,2.419s-.189,2.419-.42,2.419-.42-1.083-.42-2.419S1058.8,442.945,1059.031,442.945Z" transform="translate(-1058.611 -442.945)" fill="#e0e0e0"/>
          </g>
        </g>
        <g id="Group_285" data-name="Group 285" transform="translate(0 40.315)">
          <g id="Group_284" data-name="Group 284">
            <path id="Path_237" data-name="Path 237" d="M1059.031,437.209c.231,0,.42,1.083.42,2.419s-.189,2.419-.42,2.419-.42-1.083-.42-2.419S1058.8,437.209,1059.031,437.209Z" transform="translate(-1058.611 -437.209)" fill="#e0e0e0"/>
          </g>
        </g>
        <g id="Group_287" data-name="Group 287" transform="translate(0 30.642)">
          <g id="Group_286" data-name="Group 286">
            <path id="Path_238" data-name="Path 238" d="M1059.031,431.474c.231,0,.42,1.083.42,2.419s-.189,2.419-.42,2.419-.42-1.083-.42-2.419S1058.8,431.474,1059.031,431.474Z" transform="translate(-1058.611 -431.474)" fill="#e0e0e0"/>
          </g>
        </g>
        <g id="Group_289" data-name="Group 289" transform="translate(0 20.968)">
          <g id="Group_288" data-name="Group 288">
            <path id="Path_239" data-name="Path 239" d="M1059.031,425.738c.231,0,.42,1.083.42,2.419s-.189,2.419-.42,2.419-.42-1.083-.42-2.419S1058.8,425.738,1059.031,425.738Z" transform="translate(-1058.611 -425.738)" fill="#e0e0e0"/>
          </g>
        </g>
        <g id="Group_291" data-name="Group 291" transform="translate(0 11.295)">
          <g id="Group_290" data-name="Group 290">
            <path id="Path_240" data-name="Path 240" d="M1059.031,420c.231,0,.42,1.083.42,2.417s-.189,2.419-.42,2.419-.42-1.083-.42-2.419S1058.8,420,1059.031,420Z" transform="translate(-1058.611 -420.003)" fill="#e0e0e0"/>
          </g>
        </g>
        <g id="Group_293" data-name="Group 293" transform="translate(0 1.621)">
          <g id="Group_292" data-name="Group 292">
            <path id="Path_241" data-name="Path 241" d="M1059.031,414.267c.231,0,.42,1.083.42,2.419s-.189,2.419-.42,2.419-.42-1.083-.42-2.419S1058.8,414.267,1059.031,414.267Z" transform="translate(-1058.611 -414.267)" fill="#e0e0e0"/>
          </g>
        </g>
        <g id="Group_295" data-name="Group 295" transform="translate(4.056)">
          <g id="Group_294" data-name="Group 294">
            <path id="Path_242" data-name="Path 242" d="M1065.853,413.726c0,.231-1.083.42-2.419.42s-2.418-.189-2.418-.42,1.083-.42,2.418-.42S1065.853,413.493,1065.853,413.726Z" transform="translate(-1061.016 -413.306)" fill="#e0e0e0"/>
          </g>
        </g>
        <g id="Group_297" data-name="Group 297" transform="translate(13.729)">
          <g id="Group_296" data-name="Group 296">
            <path id="Path_243" data-name="Path 243" d="M1071.588,413.726c0,.231-1.083.42-2.419.42s-2.419-.189-2.419-.42,1.083-.42,2.419-.42S1071.588,413.493,1071.588,413.726Z" transform="translate(-1066.751 -413.306)" fill="#e0e0e0"/>
          </g>
        </g>
        <g id="Group_299" data-name="Group 299" transform="translate(23.404)">
          <g id="Group_298" data-name="Group 298">
            <path id="Path_244" data-name="Path 244" d="M1077.324,413.726c0,.231-1.083.42-2.419.42s-2.418-.189-2.418-.42,1.083-.42,2.418-.42S1077.324,413.493,1077.324,413.726Z" transform="translate(-1072.487 -413.306)" fill="#e0e0e0"/>
          </g>
        </g>
        <g id="Group_301" data-name="Group 301" transform="translate(33.077 0)">
          <g id="Group_300" data-name="Group 300">
            <ellipse id="Ellipse_10" data-name="Ellipse 10" cx="2.418" cy="0.42" rx="2.418" ry="0.42" fill="#e0e0e0"/>
          </g>
        </g>
        <g id="Group_303" data-name="Group 303" transform="translate(42.751)">
          <g id="Group_302" data-name="Group 302">
            <path id="Path_245" data-name="Path 245" d="M1088.8,413.726c0,.231-1.083.42-2.419.42s-2.418-.189-2.418-.42,1.083-.42,2.418-.42S1088.8,413.493,1088.8,413.726Z" transform="translate(-1083.958 -413.306)" fill="#e0e0e0"/>
          </g>
        </g>
        <g id="Group_305" data-name="Group 305" transform="translate(52.425)">
          <g id="Group_304" data-name="Group 304">
            <path id="Path_246" data-name="Path 246" d="M1094.531,413.726c0,.231-1.083.42-2.419.42s-2.419-.189-2.419-.42,1.083-.42,2.419-.42S1094.531,413.493,1094.531,413.726Z" transform="translate(-1089.694 -413.306)" fill="#e0e0e0"/>
          </g>
        </g>
        <g id="Group_307" data-name="Group 307" transform="translate(62.098)">
          <g id="Group_306" data-name="Group 306">
            <path id="Path_247" data-name="Path 247" d="M1100.266,413.726c0,.231-1.083.42-2.419.42s-2.419-.189-2.419-.42,1.083-.42,2.419-.42S1100.266,413.493,1100.266,413.726Z" transform="translate(-1095.429 -413.306)" fill="#e0e0e0"/>
          </g>
        </g>
        <g id="Group_309" data-name="Group 309" transform="translate(71.773)">
          <g id="Group_308" data-name="Group 308">
            <path id="Path_248" data-name="Path 248" d="M1106,413.726c0,.231-1.083.42-2.418.42s-2.419-.189-2.419-.42,1.083-.42,2.419-.42S1106,413.493,1106,413.726Z" transform="translate(-1101.165 -413.306)" fill="#e0e0e0"/>
          </g>
        </g>
        <g id="Group_311" data-name="Group 311" transform="translate(81.447)">
          <g id="Group_310" data-name="Group 310">
            <path id="Path_249" data-name="Path 249" d="M1111.736,413.726c0,.231-1.082.42-2.417.42s-2.418-.189-2.418-.42,1.081-.42,2.418-.42S1111.736,413.493,1111.736,413.726Z" transform="translate(-1106.901 -413.306)" fill="#e0e0e0"/>
          </g>
        </g>
        <g id="Group_313" data-name="Group 313" transform="translate(91.12)">
          <g id="Group_312" data-name="Group 312">
            <path id="Path_250" data-name="Path 250" d="M1117.473,413.726c0,.231-1.083.42-2.419.42s-2.419-.189-2.419-.42,1.083-.42,2.419-.42S1117.473,413.493,1117.473,413.726Z" transform="translate(-1112.636 -413.306)" fill="#e0e0e0"/>
          </g>
        </g>
        <g id="Group_315" data-name="Group 315" transform="translate(100.794)">
          <g id="Group_314" data-name="Group 314">
            <path id="Path_251" data-name="Path 251" d="M1123.209,413.726c0,.231-1.083.42-2.419.42s-2.419-.189-2.419-.42,1.083-.42,2.419-.42S1123.209,413.493,1123.209,413.726Z" transform="translate(-1118.372 -413.306)" fill="#e0e0e0"/>
          </g>
        </g>
        <g id="Group_317" data-name="Group 317" transform="translate(110.467)">
          <g id="Group_316" data-name="Group 316">
            <path id="Path_252" data-name="Path 252" d="M1128.944,413.726c0,.231-1.083.42-2.419.42s-2.419-.189-2.419-.42,1.083-.42,2.419-.42S1128.944,413.493,1128.944,413.726Z" transform="translate(-1124.107 -413.306)" fill="#e0e0e0"/>
          </g>
        </g>
        <g id="Group_319" data-name="Group 319" transform="translate(120.141)">
          <g id="Group_318" data-name="Group 318">
            <path id="Path_253" data-name="Path 253" d="M1134.68,413.726c0,.231-1.083.42-2.419.42s-2.418-.189-2.418-.42,1.083-.42,2.418-.42S1134.68,413.493,1134.68,413.726Z" transform="translate(-1129.843 -413.306)" fill="#e0e0e0"/>
          </g>
        </g>
        <g id="Group_321" data-name="Group 321" transform="translate(129.816)">
          <g id="Group_320" data-name="Group 320">
            <path id="Path_254" data-name="Path 254" d="M1140.415,413.726c0,.231-1.083.42-2.417.42s-2.419-.189-2.419-.42,1.081-.42,2.419-.42S1140.415,413.493,1140.415,413.726Z" transform="translate(-1135.579 -413.306)" fill="#e0e0e0"/>
          </g>
        </g>
        <g id="Group_323" data-name="Group 323" transform="translate(139.488)">
          <g id="Group_322" data-name="Group 322">
            <path id="Path_255" data-name="Path 255" d="M1146.151,413.726c0,.231-1.083.42-2.418.42s-2.419-.189-2.419-.42,1.083-.42,2.419-.42S1146.151,413.493,1146.151,413.726Z" transform="translate(-1141.314 -413.306)" fill="#e0e0e0"/>
          </g>
        </g>
        <g id="Group_325" data-name="Group 325" transform="translate(149.163)">
          <g id="Group_324" data-name="Group 324">
            <path id="Path_256" data-name="Path 256" d="M1151.887,413.726c0,.231-1.083.42-2.418.42s-2.419-.189-2.419-.42,1.083-.42,2.419-.42S1151.887,413.493,1151.887,413.726Z" transform="translate(-1147.05 -413.306)" fill="#e0e0e0"/>
          </g>
        </g>
        <g id="Group_327" data-name="Group 327" transform="translate(158.836)">
          <g id="Group_326" data-name="Group 326">
            <path id="Path_257" data-name="Path 257" d="M1157.622,413.726c0,.231-1.083.42-2.419.42s-2.418-.189-2.418-.42,1.083-.42,2.418-.42S1157.622,413.493,1157.622,413.726Z" transform="translate(-1152.785 -413.306)" fill="#e0e0e0"/>
          </g>
        </g>
        <g id="Group_329" data-name="Group 329" transform="translate(168.51)">
          <g id="Group_328" data-name="Group 328">
            <path id="Path_258" data-name="Path 258" d="M1162.741,414.343c-.108,0-.2-.231-.278-.617l.278.278a9.827,9.827,0,0,1-1.8.142c-1.336,0-2.419-.189-2.419-.42s1.083-.42,2.419-.42a9.827,9.827,0,0,1,1.8.142l.321.062-.042.216C1162.945,414.112,1162.847,414.343,1162.741,414.343Z" transform="translate(-1158.521 -413.306)" fill="#e0e0e0"/>
          </g>
        </g>
        <g id="Group_331" data-name="Group 331" transform="translate(172.31 5.874)">
          <g id="Group_330" data-name="Group 330">
            <path id="Path_259" data-name="Path 259" d="M1161.194,421.626c-.233,0-.42-1.084-.42-2.419s.187-2.419.42-2.419.42,1.083.42,2.419S1161.425,421.626,1161.194,421.626Z" transform="translate(-1160.774 -416.789)" fill="#e0e0e0"/>
          </g>
        </g>
        <g id="Group_333" data-name="Group 333" transform="translate(172.31 15.547)">
          <g id="Group_332" data-name="Group 332">
            <path id="Path_260" data-name="Path 260" d="M1161.194,427.361c-.233,0-.42-1.083-.42-2.419s.187-2.419.42-2.419.42,1.083.42,2.419S1161.425,427.361,1161.194,427.361Z" transform="translate(-1160.774 -422.524)" fill="#e0e0e0"/>
          </g>
        </g>
        <g id="Group_335" data-name="Group 335" transform="translate(172.31 25.222)">
          <g id="Group_334" data-name="Group 334">
            <path id="Path_261" data-name="Path 261" d="M1161.194,433.1c-.233,0-.42-1.083-.42-2.419s.187-2.419.42-2.419.42,1.083.42,2.419S1161.425,433.1,1161.194,433.1Z" transform="translate(-1160.774 -428.26)" fill="#e0e0e0"/>
          </g>
        </g>
        <g id="Group_337" data-name="Group 337" transform="translate(172.31 34.896)">
          <g id="Group_336" data-name="Group 336">
            <path id="Path_262" data-name="Path 262" d="M1161.194,438.832c-.233,0-.42-1.083-.42-2.419s.187-2.417.42-2.417.42,1.081.42,2.417S1161.425,438.832,1161.194,438.832Z" transform="translate(-1160.774 -433.996)" fill="#e0e0e0"/>
          </g>
        </g>
        <g id="Group_339" data-name="Group 339" transform="translate(172.31 44.569)">
          <g id="Group_338" data-name="Group 338">
            <path id="Path_263" data-name="Path 263" d="M1161.194,444.568c-.233,0-.42-1.083-.42-2.419s.187-2.419.42-2.419.42,1.083.42,2.419S1161.425,444.568,1161.194,444.568Z" transform="translate(-1160.774 -439.731)" fill="#e0e0e0"/>
          </g>
        </g>
        <g id="Group_341" data-name="Group 341" transform="translate(172.31 54.243)">
          <g id="Group_340" data-name="Group 340">
            <path id="Path_264" data-name="Path 264" d="M1161.194,450.3c-.233,0-.42-1.085-.42-2.419s.187-2.419.42-2.419.42,1.083.42,2.419S1161.425,450.3,1161.194,450.3Z" transform="translate(-1160.774 -445.467)" fill="#e0e0e0"/>
          </g>
        </g>
        <g id="Group_343" data-name="Group 343" transform="translate(172.31 63.916)">
          <g id="Group_342" data-name="Group 342">
            <path id="Path_265" data-name="Path 265" d="M1161.194,456.039c-.233,0-.42-1.083-.42-2.419s.187-2.419.42-2.419.42,1.083.42,2.419S1161.425,456.039,1161.194,456.039Z" transform="translate(-1160.774 -451.202)" fill="#e0e0e0"/>
          </g>
        </g>
        <g id="Group_345" data-name="Group 345" transform="translate(172.31 73.591)">
          <g id="Group_344" data-name="Group 344">
            <path id="Path_266" data-name="Path 266" d="M1161.194,461.775c-.233,0-.42-1.083-.42-2.419s.187-2.419.42-2.419.42,1.083.42,2.419S1161.425,461.775,1161.194,461.775Z" transform="translate(-1160.774 -456.938)" fill="#e0e0e0"/>
          </g>
        </g>
        <g id="Group_347" data-name="Group 347" transform="translate(172.31 83.265)">
          <g id="Group_346" data-name="Group 346">
            <path id="Path_267" data-name="Path 267" d="M1161.194,467.509c-.233,0-.42-1.083-.42-2.419s.187-2.417.42-2.417.42,1.081.42,2.417S1161.425,467.509,1161.194,467.509Z" transform="translate(-1160.774 -462.674)" fill="#e0e0e0"/>
          </g>
        </g>
        <g id="Group_349" data-name="Group 349" transform="translate(172.31 92.938)">
          <g id="Group_348" data-name="Group 348">
            <path id="Path_268" data-name="Path 268" d="M1161.194,473.246c-.233,0-.42-1.083-.42-2.419s.187-2.419.42-2.419.42,1.083.42,2.419S1161.425,473.246,1161.194,473.246Z" transform="translate(-1160.774 -468.409)" fill="#e0e0e0"/>
          </g>
        </g>
        <g id="Group_351" data-name="Group 351" transform="translate(172.31 102.612)">
          <g id="Group_350" data-name="Group 350">
            <path id="Path_269" data-name="Path 269" d="M1161.194,478.982c-.233,0-.42-1.084-.42-2.419s.187-2.419.42-2.419.42,1.083.42,2.419S1161.425,478.982,1161.194,478.982Z" transform="translate(-1160.774 -474.145)" fill="#e0e0e0"/>
          </g>
        </g>
        <g id="Group_353" data-name="Group 353" transform="translate(172.31 112.285)">
          <g id="Group_352" data-name="Group 352">
            <path id="Path_270" data-name="Path 270" d="M1161.194,484.717c-.233,0-.42-1.083-.42-2.419s.187-2.419.42-2.419.42,1.083.42,2.419S1161.425,484.717,1161.194,484.717Z" transform="translate(-1160.774 -479.88)" fill="#e0e0e0"/>
          </g>
        </g>
        <g id="Group_355" data-name="Group 355" transform="translate(172.31 121.959)">
          <g id="Group_354" data-name="Group 354">
            <path id="Path_271" data-name="Path 271" d="M1161.194,490.453c-.233,0-.42-1.083-.42-2.419s.187-2.419.42-2.419.42,1.083.42,2.419S1161.425,490.453,1161.194,490.453Z" transform="translate(-1160.774 -485.616)" fill="#e0e0e0"/>
          </g>
        </g>
        <g id="Group_357" data-name="Group 357" transform="translate(172.31 131.634)">
          <g id="Group_356" data-name="Group 356">
            <path id="Path_272" data-name="Path 272" d="M1161.194,496.188c-.233,0-.42-1.083-.42-2.419s.187-2.417.42-2.417.42,1.081.42,2.417S1161.425,496.188,1161.194,496.188Z" transform="translate(-1160.774 -491.352)" fill="#e0e0e0"/>
          </g>
        </g>
        <g id="Group_359" data-name="Group 359" transform="translate(172.31 141.307)">
          <g id="Group_358" data-name="Group 358">
            <path id="Path_273" data-name="Path 273" d="M1161.194,501.924c-.233,0-.42-1.083-.42-2.419s.187-2.419.42-2.419.42,1.083.42,2.419S1161.425,501.924,1161.194,501.924Z" transform="translate(-1160.774 -497.087)" fill="#e0e0e0"/>
          </g>
        </g>
        <g id="Group_361" data-name="Group 361" transform="translate(172.31 150.981)">
          <g id="Group_360" data-name="Group 360">
            <path id="Path_274" data-name="Path 274" d="M1161.194,507.66c-.233,0-.42-1.085-.42-2.419s.187-2.419.42-2.419.42,1.083.42,2.419S1161.425,507.66,1161.194,507.66Z" transform="translate(-1160.774 -502.823)" fill="#e0e0e0"/>
          </g>
        </g>
        <g id="Group_363" data-name="Group 363" transform="translate(172.31 160.654)">
          <g id="Group_362" data-name="Group 362">
            <path id="Path_275" data-name="Path 275" d="M1161.194,513.4c-.233,0-.42-1.083-.42-2.419s.187-2.419.42-2.419.42,1.083.42,2.419S1161.425,513.4,1161.194,513.4Z" transform="translate(-1160.774 -508.558)" fill="#e0e0e0"/>
          </g>
        </g>
      </g>
      <g id="Group_365" data-name="Group 365" transform="translate(172.31 171.806)">
        <rect id="Rectangle_5" data-name="Rectangle 5" width="12.761" height="12.761" fill="#e0e0e0"/>
      </g>
      <g id="Group_366" data-name="Group 366" transform="translate(0 173.552)">
        <rect id="Rectangle_6" data-name="Rectangle 6" width="12.762" height="12.761" fill="#e0e0e0"/>
      </g>
      <g id="Group_367" data-name="Group 367" transform="translate(172.31)">
        <rect id="Rectangle_7" data-name="Rectangle 7" width="12.761" height="12.762" fill="#e0e0e0"/>
      </g>
      <g id="Group_368" data-name="Group 368" transform="translate(0 1.242)">
        <rect id="Rectangle_8" data-name="Rectangle 8" width="12.762" height="12.761" fill="#e0e0e0"/>
      </g>
    </g>
    <g id="Group_422" data-name="Group 422" transform="translate(1282.333 303.071)">
      <g id="Group_381" data-name="Group 381">
        <g id="Group_380" data-name="Group 380">
          <g id="Group_379" data-name="Group 379">
            <g id="Group_378" data-name="Group 378">
              <g id="Group_373" data-name="Group 373">
                <g id="Group_372" data-name="Group 372">
                  <g id="Group_371" data-name="Group 371">
                    <g id="Group_370" data-name="Group 370">
                      <path id="Path_276" data-name="Path 276" d="M1216.956,537.489l-89.133-.412a19.386,19.386,0,0,1-19.327-19.443l.943-222.836a19.391,19.391,0,0,1,19.506-19.28l89.134.412a19.389,19.389,0,0,1,19.327,19.443l-.945,222.836A19.39,19.39,0,0,1,1216.956,537.489Z" transform="translate(-1108.496 -275.518)" fill="#263238"/>
                    </g>
                  </g>
                </g>
              </g>
              <g id="Group_377" data-name="Group 377" transform="translate(5.918 7.691)">
                <g id="Group_376" data-name="Group 376">
                  <g id="Group_375" data-name="Group 375">
                    <g id="Group_374" data-name="Group 374">
                      <path id="Path_277" data-name="Path 277" d="M1215.543,280.488l-17.283-.079a4.287,4.287,0,0,0-4.213,4.355l-.015,3.127a4.283,4.283,0,0,1-4.213,4.355l-33.687-.155a4.291,4.291,0,0,1-4.177-4.394l.015-3.125a4.292,4.292,0,0,0-4.178-4.4l-6.079-.029-15.126-.069a13.579,13.579,0,0,0-13.66,13.5l-.923,217.5A13.58,13.58,0,0,0,1125.54,524.7l88.956.41a13.58,13.58,0,0,0,13.66-13.5l.921-217.5A13.578,13.578,0,0,0,1215.543,280.488Z" transform="translate(-1112.005 -280.078)" fill="#fff"/>
                    </g>
                  </g>
                </g>
              </g>
            </g>
          </g>
        </g>
      </g>
      <g id="Group_383" data-name="Group 383" transform="translate(21.909 96.735)">
        <g id="Group_382" data-name="Group 382">
          <path id="Path_278" data-name="Path 278" d="M1207.887,333.312c0,.241-19.344.439-43.2.439s-43.2-.2-43.2-.439,19.339-.44,43.2-.44S1207.887,333.069,1207.887,333.312Z" transform="translate(-1121.486 -332.872)" fill="#263238"/>
        </g>
      </g>
      <g id="Group_385" data-name="Group 385" transform="translate(21.909 102.056)">
        <g id="Group_384" data-name="Group 384">
          <path id="Path_279" data-name="Path 279" d="M1207.887,336.467c0,.243-19.344.439-43.2.439s-43.2-.2-43.2-.439,19.339-.44,43.2-.44S1207.887,336.224,1207.887,336.467Z" transform="translate(-1121.486 -336.027)" fill="#263238"/>
        </g>
      </g>
      <g id="Group_387" data-name="Group 387" transform="translate(44.37 106.819)">
        <g id="Group_386" data-name="Group 386">
          <path id="Path_280" data-name="Path 280" d="M1169.584,339.291c0,.241-7.787.438-17.391.438s-17.391-.2-17.391-.438,7.784-.44,17.391-.44S1169.584,339.048,1169.584,339.291Z" transform="translate(-1134.803 -338.851)" fill="#263238"/>
        </g>
      </g>
      <g id="Group_397" data-name="Group 397" transform="translate(16.905 118.975)">
        <g id="Group_396" data-name="Group 396">
          <g id="Group_388" data-name="Group 388">
            <rect id="Rectangle_9" data-name="Rectangle 9" width="91.404" height="58.511" fill="#2a2a2a"/>
          </g>
          <g id="Group_389" data-name="Group 389" transform="translate(5.933 8.008)">
            <ellipse id="Ellipse_11" data-name="Ellipse 11" cx="3.662" cy="3.594" rx="3.662" ry="3.594" fill="#fafafa"/>
          </g>
          <g id="Group_391" data-name="Group 391" transform="translate(80.548 6.101)">
            <g id="Group_390" data-name="Group 390">
              <path id="Path_281" data-name="Path 281" d="M1172.174,358.2l-3.01-2.891-2.8,2.8-.091-8.377,5.805-.062Zm-3.014-3.255.094.089,2.65,2.547-.083-7.646-5.279.056.081,7.5Z" transform="translate(-1166.276 -349.676)" fill="#fafafa"/>
            </g>
          </g>
          <g id="Group_393" data-name="Group 393" transform="translate(18.582 9.257)">
            <g id="Group_392" data-name="Group 392">
              <path id="Path_282" data-name="Path 282" d="M1174.378,351.986c0,.243-10.039.44-22.42.44s-22.422-.2-22.422-.44,10.037-.439,22.422-.439S1174.378,351.744,1174.378,351.986Z" transform="translate(-1129.536 -351.547)" fill="#fafafa"/>
            </g>
          </g>
          <g id="Group_395" data-name="Group 395" transform="translate(18.582 14.189)">
            <g id="Group_394" data-name="Group 394">
              <path id="Path_283" data-name="Path 283" d="M1146.822,354.91c0,.243-3.869.44-8.642.44s-8.644-.2-8.644-.44,3.869-.439,8.644-.439S1146.822,354.667,1146.822,354.91Z" transform="translate(-1129.536 -354.471)" fill="#fafafa"/>
            </g>
          </g>
        </g>
      </g>
      <g id="Group_412" data-name="Group 412" transform="translate(6.576 7.691)">
        <g id="Group_398" data-name="Group 398" transform="translate(0.089)">
          <path id="Path_284" data-name="Path 284" d="M1147.487,280.176l-6.078-.029-15.126-.069a13.579,13.579,0,0,0-13.66,13.5l-.175,41.246c4.569.916,9.138,1.81,13.712,2.611,23.537,4.122,48.787,5.576,70.359-4.7,11.951-5.692,21.906-14.576,32.188-23.01l.066-15.622a13.578,13.578,0,0,0-13.533-13.618l-17.283-.079a4.287,4.287,0,0,0-4.213,4.355l-.015,3.127a4.283,4.283,0,0,1-4.213,4.355l-33.687-.155a4.291,4.291,0,0,1-4.177-4.394l.015-3.125A4.292,4.292,0,0,0,1147.487,280.176Zm7.128,26.531a12.193,12.193,0,1,1-12.193-12.193A12.193,12.193,0,0,1,1154.615,306.706Z" transform="translate(-1112.448 -280.078)" fill="#d9141c"/>
        </g>
        <g id="Group_400" data-name="Group 400" transform="translate(0 29.649)">
          <g id="Group_399" data-name="Group 399">
            <path id="Path_285" data-name="Path 285" d="M1126.2,325.368c-4.574-.8-9.143-1.7-13.712-2.611l-.089,20.985h116.152l.2-46.085c-10.282,8.435-20.236,17.318-32.188,23.01C1174.984,330.944,1149.733,329.49,1126.2,325.368Zm35.348,10.978a1.047,1.047,0,1,1,1.047-1.047A1.049,1.049,0,0,1,1161.545,336.346Zm6.643,0a1.047,1.047,0,1,1,1.049-1.047A1.047,1.047,0,0,1,1168.188,336.346Zm6.645,0a1.047,1.047,0,1,1,1.047-1.047A1.048,1.048,0,0,1,1174.834,336.346Z" transform="translate(-1112.395 -297.657)" fill="#e8505b"/>
          </g>
        </g>
        <g id="Group_401" data-name="Group 401" transform="translate(48.101 66.244)">
          <path id="Path_286" data-name="Path 286" d="M1141.963,319.354a1.047,1.047,0,1,0,1.047,1.047A1.049,1.049,0,0,0,1141.963,319.354Z" transform="translate(-1140.914 -319.354)" fill="#263238"/>
        </g>
        <g id="Group_402" data-name="Group 402" transform="translate(54.746 66.244)">
          <path id="Path_287" data-name="Path 287" d="M1145.9,319.354a1.047,1.047,0,1,0,1.049,1.047A1.047,1.047,0,0,0,1145.9,319.354Z" transform="translate(-1144.854 -319.354)" fill="#263238"/>
        </g>
        <g id="Group_403" data-name="Group 403" transform="translate(61.391 66.244)">
          <path id="Path_288" data-name="Path 288" d="M1149.842,319.354a1.047,1.047,0,1,0,1.047,1.047A1.047,1.047,0,0,0,1149.842,319.354Z" transform="translate(-1148.794 -319.354)" fill="#263238"/>
        </g>
        <g id="Group_404" data-name="Group 404" transform="translate(17.871 14.436)">
          <path id="Path_289" data-name="Path 289" d="M1135.184,288.637a12.193,12.193,0,1,0,12.193,12.193A12.193,12.193,0,0,0,1135.184,288.637Z" transform="translate(-1122.991 -288.637)" fill="#e8505b"/>
        </g>
        <g id="Group_405" data-name="Group 405" transform="translate(17.871 14.436)" opacity="0.3">
          <path id="Path_290" data-name="Path 290" d="M1135.184,288.637a12.193,12.193,0,1,0,12.193,12.193A12.193,12.193,0,0,0,1135.184,288.637Z" transform="translate(-1122.991 -288.637)" fill="#e33d47"/>
        </g>
        <g id="Group_406" data-name="Group 406" transform="translate(10.329 199.219)">
          <path id="Path_291" data-name="Path 291" d="M1118.519,443.344a13.782,13.782,0,0,0,2.548.258l87.163.4V398.195h-89.711Zm84.753-39.047.091,8.526-2.953-2.891-2.744,2.8-.089-8.377Zm-75.336,1.908a3.594,3.594,0,1,1-3.594,3.594A3.594,3.594,0,0,1,1127.935,406.2Z" transform="translate(-1118.519 -398.195)" fill="#d9141c"/>
        </g>
        <g id="Group_407" data-name="Group 407" transform="translate(89.646 205.582)">
          <path id="Path_292" data-name="Path 292" d="M1168.116,406.977l.093.09,2.6,2.547-.082-7.646-5.181.055.08,7.5Z" transform="translate(-1165.546 -401.968)" fill="none"/>
        </g>
        <g id="Group_408" data-name="Group 408" transform="translate(16.151 207.228)">
          <circle id="Ellipse_12" data-name="Ellipse 12" cx="3.594" cy="3.594" r="3.594" fill="#fafafa"/>
        </g>
        <g id="Group_409" data-name="Group 409" transform="translate(89.386 205.321)">
          <path id="Path_293" data-name="Path 293" d="M1168.225,407.448l2.953,2.891-.091-8.526-5.7.063.089,8.377Zm2.608-5.374.083,7.645-2.6-2.547-.093-.089-2.489,2.545-.081-7.5Z" transform="translate(-1165.392 -401.813)" fill="#fafafa"/>
        </g>
        <g id="Group_411" data-name="Group 411" transform="translate(0 29.649)" opacity="0.3">
          <g id="Group_410" data-name="Group 410">
            <path id="Path_294" data-name="Path 294" d="M1126.2,325.368c-4.574-.8-9.143-1.7-13.712-2.611l-.089,20.985h116.152l.2-46.085c-10.282,8.435-20.236,17.318-32.188,23.01C1174.984,330.944,1149.733,329.49,1126.2,325.368Zm35.348,10.978a1.047,1.047,0,1,1,1.047-1.047A1.049,1.049,0,0,1,1161.545,336.346Zm6.643,0a1.047,1.047,0,1,1,1.049-1.047A1.047,1.047,0,0,1,1168.188,336.346Zm6.645,0a1.047,1.047,0,1,1,1.047-1.047A1.048,1.048,0,0,1,1174.834,336.346Z" transform="translate(-1112.395 -297.657)" fill="#d9141c"/>
          </g>
        </g>
      </g>
      <g id="Group_421" data-name="Group 421" transform="translate(16.905 182.912)">
        <g id="Group_414" data-name="Group 414">
          <g id="Group_413" data-name="Group 413">
            <path id="Path_295" data-name="Path 295" d="M1207.48,384.407c0,.243-19.916.439-44.478.439s-44.483-.2-44.483-.439,19.912-.44,44.483-.44S1207.48,384.164,1207.48,384.407Z" transform="translate(-1118.519 -383.967)" fill="#263238"/>
          </g>
        </g>
        <g id="Group_416" data-name="Group 416" transform="translate(0 4.498)">
          <g id="Group_415" data-name="Group 415">
            <path id="Path_296" data-name="Path 296" d="M1207.48,387.073c0,.243-19.916.44-44.478.44s-44.483-.2-44.483-.44,19.912-.439,44.483-.439S1207.48,386.83,1207.48,387.073Z" transform="translate(-1118.519 -386.634)" fill="#263238"/>
          </g>
        </g>
        <g id="Group_418" data-name="Group 418" transform="translate(0 9.627)">
          <g id="Group_417" data-name="Group 417">
            <path id="Path_297" data-name="Path 297" d="M1207.48,390.115c0,.243-19.916.439-44.478.439s-44.483-.2-44.483-.439,19.912-.44,44.483-.44S1207.48,389.872,1207.48,390.115Z" transform="translate(-1118.519 -389.675)" fill="#263238"/>
          </g>
        </g>
        <g id="Group_420" data-name="Group 420" transform="translate(0 14.085)">
          <g id="Group_419" data-name="Group 419">
            <path id="Path_298" data-name="Path 298" d="M1164.877,392.758c0,.241-10.378.438-23.178.438s-23.181-.2-23.181-.438,10.376-.44,23.181-.44S1164.877,392.515,1164.877,392.758Z" transform="translate(-1118.519 -392.318)" fill="#263238"/>
          </g>
        </g>
      </g>
    </g>
    <g id="Group_503" data-name="Group 503" transform="translate(855.317 359.016)">
      <g id="Group_435" data-name="Group 435">
        <g id="Group_425" data-name="Group 425" transform="translate(18.138)">
          <g id="Group_424" data-name="Group 424">
            <g id="Group_423" data-name="Group 423">
              <path id="Path_359" data-name="Path 359" d="M13.073,0h409.3A11.368,11.368,0,0,1,433.74,11.368v250.89a24.57,24.57,0,0,1-24.57,24.57H24.57A24.57,24.57,0,0,1,0,262.258V13.073A13.073,13.073,0,0,1,13.073,0Z" fill="#2a2a2a"/>
            </g>
          </g>
        </g>
        <g id="Group_428" data-name="Group 428" transform="translate(0 265.615)">
          <g id="Group_427" data-name="Group 427">
            <g id="Group_426" data-name="Group 426">
              <path id="Rectangle_11" data-name="Rectangle 11" d="M0,0H469.925a0,0,0,0,1,0,0V11.375A13.722,13.722,0,0,1,456.2,25.1H13.721A13.721,13.721,0,0,1,0,11.375V0A0,0,0,0,1,0,0Z" fill="#2a2a2a"/>
            </g>
          </g>
        </g>
        <g id="Group_431" data-name="Group 431" transform="translate(29.781 11.396)">
          <g id="Group_430" data-name="Group 430">
            <g id="Group_429" data-name="Group 429">
              <rect id="Rectangle_12" data-name="Rectangle 12" width="409.241" height="242.221" fill="#455a64"/>
            </g>
          </g>
        </g>
        <g id="Group_434" data-name="Group 434" transform="translate(192.251 265.615)">
          <g id="Group_433" data-name="Group 433">
            <g id="Group_432" data-name="Group 432">
              <path id="Path_299" data-name="Path 299" d="M969.3,466.171l5.831,9.276h82.054l5.415-9.276Z" transform="translate(-969.302 -466.171)" fill="#455a64"/>
            </g>
          </g>
        </g>
      </g>
      <g id="Group_438" data-name="Group 438" transform="translate(43.429 27.526)">
        <g id="Group_437" data-name="Group 437">
          <g id="Group_436" data-name="Group 436">
            <rect id="Rectangle_13" data-name="Rectangle 13" width="376.787" height="225.998" fill="#fff"/>
          </g>
        </g>
      </g>
      <g id="Group_441" data-name="Group 441" transform="translate(53.191 35.51)">
        <g id="Group_440" data-name="Group 440">
          <g id="Group_439" data-name="Group 439">
            <path id="Path_300" data-name="Path 300" d="M893.175,332.9a3.161,3.161,0,1,1-3.162-3.162A3.162,3.162,0,0,1,893.175,332.9Z" transform="translate(-886.854 -329.742)" fill="#263238"/>
          </g>
        </g>
      </g>
      <g id="Group_444" data-name="Group 444" transform="translate(66.091 35.51)">
        <g id="Group_443" data-name="Group 443">
          <g id="Group_442" data-name="Group 442">
            <path id="Path_301" data-name="Path 301" d="M900.825,332.9a3.162,3.162,0,1,1-3.162-3.162A3.162,3.162,0,0,1,900.825,332.9Z" transform="translate(-894.502 -329.742)" fill="#263238"/>
          </g>
        </g>
      </g>
      <g id="Group_447" data-name="Group 447" transform="translate(78.992 35.51)">
        <g id="Group_446" data-name="Group 446">
          <g id="Group_445" data-name="Group 445">
            <path id="Path_302" data-name="Path 302" d="M908.474,332.9a3.162,3.162,0,1,1-3.162-3.162A3.163,3.163,0,0,1,908.474,332.9Z" transform="translate(-902.151 -329.742)" fill="#263238"/>
          </g>
        </g>
      </g>
      <g id="Group_450" data-name="Group 450" transform="translate(18.138 265.808)">
        <g id="Group_449" data-name="Group 449">
          <g id="Group_448" data-name="Group 448">
            <rect id="Rectangle_14" data-name="Rectangle 14" width="433.74" height="1.383" fill="#455a64"/>
          </g>
        </g>
      </g>
      <g id="Group_452" data-name="Group 452" transform="translate(142.887 156.264)">
        <g id="Group_451" data-name="Group 451">
          <path id="Path_303" data-name="Path 303" d="M1119.4,401.777c0,.243-40.157.439-89.679.439-49.541,0-89.688-.2-89.688-.439s40.147-.44,89.688-.44C1079.245,401.337,1119.4,401.534,1119.4,401.777Z" transform="translate(-940.035 -401.337)" fill="#263238"/>
        </g>
      </g>
      <g id="Group_454" data-name="Group 454" transform="translate(182.542 162.445)">
        <g id="Group_453" data-name="Group 453">
          <path id="Path_304" data-name="Path 304" d="M1059.641,405.44c0,.243-21.513.44-48.045.44s-48.05-.2-48.05-.44S985.055,405,1011.6,405,1059.641,405.2,1059.641,405.44Z" transform="translate(-963.546 -405.002)" fill="#263238"/>
        </g>
      </g>
      <g id="Group_463" data-name="Group 463" transform="translate(70.855 183.799)">
        <g id="Group_455" data-name="Group 455">
          <rect id="Rectangle_15" data-name="Rectangle 15" width="100.58" height="65.6" fill="#d9141c"/>
        </g>
        <g id="Group_456" data-name="Group 456" transform="translate(6.528 8.979)">
          <path id="Path_305" data-name="Path 305" d="M909.257,427.015a4.03,4.03,0,1,1-4.029-4.029A4.03,4.03,0,0,1,909.257,427.015Z" transform="translate(-901.197 -422.986)" fill="#fafafa"/>
        </g>
        <g id="Group_458" data-name="Group 458" transform="translate(88.634 6.842)">
          <g id="Group_457" data-name="Group 457">
            <path id="Path_306" data-name="Path 306" d="M956.368,431.277l-3.313-3.242-3.076,3.146-.1-9.395,6.387-.067Zm-3.316-3.65.1.1,2.914,2.855-.091-8.571-5.809.062.089,8.406Z" transform="translate(-949.878 -421.719)" fill="#fafafa"/>
          </g>
        </g>
        <g id="Group_460" data-name="Group 460" transform="translate(20.447 10.431)">
          <g id="Group_459" data-name="Group 459">
            <path id="Path_307" data-name="Path 307" d="M958.792,424.287c0,.243-11.046.439-24.67.439s-24.672-.2-24.672-.439,11.044-.44,24.672-.44S958.792,424.044,958.792,424.287Z" transform="translate(-909.45 -423.847)" fill="#fafafa"/>
          </g>
        </g>
        <g id="Group_462" data-name="Group 462" transform="translate(20.447 15.96)">
          <g id="Group_461" data-name="Group 461">
            <path id="Path_308" data-name="Path 308" d="M928.472,427.565c0,.243-4.259.439-9.511.439s-9.511-.2-9.511-.439,4.257-.44,9.511-.44S928.472,427.322,928.472,427.565Z" transform="translate(-909.45 -427.125)" fill="#fafafa"/>
          </g>
        </g>
      </g>
      <g id="Group_472" data-name="Group 472" transform="translate(182.281 183.799)">
        <g id="Group_464" data-name="Group 464">
          <rect id="Rectangle_16" data-name="Rectangle 16" width="100.58" height="65.6" fill="#2a2a2a"/>
        </g>
        <g id="Group_465" data-name="Group 465" transform="translate(6.528 8.979)">
          <path id="Path_309" data-name="Path 309" d="M975.32,427.015a4.029,4.029,0,1,1-4.029-4.029A4.03,4.03,0,0,1,975.32,427.015Z" transform="translate(-967.262 -422.986)" fill="#fafafa"/>
        </g>
        <g id="Group_467" data-name="Group 467" transform="translate(88.635 6.842)">
          <g id="Group_466" data-name="Group 466">
            <path id="Path_310" data-name="Path 310" d="M1022.431,431.277l-3.311-3.242-3.077,3.146-.1-9.395,6.387-.067Zm-3.316-3.65.1.1,2.916,2.855-.093-8.571-5.809.062.089,8.406Z" transform="translate(-1015.943 -421.719)" fill="#fafafa"/>
          </g>
        </g>
        <g id="Group_469" data-name="Group 469" transform="translate(20.448 10.431)">
          <g id="Group_468" data-name="Group 468">
            <path id="Path_311" data-name="Path 311" d="M1024.857,424.287c0,.243-11.047.439-24.67.439s-24.672-.2-24.672-.439,11.044-.44,24.672-.44S1024.857,424.044,1024.857,424.287Z" transform="translate(-975.515 -423.847)" fill="#fafafa"/>
          </g>
        </g>
        <g id="Group_471" data-name="Group 471" transform="translate(20.448 15.96)">
          <g id="Group_470" data-name="Group 470">
            <path id="Path_312" data-name="Path 312" d="M994.537,427.565c0,.243-4.259.439-9.511.439s-9.511-.2-9.511-.439,4.257-.44,9.511-.44S994.537,427.322,994.537,427.565Z" transform="translate(-975.515 -427.125)" fill="#fafafa"/>
          </g>
        </g>
      </g>
      <g id="Group_481" data-name="Group 481" transform="translate(293.5 183.799)">
        <g id="Group_473" data-name="Group 473">
          <rect id="Rectangle_17" data-name="Rectangle 17" width="100.58" height="65.6" fill="#d9141c"/>
        </g>
        <g id="Group_474" data-name="Group 474" transform="translate(6.528 8.979)">
          <path id="Path_313" data-name="Path 313" d="M1041.263,427.015a4.029,4.029,0,1,1-4.029-4.029A4.029,4.029,0,0,1,1041.263,427.015Z" transform="translate(-1033.204 -422.986)" fill="#fafafa"/>
        </g>
        <g id="Group_476" data-name="Group 476" transform="translate(88.635 6.842)">
          <g id="Group_475" data-name="Group 475">
            <path id="Path_314" data-name="Path 314" d="M1088.373,431.277l-3.311-3.242-3.077,3.146-.1-9.395,6.387-.067Zm-3.316-3.65.1.1,2.916,2.855-.093-8.571-5.809.062.089,8.406Z" transform="translate(-1081.885 -421.719)" fill="#fafafa"/>
          </g>
        </g>
        <g id="Group_478" data-name="Group 478" transform="translate(20.448 10.431)">
          <g id="Group_477" data-name="Group 477">
            <path id="Path_315" data-name="Path 315" d="M1090.8,424.287c0,.243-11.047.439-24.67.439s-24.672-.2-24.672-.439,11.044-.44,24.672-.44S1090.8,424.044,1090.8,424.287Z" transform="translate(-1041.457 -423.847)" fill="#fafafa"/>
          </g>
        </g>
        <g id="Group_480" data-name="Group 480" transform="translate(20.448 15.96)">
          <g id="Group_479" data-name="Group 479">
            <path id="Path_316" data-name="Path 316" d="M1060.479,427.565c0,.243-4.259.439-9.511.439s-9.511-.2-9.511-.439,4.257-.44,9.511-.44S1060.479,427.322,1060.479,427.565Z" transform="translate(-1041.457 -427.125)" fill="#fafafa"/>
          </g>
        </g>
      </g>
      <g id="Group_496" data-name="Group 496" transform="translate(43.429 49.116)">
        <g id="Group_482" data-name="Group 482">
          <path id="Path_317" data-name="Path 317" d="M970.13,347.252c-6.92,1.332-14.119-.106-21.083.96-13.915,2.132-24.346,13.618-37.149,19.469a48.321,48.321,0,0,1-30.831,2.82v36.557c14.006-7.173,30.28-10.867,45.8-11.337,29.192-.887,57.8,7.161,86.569,12.2s59.632,6.816,86-5.746c21.231-10.113,37.3-28.462,56.945-41.391,29.5-19.418,67.252-25.08,101.479-16.775v-6.2H982.52C980.8,342.582,975.426,346.232,970.13,347.252Zm63.179,8.2a14.9,14.9,0,1,1-14.9,14.9A14.9,14.9,0,0,1,1033.309,355.453Z" transform="translate(-881.066 -337.809)" fill="#d9141c"/>
        </g>
        <g id="Group_484" data-name="Group 484" transform="translate(0 2.489)">
          <g id="Group_483" data-name="Group 483">
            <path id="Path_318" data-name="Path 318" d="M1156.374,359.769c-19.642,12.93-35.714,31.278-56.945,41.391-26.367,12.562-57.23,10.783-86,5.746s-57.377-13.086-86.569-12.2c-15.515.471-31.79,4.164-45.8,11.337v23.321h376.787V342.994C1223.627,334.689,1185.872,340.351,1156.374,359.769Zm-97.611,58.713a1.483,1.483,0,1,1,1.483-1.483A1.484,1.484,0,0,1,1058.763,418.482Zm9.4,0a1.483,1.483,0,1,1,1.483-1.483A1.483,1.483,0,0,1,1068.166,418.482Zm9.4,0a1.483,1.483,0,1,1,1.483-1.483A1.484,1.484,0,0,1,1077.569,418.482Zm165.368-33.419a4.856,4.856,0,1,1,0,6.868A4.855,4.855,0,0,1,1242.937,385.063Z" transform="translate(-881.066 -339.285)" fill="#e8505b"/>
          </g>
        </g>
        <g id="Group_485" data-name="Group 485" transform="translate(176.215 78.721)">
          <path id="Path_319" data-name="Path 319" d="M987.026,384.483a1.483,1.483,0,1,0,1.483,1.483A1.483,1.483,0,0,0,987.026,384.483Z" transform="translate(-985.544 -384.483)" fill="#263238"/>
        </g>
        <g id="Group_486" data-name="Group 486" transform="translate(185.618 78.721)">
          <circle id="Ellipse_13" data-name="Ellipse 13" cx="1.483" cy="1.483" r="1.483" fill="#263238"/>
        </g>
        <g id="Group_487" data-name="Group 487" transform="translate(195.02 78.721)">
          <circle id="Ellipse_14" data-name="Ellipse 14" cx="1.483" cy="1.483" r="1.483" fill="#263238"/>
        </g>
        <g id="Group_488" data-name="Group 488">
          <path id="Path_320" data-name="Path 320" d="M911.9,367.681c12.8-5.851,23.235-17.337,37.149-19.469,6.964-1.066,14.163.373,21.083-.96,5.3-1.02,10.673-4.67,12.39-9.443H881.066V370.5A48.321,48.321,0,0,0,911.9,367.681Z" transform="translate(-881.066 -337.809)" fill="#e8505b"/>
        </g>
        <g id="Group_490" data-name="Group 490" opacity="0.3">
          <g id="Group_489" data-name="Group 489">
            <path id="Path_321" data-name="Path 321" d="M911.9,367.681c12.8-5.851,23.235-17.337,37.149-19.469,6.964-1.066,14.163.373,21.083-.96,5.3-1.02,10.673-4.67,12.39-9.443H881.066V370.5A48.321,48.321,0,0,0,911.9,367.681Z" transform="translate(-881.066 -337.809)" fill="#d9141c"/>
          </g>
        </g>
        <g id="Group_491" data-name="Group 491" transform="translate(131.166 11.471)">
          <circle id="Ellipse_15" data-name="Ellipse 15" cx="14.903" cy="14.903" r="14.903" transform="translate(0 21.076) rotate(-45)" fill="#e8505b"/>
        </g>
        <g id="Group_492" data-name="Group 492" transform="translate(131.166 11.471)" opacity="0.3">
          <circle id="Ellipse_16" data-name="Ellipse 16" cx="14.903" cy="14.903" r="14.903" transform="translate(0 21.076) rotate(-45)" fill="#e33d47"/>
        </g>
        <g id="Group_493" data-name="Group 493" transform="translate(360.448 46.844)">
          <circle id="Ellipse_17" data-name="Ellipse 17" cx="4.857" cy="4.857" r="4.857" fill="#e8505b"/>
        </g>
        <g id="Group_495" data-name="Group 495" transform="translate(0 2.489)" opacity="0.3">
          <g id="Group_494" data-name="Group 494">
            <path id="Path_322" data-name="Path 322" d="M1156.374,359.769c-19.642,12.93-35.714,31.278-56.945,41.391-26.367,12.562-57.23,10.783-86,5.746s-57.377-13.086-86.569-12.2c-15.515.471-31.79,4.164-45.8,11.337v23.321h376.787V342.994C1223.627,334.689,1185.872,340.351,1156.374,359.769Zm-97.611,58.713a1.483,1.483,0,1,1,1.483-1.483A1.484,1.484,0,0,1,1058.763,418.482Zm9.4,0a1.483,1.483,0,1,1,1.483-1.483A1.483,1.483,0,0,1,1068.166,418.482Zm9.4,0a1.483,1.483,0,1,1,1.483-1.483A1.484,1.484,0,0,1,1077.569,418.482Zm165.368-33.419a4.856,4.856,0,1,1,0,6.868A4.855,4.855,0,0,1,1242.937,385.063Z" transform="translate(-881.066 -339.285)" fill="#d9141c"/>
          </g>
        </g>
      </g>
      <g id="Group_499" data-name="Group 499" transform="translate(405.557 214.469)">
        <g id="Group_498" data-name="Group 498">
          <g id="Group_497" data-name="Group 497">
            <path id="Path_323" data-name="Path 323" d="M1095.773,444.248a10.166,10.166,0,0,1,1.387-1.28c.884-.759,2.122-1.788,3.506-2.913l-.005.27-.068-.061c-1.363-1.182-2.584-2.268-3.456-3.068a10.3,10.3,0,0,1-1.365-1.348,10.369,10.369,0,0,1,1.526,1.162c.914.751,2.161,1.806,3.523,2.989l.069.061.157.137-.162.132c-1.386,1.123-2.648,2.122-3.574,2.83A9.985,9.985,0,0,1,1095.773,444.248Z" transform="translate(-1095.772 -435.847)" fill="#263238"/>
          </g>
        </g>
      </g>
      <g id="Group_502" data-name="Group 502" transform="translate(54.541 214.468)">
        <g id="Group_501" data-name="Group 501">
          <g id="Group_500" data-name="Group 500">
            <path id="Path_324" data-name="Path 324" d="M892.93,435.849a10.1,10.1,0,0,1-1.386,1.282c-.884.759-2.122,1.788-3.506,2.913l0-.27.069.061c1.363,1.182,2.584,2.269,3.456,3.068a10.434,10.434,0,0,1,1.365,1.348,10.38,10.38,0,0,1-1.526-1.162c-.914-.751-2.161-1.806-3.523-2.989l-.069-.061-.157-.137.162-.132c1.385-1.123,2.648-2.122,3.572-2.83A10.213,10.213,0,0,1,892.93,435.849Z" transform="translate(-887.654 -435.847)" fill="#263238"/>
          </g>
        </g>
      </g>
    </g>
  </g>
</svg>
