<svg xmlns="http://www.w3.org/2000/svg" width="59.956" height="59.896" viewBox="0 0 59.956 59.896">
  <g id="Group_4051" data-name="Group 4051" transform="translate(-58.427 -59.429)">
    <path id="Path_14021" data-name="Path 14021" d="M300.058,400.472c-.031-.121-.142-.109-.229-.141a2.338,2.338,0,0,1,.821-4.58,58.226,58.226,0,0,0,5.84-.3,37.506,37.506,0,0,0,10.735-2.637,2.314,2.314,0,0,1,3.32,2.258,2.257,2.257,0,0,1-1.459,2.017,37.433,37.433,0,0,1-8.777,2.56,52.163,52.163,0,0,1-6.447.7c-.106.005-.242-.042-.29.117h-.937a3.277,3.277,0,0,0-.968-.06,7.708,7.708,0,0,0-1.491.06Z" transform="translate(-202.277 -281.159)" fill="#dd1928"/>
    <path id="Path_14022" data-name="Path 14022" d="M58.438,328.25a12.656,12.656,0,0,1,.466,2.31,20,20,0,0,0,16.522,15.351,4.6,4.6,0,0,1,1.513.255q-9.016,0-18.032.011c-.4,0-.481-.079-.48-.48Q58.452,336.973,58.438,328.25Z" transform="translate(0 -226.852)" fill="#fefefe"/>
    <path id="Path_14023" data-name="Path 14023" d="M311.25,442.264c.494-.257,1.017-.065,1.526-.1q.053.035.034.067c-.012.021-.025.032-.037.032Z" transform="translate(-213.352 -322.951)" fill="#828cdc"/>
    <path id="Path_14024" data-name="Path 14024" d="M321,442.286c0-.033,0-.066,0-.1.311.035.645-.15.933.1Z" transform="translate(-221.579 -322.972)" fill="#969fe1"/>
    <path id="Path_14025" data-name="Path 14025" d="M180,442.3c.207-.229.463-.084.7-.094.04.019.054.04.042.061s-.025.033-.038.033Z" transform="translate(-102.593 -322.983)" fill="#98a1e2"/>
    <path id="Path_14026" data-name="Path 14026" d="M184.481,442.3q0-.047,0-.094c.238.012.5-.134.706.094Z" transform="translate(-106.372 -322.989)" fill="#8892de"/>
    <path id="Path_14027" data-name="Path 14027" d="M58.6,322.8c0,.123.076.268-.1.34v-.351C58.54,322.738,58.573,322.739,58.6,322.8Z" transform="translate(-0.062 -222.213)" fill="#7c86da"/>
    <path id="Path_14028" data-name="Path 14028" d="M58.5,305.75c.121.036.11.132.1.227-.029.061-.063.061-.1.008Z" transform="translate(-0.062 -207.865)" fill="#7f89dc"/>
    <path id="Path_14029" data-name="Path 14029" d="M58.5,307.209l.1-.008a.2.2,0,0,1-.1.242Z" transform="translate(-0.062 -209.089)" fill="#5a68d2"/>
    <path id="Path_14030" data-name="Path 14030" d="M58.6,321.745l-.1-.011V321.5A.2.2,0,0,1,58.6,321.745Z" transform="translate(-0.062 -221.156)" fill="#505fcf"/>
    <path id="Path_14031" data-name="Path 14031" d="M319.37,198.191a7.958,7.958,0,0,1-1.4.021,2.347,2.347,0,0,1-1.966-2.4,2.31,2.31,0,0,1,2.219-2.223,45.233,45.233,0,0,0,10.883-1.735,30.606,30.606,0,0,0,3.124-1.143A2.342,2.342,0,1,1,334.085,195a39.827,39.827,0,0,1-10.639,2.811C322.093,197.995,320.736,198.138,319.37,198.191Z" transform="translate(-217.361 -110.586)" fill="#dd1928"/>
    <path id="Path_14032" data-name="Path 14032" d="M348.951,325.9a2.328,2.328,0,0,1,1,4.459,32.457,32.457,0,0,1-5.457,1.867,48.59,48.59,0,0,1-7.359,1.257,2.353,2.353,0,0,1-2.52-2.16,2.327,2.327,0,0,1,2.059-2.484,45.056,45.056,0,0,0,7.571-1.388,29.234,29.234,0,0,0,3.572-1.262A2.42,2.42,0,0,1,348.951,325.9Z" transform="translate(-233.064 -224.867)" fill="#dd1928"/>
    <path id="Path_14033" data-name="Path 14033" d="M341.762,265.99a2.372,2.372,0,0,1-2.555-2.161,2.281,2.281,0,0,1,1.9-2.436c1.672-.271,3.356-.466,5.01-.84A35.2,35.2,0,0,0,352,258.664a2.283,2.283,0,0,1,2.761.773,2.336,2.336,0,0,1-.086,2.874,2.615,2.615,0,0,1-1.043.728,40.283,40.283,0,0,1-10.812,2.821C342.416,265.913,342.01,265.959,341.762,265.99Z" transform="translate(-236.935 -167.973)" fill="#dd1928"/>
    <path id="Path_14034" data-name="Path 14034" d="M97.815,204.007a19.878,19.878,0,0,0-38.99.529,3.549,3.549,0,0,1-.325,1.5v.586c.072.065.058.152.06.234s.012.17-.06.234v1.991c.079.072.055.168.06.258-.012.111.035.232-.06.328v.468c.162.642.1,1.308.24,1.957a19.839,19.839,0,0,0,5.227,9.9,20.211,20.211,0,0,0,9.186,5.468,20.977,20.977,0,0,0,3.848.593h.468c.225-.127.47-.03.7-.06.233.031.477-.066.7.06h.7a10.9,10.9,0,0,1,2.089-.33A19.921,19.921,0,0,0,97.815,204.007ZM80.544,223.152a12.982,12.982,0,0,1-4.362-.033,7.954,7.954,0,0,1-2.3-1.575,17.705,17.705,0,0,1-1.933-24.912,18.439,18.439,0,0,1,3.324-3.01,3.1,3.1,0,0,1,1.263-.566,15.182,15.182,0,0,1,4.011,30.1Z" transform="translate(-0.062 -108.735)" fill="#dd1928"/>
    <path id="Path_14035" data-name="Path 14035" d="M101.95,218.861a15.455,15.455,0,0,0-4.77,4.029,17.153,17.153,0,0,0-3.606,7.8,17.38,17.38,0,0,0,1.259,10.472,17.7,17.7,0,0,0,4.511,6.025c.707.628,1.5,1.159,2.256,1.734a12.852,12.852,0,0,1-5.816-2.1c-5.387-3.578-7.8-8.629-7.02-15.047a15.065,15.065,0,0,1,11.126-12.528A10.305,10.305,0,0,1,101.95,218.861Z" transform="translate(-25.479 -134.541)" fill="#ebebeb"/>
    <path id="Path_14036" data-name="Path 14036" d="M230.595,63.965a14.566,14.566,0,0,0-5.324-2.836,39.421,39.421,0,0,0-13.738-1.665A35.183,35.183,0,0,0,201.2,61.232a13.4,13.4,0,0,0-5.631,3.315,5.171,5.171,0,0,0-.254,7.2,11.992,11.992,0,0,0,5.348,3.425,35.674,35.674,0,0,0,11.888,2A42.763,42.763,0,0,0,223.038,76.1,18.284,18.284,0,0,0,230.155,73a5.989,5.989,0,0,0,2.613-4.442A5.606,5.606,0,0,0,230.595,63.965Zm-2.907,5a8.608,8.608,0,0,1-3.066,1.768,30.382,30.382,0,0,1-9.505,1.732,38.555,38.555,0,0,1-7.3-.349,3.223,3.223,0,0,1-.337-.086,7.976,7.976,0,0,1-2.891-1.43,2.819,2.819,0,0,1-1.346-2.557,3.068,3.068,0,0,1,1.492-2.129,7.54,7.54,0,0,1,2.872-1.377,37.951,37.951,0,0,1,10.263-.191,25.586,25.586,0,0,1,7.2,1.7,7.866,7.866,0,0,1,2.628,1.6C228.225,68.173,228.227,68.439,227.688,68.964Z" transform="translate(-114.394 0)" fill="#dd1928"/>
    <path id="Path_14037" data-name="Path 14037" d="M233.063,92.134a14.88,14.88,0,0,0-2.8,1.5,2.5,2.5,0,0,0-.1,4.461,17.64,17.64,0,0,0,2.781,1.53,17.811,17.811,0,0,1-7.783-2.562c-1.349-.9-1.338-1.428,0-2.355a15.2,15.2,0,0,1,5.329-2.117A16.275,16.275,0,0,1,233.063,92.134Z" transform="translate(-139.847 -27.599)" fill="#ebebeb"/>
    <path id="Path_14038" data-name="Path 14038" d="M143.943,258.149a2.3,2.3,0,0,1,3.047-2.19,17.636,17.636,0,0,0,3.678.9,1.986,1.986,0,0,0,.808-.051,1.114,1.114,0,0,0,.85-1.007,1.048,1.048,0,0,0-.658-1.016,5.36,5.36,0,0,0-2.176-.323,6.228,6.228,0,0,1-5.3-4.484,5.819,5.819,0,0,1,3.748-6.779.717.717,0,0,0,.594-.709,2.269,2.269,0,0,1,2.2-1.974,2.24,2.24,0,0,1,2.338,1.867c.083.729.338,1.109,1.077,1.207a3.967,3.967,0,0,1,1.042.373,2.331,2.331,0,0,1-1.7,4.341,15.545,15.545,0,0,0-2.469-.7,5.747,5.747,0,0,0-1.165-.065,1.125,1.125,0,0,0-1.1.879.984.984,0,0,0,.612,1.136,3.992,3.992,0,0,0,1.7.331,6.08,6.08,0,0,1,5.223,3.138,5.722,5.722,0,0,1-2.65,7.951.716.716,0,0,0-.486.676,2.381,2.381,0,0,1-2.279,2.254,2.2,2.2,0,0,1-2.265-1.737c-.088-.916-.566-1.052-1.265-1.205a12.419,12.419,0,0,1-1.938-.641A2.223,2.223,0,0,1,143.943,258.149Z" transform="translate(-72.165 -152.815)" fill="#2a2a2a"/>
  </g>
</svg>
