<svg xmlns="http://www.w3.org/2000/svg" width="24" height="24" viewBox="0 0 24 24">
  <g id="control" transform="translate(-428 -190)">
    <g id="setting-4">
      <path id="Vector" d="M6.75,1.5h-6A.755.755,0,0,1,0,.75.755.755,0,0,1,.75,0h6A.755.755,0,0,1,7.5.75.755.755,0,0,1,6.75,1.5Z" transform="translate(443.25 195.75)" fill="#292d32"/>
      <path id="Vector-2" data-name="Vector" d="M4.75,1.5h-4A.755.755,0,0,1,0,.75.755.755,0,0,1,.75,0h4A.755.755,0,0,1,5.5.75.755.755,0,0,1,4.75,1.5Z" transform="translate(429.25 195.75)" fill="#dd1928"/>
      <path id="Vector-3" data-name="Vector" d="M4.25,8.5A4.25,4.25,0,1,1,8.5,4.25,4.259,4.259,0,0,1,4.25,8.5Zm0-7A2.75,2.75,0,1,0,7,4.25,2.748,2.748,0,0,0,4.25,1.5Z" transform="translate(433.75 192.25)" fill="#dd1928"/>
      <path id="Vector-4" data-name="Vector" d="M4.75,1.5h-4A.755.755,0,0,1,0,.75.755.755,0,0,1,.75,0h4A.755.755,0,0,1,5.5.75.755.755,0,0,1,4.75,1.5Z" transform="translate(445.25 206.75)" fill="#dd1928"/>
      <path id="Vector-5" data-name="Vector" d="M6.75,1.5h-6A.755.755,0,0,1,0,.75.755.755,0,0,1,.75,0h6A.755.755,0,0,1,7.5.75.755.755,0,0,1,6.75,1.5Z" transform="translate(429.25 206.75)" fill="#292d32"/>
      <path id="Vector-6" data-name="Vector" d="M4.25,8.5A4.25,4.25,0,1,1,8.5,4.25,4.259,4.259,0,0,1,4.25,8.5Zm0-7A2.75,2.75,0,1,0,7,4.25,2.748,2.748,0,0,0,4.25,1.5Z" transform="translate(437.75 203.25)" fill="#dd1928"/>
      <path id="Vector-7" data-name="Vector" d="M0,0H24V24H0Z" transform="translate(428 190)" fill="none" opacity="0"/>
    </g>
  </g>
</svg>
