<svg xmlns="http://www.w3.org/2000/svg" width="23.172" height="30.477" viewBox="0 0 23.172 30.477">
  <g id="Flexibility" transform="translate(-99.444 -57.553)">
    <path id="Path_28020" data-name="Path 28020" d="M118.643,255.857a1.826,1.826,0,0,1-.368-.495c-.1-.321.2-.624.577-.631.47-.008.939,0,1.409,0a.951.951,0,0,0,.977-.983q.006-4.255,0-8.51c0-.037-.006-.073-.013-.151h-.3c-.921,0-1.841,0-2.762,0a.617.617,0,0,1-.617-.307.606.606,0,0,1,.074-.659,1.5,1.5,0,0,0-2.21-1.99,1.478,1.478,0,0,0-.293,1.98.618.618,0,0,1,.072.684.63.63,0,0,1-.626.292c-.976-.006-1.953,0-2.971,0v.309c0,.874,0,1.747,0,2.621,0,.288-.027.549-.32.692a.666.666,0,0,1-.726-.143,1.5,1.5,0,1,0-.029,2.408,1.453,1.453,0,0,1,.355-.221.569.569,0,0,1,.716.6c0,1.014,0,2.029,0,3.043v.337h1.787c.131,0,.263,0,.395,0a.565.565,0,0,1,.6.412.548.548,0,0,1-.272.647c-.03.02-.056.045-.083.067H101.445c-.06-.022-.118-.048-.18-.065a2.081,2.081,0,0,1-1.569-2.029q-.009-4.581,0-9.162c0-.458.214-.645.723-.645h13.387a2.656,2.656,0,0,1,.844-2.647,2.525,2.525,0,0,1,1.919-.658,2.661,2.661,0,0,1,2.371,3.3h.305c.827,0,1.654,0,2.481,0a.566.566,0,0,1,.639.644q0,4.581,0,9.162a2.079,2.079,0,0,1-1.569,2.028c-.061.017-.12.043-.179.065Zm-17.821-10.763v.3q0,4.1,0,8.2c0,.77.364,1.13,1.144,1.13h8.48v-2.456a2.615,2.615,0,0,1-2.955-1.028,2.414,2.414,0,0,1-.13-2.785,2.6,2.6,0,0,1,3.089-1.243v-2.124Z" transform="translate(0 -168.077)" fill="#dd1928" stroke="#dd1928" stroke-width="0.5"/>
    <path id="Path_28021" data-name="Path 28021" d="M314.286,429.247c-.055-.034-.112-.064-.165-.1a.531.531,0,0,1-.229-.634.517.517,0,0,1,.527-.383.51.51,0,0,1,.531.376.541.541,0,0,1-.215.642c-.053.037-.111.067-.167.1Z" transform="translate(-198.068 -341.467)" fill="#dd1928"/>
    <path id="Path_28022" data-name="Path 28022" d="M147.33,72.471a2.611,2.611,0,0,1-3,1.328,2.454,2.454,0,0,1-1.947-2.035,2.606,2.606,0,0,1,1.36-2.876c-.062-.069-.118-.138-.18-.2-.577-.579-1.157-1.155-1.733-1.734a.592.592,0,0,1,0-.991q3.187-3.189,6.377-6.376a2.086,2.086,0,0,1,3.085,0q3.194,3.182,6.377,6.375a.6.6,0,0,1,0,.993c-.822.825-1.648,1.646-2.469,2.473a.618.618,0,0,1-.65.229.629.629,0,0,1-.424-.542A1.5,1.5,0,1,0,152.35,70.9a.591.591,0,0,1,.31,1.076c-.807.8-1.607,1.607-2.413,2.409a.6.6,0,0,1-.991-.007q-.859-.854-1.716-1.712C147.476,72.6,147.406,72.541,147.33,72.471Zm9.2-6.045c-.032-.034-.08-.09-.132-.141q-2.929-2.93-5.858-5.858a.989.989,0,0,0-1.589.012l-5.839,5.837c-.057.057-.108.119-.168.186.079.083.142.152.208.218q1.016,1.017,2.033,2.032a.579.579,0,0,1-.36,1.034,1.466,1.466,0,0,0-.382.087,1.492,1.492,0,0,0-.974,1.651,1.525,1.525,0,0,0,1.493,1.282,1.5,1.5,0,0,0,1.5-1.337.593.593,0,0,1,1.09-.355c.387.4.784.784,1.174,1.178.335.338.667.68.955.974l1.561-1.563a2.659,2.659,0,0,1-.615-3.91,2.515,2.515,0,0,1,1.735-.942,2.623,2.623,0,0,1,2.559,1.236Z" transform="translate(-38.723 -1)" stroke="#000" stroke-width="0.5"/>
  </g>
</svg>
