<svg xmlns="http://www.w3.org/2000/svg" width="24" height="24" viewBox="0 0 24 24">
  <g id="quality" transform="translate(-492 -188)">
    <g id="ranking" transform="translate(492 188)">
      <path id="Vector" d="M12.481,16.432a3.2,3.2,0,0,1-1.639-.531L8.6,14.568a.9.9,0,0,0-.719,0L5.648,15.9c-1.419.842-2.278.491-2.658.21s-.979-1-.609-2.605l.53-2.315a.938.938,0,0,0-.19-.661L.862,8.667A2.235,2.235,0,0,1,.082,6.352,2.23,2.23,0,0,1,2.051,4.92l2.388-.4a.893.893,0,0,0,.51-.381L6.267,1.493A2.244,2.244,0,0,1,8.235,0,2.226,2.226,0,0,1,10.2,1.493l1.319,2.645a.963.963,0,0,0,.51.381l2.388.4a2.215,2.215,0,0,1,1.968,1.433,2.235,2.235,0,0,1-.779,2.315L13.75,10.531a.924.924,0,0,0-.19.661l.53,2.3c.37,1.613-.22,2.325-.609,2.605A1.506,1.506,0,0,1,12.481,16.432ZM8.245,13a2.211,2.211,0,0,1,1.119.281L11.6,14.608c.589.351.939.351,1.009.291s.18-.391.03-1.052l-.53-2.3A2.376,2.376,0,0,1,12.7,9.488L14.56,7.625c.37-.371.45-.661.41-.792s-.27-.321-.789-.4l-2.388-.4a2.388,2.388,0,0,1-1.609-1.192L8.865,2.194c-.23-.451-.48-.661-.629-.661s-.4.2-.629.661L6.287,4.839A2.388,2.388,0,0,1,4.678,6.032l-2.388.4c-.52.09-.749.271-.789.4s.04.421.41.792L3.769,9.488a2.385,2.385,0,0,1,.589,2.054l-.53,2.315c-.15.671-.05,1,.03,1.052s.43.06,1.009-.291l2.238-1.333A2.348,2.348,0,0,1,8.245,13Z" transform="translate(3.755 6.235)" fill="#dd1928"/>
      <path id="Vector-2" data-name="Vector" d="M.751,8.517A.757.757,0,0,1,0,7.765V.751A.757.757,0,0,1,.751,0,.757.757,0,0,1,1.5.751V7.765A.757.757,0,0,1,.751,8.517Z" transform="translate(5.249 1.252)" fill="#2a2a2a"/>
      <path id="Vector-3" data-name="Vector" d="M.751,8.517A.757.757,0,0,1,0,7.765V.751A.757.757,0,0,1,.751,0,.757.757,0,0,1,1.5.751V7.765A.757.757,0,0,1,.751,8.517Z" transform="translate(17.248 1.252)" fill="#2a2a2a"/>
      <path id="Vector-4" data-name="Vector" d="M.751,3.507A.757.757,0,0,1,0,2.755v-2A.757.757,0,0,1,.751,0,.757.757,0,0,1,1.5.751v2A.757.757,0,0,1,.751,3.507Z" transform="translate(11.249 1.252)" fill="#2a2a2a"/>
      <path id="Vector-5" data-name="Vector" d="M0,0H24V24H0Z" fill="none" opacity="0"/>
    </g>
  </g>
</svg>
