<svg xmlns="http://www.w3.org/2000/svg" xmlns:xlink="http://www.w3.org/1999/xlink" width="614" height="614" viewBox="0 0 614 614">
  <defs>
    <filter id="Ellipse_489" x="0" y="0" width="614" height="614" filterUnits="userSpaceOnUse">
      <feOffset dy="3" input="SourceAlpha"/>
      <feGaussianBlur stdDeviation="7" result="blur"/>
      <feFlood flood-color="#ffcfcf" flood-opacity="0.012"/>
      <feComposite operator="in" in2="blur"/>
      <feComposite in="SourceGraphic"/>
    </filter>
  </defs>
  <g id="ai_2" data-name="ai 2" transform="translate(-2002 7302)">
    <g id="ionic_2" data-name="ionic 2" transform="translate(-306 -1365)">
      <g id="yii_2" data-name="yii 2" transform="translate(-1813 -893)">
        <g id="Kotlin_2" data-name="Kotlin 2" transform="translate(1485 -625)">
          <g id="magento_2" data-name="magento 2" transform="translate(65 -1543)">
            <g id="django_2" data-name="django 2" transform="translate(-945 -1191)">
              <g id="symfony_2" data-name="symfony 2" transform="translate(-545.879 -694.879)">
                <g id="ruby-on-rails_2" data-name="ruby-on-rails 2" transform="translate(4083 -972)">
                  <g id="django_2-2" data-name="django 2">
                    <g id="codeigniter_2" data-name="codeigniter 2">
                      <g id="react-native_2" data-name="react-native 2">
                        <g id="laraval_2" data-name="laraval 2">
                          <g transform="matrix(1, 0, 0, 1, -21.12, -18.12)" filter="url(#Ellipse_489)">
                            <circle id="Ellipse_489-2" data-name="Ellipse 489" cx="286" cy="286" r="286" transform="translate(21 18)" fill="#f8f7f7"/>
                          </g>
                          <circle id="Ellipse_488" data-name="Ellipse 488" cx="235" cy="235" r="235" transform="translate(50.879 50.879)" fill="#f3f3f3"/>
                          <circle id="Ellipse_487" data-name="Ellipse 487" cx="182" cy="182" r="182" transform="translate(103.879 103.879)" fill="#eee"/>
                          <path id="Path_19249" data-name="Path 19249" d="M120.818,0A120.818,120.818,0,1,1,0,120.818,120.818,120.818,0,0,1,120.818,0Z" transform="translate(165.061 165.061)" fill="#e9e9e9"/>
                        </g>
                      </g>
                    </g>
                  </g>
                </g>
              </g>
            </g>
          </g>
        </g>
      </g>
    </g>
    <g id="Group_21" data-name="Group 21" transform="translate(2529.526 -7376.314)">
      <path id="Path_43" data-name="Path 43" d="M-324.142,326.252c-6.224-6.2-12.647-12.58-19.048-18.981-3.585-3.585-3.58-5.6.015-9.194q20.05-20.064,40.118-40.112c3.472-3.468,5.555-3.492,8.985-.064,6.406,6.4,12.785,12.832,19.071,19.147,6.122-2.36,12.077-4.587,17.945-7.022.618-.256,1.016-1.738,1.024-2.656.078-8.272.033-16.546.051-24.819.009-4.451,1.6-6.046,6.047-6.056q12.853-.027,25.706,0c4.446.009,6.055,1.608,6.06,6.048q.021,23.639.006,47.277V293l18.9,3.191c0-10.34.049-20.668-.1-30.993-.011-.766-1.337-1.667-2.224-2.24-5.1-3.293-7.718-7.927-6.982-13.96A13.379,13.379,0,0,1-198.5,237.123c5.867-1.74,10.941-.05,14.879,4.566a13.962,13.962,0,0,1-4.042,21.289,3.476,3.476,0,0,0-2.18,3.582q.144,15.511.009,31.024a3.2,3.2,0,0,0,2.088,3.328c5.615,2.963,11.1,6.179,16.861,9.429,0-6.408.2-12.87-.073-19.312-.173-4.038,1.284-6.407,4.992-7.973a128.819,128.819,0,0,0,12.123-6.086,4.879,4.879,0,0,0,1.8-2.838c.307-1.1-.022-2.353.085-3.525.351-3.827-.114-6.7-4.081-9.153-5.364-3.313-6.684-10.259-4.332-16.07a14.209,14.209,0,0,1,14.307-8.855,14.286,14.286,0,0,1,12.717,11.394,13.88,13.88,0,0,1-6.966,15,3.564,3.564,0,0,0-2.246,3.846c.141,3.639-.066,7.29.074,10.929.118,3.065-1.157,4.95-3.915,6.234q-6.683,3.111-13.161,6.652a3.932,3.932,0,0,0-1.788,2.81c-.143,8.074-.133,16.152-.02,24.227a5.579,5.579,0,0,0,1.333,3.339,84.785,84.785,0,0,1,14.644,22.392c.673,1.537,1.634,1.712,3.126,1.957,4.687.772,7.467-.873,9.062-5.425,1.162-3.315,3.2-6.313,4.636-9.545,1.282-2.88,3.236-4.206,6.441-4.059,3.735.172,7.485-.024,11.226.071a3,3,0,0,0,3.194-1.84,13.815,13.815,0,0,1,15.918-7.172,14.141,14.141,0,0,1,10.724,13.846,14.146,14.146,0,0,1-10.7,13.564A13.812,13.812,0,0,1-107.7,337.6a2.951,2.951,0,0,0-3.184-1.853c-3.228.166-7.086-.875-9.514.561-2.3,1.359-3.111,5.245-4.551,8.033-1.129,2.184-2.314,4.347-3.3,6.6a5.66,5.66,0,0,1-6.012,3.77c-2.148-.11-4.306-.021-6.5-.021l3.183,18.907c9.2,0,18.442.054,27.687-.1.785-.013,1.76-1.251,2.287-2.135a14.237,14.237,0,0,1,15.938-6.717A14.164,14.164,0,0,1-81.064,378a14.227,14.227,0,0,1-10.249,13.929,13.867,13.867,0,0,1-16.158-6.64,3.662,3.662,0,0,0-3.83-2.278c-8.755.106-17.512.047-26.269.047l-3.192,18.913c2.335,0,4.685.046,7.031-.013a5.185,5.185,0,0,1,5.184,3.17c2.219,4.5,4.573,8.934,6.672,13.488.835,1.812,1.891,2.589,3.836,2.282a8.617,8.617,0,0,1,2.065-.008c4.172.362,7.477.054,10.215-4.351,3.3-5.31,10.387-6.41,16.161-3.921a14.291,14.291,0,0,1,8.5,14.255,14.272,14.272,0,0,1-11.189,12.576,13.731,13.731,0,0,1-15.081-6.733,4,4,0,0,0-4.347-2.422c-3.737.153-7.484.009-11.227.054a5.241,5.241,0,0,1-5.182-3.182c-2.214-4.5-4.57-8.936-6.667-13.49-.838-1.82-1.983-2.107-3.831-2.349-4.34-.568-6.306,1.171-8.406,5.027-3.64,6.688-8.51,12.7-12.756,19.068a8.359,8.359,0,0,0-1.57,4.136c-.151,7.777-.024,15.56-.11,23.34a3.153,3.153,0,0,0,2.046,3.4c4.541,2.125,8.977,4.475,13.491,6.66a5.483,5.483,0,0,1,3.429,5.634c-.084,1.966.1,3.948-.039,5.908-.333,4.559-.088,8.241,4.692,11.252,5.138,3.235,6.045,10.42,3.541,16a14.312,14.312,0,0,1-14.345,8.357,14.242,14.242,0,0,1-12.394-11.026,13.589,13.589,0,0,1,6.33-14.973c2.172-1.25,2.543-2.686,2.877-5.02.935-6.526-1.307-10.484-7.689-12.423-2.784-.846-5.288-2.59-7.954-3.853a5.547,5.547,0,0,1-3.429-5.635c.09-6.006.028-12.015.028-18.023v-2.959c-5.214,3.04-10.034,6.267-15.221,8.714-3,1.415-3.848,2.993-3.774,6.167.228,9.746.113,19.5.053,29.25a3.032,3.032,0,0,0,1.843,3.19,13.807,13.807,0,0,1,7.163,15.921,14.149,14.149,0,0,1-13.554,10.722,14.146,14.146,0,0,1-13.857-10.711c-1.642-6.35,1.147-12.521,7.109-16.018.784-.46,1.779-1.454,1.788-2.21.118-10.23.08-20.461.08-30.76l-18.91,3.192v3.128q0,23.49,0,46.98c0,4.858-1.519,6.4-6.3,6.406q-12.705.018-25.411,0c-4.465-.009-6.09-1.605-6.1-6.008q-.031-12.41.006-24.82c0-1.437-.028-2.472-1.819-3.109-5.64-2-11.176-4.3-17.109-6.624-5.571,5.569-11.409,11.4-17.247,17.241-.767.766-1.518,1.546-2.3,2.3-2.967,2.853-5.246,2.89-8.153,0q-10.483-10.41-20.9-20.883-9.82-9.82-19.636-19.642c-3.619-3.628-3.639-5.631-.087-9.2,5.839-5.861,11.658-11.744,17.573-17.527,1.3-1.274,1.608-2.184.784-3.983-2.127-4.638-4.008-9.4-5.738-14.2a2.945,2.945,0,0,0-3.368-2.331c-6.7.114-13.394.062-20.092.039-4.258-.016-5.923-1.655-5.926-5.883q-.026-27.183,0-54.368c0-4.264,1.645-5.911,5.876-5.927,6.7-.026,13.4-.067,20.092.032,1.819.027,2.739-.4,3.4-2.276C-328.662,337.456-326.4,332.022-324.142,326.252Zm26.007,163.2c6.094-6.1,12.27-12.312,18.475-18.491,2.6-2.591,3.988-2.58,7.374-1.132,6.945,2.97,13.947,5.819,21.009,8.5,3.705,1.405,4.737,2.438,4.743,6.385.013,7.681,0,15.362.01,23.042,0,.943.084,1.885.128,2.812h18.636V463.339c-21.7-1.592-40.415-9.849-55.681-25.351A82.8,82.8,0,0,1-307.9,381.657a81.811,81.811,0,0,1,16.148-53.191c15.85-21.532,37.45-33,63.944-35.219V246.169H-246.53c0,8.784.01,17.344,0,25.9-.007,3.769-1.065,4.858-4.588,6.2q-10.587,4.033-21.013,8.485c-3.553,1.526-4.893,1.554-7.619-1.157q-8.378-8.334-16.717-16.707c-.664-.663-1.37-1.285-1.573-1.475l-35.832,35.846c5.927,5.9,12.107,12.105,18.344,18.248,2.05,2.02,2.663,4.057,1.452,6.877q-4.762,11.085-9.093,22.353c-1.032,2.678-2.64,3.977-5.477,3.957-5.416-.039-10.832-.011-16.248-.011h-5.41v47.28c7.029,0,13.821,0,20.612,0,4.521,0,5.382.916,6.934,5.19,2.343,6.454,4.834,12.872,7.652,19.129,2.421,5.373,2.579,5.829-1.574,9.979-5.834,5.832-11.671,11.662-17.3,17.282C-321.989,465.56-310.192,477.376-298.135,489.452Zm75.347-35.479a75.788,75.788,0,0,0,75.542-75.606A75.772,75.772,0,0,0-223,302.684a75.76,75.76,0,0,0-75.535,75.6A75.774,75.774,0,0,0-222.788,453.973Zm28.231-198.6a4.763,4.763,0,0,0,4.736-4.675,4.751,4.751,0,0,0-4.673-4.733,4.743,4.743,0,0,0-4.733,4.672A4.75,4.75,0,0,0-194.556,255.377Zm47.28,0a4.763,4.763,0,0,0,4.736-4.675,4.751,4.751,0,0,0-4.673-4.733,4.743,4.743,0,0,0-4.733,4.672A4.75,4.75,0,0,0-147.277,255.377Zm56.744,75.7a4.752,4.752,0,0,0-4.67-4.737,4.742,4.742,0,0,0-4.736,4.669,4.749,4.749,0,0,0,4.667,4.74A4.764,4.764,0,0,0-90.532,331.081Zm0,47.2a4.751,4.751,0,0,0-4.751-4.655,4.744,4.744,0,0,0-4.655,4.749,4.752,4.752,0,0,0,4.748,4.659A4.763,4.763,0,0,0-90.533,378.279Zm-4.677,52.033a4.763,4.763,0,0,0,4.678-4.733,4.751,4.751,0,0,0-4.733-4.675,4.742,4.742,0,0,0-4.674,4.73A4.751,4.751,0,0,0-95.21,430.312Zm-94.611,75.66a4.75,4.75,0,0,0-4.714-4.693,4.742,4.742,0,0,0-4.692,4.712,4.75,4.75,0,0,0,4.711,4.7A4.761,4.761,0,0,0-189.82,505.972Zm47.28.149a4.758,4.758,0,0,0-4.564-4.842,4.75,4.75,0,0,0-4.841,4.562,4.757,4.757,0,0,0,4.561,4.846A4.772,4.772,0,0,0-142.541,506.121Z" fill="#11608f"/>
      <path id="Path_44" data-name="Path 44" d="M-203.737,464.881A66.3,66.3,0,0,1-270,398.836,66.28,66.28,0,0,1-203.735,332.5a66.294,66.294,0,0,1,66.116,66.186A66.309,66.309,0,0,1-203.737,464.881Zm-.009-122.922a56.814,56.814,0,0,0-56.795,56.663,56.833,56.833,0,0,0,56.663,56.8,56.848,56.848,0,0,0,56.8-56.671A56.83,56.83,0,0,0-203.746,341.959Z" transform="translate(-19.082 -20.363)" fill="#11608f"/>
      <path id="Path_45" data-name="Path 45" d="M-202.639,423.159h-12.814c-1.015,3.325-1.99,6.613-3.027,9.882s-3.47,4.822-6.126,3.975c-2.748-.876-3.861-3.368-2.864-6.709,4.525-15.164,9.1-30.313,13.608-45.483.753-2.535,2.1-4.294,4.894-4.257,2.637.036,3.974,1.725,4.693,4.139,4.545,15.261,9.145,30.506,13.691,45.767.968,3.249-.295,5.826-3.08,6.612-2.572.727-4.945-.805-5.93-3.916C-200.632,429.891-201.6,426.592-202.639,423.159Zm-2.887-9.651-3.19-10.591-.69.041c-1.038,3.469-2.075,6.937-3.156,10.55Z" transform="translate(-28.022 -30.553)" fill="#11608f"/>
      <path id="Path_46" data-name="Path 46" d="M-168,408.9c0-7.485-.013-14.97.006-22.455.009-3.745,1.745-5.9,4.692-5.915s4.747,2.146,4.751,5.86q.024,22.454,0,44.909c0,3.731-1.76,5.9-4.7,5.919s-4.735-2.148-4.746-5.864C-168.015,423.869-168,416.383-168,408.9Z" transform="translate(-40.705 -30.545)" fill="#11608f"/>
    </g>
  </g>
</svg>
