<svg xmlns="http://www.w3.org/2000/svg" xmlns:xlink="http://www.w3.org/1999/xlink" width="614" height="614" viewBox="0 0 614 614">
  <defs>
    <filter id="Ellipse_489" x="0" y="0" width="614" height="614" filterUnits="userSpaceOnUse">
      <feOffset dy="3" input="SourceAlpha"/>
      <feGaussianBlur stdDeviation="7" result="blur"/>
      <feFlood flood-color="#ffcfcf" flood-opacity="0.012"/>
      <feComposite operator="in" in2="blur"/>
      <feComposite in="SourceGraphic"/>
    </filter>
  </defs>
  <g id="progressive-2" transform="translate(-524 8033)">
    <g id="vue-js-2" transform="translate(-4218 -405)">
      <g id="ai_2" data-name="ai 2" transform="translate(2740 -326)">
        <g id="ionic_2" data-name="ionic 2" transform="translate(-306 -1365)">
          <g id="yii_2" data-name="yii 2" transform="translate(-1813 -893)">
            <g id="Kotlin_2" data-name="Kotlin 2" transform="translate(1485 -625)">
              <g id="magento_2" data-name="magento 2" transform="translate(65 -1543)">
                <g id="django_2" data-name="django 2" transform="translate(-945 -1191)">
                  <g id="symfony_2" data-name="symfony 2" transform="translate(-545.879 -694.879)">
                    <g id="ruby-on-rails_2" data-name="ruby-on-rails 2" transform="translate(4083 -972)">
                      <g id="django_2-2" data-name="django 2">
                        <g id="codeigniter_2" data-name="codeigniter 2">
                          <g id="react-native_2" data-name="react-native 2">
                            <g id="laraval_2" data-name="laraval 2">
                              <g transform="matrix(1, 0, 0, 1, -21.12, -18.12)" filter="url(#Ellipse_489)">
                                <circle id="Ellipse_489-2" data-name="Ellipse 489" cx="286" cy="286" r="286" transform="translate(21 18)" fill="#f8f7f7"/>
                              </g>
                              <circle id="Ellipse_488" data-name="Ellipse 488" cx="235" cy="235" r="235" transform="translate(50.879 50.879)" fill="#f3f3f3"/>
                              <circle id="Ellipse_487" data-name="Ellipse 487" cx="182" cy="182" r="182" transform="translate(103.879 103.879)" fill="#eee"/>
                              <path id="Path_19249" data-name="Path 19249" d="M120.818,0A120.818,120.818,0,1,1,0,120.818,120.818,120.818,0,0,1,120.818,0Z" transform="translate(165.061 165.061)" fill="#e9e9e9"/>
                            </g>
                          </g>
                        </g>
                      </g>
                    </g>
                  </g>
                </g>
              </g>
            </g>
          </g>
        </g>
      </g>
    </g>
    <g id="progressive-3" transform="translate(479.272 -8185.231)">
      <path id="Path_50" data-name="Path 50" d="M264.146,92.5a9.1,9.1,0,0,0-7.708-3.77H230.372l-27.055,57.381h13.608l10.331-22.463h7.215a4.549,4.549,0,0,1,3.116,1.64c.82,1.479.654,3.775-.656,6.559q-3.245,7.09-5.9,14.428H244.8a30.451,30.451,0,0,1,1.64-5.576c.983-2.46,4.263-10.495,4.263-10.495,2.623-6.559-.656-9.179-2.786-10.495,5.246-.49,9.021-2.95,11.151-7.376,1.64-3.443,4.423-9.182,4.423-9.345,2.617-5.406,1.8-8.686.654-10.489Zm-13.774,9.838-2.46,4.919L246.6,110.37a5.78,5.78,0,0,1-5.246,3.606h-9.509l7.215-15.738h10.328a1.976,1.976,0,0,1,1.313.82c.49.654.324,1.8-.33,3.277ZM119.208,92.5a9.093,9.093,0,0,0-7.705-3.77H85.433L58.381,146.108H71.989L82.32,123.645h7.215a4.54,4.54,0,0,1,3.113,1.64c.82,1.479.656,3.775-.656,6.559q-3.245,7.09-5.9,14.428H99.864a30.714,30.714,0,0,1,1.64-5.576c.983-2.46,4.263-10.495,4.263-10.495,2.626-6.559-.654-9.179-2.786-10.495,5.246-.49,9.018-2.95,11.151-7.376,1.64-3.443,4.426-9.182,4.426-9.345,2.617-5.406,1.8-8.686.651-10.489Zm-13.774,9.838-2.46,4.919-1.31,3.116a5.78,5.78,0,0,1-5.246,3.606H86.91l7.379-15.738h10.165a1.973,1.973,0,0,1,1.31.82c.49.654.327,1.8-.33,3.277Zm46.235,32.625c2.786-5.576,6.559-13.608,10.495-22.133l4.589-9.835c4.756-10.165-.654-14.594-7.376-14.594h-16.56c-6.886,0-11.8,3.279-14.921,10-1.64,3.609-4.589,9.509-7.705,16.4l-7.049,14.425c-6.886,14.594,3.443,17.053,8.525,17.053h10.495c10.328.163,15.574-2.786,19.507-11.314Zm-18.363.659H127.24c-.986,0-3.113-.33-1.476-3.775,2.3-5.08,11.968-25.9,13.937-30.168,1.31-2.95,2.786-3.443,4.589-3.443h7.379c1.473-.166,2.786.654,1.64,3.113l-13.774,29.509c-1.964,4.1-3.277,4.764-6.229,4.764ZM206.6,88.4H192.662c-7.215,0-13.118,3.609-16.067,10C174.135,103.811,162,129.221,162,129.221c-4.426,9.348-1.967,17.053,10.165,17.053h10.821c8.689,0,12.951-1.31,16.887-9.838l10-22.13H189.382l-4.426,9.509h7.049l-3.936,8.689c-1.147,2.626-1.967,3.119-4.756,3.119h-7.049c-2.13,0-2.95-1.149-1.64-3.775,1.64-3.44,14.43-30.168,14.43-30.168,1.474-2.95,2.293-3.443,4.426-3.443h7.376c1.806,0,2.789.82,1.64,3.113-.327.656-3.279,7.049-3.279,7.049h12.951l2.953-6.229c4.263-9.345.49-13.6-8.525-13.771Zm164.939,57.711,27.216-57.544h-14.1L357.6,146.108h13.937Zm61.81-57.544L401.7,139.225l16.067-50.662H403.177l-13.444,57.544h18.856L448.1,88.564ZM325.3,126.1l-1.144-21.31c-.166-2.46.49-6.066,5.08-6.066h9.514L343.5,88.564H327.435c-12.627,0-17.053,7.705-16.563,16.887.33,5.576,1.149,23.77,1.149,23.77.166,4.429-1.473,6.4-5.576,6.4H295.622l-4.756,10.489h17.053c11.478,0,18.031-7.373,17.377-20Zm32.135,0-1.144-21.31c-.166-2.46.49-6.066,5.08-6.066h9.514l4.756-10.165H359.57c-10.495,0-17.217,5.739-16.563,16.887.33,5.576,1.15,23.77,1.15,23.77.166,4.429-1.473,6.4-5.576,6.4H328.086l-4.919,10.489h16.887c12.464,0,18.039-9.013,17.377-20Zm-78.7-37.541-26.886,57.544h33.938l4.916-10.489H270.046l7.379-15.248H294.8l4.6-9.675H281.848l5.581-11.968H305.46l4.753-10.165Zm173.96,0L425.8,146.108h33.941l4.919-10.489H444l7.379-15.248h17.383l4.589-9.678H455.808l5.576-11.968h18.031c.166,0,4.756-10.165,4.756-10.165H452.694ZM40.181,116.109l8.2-18.037h8.852c1.806,0,3.279.983,1.476,4.756q-2.21,4.878-4.592,9.675c-1.147,2.46-2.786,3.609-5.246,3.609H40.181v0Zm-4.592,10H49.033c8.689,0,13.278-2.62,16.887-10,1.147-2.3,3.279-7.215,5.9-12.791,4.589-10-.983-14.591-6.886-14.591H39.032L12.143,146.271h14.1ZM493.022,92.66a7,7,0,0,1,7.055-7.049,7.139,7.139,0,0,1,7.215,7.049,7.279,7.279,0,0,1-7.215,7.215A7.142,7.142,0,0,1,493.022,92.66Zm13.45,0a6.372,6.372,0,0,0-6.4-6.229,6.313,6.313,0,0,0,0,12.625A6.4,6.4,0,0,0,506.472,92.66Zm-2.792,4.1h-1.149l-2.293-3.77h-1.8v3.77h-.986V88.727H500.9a3.842,3.842,0,0,1,1.964.327,2.065,2.065,0,0,1,.986,1.8c0,1.473-1.15,2.13-2.626,2.13l2.46,3.772Zm-3.77-4.589c1.144,0,2.95.327,2.95-1.313,0-1.313-1.144-1.473-2.13-1.473h-2.293V92.17h1.473Z" transform="translate(92.011 340.285)" fill="#28539c" fill-rule="evenodd"/>
    </g>
  </g>
</svg>
