<svg xmlns="http://www.w3.org/2000/svg" width="30" height="30" viewBox="0 0 30 30">
  <g id="Enticing_Benefits" data-name="Enticing Benefits" transform="translate(-492 -636)">
    <g id="ranking" transform="translate(492 636)">
      <path id="Vector" d="M9.156,11.723H.926A.932.932,0,0,1,0,10.8v-7.4A3.392,3.392,0,0,1,3.394,0H9.156a.932.932,0,0,1,.926.926V10.8A.932.932,0,0,1,9.156,11.723ZM1.851,9.872h6.38V1.851H3.394A1.543,1.543,0,0,0,1.851,3.394Z" transform="translate(1.543 16.734)" fill="#dd1928"/>
      <path id="Vector-2" data-name="Vector" d="M9.156,16.659H.926A.932.932,0,0,1,0,15.734V3.394A3.392,3.392,0,0,1,3.394,0H6.688a3.392,3.392,0,0,1,3.394,3.394v12.34A.924.924,0,0,1,9.156,16.659ZM1.863,14.808h6.38V3.394A1.543,1.543,0,0,0,6.7,1.851H3.406A1.543,1.543,0,0,0,1.863,3.394Z" transform="translate(9.953 11.798)" fill="#dd1928"/>
      <path id="Vector-3" data-name="Vector" d="M9.156,8.021H.926A.932.932,0,0,1,0,7.1V.926A.932.932,0,0,1,.926,0H6.688a3.392,3.392,0,0,1,3.394,3.394V7.1A.932.932,0,0,1,9.156,8.021ZM1.851,6.17h6.38V3.394A1.543,1.543,0,0,0,6.688,1.851H1.851Z" transform="translate(18.376 20.436)" fill="#dd1928"/>
      <path id="Vector-4" data-name="Vector" d="M6.734,9.159a2.158,2.158,0,0,1-1.086-.333l-1.012-.6-1,.592a1.664,1.664,0,0,1-1.925.074,1.659,1.659,0,0,1-.518-1.851l.234-1.024L.588,5.174a1.66,1.66,0,0,1-.518-1.7A1.679,1.679,0,0,1,1.477,2.385L2.55,2.2,3.155.99a1.584,1.584,0,0,1,2.937,0L6.7,2.2l1.074.185A1.663,1.663,0,0,1,9.177,3.471a1.685,1.685,0,0,1-.518,1.7l-.839.839.234,1.024A1.681,1.681,0,0,1,7.536,8.9,1.254,1.254,0,0,1,6.734,9.159Zm-2.1-2.8a1.641,1.641,0,0,1,.839.222l.691.407-.148-.666a1.714,1.714,0,0,1,.444-1.53l.629-.629-.777-.136a1.733,1.733,0,0,1-1.2-.888l-.481-.926-.469.926a1.733,1.733,0,0,1-1.2.888l-.777.123.629.629a1.749,1.749,0,0,1,.444,1.53l-.148.666.691-.407A1.557,1.557,0,0,1,4.636,6.358Z" transform="translate(10.364 1.145)" fill="#292d32"/>
      <path id="Vector-5" data-name="Vector" d="M0,0H30V30H0Z" fill="none" opacity="0"/>
    </g>
  </g>
</svg>
