<svg xmlns="http://www.w3.org/2000/svg" width="30" height="30" viewBox="0 0 30 30">
  <g id="Expert_Senior_Team" data-name="Expert Senior Team" transform="translate(-620 -252)">
    <g id="people" transform="translate(620 252)">
      <path id="Vector" d="M2.323,8.33A8.42,8.42,0,0,1,.831,8.2a.959.959,0,1,1,.332-1.888A6.22,6.22,0,0,0,5.5,5.548a1.75,1.75,0,0,0,.919-1.391A1.762,1.762,0,0,0,5.5,2.78a6.243,6.243,0,0,0-4.376-.753.948.948,0,0,1-1.11-.778A.957.957,0,0,1,.792.139,8.073,8.073,0,0,1,6.559,1.185,3.633,3.633,0,0,1,8.332,4.158,3.658,3.658,0,0,1,6.559,7.147,7.765,7.765,0,0,1,2.323,8.33Z" transform="translate(20.035 10.854)" fill="#292d32"/>
      <path id="Vector-2" data-name="Vector" d="M6.009,8.33A7.765,7.765,0,0,1,1.773,7.147,3.654,3.654,0,0,1,0,4.158,3.651,3.651,0,0,1,1.773,1.185,8.073,8.073,0,0,1,7.54.139a.957.957,0,0,1,.778,1.11.948.948,0,0,1-1.11.778,6.251,6.251,0,0,0-4.376.753,1.731,1.731,0,0,0-.919,1.378,1.786,1.786,0,0,0,.919,1.391,6.22,6.22,0,0,0,4.338.765A.959.959,0,1,1,7.5,8.2a8.42,8.42,0,0,1-1.493.128Z" transform="translate(1.595 10.854)" fill="#292d32"/>
      <path id="Vector-3" data-name="Vector" d="M6.022,8.344a7.655,7.655,0,0,1-4.248-1.2A3.633,3.633,0,0,1,0,4.172,3.641,3.641,0,0,1,1.773,1.186a8.2,8.2,0,0,1,8.5,0,3.633,3.633,0,0,1,1.773,2.973A3.641,3.641,0,0,1,10.27,7.144a7.757,7.757,0,0,1-4.248,1.2Zm-3.19-5.55a1.75,1.75,0,0,0-.919,1.391,1.762,1.762,0,0,0,.919,1.378,6.251,6.251,0,0,0,6.366,0,1.75,1.75,0,0,0,.919-1.391A1.762,1.762,0,0,0,9.2,2.794a6.283,6.283,0,0,0-6.366,0Z" transform="translate(9.077 20.074)" fill="#dd1928"/>
      <path id="Vector-4" data-name="Vector" d="M0,0H30V30H0Z" fill="none" opacity="0"/>
      <path id="Vector-5" data-name="Vector" d="M3.929,7.859A3.929,3.929,0,1,1,7.859,3.929,3.929,3.929,0,0,1,3.929,7.859Zm0-5.945A2.016,2.016,0,1,0,5.945,3.929,2.016,2.016,0,0,0,3.929,1.914Z" transform="translate(3.725 2.11)" fill="#292d32"/>
      <path id="Vector-6" data-name="Vector" d="M3.929,7.859A3.929,3.929,0,1,1,7.859,3.929,3.929,3.929,0,0,1,3.929,7.859Zm0-5.945A2.016,2.016,0,1,0,5.945,3.929,2.016,2.016,0,0,0,3.929,1.914Z" transform="translate(18.416 2.11)" fill="#292d32"/>
      <path id="Vector-7" data-name="Vector" d="M3.929,7.859A3.929,3.929,0,1,1,7.859,3.929,3.929,3.929,0,0,1,3.929,7.859Zm0-5.945A2.016,2.016,0,1,0,5.945,3.929,2.016,2.016,0,0,0,3.929,1.914Z" transform="translate(11.17 11.319)" fill="#dd1928"/>
    </g>
  </g>
</svg>
