<svg xmlns="http://www.w3.org/2000/svg" width="30" height="30" viewBox="0 0 30 30">
  <g id="High_Flexibility" data-name="High Flexibility" transform="translate(-172 -316)">
    <g id="arrow-square" transform="translate(172 316)">
      <path id="Vector" d="M.933,9.975A.94.94,0,0,1,0,9.042V6.6A6.611,6.611,0,0,1,6.617,0H9.055a.94.94,0,0,1,.933.933.94.94,0,0,1-.933.933H6.617A4.756,4.756,0,0,0,1.866,6.6V9.042A.932.932,0,0,1,.933,9.975Z" transform="translate(14.273 9.774)" fill="#292d32"/>
      <path id="Vector-2" data-name="Vector" d="M9.042,12.674a.94.94,0,0,1-.933-.933V6.6A4.745,4.745,0,0,0,3.371,1.866H.933A.94.94,0,0,1,0,.933.94.94,0,0,1,.933,0H3.371a6.609,6.609,0,0,1,6.6,6.6v5.137A.94.94,0,0,1,9.042,12.674Z" transform="translate(6.103 9.798)" fill="#292d32"/>
      <path id="Vector-3" data-name="Vector" d="M3.169,6.34a.923.923,0,0,1-.659-.274L.271,3.828a.938.938,0,0,1,0-1.318L2.509.271A.932.932,0,0,1,3.828,1.589l-1.58,1.58,1.58,1.58a.938.938,0,0,1,0,1.318A.922.922,0,0,1,3.169,6.34Z" transform="translate(5.745 7.513)" fill="#292d32"/>
      <path id="Vector-4" data-name="Vector" d="M.93,6.34a.922.922,0,0,1-.659-.274.938.938,0,0,1,0-1.318l1.58-1.58L.271,1.589A.932.932,0,0,1,1.589.271L3.828,2.509a.938.938,0,0,1,0,1.318L1.589,6.067A.9.9,0,0,1,.93,6.34Z" transform="translate(20.156 7.513)" fill="#292d32"/>
      <path id="Vector-5" data-name="Vector" d="M17.2,26.891h-7.5C2.9,26.891,0,23.989,0,17.2v-7.5C0,2.9,2.9,0,9.693,0h7.5c6.791,0,9.693,2.9,9.693,9.693v7.5C26.891,23.989,23.989,26.891,17.2,26.891ZM9.693,1.876c-5.766,0-7.817,2.051-7.817,7.817v7.5c0,5.766,2.051,7.817,7.817,7.817h7.5c5.766,0,7.817-2.051,7.817-7.817v-7.5c0-5.766-2.051-7.817-7.817-7.817Z" transform="translate(1.555 1.555)" fill="#dd1928"/>
      <path id="Vector-6" data-name="Vector" d="M0,0H30V30H0Z" fill="none" opacity="0"/>
    </g>
  </g>
</svg>
