<svg xmlns="http://www.w3.org/2000/svg" width="30" height="30" viewBox="0 0 30 30">
  <g id="Long_Tenure" data-name="Long Tenure" transform="translate(-169.075 -185.075)">
    <g id="clock" transform="translate(-2.925 -2.925)">
      <path id="Vector" d="M13.445,26.891A13.445,13.445,0,1,1,26.891,13.445,13.457,13.457,0,0,1,13.445,26.891Zm0-25.014A11.569,11.569,0,1,0,25.014,13.445,11.583,11.583,0,0,0,13.445,1.876Z" transform="translate(173.555 189.555)" fill="#dd1928"/>
      <path id="Vector-2" data-name="Vector" d="M5.995,11.405a.833.833,0,0,1-.473-.137l-3.856-2.3A3.668,3.668,0,0,1,0,6.032V.933A.94.94,0,0,1,.933,0a.94.94,0,0,1,.933.933v5.1a1.838,1.838,0,0,0,.759,1.331l3.856,2.3A.931.931,0,0,1,6.8,10.945.958.958,0,0,1,5.995,11.405Z" transform="translate(185.633 196.476)" fill="#2a2a2a"/>
      <path id="Vector-3" data-name="Vector" d="M0,0H30V30H0Z" transform="translate(172 188)" fill="none" opacity="0"/>
    </g>
  </g>
</svg>
