<svg xmlns="http://www.w3.org/2000/svg" width="30" height="30" viewBox="0 0 30 30">
  <g id="Transparent_Employee_Policies" data-name="Transparent Employee Policies" transform="translate(-492 -252)">
    <g id="document-text" transform="translate(492 252)">
      <path id="Vector" d="M17.207,26.891H7.2C2.628,26.891,0,24.264,0,19.7V7.192C0,2.627,2.628,0,7.2,0H17.207c4.568,0,7.2,2.627,7.2,7.192V19.7C24.4,24.264,21.775,26.891,17.207,26.891ZM7.2,1.876c-3.579,0-5.319,1.739-5.319,5.316V19.7c0,3.577,1.739,5.316,5.319,5.316H17.207c3.579,0,5.319-1.739,5.319-5.316V7.192c0-3.577-1.739-5.316-5.319-5.316Z" transform="translate(2.798 1.555)" fill="#dd1928"/>
      <g id="Vector-2" data-name="Vector" transform="translate(17.213 4.694)" fill="#dd1928">
        <path d="M 5.907929420471191 6.340759754180908 L 3.420379638671875 6.340759754180908 C 1.81007969379425 6.340759754180908 0.4999996423721313 5.030679702758789 0.4999996423721313 3.420379638671875 L 0.4999996423721313 0.9328296184539795 C 0.4999996423721313 0.6982096433639526 0.6982096433639526 0.4999996423721313 0.9328296184539795 0.4999996423721313 C 1.167449593544006 0.4999996423721313 1.365659594535828 0.6982096433639526 1.365659594535828 0.9328296184539795 L 1.365659594535828 3.420379638671875 C 1.365659594535828 4.553359508514404 2.287399530410767 5.475099563598633 3.420379638671875 5.475099563598633 L 5.907929420471191 5.475099563598633 C 6.142549514770508 5.475099563598633 6.340759754180908 5.673309803009033 6.340759754180908 5.907929420471191 C 6.340759754180908 6.142549514770508 6.142549514770508 6.340759754180908 5.907929420471191 6.340759754180908 Z" stroke="none"/>
        <path d="M 5.907929420471191 6.840759754180908 L 3.420379638671875 6.840759754180908 C 1.529839634895325 6.840759754180908 -3.613281194247975e-07 5.310919761657715 -3.613281194247975e-07 3.420379638671875 L -3.613281194247975e-07 0.9328296184539795 C -3.613281194247975e-07 0.4228796362876892 0.4228796362876892 -3.613281194247975e-07 0.9328296184539795 -3.613281194247975e-07 C 1.442779660224915 -3.613281194247975e-07 1.865659594535828 0.4228796362876892 1.865659594535828 0.9328296184539795 L 1.865659594535828 3.420379638671875 C 1.865659594535828 4.278579711914062 2.562179565429688 4.975099563598633 3.420379638671875 4.975099563598633 L 5.907929420471191 4.975099563598633 C 6.417879581451416 4.975099563598633 6.840759754180908 5.397979736328125 6.840759754180908 5.907929420471191 C 6.840759754180908 6.417879581451416 6.417879581451416 6.840759754180908 5.907929420471191 6.840759754180908 Z" stroke="none" fill="#2a2a2a"/>
      </g>
      <g id="Vector-3" data-name="Vector" transform="translate(9.076 15.318)" fill="#dd1928">
        <path d="M 5.907929420471191 1.365660786628723 L 0.9328296184539795 1.365660786628723 C 0.6982096433639526 1.365660786628723 0.4999996423721313 1.167450785636902 0.4999996423721313 0.932830810546875 C 0.4999996423721313 0.6982108354568481 0.6982096433639526 0.5000008344650269 0.9328296184539795 0.5000008344650269 L 5.907929420471191 0.5000008344650269 C 6.142549514770508 0.5000008344650269 6.340759754180908 0.6982108354568481 6.340759754180908 0.932830810546875 C 6.340759754180908 1.167450785636902 6.142549514770508 1.365660786628723 5.907929420471191 1.365660786628723 Z" stroke="none"/>
        <path d="M 5.907929420471191 1.865660786628723 L 0.9328296184539795 1.865660786628723 C 0.4228796362876892 1.865660786628723 -3.613281194247975e-07 1.44278085231781 -3.613281194247975e-07 0.932830810546875 C -3.613281194247975e-07 0.4228807985782623 0.4228796362876892 8.1054685097115e-07 0.9328296184539795 8.1054685097115e-07 L 5.907929420471191 8.1054685097115e-07 C 6.417879581451416 8.1054685097115e-07 6.840759754180908 0.4228807985782623 6.840759754180908 0.932830810546875 C 6.840759754180908 1.44278085231781 6.417879581451416 1.865660786628723 5.907929420471191 1.865660786628723 Z" stroke="none" fill="#2a2a2a"/>
      </g>
      <g id="Vector-4" data-name="Vector" transform="translate(9.092 20.319)" fill="#dd1928">
        <path d="M 10.88302803039551 1.365660786628723 L 0.9328284859657288 1.365660786628723 C 0.6982084512710571 1.365660786628723 0.4999984800815582 1.167450785636902 0.4999984800815582 0.932830810546875 C 0.4999984800815582 0.6982108354568481 0.6982084512710571 0.5000008344650269 0.9328284859657288 0.5000008344650269 L 10.88302803039551 0.5000008344650269 C 11.11764812469482 0.5000008344650269 11.31585884094238 0.6982108354568481 11.31585884094238 0.932830810546875 C 11.31585884094238 1.167450785636902 11.11764812469482 1.365660786628723 10.88302803039551 1.365660786628723 Z" stroke="none"/>
        <path d="M 10.88302803039551 1.865660786628723 L 0.9328284859657288 1.865660786628723 C 0.422888457775116 1.865660786628723 -1.533203089820745e-06 1.44278085231781 -1.533203089820745e-06 0.932830810546875 C -1.533203089820745e-06 0.4228807985782623 0.422888457775116 8.1054685097115e-07 0.9328284859657288 8.1054685097115e-07 L 10.88302803039551 8.1054685097115e-07 C 11.39297866821289 8.1054685097115e-07 11.81585884094238 0.4228807985782623 11.81585884094238 0.932830810546875 C 11.81585884094238 1.44278085231781 11.39297866821289 1.865660786628723 10.88302803039551 1.865660786628723 Z" stroke="none" fill="#2a2a2a"/>
      </g>
      <path id="Vector-5" data-name="Vector" d="M0,0H30V30H0Z" fill="none" opacity="0"/>
      <path id="Vector-6" data-name="Vector" d="M0,0H30V30H0Z" fill="none" opacity="0"/>
    </g>
  </g>
</svg>
