<svg xmlns="http://www.w3.org/2000/svg" width="585" height="471" viewBox="0 0 585 471">
  <g id="agile" transform="translate(-720 -1118)">
    <path id="ezgif.com-gif-maker" d="M36,0H549a36,36,0,0,1,36,36V435a36,36,0,0,1-36,36H12A12,12,0,0,1,0,459V36A36,36,0,0,1,36,0Z" transform="translate(720 1118)" fill="#ebebeb"/>
    <g id="Group_3018" data-name="Group 3018" transform="translate(775.098 1190.735)">
      <g id="Group_985" data-name="Group 985" transform="translate(0 0)">
        <g id="Background_Complete" data-name="Background Complete" transform="translate(31.627)">
          <g id="Group_828" data-name="Group 828">
            <path id="Path_10252" data-name="Path 10252" d="M70.652,315.888l-3.616,13.48,4.128,1.1a3.318,3.318,0,0,1,2.376,2.544,19.465,19.465,0,0,0,.54,2.017,3.316,3.316,0,0,1-.788,3.383l-3.021,3.021,9.872,9.872,3.021-3.021a3.315,3.315,0,0,1,3.383-.787,19.638,19.638,0,0,0,2.017.54,3.317,3.317,0,0,1,2.543,2.376l1.1,4.128,13.48-3.616-1.114-4.141a3.321,3.321,0,0,1,1.028-3.326q.38-.343.745-.708t.708-.745a3.31,3.31,0,0,1,3.31-1.026l4.157,1.113,3.617-13.48-4.136-1.111a3.319,3.319,0,0,1-2.375-2.547,19.275,19.275,0,0,0-.535-2.01,3.316,3.316,0,0,1,.788-3.38l3.022-3.022-9.872-9.872-3.022,3.021a3.315,3.315,0,0,1-3.38.789,19.469,19.469,0,0,0-2.01-.535,3.319,3.319,0,0,1-2.547-2.375l-1.11-4.136-13.481,3.615,1.11,4.139a3.312,3.312,0,0,1-1.026,3.315q-.381.345-.75.714t-.708.745A3.324,3.324,0,0,1,74.785,317Zm13.853,5.02a11.433,11.433,0,1,1-.009,16.169A11.424,11.424,0,0,1,84.506,320.908Z" transform="translate(-67.036 -117.809)" fill="#ebebeb" opacity="0.5"/>
            <path id="Path_10253" data-name="Path 10253" d="M431.4,396.966l-3.616,13.48,4.128,1.1a3.318,3.318,0,0,1,2.377,2.543,19.371,19.371,0,0,0,.54,2.017,3.316,3.316,0,0,1-.788,3.383l-3.021,3.021,9.872,9.872,3.021-3.021a3.316,3.316,0,0,1,3.383-.788,19.384,19.384,0,0,0,2.017.54,3.318,3.318,0,0,1,2.543,2.377l1.1,4.128,13.48-3.616-1.114-4.141a3.319,3.319,0,0,1,1.028-3.326q.379-.343.745-.708t.708-.745a3.309,3.309,0,0,1,3.31-1.026l4.157,1.112,3.617-13.48-4.137-1.11a3.319,3.319,0,0,1-2.374-2.547,19.427,19.427,0,0,0-.535-2.009,3.315,3.315,0,0,1,.788-3.38l3.022-3.022-9.872-9.872-3.022,3.021a3.316,3.316,0,0,1-3.381.789,19.273,19.273,0,0,0-2.009-.535,3.319,3.319,0,0,1-2.547-2.375l-1.11-4.136-13.481,3.616,1.11,4.139a3.315,3.315,0,0,1-1.026,3.316q-.382.345-.75.714t-.708.745a3.324,3.324,0,0,1-3.328,1.029Zm13.853,5.02a11.433,11.433,0,1,1-.009,16.169A11.424,11.424,0,0,1,445.25,401.986Z" transform="translate(-178.538 -142.869)" fill="#ebebeb" opacity="0.5"/>
            <path id="Path_10254" data-name="Path 10254" d="M563.262,47.214l-3.617,13.48,4.128,1.1a3.319,3.319,0,0,1,2.376,2.544,19.421,19.421,0,0,0,.54,2.017,3.316,3.316,0,0,1-.788,3.383l-3.021,3.021,9.872,9.873,3.021-3.021a3.315,3.315,0,0,1,3.384-.788,19.475,19.475,0,0,0,2.017.54,3.316,3.316,0,0,1,2.543,2.376l1.1,4.128,13.48-3.616-1.114-4.141a3.322,3.322,0,0,1,1.028-3.326q.38-.343.745-.708t.708-.745a3.311,3.311,0,0,1,3.31-1.026l4.157,1.113,3.617-13.48-4.137-1.111a3.319,3.319,0,0,1-2.375-2.547,19.318,19.318,0,0,0-.535-2.01,3.315,3.315,0,0,1,.789-3.38l3.021-3.021L597.645,38l-3.022,3.022a3.316,3.316,0,0,1-3.38.788,19.489,19.489,0,0,0-2.009-.535,3.318,3.318,0,0,1-2.547-2.374l-1.11-4.136L572.1,38.381l1.11,4.139a3.312,3.312,0,0,1-1.026,3.315q-.381.345-.75.714t-.708.745a3.327,3.327,0,0,1-3.328,1.029Zm13.853,5.019a11.433,11.433,0,1,1-.009,16.169A11.424,11.424,0,0,1,577.115,52.233Z" transform="translate(-219.295 -34.765)" fill="#ebebeb"/>
            <path id="Path_10255" data-name="Path 10255" d="M650.42,126.244l3.165,5.485,1.679-.97a1.5,1.5,0,0,1,1.578.054,8.935,8.935,0,0,0,.82.473,1.5,1.5,0,0,1,.833,1.338v1.939h6.334v-1.939a1.5,1.5,0,0,1,.833-1.338,8.945,8.945,0,0,0,.82-.473,1.5,1.5,0,0,1,1.579-.054l1.678.97,3.165-5.485-1.687-.971a1.506,1.506,0,0,1-.737-1.4q.011-.232.012-.466t-.012-.466a1.5,1.5,0,0,1,.733-1.391l1.691-.977-3.165-5.485-1.683.971a1.506,1.506,0,0,1-1.579-.055,8.928,8.928,0,0,0-.816-.473,1.5,1.5,0,0,1-.832-1.337v-1.939H658.5V114.2a1.5,1.5,0,0,1-.832,1.337,8.928,8.928,0,0,0-.816.473,1.506,1.506,0,0,1-1.579.055l-1.683-.971-3.165,5.485,1.684.971a1.5,1.5,0,0,1,.735,1.393c-.008.155-.012.312-.012.47s0,.312.012.466a1.508,1.508,0,0,1-.737,1.4Zm6.055-2.834a5.187,5.187,0,1,1,5.185,5.189A5.183,5.183,0,0,1,656.475,123.409Z" transform="translate(-247.353 -58.717)" fill="#ebebeb" opacity="0.5"/>
            <path id="Path_10256" data-name="Path 10256" d="M279.558,126.691l3.165,5.485,1.679-.969a1.5,1.5,0,0,1,1.578.053,8.948,8.948,0,0,0,.821.474,1.5,1.5,0,0,1,.833,1.338v1.938h6.335v-1.938a1.5,1.5,0,0,1,.833-1.338,8.844,8.844,0,0,0,.82-.474,1.5,1.5,0,0,1,1.579-.053l1.678.969,3.165-5.485-1.687-.971a1.508,1.508,0,0,1-.737-1.4q.011-.232.012-.466t-.012-.466a1.5,1.5,0,0,1,.733-1.391l1.691-.977-3.165-5.484-1.683.97a1.5,1.5,0,0,1-1.579-.055,8.758,8.758,0,0,0-.816-.473,1.5,1.5,0,0,1-.831-1.338V112.7h-6.335v1.939a1.5,1.5,0,0,1-.832,1.338,8.754,8.754,0,0,0-.816.473,1.5,1.5,0,0,1-1.579.055l-1.684-.97-3.165,5.484,1.684.971a1.5,1.5,0,0,1,.734,1.394c-.008.155-.012.312-.012.469s0,.312.012.466a1.508,1.508,0,0,1-.737,1.4Zm6.055-2.834a5.187,5.187,0,1,1,5.185,5.19A5.183,5.183,0,0,1,285.613,123.856Z" transform="translate(-132.724 -58.855)" fill="#ebebeb" opacity="0.5"/>
            <path id="Path_10257" data-name="Path 10257" d="M137.078,274.947l3.164,5.485,1.679-.97a1.5,1.5,0,0,1,1.579.053,8.7,8.7,0,0,0,.82.474,1.5,1.5,0,0,1,.833,1.338v1.939h6.335v-1.939a1.5,1.5,0,0,1,.833-1.338,8.7,8.7,0,0,0,.82-.474,1.506,1.506,0,0,1,1.579-.053l1.678.97,3.165-5.485-1.686-.971a1.508,1.508,0,0,1-.738-1.4c.008-.155.012-.31.012-.466s0-.312-.012-.466a1.5,1.5,0,0,1,.733-1.391l1.691-.977-3.165-5.485-1.683.971a1.506,1.506,0,0,1-1.579-.055,8.871,8.871,0,0,0-.817-.473,1.5,1.5,0,0,1-.831-1.338v-1.939h-6.335V262.9a1.5,1.5,0,0,1-.831,1.338,8.783,8.783,0,0,0-.817.473,1.506,1.506,0,0,1-1.579.055l-1.684-.971-3.164,5.485,1.684.971a1.5,1.5,0,0,1,.734,1.393c-.008.155-.012.312-.012.47s0,.312.012.466a1.508,1.508,0,0,1-.737,1.4Zm6.054-2.834a5.188,5.188,0,1,1,5.185,5.189A5.184,5.184,0,0,1,143.132,272.112Z" transform="translate(-88.685 -104.679)" fill="#ebebeb"/>
          </g>
        </g>
        <g id="Floor" transform="translate(0 297.347)">
          <path id="Path_10258" data-name="Path 10258" d="M21.261,465.453c156.58-.423,332.226-.426,488.805,0-156.581.426-332.226.423-488.805,0Z" transform="translate(-21.261 -465.134)" fill="#263238"/>
        </g>
        <g id="Gear" transform="translate(166.956 66.85)">
          <g id="Group_831" data-name="Group 831">
            <g id="Group_829" data-name="Group 829" transform="translate(0)">
              <path id="Path_10259" data-name="Path 10259" d="M412.747,218.358l.616-20.983-16.02-1.722a60.968,60.968,0,0,0-8.826-21.762l10.6-11.681-14.41-15.289-12.494,10.093a60.8,60.8,0,0,0-21.708-9.574l-.733-15.3-20.983-.616-1.641,15.23a61.317,61.317,0,0,0-22.883,8.69l-10.655-9.673-15.276,14.4,9.015,11.185a60.534,60.534,0,0,0-10.316,23.1l-13.508.646-.616,21,13.621,1.465a60.539,60.539,0,0,0,9.531,23.915l-8.905,9.8,14.4,15.263,10.722-8.634a60.5,60.5,0,0,0,23.58,9.776l.659,13.666,20.982.616,1.559-14.424a61.471,61.471,0,0,0,22.807-9.628l10.8,9.805,15.289-14.4-9.725-12.071a60.618,60.618,0,0,0,9.087-22.132Zm-74.711,19.6a31.22,31.22,0,1,1,31.325-31.128A31.225,31.225,0,0,1,338.036,237.962Z" transform="translate(-262.907 -131.521)" fill="#f0390e"/>
              <path id="Path_10260" data-name="Path 10260" d="M359.8,255.105a26.62,26.62,0,1,1,26.7-26.541A26.651,26.651,0,0,1,359.8,255.105Zm.149-50.6a23.982,23.982,0,1,0,23.911,24.053A24.01,24.01,0,0,0,359.951,204.5Z" transform="translate(-284.652 -153.263)" fill="#f0390e"/>
            </g>
            <g id="Group_830" data-name="Group 830" opacity="0.5">
              <path id="Path_10261" data-name="Path 10261" d="M412.747,218.358l.616-20.983-16.02-1.722a60.968,60.968,0,0,0-8.826-21.762l10.6-11.681-14.41-15.289-12.494,10.093a60.8,60.8,0,0,0-21.708-9.574l-.733-15.3-20.983-.616-1.641,15.23a61.317,61.317,0,0,0-22.883,8.69l-10.655-9.673-15.276,14.4,9.015,11.185a60.534,60.534,0,0,0-10.316,23.1l-13.508.646-.616,21,13.621,1.465a60.539,60.539,0,0,0,9.531,23.915l-8.905,9.8,14.4,15.263,10.722-8.634a60.5,60.5,0,0,0,23.58,9.776l.659,13.666,20.982.616,1.559-14.424a61.471,61.471,0,0,0,22.807-9.628l10.8,9.805,15.289-14.4-9.725-12.071a60.618,60.618,0,0,0,9.087-22.132Zm-74.711,19.6a31.22,31.22,0,1,1,31.325-31.128A31.225,31.225,0,0,1,338.036,237.962Z" transform="translate(-262.907 -131.521)" fill="rgba(125,125,125,0)"/>
              <path id="Path_10262" data-name="Path 10262" d="M359.8,255.105a26.62,26.62,0,1,1,26.7-26.541A26.651,26.651,0,0,1,359.8,255.105Zm.149-50.6a23.982,23.982,0,1,0,23.911,24.053A24.01,24.01,0,0,0,359.951,204.5Z" transform="translate(-284.652 -153.264)" fill="#f0390e"/>
            </g>
          </g>
        </g>
        <g id="Graphic" transform="translate(31.723 10.805)">
          <g id="Group_865" data-name="Group 865">
            <g id="Group_838" data-name="Group 838" transform="translate(67.374 139.778)">
              <g id="Group_834" data-name="Group 834">
                <g id="Group_833" data-name="Group 833">
                  <g id="Group_832" data-name="Group 832">
                    <path id="Path_10263" data-name="Path 10263" d="M522.867,378.053,495.933,399.7H308.076c-79.064,0-143.386-64.322-143.386-143.379v-3.608h43.295v3.608A100.208,100.208,0,0,0,308.076,356.405H495.933Z" transform="translate(-164.69 -252.713)" fill="#f0390e"/>
                  </g>
                </g>
              </g>
            </g>
            <g id="Group_845" data-name="Group 845" transform="translate(67.374)">
              <g id="Group_841" data-name="Group 841">
                <g id="Group_840" data-name="Group 840">
                  <g id="Group_839" data-name="Group 839">
                    <path id="Path_10265" data-name="Path 10265" d="M311.684,50.4V93.7h-3.608a99.035,99.035,0,0,0-44.832,10.571,100.107,100.107,0,0,0-55.259,89.519v.888l-21.8,18.027-21.5-18.027v-.888A143.31,143.31,0,0,1,308.076,50.4Z" transform="translate(-164.69 -50.404)" fill="#242423"/>
                  </g>
                </g>
              </g>
              <g id="Group_844" data-name="Group 844" transform="translate(0)" opacity="0.3">
                <g id="Group_843" data-name="Group 843">
                  <g id="Group_842" data-name="Group 842">
                    <path id="Path_10266" data-name="Path 10266" d="M311.684,50.4V93.7h-3.608a99.035,99.035,0,0,0-44.832,10.571,100.107,100.107,0,0,0-55.259,89.519v.888l-21.8,18.027-21.5-18.027v-.888A143.31,143.31,0,0,1,308.076,50.4Z" transform="translate(-164.69 -50.404)"/>
                  </g>
                </g>
              </g>
            </g>
            <g id="Group_852" data-name="Group 852" transform="translate(136.325)">
              <g id="Group_848" data-name="Group 848">
                <g id="Group_847" data-name="Group 847">
                  <g id="Group_846" data-name="Group 846">
                    <path id="Path_10267" data-name="Path 10267" d="M482.3,193.79V197.4H439V193.79A100.135,100.135,0,0,0,294.09,104.27l-.736.368-28.868-8.612,9.32-30.015.859-.433A141.9,141.9,0,0,1,338.921,50.4,143.3,143.3,0,0,1,482.3,193.79Z" transform="translate(-264.486 -50.404)" fill="#c2c2c2"/>
                  </g>
                </g>
              </g>
              <g id="Group_851" data-name="Group 851" transform="translate(1.382)" opacity="0.2">
                <g id="Group_850" data-name="Group 850">
                  <g id="Group_849" data-name="Group 849">
                    <path id="Path_10268" data-name="Path 10268" d="M482.3,193.79V197.4H439V193.79A100.135,100.135,0,0,0,294.09,104.27l-.736.368-28.868-8.612,9.32-30.015.859-.433A141.9,141.9,0,0,1,338.921,50.4,143.3,143.3,0,0,1,482.3,193.79Z" transform="translate(-264.486 -50.404)" fill="#dfdfdf"/>
                  </g>
                </g>
              </g>
            </g>
            <g id="Group_860" data-name="Group 860" transform="translate(207.152 15.882)">
              <g id="Group_859" data-name="Group 859">
                <g id="Group_855" data-name="Group 855">
                  <g id="Group_854" data-name="Group 854">
                    <g id="Group_853" data-name="Group 853">
                      <path id="Path_10269" data-name="Path 10269" d="M513.986,200.895c0,79.057-64.315,143.379-143.379,143.379H367V300.979h3.608a100.111,100.111,0,0,0,46.405-188.8l-.714-.375-6.38-27.383,26.346-11.027.859.448A143.077,143.077,0,0,1,513.986,200.895Z" transform="translate(-366.999 -73.391)" fill="#ffc727"/>
                    </g>
                  </g>
                </g>
                <g id="Group_858" data-name="Group 858" opacity="0.73">
                  <g id="Group_857" data-name="Group 857">
                    <g id="Group_856" data-name="Group 856">
                      <path id="Path_10270" data-name="Path 10270" d="M513.986,200.895c0,79.057-64.315,143.379-143.379,143.379H367V300.979h3.608a100.111,100.111,0,0,0,46.405-188.8l-.714-.375-6.38-27.383,26.346-11.027.859.448A143.077,143.077,0,0,1,513.986,200.895Z" transform="translate(-366.999 -73.391)" fill="#eb0505"/>
                    </g>
                  </g>
                </g>
              </g>
            </g>
            <g id="Group_864" data-name="Group 864" transform="translate(0 123.974)">
              <g id="Group_863" data-name="Group 863">
                <g id="Group_862" data-name="Group 862">
                  <g id="Group_861" data-name="Group 861">
                    <path id="Path_10271" data-name="Path 10271" d="M421.314,248.356v.895c0,79.057-64.315,143.379-143.379,143.379H67.175V349.335h210.76A100.2,100.2,0,0,0,378.018,249.251v-.895l21.128-18.517Z" transform="translate(-67.175 -229.839)" fill="#c2c2c2"/>
                  </g>
                </g>
              </g>
            </g>
          </g>
          <g id="Group_873" data-name="Group 873" transform="translate(70.633 22.658)">
            <g id="Group_866" data-name="Group 866" transform="translate(23.546 168.969)">
              <path id="Path_10272" data-name="Path 10272" d="M232,366.273a.554.554,0,0,1,.77-.149.856.856,0,0,1,.158.157l.006.008a.732.732,0,0,1,.151.378,1,1,0,0,1-.083.468,2.706,2.706,0,0,1-.826.9.85.85,0,0,0-.269.359.927.927,0,0,0-.048.416,1.925,1.925,0,0,0,.151.592l.721.939,1.727-1.327a.558.558,0,0,1,.779.109.549.549,0,0,1-.1.774l-4.693,3.606a.543.543,0,0,1-.773-.1l-.006-.008-1.088-1.416a2.146,2.146,0,0,1,.4-3.017,2.124,2.124,0,0,1,1.781-.382,1.556,1.556,0,0,1,.081-.5,1.894,1.894,0,0,1,.657-.923,2.577,2.577,0,0,0,.445-.392A.54.54,0,0,1,232,366.273Zm-2.342,3.571a1.034,1.034,0,0,0-.2,1.455l.752.978,1.638-1.259-.752-.979A1.029,1.029,0,0,0,229.655,369.843Z" transform="translate(-211.103 -339.587)" fill="#fff"/>
              <path id="Path_10273" data-name="Path 10273" d="M229.354,362.646,224.475,366a.544.544,0,0,1-.767-.143l-.006-.008-.012-.016-1.839-2.68a.556.556,0,0,1,.142-.767.566.566,0,0,1,.776.137l1.539,2.241,1.513-1.039-1.323-1.927a.557.557,0,0,1,.918-.63l1.323,1.927,1.522-1.045-1.539-2.241a.557.557,0,0,1,.918-.63l1.84,2.679c.011.017,0,.022,0,.022l.014,0A.551.551,0,0,1,229.354,362.646Z" transform="translate(-209.134 -337.395)" fill="#fff"/>
              <path id="Path_10274" data-name="Path 10274" d="M223.506,353.794a.4.4,0,0,0-.007.086c-.008.006,0,.014-.021.024a.287.287,0,0,1-.026.075.01.01,0,0,1,0,.014.366.366,0,0,0-.043.084l-3.75,5.136a.534.534,0,0,1-.766.111.541.541,0,0,1-.119-.761l2.97-4.078-4.992.725a.554.554,0,0,1-.168-1.094l6.3-.906a.307.307,0,0,1,.089-.007c.009-.006.009-.006.014,0,.023,0,.055.015.077.012a.075.075,0,0,1,.037,0c.028.007.046.019.074.026l.019.012a.6.6,0,0,1,.084.042c.006.009.006.009.019.012a.223.223,0,0,0,.058.059l.01.017a.358.358,0,0,1,.061.08.362.362,0,0,1,.043.092l.011.017a.228.228,0,0,0,.024.079.01.01,0,0,0,0,.014l.006.008a1.086,1.086,0,0,1,0,.108Z" transform="translate(-207.391 -335.621)" fill="#fff"/>
              <path id="Path_10275" data-name="Path 10275" d="M214.909,350.824a.544.544,0,0,1-.75-.219.559.559,0,0,1,.214-.758L219.567,347a.559.559,0,0,1,.754.227.544.544,0,0,1-.218.749Z" transform="translate(-206.764 -333.685)" fill="#fff"/>
              <path id="Path_10276" data-name="Path 10276" d="M217.359,342.888l-5.3,2.639a.545.545,0,0,1-.741-.248l0-.009-.008-.019-1.45-2.912a.557.557,0,0,1,.249-.741.566.566,0,0,1,.75.244l1.212,2.436,1.645-.818-1.042-2.095a.557.557,0,0,1,1-.5l1.043,2.095,1.654-.823-1.213-2.435a.557.557,0,0,1,1-.5l1.45,2.913c.009.018,0,.022,0,.022l.013,0A.55.55,0,0,1,217.359,342.888Z" transform="translate(-205.437 -331.203)" fill="#fff"/>
              <path id="Path_10277" data-name="Path 10277" d="M204.04,327.758l6.35.06a.259.259,0,0,1,.1.012l.014.006a.255.255,0,0,1,.075.023c.019-.008.023,0,.032,0a.317.317,0,0,0,.073.046l0,.009c.03.021.066.028.09.061l0,.009a.01.01,0,0,0,.012.006.308.308,0,0,0,.05.066l.008.019a.327.327,0,0,1,.047.089.274.274,0,0,1,.025.087l.012.028a.251.251,0,0,0,.008.073c-.006.013-.006.013,0,.023a.2.2,0,0,1-.021.106l0,.009c-.007.035-.018.062-.02.084a.077.077,0,0,1-.02.03c-.014.017-.026.043-.041.06.008.019,0,.022,0,.022a.23.23,0,0,1-.068.071l-2.383,2.4,3.379.039a.743.743,0,0,1,.1,0,.01.01,0,0,0,.013.006l.079.033c.018-.008.022,0,.031,0a.265.265,0,0,0,.07.037l.008.019c.03.021.069.037.086.052l0,.009a.01.01,0,0,0,.013.005.162.162,0,0,0,.049.067l.011.028a.286.286,0,0,1,.044.08.349.349,0,0,1,.028.1l.011.028a.275.275,0,0,0,.008.073c0,.013,0,.013,0,.023a.3.3,0,0,1-.021.106l0,.009c-.007.036-.022.052-.019.084a.078.078,0,0,1-.021.03c-.011.026-.026.043-.037.069l-.01,0c-.01.026-.044.051-.064.081l-4.483,4.5a.549.549,0,0,1-.775-.779l3.558-3.582-3.344-.032a.554.554,0,0,1-.513-.354.575.575,0,0,1,.117-.613l2.363-2.366-5.044-.052a.557.557,0,0,1-.547-.568A.542.542,0,0,1,204.04,327.758Z" transform="translate(-203.487 -327.758)" fill="#fff"/>
            </g>
            <g id="Group_867" data-name="Group 867" transform="translate(25.06 42.074)">
              <path id="Path_10278" data-name="Path 10278" d="M211.484,192.1l-5.464-2.288a.543.543,0,0,1-.3-.723l.457-1.092a3.514,3.514,0,0,1,6.483,2.715l-.457,1.093A.55.55,0,0,1,211.484,192.1Zm-.088-1.245.24-.575a2.4,2.4,0,0,0-4.427-1.853l-.24.574Z" transform="translate(-205.679 -156.999)" fill="#fff"/>
              <path id="Path_10279" data-name="Path 10279" d="M215.289,183.081l-5.359-2.516a.543.543,0,0,1-.265-.734l0-.009.009-.019,1.382-2.943a.557.557,0,0,1,.734-.265.566.566,0,0,1,.274.739l-1.156,2.461,1.662.781.994-2.116a.557.557,0,0,1,1.008.473l-.994,2.116,1.671.785,1.156-2.462a.557.557,0,0,1,1.008.473l-1.382,2.943c-.008.018-.017.014-.017.014l0,.013A.55.55,0,0,1,215.289,183.081Z" transform="translate(-206.894 -154.124)" fill="#fff"/>
              <path id="Path_10280" data-name="Path 10280" d="M218.246,172.409l-.581,1.09,1.922,1.025a.557.557,0,0,1-.524.984l-5.227-2.789a.55.55,0,0,1-.227-.747l0-.009.841-1.577a2.149,2.149,0,1,1,3.792,2.022Zm-1.565.565.581-1.09a1.034,1.034,0,1,0-1.825-.973l-.582,1.09Z" transform="translate(-208.109 -151.867)" fill="#fff"/>
              <path id="Path_10281" data-name="Path 10281" d="M223.15,169.132l-5.083-3.044a.551.551,0,0,1-.19-.758.559.559,0,0,1,.763-.2l4.6,2.755,1.4-2.335a.558.558,0,0,1,.956.573l-1.672,2.791-.01.017,0,.009A.551.551,0,0,1,223.15,169.132Z" transform="translate(-209.424 -150.573)" fill="#fff"/>
              <path id="Path_10282" data-name="Path 10282" d="M225.955,153.3a3.687,3.687,0,0,1,4.2,2.854,3.284,3.284,0,0,1-.459,2.587,3.387,3.387,0,0,1-2.271,1.431,3.742,3.742,0,0,1-4.2-2.854,3.35,3.35,0,0,1,.494-2.638A3.25,3.25,0,0,1,225.955,153.3Zm2.027,1.535a2.6,2.6,0,0,0-1.836-.423,2.165,2.165,0,0,0-1.8,2.657,2.552,2.552,0,0,0,1.07,1.552,2.506,2.506,0,0,0,1.827.417,2.144,2.144,0,0,0,1.8-2.657A2.553,2.553,0,0,0,227.982,154.835Z" transform="translate(-211.076 -146.925)" fill="#fff"/>
              <path id="Path_10283" data-name="Path 10283" d="M232.2,144.483l.987,3.351,2.152,1.65a.545.545,0,0,1,.1.775.557.557,0,0,1-.775.1l-2.152-1.65-3.48-.1a.527.527,0,0,1-.538-.552.536.536,0,0,1,.56-.532l2.909.067-.82-2.793a.55.55,0,0,1,1.054-.319Z" transform="translate(-212.732 -144.094)" fill="#fff"/>
            </g>
            <g id="Group_868" data-name="Group 868" transform="translate(129.595)">
              <path id="Path_10284" data-name="Path 10284" d="M361.85,85.062l-1.588.151.506,5.336a.545.545,0,0,1-.5.6.55.55,0,0,1-.6-.5l-.505-5.336-1.579.149a.56.56,0,0,1-.6-.508.544.544,0,0,1,.5-.6l4.266-.4a.552.552,0,0,1,.6.5A.566.566,0,0,1,361.85,85.062Z" transform="translate(-356.978 -83.431)" fill="#fff"/>
              <path id="Path_10285" data-name="Path 10285" d="M367.765,90.119,367.53,84.2a.544.544,0,0,1,.529-.573h.03l3.249-.13a.557.557,0,0,1,.574.53.565.565,0,0,1-.529.583l-2.717.108.073,1.835,2.337-.093a.557.557,0,0,1,.044,1.113l-2.337.093.074,1.845,2.718-.108a.557.557,0,0,1,.044,1.113l-3.249.13c-.02,0-.019-.01-.019-.01l-.01.01A.55.55,0,0,1,367.765,90.119Z" transform="translate(-360.239 -83.291)" fill="#fff"/>
              <path id="Path_10286" data-name="Path 10286" d="M376.064,88.638a.523.523,0,0,1,.733-.059,3.274,3.274,0,0,0,1.9.8,2.161,2.161,0,0,0,1.26-.352.906.906,0,0,0,.443-.716.58.58,0,0,0-.086-.323.947.947,0,0,0-.3-.305,4.016,4.016,0,0,0-1.367-.493h-.021a5.413,5.413,0,0,1-1.288-.411,2.158,2.158,0,0,1-.922-.8,1.545,1.545,0,0,1-.218-.826,1.856,1.856,0,0,1,.825-1.453,2.967,2.967,0,0,1,1.744-.506,3.937,3.937,0,0,1,2.176.836.517.517,0,0,1,.129.715.506.506,0,0,1-.714.14,2.909,2.909,0,0,0-1.606-.667,1.917,1.917,0,0,0-1.128.324.8.8,0,0,0-.391.626.488.488,0,0,0,.066.283.966.966,0,0,0,.267.265,3.451,3.451,0,0,0,1.248.461h.019a5.95,5.95,0,0,1,1.379.442,2.35,2.35,0,0,1,.99.849,1.621,1.621,0,0,1,.229.856,1.94,1.94,0,0,1-.887,1.542,3.135,3.135,0,0,1-1.865.544,4.324,4.324,0,0,1-2.554-1.043A.533.533,0,0,1,376.064,88.638Z" transform="translate(-362.842 -83.198)" fill="#fff"/>
              <path id="Path_10287" data-name="Path 10287" d="M390.389,85.095l-1.592-.113-.382,5.346a.542.542,0,0,1-.589.511.551.551,0,0,1-.513-.589L387.7,84.9l-1.582-.113a.56.56,0,0,1-.511-.6.545.545,0,0,1,.59-.511l4.275.305a.55.55,0,0,1,.511.59A.565.565,0,0,1,390.389,85.095Z" transform="translate(-365.826 -83.346)" fill="#fff"/>
            </g>
            <g id="Group_869" data-name="Group 869" transform="translate(224.707 35.862)">
              <path id="Path_10288" data-name="Path 10288" d="M494.826,139.171l4.432-3.926a.544.544,0,0,1,.779.047l.786.887a3.512,3.512,0,0,1-5.258,4.657l-.786-.886A.55.55,0,0,1,494.826,139.171Zm1.159.462.413.466a2.4,2.4,0,0,0,3.591-3.181l-.413-.466Z" transform="translate(-494.64 -135.103)" fill="#fff"/>
              <path id="Path_10289" data-name="Path 10289" d="M501.133,146.542l4.638-3.687a.545.545,0,0,1,.777.088l.006.008.012.016,2.024,2.547a.558.558,0,0,1-.088.777.567.567,0,0,1-.785-.083l-1.693-2.131-1.439,1.144,1.456,1.832a.557.557,0,0,1-.873.694l-1.456-1.832-1.447,1.15,1.693,2.131a.558.558,0,0,1-.873.694l-2.024-2.547c-.012-.016,0-.022,0-.022h-.014A.551.551,0,0,1,501.133,146.542Z" transform="translate(-496.582 -137.461)" fill="#fff"/>
              <path id="Path_10290" data-name="Path 10290" d="M507.887,155.414a.384.384,0,0,0,0-.086c.008-.006,0-.015.019-.026a.256.256,0,0,1,.021-.075.01.01,0,0,1,0-.014.339.339,0,0,0,.038-.088l3.381-5.389a.535.535,0,0,1,.757-.164.541.541,0,0,1,.173.751L509.6,154.6l4.931-1.075a.554.554,0,0,1,.244,1.081l-6.226,1.347a.29.29,0,0,1-.088.012c-.008.006-.008.006-.014,0-.023,0-.057-.01-.078-.007a.067.067,0,0,1-.037,0c-.028,0-.048-.015-.076-.02l-.02-.011a.6.6,0,0,1-.087-.037c-.005-.008-.005-.008-.02-.01a.194.194,0,0,0-.063-.054l-.011-.017a.386.386,0,0,1-.066-.077.312.312,0,0,1-.05-.088l-.011-.017a.268.268,0,0,0-.03-.077.011.011,0,0,0,0-.015l-.006-.008c0-.023,0-.073,0-.109Z" transform="translate(-498.734 -139.547)" fill="#fff"/>
              <path id="Path_10291" data-name="Path 10291" d="M512.267,162.052l5.027-3.136a.546.546,0,0,1,.761.177l.005.008.01.017,1.722,2.761a.558.558,0,0,1-.177.761.566.566,0,0,1-.769-.171l-1.44-2.309-1.56.973,1.239,1.985a.558.558,0,0,1-.947.59l-1.238-1.985-1.567.978,1.44,2.309a.557.557,0,0,1-.946.59l-1.722-2.76c-.01-.017,0-.023,0-.023l-.013,0A.55.55,0,0,1,512.267,162.052Z" transform="translate(-500.008 -142.437)" fill="#fff"/>
              <path id="Path_10292" data-name="Path 10292" d="M516.718,169.494l5.176-2.869a.55.55,0,0,1,.75.215.559.559,0,0,1-.211.759l-4.684,2.6,1.318,2.377a.556.556,0,0,1-.973.54l-1.577-2.842-.01-.017,0-.009A.55.55,0,0,1,516.718,169.494Z" transform="translate(-501.376 -144.825)" fill="#fff"/>
              <path id="Path_10293" data-name="Path 10293" d="M528.162,179.029a3.689,3.689,0,0,1-4.575,2.2,3.287,3.287,0,0,1-2.009-1.7,3.384,3.384,0,0,1-.1-2.681,3.74,3.74,0,0,1,4.575-2.2,3.348,3.348,0,0,1,2.035,1.749A3.252,3.252,0,0,1,528.162,179.029Zm-2.344.984a2.6,2.6,0,0,0,1.286-1.376,2.164,2.164,0,0,0-1.394-2.894,2.55,2.55,0,0,0-1.879.147,2.5,2.5,0,0,0-1.276,1.372,2.143,2.143,0,0,0,1.393,2.894A2.553,2.553,0,0,0,525.817,180.013Z" transform="translate(-502.864 -147.275)" fill="#fff"/>
              <path id="Path_10294" data-name="Path 10294" d="M528.412,188.806l-.466-1.144-2.017.823a.557.557,0,0,1-.421-1.032l5.485-2.236a.55.55,0,0,1,.719.3l0,.009.674,1.655a2.149,2.149,0,1,1-3.979,1.623Zm.566-1.565.466,1.143a1.034,1.034,0,1,0,1.915-.781l-.466-1.143Z" transform="translate(-504.075 -150.58)" fill="#fff"/>
            </g>
            <g id="Group_870" data-name="Group 870" transform="translate(230.275 168.536)">
              <path id="Path_10295" data-name="Path 10295" d="M507.677,373.874l-4.753-3.529a.544.544,0,0,1-.113-.772l.7-.951a3.513,3.513,0,0,1,5.64,4.188l-.706.951A.55.55,0,0,1,507.677,373.874Zm.214-1.228.37-.5a2.4,2.4,0,0,0-3.85-2.86l-.372.5Z" transform="translate(-502.698 -339.519)" fill="#fff"/>
              <path id="Path_10296" data-name="Path 10296" d="M513.463,365.642l-4.943-3.262a.545.545,0,0,1-.157-.766l.006-.008.01-.017,1.792-2.714a.558.558,0,0,1,.766-.157.566.566,0,0,1,.164.771l-1.5,2.27,1.533,1.012,1.289-1.953a.557.557,0,0,1,.93.614l-1.289,1.952,1.541,1.018,1.5-2.271a.557.557,0,0,1,.93.614l-1.792,2.714c-.011.017-.019.012-.019.012l0,.014A.55.55,0,0,1,513.463,365.642Z" transform="translate(-504.42 -336.867)" fill="#fff"/>
              <path id="Path_10297" data-name="Path 10297" d="M517.259,357.777a.522.522,0,0,1,.307-.669,3.267,3.267,0,0,0,1.633-1.268,2.168,2.168,0,0,0,.312-1.271.9.9,0,0,0-.408-.737.568.568,0,0,0-.323-.084.952.952,0,0,0-.412.108,4.036,4.036,0,0,0-1.1.951l-.01.017a5.423,5.423,0,0,1-.99.921,2.146,2.146,0,0,1-1.146.413,1.537,1.537,0,0,1-.828-.215,1.853,1.853,0,0,1-.863-1.432,2.976,2.976,0,0,1,.414-1.768,3.932,3.932,0,0,1,1.8-1.487.517.517,0,0,1,.687.238.509.509,0,0,1-.229.692,2.911,2.911,0,0,0-1.369,1.072,1.924,1.924,0,0,0-.271,1.144.8.8,0,0,0,.354.648.5.5,0,0,0,.278.08.982.982,0,0,0,.362-.1,3.461,3.461,0,0,0,1.014-.862l.01-.017a5.9,5.9,0,0,1,1.062-.985,2.337,2.337,0,0,1,1.225-.448,1.627,1.627,0,0,1,.859.221,1.941,1.941,0,0,1,.91,1.529,3.15,3.15,0,0,1-.44,1.893,4.324,4.324,0,0,1-2.161,1.715A.533.533,0,0,1,517.259,357.777Z" transform="translate(-506.012 -334.573)" fill="#fff"/>
              <path id="Path_10298" data-name="Path 10298" d="M517.818,348.145a.543.543,0,0,1-.233-.744.56.56,0,0,1,.75-.242l5.245,2.75a.56.56,0,0,1,.229.754.546.546,0,0,1-.746.233Z" transform="translate(-507.279 -333.302)" fill="#fff"/>
              <path id="Path_10299" data-name="Path 10299" d="M522.564,344.075a3.656,3.656,0,0,1-1.739-4.878,3.708,3.708,0,0,1,1.669-1.749.576.576,0,0,1,.783.239.583.583,0,0,1-.258.776,2.608,2.608,0,0,0-1.155,1.213,2.488,2.488,0,0,0-.091,1.947,2.378,2.378,0,0,0,3.152,1.453,2.486,2.486,0,0,0,1.42-1.333,2.756,2.756,0,0,0,.23-1.407l-1.248-.575-.6,1.3a.578.578,0,0,1-.759.28.563.563,0,0,1-.272-.755l.828-1.793,0-.01,0-.009a.564.564,0,0,1,.753-.293l2.013.928a.859.859,0,0,1,.142.1c.014.017.023.021.037.039l.01,0a.475.475,0,0,1,.139.274,3.7,3.7,0,0,1-.244,2.4A3.644,3.644,0,0,1,522.564,344.075Z" transform="translate(-508.193 -330.298)" fill="#fff"/>
              <path id="Path_10300" data-name="Path 10300" d="M530.462,333.168a.547.547,0,1,1-.384,1.024l-5.455-2.051-.01,0a.543.543,0,0,1-.354-.369.552.552,0,0,1,.381-.672l5.337-1.454-3.869-1.455a.544.544,0,0,1-.316-.7.554.554,0,0,1,.7-.325l5.455,2.051a.556.556,0,0,1,.322.711.541.541,0,0,1-.332.314.238.238,0,0,1-.073.026l-5.3,1.437Z" transform="translate(-509.357 -327.131)" fill="#fff"/>
            </g>
            <g id="Group_871" data-name="Group 871" transform="translate(0 241.649)">
              <path id="Path_10301" data-name="Path 10301" d="M171.754,437.245h-1.233v2.177a.557.557,0,0,1-1.114,0V433.5a.55.55,0,0,1,.552-.552h1.8a2.147,2.147,0,1,1,0,4.293Zm-1.233-1.113h1.233a1.033,1.033,0,1,0,0-2.067h-1.233Z" transform="translate(-169.407 -432.952)" fill="#fff"/>
              <path id="Path_10302" data-name="Path 10302" d="M177.889,439.422V433.5a.55.55,0,0,1,.552-.552.559.559,0,0,1,.562.552v5.357h2.719a.557.557,0,0,1,0,1.114h-3.28A.551.551,0,0,1,177.889,439.422Z" transform="translate(-172.029 -432.952)" fill="#fff"/>
              <path id="Path_10303" data-name="Path 10303" d="M189.459,438.323h-2.438l-.491,1.3a.573.573,0,0,1-.712.32.57.57,0,0,1-.332-.723l2.218-5.909a.561.561,0,0,1,.532-.351.551.551,0,0,1,.531.351l2.217,5.909a.569.569,0,0,1-.331.723.525.525,0,0,1-.191.03.541.541,0,0,1-.512-.351Zm-.411-1.1-.813-2.158-.813,2.158Z" transform="translate(-174.367 -432.956)" fill="#fff"/>
              <path id="Path_10304" data-name="Path 10304" d="M196.58,439.454a.547.547,0,1,1-1.093,0v-5.838a.54.54,0,0,1,.221-.462.552.552,0,0,1,.762.12l3.24,4.484v-4.133a.546.546,0,0,1,.542-.542.555.555,0,0,1,.552.542v5.828a.557.557,0,0,1-.552.552.541.541,0,0,1-.411-.2.276.276,0,0,1-.05-.059l-3.211-4.454Z" transform="translate(-177.468 -432.983)" fill="#fff"/>
            </g>
            <g id="Group_872" data-name="Group 872" transform="translate(243.851 241.448)">
              <path id="Path_10305" data-name="Path 10305" d="M522.348,439.422V433.5a.551.551,0,0,1,.552-.552.558.558,0,0,1,.562.552v5.357h2.72a.557.557,0,0,1,0,1.114H522.9A.551.551,0,0,1,522.348,439.422Z" transform="translate(-522.348 -432.751)" fill="#fff"/>
              <path id="Path_10306" data-name="Path 10306" d="M533.933,438.323h-2.438l-.491,1.3a.573.573,0,0,1-.712.32.57.57,0,0,1-.332-.723l2.218-5.909a.561.561,0,0,1,.531-.351.552.552,0,0,1,.532.351l2.217,5.909a.569.569,0,0,1-.331.723.528.528,0,0,1-.191.03.538.538,0,0,1-.511-.351Zm-.412-1.1-.812-2.158-.813,2.158Z" transform="translate(-524.691 -432.755)" fill="#fff"/>
              <path id="Path_10307" data-name="Path 10307" d="M542.467,439.974a2.894,2.894,0,0,1-2.9-2.9V433.5a.544.544,0,0,1,.552-.552.559.559,0,0,1,.562.552v3.571a1.786,1.786,0,1,0,3.571,0V433.5a.553.553,0,0,1,.562-.552.544.544,0,0,1,.551.552v3.571A2.9,2.9,0,0,1,542.467,439.974Z" transform="translate(-527.67 -432.751)" fill="#fff"/>
              <path id="Path_10308" data-name="Path 10308" d="M552.3,439.454a.547.547,0,1,1-1.093,0v-5.838a.539.539,0,0,1,.22-.462.553.553,0,0,1,.763.12l3.24,4.484v-4.133a.546.546,0,0,1,.542-.542.555.555,0,0,1,.551.542v5.828a.557.557,0,0,1-.551.552.544.544,0,0,1-.412-.2.253.253,0,0,1-.05-.059l-3.211-4.454Z" transform="translate(-531.269 -432.782)" fill="#fff"/>
              <path id="Path_10309" data-name="Path 10309" d="M561.929,436.273a3.682,3.682,0,0,1,3.682-3.612,3.749,3.749,0,0,1,2.317.784.576.576,0,0,1-.7.913,2.5,2.5,0,0,0-1.615-.552,2.659,2.659,0,0,0-1.806.722,2.476,2.476,0,0,0-.732,1.746,2.436,2.436,0,0,0,.732,1.745,2.653,2.653,0,0,0,1.806.722,2.519,2.519,0,0,0,1.615-.551.608.608,0,0,1,.8.111.593.593,0,0,1-.1.8,3.756,3.756,0,0,1-2.317.782A3.669,3.669,0,0,1,561.929,436.273Z" transform="translate(-534.582 -432.661)" fill="#fff"/>
              <path id="Path_10310" data-name="Path 10310" d="M573.608,439.422V433.5a.544.544,0,0,1,.552-.552.552.552,0,0,1,.562.552v2.407h2.6V433.5a.545.545,0,0,1,.552-.552.553.553,0,0,1,.562.552v5.918a.553.553,0,0,1-.562.552.545.545,0,0,1-.552-.552v-2.407h-2.6v2.407a.552.552,0,0,1-.562.552A.545.545,0,0,1,573.608,439.422Z" transform="translate(-538.192 -432.751)" fill="#fff"/>
            </g>
          </g>
        </g>
        <g id="Light_bulb" data-name="Light bulb" transform="translate(19.346 3.019)">
          <g id="Group_884" data-name="Group 884">
            <g id="Group_874" data-name="Group 874">
              <path id="Path_10311" data-name="Path 10311" d="M129.473,49.153a35.425,35.425,0,0,1-.155-10.018,35.372,35.372,0,0,1,.155,10.018Z" transform="translate(-73.918 -39.135)" fill="#263238"/>
              <path id="Path_10312" data-name="Path 10312" d="M94.236,58.928a35.414,35.414,0,0,1-5.144-8.6,35.423,35.423,0,0,1,5.144,8.6Z" transform="translate(-61.572 -42.595)" fill="#263238"/>
              <path id="Path_10313" data-name="Path 10313" d="M68.5,85.076A35.407,35.407,0,0,1,59.743,80.2,35.407,35.407,0,0,1,68.5,85.076Z" transform="translate(-52.501 -51.828)" fill="#263238"/>
              <path id="Path_10314" data-name="Path 10314" d="M59.28,120.394a35.4,35.4,0,0,1-10.019.155,35.4,35.4,0,0,1,10.019-.155Z" transform="translate(-49.261 -64.164)" fill="#263238"/>
              <path id="Path_10315" data-name="Path 10315" d="M69.054,153.653a35.4,35.4,0,0,1-8.6,5.144,35.4,35.4,0,0,1,8.6-5.144Z" transform="translate(-52.721 -74.531)" fill="#263238"/>
              <path id="Path_10316" data-name="Path 10316" d="M187.9,152.806a35.446,35.446,0,0,1,8.754,4.875,35.353,35.353,0,0,1-8.754-4.875Z" transform="translate(-92.114 -74.269)" fill="#263238"/>
              <path id="Path_10317" data-name="Path 10317" d="M196.555,119.347a35.4,35.4,0,0,1,10.018-.155,35.4,35.4,0,0,1-10.018.155Z" transform="translate(-94.788 -63.792)" fill="#263238"/>
              <path id="Path_10318" data-name="Path 10318" d="M187.415,84.109a35.4,35.4,0,0,1,8.6-5.144,35.379,35.379,0,0,1-8.6,5.144Z" transform="translate(-91.963 -51.446)" fill="#263238"/>
              <path id="Path_10319" data-name="Path 10319" d="M162.933,58.37a35.377,35.377,0,0,1,4.875-8.754,35.411,35.411,0,0,1-4.875,8.754Z" transform="translate(-84.396 -42.375)" fill="#263238"/>
            </g>
            <g id="Group_883" data-name="Group 883" transform="translate(16.165 16.566)">
              <g id="Group_882" data-name="Group 882">
                <g id="Group_876" data-name="Group 876" opacity="0.5">
                  <g id="Group_875" data-name="Group 875">
                    <path id="Path_10320" data-name="Path 10320" d="M152.09,105.646c-2.034,24.561-22.523,31.906-22.523,31.906-1.516,3.73-3.944,14.877-3.944,14.877l-26.74-.079s-2.075-11.16-3.569-14.9c0,0-20.445-7.467-22.334-32.039C71.667,88.34,83.9,63.143,112.511,63.221h.3C141.421,63.311,153.5,88.581,152.09,105.646Z" transform="translate(-72.728 -63.146)" fill="#ffc727"/>
                    <path id="Path_10321" data-name="Path 10321" d="M152.02,105.613c-.941,13.941-9.619,26.642-22.475,31.926-1.792,4.809-2.7,10.066-3.992,14.929-.09,0-26.746-.041-26.828-.045-.728-3.789-1.509-7.574-2.474-11.311a34.531,34.531,0,0,0-1.123-3.647l.074.072a35.2,35.2,0,0,1-9.131-5.614A37.8,37.8,0,0,1,72.661,103.64c-.164-14.28,7.484-28.79,20.121-35.749a40.179,40.179,0,0,1,20.681-4.762,37.936,37.936,0,0,1,34.38,21.709,41.025,41.025,0,0,1,4.176,20.776Zm0,0a41,41,0,0,0-4.226-20.752c-8.238-17.256-26.7-24.552-44.953-20.559C85,67.942,72.606,85.817,72.991,103.633a37.4,37.4,0,0,0,22.37,33.739A113.322,113.322,0,0,1,98.917,152.3c-.611-.18,26.767.059,26.636.026a110.507,110.507,0,0,1,3.9-14.846c12.936-5.306,21.606-18,22.564-31.866Z" transform="translate(-72.658 -63.113)" fill="#263238"/>
                  </g>
                </g>
                <g id="Group_877" data-name="Group 877" transform="translate(23.558 44.061)">
                  <rect id="Rectangle_506" data-name="Rectangle 506" width="2.072" height="45.381" transform="matrix(0.984, -0.181, 0.181, 0.984, 0, 3.09)" fill="#263238"/>
                  <rect id="Rectangle_507" data-name="Rectangle 507" width="45.381" height="2.073" transform="translate(21.984 47.382) rotate(-79.268)" fill="#263238"/>
                  <path id="Path_10322" data-name="Path 10322" d="M123.581,144.652h-.012c-2.534-.007-4.853-2.36-6.486-5.373a3.367,3.367,0,0,1-2.4,1.311h-.006c-4.194-.012-5.85-8.665-5.918-9.034l.68-.126c.015.084,1.615,8.459,5.241,8.468h0a2.935,2.935,0,0,0,2.055-1.28,18.99,18.99,0,0,1-2.056-7.933c.007-2.416.918-3.8,2.5-3.8h.008a2.526,2.526,0,0,1,2.3,1.316c1.257,2.192.321,6.729-1.342,9.591a10.148,10.148,0,0,1-.589.9c1.521,2.93,3.689,5.259,6.014,5.265h.009c1.742,0,3.5-1.368,4.94-3.854q.186-.318.359-.652a11.535,11.535,0,0,1-2.551-7.505c.008-3.1,1.178-5.031,3.052-5.031h.008a1.971,1.971,0,0,1,1.755,1.087c1.238,2.158.538,7.3-1.436,11.344a4.07,4.07,0,0,0,2.83,1.175h0c2.575,0,4.86-6.127,5.524-8.49l.665.187c-.1.368-2.567,8.994-6.189,8.994h-.007a4.709,4.709,0,0,1-3.142-1.253q-.134.25-.275.492C128,142.371,126.141,144.652,123.581,144.652Zm5.8-17.043c-1.734,0-2.356,2.338-2.362,4.342a11.5,11.5,0,0,0,2.181,6.855c1.773-3.779,2.442-8.545,1.344-10.458a1.283,1.283,0,0,0-1.158-.74Zm-12.2-.034c-1.566,0-1.805,1.949-1.809,3.112a18.287,18.287,0,0,0,1.833,7.3q.173-.257.341-.545c1.535-2.64,2.462-6.944,1.34-8.9a1.821,1.821,0,0,0-1.7-.969Z" transform="translate(-107.375 -126.885)" fill="#263238"/>
                </g>
                <g id="Group_880" data-name="Group 880" transform="translate(20.832 89.193)">
                  <rect id="Rectangle_508" data-name="Rectangle 508" width="35.494" height="19.534" transform="translate(1.09 0) rotate(0.169)" fill="#c7c7c7"/>
                  <g id="Group_878" data-name="Group 878" transform="translate(5.056 19.545)">
                    <path id="Path_10323" data-name="Path 10323" d="M137.573,220.577c-2.1,3.7-6.111,6.994-13.744,6.971s-11.626-3.345-13.7-7.052Z" transform="translate(-110.127 -220.496)" fill="#c7c7c7"/>
                    <path id="Path_10324" data-name="Path 10324" d="M137.573,220.577a13.154,13.154,0,0,1-2.308,3l-24.431-1.946a12.88,12.88,0,0,1-.707-1.131Z" transform="translate(-110.127 -220.496)" fill="#a6a6a6"/>
                  </g>
                  <g id="Group_879" data-name="Group 879" transform="translate(0 2.129)">
                    <path id="Path_10325" data-name="Path 10325" d="M140.434,196.993l-37.58,3.363,0-1.7,37.58-3.363Z" transform="translate(-102.823 -195.289)" fill="#a6a6a6"/>
                    <path id="Path_10326" data-name="Path 10326" d="M140.412,204.456l-37.58,3.363,0-1.7,37.58-3.363Z" transform="translate(-102.817 -197.596)" fill="#a6a6a6"/>
                    <path id="Path_10327" data-name="Path 10327" d="M140.39,211.92l-37.58,3.363,0-1.7,37.58-3.363Z" transform="translate(-102.81 -199.903)" fill="#a6a6a6"/>
                  </g>
                </g>
                <g id="Group_881" data-name="Group 881" transform="translate(7.09 6.477)" opacity="0.7">
                  <path id="Path_10328" data-name="Path 10328" d="M83.487,100.027c1.3.221,3-6.488,10.249-14.241,3.219-3.444,15.4-7.728,14.536-11.716s-11.734.078-17.215,6.39C82.24,90.616,82.29,99.824,83.487,100.027Z" transform="translate(-82.92 -72.487)" fill="#fff"/>
                  <path id="Path_10329" data-name="Path 10329" d="M177.029,116.6a1.861,1.861,0,0,0,.011-3.72A1.861,1.861,0,0,0,177.029,116.6Z" transform="translate(-111.454 -84.973)" fill="#fff"/>
                  <path id="Path_10330" data-name="Path 10330" d="M160.857,148.531c1.306,1,7.675-4.84,10.559-11.826,2.394-5.8,2.825-13.136,1.228-13.565s-2.663,9.635-4.6,13.338C165.608,141.151,159.461,147.461,160.857,148.531Z" transform="translate(-106.947 -88.139)" fill="#fff"/>
                </g>
              </g>
            </g>
          </g>
        </g>
        <g id="Character_2" data-name="Character 2" transform="translate(323.893 20.666)">
          <g id="Group_923" data-name="Group 923" transform="translate(0 0)">
            <g id="Group_893" data-name="Group 893" transform="translate(34.453 79.05)">
              <g id="Group_887" data-name="Group 887" transform="translate(0 0.028)">
                <g id="Group_885" data-name="Group 885" transform="translate(0 147.909)">
                  <path id="Path_10331" data-name="Path 10331" d="M540.675,442.66c1.736.576,51.272.433,53.159-.765.712-.448,1.114-7.67,1.349-16.4q.08-2.831.121-5.813c.038-2.341.068-4.714.084-7.018.061-10.346-.084-19.455-.084-19.455H563.055l.015,19.455.008,7.018.167,5.813s-18.939,8.541-20.864,10.08S538.947,442.092,540.675,442.66Z" transform="translate(-539.918 -393.208)" fill="#ad6359"/>
                  <path id="Path_10332" data-name="Path 10332" d="M540.679,457.9c1.729.579,51.268.433,53.152-.764.671-.417,1.065-6.707,1.3-14.617-3.967,1.836-38.225,8.867-46.3,8.96-7.749.077,4.584-6.166,6.552-7.138-5.449,2.532-11.916,5.611-13,6.475C540.463,452.349,538.95,457.334,540.679,457.9Z" transform="translate(-539.919 -408.449)" fill="#263238"/>
                </g>
                <g id="Group_886" data-name="Group 886" transform="translate(20.995)">
                  <path id="Path_10333" data-name="Path 10333" d="M622.112,179.13s-16.9,84.892-18.094,91.158c-.275,1.427,3.265,83.768,3.265,83.768H570.306s-.025-72.731,1.492-85.25,20.657-89.676,20.657-89.676Z" transform="translate(-570.306 -179.13)" fill="#263238"/>
                  <path id="Path_10334" data-name="Path 10334" d="M632.022,179.134s-8.225,41.315-13.612,68.429l-16.051-68.429Z" transform="translate(-580.213 -179.131)" fill="#37474f"/>
                  <path id="Path_10335" data-name="Path 10335" d="M579.2,360.277c.133-24.909.19-49.8.833-74.7,3.421-18.65,7.733-38.434,11.741-56.919l-3.145,16.3c-2.273,11.869-5.809,28.867-7.921,40.69-.578,20.434-1,54.141-1.508,74.636Z" transform="translate(-573.056 -194.438)" fill="#455a64"/>
                </g>
              </g>
              <g id="Group_892" data-name="Group 892" transform="translate(42.549)">
                <g id="Group_888" data-name="Group 888" transform="translate(0 147.937)">
                  <path id="Path_10336" data-name="Path 10336" d="M602.275,443.012c1.742.56,51.274-.063,53.149-1.278.708-.454,1.04-7.68,1.191-16.413.035-1.888-1.226-32.113-1.226-32.113l-31.211.138.5,32.283s-18.856,8.724-20.766,10.281S600.542,442.461,602.275,443.012Z" transform="translate(-601.502 -393.208)" fill="#ad6359"/>
                  <path id="Path_10337" data-name="Path 10337" d="M602.276,458.659c1.737.562,51.275-.063,53.15-1.28.628-.407.953-6.157,1.129-13.552-7.174,2.156-37.79,7.7-45.34,7.626-6.853-.071,2.091-4.76,5.632-6.5-5.427,2.579-11.858,5.723-12.933,6.6C602.005,453.1,600.539,458.1,602.276,458.659Z" transform="translate(-601.502 -408.854)" fill="#263238"/>
                </g>
                <g id="Group_891" data-name="Group 891" transform="translate(0.565)">
                  <g id="Group_890" data-name="Group 890">
                    <g id="Group_889" data-name="Group 889">
                      <path id="Path_10338" data-name="Path 10338" d="M622.345,354.709H660s-7.133-55.631-7.7-64.979c-.289-4.768-3.327-56.541-6.09-79.471a43.917,43.917,0,0,0-4.567-31.168H602.32s.623,16.99,5.135,28.305a68.762,68.762,0,0,1,10.244,4.567s1.982,70.714,2.612,82.858C621.112,310.264,622.345,354.709,622.345,354.709Z" transform="translate(-602.32 -179.09)" fill="#263238"/>
                    </g>
                  </g>
                  <path id="Path_10339" data-name="Path 10339" d="M636.627,366.147c-1.4-22.572-3.59-53.757-4.386-76.463-.393-18.418-.766-41.108-.936-59.558.594,18.461,1.155,41.112,1.59,59.543.856,22.726,2.878,53.846,3.732,76.478Z" transform="translate(-611.279 -194.865)" fill="#455a64"/>
                </g>
              </g>
            </g>
            <g id="Group_922" data-name="Group 922">
              <path id="Path_10340" data-name="Path 10340" d="M630.765,109.669a3.212,3.212,0,0,0,3.954-4.275,2.952,2.952,0,0,0,3.362-1.312,2.829,2.829,0,0,0-.869-3.653c-.008-.006-.021.006-.012.014a2.9,2.9,0,0,1,.679,3.514,2.6,2.6,0,0,1-2.6,1.26,3.547,3.547,0,0,0,2.239-1.732,2.754,2.754,0,0,0-.354-3.025,4.051,4.051,0,0,0,1.582-3.274,2.751,2.751,0,0,0-1.8-2.416,3.076,3.076,0,0,0-2.569-5.035,2.581,2.581,0,0,0-1.738-3.984,1.742,1.742,0,0,0-.321-1.85,2.908,2.908,0,0,0-2.066-.846,2.077,2.077,0,0,0-1.2-1.584,1.883,1.883,0,0,0-2.319.764,5.2,5.2,0,0,0-3.387-1.47,2.7,2.7,0,0,0-2.481,1.655,3.733,3.733,0,0,0-5.362,1.565,2.63,2.63,0,0,0-2.532.68,3.876,3.876,0,0,0-1.031,1.562,1.966,1.966,0,0,0-2.079.973,2.594,2.594,0,0,0-.079,2.222,1.489,1.489,0,0,1-.286.6,3.416,3.416,0,0,0-.57,3.176,2.329,2.329,0,0,0-.371,3.475,2.619,2.619,0,0,0,.474,3.645,3.812,3.812,0,0,0-.453,3.142,2.211,2.211,0,0,0,1.745,1.687,1.338,1.338,0,0,0,.656,1.655,3.34,3.34,0,0,0,.679.289,2.838,2.838,0,0,1,.891.312c.243.189.307.541.439.8a3.024,3.024,0,0,0,.345.529,3.465,3.465,0,0,0,4.257.83,2.8,2.8,0,0,0,2.791,1.245,5.961,5.961,0,0,0,1.03-.184,1.513,1.513,0,0,1,.918-.013c.193.069.37.181.565.252a2.39,2.39,0,0,0,1.888-.276C626.27,113.221,629.849,112.285,630.765,109.669ZM609.921,87.66a2.072,2.072,0,0,1,1.987-1.341c-.017.063-.026.105-.026.105s-.276.077-.406.128a2.637,2.637,0,0,0-.653.392,2.7,2.7,0,0,0-.879,1.3,2.857,2.857,0,0,0-.108.7c0,.032,0,.057-.007.088A2.512,2.512,0,0,1,609.921,87.66Zm19.234-5.495a2,2,0,0,0-2.281.189l-.051-.042a1.77,1.77,0,0,1,2.165-.678,1.738,1.738,0,0,1,1.018,1.408h-.012A2.2,2.2,0,0,0,629.155,82.166ZM624.9,110.528l.027-.014a3.6,3.6,0,0,0,5.019.1C628.529,112.133,626.424,112.627,624.9,110.528Z" transform="translate(-526.489 -69.649)" fill="#263238"/>
              <path id="Path_10341" data-name="Path 10341" d="M607.449,73.139s-2.939.967-3.725,2.959c-1.282,3.251-.54,8.653-.54,8.653Z" transform="translate(-524.954 -67.292)" fill="#263238"/>
              <g id="Group_901" data-name="Group 901" transform="translate(0 33.284)">
                <g id="Group_898" data-name="Group 898" transform="translate(0 0.584)">
                  <path id="Path_10342" data-name="Path 10342" d="M597.6,120.786c-3.414,9.269-21.311,31.286-28.739,33.142-5.372,1.342-26.155-9.785-33.622-15.487-2.8-2.141,10.11-17.542,13.71-15.358,5.081,3.083,16.36,10.081,18.526,10.04,1.519-.028,9.777-6,22.317-16.7C596.735,110.509,599.643,115.253,597.6,120.786Z" transform="translate(-503.898 -113.696)" fill="#ad6359"/>
                  <g id="Group_897" data-name="Group 897" transform="translate(0 6.66)">
                    <path id="Path_10343" data-name="Path 10343" d="M532.09,123.774c3.9,1.306,8.455,6.686,8.455,6.686l-12.59,13.925s-8.333-3.66-11.723-4.663c-.984-.291-6.2-3.238-11.243-4.606-5.729-1.552-11.537-3.913-11.92-4.519-.735-1.164.743-2.927,4.845-2.792s12.058,1.779,12.561,1.753a3.373,3.373,0,0,0,.489-.125l0,0c.187-.123,2.74-5.363,5.337-5.818C518.954,123.147,531.5,123.314,532.09,123.774Z" transform="translate(-490.929 -123.335)" fill="#ad6359"/>
                    <g id="Group_894" data-name="Group 894" transform="translate(0 0.877)">
                      <path id="Path_10344" data-name="Path 10344" d="M516.944,133.2s-9.834,1.812-11.728.95-14.052-4.3-14.812-5.454.745-2.927,4.847-2.794,12.055,1.781,12.562,1.755,8.79-3.012,9.637-3.056S516.944,133.2,516.944,133.2Z" transform="translate(-490.102 -124.604)" fill="#ad6359"/>
                      <path id="Path_10345" data-name="Path 10345" d="M511.5,135.678c-1.1-.044-2.186-.133-3.28-.218q-.819-.075-1.637-.174c-.273-.035-.546-.069-.82-.115-.137-.019-.276-.049-.415-.076a4.171,4.171,0,0,1-.416-.123c-2.073-.672-4.156-1.359-6.229-2.055s-4.137-1.4-6.2-2.17a6.943,6.943,0,0,1-1.486-.8,3.124,3.124,0,0,1-.629-.595,1.416,1.416,0,0,1-.332-.839,1.144,1.144,0,0,1,.368-.817,2.525,2.525,0,0,1,.708-.472,5.977,5.977,0,0,1,1.586-.455,7.072,7.072,0,0,0-1.515.591,2.349,2.349,0,0,0-.616.484.885.885,0,0,0-.243.658,1.737,1.737,0,0,0,.886,1.143,6.553,6.553,0,0,0,1.434.681c2.07.658,4.161,1.343,6.231,2.04s4.141,1.408,6.2,2.19a7.907,7.907,0,0,0,1.552.369c.537.094,1.078.172,1.617.255Z" transform="translate(-490.052 -125.273)" fill="#263238"/>
                    </g>
                    <g id="Group_895" data-name="Group 895" transform="translate(0.295 0.132)">
                      <path id="Path_10346" data-name="Path 10346" d="M518.471,131.059s-10.786,1.944-12.68,1.082-14.052-4.3-14.813-5.454.744-2.927,4.847-2.795,12.054,1.782,12.561,1.755,8.8-2.077,9.651-2.121S518.471,131.059,518.471,131.059Z" transform="translate(-490.575 -123.526)" fill="#ad6359"/>
                      <path id="Path_10347" data-name="Path 10347" d="M513.293,133.572c-1.34-.115-2.673-.28-4.007-.447-.665-.095-1.331-.195-2-.308-.332-.057-.665-.119-1-.19a7.558,7.558,0,0,1-.99-.285q-3.811-1.285-7.617-2.611l-3.795-1.352-.947-.349a8.471,8.471,0,0,1-.956-.4,4.151,4.151,0,0,1-.885-.6,1.818,1.818,0,0,1-.605-.961,1.058,1.058,0,0,1,.068-.618,1.378,1.378,0,0,1,.352-.469,3.11,3.11,0,0,1,.924-.538,9.151,9.151,0,0,1,1.987-.493,11.685,11.685,0,0,1,4.032.14,12.5,12.5,0,0,0-3.984.136,9.233,9.233,0,0,0-1.893.551,2.751,2.751,0,0,0-.79.5.729.729,0,0,0-.262.705,1.388,1.388,0,0,0,.489.687,4.066,4.066,0,0,0,.8.5c.567.269,1.232.459,1.858.685l3.8,1.32c2.533.891,5.066,1.778,7.583,2.723a7.221,7.221,0,0,0,.931.311c.321.082.645.157.972.227.654.14,1.311.267,1.97.389Z" transform="translate(-490.479 -123.624)" fill="#263238"/>
                    </g>
                    <g id="Group_896" data-name="Group 896" transform="translate(5.101 0.132)">
                      <path id="Path_10348" data-name="Path 10348" d="M520.711,131.408s-9.76-.5-11.524-1.3-10.212-2.633-10.919-3.7.693-2.725,4.512-2.6,8.352.285,8.824.26,7.9-.491,8.691-.533S520.711,131.408,520.711,131.408Z" transform="translate(-497.637 -123.526)" fill="#ad6359"/>
                      <path id="Path_10349" data-name="Path 10349" d="M517.865,132.092c-1.718-.2-3.432-.424-5.148-.643q-1.287-.163-2.571-.35l-.643-.1a5.173,5.173,0,0,1-.651-.14c-.424-.113-.838-.241-1.252-.372-1.651-.533-3.287-1.1-4.9-1.725-.808-.312-1.614-.631-2.414-.969-.4-.169-.8-.342-1.2-.527a8.058,8.058,0,0,1-1.188-.643,1.09,1.09,0,0,1-.457-.7,1.111,1.111,0,0,1,.232-.8,3.2,3.2,0,0,1,1.1-.89,5.6,5.6,0,0,1,2.619-.665c1.741.006,3.464.055,5.195.1s3.477.094,5.169.166c.855-.007,1.723-.042,2.586-.07s1.731-.038,2.6-.028c-1.718.251-3.429.443-5.166.587l-5.2-.117c-1.726-.028-3.459-.063-5.177-.055a5.15,5.15,0,0,0-2.362.585,2.7,2.7,0,0,0-.912.713.472.472,0,0,0,.1.752,7.868,7.868,0,0,0,1.088.593c.385.184.778.359,1.173.529.79.341,1.589.665,2.391.982,1.608.625,3.215,1.257,4.845,1.818.407.14.816.278,1.225.4a9.962,9.962,0,0,0,1.248.259l2.556.435Z" transform="translate(-497.434 -123.538)" fill="#263238"/>
                    </g>
                  </g>
                </g>
                <g id="Group_900" data-name="Group 900" transform="translate(36.925)">
                  <g id="Group_899" data-name="Group 899">
                    <path id="Path_10350" data-name="Path 10350" d="M551.692,120.606,543.5,145.5s22.02,10.692,28.527,8.773,22.859-21.292,28.468-32.992c3.414-7.123-.83-11.795-8.913-5.408-8.306,6.562-19.981,15.646-20.873,15.981S551.692,120.606,551.692,120.606Z" transform="translate(-543.496 -112.851)" fill="#ffc727"/>
                    <path id="Path_10351" data-name="Path 10351" d="M609.114,121.278c-5.616,11.7-21.963,31.074-28.47,32.992-2,.589-5.44-.011-9.264-1.114L605.173,113.1l.01-.006h.008a6.4,6.4,0,0,1,.7-.156,3.1,3.1,0,0,1,.35-.049,4.269,4.269,0,0,1,.792-.028,2.539,2.539,0,0,1,.342.023c.113.016.225.032.336.056a3.19,3.19,0,0,1,1.351.638,2.743,2.743,0,0,1,.5.537C610.628,115.583,610.587,118.2,609.114,121.278Z" transform="translate(-552.115 -112.853)" opacity="0.1"/>
                  </g>
                  <path id="Path_10352" data-name="Path 10352" d="M551.852,151.663c.141-.875.446-1.72.667-2.577s.48-1.707.739-2.556c.5-1.633,1.022-3.26,1.553-4.882s1.067-3.245,1.6-4.867c.555-1.675,1.039-3.41,1.725-5.036a.061.061,0,0,1,.117.036c-.373,1.726-.972,3.422-1.48,5.111q-.752,2.5-1.511,5c-.508,1.664-1.025,3.327-1.565,4.981-.265.813-.539,1.621-.837,2.422s-.53,1.645-.906,2.417C551.926,151.777,551.842,151.723,551.852,151.663Z" transform="translate(-546.078 -118.678)" fill="#263238"/>
                </g>
              </g>
              <g id="Group_903" data-name="Group 903" transform="translate(75.018 31.916)">
                <path id="Path_10353" data-name="Path 10353" d="M598.63,161.631l44.472-.209s-8.821-37.233-18.215-47.271c-4.275-4.568-8.453-3.87-11.994-.931-.884.734-11.837,15.278-12.764,20.124-.82,4.282,2.66,9.034,2.66,9.034Z" transform="translate(-598.63 -110.87)" fill="#ffc727"/>
                <g id="Group_902" data-name="Group 902" transform="translate(5.412 29.939)">
                  <path id="Path_10354" data-name="Path 10354" d="M612.368,154.2a33.3,33.3,0,0,1,4.86.8c.792.2,1.569.441,2.345.7.387.127.775.242,1.167.354a5.233,5.233,0,0,0,1.252.236.029.029,0,0,1,0,.059,8.909,8.909,0,0,1-1.206-.023,8.687,8.687,0,0,1-1.15-.216c-.8-.2-1.6-.434-2.4-.64-1.62-.417-3.239-.832-4.885-1.13C612.272,154.324,612.291,154.195,612.368,154.2Z" transform="translate(-608.268 -154.202)" fill="#263238"/>
                  <path id="Path_10355" data-name="Path 10355" d="M606.519,156.214a35.9,35.9,0,0,1,4.06-.195c.678.008,1.351.055,2.027.121.323.031.645.068.966.109.354.045.7.137,1.056.178.037,0,.037.061,0,.058-.335-.028-.676,0-1.012-.008s-.676-.019-1.014-.027c-.676-.017-1.352-.026-2.028-.048-1.354-.046-2.7-.077-4.056-.077C606.443,156.325,606.449,156.221,606.519,156.214Z" transform="translate(-606.464 -154.763)" fill="#263238"/>
                </g>
              </g>
              <g id="Group_909" data-name="Group 909" transform="translate(45.13 33.379)">
                <g id="Group_904" data-name="Group 904" transform="translate(0 27.172)">
                  <path id="Path_10356" data-name="Path 10356" d="M593.955,191.918l-28.263,2.1-8.31-39.6,28.263-2.1Z" transform="translate(-555.993 -152.315)" fill="#263238"/>
                  <path id="Path_10357" data-name="Path 10357" d="M591.945,192.067l-28.263,2.1-8.31-39.6,28.263-2.1Z" transform="translate(-555.372 -152.361)" fill="#455a64"/>
                  <path id="Path_10358" data-name="Path 10358" d="M576.263,179.192a3.069,3.069,0,0,0,3.193,2.527,2.485,2.485,0,0,0,2.3-2.936,3.068,3.068,0,0,0-3.193-2.527A2.486,2.486,0,0,0,576.263,179.192Z" transform="translate(-561.818 -159.712)" fill="#fff"/>
                </g>
                <path id="Path_10359" data-name="Path 10359" d="M629.708,115.8c8.71,9.383,28.876,34.436,24.659,40.334-6.934,9.7-25.153,19.307-30.925,21.631-2.491,1-13.374-16.766-11.1-18.519,2.729-2.1,21.28-10.076,21.019-11.815-.148-.985-3.643-11.428-6.651-21.872C623.222,113.449,626.723,112.589,629.708,115.8Z" transform="translate(-572.885 -113.363)" fill="#ad6359"/>
                <g id="Group_906" data-name="Group 906" transform="translate(9.04 40.92)">
                  <path id="Path_10360" data-name="Path 10360" d="M608.084,175.018s-8.016-1.57-13.307-2.35c-2.952-.435-8.079-.73-10.393-.058-3.462,1.005-17.3,7.42-15.817,10.809,1.343,3.068,12.532-3.953,12.532-3.953s-11.917,6.087-9.621,9.483,13.883-6.218,13.883-6.218-12.1,6.528-9.182,9.656c2.208,2.364,13.193-5.753,13.193-5.753s-10.365,5.683-8.2,8.212c2.393,2.794,13-4.062,13-4.062,6.587,5.5,11.974,6.012,15.8,4.916C610.872,195.443,608.084,175.018,608.084,175.018Z" transform="translate(-568.456 -172.213)" fill="#ad6359"/>
                  <g id="Group_905" data-name="Group 905" transform="translate(3.761 5.185)">
                    <path id="Path_10361" data-name="Path 10361" d="M586.213,179.721c-9.12,3.813-12.424,8.477-12.311,8.371a57.93,57.93,0,0,1,8.86-6.195c1.358-.787,2.124-1.338,3.483-2.126C586.279,179.752,586.248,179.706,586.213,179.721Z" transform="translate(-573.899 -179.718)" fill="#263238"/>
                    <path id="Path_10362" data-name="Path 10362" d="M592.15,186.321a33.634,33.634,0,0,0-10.286,6.009c-.11.107-.04.126.093.045,1.7-1.05,8.473-5.05,10.219-6.013C592.2,186.347,592.178,186.311,592.15,186.321Z" transform="translate(-576.344 -181.758)" fill="#263238"/>
                    <path id="Path_10363" data-name="Path 10363" d="M597.988,191.707a24.969,24.969,0,0,0-7.826,4.887c-.115.1,0,.13.128.045,2.571-1.674,4.576-3,7.743-4.835C598.083,191.776,598.048,191.681,597.988,191.707Z" transform="translate(-578.911 -183.422)" fill="#263238"/>
                  </g>
                </g>
                <g id="Group_908" data-name="Group 908" transform="translate(50.107)">
                  <path id="Path_10364" data-name="Path 10364" d="M628.263,152.627l11.8,20.45s19.88-11.873,20.624-19.652-20.531-33.037-24.518-37.108c-1.128-1.152-4.154-3.727-5.471-3.277-1.483.507-1.13,2.725-.576,7.878.737,6.87,7.839,25.294,7.5,26.1S628.263,152.627,628.263,152.627Z" transform="translate(-628.009 -112.987)" fill="#ffc727"/>
                  <g id="Group_907" data-name="Group 907" transform="translate(0 16.452)">
                    <path id="Path_10365" data-name="Path 10365" d="M645.675,186.4c-.556-.683-.982-1.47-1.472-2.2s-.951-1.485-1.409-2.24c-.882-1.451-1.744-2.916-2.6-4.385s-1.7-2.94-2.552-4.411c-.878-1.521-1.845-3.028-2.6-4.614a.061.061,0,0,1,.1-.064c1.035,1.419,1.9,2.987,2.815,4.481q1.359,2.214,2.711,4.43c.9,1.479,1.792,2.964,2.664,4.459.428.736.846,1.473,1.244,2.225s.87,1.482,1.195,2.272C645.808,186.417,645.713,186.443,645.675,186.4Z" transform="translate(-630.104 -146.583)" fill="#263238"/>
                    <path id="Path_10366" data-name="Path 10366" d="M637.8,154.335a11.211,11.211,0,0,0-.624-2.388c-.56-1.671-2.532-7.929-3.127-9.589-.663-1.849-1.3-3.707-2.032-5.531a.041.041,0,0,0-.078.023c.309,1.119.757,2.6,1.242,4.15-.1-.167-.205-.335-.316-.5a9.751,9.751,0,0,1-.9-1.555c0-.01-.022-.006-.018.006a12.2,12.2,0,0,0,.711,1.614c.138.265.3.515.456.768.094.147.2.287.312.428,1.166,3.692,3.862,12.1,3.911,12.235.082.233-7.738,4.809-9.429,5.857-.068.042.22.407.381.6a.06.06,0,0,0,.1-.061,1.584,1.584,0,0,0-.214-.368C631.112,158.709,637.725,154.7,637.8,154.335Z" transform="translate(-627.895 -136.799)" fill="#263238"/>
                  </g>
                </g>
              </g>
              <g id="Group_921" data-name="Group 921" transform="translate(76.796)">
                <g id="Group_910" data-name="Group 910" transform="translate(10.272 20.733)">
                  <path id="Path_10367" data-name="Path 10367" d="M626.157,108.508c-.226.793-3.523,4.924-7.181,4.576-1.191-.115-1.633-5.753-1.633-5.753l-.085-.488-1.186-6.829,8.181-4.711,1.179-.618s.2,1.89.428,4.245c.011.109.022.219.032.336.017.133.033.258.043.383.039.351.076.71.106,1.069.024.273.049.538.064.825s.038.567.06.855A44.655,44.655,0,0,1,626.157,108.508Z" transform="translate(-616.071 -94.684)" fill="#ad6359"/>
                  <path id="Path_10368" data-name="Path 10368" d="M625.86,98.929a13.907,13.907,0,0,1-8.6,7.914l-1.186-6.829,8.181-4.711,1.179-.618S625.633,96.574,625.86,98.929Z" transform="translate(-616.071 -94.684)" fill="#263238"/>
                </g>
                <g id="Group_920" data-name="Group 920">
                  <path id="Path_10369" data-name="Path 10369" d="M601.315,81.729c-1.086,12.116,6.048,14.135,8.661,14.366,2.372.21,10.475.623,12.807-11.315s-2.957-16.274-8.357-17.041S602.4,69.613,601.315,81.729Z" transform="translate(-601.203 -65.585)" fill="#ad6359"/>
                  <g id="Group_917" data-name="Group 917" transform="translate(1.746 12.564)">
                    <path id="Path_10370" data-name="Path 10370" d="M605.176,84.159a7.975,7.975,0,0,0,.826-.151,1.359,1.359,0,0,0,.814-.314.433.433,0,0,0,.014-.529,1.074,1.074,0,0,0-1.05-.28,1.574,1.574,0,0,0-1,.529A.462.462,0,0,0,605.176,84.159Z" transform="translate(-604.02 -82.861)" fill="#263238"/>
                    <path id="Path_10371" data-name="Path 10371" d="M616.919,84.528a7.9,7.9,0,0,1-.817-.2,1.356,1.356,0,0,1-.795-.359.431.431,0,0,1,.015-.527,1.072,1.072,0,0,1,1.065-.222,1.578,1.578,0,0,1,.973.585A.462.462,0,0,1,616.919,84.528Z" transform="translate(-607.283 -82.959)" fill="#263238"/>
                    <g id="Group_912" data-name="Group 912" transform="translate(7.535 3.674)">
                      <g id="Group_911" data-name="Group 911">
                        <path id="Path_10372" data-name="Path 10372" d="M614.727,89.371c.008-.031.062.042.06.077-.068.826-.008,1.783.726,2.1.023.01.019.052-.009.046C614.6,91.414,614.53,90.142,614.727,89.371Z" transform="translate(-614.636 -88.545)" fill="#263238"/>
                        <path id="Path_10373" data-name="Path 10373" d="M615.523,88.179c1.336-.033,1.3,2.641.066,2.671C614.371,90.88,614.4,88.206,615.523,88.179Z" transform="translate(-614.65 -88.179)" fill="#263238"/>
                      </g>
                      <path id="Path_10374" data-name="Path 10374" d="M616.587,88.363c.231.154.457.424.739.455.325.037.574-.24.79-.507.023-.028.046,0,.046.031,0,.513-.2,1.036-.752,1.105-.5.064-.856-.395-.978-.911C616.409,88.441,616.494,88.3,616.587,88.363Z" transform="translate(-615.19 -88.216)" fill="#263238"/>
                    </g>
                    <g id="Group_914" data-name="Group 914" transform="translate(0 3.276)">
                      <g id="Group_913" data-name="Group 913" transform="translate(0.901 0.05)">
                        <path id="Path_10375" data-name="Path 10375" d="M607.24,88.934c-.006-.031-.065.039-.064.073.022.828-.091,1.78-.842,2.052-.023.008-.021.05.006.046C607.256,90.981,607.395,89.715,607.24,88.934Z" transform="translate(-605.431 -88.062)" fill="#263238"/>
                        <path id="Path_10376" data-name="Path 10376" d="M606.107,87.679c-1.331-.107-1.447,2.565-.214,2.663C607.107,90.44,607.224,87.768,606.107,87.679Z" transform="translate(-605.034 -87.675)" fill="#263238"/>
                      </g>
                      <path id="Path_10377" data-name="Path 10377" d="M605.14,87.808c-.217.132-.437.38-.69.386-.293.006-.5-.292-.671-.578-.019-.029-.04-.008-.043.028-.036.51.11,1.049.6,1.168.444.109.792-.315.935-.818C605.293,87.9,605.227,87.755,605.14,87.808Z" transform="translate(-603.73 -87.603)" fill="#263238"/>
                    </g>
                    <path id="Path_10378" data-name="Path 10378" d="M613.541,99.311c-.183.208-.36.489-.658.537a2.194,2.194,0,0,1-.9-.141.029.029,0,0,0-.032.045,1.114,1.114,0,0,0,1.082.37.881.881,0,0,0,.594-.779C613.633,99.293,613.568,99.279,613.541,99.311Z" transform="translate(-606.268 -87.94)" fill="#263238"/>
                    <g id="Group_915" data-name="Group 915" transform="translate(2.202 0.27)">
                      <path id="Path_10379" data-name="Path 10379" d="M608.3,91.325s-.148,1.24-.137,1.823c0,.055.142.078.341.086.01,0,.015.006.023,0A2.773,2.773,0,0,0,611.2,92.15c.039-.057-.036-.116-.089-.079a4.182,4.182,0,0,1-2.52.771c-.044-.161.326-2.115.233-2.12a5.1,5.1,0,0,0-1.319.324c.234-2.592.882-5.124,1.077-7.709a.079.079,0,0,0-.153-.035,42.131,42.131,0,0,0-1.514,8.254C606.876,91.889,608.07,91.429,608.3,91.325Z" transform="translate(-606.917 -83.252)" fill="#263238"/>
                    </g>
                    <g id="Group_916" data-name="Group 916" transform="translate(4.034 9.18)">
                      <path id="Path_10380" data-name="Path 10380" d="M609.569,97.131a3.189,3.189,0,0,0,1.29.975,1.439,1.439,0,0,0,.873.044c.629-.173.638-.753.516-1.247a3.419,3.419,0,0,0-.292-.754A4.136,4.136,0,0,1,609.569,97.131Z" transform="translate(-609.569 -96.148)" fill="#263238"/>
                      <path id="Path_10381" data-name="Path 10381" d="M611.436,98.444a1.439,1.439,0,0,0,.873.044c.629-.173.638-.753.516-1.247A1.484,1.484,0,0,0,611.436,98.444Z" transform="translate(-610.146 -96.486)" fill="#ff9cbd"/>
                    </g>
                  </g>
                  <path id="Path_10382" data-name="Path 10382" d="M624.432,83.6c-1.393.1-4.648.312-6.692-1.383-1.127-.934-2.117-2.523-2.714-5.372-1.044-4.977-4.487-8.2-9.794-5.289,0,0-1.074-4.454,2.046-6.274s6.3,1.055,6.3,1.055,6.888-.688,10.572,4.522S624.432,83.6,624.432,83.6Z" transform="translate(-602.393 -64.676)" fill="#263238"/>
                  <g id="Group_919" data-name="Group 919" transform="translate(18.091 16.354)">
                    <g id="Group_918" data-name="Group 918">
                      <path id="Path_10383" data-name="Path 10383" d="M630.144,95.7a2.534,2.534,0,0,1-.565.144,1.873,1.873,0,0,1-.573.013,1.681,1.681,0,0,1-.7-.229,2.017,2.017,0,0,1-.458-.357,2.356,2.356,0,0,1-.459-.684l.683-3.248s2.669-3.788,4.385-2.836S632.17,94.951,630.144,95.7Z" transform="translate(-627.388 -88.347)" fill="#ad6359"/>
                      <path id="Path_10384" data-name="Path 10384" d="M632.341,90.826a.028.028,0,0,1,.01.054,5.2,5.2,0,0,0-2.7,3.246,1.135,1.135,0,0,1,1.7-.305c.037.026,0,.084-.039.076a1.265,1.265,0,0,0-1.394.437,6.146,6.146,0,0,0-.67,1.124c-.066.126-.295.058-.247-.088,0-.011.008-.021.012-.032C628.986,93.529,630.4,91,632.341,90.826Z" transform="translate(-627.886 -89.113)" fill="#263238"/>
                    </g>
                    <path id="Path_10385" data-name="Path 10385" d="M630.635,97.94a.564.564,0,1,1-.439-.665A.563.563,0,0,1,630.635,97.94Z" transform="translate(-628.047 -91.103)" fill="#fff"/>
                    <path id="Path_10386" data-name="Path 10386" d="M632.461,96.8a.4.4,0,1,1-.31-.47A.4.4,0,0,1,632.461,96.8Z" transform="translate(-628.712 -90.813)" fill="#fff"/>
                  </g>
                </g>
              </g>
            </g>
          </g>
        </g>
        <g id="Character_1" data-name="Character 1" transform="translate(140.442 113.135)">
          <g id="Group_982" data-name="Group 982">
            <g id="Group_981" data-name="Group 981">
              <g id="Group_935" data-name="Group 935" transform="translate(16.333 70.097)">
                <g id="Group_932" data-name="Group 932" transform="translate(20.07)">
                  <g id="Group_927" data-name="Group 927" transform="translate(94.053 40.85)">
                    <path id="Path_10387" data-name="Path 10387" d="M487.627,430.722c-2.067.048-55.652-16.516-57.293-18.436-.178-.212.659-8.147,2.043-14.446.064-.3-19.028-25.318-19.028-25.318l34.521-13.429,16.514,34.219,4.3,8.9s17.875,17.971,19.458,20.272C489.7,424.785,489.693,430.675,487.627,430.722Z" transform="translate(-413.349 -359.093)" fill="#ebebeb"/>
                    <g id="Group_926" data-name="Group 926" transform="translate(15.775 36.749)">
                      <path id="Path_10388" data-name="Path 10388" d="M496.192,448.357c-2.154.057-58.094-17.019-59.816-19.017-.657-.755.343-4.216,3.059-14.166l36.676,4.417s18.928,17.774,20.581,20.169S498.346,448.3,496.192,448.357Z" transform="translate(-436.181 -413.176)" fill="#455a64"/>
                      <g id="Group_925" data-name="Group 925" transform="translate(3.253)">
                        <g id="Group_924" data-name="Group 924" transform="translate(0 9.323)">
                          <path id="Path_10389" data-name="Path 10389" d="M497.529,451.985c-9.307-3.093-47.137-14.688-56.573-17.038-.077-.019-.093.032-.018.059,9.158,3.267,47.081,14.555,56.544,17.133C497.682,452.193,497.725,452.05,497.529,451.985Z" transform="translate(-440.89 -428.609)" fill="#263238"/>
                          <path id="Path_10390" data-name="Path 10390" d="M515,446.074a7.875,7.875,0,0,0-6.309.578,7.632,7.632,0,0,0-3.624,4.367c-.015.056.088.089.113.034a9.1,9.1,0,0,1,9.784-4.861A.061.061,0,0,0,515,446.074Z" transform="translate(-460.725 -431.924)" fill="#263238"/>
                          <path id="Path_10391" data-name="Path 10391" d="M494.169,426.566c-3.738-1.2-8.493-1.2-11.763,1.157-.126.091,0,.269.134.247a54.251,54.251,0,0,1,11.552-.922A.247.247,0,0,0,494.169,426.566Z" transform="translate(-453.706 -425.776)" fill="#263238"/>
                          <path id="Path_10392" data-name="Path 10392" d="M497.863,429.481c-3.737-1.2-8.493-1.2-11.762,1.157-.127.091,0,.27.134.247a54.243,54.243,0,0,1,11.552-.922A.247.247,0,0,0,497.863,429.481Z" transform="translate(-454.848 -426.677)" fill="#263238"/>
                          <path id="Path_10393" data-name="Path 10393" d="M501.558,432.4c-3.737-1.2-8.493-1.2-11.762,1.157-.127.091,0,.27.133.247a54.206,54.206,0,0,1,11.553-.921A.247.247,0,0,0,501.558,432.4Z" transform="translate(-455.99 -427.577)" fill="#263238"/>
                          <path id="Path_10394" data-name="Path 10394" d="M505.253,435.311c-3.738-1.2-8.493-1.2-11.763,1.157-.127.091,0,.27.134.247a54.243,54.243,0,0,1,11.552-.922A.247.247,0,0,0,505.253,435.311Z" transform="translate(-457.132 -428.478)" fill="#263238"/>
                        </g>
                        <path id="Path_10395" data-name="Path 10395" d="M504.246,413.618c-1.418-2.155-4.282-1.346-5.953-.068a20.6,20.6,0,0,0-6.341,8.557.1.1,0,0,0,.085.143c0,.293.247.616.582.509,3.236-1.033,6.824-1.736,9.647-3.731C503.915,417.864,505.588,415.657,504.246,413.618Zm-7.04,6.572c-1.579.546-3.176,1.012-4.735,1.617a61.86,61.86,0,0,1,3.813-4.916,22.113,22.113,0,0,1,2.143-2.113c1.194-.991,5.835-3,4.963,1.194C502.909,418.286,499.089,419.538,497.206,420.19Z" transform="translate(-456.67 -412.282)" fill="#263238"/>
                        <path id="Path_10396" data-name="Path 10396" d="M476.455,421.353c3.115,1.5,6.77,1.6,10.133,2.08a.479.479,0,0,0,.49-.6.1.1,0,0,0,.059-.155,20.58,20.58,0,0,0-7.67-7.388c-1.86-.983-4.818-1.307-5.86,1.054C472.622,418.579,474.637,420.477,476.455,421.353Zm-1.614-2.829c-1.557-3.995,3.354-2.779,4.7-2A22.041,22.041,0,0,1,482,418.254a61.663,61.663,0,0,1,4.575,4.216c-1.637-.339-3.289-.533-4.937-.81C479.674,421.329,475.7,420.727,474.841,418.525Z" transform="translate(-450.922 -412.983)" fill="#263238"/>
                      </g>
                    </g>
                  </g>
                  <g id="Group_931" data-name="Group 931">
                    <path id="Path_10397" data-name="Path 10397" d="M424.055,376.633,386,382.254s-20.767-37.709-29.154-47.088l-.021-.016a13.259,13.259,0,0,0-1.534-1.5l-.015-.006a7.914,7.914,0,0,0-2.746-.687l-.016-.006c-11.252-1.367-49.124,2.313-75.294.624l12.222-16.337,5.416-7.246c29.483-3.363,65.663-15.416,81.989-7.227C394.578,311.663,424.055,376.633,424.055,376.633Z" transform="translate(-277.22 -299.968)" fill="#263238"/>
                    <g id="Group_930" data-name="Group 930" transform="translate(5.419 29.944)">
                      <g id="Group_929" data-name="Group 929" transform="translate(103.59 40.257)">
                        <g id="Group_928" data-name="Group 928">
                          <path id="Path_10398" data-name="Path 10398" d="M468.052,401.576c-6.469.833-4.623.507-11.083,1.409-3.161.441-19.054,2.621-21.934,3.522a.065.065,0,0,0,.019.125c3.019.024,18.86-2.5,22.013-3,6.441-1.019,4.581-.793,11.012-1.881A.09.09,0,1,0,468.052,401.576Z" transform="translate(-434.995 -401.574)" fill="#37474f"/>
                        </g>
                      </g>
                      <path id="Path_10399" data-name="Path 10399" d="M388.62,387.966c-4.306-7.2-23.915-42.742-27.817-44.141-3.552-1.274-74.628.2-75.68.211-.075,0-.082.117-.006.116,8.413-.108,73.38-.339,75.233.394,3.851,1.523,27.3,42.752,27.876,43.612C388.38,388.389,388.767,388.213,388.62,387.966Z" transform="translate(-285.063 -343.308)" fill="#37474f"/>
                    </g>
                  </g>
                </g>
                <g id="Group_934" data-name="Group 934" transform="translate(0 8.321)">
                  <path id="Path_10400" data-name="Path 10400" d="M248.363,323.147s-2.248,21.432,8.627,32.092c13.015,12.758,98.9,9.535,112.212,5.234s13.726-25.781-.824-30.757c-13.838-4.733-75.21-7.454-76.663-8.034s-5.708-7.371-5.708-7.371Z" transform="translate(-248.171 -312.722)" fill="#263238"/>
                  <g id="Group_933" data-name="Group 933" transform="translate(3.07)">
                    <path id="Path_10401" data-name="Path 10401" d="M269.908,326.2c-.017-.1-.176-.07-.176.028a11.824,11.824,0,0,1-2.768,7.606c-2.038,2.353-5.044,3.671-7.767,5.049-.262.133-.064.542.207.461a24.013,24.013,0,0,0,4.809-2.072,11.657,11.657,0,0,0,3.618-3.007A10.346,10.346,0,0,0,269.908,326.2Z" transform="translate(-254.611 -316.377)" fill="#37474f"/>
                    <path id="Path_10402" data-name="Path 10402" d="M305.7,319.634c-.608-.776-1.27-1.514-1.9-2.269-1.5-1.785-3.006-3.576-4.578-5.3-.149-.162-.44.068-.3.247,1.058,1.383,2.179,2.724,3.281,4.072q.847,1.037,1.7,2.068a13.039,13.039,0,0,1,1.589,2.016c.41.767-.129,1.423-.924,1.508a2.759,2.759,0,0,1-1.914-.7A25.511,25.511,0,0,1,299.4,317.8c-.632-.711-1.262-1.421-1.9-2.122-.682-.746-1.409-1.453-2.089-2.2-.043-.048-.128.019-.089.072.594.814,1.143,1.667,1.738,2.483s1.2,1.624,1.812,2.424q.872,1.138,1.8,2.229a7.434,7.434,0,0,0,1.829,1.636c1.139.669,3.115.814,3.721-.657A2.074,2.074,0,0,0,305.7,319.634Z" transform="translate(-265.811 -312.012)" fill="#37474f"/>
                    <path id="Path_10403" data-name="Path 10403" d="M368.755,365.019c-4.583.085-9.163.352-13.746.45q-6.818.145-13.64.079-13.7-.13-27.372-1.064c-9.206-.637-19.136-1.554-28.282-2.82-4.376-.607-8.811-1.111-13.136-2.041a20.724,20.724,0,0,1-10.362-5.294c-5.923-5.744-8.226-14.191-9.172-22.26-.127-1.083-.231-2.167-.319-3.254-.005-.074-.117-.073-.112,0,.535,8.274,1.821,16.9,7.025,23.552a20.678,20.678,0,0,0,8.477,6.583c4.1,1.641,8.642,2.025,12.966,2.612,9.182,1.245,19.151,2.207,28.386,2.923q13.94,1.081,27.929,1.307c9.318.138,18.646.006,27.954-.451,1.137-.056,2.27-.123,3.4-.222C368.821,365.117,368.821,365.018,368.755,365.019Z" transform="translate(-252.615 -317.189)" fill="#37474f"/>
                    <path id="Path_10404" data-name="Path 10404" d="M399.072,343.84a14.763,14.763,0,0,0-6.137-8.779,26.239,26.239,0,0,0-11.15-3.846c-4.418-.642-8.894-.971-13.337-1.4q-13.676-1.329-27.37-2.455c-9.124-.75-28.776-2.277-29.881-2.319-.1,0-.117.16-.019.17,8.808.979,16.821,1.819,25.647,2.621q13.3,1.21,26.6,2.526,6.623.655,13.243,1.334c4.09.423,8.3.839,12.134,2.419a15.182,15.182,0,0,1,7.928,6.736,15.794,15.794,0,0,1,1.314,10.19,17.922,17.922,0,0,1-4.257,8.615,15.267,15.267,0,0,1-7.979,4.816c-.806.174-1.78.3-2.523.447-.057.012-.114.131-.057.132,6.6.167,12.7-4.65,15.081-10.675A17.654,17.654,0,0,0,399.072,343.84Z" transform="translate(-270.696 -316.039)" fill="#37474f"/>
                  </g>
                </g>
              </g>
              <g id="Group_980" data-name="Group 980">
                <g id="Group_940" data-name="Group 940" transform="translate(50.651 31.891)">
                  <g id="Group_938" data-name="Group 938" transform="translate(0.037 0.367)">
                    <path id="Path_10405" data-name="Path 10405" d="M298.41,252.69c3.6,15.836,11.08,34.827,14.283,37.913,4.052,3.9,29.22,9.085,30.56,9.233,3.32.343,8.017-20.861,6.066-20.888-5.437-.074-22.824-3.048-23.993-4.255-1.214-1.262-9.448-11.7-17.913-23.484C301.57,243.064,296.178,242.863,298.41,252.69Z" transform="translate(-297.894 -245.202)" fill="#eb9481"/>
                    <g id="Group_937" data-name="Group 937" transform="translate(43.476 33.746)">
                      <path id="Path_10406" data-name="Path 10406" d="M360.82,314.609a64.774,64.774,0,0,0,8.43,3.607c2.3.674,8.986,2.434,9.979-.028.68-1.678-3.128-3.176-5.8-4.3-1.406-.59-3.137-2.067-2.72-2.971.729-1.58,4.349.017,6.727,1.407,4.6,2.688,10.728,7.521,13.547,5.191,1.065-.882-.166-2.493-1.97-4.075,2.928,1.845,6.052,3.361,7.274,2.429a1.548,1.548,0,0,0,.348-2.1,2.053,2.053,0,0,0,2.264-.348c.956-.995.495-2.469-.544-3.98a1.138,1.138,0,0,0,.867-.567c2.026-3.072-8.056-11.932-11.549-12.767a88.444,88.444,0,0,0-21.107-2.039C362.524,297.291,360.812,314.6,360.82,314.609Z" transform="translate(-360.82 -294.045)" fill="#eb9481"/>
                      <g id="Group_936" data-name="Group 936" transform="translate(15.113 2.97)">
                        <path id="Path_10407" data-name="Path 10407" d="M382.72,310.163a17.434,17.434,0,0,1,6.85,2.655c2.6,1.726,4.326,3.743,6.508,5.776.057.053-.023.144-.082.09-1.039-.966-5.348-4.6-6.461-5.426a16.619,16.619,0,0,0-6.824-3.055C382.684,310.2,382.693,310.158,382.72,310.163Z" transform="translate(-382.694 -301.997)" fill="#263238"/>
                        <path id="Path_10408" data-name="Path 10408" d="M385.505,303.856a41.55,41.55,0,0,1,7.971,2.782c2.742,1.4,4.883,3.69,6.99,5.889q1.9,1.98,3.706,4.045c.05.058-.027.148-.082.09q-3.206-3.408-6.614-6.618a21.965,21.965,0,0,0-7.265-4.6c-1.545-.593-3.132-1.066-4.717-1.538C385.465,303.894,385.475,303.847,385.505,303.856Z" transform="translate(-383.554 -300.047)" fill="#263238"/>
                        <path id="Path_10409" data-name="Path 10409" d="M389.7,298.344a21.306,21.306,0,0,1,7.234,2.424,37.542,37.542,0,0,1,7.076,6.128c1.148,1.232,2.254,2.5,3.341,3.785.044.053-.046.131-.091.079a87.1,87.1,0,0,0-7.99-7.95,17.341,17.341,0,0,0-4.47-2.922,31.252,31.252,0,0,0-5.1-1.528A.009.009,0,0,1,389.7,298.344Z" transform="translate(-384.858 -298.344)" fill="#263238"/>
                      </g>
                    </g>
                  </g>
                  <g id="Group_939" data-name="Group 939">
                    <path id="Path_10410" data-name="Path 10410" d="M346.874,276.336,338.546,302.5s-22.366-6.441-26.445-10.863-11.574-27.214-13.769-38.258,3.387-10.758,8.5-3.786,17.846,23.871,18.559,24.239S346.874,276.336,346.874,276.336Z" transform="translate(-297.841 -244.67)" fill="#455a64"/>
                    <path id="Path_10411" data-name="Path 10411" d="M352.194,304.96c1.008-3.085,2.042-6.163,2.936-9.286.508-1.774,1.026-3.547,1.517-5.326.019-.067-.094-.109-.119-.042-1.135,3.057-2.266,6.125-3.26,9.233-.989,3.093-2.005,6.177-2.955,9.282-.54,1.766-1.025,3.542-1.457,5.339-.009.036.048.057.062.022C350.156,311.161,351.178,308.067,352.194,304.96Z" transform="translate(-313.609 -258.765)" fill="#263238"/>
                    <path id="Path_10412" data-name="Path 10412" d="M327.267,298.879l-.991-.35c-1.863-.67-3.762-1.389-5.55-2.125-.231-.092-.459-.187-.681-.283-.359-.15-.718-.3-1.065-.457-.178-.075-.347-.154-.52-.229-.062-.029-.124-.054-.186-.083l-.537-.249c-.71-.328-1.383-.656-2.011-.989-.145-.075-.294-.153-.434-.232a15.546,15.546,0,0,1-2.757-1.821c-.078-.07-.157-.141-.227-.211s-.144-.141-.207-.207c-4.082-4.42-11.576-27.213-13.77-38.259-.024-.129-.049-.257-.073-.381,0-.029-.008-.054-.012-.083-.146-.839-.277-1.877-.381-3v-.012c-.3-5.494,2.3-6.385,5.511-3.964C311.375,263.157,323.572,291.578,327.267,298.879Z" transform="translate(-297.841 -244.671)" opacity="0.1"/>
                  </g>
                </g>
                <g id="Group_942" data-name="Group 942" transform="translate(13.142 29.623)">
                  <g id="Group_941" data-name="Group 941" transform="translate(2.266)">
                    <path id="Path_10413" data-name="Path 10413" d="M246.851,304.214c.126.15,52.663-6.9,53.191-7.458.737-.791-5.284-40.355-14.059-52.739-2.194-3.1-9.957-3.535-13.666-.9C253.941,256.184,246.4,303.673,246.851,304.214Z" transform="translate(-246.832 -241.388)" fill="#ffc727"/>
                  </g>
                  <path id="Path_10414" data-name="Path 10414" d="M270.469,244.392s7.855,14.609,8.843,20.492,2.3,35.266,2.084,36.359a3.482,3.482,0,0,1-1.1,1.813v2.823l-35.4,3.009v-2.476s-1.679-.879-1.279-5.914S259.2,249.347,270.469,244.392Z" transform="translate(-243.553 -242.316)" fill="#455a64"/>
                  <path id="Path_10415" data-name="Path 10415" d="M248.172,332.994c10.395-1.38,20.911-2.3,31.39-2.76-10.4,1.38-20.913,2.3-31.39,2.76Z" transform="translate(-244.981 -268.849)" fill="#37474f"/>
                  <path id="Path_10416" data-name="Path 10416" d="M303.5,245.192s1.855,15.192,2.109,17.989,4.331,35.847,4.732,36.741,1.07,2.138,1.07,2.138l.281,1.888,6.91-1.523-.251-2.015s1.442-1.006,1.231-3.653S311.205,251.579,303.5,245.192Z" transform="translate(-262.081 -242.564)" fill="#455a64"/>
                  <path id="Path_10417" data-name="Path 10417" d="M316.081,326.96a11.687,11.687,0,0,1,5.575-1.3,11.686,11.686,0,0,1-5.575,1.3Z" transform="translate(-265.97 -267.433)" fill="#37474f"/>
                </g>
                <g id="Group_954" data-name="Group 954" transform="translate(0 32.703)">
                  <g id="Group_953" data-name="Group 953">
                    <g id="Group_950" data-name="Group 950" transform="translate(0.757 0.397)">
                      <path id="Path_10418" data-name="Path 10418" d="M259.275,249.014c-10.163,6.563-37.8,34.205-33.118,41.691,4.716,7.54,40.961,8.114,51.74,5.949,3.206-.645-3.187-21.233-6.448-22.5-2.715-1.052-18.688,1.9-18.894.971-.234-1.049,3.77-7.352,10.344-18.931C270.481,242.847,263.764,246.115,259.275,249.014Z" transform="translate(-225.627 -246.42)" fill="#eb9481"/>
                      <g id="Group_949" data-name="Group 949" transform="translate(41.245 25.572)">
                        <g id="Group_948" data-name="Group 948">
                          <path id="Path_10419" data-name="Path 10419" d="M313.483,284.487c6.948.752,8.617,2.013,14.819-.466,4.07-1.626,6.855.274,3.895,3.74-4.841,5.67-14.01,6.581-17.28,5.982Z" transform="translate(-294.027 -283.431)" fill="#eb9481"/>
                          <g id="Group_943" data-name="Group 943" transform="translate(0 0.811)">
                            <path id="Path_10420" data-name="Path 10420" d="M285.323,286.83a71.177,71.177,0,0,1,16.08-2.223c5.176.048,16.424,1.408,24.149,14.786,1.832,3.173,2.194,8.994-2.681,4.9-3.463-2.909-4.78-5.8-7.1-7.125,0,0-.42,7.458-3.67,9.17a67.552,67.552,0,0,1-8.813,3.868,14.241,14.241,0,0,1-.872-1.584s-3.187,1.313-8.125-.441Z" transform="translate(-285.323 -284.605)" fill="#eb9481"/>
                          </g>
                          <g id="Group_947" data-name="Group 947" transform="translate(14.17 1.647)">
                            <path id="Path_10421" data-name="Path 10421" d="M312.674,285.815c2.027,1.8,6.259,5.7,8.613,10.085,2.615,4.875,6.338,14.969,2.72,16.863-2.653,1.388-4.414-2.342-4.414-2.342s.659,4.5-2.011,5.227c-2.434.665-3.623-2.3-3.623-2.3s-.069,2.8-2.537,2.985c-2.968.228-2.337-5.671-5.542-8.038C305.16,307.762,312.674,285.815,312.674,285.815Z" transform="translate(-305.832 -285.815)" fill="#eb9481"/>
                            <g id="Group_946" data-name="Group 946" transform="translate(4.951 11.979)">
                              <g id="Group_944" data-name="Group 944" transform="translate(4.845)">
                                <path id="Path_10422" data-name="Path 10422" d="M320.057,303.163a22.034,22.034,0,0,1,3.981,12.521c0,.113-.092.171-.111.067a54.268,54.268,0,0,0-3.916-12.564C320,303.16,320.039,303.14,320.057,303.163Z" transform="translate(-320.009 -303.153)" fill="#263238"/>
                              </g>
                              <g id="Group_945" data-name="Group 945" transform="translate(0 2.781)">
                                <path id="Path_10423" data-name="Path 10423" d="M313.046,307.189a24.732,24.732,0,0,1,3.227,12.737c-.008.113-.1.165-.113.06A58.207,58.207,0,0,0,313,307.211C312.988,307.183,313.03,307.165,313.046,307.189Z" transform="translate(-312.997 -307.178)" fill="#263238"/>
                              </g>
                            </g>
                          </g>
                        </g>
                        <path id="Path_10424" data-name="Path 10424" d="M329.378,302.718a18.568,18.568,0,0,1,4.7,4.371,31.056,31.056,0,0,0,2.37,2.493c.77.706,1.9,1.765,3.04,1.249a1.849,1.849,0,0,0,.853-1.686,9.026,9.026,0,0,0-.577-2.791c-.013-.034.045-.058.059-.024a12.911,12.911,0,0,1,.757,2.547,3.009,3.009,0,0,1-.231,1.757c-.625,1.126-2.087.927-3.012.341a9.842,9.842,0,0,1-1.512-1.266c-.454-.437-.886-.9-1.307-1.366-.863-.965-1.67-1.977-2.522-2.951a29.422,29.422,0,0,0-2.672-2.61C329.291,302.751,329.337,302.7,329.378,302.718Z" transform="translate(-298.92 -289.391)" fill="#263238"/>
                        <path id="Path_10425" data-name="Path 10425" d="M330.91,311.567a70.477,70.477,0,0,0-2.7-8.808.032.032,0,0,1,.055-.032,36.77,36.77,0,0,1,3.253,8.564,12.364,12.364,0,0,1,.2,4.954c-.574,2.286-2.2,2.338-2.788,2.308a3.054,3.054,0,0,1-1.865-.807,6.147,6.147,0,0,1-1.347-2.1c-.016-.037.037-.069.056-.032a4.353,4.353,0,0,0,2.941,2.468,2.142,2.142,0,0,0,1.606-.407,2.771,2.771,0,0,0,.828-1.749A12.869,12.869,0,0,0,330.91,311.567Z" transform="translate(-297.806 -289.39)" fill="#263238"/>
                      </g>
                    </g>
                    <g id="Group_952" data-name="Group 952">
                      <path id="Path_10426" data-name="Path 10426" d="M266.615,273.846l5.168,25.833s-45.329-1.15-47.153-9.549,22.187-33.441,31.836-40.066c11.182-7.677,11.45-4.043,7.334,4.219-4.309,8.65-11.513,20.915-11.513,20.915Z" transform="translate(-224.531 -245.846)" fill="#455a64"/>
                      <g id="Group_951" data-name="Group 951" transform="translate(3.357 16.717)">
                        <path id="Path_10427" data-name="Path 10427" d="M243.578,291.01a51.649,51.649,0,0,1,7.181-2.1,50.192,50.192,0,0,1,7.326-1c1.405-.1,2.811-.137,4.218-.181a.033.033,0,0,1,0,.066,64.524,64.524,0,0,0-7.38.926q-3.642.636-7.254,1.4c-1.363.29-2.713.645-4.065.98A.05.05,0,0,1,243.578,291.01Z" transform="translate(-233.765 -275.508)" fill="#263238"/>
                        <path id="Path_10428" data-name="Path 10428" d="M278.886,281.229c-.23,0-12.937.927-13.367,1.009.093-.164,3.767-5.875,4.311-6.709.055-.083.1-.168.158-.251.316-.354.634-.7.937-1.072.388-.469.771-.942,1.156-1.414.012-.015-.008-.034-.021-.019-.4.453-.811.9-1.214,1.36-.186.211-.366.426-.543.644.369-.594.73-1.191,1.091-1.791.576-.957,1.121-1.929,1.664-2.905.017-.032-.03-.055-.049-.026-1.081,1.663-2.212,3.292-3.3,4.951s-5.183,7.75-5.163,7.749c.017.022,14.07-1.312,14.345-1.354A.086.086,0,0,0,278.886,281.229Z" transform="translate(-240.257 -270.041)" fill="#263238"/>
                        <path id="Path_10429" data-name="Path 10429" d="M279.618,302.255c-.56-2.879-1.1-5.764-1.765-8.622-.379-1.624-.749-3.251-1.143-4.872-.014-.061-.122-.045-.112.019.448,2.912.9,5.831,1.484,8.723.578,2.876,1.132,5.757,1.747,8.627.35,1.632.748,3.247,1.2,4.856.009.032.064.023.059-.01C280.734,308.047,280.181,305.154,279.618,302.255Z" transform="translate(-243.981 -275.815)" fill="#263238"/>
                        <path id="Path_10430" data-name="Path 10430" d="M273.747,321.419c-.251-.818-.536-1.979-.821-2.786-.075-.214-.226-.211-.177.005.164.727.253,1.521.41,2.263-.632-.031-1.264-.077-1.9-.1-.733-.029-1.465-.055-2.2-.086q-2.15-.092-4.3-.229-4.351-.278-8.686-.739a168.657,168.657,0,0,1-17.276-2.659c-1.594-.339-3.183-.71-4.758-1.129a47.126,47.126,0,0,1-4.61-1.4c-.041-.016-.068.053-.028.073a26.834,26.834,0,0,0,3.927,1.547q2.119.645,4.275,1.165c2.86.685,5.756,1.217,8.661,1.67q8.641,1.347,17.378,1.963,2.445.176,4.892.293c.824.04,1.647.079,2.471.1A15.67,15.67,0,0,0,273.747,321.419Z" transform="translate(-229.39 -283.801)" fill="#263238"/>
                      </g>
                    </g>
                  </g>
                </g>
                <g id="Group_959" data-name="Group 959" transform="translate(54.696 60.798)">
                  <g id="Group_955" data-name="Group 955" transform="translate(0 30.737)">
                    <rect id="Rectangle_509" data-name="Rectangle 509" width="55.387" height="2.234" fill="#455a64"/>
                    <rect id="Rectangle_510" data-name="Rectangle 510" width="30.647" height="2.234" fill="#a6a6a6"/>
                  </g>
                  <g id="Group_958" data-name="Group 958" transform="translate(29.717)">
                    <g id="Group_956" data-name="Group 956">
                      <path id="Path_10431" data-name="Path 10431" d="M346.707,319.478H395.25l6.859-32.969H353.566Z" transform="translate(-346.707 -286.509)" fill="#a6a6a6"/>
                    </g>
                    <g id="Group_957" data-name="Group 957" transform="translate(2.201)">
                      <path id="Path_10432" data-name="Path 10432" d="M349.893,319.478h48.543l6.859-32.969H356.752Z" transform="translate(-349.893 -286.509)" fill="#c7c7c7"/>
                    </g>
                    <path id="Path_10433" data-name="Path 10433" d="M385.295,309.986a2.859,2.859,0,0,0,2.9,3.236,3.682,3.682,0,0,0,3.576-3.236,2.859,2.859,0,0,0-2.9-3.235A3.682,3.682,0,0,0,385.295,309.986Z" transform="translate(-358.629 -292.766)" fill="#ebebeb"/>
                  </g>
                </g>
                <g id="Group_979" data-name="Group 979" transform="translate(25.919)">
                  <path id="Path_10434" data-name="Path 10434" d="M286.424,252.311s-9.273-8.907-15.226-8.648l-6.063,4.116s-2.085-1.018-2.607-2.065c-1.293-2.589-.123-6.882,5.25-11.014,4.92-3.783,13.034-3.58,19.818-1.858,6.515,1.653,12.193,5.916,10.237,10.172S286.424,252.311,286.424,252.311Z" transform="translate(-262.046 -208.757)" fill="#ffc727"/>
                  <path id="Path_10435" data-name="Path 10435" d="M291.038,251.123s7.406-5.388,8.147-8.556-5.605-6.122-9.7-7.266c-6.333-1.771-10.63-1.327-14.138,2.077S291.038,251.123,291.038,251.123Z" transform="translate(-266.025 -209.569)" opacity="0.1"/>
                  <g id="Group_973" data-name="Group 973" transform="translate(14.285)">
                    <g id="Group_961" data-name="Group 961" transform="translate(2.418 19.701)">
                      <g id="Group_960" data-name="Group 960">
                        <path id="Path_10436" data-name="Path 10436" d="M293.656,248.6c-2.343-.366-6.289-5.681-7.431-9.719-.077-.277.894-2.784,1.93-5.885.621-1.884,1.268-4,1.72-5.968l11.673,5.835a32.2,32.2,0,0,0-2.927,7.293,4.51,4.51,0,0,0-.1.828c0,.038,0,.086-.012.138C298.406,242.715,297.323,249.173,293.656,248.6Z" transform="translate(-286.221 -227.027)" fill="#eb9481"/>
                      </g>
                      <path id="Path_10437" data-name="Path 10437" d="M300.49,241.173a1.146,1.146,0,0,1-.01.139,8,8,0,0,1-1.289-.225c-6.99-1.77-6.748-10.727-6.5-13.449l10.833,5.411a32.481,32.481,0,0,0-2.938,7.3A5.3,5.3,0,0,0,300.49,241.173Z" transform="translate(-288.193 -227.216)" fill="#263238"/>
                    </g>
                    <g id="Group_972" data-name="Group 972">
                      <g id="Group_962" data-name="Group 962" transform="translate(0.535 0.146)">
                        <path id="Path_10438" data-name="Path 10438" d="M283.519,208.293c-.416,4.683,4.585,16.9,8.312,19.077,5.4,3.153,12.912,1.981,15.253-4.208,2.27-6-4.529-21.809-8.567-23.649C292.569,196.806,284.133,201.376,283.519,208.293Z" transform="translate(-283.495 -198.723)" fill="#eb9481"/>
                      </g>
                      <g id="Group_970" data-name="Group 970" transform="translate(12.056 10.079)">
                        <path id="Path_10439" data-name="Path 10439" d="M301.111,218.11a11.138,11.138,0,0,0,1.005-.616c.383-.24.714-.392.907-.823a.607.607,0,0,0-.249-.7,1.506,1.506,0,0,0-1.517.164,2.21,2.21,0,0,0-1.046,1.2A.647.647,0,0,0,301.111,218.11Z" transform="translate(-300.171 -213.944)" fill="#263238"/>
                        <path id="Path_10440" data-name="Path 10440" d="M312.081,214.72a11.183,11.183,0,0,1-1.179-.014,1.906,1.906,0,0,1-1.2-.243.608.608,0,0,1-.144-.728,1.505,1.505,0,0,1,1.387-.635,2.212,2.212,0,0,1,1.514.5A.648.648,0,0,1,312.081,214.72Z" transform="translate(-303.053 -213.1)" fill="#263238"/>
                        <path id="Path_10441" data-name="Path 10441" d="M306.292,232.7a1.352,1.352,0,0,0,.864.293,2.346,2.346,0,0,0,.856-.482.031.031,0,0,1,.05.033,1.2,1.2,0,0,1-.949.779.948.948,0,0,1-.891-.56C306.193,232.714,306.253,232.678,306.292,232.7Z" transform="translate(-302.038 -219.097)" fill="#263238"/>
                        <g id="Group_964" data-name="Group 964" transform="translate(4.375 0.429)">
                          <g id="Group_963" data-name="Group 963">
                            <path id="Path_10442" data-name="Path 10442" d="M306.537,224.075a3.027,3.027,0,0,0,2.317.73,3.813,3.813,0,0,0,1.06-.256,1.084,1.084,0,0,0,.193-.081c.06-.026.114-.049.179-.083a.221.221,0,0,0,.115-.241v-.006a.471.471,0,0,0-.034-.085v-.006l-.023-.075c-.173-.663-.527-1.644-.527-1.644.275.05,1.66.246,1.541-.092a45.532,45.532,0,0,0-3.683-8.474.082.082,0,0,0-.149.067c.85,2.724,2.174,5.28,3.071,8a5.306,5.306,0,0,0-1.493-.019c-.086.054.718,1.885.772,2.189a.11.11,0,0,1,0,.033,4.2,4.2,0,0,1-3.282-.061C306.517,223.944,306.466,224.022,306.537,224.075Z" transform="translate(-306.503 -213.72)" fill="#263238"/>
                          </g>
                        </g>
                        <g id="Group_966" data-name="Group 966" transform="translate(1.415 4.745)">
                          <g id="Group_965" data-name="Group 965">
                            <path id="Path_10443" data-name="Path 10443" d="M304.68,220.921c-.017-.03-.053.061-.041.1.294.833.489,1.838-.184,2.359-.021.016-.006.057.022.045C305.365,222.995,305.092,221.664,304.68,220.921Z" transform="translate(-302.907 -220.261)" fill="#263238"/>
                            <path id="Path_10444" data-name="Path 10444" d="M302.961,219.987c-1.387.326-.633,3.077.652,2.774C304.878,222.464,304.125,219.714,302.961,219.987Z" transform="translate(-302.219 -219.968)" fill="#263238"/>
                          </g>
                        </g>
                        <g id="Group_968" data-name="Group 968" transform="translate(7.968 2.702)">
                          <g id="Group_967" data-name="Group 967">
                            <path id="Path_10445" data-name="Path 10445" d="M311.711,218.669c0-.035.077.023.086.058.2.861.573,1.813,1.421,1.892.026,0,.035.046.006.049C312.246,220.786,311.762,219.517,311.711,218.669Z" transform="translate(-311.706 -217.521)" fill="#263238"/>
                            <path id="Path_10446" data-name="Path 10446" d="M312.234,217.066c1.345-.47,2.185,2.256.939,2.691C311.946,220.185,311.106,217.459,312.234,217.066Z" transform="translate(-311.703 -217.012)" fill="#263238"/>
                          </g>
                        </g>
                        <g id="Group_969" data-name="Group 969" transform="translate(4.3 10.8)">
                          <path id="Path_10447" data-name="Path 10447" d="M309.359,229.254a3.545,3.545,0,0,1-1.179,1.354,1.588,1.588,0,0,1-.939.247c-.723-.044-.865-.672-.846-1.237a3.832,3.832,0,0,1,.144-.888A4.6,4.6,0,0,0,309.359,229.254Z" transform="translate(-306.394 -228.731)" fill="#263238"/>
                          <path id="Path_10448" data-name="Path 10448" d="M308.18,231a1.589,1.589,0,0,1-.939.247c-.723-.044-.865-.672-.846-1.237A1.647,1.647,0,0,1,308.18,231Z" transform="translate(-306.394 -229.124)" fill="#ff9cbd"/>
                        </g>
                      </g>
                      <path id="Path_10449" data-name="Path 10449" d="M286.694,220.95c2-.138,3.2-3.551,3.261-4.853s-2.432-6.915-2.149-8.933,2.623-3.616,4.28-3.7,4.173,1.252,5.245.759.312-2.658,1.083-2.931c1.7-.6,4.064,3.282,5.027,5.034,0,0-2.416-9.814-11.808-7.437-8.185,2.071-9.051,7.523-8.9,10.157C283.031,214.087,286.694,220.95,286.694,220.95Z" transform="translate(-282.721 -198.512)" fill="#263238"/>
                      <g id="Group_971" data-name="Group 971" transform="translate(1.088 16.42)">
                        <path id="Path_10450" data-name="Path 10450" d="M289.948,225.34s-3.189-4.012-5.027-2.85.74,7.1,3.024,7.8a2.276,2.276,0,0,0,2.968-1.408Z" transform="translate(-284.295 -222.278)" fill="#eb9481"/>
                        <path id="Path_10451" data-name="Path 10451" d="M286.319,225.022a.031.031,0,0,0-.008.061,5.753,5.753,0,0,1,3.189,3.41,1.256,1.256,0,0,0-1.9-.227c-.039.031,0,.093.048.081a1.4,1.4,0,0,1,1.568.393,6.776,6.776,0,0,1,.813,1.2c.082.135.33.045.267-.113,0-.011-.01-.023-.015-.035C290.2,227.79,288.474,225.092,286.319,225.022Z" transform="translate(-284.912 -223.126)" fill="#263238"/>
                      </g>
                    </g>
                  </g>
                  <path id="Path_10452" data-name="Path 10452" d="M290.777,252.592s-7.483-12.407-16.7-13.556l.837,6.907s5.49-.037,15.226,8.648Z" transform="translate(-265.765 -211.038)" fill="#ffc727"/>
                  <g id="Group_974" data-name="Group 974" transform="translate(3.089 33.582)">
                    <path id="Path_10453" data-name="Path 10453" d="M271.7,248.59a11.705,11.705,0,0,1,4.946.618,21.781,21.781,0,0,1,4.543,2.069,38.007,38.007,0,0,1,4.145,2.808l1.938,1.6,1.867,1.687.209.189.231-.121a42.484,42.484,0,0,0,4.933-3.035,24.172,24.172,0,0,0,2.272-1.794c.715-.648,3.681-3.454,4.278-5.488-1.062,1.974-5.232,5.829-6.834,6.857-.8.511-1.633.985-2.468,1.443s-1.675.915-2.524,1.326l.44.068-1.87-1.742c-.646-.556-1.307-1.1-1.968-1.635-.692-.5-1.376-1.014-2.086-1.489-.729-.45-1.44-.925-2.209-1.308a20.041,20.041,0,0,0-4.77-1.883c-.412-.113-.838-.182-1.257-.262-.426-.05-.851-.11-1.278-.125A7.506,7.506,0,0,0,271.7,248.59Z" transform="translate(-268.119 -247.118)" fill="#263238"/>
                    <path id="Path_10454" data-name="Path 10454" d="M266.516,253.149a30.207,30.207,0,0,0,3.2-1.916,27.109,27.109,0,0,0,2.862-2.2,29.708,29.708,0,0,0-3.2,1.916A27.185,27.185,0,0,0,266.516,253.149Z" transform="translate(-266.516 -247.71)" fill="#263238"/>
                  </g>
                  <g id="Group_976" data-name="Group 976" transform="translate(20.522 39.322)">
                    <g id="Group_975" data-name="Group 975">
                      <path id="Path_10455" data-name="Path 10455" d="M292.475,255.469a50.867,50.867,0,0,0-.726,8.725c-.008,2.039.9,9.338,3.162,9.036s-1.51-4.959-2.223-8.8c-.724-3.9.269-6.687.368-9Z" transform="translate(-291.749 -255.425)" fill="#263238"/>
                    </g>
                  </g>
                  <g id="Group_978" data-name="Group 978" transform="translate(28.732 39.63)">
                    <g id="Group_977" data-name="Group 977">
                      <path id="Path_10456" data-name="Path 10456" d="M304.194,255.872a73.169,73.169,0,0,1,1.832,8.452c.281,1.828.441,8.5-1.627,8.527s.691-4.65.816-8.195c.127-3.6-1.148-6.685-1.546-8.746Z" transform="translate(-303.632 -255.872)" fill="#263238"/>
                    </g>
                  </g>
                </g>
              </g>
            </g>
          </g>
        </g>
        <g id="Speech_Bubble" data-name="Speech Bubble" transform="translate(204.167 85.486)">
          <g id="Group_984" data-name="Group 984">
            <g id="Group_983" data-name="Group 983">
              <path id="Path_10457" data-name="Path 10457" d="M356.079,178.277a17.706,17.706,0,0,1-29.59,11.2l-8.86,1.3,4.434-7.659a17.712,17.712,0,1,1,34.017-4.843Z" transform="translate(-317.032 -158.565)" fill="#fff"/>
              <path id="Path_10458" data-name="Path 10458" d="M355.812,178.207a17.832,17.832,0,0,1-3.574,8.978,19.786,19.786,0,0,1-1.606,1.847,19.991,19.991,0,0,1-1.869,1.583,17.484,17.484,0,0,1-4.273,2.379,17.678,17.678,0,0,1-4.768,1.137,17.411,17.411,0,0,1-2.46.047,15.538,15.538,0,0,1-2.451-.255,17.869,17.869,0,0,1-8.761-4.326l.209.065-8.851,1.358-.643.1.325-.566,4.407-7.675-.021.3a17.908,17.908,0,0,1,1.091-15.785,18.128,18.128,0,0,1,5.547-5.907,18.019,18.019,0,0,1,15.568-2.1,18.089,18.089,0,0,1,6.83,4.188A17.814,17.814,0,0,1,355.812,178.207Zm0,0a17.519,17.519,0,0,0-20.084-19.167,17.4,17.4,0,0,0-7.315,2.889,18.239,18.239,0,0,0-5.3,5.779,17.485,17.485,0,0,0-2.248,7.494,17.7,17.7,0,0,0,1.246,7.715l.064.159-.084.144-4.46,7.645-.316-.468,8.869-1.242.122-.017.087.082a17.444,17.444,0,0,0,8.481,4.369,15.179,15.179,0,0,0,2.4.292,17.1,17.1,0,0,0,2.424,0,17.456,17.456,0,0,0,4.73-1.042,16.475,16.475,0,0,0,4.272-2.3,15.949,15.949,0,0,0,3.482-3.39A17.8,17.8,0,0,0,355.812,178.207Z" transform="translate(-316.765 -158.495)" fill="#263238"/>
            </g>
            <path id="Path_10459" data-name="Path 10459" d="M341.153,189.991l-7.564-7.657,2.541-2.511,4.419,4.473,9.18-14.392,3.012,1.921Z" transform="translate(-321.965 -162.021)" fill="#434241"/>
          </g>
        </g>
      </g>
    </g>
  </g>
</svg>
