<svg xmlns="http://www.w3.org/2000/svg" xmlns:xlink="http://www.w3.org/1999/xlink" width="614" height="614" viewBox="0 0 614 614">
  <defs>
    <filter id="Ellipse_489" x="0" y="0" width="614" height="614" filterUnits="userSpaceOnUse">
      <feOffset dy="3" input="SourceAlpha"/>
      <feGaussianBlur stdDeviation="7" result="blur"/>
      <feFlood flood-color="#ffcfcf" flood-opacity="0.012"/>
      <feComposite operator="in" in2="blur"/>
      <feComposite in="SourceGraphic"/>
    </filter>
  </defs>
  <g id="ios-2" transform="translate(-1812 9411)">
    <g id="vue-js-2" transform="translate(-2930 -1783)">
      <g id="ai_2" data-name="ai 2" transform="translate(2740 -326)">
        <g id="ionic_2" data-name="ionic 2" transform="translate(-306 -1365)">
          <g id="yii_2" data-name="yii 2" transform="translate(-1813 -893)">
            <g id="Kotlin_2" data-name="Kotlin 2" transform="translate(1485 -625)">
              <g id="magento_2" data-name="magento 2" transform="translate(65 -1543)">
                <g id="django_2" data-name="django 2" transform="translate(-945 -1191)">
                  <g id="symfony_2" data-name="symfony 2" transform="translate(-545.879 -694.879)">
                    <g id="ruby-on-rails_2" data-name="ruby-on-rails 2" transform="translate(4083 -972)">
                      <g id="django_2-2" data-name="django 2">
                        <g id="codeigniter_2" data-name="codeigniter 2">
                          <g id="react-native_2" data-name="react-native 2">
                            <g id="laraval_2" data-name="laraval 2">
                              <g transform="matrix(1, 0, 0, 1, -21.12, -18.12)" filter="url(#Ellipse_489)">
                                <circle id="Ellipse_489-2" data-name="Ellipse 489" cx="286" cy="286" r="286" transform="translate(21 18)" fill="#f8f7f7"/>
                              </g>
                              <circle id="Ellipse_488" data-name="Ellipse 488" cx="235" cy="235" r="235" transform="translate(50.879 50.879)" fill="#f3f3f3"/>
                              <circle id="Ellipse_487" data-name="Ellipse 487" cx="182" cy="182" r="182" transform="translate(103.879 103.879)" fill="#eee"/>
                              <path id="Path_19249" data-name="Path 19249" d="M120.818,0A120.818,120.818,0,1,1,0,120.818,120.818,120.818,0,0,1,120.818,0Z" transform="translate(165.061 165.061)" fill="#e9e9e9"/>
                            </g>
                          </g>
                        </g>
                      </g>
                    </g>
                  </g>
                </g>
              </g>
            </g>
          </g>
        </g>
      </g>
    </g>
    <path id="apple-13" d="M234.459,205.338c-.146-26.876,12.01-47.161,36.616-62.1-13.767-19.7-34.565-30.537-62.027-32.661-26-2.05-54.411,15.159-64.81,15.159-10.985,0-36.176-14.427-55.949-14.427C47.426,111.969,4,143.9,4,208.853q0,28.78,10.545,59.464C23.919,295.193,57.752,361.1,93.049,360c18.454-.439,31.489-13.108,55.509-13.108,23.288,0,35.371,13.108,55.949,13.108,35.59-.513,66.2-60.416,75.135-87.365-47.747-22.482-45.184-65.908-45.184-67.3ZM193.01,85.093C213,61.366,211.171,39.763,210.585,32c-17.649,1.025-38.08,12.01-49.724,25.558C148.046,72.057,140.5,90,142.114,110.211,161.227,111.676,178.656,101.863,193.01,85.093Z" transform="translate(1977.179 -9303.009)"/>
  </g>
</svg>
