<svg xmlns="http://www.w3.org/2000/svg" xmlns:xlink="http://www.w3.org/1999/xlink" width="559.658" height="463.641" viewBox="0 0 559.658 463.641">
  <defs>
    <linearGradient id="linear-gradient" x1="0.805" y1="-0.269" x2="0.041" y2="0.299" gradientUnits="objectBoundingBox">
      <stop offset="0" stop-color="#ef1d26"/>
      <stop offset="1" stop-color="#f01" stop-opacity="0.702"/>
    </linearGradient>
    <linearGradient id="linear-gradient-2" x1="1.002" y1="-0.208" x2="0.237" y2="0.36" gradientUnits="objectBoundingBox">
      <stop offset="0" stop-color="#ff000e"/>
      <stop offset="1" stop-color="red" stop-opacity="0.702"/>
    </linearGradient>
    <linearGradient id="linear-gradient-3" x1="0.984" y1="-0.442" x2="0.219" y2="0.126" gradientUnits="objectBoundingBox">
      <stop offset="0" stop-color="#ff081a"/>
      <stop offset="1" stop-color="red" stop-opacity="0.702"/>
    </linearGradient>
    <linearGradient id="linear-gradient-4" x1="0.936" y1="-0.314" x2="0.171" y2="0.254" gradientUnits="objectBoundingBox">
      <stop offset="0" stop-color="#ef1d26"/>
      <stop offset="1" stop-color="red" stop-opacity="0.702"/>
    </linearGradient>
  </defs>
  <g id="block-chain-3" transform="translate(-1032.648 -199.651)">
    <path id="Path_51" data-name="Path 51" d="M1277.948,241.5c-.225.164-3.059-3.277-7.733-9.322l-.228-.3.128-.39c1.059-3.232,2.331-7.12,3.762-11.49l1.252,1.276-11.443,3.9-.56.192-.489-.369-9.661-7.265c.607-.3,1.285-.64,1.962-.976.019,3.9.037,7.947.056,12.086v0l0,.658-.54.372-9.956,6.857c-.109-.736-.216-1.451-.321-2.168l11.482,3.783.581.192.163.568c1.193,4.161,2.307,8.057,3.329,11.623l-1.763-.3c2.786-3.689,5.225-6.919,7.286-9.649l.246-.327.375.019c7.645.383,12.075.744,12.068,1.022s-4.447.434-12.1.465c.193-.094.385-.19.621-.308-1.947,2.815-4.249,6.146-6.877,9.946l-1.15,1.662-.612-1.959c-1.108-3.54-2.318-7.408-3.61-11.538.244.251.49.5.744.76l-11.53-3.633-2.368-.746,2.047-1.423,9.929-6.9c-.179.339-.355.679-.538,1.028v0c0-4.139,0-8.182-.006-12.086l0-2.494,1.964,1.519c3.349,2.587,6.569,5.076,9.566,7.393-.364-.062-.73-.125-1.049-.177l11.533-3.625,1.958-.615-.707,1.891c-1.613,4.308-3.045,8.139-4.236,11.324-.037-.241-.072-.482-.1-.687C1275.755,237.591,1278.174,241.337,1277.948,241.5Z" transform="translate(124.379 8.728)" fill="#e0e0e0"/>
    <path id="Path_52" data-name="Path 52" d="M1053.43,380.8c-.263-.093.95-4.382,3.256-11.666l.113-.359.393-.117,11.585-3.455c-.1.529-.217,1.142-.335,1.755l-9.727-7.178-.476-.351.024-.612c.145-3.784.3-7.853.465-12.078.6.327,1.258.691,1.919,1.057l-9.9,6.932,0,0-.54.375-.613-.232-11.307-4.271c.543-.509,1.071-1,1.6-1.5,1.2,4.038,2.348,7.917,3.437,11.591l.174.588-.375.457c-2.74,3.352-5.306,6.489-7.653,9.359-.268-.572-.514-1.1-.758-1.618l12.081.489.409.014.2.318c4.041,6.5,6.269,10.349,6.036,10.5s-2.89-3.408-7.278-9.681l.605.334-12.091.018-2.018,0,1.26-1.619c2.277-2.927,4.765-6.125,7.423-9.541-.065.342-.131.687-.2,1.044-1.137-3.66-2.338-7.522-3.588-11.545l-.736-2.371,2.336.872,11.326,4.225c-.38.049-.76.1-1.153.145l0,0,9.93-6.89,2.049-1.423-.129,2.48c-.217,4.224-.428,8.289-.623,12.073-.156-.334-.315-.669-.452-.963l9.55,7.412,1.621,1.257-1.958.5-11.719,2.973c.177-.168.354-.334.506-.474C1055.4,376.774,1053.7,380.9,1053.43,380.8Z" transform="translate(0 86.368)" fill="#e0e0e0"/>
    <g id="Group_22" data-name="Group 22" transform="translate(1114.519 199.651)">
      <path id="Path_53" data-name="Path 53" d="M1100.919,199.673c.088-.171,2.13.669,5.716,2.32s8.714,4.113,14.973,7.186l.423.208.086.489c.9,5.108,1.942,10.978,3.069,17.355l.1.57-.414.43-15.918,16.522h0l-.644.664-.819-.422c-7.134-3.679-13.959-7.2-20.21-10.417l-.532-.275-.088-.573c-.982-6.424-1.881-12.3-2.668-17.437l-.073-.492.332-.332c4.991-4.977,9.089-8.993,11.974-11.732s4.556-4.2,4.693-4.064-1.271,1.848-3.922,4.813-6.544,7.181-11.371,12.318c.083-.265.164-.529.257-.824.905,5.118,1.942,10.973,3.075,17.37-.2-.278-.409-.557-.62-.846,6.275,3.176,13.124,6.644,20.287,10.269l-1.463.243,0,0,16.04-16.4-.313,1c-.979-6.4-1.878-12.3-2.662-17.423.179.243.356.487.509.7-6.157-3.277-11.155-5.993-14.593-7.934S1100.832,199.844,1100.919,199.673Z" transform="translate(-1083.92 -199.651)" fill="#e0e0e0"/>
      <path id="Path_54" data-name="Path 54" d="M1086.368,233.532c-.5-.479,5.426-7.39,13.223-15.433l1.862-1.9c-.113.362-.224.712-.332,1.062-1.539-9.841-2.269-17.488-1.645-17.59s2.386,7.372,4.084,17.188l.105.608-.437.453c-.592.615-1.214,1.263-1.846,1.919C1093.585,227.877,1086.861,234.011,1086.368,233.532Z" transform="translate(-1082.476 -199.644)" fill="#e0e0e0"/>
      <path id="Path_55" data-name="Path 55" d="M1096.366,210.6c.313-.613,5.1,1.209,10.7,4.069s9.875,5.677,9.56,6.29-5.1-1.207-10.7-4.069S1096.053,211.213,1096.366,210.6Z" transform="translate(-1076.502 -193.189)" fill="#e0e0e0"/>
    </g>
    <g id="Group_23" data-name="Group 23" transform="translate(1155.333 617.4)">
      <path id="Path_56" data-name="Path 56" d="M1127.541,461.286c.1-.163,2.062.822,5.488,2.727s8.324,4.73,14.293,8.246l.4.238.05.495c.508,5.126,1.1,11.018,1.731,17.421l.056.575-.444.4c-5.247,4.677-11,9.8-17.014,15.163v0l-.695.613-.782-.482L1111.4,494.833l-.51-.313-.045-.578c-.487-6.437-.934-12.324-1.324-17.472l-.038-.495.358-.307c5.319-4.552,9.681-8.22,12.746-10.714s4.832-3.81,4.958-3.668-1.4,1.736-4.246,4.474-7.021,6.619-12.188,11.344c.1-.257.2-.516.319-.8.511,5.137,1.1,11.013,1.736,17.437-.182-.3-.364-.588-.552-.893,5.975,3.622,12.5,7.57,19.318,11.7-.487.045-.974.086-1.477.131v0l17.126-15.035c-.134.337-.268.674-.388.972-.485-6.416-.931-12.321-1.319-17.458.158.255.318.511.453.731-5.849-3.709-10.595-6.778-13.854-8.961S1127.442,461.451,1127.541,461.286Z" transform="translate(-1109.48 -461.269)" fill="#e0e0e0"/>
      <path id="Path_57" data-name="Path 57" d="M1111.069,493.834c-.457-.516,5.927-6.916,14.256-14.293.682-.6,1.351-1.186,1.988-1.747-.141.354-.276.695-.412,1.035-.782-9.865-.924-17.493-.294-17.549s1.814,7.483,2.758,17.333l.059.613-.471.42-1.974,1.763C1118.65,488.786,1111.525,494.35,1111.069,493.834Z" transform="translate(-1108.546 -461.263)" fill="#e0e0e0"/>
      <path id="Path_58" data-name="Path 58" d="M1121.755,472.238c.36-.588,4.968,1.576,10.29,4.83s9.349,6.37,8.99,6.957-4.966-1.573-10.291-4.829S1121.4,472.826,1121.755,472.238Z" transform="translate(-1102.167 -454.78)" fill="#e0e0e0"/>
    </g>
    <g id="Group_24" data-name="Group 24" transform="translate(1523.298 400.158)">
      <path id="Path_59" data-name="Path 59" d="M1339.931,355.064c-.158-.11,1.6-2.929,4.883-7.883s8.093-12.048,14.036-20.707l.268-.391.493-.014,26.534-.829.581-.019.366.466c6.555,8.4,13.745,17.606,21.269,27.24l0,0,.567.73-.53.754L1388.649,382.4l-.343.484-.581.01c-9.8.158-18.756.3-26.567.425l-.493.008-.286-.378c-6.424-8.455-11.612-15.366-15.155-20.193s-5.443-7.569-5.292-7.689,2.341,2.4,6.141,7.029,9.213,11.363,15.818,19.677l-.779-.37c7.81-.246,16.766-.529,26.556-.835l-.924.495c6.064-8.683,12.689-18.165,19.613-28.083.013.489.024.977.037,1.482l0,0c-7.475-9.669-14.62-18.914-21.135-27.342.329.155.656.311.944.449l-26.545.417c.267-.142.532-.284.761-.406-6.133,8.527-11.174,15.455-14.724,20.225S1340.087,355.176,1339.931,355.064Z" transform="translate(-1339.921 -325.22)" fill="#e0e0e0"/>
      <path id="Path_60" data-name="Path 60" d="M1387.692,371.276c-.544.422-9.384-10.036-19.744-23.355-.842-1.087-1.668-2.157-2.454-3.174l1,.477c-15,.271-26.553.021-26.569-.613s11.513-1.426,26.511-1.86l.619-.016.386.493,2.472,3.16C1380.274,359.707,1388.236,370.853,1387.692,371.276Z" transform="translate(-1339.917 -314.767)" fill="#e0e0e0"/>
      <path id="Path_61" data-name="Path 61" d="M1356.569,354.007c-.565-.4,3.39-7,8.829-14.737s10.307-13.7,10.873-13.3-3.388,6.994-8.83,14.738S1357.131,354.4,1356.569,354.007Z" transform="translate(-1330.018 -324.786)" fill="#e0e0e0"/>
    </g>
    <g id="Group_25" data-name="Group 25" transform="translate(1545.093 334.38)">
      <path id="Path_62" data-name="Path 62" d="M1354.27,290.45c-.118-.366,6.194-2.767,16.287-6.271l.441-.153.41.286c3.272,2.271,7.023,4.873,11.093,7.7l.473.329.011.6c.109,5.423.225,11.36.348,17.571h0l.014.928-.878.278-16.6,5.287-.572.182-.465-.343-10.863-8.038-.4-.3,0-.466c.067-10.8.311-17.584.7-17.589s.829,6.766,1.22,17.56c-.129-.246-.259-.492-.4-.763l11.1,7.7-1.038-.161,16.547-5.445c-.286.4-.572.8-.864,1.206v0c-.062-6.213-.123-12.15-.177-17.573.168.321.335.642.485.926l-10.852-8.035.85.132C1360.91,289.067,1354.388,290.816,1354.27,290.45Z" transform="translate(-1353.57 -284.026)" fill="#e0e0e0"/>
      <path id="Path_63" data-name="Path 63" d="M1365.261,313.517c-.69.01-1.356-6.94-1.49-15.519-.006-.7-.014-1.384-.019-2.039.179.343.346.664.516.985-6.156-4.514-10.62-8.359-10.251-8.873s5.443,2.483,11.691,6.863l.5.353.013.634c.014.655.029,1.341.043,2.039C1366.4,306.539,1365.95,313.506,1365.261,313.517Z" transform="translate(-1353.316 -281.647)" fill="#e0e0e0"/>
      <path id="Path_64" data-name="Path 64" d="M1360.882,295.075c-.212-.656,3.329-2.387,7.907-3.869s8.463-2.149,8.675-1.493-3.328,2.386-7.907,3.867S1361.095,295.73,1360.882,295.075Z" transform="translate(-1349.211 -280.782)" fill="#e0e0e0"/>
    </g>
    <g id="Group_57" data-name="Group 57" transform="translate(1056.807 210.206)">
      <g id="Group_26" data-name="Group 26" transform="translate(217.037 323.653)">
        <path id="Path_65" data-name="Path 65" d="M1183.717,442.254a26.621,26.621,0,0,1,3.679-2.5c2.454-1.555,6.093-3.805,10.78-6.67,9.372-5.729,22.93-13.91,39.584-23.888l.41-.246.449.19,45.259,18.962.538.225.137.573c4.629,19.129,9.708,40.124,15.021,62.083l0,.006.214.9-.793.468-54.529,32.166-.508.3-.538-.232c-16.653-7.136-31.878-13.661-45.139-19.345l-.449-.193-.109-.465c-4.479-19.107-8.075-34.668-10.5-45.464-1.214-5.4-2.138-9.6-2.734-12.466a26.853,26.853,0,0,1-.771-4.4,26.729,26.729,0,0,1,1.316,4.273c.771,2.82,1.862,6.986,3.235,12.346,2.745,10.719,6.619,26.213,11.32,45.266-.181-.211-.359-.423-.557-.658l45.3,18.967c-.345.022-.69.046-1.046.069,16.827-9.983,35.216-20.9,54.444-32.306-.19.449-.382.9-.578,1.365l0,0c-5.253-21.975-10.277-42.984-14.855-62.126l.677.8-45.1-19.342.859-.057c-16.771,9.78-30.475,17.716-40.011,23.165-4.77,2.724-8.5,4.827-11.043,6.227A26.512,26.512,0,0,1,1183.717,442.254Z" transform="translate(-1183.698 -408.951)" fill="#e0e0e0"/>
        <path id="Path_66" data-name="Path 66" d="M1243.87,511.084c-.335.081-2.12-5.993-4.736-15.875s-6.061-23.578-9.718-38.738c-.591-2.47-1.174-4.9-1.728-7.208.246.289.484.568.719.848-12.75-5.45-23.987-10.378-32-14.017s-12.814-5.985-12.691-6.275,5.148,1.525,13.336,4.757,19.543,7.883,32.325,13.258l.572.24.148.608c.561,2.309,1.15,4.738,1.749,7.2,3.656,15.16,6.831,28.919,9.007,38.909S1244.205,511,1243.87,511.084Z" transform="translate(-1183.693 -396.516)" fill="#e0e0e0"/>
        <path id="Path_67" data-name="Path 67" d="M1212.007,453.863c-.351-.592,11.573-8.289,26.628-17.191s27.549-15.636,27.9-15.043-11.57,8.289-26.63,17.193S1212.358,454.455,1212.007,453.863Z" transform="translate(-1166.809 -401.407)" fill="#e0e0e0"/>
      </g>
      <g id="Group_33" data-name="Group 33" transform="translate(142.286)" opacity="0.87">
        <g id="Group_31" data-name="Group 31">
          <g id="Group_30" data-name="Group 30" style="isolation: isolate">
            <g id="Group_27" data-name="Group 27" transform="translate(46.533 18.938)">
              <path id="Path_68" data-name="Path 68" d="M1221.5,218.121l16.086,62.768-55.472,33.219-16.086-62.77Z" transform="translate(-1166.026 -218.121)" fill="#4ec5ff"/>
            </g>
            <g id="Group_28" data-name="Group 28" transform="translate(0 33.218)">
              <path id="Path_69" data-name="Path 69" d="M1199.5,308.771l-46.533-18.938-16.086-62.769L1183.418,246Z" transform="translate(-1136.885 -227.065)" fill="#1b5aa6"/>
            </g>
            <g id="Group_29" data-name="Group 29">
              <path id="Path_70" data-name="Path 70" d="M1183.418,258.417l-46.533-18.937,55.47-33.218,46.534,18.938Z" transform="translate(-1136.885 -206.261)" fill="#349ddc"/>
            </g>
          </g>
        </g>
        <g id="Group_32" data-name="Group 32">
          <path id="Path_71" data-name="Path 71" d="M1238.889,225.2l-46.534-18.938-55.47,33.218,16.086,62.769,46.577,18.941,55.427-33.222Z" transform="translate(-1136.885 -206.261)" fill="url(#linear-gradient)"/>
        </g>
      </g>
      <path id="Path_72" data-name="Path 72" d="M1187.327,254.673c.174.3-3.834,2.976-10.449,7.067s-15.845,9.59-26.114,15.532-19.639,11.2-26.481,14.9-11.163,5.836-11.336,5.539,3.834-2.976,10.451-7.066,15.845-9.592,26.117-15.537,19.636-11.2,26.478-14.9S1187.155,254.375,1187.327,254.673Z" transform="translate(-1008.888 -177.386)" fill="#e0e0e0"/>
      <circle id="Ellipse_8" data-name="Ellipse 8" cx="24.068" cy="24.068" r="24.068" transform="translate(71.509 297.247)" fill="#cdd7fa" opacity="0.61"/>
      <g id="Group_40" data-name="Group 40" transform="translate(52.214 256.293)" opacity="0.87">
        <g id="Group_38" data-name="Group 38">
          <g id="Group_37" data-name="Group 37" style="isolation: isolate">
            <g id="Group_34" data-name="Group 34" transform="translate(46.535 18.937)">
              <path id="Path_73" data-name="Path 73" d="M1165.089,378.626l16.086,62.769L1125.7,474.613l-16.085-62.769Z" transform="translate(-1109.619 -378.626)" fill="#4ec5ff"/>
            </g>
            <g id="Group_35" data-name="Group 35" transform="translate(0 33.218)">
              <path id="Path_74" data-name="Path 74" d="M1143.1,469.275l-46.534-18.937-16.086-62.769,46.535,18.937Z" transform="translate(-1080.477 -387.569)" fill="#1b5aa6"/>
            </g>
            <g id="Group_36" data-name="Group 36">
              <path id="Path_75" data-name="Path 75" d="M1127.011,418.921l-46.535-18.937,55.471-33.218,46.534,18.937Z" transform="translate(-1080.477 -366.767)" fill="#349ddc"/>
            </g>
          </g>
        </g>
        <g id="Group_39" data-name="Group 39">
          <path id="Path_76" data-name="Path 76" d="M1182.481,385.7l-46.534-18.937-55.471,33.218,16.086,62.769,46.577,18.942,55.428-33.222Z" transform="translate(-1080.477 -366.767)" fill="url(#linear-gradient-2)"/>
        </g>
      </g>
      <g id="Group_47" data-name="Group 47" transform="translate(354.93 245.764)" opacity="0.87">
        <g id="Group_45" data-name="Group 45">
          <g id="Group_44" data-name="Group 44" style="isolation: isolate">
            <g id="Group_41" data-name="Group 41" transform="translate(46.533 18.937)">
              <path id="Path_77" data-name="Path 77" d="M1354.668,372.032l16.084,62.769-55.47,33.219L1299.2,405.252Z" transform="translate(-1299.196 -372.032)" fill="#4ec5ff"/>
            </g>
            <g id="Group_42" data-name="Group 42" transform="translate(0 33.218)">
              <path id="Path_78" data-name="Path 78" d="M1332.674,462.683l-46.534-18.938-16.085-62.769,46.533,18.939Z" transform="translate(-1270.055 -380.976)" fill="#1b5aa6"/>
            </g>
            <g id="Group_43" data-name="Group 43">
              <path id="Path_79" data-name="Path 79" d="M1316.588,412.329l-46.533-18.939,55.47-33.217,46.535,18.937Z" transform="translate(-1270.055 -360.173)" fill="#349ddc"/>
            </g>
          </g>
        </g>
        <g id="Group_46" data-name="Group 46">
          <path id="Path_80" data-name="Path 80" d="M1372.059,379.11l-46.535-18.937-55.47,33.217,16.085,62.769,46.576,18.942,55.427-33.222Z" transform="translate(-1270.055 -360.173)" fill="url(#linear-gradient-3)"/>
        </g>
      </g>
      <g id="Group_54" data-name="Group 54" transform="translate(193.288 174.911)" opacity="0.87">
        <g id="Group_52" data-name="Group 52">
          <g id="Group_51" data-name="Group 51" style="isolation: isolate">
            <g id="Group_48" data-name="Group 48" transform="translate(46.533 18.937)">
              <path id="Path_81" data-name="Path 81" d="M1253.438,327.66l16.085,62.77-55.469,33.218-16.087-62.769Z" transform="translate(-1197.967 -327.66)" fill="#4ec5ff"/>
            </g>
            <g id="Group_49" data-name="Group 49" transform="translate(0 33.218)">
              <path id="Path_82" data-name="Path 82" d="M1231.445,418.31l-46.533-18.937L1168.825,336.6l46.533,18.937Z" transform="translate(-1168.825 -336.604)" fill="#1b5aa6"/>
            </g>
            <g id="Group_50" data-name="Group 50">
              <path id="Path_83" data-name="Path 83" d="M1215.358,367.956l-46.533-18.937,55.47-33.218,46.535,18.937Z" transform="translate(-1168.825 -315.8)" fill="#349ddc"/>
            </g>
          </g>
        </g>
        <g id="Group_53" data-name="Group 53">
          <path id="Path_84" data-name="Path 84" d="M1270.83,334.737,1224.295,315.8l-55.47,33.218,16.086,62.769,46.577,18.942,55.426-33.222Z" transform="translate(-1168.825 -315.8)" fill="url(#linear-gradient-4)"/>
        </g>
      </g>
      <path id="Path_85" data-name="Path 85" d="M1213.077,363.258c.172.3-3.363,2.7-9.215,6.352s-14.023,8.536-23.125,13.8-17.417,9.918-23.5,13.173-9.924,5.123-10.1,4.826,3.36-2.7,9.212-6.352,14.024-8.536,23.131-13.806,17.412-9.916,23.49-13.172S1212.9,362.961,1213.077,363.258Z" transform="translate(-988.48 -112.586)" fill="#e0e0e0"/>
      <path id="Path_86" data-name="Path 86" d="M1317.1,410.163c.172.3-3.5,2.786-9.59,6.568s-14.575,8.859-24.032,14.33-18.092,10.309-24.4,13.7-10.3,5.338-10.472,5.041,3.5-2.786,9.587-6.569,14.577-8.857,24.036-14.331,18.088-10.306,24.4-13.7S1316.933,409.865,1317.1,410.163Z" transform="translate(-927.927 -84.593)" fill="#e0e0e0"/>
      <path id="Path_87" data-name="Path 87" d="M1209.676,371.268c-.335.08-1.97-5.38-4.34-14.274s-5.479-21.22-8.76-34.869-6.119-26.047-8.051-35.046-2.96-14.6-2.625-14.686,1.967,5.38,4.34,14.274,5.477,21.22,8.762,34.875,6.117,26.04,8.049,35.038S1210.011,371.188,1209.676,371.268Z" transform="translate(-965.385 -166.795)" fill="#e0e0e0"/>
      <path id="Path_88" data-name="Path 88" d="M1119.277,420.091c-.334.081-1.926-5.207-4.23-13.817s-5.316-20.551-8.5-33.769-5.922-25.228-7.787-33.945-2.849-14.149-2.513-14.229,1.926,5.206,4.23,13.817,5.316,20.549,8.5,33.774,5.921,25.221,7.784,33.938S1119.612,420.009,1119.277,420.091Z" transform="translate(-1018.888 -135.799)" fill="#e0e0e0"/>
      <path id="Path_89" data-name="Path 89" d="M1311.377,409.221c-.335.08-1.859-4.923-4.051-13.079s-5.055-19.46-8.067-31.982-5.6-23.9-7.358-32.159-2.671-13.41-2.336-13.491,1.859,4.923,4.051,13.078,5.055,19.462,8.069,31.99,5.6,23.891,7.355,32.151S1311.712,409.14,1311.377,409.221Z" transform="translate(-903.522 -139.273)" fill="#e0e0e0"/>
      <path id="Path_90" data-name="Path 90" d="M1215.682,446.158c-.144.311-4.872-1.546-12.4-4.8s-17.851-7.911-29.189-13.191-21.549-10.191-28.883-13.855-11.8-6.089-11.655-6.4,4.873,1.544,12.4,4.8,17.852,7.912,29.194,13.193,21.544,10.188,28.881,13.854S1215.828,445.845,1215.682,446.158Z" transform="translate(-996.588 -85.941)" fill="#e0e0e0"/>
      <path id="Path_91" data-name="Path 91" d="M1303.009,392.661c-.132.319-4.87-1.333-12.421-4.259s-17.913-7.127-29.3-11.907-21.648-9.242-29.021-12.584-11.872-5.566-11.738-5.884,4.87,1.333,12.421,4.259,17.913,7.127,29.3,11.909,21.643,9.241,29.018,12.583S1303.143,392.343,1303.009,392.661Z" transform="translate(-944.684 -115.713)" fill="#e0e0e0"/>
      <path id="Path_92" data-name="Path 92" d="M1223.722,358.923a2.438,2.438,0,1,1-2.438-2.437A2.437,2.437,0,0,1,1223.722,358.923Z" transform="translate(-945.685 -116.609)" fill="#e0e0e0"/>
      <path id="Path_93" data-name="Path 93" d="M1204.115,335.225a2.438,2.438,0,1,1-2.437-2.437A2.439,2.439,0,0,1,1204.115,335.225Z" transform="translate(-957.388 -130.752)" fill="#e0e0e0"/>
      <path id="Path_94" data-name="Path 94" d="M1191.782,364.157a2.438,2.438,0,1,1-2.438-2.437A2.439,2.439,0,0,1,1191.782,364.157Z" transform="translate(-964.747 -113.485)" fill="#e0e0e0"/>
      <path id="Path_95" data-name="Path 95" d="M1137.706,408.807a2.438,2.438,0,1,1-2.437-2.438A2.438,2.438,0,0,1,1137.706,408.807Z" transform="translate(-997.018 -86.839)" fill="#e0e0e0"/>
      <path id="Path_96" data-name="Path 96" d="M1113.995,385.212a2.437,2.437,0,1,1-2.437-2.438A2.436,2.436,0,0,1,1113.995,385.212Z" transform="translate(-1011.169 -100.921)" fill="#e0e0e0"/>
      <path id="Path_97" data-name="Path 97" d="M1306.549,376.229a2.438,2.438,0,1,1-2.438-2.438A2.439,2.439,0,0,1,1306.549,376.229Z" transform="translate(-896.256 -106.281)" fill="#e0e0e0"/>
      <path id="Path_98" data-name="Path 98" d="M1162.875,256.078a2.437,2.437,0,1,1-2.438-2.438A2.439,2.439,0,0,1,1162.875,256.078Z" transform="translate(-981.998 -177.986)" fill="#e0e0e0"/>
      <path id="Path_99" data-name="Path 99" d="M1294.851,411.063a2.438,2.438,0,1,1-2.437-2.438A2.436,2.436,0,0,1,1294.851,411.063Z" transform="translate(-903.236 -85.493)" fill="#e0e0e0"/>
      <g id="Group_55" data-name="Group 55" transform="translate(0 83.037)">
        <path id="Path_100" data-name="Path 100" d="M1047.8,291.567a26.38,26.38,0,0,1,3.677-2.5c2.454-1.555,6.093-3.807,10.78-6.67,9.372-5.729,22.931-13.911,39.584-23.888l.41-.246.45.188,45.259,18.962.538.227.139.573c4.626,19.128,9.705,40.124,15.018,62.083l0,.006.216.9-.793.468-54.529,32.166-.509.3-.538-.23-45.139-19.347-.449-.193-.109-.466c-4.479-19.106-8.073-34.668-10.5-45.462-1.214-5.4-2.136-9.6-2.732-12.466a26.822,26.822,0,0,1-.771-4.4,26.872,26.872,0,0,1,1.314,4.273c.771,2.82,1.862,6.986,3.235,12.346,2.747,10.718,6.621,26.213,11.32,45.266l-.557-.658,45.3,18.967-1.048.07,54.446-32.309c-.192.45-.382.9-.578,1.365v0c-5.253-21.975-10.277-42.984-14.853-62.125.233.278.468.554.675.8l-45.1-19.342.859-.057c-16.771,9.78-30.477,17.715-40.012,23.165-4.77,2.724-8.495,4.827-11.042,6.227A26.6,26.6,0,0,1,1047.8,291.567Z" transform="translate(-1047.778 -258.264)" fill="#e0e0e0"/>
        <path id="Path_101" data-name="Path 101" d="M1107.947,360.4c-.334.081-2.119-5.993-4.734-15.875s-6.063-23.578-9.718-38.738c-.593-2.47-1.175-4.9-1.728-7.21.244.291.482.57.719.848-12.75-5.45-23.987-10.376-32-14.015s-12.814-5.985-12.691-6.275,5.146,1.523,13.335,4.757,19.543,7.882,32.327,13.258l.572.24.148.608c.559,2.307,1.148,4.738,1.749,7.2,3.655,15.16,6.829,28.919,9.006,38.909S1108.283,360.317,1107.947,360.4Z" transform="translate(-1047.771 -245.829)" fill="#e0e0e0"/>
        <path id="Path_102" data-name="Path 102" d="M1076.086,303.174c-.351-.592,11.572-8.289,26.628-17.189s27.549-15.637,27.9-15.043-11.572,8.289-26.631,17.191S1076.436,303.768,1076.086,303.174Z" transform="translate(-1030.888 -250.72)" fill="#e0e0e0"/>
      </g>
      <g id="Group_56" data-name="Group 56" transform="translate(317.403 68.045)">
        <path id="Path_103" data-name="Path 103" d="M1246.572,282.178a26.39,26.39,0,0,1,3.678-2.5c2.454-1.555,6.093-3.807,10.778-6.671,9.372-5.728,22.931-13.908,39.584-23.886l.411-.246.449.188,45.261,18.963.538.225.139.573c4.626,19.13,9.705,40.124,15.018,62.085l0,0,.216.9-.793.468-54.531,32.166-.508.3-.538-.23c-16.654-7.138-31.878-13.664-45.138-19.348l-.45-.192-.109-.466c-4.479-19.107-8.073-34.668-10.5-45.462-1.214-5.4-2.137-9.6-2.732-12.468a26.8,26.8,0,0,1-.771-4.4,27.076,27.076,0,0,1,1.316,4.271c.77,2.822,1.86,6.988,3.233,12.346,2.745,10.721,6.619,26.214,11.318,45.267l-.557-.658c13.308,5.573,28.589,11.97,45.3,18.967l-1.047.07,54.446-32.309c-.19.45-.382.9-.578,1.365l0,0c-5.253-21.973-10.277-42.984-14.853-62.123l.677.8-45.1-19.343.859-.057c-16.769,9.78-30.475,17.715-40.012,23.165-4.768,2.724-8.493,4.827-11.04,6.228A27.01,27.01,0,0,1,1246.572,282.178Z" transform="translate(-1246.553 -248.875)" fill="#e0e0e0"/>
        <path id="Path_104" data-name="Path 104" d="M1306.722,351.008c-.335.081-2.121-5.993-4.735-15.875s-6.061-23.577-9.718-38.737c-.592-2.47-1.175-4.9-1.728-7.211l.719.848c-12.752-5.45-23.987-10.376-32-14.015s-12.816-5.985-12.691-6.275,5.146,1.523,13.335,4.757,19.542,7.882,32.324,13.257l.573.241.147.608c.561,2.307,1.15,4.736,1.748,7.2,3.657,15.16,6.831,28.919,9.009,38.909S1307.057,350.926,1306.722,351.008Z" transform="translate(-1246.547 -236.44)" fill="#e0e0e0"/>
        <path id="Path_105" data-name="Path 105" d="M1274.861,293.785c-.351-.592,11.573-8.291,26.628-17.189s27.549-15.636,27.9-15.043-11.57,8.289-26.631,17.191S1275.211,294.379,1274.861,293.785Z" transform="translate(-1229.664 -241.331)" fill="#e0e0e0"/>
      </g>
    </g>
  </g>
</svg>
