<svg xmlns="http://www.w3.org/2000/svg" xmlns:xlink="http://www.w3.org/1999/xlink" width="572.746" height="388.659" viewBox="0 0 572.746 388.659">
  <defs>
    <linearGradient id="linear-gradient" x1="0.5" y1="-0.422" x2="0.5" y2="1.105" gradientUnits="objectBoundingBox">
      <stop offset="0" stop-color="#fff"/>
      <stop offset="1"/>
    </linearGradient>
  </defs>
  <g id="block-chian-2" transform="translate(-849.776 -478.528)">
    <g id="Group_73" data-name="Group 73" transform="translate(849.776 478.528)">
      <line id="Line_1" data-name="Line 1" x1="140.249" y2="68.647" transform="translate(125.394 255.599)" fill="none" stroke="#2a2a2a" stroke-linecap="round" stroke-linejoin="round" stroke-width="0.974"/>
      <line id="Line_2" data-name="Line 2" x1="132.886" y1="65.044" transform="translate(130.604 88.984)" fill="none" stroke="#2a2a2a" stroke-linecap="round" stroke-linejoin="round" stroke-width="0.974"/>
      <line id="Line_3" data-name="Line 3" x2="135.475" y2="66.311" transform="translate(309.114 256.584)" fill="none" stroke="#2a2a2a" stroke-linecap="round" stroke-linejoin="round" stroke-width="0.974"/>
      <line id="Line_4" data-name="Line 4" y1="66.838" x2="136.551" transform="translate(309.255 87.19)" fill="none" stroke="#2a2a2a" stroke-linecap="round" stroke-linejoin="round" stroke-width="0.974"/>
      <g id="Group_60" data-name="Group 60" transform="translate(215.648 113.606)">
        <g id="Group_58" data-name="Group 58" transform="translate(0 55.727)">
          <path id="Path_106" data-name="Path 106" d="M955.757,546.489l-70.725-34.618v38.59l70.725,34.617,70.724-34.617v-38.59Z" transform="translate(-885.031 -477.253)" fill="#ef1d26"/>
          <path id="Path_107" data-name="Path 107" d="M955.757,506.212,885.031,540.83l70.725,34.618,70.724-34.618Z" transform="translate(-885.031 -506.212)" fill="#ef1d26"/>
          <path id="Path_108" data-name="Path 108" d="M885.031,511.871V550.46l70.725,34.618V546.489Z" transform="translate(-885.031 -477.253)" opacity="0.2" fill="url(#linear-gradient)" style="mix-blend-mode: multiply;isolation: isolate"/>
        </g>
        <g id="Group_59" data-name="Group 59">
          <path id="Path_109" data-name="Path 109" d="M955.757,537.379l-70.725-34.618v38.59l70.725,34.618,70.724-34.618v-38.59Z" transform="translate(-885.031 -468.143)" fill="#ef1d26"/>
          <path id="Path_110" data-name="Path 110" d="M955.757,497.1l-70.725,34.618,70.725,34.618,70.724-34.618Z" transform="translate(-885.031 -497.101)" fill="#ef1d26"/>
          <path id="Path_111" data-name="Path 111" d="M885.031,502.761v38.59l70.725,34.618V537.379Z" transform="translate(-885.031 -468.143)" opacity="0.2" fill="url(#linear-gradient)" style="mix-blend-mode: multiply;isolation: isolate"/>
        </g>
      </g>
      <g id="Group_63" data-name="Group 63" transform="translate(431.296 225.108)">
        <g id="Group_61" data-name="Group 61" transform="translate(0 55.727)">
          <path id="Path_112" data-name="Path 112" d="M991.012,564.719,920.287,530.1v38.59l70.725,34.617,70.725-34.617V530.1Z" transform="translate(-920.287 -495.483)" fill="#ef1d26"/>
          <path id="Path_113" data-name="Path 113" d="M991.012,524.441l-70.725,34.618,70.725,34.618,70.725-34.618Z" transform="translate(-920.287 -524.441)" fill="#ef1d26"/>
          <path id="Path_114" data-name="Path 114" d="M920.287,530.1V568.69l70.725,34.618V564.719Z" transform="translate(-920.287 -495.483)" opacity="0.2" fill="url(#linear-gradient)" style="mix-blend-mode: multiply;isolation: isolate"/>
        </g>
        <g id="Group_62" data-name="Group 62">
          <path id="Path_115" data-name="Path 115" d="M991.012,555.608,920.287,520.99v38.589L991.012,594.2l70.725-34.618V520.99Z" transform="translate(-920.287 -486.372)" fill="#ef1d26"/>
          <path id="Path_116" data-name="Path 116" d="M991.012,515.33l-70.725,34.618,70.725,34.618,70.725-34.618Z" transform="translate(-920.287 -515.33)" fill="#ef1d26"/>
          <path id="Path_117" data-name="Path 117" d="M920.287,520.99v38.589L991.012,594.2v-38.59Z" transform="translate(-920.287 -486.372)" opacity="0.2" fill="url(#linear-gradient)" style="mix-blend-mode: multiply;isolation: isolate"/>
        </g>
      </g>
      <g id="Group_66" data-name="Group 66" transform="translate(431.296)">
        <g id="Group_64" data-name="Group 64" transform="translate(0 55.727)">
          <path id="Path_118" data-name="Path 118" d="M991.012,527.916,920.287,493.3v38.589l70.725,34.618,70.725-34.618V493.3Z" transform="translate(-920.287 -458.681)" fill="#ef1d26"/>
          <path id="Path_119" data-name="Path 119" d="M991.012,487.639l-70.725,34.617,70.725,34.618,70.725-34.618Z" transform="translate(-920.287 -487.639)" fill="#ef1d26"/>
          <path id="Path_120" data-name="Path 120" d="M920.287,493.3v38.589l70.725,34.618v-38.59Z" transform="translate(-920.287 -458.681)" opacity="0.2" fill="url(#linear-gradient)" style="mix-blend-mode: multiply;isolation: isolate"/>
        </g>
        <g id="Group_65" data-name="Group 65">
          <path id="Path_121" data-name="Path 121" d="M991.012,518.806l-70.725-34.618v38.589l70.725,34.618,70.725-34.618V484.188Z" transform="translate(-920.287 -449.57)" fill="#ef1d26"/>
          <path id="Path_122" data-name="Path 122" d="M991.012,478.528l-70.725,34.618,70.725,34.618,70.725-34.618Z" transform="translate(-920.287 -478.528)" fill="#ef1d26"/>
          <path id="Path_123" data-name="Path 123" d="M920.287,484.188v38.589l70.725,34.618V518.806Z" transform="translate(-920.287 -449.57)" opacity="0.2" fill="url(#linear-gradient)" style="mix-blend-mode: multiply;isolation: isolate"/>
        </g>
      </g>
      <g id="Group_69" data-name="Group 69" transform="translate(0 225.108)">
        <g id="Group_67" data-name="Group 67" transform="translate(0 55.727)">
          <path id="Path_124" data-name="Path 124" d="M920.5,564.719,849.776,530.1v38.59L920.5,603.307l70.725-34.617V530.1Z" transform="translate(-849.775 -495.483)" fill="#ef1d26"/>
          <path id="Path_125" data-name="Path 125" d="M920.5,524.441l-70.724,34.618L920.5,593.677l70.725-34.618Z" transform="translate(-849.775 -524.441)" fill="#ef1d26"/>
          <path id="Path_126" data-name="Path 126" d="M849.776,530.1V568.69L920.5,603.307V564.719Z" transform="translate(-849.776 -495.483)" opacity="0.2" fill="url(#linear-gradient)" style="mix-blend-mode: multiply;isolation: isolate"/>
        </g>
        <g id="Group_68" data-name="Group 68">
          <path id="Path_127" data-name="Path 127" d="M920.5,555.608,849.776,520.99v38.589L920.5,594.2l70.725-34.618V520.99Z" transform="translate(-849.775 -486.372)" fill="#ef1d26"/>
          <path id="Path_128" data-name="Path 128" d="M920.5,515.33l-70.724,34.618L920.5,584.566l70.725-34.618Z" transform="translate(-849.775 -515.33)" fill="#ef1d26"/>
          <path id="Path_129" data-name="Path 129" d="M849.776,520.99v38.589L920.5,594.2v-38.59Z" transform="translate(-849.776 -486.372)" opacity="0.2" fill="url(#linear-gradient)" style="mix-blend-mode: multiply;isolation: isolate"/>
        </g>
      </g>
      <g id="Group_72" data-name="Group 72">
        <g id="Group_70" data-name="Group 70" transform="translate(0 55.727)">
          <path id="Path_130" data-name="Path 130" d="M920.5,527.916,849.776,493.3v38.589L920.5,566.506l70.725-34.618V493.3Z" transform="translate(-849.775 -458.681)" fill="#ef1d26"/>
          <path id="Path_131" data-name="Path 131" d="M920.5,487.639l-70.724,34.617L920.5,556.874l70.725-34.618Z" transform="translate(-849.775 -487.639)" fill="#ef1d26"/>
          <path id="Path_132" data-name="Path 132" d="M849.776,493.3v38.589L920.5,566.506v-38.59Z" transform="translate(-849.776 -458.681)" opacity="0.2" fill="url(#linear-gradient)" style="mix-blend-mode: multiply;isolation: isolate"/>
        </g>
        <g id="Group_71" data-name="Group 71">
          <path id="Path_133" data-name="Path 133" d="M920.5,518.806l-70.724-34.618v38.589L920.5,557.395l70.725-34.618V484.188Z" transform="translate(-849.775 -449.57)" fill="#ef1d26"/>
          <path id="Path_134" data-name="Path 134" d="M920.5,478.528l-70.724,34.618L920.5,547.764l70.725-34.618Z" transform="translate(-849.775 -478.528)" fill="#ef1d26"/>
          <path id="Path_135" data-name="Path 135" d="M849.776,484.188v38.589L920.5,557.395V518.806Z" transform="translate(-849.776 -449.57)" opacity="0.2" fill="url(#linear-gradient)" style="mix-blend-mode: multiply;isolation: isolate"/>
        </g>
      </g>
    </g>
  </g>
</svg>
