<svg xmlns="http://www.w3.org/2000/svg" xmlns:xlink="http://www.w3.org/1999/xlink" width="614" height="614" viewBox="0 0 614 614">
  <defs>
    <filter id="Ellipse_489" x="0" y="0" width="614" height="614" filterUnits="userSpaceOnUse">
      <feOffset dy="3" input="SourceAlpha"/>
      <feGaussianBlur stdDeviation="7" result="blur"/>
      <feFlood flood-color="#ffcfcf" flood-opacity="0.012"/>
      <feComposite operator="in" in2="blur"/>
      <feComposite in="SourceGraphic"/>
    </filter>
  </defs>
  <g id="open-source-2" transform="translate(-4395 11544)">
    <g id="vue-js-2" transform="translate(-347 -3916)">
      <g id="ai_2" data-name="ai 2" transform="translate(2740 -326)">
        <g id="ionic_2" data-name="ionic 2" transform="translate(-306 -1365)">
          <g id="yii_2" data-name="yii 2" transform="translate(-1813 -893)">
            <g id="Kotlin_2" data-name="Kotlin 2" transform="translate(1485 -625)">
              <g id="magento_2" data-name="magento 2" transform="translate(65 -1543)">
                <g id="django_2" data-name="django 2" transform="translate(-945 -1191)">
                  <g id="symfony_2" data-name="symfony 2" transform="translate(-545.879 -694.879)">
                    <g id="ruby-on-rails_2" data-name="ruby-on-rails 2" transform="translate(4083 -972)">
                      <g id="django_2-2" data-name="django 2">
                        <g id="codeigniter_2" data-name="codeigniter 2">
                          <g id="react-native_2" data-name="react-native 2">
                            <g id="laraval_2" data-name="laraval 2">
                              <g transform="matrix(1, 0, 0, 1, -21.12, -18.12)" filter="url(#Ellipse_489)">
                                <circle id="Ellipse_489-2" data-name="Ellipse 489" cx="286" cy="286" r="286" transform="translate(21 18)" fill="#f8f7f7"/>
                              </g>
                              <circle id="Ellipse_488" data-name="Ellipse 488" cx="235" cy="235" r="235" transform="translate(50.879 50.879)" fill="#f3f3f3"/>
                              <circle id="Ellipse_487" data-name="Ellipse 487" cx="182" cy="182" r="182" transform="translate(103.879 103.879)" fill="#eee"/>
                              <path id="Path_19249" data-name="Path 19249" d="M120.818,0A120.818,120.818,0,1,1,0,120.818,120.818,120.818,0,0,1,120.818,0Z" transform="translate(165.061 165.061)" fill="#e9e9e9"/>
                            </g>
                          </g>
                        </g>
                      </g>
                    </g>
                  </g>
                </g>
              </g>
            </g>
          </g>
        </g>
      </g>
    </g>
    <g id="open-source" transform="translate(4552.404 -11384.649)">
      <path id="Path_1916" data-name="Path 1916" d="M166.774,195.439a50.021,50.021,0,1,0-35.858,0l-33.7,87.834a144.062,144.062,0,1,1,103.253,0l-33.7-87.833" transform="translate(0.751 0.751)" fill="#3da639"/>
      <path id="Path_1917" data-name="Path 1917" d="M201.222,289.177a5.149,5.149,0,0,1-4.809-3.307l-33.7-87.833a5.153,5.153,0,0,1,2.964-6.657,44.87,44.87,0,1,0-32.166,0,5.153,5.153,0,0,1,2.964,6.657l-33.7,87.834a5.151,5.151,0,0,1-6.654,2.964A149.285,149.285,0,0,1,10.281,95.985a149.207,149.207,0,0,1,275.637-7.232,149.291,149.291,0,0,1-82.85,200.079,5.14,5.14,0,0,1-1.845.343ZM149.547,10.431a139.02,139.02,0,0,0-54.508,266.85l30.06-78.353a55.155,55.155,0,1,1,49,.007l30.055,78.342A139.045,139.045,0,0,0,149.545,10.434ZM277.892,268.374a9.73,9.73,0,0,0,6.891,16.564,9.25,9.25,0,0,0,6.826-2.864,9.5,9.5,0,0,0,2.832-6.9,9.4,9.4,0,0,0-2.816-6.795,9.513,9.513,0,0,0-13.732,0Zm15.1,15.212a11.7,11.7,0,0,1-19.939-8.417,11.184,11.184,0,0,1,3.66-8.546,11.494,11.494,0,0,1,8.067-3.182,11.759,11.759,0,0,1,8.212,20.146Zm-7.144-12.333a5.691,5.691,0,0,0-1.973-.27h-.828v3.771h1.321a3.152,3.152,0,0,0,1.861-.478,1.765,1.765,0,0,0,.669-1.543,1.489,1.489,0,0,0-1.05-1.48Zm-6.207,10.439v-13q1.21,0,3.621.008t2.681.023a6.267,6.267,0,0,1,2.563.669,3.273,3.273,0,0,1,1.734,3.1,2.858,2.858,0,0,1-.914,2.371,4.251,4.251,0,0,1-2.252.876,4.412,4.412,0,0,1,1.846.748,3.516,3.516,0,0,1,1.146,2.911v1.162a2.993,2.993,0,0,0,.023.381,1.944,1.944,0,0,0,.088.382l.111.366h-3.247a9.19,9.19,0,0,1-.206-1.8,5.93,5.93,0,0,0-.207-1.591,1.576,1.576,0,0,0-.955-.955,3.827,3.827,0,0,0-1.162-.207l-.748-.047h-.715v4.6h-3.406Z" fill="#1d531d"/>
    </g>
  </g>
</svg>
