<svg width="200" height="31" viewBox="0 0 200 31" fill="none" xmlns="http://www.w3.org/2000/svg">
<g id="Clip path group">
<mask id="mask0_135_6525" style="mask-type:luminance" maskUnits="userSpaceOnUse" x="0" y="0" width="200" height="31">
<g id="clip-path">
<path id="Rectangle 937" d="M200 0H0V31H200V0Z" fill="white"/>
</g>
</mask>
<g mask="url(#mask0_135_6525)">
<g id="Mask Group 7">
<g id="Group 4156">
<g id="Group 11">
<path id="Path 21" opacity="0.89" d="M26.7827 0.348145H44.9447V4.63916H32.7397V30.6331H26.7827V0.348145ZM34.3227 16.8481C34.4762 16.3662 34.6571 15.8934 34.8647 15.4322C35.0822 14.9399 35.3621 14.4778 35.6977 14.0572C36.0255 13.6451 36.4283 13.2987 36.8847 13.0361C37.3732 12.7634 37.9254 12.6254 38.4847 12.6361H43.5277V16.8431L34.3227 16.8481Z" fill="#D72131"/>
<path id="Path 22" d="M15.5646 30.5942C13.2983 30.6351 11.0453 30.2392 8.92861 29.4282C7.09098 28.712 5.42555 27.6154 4.04161 26.2102C2.71055 24.8371 1.6827 23.1998 1.02461 21.4042C0.329598 19.504 -0.0179353 17.4944 -0.00138894 15.4712C-0.0155317 13.458 0.345985 11.4598 1.06461 9.57921C1.74944 7.78294 2.79686 6.14696 4.14161 4.77321C5.53784 3.36869 7.20814 2.2665 9.04861 1.5352C11.1221 0.717342 13.3359 0.314053 15.5646 0.348191C16.7118 0.350225 17.8563 0.458036 18.9836 0.670212C20.2317 0.911783 21.4564 1.26177 22.6436 1.7162L21.1956 5.41618C20.2059 5.11263 19.1983 4.87083 18.1786 4.69218C17.314 4.55587 16.4399 4.48901 15.5646 4.4922C14.1135 4.45565 12.6761 4.78039 11.3816 5.43721C10.2352 6.0393 9.23337 6.88347 8.44561 7.91121C7.65254 8.96066 7.05933 10.1471 6.69561 11.4112C6.30619 12.73 6.10982 14.0981 6.11261 15.4732C6.10982 16.8482 6.30619 18.2164 6.69561 19.5352C7.06217 20.8041 7.65503 21.9962 8.44561 23.0542C9.22592 24.089 10.2295 24.9346 11.3816 25.5282C12.68 26.172 14.1158 26.4895 15.5646 26.4532C17.5067 26.4187 19.4167 25.9517 21.1556 25.0862L22.6436 28.7462C21.4981 29.3395 20.2909 29.805 19.0436 30.1342C17.9081 30.4341 16.7391 30.5886 15.5646 30.5942Z" fill="white"/>
<path id="Path 23" d="M53.4077 24.0092L51.1997 30.6322H45.3257L56.1987 0.347168H62.0307L72.9027 30.6322H66.7377L59.2377 8.09616L58.9047 6.55518L58.5317 8.18018L54.9907 18.9692L54.4907 19.8022L55.1157 19.7192H58.2817C58.8383 19.7047 59.3874 19.8494 59.8647 20.1362C60.3098 20.4154 60.7042 20.7685 61.0307 21.1802C61.3716 21.6101 61.6584 22.0803 61.8847 22.5802C62.1022 23.0468 62.29 23.5268 62.4467 24.0172L53.4077 24.0092Z" fill="white"/>
</g>
<path id="Line 1" d="M82.6707 0.690918V30.9089" stroke="white" stroke-width="1.5" stroke-linecap="round"/>
<path id="Path 6408" d="M104.563 12.282C103.479 12.7474 102.304 12.965 101.126 12.919C100.327 12.9628 99.5289 12.8409 98.7801 12.5611C98.0313 12.2813 97.3485 11.8495 96.7747 11.293C96.2343 10.7128 95.8154 10.0304 95.5427 9.28594C95.27 8.54147 95.1489 7.74996 95.1867 6.958C95.1512 6.09828 95.2908 5.24031 95.5969 4.43617C95.9031 3.63202 96.3694 2.89846 96.9677 2.28C97.5749 1.67996 98.2989 1.21109 99.0949 0.902487C99.8908 0.593881 100.742 0.45212 101.595 0.485999C102.602 0.459856 103.607 0.610119 104.563 0.929999V3.537C103.73 3.04876 102.778 2.79931 101.813 2.816C101.308 2.79473 100.805 2.8784 100.334 3.06172C99.864 3.24504 99.4367 3.52402 99.0797 3.881C98.7229 4.26818 98.4471 4.72275 98.2685 5.21801C98.0899 5.71328 98.0121 6.23924 98.0397 6.765C97.9879 7.78438 98.3404 8.78302 99.0207 9.544C99.363 9.89307 99.7752 10.1657 100.23 10.3441C100.686 10.5225 101.173 10.6026 101.662 10.579C102.68 10.5889 103.683 10.3225 104.562 9.808L104.563 12.282ZM111.503 12.919C110.889 12.9539 110.274 12.8657 109.695 12.6596C109.115 12.4535 108.583 12.1337 108.129 11.719C107.71 11.2886 107.385 10.7764 107.174 10.2146C106.963 9.65282 106.87 9.05343 106.901 8.454C106.866 7.84019 106.962 7.22604 107.181 6.65181C107.401 6.07758 107.74 5.55625 108.175 5.122C109.121 4.28539 110.359 3.8544 111.621 3.922C112.231 3.8868 112.843 3.9749 113.419 4.18106C113.995 4.38722 114.524 4.70722 114.974 5.122C115.383 5.54055 115.701 6.03855 115.91 6.58519C116.118 7.13183 116.213 7.71547 116.187 8.3C116.219 8.91877 116.125 9.53769 115.91 10.1186C115.694 10.6996 115.362 11.2303 114.934 11.678C114.474 12.1047 113.934 12.4345 113.345 12.6478C112.755 12.861 112.129 12.9532 111.503 12.919ZM111.57 5.944C111.293 5.9297 111.017 5.98072 110.763 6.09294C110.51 6.20516 110.286 6.37543 110.111 6.59C109.733 7.12178 109.55 7.76709 109.591 8.418C109.591 10.0667 110.257 10.891 111.591 10.891C112.857 10.891 113.491 10.0443 113.491 8.351C113.488 6.74633 112.848 5.944 111.57 5.944ZM127.212 12.706H124.571V7.936C124.571 6.60267 124.096 5.936 123.146 5.936C122.929 5.93144 122.714 5.97668 122.518 6.06823C122.322 6.15977 122.149 6.29518 122.014 6.464C121.708 6.84265 121.551 7.31903 121.57 7.805V12.705H118.921V4.125H121.57V5.483H121.604C121.874 4.99274 122.275 4.58681 122.762 4.31009C123.248 4.03337 123.802 3.89663 124.362 3.915C126.262 3.915 127.212 5.09433 127.212 7.453V12.706ZM129.759 12.48V10.337C130.165 10.5869 130.602 10.7841 131.059 10.924C131.457 11.0468 131.87 11.1115 132.287 11.116C132.667 11.1326 133.046 11.0668 133.398 10.923C133.518 10.8787 133.621 10.7986 133.694 10.6936C133.766 10.5886 133.805 10.4638 133.805 10.336C133.806 10.257 133.791 10.1785 133.759 10.1062C133.727 10.0338 133.68 9.96924 133.621 9.917C133.48 9.79413 133.32 9.69516 133.147 9.624C132.941 9.53553 132.729 9.46005 132.514 9.398C132.284 9.33133 132.064 9.256 131.852 9.172C131.541 9.05734 131.24 8.91859 130.952 8.757C130.707 8.62127 130.487 8.44703 130.298 8.241C130.121 8.04301 129.985 7.81232 129.898 7.562C129.8 7.26748 129.753 6.95832 129.76 6.648C129.748 6.21326 129.856 5.78368 130.074 5.407C130.282 5.06142 130.569 4.76986 130.912 4.556C131.281 4.32708 131.687 4.16273 132.112 4.07C132.571 3.96575 133.041 3.91376 133.512 3.915C133.899 3.91553 134.286 3.94495 134.669 4.003C135.06 4.06174 135.446 4.14727 135.826 4.259V6.306C135.489 6.10985 135.126 5.96174 134.749 5.866C134.38 5.76994 134.001 5.72056 133.621 5.719C133.456 5.71818 133.292 5.73359 133.131 5.765C132.99 5.79139 132.853 5.83645 132.724 5.899C132.614 5.9508 132.519 6.02836 132.447 6.125C132.38 6.21609 132.345 6.32627 132.347 6.439C132.344 6.58668 132.398 6.72971 132.498 6.839C132.61 6.95917 132.743 7.05721 132.892 7.128C133.066 7.2141 133.247 7.28697 133.433 7.346C133.633 7.41267 133.83 7.47933 134.024 7.546C134.351 7.65767 134.67 7.79131 134.98 7.946C135.248 8.07942 135.495 8.25159 135.714 8.457C135.916 8.65075 136.076 8.88477 136.183 9.144C136.314 9.50861 136.367 9.89691 136.338 10.2835C136.309 10.67 136.199 11.0461 136.015 11.387C135.795 11.746 135.494 12.0476 135.135 12.267C134.744 12.5032 134.316 12.6706 133.869 12.762C133.38 12.8665 132.881 12.9185 132.381 12.917C131.488 12.926 130.601 12.7791 129.759 12.483V12.48ZM147.044 12.706H144.403V11.406H144.361C144.097 11.869 143.716 12.2536 143.254 12.5202C142.793 12.7869 142.269 12.9259 141.737 12.923C139.747 12.923 138.753 11.7187 138.753 9.31V4.125H141.394V9.071C141.394 10.2837 141.874 10.89 142.836 10.89C143.051 10.8983 143.266 10.8576 143.463 10.771C143.661 10.6844 143.836 10.5541 143.976 10.39C144.278 10.0057 144.43 9.52436 144.404 9.036V4.125H147.045L147.044 12.706ZM152.936 12.706H150.287V0H152.936V12.706ZM161.368 12.606C160.81 12.845 160.204 12.9511 159.599 12.916C157.732 12.916 156.799 11.9463 156.799 10.007V6.078H155.408V4.125H156.8V2.272L159.441 1.518V4.125H161.369V6.078H159.44V9.549C159.44 10.443 159.795 10.89 160.505 10.89C160.808 10.8831 161.105 10.7995 161.368 10.647V12.606ZM171.016 12.706H168.509V11.477H168.475C168.224 11.9305 167.852 12.3054 167.4 12.56C166.949 12.8146 166.436 12.9388 165.918 12.919C165.559 12.9389 165.2 12.8865 164.863 12.7649C164.525 12.6433 164.215 12.4549 163.952 12.211C163.709 11.9619 163.52 11.6656 163.397 11.3405C163.274 11.0153 163.218 10.6683 163.235 10.321C163.235 8.65433 164.221 7.693 166.194 7.437L168.525 7.127C168.525 6.18833 168.016 5.719 166.999 5.719C165.957 5.72503 164.941 6.04341 164.082 6.633V4.633C164.564 4.4055 165.072 4.2376 165.595 4.133C166.167 3.99584 166.754 3.92272 167.343 3.915C169.791 3.915 171.015 5.13633 171.015 7.579L171.016 12.706ZM168.526 9.219V8.641L166.967 8.841C166.106 8.953 165.676 9.34133 165.676 10.006C165.671 10.145 165.697 10.2833 165.751 10.4114C165.806 10.5395 165.887 10.6543 165.99 10.748C166.226 10.9502 166.53 11.0537 166.841 11.037C167.069 11.0446 167.296 11.0024 167.506 10.9133C167.716 10.8242 167.904 10.6903 168.057 10.521C168.374 10.1641 168.542 9.69911 168.526 9.222V9.219ZM182.416 12.706H179.775V7.936C179.775 6.60267 179.3 5.936 178.35 5.936C178.133 5.93144 177.918 5.97668 177.722 6.06823C177.526 6.15977 177.353 6.29518 177.218 6.464C176.912 6.84265 176.755 7.31903 176.774 7.805V12.705H174.125V4.125H176.774V5.483H176.808C177.078 4.99274 177.479 4.58681 177.966 4.31009C178.452 4.03337 179.006 3.89663 179.566 3.915C181.466 3.915 182.416 5.09433 182.416 7.453V12.706ZM190.716 12.606C190.158 12.845 189.552 12.9511 188.947 12.916C187.08 12.916 186.147 11.9463 186.147 10.007V6.078H184.753V4.125H186.145V2.272L188.786 1.518V4.125H190.714V6.078H188.787V9.549C188.787 10.443 189.142 10.89 189.852 10.89C190.155 10.8831 190.452 10.7995 190.715 10.647L190.716 12.606ZM192.66 12.48V10.337C193.066 10.5869 193.503 10.7841 193.96 10.924C194.358 11.0472 194.771 11.1122 195.188 11.117C195.568 11.1336 195.947 11.0678 196.299 10.924C196.419 10.8797 196.522 10.7996 196.595 10.6946C196.667 10.5896 196.706 10.4648 196.706 10.337C196.707 10.258 196.692 10.1795 196.66 10.1072C196.628 10.0348 196.581 9.97024 196.522 9.918C196.381 9.79513 196.221 9.69616 196.048 9.625C195.842 9.53653 195.63 9.46105 195.415 9.399C195.185 9.33233 194.965 9.257 194.753 9.173C194.442 9.05834 194.141 8.91958 193.853 8.758C193.608 8.6222 193.388 8.44797 193.199 8.242C193.022 8.04401 192.886 7.81332 192.799 7.563C192.701 7.26848 192.654 6.95932 192.661 6.649C192.649 6.21426 192.757 5.78468 192.975 5.408C193.183 5.06242 193.47 4.77086 193.813 4.557C194.182 4.32808 194.588 4.16373 195.013 4.071C195.472 3.96675 195.942 3.91476 196.413 3.916C196.8 3.91653 197.187 3.94595 197.57 4.004C197.961 4.06274 198.347 4.14827 198.727 4.26V6.306C198.39 6.10985 198.027 5.96174 197.65 5.866C197.281 5.76994 196.902 5.72056 196.522 5.719C196.357 5.71818 196.193 5.73359 196.032 5.765C195.891 5.79139 195.754 5.83645 195.625 5.899C195.515 5.9508 195.42 6.02836 195.348 6.125C195.281 6.21609 195.246 6.32627 195.248 6.439C195.245 6.58668 195.299 6.72971 195.399 6.839C195.511 6.95917 195.644 7.05721 195.793 7.128C195.967 7.2141 196.148 7.28697 196.334 7.346C196.534 7.41267 196.731 7.47933 196.925 7.546C197.252 7.65767 197.571 7.79131 197.881 7.946C198.149 8.07942 198.396 8.25159 198.615 8.457C198.817 8.65075 198.977 8.88477 199.084 9.144C199.215 9.50859 199.268 9.8969 199.239 10.2835C199.211 10.67 199.1 11.0461 198.916 11.387C198.696 11.746 198.395 12.0476 198.036 12.267C197.645 12.5032 197.217 12.6706 196.77 12.762C196.281 12.8665 195.782 12.9185 195.282 12.917C194.388 12.9262 193.5 12.7793 192.658 12.483L192.66 12.48Z" fill="white"/>
<path id="Path 6407" d="M103.93 19.3878H99.0465V23.7118H103.564V25.0288H99.0465V30.5648H97.5825V18.0618H103.93V19.3878ZM114.158 23.0878C113.838 22.8759 113.459 22.7748 113.077 22.7998C112.769 22.8033 112.468 22.8842 112.201 23.0351C111.933 23.1859 111.708 23.4018 111.547 23.6628C111.102 24.3643 110.887 25.1872 110.932 26.0168V30.5678H109.502V21.6368H110.932V23.4768H110.967C111.131 22.9089 111.453 22.3995 111.896 22.0078C112.283 21.6684 112.78 21.4811 113.296 21.4808C113.585 21.468 113.875 21.5094 114.15 21.6028L114.158 23.0878ZM122.834 30.7778C122.248 30.8048 121.664 30.7072 121.119 30.4916C120.574 30.2759 120.081 29.9471 119.673 29.5268C118.858 28.6179 118.435 27.4246 118.496 26.2058C118.458 25.5678 118.547 24.9288 118.758 24.3255C118.969 23.7223 119.297 23.167 119.725 22.6918C120.161 22.2626 120.681 21.9287 121.253 21.7111C121.825 21.4936 122.435 21.3971 123.047 21.4278C123.624 21.3951 124.202 21.488 124.74 21.7002C125.278 21.9124 125.764 22.2387 126.164 22.6568C126.957 23.6093 127.357 24.8284 127.284 26.0658C127.344 27.3206 126.91 28.5491 126.076 29.4878C125.658 29.9202 125.152 30.2586 124.593 30.4804C124.034 30.7021 123.434 30.8021 122.834 30.7738V30.7778ZM122.934 22.6348C122.523 22.6161 122.114 22.6907 121.736 22.853C121.358 23.0153 121.022 23.261 120.754 23.5718C120.183 24.3082 119.899 25.2267 119.954 26.1568C119.903 27.062 120.192 27.9535 120.765 28.6568C121.036 28.9603 121.372 29.1997 121.747 29.3579C122.123 29.5162 122.529 29.5892 122.936 29.5718C123.336 29.5955 123.737 29.5266 124.107 29.3705C124.476 29.2145 124.805 28.9754 125.068 28.6718C125.609 27.9345 125.873 27.0305 125.816 26.1178C125.875 25.1969 125.612 24.2842 125.071 23.5368C124.809 23.2312 124.481 22.9904 124.111 22.8332C123.741 22.676 123.34 22.6067 122.939 22.6308L122.934 22.6348ZM145.634 30.5688H144.204V25.4378C144.261 24.6936 144.102 23.9486 143.746 23.2928C143.566 23.0614 143.33 22.8792 143.061 22.7633C142.792 22.6473 142.498 22.6014 142.207 22.6298C141.899 22.6333 141.597 22.7113 141.326 22.8571C141.055 23.0028 140.823 23.212 140.651 23.4668C140.217 24.0437 139.991 24.7503 140.01 25.4718V30.5638H138.58V25.2638C138.58 23.5084 137.903 22.6308 136.549 22.6308C136.245 22.6272 135.946 22.6969 135.676 22.8339C135.405 22.9709 135.172 23.1712 134.996 23.4178C134.567 24.0139 134.352 24.7373 134.386 25.4708V30.5628H132.956V21.6368H134.386V23.0488H134.421C134.685 22.5458 135.085 22.1271 135.576 21.8405C136.066 21.5539 136.628 21.4109 137.196 21.4278C137.761 21.4158 138.315 21.5902 138.772 21.9242C139.229 22.2581 139.563 22.7331 139.724 23.2758C139.984 22.7126 140.403 22.2377 140.93 21.9094C141.456 21.5811 142.067 21.4137 142.688 21.4278C144.652 21.4278 145.635 22.6398 145.635 25.0638L145.634 30.5688ZM169.883 30.5688H168.261L166.936 27.0688H161.636L160.389 30.5688H158.759L163.559 18.0688H165.076L169.883 30.5688ZM166.457 25.7478L164.496 20.4178C164.408 20.1447 164.344 19.8647 164.304 19.5808H164.269C164.228 19.8653 164.161 20.1455 164.069 20.4178L162.125 25.7448L166.457 25.7478ZM174.383 30.2478V28.7078C175.122 29.2699 176.026 29.5732 176.955 29.5708C178.21 29.5708 178.838 29.1524 178.838 28.3158C178.844 28.1023 178.788 27.8916 178.677 27.7098C178.561 27.5362 178.413 27.3868 178.241 27.2698C178.039 27.132 177.822 27.0166 177.596 26.9258C177.348 26.8238 177.082 26.7178 176.796 26.6078C176.44 26.4689 176.092 26.3103 175.754 26.1328C175.478 25.9903 175.226 25.808 175.004 25.5918C174.807 25.3973 174.653 25.1645 174.551 24.9078C174.443 24.6202 174.391 24.3148 174.398 24.0078C174.39 23.6177 174.49 23.2331 174.686 22.8958C174.878 22.5721 175.14 22.2952 175.453 22.0848C175.787 21.86 176.157 21.6933 176.547 21.5918C176.96 21.4807 177.387 21.4248 177.816 21.4258C178.527 21.4134 179.234 21.5496 179.891 21.8258V23.2728C179.216 22.8374 178.426 22.6129 177.624 22.6278C177.379 22.6249 177.135 22.6559 176.9 22.7198C176.701 22.7727 176.514 22.8597 176.346 22.9768C176.198 23.0812 176.075 23.218 175.989 23.3768C175.904 23.5333 175.86 23.7088 175.863 23.8868C175.856 24.0889 175.899 24.2895 175.989 24.4708C176.08 24.6356 176.207 24.7783 176.36 24.8888C176.543 25.0225 176.742 25.1336 176.953 25.2198C177.185 25.3184 177.45 25.4261 177.746 25.5428C178.108 25.6793 178.463 25.8349 178.81 26.0088C179.099 26.1528 179.368 26.3348 179.61 26.5498C179.825 26.7433 179.999 26.9792 180.12 27.2428C180.245 27.5373 180.306 27.8555 180.299 28.1758C180.309 28.5789 180.208 28.9771 180.007 29.3268C179.812 29.6529 179.545 29.9302 179.227 30.1378C178.882 30.3612 178.501 30.5236 178.102 30.6178C177.665 30.7239 177.217 30.7766 176.768 30.7748C175.941 30.7944 175.122 30.6114 174.383 30.2418V30.2478ZM186.625 19.3698C186.504 19.372 186.383 19.3499 186.271 19.3049C186.159 19.2599 186.057 19.1929 185.971 19.1078C185.882 19.0222 185.812 18.919 185.765 18.8049C185.719 18.6907 185.697 18.568 185.701 18.4448C185.699 18.3229 185.722 18.2019 185.768 18.089C185.814 17.976 185.882 17.8734 185.968 17.7871C186.054 17.7007 186.156 17.6324 186.269 17.5862C186.382 17.54 186.503 17.5167 186.625 17.5178C186.748 17.5153 186.87 17.5376 186.985 17.5832C187.1 17.6289 187.204 17.6971 187.292 17.7838C187.379 17.8703 187.448 17.9732 187.495 18.0866C187.542 18.1999 187.566 18.3215 187.566 18.4443C187.566 18.567 187.542 18.6886 187.495 18.802C187.448 18.9153 187.379 19.0182 187.292 19.1048C187.204 19.1916 187.1 19.2598 186.985 19.3053C186.87 19.3508 186.748 19.3728 186.625 19.3698ZM187.325 30.5648H185.896V21.6368H187.326L187.325 30.5648ZM200.003 30.5648H198.573V29.1698H198.538C198.276 29.6674 197.88 30.0814 197.394 30.3643C196.909 30.6473 196.353 30.7878 195.792 30.7698C195.03 30.8146 194.281 30.5614 193.704 30.0638C193.452 29.823 193.254 29.5311 193.124 29.2077C192.994 28.8844 192.934 28.537 192.95 28.1888C192.95 26.5221 193.932 25.5514 195.897 25.2768L198.574 24.9018C198.574 23.3844 197.96 22.6258 196.734 22.6258C195.661 22.6254 194.626 23.0165 193.822 23.7258V22.2648C194.73 21.6979 195.784 21.4072 196.856 21.4278C198.954 21.4278 200.003 22.5381 200.003 24.7588V30.5648ZM198.573 26.0488L196.419 26.3488C195.887 26.3967 195.374 26.5653 194.919 26.8418C194.737 26.992 194.596 27.185 194.508 27.4034C194.419 27.6217 194.387 27.8586 194.413 28.0928C194.406 28.2942 194.445 28.4944 194.526 28.6791C194.606 28.8637 194.727 29.0283 194.879 29.1608C195.226 29.4498 195.669 29.5975 196.121 29.5748C196.45 29.5836 196.777 29.5216 197.08 29.3931C197.383 29.2646 197.655 29.0725 197.878 28.8298C198.346 28.3152 198.595 27.6375 198.571 26.9418L198.573 26.0488Z" fill="white"/>
</g>
</g>
</g>
</g>
</svg>
