<svg width="195" height="195" viewBox="0 0 195 195" fill="none" xmlns="http://www.w3.org/2000/svg">
<g filter="url(#filter0_d_15_3332)">
<path d="M141.979 10H42.0618C27.116 10 15 22.116 15 37.0617V136.979C15 151.925 27.116 164.041 42.0618 164.041H141.979C156.925 164.041 169.041 151.925 169.041 136.979V37.0617C169.041 22.116 156.925 10 141.979 10Z" fill="#FF4103"/>
</g>
<path d="M121.109 53.2774V76.4098C116.568 71.1165 109.976 68.6268 102.518 68.6268C96.0177 68.6268 90.1615 70.3696 85.4365 73.5575C84.1322 74.4289 82.9198 75.4139 81.7994 76.5018C77.4263 70.9974 70.6067 68.3995 62.6181 68.3995C56.7295 68.3995 51.4795 69.7851 47.3228 72.4047C47.1496 72.5075 46.9764 72.6157 46.8086 72.7294C45.4555 73.6333 44.2269 74.667 43.139 75.8361V52.7741C43.139 49.1911 40.238 46.2901 36.655 46.2901H35.946C32.3631 46.2901 29.462 49.1911 29.462 52.7741V120.991C29.462 124.574 32.3631 127.475 35.946 127.475H36.655C40.238 127.475 43.139 124.574 43.139 120.991V97.9293C43.139 90.1355 46.0509 84.9072 50.8787 82.2876C53.2926 80.9724 56.1936 80.3121 59.441 80.3121C68.1928 80.3121 73.34 85.3456 73.34 95.7427V97.7074C73.34 97.8481 73.34 97.9888 73.34 98.1241C73.34 98.2594 73.34 98.4056 73.34 98.5409C73.459 110.069 78.7469 118.967 87.017 123.768C91.4443 126.344 96.7267 127.741 102.518 127.741C110.409 127.741 117.11 125.04 121.651 119.525V120.499C121.651 124.082 124.552 126.983 128.135 126.983C131.718 126.983 134.619 124.082 134.619 120.499V53.2612C134.619 49.6782 131.718 46.7772 128.135 46.7772H127.593C124.01 46.7772 121.109 49.6782 121.109 53.2612V53.2774ZM104.142 116.191C98.5994 116.191 93.7878 113.912 90.6865 109.901C88.6244 107.249 87.3146 103.845 87.017 99.8507V96.4247C87.2984 92.5819 88.5216 89.2912 90.4484 86.6878C93.5443 82.4879 98.4587 80.0848 104.142 80.0848C113.873 80.0848 121.326 87.11 121.326 98.135C121.326 109.16 113.873 116.185 104.142 116.185V116.191Z" fill="white"/>
<path d="M146.872 126.82C151.129 126.82 154.579 123.369 154.579 119.113C154.579 114.856 151.129 111.406 146.872 111.406C142.616 111.406 139.165 114.856 139.165 119.113C139.165 123.369 142.616 126.82 146.872 126.82Z" fill="white"/>
<defs>
<filter id="filter0_d_15_3332" x="0" y="0" width="194.041" height="194.041" filterUnits="userSpaceOnUse" color-interpolation-filters="sRGB">
<feFlood flood-opacity="0" result="BackgroundImageFix"/>
<feColorMatrix in="SourceAlpha" type="matrix" values="0 0 0 0 0 0 0 0 0 0 0 0 0 0 0 0 0 0 127 0" result="hardAlpha"/>
<feOffset dx="5" dy="10"/>
<feGaussianBlur stdDeviation="10"/>
<feColorMatrix type="matrix" values="0 0 0 0 1 0 0 0 0 0.254902 0 0 0 0 0.0117647 0 0 0 0.3 0"/>
<feBlend mode="normal" in2="BackgroundImageFix" result="effect1_dropShadow_15_3332"/>
<feBlend mode="normal" in="SourceGraphic" in2="effect1_dropShadow_15_3332" result="shape"/>
</filter>
</defs>
</svg>
