<svg width="220" height="109" viewBox="0 0 220 109" fill="none" xmlns="http://www.w3.org/2000/svg">
<g id="Layer 2">
<g id="Group">
<g id="Group_2">
<path id="Vector" d="M62.439 29.3488V39.6912C60.4088 37.3246 57.4614 36.2115 54.1269 36.2115C51.2207 36.2115 48.6024 36.9907 46.4899 38.4159C45.9068 38.8055 45.3647 39.2459 44.8638 39.7323C42.9086 37.2714 39.8596 36.1098 36.288 36.1098C33.6552 36.1098 31.308 36.7293 29.4495 37.9005C29.3721 37.9465 29.2947 37.9949 29.2197 38.0457C28.6147 38.4498 28.0654 38.912 27.579 39.4347V29.1238C27.579 27.5219 26.282 26.2249 24.6801 26.2249H24.3631C22.7611 26.2249 21.4641 27.5219 21.4641 29.1238V59.6233C21.4641 61.2252 22.7611 62.5222 24.3631 62.5222H24.6801C26.282 62.5222 27.579 61.2252 27.579 59.6233V49.3124C27.579 45.8279 28.8809 43.4903 31.0394 42.3191C32.1186 41.7311 33.4156 41.4359 34.8675 41.4359C38.7804 41.4359 41.0816 43.6863 41.0816 48.3348V49.2132C41.0816 49.2761 41.0816 49.339 41.0816 49.3995C41.0816 49.46 41.0816 49.5254 41.0816 49.5858C41.1349 54.7401 43.499 58.7183 47.1965 60.8647C49.176 62.0165 51.5377 62.6408 54.1269 62.6408C57.655 62.6408 60.6508 61.4333 62.681 58.9675V59.4031C62.681 61.005 63.978 62.302 65.5799 62.302C67.1819 62.302 68.4789 61.005 68.4789 59.4031V29.3416C68.4789 27.7397 67.1819 26.4426 65.5799 26.4426H65.338C63.736 26.4426 62.439 27.7397 62.439 29.3416V29.3488ZM54.8529 57.4769C52.375 57.4769 50.2237 56.4582 48.8372 54.6651C47.9152 53.4793 47.3296 51.9573 47.1965 50.1714V48.6397C47.3224 46.9216 47.8692 45.4504 48.7307 44.2864C50.1148 42.4086 52.312 41.3342 54.8529 41.3342C59.2037 41.3342 62.5358 44.4752 62.5358 49.4044C62.5358 54.3335 59.2037 57.4745 54.8529 57.4745V57.4769Z" fill="white"/>
<path id="Vector_2" d="M73.9566 62.2285C75.8597 62.2285 77.4024 60.6857 77.4024 58.7826C77.4024 56.8795 75.8597 55.3368 73.9566 55.3368C72.0535 55.3368 70.5107 56.8795 70.5107 58.7826C70.5107 60.6857 72.0535 62.2285 73.9566 62.2285Z" fill="white"/>
</g>
<g id="Group_3">
<g id="Vector_3" filter="url(#filter0_d_131_1493)">
<path d="M71.7703 10H27.0989C20.4168 10 15 15.4168 15 22.0989V66.7703C15 73.4523 20.4168 78.8691 27.0989 78.8691H71.7703C78.4523 78.8691 83.8691 73.4523 83.8691 66.7703V22.0989C83.8691 15.4168 78.4523 10 71.7703 10Z" fill="#FF4103"/>
</g>
<g id="Group_4">
<path id="Vector_4" d="M62.439 29.3488V39.6912C60.4088 37.3246 57.4614 36.2115 54.1269 36.2115C51.2207 36.2115 48.6024 36.9907 46.4899 38.4159C45.9068 38.8055 45.3647 39.2459 44.8638 39.7323C42.9086 37.2714 39.8596 36.1098 36.288 36.1098C33.6552 36.1098 31.308 36.7293 29.4495 37.9005C29.3721 37.9465 29.2947 37.9949 29.2197 38.0457C28.6147 38.4498 28.0654 38.912 27.579 39.4347V29.1238C27.579 27.5219 26.282 26.2249 24.6801 26.2249H24.3631C22.7611 26.2249 21.4641 27.5219 21.4641 29.1238V59.6233C21.4641 61.2252 22.7611 62.5222 24.3631 62.5222H24.6801C26.282 62.5222 27.579 61.2252 27.579 59.6233V49.3124C27.579 45.8279 28.8809 43.4903 31.0394 42.3191C32.1186 41.7311 33.4156 41.4359 34.8675 41.4359C38.7804 41.4359 41.0816 43.6863 41.0816 48.3348V49.2132C41.0816 49.2761 41.0816 49.339 41.0816 49.3995C41.0816 49.46 41.0816 49.5254 41.0816 49.5858C41.1349 54.7401 43.499 58.7183 47.1965 60.8647C49.176 62.0165 51.5377 62.6408 54.1269 62.6408C57.655 62.6408 60.6508 61.4333 62.681 58.9675V59.4031C62.681 61.005 63.978 62.302 65.5799 62.302C67.1819 62.302 68.4789 61.005 68.4789 59.4031V29.3416C68.4789 27.7397 67.1819 26.4426 65.5799 26.4426H65.338C63.736 26.4426 62.439 27.7397 62.439 29.3416V29.3488ZM54.8529 57.4769C52.375 57.4769 50.2237 56.4582 48.8372 54.6651C47.9152 53.4793 47.3296 51.9573 47.1965 50.1714V48.6397C47.3224 46.9216 47.8692 45.4504 48.7307 44.2864C50.1148 42.4086 52.312 41.3342 54.8529 41.3342C59.2037 41.3342 62.5358 44.4752 62.5358 49.4044C62.5358 54.3335 59.2037 57.4745 54.8529 57.4745V57.4769Z" fill="white"/>
<path id="Vector_5" d="M73.9566 62.2285C75.8597 62.2285 77.4024 60.6857 77.4024 58.7826C77.4024 56.8795 75.8597 55.3368 73.9566 55.3368C72.0535 55.3368 70.5107 56.8795 70.5107 58.7826C70.5107 60.6857 72.0535 62.2285 73.9566 62.2285Z" fill="white"/>
</g>
</g>
<g id="Group_5">
<path id="Vector_6" d="M120.96 46.1785V31.8652H103.24V46.1785H98.3083V15.0813H103.24V28.3419H120.96V15.0813H125.892V46.1785H120.96Z" fill="#1C1C1C"/>
<path id="Vector_7" d="M138.919 46.1785V15.0813H143.851V46.1785H138.919Z" fill="#1C1C1C"/>
<path id="Vector_8" d="M161.808 34.5778V46.1785H156.876V15.0813H171.189C174.969 15.0813 177.953 15.9524 180.138 17.6923C182.325 19.4346 183.417 21.8084 183.417 24.8187C183.417 26.9772 182.604 28.9009 180.975 30.5875C179.383 32.1943 177.28 33.3002 174.669 33.9075L186.032 46.1761H179.777L169.302 34.5754H161.803L161.808 34.5778ZM161.808 18.6046V31.0352H170.146C172.552 31.0352 174.497 30.4762 175.981 29.3559C177.464 28.2355 178.204 26.7231 178.204 24.8211C178.204 22.9191 177.5 21.3728 176.094 20.267C174.688 19.1611 172.704 18.607 170.146 18.607H161.808V18.6046Z" fill="#1C1C1C"/>
<path id="Vector_9" d="M217.241 42.6552V46.1785H195.124V15.0813H217.241V18.6046H200.055V28.6856H215.69V32.1266H200.055V42.6528H217.241V42.6552Z" fill="#1C1C1C"/>
</g>
<g id="Group_6">
<path id="Vector_10" d="M95.8989 68.0867V53.8702H100.344C102.65 53.8702 104.497 54.5405 105.881 55.8618C107.265 57.183 107.957 58.8188 107.957 60.8103C107.957 62.8018 107.243 64.5852 105.796 65.9887C104.371 67.3946 102.505 68.0867 100.218 68.0867H95.8989ZM97.3678 66.8066H100.366C102.19 66.8066 103.657 66.2404 104.77 65.1297C105.881 64.019 106.447 62.5937 106.447 60.895C106.447 59.1963 105.902 57.8339 104.789 56.7644C103.679 55.6948 102.188 55.1503 100.281 55.1503H97.3678V66.809V66.8066Z" fill="#1C1C1C"/>
<path id="Vector_11" d="M112.726 68.0867V53.8702H120.757V55.1503H114.195V60.2247H120.423V61.483H114.195V66.809H121.323L120.82 68.0891H112.726V68.0867Z" fill="#1C1C1C"/>
<path id="Vector_12" d="M130.364 68.0867L124.534 53.8702H126.129L131.078 66.2428L136.026 53.8702H137.514L131.707 68.0867H130.364Z" fill="#1C1C1C"/>
<path id="Vector_13" d="M141.49 68.0867V53.8702H149.521V55.1503H142.959V60.2247H149.187V61.483H142.959V66.809H150.087L149.584 68.0891H141.49V68.0867Z" fill="#1C1C1C"/>
<path id="Vector_14" d="M154.326 68.0867V53.8702H155.795V66.809H162.002L161.499 68.0891H154.326V68.0867Z" fill="#1C1C1C"/>
<path id="Vector_15" d="M166.416 66.18C165.094 64.733 164.424 63.0149 164.424 60.9798C164.424 58.9448 165.116 57.2267 166.5 55.8014C167.906 54.3544 169.624 53.6405 171.679 53.6405C173.733 53.6405 175.391 54.3544 176.712 55.8014C178.055 57.2267 178.725 58.9472 178.725 60.9798C178.725 63.0125 178.033 64.733 176.627 66.18C175.243 67.6053 173.523 68.3192 171.468 68.3192C169.414 68.3192 167.756 67.6053 166.416 66.18ZM175.621 56.7016C174.551 55.528 173.208 54.94 171.575 54.94C169.941 54.94 168.598 55.528 167.529 56.7234C166.459 57.897 165.934 59.3247 165.934 60.9798C165.934 62.635 166.459 64.0627 167.529 65.2581C168.598 66.4317 169.941 67.0197 171.575 67.0197C173.208 67.0197 174.551 66.4317 175.621 65.2581C176.69 64.0627 177.215 62.6374 177.215 60.9798C177.215 59.3223 176.69 57.8752 175.621 56.7016Z" fill="#1C1C1C"/>
<path id="Vector_16" d="M183.504 68.0867V53.8702H187.55C189.019 53.8702 190.192 54.2889 191.095 55.1068C191.997 55.9247 192.438 56.9531 192.438 58.2114C192.438 59.4697 191.956 60.5393 191.013 61.3983C190.069 62.238 188.874 62.6566 187.407 62.6566H184.975V68.0867H183.506H183.504ZM184.973 61.3983H187.489C188.518 61.3983 189.336 61.1055 189.984 60.5175C190.635 59.9295 190.95 59.1745 190.95 58.2743C190.95 57.3741 190.635 56.6167 190.028 56.0505C189.42 55.4625 188.622 55.1697 187.637 55.1697H184.973V61.3983Z" fill="#1C1C1C"/>
<path id="Vector_17" d="M196.618 68.0867V53.8702H204.65V55.1503H198.087V60.2247H204.316V61.483H198.087V66.809H205.216L204.713 68.0891H196.618V68.0867Z" fill="#1C1C1C"/>
<path id="Vector_18" d="M209.456 68.0867V53.8702H213.524C214.971 53.8702 216.145 54.2477 217.047 55.0245C217.95 55.7795 218.39 56.745 218.39 57.8968C218.39 60.0577 216.839 61.6718 214.407 62.0275L219.629 68.0867H217.742L212.709 62.1097H210.925V68.0867H209.456ZM210.925 60.8732H213.442C215.518 60.8732 216.902 59.6778 216.902 58.0009C216.902 56.3239 215.54 55.1697 213.589 55.1697H210.925V60.8732Z" fill="#1C1C1C"/>
</g>
<path id="Vector_19" d="M96.0659 73.5094H219.999" stroke="#FF4103" stroke-miterlimit="10"/>
</g>
</g>
<defs>
<filter id="filter0_d_131_1493" x="0" y="0" width="108.869" height="108.869" filterUnits="userSpaceOnUse" color-interpolation-filters="sRGB">
<feFlood flood-opacity="0" result="BackgroundImageFix"/>
<feColorMatrix in="SourceAlpha" type="matrix" values="0 0 0 0 0 0 0 0 0 0 0 0 0 0 0 0 0 0 127 0" result="hardAlpha"/>
<feOffset dx="5" dy="10"/>
<feGaussianBlur stdDeviation="10"/>
<feColorMatrix type="matrix" values="0 0 0 0 1 0 0 0 0 0.254902 0 0 0 0 0.0117647 0 0 0 0.3 0"/>
<feBlend mode="normal" in2="BackgroundImageFix" result="effect1_dropShadow_131_1493"/>
<feBlend mode="normal" in="SourceGraphic" in2="effect1_dropShadow_131_1493" result="shape"/>
</filter>
</defs>
</svg>
