<svg width="220" height="109" viewBox="0 0 220 109" fill="none" xmlns="http://www.w3.org/2000/svg">
<g id="Layer 3">
<g id="Group">
<g id="Group_2">
<path id="Vector" d="M62.439 29.3486V39.6909C60.4088 37.3244 57.4614 36.2112 54.1269 36.2112C51.2207 36.2112 48.6024 36.9904 46.4899 38.4157C45.9068 38.8053 45.3647 39.2457 44.8638 39.7321C42.9086 37.2711 39.8596 36.1096 36.288 36.1096C33.6552 36.1096 31.308 36.7291 29.4495 37.9003C29.3721 37.9462 29.2947 37.9946 29.2197 38.0455C28.6147 38.4496 28.0654 38.9118 27.579 39.4344V29.1236C27.579 27.5216 26.282 26.2246 24.6801 26.2246H24.3631C22.7611 26.2246 21.4641 27.5216 21.4641 29.1236V59.623C21.4641 61.225 22.7611 62.522 24.3631 62.522H24.6801C26.282 62.522 27.579 61.225 27.579 59.623V49.3122C27.579 45.8276 28.8809 43.4901 31.0394 42.3189C32.1186 41.7309 33.4156 41.4356 34.8675 41.4356C38.7804 41.4356 41.0816 43.6861 41.0816 48.3346V49.213C41.0816 49.2759 41.0816 49.3388 41.0816 49.3993C41.0816 49.4598 41.0816 49.5251 41.0816 49.5856C41.1349 54.7398 43.499 58.718 47.1965 60.8644C49.176 62.0163 51.5377 62.6406 54.1269 62.6406C57.655 62.6406 60.6508 61.4331 62.681 58.9673V59.4028C62.681 61.0048 63.978 62.3018 65.5799 62.3018C67.1819 62.3018 68.4789 61.0048 68.4789 59.4028V29.3413C68.4789 27.7394 67.1819 26.4424 65.5799 26.4424H65.338C63.736 26.4424 62.439 27.7394 62.439 29.3413V29.3486ZM54.8529 57.4767C52.375 57.4767 50.2237 56.4579 48.8372 54.6648C47.9152 53.4791 47.3296 51.957 47.1965 50.1712V48.6395C47.3224 46.9214 47.8692 45.4501 48.7307 44.2862C50.1148 42.4084 52.312 41.334 54.8529 41.334C59.2037 41.334 62.5358 44.4749 62.5358 49.4041C62.5358 54.3333 59.2037 57.4742 54.8529 57.4742V57.4767Z" fill="white"/>
<path id="Vector_2" d="M73.9566 62.2281C75.8597 62.2281 77.4024 60.6853 77.4024 58.7823C77.4024 56.8792 75.8597 55.3364 73.9566 55.3364C72.0535 55.3364 70.5107 56.8792 70.5107 58.7823C70.5107 60.6853 72.0535 62.2281 73.9566 62.2281Z" fill="white"/>
</g>
<g id="Group_3">
<g id="Vector_3" filter="url(#filter0_d_135_6484)">
<path d="M71.7703 10H27.0989C20.4168 10 15 15.4168 15 22.0989V66.7703C15 73.4523 20.4168 78.8691 27.0989 78.8691H71.7703C78.4523 78.8691 83.8691 73.4523 83.8691 66.7703V22.0989C83.8691 15.4168 78.4523 10 71.7703 10Z" fill="#FF4103"/>
</g>
<g id="Group_4">
<path id="Vector_4" d="M62.439 29.3486V39.6909C60.4088 37.3244 57.4614 36.2112 54.1269 36.2112C51.2207 36.2112 48.6024 36.9904 46.4899 38.4157C45.9068 38.8053 45.3647 39.2457 44.8638 39.7321C42.9086 37.2711 39.8596 36.1096 36.288 36.1096C33.6552 36.1096 31.308 36.7291 29.4495 37.9003C29.3721 37.9462 29.2947 37.9946 29.2197 38.0455C28.6147 38.4496 28.0654 38.9118 27.579 39.4344V29.1236C27.579 27.5216 26.282 26.2246 24.6801 26.2246H24.3631C22.7611 26.2246 21.4641 27.5216 21.4641 29.1236V59.623C21.4641 61.225 22.7611 62.522 24.3631 62.522H24.6801C26.282 62.522 27.579 61.225 27.579 59.623V49.3122C27.579 45.8276 28.8809 43.4901 31.0394 42.3189C32.1186 41.7309 33.4156 41.4356 34.8675 41.4356C38.7804 41.4356 41.0816 43.6861 41.0816 48.3346V49.213C41.0816 49.2759 41.0816 49.3388 41.0816 49.3993C41.0816 49.4598 41.0816 49.5251 41.0816 49.5856C41.1349 54.7398 43.499 58.718 47.1965 60.8644C49.176 62.0163 51.5377 62.6406 54.1269 62.6406C57.655 62.6406 60.6508 61.4331 62.681 58.9673V59.4028C62.681 61.0048 63.978 62.3018 65.5799 62.3018C67.1819 62.3018 68.4789 61.0048 68.4789 59.4028V29.3413C68.4789 27.7394 67.1819 26.4424 65.5799 26.4424H65.338C63.736 26.4424 62.439 27.7394 62.439 29.3413V29.3486ZM54.8529 57.4767C52.375 57.4767 50.2237 56.4579 48.8372 54.6648C47.9152 53.4791 47.3296 51.957 47.1965 50.1712V48.6395C47.3224 46.9214 47.8692 45.4501 48.7307 44.2862C50.1148 42.4084 52.312 41.334 54.8529 41.334C59.2037 41.334 62.5358 44.4749 62.5358 49.4041C62.5358 54.3333 59.2037 57.4742 54.8529 57.4742V57.4767Z" fill="white"/>
<path id="Vector_5" d="M73.9566 62.2281C75.8597 62.2281 77.4024 60.6853 77.4024 58.7823C77.4024 56.8792 75.8597 55.3364 73.9566 55.3364C72.0535 55.3364 70.5107 56.8792 70.5107 58.7823C70.5107 60.6853 72.0535 62.2281 73.9566 62.2281Z" fill="white"/>
</g>
</g>
<g id="Group_5">
<path id="Vector_6" d="M120.96 46.1782V31.865H103.24V46.1782H98.3083V15.0811H103.24V28.3417H120.96V15.0811H125.892V46.1782H120.96Z" fill="white"/>
<path id="Vector_7" d="M138.919 46.1782V15.0811H143.851V46.1782H138.919Z" fill="white"/>
<path id="Vector_8" d="M161.808 34.5776V46.1782H156.876V15.0811H171.189C174.969 15.0811 177.953 15.9522 180.138 17.692C182.325 19.4343 183.417 21.8082 183.417 24.8184C183.417 26.9769 182.604 28.9007 180.975 30.5873C179.383 32.1941 177.28 33.2999 174.669 33.9073L186.032 46.1758H179.777L169.302 34.5752H161.803L161.808 34.5776ZM161.808 18.6043V31.035H170.146C172.552 31.035 174.497 30.476 175.981 29.3556C177.464 28.2352 178.204 26.7228 178.204 24.8209C178.204 22.9189 177.5 21.3726 176.094 20.2667C174.688 19.1609 172.704 18.6067 170.146 18.6067H161.808V18.6043Z" fill="white"/>
<path id="Vector_9" d="M217.241 42.655V46.1782H195.124V15.0811H217.241V18.6043H200.055V28.6853H215.69V32.1263H200.055V42.6525H217.241V42.655Z" fill="white"/>
</g>
<g id="Group_6">
<path id="Vector_10" d="M95.8989 68.0866V53.8701H100.344C102.65 53.8701 104.497 54.5404 105.881 55.8616C107.265 57.1829 107.957 58.8187 107.957 60.8102C107.957 62.8017 107.243 64.5851 105.796 65.9886C104.371 67.3945 102.505 68.0866 100.218 68.0866H95.8989ZM97.3678 66.8065H100.366C102.19 66.8065 103.657 66.2403 104.77 65.1296C105.881 64.0189 106.447 62.5936 106.447 60.8949C106.447 59.1962 105.902 57.8338 104.789 56.7642C103.679 55.6947 102.188 55.1502 100.281 55.1502H97.3678V66.8089V66.8065Z" fill="white"/>
<path id="Vector_11" d="M112.726 68.0866V53.8701H120.757V55.1502H114.195V60.2246H120.423V61.4829H114.195V66.8089H121.323L120.82 68.089H112.726V68.0866Z" fill="white"/>
<path id="Vector_12" d="M130.364 68.0866L124.534 53.8701H126.129L131.078 66.2427L136.026 53.8701H137.514L131.707 68.0866H130.364Z" fill="white"/>
<path id="Vector_13" d="M141.49 68.0866V53.8701H149.521V55.1502H142.959V60.2246H149.187V61.4829H142.959V66.8089H150.087L149.584 68.089H141.49V68.0866Z" fill="white"/>
<path id="Vector_14" d="M154.326 68.0866V53.8701H155.795V66.8089H162.002L161.499 68.089H154.326V68.0866Z" fill="white"/>
<path id="Vector_15" d="M166.416 66.1802C165.094 64.7331 164.424 63.015 164.424 60.98C164.424 58.9449 165.116 57.2268 166.5 55.8015C167.906 54.3545 169.624 53.6406 171.679 53.6406C173.733 53.6406 175.391 54.3545 176.712 55.8015C178.055 57.2268 178.725 58.9473 178.725 60.98C178.725 63.0126 178.033 64.7331 176.627 66.1802C175.243 67.6054 173.523 68.3193 171.468 68.3193C169.414 68.3193 167.756 67.6054 166.416 66.1802ZM175.621 56.7017C174.551 55.5281 173.208 54.9401 171.575 54.9401C169.941 54.9401 168.598 55.5281 167.529 56.7235C166.459 57.8971 165.934 59.3248 165.934 60.98C165.934 62.6351 166.459 64.0628 167.529 65.2582C168.598 66.4318 169.941 67.0198 171.575 67.0198C173.208 67.0198 174.551 66.4318 175.621 65.2582C176.69 64.0628 177.215 62.6375 177.215 60.98C177.215 59.3224 176.69 57.8753 175.621 56.7017Z" fill="white"/>
<path id="Vector_16" d="M183.504 68.0866V53.8701H187.55C189.019 53.8701 190.192 54.2887 191.095 55.1066C191.997 55.9245 192.438 56.953 192.438 58.2113C192.438 59.4696 191.956 60.5392 191.013 61.3982C190.069 62.2379 188.874 62.6565 187.407 62.6565H184.975V68.0866H183.506H183.504ZM184.973 61.3982H187.489C188.518 61.3982 189.336 61.1054 189.984 60.5174C190.635 59.9294 190.95 59.1744 190.95 58.2742C190.95 57.374 190.635 56.6166 190.028 56.0504C189.42 55.4624 188.622 55.1696 187.637 55.1696H184.973V61.3982Z" fill="white"/>
<path id="Vector_17" d="M196.618 68.0866V53.8701H204.65V55.1502H198.087V60.2246H204.316V61.4829H198.087V66.8089H205.216L204.713 68.089H196.618V68.0866Z" fill="white"/>
<path id="Vector_18" d="M209.456 68.0866V53.8701H213.524C214.971 53.8701 216.145 54.2476 217.047 55.0244C217.95 55.7794 218.39 56.7449 218.39 57.8967C218.39 60.0576 216.839 61.6716 214.407 62.0274L219.629 68.0866H217.742L212.709 62.1096H210.925V68.0866H209.456ZM210.925 60.8731H213.442C215.518 60.8731 216.902 59.6777 216.902 58.0008C216.902 56.3238 215.54 55.1696 213.589 55.1696H210.925V60.8731Z" fill="white"/>
</g>
<path id="Vector_19" d="M96.0659 73.5093H219.999" stroke="#FF4103" stroke-miterlimit="10"/>
</g>
</g>
<defs>
<filter id="filter0_d_135_6484" x="0" y="0" width="108.869" height="108.869" filterUnits="userSpaceOnUse" color-interpolation-filters="sRGB">
<feFlood flood-opacity="0" result="BackgroundImageFix"/>
<feColorMatrix in="SourceAlpha" type="matrix" values="0 0 0 0 0 0 0 0 0 0 0 0 0 0 0 0 0 0 127 0" result="hardAlpha"/>
<feOffset dx="5" dy="10"/>
<feGaussianBlur stdDeviation="10"/>
<feColorMatrix type="matrix" values="0 0 0 0 1 0 0 0 0 0.254902 0 0 0 0 0.0117647 0 0 0 0.3 0"/>
<feBlend mode="normal" in2="BackgroundImageFix" result="effect1_dropShadow_135_6484"/>
<feBlend mode="normal" in="SourceGraphic" in2="effect1_dropShadow_135_6484" result="shape"/>
</filter>
</defs>
</svg>
