<svg id="Group_4728" data-name="Group 4728" xmlns="http://www.w3.org/2000/svg" width="47.61" height="47.61" viewBox="0 0 47.61 47.61">
  <path id="Path_9887" data-name="Path 9887" d="M126.086,237.035a2.636,2.636,0,0,1,1.287,1.275,1.859,1.859,0,0,1-.531,2.029,1.821,1.821,0,0,1-2.118.226,18.344,18.344,0,0,1-4.638-3.529,18.9,18.9,0,0,1-5.178-10.769c-.027-.2.036-.436-.159-.595V225.3a.212.212,0,0,0,0-.279v-.372a.711.711,0,0,0,0-.558v-1.023c.089-.1.031-.226.048-.338-.006-.075.02-.158-.048-.22v-.465a18.3,18.3,0,0,1,.656-3.634,19.286,19.286,0,0,1,12.3-12.784,13.59,13.59,0,0,1,4.31-.83.187.187,0,0,0,.125-.047h.372a.212.212,0,0,0,.279,0h2.139a.12.12,0,0,0,.186,0h.372a19.082,19.082,0,0,0,1.978.348,18.888,18.888,0,0,1,14.373,12.512,1.864,1.864,0,0,1-1.09,2.576,1.887,1.887,0,0,1-2.421-1.346,15.134,15.134,0,0,0-10.2-9.748,9.134,9.134,0,0,0-1.991-.423c-.926.053-1.844-.126-2.771-.08a15.443,15.443,0,0,0-8.294,2.774,15.064,15.064,0,0,0-4.949,5.8,14.85,14.85,0,0,0-1.451,5.251,15.144,15.144,0,0,0,6.722,14.075A6.027,6.027,0,0,1,126.086,237.035Z" transform="translate(-114.75 -204.75)" fill="#dd1928"/>
  <path id="Path_9888" data-name="Path 9888" d="M177.286,432.99c-.049-.115-.169-.128-.261-.176a1.847,1.847,0,0,1-.486-3.034q2.492-2.5,5-4.988,2.722-2.7,5.45-5.4a6.457,6.457,0,0,1,8.732-.638,2.828,2.828,0,0,0,4.2-.386q3.088-3.283,6.16-6.581a1.965,1.965,0,0,1,2.482-.622,1.861,1.861,0,0,1,.434,2.969c-.849.923-1.712,1.835-2.572,2.748-1.339,1.42-2.669,2.849-4.025,4.253a6.475,6.475,0,0,1-8.8.686,2.8,2.8,0,0,0-4.07.273q-4.134,4.116-8.269,8.232c-.692.688-1.4,1.357-2.087,2.054a3.637,3.637,0,0,1-.964.607Z" transform="translate(-168.359 -385.38)" fill="#2a2a2a"/>
  <path id="Path_9889" data-name="Path 9889" d="M410.74,368.8a2.178,2.178,0,0,1-1.243,1.29,1.849,1.849,0,0,1-2.473-1.779c-.014-1.6,0-3.19,0-4.785a1.878,1.878,0,0,0-2.068-2.071c-1.611,0-3.221.008-4.832-.005a1.8,1.8,0,0,1-1.778-1.419,1.823,1.823,0,0,1,.887-2.057,2.014,2.014,0,0,1,1.026-.24c1.6,0,3.19,0,4.785,0a5.577,5.577,0,0,1,5.553,4.322c.036.139-.009.319.146.42Z" transform="translate(-363.13 -338.767)" fill="#2a2a2a"/>
  <path id="Path_9890" data-name="Path 9890" d="M470.141,500.652a2.106,2.106,0,0,1-1.5-2.312c.041-2.755.008-5.51.017-8.265a1.767,1.767,0,0,1,1.159-1.74,1.791,1.791,0,0,1,1.98.371,2.524,2.524,0,0,1,.576.973v9.578a1.578,1.578,0,0,1-1.488,1.395Z" transform="translate(-424.763 -453.042)" fill="#dd1928"/>
  <path id="Path_9891" data-name="Path 9891" d="M410.14,515.83a2.1,2.1,0,0,1-1.5-2.311c.046-1.995.011-3.991.013-5.987a1.866,1.866,0,1,1,3.718,0c0,2-.031,3.992.013,5.987a2.1,2.1,0,0,1-1.5,2.311Z" transform="translate(-372.201 -468.22)" fill="#dd1928"/>
  <path id="Path_9892" data-name="Path 9892" d="M290.139,533.569a2.073,2.073,0,0,1-1.5-2.31c.048-1.173.007-2.35.012-3.526a1.862,1.862,0,1,1,3.717,0c.005,1.175-.035,2.352.012,3.526a2.076,2.076,0,0,1-1.5,2.31Z" transform="translate(-267.078 -485.959)" fill="#dd1928"/>
  <path id="Path_9893" data-name="Path 9893" d="M350.139,544.738a2.051,2.051,0,0,1-1.5-2.309c.04-.678,0-1.36.01-2.04a1.857,1.857,0,1,1,3.715,0c.011.68-.03,1.362.01,2.04a2.054,2.054,0,0,1-1.495,2.309Z" transform="translate(-319.639 -497.129)" fill="#dd1928"/>
  <path id="Path_9895" data-name="Path 9895" d="M114.75,360.75a.42.42,0,0,1,0,.558Z" transform="translate(-114.75 -341.409)" fill="#2c3ec5"/>
  <path id="Path_9896" data-name="Path 9896" d="M114.833,349.272c0,.132.053.276-.083.378v-.372Q114.787,349.218,114.833,349.272Z" transform="translate(-114.75 -331.331)" fill="#5160cf"/>
  <path id="Path_9897" data-name="Path 9897" d="M258.279,204.75c-.093.109-.186.142-.279,0Z" transform="translate(-240.239 -204.75)" fill="#7581d9"/>
  <path id="Path_9898" data-name="Path 9898" d="M114.75,368.25c.112.093.145.186,0,.279Z" transform="translate(-114.75 -347.979)" fill="#8e97df"/>
  <path id="Path_9899" data-name="Path 9899" d="M277.686,204.75c-.062.118-.124.1-.186,0Z" transform="translate(-257.322 -204.75)" fill="#7a85da"/>
  <path id="Path_9900" data-name="Path 9900" d="M114.833,348.18c-.028,0-.055.006-.083.006V348C114.846,348.029,114.838,348.1,114.833,348.18Z" transform="translate(-114.75 -330.239)" fill="#7d88db"/>
  <path id="Path_9901" data-name="Path 9901" d="M232.72,282.76a1.829,1.829,0,0,1,1.849,1.863.479.479,0,0,0,.427.561,9.116,9.116,0,0,1,1.185.4,1.854,1.854,0,0,1-1.263,3.486,8.887,8.887,0,0,0-2.79-.635.963.963,0,0,0-1.073.807c-.051.407.258.763.8.938a10.368,10.368,0,0,0,1.658.184,4.824,4.824,0,0,1,4.1,4.043,4.632,4.632,0,0,1-2.749,4.769.435.435,0,0,0-.294.445,1.852,1.852,0,0,1-3.7.018c-.015-.228-.075-.311-.3-.358a13.482,13.482,0,0,1-2.084-.63,1.862,1.862,0,0,1-1.143-2.373,1.842,1.842,0,0,1,2.373-1.131,12.89,12.89,0,0,0,2.691.684,1.637,1.637,0,0,0,.959-.057.905.905,0,0,0,.56-.793.82.82,0,0,0-.469-.747,2.137,2.137,0,0,0-1.075-.232,5.488,5.488,0,0,1-3.6-1.392,4.548,4.548,0,0,1,1.6-7.606c.317-.115.484-.21.51-.61A1.805,1.805,0,0,1,232.72,282.76Z" transform="translate(-213.287 -273.088)" fill="#dd1928"/>
  <path id="Path_9902" data-name="Path 9902" d="M152.365,263.209a14.263,14.263,0,0,1-4.958-4.6,15.353,15.353,0,0,1,9.611-23.659,13.881,13.881,0,0,1,5.4-.111,20.784,20.784,0,0,0-3.661,1.1,18.227,18.227,0,0,0-4.675,2.879,17.132,17.132,0,0,0-4.39,5.843,16.137,16.137,0,0,0-1.414,4.912,15.722,15.722,0,0,0-.173,2.766,17.908,17.908,0,0,0,2.492,8.383C151.124,261.6,151.787,262.373,152.365,263.209Z" transform="translate(-141.029 -230.924)" fill="#dbd7d7"/>
</svg>
