<svg id="Group_4736" data-name="Group 4736" xmlns="http://www.w3.org/2000/svg" width="43.072" height="50.909" viewBox="0 0 43.072 50.909">
  <g id="Group_4727" data-name="Group 4727">
    <path id="Path_14380" data-name="Path 14380" d="M129.153,73.887a16.665,16.665,0,0,1,2.574.829A7.718,7.718,0,0,1,136.2,81.6c.059,1.107.03,2.22.01,3.329a1.983,1.983,0,1,1-3.966-.014c-.019-.944,0-1.889-.006-2.833a4,4,0,0,0-4.21-4.216q-5.616-.01-11.233,0-3.752,0-7.5,0a4.013,4.013,0,0,0-4.3,4.281q0,17.2,0,34.394a4.012,4.012,0,0,0,4.3,4.279q9.319,0,18.638,0a4.021,4.021,0,0,0,4.309-4.318c0-1.093-.006-2.187,0-3.28a1.99,1.99,0,1,1,3.971-.013,44.291,44.291,0,0,1-.108,4.713,7.819,7.819,0,0,1-6.676,6.781,1.533,1.533,0,0,0-.271.094h-21.08c-.556-.143-1.127-.246-1.667-.434a7.95,7.95,0,0,1-5.391-7.725q-.006-16.028,0-32.056c0-.994-.039-1.99.015-2.981a7.726,7.726,0,0,1,4.47-6.883,16.689,16.689,0,0,1,2.574-.829Z" transform="translate(-101 -73.887)" fill="#dd1928"/>
    <path id="Path_14381" data-name="Path 14381" d="M168.522,202.277a4.337,4.337,0,0,1,1.491-3.191c1.672-1.457,3.375-2.879,5.091-4.283a1.938,1.938,0,0,1,2.794.248,1.965,1.965,0,0,1-.3,2.831c-1.5,1.278-3.017,2.533-4.527,3.8-.778.651-.781.944,0,1.6,1.508,1.267,3.021,2.528,4.525,3.8a1.984,1.984,0,0,1-.721,3.481,1.87,1.87,0,0,1-1.768-.393c-1.68-1.4-3.366-2.787-5.017-4.218A4.615,4.615,0,0,1,168.522,202.277Z" transform="translate(-158.763 -176.914)" fill="#2a2a2a"/>
    <path id="Path_14382" data-name="Path 14382" d="M341.283,202.577a4.429,4.429,0,0,1-1.428,3.329c-1.669,1.488-3.371,2.94-5.089,4.371a1.977,1.977,0,0,1-2.5-3.062c1.5-1.308,3.018-2.589,4.525-3.885.7-.6.7-.912,0-1.508q-2.208-1.892-4.419-3.78a1.99,1.99,0,1,1,2.514-3.074c1.235,1.028,2.447,2.084,3.667,3.13.44.377.892.743,1.309,1.144A4.627,4.627,0,0,1,341.283,202.577Z" transform="translate(-298.211 -177.011)" fill="#2a2a2a"/>
    <path id="Path_14383" data-name="Path 14383" d="M257.8,201.224a1.89,1.89,0,0,1-1.852-2.374c.477-1.874,1.026-3.729,1.553-5.589.955-3.371,1.921-6.739,2.869-10.113a2.15,2.15,0,0,1,1.575-1.734,1.965,1.965,0,0,1,2.42,2.325c-.556,2.177-1.2,4.332-1.814,6.494q-1.332,4.7-2.674,9.395A2.1,2.1,0,0,1,257.8,201.224Z" transform="translate(-233.501 -165.823)" fill="#2a2a2a"/>
    <path id="Path_14384" data-name="Path 14384" d="M199.316,126.653c-.663,0-1.326.014-1.988,0a1.971,1.971,0,0,1-1.958-1.865,1.92,1.92,0,0,1,1.785-2.07c1.454-.07,2.916-.07,4.37,0a1.921,1.921,0,0,1,1.786,2.07,1.971,1.971,0,0,1-1.957,1.866C200.675,126.667,200,126.653,199.316,126.653Z" transform="translate(-181.727 -115.612)" fill="#2a2a2a"/>
    <path id="Path_14385" data-name="Path 14385" d="M211.1,353.8a1.984,1.984,0,0,1-1.972-2.005,1.985,1.985,0,0,1,3.97.026A1.984,1.984,0,0,1,211.1,353.8Z" transform="translate(-193.498 -309.95)" fill="#2a2a2a"/>
  </g>
</svg>
