<svg id="Group_4729" data-name="Group 4729" xmlns="http://www.w3.org/2000/svg" width="46.598" height="46.599" viewBox="0 0 46.598 46.599">
  <path id="Path_9944" data-name="Path 9944" d="M497.985,314.161c-.165-.109-.087-.277-.087-.415q-.006-10.415,0-20.83c0-.139-.078-.306.087-.415Z" transform="translate(-451.387 -281.852)" fill="#7f90e0"/>
  <path id="Path_9945" data-name="Path 9945" d="M114.75,293.25c.16.111.087.278.087.417q.006,10.368,0,20.737c0,.139.077.307-.087.416Z" transform="translate(-114.75 -282.51)" fill="#7f90e0"/>
  <path id="Subtraction_8" data-name="Subtraction 8" d="M12.516,20.3c-1.237,0-2.392-.006-3.527-.014a5.365,5.365,0,0,1-5.3-4.739,13.879,13.879,0,0,1-.065-1.979v-.05c.007-.465.014-.948-.017-1.421l-.134-.108c-.032.046-.068.094-.1.151a2.059,2.059,0,0,1-.278.351,1.856,1.856,0,0,1-1.3.535,1.772,1.772,0,0,1-1.237-.5A1.815,1.815,0,0,1,.52,9.95c.372-.39.761-.776,1.139-1.149l.069-.07.261-.259.262-.26q.817-.815,1.63-1.628L5.5,4.963Q7.124,3.337,8.75,1.716A5.631,5.631,0,0,1,12.719,0a5.6,5.6,0,0,1,3.949,1.7c2.75,2.741,5.613,5.611,8.14,8.141a1.977,1.977,0,0,1,.588,1.764,1.743,1.743,0,0,1-1.077,1.271,1.965,1.965,0,0,1-.751.159,1.653,1.653,0,0,1-1.121-.447,3.288,3.288,0,0,1-.331-.361l-.008-.009L22.1,12.21c-.054-.065-.108-.127-.164-.19l-.131.049c0,.037,0,.077,0,.116v.057c0,.111,0,.223,0,.342-.011.366,0,.748,0,1.086a9.652,9.652,0,0,1-.16,2.443,5.406,5.406,0,0,1-5.2,4.17C14.91,20.291,13.66,20.3,12.516,20.3Zm.193-7.266h.016a1.835,1.835,0,0,1,1.81,1.889c0,.124,0,.249,0,.375,0,.311.007.63-.011.944a.437.437,0,0,0,.078.336.357.357,0,0,0,.272.084h.054c.158-.009.324-.015.521-.015.12,0,.242,0,.362,0h.116c.041,0,.079,0,.12,0h.242a1.789,1.789,0,0,0,1.879-1.9q0-1.525,0-3.047t0-3.048a.71.71,0,0,0-.225-.559c-.508-.5-1.02-1.019-1.517-1.516l-.01-.009-.242-.244c-.656-.656-1.333-1.333-2-1.991a2.12,2.12,0,0,0-1.46-.716,2.143,2.143,0,0,0-1.479.732c-.688.68-1.375,1.366-2.036,2.032S7.986,7.6,7.5,8.083a.743.743,0,0,0-.246.6c.008.721.007,1.449,0,2.15q0,.449,0,.9v.508c0,.17,0,.339,0,.509,0,.664,0,1.351,0,2.032a1.794,1.794,0,0,0,1.851,1.871c.113,0,.227,0,.342,0s.228,0,.342,0c.264,0,.513,0,.775.008h.03a.3.3,0,0,0,.234-.072.354.354,0,0,0,.069-.274c-.014-.492-.008-.988,0-1.406A1.837,1.837,0,0,1,12.709,13.031Z" transform="translate(10.587 12.015)" fill="#2a2a2a" stroke="rgba(0,0,0,0)" stroke-miterlimit="10" stroke-width="1"/>
  <path id="Path_9947" data-name="Path 9947" d="M149.972,293.1a8.367,8.367,0,0,1-1.995-.042,3.649,3.649,0,0,1-2.98-3.844q0-10.3,0-20.607a4.649,4.649,0,0,1,.137-1.215,3.6,3.6,0,0,1,3.43-2.685c.469-.007.939.009,1.409.015a6.283,6.283,0,0,0-1.369,4.21q.019,9.933,0,19.867A6.429,6.429,0,0,0,149.972,293.1Z" transform="translate(-141.325 -257.431)" fill="rgba(206,202,202,0.35)"/>
  <path id="Path_9948" data-name="Path 9948" d="M161.348,215.034c-.1-.425-.061-.867-.175-1.292a7.393,7.393,0,0,0-2.59-3.908,7.123,7.123,0,0,0-3.467-1.484c-.545-.083-.561-.113-.565-.669,0-.333.013-.667-.007-1a1.885,1.885,0,0,0-1.569-1.932h-.819a2.037,2.037,0,0,0-1.387,2.315c.029.3-.021.609.011.909.037.352-.1.425-.43.422-1.668-.017-3.335-.012-5-.006a1.8,1.8,0,0,0-1.744,1.21,1.826,1.826,0,0,0,1.838,2.422c2.774.009,5.549,0,8.324,0a3.638,3.638,0,0,1,3.909,3.876q.007,10.325,0,20.65a4.513,4.513,0,0,1-.2,1.432,3.754,3.754,0,0,1-3.74,2.474c-9.961-.03-19.922-.013-29.883-.014-.151,0-.3-.014-.453-.021a3.293,3.293,0,0,0-1.432-.13,3.465,3.465,0,0,1-2.747-1.462,4.274,4.274,0,0,1-.686-2.638q-.011-9.961,0-19.921c0-.121,0-.243,0-.364a3.6,3.6,0,0,1,2.111-3.437,3.541,3.541,0,0,1,1.5-.307,2.557,2.557,0,0,0,1.253-.12c.182-.006.363-.018.544-.018q6.958,0,13.916,0a1.843,1.843,0,0,0,2.009-2.005c0-1.016-.033-2.033.009-3.047a2.008,2.008,0,0,0-1.463-2.221h-.728a1.773,1.773,0,0,0-1.591,1.919c-.009.3,0,.606,0,.909,0,.664-.012.674-.7.674H127.58c-.545,0-1.091-.013-1.636,0-.377.012-.518-.146-.5-.511s.008-.727,0-1.09a1.759,1.759,0,0,0-1.5-1.905h-.819a1.835,1.835,0,0,0-1.552,1.752,9.863,9.863,0,0,0-.024,1.18c-.007.557-.032.587-.565.668a7.259,7.259,0,0,0-4.8,2.843,6.8,6.8,0,0,0-1.434,3.751v.546a.8.8,0,0,1,.045.445q0,10.34,0,20.681a.8.8,0,0,1-.045.444v.455c.1.41.07.839.176,1.25a7.406,7.406,0,0,0,7,5.436q4.957,0,9.914,0c.592,0,.615.025.617.613,0,1.5-.005,3,0,4.5a1.846,1.846,0,0,0,1.587,2.031h8.009a1.712,1.712,0,0,0,1.534-1.445,2.427,2.427,0,0,0,.055-.678q0-2.183,0-4.366c0-.647.012-.659.662-.659,3.274,0,6.549.011,9.823,0a7.14,7.14,0,0,0,5.71-2.817,6.59,6.59,0,0,0,1.509-3.865v-.455a.928.928,0,0,1-.045-.49q0-10.341,0-20.681a.928.928,0,0,1,.045-.49Zm-21.758,32.681q-1.546-.015-3.092,0c-.23,0-.274-.085-.272-.291.008-1.015.01-2.031,0-3.046,0-.235.061-.312.3-.309q1.523.019,3.046,0c.255,0,.3.1.295.319-.013.5,0,1,0,1.5,0,.515-.01,1.031,0,1.546C139.878,247.652,139.809,247.718,139.591,247.716Z" transform="translate(-114.75 -204.75)" fill="#dd1928"/>
</svg>
