<svg xmlns="http://www.w3.org/2000/svg" width="314" height="108" viewBox="0 0 314 108">
  <g id="adroll" transform="translate(-1668 -287)">
    <rect id="Rectangle_8" data-name="Rectangle 8" width="314" height="108" rx="43" transform="translate(1668 287)" fill="#fff"/>
    <g id="adroll-logo-svg-vector" transform="translate(1743.791 322.205)">
      <path id="Path_28" data-name="Path 28" d="M287.807,25.309a4.315,4.315,0,0,1,4.264-2.43,3.6,3.6,0,0,1,3.167,3.7s.047,3.389-4.311,3.553h-17.6V.613h-6.359V36.078l23.7.008c10.554-.173,10.243-9.336,10.243-9.336-.393-9.444-9.056-9.312-9.056-9.312a9.5,9.5,0,0,0-7.276,3.621l3.228,4.251M203.59.59H214.5c4.084,0,6.63.769,8.648,2.4a11,11,0,0,1,4.18,8.6,12.381,12.381,0,0,1-3.411,8.5A11.509,11.509,0,0,1,218,23.025l9.657,13.116h-7.976l-9.417-13.6h-.1v13.6H203.59V.59ZM210.172,17.6H214.4c5.429,0,6.342-3.6,6.342-5.477,0-1.969-1.2-5.38-6.342-5.38h-4.228Z" transform="translate(-138.879 -0.003)" fill="#101010"/>
      <path id="Path_29" data-name="Path 29" d="M277.952,22.832a14.26,14.26,0,0,1,14.22-14.269A14.1,14.1,0,0,1,306.3,22.736a13.905,13.905,0,0,1-14.125,14.27,14.272,14.272,0,0,1-14.22-14.174m21.956.048c0-4.852-3.747-8.455-7.736-8.455a8.167,8.167,0,0,0-7.832,8.408,7.981,7.981,0,0,0,7.832,8.313c4.661,0,7.736-4.037,7.736-8.265M308.457.588h6.389V36.141h-6.389V.588Z" transform="translate(-189.701 -0.001)" fill="#101010"/>
      <path id="Path_30" data-name="Path 30" d="M15.183.587h5.141L35.218,36.139H27.963l-3.8-9.176H11.436l-3.8,9.176H.385ZM13.645,20.764h8.167L17.777,9.859h-.1L13.645,20.764ZM61.5,36.139H55.634V32.871h-.1C54.336,34.8,51.55,37,47.033,37a13.865,13.865,0,0,1-13.6-14.174,13.939,13.939,0,0,1,13.6-14.269,10.189,10.189,0,0,1,8.072,3.267V.586h6.389V36.139Zm-13.789-5c4.805,0,7.88-4.324,7.88-8.36,0-4.372-3.363-8.36-7.88-8.36-4.756,0-7.879,4.419-7.879,8.167,0,4.948,3.7,8.552,7.879,8.552Z" transform="translate(0)" fill="#00aff0"/>
    </g>
  </g>
</svg>
