<svg xmlns="http://www.w3.org/2000/svg" width="314" height="108" viewBox="0 0 314 108">
  <g id="amazon-ads" transform="translate(-2797 -773)">
    <rect id="Rectangle_28" data-name="Rectangle 28" width="314" height="108" rx="43" transform="translate(2797 773)" fill="#fff"/>
    <g id="Group_105" data-name="Group 105" transform="translate(1361.963 1071.954)">
      <path id="Path_564" data-name="Path 564" d="M1589.568-224.386c2.615-5.3,8.907-4.715,10.754-.092.2-.312.37-.559.523-.815a5.854,5.854,0,0,1,6.417-2.747,5.03,5.03,0,0,1,4.3,5.093c.138,5.418.059,10.841.073,16.262,0,.711-.4.989-1.05,1-1.029.011-2.059-.026-3.087.017-1.007.042-1.405-.343-1.392-1.39.047-3.879.024-7.758.024-11.637,0-.593.01-1.189-.032-1.78-.1-1.461-.709-2.266-1.8-2.452a2.7,2.7,0,0,0-3.151,1.722,9.574,9.574,0,0,0-.355,2.8c-.037,3.72-.012,7.441-.018,11.162,0,1.411-.148,1.551-1.564,1.564-.871.008-1.743-.034-2.612.01-1.018.051-1.4-.367-1.392-1.4q.063-5.818.011-11.637a12.349,12.349,0,0,0-.3-2.7,2.041,2.041,0,0,0-2.056-1.653,2.219,2.219,0,0,0-2.414,1.349,7.967,7.967,0,0,0-.526,2.644q-.089,5.936-.018,11.874c.014,1.15-.4,1.587-1.524,1.518a21.04,21.04,0,0,0-2.611,0c-1.082.069-1.463-.379-1.457-1.458.034-5.581.016-11.162.016-16.743,0-.792.041-1.586-.01-2.374-.067-1.043.3-1.567,1.417-1.487a19.876,19.876,0,0,0,2.493,0c.961-.053,1.4.337,1.346,1.312C1589.541-225.842,1589.568-225.263,1589.568-224.386Z" transform="translate(-70.351 -31.075)"/>
      <path id="Path_565" data-name="Path 565" d="M2184.322-238.751a36.337,36.337,0,0,1-5.289,2.093,8.307,8.307,0,0,1-9.854-5.1,15.261,15.261,0,0,1,.158-12.453c2.321-5.149,8.245-6.8,13.238-3.832.435.259.858.535,1.442.9.031-.506.074-.874.074-1.242.006-3.047.04-6.094-.016-9.14-.02-1.105.394-1.453,1.461-1.43,2.919.064,2.79-.323,2.788,2.732-.007,9.1.007,18.2-.021,27.3,0,.731.448,1.787-.847,2-2.088.339-2.6.069-3.059-1.545C2184.355-238.616,2184.318-238.768,2184.322-238.751Zm-.225-9.2v-3.914c0-2.62-.125-2.794-2.646-3.67-.261-.091-.525-.174-.791-.245-4.345-1.159-7.346.593-8.025,5.02a20.249,20.249,0,0,0,.132,6.343c.507,3,2.585,4.539,5.611,4.6a8.466,8.466,0,0,0,5.2-1.718,1.7,1.7,0,0,0,.5-1.2C2184.128-244.469,2184.1-246.209,2184.1-247.949Z" transform="translate(-515.311)"/>
      <path id="Path_566" data-name="Path 566" d="M1973.416-224.448c2.137-3.644,4.354-3.964,7.109-3.512,2.586.425,4.179,2.318,4.305,5.368.22,5.295.2,10.6.295,15.9.014.788-.43,1.052-1.114,1.06-1.108.014-2.217-.01-3.325.012-.927.018-1.23-.427-1.224-1.321q.041-6,0-11.994a10.384,10.384,0,0,0-.25-2.23,2.242,2.242,0,0,0-1.968-1.943,2.288,2.288,0,0,0-2.573,1.294,11.069,11.069,0,0,0-.912,3.739c-.12,3.638-.083,7.283-.023,10.924.019,1.147-.37,1.6-1.5,1.537-.987-.053-1.979-.022-2.968-.009-.82.011-1.217-.3-1.214-1.195q.034-9.857,0-19.714c0-.824.35-1.146,1.138-1.133,1.029.017,2.059.024,3.087,0,.8-.02,1.171.319,1.142,1.129C1973.4-225.84,1973.416-225.143,1973.416-224.448Z" transform="translate(-362.921 -31.133)"/>
      <path id="Path_567" data-name="Path 567" d="M1503.9-219.739c0-.578.026-1.087,0-1.593-.1-1.639-.837-2.567-2.207-2.8a3.108,3.108,0,0,0-3.609,1.824c-.365,1.052-.886,1.345-1.934,1.095a18.078,18.078,0,0,0-2.47-.3c-.8-.077-.968-.463-.766-1.217a6.7,6.7,0,0,1,4.63-4.837,12.317,12.317,0,0,1,7.7-.1,5.315,5.315,0,0,1,4.142,5.286c.119,2.765.094,5.537.076,8.305a5.817,5.817,0,0,0,1.275,4.084,1.016,1.016,0,0,1-.191,1.694,28.741,28.741,0,0,0-2.239,1.944,1.113,1.113,0,0,1-1.83-.026c-.608-.669-1.192-1.36-1.85-2.114-.367.309-.748.632-1.133.953a7.974,7.974,0,0,1-7.6,1.448,4.84,4.84,0,0,1-3.418-3.334c-1.5-4.422.965-8.512,5.758-9.447C1500.051-219.23,1501.9-219.439,1503.9-219.739Zm-.048,3.215a7.143,7.143,0,0,0-4.477.976,3.586,3.586,0,0,0-1.389,3.98,2.326,2.326,0,0,0,2.11,1.935,3.351,3.351,0,0,0,3.262-2.1A8.481,8.481,0,0,0,1503.849-216.524Z" transform="translate(0 -31.043)"/>
      <path id="Path_568" data-name="Path 568" d="M1726.109-219.655c0-.55.01-1.017,0-1.484-.046-1.778-.757-2.7-2.288-2.967a3.111,3.111,0,0,0-3.556,1.918c-.355,1.044-.941,1.216-1.883,1.033-.657-.127-1.336-.143-2-.231-1.464-.194-1.6-.421-1.118-1.848a6.168,6.168,0,0,1,3.04-3.648,11.607,11.607,0,0,1,9.644-.585,5.108,5.108,0,0,1,3.6,4.942c.084,2.767.087,5.537.066,8.305a5.908,5.908,0,0,0,1.311,4.192c.6.683.509,1.23-.206,1.784-.78.605-1.528,1.258-2.246,1.937a1.072,1.072,0,0,1-1.739-.055c-.616-.663-1.209-1.347-1.91-2.131-.3.26-.647.552-.988.849a7.968,7.968,0,0,1-7.454,1.624,4.991,4.991,0,0,1-3.907-4.157,6.743,6.743,0,0,1,2.026-6.811,9.938,9.938,0,0,1,5.549-2.153C1723.337-219.325,1724.634-219.469,1726.109-219.655Zm.068,3.252-.36-.411a27.988,27.988,0,0,0-4.2,1.324,3.334,3.334,0,0,0-1.42,3.941,2.317,2.317,0,0,0,2.13,1.918,3.435,3.435,0,0,0,3.29-2.259,2.927,2.927,0,0,0,.289-.9C1726.02-213.991,1726.091-215.2,1726.177-216.4Z" transform="translate(-169.434 -31.038)"/>
      <path id="Path_569" data-name="Path 569" d="M1877.8-216.757a13.915,13.915,0,0,1,1.68-7.193,8.494,8.494,0,0,1,14.842-.105,14.4,14.4,0,0,1,.2,14.217,8.119,8.119,0,0,1-8.05,4.646,7.879,7.879,0,0,1-7.434-5.344,47.472,47.472,0,0,1-1.567-6.143Zm5.689-.171c.3,1.733.547,3.689,1.015,5.59a2.351,2.351,0,0,0,2.432,1.887,2.61,2.61,0,0,0,2.543-1.787,6.668,6.668,0,0,0,.484-1.58,24.421,24.421,0,0,0-.234-8.726c-.359-1.689-1.162-2.446-2.539-2.524a2.585,2.585,0,0,0-2.925,2.212A49.5,49.5,0,0,0,1883.484-216.929Z" transform="translate(-293.861 -30.946)"/>
      <path id="Path_570" data-name="Path 570" d="M1604.828-109.513c-13.007-.219-23.973-4.353-33.375-12.572-.089-.078-.216-.138-.262-.237-.2-.416-.374-.844-.559-1.268a3.686,3.686,0,0,1,1.3.181,66.6,66.6,0,0,0,12.881,5.68,65.407,65.407,0,0,0,45.365-1.744,3.057,3.057,0,0,1,1.107-.383,5.554,5.554,0,0,1,1.366.394c-.163.444-.2,1.044-.513,1.3a22.92,22.92,0,0,1-2.932,2.008A49.631,49.631,0,0,1,1604.828-109.513Z" transform="translate(-59.922 -110.828)"/>
      <path id="Path_571" data-name="Path 571" d="M2090.763-218.659c-.082-1.553-.073-2.977-.254-4.376a2.894,2.894,0,0,0-2.606-2.543,17.958,17.958,0,0,0-7.85.665c-.523.133-1.22.757-1.649-.154a2.182,2.182,0,0,1,.794-2.691c3.795-1.384,7.682-1.948,11.619-.736a5.2,5.2,0,0,1,3.816,5.189c.117,5.223.049,10.45.07,15.675,0,.75-.309,1.1-1.066,1.064a5.53,5.53,0,0,0-.949,0c-1,.122-1.607-.227-1.67-1.309a3.22,3.22,0,0,0-.158-.659,39.766,39.766,0,0,1-4.3,2.027,8.01,8.01,0,0,1-6.882-.512c-3.868-2.293-3.778-8.384.141-10.912a10.272,10.272,0,0,1,6.854-1.32C2087.97-219.113,2089.253-218.879,2090.763-218.659Zm-.069,5.36a18.52,18.52,0,0,0-.02-1.935c-.03-.258-.23-.671-.416-.709-2.4-.489-4.837-.923-7.212.069a3.439,3.439,0,0,0-1.893,3.951,2.85,2.85,0,0,0,2.955,2.68,15.065,15.065,0,0,0,4.241-.807C2090-210.563,2091.313-211.476,2090.694-213.3Z" transform="translate(-445.857 -30.341)"/>
      <path id="Path_572" data-name="Path 572" d="M1814.764-220.935c-2.271,0-4.284-.027-6.3.012-.921.018-1.273-.334-1.25-1.258.089-3.563-.513-2.99,2.988-3.024,3.363-.032,6.728.019,10.091-.022,1-.012,1.38.3,1.416,1.353a5.868,5.868,0,0,1-1.224,3.951c-2,2.655-3.866,5.4-5.785,8.117-.224.317-.428.648-.754,1.144a19.381,19.381,0,0,1,2.427.229c1.455.326,2.9.714,4.327,1.15a1.883,1.883,0,0,1,1.416,2.18q-.138,1.39-.278,2.779c-.84-.228-1.694-.414-2.517-.69a15.246,15.246,0,0,0-11.441.525c-1.189.529-1.357.366-1.478-.965a8.333,8.333,0,0,1,1.858-6.266c2.038-2.567,3.823-5.335,5.714-8.02C1814.2-220.055,1814.4-220.383,1814.764-220.935Z" transform="translate(-239.648 -33.337)"/>
      <path id="Path_573" data-name="Path 573" d="M2277.084-229.957c1.772.4,3.512.728,5.217,1.189a2.015,2.015,0,0,1,.96,2.822c-.222.26-.906.209-1.366.165-1.918-.185-3.827-.539-5.747-.6a2.852,2.852,0,0,0-3.03,1.853,2.412,2.412,0,0,0,1.2,3.138c1.4.719,2.892,1.264,4.346,1.88.836.355,1.695.663,2.511,1.059a5.5,5.5,0,0,1,3.46,5.338,5.842,5.842,0,0,1-3.591,5.559c-3.855,1.75-7.722,1.189-11.523-.282-.674-.261-1.094-2.337-.572-2.835.205-.2.712-.158,1.063-.105,2.1.315,4.193.744,6.305.965a6.063,6.063,0,0,0,2.538-.448,2.692,2.692,0,0,0,1.832-2.532,2.414,2.414,0,0,0-1.565-2.549c-1.991-.867-4.036-1.606-6.036-2.453a6.041,6.041,0,0,1-3.8-3.974,5.643,5.643,0,0,1,3.414-7.083A31.752,31.752,0,0,1,2277.084-229.957Z" transform="translate(-592.15 -29.732)"/>
      <path id="Path_574" data-name="Path 574" d="M1802.283-127.844a11.687,11.687,0,0,0,1.173-.529,14.416,14.416,0,0,1,10.876-1.408,1.354,1.354,0,0,1,1.2,1.5,14.9,14.9,0,0,1-3.944,10.134,7.466,7.466,0,0,1-1.227.888l-.3-.249c.123-.429.244-.858.369-1.286.618-2.116,1.331-4.21,1.823-6.355.348-1.517-.092-2.167-1.622-2.243-2.157-.107-4.328.081-6.493.151-.452.014-.9.061-1.353.093Z" transform="translate(-236.537 -105.754)"/>
    </g>
  </g>
</svg>
