<svg xmlns="http://www.w3.org/2000/svg" width="314" height="108" viewBox="0 0 314 108">
  <g id="aweber" transform="translate(-2392 -462)">
    <rect id="Rectangle_21" data-name="Rectangle 21" width="314" height="108" rx="43" transform="translate(2392 462)" fill="#fff"/>
    <g id="Group_1" data-name="Group 1" transform="translate(3126.267 -284.631)">
      <path id="Path_5" data-name="Path 5" d="M-603.106,801.235q0,5.779,0,11.559c-.007,7.032-4.5,11.842-11.5,12.074-4.479.149-8.968.1-13.447-.04a2.968,2.968,0,0,1-2.138-1.458,50.579,50.579,0,0,1-4.585-19c-.382-8.233.26-16.328,3.2-24.15.8-2.116,1.746-3.113,4.18-2.961,4.951.308,9.954-.024,14.88.471,5.48.551,9.355,5.355,9.4,10.9C-603.076,792.828-603.1,797.032-603.106,801.235Zm-29.214-.052c.211,2.151.3,4.322.656,6.45a31.556,31.556,0,0,0,6.443,13.942,2.082,2.082,0,0,0,3.151.411c1.208-.865,1.157-1.964.341-3.1-.408-.568-.828-1.126-1.218-1.706a27.508,27.508,0,0,1-3.7-23.653c.971-3.474,3.158-6.623,4.9-9.863.949-1.768.644-3.372-1.083-3.5a3.729,3.729,0,0,0-2.727,1.35A30.886,30.886,0,0,0-632.319,801.184Zm16.141-15.237a15.156,15.156,0,0,0-1.593,1.705,22.516,22.516,0,0,0-.241,25.937c.745,1.108,1.535,2.821,3.219,1.637,1.629-1.144.155-2.334-.5-3.383-4.12-6.562-4.59-13.32-1.078-20.269.563-1.114,1.424-2.075,2.034-3.17C-613.669,787.2-614.5,785.842-616.178,785.946Z" transform="translate(-22.437)" fill="#017ac3"/>
      <path id="Path_6" data-name="Path 6" d="M-461.883,815.384l-7.577-20.458-.658-.064-7.9,20.574-12.638-31.324a24.1,24.1,0,0,0,2.746-.018c1.375-.175,1.958.48,2.421,1.7,2.085,5.484,4.257,10.935,6.414,16.391.246.622.592,1.2,1.146,2.315l8.234-21.325,7.895,21.393c.627-1.228,1-1.85,1.275-2.513q3.14-7.548,6.248-15.108c1.321-3.2,1.607-3.332,5.523-2.472Z" transform="translate(-106 -3.436)" fill="#017ac3"/>
      <path id="Path_7" data-name="Path 7" d="M-662.063,777.355a69,69,0,0,0-3.845,23.978A67.924,67.924,0,0,0-661.5,824.64c-5.033.877-10.779-3.3-11.694-8.383a24.223,24.223,0,0,1-.376-4.163q-.051-11.447,0-22.9c.03-5.377,2.806-9.336,7.687-11.094a12.324,12.324,0,0,1,1.821-.376C-663.526,777.625-662.992,777.529-662.063,777.355Z" transform="translate(0 -0.065)" fill="#017ac3"/>
      <path id="Path_8" data-name="Path 8" d="M-518.674,813.013c-4.382.486-4.382.486-5.787-3.014-1.724-4.295-1.724-4.3-6.229-4.316-2.38-.009-4.765.087-7.139-.025a2.432,2.432,0,0,0-2.708,1.753c-.351.91-.821,1.775-1.228,2.664-1.546,3.38-1.545,3.38-5.793,2.965l14.715-31.31Zm-9.383-11.165-4.855-10.966-5.112,10.966Z" transform="translate(-73.03 -2.6)" fill="#017ac3"/>
      <path id="Path_9" data-name="Path 9" d="M-342.613,809.343c-.052,2.487-1.772,1.848-3.04,1.809-1.6-.05-1.065-1.385-1.069-2.245-.033-9.531.005-19.062-.058-28.592-.01-1.528.368-2.082,1.987-2.07,1.592.012,2.034.521,2,2.07-.09,4.608-.032,9.219-.032,14.42,3.117-2.586,6.281-3.627,9.6-2.066a10.442,10.442,0,0,1,3.982,3.523,10.8,10.8,0,0,1-1.276,13C-333.611,812.342-337.367,812.444-342.613,809.343Zm5.035-1.183a6.038,6.038,0,0,0,5.95-6.235c.035-3.6-2.484-6.438-5.74-6.467s-5.625,2.513-5.771,6.165C-343.284,805.258-340.875,808.089-337.578,808.16Z" transform="translate(-189.355 -0.58)" fill="#017ac3"/>
      <path id="Path_10" data-name="Path 10" d="M-380.921,825.458a9.373,9.373,0,0,1-10.413,4.995c-4.426-1.04-7.321-4.44-7.3-8.746a19.208,19.208,0,0,1,.493-4.76c1.054-4.008,5.011-6.443,9.4-5.983,4.639.487,7.467,3.347,7.921,7.746.2,1.966-.259,2.811-2.4,2.7-3.07-.154-6.154-.07-9.232-.036-2,.022-2.323.563-1.608,2.447,1.31,3.452,5.929,4.605,8.414,1.791C-383.9,823.631-382.65,823.911-380.921,825.458Zm-12.956-7.387h8.8c-.631-2.679-1.924-3.693-4.447-3.65A4.042,4.042,0,0,0-393.878,818.071Z" transform="translate(-159.32 -19.506)" fill="#017ac3"/>
      <path id="Path_11" data-name="Path 11" d="M-280,823.543l3.078,1.695a9.406,9.406,0,0,1-10.754,5.09,8.622,8.622,0,0,1-6.939-9.2,15.307,15.307,0,0,1,1.133-5.855c1.745-3.741,6.208-5.283,10.663-4.1,3.465.918,5.988,4.556,6,8.468.005,1.318-.521,1.7-1.75,1.681-3.432-.045-6.866.015-10.3-.014-1.547-.013-1.982.522-1.441,2.046a5.156,5.156,0,0,0,8.891,1.921C-280.947,824.764-280.537,824.2-280,823.543Zm-1.257-5.455c-.257-2.48-1.747-3.77-4.3-3.783a4.068,4.068,0,0,0-4.391,3.783Z" transform="translate(-219.591 -19.433)" fill="#017ac3"/>
      <path id="Path_12" data-name="Path 12" d="M-243.18,829.992v-18.72l4.236.873-.083.838c2.289-2.076,4.725-2.813,7.707-.993l-1.591,3.227c-.5-.122-.947-.223-1.391-.343-2.283-.617-4.381.523-4.651,2.881-.349,3.042-.414,6.123-.477,9.191C-239.5,830.339-239.439,830.34-243.18,829.992Z" transform="translate(-249.399 -19.534)" fill="#017ac3"/>
    </g>
  </g>
</svg>
