<svg xmlns="http://www.w3.org/2000/svg" width="314" height="108" viewBox="0 0 314 108">
  <g id="b-ads" transform="translate(-2783 -131)">
    <rect id="Rectangle_25" data-name="Rectangle 25" width="314" height="108" rx="43" transform="translate(2783 131)" fill="#fff"/>
    <g id="Group_98" data-name="Group 98" transform="translate(3978.441 3252.449)">
      <path id="Path_471" data-name="Path 471" d="M-1038.429-3106c-7.128,0-14.259-.13-21.382.037-6.834.161-12.207,3.043-15.4,9.323a19,19,0,0,0-1.838,8.725c-.015,13.907-.092,27.816.047,41.722.068,6.831,2.992,12.212,9.258,15.436a18.83,18.83,0,0,0,8.724,1.873c13.955.021,27.91.1,41.864-.046,6.832-.07,12.225-2.985,15.451-9.246a18.791,18.791,0,0,0,1.875-8.717c.021-13.908.064-27.816-.034-41.723-.042-5.9-2.259-10.871-7.25-14.35a17.107,17.107,0,0,0-8.144-2.874c-3.208-.342-6.427-.145-9.64-.169-4.511-.035-9.022-.009-13.533-.009Zm-3.148,26.667c.287.084.394.111.5.147q10.979,3.823,21.963,7.633a.85.85,0,0,1,.654.982q-.03,5.181,0,10.363a1.054,1.054,0,0,1-.626,1.055q-12.411,7.08-24.8,14.194a1,1,0,0,1-1.146.031q-4.628-2.621-9.292-5.177a.956.956,0,0,1-.553-.991q.016-22.258-.005-44.515c0-.778.244-.72.826-.512,2.857,1.022,5.717,2.038,8.6,2.977a1.257,1.257,0,0,1,1.018,1.459q-.046,17.121-.02,34.242c0,.979.006.983.81.524q6.534-3.737,13.064-7.482c.188-.108.471-.144.487-.485l-6.286-2.917a1.384,1.384,0,0,1-.846-.737C-1038.642-3072.083-1040.075-3075.612-1041.578-3079.335Zm27.511,42.267a3.956,3.956,0,0,1-.491.623,3.247,3.247,0,0,1-4.853-.768,5.318,5.318,0,0,1,.254-5.388,3.436,3.436,0,0,1,3.6-1.292,4.457,4.457,0,0,1,1.724,1.139c0-1.446-.013-2.766.01-4.086,0-.274-.217-.736.346-.751.582-.016.358.458.359.726.016,3.3.021,6.608-.005,9.911,0,.352.3.978-.292,1.034C-1014.219-3035.846-1013.611-3036.638-1014.066-3037.068Zm-8.46.066c-.251.192-.536.4-.8.62a2.989,2.989,0,0,1-3.206.393,2.177,2.177,0,0,1-1.088-2.285c.117-1.011.808-1.7,2.132-2.015.815-.194,1.654-.289,2.481-.434.221-.039.454,0,.509-.359a1.971,1.971,0,0,0-1.815-2.234,4.293,4.293,0,0,0-2.567.937c-.049-.376-.164-.713.155-.9a3.921,3.921,0,0,1,3.439-.52,2.391,2.391,0,0,1,1.5,2.446c.029,1.439.049,2.879,0,4.317-.011.373.352,1.056-.3,1.106-.767.06-.24-.683-.413-1.024Zm15.824-5.864a6.632,6.632,0,0,0-.923-.339,3.889,3.889,0,0,0-1.07-.091,1.388,1.388,0,0,0-1.405,1.052,1.354,1.354,0,0,0,.735,1.663c.585.306,1.187.581,1.759.907a1.9,1.9,0,0,1,1.184,2.192,2.178,2.178,0,0,1-1.942,1.739,3.972,3.972,0,0,1-2.043-.187c-.5-.193-.7-.5-.464-1.052a3.619,3.619,0,0,0,2.42.59,1.345,1.345,0,0,0,1.27-1.082,1.309,1.309,0,0,0-.692-1.518c-.548-.309-1.126-.564-1.676-.87a2.084,2.084,0,0,1-1.313-2.4,2.322,2.322,0,0,1,2.18-1.713,4.122,4.122,0,0,1,1.515.163C-1006.667-3043.68-1006.48-3043.39-1006.7-3042.866Z" transform="translate(0)" fill="#018272"/>
      <path id="Path_472" data-name="Path 472" d="M-989.946-3056.561c1.5,3.723,2.936,7.252,4.345,10.792a1.384,1.384,0,0,0,.846.737l6.286,2.917c-.016.341-.3.377-.487.485q-6.528,3.747-13.064,7.482c-.8.459-.809.456-.81-.524q0-17.121.02-34.242a1.257,1.257,0,0,0-1.018-1.459c-2.885-.939-5.745-1.955-8.6-2.977-.582-.208-.827-.267-.826.512q.028,22.257.005,44.515a.956.956,0,0,0,.553.991q4.665,2.554,9.292,5.177a1,1,0,0,0,1.146-.031q12.392-7.114,24.8-14.194a1.054,1.054,0,0,0,.626-1.055q-.037-5.181,0-10.363a.85.85,0,0,0-.654-.982q-10.989-3.794-21.963-7.633C-989.552-3056.45-989.659-3056.477-989.946-3056.561Z" transform="translate(-51.632 -22.774)" fill="#fcfdfd"/>
      <path id="Path_473" data-name="Path 473" d="M-881.34-2901.083c.455.43-.153,1.223.649,1.148.594-.056.289-.682.292-1.034.026-3.3.021-6.608.005-9.911,0-.268.223-.742-.359-.726-.564.015-.342.477-.346.751-.023,1.32-.01,2.64-.01,4.086a4.459,4.459,0,0,0-1.724-1.139,3.436,3.436,0,0,0-3.6,1.292,5.318,5.318,0,0,0-.254,5.388,3.248,3.248,0,0,0,4.853.769A3.958,3.958,0,0,0-881.34-2901.083Zm.217-2.859h.034c-.026.449-.016.9-.083,1.345a2.566,2.566,0,0,1-2.025,2.151,2.378,2.378,0,0,1-2.8-1.109,4.449,4.449,0,0,1,.085-4.546,2.6,2.6,0,0,1,2.975-1.15,2.47,2.47,0,0,1,1.81,2.407C-881.108-2904.543-881.123-2904.242-881.123-2903.942Z" transform="translate(-132.726 -135.985)" fill="#f7f7f7"/>
      <path id="Path_474" data-name="Path 474" d="M-907.529-2892.668l.026.051c.173.341-.353,1.083.413,1.024.649-.05.285-.733.3-1.106.044-1.438.024-2.878,0-4.317a2.391,2.391,0,0,0-1.5-2.446,3.92,3.92,0,0,0-3.439.52c-.32.185-.2.522-.155.9a4.3,4.3,0,0,1,2.567-.937,1.971,1.971,0,0,1,1.815,2.234c-.055.361-.288.321-.509.359-.827.144-1.665.24-2.481.434-1.323.314-2.015,1-2.132,2.015a2.177,2.177,0,0,0,1.088,2.285,2.988,2.988,0,0,0,3.206-.393C-908.066-2892.272-907.78-2892.476-907.529-2892.668Zm.029-2.4c-.057,1.939-1.256,3.189-2.858,3.038a1.546,1.546,0,0,1-1.529-1.377,1.539,1.539,0,0,1,1.112-1.81,19.719,19.719,0,0,1,2.559-.487C-907.583-2895.841-907.391-2895.593-907.5-2895.066Z" transform="translate(-114.997 -144.334)" fill="#f7f7f7"/>
      <path id="Path_475" data-name="Path 475" d="M-852.914-2898.51c.223-.525.036-.814-.465-.948a4.127,4.127,0,0,0-1.515-.163,2.323,2.323,0,0,0-2.18,1.713,2.084,2.084,0,0,0,1.313,2.4c.55.305,1.129.56,1.676.869a1.309,1.309,0,0,1,.692,1.518,1.345,1.345,0,0,1-1.27,1.082,3.621,3.621,0,0,1-2.42-.589c-.237.557-.032.858.464,1.052a3.972,3.972,0,0,0,2.043.186,2.178,2.178,0,0,0,1.942-1.739,1.9,1.9,0,0,0-1.184-2.191c-.572-.327-1.174-.6-1.759-.908a1.353,1.353,0,0,1-.735-1.663,1.388,1.388,0,0,1,1.405-1.052,3.889,3.889,0,0,1,1.07.091A6.6,6.6,0,0,1-852.914-2898.51Z" transform="translate(-153.789 -144.356)" fill="#f7f7f7"/>
      <path id="Path_476" data-name="Path 476" d="M-879.449-2894.037c0-.3.015-.6,0-.9a2.47,2.47,0,0,0-1.81-2.407,2.6,2.6,0,0,0-2.975,1.15,4.449,4.449,0,0,0-.085,4.546,2.377,2.377,0,0,0,2.8,1.109,2.565,2.565,0,0,0,2.025-2.151c.067-.442.058-.9.083-1.345Z" transform="translate(-134.4 -145.89)" fill="#018272"/>
      <path id="Path_477" data-name="Path 477" d="M-905.773-2885.927c.109-.526-.082-.775-.716-.635a19.723,19.723,0,0,0-2.559.487,1.539,1.539,0,0,0-1.112,1.81,1.546,1.546,0,0,0,1.529,1.377C-907.029-2882.738-905.829-2883.988-905.773-2885.927Z" transform="translate(-116.725 -153.474)" fill="#018272"/>
    </g>
  </g>
</svg>
