<svg xmlns="http://www.w3.org/2000/svg" width="314" height="108" viewBox="0 0 314 108">
  <g id="bing_ads" data-name="bing ads" transform="translate(-2797 -447)">
    <rect id="Rectangle_26" data-name="Rectangle 26" width="314" height="108" rx="43" transform="translate(2797 447)" fill="#fff"/>
    <g id="Group_99" data-name="Group 99" transform="translate(3470.365 3561.535)">
      <path id="Path_478" data-name="Path 478" d="M-465.691-2926.2c-2.212,4.554,1.565,6.521,5.208,6.394a8.029,8.029,0,0,0,5.7-2.261c.408-.421.639-.358.947.106a5.315,5.315,0,0,0,4.439,2.208,10.38,10.38,0,0,0,5.974-.969,3.021,3.021,0,0,0,1.658-3.247c-.129-1.35-1.139-1.728-2.186-2a29.577,29.577,0,0,0-3.012-.549c-.4-.062-.76-.1-.742-.623.019-.558.486-.517.824-.552.535-.056,1.057-.113,1.45.486.4.617,3.539,1,4.187.594.467-.295.357-.7.186-1.114a2.385,2.385,0,0,0-1.517-1.387c-2.85-.831-5.7-1.2-8.489.33a2.324,2.324,0,0,0-1.327,2.265,2.285,2.285,0,0,0,1.864,2.033c1.119.286,2.247.542,3.37.814.417.1.85.189.828.764s-.357.813-.906.856c-.677.053-1.573.063-1.825-.459-.648-1.34-1.744-.982-2.758-1.008a24.777,24.777,0,0,1-3.532-.209,1.847,1.847,0,0,1,.353-.192c.684-.2,1.669-.048,1.874-.9a3.507,3.507,0,0,0-.789-3.277,5.319,5.319,0,0,0-3.628-1.552c-2.521-.264-4.084.163-6.6,1.649-.051-.065-.157-.143-.146-.194.331-1.5.243-1.7-1.155-1.1-1.465.628-2.743,0-4.086-.1-1.387-.1-2.14.221-2.375,1.724-.277,1.776-1.283,3.4-1.234,5.262a.567.567,0,0,1-.072.268c-.349.66-1.42,1.409-.235,2.031,1.411.742,3.512-.035,3.878-1.173.355-1.1.665-2.221,1.085-3.3a2.258,2.258,0,0,1,2.816-1.6c-.023-.064-.043-.127-.063-.19.016.016.045.03.046.046A.827.827,0,0,1-465.691-2926.2Zm3.883,2.295a4.026,4.026,0,0,1,2.365-3.35c1.037-.377,1.928.02,2.1.936a4.041,4.041,0,0,1-1.857,3.783C-460.682-2921.777-461.839-2922.385-461.808-2923.9Z" transform="translate(-52.284 -104.92)" fill="#5b5b5b"/>
      <path id="Path_479" data-name="Path 479" d="M-445-3081.222c.731-.587,1.428-1.056,2.016-1.636a4.68,4.68,0,0,0,.687-6.37c-.168-.264-.545-.5-.385-.843.2-.421.662-.222,1.011-.264a3.816,3.816,0,0,1,.984,0c.839.119,1.092-.266,1-1.042a4.933,4.933,0,0,1,0-1.125c.1-.857-.325-1.027-1.08-.989a11.635,11.635,0,0,0-4.357,1.03,2.742,2.742,0,0,1-2.015.114,13.862,13.862,0,0,0-9.625.667,8.053,8.053,0,0,0-2.5,1.793,4.655,4.655,0,0,0-.045,6.815c2.633,2.705,6.016,3.3,9.6,3.028a3.948,3.948,0,0,1,2.526.57c2.865,1.779,2.86,5.059-.01,6.839a7.365,7.365,0,0,1-9.04-1.165c-.432-.448-3.4-.907-3.826-.562-.466.376-.015.691.168.944a9.041,9.041,0,0,0,5.62,3.465,12.889,12.889,0,0,0,9.791-1.352c4.082-2.458,4.184-6.571.31-9.311C-444.43-3080.8-444.683-3080.992-445-3081.222Zm-5.533-9.685a6.441,6.441,0,0,1,3.965,1.487,3.6,3.6,0,0,1,.256,5.729,7.406,7.406,0,0,1-9.635-.154,3.5,3.5,0,0,1-.026-5.142C-454.613-3090.377-452.908-3090.911-450.531-3090.907Z" transform="translate(-59.295 -3.944)" fill="#6d6f74"/>
      <path id="Path_480" data-name="Path 480" d="M-389.2-2930.044c-.558,2-1.076,4.015-1.689,6-.234.754.019.861.675.915,3.193.261,3.414.116,4.2-2.991.193-.765.435-1.522.57-2.3.263-1.517,1.039-2.169,2.643-1.639-.322,1.265-.655,2.556-.979,3.849-.506,2.017.02,2.806,2.124,3.048a12.686,12.686,0,0,0,2.39.008c1.386-.1.823-1.469,1.43-2.176a3,3,0,0,0-.623-.136c-1.111.027-1.461-.437-1.064-1.5a18.808,18.808,0,0,0,.726-2.394c.132-.584.332-.955,1-.833,1.374.25,1.6-.723,1.626-1.679.034-1.166-1.071-.223-1.539-.829.091-.547.206-1.242.333-2.016a21.842,21.842,0,0,1-2.443-.017c-1.2-.137-1.837.152-2.064,1.5-.247,1.468-1.513.5-2.352.774.074-.633.158-1.076.866-1.118,1.058-.062.641-1.088.953-1.64.135-.238-.239-.286-.468-.329a4.761,4.761,0,0,0-5.58,2.558c-.222.371-.415.562-.847.533-.781-.052-1.566-.137-1.772.96-.094.5-.369.145-.582.014a8.816,8.816,0,0,0-10.676,1.032,4.407,4.407,0,0,0-1.385,4.562,4.157,4.157,0,0,0,3.533,2.778,8.839,8.839,0,0,0,8.221-2.369,4.27,4.27,0,0,0,1.411-3.522C-390.69-2930.237-390.272-2930.452-389.2-2930.044Zm-5.6,1.1a4.327,4.327,0,0,1-1.969,3.345c-1.261.655-2.761-.066-2.715-1.3a4.571,4.571,0,0,1,2.695-3.484A1.408,1.408,0,0,1-394.8-2928.944Z" transform="translate(-89.457 -101.813)" fill="#5b5b5b"/>
      <path id="Path_481" data-name="Path 481" d="M-539.884-2929.24c-.226-2.015-.05-3.688-.243-5.35-.105-.9-.43-1.081-1.217-1.055a37.494,37.494,0,0,1-3.938-.012,1.4,1.4,0,0,0-1.686,1.218c-1.024,3.7-2.1,7.391-3.221,11.3,1.509,0,2.93-.019,4.35.009.593.012.5-.47.614-.768.491-1.331.942-2.678,1.517-4.333a10.1,10.1,0,0,1,.322,3.3c.072.655-.128,1.675.68,1.72,1.069.06,2.388.664,3.239-.587.907-1.333,1.764-2.7,2.731-4.011a14.2,14.2,0,0,1-.661,3.45c-.3.739-.239,1.381.9,1.244a9.067,9.067,0,0,1,2.247,0c1.062.14,1.462-.336,1.715-1.3.886-3.365,1.792-6.727,2.808-10.053.33-1.082-.023-1.236-.925-1.173-.42.029-.844,0-1.266,0-4.068,0-4.065,0-6.145,3.469C-538.59-2931.289-539.143-2930.429-539.884-2929.24Z" transform="translate(-11.861 -101.826)" fill="#5b5b5b"/>
      <path id="Path_482" data-name="Path 482" d="M-571.52-3093.594c0,1.409.068,2.822-.014,4.226a6.606,6.606,0,0,0,2.7,5.743c4.539,3.729,13.432,3.623,17.9-.21,3.369-2.887,3.3-7.01-.239-9.732-3.374-2.593-7.28-3.062-11.367-2.55a11.373,11.373,0,0,0-4.285,1.307c-1.159.664-1.338.15-1.288-.9.049-1.031-.037-2.069.027-3.1.052-.841-.19-1.171-1.087-1.142-2.8.092-2.3-.336-2.348,2.267C-571.539-3096.318-571.52-3094.955-571.52-3093.594Zm11.414-.738a9.388,9.388,0,0,1,5.358,1.433c3.357,2.067,3.558,5.843.457,8.266a10.151,10.151,0,0,1-11.476-.034c-2.936-2.327-2.84-5.872.235-8.023A9.053,9.053,0,0,1-560.106-3094.332Z" transform="translate(-0.531 -0.522)" fill="#6d6f74"/>
      <path id="Path_483" data-name="Path 483" d="M-486.479-3084.787a5.07,5.07,0,0,0-2.12-5.028c-4.278-3.167-12.007-3.172-16.363-.08a5.871,5.871,0,0,0-2.344,5.018c-.063,2.156.024,4.316-.035,6.471-.026.929.377,1.086,1.176,1.069,2.826-.059,2.3.271,2.336-2.276.033-2.016.043-4.033.045-6.049a3.29,3.29,0,0,1,1.773-2.982,9.467,9.467,0,0,1,10.377-.034,3.33,3.33,0,0,1,1.774,3.122c-.022,2.3.053,4.6-.027,6.893-.038,1.072.315,1.5,1.348,1.316.681-.123,1.485.393,2.042-.383a.775.775,0,0,1-.333-.714q0-2.835,0-5.671C-486.834-3084.406-486.8-3084.672-486.479-3084.787Z" transform="translate(-34.591 -4.631)" fill="#6d6f74"/>
      <path id="Path_484" data-name="Path 484" d="M-473.359-2975.551q-10.628,0-21.256.012c-.526,0-1.313-.339-1.372.691-.028.481.042.85.642.838.375-.007.751,0,1.126,0q20.412,0,40.824-.006c.7,0,1.4-.118,2.1-.134.526-.011.8-.241.787-.754-.017-.569-.429-.653-.891-.644-.328.006-.657,0-.985,0Z" transform="translate(-40.248 -71.209)" fill="#a9a9a9"/>
      <path id="Path_485" data-name="Path 485" d="M-489.316-2923.5a2.783,2.783,0,0,0-2.656.933,1.4,1.4,0,0,1-1.8.292,1.5,1.5,0,0,1-.63-1.727,3.635,3.635,0,0,1,1.868-2.8c.837-.44,1.7-.662,2.069.611.139.478.524.474.9.472.892-.005,1.787-.075,2.673-.017,1.029.067,1.055-.426.817-1.191-.529-1.694-1.969-2.239-3.443-2.409-3.163-.365-6.149.126-8.3,2.808a4.025,4.025,0,0,0,2.015,6.589,7.94,7.94,0,0,0,8.038-1.9c.425-.406,1.1-.854.833-1.467-.2-.458-.934-.119-1.425-.186A9.113,9.113,0,0,0-489.316-2923.5Z" transform="translate(-39.105 -105.128)" fill="#5b5b5b"/>
      <path id="Path_486" data-name="Path 486" d="M-357.49-3083.728q0-3.03,0-6.06c0-.627.012-1.333-.874-1.3-.85.033-.665.752-.676,1.288-.018.845-.012,1.691-.008,2.536,0,.937-.207,1.306-1.24.771a6.83,6.83,0,0,0-5.608-.264,5.087,5.087,0,0,0-3.581,5.944c.286,2.232,2.675,4.187,5.372,4.393a7.294,7.294,0,0,0,3.819-.759c.473-.231.977-.709,1.345.187.174.424.63.354.995.249.467-.135.442-.553.443-.928q.006-3.029,0-6.059Zm-10.353,1.865c0-2.335,1.836-3.979,4.473-4a3.946,3.946,0,0,1,4.32,4.092c-.019,2.549-1.519,3.952-4.237,3.96C-366.021-3077.8-367.84-3079.42-367.843-3081.864Z" transform="translate(-107.689 -5.222)" fill="#f4b64e"/>
      <path id="Path_487" data-name="Path 487" d="M-335.209-3082.779a9.156,9.156,0,0,0-3.456.549,2.877,2.877,0,0,0-1.906,2.973,2.667,2.667,0,0,0,2.346,2.276c1.805.351,3.656.046,5.457.458.727.167,1.479.336,1.546,1.159.06.731-.587,1.182-1.225,1.364-2.32.664-4.624.9-6.608-.894a1.1,1.1,0,0,0-1.619-.06c-.443.461.085.94.437,1.305,1.93,2.01,7.526,2.243,9.606.394a2.715,2.715,0,0,0,.971-2.768,2.448,2.448,0,0,0-2.116-2c-1.756-.265-3.535-.377-5.306-.531-.767-.067-1.63-.079-1.758-1.032-.143-1.063.747-1.284,1.544-1.451,2.018-.422,3.98-.515,5.715.923a1.043,1.043,0,0,0,1.515-.183c.33-.44-.173-.857-.518-1.155C-331.918-3082.6-333.556-3082.726-335.209-3082.779Z" transform="translate(-122.914 -9.629)" fill="#f4b64e"/>
      <path id="Path_488" data-name="Path 488" d="M-395.839-3091.174a1.286,1.286,0,0,0-1.354.895q-2.616,5.673-5.564,11.182a4.09,4.09,0,0,0-.5,1.144c-.065.361-.54.859.026,1.117a1.039,1.039,0,0,0,1.431-.526c.37-.707.767-1.4,1.074-2.137a1.406,1.406,0,0,1,1.533-.927c2.205.039,4.412.046,6.617,0a1.614,1.614,0,0,1,1.819,1.162,12.6,12.6,0,0,0,1.1,2.114.944.944,0,0,0,1.257.316c.6-.26.214-.722.041-1.067q-3.111-6.235-6.242-12.461C-394.875-3090.916-395.245-3091.286-395.839-3091.174Zm-.006,1.574c1.309,2.624,2.436,4.88,3.56,7.138.231.464.1.7-.438.7q-3.094-.012-6.189-.009c-.513,0-.693-.213-.457-.693C-398.254-3084.725-397.137-3086.984-395.845-3089.6Z" transform="translate(-89.673 -5.166)" fill="#f4b64e"/>
      <path id="Path_489" data-name="Path 489" d="M-519.218-3076.6c.909.982,2.06.421,3.047.325.761-.074.388-1.023.393-1.571.034-3.552-.018-7.1.039-10.656.017-1.065-.053-1.726-1.386-1.377a6.924,6.924,0,0,1-1.666.031c.006,4.022.018,8.045.009,12.068C-518.783-3077.353-518.56-3076.8-519.218-3076.6Z" transform="translate(-28.29 -5.816)" fill="#6d6f74"/>
      <path id="Path_490" data-name="Path 490" d="M-504.61-2928.9c-1.48,0-3.1-.453-4.115.133-.931.537-.871,2.3-1.218,3.538-.439,1.561-.876,3.124-1.393,4.66-.24.709-.077.962.635.934.047,0,.094,0,.141,0,3.883-.153,3.275.939,4.372-3.327A40.892,40.892,0,0,0-504.61-2928.9Z" transform="translate(-32.416 -105.328)" fill="#5b5b5b"/>
      <path id="Path_491" data-name="Path 491" d="M-565.381-3023.882q-.607-3.534-1.212-7.069c-.058-.34-.15-.646-.578-.673a.787.787,0,0,0-.841.359c-1.478,2.5-2.967,5-4.442,7.507a.827.827,0,0,0-.08.5,1.2,1.2,0,0,0,.657.115c.528-.114.7-.612.872-1.027a1.953,1.953,0,0,1,2.177-1.3c1.3.04,2.481-.051,2.364,1.787-.031.472.328.65.767.577C-565.2-3023.192-565.345-3023.566-565.381-3023.882Zm-2.228-6.2c.979,3.756.849,3.971-1.965,3.471Z" transform="translate(0 -36.764)" fill="#767879"/>
      <path id="Path_492" data-name="Path 492" d="M-509.623-3023.447c.958.039,1.712-.919,2.661-.192.205.157.433-.265.465-.557.27-2.48.964-4.877,1.417-7.32.067-.359.367-.919-.3-1.027-.57-.093-.679.415-.705.843-.083,1.347-.581,1.919-2.12,1.985-2.256.1-3.777,3.3-2.766,5.329A1.609,1.609,0,0,0-509.623-3023.447Zm2.072-5.467c.284.075.866-.106.768.47-.226,1.32-.4,2.708-1.46,3.681-.57.523-1.292.68-1.752-.161A2.926,2.926,0,0,1-507.551-3028.914Z" transform="translate(-32.498 -36.273)" fill="#767879"/>
      <path id="Path_493" data-name="Path 493" d="M-468.685-3023.453c.75.067,1.437-1.127,2.378-.209.165.161.377-.3.432-.579.493-2.482.993-4.962,1.482-7.445.069-.348.265-.8-.317-.885-.491-.075-.622.3-.7.7-.069.369-.19.731-.224,1.1-.07.763-.446.963-1.206.979a3.853,3.853,0,0,0-3.713,4.7A1.8,1.8,0,0,0-468.685-3023.453Zm1.815-5.463c.277.025.779-.048.69.623a5.909,5.909,0,0,1-1.25,3.362c-.685.759-1.594.7-1.976-.064A2.947,2.947,0,0,1-466.87-3028.916Z" transform="translate(-54.064 -36.258)" fill="#767879"/>
      <path id="Path_494" data-name="Path 494" d="M-447.309-3030.845c-1.188-.361-1.579.354-1.774,1.6-.312,1.982-.813,3.936-1.217,5.9-.077.372-.383.877.277,1.022.6.131.66-.35.739-.777a4.94,4.94,0,0,0,.167-.68c.045-1.226.555-1.843,1.89-1.756a2.953,2.953,0,0,0,2.513-1.039,2.69,2.69,0,0,0,.54-2.88C-444.727-3030.788-445.9-3030.872-447.309-3030.845Zm.741,1.025a1.314,1.314,0,0,1,1.462,1.438c.012,1.195-1.024,1.98-2.572,1.963-.443,0-.81.022-.789-.642C-448.416-3028.75-447.851-3029.816-446.568-3029.82Z" transform="translate(-64.776 -37.13)" fill="#767879"/>
      <path id="Path_495" data-name="Path 495" d="M-406.46-3022.049a2.451,2.451,0,0,0,3.587,2.344c.374-.16.76-.382.667-.78-.15-.642-.582-.121-.871-.078a3.094,3.094,0,0,1-1.385.025,1.169,1.169,0,0,1-.891-1.135c0-.672.62-.384.975-.44a5.649,5.649,0,0,0,2.269-.657,1.621,1.621,0,0,0,.833-1.782,1.626,1.626,0,0,0-1.476-1.3C-404.675-3026.189-406.459-3024.366-406.46-3022.049Zm2.271-1.021c-.346-.086-.973.17-.872-.391a1.728,1.728,0,0,1,1.792-1.46c.5-.014,1.026.114.92.749C-402.525-3023.125-403.465-3023.232-404.189-3023.07Z" transform="translate(-88.106 -39.808)" fill="#767879"/>
      <path id="Path_496" data-name="Path 496" d="M-335.924-3025.9a3.982,3.982,0,0,0-3.634,5.152,1.632,1.632,0,0,0,1.691,1.223c.795-.032,1.477-.707,2.388-.291.392.179.349-.4.414-.7.249-1.143.516-2.282.767-3.424C-333.9-3025.785-334.007-3025.916-335.924-3025.9Zm-.234.969c.312.1.985-.193.887.5a5.443,5.443,0,0,1-1.434,3.58c-.654.584-1.357.721-1.836-.232A2.922,2.922,0,0,1-336.158-3024.935Z" transform="translate(-123.487 -39.8)" fill="#767879"/>
      <path id="Path_497" data-name="Path 497" d="M-427.057-3022.073c-.012,1.662.785,2.543,2.309,2.553,1.831.012,3.285-1.709,3.262-3.863a2.248,2.248,0,0,0-2.264-2.5C-425.621-3025.907-427.042-3024.268-427.057-3022.073Zm4.5-1.146c-.032,1.557-1.055,2.87-2.215,2.787-1.069-.077-1.221-.871-1.215-1.724.011-1.532.921-2.743,2.064-2.756C-422.766-3024.925-422.539-3024.167-422.559-3023.219Z" transform="translate(-77.179 -39.81)" fill="#767879"/>
      <path id="Path_498" data-name="Path 498" d="M-361.985-3023.395a2.219,2.219,0,0,0-2.354-2.51,3.608,3.608,0,0,0-3.22,3.894,2.219,2.219,0,0,0,2.23,2.481C-363.4-3019.5-361.991-3021.125-361.985-3023.395Zm-1.073-.154c-.032,1.84-1.017,3.189-2.126,3.122s-1.321-.861-1.3-1.781c.037-1.558,1.038-2.778,2.223-2.721C-363.157-3024.875-363.065-3024.1-363.058-3023.548Z" transform="translate(-108.741 -39.8)" fill="#767879"/>
      <path id="Path_499" data-name="Path 499" d="M-351.852-3024.914c-.3-.26-.034-.958-.714-.847-.5.083-.477.5-.551.862-.3,1.468-.613,2.935-.907,4.4-.067.334-.335.789.291.872.486.065.631-.3.713-.7.143-.688.3-1.374.427-2.066a2.989,2.989,0,0,1,.619-1.4c.542-.66,1.151-1.471,2.08-1.025.881.423.362,1.325.245,2.027-.132.785-.317,1.561-.489,2.339-.072.323-.22.675.251.8.488.128.661-.186.749-.6.243-1.146.532-2.283.734-3.436a1.689,1.689,0,0,0-.673-1.988,1.913,1.913,0,0,0-2.115.233C-351.423-3025.277-351.631-3025.089-351.852-3024.914Z" transform="translate(-115.861 -39.807)" fill="#767879"/>
      <path id="Path_500" data-name="Path 500" d="M-523.683-3022.9a2.229,2.229,0,0,0,1.166,2.229,2.851,2.851,0,0,0,2.575.017c.328-.153.589-.4.453-.761-.144-.379-.465-.1-.714-.069a5.3,5.3,0,0,1-1.242.132,1.127,1.127,0,0,1-1.132-1.2c.03-.766.694-.434,1.087-.495a5.653,5.653,0,0,0,2.025-.517,1.667,1.667,0,0,0,.9-2.006,1.647,1.647,0,0,0-1.707-1.2C-522.1-3026.913-523.7-3025.088-523.683-3022.9Zm1.233-1.1a2.2,2.2,0,0,1,1.543-1.772c.5-.156,1.1-.177,1.318.424s-.2.952-.717,1.16A3.5,3.5,0,0,1-522.45-3024Z" transform="translate(-25.922 -39.336)" fill="#767879"/>
      <path id="Path_501" data-name="Path 501" d="M-410.593-3032a1.912,1.912,0,0,0-1.821,1.3c-.312.721-.2,1.712-1.368,1.838-.215.023-.35.581-.029.664,1.1.285.541,1.027.444,1.559-.266,1.469-.631,2.919-.939,4.381-.072.341-.263.791.33.871.492.066.607-.289.69-.692.319-1.556.662-3.106.989-4.661.152-.721.148-1.563,1.287-1.381a.435.435,0,0,0,.486-.4c.041-.269-.077-.465-.367-.472-.6-.013-.866-.257-.7-.878s.4-1.178,1.163-1.186c.4,0,.828.011.745-.538C-409.757-3032.113-410.24-3031.965-410.593-3032Z" transform="translate(-83.897 -36.568)" fill="#767879"/>
      <path id="Path_502" data-name="Path 502" d="M-482.892-3022.956a2.425,2.425,0,0,0,3.512,2.429c.366-.148.778-.344.676-.766-.15-.623-.589-.147-.881-.093a2.517,2.517,0,0,1-1.382,0,1.111,1.111,0,0,1-.823-1.169c.056-.668.621-.418.985-.46a4.9,4.9,0,0,0,2.274-.624,1.618,1.618,0,0,0,.768-1.809,1.551,1.551,0,0,0-1.5-1.244C-481.217-3026.925-482.87-3025.231-482.892-3022.956Zm2.113-.9c-.242-.163-.894.22-.8-.35a1.893,1.893,0,0,1,1.718-1.595c.53-.074,1.179.06,1.088.736C-478.923-3023.971-479.931-3024.04-480.779-3023.853Z" transform="translate(-47.56 -39.372)" fill="#767879"/>
      <path id="Path_503" data-name="Path 503" d="M-518.775-3100.932a5.842,5.842,0,0,0-1.07.244,1.683,1.683,0,0,0-1.158,1.472,1.679,1.679,0,0,0,1.06,1.532,2.8,2.8,0,0,0,1.5.3c1.41-.019,2.5-.752,2.549-1.724C-515.851-3100.141-516.982-3100.943-518.775-3100.932Z" transform="translate(-27.342)" fill="#f4b64e"/>
      <path id="Path_504" data-name="Path 504" d="M-391.149-3024.891c.226,0,.744.469.847-.285.106-.77-.549-.631-.956-.675a2.054,2.054,0,0,0-2.438,1.189c-.408,1.061.147,1.761,1.006,2.348.465.318,1.213.639.817,1.4-.34.652-1.038.453-1.643.394-.347-.034-.879-.532-.993.216-.1.665.484.717.944.753,1.1.086,2.22.135,2.736-1.132.474-1.165-.232-1.843-1.111-2.417-.436-.285-.931-.582-.74-1.2C-392.467-3025-391.845-3024.927-391.149-3024.891Z" transform="translate(-94.439 -39.815)" fill="#767879"/>
      <path id="Path_505" data-name="Path 505" d="M-381.112-3024.892c.284-.018.825.483.909-.281.08-.735-.56-.638-.982-.675a2.078,2.078,0,0,0-2.429,1.228c-.426,1.1.213,1.768,1.052,2.326.468.312,1.064.629.78,1.308-.3.72-.993.526-1.6.481-.346-.026-.875-.552-1,.2-.107.656.473.74.936.773,1.1.08,2.235.09,2.743-1.164.476-1.175-.3-1.829-1.156-2.409-.428-.29-.93-.589-.735-1.216C-382.37-3025.037-381.736-3024.909-381.112-3024.892Z" transform="translate(-99.811 -39.82)" fill="#767879"/>
      <path id="Path_506" data-name="Path 506" d="M-488.377-3029.933c-.53-.08-.726.25-.994.694-.53.88-1.19,1.536-.66,2.809.3.715-.326,1.79-.455,2.714-.16,1.148.466,1.768,1.508,1.585.387-.068.793-.188.81-.633.023-.61-.454-.261-.716-.28-.525-.04-.616-.383-.541-.785.189-1.009.408-2.012.629-3.014.121-.551.572-.539,1-.533.379,0,.649-.137.68-.537.032-.423-.3-.387-.577-.4C-489.03-3028.4-487.9-3029.479-488.377-3029.933Z" transform="translate(-43.518 -37.657)" fill="#767879"/>
      <path id="Path_507" data-name="Path 507" d="M-542.522-3023.036c0-1.965,1.072-2.9,3-2.6.283.044.546.206.673-.187a.562.562,0,0,0-.4-.767,3.013,3.013,0,0,0-3.029.559,4.153,4.153,0,0,0-1.18,4.225,2.3,2.3,0,0,0,3.26,1.165c.316-.186.57-.445.438-.78-.149-.377-.461-.072-.709-.024C-541.98-3021.151-542.526-3021.579-542.522-3023.036Z" transform="translate(-15.338 -39.336)" fill="#767879"/>
      <path id="Path_508" data-name="Path 508" d="M-552.425-3020.358a2.678,2.678,0,0,0,1.309-.4.56.56,0,0,0,.24-.615c-.092-.349-.343-.2-.554-.128-.7.239-1.427.393-1.9-.344a2.786,2.786,0,0,1,.192-2.939,1.918,1.918,0,0,1,1.993-1.048,1.92,1.92,0,0,1,.533.165c.281.113.544.188.686-.187.154-.407-.066-.627-.41-.753a2.9,2.9,0,0,0-1.665-.09,3.835,3.835,0,0,0-2.408,5.186A2.178,2.178,0,0,0-552.425-3020.358Z" transform="translate(-9.447 -39.338)" fill="#767879"/>
      <path id="Path_509" data-name="Path 509" d="M-323.319-3030.891c.045-.407.078-.7-.323-.752-.5-.069-.633.263-.716.661q-.589,2.8-1.188,5.609c-.116.547-.254,1.093-.33,1.646-.049.354-.471.863.227,1.021.6.137.65-.369.738-.78q.658-3.079,1.314-6.158C-323.5-3030.1-323.394-3030.553-323.319-3030.891Z" transform="translate(-130.762 -36.751)" fill="#767879"/>
      <path id="Path_510" data-name="Path 510" d="M-435.906-3020.323c-.012.275-.095.585.3.671a.532.532,0,0,0,.714-.464c.157-.732.276-1.476.5-2.189.366-1.181.56-2.544,2.321-2.462.463.022.426-.466.367-.755-.088-.434-.49-.4-.8-.307-.6.175-1.13.8-1.831.11-.182-.179-.47.115-.537.448C-435.208-3023.62-435.561-3021.973-435.906-3020.323Z" transform="translate(-72.477 -39.809)" fill="#767879"/>
      <path id="Path_511" data-name="Path 511" d="M-532.163-3020.512c.515.031.587-.336.671-.719a20,20,0,0,1,.617-2.582c.332-.912.724-1.893,1.995-1.813.484.031.55-.3.544-.622-.012-.6-.485-.47-.826-.418-.588.09-1.085.9-1.795.1-.2-.219-.553.156-.627.53-.317,1.6-.649,3.2-.964,4.8C-532.613-3020.913-532.648-3020.563-532.163-3020.512Z" transform="translate(-21.199 -39.371)" fill="#767879"/>
      <path id="Path_512" data-name="Path 512" d="M-502.7-2933.554c.9-.079,2.2.469,2.365-1.333.053-.6-.057-.757-.594-.754a19.03,19.03,0,0,1-2.512-.02c-1.359-.173-1.318.861-1.55,1.66-.116.4.211.441.5.445C-503.936-2933.549-503.377-2933.554-502.7-2933.554Z" transform="translate(-35.823 -101.818)" fill="#5b5b5b"/>
      <path id="Path_513" data-name="Path 513" d="M-371.874-3024.887c.026-.36.047-.644-.353-.7a.518.518,0,0,0-.641.406c-.381,1.739-.743,3.483-1.1,5.228a.37.37,0,0,0,.364.483c.295.023.566-.053.642-.4C-372.6-3021.566-372.228-3023.261-371.874-3024.887Z" transform="translate(-105.333 -39.965)" fill="#767879"/>
      <path id="Path_514" data-name="Path 514" d="M-495.4-3025.816c.068-.294.089-.583-.309-.634a.546.546,0,0,0-.668.378c-.388,1.73-.755,3.465-1.119,5.2a.37.37,0,0,0,.349.49.58.58,0,0,0,.712-.5Q-495.914-3023.349-495.4-3025.816Z" transform="translate(-39.808 -39.507)" fill="#767879"/>
      <path id="Path_515" data-name="Path 515" d="M-519.289-3076.5c.658-.2.435-.755.436-1.179.009-4.023,0-8.045-.009-12.067-.577-.184-.485.257-.484.551Q-519.326-3082.852-519.289-3076.5Z" transform="translate(-28.219 -5.908)" fill="#5b5b5b"/>
      <path id="Path_516" data-name="Path 516" d="M-342.025-2929.178c-.762.1-1.461.378-1.448,1.227.013.8,1,1.117,1.389,1.041a1.738,1.738,0,0,0,1.381-1.338C-340.661-2928.956-341.411-2929.117-342.025-2929.178Z" transform="translate(-121.518 -105.267)" fill="#a9a9a9"/>
      <path id="Path_517" data-name="Path 517" d="M-463.309-3076.409c-.324.115-.355.381-.355.671q0,2.836,0,5.671a.775.775,0,0,0,.333.714A55.026,55.026,0,0,0-463.309-3076.409Z" transform="translate(-57.76 -13.009)" fill="#5b5b5b"/>
      <path id="Path_518" data-name="Path 518" d="M-370.144-3031.373a.6.6,0,0,0-.53.674c.024.343.208.64.6.617a.617.617,0,0,0,.611-.747C-369.5-3031.2-369.771-3031.365-370.144-3031.373Z" transform="translate(-107.088 -36.899)" fill="#767879"/>
      <path id="Path_519" data-name="Path 519" d="M-493.619-3032.238a.589.589,0,0,0-.611.6.574.574,0,0,0,.538.669.591.591,0,0,0,.685-.664A.589.589,0,0,0-493.619-3032.238Z" transform="translate(-41.546 -36.441)" fill="#767879"/>
      <path id="Path_520" data-name="Path 520" d="M-456.36-2922.292a.823.823,0,0,0,.007-.132c0-.016-.03-.03-.046-.046.02.063.04.126.063.19Z" transform="translate(-61.614 -94.669)" fill="#fdfdfd"/>
    </g>
  </g>
</svg>
