<svg xmlns="http://www.w3.org/2000/svg" width="314" height="108" viewBox="0 0 314 108">
  <g id="buzzsumo" transform="translate(-1271 -905)">
    <rect id="Rectangle_6" data-name="Rectangle 6" width="314" height="108" rx="43" transform="translate(1271 905)" fill="#fff"/>
    <g id="Group_94" data-name="Group 94" transform="translate(5842.297 2693.936)">
      <path id="Path_273" data-name="Path 273" d="M-4511.77-1700.632c2.92,1.146,5.047,2.63,5.942,5.36a8.56,8.56,0,0,1-5.205,10.759,21.327,21.327,0,0,1-6.393,1.46c-3.941.23-7.9.065-11.985.065-.056-.925-.117-1.471-.117-2.017-.006-9.441.025-18.881-.036-28.322-.009-1.431.346-2.063,1.853-2.048,4.392.044,8.791-.14,13.172.074a10.4,10.4,0,0,1,4.545,1.638,6.876,6.876,0,0,1,.006,11.982C-4510.456-1701.387-4510.941-1701.118-4511.77-1700.632Zm-10.587,7.658h.007a29.414,29.414,0,0,0,.049,3.578c.054.441.68,1.165,1.029,1.155a24.193,24.193,0,0,0,5.2-.527,3.962,3.962,0,0,0,3.012-4.088,4,4,0,0,0-2.854-4.013,13.523,13.523,0,0,0-3.31-.654c-3.134-.272-3.138-.237-3.138,2.851Zm0-13.591c0,4.34,0,4.34,4.346,3.717.124-.018.251-.018.375-.04,2.36-.421,3.893-2.016,3.811-3.965-.085-2.026-1.586-3.355-4.1-3.627C-4522.227-1710.948-4522.357-1710.833-4522.357-1706.565Z" transform="translate(0 -32.06)" fill="#6bafdc"/>
      <path id="Path_274" data-name="Path 274" d="M-3730.507-1648.78h-7v-23.181h5.742l.571,2.8c5.583-4.771,10.133-4.624,13.833.418,1.839-1.953,3.816-3.649,6.688-3.784,4.609-.218,8.006,2,8.379,6.554.463,5.663.111,11.393.111,17.2h-6.711c0-3.869.009-7.63-.006-11.391a19.549,19.549,0,0,0-.142-3.012c-.4-2.487-1.69-3.757-3.561-3.652-1.993.112-3.487,1.793-3.529,4.177-.064,3.651-.028,7.3-.033,10.954,0,.931,0,1.862,0,2.911h-7.088c0-4.071.02-8.08-.013-12.089a18.034,18.034,0,0,0-.289-3.18,3.09,3.09,0,0,0-2.741-2.732,3.254,3.254,0,0,0-3.527,2,8.53,8.53,0,0,0-.651,3.272C-3730.549-1657.314-3730.507-1653.11-3730.507-1648.78Z" transform="translate(-639.946 -66.619)" fill="#6bafdc"/>
      <path id="Path_275" data-name="Path 275" d="M-3870.449-1669.326h7.223v23.17h-5.958c-.154-.945-.3-1.853-.5-3.1a8.782,8.782,0,0,1-7.557,3.669c-4.535-.142-7.474-2.379-7.9-6.9-.391-4.184-.276-8.417-.366-12.628-.03-1.368,0-2.737,0-4.2h7.381c0,2.773-.006,5.521,0,8.268.006,1.889-.055,3.784.068,5.666.178,2.712,1.549,4.144,3.724,4.1,2.277-.041,3.867-1.817,3.882-4.432C-3870.43-1660.175-3870.449-1664.643-3870.449-1669.326Z" transform="translate(-520.358 -69.291)" fill="#6bafdc"/>
      <path id="Path_276" data-name="Path 276" d="M-4362.549-1669.478h7.253v23.356c-1.66,0-3.343.073-5.012-.052-.408-.031-.9-.649-1.114-1.108a6.943,6.943,0,0,1-.234-1.928c-.513.451-.88.725-1.189,1.053-2.616,2.775-5.952,2.91-9.269,2.126a6.443,6.443,0,0,1-5-6.214c-.29-5.682-.084-11.389-.084-17.187h6.859c.03.666.083,1.33.084,1.994.01,3.523-.055,7.048.04,10.568a10.787,10.787,0,0,0,.729,3.649c.655,1.634,2.138,2.033,3.769,1.77a3.732,3.732,0,0,0,3.1-3.559c.091-4.076.056-8.156.072-12.234C-4362.546-1667.924-4362.549-1668.6-4362.549-1669.478Z" transform="translate(-123.046 -69.168)" fill="#6bafdc"/>
      <path id="Path_277" data-name="Path 277" d="M-3523.762-1672.812a12,12,0,0,1,11.86,12.315,11.939,11.939,0,0,1-12.3,11.885,11.831,11.831,0,0,1-11.8-12.512A11.869,11.869,0,0,1-3523.762-1672.812Zm6.412,12.341a6.706,6.706,0,0,0-6.394-7.018,6.726,6.726,0,0,0-6.884,6.738,6.69,6.69,0,0,0,6.514,6.924A6.623,6.623,0,0,0-3517.35-1660.471Z" transform="translate(-802.75 -66.471)" fill="#6bafdc"/>
      <path id="Path_278" data-name="Path 278" d="M-4113.125-1651.5h11.066v5.517h-20.161c-.288-2.142-.31-4.059,1.319-5.9,3.24-3.671,6.251-7.543,9.586-11.612h-10.127v-5.6h18.972c.2,2.134.473,4.117-1.252,6.061C-4106.931-1659.425-4109.851-1655.554-4113.125-1651.5Z" transform="translate(-328.995 -69.472)" fill="#6bafdc"/>
      <path id="Path_279" data-name="Path 279" d="M-4231.584-1651.417h11.166v5.479h-20.172c-.3-2.062-.433-3.928,1.185-5.733,3.1-3.462,5.982-7.123,8.948-10.707.22-.266.38-.58.751-1.153h-10.111v-5.531h19c.337,2.408.166,4.47-1.6,6.444C-4225.545-1659.125-4228.378-1655.369-4231.584-1651.417Z" transform="translate(-233.329 -69.505)" fill="#6bafdc"/>
      <path id="Path_280" data-name="Path 280" d="M-3984.562-1670.9l-1.142,4.44c-1.8-.339-3.487-.758-5.2-.948-1.242-.137-2.67.225-2.679,1.678,0,.75,1.016,1.745,1.816,2.211,1.45.844,3.123,1.3,4.631,2.054a6.284,6.284,0,0,1,3.644,6.122,6.374,6.374,0,0,1-4.007,6.1c-4.514,1.926-9.037,1.406-13.769-.155l1.2-5.094c1.549.464,2.95,1,4.4,1.279a8.078,8.078,0,0,0,3.35.047,2.7,2.7,0,0,0,1.708-1.649,2.366,2.366,0,0,0-1.119-1.9c-1.588-.866-3.379-1.355-4.984-2.2-4.012-2.1-5.183-6.089-2.823-9.644a8.278,8.278,0,0,1,2.427-2.307C-3993.872-1672.907-3988.052-1672.9-3984.562-1670.9Z" transform="translate(-426.84 -66.812)" fill="#6bafdc"/>
      <path id="Path_281" data-name="Path 281" d="M-3465.575-1755.064c11.643.47,21.855,10.784,22.216,22.843.053,1.773-.741,2.854-2.174,2.962-1.559.117-2.478-.837-2.633-2.736-.868-10.625-8.667-18.037-19.351-18.394-.439-.015-1.061.108-1.282-.128a5.81,5.81,0,0,1-1.665-2.383,1.787,1.787,0,0,1,1.831-2.15C-3467.759-1755.123-3466.874-1755.064-3465.575-1755.064Z" transform="translate(-855.674)" fill="#6bafdc"/>
      <path id="Path_282" data-name="Path 282" d="M-3452.347-1697.505c.009,1.521-.663,2.623-2.221,2.752-1.578.13-2.365-.872-2.583-2.392-1.044-7.282-4.755-10.764-12.142-11.394-1.556-.133-2.529-.951-2.506-2.489s1.012-2.3,2.587-2.381C-3460.672-1713.863-3452.44-1706.116-3452.347-1697.505Z" transform="translate(-854.63 -33.659)" fill="#6bafdc"/>
      <path id="Path_283" data-name="Path 283" d="M-3482.775-1622.2a2.982,2.982,0,0,1-3.059,2.915,2.914,2.914,0,0,1-2.882-3.05,2.8,2.8,0,0,1,3.012-2.869A2.909,2.909,0,0,1-3482.775-1622.2Z" transform="translate(-840.962 -104.941)" fill="#6bafdc"/>
    </g>
  </g>
</svg>
