<svg xmlns="http://www.w3.org/2000/svg" width="314" height="108" viewBox="0 0 314 108">
  <g id="crazyegg" transform="translate(-1274 -287)">
    <rect id="Rectangle_2" data-name="Rectangle 2" width="314" height="108" rx="43" transform="translate(1274 287)" fill="#fff"/>
    <g id="Crazy-Egg" transform="translate(1215.52 160.838)">
      <path id="Path_13" data-name="Path 13" d="M762.331,160.315c0-11.768-10.707-21.415-15.966-21.415S730.4,148.547,730.4,160.315a26.17,26.17,0,0,0,4.389,14.736,50.5,50.5,0,0,0,3.859,6.149,40.956,40.956,0,0,1,4.559,7.379,3.584,3.584,0,0,0-1.93,1.929c.869.17,1.76.339,2.8.53a14.991,14.991,0,0,0,6.488-.339c-.869.7-3.52,1.06-6.488.869a14.4,14.4,0,0,1-2.99-.36v4.919c0,1.929,1.59,2.46,3.5,2.46H749.5c1.93,0,3.52-.53,3.52-2.46v-4.389a3.519,3.519,0,0,0-2.8-3.329c.7-1.4,1.4-2.82,2.1-4.219l.7-1.4.53-1.06c.36-.7,1.06-2.1,1.76-3.329h0C759.342,174.712,762.331,168.033,762.331,160.315Zm-10.008,21.054-.53,1.06-.7,1.4a34.431,34.431,0,0,0-2.1,4.559h-2.1v-6.509h-1.06v6.488h-1.93a51.883,51.883,0,0,0-4.559-7.718c-.53-.7-.869-1.23-1.4-1.929a13.514,13.514,0,0,0,8.418,3.159,12.132,12.132,0,0,0,6.849-2.1,7.06,7.06,0,0,0-.891,1.59Zm-.17-1.739a28.908,28.908,0,0,0,6.488-13.167,11.425,11.425,0,0,1-8.778,3.859c-5.788,0-10.538-3.689-10.538-8.248s4.728-8.248,10.538-8.248a11.312,11.312,0,0,1,8.778,3.689c-2.99-12.637-16.856-15.8-16.856-15.8a5.609,5.609,0,0,1,2.8-1.569,4.256,4.256,0,0,1,3.329,0c1.23.339,13.337,7.018,13.337,20.015A26.13,26.13,0,0,1,752.154,179.631Z" transform="translate(-468.371)" fill="#8abc00"/>
      <path id="Path_14" data-name="Path 14" d="M144.778,408.8c2.29,0,6.149.7,6.149,3.329a2.231,2.231,0,0,1-2.1,2.46c-1.23,0-1.76-.869-3.689-.869-2.629,0-3.859,1.929-3.859,4.389s1.23,4.389,3.52,4.389,3.329-.869,4.029-.869a2.286,2.286,0,0,1,2.1,2.29c0,2.629-4.029,3.5-6.149,3.5A8.928,8.928,0,0,1,136,418.108C136,412.829,139.52,408.8,144.778,408.8Z" transform="translate(0 -212.674)" fill="#404040"/>
      <path id="Path_15" data-name="Path 15" d="M211.221,411.867a2.584,2.584,0,0,1,2.544-2.629h.085a2.892,2.892,0,0,1,2.629,1.59A4.719,4.719,0,0,1,220,408.9a2.58,2.58,0,0,1,2.629,2.523v.106c0,1.76-1.4,2.29-3.159,2.8-2.29.7-2.99,1.23-2.99,3.859V424.5a2.641,2.641,0,0,1-5.28.148V424.5l.021-12.637Z" transform="translate(-59.255 -212.751)" fill="#404040"/>
      <path id="Path_16" data-name="Path 16" d="M280.865,423.448a2.584,2.584,0,0,1-2.544,2.629h-.085a2.839,2.839,0,0,1-2.46-1.59,5.2,5.2,0,0,1-4.389,1.929c-4.559,0-7.887-4.029-7.887-9.308,0-5.089,3.52-9.308,7.887-9.308a5,5,0,0,1,4.389,1.929,2.879,2.879,0,0,1,2.46-1.59,2.584,2.584,0,0,1,2.629,2.544v12.764Zm-12.3-6.149c0,2.459,1.23,4.389,3.52,4.389s3.5-1.93,3.5-4.389c0-2.29-1.23-4.389-3.5-4.389s-3.5,1.951-3.52,4.389Z" transform="translate(-100.466 -211.886)" fill="#404040"/>
      <path id="Path_17" data-name="Path 17" d="M357.588,416.58h-4.559c-1.59,0-2.629-.7-2.629-2.29s1.06-2.29,2.629-2.29h10.008a2.17,2.17,0,0,1,1.929.7,1.684,1.684,0,0,1,.53,1.23,1.79,1.79,0,0,1-.7,1.4l-7.018,9.478h5.449c1.59,0,2.629.7,2.629,2.46a2.353,2.353,0,0,1-2.629,2.46H352.86a4.222,4.222,0,0,1-1.76-.36,1.412,1.412,0,0,1-.7-1.4,2.738,2.738,0,0,1,.869-1.929Z" transform="translate(-168.941 -215.195)" fill="#404040"/>
      <path id="Path_18" data-name="Path 18" d="M427.845,426.466l-4.389-10.347a15.608,15.608,0,0,1-1.06-3.159,2.408,2.408,0,0,1,2.332-2.46h.127a2.783,2.783,0,0,1,2.629,1.929l2.99,7.887,2.8-7.018c.7-1.59,1.4-2.8,2.8-2.8a2.482,2.482,0,0,1,2.629,2.629,5.6,5.6,0,0,1-.7,2.29l-7.379,17.556c-.53,1.4-1.06,2.46-2.8,2.46a2.364,2.364,0,0,1-2.46-2.247v-.042a8.528,8.528,0,0,1,.869-2.8Z" transform="translate(-225.671 -214.013)" fill="#404040"/>
      <path id="Path_19" data-name="Path 19" d="M508.949,419.6c0,1.06.869,2.8,4.219,2.8,2.629,0,4.029-1.59,5.258-1.59a2.07,2.07,0,0,1,2.1,2.29c0,2.46-4.219,4.219-8.078,4.219-5.619,0-8.948-4.029-8.948-9.308a9.068,9.068,0,0,1,8.948-9.308,8.5,8.5,0,0,1,8.418,8.778c0,1.76-.869,2.29-2.46,2.29l-9.456-.17Zm6.679-3.52a3.333,3.333,0,0,0-6.658,0Z" transform="translate(-289.58 -212.595)" fill="#404040"/>
      <path id="Path_20" data-name="Path 20" d="M606.435,424.5c0,6.488-4.219,8.948-9.308,8.948-2.629,0-7.718-1.06-7.718-3.859a2.31,2.31,0,0,1,2.1-2.29c1.59,0,2.46,1.59,5.449,1.59,3.159,0,4.389-1.76,4.389-4.559h-.17c-1.06,1.59-2.99,1.93-4.728,1.93-4.919,0-7.548-4.389-7.548-8.948,0-5.089,3.52-9.308,7.887-9.308a5,5,0,0,1,4.389,1.929,2.879,2.879,0,0,1,2.46-1.59,2.58,2.58,0,0,1,2.629,2.523v.106C606.435,411.159,606.435,424.5,606.435,424.5Zm-8.778-11.407c-2.29,0-3.5,1.929-3.5,4.389s1.23,4.389,3.5,4.389,3.52-1.929,3.52-4.389S599.926,413.089,597.657,413.089Z" transform="translate(-356.873 -212.043)" fill="#404040"/>
      <path id="Path_21" data-name="Path 21" d="M695.835,424.5c0,6.488-4.219,8.948-9.308,8.948-2.629,0-7.718-1.06-7.718-3.859a2.31,2.31,0,0,1,2.1-2.29c1.59,0,2.459,1.59,5.449,1.59,3.159,0,4.389-1.76,4.389-4.559h-.17c-1.06,1.59-2.99,1.93-4.728,1.93-4.919,0-7.548-4.389-7.548-8.948,0-5.089,3.52-9.308,7.888-9.308a5,5,0,0,1,4.389,1.929,2.879,2.879,0,0,1,2.46-1.59,2.58,2.58,0,0,1,2.629,2.523v.106C695.835,411.159,695.835,424.5,695.835,424.5Zm-8.778-11.407c-2.29,0-3.5,1.929-3.5,4.389s1.23,4.389,3.5,4.389,3.52-1.929,3.52-4.389-1.251-4.389-3.52-4.389Z" transform="translate(-427.317 -212.043)" fill="#404040"/>
      <path id="Path_22" data-name="Path 22" d="M803.038,227.02c-.869,0-1.76-.53-2.99-.53-2.1,0-3.159,1.23-3.159,2.629,0,1.23,1.06,2.46,3.159,2.46.869,0,2.29-.53,2.8-.53.869,0,1.59.53,1.59,1.06,0,1.23-3.159,1.76-4.559,1.76-4.029,0-6.679-2.29-6.679-4.749s2.8-4.919,6.679-4.919c1.59,0,4.559.36,4.559,1.59C804.628,226.3,803.929,227.02,803.038,227.02Z" transform="translate(-517.855 -67.214)" fill="#8abc00"/>
    </g>
  </g>
</svg>
