<svg xmlns="http://www.w3.org/2000/svg" width="314" height="108" viewBox="0 0 314 108">
  <g id="facebook" transform="translate(-2392 -608)">
    <rect id="Rectangle_22" data-name="Rectangle 22" width="314" height="108" rx="43" transform="translate(2392 608)" fill="#fff"/>
    <g id="facebook-3-3" transform="translate(2381.555 618.719)">
      <circle id="Ellipse_1" data-name="Ellipse 1" cx="41.5" cy="41.5" r="41.5" transform="translate(126.445 2.281)" fill="#3c5a9a"/>
      <path id="Path_466" data-name="Path 466" d="M351.928,92.677h-9.193c-5.456,0-11.524,2.295-11.524,10.2.027,2.755,0,5.394,0,8.364H324.9v10.043h6.507V150.2h11.956V121.1h7.892l.714-9.881h-8.812s.02-4.4,0-5.672c0-3.125,3.252-2.946,3.447-2.946,1.547,0,4.556,0,5.328,0V92.677Z" transform="translate(-170.489 -77.658)" fill="#fff"/>
    </g>
  </g>
</svg>
