<svg xmlns="http://www.w3.org/2000/svg" xmlns:xlink="http://www.w3.org/1999/xlink" width="314" height="108" viewBox="0 0 314 108">
  <defs>
    <clipPath id="clip-path">
      <path id="Path_32" data-name="Path 32" d="M50.844,0H25.422L0,76.266H18.59a9.355,9.355,0,0,0,6.832-2.939,9.578,9.578,0,0,0,2.145-3.416L38.133,38.133,48.7,69.91a9.686,9.686,0,0,0,8.977,6.355h18.59Z"/>
    </clipPath>
    <linearGradient id="linear-gradient" x1="-46.379" y1="-4.112" x2="-45.207" y2="-3.921" gradientUnits="objectBoundingBox">
      <stop offset="0" stop-color="#263238" stop-opacity="0.2"/>
      <stop offset="1" stop-color="#263238" stop-opacity="0"/>
    </linearGradient>
    <radialGradient id="radial-gradient" cx="0.332" cy="0" r="1.2" gradientUnits="objectBoundingBox">
      <stop offset="0" stop-color="#fff"/>
      <stop offset="1" stop-color="#fff" stop-opacity="0"/>
    </radialGradient>
  </defs>
  <g id="gogglw-ads" transform="translate(-2027 -287)">
    <rect id="Rectangle_14" data-name="Rectangle 14" width="314" height="108" rx="43" transform="translate(2027 287)" fill="#fff"/>
    <g id="google-adwords-1" transform="translate(2144.051 305.996)">
      <g id="Group_2" data-name="Group 2" clip-path="url(#clip-path)">
        <path id="Path_31" data-name="Path 31" d="M57.422,0,82.844,76.266H64.254a9.355,9.355,0,0,1-6.832-2.939,9.578,9.578,0,0,1-2.145-3.416L32,0Z" transform="translate(-6.578)" fill="#0f9d58"/>
      </g>
      <g id="Group_3" data-name="Group 3" clip-path="url(#clip-path)">
        <path id="Path_33" data-name="Path 33" d="M60.711,0,48,38.133,86.133,76.266Z" transform="translate(-9.867)" fill="url(#linear-gradient)"/>
      </g>
      <g id="Group_4" data-name="Group 4" clip-path="url(#clip-path)">
        <path id="Path_35" data-name="Path 35" d="M0,96H0Z" transform="translate(0 -19.734)" fill="rgba(255,255,255,0.24)"/>
        <path id="Path_36" data-name="Path 36" d="M0,95.9ZM.556,95.9ZM0,95.9l.159-.4Z" transform="translate(0 -19.631)" fill="#263238" opacity="0.2"/>
        <path id="Path_37" data-name="Path 37" d="M40.079,55.6,40,55.759" transform="translate(-8.223 -11.429)" fill="none"/>
      </g>
      <g id="Group_6" data-name="Group 6">
        <g id="Group_5" data-name="Group 5" clip-path="url(#clip-path)">
          <path id="Path_39" data-name="Path 39" d="M25.422,0,0,76.266H18.59a9.355,9.355,0,0,0,6.832-2.939,9.578,9.578,0,0,0,2.145-3.416L50.844,0Z" fill="#4285f5"/>
        </g>
      </g>
      <g id="Group_8" data-name="Group 8">
        <g id="Group_7" data-name="Group 7" clip-path="url(#clip-path)">
          <path id="Path_41" data-name="Path 41" d="M50.606.4l.238-.4H25.422L0,76.266l.238-.4L25.422.4Z" fill="rgba(255,255,255,0.2)"/>
        </g>
      </g>
      <g id="Group_10" data-name="Group 10">
        <g id="Group_9" data-name="Group 9" clip-path="url(#clip-path)">
          <path id="Path_43" data-name="Path 43" d="M27.567,69.513h0a9.686,9.686,0,0,1-8.977,6.355H.238l-.238.4H18.59a9.355,9.355,0,0,0,6.832-2.939,9.578,9.578,0,0,0,2.145-3.416L50.844,0l-.238.4Z" fill="rgba(38,50,56,0.2)"/>
        </g>
      </g>
      <g id="Group_12" data-name="Group 12">
        <g id="Group_11" data-name="Group 11" clip-path="url(#clip-path)">
          <path id="Path_45" data-name="Path 45" d="M27.567,69.99a9.686,9.686,0,0,1-8.977,6.355L.159,76.266l-.159.4H18.59a9.355,9.355,0,0,0,6.832-2.939,9.578,9.578,0,0,0,2.145-3.416L50.923.159,50.844,0Z" fill="rgba(38,50,56,0.1)"/>
        </g>
      </g>
      <g id="Group_14" data-name="Group 14">
        <g id="Group_13" data-name="Group 13" clip-path="url(#clip-path)">
          <path id="Path_47" data-name="Path 47" d="M88.687,75.869,63.424,0V.4L88.608,75.869H70.177a9.355,9.355,0,0,1-6.832-2.939A9.578,9.578,0,0,1,61.2,69.513l.159.4a9.686,9.686,0,0,0,8.977,6.355h18.51Z" transform="translate(-12.581)" fill="rgba(38,50,56,0.2)"/>
        </g>
      </g>
      <g id="Group_16" data-name="Group 16">
        <g id="Group_15" data-name="Group 15" opacity="0.1">
          <path id="Path_49" data-name="Path 49" d="M50.844,0H25.422L0,76.266H18.59a9.355,9.355,0,0,0,6.832-2.939,9.578,9.578,0,0,0,2.145-3.416L38.133,38.133,48.7,69.91a9.686,9.686,0,0,0,8.977,6.355h18.59Z" fill="url(#radial-gradient)"/>
        </g>
      </g>
      <path id="Path_50" data-name="Path 50" d="M0,0H76.266V76.266H0Z" fill="none"/>
    </g>
  </g>
</svg>
