<svg xmlns="http://www.w3.org/2000/svg" width="314" height="108" viewBox="0 0 314 108">
  <g id="goggle_analytics" data-name="goggle analytics" transform="translate(-2028 -128)">
    <rect id="Rectangle_13" data-name="Rectangle 13" width="314" height="108" rx="43" transform="translate(2028 128)" fill="#fff"/>
    <g id="google-analytics" transform="translate(1752.925 27.151)">
      <path id="Path_1" data-name="Path 1" d="M435.879,330.01a1.754,1.754,0,0,1-.389.216,2.922,2.922,0,0,1-1.168.216,2.644,2.644,0,0,1-1.6-.476,3.09,3.09,0,0,1-1.211-2.553,2.723,2.723,0,0,1,2.769-2.769,2.607,2.607,0,0,1,1.255.346,1.727,1.727,0,0,1,.822,1.211l-2.812,1.125-.909.087a2.7,2.7,0,0,0,2.466,2.423,3.09,3.09,0,0,0,1.471-.433l-.692.606Zm-1.168-3.547c.216-.087.346-.173.346-.346a1.223,1.223,0,0,0-1.211-1.038,1.5,1.5,0,0,0-1.384,1.687c0,.216.043.433.043.649l2.206-.952Zm-3.548,3.851.433-.26a2.856,2.856,0,0,0-.606-.043c-.389-.043-.476-.13-.476-.562v-2.769a36.322,36.322,0,0,1,.129-4.11c.043-.433.173-.476.563-.692h-1.731l-.909.433h.952c0,.562-.043,1.341-.087,1.946-.043,1.255-.043,2.6-.043,3.5v1.946c0,.26-.043.26-.346.649h2.12v-.043Zm-3.937-5.019a2.034,2.034,0,0,1,.865,1.644,2.014,2.014,0,0,1-1,1.687.877.877,0,0,0-.346.606.711.711,0,0,0,.3.519l.433.346a2.1,2.1,0,0,1,1,1.687c0,1.125-1.082,2.293-3.158,2.293-1.731,0-2.6-.822-2.6-1.73a1.766,1.766,0,0,1,.909-1.471,5.063,5.063,0,0,1,2.293-.562,1.206,1.206,0,0,1-.346-.822.775.775,0,0,1,.13-.476c-.13,0-.26.043-.39.043a1.912,1.912,0,0,1-1.99-1.9,2.114,2.114,0,0,1,.779-1.6,3.319,3.319,0,0,1,2.163-.649h2.466l-.779.433h-.736v-.044Zm-.865,5.321h-.26a6.274,6.274,0,0,0-1.255.174,1.359,1.359,0,0,0-1.038,1.255c0,.866.822,1.471,2.12,1.471,1.168,0,1.774-.562,1.774-1.3C427.7,331.611,427.312,331.264,426.361,330.616Zm.389-2.293a1.243,1.243,0,0,0,.3-.865c0-.865-.519-2.206-1.514-2.206a1.145,1.145,0,0,0-.822.39,1.327,1.327,0,0,0-.26.909c0,.822.476,2.12,1.514,2.12a1.164,1.164,0,0,0,.779-.347Zm-6.966,2.12a2.842,2.842,0,0,1-2.942-2.855,3.014,3.014,0,0,1,3.115-2.942,2.8,2.8,0,0,1,2.855,2.855A2.933,2.933,0,0,1,419.785,330.442Zm1.514-.952a2.091,2.091,0,0,0,.346-1.341c0-1.038-.519-3.071-1.99-3.071a1.938,1.938,0,0,0-1.082.389,1.826,1.826,0,0,0-.562,1.471c0,1.211.606,3.158,2.033,3.158A1.6,1.6,0,0,0,421.3,329.491Zm-7.917.952a2.842,2.842,0,0,1-2.942-2.855,3.014,3.014,0,0,1,3.115-2.942,2.8,2.8,0,0,1,2.855,2.855A2.906,2.906,0,0,1,413.382,330.442Zm1.514-.952a2.089,2.089,0,0,0,.346-1.341c0-1.038-.519-3.071-1.99-3.071a1.935,1.935,0,0,0-1.082.389,1.825,1.825,0,0,0-.562,1.471c0,1.211.606,3.158,2.033,3.158A1.6,1.6,0,0,0,414.9,329.491Zm-5.235.519v-1.384a2.46,2.46,0,0,1,.043-.562c.043-.087.043-.13.13-.173l.3-.3h-2.38l-.909.476,1.687-.087v1.817a3.345,3.345,0,0,1-1.428.3,3.968,3.968,0,0,1-3.98-4.11,3.106,3.106,0,0,1,3.115-3.331,3.18,3.18,0,0,1,2.423,1.081l-.3.433.389-.087.952-.908a4.182,4.182,0,0,0-1.471-.692,7.29,7.29,0,0,0-1.731-.216,4.262,4.262,0,0,0-4.542,4.2,3.992,3.992,0,0,0,4.283,4.067,14.153,14.153,0,0,0,1.86-.173l1.559-.347Zm29.289.044,2.12-5.495h.779l2.25,5.495h-.822l-.649-1.687h-2.293l-.606,1.687Zm1.6-2.293h1.86l-.562-1.514q-.2-.56-.389-1.125a9.354,9.354,0,0,1-.3,1.038l-.606,1.6Zm4.067,2.293v-3.98h.606v.562a1.466,1.466,0,0,1,1.255-.649,1.44,1.44,0,0,1,.649.13.905.905,0,0,1,.433.346,1.439,1.439,0,0,1,.216.519,2.494,2.494,0,0,1,.043.649V330.1h-.692v-2.422a1.993,1.993,0,0,0-.087-.606.675.675,0,0,0-.26-.346.874.874,0,0,0-.476-.13,1.093,1.093,0,0,0-.736.26,1.3,1.3,0,0,0-.3,1.038v2.163h-.65Zm6.879-.519a2.184,2.184,0,0,1-.736.433,2.014,2.014,0,0,1-.736.13,1.373,1.373,0,0,1-.995-.3,1.108,1.108,0,0,1-.346-.822.922.922,0,0,1,.13-.519,1.025,1.025,0,0,1,.346-.389,1.6,1.6,0,0,1,.476-.216,2.018,2.018,0,0,1,.606-.087,9.238,9.238,0,0,0,1.211-.216v-.173c0-.26-.043-.475-.173-.562a1.05,1.05,0,0,0-.779-.216.9.9,0,0,0-1.038.779l-.649-.087a1.465,1.465,0,0,1,.3-.692,1.229,1.229,0,0,1,.606-.389,2.866,2.866,0,0,1,.909-.13,2.173,2.173,0,0,1,.822.13,1.007,1.007,0,0,1,.476.3,1.221,1.221,0,0,1,.216.476,2.144,2.144,0,0,1,.043.606v.908a7.447,7.447,0,0,0,.043,1.211,1.554,1.554,0,0,0,.173.476h-.692a2.852,2.852,0,0,1-.216-.65Zm-.043-1.514a7.373,7.373,0,0,1-1.125.26,4.6,4.6,0,0,0-.606.13.445.445,0,0,0-.26.216.8.8,0,0,0-.087.3.534.534,0,0,0,.216.433.847.847,0,0,0,.606.173,1.268,1.268,0,0,0,.692-.173.924.924,0,0,0,.433-.476,1.515,1.515,0,0,0,.13-.692v-.174h0Zm1.73,2.034v-5.495h.693v5.495Zm1.688,1.514-.087-.649a1.208,1.208,0,0,0,.389.043.811.811,0,0,0,.346-.087.523.523,0,0,0,.216-.216,2.253,2.253,0,0,0,.216-.519c0-.044.043-.087.043-.173l-1.514-3.98h.736l.822,2.293c.087.3.216.606.3.909l.26-.909.865-2.336h.692l-1.514,4.067q-.26.649-.389.909a1.178,1.178,0,0,1-.433.476,1.227,1.227,0,0,1-.562.173A.324.324,0,0,1,454.871,331.567Zm5.365-2.12.087.606a2.105,2.105,0,0,1-.519.043.98.98,0,0,1-.562-.13,1.028,1.028,0,0,1-.3-.3,2.709,2.709,0,0,1-.087-.779v-2.293h-.476v-.519h.476v-.995l.692-.389v1.384h.692v.519h-.692v2.336a.959.959,0,0,0,.043.389c.043.043.043.087.129.13a.323.323,0,0,0,.216.044c.043-.043.173-.043.3-.043Zm.649-4.153v-.779h.692v.779Zm0,4.759v-3.98h.692v3.98Zm4.326-1.471.649.087a1.754,1.754,0,0,1-.563,1.082,1.616,1.616,0,0,1-1.124.389,1.633,1.633,0,0,1-1.3-.52,2.073,2.073,0,0,1-.519-1.514,2.908,2.908,0,0,1,.216-1.125,1.532,1.532,0,0,1,.649-.736,1.852,1.852,0,0,1,.952-.26,1.794,1.794,0,0,1,1.082.346,1.569,1.569,0,0,1,.519.952l-.649.087a.945.945,0,0,0-.346-.606.911.911,0,0,0-.562-.216,1.109,1.109,0,0,0-.822.346,2.406,2.406,0,0,0,0,2.336.969.969,0,0,0,.822.346.879.879,0,0,0,.649-.26,1.177,1.177,0,0,0,.345-.735Zm.952.26.649-.087a.908.908,0,0,0,.3.606,1.238,1.238,0,0,0,.736.216,1.022,1.022,0,0,0,.692-.173.6.6,0,0,0,.216-.433.385.385,0,0,0-.216-.346,3.236,3.236,0,0,0-.692-.216,4.72,4.72,0,0,1-1.038-.346.954.954,0,0,1-.433-.389,1.151,1.151,0,0,1-.13-.519.872.872,0,0,1,.13-.476.987.987,0,0,1,.346-.389,2,2,0,0,1,.433-.216,2.572,2.572,0,0,1,.606-.087,2.349,2.349,0,0,1,.822.129,1.214,1.214,0,0,1,.519.346,1.258,1.258,0,0,1,.216.606l-.649.087a.76.76,0,0,0-.866-.649.9.9,0,0,0-.649.173.441.441,0,0,0-.216.345.328.328,0,0,0,.087.216.4.4,0,0,0,.26.173,4.029,4.029,0,0,0,.606.173,7.422,7.422,0,0,1,.995.3,1.186,1.186,0,0,1,.433.346,1.226,1.226,0,0,1,.173.563,1.293,1.293,0,0,1-.216.649,1.23,1.23,0,0,1-.562.475,1.752,1.752,0,0,1-.822.173,1.793,1.793,0,0,1-1.168-.3,1.42,1.42,0,0,1-.564-.951Z" transform="translate(-5.088 -130.293)" fill="#f05620"/>
      <path id="Path_2" data-name="Path 2" d="M467.489,178.906A6.509,6.509,0,0,1,461,185.4H400.475a6.509,6.509,0,0,1-6.49-6.49V118.339a6.509,6.509,0,0,1,6.49-6.49H461a6.509,6.509,0,0,1,6.49,6.49Z" transform="translate(-0.141 0)" fill="#f6981c"/>
      <path id="Path_3" data-name="Path 3" d="M467.348,149.728l-6.619-4.456a7.96,7.96,0,0,0,.216-1.774,7.831,7.831,0,1,0-14.19,4.542l-14.363,21.934a8.661,8.661,0,0,0-1.817-.216,7.837,7.837,0,0,0-5.062,1.86l-9.6-5.538A8.493,8.493,0,0,0,416,165a7.83,7.83,0,1,0-15.055,3.029l-7.182,6.663v7.095l10.643-9.907a7.743,7.743,0,0,0,9.042-1.168l9.388,5.408a8.44,8.44,0,0,0-.13,1.471,7.83,7.83,0,0,0,15.661,0,7.555,7.555,0,0,0-1.644-4.758l14.32-21.848a8.019,8.019,0,0,0,2.077.3,7.766,7.766,0,0,0,4.8-1.644l9.431,6.36v-6.273Z" transform="translate(0 -14.776)" fill="#fff"/>
      <path id="Path_4" data-name="Path 4" d="M458.128,172.477a7.77,7.77,0,0,1-4.8,1.644,6.519,6.519,0,0,1-2.077-.3l-14.233,21.8a7.648,7.648,0,0,1,1.644,4.76,7.831,7.831,0,0,1-15.661,0,8.054,8.054,0,0,1,.13-1.471l-9.345-5.408a7.745,7.745,0,0,1-9.043,1.169L394.1,204.578v11.9a6.508,6.508,0,0,0,6.49,6.49h60.525a6.509,6.509,0,0,0,6.49-6.49V178.793l-9.475-6.316Z" transform="translate(-0.212 -37.611)" fill="#f05620"/>
    </g>
  </g>
</svg>
