<svg xmlns="http://www.w3.org/2000/svg" width="314" height="108" viewBox="0 0 314 108">
  <g id="google-analytics-professional" transform="translate(-2025 -462)">
    <rect id="Rectangle_15" data-name="Rectangle 15" width="314" height="108" rx="43" transform="translate(2025 462)" fill="#fff"/>
    <g id="Group_96" data-name="Group 96" transform="translate(6742.196 4083.492)">
      <path id="Path_327" data-name="Path 327" d="M-4631.463-3570.256l-.213.192a4.95,4.95,0,0,0-2,2.016l-.207.19c-.6-.041-.41-.5-.41-.825q-.007-15.954,0-31.908c0-.488.024-.976.037-1.465q9.829-.008,19.658-.016,16.536,0,33.071,0c.363,1.247.057,2.525.172,3.782a2.965,2.965,0,0,1-.909,2.846,13.963,13.963,0,0,0-1.833,1.845,2.375,2.375,0,0,0-.37.254q-4.965,4.983-9.922,9.975c-.169.171-.373.324-.375.6l-6.234,6.265a.891.891,0,0,0-.54.548l-.744.746a.6.6,0,0,0-.429.465l-.014.014a.48.48,0,0,0-.362.374l-.167.168a.549.549,0,0,0-.4.372l-3.983,4.077c-.386.092-.6-.237-.891-.37l-4.939-4.977c-.321-.539-.882-.84-1.282-1.3l-.369-.343a2.494,2.494,0,0,0-.741-.917c-1.184-1.2-2.409-2.353-3.558-3.58-.547-.584-.891-.5-1.41.025-2.943,2.989-5.917,5.947-8.875,8.921-.208.209-.5.377-.481.74l-.214.192A1.552,1.552,0,0,0-4631.463-3570.256Z" transform="translate(-1.532 -0.342)" fill="#f8ae43"/>
      <path id="Path_328" data-name="Path 328" d="M-4632.616-3481.439l9.22-9.28a2.235,2.235,0,0,0,1.258-1.321l0-.005c.344.055.468-.314.745-.388a1.341,1.341,0,0,1,.8.391c1.095,1.054,2.183,2.117,3.325,3.119a10.032,10.032,0,0,0,2.1,1.708c.177.475.346.957.927,1.088a.817.817,0,0,0,.466.411,1.683,1.683,0,0,0,.995.89,10.269,10.269,0,0,0,1.779,1.667c.25.258.236.8.788.733l.654.587c.656.622.812-.018,1.062-.421l0,0a.37.37,0,0,0,.368-.375l0,0a.39.39,0,0,0,.39-.37,1.314,1.314,0,0,0,.524-.541.388.388,0,0,0,.379-.376l0,0a1.471,1.471,0,0,0,.921-.922l0,0a.367.367,0,0,0,.374-.369l-.037-.03.034.033a.661.661,0,0,0,.558-.549l-.039-.039.036.041a.382.382,0,0,0,.363-.378l0,0a.374.374,0,0,0,.378-.363l-.044-.025.042.029a4.254,4.254,0,0,0,1.837-1.841l-.042-.034.041.036a.374.374,0,0,0,.365-.376l0,0a.374.374,0,0,0,.375-.366l-.041-.035.038.037a.663.663,0,0,0,.547-.559l0,0a.369.369,0,0,0,.37-.372l0,0a1.564,1.564,0,0,0,.938-.923.464.464,0,0,0,.348-.348,1.544,1.544,0,0,0,.923-.937l0,0a.37.37,0,0,0,.375-.368l-.037-.03.034.033a.661.661,0,0,0,.558-.549l-.038-.039.035.042c.236-.019.334-.173.375-.382a.462.462,0,0,0,.356-.337c.7-.005.9-.683,1.248-1.064.633-.69,1.584-1.107,1.9-2.082.251-.057.33-.293.476-.459a1.317,1.317,0,0,0,.8-.832.469.469,0,0,0,.349-.347,1.626,1.626,0,0,0,.937-.94.464.464,0,0,0,.357-.335,1.451,1.451,0,0,0,.834-.812l.214-.218a2.636,2.636,0,0,0,1.073-1.068l.213-.219a2.317,2.317,0,0,0,.995-.984l.008-.008a1.287,1.287,0,0,0,.684-.422c.782-.933,1.748-1.695,2.54-2.6.533-.61,1.39-.953,1.611-1.832a.171.171,0,0,0,.085-.124c.456-.16.673-.157.672.485q-.034,17.637-.014,35.274a.145.145,0,0,0-.125.059c-.122-.008-.243-.021-.365-.021q-25.693,0-51.386,0c-.336,0-.672.019-1.008.03a38.473,38.473,0,0,1-.044-6.56c.03-.608.758-.912,1.116-1.4A2.74,2.74,0,0,0-4632.616-3481.439Z" transform="translate(-0.99 -76.929)" fill="#ef5a29"/>
      <path id="Path_329" data-name="Path 329" d="M-3983.415-3555.756h3.213c.214,0,.471-.038.572.191.128.289-.187.341-.337.454a2.835,2.835,0,0,1-2.093.723c-.17-.021-.389-.048-.463.183-.062.192.131.243.229.348a4.763,4.763,0,0,1-.4,7.311,6.181,6.181,0,0,0-1.35,1.353,1.041,1.041,0,0,0,.146,1.476c.628.578,1.237,1.186,1.917,1.7,3.481,2.624,2.557,7.033-1.118,8.853a9.818,9.818,0,0,1-8.408.466,4.745,4.745,0,0,1-3.077-3.36,3.6,3.6,0,0,1,.974-3.12,6.7,6.7,0,0,1,3.969-2.255,9.59,9.59,0,0,1,2.524-.383c.4.025.622-.127.3-.532a2.374,2.374,0,0,1-.508-1.885c.076-.522-.236-.583-.661-.615a5.053,5.053,0,0,1-4.721-3.294c-1.067-2.65.531-5.464,2.841-6.689,1.892-1,3.941-.95,5.99-.917.153,0,.306,0,.459,0Zm-3.2,22.2a4.654,4.654,0,0,0,3.99-1.439,2.623,2.623,0,0,0,.4-2.932,5.033,5.033,0,0,0-3.557-2.9,6.481,6.481,0,0,0-4.774,1.2,3.017,3.017,0,0,0-.784,3.842C-3990.261-3534.008-3988.513-3533.615-3986.618-3533.552Zm2.931-15.556a6.333,6.333,0,0,0-2.163-4.9,2.691,2.691,0,0,0-4.127,1.219c-.659,1.923-.039,3.6.865,5.228a2.9,2.9,0,0,0,3.372,1.541C-3984.379-3546.385-3983.691-3547.373-3983.688-3549.108Z" transform="translate(-523.658 -38.142)" fill="#9f9f9f"/>
      <path id="Path_330" data-name="Path 330" d="M-4263.863-3577.54q1.195,0,2.388,0c.219,0,.456-.01.553.228s-.084.412-.258.532a1.51,1.51,0,0,0-.563,1.458c.025,1.071-.032,2.145.021,3.214.033.66-.242.9-.84,1.062a32.526,32.526,0,0,1-7.924,1.283c-3.83.056-7.143-1.184-9.306-4.473a10.384,10.384,0,0,1-1.6-8.263,10.49,10.49,0,0,1,5.922-7.543,13.86,13.86,0,0,1,9.038-.761,12.531,12.531,0,0,1,3.92,1.486c.617.367.79.7.17,1.239-.555.479-1.072,1-1.583,1.532a.859.859,0,0,1-1,.259c-.489-.239.009-.5.093-.732.136-.378-.1-.575-.32-.785a7.448,7.448,0,0,0-6.029-2.092,7.192,7.192,0,0,0-6.863,5.719,10.74,10.74,0,0,0,.46,6.842,9.432,9.432,0,0,0,5.526,5.522,9.474,9.474,0,0,0,6.719.17c.389-.137.4-.4.415-.714.04-1.13-.067-2.261.079-3.392.079-.61-.421-.622-.813-.531-.81.19-1.65.032-2.455.276-.22.067-.6.162-.668-.249-.056-.337.239-.4.479-.556C-4266.917-3577.707-4265.381-3577.541-4263.863-3577.54Z" transform="translate(-289.394 -9.21)" fill="#9f9f9f"/>
      <path id="Path_331" data-name="Path 331" d="M-4155.872-3557.794c4.092-.252,7.466,3.5,7.422,7.318a7.688,7.688,0,0,1-7.805,7.632,7.407,7.407,0,0,1-7.576-7.456A7.7,7.7,0,0,1-4155.872-3557.794Zm4.177,8.8a9.275,9.275,0,0,0-2.333-6.652,3.952,3.952,0,0,0-6.454,1.829,10.262,10.262,0,0,0,1.492,7.865,3.82,3.82,0,0,0,3.771,2,3.891,3.891,0,0,0,3.3-2.7A7.394,7.394,0,0,0-4151.7-3549Z" transform="translate(-385.572 -36.475)" fill="#9f9f9f"/>
      <path id="Path_332" data-name="Path 332" d="M-4060.237-3550.625a7.531,7.531,0,0,1-7.648,7.637,7.387,7.387,0,0,1-7.68-7.454c.012-4.107,3.468-7.458,8.037-7.525C-4063.785-3558.022-4059.982-3554.512-4060.237-3550.625Zm-12.14-1.4a9.861,9.861,0,0,0,1.64,5.912,3.807,3.807,0,0,0,3.818,2.015,3.716,3.716,0,0,0,3.331-3.065,9.57,9.57,0,0,0-1.7-8.041,3.832,3.832,0,0,0-6.478.226A4.54,4.54,0,0,0-4072.376-3552.025Z" transform="translate(-457.62 -36.343)" fill="#9f9f9f"/>
      <path id="Path_333" data-name="Path 333" d="M-3861.463-3545.456a5.44,5.44,0,0,1-3.259,2.323c-2.286.507-4.553.443-6.509-1.161a8.058,8.058,0,0,1-2.84-5.255,7.167,7.167,0,0,1,7.881-8.3,5.505,5.505,0,0,1,4.429,3.512c.148.49-.19.68-.527.819-1.806.741-3.642,1.413-5.422,2.209a12.4,12.4,0,0,1-2.822.675c-.335.065-.61.131-.474.574.677,2.21,1.74,4.139,4.056,4.969a5.7,5.7,0,0,0,4.454-.175A1.287,1.287,0,0,1-3861.463-3545.456Zm-6.611-11.147a5.213,5.213,0,0,0-1.331.378c-1.6.982-1.909,2.474-1.857,4.192.025.811.328.875.948.6,1.524-.675,3.041-1.366,4.578-2.01.769-.323.813-.847.512-1.481A2.867,2.867,0,0,0-3868.073-3556.6Z" transform="translate(-622.019 -36.409)" fill="#9f9f9f"/>
      <path id="Path_334" data-name="Path 334" d="M-3907.557-3576.117q-1.1,0-2.2,0c-.594,0-.76-.284-.374-.725a1.75,1.75,0,0,0,.362-1.279c.007-4.375,0-8.751.038-13.127a43.587,43.587,0,0,1,.233-4.479c.079-.7-.078-.857-.729-.849-.379,0-1.02.3-1.1-.23-.08-.5.582-.579.994-.766,1.471-.668,3.017-.233,4.525-.321.525-.031.439.335.127.572a2.154,2.154,0,0,0-.69,1.792c-.432,5.587-.305,11.182-.322,16.775,0,1.369.225,1.588,1.582,1.629.333.01.855-.173.9.354.041.511-.47.582-.859.625a12.487,12.487,0,0,1-1.284.027C-3906.762-3576.116-3907.16-3576.118-3907.557-3576.117Z" transform="translate(-591.669 -3.706)" fill="#9f9f9f"/>
      <path id="Path_335" data-name="Path 335" d="M-4554.769-3445.109a10.047,10.047,0,0,1-2.1-1.708c-1.142-1-2.23-2.065-3.325-3.119a1.339,1.339,0,0,0-.8-.391c0-.108.009-.217.014-.326l.9-.931a1.438,1.438,0,0,0,.731-.736l.555-.551a1.423,1.423,0,0,0,.731-.735l.555-.551a1.385,1.385,0,0,0,.728-.738l.25-.288a2.154,2.154,0,0,0,1.03-1l.245-.3c.631-.366.937-.174.832.539-.241,1.636-.06,3.28-.14,4.918A43.421,43.421,0,0,1-4554.769-3445.109Z" transform="translate(-61.385 -119.036)" fill="#f8ae43"/>
      <path id="Path_336" data-name="Path 336" d="M-4221.738-3405.856a.367.367,0,0,1-.355.442c-.406.043-.8.038-.989-.441-.433-1.128-.9-2.246-1.29-3.388a.726.726,0,0,0-.8-.574q-2.019.011-4.039,0a.729.729,0,0,0-.777.6c-.382,1.086-.854,2.14-1.262,3.218a.8.8,0,0,1-.9.6c-.375-.036-.574-.213-.407-.614.685-1.649,1.388-3.291,2.055-4.946q1.34-3.321,2.63-6.661c.162-.417.331-.867.813-.852s.476.507.619.883c.722,1.895,1.507,3.766,2.265,5.647q1.191,2.955,2.373,5.914C-4221.777-3405.971-4221.759-3405.913-4221.738-3405.856Zm-5.443-10.665c-.691,1.774-1.3,3.33-1.905,4.884-.2.517-.134.819.519.8.947-.023,1.9-.015,2.842,0,.5.006.681-.2.519-.677-.157-.461-.3-.932-.495-1.374A35.06,35.06,0,0,0-4227.182-3416.521Z" transform="translate(-329.426 -150.209)" fill="#aaa"/>
      <path id="Path_337" data-name="Path 337" d="M-4106.659-3392.978a4.7,4.7,0,0,1-3.488,1.429,2.807,2.807,0,0,1-2.777-2.2,2.976,2.976,0,0,1,1.976-3.414,10.3,10.3,0,0,1,3.6-.4c.517-.012.794-.036.731-.772-.241-2.838-2.172-2.682-4.223-1.974-.464.161-.852.322-1.079-.156-.261-.548.352-.7.643-.808a5.241,5.241,0,0,1,4.086-.146,2.993,2.993,0,0,1,1.669,2.912c.082,1.833.026,3.673.018,5.509,0,.469.15,1.13-.531,1.178C-4106.766-3391.773-4106.354-3392.541-4106.659-3392.978Zm-1.211-3.67a6.883,6.883,0,0,0-2.86.521,1.815,1.815,0,0,0-1.145,1.808,1.692,1.692,0,0,0,1.132,1.7,3.18,3.18,0,0,0,4.157-2.566C-4106.351-3396.448-4106.571-3396.7-4107.87-3396.648Z" transform="translate(-427.093 -163.833)" fill="#aaa"/>
      <path id="Path_338" data-name="Path 338" d="M-4037.8-3392.576a9.2,9.2,0,0,0,1.008-2.515c.7-1.645,1.292-3.333,1.932-5,.043-.114.117-.216.16-.33.142-.374.409-.562.785-.4s.262.538.166.8c-.385,1.055-.809,2.1-1.219,3.142-1.117,2.848-2.2,5.71-3.365,8.538a2.521,2.521,0,0,1-3.135,1.564c-.414-.082-.481-.32-.458-.65.029-.406.315-.4.6-.327a1.646,1.646,0,0,0,2.011-.986,4.38,4.38,0,0,0,.294-4.292c-1.033-2.289-1.871-4.667-2.787-7.009-.112-.285-.247-.624.14-.787a.645.645,0,0,1,.862.328c.259.544.45,1.121.663,1.686C-4039.369-3396.774-4038.6-3394.733-4037.8-3392.576Z" transform="translate(-485.078 -164.562)" fill="#aaa"/>
      <path id="Path_339" data-name="Path 339" d="M-4165.655-3396.777c0-1.284,0-2.568,0-3.852,0-.362-.063-.8.361-.952s.655.17.8.545c.223.571.451.117.672-.009a4.381,4.381,0,0,1,4.572-.254,2.58,2.58,0,0,1,1.366,2.333c.048,2.17.026,4.341.035,6.511,0,.342-.084.619-.488.634-.446.017-.566-.258-.565-.652q.007-2.8,0-5.595c0-1.836-.74-2.7-2.328-2.727-1.923-.037-3.186.986-3.233,2.707-.048,1.741,0,3.485-.026,5.228,0,.411.218,1.039-.529,1.026-.712-.012-.639-.6-.64-1.091Q-4165.658-3394.852-4165.655-3396.777Z" transform="translate(-384.082 -163.792)" fill="#aaa"/>
      <path id="Path_340" data-name="Path 340" d="M-3885.733-3401.915c.729-.195,1.429.371,2.23.4.449.014.49.427.4.771-.112.448-.452.413-.807.295a5.578,5.578,0,0,0-3.226-.292c-.663.168-1.157.414-1.262,1.124a1.391,1.391,0,0,0,.935,1.521c.987.461,2,.857,3,1.308a2.663,2.663,0,0,1,1.76,2.625c-.1,1.008-1.266,1.9-2.394,2.32a7.122,7.122,0,0,1-3.942-.1c-.415-.074-.766-.276-.73-.787s.235-.561.733-.409a6.771,6.771,0,0,0,3.769.248c.723-.19,1.261-.525,1.349-1.3a1.568,1.568,0,0,0-1.075-1.645c-1.048-.483-2.144-.87-3.159-1.411-1.594-.849-1.961-2.463-.91-3.643A4.9,4.9,0,0,1-3885.733-3401.915Z" transform="translate(-609.275 -163.69)" fill="#aaa"/>
      <path id="Path_341" data-name="Path 341" d="M-3935.944-3396.649c.091-1.923.6-3.659,2.5-4.6a5.209,5.209,0,0,1,4.178-.146.433.433,0,0,1,.323.563.48.48,0,0,1-.594.429c-.479-.087-.954-.2-1.433-.294a3.105,3.105,0,0,0-3.637,2.742,5.944,5.944,0,0,0,.34,3.652,3.059,3.059,0,0,0,3.471,1.694c.389-.074.784-.12,1.167-.214.28-.068.5-.053.572.259s.044.633-.32.766a4.673,4.673,0,0,1-6.076-2.173A4.219,4.219,0,0,1-3935.944-3396.649Z" transform="translate(-571.539 -163.851)" fill="#aaa"/>
      <path id="Path_342" data-name="Path 342" d="M-3991.311-3406.377c0,.826-.01,1.651,0,2.477.023,1.543.673,2.137,2.171,1.927.4-.056.729-.149.854.353s-.314.538-.594.647a2.538,2.538,0,0,1-3.47-2.114,49.14,49.14,0,0,1-.135-5.855c-.016-.586-.07-1.055-.822-1-.279.019-.47-.079-.491-.4s.18-.417.436-.483c.718-.186,1.2-.547,1.083-1.4a1.17,1.17,0,0,1,.151-.524c.1-.257.235-.562.562-.489.288.064.238.383.254.623.112,1.636.112,1.635,1.744,1.654a3.434,3.434,0,0,1,.639.033.435.435,0,0,1,.357.467.46.46,0,0,1-.344.482,2.543,2.543,0,0,1-.362.038c-.651.094-1.494-.325-1.916.219-.384.5-.094,1.3-.121,1.971-.019.458,0,.917,0,1.376Z" transform="translate(-524.363 -154.469)" fill="#aaa"/>
      <path id="Path_343" data-name="Path 343" d="M-4350.125-3549.328q0-17.637.014-35.274c0-.641-.216-.645-.672-.485-.062-.424.365-.665.361-1.1-.027-3-.02-5.991-.008-8.986,0-.415-.111-.648-.562-.609a2.965,2.965,0,0,0,.909-2.846c-.115-1.257.191-2.535-.172-3.782.46-.233.544.1.525.408-.123,1.94.324,3.906-.248,5.823-.114.38.1.708.088,1.076-.148,6.112.224,12.218.186,18.33-.055,8.809-.01,17.619-.029,26.428C-4349.734-3550-4349.418-3549.441-4350.125-3549.328Z" transform="translate(-232.8)" fill="#fbdecc"/>
      <path id="Path_344" data-name="Path 344" d="M-3953.278-3253.625c0-1.812-.008-3.4.006-4.987,0-.338-.154-.857.369-.888.5-.03.6.428.582.859a57.847,57.847,0,0,1-.133,6.044c-.043.3.021.639-.377.739s-.556-.229-.712-.465c-1.11-1.669-2.2-3.353-3.294-5.032a.646.646,0,0,0-.536-.364c0,1.492.039,2.969-.022,4.441-.019.472.389,1.351-.372,1.351-.586,0-.278-.872-.288-1.342-.039-1.8-.017-3.61-.01-5.415,0-.323-.1-.748.349-.836.368-.073.582.225.77.531,1.019,1.661,2.225,3.2,3.165,4.916C-3953.716-3253.955-3953.57-3253.881-3953.278-3253.625Z" transform="translate(-553.479 -279.945)" fill="#9f9f9f"/>
      <path id="Path_345" data-name="Path 345" d="M-4333.759-3255.95c0-1.008.018-2.016-.007-3.023-.014-.586.221-.845.808-.823,1.264.048,2.573-.191,3.725.566a3.8,3.8,0,0,1,1.414,4.2c-.867,2.534-2.626,3.524-5.292,3a.685.685,0,0,1-.659-.8C-4333.736-3253.873-4333.759-3254.912-4333.759-3255.95Zm3.126,2.979a2.2,2.2,0,0,0,1.96-2.191,9.551,9.551,0,0,0,0-1.467,2.9,2.9,0,0,0-3.883-2.42c-.305.126-.255.349-.251.6.024,1.407.033,2.815.037,4.222,0,1.6,0,1.6,1.7,1.462A.309.309,0,0,0-4330.632-3252.972Z" transform="translate(-246.858 -279.728)" fill="#9f9f9f"/>
      <path id="Path_346" data-name="Path 346" d="M-4004.8-3256.773a3.436,3.436,0,0,1,3.253-3.94c2.594-.036,3.766,1.919,3.6,4.449-.113,1.691-.757,3.051-2.607,3.526a3.431,3.431,0,0,1-4.24-3.026C-4004.821-3256.1-4004.8-3256.437-4004.8-3256.773Zm6.042.06a4.951,4.951,0,0,0-.339-1.694,1.926,1.926,0,0,0-1.8-1.434,2.238,2.238,0,0,0-2.488.91,4.783,4.783,0,0,0-.4,3.678,2.479,2.479,0,0,0,3.515,1.622C-3998.95-3254.234-3998.865-3255.49-3998.759-3256.713Z" transform="translate(-515.369 -278.98)" fill="#9f9f9f"/>
      <path id="Path_347" data-name="Path 347" d="M-4198.672-3259.183c1.735.655,2.387,1.277,2.481,3.608.092,2.271-.834,3.627-2.657,4.1a3.32,3.32,0,0,1-4.11-2.522,4.836,4.836,0,0,1,.458-3.89,2.725,2.725,0,0,1,1.907-1.275c.343.022.425.237.4.534a2.277,2.277,0,0,0-1.82,1.822,5.535,5.535,0,0,0-.023,2.7,2.506,2.506,0,0,0,3.782,1.642c.99-.5,1.5-3.113,1.077-4.257-.354-.963-.777-1.765-1.9-1.922A.583.583,0,0,1-4198.672-3259.183Z" transform="translate(-353.467 -280.229)" fill="#9f9f9f"/>
      <path id="Path_348" data-name="Path 348" d="M-4503.845-3256.6c0-1.038.012-2.077,0-3.115-.007-.465.155-.777.629-.856a4.7,4.7,0,0,1,3.085.475,2.026,2.026,0,0,1,.265,3.435c-.514.447-.715.74-.238,1.344a16.111,16.111,0,0,1,1.023,1.718c.153.252.488.52.119.773a.62.62,0,0,1-.916-.324c-.382-.762-.882-1.456-1.271-2.2-.433-.833-1.152-.462-1.692-.48-.506-.018-.252.634-.289.991-.053.515-.044,1.036-.068,1.554-.009.213-.011.477-.284.5-.351.029-.355-.27-.357-.512C-4503.85-3254.4-4503.846-3255.5-4503.845-3256.6Zm2.356-.07c.782-.108,1.391-.42,1.5-1.3a1.368,1.368,0,0,0-.666-1.57,3.873,3.873,0,0,0-2.333-.151c-.233.037-.183.362-.195.564a11.947,11.947,0,0,0,.076,2.377c-.087,1.041.723.5,1.141.64C-4501.372-3255.912-4501.516-3256.372-4501.489-3256.671Z" transform="translate(-108.029 -279.033)" fill="#9f9f9f"/>
      <path id="Path_349" data-name="Path 349" d="M-4054.266-3259.882c-.829.019-1.875-.271-2.109.9-.208,1.043.693,1.339,1.468,1.667a6.111,6.111,0,0,1,1.625.812,1.951,1.951,0,0,1-.193,3.249,4.105,4.105,0,0,1-3.612.219.4.4,0,0,1-.319-.483c.069-.305.3-.368.567-.272a6.166,6.166,0,0,0,2.271.123,1.135,1.135,0,0,0,1.135-1.005,1.077,1.077,0,0,0-.686-1.331c-.587-.245-1.165-.515-1.739-.791-1.21-.582-1.588-1.218-1.42-2.357a2.463,2.463,0,0,1,2.061-1.69,3.442,3.442,0,0,1,1.967.284c.219.109.506.142.424.479-.065.268-.311.257-.525.25C-4053.656-3259.841-4053.96-3259.865-4054.266-3259.882Z" transform="translate(-472.433 -278.846)" fill="#9f9f9f"/>
      <path id="Path_350" data-name="Path 350" d="M-4154.816-3256.591c0-.978.019-1.955-.005-2.932-.014-.545.153-.834.742-.925a13.89,13.89,0,0,1,2.92-.048c.271.015.674.045.653.482s-.381.411-.686.415c-.7.007-1.405.016-2.107,0-.452-.011-.638.144-.671.627-.15,2.21-.165,2.189,2.044,2.229.41.008,1.181-.349,1.174.394-.007.695-.767.337-1.2.427a.916.916,0,0,1-.183,0c-1.984,0-2,.01-1.813,1.993.019.212.08.421.091.633.018.333-.15.506-.491.519-.369.014-.471-.184-.47-.513C-4154.813-3254.391-4154.817-3255.491-4154.816-3256.591Z" transform="translate(-392.925 -279.114)" fill="#9f9f9f"/>
      <path id="Path_351" data-name="Path 351" d="M-4089.548-3258.577a1.3,1.3,0,0,0-.929,1.4c.072.661.579.859,1.1,1.077a17.288,17.288,0,0,1,1.8.861,1.988,1.988,0,0,1-.188,3.555,4.2,4.2,0,0,1-3.389.063.407.407,0,0,1-.285-.577c.1-.261.3-.254.532-.174a5.95,5.95,0,0,0,2.094.123,1.03,1.03,0,0,0,1.15-.834c.091-.59.2-1.237-.591-1.541-.594-.228-1.148-.558-1.742-.786a2.059,2.059,0,0,1-1.441-1.927,1.921,1.921,0,0,1,1.666-1.811C-4089.533-3259.021-4089.542-3258.8-4089.548-3258.577Z" transform="translate(-444.634 -280.258)" fill="#9f9f9f"/>
      <path id="Path_352" data-name="Path 352" d="M-4635.785-3601.978c-.013.488-.037.977-.037,1.465q0,15.954,0,31.908c0,.327-.195.785.411.825-.023.207.009.464-.294.482a.4.4,0,0,1-.425-.395,5.381,5.381,0,0,1-.023-.732q0-16.288.012-32.575C-4636.14-3601.336-4636.4-3601.838-4635.785-3601.978Z" transform="translate(0 -0.419)" fill="#fbdecc"/>
      <path id="Path_353" data-name="Path 353" d="M-4416.814-3256.52c0-1.009.027-2.02-.009-3.028-.024-.686.322-.95.932-.962.856-.018,1.713,0,2.569-.01.376,0,.723.125.753.509.039.507-.411.431-.731.436-.734.011-1.468,0-2.2,0-.238,0-.559-.049-.576.287-.037.731-.039,1.467-.006,2.2.017.38.363.344.636.346.7.005,1.407,0,2.11.01.277,0,.61.018.571.412-.031.322-.289.426-.606.42-.611-.012-1.226.031-1.834-.011-.666-.047-.964.177-.915.877.044.608.012,1.223.008,1.834,0,.254-.034.533-.363.527s-.334-.3-.335-.546C-4416.817-3254.318-4416.814-3255.419-4416.814-3256.52Z" transform="translate(-179.064 -279.138)" fill="#9f9f9f"/>
      <path id="Path_354" data-name="Path 354" d="M-3955.821-3395.852q0-2.021,0-4.042c0-.413-.014-.835.571-.847s.46.45.493.789c.255,2.626.065,5.259.1,7.889,0,.18-.084.359-.095.541-.022.355-.154.594-.546.59-.468,0-.525-.324-.524-.694C-3955.819-3393.035-3955.821-3394.443-3955.821-3395.852Z" transform="translate(-555.361 -164.681)" fill="#aaa"/>
      <path id="Path_355" data-name="Path 355" d="M-4537.167-3256.057a.9.9,0,0,0-.06.173c-.281,2.244-.279,2.245,1.926,2.263a4.119,4.119,0,0,1,.729.05.486.486,0,0,1,.43.594c-.039.338-.283.358-.536.359-.612,0-1.224.015-1.835,0-.547-.015-.769.226-.757.772.053,2.542-.344,1.971,1.978,2.08.5.023,1.424-.39,1.418.426,0,.658-.91.3-1.409.348a17.673,17.673,0,0,1-2.109,0c-.384-.013-.758-.122-.747-.618.047-2.165-.138-4.334.1-6.5Zm-.507,6.389.008.325h3.365C-4535.423-3249.552-4536.555-3249.4-4537.674-3249.668Z" transform="translate(-80.018 -282.741)" fill="#aaa"/>
      <path id="Path_356" data-name="Path 356" d="M-4121.947-3255.583c0,.642.046,1.289-.019,1.924-.074.727.232.9.889.846.638-.051,1.283-.02,1.924-.007.3.006.715-.02.743.357.03.413-.4.4-.686.4-.947.016-1.894,0-2.842.005-.5,0-.714-.254-.713-.742q.007-3.117,0-6.234c0-.563.217-.837.823-.816.946.033,1.894.007,2.841.012.292,0,.593.068.577.429-.013.3-.312.36-.553.367a13.769,13.769,0,0,1-2.015,0c-.851-.1-1.081.246-.984,1.026a11.712,11.712,0,0,1,.016,1.374Q-4121.947-3256.11-4121.947-3255.583Z" transform="translate(-419.185 -279.687)" fill="#9f9f9f"/>
      <path id="Path_357" data-name="Path 357" d="M-4472.014-3255.51c0-.824-.053-1.653.015-2.472.067-.8-.255-1.026-.992-.942a4.486,4.486,0,0,1-1.093-.044c-.2-.026-.442-.105-.4-.4a.379.379,0,0,1,.385-.331q2.426-.021,4.853-.014c.261,0,.355.2.342.448a.338.338,0,0,1-.356.338c-.213.014-.427.011-.641.012-1.265,0-1.265,0-1.265,1.3q0,2.336,0,4.671c0,.364.063.831-.459.833-.6,0-.368-.527-.379-.84C-4472.034-3253.8-4472.014-3254.655-4472.014-3255.51Z" transform="translate(-131.996 -279.795)" fill="#9f9f9f"/>
      <path id="Path_358" data-name="Path 358" d="M-4057.148-3409.693c-.5.177-.466-.191-.467-.476q-.008-6.279,0-12.559c0-.446.143-.812.651-.82.605-.01.534.472.535.86q.007,6.142,0,12.284c0,.267.156.656-.341.7q0-6.239,0-12.479c0-.183,0-.367-.013-.55-.012-.166-.089-.305-.275-.292s-.237.168-.245.329c-.009.183-.008.367-.008.55q0,5.735,0,11.47A1.82,1.82,0,0,0-4057.148-3409.693Z" transform="translate(-472.268 -146.064)" fill="#aaa"/>
      <path id="Path_359" data-name="Path 359" d="M-4269.267-3255.675c-.464.627-1.147.475-1.769.463-.544-.011-.787.156-.747.729.038.546.006,1.1.006,1.646,0,.365-.155.571-.544.575-.446.006-.462-.286-.462-.615,0-2.074.015-4.147,0-6.221,0-.584.224-.859.807-.821a5.512,5.512,0,0,1,1.72.108c-.1.377-.772.071-.732.615-1-.105-.913.567-.908,1.226.014,2.245.005,2.245,2.162,1.81A.486.486,0,0,0-4269.267-3255.675Z" transform="translate(-296.638 -279.617)" fill="#aaa"/>
      <path id="Path_360" data-name="Path 360" d="M-4577.172-3255.782c-1.59,1.062-1.487,5.049.228,5.756a6.938,6.938,0,0,0,2.244.2c.327.029.848-.221.874.342.021.442-.463.362-.779.437a3.629,3.629,0,0,1-4.629-3.76,4.337,4.337,0,0,1,1.446-3.378C-4577.52-3256.146-4577.187-3256.209-4577.172-3255.782Z" transform="translate(-46.493 -282.679)" fill="#9f9f9f"/>
      <path id="Path_361" data-name="Path 361" d="M-4234.76-3259.183c.7,0,1.4-.022,2.1,0a2.1,2.1,0,0,1,2.132,1.519,1.963,1.963,0,0,1-.793,2.252c-.576.415-.6.788-.179,1.351a19.778,19.778,0,0,1,1.076,1.793c.123.2.356.4.024.6a.49.49,0,0,1-.72-.132,11.478,11.478,0,0,1-1.288-2.281.98.98,0,0,0-.344-.508,1.407,1.407,0,0,1-.18-.892c.147-.034.295-.063.441-.1.916-.244,1.1-.915,1.043-1.75s-.618-1.145-1.331-1.207a3.042,3.042,0,0,0-1.777.129C-4235.184-3258.517-4234.883-3258.874-4234.76-3259.183Z" transform="translate(-327.529 -280.22)" fill="#9f9f9f"/>
      <path id="Path_362" data-name="Path 362" d="M-3877.847-3255.692c0-1.039,0-2.077,0-3.115,0-.273,0-.625.364-.628.406,0,.325.38.327.629.01,1.833.028,3.666-.01,5.5-.013.635.174.875.823.832.73-.048,1.466-.015,2.2,0,.26,0,.531.117.536.4.006.319-.314.348-.548.352-1.008.015-2.016.008-3.023,0-.5,0-.684-.269-.675-.76C-3877.832-3253.554-3877.846-3254.623-3877.847-3255.692Z" transform="translate(-619.004 -280.023)" fill="#9f9f9f"/>
      <path id="Path_363" data-name="Path 363" d="M-4235.163-3255.5a1.41,1.41,0,0,0,.18.892c-1.687-.115-1.687-.115-1.686,1.561,0,.243,0,.487,0,.73,0,.313.021.632-.436.638s-.572-.25-.571-.642c0-1.217,0-2.435,0-3.652,0-.822-.008-1.643,0-2.465.006-.434.045-.869.676-.765-.123.309-.424.667.208.773,0,.691.009,1.383,0,2.074-.009.564.25.834.816.827C-4235.7-3255.535-4235.433-3255.513-4235.163-3255.5Z" transform="translate(-325.295 -280.198)" fill="#aaa"/>
      <path id="Path_364" data-name="Path 364" d="M-4611.78-3480.741c-.02-.363.273-.531.481-.74,2.958-2.974,5.933-5.932,8.875-8.921.52-.528.863-.61,1.41-.025,1.15,1.227,2.375,2.385,3.558,3.58a2.5,2.5,0,0,1,.741.917c-.409.059-.591-.27-.82-.5-1.172-1.16-2.361-2.3-3.487-3.506-.512-.547-.82-.577-1.367-.018-2.82,2.877-5.682,5.714-8.536,8.558C-4611.178-3481.14-4611.378-3480.8-4611.78-3480.741Z" transform="translate(-19.929 -91.143)" fill="#fbdecc"/>
      <path id="Path_365" data-name="Path 365" d="M-4366.5-3255.009c0,.671.049,1.345-.01,2.01s.214.841.833.8c.667-.047,1.34-.013,2.011-.006.243,0,.544.012.537.336,0,.257-.271.293-.492.294-.976,0-1.951,0-2.926,0-.362,0-.58-.146-.579-.535q.005-3.337.012-6.674a.38.38,0,0,1,.312-.395c.929.013,1.858.031,2.787.038.385,0,.736.035.77.535-.878.014-1.757.054-2.634.032-.487-.012-.645.168-.624.635.027.6.006,1.212,0,1.819Q-4366.5-3255.565-4366.5-3255.009Z" transform="translate(-219.627 -280.231)" fill="#9f9f9f"/>
      <path id="Path_366" data-name="Path 366" d="M-4055.8-3407.36a1.82,1.82,0,0,1-.166-.979q0-5.735,0-11.47c0-.183,0-.367.008-.551.008-.161.06-.315.245-.329s.263.126.275.292c.013.183.013.366.013.55q0,6.24,0,12.479Z" transform="translate(-473.619 -148.397)" fill="#9f9f9f"/>
      <path id="Path_367" data-name="Path 367" d="M-4434.9-3255.691q0-1.556,0-3.113c0-.343-.013-.731.453-.756.539-.029.426.42.427.726.011,2.075.006,4.151.006,6.226,0,.309.032.636-.429.647s-.46-.292-.459-.617C-4434.9-3253.615-4434.9-3254.653-4434.9-3255.691Z" transform="translate(-164.307 -279.92)" fill="#aaa"/>
      <path id="Path_368" data-name="Path 368" d="M-4019.936-3255.661q0,1.555,0,3.109c0,.312.022.635-.434.642s-.45-.3-.45-.624q0-3.017,0-6.034a1.393,1.393,0,0,1,.063-.449c.074-.215.086-.526.435-.477.3.042.375.281.376.543,0,1.1,0,2.194,0,3.291Z" transform="translate(-502.306 -279.97)" fill="#aaa"/>
      <path id="Path_369" data-name="Path 369" d="M-4529.3-3449.7a43.421,43.421,0,0,0,.206-5.915c.08-1.638-.1-3.282.14-4.918.1-.712-.2-.9-.832-.539-.072-.462.456-.745.365-1.214.4.46.961.762,1.282,1.3a.752.752,0,0,0-.418.834c.125,3.085-.261,6.16-.18,9.244a4.192,4.192,0,0,0,.364,2.294C-4528.957-3448.739-4529.126-3449.221-4529.3-3449.7Z" transform="translate(-86.85 -114.448)" fill="#fbdecc"/>
      <path id="Path_370" data-name="Path 370" d="M-4384.327-3255.147q0,1.557,0,3.115c0,.292-.024.58-.423.551-.338-.025-.34-.295-.34-.543q0-3.115,0-6.23c0-.288.024-.585.423-.555.336.025.338.3.339.547C-4384.325-3257.224-4384.327-3256.185-4384.327-3255.147Z" transform="translate(-204.965 -280.533)" fill="#aaa"/>
      <path id="Path_371" data-name="Path 371" d="M-4263.022-3258.653c-.041-.544.633-.238.732-.615a2.375,2.375,0,0,1,2.326,1.51c.3,1.237-.048,1.927-1.335,2.625a.486.486,0,0,1-.469-.485,1.63,1.63,0,0,0,.6-2.493A2.359,2.359,0,0,0-4263.022-3258.653Z" transform="translate(-304.604 -280.16)" fill="#9f9f9f"/>
      <path id="Path_372" data-name="Path 372" d="M-3907.576-3257.669c-.073-.281.212-.428.249-.662.076-.493.148-1.075.756-1.075s.626.68.784,1.088c.531,1.372,1.037,2.752,1.672,4.081.054.114-.014.286-.026.431-.546-.444-.552-1.16-.867-1.722-.136-.243-.161-.718-.555-.2a3.009,3.009,0,0,1-.758-1.594c-.24-.883-.447-.224-.683-.053A.541.541,0,0,0-3907.576-3257.669Zm1-1.4c-.3.135-.336.458-.468.71-.06.114-.027.277.124.255a.629.629,0,0,0,.545-.612C-3906.358-3258.857-3906.36-3259.024-3906.576-3259.071Z" transform="translate(-594.733 -280.047)" fill="#aaa"/>
      <path id="Path_373" data-name="Path 373" d="M-3915.063-3240.408c.394-.522.419-.048.555.2.314.562.321,1.278.867,1.722.012.084.024.168.035.252-.066.288-.011.667-.486.647-.006-.086-.012-.172-.018-.258a.673.673,0,0,0-.426-.844c-.087-.383-.371-.409-.691-.4-.744.029-1.489.046-2.234.068-.313-.034-.438.112-.4.416q-.067.323-.135.645c-.337.111-.367.425-.462.7a.819.819,0,0,1-.772.611q.006-.186.012-.373a.513.513,0,0,0,.342-.657l.037-.265a.518.518,0,0,0,.338-.646q.08-.319.159-.638a.326.326,0,0,0,.245-.39l0,0a4.753,4.753,0,0,1,.906.063c.708.087,1.573.564,2.155-.333Q-3915.05-3240.148-3915.063-3240.408Z" transform="translate(-585.232 -295.361)" fill="#9f9f9f"/>
      <path id="Path_374" data-name="Path 374" d="M-4570.741-3259.625c-.015-.427-.348-.364-.616-.4a3.8,3.8,0,0,1,4.136-.445c.167.113.293.239.18.441a.5.5,0,0,1-.614.257,16.087,16.087,0,0,0-2.177-.117A1.412,1.412,0,0,0-4570.741-3259.625Z" transform="translate(-52.925 -278.836)" fill="#aaa"/>
      <path id="Path_375" data-name="Path 375" d="M-4363.722-3241.418q0-.556,0-1.112a13.688,13.688,0,0,0,2.712.114c.29.02.647-.069.676.4.032.523-.344.464-.679.486A12.681,12.681,0,0,0-4363.722-3241.418Z" transform="translate(-222.409 -293.822)" fill="#aaa"/>
      <path id="Path_376" data-name="Path 376" d="M-4118.816-3241.324q0-.527,0-1.055a18.2,18.2,0,0,0,2.717.088c.288.018.646-.071.675.4.033.523-.344.467-.677.485A16.626,16.626,0,0,0-4118.816-3241.324Z" transform="translate(-422.316 -293.945)" fill="#aaa"/>
      <path id="Path_377" data-name="Path 377" d="M-4081.977-3259.975c.006-.221.015-.444-.221-.571a2.775,2.775,0,0,1,2.807.136.279.279,0,0,1,.063.332c-.1.2-.263.42-.481.347C-4080.52-3259.967-4081.28-3259.693-4081.977-3259.975Z" transform="translate(-452.206 -278.859)" fill="#aaa"/>
      <path id="Path_378" data-name="Path 378" d="M-3956.775-3418.633c-.016-.369.1-.806.646-.8s.752.392.728.938c-.021.471-.119.906-.653.919C-3956.643-3417.568-3956.774-3418.029-3956.775-3418.633Z" transform="translate(-554.582 -149.419)" fill="#aaa"/>
      <path id="Path_379" data-name="Path 379" d="M-4536.631-3258.58l-.878-.048q.05-.271.1-.541c1.344.085,2.706-.209,4.036.184-.124.424-.472.408-.808.409C-4535-3258.576-4535.814-3258.579-4536.631-3258.58Z" transform="translate(-80.554 -280.218)" fill="#9f9f9f"/>
      <path id="Path_380" data-name="Path 380" d="M-3910.028-3240.631c-.582.9-1.447.421-2.155.334a4.753,4.753,0,0,0-.906-.062,1.279,1.279,0,0,1,.488-1.195c.062.273.18.487.506.483.047.332.192.56.572.53A4.976,4.976,0,0,0-3910.028-3240.631Z" transform="translate(-590.241 -294.619)" fill="#aaa"/>
      <path id="Path_381" data-name="Path 381" d="M-4532.928-3260.558c-1.33-.393-2.691-.1-4.036-.184.441-.426,3.725-.533,4.112-.123C-4532.757-3260.765-4532.816-3260.639-4532.928-3260.558Z" transform="translate(-80.999 -278.646)" fill="#fbdecc"/>
      <path id="Path_382" data-name="Path 382" d="M-4361.811-3260.019c-.034-.5-.384-.532-.77-.535-.929-.008-1.857-.025-2.786-.038a6.468,6.468,0,0,1,3.516-.143C-4361.608-3260.711-4361.112-3260.3-4361.811-3260.019Z" transform="translate(-221.066 -278.82)" fill="#aaa"/>
      <path id="Path_383" data-name="Path 383" d="M-4188.781-3260.229c.029-.3-.053-.512-.4-.534a1.437,1.437,0,0,1,1.92-.016.582.582,0,0,0-.412.535Z" transform="translate(-364.883 -278.632)" fill="#aaa"/>
      <path id="Path_384" data-name="Path 384" d="M-4630.8-3425.85a4.95,4.95,0,0,1,2-2.016A4.754,4.754,0,0,1-4630.8-3425.85Z" transform="translate(-4.408 -142.54)" fill="#fbdecc"/>
      <path id="Path_385" data-name="Path 385" d="M-3891.585-3226.908c.476.02.42-.359.487-.647.236.233.517.445.408.845-.5-.068-.479.313-.535.626C-3891.462-3226.308-3891.8-3226.488-3891.585-3226.908Z" transform="translate(-607.739 -306.046)" fill="#aaa"/>
      <path id="Path_386" data-name="Path 386" d="M-3919.227-3224.729a.819.819,0,0,0,.772-.611c.095-.272.125-.586.462-.7.057.423-.238.742-.367,1.1S-3918.81-3224.248-3919.227-3224.729Z" transform="translate(-585.232 -307.286)" fill="#aaa"/>
      <path id="Path_387" data-name="Path 387" d="M-4627.13-3362.348a2.74,2.74,0,0,1-1.133,1.153A1.166,1.166,0,0,1-4627.13-3362.348Z" transform="translate(-6.475 -196.02)" fill="#fbdecc"/>
      <path id="Path_388" data-name="Path 388" d="M-4570.66-3420.043a2.234,2.234,0,0,1-1.258,1.321A1.927,1.927,0,0,1-4570.66-3420.043Z" transform="translate(-52.467 -148.926)" fill="#fbdecc"/>
      <path id="Path_389" data-name="Path 389" d="M-3908.132-3249.958a.54.54,0,0,1,.572.3q-.109.409-.217.818a.477.477,0,0,1-.492-.479Z" transform="translate(-594.177 -287.757)" fill="#9f9f9f"/>
      <path id="Path_390" data-name="Path 390" d="M-4618.776-3433.772a1.552,1.552,0,0,1,1.073-1.094C-4617.766-3434.212-4618.314-3434.035-4618.776-3433.772Z" transform="translate(-14.219 -136.826)" fill="#fbdecc"/>
      <path id="Path_391" data-name="Path 391" d="M-4535.666-3454.06a2.154,2.154,0,0,1-1.03,1A.977.977,0,0,1-4535.666-3454.06Z" transform="translate(-81.218 -121.159)" fill="#fbdecc"/>
      <path id="Path_392" data-name="Path 392" d="M-3888.559-3221.2c.218.141.438.308.115.534-.246.172-.549.323-.716-.124C-3888.851-3220.767-3888.585-3220.807-3888.559-3221.2Z" transform="translate(-609.775 -311.233)" fill="#aaa"/>
      <path id="Path_393" data-name="Path 393" d="M-3910.052-3246.486a.476.476,0,0,0,.491.479l-.276.495a.639.639,0,0,0-.563-.326C-3910.583-3246.215-3910.26-3246.319-3910.052-3246.486Z" transform="translate(-592.393 -290.593)" fill="#aaa"/>
      <path id="Path_394" data-name="Path 394" d="M-3888.694-3222.669c-.026.392-.292.432-.6.41a.171.171,0,0,1-.03-.107c.056-.313.033-.694.535-.626Z" transform="translate(-609.639 -309.763)" fill="#9f9f9f"/>
      <path id="Path_395" data-name="Path 395" d="M-4564.286-3423.955q-.007.163-.014.326c-.276.074-.4.442-.744.388A.765.765,0,0,1-4564.286-3423.955Z" transform="translate(-58.078 -145.732)" fill="#fbdecc"/>
      <path id="Path_396" data-name="Path 396" d="M-3893.787-3230.027a.672.672,0,0,1,.426.843C-3893.617-3229.407-3893.883-3229.626-3893.787-3230.027Z" transform="translate(-605.981 -304.028)" fill="#aaa"/>
      <path id="Path_397" data-name="Path 397" d="M-4541.3-3447.043a1.385,1.385,0,0,1-.728.738C-4542.053-3446.817-4541.807-3447.059-4541.3-3447.043Z" transform="translate(-76.866 -126.886)" fill="#fbdecc"/>
      <path id="Path_398" data-name="Path 398" d="M-4555.292-3433.032a1.439,1.439,0,0,1-.731.736C-4556.05-3432.81-4555.8-3433.054-4555.292-3433.032Z" transform="translate(-65.44 -138.322)" fill="#fbdecc"/>
      <path id="Path_399" data-name="Path 399" d="M-4548.293-3440.031a1.424,1.424,0,0,1-.732.735C-4549.051-3439.81-4548.806-3440.053-4548.293-3440.031Z" transform="translate(-71.152 -132.609)" fill="#fbdecc"/>
      <path id="Path_400" data-name="Path 400" d="M-3910.376-3242.961a.637.637,0,0,1,.562.325c-.035.138-.07.277-.1.416-.326,0-.444-.21-.506-.483C-3910.409-3242.789-3910.393-3242.875-3910.376-3242.961Z" transform="translate(-592.417 -293.47)" fill="#9f9f9f"/>
      <path id="Path_401" data-name="Path 401" d="M-3917.017-3229.489a.518.518,0,0,1-.338.646C-3917.56-3229.224-3917.165-3229.292-3917.017-3229.489Z" transform="translate(-586.713 -304.467)" fill="#aaa"/>
      <path id="Path_402" data-name="Path 402" d="M-3919.037-3224.529a.514.514,0,0,1-.342.657C-3919.563-3224.246-3919.175-3224.323-3919.037-3224.529Z" transform="translate(-585.069 -308.516)" fill="#aaa"/>
      <path id="Path_403" data-name="Path 403" d="M-3914.239-3235.08a.326.326,0,0,1-.245.39C-3914.562-3234.92-3914.406-3235-3914.239-3235.08Z" transform="translate(-589.087 -299.903)" fill="#aaa"/>
      <path id="Path_404" data-name="Path 404" d="M-3911.812-3231.418c-.042-.3.083-.45.4-.416Z" transform="translate(-591.278 -302.548)" fill="#aaa"/>
      <path id="Path_405" data-name="Path 405" d="M-4408.355-3555.954a1.028,1.028,0,0,1-.43.86q-4.781,4.778-9.559,9.56c-.191.191-.362.423-.679.41,0-.276.206-.43.375-.6q4.958-4.99,9.922-9.975A2.417,2.417,0,0,1-4408.355-3555.954Z" transform="translate(-177.269 -37.987)" fill="#fbdecc"/>
      <path id="Path_406" data-name="Path 406" d="M-4493.093-3427.747c0,.3-.141.346-.416.267-.339-.1-.552-.248-.476-.637C-4493.691-3427.984-4493.479-3427.655-4493.093-3427.747Z" transform="translate(-116.069 -142.335)" fill="#fbdecc"/>
      <path id="Path_407" data-name="Path 407" d="M-4455.352-3462.917c.028.387-.16.563-.54.548A.9.9,0,0,1-4455.352-3462.917Z" transform="translate(-147.175 -113.929)" fill="#fbdecc"/>
      <path id="Path_408" data-name="Path 408" d="M-4461.842-3455.876c-.021.268-.021.554-.429.465A.6.6,0,0,1-4461.842-3455.876Z" transform="translate(-141.968 -119.677)" fill="#fbdecc"/>
      <path id="Path_409" data-name="Path 409" d="M-4466.989-3450.319c.041.308-.1.424-.4.372A.546.546,0,0,1-4466.989-3450.319Z" transform="translate(-137.793 -124.212)" fill="#fbdecc"/>
      <path id="Path_410" data-name="Path 410" d="M-4463.956-3453.268c.063.3-.071.414-.362.375A.479.479,0,0,1-4463.956-3453.268Z" transform="translate(-140.297 -121.805)" fill="#fbdecc"/>
      <path id="Path_411" data-name="Path 411" d="M-4376.63-3502.241c.2-.909,1.053-1.27,1.594-1.889.8-.913,1.683-1.748,2.527-2.62a.913.913,0,0,1,.714-.345c-.221.879-1.078,1.222-1.611,1.832-.792.906-1.758,1.668-2.54,2.6A1.284,1.284,0,0,1-4376.63-3502.241Z" transform="translate(-211.873 -77.867)" fill="#fbdecc"/>
      <path id="Path_412" data-name="Path 412" d="M-4427.813-3443.661c.044-.857.847-1.151,1.335-1.616.563-.536.93-1.361,1.812-1.53-.315.975-1.266,1.392-1.9,2.082C-4426.915-3444.344-4427.112-3443.666-4427.813-3443.661Z" transform="translate(-170.094 -127.079)" fill="#fbdecc"/>
      <path id="Path_413" data-name="Path 413" d="M-4467.784-3397.944a2.99,2.99,0,0,1,1.837-1.841A4.251,4.251,0,0,1-4467.784-3397.944Z" transform="translate(-137.467 -165.461)" fill="#fbdecc"/>
      <path id="Path_414" data-name="Path 414" d="M-4389.086-3473.012a1.108,1.108,0,0,1,1.073-1.068A2.636,2.636,0,0,1-4389.086-3473.012Z" transform="translate(-201.706 -104.817)" fill="#fbdecc"/>
      <path id="Path_415" data-name="Path 415" d="M-4382.086-3479.644c.072-.59.352-.97.995-.984A2.315,2.315,0,0,1-4382.086-3479.644Z" transform="translate(-207.419 -99.473)" fill="#fbdecc"/>
      <path id="Path_416" data-name="Path 416" d="M-4519.536-3385.639c.623-.029.9.332.995.89A1.683,1.683,0,0,1-4519.536-3385.639Z" transform="translate(-95.224 -177.007)" fill="#fbdecc"/>
      <path id="Path_417" data-name="Path 417" d="M-4401.831-3459.9a.951.951,0,0,1,.937-.94A1.626,1.626,0,0,1-4401.831-3459.9Z" transform="translate(-191.302 -115.626)" fill="#fbdecc"/>
      <path id="Path_418" data-name="Path 418" d="M-4441.835-3419.894a.947.947,0,0,1,.922-.937A1.542,1.542,0,0,1-4441.835-3419.894Z" transform="translate(-158.649 -148.282)" fill="#fbdecc"/>
      <path id="Path_419" data-name="Path 419" d="M-4481.826-3379.9a.933.933,0,0,1,.921-.922A1.469,1.469,0,0,1-4481.826-3379.9Z" transform="translate(-126.006 -180.938)" fill="#fbdecc"/>
      <path id="Path_420" data-name="Path 420" d="M-4448.829-3412.913a.947.947,0,0,1,.937-.923A1.562,1.562,0,0,1-4448.829-3412.913Z" transform="translate(-152.94 -153.992)" fill="#fbdecc"/>
      <path id="Path_421" data-name="Path 421" d="M-4496.591-3366.419c.4-.033.634-.468,1.062-.421C-4495.778-3366.437-4495.935-3365.8-4496.591-3366.419Z" transform="translate(-113.954 -192.35)" fill="#fbdecc"/>
      <path id="Path_422" data-name="Path 422" d="M-4408.1-3453c.046-.491.251-.829.8-.832A1.318,1.318,0,0,1-4408.1-3453Z" transform="translate(-186.188 -121.342)" fill="#fbdecc"/>
      <path id="Path_423" data-name="Path 423" d="M-4394.791-3466.269c-.016-.572.336-.767.834-.812A1.451,1.451,0,0,1-4394.791-3466.269Z" transform="translate(-197.048 -110.53)" fill="#fbdecc"/>
      <path id="Path_424" data-name="Path 424" d="M-4504.441-3371.717a.757.757,0,0,1,.788.733C-4504.205-3370.917-4504.191-3371.459-4504.441-3371.717Z" transform="translate(-107.546 -188.372)" fill="#fbdecc"/>
      <path id="Path_425" data-name="Path 425" d="M-4434.821-3425.258c-.026-.4.153-.587.557-.549A.66.66,0,0,1-4434.821-3425.258Z" transform="translate(-164.372 -144.217)" fill="#fbdecc"/>
      <path id="Path_426" data-name="Path 426" d="M-4474.823-3385.257c-.027-.4.154-.586.558-.549A.66.66,0,0,1-4474.823-3385.257Z" transform="translate(-131.72 -176.868)" fill="#fbdecc"/>
      <path id="Path_427" data-name="Path 427" d="M-4453.809-3406.274c-.038-.4.15-.583.547-.559A.662.662,0,0,1-4453.809-3406.274Z" transform="translate(-148.871 -159.706)" fill="#fbdecc"/>
      <path id="Path_428" data-name="Path 428" d="M-4455.839-3403.46c-.03-.281.093-.405.375-.366A.374.374,0,0,1-4455.839-3403.46Z" transform="translate(-147.214 -162.157)" fill="#fbdecc"/>
      <path id="Path_429" data-name="Path 429" d="M-4457.834-3401.473c-.047-.29.076-.413.365-.376A.374.374,0,0,1-4457.834-3401.473Z" transform="translate(-145.581 -163.771)" fill="#fbdecc"/>
      <path id="Path_430" data-name="Path 430" d="M-4483.888-3375.487c-.026-.279.085-.419.379-.376A.388.388,0,0,1-4483.888-3375.487Z" transform="translate(-124.32 -184.982)" fill="#fbdecc"/>
      <path id="Path_431" data-name="Path 431" d="M-4469.857-3389.47c-.034-.288.09-.411.379-.363A.374.374,0,0,1-4469.857-3389.47Z" transform="translate(-135.771 -173.576)" fill="#fbdecc"/>
      <path id="Path_432" data-name="Path 432" d="M-4471.822-3387.473c-.04-.28.08-.408.363-.379A.381.381,0,0,1-4471.822-3387.473Z" transform="translate(-134.166 -175.199)" fill="#fbdecc"/>
      <path id="Path_433" data-name="Path 433" d="M-4490.858-3368.5c-.038-.283.081-.411.368-.375A.37.37,0,0,1-4490.858-3368.5Z" transform="translate(-118.627 -190.688)" fill="#fbdecc"/>
      <path id="Path_434" data-name="Path 434" d="M-4431.82-3427.486c-.039-.288.093-.408.375-.382C-4431.486-3427.658-4431.584-3427.5-4431.82-3427.486Z" transform="translate(-166.818 -142.535)" fill="#fbdecc"/>
      <path id="Path_435" data-name="Path 435" d="M-4488.861-3370.489c-.026-.288.115-.4.39-.37A.39.39,0,0,1-4488.861-3370.489Z" transform="translate(-120.261 -189.068)" fill="#fbdecc"/>
      <path id="Path_436" data-name="Path 436" d="M-4436.859-3422.481c-.035-.285.088-.409.375-.368A.37.37,0,0,1-4436.859-3422.481Z" transform="translate(-162.706 -146.629)" fill="#fbdecc"/>
      <path id="Path_437" data-name="Path 437" d="M-4450.86-3408.487c-.039-.286.087-.407.371-.372A.369.369,0,0,1-4450.86-3408.487Z" transform="translate(-151.276 -158.05)" fill="#fbdecc"/>
      <path id="Path_438" data-name="Path 438" d="M-4319.071-3222.581a.3.3,0,0,1,.436-.21A.308.308,0,0,1-4319.071-3222.581Z" transform="translate(-258.856 -309.909)" fill="#fbdecc"/>
      <path id="Path_439" data-name="Path 439" d="M-4499.82-3239.427l1.615.078c-.027.3.117.759-.475.562C-4499.1-3238.926-4499.908-3238.386-4499.82-3239.427Z" transform="translate(-111.313 -296.355)" fill="#aaa"/>
      <path id="Path_440" data-name="Path 440" d="M-4535.49-3221.071c1.119.271,2.251.116,3.374.325h-3.365Z" transform="translate(-82.202 -311.338)" fill="#9f9f9f"/>
      <path id="Path_441" data-name="Path 441" d="M-3904.283-3257.582c.216.047.218.214.2.354a.629.629,0,0,1-.545.612c-.151.021-.184-.141-.124-.255C-3904.62-3257.124-3904.583-3257.447-3904.283-3257.582Z" transform="translate(-597.025 -281.536)" fill="#9f9f9f"/>
    </g>
  </g>
</svg>
