<svg xmlns="http://www.w3.org/2000/svg" width="314" height="108" viewBox="0 0 314 108">
  <g id="google-search-console" transform="translate(-1274 -128)">
    <rect id="Rectangle_1" data-name="Rectangle 1" width="314" height="108" rx="43" transform="translate(1274 128)" fill="#fff"/>
    <g id="Group_104" data-name="Group 104" transform="translate(1987.879 747.882)">
      <g id="Group_102" data-name="Group 102" transform="translate(-623.027 -596.099)">
        <path id="Path_545" data-name="Path 545" d="M-592.525-581.451c.616-.651.483-1.533.679-2.305,2.847-11.2,16.6-16.067,25.74-9.132,1.164.883,1.616,1.573.207,2.564a3.723,3.723,0,0,0-.819.819c-.663.889-1.219.851-2.149.184a11.1,11.1,0,0,0-12.916-.621,11.148,11.148,0,0,0-5.624,11.225,11.488,11.488,0,0,0,8.469,10.37c6,1.692,11.984-1.341,13.442-6.74.34-1.258.274-1.8-1.25-1.732-2.6.113-5.2-.009-7.8.051-1,.023-1.356-.268-1.326-1.3.112-3.864-.495-3.168,3.08-3.213,3.485-.044,6.972.055,10.455-.042,1.369-.038,1.672.5,1.718,1.726.274,7.406-3.076,12.885-9.375,15.215a16.956,16.956,0,0,1-18.727-5.269,16.6,16.6,0,0,1-3.479-7.957c-.028-.184-.213-.345-.325-.518Z" transform="translate(592.525 596.099)" fill="#4586f3"/>
        <path id="Path_546" data-name="Path 546" d="M-331.977-543.37c-4.69,3.981-9.853,2.055-12.52-.774a11,11,0,0,1-.4-14.552c3.313-3.965,8.093-4.51,12.731-1.438.634-.307-.176-1.472.83-1.507a25.506,25.506,0,0,1,3.473.069c.427.044.312.643.312,1.014,0,6.414.084,12.83-.055,19.241-.1,4.765-2.752,8.125-6.9,9.266a10.168,10.168,0,0,1-11.469-4.2c-.715-1.072-1.124-1.959.648-2.282a1.022,1.022,0,0,0,.3-.134c1.31-.739,2.258-.894,3.293.716,1.273,1.98,3.423,2.489,5.737,1.936a4.916,4.916,0,0,0,3.912-4.4A9.9,9.9,0,0,0-331.977-543.37Zm-10.844-8.224c.012,2.982,1.676,5.445,4.14,6.128a5.48,5.48,0,0,0,6.733-3.84c1.134-3.536-.488-7.37-3.563-8.426C-339.277-559.025-342.84-556.033-342.822-551.594Z" transform="translate(428.854 573.398)" fill="#4586f3"/>
        <path id="Path_547" data-name="Path 547" d="M-406.786-541.167a10.411,10.411,0,0,1-10.591-10.457,10.372,10.372,0,0,1,10.638-10.556,10.37,10.37,0,0,1,10.512,10.52A10.41,10.41,0,0,1-406.786-541.167Zm5.928-10.473a6.189,6.189,0,0,0-5.984-6.449,6.172,6.172,0,0,0-5.9,6.358,6.2,6.2,0,0,0,5.977,6.461A6.213,6.213,0,0,0-400.857-551.641Z" transform="translate(475.554 573.447)" fill="#fabd09"/>
        <path id="Path_548" data-name="Path 548" d="M-477.623-562.185a10.334,10.334,0,0,1,10.572,10.441,10.39,10.39,0,0,1-10.627,10.575,10.4,10.4,0,0,1-10.5-10.547A10.358,10.358,0,0,1-477.623-562.185Zm5.936,10.5a6.109,6.109,0,0,0-6-6.408,6.185,6.185,0,0,0-5.875,6.392,6.211,6.211,0,0,0,5.856,6.423A6.163,6.163,0,0,0-471.687-551.683Z" transform="translate(522.838 573.45)" fill="#e94539"/>
        <path id="Path_549" data-name="Path 549" d="M-241.934-541.237c-5.254.006-9.405-3.723-10.106-9.351a10.123,10.123,0,0,1,7.469-11.389c6.2-1.459,9.946,2.492,11.584,6.917.362.978-.459.962-.943,1.166-3.866,1.63-7.726,3.276-11.628,4.818-1.139.45-1.168.839-.449,1.714a5.651,5.651,0,0,0,8.372.3c1.007-1.076,1.584-1.008,2.648-.24,2.3,1.659,2.347,1.686.188,3.527A10.216,10.216,0,0,1-241.934-541.237Zm.172-17.058a5.494,5.494,0,0,0-5.654,4.817c-.068.373-.3.807.007,1.1.348.336.72-.055,1.049-.19,2.041-.831,4.088-1.651,6.094-2.56.7-.315,1.992-.262,1.916-1.177-.093-1.108-1.309-1.53-2.321-1.85A5.044,5.044,0,0,0-241.761-558.3Z" transform="translate(365.194 573.517)" fill="#e94539"/>
        <path id="Path_550" data-name="Path 550" d="M-276.63-579.055c0-4.808.028-9.617-.022-14.425-.011-1.071.153-1.557,1.405-1.539,3.187.047,3.188-.02,3.188,3.242,0,8.954-.03,17.907.031,26.86.01,1.388-.23,1.945-1.778,1.871-2.82-.135-2.824-.031-2.824-2.911Z" transform="translate(381.572 595.378)" fill="#3aaa58"/>
      </g>
      <g id="Group_103" data-name="Group 103" transform="translate(-638.197 -553.215)">
        <path id="Path_551" data-name="Path 551" d="M-632.566-466.939a5.221,5.221,0,0,1,4.78,2.632c.31.49.295.73-.3,1-.78.354-1.224.483-1.8-.448-.984-1.592-3.6-1.753-5-.488a2.136,2.136,0,0,0,.212,3.488,11.618,11.618,0,0,0,2.839,1.25,10.236,10.236,0,0,1,3.125,1.539,4.666,4.666,0,0,1-.779,7.817,6.18,6.18,0,0,1-8.569-3.03c-.261-.636-.178-.968.5-1.126.509-.119.988-.785,1.419.268a3.9,3.9,0,0,0,5.028,2.492,2.747,2.747,0,0,0,2.073-2.224,2.569,2.569,0,0,0-1.328-2.793,15.657,15.657,0,0,0-2.558-1.172c-.722-.286-1.455-.556-2.144-.909-2.149-1.1-2.983-2.731-2.524-4.832a4.813,4.813,0,0,1,4.352-3.461C-633.021-466.951-632.793-466.939-632.566-466.939Z" transform="translate(638.197 466.96)" fill="#626262"/>
        <path id="Path_552" data-name="Path 552" d="M-394.737-466.991A7.848,7.848,0,0,1-389-464.753c.459.43.314.758-.1.983-.388.208-.542,1.249-1.236.49-2.048-2.239-5.451-2.125-7.468-1.083a6.7,6.7,0,0,0-3.494,6.653,6.247,6.247,0,0,0,4.121,5.844,6.187,6.187,0,0,0,7.081-1.458c.907-.91,1.1.093,1.556.39.686.446.192.788-.151,1.113a8.859,8.859,0,0,1-10.13,1.347,8.743,8.743,0,0,1-4.437-9.108A8.462,8.462,0,0,1-394.737-466.991Z" transform="translate(481.378 466.993)" fill="#626262"/>
        <path id="Path_553" data-name="Path 553" d="M-550.6-441.718a4.586,4.586,0,0,1-4.429,1.855c-2.357-.317-3.822-1.84-3.83-3.928-.008-2.048,1.506-3.612,3.834-3.951a9.718,9.718,0,0,1,2.333-.029,10.8,10.8,0,0,1,2.146.58c.611-2.232-1.514-4.059-4.245-3.394a3.021,3.021,0,0,0-1.659.969c-.814.987-1.146-.144-1.6-.4-.609-.348.033-.659.242-.878a6.19,6.19,0,0,1,7.382-.756,3.986,3.986,0,0,1,1.857,3.266c.069,2.533.012,5.07.048,7.6.011.78-.5.608-.917.6s-1.055.24-1-.617A1.118,1.118,0,0,0-550.6-441.718Zm-2.937-4.476a4.223,4.223,0,0,0-1.591.2,2.253,2.253,0,0,0-1.646,2.358,2.113,2.113,0,0,0,1.849,1.956,3.8,3.8,0,0,0,4.405-2.773c.155-.658.046-1.12-.688-1.345A6.362,6.362,0,0,0-553.542-446.194Z" transform="translate(585.215 457.34)" fill="#626262"/>
        <path id="Path_554" data-name="Path 554" d="M-592-445.818c-1.332,0-2.666.033-4-.014-.626-.022-.808.163-.683.768a3.846,3.846,0,0,0,2.761,3.219,3.542,3.542,0,0,0,4.114-1.2c.518-.695.911-.634,1.588-.3.657.325.576.6.237,1.09a5.93,5.93,0,0,1-10.1-.836,6.953,6.953,0,0,1,.109-6.385,5.568,5.568,0,0,1,6.677-2.85,5.735,5.735,0,0,1,4,5.9c-.026.559-.263.617-.716.611C-589.334-445.831-590.666-445.818-592-445.818Zm-1.1-1.617c.941,0,1.885-.046,2.823.013s.95-.327.68-1.038a3.321,3.321,0,0,0-3.665-2.256,3.647,3.647,0,0,0-3.235,2.672c-.135.483-.026.632.476.617C-595.051-447.456-594.076-447.435-593.1-447.435Z" transform="translate(611.885 457.357)" fill="#616161"/>
        <path id="Path_555" data-name="Path 555" d="M-176.5-445.767c-1.364,0-2.729.015-4.093-.008-.48-.008-.6.119-.513.612a3.954,3.954,0,0,0,2.819,3.393,3.768,3.768,0,0,0,4.252-1.382c.427-.52,1.142-.508,1.776.088.481.452-.066.742-.273,1.02a5.817,5.817,0,0,1-6.448,2.01,5.94,5.94,0,0,1-4.165-5.439c-.216-3.247,1.414-6.054,4.1-6.766,4.073-1.081,7.331,1.478,7.376,5.874.006.57-.3.611-.737.605C-173.769-445.777-175.133-445.767-176.5-445.767Zm-.9-1.617c.971,0,1.942-.018,2.913.007.542.015.767-.088.594-.711a3.381,3.381,0,0,0-3.717-2.578,3.674,3.674,0,0,0-3.336,2.787c-.092.44.085.5.439.5C-179.467-447.389-178.431-447.384-177.4-447.384Z" transform="translate(334.305 457.305)" fill="#616161"/>
        <path id="Path_556" data-name="Path 556" d="M-454.832-459.419a4.721,4.721,0,0,1,4.227-2.031,3.962,3.962,0,0,1,4.084,3.98c.117,2.592.038,5.194.046,7.791,0,.978-.738.451-1.145.542-.48.107-.854.038-.842-.663.038-2.3.032-4.611,0-6.916a2.661,2.661,0,0,0-1.787-2.733,3.068,3.068,0,0,0-3.459.855,4.3,4.3,0,0,0-1.122,3.027c-.006,1.851-.055,3.7.021,5.551.036.881-.369.915-1.035.908-.619-.006-1-.009-.988-.85q.066-7.548,0-15.1c-.01-.934.448-.845,1.062-.871.663-.029.992.07.962.874C-454.878-463.236-454.832-461.417-454.832-459.419Z" transform="translate(517.076 466.282)" fill="#606060"/>
        <path id="Path_557" data-name="Path 557" d="M-340.954-446.2a6.08,6.08,0,0,1-6.035,6.409,6.119,6.119,0,0,1-6.2-6.364,6.1,6.1,0,0,1,6.1-6.359A6.094,6.094,0,0,1-340.954-446.2Zm-10.235.044a4.277,4.277,0,0,0,2.647,4.258,4.069,4.069,0,0,0,4.656-1.262,5.141,5.141,0,0,0,.168-5.765,4.022,4.022,0,0,0-4.545-1.579A4.236,4.236,0,0,0-351.189-446.154Z" transform="translate(447.857 457.322)" fill="#616161"/>
        <path id="Path_558" data-name="Path 558" d="M-227.024-446.122a6.073,6.073,0,0,1-6.11,6.334,6.108,6.108,0,0,1-6.121-6.342,6.106,6.106,0,0,1,6.173-6.381A6.1,6.1,0,0,1-227.024-446.122Zm-10.233-.081a4.264,4.264,0,0,0,2.693,4.321,4.071,4.071,0,0,0,4.64-1.313,5.175,5.175,0,0,0,.111-5.769,4.026,4.026,0,0,0-4.473-1.553A4.218,4.218,0,0,0-237.258-446.2Z" transform="translate(371.768 457.322)" fill="#616161"/>
        <path id="Path_559" data-name="Path 559" d="M-308.089-450.486a4.889,4.889,0,0,1,4.629-1.957,3.821,3.821,0,0,1,3.528,3.34,67.906,67.906,0,0,1,.124,8.462c0,.922-.841.376-1.293.484-.435.1-.727-.032-.72-.6.025-1.98.01-3.96.009-5.94,0-.357,0-.714-.015-1.071-.062-1.575-.58-2.342-1.849-2.749a3.122,3.122,0,0,0-3.493,1.047,4.36,4.36,0,0,0-.912,2.811c0,1.915-.047,3.832.022,5.745.034.931-.522.75-1.054.771-.55.022-.975.061-.964-.762.046-3.44.04-6.881,0-10.322-.008-.715.155-.979.907-.935.647.038,1.193.014,1.028.911A3.97,3.97,0,0,0-308.089-450.486Z" transform="translate(419.066 457.307)" fill="#636363"/>
        <path id="Path_560" data-name="Path 560" d="M-268.571-452.521a5.1,5.1,0,0,1,4.068,1.737c.2.241.762.661.224.918-.489.233-1,1.128-1.726.28a3.458,3.458,0,0,0-4.076-.8,1.4,1.4,0,0,0-.885,1.285,1.34,1.34,0,0,0,.875,1.283,15.033,15.033,0,0,0,2.69.833,7.464,7.464,0,0,1,2.243.91,3.121,3.121,0,0,1,.418,5.014,5.7,5.7,0,0,1-8.336-1.251c-.145-.255-.59-.7,0-.833.537-.126,1.029-1.152,1.7-.173a3.643,3.643,0,0,0,4.234,1.6c.721-.206,1.324-.577,1.414-1.419a1.576,1.576,0,0,0-1.1-1.655,14.413,14.413,0,0,0-2.6-.8,7.129,7.129,0,0,1-2.228-.947,2.99,2.99,0,0,1-.191-4.9A5.357,5.357,0,0,1-268.571-452.521Z" transform="translate(394.554 457.328)" fill="#626262"/>
        <path id="Path_561" data-name="Path 561" d="M-495.068-446.287c.023,3,1.941,4.87,4.575,4.59a3.521,3.521,0,0,0,2.676-1.727c.6-.916,1.106.045,1.623.165.628.145.15.568.008.813-1.2,2.069-3.468,2.977-6.151,2.486a5.907,5.907,0,0,1-4.583-4.745c-.667-3.6,1.089-6.738,4.262-7.616a5.574,5.574,0,0,1,6.434,2.378c.142.272.536.713-.057.845-.523.117-1.015,1.057-1.64.16a3.683,3.683,0,0,0-4.011-1.7,4.216,4.216,0,0,0-3.056,3.429C-495.042-446.856-495.051-446.5-495.068-446.287Z" transform="translate(543.94 457.346)" fill="#626262"/>
        <path id="Path_562" data-name="Path 562" d="M-193.837-457.62c0,2.529-.033,5.059.02,7.586.016.781-.271.947-.956.884-.561-.051-1.123.163-1.113-.826q.075-7.586,0-15.174c-.01-.983.539-.79,1.106-.831.661-.049.984.07.965.872C-193.873-462.614-193.837-460.117-193.837-457.62Z" transform="translate(342.805 466.324)" fill="#636363"/>
        <path id="Path_563" data-name="Path 563" d="M-517.611-450.2a4.13,4.13,0,0,1,4.3-2.161c.295.039.637.06.651.441a4.769,4.769,0,0,1-.075,1.73c-.014.041-.354-.007-.535-.046a3.245,3.245,0,0,0-4.2,3.276c-.066,2.011-.075,4.027,0,6.037.035.968-.512.814-1.1.847-.651.036-.992-.052-.981-.865q.072-5.112,0-10.226c-.014-.849.322-.932,1.018-.941s1.06.127.931.9A7.488,7.488,0,0,0-517.611-450.2Z" transform="translate(558.963 457.249)" fill="#666"/>
      </g>
    </g>
  </g>
</svg>
