<svg xmlns="http://www.w3.org/2000/svg" width="314" height="108" viewBox="0 0 314 108">
  <g id="hootsuite" transform="translate(-1648 -916)">
    <rect id="Rectangle_12" data-name="Rectangle 12" width="314" height="108" rx="43" transform="translate(1648 916)" fill="#fff"/>
    <g id="Group_81" data-name="Group 81" transform="translate(3806.316 -185.503)">
      <path id="Path_130" data-name="Path 130" d="M-2080.72,1186.116c-1.529-.118-2.978-.138-4.4-.354a33.337,33.337,0,0,1-24.105-15.578,32,32,0,0,1-5.046-17.095c-.078-5.549-.02-11.1-.02-16.649,0-.2.021-.4.037-.676a5.863,5.863,0,0,1,.786-.079,15.764,15.764,0,0,1,6.86,1.823,1.345,1.345,0,0,0,1.4.007,16.432,16.432,0,0,1,15.5.014,1.345,1.345,0,0,0,1.394-.031,15.707,15.707,0,0,1,6.661-1.8c.292-.013.584,0,.934,0Zm-16.742-38.147c-1.076-5.1-5.535-7.042-9.1-6.042a7.2,7.2,0,0,0-5.023,9,6.962,6.962,0,0,0,3.535,4.332,7.222,7.222,0,0,0,7.229-.225l3.338,3.333,3.315-3.287c4.69,2.053,8.9.668,10.584-3.4a7.2,7.2,0,0,0-4.061-9.474,6.98,6.98,0,0,0-5.589.163A7.475,7.475,0,0,0-2097.462,1147.969Z"/>
      <path id="Path_131" data-name="Path 131" d="M-1889.594,1175.521h6.4v11.018h10.7a14.4,14.4,0,0,0,.086-2.654c.019-.941,0-1.883,0-2.825v-5.407a31.458,31.458,0,0,1,6.438-.063v28.489a30.06,30.06,0,0,1-6.409.061v-11.693a94.756,94.756,0,0,0-10.8-.091c-.018,3.9,0,7.816-.011,11.715a30.773,30.773,0,0,1-6.4.082Z" transform="translate(-176.412 -31.302)"/>
      <path id="Path_132" data-name="Path 132" d="M-1383.042,1233.335l-.335-2.8c-.321.368-.515.583-.7.805a8.043,8.043,0,0,1-9.579,1.8,6.733,6.733,0,0,1-3.37-4.9,16.52,16.52,0,0,1-.348-3.2c-.041-3.9-.018-7.8-.016-11.7,0-.2.031-.395.052-.657h6.455v1.106c0,3.261-.017,6.523.012,9.784a12.2,12.2,0,0,0,.259,2.6,2.954,2.954,0,0,0,3.231,2.559,3.532,3.532,0,0,0,3.244-3.073,11.471,11.471,0,0,0,.043-1.309q0-5.245,0-10.49v-1.168h6.5v20.658A23.62,23.62,0,0,1-1383.042,1233.335Z" transform="translate(-562.808 -60.527)"/>
      <path id="Path_133" data-name="Path 133" d="M-1757.3,1209.651a27.863,27.863,0,0,1,3.271.528c4.185,1.177,6.533,4.035,7.283,8.257a12.793,12.793,0,0,1-.241,5.4,10.135,10.135,0,0,1-8.6,7.61,12.564,12.564,0,0,1-5.779-.418,9.7,9.7,0,0,1-6.938-8.34,13,13,0,0,1,.244-5.105,10.056,10.056,0,0,1,9.031-7.724c.568-.056,1.14-.083,1.709-.123Zm3.915,11.055a11.72,11.72,0,0,0-.006-1.21,7.1,7.1,0,0,0-1.274-3.67,3.553,3.553,0,0,0-5.6-.151,5.873,5.873,0,0,0-1,1.842,9.853,9.853,0,0,0-.029,6.247,7.079,7.079,0,0,0,.922,1.777,3.188,3.188,0,0,0,1.88,1.28,3.559,3.559,0,0,0,4.132-1.75A7.806,7.806,0,0,0-1753.389,1220.706Z" transform="translate(-271.514 -58.148)"/>
      <path id="Path_134" data-name="Path 134" d="M-1645.377,1209.581a29.892,29.892,0,0,1,3.461.59c4.1,1.185,6.383,4.019,7.136,8.153a12.655,12.655,0,0,1-.156,5.1,10.1,10.1,0,0,1-8.71,7.969,13.069,13.069,0,0,1-5.683-.4,9.837,9.837,0,0,1-7.028-8.6,14.157,14.157,0,0,1,.29-4.907A10.054,10.054,0,0,1-1647,1209.8c.535-.051,1.073-.078,1.609-.117Zm-4.4,11.081a8.008,8.008,0,0,0,1.09,4.444,3.606,3.606,0,0,0,4.283,1.608,3.942,3.942,0,0,0,2.394-2.442,10.373,10.373,0,0,0,.455-5.755,6.215,6.215,0,0,0-1.085-2.689,3.41,3.41,0,0,0-3.14-1.467,3.6,3.6,0,0,0-3.055,2.014A8.484,8.484,0,0,0-1649.78,1220.662Z" transform="translate(-359.445 -58.093)"/>
      <path id="Path_135" data-name="Path 135" d="M-1153.465,1222.9H-1166.8a3.06,3.06,0,0,0,1.129,2.492,5.682,5.682,0,0,0,3.286,1.4,16.773,16.773,0,0,0,6.2-.483c.29-.072.579-.149.968-.249.283,1.425.557,2.8.84,4.22a2.528,2.528,0,0,1-.494.308,19.1,19.1,0,0,1-10.825.655,9.251,9.251,0,0,1-7.249-8.214,12.885,12.885,0,0,1,1.02-7.287,9.96,9.96,0,0,1,10.354-5.833c5.678.471,7.675,4.594,8.215,8.262A13.422,13.422,0,0,1-1153.465,1222.9Zm-13.33-4.555a51.066,51.066,0,0,0,7.5-.053c.1-2.457-1.4-4.135-3.641-4.095A3.981,3.981,0,0,0-1166.8,1218.349Z" transform="translate(-738.904 -58.319)"/>
      <path id="Path_136" data-name="Path 136" d="M-1481.418,1230.455a4.321,4.321,0,0,1,.054-.591c.326-1.3.66-2.6,1.013-3.98.333.135.6.242.867.353a11.913,11.913,0,0,0,5.089,1.079,4.55,4.55,0,0,0,1.38-.251,1.562,1.562,0,0,0,.441-2.749,6.426,6.426,0,0,0-1.5-.806c-.71-.3-1.468-.5-2.166-.826a13.832,13.832,0,0,1-2.285-1.268,5.655,5.655,0,0,1-1.216-8.273,6.27,6.27,0,0,1,2.2-1.891c3.6-1.813,7.2-1.407,10.922-.018l-1.09,4.353c-1.116-.312-2.135-.647-3.177-.87a7.045,7.045,0,0,0-1.9-.1,2.893,2.893,0,0,0-1.233.383,1.394,1.394,0,0,0-.234,2.3,3.769,3.769,0,0,0,1.018.639c.738.324,1.509.573,2.248.894a22.748,22.748,0,0,1,2.363,1.124,6.163,6.163,0,0,1-.148,10.559,10.919,10.919,0,0,1-4.716,1.329A15.628,15.628,0,0,1-1481.418,1230.455Z" transform="translate(-496.849 -58.451)"/>
      <path id="Path_137" data-name="Path 137" d="M-1532.845,1205.285v4.686c-.029.024-.1.118-.183.14a11.81,11.81,0,0,1-6.174.182,5.227,5.227,0,0,1-4-3.987,11.428,11.428,0,0,1-.393-2.581c-.044-4.878-.08-9.757-.024-14.635a6.2,6.2,0,0,1,5.771-6.168,4.712,4.712,0,0,1,.534.028v6.263h4.6v4.768h-4.408c-.106.2-.162.259-.163.316q-.012,3.986-.015,7.972c0,.034,0,.067.005.1.182,2.359,1,3.061,3.375,2.918C-1533.589,1205.268-1533.261,1205.285-1532.845,1205.285Z" transform="translate(-447.998 -37.161)"/>
      <path id="Path_138" data-name="Path 138" d="M-1227.335,1182.961v6.231h4.473a16.7,16.7,0,0,1,.086,4.8h-4.465c-.035.3-.071.463-.071.626,0,2.49-.01,4.979.012,7.469a6.576,6.576,0,0,0,.206,1.495,1.99,1.99,0,0,0,1.987,1.687c.7.051,1.4.009,2.255.009.021.769.049,1.558.06,2.347.01.771,0,1.543,0,2.375a5.566,5.566,0,0,1-.75.255,12.19,12.19,0,0,1-5.694.03,5.255,5.255,0,0,1-3.978-4.008,12.093,12.093,0,0,1-.391-2.683c-.045-4.811-.024-9.622-.043-14.433a6.313,6.313,0,0,1,5.818-6.247A3.634,3.634,0,0,1-1227.335,1182.961Z" transform="translate(-691.362 -37.159)"/>
      <path id="Path_139" data-name="Path 139" d="M-1284.084,1212.592h6.362v20.658a32.151,32.151,0,0,1-6.362.041Z" transform="translate(-651.766 -60.456)"/>
      <path id="Path_140" data-name="Path 140" d="M-1282.5,1174.129a3.372,3.372,0,0,1-3.583-3.969,3.471,3.471,0,0,1,.365-1.141,3.831,3.831,0,0,1,4.853-1.474,3.451,3.451,0,0,1,1.824,4.311A3.446,3.446,0,0,1-1282.5,1174.129Z" transform="translate(-650.17 -24.835)"/>
      <path id="Path_141" data-name="Path 141" d="M-1050.559,1213.536c-.354.975-.711,1.949-1.062,2.926-.093.258-.173.582-.514.484-.171-.049-.332-.3-.4-.5a22.459,22.459,0,0,0-1.191-2.888c-.059.966-.126,1.931-.174,2.9-.023.456-.158.706-.724.475l.357-4.493c.916-.226.925-.229,1.206.531.336.908.655,1.823,1.046,2.916.4-1.112.769-2.051,1.072-3.01.187-.592.522-.717,1.171-.489.115,1.488.233,3.011.353,4.547-.5.193-.724.063-.754-.379-.039-.57-.059-1.142-.092-1.713-.025-.427-.056-.854-.084-1.281Z" transform="translate(-831.901 -60.212)"/>
      <path id="Path_142" data-name="Path 142" d="M-1072.938,1212.23a30.05,30.05,0,0,1,3.736.006c-.272.865-.978.354-1.467.736v3.88c-.513.179-.738.073-.738-.4q0-1.16,0-2.32c0-.4,0-.8,0-1.1C-1071.83,1212.518-1072.64,1213.123-1072.938,1212.23Z" transform="translate(-817.526 -60.129)"/>
      <path id="Path_143" data-name="Path 143" d="M-2085.91,1175.51c-1.314,1.571-1.432,2.851-.359,3.89q1.56,1.511,3.817-.407a4.486,4.486,0,0,1-1.972,5.107,4.756,4.756,0,0,1-5.94-.617,4.749,4.749,0,0,1-.719-5.928A4.514,4.514,0,0,1-2085.91,1175.51Z" transform="translate(-17.665 -31.18)"/>
      <path id="Path_144" data-name="Path 144" d="M-2020.991,1175.707a4.791,4.791,0,0,1,5.434,2.379,4.815,4.815,0,0,1-.9,5.659,4.807,4.807,0,0,1-5.591.8,4.752,4.752,0,0,1-2.373-5.365,5.27,5.27,0,0,1,.45.337,2.416,2.416,0,0,0,3.5.051,2.42,2.42,0,0,0-.113-3.432C-2020.686,1176.027-2020.795,1175.913-2020.991,1175.707Z" transform="translate(-70.454 -31.385)"/>
    </g>
  </g>
</svg>
