<svg xmlns="http://www.w3.org/2000/svg" width="314" height="108" viewBox="0 0 314 108">
  <g id="hubspot" transform="translate(-2045 -917)">
    <rect id="Rectangle_18" data-name="Rectangle 18" width="314" height="108" rx="43" transform="translate(2045 917)" fill="#fff"/>
    <g id="Group_95" data-name="Group 95" transform="translate(6534.29 3641.855)">
      <path id="Path_284" data-name="Path 284" d="M-4418.667-2238.833c.67.289.673.577,0,.865Z" transform="translate(0 -405.036)" fill="#333"/>
      <path id="Path_285" data-name="Path 285" d="M-4398.97-2671.211q0-14.586,0-29.173c0-1.946,2.246-3.984,4.635-4.11,1.052-.055,2.108-.016,3.162-.016q49.37,0,98.74.019a5.416,5.416,0,0,0,2.958-.819c14.336-8.682,33.818-7.013,46.358,3.907,10.1,8.8,14.778,19.971,14.03,33.24a38.309,38.309,0,0,1-9.375,23.121,39.352,39.352,0,0,1-25.079,13.764,39.205,39.205,0,0,1-25.937-5.218,5.589,5.589,0,0,0-2.962-.8q-50.16.027-100.321.014c-.431,0-.862.007-1.292-.007a4.721,4.721,0,0,1-4.9-5.029q-.015-14.445,0-28.889Zm108.218,32.257c.465.24.947.451,1.395.723a38.132,38.132,0,0,0,25.051,5.466,38.371,38.371,0,0,0,33.633-40.915c-1.668-24.893-27.027-41.732-50.615-33.654a61.455,61.455,0,0,0-9.437,4.5c-.477-.02-.956-.057-1.434-.057q-50.531,0-101.062.007c-3.184,0-4.17,1-4.17,4.233q0,27.673,0,55.346c0,3.487.919,4.412,4.435,4.412q50.245,0,100.486,0C-4291.9-2638.9-4291.326-2638.934-4290.751-2638.953Z" transform="translate(-16.899)" fill="#efefee"/>
      <path id="Path_286" data-name="Path 286" d="M-4281.2-2590.818c-.574.02-1.148.056-1.722.056q-50.243,0-100.486,0c-3.515,0-4.435-.925-4.435-4.411q0-27.673,0-55.346c0-3.228.987-4.232,4.171-4.233q50.531-.006,101.062-.006c.478,0,.956.037,1.434.057a46.775,46.775,0,0,0-9.481,9.308,38.449,38.449,0,0,0,1.405,47.061A52.44,52.44,0,0,0-4281.2-2590.818Zm-46.17-44.378a1.588,1.588,0,0,1,1.454.34c1.613,1.2,3.214,2.411,4.833,3.6a.769.769,0,0,1,.245,1.2,4.914,4.914,0,0,0,.7,6.534,1.034,1.034,0,0,1,.119,1.517c-.49.683-.822,1.432-1.779,1.743a1.453,1.453,0,0,0-.97,1.72,1.491,1.491,0,0,0,1.2,1.27c1.241.257,1.937-.31,2.039-1.707a3.127,3.127,0,0,1,3.074-3.111,4.954,4.954,0,0,0,4.8-4.153,4.87,4.87,0,0,0-3.018-5.568c-1.1-.4-1.168-1.028-1.16-1.939a2.391,2.391,0,0,1,.732-1.5,1.858,1.858,0,0,0,.068-2.162c-.386-.721-.9-.765-1.489-.188-.057.056-.26-.022-.39-.059-1.088-.3-1.72.205-1.635,1.336a3.076,3.076,0,0,0,.731,1.521,2.075,2.075,0,0,1,.033,2.531c-.657.8-1.505.411-2.254-.183-1.538-1.216-3.106-2.4-4.687-3.553a2.1,2.1,0,0,1-.965-1.477,2.108,2.108,0,0,0-2.442-1.87,2.165,2.165,0,0,0-1.7,2.312C-4329.735-2635.823-4328.846-2635.152-4327.374-2635.2Zm-50.866,6.215c0,1.82.029,3.642-.013,5.462-.019.834.068,1.323,1.127,1.316s.961-.58,1-1.285c.069-1.412-.643-3.3.308-4.114.987-.851,2.849-.149,4.32-.273.925-.078,1.153.336,1.112,1.175-.055,1.147.032,2.3-.031,3.449-.049.873.348,1.048,1.111,1.032.673-.014,1.076-.117,1.07-.934q-.042-5.75,0-11.5c.008-.9-.429-.992-1.155-1s-1.052.194-1.021.973c.047,1.2-.018,2.4.022,3.593.025.756-.149,1.166-1.024,1.125-1.243-.058-2.492-.045-3.737,0-.746.025-1.029-.243-1-1,.044-1.2-.026-2.4.021-3.593.031-.78-.185-1.12-1.038-1.108-.8.01-1.1.24-1.083,1.068C-4378.208-2632.72-4378.241-2630.851-4378.24-2628.981Zm44.131,5.219c0,1.348.021,2.449-.007,3.549-.021.818-.066,1.467,1.136,1.455,1.267-.012,1.064-.778,1.063-1.529,0-.527.032-1.055-.007-1.579-.06-.818.181-1.024.968-.659a4.717,4.717,0,0,0,4.035-.01,5.09,5.09,0,0,0,2.944-5.652,5.087,5.087,0,0,0-5.046-4.071,5.018,5.018,0,0,0-4.953,4.159A30.735,30.735,0,0,0-4334.109-2623.762Zm-21.082-7.1h.009c0,1.29-.053,2.583.012,3.87a5.037,5.037,0,0,0,5.378,4.79,5.073,5.073,0,0,0,4.753-5.286,5.13,5.13,0,0,0-5.367-4.839c-.934.012-1.97,1.106-2.553.363-.468-.6-.148-1.838-.112-2.792.031-.839-.444-.888-1.091-.893-.667-.006-1.084.081-1.045.916C-4355.146-2633.442-4355.191-2632.149-4355.191-2630.859Zm15.09,8.718c2.691.049,4.236-1.131,4.607-3.52.291-1.875-1.089-3.731-3.3-4.441-.455-.146-.923-.262-1.362-.447-.645-.271-1.242-.666-1.118-1.474a1.664,1.664,0,0,1,1.6-1.412,2.174,2.174,0,0,1,1.909.765c.967.969,1.229-.345,1.742-.665.7-.434.073-.8-.268-1.08a5.213,5.213,0,0,0-4.049-1.066,3.557,3.557,0,0,0-3.519,3.488,3.577,3.577,0,0,0,2.836,3.791,16.6,16.6,0,0,1,1.79.508c.812.356,1.578.867,1.359,1.93s-1.079,1.4-2.058,1.426a2.1,2.1,0,0,1-1.939-.728c-.867-1.249-1.237.048-1.732.343-.749.445-.512,1.022.022,1.518A5.015,5.015,0,0,0-4340.1-2622.141Zm-25.932-6.45c0,.765-.006,1.531,0,2.295.025,2.7,1.387,4.087,4.036,4.121,2.771.035,4.515-1.448,4.6-4,.059-1.719-.028-3.443.025-5.163.026-.825-.257-1.083-1.068-1.058-.747.023-1.144.161-1.112,1.034.058,1.623.04,3.251.006,4.875a1.936,1.936,0,0,1-2.243,2.163,1.926,1.926,0,0,1-2.087-2.179c-.031-1.577-.046-3.156.005-4.732.028-.853-.226-1.167-1.125-1.183-1-.017-1.078.488-1.048,1.249C-4366.008-2630.313-4366.034-2629.451-4366.033-2628.591Zm58.244-6.713a2.443,2.443,0,0,0-2.242,2.962c.167,2.428.023,4.875.052,7.314.028,2.312,1.5,3.416,3.728,2.835.894-.233.865-1.107,1.021-1.725.172-.684-.56-.455-.912-.478a1.461,1.461,0,0,1-1.518-1.687c0-.765.054-1.535-.014-2.295-.1-1.066.061-1.807,1.4-1.6.644.1.857-.284.792-.863-.053-.467.234-1.267-.609-1.157-1.711.222-1.56-.846-1.538-1.935A2.105,2.105,0,0,0-4307.789-2635.3Zm-6.867,27.275-.336.037c-.48-1.442-.969-2.88-1.435-4.327-.149-.463-.371-.737-.914-.691-.6.051-.5.476-.5.836q-.015,2.587,0,5.175c0,.306-.11.789.379.767.442-.019.368-.482.37-.8.007-1.272,0-2.545,0-3.855.613.122.566.527.667.815.38,1.085.755,2.172,1.095,3.27a.783.783,0,0,0,.949.642c.546-.068.509-.48.509-.865,0-1.725,0-3.449-.006-5.174,0-.314.071-.77-.426-.739s-.341.5-.345.8C-4314.667-2610.774-4314.656-2609.4-4314.656-2608.029Zm6.528-1.561h-.005c0,.719-.038,1.44.014,2.155.031.419-.3,1.172.371,1.172s.277-.76.386-1.176a.642.642,0,0,0,0-.286c-.207-.919.458-1.117,1.1-1.253.783-.166,1.1.331,1.291,1.012.17.606-.35,1.765.676,1.659.533-.055-.015-1.229.03-1.9a1.177,1.177,0,0,0-.268-.794c-.312-.344-.323-.538-.024-.937a1.861,1.861,0,0,0-.047-2.508c-.856-.926-2.119-.723-3.125-.481-.8.194-.294,1.24-.385,1.9A10.582,10.582,0,0,0-4308.128-2609.589Zm-60.012-.044v1.146c0,.43-.032.863.009,1.289.034.34-.212.923.313.949.657.032.361-.617.467-.984.146-.51-.429-1.238.575-1.5,1.445-.379,1.515-.36,1.814,1.665.057.377.052.882.543.866.707-.024.278-.569.249-.865-.072-.741.091-1.563-.561-2.149-.275-.248-.077-.411.063-.582a1.9,1.9,0,0,0,.072-2.617,2.866,2.866,0,0,0-3.1-.5c-.97.275-.277,1.409-.44,2.144A5.189,5.189,0,0,0-4368.14-2609.634Zm40.546.04c0,.715-.035,1.433.014,2.145.029.424-.28,1.178.364,1.182s.29-.755.388-1.175a.35.35,0,0,0,0-.143c-.229-1.092.589-1.3,1.315-1.373.9-.09,1.033.641,1.082,1.353a5.756,5.756,0,0,0,.143,1.125.427.427,0,0,0,.58.27c.231-.079.217-.281.17-.47-.19-.782.03-1.68-.482-2.348-.3-.394-.279-.564-.006-.929a1.822,1.822,0,0,0-.061-2.49,3.018,3.018,0,0,0-3.108-.47c-.835.215-.283,1.239-.386,1.893A9.113,9.113,0,0,0-4327.594-2609.594Zm-17.409-.092h-.008q0,1.36,0,2.72c0,.408.067.7.574.817,2.029.479,3.4-.431,3.616-2.525a9.663,9.663,0,0,0-.02-2.425c-.242-1.581-1.353-2.183-3.4-1.91-1.48.2-.5,1.357-.733,2.043A4.22,4.22,0,0,0-4345-2609.685Zm-24.25-3.331a20.514,20.514,0,0,1-2.154-.013c-1.089-.13-1.54.213-1.448,1.386a26.825,26.825,0,0,1,0,4.011c-.085,1.19.311,1.719,1.511,1.486.619-.12,1.746.346,1.753-.321.009-.778-1.087-.347-1.68-.377-1.043-.053-.751-.777-.8-1.337-.054-.6-.062-1.134.822-1.116.522.01,1.471.29,1.483-.331.016-.769-.917-.366-1.4-.37-.974,0-.893-.61-.909-1.248s.046-1.109.89-1.111C-4370.64-2612.36-4369.965-2612.055-4369.252-2613.017Zm40.492,6.331c-.5-1.852-.981-3.655-1.473-5.455-.111-.4-.151-.869-.759-.874s-.658.457-.77.861c-.461,1.659-.922,3.32-1.355,4.986-.082.313-.487.779.106.948.53.152.621-.365.646-.731.085-1.245.912-1.259,1.831-1.166s.656.926.907,1.431c.136.273.233.539.592.492C-4328.7-2606.237-4328.743-2606.5-4328.76-2606.686Zm19.252-6.013c-2.386-1-3.319-.465-3.325,1.9,0,.766,0,1.533,0,2.3,0,2.569.078,2.635,2.638,2.358.272-.03.656.052.685-.328.03-.4-.355-.348-.627-.385-1.98-.27-1.98-.27-1.843-2.217.455-.017.955.271,1.357-.082.289-.254,1.057.128.915-.586-.1-.48-.653-.311-1-.281-.906.078-1.368-.088-1.383-1.2-.018-1.251.683-1.115,1.474-1.125C-4310.235-2612.353-4309.732-2612.129-4309.508-2612.7Zm-27.845,3.158c0,.861-.013,1.721.007,2.582.006.3-.135.773.391.738.45-.03.417-.467.393-.791-.074-1-.089-1.911,1.344-1.824.239.015.49-.264.746-.385a1.962,1.962,0,0,0,1-2.544c-.273-1.112-1.579-1.583-3.286-1.24-1.168.235-.438,1.159-.571,1.75A8,8,0,0,0-4337.353-2609.541Zm-8.97-3.284c-3.218-.646-3.354-.542-3.356,2.455,0,.671-.011,1.341,0,2.011.049,2.4-.513,2.208,2.353,2.206.347,0,.956.174.958-.313.005-.634-.649-.328-1.023-.4-.614-.116-1.49.381-1.531-.888-.036-1.08.084-1.778,1.416-1.564.323.052.91.222.963-.3.062-.587-.523-.409-.858-.409-.834,0-1.549.116-1.539-1.2.011-1.374.822-1.1,1.6-1.124C-4346.984-2612.355-4346.546-2612.191-4346.322-2612.825Zm-31.287,3.182a6.248,6.248,0,0,0,.282,2.261,1.8,1.8,0,0,0,1.9,1.22,1.636,1.636,0,0,0,1.614-1.375c.087-.375.448-.93-.192-1.071-.563-.123-.413.508-.523.825-.171.489-.421.876-.987.884-.628.009-.933-.406-1.1-.948a7.673,7.673,0,0,1-.118-2.844c.045-.676.18-1.394.982-1.578.744-.171,1.157.258,1.329.961a.374.374,0,0,0,.531.307c.371-.149.241-.452.149-.722a1.72,1.72,0,0,0-1.556-1.283,1.77,1.77,0,0,0-1.9.986A4.809,4.809,0,0,0-4377.609-2609.643Zm24.82-3.364c-1,0-1.833,0-2.667,0-.252,0-.506.1-.509.384-.016,2.005-.014,4.01-.011,6.016a.372.372,0,0,0,.352.383c.3.027.412-.185.419-.447a8.721,8.721,0,0,0-.006-1.288c-.127-1.006.15-1.545,1.292-1.353.32.054.894.165.848-.418-.034-.425-.541-.327-.843-.291-.963.115-1.3-.2-1.329-1.237-.026-1.128.565-1.1,1.33-1.094C-4353.568-2612.348-4353.127-2612.184-4352.789-2613.007Zm-10.681.138c-.028.373.132.523.325.494,1.249-.183,1.409.51,1.354,1.524-.064,1.194-.04,2.394,0,3.59.011.362-.283,1.016.393,1.005.5-.008.35-.594.354-.95.017-1.245.035-2.491,0-3.736-.024-.845-.006-1.575,1.162-1.415a.368.368,0,0,0,.442-.273.284.284,0,0,0-.3-.372A17.44,17.44,0,0,0-4363.47-2612.869Zm40.4.18c2.357.053,1.77,1.673,1.79,2.939.015.956,0,1.911.013,2.867,0,.269-.065.643.345.651.38.009.406-.333.408-.624.007-1.1.06-2.2-.005-3.3-.075-1.234-.052-2.326,1.582-2.41a2.455,2.455,0,0,0,.056-.391A12.24,12.24,0,0,0-4323.068-2612.689Zm-27.936,3.253h-.012c0-1,0-2,0-3,0-.243-.056-.5-.357-.518s-.367.242-.368.489q-.011,2.859-.009,5.717c0,.24.037.518.352.507.383-.013.4-.323.4-.622C-4351.006-2607.721-4351-2608.578-4351-2609.436Zm-7.348-.239c0,.951,0,1.9,0,2.853,0,.284.015.62.411.6.272-.011.377-.255.377-.514q0-2.852-.012-5.705c0-.245-.06-.5-.355-.522-.428-.04-.416.3-.419.576C-4358.356-2611.481-4358.35-2610.578-4358.352-2609.675Z" transform="translate(-26.446 -48.135)" fill="#586772"/>
      <path id="Path_287" data-name="Path 287" d="M-3738.048-2630.01a52.461,52.461,0,0,1-8.049-7.516,38.448,38.448,0,0,1-1.4-47.061,46.741,46.741,0,0,1,9.48-9.307,61.519,61.519,0,0,1,9.437-4.5c23.588-8.078,48.947,8.761,50.616,33.654a38.373,38.373,0,0,1-33.634,40.915,38.127,38.127,0,0,1-25.05-5.466C-3737.1-2629.558-3737.582-2629.77-3738.048-2630.01Zm11.208-36.88a5.266,5.266,0,0,1-3.762-1.768,3.393,3.393,0,0,1,.224-5.146,71.1,71.1,0,0,1,6.465-4.529c.639-.426,1.9-.732,1.533-1.58-.414-.965-1.591-.386-2.449-.227a6.669,6.669,0,0,0-.818.269c-2.368.766-4.755,1.477-7.1,2.316a4.638,4.638,0,0,1-3.731-.211c-3.336-1.535-3.35-1.506-5.041,1.747-2.076,3.993-4.161,7.98-6.22,11.982-.381.74-.987,1.569.1,2.247,2.317,1.441,4.65,2.855,6.971,4.29.434.269.691.256,1.059-.2,2.093-2.608,3.843-2.557,5.748.133.265.374.366.518.853.2,2.414-1.594,3.821-1.368,5.486.831.3.4.493.542,1.03.361,3.226-1.088,3.6-.966,5.671,1.743a1.9,1.9,0,0,0,1.643.907c2.19.012,3.3.972,3.774,3.154a1.931,1.931,0,0,0,.6,1.244c1.788,1.444,3.526,2.949,5.346,4.35a2.25,2.25,0,0,0,3.51-.829c.618-1.116.339-2.21-.894-3.282-3.289-2.858-6.606-5.683-9.875-8.563-.582-.513-1.835-1.107-1.058-1.98.747-.839,1.384.415,1.925.868,4.184,3.5,8.325,7.053,12.468,10.6.906.776,1.831,1.238,2.974.5,1.642-1.063,1.688-2.739.066-4.177-4.191-3.715-8.412-7.4-12.589-11.129-.5-.446-1.586-.978-.8-1.79.667-.687,1.267.276,1.762.7q7.535,6.435,15.024,12.923c.926.8,1.852,1.234,2.957.465,1.168-.812,1.035-1.921.618-3.09a3.554,3.554,0,0,0-1.133-1.451q-9.056-7.965-18.108-15.936a1.6,1.6,0,0,0-1.921-.325c-2.973,1.2-5.976,2.329-8.984,3.439A12.378,12.378,0,0,1-3726.84-2666.89Zm-3.593-4.255a2.155,2.155,0,0,0,.7,1.523c1.578,1.719,3.456,1.6,5.417.863,2.374-.894,4.728-1.836,7.108-2.715,1.517-.56,3.12-1.875,4.522-1.493,1.45.4,2.58,2.014,3.816,3.135q8.027,7.279,16.031,14.583c.48.438.857.824,1.573.262,2.182-1.712,4.41-3.366,6.641-5.015a1,1,0,0,0,.4-1.437q-3.395-7.44-6.71-14.917c-.321-.723-.681-.925-1.411-.576-.513.245-1.1.33-1.628.547a4.156,4.156,0,0,1-4.057-.451c-2.274-1.411-4.794-2.457-6.959-4.007a7.751,7.751,0,0,0-8.125-.947c-2.292.936-4.977,1.085-7.064,2.307-3.364,1.972-6.375,4.545-9.547,6.849A1.809,1.809,0,0,0-3730.433-2671.146Zm13.953,21.286c-.015-1.363-.514-2.211-1.6-2.521a2.133,2.133,0,0,0-2.788,1.123,49.932,49.932,0,0,0-2.253,6.168c-.514,1.878,1.125,3.164,3.031,2.688,1.215-.3,1.356-1.265,1.7-2.172A55.708,55.708,0,0,0-3716.48-2649.86Zm-9.882,4.335a2.032,2.032,0,0,0,1.975-1.2c.819-2.041,1.63-4.093,2.281-6.191a2.06,2.06,0,0,0-1.376-2.654,2.174,2.174,0,0,0-2.918,1.1,58.274,58.274,0,0,0-2.235,6.054A2.223,2.223,0,0,0-3726.362-2645.525Zm-4.193-11.677a1.867,1.867,0,0,0-1.667.676,10.787,10.787,0,0,0-1.925,5.405,2,2,0,0,0,1.683,2.046,2.057,2.057,0,0,0,2.5-.914,14.754,14.754,0,0,0,1.7-4.693A2.21,2.21,0,0,0-3730.555-2657.2Zm-3.887,1.362a2.343,2.343,0,0,0-1.083-2.322,2.3,2.3,0,0,0-2.441-.023,3.325,3.325,0,0,0-1.493,2.562,2.415,2.415,0,0,0,1.5,3.105,2.351,2.351,0,0,0,3.016-1.685C-3734.708-2654.82-3734.553-2655.468-3734.442-2655.84Zm21.874,11.42c-.241-1.181-1.228-1.929-1.966-2.841-.615-.759-1.084-.942-1.487.222a10.09,10.09,0,0,1-1.3,2.686,1.18,1.18,0,0,0-.064,1.574c.8.747,1.7,1.5,2.922,1.091S-3712.792-2643.152-3712.568-2644.42Z" transform="translate(-569.602 -8.943)" fill="#e78231"/>
      <path id="Path_288" data-name="Path 288" d="M-3976.712-2542.171c-1.472.044-2.361-.626-2.471-1.838a2.166,2.166,0,0,1,1.705-2.312,2.107,2.107,0,0,1,2.441,1.87,2.1,2.1,0,0,0,.966,1.477c1.581,1.158,3.149,2.337,4.687,3.554.75.593,1.6.978,2.254.183a2.074,2.074,0,0,0-.032-2.531,3.083,3.083,0,0,1-.731-1.521c-.086-1.131.547-1.639,1.634-1.336.13.036.333.114.391.059.588-.576,1.1-.533,1.489.188a1.858,1.858,0,0,1-.067,2.162,2.4,2.4,0,0,0-.733,1.5c-.008.912.056,1.537,1.16,1.94a4.869,4.869,0,0,1,3.018,5.567,4.951,4.951,0,0,1-4.794,4.153,3.126,3.126,0,0,0-3.075,3.11c-.1,1.4-.8,1.964-2.04,1.707a1.491,1.491,0,0,1-1.2-1.27,1.453,1.453,0,0,1,.971-1.72c.957-.311,1.289-1.061,1.778-1.744a1.033,1.033,0,0,0-.119-1.517,4.914,4.914,0,0,1-.7-6.534.769.769,0,0,0-.244-1.2c-1.618-1.19-3.22-2.405-4.833-3.6A1.59,1.59,0,0,0-3976.712-2542.171Zm10.853,10.9a2.988,2.988,0,0,0,2.7-2.825,2.892,2.892,0,0,0-2.786-2.835,2.765,2.765,0,0,0-2.845,2.9A3.025,3.025,0,0,0-3965.859-2531.272Z" transform="translate(-377.109 -141.161)" fill="#e78231"/>
      <path id="Path_289" data-name="Path 289" d="M-4320.257-2513.475c0-1.87.033-3.739-.016-5.606-.021-.828.286-1.058,1.083-1.069.854-.011,1.069.329,1.038,1.108-.047,1.2.023,2.4-.021,3.593-.028.753.255,1.021,1,1,1.245-.042,2.494-.056,3.737,0,.875.041,1.05-.37,1.024-1.125-.04-1.2.025-2.4-.021-3.593-.031-.779.3-.977,1.02-.973s1.163.1,1.156,1q-.053,5.751,0,11.5c.006.817-.4.92-1.07.934-.762.016-1.159-.159-1.11-1.032.063-1.146-.024-2.3.031-3.449.04-.839-.187-1.253-1.112-1.175-1.472.123-3.332-.578-4.32.272-.95.818-.238,2.7-.307,4.114-.035.706.062,1.278-1,1.285s-1.146-.482-1.126-1.316C-4320.227-2509.833-4320.255-2511.654-4320.257-2513.475Z" transform="translate(-84.43 -163.642)" fill="#fdfbf9"/>
      <path id="Path_290" data-name="Path 290" d="M-4009.285-2487.707a30.883,30.883,0,0,1,.132-4.337,5.019,5.019,0,0,1,4.954-4.159,5.087,5.087,0,0,1,5.046,4.07,5.089,5.089,0,0,1-2.944,5.652,4.716,4.716,0,0,1-4.035.01c-.786-.365-1.028-.158-.967.659.039.524.006,1.052.006,1.579,0,.75.2,1.516-1.063,1.529-1.2.011-1.157-.637-1.136-1.455C-4009.264-2485.258-4009.285-2486.359-4009.285-2487.707Zm8.069-3.492a2.927,2.927,0,0,0-2.938-2.909,2.976,2.976,0,0,0-2.965,3.045,2.947,2.947,0,0,0,2.957,2.9A2.915,2.915,0,0,0-4001.216-2491.2Z" transform="translate(-351.271 -184.191)" fill="#efefee"/>
      <path id="Path_291" data-name="Path 291" d="M-4157.845-2515.283c0-1.291.044-2.583-.016-3.87-.039-.835.377-.921,1.045-.916.647.006,1.123.055,1.092.893-.037.953-.356,2.2.111,2.792.583.742,1.62-.352,2.553-.363a5.13,5.13,0,0,1,5.367,4.839,5.072,5.072,0,0,1-4.752,5.286,5.037,5.037,0,0,1-5.379-4.79c-.064-1.287-.011-2.58-.011-3.87Zm5.1.629a3.041,3.041,0,0,0-3.042,3,3.064,3.064,0,0,0,2.934,2.969,3.011,3.011,0,0,0,3.1-2.926A3.016,3.016,0,0,0-4152.748-2514.654Z" transform="translate(-223.792 -163.711)" fill="#fdfbf9"/>
      <path id="Path_292" data-name="Path 292" d="M-4075.488-2505.866a5.013,5.013,0,0,1-3.487-1.065c-.534-.495-.771-1.072-.022-1.518.5-.295.866-1.592,1.732-.343a2.1,2.1,0,0,0,1.939.727c.979-.031,1.837-.352,2.059-1.426s-.547-1.574-1.359-1.93a16.547,16.547,0,0,0-1.791-.508,3.578,3.578,0,0,1-2.836-3.791,3.558,3.558,0,0,1,3.52-3.488,5.212,5.212,0,0,1,4.049,1.066c.341.276.966.646.269,1.08-.513.319-.775,1.634-1.741.665a2.177,2.177,0,0,0-1.91-.765,1.664,1.664,0,0,0-1.6,1.412c-.125.808.473,1.2,1.118,1.474.439.185.907.3,1.362.447,2.212.71,3.592,2.566,3.3,4.442C-4071.253-2507-4072.8-2505.817-4075.488-2505.866Z" transform="translate(-291.059 -164.41)" fill="#efefee"/>
      <path id="Path_293" data-name="Path 293" d="M-4234.223-2493.519c0-.86.025-1.722-.008-2.582-.031-.76.047-1.266,1.048-1.248.9.016,1.153.33,1.125,1.183-.052,1.576-.037,3.155-.005,4.732a1.926,1.926,0,0,0,2.086,2.179,1.937,1.937,0,0,0,2.244-2.164c.034-1.625.052-3.252-.006-4.875-.031-.873.365-1.012,1.112-1.034.813-.025,1.094.233,1.069,1.058-.053,1.719.034,3.443-.025,5.162-.087,2.556-1.83,4.04-4.6,4-2.649-.033-4.01-1.421-4.035-4.121C-4234.228-2491.989-4234.222-2492.754-4234.223-2493.519Z" transform="translate(-158.258 -183.207)" fill="#efefee"/>
      <path id="Path_294" data-name="Path 294" d="M-3837.346-2517.669a2.106,2.106,0,0,1,.16,1.376c-.021,1.089-.172,2.156,1.539,1.934.843-.109.557.691.609,1.158.065.578-.148.964-.792.863-1.339-.21-1.5.53-1.4,1.6.068.76.016,1.53.015,2.295a1.46,1.46,0,0,0,1.518,1.687c.351.023,1.085-.206.912.478-.155.618-.127,1.492-1.021,1.725-2.226.581-3.7-.524-3.729-2.835-.029-2.439.114-4.887-.052-7.314A2.443,2.443,0,0,1-3837.346-2517.669Z" transform="translate(-496.889 -165.771)" fill="#fdfbf9"/>
      <path id="Path_295" data-name="Path 295" d="M-3891.425-2355.617c0-1.372-.012-2.745.009-4.117,0-.294-.149-.765.346-.8s.423.425.425.739c.011,1.724.008,3.449.008,5.174,0,.385.036.8-.51.865a.782.782,0,0,1-.949-.642c-.34-1.1-.715-2.186-1.095-3.27-.1-.288-.056-.693-.668-.815,0,1.31,0,2.583,0,3.855,0,.322.072.785-.37.8-.489.021-.377-.461-.379-.767q-.017-2.588,0-5.175c0-.36-.1-.786.5-.836.544-.046.764.228.915.691.466,1.446.954,2.885,1.434,4.327Z" transform="translate(-449.677 -300.547)" fill="#efefee"/>
      <path id="Path_296" data-name="Path 296" d="M-3826.486-2357.871a10.578,10.578,0,0,1,.013-1.436c.091-.66-.417-1.706.385-1.9,1-.243,2.268-.446,3.125.481a1.861,1.861,0,0,1,.047,2.508c-.3.4-.289.592.024.937a1.179,1.179,0,0,1,.268.794c-.046.67.5,1.844-.03,1.9-1.027.106-.506-1.052-.677-1.659-.191-.681-.507-1.178-1.291-1.012-.639.136-1.3.334-1.1,1.254a.627.627,0,0,1,0,.286c-.109.415.28,1.176-.387,1.176s-.339-.753-.369-1.173c-.052-.715-.015-1.436-.015-2.155Zm1.626-2.755c-1.119-.088-.823.744-.872,1.364-.059.76.043,1.3,1.042,1.22.865-.073,1.367-.452,1.367-1.307C-3823.323-2360.322-3823.964-2360.65-3824.86-2360.626Z" transform="translate(-508.089 -299.853)" fill="#efefee"/>
      <path id="Path_297" data-name="Path 297" d="M-4249.459-2357.987a5.253,5.253,0,0,1,.012-1.143c.163-.734-.53-1.868.439-2.144a2.866,2.866,0,0,1,3.1.5,1.9,1.9,0,0,1-.072,2.617c-.141.172-.338.335-.063.582.651.586.488,1.408.561,2.149.029.3.457.842-.25.865-.491.017-.487-.489-.542-.866-.3-2.026-.37-2.044-1.814-1.665-1,.264-.43.991-.575,1.5-.105.367.19,1.016-.467.984-.526-.026-.28-.609-.312-.949-.042-.426-.01-.859-.01-1.288Q-4249.458-2357.414-4249.459-2357.987Zm.783-1.445c.054.566-.239,1.365.887,1.317.893-.038,1.49-.347,1.484-1.314,0-.988-.663-1.236-1.523-1.285C-4248.852-2360.772-4248.664-2360.07-4248.677-2359.432Z" transform="translate(-145.129 -299.782)" fill="#efefee"/>
      <path id="Path_298" data-name="Path 298" d="M-3963.706-2357.854a9.23,9.23,0,0,1,.013-1.429c.1-.654-.45-1.678.386-1.893a3.017,3.017,0,0,1,3.108.47,1.821,1.821,0,0,1,.061,2.49c-.273.365-.3.534.005.929.513.668.293,1.566.484,2.348.046.19.06.392-.171.471a.426.426,0,0,1-.578-.27,5.758,5.758,0,0,1-.143-1.125c-.049-.712-.178-1.443-1.082-1.354-.727.072-1.544.281-1.316,1.373a.342.342,0,0,1,0,.143c-.1.42.262,1.179-.388,1.175s-.335-.759-.364-1.183C-3963.741-2356.421-3963.705-2357.139-3963.706-2357.854Zm1.674-.179c.908.034,1.47-.346,1.476-1.306.006-.908-.581-1.193-1.384-1.279-.883-.093-1.073.379-.992,1.109C-3962.86-2358.882-3963.27-2357.953-3962.031-2358.033Z" transform="translate(-390.335 -299.874)" fill="#efefee"/>
      <path id="Path_299" data-name="Path 299" d="M-4086.441-2357.621a4.24,4.24,0,0,1,.023-1.281c.23-.686-.748-1.846.734-2.043,2.051-.273,3.161.33,3.4,1.911a9.638,9.638,0,0,1,.021,2.425c-.216,2.094-1.587,3-3.616,2.524-.507-.12-.575-.408-.574-.816q0-1.36,0-2.72Zm.786.018c0,.479-.035.96.009,1.436.052.543-.322,1.331.74,1.366.856.029,1.561-.172,1.748-1.1a7.521,7.521,0,0,0-.074-3.415c-.229-.873-.932-.981-1.7-.967-.956.018-.683.726-.713,1.248C-4085.676-2358.562-4085.654-2358.082-4085.656-2357.6Z" transform="translate(-285.007 -300.199)" fill="#efefee"/>
      <path id="Path_300" data-name="Path 300" d="M-4278.669-2360.849c-.714.961-1.388.656-1.936.658-.844,0-.906.472-.89,1.111s-.066,1.243.908,1.249c.486,0,1.418-.4,1.4.369-.013.621-.961.34-1.483.33-.884-.017-.876.52-.822,1.117.051.56-.241,1.285.8,1.337.593.03,1.689-.4,1.68.376-.008.667-1.136.2-1.754.322-1.2.233-1.6-.3-1.511-1.486a26.828,26.828,0,0,0,0-4.011c-.092-1.172.358-1.515,1.448-1.385A20.6,20.6,0,0,0-4278.669-2360.849Z" transform="translate(-117.029 -300.303)" fill="#efefee"/>
      <path id="Path_301" data-name="Path 301" d="M-3999.11-2354.277c.017.187.064.449-.274.492-.359.046-.456-.219-.593-.492-.252-.5,0-1.339-.907-1.431s-1.746-.079-1.83,1.166c-.025.366-.116.883-.646.731-.593-.169-.188-.636-.107-.948.434-1.667.895-3.327,1.356-4.986.112-.4.162-.866.771-.861s.648.472.758.874C-4000.091-2357.932-3999.609-2356.129-3999.11-2354.277Zm-2.1-5.021-.328.029c-.154.646-.316,1.291-.459,1.939-.067.305-.322.7.108.881a1.589,1.589,0,0,0,.981.02c.482-.14.238-.536.17-.84C-4000.884-2357.947-4001.048-2358.622-4001.207-2359.3Z" transform="translate(-356.097 -300.544)" fill="#efefee"/>
      <path id="Path_302" data-name="Path 302" d="M-3855.936-2361.272c-.225.57-.728.346-1.106.351-.791.01-1.492-.126-1.474,1.125.015,1.111.477,1.276,1.383,1.2.346-.03.9-.2,1,.281.142.714-.625.333-.915.586-.4.353-.9.065-1.357.082-.137,1.946-.137,1.947,1.843,2.216.272.037.658-.013.628.385-.029.379-.414.3-.685.328-2.561.278-2.635.211-2.638-2.357,0-.766-.005-1.533,0-2.3C-3859.255-2361.737-3858.322-2362.272-3855.936-2361.272Z" transform="translate(-480.019 -299.562)" fill="#efefee"/>
      <path id="Path_303" data-name="Path 303" d="M-4032.513-2357.738a8,8,0,0,1,.026-1.715c.133-.591-.6-1.516.571-1.75,1.707-.342,3.012.128,3.286,1.24a1.963,1.963,0,0,1-1,2.544c-.256.121-.506.4-.746.385-1.433-.086-1.418.824-1.344,1.824.024.325.057.761-.393.791-.526.036-.384-.441-.391-.737C-4032.526-2356.017-4032.513-2356.877-4032.513-2357.738Zm.81-1.489c.175.345-.438,1.293.771,1.263.841-.021,1.53-.2,1.572-1.225.041-1-.583-1.271-1.443-1.364C-4031.784-2360.66-4031.757-2360.052-4031.7-2359.228Z" transform="translate(-331.286 -299.937)" fill="#efefee"/>
      <path id="Path_304" data-name="Path 304" d="M-4115.608-2361.2c-.226.634-.663.47-1.014.481-.78.026-1.591-.25-1.6,1.124-.011,1.313.7,1.2,1.538,1.2.336,0,.92-.177.859.409-.054.52-.64.351-.964.3-1.331-.215-1.451.484-1.415,1.564.041,1.269.917.772,1.532.888.374.07,1.028-.236,1.024.4,0,.487-.613.313-.959.313-2.867,0-2.305.193-2.353-2.206-.014-.67,0-1.341,0-2.012C-4118.964-2361.746-4118.827-2361.849-4115.608-2361.2Z" transform="translate(-257.16 -299.756)" fill="#efefee"/>
      <path id="Path_305" data-name="Path 305" d="M-4315.728-2357.243a4.778,4.778,0,0,1,.409-2.376,1.771,1.771,0,0,1,1.9-.987,1.72,1.72,0,0,1,1.555,1.282c.092.271.222.573-.15.722a.374.374,0,0,1-.53-.307c-.171-.7-.584-1.132-1.329-.961-.8.185-.937.9-.982,1.578a7.661,7.661,0,0,0,.117,2.844c.168.542.474.957,1.1.949.566-.008.816-.4.986-.885.111-.317-.04-.948.524-.824.64.14.279.7.192,1.071a1.635,1.635,0,0,1-1.614,1.375,1.793,1.793,0,0,1-1.9-1.22A6.169,6.169,0,0,1-4315.728-2357.243Z" transform="translate(-88.326 -300.534)" fill="#efefee"/>
      <path id="Path_306" data-name="Path 306" d="M-4160.091-2360.557c-.338.823-.78.659-1.125.657-.765,0-1.356-.034-1.329,1.094.024,1.036.365,1.352,1.329,1.237.3-.036.809-.134.842.291.046.583-.527.472-.848.418-1.143-.192-1.419.347-1.292,1.353a8.658,8.658,0,0,1,.006,1.288c-.007.262-.119.475-.419.447a.374.374,0,0,1-.352-.383c0-2.005,0-4.01.012-6.016,0-.285.256-.381.509-.383C-4161.924-2360.562-4161.089-2360.557-4160.091-2360.557Z" transform="translate(-219.144 -300.585)" fill="#efefee"/>
      <path id="Path_307" data-name="Path 307" d="M-4216.1-2360.585a17.433,17.433,0,0,1,3.725-.131.285.285,0,0,1,.3.372.368.368,0,0,1-.441.272c-1.168-.16-1.187.57-1.163,1.415.035,1.244.018,2.49,0,3.736,0,.356.142.942-.354.95-.676.01-.381-.643-.393-1.005-.038-1.2-.062-2.4,0-3.591.055-1.014-.105-1.707-1.354-1.524C-4215.962-2360.063-4216.122-2360.213-4216.1-2360.585Z" transform="translate(-173.821 -300.418)" fill="#efefee"/>
      <path id="Path_308" data-name="Path 308" d="M-3931.382-2360.27a12.24,12.24,0,0,1,4.188-.264,2.461,2.461,0,0,1-.056.391c-1.634.084-1.657,1.177-1.583,2.41.066,1.095.013,2.2.006,3.3,0,.292-.028.633-.408.625-.41-.009-.341-.383-.345-.652-.011-.956,0-1.911-.014-2.867C-3929.613-2358.6-3929.025-2360.217-3931.382-2360.27Z" transform="translate(-418.133 -300.555)" fill="#efefee"/>
      <path id="Path_309" data-name="Path 309" d="M-4132.756-2356.664c0,.857,0,1.715,0,2.573,0,.3-.012.608-.4.622-.315.011-.351-.268-.351-.507q0-2.859.01-5.717c0-.247.057-.5.367-.489s.354.274.357.518c.006,1,0,2,0,3Z" transform="translate(-244.695 -300.907)" fill="#fdfbf9"/>
      <path id="Path_310" data-name="Path 310" d="M-4180.016-2356.955c0-.9-.005-1.807,0-2.71,0-.277-.009-.616.419-.576.295.027.354.278.354.522q.012,2.853.012,5.705c0,.26-.105.5-.377.515-.4.016-.409-.319-.411-.6C-4180.021-2355.053-4180.017-2356-4180.016-2356.955Z" transform="translate(-204.782 -300.855)" fill="#efefee"/>
      <path id="Path_311" data-name="Path 311" d="M-3686.862-2546.108a12.36,12.36,0,0,0,3.333-.949c3.008-1.109,6.011-2.239,8.983-3.439a1.6,1.6,0,0,1,1.921.325q9.037,7.986,18.107,15.936a3.556,3.556,0,0,1,1.133,1.451c.417,1.169.551,2.278-.618,3.09-1.1.769-2.03.338-2.956-.465q-7.485-6.493-15.024-12.923c-.5-.424-1.1-1.386-1.762-.7-.787.812.3,1.344.8,1.79,4.176,3.732,8.4,7.414,12.588,11.129,1.622,1.438,1.577,3.113-.066,4.176-1.143.74-2.067.278-2.974-.5-4.143-3.55-8.283-7.1-12.467-10.6-.541-.453-1.178-1.707-1.925-.868-.777.873.476,1.467,1.057,1.98,3.269,2.88,6.586,5.705,9.875,8.563,1.234,1.072,1.512,2.166.9,3.282a2.251,2.251,0,0,1-3.51.83c-1.82-1.4-3.559-2.907-5.347-4.351a1.933,1.933,0,0,1-.6-1.244c-.476-2.182-1.584-3.143-3.774-3.155a1.9,1.9,0,0,1-1.642-.906c-2.075-2.709-2.445-2.831-5.671-1.743-.537.181-.73.035-1.03-.361-1.665-2.2-3.072-2.425-5.486-.831-.486.321-.587.178-.852-.2-1.905-2.69-3.655-2.74-5.748-.133-.367.457-.625.47-1.059.2-2.32-1.434-4.654-2.849-6.97-4.29-1.09-.677-.484-1.507-.1-2.247,2.059-4,4.145-7.989,6.22-11.982,1.691-3.253,1.7-3.282,5.042-1.747a4.637,4.637,0,0,0,3.731.211c2.342-.84,4.729-1.551,7.1-2.316a6.559,6.559,0,0,1,.817-.269c.859-.158,2.035-.738,2.449.227.364.848-.894,1.153-1.532,1.58a71.11,71.11,0,0,0-6.465,4.529,3.394,3.394,0,0,0-.225,5.146A5.269,5.269,0,0,0-3686.862-2546.108Z" transform="translate(-609.58 -129.726)" fill="#fdfbf9"/>
      <path id="Path_312" data-name="Path 312" d="M-3582.732-2562.841a1.813,1.813,0,0,1,.7-1.487c3.171-2.3,6.183-4.877,9.547-6.849,2.086-1.223,4.771-1.371,7.063-2.307a7.752,7.752,0,0,1,8.126.947c2.165,1.55,4.684,2.6,6.958,4.007a4.157,4.157,0,0,0,4.057.451c.529-.217,1.116-.3,1.629-.547.73-.348,1.089-.147,1.411.576q3.319,7.476,6.71,14.917a1,1,0,0,1-.4,1.437c-2.23,1.649-4.458,3.3-6.64,5.015-.716.562-1.093.177-1.574-.262q-8.008-7.3-16.03-14.583c-1.236-1.121-2.367-2.74-3.817-3.135-1.4-.382-3,.932-4.522,1.492-2.379.878-4.734,1.821-7.107,2.715-1.96.738-3.839.855-5.417-.863A2.163,2.163,0,0,1-3582.732-2562.841Z" transform="translate(-717.305 -117.247)" fill="#fdfbf9"/>
      <path id="Path_313" data-name="Path 313" d="M-3525.129-2360.1a55.808,55.808,0,0,1-1.906,5.287c-.347.907-.489,1.868-1.7,2.172-1.907.476-3.545-.81-3.031-2.688a49.774,49.774,0,0,1,2.253-6.168,2.132,2.132,0,0,1,2.788-1.123C-3525.642-2362.309-3525.144-2361.46-3525.129-2360.1Z" transform="translate(-760.954 -298.706)" fill="#fdfbf9"/>
      <path id="Path_314" data-name="Path 314" d="M-3568.417-2375.437a2.223,2.223,0,0,1-2.274-2.9,58.515,58.515,0,0,1,2.235-6.054,2.174,2.174,0,0,1,2.918-1.1,2.061,2.061,0,0,1,1.376,2.655c-.651,2.1-1.461,4.15-2.281,6.191A2.031,2.031,0,0,1-3568.417-2375.437Z" transform="translate(-727.547 -279.031)" fill="#fdfbf9"/>
      <path id="Path_315" data-name="Path 315" d="M-3605.311-2395.8a2.21,2.21,0,0,1,2.29,2.521,14.731,14.731,0,0,1-1.7,4.693,2.057,2.057,0,0,1-2.5.914,2,2,0,0,1-1.683-2.046,10.793,10.793,0,0,1,1.926-5.405A1.866,1.866,0,0,1-3605.311-2395.8Z" transform="translate(-694.847 -270.343)" fill="#fdfbf9"/>
      <path id="Path_316" data-name="Path 316" d="M-3641.877-2402.426c-.112.371-.267,1.019-.5,1.638a2.351,2.351,0,0,1-3.015,1.685,2.416,2.416,0,0,1-1.5-3.105,3.326,3.326,0,0,1,1.494-2.562,2.3,2.3,0,0,1,2.441.022A2.344,2.344,0,0,1-3641.877-2402.426Z" transform="translate(-662.167 -262.357)" fill="#fdfbf9"/>
      <path id="Path_317" data-name="Path 317" d="M-3487.628-2326.6c-.225,1.268-.662,2.318-1.894,2.732s-2.124-.343-2.922-1.091a1.18,1.18,0,0,1,.064-1.574,10.106,10.106,0,0,0,1.3-2.686c.4-1.164.872-.981,1.487-.222C-3488.856-2328.531-3487.869-2327.783-3487.628-2326.6Z" transform="translate(-794.542 -326.762)" fill="#fdfbf9"/>
      <path id="Path_318" data-name="Path 318" d="M-3902.974-2474.333a3.025,3.025,0,0,1-2.931-2.756,2.765,2.765,0,0,1,2.845-2.9,2.893,2.893,0,0,1,2.786,2.835A2.989,2.989,0,0,1-3902.974-2474.333Z" transform="translate(-439.994 -198.1)" fill="#586772"/>
      <path id="Path_319" data-name="Path 319" d="M-3988.021-2478.532a2.915,2.915,0,0,1-2.945,3.033,2.947,2.947,0,0,1-2.958-2.9,2.976,2.976,0,0,1,2.965-3.044A2.927,2.927,0,0,1-3988.021-2478.532Z" transform="translate(-364.466 -196.858)" fill="#586772"/>
      <path id="Path_320" data-name="Path 320" d="M-4140.207-2481.907a3.014,3.014,0,0,1,2.987,3.041,3.01,3.01,0,0,1-3.095,2.927,3.064,3.064,0,0,1-2.934-2.968A3.04,3.04,0,0,1-4140.207-2481.907Z" transform="translate(-236.334 -196.458)" fill="#586772"/>
      <path id="Path_321" data-name="Path 321" d="M-3820-2355.917c.9-.024,1.537.3,1.538,1.277,0,.855-.5,1.234-1.367,1.307-1,.084-1.1-.46-1.042-1.22C-3820.822-2355.172-3821.118-2356-3820-2355.917Z" transform="translate(-512.95 -304.563)" fill="#586772"/>
      <path id="Path_322" data-name="Path 322" d="M-4243.512-2354.731c.013-.638-.174-1.341.849-1.282.859.049,1.519.3,1.523,1.285,0,.967-.592,1.277-1.485,1.314C-4243.751-2353.366-4243.458-2354.165-4243.512-2354.731Z" transform="translate(-150.293 -304.483)" fill="#586772"/>
      <path id="Path_323" data-name="Path 323" d="M-3957.012-2353.459c-1.24.082-.831-.847-.9-1.475-.082-.73.108-1.2.991-1.109.8.085,1.39.371,1.384,1.278C-3955.544-2353.8-3956.106-2353.424-3957.012-2353.459Z" transform="translate(-395.352 -304.45)" fill="#586772"/>
      <path id="Path_324" data-name="Path 324" d="M-4080.485-2353.246c0-.479-.021-.959.007-1.436.03-.522-.243-1.229.713-1.248.77-.014,1.471.094,1.7.967a7.514,7.514,0,0,1,.074,3.415c-.187.932-.892,1.132-1.747,1.1-1.062-.035-.689-.823-.74-1.367C-4080.521-2352.285-4080.485-2352.767-4080.485-2353.246Z" transform="translate(-290.178 -304.556)" fill="#586772"/>
      <path id="Path_325" data-name="Path 325" d="M-3991.847-2351.389c.159.676.323,1.351.473,2.029.067.3.312.7-.171.84a1.586,1.586,0,0,1-.981-.02c-.43-.178-.176-.575-.108-.881.143-.649.3-1.293.458-1.939Z" transform="translate(-365.457 -308.453)" fill="#586772"/>
      <path id="Path_326" data-name="Path 326" d="M-4026.456-2354.7c-.054-.824-.082-1.432.9-1.325.861.093,1.484.361,1.444,1.364-.042,1.019-.731,1.2-1.571,1.225C-4026.894-2353.41-4026.281-2354.358-4026.456-2354.7Z" transform="translate(-336.533 -304.462)" fill="#586772"/>
    </g>
  </g>
</svg>
