<svg xmlns="http://www.w3.org/2000/svg" xmlns:xlink="http://www.w3.org/1999/xlink" width="314" height="108" viewBox="0 0 314 108">
  <defs>
    <radialGradient id="radial-gradient" cx="0.133" cy="1.005" r="1.305" gradientTransform="translate(0)" gradientUnits="objectBoundingBox">
      <stop offset="0.09" stop-color="#fa8f21"/>
      <stop offset="0.78" stop-color="#d82d7e"/>
    </radialGradient>
    <radialGradient id="radial-gradient-2" cx="0.606" cy="1.05" r="1.029" gradientTransform="translate(0)" gradientUnits="objectBoundingBox">
      <stop offset="0.64" stop-color="#8c3aaa" stop-opacity="0"/>
      <stop offset="1" stop-color="#8c3aaa"/>
    </radialGradient>
  </defs>
  <g id="instagram" transform="translate(-2393 -773)">
    <rect id="Rectangle_23" data-name="Rectangle 23" width="314" height="108" rx="43" transform="translate(2393 773)" fill="#fff"/>
    <g id="instagram-2016-6" transform="translate(2511 788)">
      <path id="Path_467" data-name="Path 467" d="M25.889,38.83A12.943,12.943,0,1,1,38.83,51.774,12.943,12.943,0,0,1,25.889,38.83m-7,0A19.939,19.939,0,1,0,38.83,18.891,19.938,19.938,0,0,0,18.891,38.83M54.9,18.1a4.66,4.66,0,1,0,4.661-4.658h0A4.662,4.662,0,0,0,54.9,18.1M23.143,70.436A21.461,21.461,0,0,1,15.932,69.1a12.068,12.068,0,0,1-4.466-2.9,11.98,11.98,0,0,1-2.9-4.463,21.441,21.441,0,0,1-1.336-7.211C7.037,50.429,7,49.2,7,38.83s.041-11.6.226-15.692a21.6,21.6,0,0,1,1.336-7.211,12.068,12.068,0,0,1,2.9-4.466,11.967,11.967,0,0,1,4.466-2.9,21.441,21.441,0,0,1,7.211-1.336c4.093-.188,5.322-.226,15.687-.226s11.6.041,15.692.226a21.6,21.6,0,0,1,7.211,1.336,12.03,12.03,0,0,1,4.466,2.9,12.03,12.03,0,0,1,2.9,4.466,21.441,21.441,0,0,1,1.336,7.211c.188,4.1.226,5.322.226,15.692s-.038,11.6-.226,15.692A21.542,21.542,0,0,1,69.1,61.733,12.857,12.857,0,0,1,61.733,69.1a21.441,21.441,0,0,1-7.211,1.336c-4.093.188-5.322.226-15.692.226s-11.6-.038-15.687-.226M22.821.235a28.472,28.472,0,0,0-9.425,1.8A19.045,19.045,0,0,0,6.517,6.517,18.972,18.972,0,0,0,2.039,13.4a28.481,28.481,0,0,0-1.8,9.425C.044,26.961,0,28.285,0,38.83S.044,50.7.235,54.839a28.479,28.479,0,0,0,1.8,9.425,18.981,18.981,0,0,0,4.479,6.878A19.092,19.092,0,0,0,13.4,75.621a28.5,28.5,0,0,0,9.425,1.8c4.142.188,5.464.235,16.009.235s11.869-.044,16.009-.235a28.479,28.479,0,0,0,9.425-1.8A19.852,19.852,0,0,0,75.621,64.264a28.4,28.4,0,0,0,1.8-9.425c.188-4.143.232-5.464.232-16.009s-.044-11.869-.232-16.009a28.471,28.471,0,0,0-1.8-9.425,19.1,19.1,0,0,0-4.479-6.878,19,19,0,0,0-6.875-4.479,28.435,28.435,0,0,0-9.425-1.8C50.7.047,49.378,0,38.833,0S26.963.044,22.821.235" transform="translate(0 0)" fill="url(#radial-gradient)"/>
      <path id="Path_468" data-name="Path 468" d="M25.889,38.83A12.943,12.943,0,1,1,38.83,51.774,12.943,12.943,0,0,1,25.889,38.83m-7,0A19.939,19.939,0,1,0,38.83,18.891,19.938,19.938,0,0,0,18.891,38.83M54.9,18.1a4.66,4.66,0,1,0,4.661-4.658h0A4.662,4.662,0,0,0,54.9,18.1M23.143,70.436A21.461,21.461,0,0,1,15.932,69.1a12.068,12.068,0,0,1-4.466-2.9,11.98,11.98,0,0,1-2.9-4.463,21.441,21.441,0,0,1-1.336-7.211C7.037,50.429,7,49.2,7,38.83s.041-11.6.226-15.692a21.6,21.6,0,0,1,1.336-7.211,12.068,12.068,0,0,1,2.9-4.466,11.967,11.967,0,0,1,4.466-2.9,21.441,21.441,0,0,1,7.211-1.336c4.093-.188,5.322-.226,15.687-.226s11.6.041,15.692.226a21.6,21.6,0,0,1,7.211,1.336,12.03,12.03,0,0,1,4.466,2.9,12.03,12.03,0,0,1,2.9,4.466,21.441,21.441,0,0,1,1.336,7.211c.188,4.1.226,5.322.226,15.692s-.038,11.6-.226,15.692A21.542,21.542,0,0,1,69.1,61.733,12.857,12.857,0,0,1,61.733,69.1a21.441,21.441,0,0,1-7.211,1.336c-4.093.188-5.322.226-15.692.226s-11.6-.038-15.687-.226M22.821.235a28.472,28.472,0,0,0-9.425,1.8A19.045,19.045,0,0,0,6.517,6.517,18.972,18.972,0,0,0,2.039,13.4a28.481,28.481,0,0,0-1.8,9.425C.044,26.961,0,28.285,0,38.83S.044,50.7.235,54.839a28.479,28.479,0,0,0,1.8,9.425,18.981,18.981,0,0,0,4.479,6.878A19.092,19.092,0,0,0,13.4,75.621a28.5,28.5,0,0,0,9.425,1.8c4.142.188,5.464.235,16.009.235s11.869-.044,16.009-.235a28.479,28.479,0,0,0,9.425-1.8A19.852,19.852,0,0,0,75.621,64.264a28.4,28.4,0,0,0,1.8-9.425c.188-4.143.232-5.464.232-16.009s-.044-11.869-.232-16.009a28.471,28.471,0,0,0-1.8-9.425,19.1,19.1,0,0,0-4.479-6.878,19,19,0,0,0-6.875-4.479,28.435,28.435,0,0,0-9.425-1.8C50.7.047,49.378,0,38.833,0S26.963.044,22.821.235" transform="translate(0 0)" fill="url(#radial-gradient-2)"/>
    </g>
  </g>
</svg>
