<svg xmlns="http://www.w3.org/2000/svg" width="314" height="108" viewBox="0 0 314 108">
  <g id="klaviyo" transform="translate(-1274 -444)">
    <rect id="Rectangle_3" data-name="Rectangle 3" width="314" height="108" rx="43" transform="translate(1274 444)" fill="#fff"/>
    <g id="Group_97" data-name="Group 97" transform="translate(4404.231 4858.537)">
      <path id="Path_442" data-name="Path 442" d="M-2997.881-4365.618a46.98,46.98,0,0,0-11.306-3.651,40.261,40.261,0,0,0-22.585,2.54c-.251.107-.518.178-.778.266-.2.213-1.127-1-.733.374l-.056.04c-.2-.113-.23-.484-.518-.4-.069.022-.033.381-.045.584l0-.008c-.958-.421-2.217-.982-2.878-.174-.707.865-1.458.746-2.258.994-.555.172-.823-.422-1.4-.16-1.13.514-2.3-.2-3.473-.159-.635.021-1.392.5-1.906-.312q6.959-4.65,13.92-9.3c4.23-2.811,8.479-5.594,12.713-8.4a4.958,4.958,0,0,1,5.913-.114q12.887,8.519,25.763,17.053a.965.965,0,0,1,.175.206c-.09.374,0,.9-.716.574-1.649-.743-3.317-1.488-5.128-.421a.528.528,0,0,1-.372,0A4.5,4.5,0,0,0-2997.881-4365.618Z" transform="translate(-35.42)" fill="#22b05e"/>
      <path id="Path_443" data-name="Path 443" d="M-2182.173-4326.909a13.553,13.553,0,0,1,13.414,13.533,13.562,13.562,0,0,1-13.3,13.368,13.507,13.507,0,0,1-13.6-13.889A13.524,13.524,0,0,1-2182.173-4326.909Zm8.318,13.6a8.273,8.273,0,0,0-8.239-8.481,8.349,8.349,0,0,0-8.4,7.779c-.124,4.816,3.368,8.773,7.846,8.893A8.231,8.231,0,0,0-2173.855-4313.311Z" transform="translate(-685.578 -43.976)" fill="#1b1e21"/>
      <path id="Path_444" data-name="Path 444" d="M-2686.362-4307.179q0,1.4,0,2.8c0,1.93-.028,3.861.015,5.79.015.7-.152.975-.9.932-1.145-.064-2.3-.046-3.445-.006-.683.025-.949-.144-.946-.907q.044-12.062,0-24.124c0-.732.241-.966.955-.938,1.147.046,2.3.062,3.445,0,.787-.046.893.307.886.967-.028,2.481-.021,4.962,0,7.443a1.728,1.728,0,0,0,.309,1.438c.988-1.538,1.939-3.013,2.884-4.491a20.074,20.074,0,0,0,1.735-2.8,3.866,3.866,0,0,1,4.737-2.565,15.341,15.341,0,0,0,2.605.024c.138.583-.268.889-.5,1.248-2.3,3.535-4.584,7.076-6.927,10.58a1.518,1.518,0,0,0,.037,2.046c2.62,3.647,5.171,7.344,7.741,11.027.2.286.363.6.631,1.043-2.029,0-3.9-.029-5.775.016-.661.016-.852-.436-1.128-.838q-2.646-3.852-5.284-7.708c-.243-.354-.5-.7-.754-1.043Z" transform="translate(-306.275 -46.397)" fill="#1b1d20"/>
      <path id="Path_445" data-name="Path 445" d="M-2500.7-4299.965c-1.8,0-3.526.012-5.256,0-.933-.01-.869-.873-1.007-1.41a1.651,1.651,0,0,0-2.008-1.43,46.942,46.942,0,0,1-5.646,0c-1.164-.069-1.827.294-2,1.428-.18,1.175-.816,1.535-1.98,1.443-1.406-.11-2.828-.026-4.426-.026,1.506-3.729,2.947-7.308,4.4-10.884q2.989-7.364,6-14.72c.179-.437.151-1.131.77-1.168.669-.04.627.673.8,1.1q5.123,12.566,10.226,25.141A4.781,4.781,0,0,1-2500.7-4299.965Zm-11.046-14.311c-.486,1.327-.854,2.311-1.207,3.3-1.237,3.472-1.235,3.473,2.477,3.36.092,0,.184-.006.275,0,.525.033.759-.083.534-.7C-2510.35-4310.192-2510.985-4312.09-2511.743-4314.276Z" transform="translate(-435.229 -44.107)" fill="#1b1d20"/>
      <path id="Path_446" data-name="Path 446" d="M-2432.146-4309.024c1.44-3.989,2.808-7.714,4.129-11.455.972-2.753.945-2.763,3.8-2.763h3.1c-1.187,2.95-2.317,5.775-3.462,8.595q-3.484,8.58-6.985,17.153c-.165.4-.165,1.06-.7,1.062s-.531-.666-.692-1.06c-3.33-8.174-6.62-16.365-9.991-24.521-.483-1.17-.151-1.294.884-1.241,1.464.076,3.2-.413,4.323.221s1.189,2.549,1.713,3.9c1.238,3.2,2.4,6.422,3.6,9.635A4.8,4.8,0,0,0-2432.146-4309.024Z" transform="translate(-496.295 -46.687)" fill="#1c1f22"/>
      <path id="Path_447" data-name="Path 447" d="M-3022.414-4249.684a20.021,20.021,0,0,1,5.707-5.765c.474.384,1.153.122,1.543.337.541.3.815.392,1.259-.063a1.415,1.415,0,0,1,1.442-.209c.776.226,1.437.434,1.974-.422a.487.487,0,0,1,.743,0c.505.65.958.8,1.408-.019.614-1.118.638,1.052,1.433.208.907-.962,2.365.3,3.47-.441a.925.925,0,0,1,.3.394c.151.958.565.683,1.033.247.19-.177.467-.585.637-.345.579.819,1.147.206,1.554-.034,1.021-.6,1.431.15,1.953.8.741-1.31,1.467-1.2,2.08-.142.66.006.885-2.051,1.73-.214.139-.093.287-.176.417-.281,1.071-.866,2.378.305,3.52-.412.246-.154.258.579.418.875.063.117.615.148.647.08.573-1.228,1.669-.488,2.472-.742,1.161-.368,1.549.125,1.942,1.141.2-.692.51-1.336,1.1-1.346.634-.011.208.835.543,1.187.859-1.328,1.149-1.376,2.074-.446.173.174.562-.238.763.142q.026-.27.052-.542a22.991,22.991,0,0,1,5.781,5.822c-1.22.43-2.458-.095-3.747.119a15.884,15.884,0,0,1-3.961-.1c-.624-.062-1.355.623-1.8-.359-.347.649-.894.377-1.436.465-1.043.169-2.286-.7-3.151.484a20.815,20.815,0,0,0-19.179-.324c-.734.3-1.419-.841-2.18-.068a3.95,3.95,0,0,1-1.7.087c-.125-.025-.37-.015-.379.023-.276,1.147-.7.332-1.075.086a2.94,2.94,0,0,0-1.2-.443c-.85.387-1.6,1.171-2.589.3a1.607,1.607,0,0,0-.183.315c-.078.248-.222.478-.469.266-.934-.8-2.209.155-3.16-.661-.3-.258-.684.024-.929.339C-3022.221-4248.49-3022.286-4249.169-3022.414-4249.684Z" transform="translate(-53.315 -98.088)" fill="#86c452"/>
      <path id="Path_448" data-name="Path 448" d="M-2293-4323.141a25.148,25.148,0,0,0,3.666-.033c1.95-.3,2.968.549,3.807,2.228,1.138,2.278,2.543,4.423,3.913,6.759,1.628-2.76,3.195-5.338,4.67-7.968a1.665,1.665,0,0,1,1.724-1c1.646.059,3.3.018,5.238.018-1.136,1.8-2.161,3.437-3.2,5.065-1.228,1.932-2.342,3.952-3.729,5.762a10.03,10.03,0,0,0-2.13,7.266c.181,2.237,0,4.5.054,6.75.018.817-.176,1.2-1.059,1.115-1.361-.127-3.135.565-3.97-.288-.653-.667-.178-2.443-.194-3.727a15.059,15.059,0,0,1,.014-2.34c.567-3.915-.757-7.18-3.051-10.3-2.082-2.832-3.82-5.917-5.7-8.895C-2292.99-4322.8-2292.973-4322.9-2293-4323.141Z" transform="translate(-611.137 -46.789)" fill="#1c1f22"/>
      <path id="Path_449" data-name="Path 449" d="M-2596.7-4310.273c0-3.95.024-7.9-.019-11.85-.01-.865.165-1.239,1.116-1.167,1.319.1,3.056-.431,3.862.228.85.695.249,2.5.253,3.811.016,5.14.011,10.28-.068,15.419-.016,1.06.286,1.314,1.3,1.27,1.926-.083,3.858.015,5.786-.042.877-.026,1.293.2,1.193,1.143-.141,1.338.547,3.06-.292,3.922-.743.765-2.447.2-3.725.214-2.755.028-5.512-.023-8.267.027-.872.017-1.175-.184-1.161-1.126C-2596.664-4302.373-2596.7-4306.323-2596.7-4310.273Z" transform="translate(-378.865 -46.661)" fill="#1f2224"/>
      <path id="Path_450" data-name="Path 450" d="M-2961.65-4272.925l-.052.542c-.2-.38-.589.032-.763-.142-.925-.93-1.216-.881-2.074.446-.335-.352.09-1.2-.544-1.187-.587.01-.9.654-1.1,1.346-.393-1.016-.781-1.509-1.942-1.142-.8.254-1.9-.485-2.472.743-.032.069-.583.038-.647-.08-.16-.3-.172-1.029-.418-.874-1.142.717-2.449-.454-3.52.412-.13.1-.277.188-.417.281-.845-1.836-1.07.221-1.73.214-.612-1.059-1.339-1.168-2.079.142-.522-.653-.932-1.406-1.953-.8-.407.24-.975.854-1.553.034-.17-.241-.448.168-.637.345-.469.436-.883.71-1.033-.247a.932.932,0,0,0-.3-.394c-1.105.741-2.564-.521-3.47.442-.8.844-.819-1.326-1.433-.208-.45.819-.9.668-1.408.019a.486.486,0,0,0-.743,0c-.537.856-1.2.648-1.974.422a1.416,1.416,0,0,0-1.442.209c-.444.456-.718.361-1.259.063-.391-.215-1.07.047-1.544-.337a27.434,27.434,0,0,1,14.184-6c1.968,1.041,4.05.6,6.12.554.583-.012,1.255-.265,1.82.072,1.212.722.571-.252.592-.625A26.788,26.788,0,0,1-2961.65-4272.925Z" transform="translate(-71.866 -80.858)" fill="#70bf59"/>
      <path id="Path_451" data-name="Path 451" d="M-2333.056-4310.566c0-3.9.028-7.8-.021-11.7-.011-.914.253-1.229,1.162-1.147,1.316.118,3.017-.533,3.861.238.867.791.261,2.514.267,3.825.031,6.882-.008,13.765.04,20.647.007,1.039-.269,1.392-1.3,1.287-1.268-.128-2.909.507-3.727-.236-.841-.764-.244-2.426-.263-3.691C-2333.086-4304.417-2333.056-4307.492-2333.056-4310.566Z" transform="translate(-580.372 -46.539)" fill="#24272a"/>
      <path id="Path_452" data-name="Path 452" d="M-2842.059-4307.741a4.5,4.5,0,0,1,4.337-.463.533.533,0,0,0,.372,0c1.811-1.067,3.479-.321,5.128.421.72.324.626-.2.716-.574,3.135,1.866,6.152,3.911,9.127,6.02.142,1.011-.776.559-1.143.714-.777.33-1.7,1.315-2.526-.056-.082-.135-.731-.141-1.06.229-.107.119-.286.638-.6.209-.661-.913-1.546.119-2.46-.349-.813-.417-1.926-.03-2.869-.67-.306-.208-.514-.036-.763.039A75.647,75.647,0,0,0-2842.059-4307.741Z" transform="translate(-191.242 -57.877)" fill="#49b85c"/>
      <path id="Path_453" data-name="Path 453" d="M-3075.486-4307.3c.515.807,1.271.333,1.906.312,1.173-.039,2.343.673,3.472.159.578-.263.846.332,1.4.16.8-.248,1.551-.13,2.257-.994.661-.809,1.92-.248,2.878.174a52.45,52.45,0,0,0-9.061,6.06,1.785,1.785,0,0,0-2.22.741c-.1.16-.1.736-.436.086a2.911,2.911,0,0,0-1.248.012,9.789,9.789,0,0,1-2.9.151,14.98,14.98,0,0,0-2.328.064c-1.03.132-2.2.344-2.849-.9C-3081.622-4303.356-3078.629-4305.442-3075.486-4307.3Z" transform="translate(-5.747 -58.381)" fill="#4db95c"/>
      <path id="Path_454" data-name="Path 454" d="M-2939.768-4181.339c.679.45.517.873-.06,1.253-1.971,1.3-3.9,2.678-5.938,3.865a4.678,4.678,0,0,1-5.043-.225c-1.776-1.115-3.449-2.4-5.234-3.493-.827-.509-.794-1-.266-1.571.489-.525.786-1.251,1.518-1.536.067.166.152.481.2.476,1.567-.183,2.8,1.931,4.554.643.257-.189.8-.078,1.183.016.663.162,1.306,1.293,1.951-.021a.965.965,0,0,1,.189.179c.44.735.709.382,1.336.064,1-.5,2.326.277,3.4-.466C-2941.452-4181.312-2940.521-4181.565-2939.768-4181.339Z" transform="translate(-103.579 -153.996)" fill="#d8c227"/>
      <path id="Path_455" data-name="Path 455" d="M-2878.3-4229.95c.865-1.182,2.107-.315,3.151-.484.542-.088,1.089.184,1.436-.465.441.982,1.172.3,1.8.359a15.884,15.884,0,0,0,3.961.1c1.289-.214,2.527.312,3.747-.119,1.932,2.19,1.931,2.188-.442,3.7-1.228.781-2.45,1.571-3.675,2.356-.1-.095-.257-.285-.281-.27-1.2.793-2.414-.217-3.613.027A24.461,24.461,0,0,0-2878.3-4229.95Z" transform="translate(-163.53 -117.4)" fill="#9fc647"/>
      <path id="Path_456" data-name="Path 456" d="M-3090.361-4280.039c.646,1.242,1.818,1.03,2.849.9a14.973,14.973,0,0,1,2.328-.064,9.805,9.805,0,0,0,2.9-.151,2.9,2.9,0,0,1,1.248-.012c.331.649.333.073.436-.086a1.785,1.785,0,0,1,2.22-.741,43.824,43.824,0,0,0-6.846,8.005c-.343.552-.678.474-1.1.192-1.564-1.034-3.154-2.031-4.683-3.114A2.869,2.869,0,0,1-3090.361-4280.039Z" transform="translate(0 -79.613)" fill="#70bf59"/>
      <path id="Path_457" data-name="Path 457" d="M-3026.677-4229.447c.128.514.193,1.194.86.341.246-.315.629-.6.929-.339.95.816,2.226-.14,3.16.661.246.211.39-.018.469-.266a1.621,1.621,0,0,1,.183-.315c.994.874,1.74.089,2.589-.3a2.947,2.947,0,0,1,1.2.443c.371.246.8,1.062,1.075-.086.009-.038.253-.048.378-.023a3.934,3.934,0,0,0,1.7-.087c.762-.773,1.447.369,2.18.068a25.055,25.055,0,0,0-6.76,5.752c-1-.909-.292.958-1.041.5l-.678-.865c-.33.369-.707.677-.7,1.216-2.1-1.345-4.183-2.711-6.3-4.024-.686-.425-.685-.859-.266-1.428C-3027.381-4228.634-3027.2-4229.182-3026.677-4229.447Z" transform="translate(-49.052 -118.325)" fill="#9fc647"/>
      <path id="Path_458" data-name="Path 458" d="M-2806.931-4281.479c.25-.075.457-.247.763-.039.942.639,2.055.253,2.868.669.914.468,1.8-.563,2.46.349.31.428.489-.09.6-.209.33-.37.979-.363,1.061-.229.829,1.371,1.749.385,2.526.056.366-.155,1.284.3,1.143-.715,2.407,1.255,3.113,2.543,2.411,4.357-.441,1.14-1.509,1.519-2.443,2.065-1.889-.716-3.839-.229-5.762-.292A70.78,70.78,0,0,0-2806.931-4281.479Z" transform="translate(-218.107 -78.614)" fill="#6dbe5a"/>
      <path id="Path_459" data-name="Path 459" d="M-2933.6-4190.111c-.753-.226-1.684.027-2.208-.818-1.077.743-2.406-.038-3.4.466-.627.317-.9.671-1.336-.064a.969.969,0,0,0-.188-.179c-.645,1.314-1.288.183-1.951.021-.382-.093-.927-.205-1.184-.016-1.75,1.288-2.988-.825-4.554-.643-.047.005-.132-.31-.2-.476C-2944.166-4196.049-2936.481-4195.176-2933.6-4190.111Z" transform="translate(-109.746 -145.223)" fill="#c7c331"/>
      <path id="Path_460" data-name="Path 460" d="M-2783.037-4255.8c1.922.063,3.873-.424,5.762.292-1.035.717-2.083,1.417-3.1,2.16-.5.363-.837.417-1.189-.187C-2782.016-4254.316-2782.542-4255.05-2783.037-4255.8Z" transform="translate(-236.38 -98.275)" fill="#86c452"/>
      <path id="Path_461" data-name="Path 461" d="M-2929.331-4279.88c-.021.372.619,1.347-.592.625-.565-.336-1.237-.084-1.82-.072-2.071.043-4.152.487-6.12-.554A24.81,24.81,0,0,1-2929.331-4279.88Z" transform="translate(-117.976 -79.659)" fill="#4db95c"/>
      <path id="Path_462" data-name="Path 462" d="M-2852.45-4204.883c1.2-.245,2.41.767,3.613-.027.024-.016.184.175.281.269-.208.168-.406.352-.626.5C-2851.146-4202.815-2851.147-4202.816-2852.45-4204.883Z" transform="translate(-183.295 -137.267)" fill="#c7c331"/>
      <path id="Path_463" data-name="Path 463" d="M-2998.849-4204.136c-.006-.54.371-.848.7-1.216l.678.865c.749.462.042-1.4,1.041-.5a4.6,4.6,0,0,0-.353.57C-2997.323-4203.176-2998.018-4203.17-2998.849-4204.136Z" transform="translate(-71.336 -136.938)" fill="#c7c331"/>
      <path id="Path_464" data-name="Path 464" d="M-2992.863-4308.7c-.394-1.378.534-.161.733-.374Z" transform="translate(-75.84 -57.394)" fill="#4db95c"/>
      <path id="Path_465" data-name="Path 465" d="M-2995.179-4307.5c.012-.2-.024-.562.045-.583.288-.089.321.281.518.395Z" transform="translate(-74.143 -58.365)" fill="#4db95c"/>
    </g>
  </g>
</svg>
