<svg xmlns="http://www.w3.org/2000/svg" width="314" height="108" viewBox="0 0 314 108">
  <g id="linkden" transform="translate(-2392 -916)">
    <rect id="Rectangle_24" data-name="Rectangle 24" width="314" height="108" rx="43" transform="translate(2392 916)" fill="#fff"/>
    <g id="linkedin-icon-2" transform="translate(2512 931)">
      <path id="Path_469" data-name="Path 469" d="M0,5.364A5.453,5.453,0,0,1,5.534,0H69.347a5.452,5.452,0,0,1,5.534,5.364V69.518a5.451,5.451,0,0,1-5.534,5.363H5.534A5.451,5.451,0,0,1,0,69.519V5.363Z" fill="#069"/>
      <path id="Path_470" data-name="Path 470" d="M49.1,93.391V59.679H37.89V93.391H49.1ZM43.5,55.077c3.907,0,6.339-2.589,6.339-5.824-.073-3.309-2.432-5.825-6.265-5.825s-6.34,2.516-6.34,5.825c0,3.235,2.431,5.824,6.192,5.824h.073ZM55.3,93.391H66.5V74.567a7.673,7.673,0,0,1,.369-2.734,6.132,6.132,0,0,1,5.75-4.1c4.054,0,5.676,3.091,5.676,7.624V93.391H89.5V74.062c0-10.354-5.527-15.173-12.9-15.173a11.164,11.164,0,0,0-10.173,5.679H66.5V59.68H55.3c.146,3.163,0,33.712,0,33.712Z" transform="translate(-26.34 -30.725)" fill="#fff"/>
    </g>
  </g>
</svg>
