<svg xmlns="http://www.w3.org/2000/svg" width="314" height="108" viewBox="0 0 314 108">
  <g id="mailchimp" transform="translate(-2045 -765)">
    <rect id="Rectangle_17" data-name="Rectangle 17" width="314" height="108" rx="43" transform="translate(2045 765)" fill="#fff"/>
    <g id="mailchimp-freddie-icon-wink" transform="translate(2162 776)">
      <g id="Group_83" data-name="Group 83">
        <path id="Path_152" data-name="Path 152" d="M8.182,62.484v0Zm-2.14-3.349v0Zm74.015-.587a1.732,1.732,0,0,1-.069-.414c-.035-.069-.035-.173-.069-.242-.069-.173-.138-.38-.207-.552a3.231,3.231,0,0,0-.725-.967,3.361,3.361,0,0,0-2-.794h-.242a5.172,5.172,0,0,0-.829-3.452c.035-.035.035-.069.069-.069a12.511,12.511,0,0,0,.9-1.277l.035-.069a3.637,3.637,0,0,0,.38-1.07,6.86,6.86,0,0,0,.069-.759v-.345c0-.1-.035-.207-.035-.311a4.658,4.658,0,0,0-.69-1.83,3.634,3.634,0,0,0-.829-.967,4.434,4.434,0,0,0-1.243-.759c-.035,0-.069-.035-.1-.035a15.82,15.82,0,0,0-3.28-2.831c-.518-.345-1.036-.621-1.45-.863s-.759-.414-.967-.518a9.448,9.448,0,0,0-.932-.449c-.345-.173-.621-.276-.794-.38a.855.855,0,0,1-.207-.138.151.151,0,0,1-.035-.1,2.96,2.96,0,0,1-.1-.449,12.159,12.159,0,0,1-.138-1.553c-.069-1.1-.138-2.589-.276-4.626a14.8,14.8,0,0,0-.207-1.83,12.071,12.071,0,0,0-.656-2.451c-.069-.173-.138-.345-.207-.483a2.036,2.036,0,0,1-.138-.276c-.069-.1-.1-.207-.173-.311a.562.562,0,0,1-.1-.207c-.1-.138-.207-.311-.311-.483l-.035-.035-.069-.069-.035-.069a7.211,7.211,0,0,0-.69-.759,14.387,14.387,0,0,0-.829-1.864,11.362,11.362,0,0,0-1.381-2.071,6.519,6.519,0,0,0-.69-.69l.069-.069A32.866,32.866,0,0,0,64.487,14.6c2.762-6.559,1.139-10.149-.725-12.014l-.069-.069-.069-.035A9.2,9.2,0,0,0,56.961,0c-5.454,0-11.22,3.418-12.739,4.35L40.908,1.519a5.687,5.687,0,0,0-.932-.656,5.842,5.842,0,0,0-1.07-.449A7.428,7.428,0,0,0,36.559.069a14.9,14.9,0,0,0-5.385,1.174A39.278,39.278,0,0,0,21.921,6.8a67.786,67.786,0,0,0-9.666,9.355A65.618,65.618,0,0,0,3.28,29.516a38.559,38.559,0,0,0-2.417,6.11A19.348,19.348,0,0,0,0,40.943a9.7,9.7,0,0,0,.518,3.245A7.807,7.807,0,0,0,1.1,45.4a6.746,6.746,0,0,0,1.1,1.312l3.452,2.8.38.311v.035a.491.491,0,0,0-.069.207l-.1.311c-.035.069-.035.138-.069.207l-.1.311c-.035.069-.035.138-.069.207l-.1.311c-.035.069-.035.138-.069.207-.035.1-.035.207-.069.345,0,.069-.035.138-.035.207-.035.1-.035.242-.069.345v.1a.261.261,0,0,1-.035.138c0,.1-.035.242-.035.345,0,.069-.035.138-.035.207v1.45a1.968,1.968,0,0,0,.035.449v.38c0,.1.035.207.035.311a.438.438,0,0,0,.035.207v.1c0,.069.035.138.035.207s.035.138.035.207.035.1.035.173c0,.035.035.069.035.1,0,.069.035.138.035.207a1.067,1.067,0,0,0,.069.276.127.127,0,0,0,.035.1c.035.069.035.173.069.242a2.2,2.2,0,0,1,.069.242c0,.035.035.069.035.1s.035.1.035.138l.035.069a1.253,1.253,0,0,0,.1.242c0,.035.035.035.035.069.035.069.035.138.069.173l.035.069c0,.035.035.035.035.069l.035.069.035.069.035.035c0,.035.035.035.035.069l.035.069c.035.069.035.1.069.138a1.684,1.684,0,0,1,.1.242v.035c0,.035.035.035.035.069a.562.562,0,0,0,.1.207,1.981,1.981,0,0,0,.138.242l.035.035c.035.069.069.1.1.173l.035.035c0,.035.035.069.069.1s.035.069.069.138l.035.035a.262.262,0,0,1,.069.138c.035.035.035.069.069.1a.722.722,0,0,0,.138.207l.035.035c.035.035.035.069.069.1s.069.069.069.1a2.044,2.044,0,0,1,.138.207l.035.035c.035.035.035.069.069.1s.069.1.1.138.069.1.138.173l.035.035.1.1c.035.035.069.1.1.138s.069.1.138.173l.1.1.138.138.138.138.1.1.138.138.1.1.035.035c.069.069.138.1.207.173l.069.069.1.1a.915.915,0,0,0,.207.173c.035.035.069.035.1.069a.427.427,0,0,0,.1.069l.035.035c.1.069.173.138.276.207h.035c.035,0,.069.035.1.069.1.069.242.173.345.242l.069.035.035.035.069.035a1.927,1.927,0,0,1,.276.173h.035a.107.107,0,0,0,.069.035h.035a.121.121,0,0,1,.069.035c.069.035.173.1.242.138l.069.035.069.035.035.035a.865.865,0,0,1,.242.138c.035.035.069.035.138.069l.069.035.035.035h.035c.138.069.242.1.38.173l.069.035c.173.069.311.1.449.173h.035l.069.035c.069.035.138.035.207.069.035,0,.069.035.1.035s.1.035.138.035h.069c.069.035.138.035.207.069h.035c.069.035.173.035.242.069h.1a.127.127,0,0,1,.1.035h.035c.1.035.242.035.345.069h.035a2.665,2.665,0,0,0,.518.069h.035a2.123,2.123,0,0,0,.449.035h.138c.138,0,.276.035.449.035h.414a.127.127,0,0,1,.035.1c.311.621.656,1.208,1,1.83,5.454,10.7,17.744,18.02,30.724,18.02S74.256,75.982,78.364,63.8c.173-.483.345-.932.483-1.381a6.214,6.214,0,0,0,1.036-1.933,3.054,3.054,0,0,0,.173-1.933M74.774,78.986a1.45,1.45,0,0,1-2.486-1.036,1.384,1.384,0,0,1,.449-1.07,1.351,1.351,0,0,1,1-.38,1.416,1.416,0,0,1,1.45,1.45,1.185,1.185,0,0,1-.414,1.036m-1.864-1.9a1.122,1.122,0,0,0-.345.829,1.208,1.208,0,1,0,2.417,0,1.071,1.071,0,0,0-.345-.829,1.177,1.177,0,0,0-.863-.38,1.324,1.324,0,0,0-.863.38m1.312,1.588a.663.663,0,0,1-.414.138.808.808,0,0,1-.587-.242.832.832,0,0,1-.242-.621.964.964,0,0,1,.207-.621.711.711,0,0,1,.587-.242.919.919,0,0,1,.414.1.713.713,0,0,1,.345.552h-.38c-.035-.1-.069-.207-.138-.242a.491.491,0,0,0-.207-.069.314.314,0,0,0-.276.138.736.736,0,0,0-.1.414.555.555,0,0,0,.1.38.426.426,0,0,0,.276.138.5.5,0,0,0,.242-.069l.1-.207H74.5a.675.675,0,0,1-.276.449" fill="#664f44"/>
      </g>
      <g id="Group_84" data-name="Group 84" transform="translate(6.87 20.299)">
        <path id="Path_153" data-name="Path 153" d="M91.084,97.533a1.886,1.886,0,0,0-.311-.967L90.7,96.5l-.035-.035-.1-.1a1.929,1.929,0,0,0-.276-.173c-.069-.035-.1-.035-.173-.069a1.488,1.488,0,0,0-.587-.1,3.159,3.159,0,0,0-.552.035c-.069,0-.173.035-.242.035H88.7a.107.107,0,0,0,.035.069c0,.035.035.069.069.138,0,.035.035.035.035.069a2.883,2.883,0,0,1,.138.414.267.267,0,0,1-.035.1v.035a6.257,6.257,0,0,1-.794,1.622,3.24,3.24,0,0,1-.311.414c-1.484,1.968-4.9,4.971-12.531,7.353a28.32,28.32,0,0,1-7.146,1.036c-3.141,0-5.558-.69-6.8-1.9l-.311-.311c-.069-.069-.138-.173-.207-.242-.035-.035-.035-.069-.069-.1a5.285,5.285,0,0,1-.967-2.486,4.944,4.944,0,0,1,.552-2.934,3.382,3.382,0,0,1,1.588-1.519,3.76,3.76,0,0,1,1.07-.276h1.519a36.109,36.109,0,0,0,6.628-.587,29.5,29.5,0,0,0,17.088-9.7v-.035a2.824,2.824,0,0,0-.863-1.864,1.242,1.242,0,0,0-.414-.276,2.051,2.051,0,0,0-.276-.138c-.1-.035-.173-.069-.276-.1a2.5,2.5,0,0,1-.311-.173v-.035c-.035-.069-.1-.1-.138-.173a16.921,16.921,0,0,0-5.213-3.866,6.6,6.6,0,0,0-.725-.345C78,79.34,77.689,79,77.448,75.854c-.069-1.139-.138-2.624-.276-4.66a5.171,5.171,0,0,0-.069-.759.311.311,0,0,0-.035-.173c-.035-.242-.069-.449-.1-.656v-.138c-.035-.173-.069-.345-.1-.483,0-.069-.035-.138-.035-.207a1.979,1.979,0,0,0-.138-.483c-.035-.069-.035-.173-.069-.242a1.683,1.683,0,0,0-.1-.242c-.035-.069-.069-.173-.1-.242-.035-.1-.069-.173-.1-.276,0-.035-.035-.069-.035-.1s-.035-.069-.035-.1v-.035l-.035-.1-.1-.207v-.035l-.035-.069-.035-.069a1.24,1.24,0,0,0-.242-.345l-.069-.069c-.1-.1-.173-.207-.276-.311l-.035-.035-.035-.035a.915.915,0,0,1-.173-.207l-.069-.069c-.069-.069-.173-.138-.242-.207v-.173l-.035-.069v-.035c-.035-.138-.1-.276-.173-.483-.035-.035-.035-.1-.069-.138v-.035c-.035-.069-.035-.1-.069-.173-.069-.138-.1-.276-.173-.414-.035-.035-.035-.1-.069-.138-.035-.1-.1-.207-.138-.311-.035-.069-.069-.1-.1-.173a.752.752,0,0,0-.173-.276l-.1-.207a1.928,1.928,0,0,0-.173-.276.722.722,0,0,0-.138-.207,1.916,1.916,0,0,0-.207-.276.753.753,0,0,0-.138-.173c-.069-.1-.173-.207-.242-.311l-.138-.138a.477.477,0,0,0-.138-.1,2.234,2.234,0,0,0-.311-.276l-.069-.035a2.076,2.076,0,0,0-.449-.311l-.035-.035a.722.722,0,0,1-.207-.138H71.51a.755.755,0,0,1-.173-.1H71.3c-.069-.035-.173-.069-.345-.138-.069,0-.1-.035-.173-.035-.311-.069-.725-.173-1.208-.242h-.1a8.08,8.08,0,0,0-1.312-.1h-.829c-.38,0-.725.035-1.1.069h-.035a8.1,8.1,0,0,0-1.381.311c.069-.207.345-.414.621-.621.345-.242.69-.449.69-.449a4.174,4.174,0,0,0-.621.173c-.069.035-.138.035-.207.069-.035,0-.1.035-.138.035h-.035c-.035,0-.069.035-.1.035a15.266,15.266,0,0,0-2.555,1.174l-.207.1-.035.035c-.069,0-.1.035-.173.035A3.434,3.434,0,0,1,63.4,59.111c.069-.035.138-.1.207-.138.035,0,.035-.035.069-.035.069-.035.1-.069.173-.069a1.45,1.45,0,0,0,.173-.069c-.035,0-.1.035-.138.035a.261.261,0,0,0-.138.035,1.5,1.5,0,0,0-.173.035.127.127,0,0,0-.1.035,8.073,8.073,0,0,0-3,1.415,9.344,9.344,0,0,0-1.484,1.312,2.622,2.622,0,0,0-.38.138c-1.243.449-2.693.967-4.177,1.657-.552.242-1.1.518-1.657.794-.449.207-.863.449-1.312.69-.311.173-.621.345-.932.552a23.708,23.708,0,0,0-6.145,5.178.619.619,0,0,0-.173.242,6.637,6.637,0,0,1-.449.587c-.069.069-.1.173-.173.242l-.207.311a12.775,12.775,0,0,0-.863,1.484,12.222,12.222,0,0,0-.552,1.174l-.035.035a15.969,15.969,0,0,0-.863,2.658c-.1.483-.207.967-.276,1.45-.035.138-.035.276-.069.38v.069a13.346,13.346,0,0,0-.1,1.657v.345a7.508,7.508,0,0,0,.035.863c0,.276.035.518.035.794v.069c0,.138.035.276.035.414a2.02,2.02,0,0,0,.069.449V84a8.673,8.673,0,0,0,.138.932v.035c.069.311.1.621.173.932a1.781,1.781,0,0,1,.069.38.127.127,0,0,0,.035.1.491.491,0,0,0,.069.207c.069.345.173.69.276,1.07a1.008,1.008,0,0,1,.069.311c.1.311.173.621.276.932a6.1,6.1,0,0,1-.138-1.036v-.449a7.375,7.375,0,0,1,.1-1.174c.035-.1.035-.207.069-.311,0-.035.035-.1.035-.138a3.972,3.972,0,0,1,.207-.587,1.683,1.683,0,0,0,.138.38v.1c0,.069.035.173.035.242.035.207.035.414.069.656s.069.518.1.794a20.777,20.777,0,0,0,.863,3.728s-.207-2.175.1-2.486a40.5,40.5,0,0,0,1.933,5.385,2.809,2.809,0,0,0,.276.414l-.069-.414-.38-2.244v-.242a29.233,29.233,0,0,0,1.9,2.624c.207.242.38.483.587.759a11.947,11.947,0,0,0-2.382,4.35c-.069.276-.173.552-.242.863-.035.173-.069.345-.1.483,0,.069-.035.1-.035.173-.035.1-.035.242-.069.345a1.5,1.5,0,0,1-.035.173c0,.1-.035.242-.035.345a.311.311,0,0,1-.035.173c0,.173-.035.345-.035.518a2.613,2.613,0,0,1-.035.518v.759a1.416,1.416,0,0,0,.035.38v.173a3.022,3.022,0,0,0,.069.552v.035c.035.138.035.276.069.414s.035.276.069.449v.1a2.876,2.876,0,0,0,.138.518c0,.069.035.1.035.173.035.1.069.242.1.38.035.069.035.138.069.207.035.1.069.207.1.345.035.069.035.138.069.207a1.227,1.227,0,0,0,.138.311.491.491,0,0,1,.069.207c.035.1.1.207.138.311l.1.207a3.193,3.193,0,0,0,.173.345l.1.207c.069.138.138.242.207.38.035.069.069.1.1.173.207.345.414.69.656,1.07.035.069.069.1.1.173.1.138.173.242.276.38.035.069.1.138.138.207.069.1.173.207.276.345.069.069.1.138.173.207.1.1.173.207.276.311a.915.915,0,0,1,.173.207,2.233,2.233,0,0,1,.276.311l.207.207.311.311.207.207a3.784,3.784,0,0,0,.38.345l.173.173c.173.173.38.311.587.483a3.288,3.288,0,0,1-.311-.38c-.035-.035-.069-.1-.1-.138-.035-.069-.069-.1-.1-.173a.722.722,0,0,0-.138-.207,6.217,6.217,0,0,1-.794-2.417,3.256,3.256,0,0,0,.345.345c.138.242.345.518.552.829a1.9,1.9,0,0,0,.242.311c.311.449.69.932,1.07,1.45.483.587,1,1.174,1.519,1.692a13.9,13.9,0,0,1-.932-1.726,1.732,1.732,0,0,1-.1-.483c.035.035.1.069.138.1s.1.069.138.1c.1.1.207.242.345.38l.069.069.207.207.276.276a29.555,29.555,0,0,0,2.762,2.52,3.722,3.722,0,0,0,.621.38l-1.243-1.657c2.486,1.553,12.152,2.762,21.058-1.036a30.276,30.276,0,0,0,3.176-1.588c.621-.38,1.243-.759,1.864-1.208l.1-.069c.414-.311.829-.621,1.243-.967.311-.242.621-.518.932-.794a19.533,19.533,0,0,0,1.484-1.45c.035-.035.069-.069.069-.1.483-.518.9-1.07,1.312-1.588a25.415,25.415,0,0,0,1.415-2.14l.035-.035a3.774,3.774,0,0,0,.276-.518l.035-.035c.035-.069.069-.1.1-.173a5.2,5.2,0,0,0,.38-.759c.035-.069.069-.1.069-.173a4.047,4.047,0,0,1,.173-.38c.035-.1.1-.207.138-.311s.1-.207.138-.311c.069-.207.173-.38.242-.587a.5.5,0,0,0,.069-.242c.069-.138.1-.311.173-.449.035-.069.035-.138.069-.207l.035-.069a3.4,3.4,0,0,0,.173-.552v-.035a6.057,6.057,0,0,0,.621-.9c.035-.035.035-.069.069-.1a3.865,3.865,0,0,0,.345-1.8m-55.96.207c0-.035-.035-.069-.035-.138-.173-.587-.345-1.174-.483-1.8,0-.035-.035-.069-.035-.138-.1.035-.207.207-.276.38-.035.069-.069.173-.1.242a10.805,10.805,0,0,0-.414,1.484,7.508,7.508,0,0,0-.035-.863v-1.1c0-.345.035-.656.035-.967v-.449c0-.242.035-.483.035-.725,0-.207.035-.414.035-.587v-.863a.259.259,0,0,1,.035-.173V91.63l-.069.069c-.035.069-.1.1-.138.173l-.035.069a.865.865,0,0,0-.138.242l-.035.035c-.069.1-.1.207-.173.311l-.035.035a.121.121,0,0,1-.035.069.491.491,0,0,0-.069.207v.069l-.1.311c-.069.311-.138.587-.173.794,0,.069-.035.173-.035.242a1.335,1.335,0,0,0-.035.311v-.276c0-.173-.035-.38-.035-.552V92.044c0-.1.035-.242.035-.345v-.035a.587.587,0,0,1,.035-.242v-.035c.035-.173.035-.345.069-.518V90.7a7.074,7.074,0,0,1,.173-.829v-.035a5.048,5.048,0,0,1,.173-.69V89.11a1.067,1.067,0,0,0,.069-.276c.035-.138.069-.276.1-.449v-.035a1.407,1.407,0,0,1,.069-.242c0-.035.035-.1.035-.138.035-.069.035-.173.069-.242l.035-.069.449-1.139c.035-.035.035-.1.069-.138v-.035l.035-.069c.035-.138.1-.242.138-.38l.207-.518c.138-.345.242-.621.311-.794a1.451,1.451,0,0,1,.069-.173c-.035,0-.207-.1-.518-.242a12.047,12.047,0,0,0-1.484-.587,4.173,4.173,0,0,0-.621-.173l-.829-.207c-.069,0-.138-.035-.207-.035l-.725-.1a2.613,2.613,0,0,0-.518-.035A1.681,1.681,0,0,1,29.6,83h-.414c-.173,0-.38.035-.552.035a.76.76,0,0,0-.276.035,11.046,11.046,0,0,0-1.139.242l-.069.035a9.379,9.379,0,0,0-1.933.759,3.278,3.278,0,0,0-.587.345c-.069.035-.1.069-.173.1a.722.722,0,0,0-.207.138,10.392,10.392,0,0,0-1.623,1.381l-.035.035a8.939,8.939,0,0,0-1.1,1.45c-.1.138-.173.311-.276.449a2.752,2.752,0,0,0-.276.552c-.173.345-.311.725-.449,1.07-.035.138-.1.276-.138.38,0,.035,0,.035-.035.069a11.535,11.535,0,0,0-.414,2.693v.621c0,.138.035.276.035.449a3.442,3.442,0,0,0,.069.552v.069c.035.138.035.276.069.414v.069a.127.127,0,0,0,.035.1c.035.1.035.207.069.311v.035c0,.069.035.1.035.173.035.1.035.207.069.276s.035.138.069.207c.035.1.069.173.1.276a.491.491,0,0,1,.069.207l.035.035.035.069.035.069.035.069.1.207a1.683,1.683,0,0,1,.1.242l.1.207.345.1c.035.069.069.1.069.138a.723.723,0,0,0,.138.207l.1.207c.035.035.035.069.069.1s.035.069.069.1a.755.755,0,0,0,.1.173c.035.069.1.138.138.207s.069.1.1.173c.069.069.1.138.173.207.035.035.069.1.138.138a.915.915,0,0,1,.173.207c.035.035.069.1.138.138l.207.207a.476.476,0,0,1,.1.138l.207.207.1.1c.069.069.173.138.242.207l.1.1c.069.069.173.138.242.207.035.035.069.069.1.069.1.069.173.138.276.207.035.035.069.035.1.069a1.916,1.916,0,0,1,.276.207c.035.035.069.035.1.069a1.4,1.4,0,0,0,.311.173c.035,0,.069.035.1.035.1.069.207.1.311.173l.069.035c.1.069.242.1.345.173l.069.035a1.236,1.236,0,0,0,.38.138l.069.035c.138.035.242.1.38.138l.069.035a1.946,1.946,0,0,1,.414.138h.035l.414.1h.035l.414.1h.035c.069,0,.138.035.207.035s.138.035.242.035h.035a1.968,1.968,0,0,0,.449.035c.138,0,.311.035.483.035a10.2,10.2,0,0,0,1.45-.069c.1,0,.242-.035.345-.035.173-.035.311-.069.483-.1a4.6,4.6,0,0,0,.656-.173c.207-.069.38-.1.587-.173a6.428,6.428,0,0,0,.863-.345,6.927,6.927,0,0,0,2-1.208s-.483-1.312-.9-2.658c.035,0,0-.138-.035-.276" transform="translate(-19.9 -58.8)" fill="#90694c"/>
      </g>
      <g id="Group_85" data-name="Group 85" transform="translate(13.118 26.237)">
        <path id="Path_154" data-name="Path 154" d="M102.935,108.8a1.886,1.886,0,0,0-.311-.967l-.069-.069-.035-.035-.1-.1a1.924,1.924,0,0,0-.276-.173c-.069-.035-.1-.035-.173-.069a1.488,1.488,0,0,0-.587-.1,3.159,3.159,0,0,0-.552.035c-.069,0-.173.035-.242.035h-.035a.107.107,0,0,0,.035.069c0,.035.035.069.069.138,0,.035.035.035.035.069a2.879,2.879,0,0,1,.138.414.267.267,0,0,1-.035.1v.035A6.257,6.257,0,0,1,100,109.8a3.239,3.239,0,0,1-.311.414c-1.484,1.968-4.9,4.971-12.531,7.353a28.321,28.321,0,0,1-7.146,1.036c-3.141,0-5.558-.69-6.8-1.9l-.311-.311c-.069-.069-.138-.173-.207-.242-.035-.035-.035-.069-.069-.1a5.285,5.285,0,0,1-.967-2.486,4.944,4.944,0,0,1,.552-2.934,3.382,3.382,0,0,1,1.588-1.519,3.759,3.759,0,0,1,1.07-.276h1.519a36.109,36.109,0,0,0,6.628-.587,29.5,29.5,0,0,0,17.088-9.7v-.035a2.824,2.824,0,0,0-.863-1.864,1.242,1.242,0,0,0-.414-.276,2.046,2.046,0,0,0-.276-.138c-.1-.035-.173-.069-.276-.1a2.505,2.505,0,0,1-.311-.173v-.035c-.035-.069-.1-.1-.138-.173a16.921,16.921,0,0,0-5.213-3.866,6.6,6.6,0,0,0-.725-.345c-2.037-.932-2.347-1.277-2.589-4.419-.069-1.139-.138-2.624-.276-4.66a5.171,5.171,0,0,0-.069-.759.311.311,0,0,0-.035-.173c-.035-.242-.069-.449-.1-.656v-.138c-.035-.173-.069-.345-.1-.483,0-.069-.035-.138-.035-.207a1.979,1.979,0,0,0-.138-.483c-.035-.069-.035-.173-.069-.242a1.686,1.686,0,0,0-.1-.242c-.035-.069-.069-.173-.1-.242-.035-.1-.069-.173-.1-.276,0-.035-.035-.069-.035-.1s-.035-.069-.035-.1v-.035l-.035-.1-.1-.207v-.035l-.035-.069-.035-.069a1.24,1.24,0,0,0-.242-.345l-.069-.069c-.1-.1-.173-.207-.276-.311l-.035-.035-.035-.035a.915.915,0,0,1-.173-.207l-.069-.069c-.069-.069-.173-.138-.242-.207-.1-.069-.207-.173-.311-.242a1.034,1.034,0,0,0-.345-.138c-.035,0-.069-.035-.1-.035-.069-.035-.138-.035-.207-.069a.261.261,0,0,1-.138-.035c-.069,0-.138-.035-.207-.035h-.725c-.069,0-.1.035-.173.035a.127.127,0,0,0-.1.035l-.069.035c-.035,0-.069.035-.1.035s-.069.035-.1.035a.491.491,0,0,1-.207.069l-.069.035a4.12,4.12,0,0,0-.552.276l-.069.035c-.069.035-.138.1-.207.138l-.069.069c-.069.035-.138.1-.207.138L82.706,77a.754.754,0,0,0-.173.138l-.069.069c-.069.069-.138.1-.207.173l-.069.069a.916.916,0,0,1-.207.173l-.035.035c-.069.069-.173.138-.242.207-.138.138-.311.276-.449.414a3.782,3.782,0,0,0-.38.345l-.069.069c-.138.1-.276.242-.414.345l-.069.069-.414.311-.069.069a5.044,5.044,0,0,1-.449.311l-.069.035c-.138.1-.311.173-.449.276l-.069.035c-.173.069-.311.173-.483.242h-.035a2.587,2.587,0,0,1-.552.173,8.832,8.832,0,0,1-.932.173,8.04,8.04,0,0,1-1.588.069,3.158,3.158,0,0,1-.552-.035h-.207c-.483-.035-.932-.069-1.415-.138-.207-.035-.414-.035-.587-.069-.311-.035-.656-.069-.967-.1a.438.438,0,0,1-.207-.035h-.138a.438.438,0,0,1-.207-.035h-.449a1.968,1.968,0,0,1-.449-.035H68.517c-.1,0-.207.035-.311.035h-.173a1.469,1.469,0,0,0-.38.069h-.1c-.138.035-.311.069-.449.1-.035,0-.069.035-.138.035-.1.035-.207.035-.311.069h-.035c-.069,0-.1.035-.173.035l-.311.1c-.069.035-.1.035-.173.069a1.226,1.226,0,0,0-.311.138c-.069.035-.1.035-.173.069-.1.035-.207.1-.311.138-.035.035-.1.035-.138.069a3.45,3.45,0,0,0-.483.276,10.622,10.622,0,0,0-2.934,3.383c-.242.449-.449.9-.656,1.346a8.266,8.266,0,0,0-.483,1.484c-.035.138-.069.311-.1.449a5.854,5.854,0,0,0-.138.759v.069c-.035.276-.069.587-.1.863a8.108,8.108,0,0,0-.035.9v.483a8.536,8.536,0,0,0,.173,1.312.127.127,0,0,0,.035.1c.035.1.035.207.069.345a6.811,6.811,0,0,0,.242.9,1.226,1.226,0,0,0,.138.311l.1.311a9.8,9.8,0,0,0,1.174,2.037,12.1,12.1,0,0,0,6.007,4,21.5,21.5,0,0,0,2.14.518l-.069.069a2.113,2.113,0,0,0-.414.173,8.108,8.108,0,0,0-.829.38,11.642,11.642,0,0,0-1.1.587,13.36,13.36,0,0,0-3.176,2.417,3.938,3.938,0,0,1-.38.38c-.207.242-.38.483-.552.725-.035.035-.035.069-.069.069-.035.035-.069.069-.069.1l-.207.311c-.035.035-.035.069-.069.138-.069.138-.173.276-.242.449-.069.138-.138.311-.207.449a6.9,6.9,0,0,0-.38,4.246v-.38a.375.375,0,0,1,.035-.173,1.5,1.5,0,0,1,.035-.173v-.035c0-.069.035-.138.035-.207v-.035a.491.491,0,0,1,.069-.207v-.035c.035-.069.035-.173.069-.242v-.069a2.38,2.38,0,0,0,.1-.276,2.112,2.112,0,0,1,.173-.414c.035-.035.035-.1.069-.138l.035-.035c.069-.1.1-.207.173-.311a1.211,1.211,0,0,1,.173-.276c.035-.035.035-.069.069-.069.035-.069.1-.138.138-.207.035-.035.035-.069.069-.069a1.5,1.5,0,0,1,.207-.242s-1.07,3.521-.1,6.11v-1.277a.673.673,0,0,1,.035-.276v-.035c0-.1.035-.207.035-.311a.127.127,0,0,1,.035-.1v-.069c.035-.069.035-.173.069-.242.035-.1.069-.242.1-.345,0-.035.035-.069.035-.1a1.4,1.4,0,0,1,.173-.311,12.016,12.016,0,0,0,.173,1.83c.035.138.035.311.069.483.035.1.035.207.069.311a11.5,11.5,0,0,0,.311,2.106,15.906,15.906,0,0,0,1.381,3.728,4.95,4.95,0,0,1-.173-3.107c.069.138.173.276.242.414a17.513,17.513,0,0,0,.518,1.8,13.179,13.179,0,0,0,4.039,6.9,4.217,4.217,0,0,1-1.1-2.658c.138.207.242.38.345.518a18.172,18.172,0,0,0,2.555,2.969s-.9-1.312-.794-1.657c0,0,2.762,2.693,3.556,2.865l-1.208-1.519-.035-.035c3.8,2.106,8.665,2.417,14.361.069a30.129,30.129,0,0,0,3-1.484c.621-.38,1.243-.759,1.864-1.208l.1-.069c.414-.311.829-.621,1.243-.967.311-.242.621-.518.932-.794a19.537,19.537,0,0,0,1.484-1.45c.035-.035.069-.069.069-.1.483-.518.9-1.07,1.312-1.588a25.419,25.419,0,0,0,1.415-2.14l.035-.035a3.774,3.774,0,0,0,.276-.518l.035-.035c.035-.069.069-.1.1-.173a5.2,5.2,0,0,0,.38-.759c.035-.069.069-.1.069-.173a4.049,4.049,0,0,1,.173-.38c.035-.1.1-.207.138-.311s.1-.207.138-.311c.069-.207.173-.38.242-.587a.5.5,0,0,0,.069-.242c.069-.138.1-.311.173-.449.035-.069.035-.138.069-.207l.035-.069a3.393,3.393,0,0,0,.173-.552v-.035a6.057,6.057,0,0,0,.621-.9c.035-.035.035-.069.069-.1a5.88,5.88,0,0,0,.173-1.657m-56.512-1.864c-.1.035-.207.207-.276.38-.035.069-.069.173-.1.242a10.8,10.8,0,0,0-.414,1.484,7.508,7.508,0,0,0-.035-.863v-1.1c0-.345.035-.656.035-.967v-.449c0-.242.035-.483.035-.725,0-.207.035-.414.035-.587v-.863a.259.259,0,0,1,.035-.173v-.414l-.069.069c-.035.069-.1.1-.138.173l-.035.069a.865.865,0,0,0-.138.242l-.035.035c-.069.1-.1.207-.173.311l-.035.035a.121.121,0,0,1-.035.069.49.49,0,0,0-.069.207v.069l-.1.311c-.069.311-.138.587-.173.794,0,.069-.035.173-.035.242a1.335,1.335,0,0,0-.035.311v-.276c0-.173-.035-.38-.035-.552v-1.692c0-.1.035-.242.035-.345v-.035a.587.587,0,0,1,.035-.242v-.035c.035-.173.035-.345.069-.518v-.173a7.067,7.067,0,0,1,.173-.829V101.1a5.044,5.044,0,0,1,.173-.69v-.035a1.067,1.067,0,0,0,.069-.276c.035-.138.069-.276.1-.449v-.035a1.407,1.407,0,0,1,.069-.242c0-.035.035-.1.035-.138.035-.069.035-.173.069-.242l.035-.069c-.035-.035-.1-.035-.173-.069h-.035l-.069-.035a5.621,5.621,0,0,0-1.036-.242H44.11a4.627,4.627,0,0,0-.69-.035,1.681,1.681,0,0,0-.414.035c-.1,0-.242.035-.345.035l-.518.1c-.069,0-.1.035-.138.035-.069.035-.173.035-.242.069-.035,0-.069.035-.1.035-.069.035-.1.035-.173.069-.1.035-.207.1-.311.138-.035.035-.1.035-.138.069a2.575,2.575,0,0,0-.414.242.477.477,0,0,0-.138.1.345.345,0,0,0-.173.138l-.069.035c-.069.035-.138.1-.207.138s-.1.1-.173.138c-.069.069-.138.1-.207.173l-.1.1a3.115,3.115,0,0,0-.311.345c-.035.069-.1.1-.138.173-.069.1-.173.207-.242.311l-.035.069a.755.755,0,0,1-.1.173c-.035.035-.035.069-.069.138a8.829,8.829,0,0,0-.38.829c0,.035-.035.069-.035.138l-.1.414c0,.069-.035.1-.035.173a2.021,2.021,0,0,0-.069.449v.138c0,.1-.035.207-.035.345v.483c0,.173.035.345.035.518.035.138.035.276.069.414v.069a.491.491,0,0,0,.069.207,4.927,4.927,0,0,0,.276.759,4.122,4.122,0,0,0,.276.552,8.281,8.281,0,0,0,.621.9,5.439,5.439,0,0,0,1.8,1.381,6.563,6.563,0,0,0,1.243.414,5.176,5.176,0,0,0,1.277.138h.311c.138,0,.311-.035.449-.035a1.733,1.733,0,0,1,.414-.069c.069,0,.138-.035.242-.035a2.588,2.588,0,0,0,.552-.173h.035l.207-.1a3.935,3.935,0,0,0,.656-.345l.035-.035c.069-.035.1-.069.173-.1-.173-.587-.345-1.174-.483-1.8.207,0,.173-.069.173-.1" transform="translate(-38 -76)" fill="#fce9cd"/>
      </g>
      <g id="Group_86" data-name="Group 86" transform="translate(40.537 30.1)">
        <path id="Path_155" data-name="Path 155" d="M124.562,91.475a3.641,3.641,0,0,0-.829-.207,2.968,2.968,0,0,0-.552-.035h-.207a7.081,7.081,0,0,0-1.692.276c-.173.069-.311.138-.483.207a5.277,5.277,0,0,0-2.486,2.106,5.458,5.458,0,0,0-.759,2.037c0,.069-.035.1-.035.173-.035.173-.035.345-.069.518a10.081,10.081,0,0,0,0,1.45,4.384,4.384,0,0,0,.138.9c.173-.483.345-.967.518-1.381a12.266,12.266,0,0,1,1.519-2.693A9.43,9.43,0,0,1,122.8,92.1a6.408,6.408,0,0,1,1.761-.621m14.6-3.59-.035-.035a2.1,2.1,0,0,0-.552-.414,2.6,2.6,0,0,0-2.071-.069,3.757,3.757,0,0,0-1.588,1.174,4.1,4.1,0,0,1,3.9.138,5.624,5.624,0,0,1,.587.38,4.113,4.113,0,0,1,.621.518,3.624,3.624,0,0,0-.759-1.519.369.369,0,0,0-.1-.173m-17.33,12.393a.916.916,0,0,1,.207-.173c.035-.035.069-.069.1-.069.069-.069.138-.1.207-.173a.476.476,0,0,1,.138-.1c.069-.035.138-.1.207-.138.035-.035.1-.069.138-.1.069-.035.138-.1.207-.138s.1-.069.173-.1a1.683,1.683,0,0,1,.242-.1l.207-.1c.069-.035.173-.069.242-.1a.64.64,0,0,1,.242-.069.5.5,0,0,1,.242-.069h.035a1.021,1.021,0,0,1,.345-.069.127.127,0,0,0,.1-.035c.069,0,.138-.035.207-.035h.1a.438.438,0,0,0,.207-.035h.38a1.681,1.681,0,0,1,.414.035h.069a1.468,1.468,0,0,1,.38.069h.069c.138.035.242.035.345.069h.035c.1.035.242.069.345.1a3.58,3.58,0,0,1,.345.138,1.4,1.4,0,0,1,.311.173,3.09,3.09,0,0,0-2.14-2.313,3.824,3.824,0,0,0-.656-.069h-.173a2.578,2.578,0,0,0-.69.1,3.367,3.367,0,0,0-2.831,3.625c.069-.069.138-.173.207-.242l.035-.069" transform="translate(-117.425 -87.191)" fill="#e9b784"/>
      </g>
      <path id="Path_156" data-name="Path 156" d="M169.244,156.765a.121.121,0,0,0-.035-.069c-.035-.069-.035-.1-.069-.138a6.907,6.907,0,0,0-.725-1.208,2.934,2.934,0,0,0-.518-.518,1.681,1.681,0,0,0,.035-.414c0-.173.035-.345.035-.518a4.784,4.784,0,0,0-.794-2.693.722.722,0,0,1-.138-.207c-.173.173-.345.311-.518.483a30.276,30.276,0,0,1-11.737,6.317,35.474,35.474,0,0,1-9.735,1.312h.069a3.273,3.273,0,0,0-2.313,2.555h.035v1.346a4.062,4.062,0,0,0,2.244,3.245,15.28,15.28,0,0,0,3.521.38,26.8,26.8,0,0,0,7.422-1.139,31.121,31.121,0,0,0,11.358-6.214,17.446,17.446,0,0,0,1.933-2l.035-.035.035-.035a1.378,1.378,0,0,0-.138-.449" transform="translate(-93.503 -98.872)" fill="#fff"/>
      <g id="Group_87" data-name="Group 87" transform="translate(13.394 27.445)">
        <path id="Path_157" data-name="Path 157" d="M136.942,120.9a2.205,2.205,0,0,1-.242.069.5.5,0,0,0,.242-.069h0" transform="translate(-102.903 -106.608)" fill="#f2d2ac"/>
        <path id="Path_158" data-name="Path 158" d="M115.528,101.18c.1-.069.242-.173.345-.242.035-.035.1-.069.138-.1a2.1,2.1,0,0,0,.345-.242c.069-.035.1-.069.173-.1.1-.069.242-.138.345-.207a.754.754,0,0,0,.173-.1c.1-.069.242-.138.345-.207a.722.722,0,0,0,.207-.138c.1-.069.242-.138.345-.207.069-.035.173-.1.242-.138a1.614,1.614,0,0,1,.345-.173c.1-.035.173-.1.276-.138.1-.069.242-.1.345-.173.1-.035.207-.1.311-.138.1-.069.242-.1.345-.173a3.209,3.209,0,0,1,.345-.173,3.582,3.582,0,0,1,.345-.138c.138-.069.242-.1.38-.173.1-.035.207-.1.311-.138.138-.069.276-.1.414-.173l.207-.1c.38-1.484,1.623-5.178,4.419-5.9.311-.069.587-.138.829-.173.069,0,.138-.035.207-.035a4.012,4.012,0,0,1-.138-.621c-.276-1.484.035-2.8.69-2.934.518-.1,1,.587,1.1.829a6.179,6.179,0,0,1,.587,1.657,5.249,5.249,0,0,1,.069,1.623l.173.173a4.137,4.137,0,0,1,1.07,2.624c.242-.069.518-.1.759-.173.069,0,.138-.035.207-.035h.035a.127.127,0,0,0,.1-.035c.311-.069.656-.138.967-.207.725-.138,1.519-.276,2.278-.414a6.6,6.6,0,0,0-.725-.345c-2.037-.932-2.347-1.277-2.589-4.419-.069-1.139-.138-2.624-.276-4.66a5.172,5.172,0,0,0-.069-.759.311.311,0,0,0-.035-.173c-.035-.242-.069-.449-.1-.656v-.138c-.035-.173-.069-.345-.1-.483,0-.069-.035-.138-.035-.207a1.979,1.979,0,0,0-.138-.483c-.035-.069-.035-.173-.069-.242a1.682,1.682,0,0,0-.1-.242c-.035-.069-.069-.173-.1-.242a4.073,4.073,0,0,0-1.1-.932l-.069-.035-.069-.035h-.035a.755.755,0,0,1-.173-.1l-.207-.1a4.52,4.52,0,0,0-1.933-.414c-.38,0-.759.035-1.139.069-.173.035-.38.069-.552.1a7.944,7.944,0,0,0-1.45.483c-.138.138-.311.276-.449.414a3.78,3.78,0,0,0-.38.345l-.069.069c-.138.1-.276.242-.414.345l-.069.069-.414.311-.069.069a5.05,5.05,0,0,1-.449.311l-.069.035c-.138.1-.311.173-.449.276l-.069.035c-.173.069-.311.173-.483.242h-.035a2.588,2.588,0,0,1-.552.173,8.836,8.836,0,0,1-.932.173,8.043,8.043,0,0,1-1.588.069,3.16,3.16,0,0,1-.552-.035h-.207c-.483-.035-.932-.069-1.415-.138-.207-.035-.414-.035-.587-.069-.311-.035-.656-.069-.967-.1a.438.438,0,0,1-.207-.035,6.528,6.528,0,0,0-.794.173H112.8a13.506,13.506,0,0,0-2.244.829c-.035.035-.069.035-.138.069-.1.069-.242.1-.345.173a3.151,3.151,0,0,0-.449.276,13.034,13.034,0,0,0-2.969,2.417,8.762,8.762,0,0,0-1,1.243,13.991,13.991,0,0,0-1.243,2.037c-.035.035-.035.069-.069.1-.173.38-.345.759-.483,1.139-.035.138-.1.276-.138.414v.035c-.138.449-.276.9-.38,1.381v.069c0,.069-.035.138-.035.207l-.1.621a4.229,4.229,0,0,0-.069.656v.138a1.681,1.681,0,0,1-.035.414,10.2,10.2,0,0,0,.069,1.45c0,.1.035.242.035.345a9.8,9.8,0,0,0,1.174,2.037,12.1,12.1,0,0,0,6.007,4,21.5,21.5,0,0,0,2.14.518l.035.035.035-.035.242-.242.1-.1c.1-.069.173-.173.276-.242.035-.035.069-.069.1-.069.1-.069.173-.173.276-.242.035-.035.069-.069.1-.069.1-.069.207-.173.311-.242.035-.035.069-.069.1-.069.1-.069.207-.173.311-.242.035-.035.069-.069.1-.069.1-.069.207-.173.311-.242l.1-.1a2.988,2.988,0,0,1,.345-.242c.173-.035.207-.069.242-.1m11.565-18.849a2.476,2.476,0,0,1,2.071.069,1.661,1.661,0,0,1,.552.414l.035.035a.476.476,0,0,1,.1.138,3.831,3.831,0,0,1,.759,1.519c-.207-.207-.414-.345-.621-.518-.207-.138-.414-.276-.587-.38a4.1,4.1,0,0,0-3.9-.138,3.879,3.879,0,0,1,1.588-1.139m-16.812,7.457a12.267,12.267,0,0,0-1.519,2.693c-.173.449-.345.9-.518,1.381,0,0-.069-.345-.138-.9a6.752,6.752,0,0,1,0-1.45,2.666,2.666,0,0,1,.069-.518c0-.069.035-.1.035-.173a6.128,6.128,0,0,1,.759-2.037,5.451,5.451,0,0,1,2.486-2.106c.138-.069.311-.138.483-.207a7.08,7.08,0,0,1,1.692-.276h.207a2.97,2.97,0,0,1,.552.035,3.641,3.641,0,0,1,.829.207,6.037,6.037,0,0,0-1.726.621,9.183,9.183,0,0,0-3.211,2.727m1.519,6.835a.154.154,0,0,1-.173,0c-.1-.069.035-.518.518-1.07a3.367,3.367,0,0,1,2.831-3.625c.242-.035.483-.069.69-.1h.173a3.823,3.823,0,0,1,.656.069,2.993,2.993,0,0,1,2.14,2.313c.483.276.69.552.621.587-.035.069-.1.069-.207.069a2.185,2.185,0,0,1-.725.138,17.446,17.446,0,0,0-2.934.449c-.069.035-.173.035-.242.069-1.726.483-3.038,1.243-3.349,1.1m4.522-3h0m27.963,20.437a19.934,19.934,0,0,1-3.521,3.176,17.7,17.7,0,0,1-1.8,1.174,26.482,26.482,0,0,1-3.763,1.83,21.825,21.825,0,0,1-4.384,1.208,8.039,8.039,0,0,0,4.591.1c.829-.207,1.415-.414,1.415-.414a10.636,10.636,0,0,1,0,1.484,8.035,8.035,0,0,1-.242,1.415v.035a5.535,5.535,0,0,1-.587,1.45c-.035.035-.035.1-.069.138l.1-.069c.414-.311.829-.621,1.243-.967.311-.242.621-.518.932-.794a19.537,19.537,0,0,0,1.484-1.45c.035-.035.069-.069.069-.1.483-.518.9-1.07,1.312-1.588a25.411,25.411,0,0,0,1.415-2.14l.035-.035a3.775,3.775,0,0,0,.276-.518l.035-.035c.035-.069.069-.1.1-.173a5.2,5.2,0,0,0,.38-.759c.035-.069.069-.1.069-.173a4.049,4.049,0,0,1,.173-.38c.035-.1.1-.207.138-.311s.1-.207.138-.311c.069-.207.173-.38.242-.587a.5.5,0,0,0,.069-.242c.069-.138.1-.311.173-.449.035-.069.035-.138.069-.207l.035-.069a3.391,3.391,0,0,0,.173-.552,1.291,1.291,0,0,0-.311.311m-32.968-9.908a11.631,11.631,0,0,0-1.1.587,13.36,13.36,0,0,0-3.176,2.417,3.939,3.939,0,0,1-.38.38c-.207.242-.38.483-.552.725-.035.035-.035.069-.069.069-.035.035-.069.069-.069.1l-.207.311c-.035.035-.035.069-.069.138-.069.138-.173.276-.242.449-.069.138-.138.311-.207.449a6.9,6.9,0,0,0-.38,4.246v-.38a.375.375,0,0,1,.035-.173,1.5,1.5,0,0,1,.035-.173v-.035c0-.069.035-.138.035-.207v-.035a.491.491,0,0,1,.069-.207v-.035c.035-.069.035-.173.069-.242v-.069a2.379,2.379,0,0,0,.1-.276,2.112,2.112,0,0,1,.173-.414c.035-.035.035-.1.069-.138l.035-.035c.069-.1.1-.207.173-.311a1.211,1.211,0,0,1,.173-.276c.035-.035.035-.069.069-.069.035-.069.1-.138.138-.207.035-.035.035-.069.069-.069a1.5,1.5,0,0,1,.207-.242s-1.07,3.521-.1,6.11v-1.277a.673.673,0,0,1,.035-.276v-.035c0-.1.035-.207.035-.311a.127.127,0,0,1,.035-.1v-.069c.035-.069.035-.173.069-.242.035-.1.069-.242.1-.345,0-.035.035-.069.035-.1a1.4,1.4,0,0,1,.173-.311,12.016,12.016,0,0,0,.173,1.83c.035.138.035.311.069.483.035.1.035.207.069.311a12.528,12.528,0,0,1,.173-3.038,6.531,6.531,0,0,1,.173-.794.127.127,0,0,1,.035-.1l.207-.725c0-.035.035-.1.035-.138a5.48,5.48,0,0,1,.242-.69c0-.035.035-.069.035-.1.173-.483.38-.9.587-1.346,0-.035.035-.069.035-.1.069-.173.173-.311.242-.483.035-.035.035-.069.069-.138.035-.035.035-.069.069-.1.1-.173.207-.38.311-.552a.12.12,0,0,1,.035-.069c.1-.173.242-.38.345-.552l.414-.621.311-.414c.035-.035.069-.1.1-.138a9.536,9.536,0,0,1,.725-.863,19.637,19.637,0,0,1,1.415-1.45,2.113,2.113,0,0,0-.414.173,2.482,2.482,0,0,0-.829.311" transform="translate(-80.902 -79.5)" fill="#f2d2ac"/>
        <path id="Path_159" data-name="Path 159" d="M88.028,119.547a1.112,1.112,0,0,1-.069-.207c-.173-.483-.794-1.588-2.693-1.139a3.331,3.331,0,0,0-2.555,2.693.739.739,0,0,0-.035.207l.069.035a1.077,1.077,0,0,1,1.174-.069,1.528,1.528,0,0,1,.518.414.678.678,0,0,1,.173.725c-.035.035-.035.1-.069.138a.5.5,0,0,0,.207.035,2.728,2.728,0,0,0,2.865-.967c.035-.069.069-.1.1-.173a.672.672,0,0,1-.345-.587.982.982,0,0,1,0-.449c.1-.449.38-.759.656-.656m-8.078,15.88c-1.243.414-2.347.759-3.211,1h.138a36.109,36.109,0,0,0,6.628-.587,29.5,29.5,0,0,0,17.088-9.7v-.035a2.824,2.824,0,0,0-.863-1.864,1.241,1.241,0,0,0-.414-.276c-.035,0-.035-.035-.069-.035-.173-.069-.311-.138-.449-.207a2.5,2.5,0,0,1-.311-.173v-.035a13.246,13.246,0,0,1-1.1,1.726,7.234,7.234,0,0,1-.483.587,23.721,23.721,0,0,1-5.765,4.626,63.85,63.85,0,0,1-11.185,4.971m-33.59-4.9c-.035.069-.1.1-.138.173l-.035.069a.865.865,0,0,0-.138.242l-.035.035c-.069.1-.1.207-.173.311l-.035.035a.121.121,0,0,1-.035.069.491.491,0,0,0-.069.207v.069l-.1.311c-.069.311-.138.587-.173.794,0,.069-.035.173-.035.242a1.336,1.336,0,0,0-.035.311v-.276c0-.173-.035-.38-.035-.552V130.87c0-.1.035-.242.035-.345v-.035a.588.588,0,0,1,.035-.242v-.035c.035-.173.035-.345.069-.518v-.173a7.071,7.071,0,0,1,.173-.829v-.035a5.046,5.046,0,0,1,.173-.69v-.035a1.067,1.067,0,0,0,.069-.276c.035-.138.069-.276.1-.449v-.035a1.407,1.407,0,0,1,.069-.242c0-.035.035-.1.035-.138.035-.069.035-.173.069-.242l.035-.069c-.035-.035-.1-.035-.173-.069h-.035l-.069-.035a5.618,5.618,0,0,0-1.036-.242h-.069a4.627,4.627,0,0,0-.69-.035,1.681,1.681,0,0,0-.414.035c-.1,0-.242.035-.345.035l-.518.1c-.069,0-.1.035-.138.035-.069.035-.173.035-.242.069-.035,0-.069.035-.1.035-.069.035-.1.035-.173.069-.1.035-.207.1-.311.138-.035.035-.1.035-.138.069a2.572,2.572,0,0,0-.414.242.476.476,0,0,0-.138.1.345.345,0,0,0-.173.138l-.069.035c-.069.035-.138.1-.207.138s-.1.1-.173.138c-.069.069-.138.1-.207.173l-.1.1a3.112,3.112,0,0,0-.311.345c-.035.069-.1.1-.138.173-.069.1-.173.207-.242.311l-.035.069a.755.755,0,0,1-.1.173c-.035.035-.035.069-.069.138a8.824,8.824,0,0,0-.38.829c0,.035-.035.069-.035.138l-.1.414c0,.069-.035.1-.035.173,0,.035.035.069.035.1.069.1.1.242.173.345l.035.035.035.035a3.206,3.206,0,0,1,.173.345,9.394,9.394,0,0,0,.552.863c.035.035.069.069.069.1l.035.207.035.035c.138.173.276.345.38.483.173.207.345.38.449.483l.069.069.035.035.069.069c-.035-.069-.035-.1-.069-.173a8.6,8.6,0,0,1-.311-1.277v-.069a6.74,6.74,0,0,1-.069-.794.694.694,0,0,0,.138.276l.207.414.035.035a9.636,9.636,0,0,0,.863,1.381,8.566,8.566,0,0,0,.794.9c.035.035.069.069.1.069l.069.069a6.436,6.436,0,0,1-.345-1.346c-.035-.138-.035-.311-.069-.449a3.159,3.159,0,0,1-.035-.552c.138.311.242.587.38.863v.035a9.637,9.637,0,0,0,1.381,2l.035.035c.069.069.1.138.173.173l.1.1.069.069.035.035-.035-.069c-.035-.069-.035-.138-.069-.173a5.048,5.048,0,0,1-.173-.69c-.035-.138-.069-.311-.1-.449s-.035-.276-.069-.414v-.069a.438.438,0,0,0-.035-.207v-.069c0-.173-.035-.38-.035-.552.035.1.1.242.138.345.035.069.069.173.1.242v.035l.035.035c.035.1.1.173.138.276a5.108,5.108,0,0,0,.276.449,5.856,5.856,0,0,0,.345.483,1.049,1.049,0,0,1,.173.242c.069.1.138.173.207.276a.915.915,0,0,1,.173.207l.035.035.138.138.1.1.138.138.035.035v-1.1c0-.345.035-.656.035-.967v-.449c0-.242.035-.483.035-.725,0-.207.035-.414.035-.587v-.863a.259.259,0,0,1,.035-.173v-.414l.276-.069m43.29,9.148c.449-.242.863-.414,1.174-.587.621-.345.967-.587.932-.656s-.414.035-1.1.276c-.345.138-.759.242-1.208.414-.242.1-.483.138-.759.242-.276.069-.552.173-.863.242-.587.173-1.277.311-2,.518-.345.069-.725.138-1.1.242-.38.069-.794.138-1.208.207a26.744,26.744,0,0,1-5.351.311,10.678,10.678,0,0,1-3.349-.759h-.035a3.273,3.273,0,0,1,2.313-2.555H75.462a2.382,2.382,0,0,0-1.968,1.657c-.035.069-.035.138-.069.207a4.549,4.549,0,0,0-.173,1.415A4.054,4.054,0,0,0,74.5,143.54a5.725,5.725,0,0,0,2.52,1.208,4.2,4.2,0,0,1-2.244-3.245,14.779,14.779,0,0,0,3.28.483,24.16,24.16,0,0,0,5.593-.38c.414-.1.829-.173,1.243-.276.38-.1.794-.207,1.139-.311.725-.207,1.381-.414,2-.656a6.421,6.421,0,0,0,.863-.345,8.1,8.1,0,0,0,.759-.345" transform="translate(-38.8 -104.772)" fill="#f2d2ac"/>
      </g>
      <g id="Group_88" data-name="Group 88" transform="translate(44.086 36.099)">
        <path id="Path_160" data-name="Path 160" d="M143.412,108.136a3.007,3.007,0,0,1,2.278.552,5.25,5.25,0,0,0-.069-1.623,5.184,5.184,0,0,0-.587-1.657c-.1-.242-.587-.932-1.1-.829-.656.138-.967,1.415-.69,2.934.069.207.1.414.173.621M131.4,111.243a6.857,6.857,0,0,1,3-.069,4.639,4.639,0,0,0,.759.1.292.292,0,0,0,.207-.069c.069-.069-.173-.345-.621-.587-.1-.069-.207-.1-.311-.173-.1-.035-.242-.1-.345-.138s-.207-.069-.345-.1h-.035a1.227,1.227,0,0,0-.345-.069H133.3c-.1-.035-.242-.035-.38-.069h-.069c-.138,0-.276-.035-.414-.035h-.38a.438.438,0,0,0-.207.035h-.1c-.069,0-.138.035-.207.035a.127.127,0,0,0-.1.035c-.1.035-.207.035-.311.069h-.035a2.2,2.2,0,0,1-.242.069c-.069.035-.173.035-.242.069s-.173.069-.242.1l-.207.1a1.684,1.684,0,0,1-.242.1.755.755,0,0,0-.173.1c-.069.035-.138.1-.207.138-.035.035-.1.069-.138.1-.069.035-.138.1-.207.138a.476.476,0,0,1-.138.1c-.069.069-.138.1-.207.173-.035.035-.069.069-.1.069a.916.916,0,0,1-.207.173l-.069.069c-.069.069-.138.173-.207.242-.483.552-.621,1.036-.518,1.07a.154.154,0,0,0,.173,0,15.524,15.524,0,0,1,3.211-1.726.535.535,0,0,0,.276-.069m14.223.552a.723.723,0,0,0,.345.587c.276.1.518-.207.621-.69v-.138a.888.888,0,0,0-.345-.9c-.242-.1-.518.207-.621.69a1.946,1.946,0,0,0,0,.449m-4.557,1.312a1.373,1.373,0,0,0,.552.414,1.063,1.063,0,0,0,1.208-.069.179.179,0,0,0,.069-.138.753.753,0,0,0-.173-.725,2.1,2.1,0,0,0-.518-.414,1.059,1.059,0,0,0-1.174.069.476.476,0,0,0-.1.138.6.6,0,0,0,.138.725m17.779,4.143-.035.035.035-.035m.656,9.6a17.909,17.909,0,0,1-1.968,2,31.4,31.4,0,0,1-11.358,6.214,26.8,26.8,0,0,1-7.422,1.139,15.28,15.28,0,0,1-3.521-.38,5.54,5.54,0,0,1-2.52-1.208,3.985,3.985,0,0,1-1.243-2.693,3.893,3.893,0,0,1,.173-1.415c.035-.069.035-.138.069-.207a2.333,2.333,0,0,1,1.968-1.657h1.553a35.657,35.657,0,0,0,9.735-1.312,29.831,29.831,0,0,0,11.737-6.317c.173-.173.345-.311.518-.483l1.657-3.28a29.133,29.133,0,0,1-17.088,9.666,36.108,36.108,0,0,1-6.628.587h-1.519a2.725,2.725,0,0,0-1.07.276,3.737,3.737,0,0,0-1.588,1.519,5.163,5.163,0,0,0-.552,2.934,5.285,5.285,0,0,0,.967,2.486c.035.035.035.069.069.1.069.069.138.173.207.242l.311.311c1.243,1.174,3.659,1.9,6.8,1.9a26.839,26.839,0,0,0,7.146-1.036c7.629-2.382,11.012-5.351,12.531-7.353l.311-.414a5.767,5.767,0,0,0,.794-1.622v-.035a.267.267,0,0,0,.035-.1l-.1.138" transform="translate(-127.706 -104.57)" fill="#664f44"/>
      </g>
      <path id="Path_161" data-name="Path 161" d="M66.4,8a7.126,7.126,0,0,0-2.313-1.346c-.138-.035-.311-.069-.449-.1-.069-.035-.173-.069-.242-.1a9.739,9.739,0,0,0-2.244-.276C57.392,6.138,53.319,8,51.006,9.245c-.138.069-.242.138-.38.207a5.2,5.2,0,0,0-.587.345c-.345.207-.656.414-1,.621-.035.035-.1.069-.138.1l-.759-.69L47.8,9.521l-.311-.276-.138-.138L44.516,6.518l-.242-.242L44,6h-.035l-.69.242-.794.276a4.925,4.925,0,0,0-1.657-.242,12.7,12.7,0,0,0-4.557,1,32.587,32.587,0,0,0-5.662,3A62.658,62.658,0,0,0,18.141,21.466q-2.123,2.486-3.935,4.971C13.066,28.025,12,29.647,11.1,31.2a39.543,39.543,0,0,0-4,8.838A17.1,17.1,0,0,0,6.3,44.733a7.526,7.526,0,0,0,.38,2.486,3.06,3.06,0,0,0,.276.587,3.654,3.654,0,0,0,.759,1l3.107,2.555.345.276V51.6a1.9,1.9,0,0,1,.242-.311l.035-.035c.035-.035.069-.069.069-.1a1.915,1.915,0,0,1,.207-.276c.035-.069.1-.1.138-.173s.1-.1.138-.173l.069-.069c.035-.069.1-.1.138-.173.069-.069.138-.173.207-.242l.138-.138.035-.035.242-.242.138-.138a1.6,1.6,0,0,0,.242-.242.753.753,0,0,1,.173-.138c.1-.069.173-.138.276-.207a.606.606,0,0,0,.173-.138,1.914,1.914,0,0,0,.276-.207c.069-.035.1-.069.173-.1l.069-.035c.069-.069.173-.1.242-.173.035-.035.1-.069.138-.1.069-.035.138-.1.207-.138l.207-.1.069-.035a3.157,3.157,0,0,1,.483-.242c.069-.035.1-.035.173-.069s.1-.069.173-.069l.069-.035c.035,0,.069-.035.1-.035l.207-.1.069-.035c.069-.035.173-.069.242-.1s.173-.069.242-.1l.311-.1c.035,0,.069-.035.138-.035.035,0,.069-.035.138-.035a1.008,1.008,0,0,1,.311-.069c.1-.035.173-.035.276-.069a.491.491,0,0,0,.207-.069c.035,0,.069,0,.069-.035a.127.127,0,0,0,.1-.035h.069a5.935,5.935,0,0,1,1.174-.1h.069c.449,0,.9,0,1.415.035.1,0,.242.035.345.035.035-.035.035-.1.069-.138l.621-1.45a51.064,51.064,0,0,1,4.074-7.388c.483-.725,1-1.45,1.519-2.14a42.749,42.749,0,0,1,6.352-6.835c.449-.38.9-.759,1.346-1.1.587-.483,1.174-.9,1.726-1.312.449-.311.863-.621,1.277-.9q1.036-.673,1.864-1.139c.173-.1.345-.207.483-.276.242-.138.449-.242.656-.345a2.969,2.969,0,0,0-.552.035c-.173,0-.345.035-.552.035h-.138c-.173.035-.38.035-.552.069-.345.069-.725.138-1.07.242-.138.035-.242.069-.38.1a13.716,13.716,0,0,1,2.589-1.415,16.158,16.158,0,0,1,1.657-.621,13.334,13.334,0,0,1,2.106-.518c.449-.069.863-.138,1.243-.173s.759-.069,1.07-.069a15.609,15.609,0,0,1,1.83.035,2.418,2.418,0,0,0-.656-.518,6.167,6.167,0,0,0-1.346-.552c-.173-.035-.311-.069-.449-.1a.956.956,0,0,0-.311-.035,3.232,3.232,0,0,1,.552-.138c.207-.035.38-.1.587-.138a15.047,15.047,0,0,1,4.108-.311,9.694,9.694,0,0,1,2.106.311,2.816,2.816,0,0,0-.863-.829,3.884,3.884,0,0,0-.725-.414c.449.035.863.1,1.277.173a21.468,21.468,0,0,1,2.693.69c.242.069.449.173.656.242.069.035.1.035.173.069.656.276,1.036.483,1.036.483a3.112,3.112,0,0,0-.69-.967l-.207-.207h.035a.261.261,0,0,1,.138.035c.069,0,.1.035.207.035a8.948,8.948,0,0,1,1.243.38c.035,0,.035.035.069.035a.491.491,0,0,0,.207.069,3.836,3.836,0,0,1,.552.242c.173.069.345.173.552.276a2.05,2.05,0,0,1,.276.138,6,6,0,0,1,.621.38,7,7,0,0,1,.621.449l.1.1a4.138,4.138,0,0,1,.414.38A6.3,6.3,0,0,1,63.3,23.606c0,.035.035.035.035.069.1-.138.242-.345.449-.656C65.5,20.43,70.545,12.179,66.4,8" transform="translate(-4.125 -3.929)" fill="#132134"/>
      <path id="Path_162" data-name="Path 162" d="M42,10.18l-.276-1.346.518-1.588.276-.1A4.925,4.925,0,0,0,40.856,6.9a12.7,12.7,0,0,0-4.557,1,32.588,32.588,0,0,0-5.662,3,60.56,60.56,0,0,0-12.5,11.151q-2.123,2.486-3.935,4.971C13.066,28.614,12,30.237,11.1,31.79a39.543,39.543,0,0,0-4,8.838A17.1,17.1,0,0,0,6.3,45.323a7.526,7.526,0,0,0,.38,2.486,3.06,3.06,0,0,0,.276.587,3.654,3.654,0,0,0,.759,1l3.107,2.555.345.276v-.035a1.9,1.9,0,0,1,.242-.311l.035-.035c.035-.035.069-.069.069-.1a1.915,1.915,0,0,1,.207-.276c.035-.069.1-.1.138-.173s.1-.1.138-.173l.069-.069c.035-.069.1-.1.138-.173.069-.069.138-.173.207-.242l.138-.138.035-.035.242-.242.138-.138a1.6,1.6,0,0,0,.242-.242.753.753,0,0,1,.173-.138c.1-.069.173-.138.276-.207a.606.606,0,0,0,.173-.138,1.914,1.914,0,0,0,.276-.207c.069-.035.1-.069.173-.1l.069-.035a33.69,33.69,0,0,1,2.244-6.248,54.617,54.617,0,0,1,5.075-8.6,69.569,69.569,0,0,1,4.35-5.558,74.993,74.993,0,0,1,6.317-6.456c1.45-1.277,2.865-2.451,4.281-3.487l.414-.311c.38-.276.759-.518,1.139-.794.794-.552,1.623-1.07,2.382-1.519L40.1,15.6l-.069-.069-.587-.552-3.28-3.107-.276-2.347-.035-.035,1.933-.829L42,10.18" transform="translate(-4.125 -4.518)" fill="#2f83c1"/>
      <path id="Path_163" data-name="Path 163" d="M112.3,17.4l.1.035Z" transform="translate(-73.532 -11.393)" fill="#4d9ed7"/>
      <path id="Path_164" data-name="Path 164" d="M100.047,6l-1.8.621.794,3.314-5.213-1.9L91.9,8.865l.035.035L98.7,14.976l.069-.035.069-.069.518-.414c.069-.035.1-.1.173-.138.242-.207.518-.38.759-.587l-2.865-2.589,4.35,1.519c.1-.069.242-.173.345-.242l-.725-2.865,2.106,1.933h.035a1.958,1.958,0,0,1,.449-.276l.035-.035.069-.035c.035,0,.035-.035.069-.035a.345.345,0,0,0,.173-.138.034.034,0,0,0,.035-.035,6.006,6.006,0,0,1,.621-.38L100.047,6" transform="translate(-60.175 -3.929)" fill="#ffd250"/>
      <g id="Group_89" data-name="Group 89" transform="translate(10.08 2.347)">
        <path id="Path_165" data-name="Path 165" d="M57.232,7.283,57.2,7.145l.035.138M57.2,7.145l.276-.1A4.925,4.925,0,0,0,55.816,6.8a12.7,12.7,0,0,0-4.557,1,32.588,32.588,0,0,0-5.662,3A62.658,62.658,0,0,0,33.135,21.99q-2.123,2.486-3.935,4.971l6.352,6.145c1.312-1.83,2.762-3.659,4.315-5.489a78.158,78.158,0,0,1,6.456-6.594,54.71,54.71,0,0,1,6.283-4.9l-1.484-4.246L50.88,9.458l-.035-.035L52.778,8.6l4.177,1.553L56.679,8.8,57.2,7.145" transform="translate(-29.2 -6.8)" fill="#4d9ed7"/>
      </g>
      <g id="Group_90" data-name="Group 90" transform="translate(37.214 2.693)">
        <path id="Path_166" data-name="Path 166" d="M108.663,7.8l-.483,1.623.276,1.346,1,.38Zm-.863,4.522,4.35,1.519-1.45,1.1Zm3.97-1.588.725,2.865,1.415-.967Z" transform="translate(-107.8 -7.8)" fill="#132134"/>
      </g>
      <path id="Path_167" data-name="Path 167" d="M93.083,6.948l.725-.1a7.457,7.457,0,0,1,1.968.035h.276c-.069-.035-.173-.069-.242-.1A9.739,9.739,0,0,0,93.567,6.5C89.8,6.465,85.73,8.329,83.417,9.572c-.138.069-.242.138-.38.207a5.2,5.2,0,0,0-.587.345c-.345.207-.656.414-1,.621-.035.035-.1.069-.138.1-.207.138-.414.242-.621.38a.034.034,0,0,0-.035.035.345.345,0,0,0-.173.138c-.035,0-.035.035-.069.035l-.069.035-.035.035a5.11,5.11,0,0,1-.449.276h-.035c-.035.035-.069.035-.1.069h-.035c-.035.035-.069.035-.069.069-.242.138-.449.311-.69.449-.173.1-.311.207-.483.311l-.035.035c-.1.069-.242.173-.345.242-.38.276-.759.552-1.1.829-.035.035-.069.069-.1.069-.035.035-.069.035-.1.069s-.069.035-.1.069l-.035.035c-.242.207-.518.38-.759.587a.753.753,0,0,0-.173.138l-.518.414-.069.069-.069.035c-.483.38-.932.794-1.415,1.208q-1.139.984-2.278,2.071a2.083,2.083,0,0,0-.276.276c-1.968,1.864-3.832,3.866-5.593,5.9-1.864,2.14-3.625,4.384-5.282,6.594-.9,1.139-1.657,2.175-2.313,3.038a27.9,27.9,0,0,0-1.9,2.8,1.482,1.482,0,0,0,.311-.38c-.173.242-.311.483-.483.725a133.618,133.618,0,0,1,9.183-11.22q3.055-3.366,6.421-6.421,1.45-1.346,3-2.589c.311-.276.656-.518.967-.794a5.907,5.907,0,0,0,.483-.38c.1-.069.173-.138.276-.207l.518-.414a4.94,4.94,0,0,1,.518-.38c.1-.069.173-.138.276-.207.207-.173.449-.311.656-.483a2.88,2.88,0,0,1,.414-.276c.414-.311.863-.587,1.277-.863.035-.035.069-.035.1-.069.069-.035.138-.1.207-.138.1-.069.173-.1.276-.173.035-.035.069-.035.1-.069.069-.035.1-.069.173-.1a.034.034,0,0,0,.035-.035h.035c.173-.1.38-.242.552-.345.035-.035.069-.035.1-.069.069-.035.1-.069.173-.1.207-.138.414-.276.656-.414.069-.035.1-.069.173-.1.035-.035.069-.035.1-.069.069-.035.1-.069.173-.1.242-.138.483-.311.725-.449.207-.138.449-.242.656-.38,1.243-.69,2.382-1.312,3.487-1.8a20.386,20.386,0,0,1,5.558-1.9" transform="translate(-36.537 -4.255)" fill="#fff"/>
    </g>
  </g>
</svg>
