<svg xmlns="http://www.w3.org/2000/svg" width="314" height="108" viewBox="0 0 314 108">
  <g id="majestic" transform="translate(-1271 -750)">
    <rect id="Rectangle_5" data-name="Rectangle 5" width="314" height="108" rx="43" transform="translate(1271 750)" fill="#fff"/>
    <g id="Group_92" data-name="Group 92" transform="translate(4740.429 354.901)">
      <path id="Path_169" data-name="Path 169" d="M-3371,696.878c1.378-4.525,3.013-8.875,4.405-13.3.539-1.714,1.272-2.38,3.141-2.267,3.12.189,3.1.052,3.262,3.228.3,5.833.639,11.663.954,17.5.042.772.334,1.879-1.059,1.5-1.049-.283-2.919,1.189-2.99-1.439-.139-5.124-.438-10.245-.7-15.906-1.118,3.372-2.07,6.264-3.037,9.152-.7,2.081-1.486,4.135-2.093,6.241-.346,1.2-.792,1.788-2.2,1.779s-1.838-.555-2.183-1.8c-1.153-4.161-2.442-8.285-3.689-12.419-.15-.5-.365-.976-.656-1.745-.665,1.517-.375,2.815-.452,4.056-.22,3.5-.426,7-.483,10.5-.039,2.435-1.768,1.425-2.91,1.6-1.6.246-1.129-.946-1.081-1.722.383-6.1.867-12.2,1.158-18.307.086-1.805.665-2.3,2.439-2.214,3.188.156,3.164.05,4.241,3.176C-3373.527,688.577-3372.289,692.715-3371,696.878Z" transform="translate(0 -225.87)" fill="#0a0a0a"/>
      <path id="Path_170" data-name="Path 170" d="M-3212.346,681.034c2.295-.662,3,.571,3.577,2.48,1.857,6.1,3.859,12.151,5.888,18.194.408,1.215.209,1.395-1.049,1.549-2.343.287-3.353-.545-3.928-2.844-.883-3.53-1.066-3.484-4.738-3.484-3.176,0-3.176,0-4.144,3.158q-.211.688-.42,1.377c-.445,1.467-3.04,2.442-4.409,1.693-.607-.332-.2-.723-.1-1.029,2.146-6.727,4.34-13.438,6.468-20.17C-3214.632,680.159-3213.212,681.418-3212.346,681.034Zm-.056,3.811-2.657,8.959c1.542,0,2.9-.038,4.249.013.953.036,1.164-.2.839-1.163C-3210.835,690.1-3211.585,687.5-3212.4,684.845Z" transform="translate(-134.334 -225.501)" fill="#0a0a0a"/>
      <path id="Path_171" data-name="Path 171" d="M-3001.494,692.594c0-3.236.041-6.473-.023-9.708-.021-1.072.281-1.423,1.381-1.4,3.442.066,6.887.1,10.326-.009,1.684-.054,1.23,1.015,1.287,1.891.061.945.1,1.733-1.317,1.646-1.989-.123-3.994.023-5.988-.053-1.094-.042-1.538.179-1.549,1.426-.037,4.086-.1,4.086,4.032,4.086q1.136,0,2.272,0c1.912,0,2.695,1.158,2.059,2.938-.279.782-.881.512-1.366.52-1.927.033-3.856.049-5.783,0-.87-.023-1.3.23-1.179,1.15a2.615,2.615,0,0,1,0,.413c-.114,4.831-.114,4.831,4.685,4.831a19.443,19.443,0,0,0,2.888-.025c1.714-.26,1.911.6,1.836,2-.052.978-.146,1.482-1.343,1.455q-5.471-.125-10.946,0c-1.218.03-1.3-.492-1.29-1.448C-3001.469,699.066-3001.494,695.83-3001.494,692.594Z" transform="translate(-318.23 -226.018)" fill="#0a0a0a"/>
      <path id="Path_172" data-name="Path 172" d="M-2894.374,702.361a12.857,12.857,0,0,1-4.49-.726c-1.13-.336-1.407-.767-1.14-2.047.367-1.758.965-2.044,2.535-1.324a7.463,7.463,0,0,0,4.427.608c1.44-.252,2.687-.842,2.978-2.43.3-1.614-.7-2.585-2.011-3.231-1.535-.755-3.186-1.3-4.654-2.163-3.3-1.938-4.179-5.735-2.114-8.659a6.991,6.991,0,0,1,4.469-2.725,14.826,14.826,0,0,1,5.525.089c1.786.291,2.391,1.033,1.625,2.878-.424,1.021-.673,1.252-1.719.812a7.007,7.007,0,0,0-4.647-.345,2.556,2.556,0,0,0-2.086,2.038,2.354,2.354,0,0,0,1.343,2.562,35.2,35.2,0,0,0,3.355,1.545c4.069,1.714,5.77,4.247,5.106,7.651-.648,3.323-3.6,5.414-7.718,5.466C-2893.8,702.364-2894,702.361-2894.374,702.361Z" transform="translate(-402.862 -224.322)" fill="#0a0a0a"/>
      <path id="Path_173" data-name="Path 173" d="M-2623.344,702.118c-7.507,0-11.975-4.383-11.842-11.3.139-7.164,5.3-12.043,12.348-11.652.958.053,1.912.2,2.866.311,1.682.2,2.265.821,1.7,2.706-.467,1.564-1.168,1.072-2.067.845-4.632-1.171-8.563.5-9.879,4.329-1.06,3.084-.947,6.178,1.189,8.783,2.214,2.7,5.327,3.008,8.463,2.188,1.65-.431,2.012-.044,2.365,1.5.422,1.845-.812,1.666-1.794,1.939A10.315,10.315,0,0,1-2623.344,702.118Z" transform="translate(-623.92 -224.079)" fill="#0a0a0a"/>
      <path id="Path_174" data-name="Path 174" d="M-2795.2,694.239c0-2.611-.065-5.225.029-7.833.043-1.211-.372-1.555-1.508-1.451-.954.087-1.941-.1-2.88.044-1.8.279-2.176-.48-2.081-2.133.068-1.181.391-1.493,1.538-1.479,4.6.058,9.209.083,13.812-.01,1.471-.03,1.671.573,1.647,1.813-.022,1.161-.038,1.922-1.592,1.828s-3.7-.733-4.524.3c-.779.976-.232,3.025-.237,4.6-.011,4.055-.112,8.113.042,12.162.078,2.048-1.189,1.508-2.253,1.564-1.122.058-2.149.229-2.035-1.573C-2795.081,699.47-2795.2,696.851-2795.2,694.239Z" transform="translate(-485.008 -225.936)" fill="#141414"/>
      <path id="Path_175" data-name="Path 175" d="M-3082.409,690.191c0,2.339.081,4.681-.019,7.016-.281,6.619-5.345,7.508-9.879,6.587-1.8-.365-.38-1.673-.513-2.521-.167-1.073.6-.932,1.341-.844,3.648.433,4.9-.678,4.914-4.389.022-4.333.1-8.67-.039-13-.06-1.876,1.053-1.547,2.105-1.528,1,.018,2.257-.481,2.13,1.459C-3082.525,685.368-3082.406,687.783-3082.409,690.191Z" transform="translate(-241.703 -226.013)" fill="#0a0a0a"/>
      <path id="Path_176" data-name="Path 176" d="M-3293.277,537.178a6.959,6.959,0,0,1,2.267-4.392c1.684-1.77,2.833-3.536,1.995-6.233-.422-1.359-.194-3.26,1.246-4.063a3.544,3.544,0,0,1,4.2.613,2.116,2.116,0,0,0,2.667-.207c1.058-.739,2.18-1.39,3.294-2.045a2.469,2.469,0,0,1,2.735.035,2.511,2.511,0,0,1,.789,2.568,4.42,4.42,0,0,1-.969,2.445c-1.3,1.537-.873,2.954.035,4.493,1.776,3.013,1.087,4.48-2.357,4.973-3.239.464-4.065,2.921-4.691,5.511a4.669,4.669,0,0,1-.838,1.83c-1.55,2.007-2.991,1.876-4.216-.375a4.691,4.691,0,0,0-4.262-2.817C-3292.9,539.415-3293.458,538.643-3293.277,537.178Zm5.21-5.286a2.07,2.07,0,0,0-1.165,1.327l-.518.739A2.659,2.659,0,0,0-3291,535.6c-.4.465-.823.908-1.18,1.4-.276.381-.615.845-.29,1.316.423.613.978.25,1.477.049.829-.334,1.674-.636,2.475-1.027,1.444-.705,2.041-.06,2.217,1.313a9.4,9.4,0,0,0,.123,1.436c.273.927-.135,2.48,1.018,2.623,1.246.154,1.3-1.4,1.542-2.322,1.006-3.874,2.767-6.791,7.387-6.695.812.017,1.6-.444.553-1.394-.226-.409-.354-.955-.7-1.2-1.941-1.4-2.169-3-.738-4.891a1.663,1.663,0,0,0,.163-.58l.445-.769a12.232,12.232,0,0,0,1.005-1.241c.3-.487.892-1.022.388-1.626-.531-.637-1.132-.089-1.643.163a15.315,15.315,0,0,0-4.214,2.786c-1.023.759-2.015.372-3.006-.08a1.926,1.926,0,0,0-1.256-.842c-.473-.506-.982-1.1-1.736-.706-.644.339-.4,1.094-.5,1.69-.336,2.154.958,4.361-.212,6.485Z" transform="translate(-74.739 -91.655)" fill="#fef3c2"/>
      <path id="Path_177" data-name="Path 177" d="M-2676.275,692.66c0,3.228-.078,6.458.029,9.682.067,2.029-1.342,1.258-2.245,1.32-.923.063-2.046.458-2.021-1.342q.138-9.682,0-19.366c-.028-1.88,1.113-1.491,2.149-1.492s2.21-.362,2.128,1.516C-2676.376,686.2-2676.275,689.432-2676.275,692.66Z" transform="translate(-586.097 -225.982)" fill="#141414"/>
      <path id="Path_178" data-name="Path 178" d="M-3021.456,426.608c-.537.794-1,.736-1.213-.186a4.687,4.687,0,0,1-.046-1.64c.319-2.445-.045-4.344-2.886-5.156-1.393-.4-1.229-2.941.165-3.637a14.091,14.091,0,0,1,4.334-1.182,2.7,2.7,0,0,0,2.428-1.641c.514-1.465,1.109-2.506,2.973-2.545a3.074,3.074,0,0,1,3.068,2.518c.663,2.319,2.506,2.4,4.182,2.887a6.367,6.367,0,0,1,1.736.5c.983.6,2.185.947,2.144,2.424-.039,1.4-1.058,2.029-2.14,2.466a2.294,2.294,0,0,0-1.577,2.736c.445,3.454-.15,5.172-4.972,2.988-1.712-.775-3.194-1.216-4.956-.125a1.873,1.873,0,0,1-2.448-.3q.506-.474,1.011-.949c2.485-1.7,4.975-2.347,7.474-.025a1.839,1.839,0,0,0,1.239.86c.286.461.747.79,1.167.38.563-.55.207-1.262.022-1.917-1.014-3.6-1.011-3.607,2.541-4.945.6-.225,1.259-.5,1.3-1.135.051-.776-.739-.869-1.32-1.005-1.918-.451-3.844-.872-5.767-1.3a15.2,15.2,0,0,0-.813-2.105c-.52-.928-.573-2.52-1.742-2.594-1.377-.087-1.592,1.547-2.035,2.547-.773,1.746-1.884,2.58-3.842,2.314a19.8,19.8,0,0,0-3.094-.006c-.41.009-.884.044-1.014.528s.262.746.637.93.764.307,1.147.457a8.777,8.777,0,0,0,1.5,1.018c1.457.6,2.18,1.325,1.389,3.064A5.535,5.535,0,0,0-3021.456,426.608Z" transform="translate(-297.328 0)" fill="#fef3c2"/>
      <path id="Path_179" data-name="Path 179" d="M-3160.032,440.727c1.394-.214,2.078.982,2.952,1.643a3.236,3.236,0,0,0,3.03.617,15.468,15.468,0,0,1,3.484-.185c2.007,0,2.581.595,2.02,2.43a4.385,4.385,0,0,1-1.416,2.612c-1.794,1.194-2.219,2.651-.984,4.463a2.1,2.1,0,0,1-.25,3.058c-1.131.981-2.628,1.643-3.947.808-1.668-1.056-2.6-.506-3.614.791a12.542,12.542,0,0,1-2.562,2.629,2.583,2.583,0,0,1-2.7.331,1.9,1.9,0,0,1-.974-2.1c.026-.411-.044-.834.016-1.238.3-1.971-.27-3-2.514-2.682a2.956,2.956,0,0,1-3.17-2.109c-.57-1.445.679-2.3,1.671-2.984a9.429,9.429,0,0,1,3.127-1.514c2.483-.569,2.967-2.453,3.347-4.5.14-.751.248-1.529,1.222-1.671-.781,2.606-.1,5.887-3.393,7.331l-.478.336-.812.425a3.359,3.359,0,0,0-2.107,1.216c-.537.152-1.13.306-1.04,1.026.088.7.7.751,1.252.785.886.055,1.777.053,2.659.14,1.36.134,2.11.684,1.719,2.268a14.879,14.879,0,0,0-.292,3.25c-.023,1.187.587,1.3,1.4.615a5.692,5.692,0,0,0,.824-1.148l.512-.734a3.065,3.065,0,0,0,1.534-1.765q.261-.369.521-.738c.128-.13.259-.26.389-.39,1.814-.143,3.471.585,5.2.932.464.093.985.257,1.366-.133a.941.941,0,0,0-.118-1.31c-2.708-3.233-1.271-5.584,1.57-7.663a1.183,1.183,0,0,0,.286-.294c.31-.468,1.166-.746.695-1.5-.36-.575-.98-.236-1.511-.207-2.115.116-4.033,1.341-6.21,1.091q-.259-.37-.516-.744a1.339,1.339,0,0,0-.733-.9q-.26-.37-.518-.742Z" transform="translate(-176.964 -25.102)" fill="#fef3c2"/>
      <path id="Path_180" data-name="Path 180" d="M-2866.31,473.988c-2.081.727-3.4,1.788-3.249,4.406.043.737-1.978.72-3.007.01a8.567,8.567,0,0,1-1.84-1.628,6.366,6.366,0,0,0-5.944-2.508c-1.875.153-2.955-1.316-2.47-3.337a2.823,2.823,0,0,0-1.14-3.48,3.1,3.1,0,0,1-.784-4.235c.932-1.539,2.567-1.094,3.674-.607,1.936.85,3.548,1.556,5.508-.049a1.965,1.965,0,0,1,2.846.812,6.639,6.639,0,0,1,.908,1.595,7.917,7.917,0,0,0,3.962,4.747,3.129,3.129,0,0,1,1.543,2.476l-.178.18q-.479-.154-.958-.307c-.144-.125-.287-.251-.43-.377a1.475,1.475,0,0,0-1.207-.847,1.623,1.623,0,0,0-1.24-.829,1.846,1.846,0,0,0-1.253-.847c-1.175-1.27-1.218-3-1.834-4.5-.413-1-.9-1.658-1.828-.426l-.427.409-.43.411c-.129.13-.259.259-.39.389a2.722,2.722,0,0,1-2.176-.138c-1.188-.514-2.412-.948-3.631-1.388-.555-.2-1.262-.668-1.674-.006-.5.812.259,1.188.865,1.526l.424.4c.135.134.269.269.4.4l.412.415.413.413.416.417c.344.812,1.313,1.423.811,2.509a1.73,1.73,0,0,0-.844,1.253c-.884,1.073-.819,1.727.758,1.6a18.553,18.553,0,0,1,4.659.01q.2.2.4.4l.387.422c.146.147.291.293.437.438.13.129.26.259.389.389l.411.414.521.74.4.437c.377.741.861,1.714,1.737,1.4.965-.351.524-1.446.293-2.165-.5-1.548.05-2.04,1.549-1.831.875.122,1.754.206,2.632.307Z" transform="translate(-415.248 -43.001)" fill="#fef3c2"/>
      <path id="Path_181" data-name="Path 181" d="M-2755.109,540.519a5.534,5.534,0,0,1,3.86,2.463,2.943,2.943,0,0,0,2.983,1.289c1.667-.236,2.772.507,2.911,2.142.24,2.814,1.869,4.75,3.743,6.58a3.5,3.5,0,0,1,.971,3.909,2.293,2.293,0,0,1-.664,1.006c-2.4,1.926-6.7,1.138-8.071-1.691a8.03,8.03,0,0,0-4.371-4.251,3.16,3.16,0,0,1-1.706-4.714c.5-.914.082-1.248-.41-1.7-1.162-1.076-1-2.45-.869-3.8C-2756.644,540.816-2756,540.5-2755.109,540.519Zm3.112,3.553-.417-.389a2.135,2.135,0,0,0-1.291-1.2c-.588-.477-1.14-1.6-1.94-.9-.748.658.224,1.427.6,2.1a1.591,1.591,0,0,0,.276.294l.38.449q.219.4.439.8l.371.455c.194.923.512,1.817-.527,2.548-.989.7-.625,1.358.284,1.837,1.437.758,2.882,1.5,4.325,2.251a10.38,10.38,0,0,0,2.063,3.727l.457.788c.154.584.253,1.307,1.011,1.305.686,0,.785-.656.789-1.2.009-1.148.669-1.138,1.491-.9.519.637,1.233,1.494,1.962.908.832-.668-.168-1.441-.548-2.079a3.571,3.571,0,0,0-1.421-1.675,2.47,2.47,0,0,0-1.274-1.647l-.385-.414c-.232-.913-.494-1.82-.69-2.741-.6-2.827-.59-2.816-3.466-2.608-.292.021-.605-.238-.91-.367-.248-.171-.5-.342-.744-.51-.138-.138-.276-.276-.414-.411S-2751.857,544.207-2752,544.072Z" transform="translate(-522.421 -108.396)" fill="#fef3c2"/>
      <path id="Path_182" data-name="Path 182" d="M-3007.26,466.142a5.531,5.531,0,0,1,.6-3.78c.79-1.739.067-2.46-1.39-3.064a8.779,8.779,0,0,1-1.505-1.018q.126-.138.243-.283c3.943,1.578,3.929,1.575,2.984,5.646-.12.518-.761,1.445.617,1.351q.124.156.255.306l-1.013.948Z" transform="translate(-311.524 -39.534)" fill="#fde131"/>
      <path id="Path_183" data-name="Path 183" d="M-3129.2,440.745l.927,1.556-.357.349c-.544-.46-1.141-1.382-1.43.187-.148.8-.412,1.592-.488,2.4a3.659,3.659,0,0,1-3,3.611l-.313-.365c3.291-1.444,2.613-4.725,3.393-7.331A1.581,1.581,0,0,1-3129.2,440.745Z" transform="translate(-207.8 -25.121)" fill="#fde131"/>
      <path id="Path_184" data-name="Path 184" d="M-2771.649,522.793c1.084.605,1.1,1.2-.01,1.8l-.167-.171a1.957,1.957,0,0,0,0-1.446C-2771.768,522.914-2771.708,522.854-2771.649,522.793Z" transform="translate(-509.899 -93.605)" fill="#fef3c2"/>
      <path id="Path_185" data-name="Path 185" d="M-3272.089,591.984c1.04.953.256,1.414-.555,1.4-4.621-.1-6.382,2.821-7.387,6.695-.24.923-.3,2.476-1.542,2.322-1.154-.142-.745-1.7-1.018-2.623a9.4,9.4,0,0,1-.123-1.436c-.176-1.373-.773-2.018-2.217-1.313-.8.391-1.647.693-2.475,1.027-.5.2-1.055.564-1.477-.049-.325-.471.014-.935.29-1.316.358-.493.784-.936,1.18-1.4l.311.275c-.062.66-.958.978-.747,1.866,1.383-.552,2.747-1,4.024-1.634,1.147-.565,1.445-.145,1.563.935.163,1.495.422,2.98.639,4.469a25.464,25.464,0,0,0,2.588-5.562,3.245,3.245,0,0,1,2.626-2.224c1.34-.395,2.924,0,4.023-1.19A3.09,3.09,0,0,0-3272.089,591.984Z" transform="translate(-78.322 -151.342)" fill="#fde131"/>
      <path id="Path_186" data-name="Path 186" d="M-3218.726,531.166a15.346,15.346,0,0,1,4.214-2.786c.511-.253,1.112-.8,1.643-.163.5.6-.083,1.139-.388,1.626a12.224,12.224,0,0,1-1.005,1.241,2.785,2.785,0,0,0-.3-.277c-.142-.53.818-1,.222-1.442-.506-.373-.993.245-1.438.51-.882.525-1.731,1.105-2.594,1.663Z" transform="translate(-136.977 -97.883)" fill="#fde131"/>
      <path id="Path_187" data-name="Path 187" d="M-3259.262,545.22c1.173-2.123-.122-4.33.215-6.484.093-.6-.146-1.352.5-1.69.754-.4,1.263.2,1.736.706l-.27.318c-.48-.055-1.229-.827-1.178.487.053,1.371.05,2.746.054,4.118,0,1,.337,2.1-.8,2.775A3.11,3.11,0,0,0-3259.262,545.22Z" transform="translate(-103.151 -105.39)" fill="#fde131"/>
      <path id="Path_188" data-name="Path 188" d="M-3205.645,550.435a1.714,1.714,0,0,1-.165.579c-1.431,1.89-1.2,3.489.738,4.891.343.248.47.794.7,1.2a3.136,3.136,0,0,1-.3.24c-.793-.76-1.544-1.571-2.391-2.264a1.648,1.648,0,0,1-.41-2.491c.527-.789.72-1.789,1.522-2.4Q-3205.8,550.316-3205.645,550.435Z" transform="translate(-146.037 -116.463)" fill="#fde131"/>
      <path id="Path_189" data-name="Path 189" d="M-3238.172,547.033c.99.455,1.982.841,3,.082l.354.372c-1.287,1.544-2.474,1.118-3.615-.184Q-3238.3,547.172-3238.172,547.033Z" transform="translate(-120.535 -113.832)" fill="#fde131"/>
      <path id="Path_190" data-name="Path 190" d="M-3279.331,603.667a2.66,2.66,0,0,1,1.247-1.643q.149.136.3.265a3.836,3.836,0,0,1-1.241,1.654Z" transform="translate(-86.404 -159.72)" fill="#fde131"/>
      <path id="Path_191" data-name="Path 191" d="M-3268.674,590.867a2.073,2.073,0,0,1,1.165-1.327q.131.139.273.268l-1.072,1.407Z" transform="translate(-95.297 -149.303)" fill="#fde131"/>
      <path id="Path_192" data-name="Path 192" d="M-3245.83,541.962a1.932,1.932,0,0,1,1.257.841c-.083.091-.169.181-.257.269l-1.27-.791Z" transform="translate(-114.135 -109.6)" fill="#fde131"/>
      <path id="Path_193" data-name="Path 193" d="M-3271.8,598.3l.518-.74.366.347-.579.658Q-3271.648,598.432-3271.8,598.3Z" transform="translate(-92.691 -155.992)" fill="#fde131"/>
      <path id="Path_194" data-name="Path 194" d="M-3195.528,545.64q-.222.384-.443.769c-.1-.079-.205-.162-.3-.248l.448-.8A2.773,2.773,0,0,1-3195.528,545.64Z" transform="translate(-155.712 -112.438)" fill="#fde131"/>
      <path id="Path_195" data-name="Path 195" d="M-3261.634,587.488q.2-.2.394-.407a3.2,3.2,0,0,1,.253.229l-.374.445Q-3261.5,587.627-3261.634,587.488Z" transform="translate(-101.172 -147.251)" fill="#fde131"/>
      <path id="Path_196" data-name="Path 196" d="M-2946.241,447.188c1.922.432,3.848.853,5.766,1.3.581.136,1.371.23,1.32,1.005-.042.639-.706.91-1.3,1.135-3.552,1.339-3.554,1.347-2.541,4.945.185.655.541,1.367-.022,1.917-.42.41-.881.081-1.167-.38a3.111,3.111,0,0,0,.247-.308c.82-1.424-.293-2.571-.642-3.783-.318-1.1-.189-1.652.913-2.019,1.137-.378,2.234-.874,3.349-1.319a12.049,12.049,0,0,0-2.906-1.105c-1.107-.4-2.523.11-3.345-1.117Z" transform="translate(-364.082 -30.515)" fill="#fde131"/>
      <path id="Path_197" data-name="Path 197" d="M-3018.686,425.563c-.383-.15-.778-.276-1.146-.457s-.772-.433-.638-.93.6-.519,1.014-.528a19.8,19.8,0,0,1,3.094.006c1.958.267,3.069-.567,3.842-2.314.443-1,.658-2.634,2.035-2.547,1.168.074,1.222,1.666,1.742,2.594a15.226,15.226,0,0,1,.813,2.105l-.329.274-2.4-4.517a23.359,23.359,0,0,0-1.355,2.716,2.778,2.778,0,0,1-3.248,2.085c-1.356-.109-2.728-.022-4.552-.022l1.373,1.252Q-3018.56,425.425-3018.686,425.563Z" transform="translate(-302.393 -6.817)" fill="#fde131"/>
      <path id="Path_198" data-name="Path 198" d="M-2978.6,488.494c-2.5-2.324-4.988-1.673-7.473.023-.087-.1-.172-.2-.254-.3,4.834-3.17,3.835-3.2,8.013-.019Z" transform="translate(-330.903 -62.754)" fill="#fde131"/>
      <path id="Path_199" data-name="Path 199" d="M-2938.409,501.307a1.838,1.838,0,0,1-1.239-.86l.285-.3a2.153,2.153,0,0,1,1.2.852A3.041,3.041,0,0,1-2938.409,501.307Z" transform="translate(-369.859 -74.707)" fill="#fde131"/>
      <path id="Path_200" data-name="Path 200" d="M-3097.122,458.524c2.177.251,4.094-.974,6.209-1.09.532-.029,1.152-.368,1.512.207.471.752-.385,1.03-.695,1.5a1.187,1.187,0,0,1-.286.294c-2.841,2.079-4.277,4.431-1.57,7.663a.941.941,0,0,1,.118,1.31c-.382.39-.9.226-1.366.133-1.726-.347-3.383-1.075-5.2-.932a2.343,2.343,0,0,0-.25-.266c.366-1.013,1.081-.486,1.716-.406,1.464.185,2.836.917,4.565.811a35.807,35.807,0,0,0-1.656-3.214c-.742-1.149-.842-2.042.379-2.94,1.134-.834,2.162-1.811,3.237-2.725-2.132-.773-3.6.1-5.167.39-.726.134-1.469.646-1.861-.458Z" transform="translate(-237.179 -38.96)" fill="#fde131"/>
      <path id="Path_201" data-name="Path 201" d="M-3153.144,506.474a5.72,5.72,0,0,1-.824,1.148c-.81.688-1.42.573-1.4-.615a14.865,14.865,0,0,1,.292-3.25c.391-1.584-.359-2.134-1.719-2.268-.882-.087-1.773-.085-2.659-.14-.554-.034-1.165-.084-1.252-.785-.09-.719.5-.873,1.04-1.026q.12.143.252.274c-.229.343-.541.71.208.794,1.145.129,2.287.323,3.435.359,1.2.038,1.74.368,1.428,1.716a13.013,13.013,0,0,0-.245,3.24c.036,1.427.645.462,1.066.193Z" transform="translate(-185.387 -74.2)" fill="#fde131"/>
      <path id="Path_202" data-name="Path 202" d="M-3111.816,524.613a3.069,3.069,0,0,1-1.535,1.764,3.455,3.455,0,0,0-.288-.265,5.5,5.5,0,0,1,1.465-1.843Z" transform="translate(-224.669 -94.837)" fill="#fde131"/>
      <path id="Path_203" data-name="Path 203" d="M-3154.375,493.41a3.36,3.36,0,0,1,2.107-1.216q.12.148.246.292a5.347,5.347,0,0,1-2.1,1.2Q-3154.255,493.553-3154.375,493.41Z" transform="translate(-190.676 -68.071)" fill="#fde131"/>
      <path id="Path_204" data-name="Path 204" d="M-3098.514,454.731a1.345,1.345,0,0,1,.732.9l-.369.359-.668-1Q-3098.663,454.867-3098.514,454.731Z" transform="translate(-237.036 -36.809)" fill="#fde131"/>
      <path id="Path_205" data-name="Path 205" d="M-3094.416,460.169q.257.372.515.744l-.312.272-.573-.656Z" transform="translate(-240.401 -41.347)" fill="#fde131"/>
      <path id="Path_206" data-name="Path 206" d="M-3116.374,535.665l-.512.734-.376-.359.6-.64A3.436,3.436,0,0,1-3116.374,535.665Z" transform="translate(-221.646 -104.125)" fill="#fde131"/>
      <path id="Path_207" data-name="Path 207" d="M-3141.645,490.053l.812-.425c.075.092.153.18.235.265l-.8.452Q-3141.524,490.2-3141.645,490.053Z" transform="translate(-201.299 -65.929)" fill="#fde131"/>
      <path id="Path_208" data-name="Path 208" d="M-3101.915,450.253q.259.372.519.742c-.1.09-.2.177-.3.262l-.572-.655Z" transform="translate(-234.154 -33.072)" fill="#fde131"/>
      <path id="Path_209" data-name="Path 209" d="M-3103.906,520.708l-.523.738-.356-.342.617-.628A2.472,2.472,0,0,0-3103.906,520.708Z" transform="translate(-232.057 -91.67)" fill="#fde131"/>
      <path id="Path_210" data-name="Path 210" d="M-3100.409,518.18q-.2.195-.389.39a2.566,2.566,0,0,1-.261-.232l.4-.424A2.382,2.382,0,0,1-3100.409,518.18Z" transform="translate(-235.166 -89.533)" fill="#fde131"/>
      <path id="Path_211" data-name="Path 211" d="M-3136.742,487.936l.478-.336.312.364-.555.236Q-3136.631,488.074-3136.742,487.936Z" transform="translate(-205.39 -64.237)" fill="#fde131"/>
      <path id="Path_212" data-name="Path 212" d="M-2803.137,522.326a1.957,1.957,0,0,1,0,1.446c-.878-.1-1.758-.185-2.632-.307-1.5-.209-2.047.283-1.55,1.831.231.719.672,1.814-.293,2.165-.876.319-1.361-.654-1.737-1.4l.343-.385c.525.475,1.316.863.943-.312-.928-2.921.32-3.128,2.595-2.38.175-.57,1.655.957,1.145-.713a2.657,2.657,0,0,0,.227-.258Z" transform="translate(-478.59 -92.957)" fill="#fde131"/>
      <path id="Path_213" data-name="Path 213" d="M-2877.379,472.6c-.6-.339-1.368-.715-.864-1.527.412-.662,1.119-.195,1.674.006,1.219.44,2.443.875,3.631,1.388a2.723,2.723,0,0,0,2.176.138,2.73,2.73,0,0,0,.237.267c-.637,1.193-1.476.649-2.41.4-1.383-.367-2.539-1.906-4.211-.9A1.9,1.9,0,0,0-2877.379,472.6Z" transform="translate(-420.962 -50.159)" fill="#fde131"/>
      <path id="Path_214" data-name="Path 214" d="M-2824.7,471.361c.93-1.231,1.417-.578,1.83.426.616,1.5.659,3.23,1.834,4.5l-.285.336c-1.656-.633-1.251-2.373-1.894-3.55-.311-.569-.034-1.6-1.209-1.421Q-2824.557,471.5-2824.7,471.361Z" transform="translate(-465.78 -50.126)" fill="#fde131"/>
      <path id="Path_215" data-name="Path 215" d="M-2857.354,518.751a18.491,18.491,0,0,0-4.658-.011c-1.577.125-1.642-.53-.758-1.6q.153.136.312.264c-.112.927.554.654,1.05.706,1.439.151,2.938-.42,4.327.35C-2857.175,518.553-2857.265,518.651-2857.354,518.751Z" transform="translate(-433.535 -88.885)" fill="#fde131"/>
      <path id="Path_216" data-name="Path 216" d="M-2858.887,495.437c.5-1.086-.466-1.7-.81-2.509q.147-.142.283-.293c1.259.762,2.47,1.537.8,3.064Q-2858.747,495.565-2858.887,495.437Z" transform="translate(-436.575 -68.439)" fill="#fde131"/>
      <path id="Path_217" data-name="Path 217" d="M-2788.881,514.624a1.478,1.478,0,0,1,1.207.848c-.093.1-.184.2-.273.3a2.272,2.272,0,0,1-1.206-.863Z" transform="translate(-495.441 -86.788)" fill="#fde131"/>
      <path id="Path_218" data-name="Path 218" d="M-2859.9,510.821a1.731,1.731,0,0,1,.844-1.253c.092.084.183.172.272.261l-.8,1.256Q-2859.746,510.957-2859.9,510.821Z" transform="translate(-436.407 -82.569)" fill="#fde131"/>
      <path id="Path_219" data-name="Path 219" d="M-2796.369,509.618a1.628,1.628,0,0,1,1.239.83l-.272.281a2.207,2.207,0,0,1-1.24-.826Q-2796.5,509.762-2796.369,509.618Z" transform="translate(-489.192 -82.61)" fill="#fde131"/>
      <path id="Path_220" data-name="Path 220" d="M-2804,504.507a1.846,1.846,0,0,1,1.253.847c-.089.095-.18.19-.272.284l-1.266-.795Z" transform="translate(-482.811 -78.346)" fill="#fde131"/>
      <path id="Path_221" data-name="Path 221" d="M-2814.409,538.9l-.521-.741a2.877,2.877,0,0,0,.271-.24l.618.649Z" transform="translate(-473.931 -106.225)" fill="#fde131"/>
      <path id="Path_222" data-name="Path 222" d="M-2827.278,475.16q.214-.2.428-.409c.093.094.185.191.274.291l-.414.4C-2827.083,475.345-2827.179,475.251-2827.278,475.16Z" transform="translate(-463.628 -53.515)" fill="#fde131"/>
      <path id="Path_223" data-name="Path 223" d="M-2829.879,477.635q.216-.2.432-.41c.1.091.194.185.286.282l-.455.37A2.615,2.615,0,0,0-2829.879,477.635Z" transform="translate(-461.457 -55.58)" fill="#fde131"/>
      <path id="Path_224" data-name="Path 224" d="M-2871.771,481.268c-.141-.134-.281-.269-.423-.4a1.9,1.9,0,0,1,.232-.228l.472.34Q-2871.633,481.119-2871.771,481.268Z" transform="translate(-426.148 -58.428)" fill="#fde131"/>
      <path id="Path_225" data-name="Path 225" d="M-2832.224,480.095c.13-.129.261-.259.39-.389a2.663,2.663,0,0,1,.262.242l-.415.414A2.822,2.822,0,0,1-2832.224,480.095Z" transform="translate(-459.5 -57.65)" fill="#fde131"/>
      <path id="Path_226" data-name="Path 226" d="M-2817,536.064l-.411-.414a2.559,2.559,0,0,0,.267-.241l.415.415A2.9,2.9,0,0,1-2817,536.064Z" transform="translate(-471.861 -104.132)" fill="#fde131"/>
      <path id="Path_227" data-name="Path 227" d="M-2781.595,519.749l.43.377a2.639,2.639,0,0,1-.227.257l-.477-.336Q-2781.734,519.9-2781.595,519.749Z" transform="translate(-501.52 -91.064)" fill="#fde131"/>
      <path id="Path_228" data-name="Path 228" d="M-2821.963,530.953l-.436-.44a3.231,3.231,0,0,0,.3-.267l.384.441A2.524,2.524,0,0,0-2821.963,530.953Z" transform="translate(-467.699 -99.824)" fill="#fde131"/>
      <path id="Path_229" data-name="Path 229" d="M-2819.373,533.567c-.13-.13-.259-.261-.389-.39a2.632,2.632,0,0,1,.243-.264l.413.413A2.6,2.6,0,0,1-2819.373,533.567Z" transform="translate(-469.9 -102.049)" fill="#fde131"/>
      <path id="Path_230" data-name="Path 230" d="M-2811.377,542.606l-.4-.437.367-.331.379.382Z" transform="translate(-476.56 -109.498)" fill="#fde131"/>
      <path id="Path_231" data-name="Path 231" d="M-2824.352,528.33l-.387-.422q.147-.136.288-.278l.4.433A3.288,3.288,0,0,1-2824.352,528.33Z" transform="translate(-465.746 -97.641)" fill="#fde131"/>
      <path id="Path_232" data-name="Path 232" d="M-2826.768,525.81q-.2-.2-.4-.4c.088-.1.178-.2.271-.292l.42.416Q-2826.62,525.674-2826.768,525.81Z" transform="translate(-463.718 -95.542)" fill="#fde131"/>
      <path id="Path_233" data-name="Path 233" d="M-2861.8,490.88l-.416-.417c.1-.092.2-.186.292-.283l.408.406Q-2861.65,490.738-2861.8,490.88Z" transform="translate(-434.476 -66.39)" fill="#fde131"/>
      <path id="Path_234" data-name="Path 234" d="M-2864.294,488.38l-.413-.413q.149-.138.292-.282l.413.413C-2864.1,488.194-2864.195,488.288-2864.294,488.38Z" transform="translate(-432.395 -64.307)" fill="#fde131"/>
      <path id="Path_235" data-name="Path 235" d="M-2866.783,485.881l-.412-.415q.149-.137.29-.281l.414.414Q-2866.634,485.743-2866.783,485.881Z" transform="translate(-430.318 -62.222)" fill="#fde131"/>
      <path id="Path_236" data-name="Path 236" d="M-2869.231,483.384c-.135-.135-.269-.271-.4-.4.091-.1.184-.195.28-.289l.414.413Q-2869.083,483.247-2869.231,483.384Z" transform="translate(-428.282 -60.14)" fill="#fde131"/>
      <path id="Path_237" data-name="Path 237" d="M-2738.806,577.259c-1.441-.75-2.886-1.494-4.323-2.253-.909-.48-1.272-1.142-.284-1.837,1.04-.731.721-1.625.527-2.548l.218-.206c1.751,1.4,1.326,2.583-.516,3.556,1.489,1.35,3.6,1.4,4.67,3.043Q-2738.662,577.134-2738.806,577.259Z" transform="translate(-533.119 -133.344)" fill="#fde131"/>
      <path id="Path_238" data-name="Path 238" d="M-2719.915,570.035c.3.129.616.388.909.367,2.875-.208,2.865-.22,3.466,2.608.2.921.458,1.828.69,2.741a2.738,2.738,0,0,0-.268.233c-1.129-.84-1.039-2.125-1.2-3.313-.171-1.242-.218-2.535-2.134-1.734a1.438,1.438,0,0,1-1.81-.537Z" transform="translate(-552.927 -133.026)" fill="#fde131"/>
      <path id="Path_239" data-name="Path 239" d="M-2694.08,622.986c-.82-.238-1.481-.249-1.49.9,0,.545-.1,1.2-.789,1.2-.758,0-.857-.722-1.011-1.306q.152-.126.3-.255c.237.092.587.651.661-.063.083-.8.019-1.621.019-2.705a6.7,6.7,0,0,1,2.534,1.994Q-2693.965,622.87-2694.08,622.986Z" transform="translate(-572.032 -175.352)" fill="#fde131"/>
      <path id="Path_240" data-name="Path 240" d="M-2679.153,617a3.6,3.6,0,0,1,1.419,1.678c.379.638,1.379,1.411.548,2.079-.729.586-1.443-.271-1.963-.907.076-.076.151-.154.225-.234,1.071-1.077-.563-1.513-.554-2.338Z" transform="translate(-586.963 -172.214)" fill="#fde131"/>
      <path id="Path_241" data-name="Path 241" d="M-2750.224,548.189a1.626,1.626,0,0,1-.275-.295c-.372-.671-1.343-1.44-.6-2.1.8-.7,1.352.422,1.939.9l-.352.384c-1.2-.263-.3.638-.515.924C-2750.089,548.065-2750.157,548.127-2750.224,548.189Z" transform="translate(-526.971 -112.612)" fill="#fde131"/>
      <path id="Path_242" data-name="Path 242" d="M-2710.54,614.252a10.464,10.464,0,0,1-2.063-3.728c.095-.082.192-.164.291-.244a13.427,13.427,0,0,1,2.1,3.7Z" transform="translate(-559.32 -166.61)" fill="#fde131"/>
      <path id="Path_243" data-name="Path 243" d="M-2686.7,607.049a2.486,2.486,0,0,1,1.274,1.648l-.323.277a4.083,4.083,0,0,1-1.244-1.645Q-2686.842,607.193-2686.7,607.049Z" transform="translate(-580.691 -163.913)" fill="#fde131"/>
      <path id="Path_244" data-name="Path 244" d="M-2739.761,552.365a2.136,2.136,0,0,1,1.291,1.2q-.142.141-.276.289l-1.367-1.108Z" transform="translate(-536.364 -118.281)" fill="#fde131"/>
      <path id="Path_245" data-name="Path 245" d="M-2699.679,633.682q-.229-.394-.458-.787l.323-.272.438.8C-2699.477,633.513-2699.578,633.6-2699.679,633.682Z" transform="translate(-569.723 -185.254)" fill="#fde131"/>
      <path id="Path_246" data-name="Path 246" d="M-2723.827,566.939l.743.513-.349.363-.629-.616A2.967,2.967,0,0,0-2723.827,566.939Z" transform="translate(-549.758 -130.443)" fill="#fde131"/>
      <path id="Path_247" data-name="Path 247" d="M-2741.711,563.908l-.439-.8.2-.2c.376.141.417.468.448.8C-2741.571,563.779-2741.642,563.843-2741.711,563.908Z" transform="translate(-534.664 -127.084)" fill="#fde131"/>
      <path id="Path_248" data-name="Path 248" d="M-2726.365,564.454q.207.207.414.413a3.085,3.085,0,0,1-.234.259l-.422-.408A2.73,2.73,0,0,0-2726.365,564.454Z" transform="translate(-547.634 -128.369)" fill="#fde131"/>
      <path id="Path_249" data-name="Path 249" d="M-2688.9,604.563c.128.138.256.276.385.413-.094.1-.192.188-.292.279l-.36-.459A2.772,2.772,0,0,1-2688.9,604.563Z" transform="translate(-578.875 -161.839)" fill="#fde131"/>
      <path id="Path_250" data-name="Path 250" d="M-2728.944,561.97q.208.207.417.413a2.887,2.887,0,0,1-.242.262l-.429-.4A3.122,3.122,0,0,0-2728.944,561.97Z" transform="translate(-545.472 -126.296)" fill="#fde131"/>
      <path id="Path_251" data-name="Path 251" d="M-2731.582,559.638q.208.195.418.388a3.257,3.257,0,0,1-.253.276l-.44-.375Q-2731.724,559.779-2731.582,559.638Z" transform="translate(-543.253 -124.351)" fill="#fde131"/>
      <path id="Path_252" data-name="Path 252" d="M-2739.126,568.4l-.371-.454.209-.192.38.44Z" transform="translate(-536.878 -131.126)" fill="#fde131"/>
      <path id="Path_253" data-name="Path 253" d="M-2744.065,560.9l-.38-.449c.067-.062.134-.124.2-.185l.378.438Z" transform="translate(-532.749 -124.875)" fill="#fde131"/>
      <path id="Path_254" data-name="Path 254" d="M-3002.2,435.421a2.153,2.153,0,0,0-1.2-.852c-4.177-3.178-3.178-3.151-8.012.019-1.378.094-.738-.833-.617-1.351.945-4.07.959-4.067-2.985-5.645l-1.373-1.252c1.824,0,3.2-.087,4.552.022a2.778,2.778,0,0,0,3.248-2.085,23.357,23.357,0,0,1,1.355-2.716l2.4,4.518c.823,1.227,2.238.716,3.345,1.117a12.044,12.044,0,0,1,2.906,1.105c-1.115.444-2.212.94-3.349,1.319-1.1.367-1.23.916-.913,2.018C-3002.489,432.851-3001.376,434-3002.2,435.421Z" transform="translate(-305.825 -9.13)" fill="#ec2824"/>
      <path id="Path_255" data-name="Path 255" d="M-3151.281,455.318l.555-.236a3.658,3.658,0,0,0,3-3.61c.075-.808.339-1.6.488-2.4.29-1.568.886-.646,1.43-.187l.572.655.668,1,.573.656c.391,1.1,1.135.592,1.86.458,1.568-.289,3.035-1.163,5.167-.39-1.075.914-2.1,1.891-3.237,2.725-1.221.9-1.121,1.792-.379,2.94a35.925,35.925,0,0,1,1.656,3.214c-1.729.107-3.1-.626-4.565-.811-.634-.08-1.349-.608-1.715.406l-.4.424-.617.629a5.5,5.5,0,0,0-1.466,1.842l-.6.64c-.422.268-1.03,1.234-1.066-.193a13.013,13.013,0,0,1,.245-3.24c.313-1.348-.225-1.678-1.428-1.716-1.148-.036-2.291-.231-3.435-.359-.749-.084-.436-.451-.208-.794a5.347,5.347,0,0,0,2.1-1.2Z" transform="translate(-190.617 -31.354)" fill="#ec2824"/>
      <path id="Path_256" data-name="Path 256" d="M-3278.491,545.088l.374-.445c1.138-.673.8-1.776.8-2.775,0-1.373,0-2.747-.054-4.118-.05-1.314.7-.541,1.178-.487l1.27.792c1.142,1.3,2.328,1.729,3.615.185.863-.557,1.712-1.138,2.595-1.663.445-.265.932-.884,1.438-.51.6.44-.363.912-.222,1.442l-.448.8c-.8.615-1,1.615-1.522,2.4a1.647,1.647,0,0,0,.41,2.491c.847.693,1.6,1.5,2.391,2.264-1.1,1.19-2.683.795-4.023,1.19a3.245,3.245,0,0,0-2.625,2.224,25.489,25.489,0,0,1-2.588,5.562c-.218-1.489-.477-2.974-.64-4.469-.118-1.08-.416-1.5-1.562-.935-1.277.629-2.641,1.082-4.024,1.634-.211-.888.685-1.206.747-1.866a3.835,3.835,0,0,0,1.24-1.654l.579-.657Z" transform="translate(-84.042 -104.583)" fill="#ec2824"/>
      <path id="Path_257" data-name="Path 257" d="M-2869.909,477.844l-.414-.413-.472-.34c1.672-1,2.829.536,4.211.9.934.247,1.773.792,2.41-.4l.415-.414.455-.37.415-.4c1.175-.175.9.852,1.209,1.421.643,1.177.239,2.918,1.894,3.55l1.266.795a2.2,2.2,0,0,0,1.239.827,2.272,2.272,0,0,0,1.206.863l.477.336c.51,1.67-.97.143-1.145.713-2.275-.748-3.523-.541-2.595,2.38.374,1.175-.418.787-.943.312l-.379-.383-.617-.649-.415-.415-.413-.413-.384-.441-.4-.433-.419-.416c-1.388-.77-2.887-.2-4.327-.35-.5-.052-1.162.221-1.05-.706l.8-1.256c1.67-1.527.459-2.3-.8-3.064l-.408-.406-.413-.413Z" transform="translate(-427.314 -54.88)" fill="#ec2824"/>
      <path id="Path_258" data-name="Path 258" d="M-2743.464,555.807l-.378-.438c.212-.286-.681-1.187.515-.924l1.366,1.109.44.375.429.4.421.408.629.616a1.437,1.437,0,0,0,1.81.537c1.916-.8,1.963.491,2.134,1.734.164,1.189.074,2.474,1.2,3.313l.36.459a4.078,4.078,0,0,0,1.244,1.645c-.01.826,1.625,1.261.554,2.338a6.7,6.7,0,0,0-2.534-1.994c0,1.084.064,1.9-.02,2.705-.074.713-.424.154-.661.063l-.437-.8a13.42,13.42,0,0,0-2.1-3.7c-1.069-1.643-3.181-1.693-4.67-3.043,1.842-.973,2.267-2.16.516-3.556l-.379-.44C-2743.046,556.275-2743.088,555.948-2743.464,555.807Z" transform="translate(-533.149 -119.977)" fill="#ec2824"/>
    </g>
  </g>
</svg>
