<svg xmlns="http://www.w3.org/2000/svg" width="314" height="108" viewBox="0 0 314 108">
  <g id="microsoft-clarity" transform="translate(-2807 -611)">
    <rect id="Rectangle_27" data-name="Rectangle 27" width="314" height="108" rx="43" transform="translate(2807 611)" fill="#fff"/>
    <g id="Group_101" data-name="Group 101" transform="translate(4066.802 178.166)">
      <path id="Path_521" data-name="Path 521" d="M-637.893,491.667c0-1.526-.016-3.052.006-4.578.012-.866-.256-1.409-1.237-1.313-.9.088-1.227-.429-1.224-1.224,0-.736.23-1.494,1.088-1.418,1.511.133,1.378-.809,1.38-1.769.008-3.611,2.2-5.608,5.812-5.441,1.366.063,1.271.909,1.3,1.826.039,1.042-.57,1.035-1.327.947a1.942,1.942,0,0,0-2.125,1.059,4.3,4.3,0,0,0-.166,2.97.511.511,0,0,0,.387.282c1.395.035,2.793.093,4.185.032.58-.025.43-.63.443-1.032.068-2.165.546-2.675,2.667-2.909.533-.059.809.054.8.643-.017.8.042,1.613,0,2.415-.043.737.261,1,.965.938.336-.031.68.018,1.017-.01,1.016-.082,1.478.343,1.473,1.391,0,1.009-.484,1.3-1.42,1.316-2.032.028-2.034.061-2.037,2.153,0,1.78-.038,3.562.018,5.34a1.74,1.74,0,0,0,2.15,1.857c.539-.088,1.134-.411,1.187.522.045.786.235,1.632-.8,2.012-3.151,1.162-5.824-.58-5.937-3.93-.074-2.2-.1-4.408-.055-6.61.023-1.058-.329-1.466-1.383-1.374a12.917,12.917,0,0,1-2.287,0c-1.207-.109-1.652.349-1.622,1.584.07,2.881.032,5.764.02,8.647-.006,1.51-.226,1.611-2.139,1.593-1.339-.012-1.193-.83-1.163-1.725.047-1.4.012-2.8.012-4.195Z" transform="translate(-402.662 -14.03)" fill="#404040"/>
      <path id="Path_522" data-name="Path 522" d="M-685.665,510.359a6.923,6.923,0,0,1-7.243,7.79c-5.255-.1-7.421-2.671-7.531-7.732-.095-4.395,3.167-7.385,7.619-7.392S-685.292,506.082-685.665,510.359Zm-3.383.076c-.039-.366-.059-.962-.173-1.541a3.762,3.762,0,0,0-3.5-3.139,3.744,3.744,0,0,0-3.806,2.555,6.048,6.048,0,0,0,.041,4.67,3.74,3.74,0,0,0,4.647,2.264C-689.989,514.726-689.074,513.222-689.047,510.435Z" transform="translate(-357.865 -34.24)" fill="#404040"/>
      <path id="Path_523" data-name="Path 523" d="M-794.442,510.526c.006,4.79-2.872,7.715-7.627,7.748a6.821,6.821,0,0,1-7.153-7.2c-.012-5.182,2.652-7.9,7.755-7.915C-797.088,503.144-794.448,505.913-794.442,510.526Zm-3.534.208a12.2,12.2,0,0,0-.006-1.266,3.664,3.664,0,0,0-3.113-3.494,3.626,3.626,0,0,0-4.276,2.337,6,6,0,0,0-.193,4.088,3.7,3.7,0,0,0,3.785,3.076c1.831.059,2.989-.833,3.623-2.736A5.9,5.9,0,0,0-797.976,510.734Z" transform="translate(-276.771 -34.339)" fill="#404040"/>
      <path id="Path_524" data-name="Path 524" d="M-739.118,502.907c.891.108,1.608.184,2.321.283a1.234,1.234,0,0,1,1.168,1.264c.145,1.667.024,1.793-1.591,1.421a4.5,4.5,0,0,0-2.745-.112,1.411,1.411,0,0,0-1.008,1.182,1.244,1.244,0,0,0,.665,1.39c.977.505,1.972.978,2.95,1.482A4.115,4.115,0,0,1-734.832,514a4.291,4.291,0,0,1-3.212,3.7,8.362,8.362,0,0,1-5.246-.073,2.288,2.288,0,0,1-.921-2.891c.294-.421.615-.122.9-.025a7.847,7.847,0,0,0,3.467.636c.739-.085,1.452-.225,1.622-1.129a1.456,1.456,0,0,0-1-1.7c-.876-.425-1.708-.942-2.592-1.347a3.937,3.937,0,0,1-2.531-4.137,4.125,4.125,0,0,1,3.147-3.741A12.93,12.93,0,0,1-739.118,502.907Z" transform="translate(-325.076 -34.152)" fill="#404040"/>
      <path id="Path_525" data-name="Path 525" d="M-887.3,505.169c-.017,1.538-.017,1.538-1.4,1a4.489,4.489,0,0,0-5.744,1.821,5.356,5.356,0,0,0,1.071,6.6c1.409,1.079,2.945.75,4.5.386.488-.115,1.094-.785,1.505.052a2.046,2.046,0,0,1-.739,2.546c-4.67,1.788-10.223-.408-10.436-6.321-.141-3.931,1.644-6.6,4.933-7.739a9.294,9.294,0,0,1,5.256-.16A1.273,1.273,0,0,1-887.3,505.169Z" transform="translate(-210.18 -34.256)" fill="#404040"/>
      <path id="Path_526" data-name="Path 526" d="M-839.955,505.768a3.835,3.835,0,0,1,3.645-2.179c1.081.083,1.283.6,1.084,2.453-.112,1.04-.739.652-1.292.568-1.939-.3-3.5,1.136-3.616,3.487-.113,2.2-.059,4.41-.11,6.614-.012.512.2,1.232-.539,1.4a4.176,4.176,0,0,1-2.5-.093c-.323-.13-.226-.52-.225-.806.006-4.029.025-8.059.028-12.089,0-.951.354-1.362,1.387-1.307.924.049,1.977-.351,1.861,1.215A.659.659,0,0,0-839.955,505.768Z" transform="translate(-251.202 -34.652)" fill="#404040"/>
      <path id="Path_527" data-name="Path 527" d="M-726.848,519.173l-.274-.178.119-.119.177.275Z" transform="translate(-337.975 -46.057)" fill="#007acc"/>
      <path id="Path_528" data-name="Path 528" d="M-748.144,524.888c-.03.011-.063.035-.088.028s-.038-.045-.056-.069l.139-.05Z" transform="translate(-322.196 -50.471)" fill="#007acc"/>
      <path id="Path_529" data-name="Path 529" d="M-1095.176,541.382l-.986.067c-.3-.211-.654-.109-.982-.11-3.639-.009-7.279.014-10.918-.015-1.694-.014-2.082-.4-2.086-1.98-.01-4.02.023-8.041-.007-12.061a1.621,1.621,0,0,1,1.08-1.745c4.466-.167,8.932-.11,13.4,0a1.614,1.614,0,0,1,1.182,1.765c-.053,4.088-.033,8.177-.006,12.265A2.46,2.46,0,0,1-1095.176,541.382Z" transform="translate(-52.432 -50.945)" fill="#f7bb12"/>
      <path id="Path_530" data-name="Path 530" d="M-1165.51,540.049l-.986.066c-.3-.211-.654-.109-.982-.11-3.639-.009-7.278.014-10.918-.015-1.694-.014-2.082-.4-2.086-1.98-.01-4.02.023-8.04-.007-12.06a1.62,1.62,0,0,1,1.08-1.745c4.466-.167,8.932-.11,13.4,0a1.614,1.614,0,0,1,1.182,1.765c-.053,4.088-.033,8.177-.006,12.265A2.458,2.458,0,0,1-1165.51,540.049Z" transform="translate(0 -49.951)" fill="#146ff4"/>
      <path id="Path_531" data-name="Path 531" d="M-1102.649,472.536c-2.077,0-4.156-.031-6.232.012-1.189.024-1.688-.473-1.682-1.66q.03-6.106-.018-12.211a1.305,1.305,0,0,1,1.306-1.5,23.417,23.417,0,0,1,3.553.013c3.178-.018,6.357.008,9.536-.023,1.083-.01,1.557.474,1.555,1.525-.008,4.07.012,8.141-.022,12.211-.012,1.418-.39,1.7-1.769,1.691-2.076-.017-4.151,0-6.227,0Z" transform="translate(-52.116)" fill="#7ebc13"/>
      <path id="Path_532" data-name="Path 532" d="M-1172.022,472.708c-1.99,0-3.981.022-5.97-.007-1.508-.022-1.85-.318-1.864-1.773-.037-4.022-.013-8.044-.025-12.067a1.314,1.314,0,0,1,1.476-1.5q6.414-.02,12.829-.013c.89,0,1.3.5,1.3,1.369q0,6.288.008,12.575c0,1.022-.554,1.428-1.528,1.422-2.075-.012-4.149,0-6.224,0Z" transform="translate(-0.454 -0.19)" fill="#f25427"/>
      <path id="Path_533" data-name="Path 533" d="M-1017.3,487.172a17.394,17.394,0,0,0-.156,1.831c.055,3.261-.144,6.525.107,9.784.042.548.018,1.1.006,1.652a1.833,1.833,0,0,1-2.8,1.611c-.449-.24-.462-.686-.463-1.105q-.019-8.9-.027-17.8c0-.726.28-1.123,1.052-1.086.38.018.763,0,1.144.007,3.029.049,2.637-.468,3.847,2.773,1.418,3.8,3.036,7.522,4.575,11.276a5.823,5.823,0,0,0,.48.726c1.159-2.829,2.243-5.472,3.325-8.116.784-1.918,1.586-3.83,2.336-5.762a1.209,1.209,0,0,1,1.325-.912c.931.044,1.866.052,2.8.018.785-.029,1.039.331,1.038,1.068q-.014,8.9.007,17.8c0,.85-.327,1.274-1.207,1.211a5.41,5.41,0,0,0-1.016,0c-.95.114-1.258-.306-1.25-1.232.032-4.069.015-8.138.015-12.206v-1.743a2.66,2.66,0,0,0-.866,1.429q-2.447,6.194-4.884,12.393c-.308.78-.672,1.387-1.714,1.387a1.651,1.651,0,0,1-1.778-1.227c-1.708-4.326-3.473-8.629-5.223-12.938-.12-.3-.283-.574-.425-.861Z" transform="translate(-119.167 -18.601)" fill="#404040"/>
      <g id="Group_100" data-name="Group 100" transform="translate(-1118.878 490.922)">
        <path id="Path_534" data-name="Path 534" d="M-756.041,592.447a1.394,1.394,0,0,1-1.435,1.321,1.377,1.377,0,0,1-1.357-1.388,1.4,1.4,0,0,1,1.381-1.275A1.4,1.4,0,0,1-756.041,592.447Z" transform="translate(804.544 -590.824)" fill="#404040"/>
        <path id="Path_535" data-name="Path 535" d="M-771.446,624.441l-.074.057.076-.054Z" transform="translate(814.001 -615.675)" fill="#404040"/>
        <path id="Path_536" data-name="Path 536" d="M-699.4,625.291c1.164-3.221,2.243-6.21,3.324-9.2.172-.474.343-.949.528-1.418.078-.2.119-.463.391-.487.564-.05,1.243-.249,1.663.066.44.332-.1.857-.257,1.252-1.92,4.938-3.839,9.878-5.845,14.782-.8,1.947-2.126,3.373-4.478,3.313-.955-.024-1.359-.678-1.031-1.6.135-.379.376-.227.61-.208a2.493,2.493,0,0,0,2.881-1.614c.368-.767.653-1.573,1.005-2.348a1.292,1.292,0,0,0-.106-1.086c-1.5-3.886-2.972-7.781-4.5-11.653-.314-.794-.157-.952.654-.969.88-.018,1.39.121,1.7,1.11C-701.808,618.534-700.617,621.793-699.4,625.291Z" transform="translate(764.688 -607.951)" fill="#404040"/>
        <path id="Path_537" data-name="Path 537" d="M-737.169,610.019c0-1.43-.042-2.6.014-3.768.038-.8-.247-1.055-1.034-1.011-.443.024-1.139.35-1.22-.573-.071-.8.125-1.314,1.055-1.159.974.163,1.322-.232,1.189-1.191-.065-.465.01-.948-.017-1.421-.022-.381.15-.551.483-.7,1.47-.661,1.623-.573,1.631,1.044.012,2.228.012,2.235,2.264,2.262.618.007,1.065.007,1.063.887s-.433.881-1.059.885c-2.272.014-2.27.024-2.27,2.259,0,1.834-.026,3.667,0,5.5.027,1.849.742,2.459,2.549,2.254.28-.032.7-.3.717.243.015.431.246.954-.318,1.275a3.533,3.533,0,0,1-4.773-1.859C-737.431,613.242-737.044,611.486-737.169,610.019Z" transform="translate(790.072 -597.312)" fill="#404040"/>
        <path id="Path_538" data-name="Path 538" d="M-938.422,603.508c.012-3.954,1.264-6.909,4.374-8.814a9.743,9.743,0,0,1,8.745-.676c.508.182.9,1.932.5,2.238-.3.234-.6-.054-.87-.167a8.253,8.253,0,0,0-5-.547,6.75,6.75,0,0,0-5.429,6.049,8.8,8.8,0,0,0,.743,5.179,6.6,6.6,0,0,0,7.141,3.339c.774-.135,1.53-.37,2.3-.544.382-.086.76-.665,1.152-.133a1.639,1.639,0,0,1-.536,1.9,8.2,8.2,0,0,1-3,.806c-3.674.418-7.127-.71-9.011-4.179A9.184,9.184,0,0,1-938.422,603.508Z" transform="translate(938.424 -592.46)" fill="#404040"/>
        <path id="Path_539" data-name="Path 539" d="M-871.166,599.619c0-2.875.039-5.751-.022-8.626-.02-.953.447-.97,1.154-.992.733-.022.987.2.983.962q-.041,8.768,0,17.536c0,.786-.3.976-1.006.946-.64-.026-1.146.011-1.13-.918C-871.134,605.56-871.166,602.589-871.166,599.619Z" transform="translate(888.302 -590)" fill="#404040"/>
        <path id="Path_540" data-name="Path 540" d="M-841.327,624.743a4.693,4.693,0,0,1-5.353,1.952,3.363,3.363,0,0,1-2.735-3.115,3.815,3.815,0,0,1,2.214-4.108,14.5,14.5,0,0,1,3.857-.838c.031-.005.068.011.094,0,.682-.314,1.918.318,2.033-.891a2.628,2.628,0,0,0-2.412-2.966,6.823,6.823,0,0,0-3.47.777c-.3.149-.73.666-.946.266a1.471,1.471,0,0,1,.108-1.691c1.916-2.023,7.222-1.25,8.352,1.189a5.025,5.025,0,0,1,.451,2.114c.011,2.747-.025,5.5.024,8.242.015.844-.4.888-1.041.9-.677.013-1.109-.1-1.012-.923A1.019,1.019,0,0,0-841.327,624.743Zm.175-3.581c-.194-.283.362-1.113-.43-1.009a19.712,19.712,0,0,0-4.353.75,1.929,1.929,0,0,0-1.358,1.937,1.969,1.969,0,0,0,1.258,2.017C-843.672,625.9-841.2,624.07-841.152,621.162Z" transform="translate(872.085 -607.124)" fill="#404040"/>
        <path id="Path_541" data-name="Path 541" d="M-791.34,616.047c.352-.565.561-.927.8-1.272a3.335,3.335,0,0,1,3.225-1.57c1.1.09.712.913.756,1.5.05.672-.359.609-.871.556-1.883-.193-3.174.821-3.645,2.8a9.064,9.064,0,0,0-.258,2.156c.01,1.8,0,3.6,0,5.395a1.133,1.133,0,0,1-1.732,1.056c-.288-.148-.27-.4-.27-.649q-.007-5.963,0-11.926c0-.88.665-.555,1.1-.6s.929-.1.907.6C-791.354,614.66-791.34,615.225-791.34,616.047Z" transform="translate(830.269 -607.287)" fill="#404040"/>
        <path id="Path_542" data-name="Path 542" d="M-757.69,620.883c0-1.894.038-3.789-.017-5.681-.024-.835.381-.917,1.04-.914s1.056.065,1.048.906q-.059,5.728,0,11.458c.011.939-.5.874-1.137.9-.672.026-.956-.142-.935-.891.053-1.924.018-3.85.018-5.776Z" transform="translate(803.704 -608.106)" fill="#404040"/>
      </g>
      <path id="Path_543" data-name="Path 543" d="M-917.812,511.563c0,1.99-.042,3.98.016,5.968.033,1.122-.576,1.261-1.446,1.18-.808-.075-1.9.381-1.888-1.125.018-4.064.006-8.128,0-12.192,0-.775.259-1.221,1.137-1.075a3.069,3.069,0,0,0,1.007,0c.946-.163,1.2.322,1.194,1.15-.014,2.032,0,4.064,0,6.1Z" transform="translate(-193.346 -35.18)" fill="#404040"/>
      <path id="Path_544" data-name="Path 544" d="M-918.224,482.148a1.808,1.808,0,0,1-1.93,1.871,1.8,1.8,0,0,1-1.989-1.8,1.851,1.851,0,0,1,2-1.954A1.844,1.844,0,0,1-918.224,482.148Z" transform="translate(-192.591 -17.27)" fill="#404040"/>
    </g>
  </g>
</svg>
