<svg xmlns="http://www.w3.org/2000/svg" width="314" height="108" viewBox="0 0 314 108">
  <g id="moz" transform="translate(-1274 -601)">
    <rect id="Rectangle_4" data-name="Rectangle 4" width="314" height="108" rx="43" transform="translate(1274 601)" fill="#fff"/>
    <g id="Group_91" data-name="Group 91" transform="translate(3821.7 -1520.372)">
      <path id="Path_168" data-name="Path 168" d="M-2392.653,2158.831h8.1c6,1.8,11.658,4.144,15.415,9.993.676-5.345.676-5.345,5.767-5.345q16.7,0,33.408.02c.859,0,1.817-.355,2.773.458l-19.245,20.479h13.328c6.416,0,6.317,0,6.407,6.5.034,2.45-.8,3.256-3.209,3.24-12.148-.08-24.3-.031-36.444-.052-.61,0-1.358.318-1.921-.59l19.075-20.278c-6.01,0-11.375-.052-16.738.034-1.475.023-.736,1.208-.62,1.921a17.806,17.806,0,0,1-5.024,16.006c-5.249,5.433-11.8,7.085-19.153,6.62-8.667-.548-14.978-4.531-18.876-12.3-.316-.63-.575-1.288-.861-1.933a14.332,14.332,0,0,0-.4,4.066c0,6.576,0,6.51-6.6,6.508-2.236,0-3.221-.665-3.132-3.055.15-4.009.041-8.027.041-12.113-1.227.14-1.573,1.008-2.1,1.59-3.959,4.381-7.942,8.743-11.781,13.228-1.224,1.431-1.849,1.291-3-.043-3.8-4.411-7.711-8.72-11.6-13.047a4.945,4.945,0,0,0-2.243-1.884c0,4.348-.062,8.457.028,12.563.042,1.949-.7,2.778-2.653,2.743-2.357-.043-4.717.066-7.076.109v-30.88a44.667,44.667,0,0,0,4.547.036,9.057,9.057,0,0,1,8.357,3.668c3.317,4.033,7,7.767,10.372,11.754,1.323,1.563,2.044,1.853,3.52.092,3.679-4.392,7.618-8.565,11.4-12.872a7.079,7.079,0,0,1,5.76-2.621c1.432.034,2.871.081,4.3-.015,1.409-.094,1.946.384,1.894,1.846-.1,2.7-.028,5.415-.028,8.123a22.938,22.938,0,0,1,14.951-13.541C-2394.836,2159.506-2393.578,2159.688-2392.653,2158.831Zm4.033,29.447c5.612-.017,10.285-3.576,11.071-8.433.735-4.542-2.383-9.09-7.452-10.587a11.567,11.567,0,0,0-12.292,3.059,8.413,8.413,0,0,0-1.881,9.555C-2397.613,2185.822-2393.427,2188.292-2388.62,2188.278Z" fill="#27abe1"/>
    </g>
  </g>
</svg>
