<svg xmlns="http://www.w3.org/2000/svg" width="314" height="108" viewBox="0 0 314 108">
  <g id="optimizely" transform="translate(-1660 -128)">
    <rect id="Rectangle_7" data-name="Rectangle 7" width="314" height="108" rx="43" transform="translate(1660 128)" fill="#fff"/>
    <g id="optimizely-1" transform="translate(1715.572 156.256)">
      <path id="Path_23" data-name="Path 23" d="M475.319,137.026c4.515,0,7.34,3.433,7.34,8.435s-3.109,8.435-7.34,8.435a5.979,5.979,0,0,1-4.163-1.541c-.122-.122-.284-.068-.284.095v7.313a.156.156,0,0,1-.162.162h-3.528a.156.156,0,0,1-.162-.162V137.513a.156.156,0,0,1,.162-.162h2.379c.189,0,.392.027.46.162l.771,1.095c.108.149.3.108.432-.068A6.326,6.326,0,0,1,475.319,137.026Zm-.649,3.528c-2.568,0-3.812,2.014-3.812,4.907,0,3.2,1.244,4.907,3.812,4.907,2.73,0,4.136-2.014,4.136-4.907S477.4,140.554,474.67,140.554ZM580.942,155.9c-1.419,3.866-1.69,4.042-5.191,4.042h-4.717a.156.156,0,0,1-.162-.162v-3.014c0-.095.027-.162.162-.162h3.906c2.055,0,2.041-.716,1.244-3.177l-5.353-15.9c-.027-.095.027-.162.162-.162h3.744a.2.2,0,0,1,.189.162l3.879,12.409a.169.169,0,0,0,.324,0l3.879-12.409a.2.2,0,0,1,.189-.162h3.717c.122,0,.189.068.162.162Zm-126.277-1.974c-6.772,0-10.165-4.812-10.165-11.611s3.406-11.611,10.165-11.611,10.165,4.812,10.165,11.611S461.437,153.922,454.665,153.922Zm6.164-11.611c0-5.042-2.176-8.083-6.164-8.083s-6.164,3.041-6.164,8.083,2.176,8.083,6.164,8.083S460.829,147.353,460.829,142.311Zm22.357-1.568a.156.156,0,0,1-.162-.162V137.54a.156.156,0,0,1,.162-.162h2.636a.156.156,0,0,0,.162-.162V132.89a.156.156,0,0,1,.162-.162h3.528a.156.156,0,0,1,.162.162v4.325a.156.156,0,0,0,.162.162h3.271a.156.156,0,0,1,.162.162v3.041a.156.156,0,0,1-.162.162h-3.285a.156.156,0,0,0-.162.162v8.151a1.051,1.051,0,0,0,1.149,1.027h2.271a.156.156,0,0,1,.162.162v3.2a.156.156,0,0,1-.162.162h-2.5c-3.366,0-4.785-1.311-4.785-4.528v-8.178a.156.156,0,0,0-.162-.162Zm12.76-5.866a.128.128,0,0,1-.135-.135V131.16a.128.128,0,0,1,.135-.135h3.528a.128.128,0,0,1,.135.135v3.582a.128.128,0,0,1-.135.135Zm0,18.721a.156.156,0,0,1-.162-.162v-15.91a.156.156,0,0,1,.162-.162h3.528a.156.156,0,0,1,.162.162v15.91a.156.156,0,0,1-.162.162Zm25.52,0a.156.156,0,0,1-.162-.162v-8.881c0-1.919-.7-3.974-2.92-3.974-2.176,0-2.893,1.73-2.893,3.974v8.881a.156.156,0,0,1-.162.162H511.8a.156.156,0,0,1-.162-.162v-8.881c0-1.919-.7-3.974-2.92-3.974-2.176,0-2.893,1.73-2.893,3.974v8.881a.156.156,0,0,1-.162.162h-3.515a.156.156,0,0,1-.162-.162v-15.91a.156.156,0,0,1,.162-.162h3.041a.312.312,0,0,1,.324.189l.324.96c.068.122.189.162.284.068A6.422,6.422,0,0,1,510,137.04a5.055,5.055,0,0,1,4.177,1.892.152.152,0,0,0,.257,0,5.591,5.591,0,0,1,4.271-1.892c4.042,0,6.448,2.311,6.448,7.313v9.084a.156.156,0,0,1-.162.162Zm6.218-18.721a.128.128,0,0,1-.135-.135V131.16a.128.128,0,0,1,.135-.135h3.528a.128.128,0,0,1,.135.135v3.582a.128.128,0,0,1-.135.135Zm-.014,18.721a.156.156,0,0,1-.162-.162v-15.91a.156.156,0,0,1,.162-.162H531.2a.156.156,0,0,1,.162.162v15.91a.156.156,0,0,1-.162.162Zm6.258,0a.156.156,0,0,1-.162-.162v-3.082a.427.427,0,0,1,.122-.284l7.732-8.921a.151.151,0,0,0-.122-.257h-7.245a.156.156,0,0,1-.162-.162v-3.2a.156.156,0,0,1,.162-.162h12.057a.156.156,0,0,1,.162.162V140.7a.185.185,0,0,1-.068.162l-7.7,8.948a.152.152,0,0,0,.122.257h7.854a.156.156,0,0,1,.162.162v3.2a.156.156,0,0,1-.162.162Zm28.94-6.637H551.7a.156.156,0,0,0-.162.162c0,1.771,1.541,3.271,3.812,3.271,1.406,0,2.568-.351,3.109-1.446a.255.255,0,0,1,.257-.162h3.758c.095,0,.189.068.162.162-.7,3.109-3.623,4.974-7.286,4.974-4.677,0-7.826-3.433-7.826-8.435,0-5.042,3.15-8.435,7.826-8.435s7.826,3.433,7.826,8.435a5.8,5.8,0,0,1-.162,1.311c-.027.095-.054.162-.149.162Zm-3.92-3.2c.095,0,.122-.027.122-.122,0-1.284-1.095-3.041-3.717-3.041-2.6,0-3.812,1.8-3.812,3.041,0,.095.027.122.122.122Zm6.326,9.84a.156.156,0,0,1-.162-.162V131.187a.156.156,0,0,1,.162-.162H568.8a.156.156,0,0,1,.162.162v22.263a.156.156,0,0,1-.162.162h-3.528Z" transform="translate(-384.33 -113.076)"/>
      <path id="Path_24" data-name="Path 24" d="M105.461,5.526a18.938,18.938,0,0,0-4.934,8.543,18.845,18.845,0,0,1,4.745-.649l-5.38,5.38a18.478,18.478,0,0,0,.3,3.555l8.637-8.637a18.43,18.43,0,0,1,3.258.879,8.658,8.658,0,0,1,1.095-1.365,8.153,8.153,0,0,1,11.53,11.53,8.085,8.085,0,0,1-1.365,1.095,18.123,18.123,0,0,1,.879,3.258l-8.637,8.637a18.479,18.479,0,0,0,3.555.3l5.38-5.38a18.844,18.844,0,0,1-.649,4.745,19.059,19.059,0,1,0-18.41-31.887Z" transform="translate(-86.302)" fill="#0037ff"/>
      <path id="Path_25" data-name="Path 25" d="M126.108,147.268a8.435,8.435,0,0,1-.784-3.068l-4.893,4.893-3.731,3.731a18.163,18.163,0,0,0,1.5,2.352l5.3-5.3Zm6.921,4.623a7.926,7.926,0,0,1-3.068-.784l-2.609,2.609-5.3,5.3a18.162,18.162,0,0,0,2.352,1.5l3.731-3.731Z" transform="translate(-100.839 -124.751)" fill="#0037ff"/>
      <path id="Path_26" data-name="Path 26" d="M110.722,105.715a8.154,8.154,0,0,1,1.271-4.839,18.429,18.429,0,0,0-3.258-.879l-8.637,8.637a18.432,18.432,0,0,0,.879,3.258,19.049,19.049,0,0,0,1.108,2.46Zm7.691,7.691-8.624,8.637a19.048,19.048,0,0,0,2.46,1.108,18.122,18.122,0,0,0,3.258.879l8.637-8.637a19.67,19.67,0,0,0-.879-3.258A8.124,8.124,0,0,1,118.413,113.406Zm5.38,10.273a18.845,18.845,0,0,0,.649-4.745l-5.38,5.38A18.21,18.21,0,0,0,123.793,123.679Zm-23.344-23.344a18.844,18.844,0,0,0-.649,4.745l5.38-5.38A19.268,19.268,0,0,0,100.449,100.335Zm14.9,12.3a8.276,8.276,0,0,1-2.257-1.6,8.075,8.075,0,0,1-1.6-2.257l-7.908,7.908a21.241,21.241,0,0,0,1.784,2.068,18.464,18.464,0,0,0,2.068,1.784Z" transform="translate(-86.223 -86.267)" fill="#080738"/>
      <path id="Path_27" data-name="Path 27" d="M14.225,104.4A19.065,19.065,0,0,0,.1,122.608l13.477-13.477A18.824,18.824,0,0,1,14.225,104.4Zm5.123,37.47A19.065,19.065,0,0,0,37.57,127.744a18.845,18.845,0,0,1-4.745.649Zm-5.961-24.817a8.085,8.085,0,0,1,1.365-1.095,18.43,18.43,0,0,1-.879-3.258L.4,126.176a18.977,18.977,0,0,0,1.987,5.7l8.624-8.624A8.179,8.179,0,0,1,13.387,117.052Zm12.625,10.165a8.132,8.132,0,0,1-7.3,3.744l-8.624,8.624a18.976,18.976,0,0,0,5.7,1.987L29.27,128.1a18.747,18.747,0,0,1-3.258-.879Zm-12.625,1.365a8.076,8.076,0,0,1-1.6-2.257l-7.908,7.908A21.24,21.24,0,0,0,5.669,136.3a18.465,18.465,0,0,0,2.068,1.784l7.908-7.908A8.578,8.578,0,0,1,13.387,128.582Z" transform="translate(0 -90.331)" fill="#0037ff"/>
    </g>
  </g>
</svg>
