<svg xmlns="http://www.w3.org/2000/svg" width="314" height="108" viewBox="0 0 314 108">
  <g id="outbrain" transform="translate(-1664 -763)">
    <rect id="Rectangle_11" data-name="Rectangle 11" width="314" height="108" rx="43" transform="translate(1664 763)" fill="#fff"/>
    <path id="outbrain-2" data-name="outbrain" d="M60.714,226.538a2.49,2.49,0,0,1,.837-2.115,3.682,3.682,0,0,1,2.336-.661,7.052,7.052,0,0,1,1.719.22c.529.176.881.264,1.058.353v13.616a7.854,7.854,0,0,0,1.675,5.376,6.5,6.5,0,0,0,5.068,1.851,6.432,6.432,0,0,0,5.068-1.851,7.777,7.777,0,0,0,1.675-5.376V226.494a2.49,2.49,0,0,1,.837-2.115,3.633,3.633,0,0,1,2.291-.661,7.14,7.14,0,0,1,1.763.22c.529.176.881.264,1.058.353v14.938a11.756,11.756,0,0,1-.925,4.759,9.591,9.591,0,0,1-2.6,3.569,11.067,11.067,0,0,1-4.01,2.2,17.046,17.046,0,0,1-5.112.749,17.56,17.56,0,0,1-5.156-.749,11.067,11.067,0,0,1-4.01-2.2,10.1,10.1,0,0,1-2.6-3.569,11.757,11.757,0,0,1-.925-4.759V226.538Zm29.965-7.359a2.49,2.49,0,0,1,.837-2.115,3.633,3.633,0,0,1,2.291-.661,7.051,7.051,0,0,1,1.719.22c.529.176.881.264,1.058.353v6.786h7.535a3.322,3.322,0,0,1,2.424.705,2.707,2.707,0,0,1,.705,2.027,4.867,4.867,0,0,1-.264,1.63q-.264.727-.4,1.058H96.628v11.545a6.232,6.232,0,0,0,.353,2.2,3.186,3.186,0,0,0,1.014,1.366,4.355,4.355,0,0,0,1.5.749,7.805,7.805,0,0,0,1.807.22,8.421,8.421,0,0,0,2.82-.485,7.258,7.258,0,0,0,1.851-.881l2.38,3.922a12.035,12.035,0,0,1-1.146.793,9.1,9.1,0,0,1-1.851.881,15.858,15.858,0,0,1-2.424.705,15.325,15.325,0,0,1-2.952.264c-3.041,0-5.332-.793-6.918-2.38a8.55,8.55,0,0,1-2.336-6.213V219.179Zm20.094-4.847a2.455,2.455,0,0,1,.837-2.071,3.682,3.682,0,0,1,2.335-.661,7.052,7.052,0,0,1,1.719.22c.529.176.881.264,1.058.353v14.894a11.233,11.233,0,0,1,8.813-4.01,13.564,13.564,0,0,1,5.244,1.014,12.439,12.439,0,0,1,4.186,2.864,14.036,14.036,0,0,1,2.82,4.363,14.936,14.936,0,0,1,1.014,5.508,14.263,14.263,0,0,1-1.058,5.508,13.515,13.515,0,0,1-2.908,4.363,14.057,14.057,0,0,1-4.451,2.864,14.614,14.614,0,0,1-5.64,1.058,16.645,16.645,0,0,1-5.64-.925,11.8,11.8,0,0,1-4.451-2.82,13.154,13.154,0,0,1-2.908-4.671,18.484,18.484,0,0,1-1.058-6.566V214.332Zm13.881,30.846a8.019,8.019,0,0,0,5.817-2.424,8.089,8.089,0,0,0,1.63-2.644,9.06,9.06,0,0,0,.573-3.349,9.632,9.632,0,0,0-.573-3.393,7.85,7.85,0,0,0-1.63-2.688,7.567,7.567,0,0,0-2.556-1.763,7.841,7.841,0,0,0-3.261-.661,8.2,8.2,0,0,0-3.3.661,7.325,7.325,0,0,0-2.512,1.807,8.292,8.292,0,0,0-1.63,2.688,9.355,9.355,0,0,0-.617,3.3,9.719,9.719,0,0,0,.617,3.437,7.345,7.345,0,0,0,1.675,2.644,8.144,8.144,0,0,0,2.556,1.719,7.017,7.017,0,0,0,3.217.661m17.582-12.118a9.376,9.376,0,0,1,2.952-7.4c1.939-1.763,4.671-2.6,8.108-2.6a13.157,13.157,0,0,1,5.332.925,2.95,2.95,0,0,1,2.027,2.776,3.631,3.631,0,0,1-.485,1.719,4.209,4.209,0,0,1-.793,1.058,19.238,19.238,0,0,0-2.159-.793,12.051,12.051,0,0,0-2.952-.353c-4.054,0-6.081,2.159-6.081,6.434v15.027h-5.9V233.06Zm43.978,16.657c-.353.088-.881.132-1.63.22s-1.63.176-2.6.264c-1.014.088-2.115.176-3.393.22-1.234.088-2.556.088-3.878.088a25.03,25.03,0,0,1-6.61-.705,12.415,12.415,0,0,1-4.054-1.851,6.149,6.149,0,0,1-2.027-2.688,9.522,9.522,0,0,1-.529-3.129,9.962,9.962,0,0,1,.661-3.746,6.274,6.274,0,0,1,2.115-2.688,10.5,10.5,0,0,1,3.878-1.63,27.281,27.281,0,0,1,5.817-.529c1.322,0,2.556.044,3.746.132s2.071.176,2.644.22a7.407,7.407,0,0,0-.573-3,4.451,4.451,0,0,0-1.63-1.851,7.179,7.179,0,0,0-2.468-.925,17.918,17.918,0,0,0-3.217-.264,14.03,14.03,0,0,0-4.759.661,9.884,9.884,0,0,0-2.38,1.146,5.219,5.219,0,0,1-.837-.969,2.885,2.885,0,0,1-.529-1.763,2.733,2.733,0,0,1,.4-1.41,3.151,3.151,0,0,1,1.366-1.234,8.492,8.492,0,0,1,2.644-.837,22.265,22.265,0,0,1,4.186-.308,24.738,24.738,0,0,1,5.6.617,11.71,11.71,0,0,1,4.318,1.895,8.993,8.993,0,0,1,2.82,3.437,12.011,12.011,0,0,1,1.014,5.112v15.511Zm-5.861-11.545c-.353-.088-1.014-.176-1.939-.308a33.146,33.146,0,0,0-4.274-.22,9.794,9.794,0,0,0-5.156,1.058,3.718,3.718,0,0,0-1.586,3.349,4.435,4.435,0,0,0,.353,1.719,2.99,2.99,0,0,0,1.146,1.322,6.658,6.658,0,0,0,2.247.837,20.021,20.021,0,0,0,3.569.264,29.018,29.018,0,0,0,3.79-.176l1.851-.264Zm14.1-26.043a3.611,3.611,0,1,1-2.556,1.058,3.3,3.3,0,0,1,2.556-1.058m-2.952,14.41a2.49,2.49,0,0,1,.837-2.115,3.682,3.682,0,0,1,2.336-.661,7.051,7.051,0,0,1,1.719.22c.529.176.881.264,1.058.353v25.47h-5.9V226.538Zm11.193,7.535a10.481,10.481,0,0,1,.969-4.627,10.3,10.3,0,0,1,2.644-3.481,11.357,11.357,0,0,1,4.01-2.159,17.514,17.514,0,0,1,10.135,0,11.685,11.685,0,0,1,4.01,2.159,10.175,10.175,0,0,1,2.6,3.481,11.123,11.123,0,0,1,.925,4.627v15.732h-5.9V235.616a7.65,7.65,0,0,0-1.719-5.376,7.8,7.8,0,0,0-10.091,0,7.777,7.777,0,0,0-1.674,5.376v14.189h-5.9ZM56.043,224.6a17.94,17.94,0,0,0-4.01-5.949,18.356,18.356,0,0,0-5.993-3.922,19.062,19.062,0,0,0-7.491-1.41,19.884,19.884,0,0,0-7.491,1.41,18.6,18.6,0,0,0-5.993,3.922,17.94,17.94,0,0,0-4.01,5.949,19.571,19.571,0,0,0,0,14.806,17.94,17.94,0,0,0,4.01,5.949,18.356,18.356,0,0,0,5.993,3.922,19.062,19.062,0,0,0,7.491,1.41,19.884,19.884,0,0,0,7.491-1.41,18.6,18.6,0,0,0,5.993-3.922,17.94,17.94,0,0,0,4.01-5.949,19.571,19.571,0,0,0,0-14.806m-28.863,6.037c2.115-.705,4.935-1.586,4.935-1.586,6.169-1.983,7.007-4.274,7.007-4.274s1.278,2.335,5.773,3.834c0,0,2.468.793,4.759,1.63.132.22.22.441.353.705a13.72,13.72,0,0,1,.837,3H47.67V233.9a3.854,3.854,0,0,0-.969-1.41,4.354,4.354,0,0,0-1.41-.925,4.659,4.659,0,0,0-1.763-.353,4.491,4.491,0,0,0-1.763.353,4.354,4.354,0,0,0-1.41.925,5.343,5.343,0,0,0-.969,1.41,2.483,2.483,0,0,0-.176.529H38.02a2.485,2.485,0,0,0-.176-.529,3.854,3.854,0,0,0-.969-1.41,4.354,4.354,0,0,0-1.41-.925,4.659,4.659,0,0,0-1.763-.353,4.491,4.491,0,0,0-1.763.353,4.354,4.354,0,0,0-1.41.925,5.343,5.343,0,0,0-.969,1.41.043.043,0,0,1-.044.044H26.342a11.17,11.17,0,0,1,.837-3c-.088-.088-.044-.176,0-.308M46.172,235.7a2.836,2.836,0,0,1-.22,1.058,2.189,2.189,0,0,1-.573.837,2.822,2.822,0,0,1-.837.573,2.648,2.648,0,0,1-2.115,0,2.189,2.189,0,0,1-.837-.573,2.822,2.822,0,0,1-.573-.837,2.663,2.663,0,0,1-.22-1.058,3.029,3.029,0,0,1,.22-1.058,2.189,2.189,0,0,1,.573-.837,2.822,2.822,0,0,1,.837-.573,2.649,2.649,0,0,1,2.115,0,2.189,2.189,0,0,1,.837.573,2.822,2.822,0,0,1,.573.837,2.662,2.662,0,0,1,.22,1.058m-9.915,0a2.836,2.836,0,0,1-.22,1.058,2.189,2.189,0,0,1-.573.837,3.532,3.532,0,0,1-.837.573,2.648,2.648,0,0,1-2.115,0,2.189,2.189,0,0,1-.837-.573,2.822,2.822,0,0,1-.573-.837,2.663,2.663,0,0,1-.22-1.058,3.029,3.029,0,0,1,.22-1.058,2.189,2.189,0,0,1,.573-.837,2.823,2.823,0,0,1,.837-.573,2.649,2.649,0,0,1,2.115,0,2.189,2.189,0,0,1,.837.573,2.822,2.822,0,0,1,.573.837,2.662,2.662,0,0,1,.22,1.058m11.1,8.857a12.976,12.976,0,0,1-13.7,2.6,11.959,11.959,0,0,1-3.922-2.6,12.095,12.095,0,0,1-3.613-8.549h3a3.92,3.92,0,0,0,.353,1.454,3.854,3.854,0,0,0,.969,1.41,4.354,4.354,0,0,0,1.41.925,4.659,4.659,0,0,0,1.763.352,4.491,4.491,0,0,0,1.763-.352,4.354,4.354,0,0,0,1.41-.925,5.343,5.343,0,0,0,.969-1.41,4.877,4.877,0,0,0,.308-1.146h.969a3.4,3.4,0,0,0,.308,1.146,3.854,3.854,0,0,0,.969,1.41,4.354,4.354,0,0,0,1.41.925,4.659,4.659,0,0,0,1.763.352,4.491,4.491,0,0,0,1.763-.352,4.354,4.354,0,0,0,1.41-.925,5.342,5.342,0,0,0,.969-1.41,5.025,5.025,0,0,0,.353-1.454h3a12.432,12.432,0,0,1-.925,4.671,11.547,11.547,0,0,1-2.688,3.878" transform="translate(1696.755 585.966)" fill="#f18421"/>
  </g>
</svg>
