<svg xmlns="http://www.w3.org/2000/svg" width="314" height="108" viewBox="0 0 314 108">
  <g id="salesforce" transform="translate(-2392 -131)">
    <rect id="Rectangle_19" data-name="Rectangle 19" width="314" height="108" rx="43" transform="translate(2392 131)" fill="#fff"/>
    <g id="salesforce-2" data-name="salesforce" transform="translate(2491.921 141.244)">
      <path id="Path_125" data-name="Path 125" d="M18.677,16.969a4.743,4.743,0,0,0,.618-2.616,4.71,4.71,0,0,0-.617-2.606,2.079,2.079,0,0,0-1.874-.9,2.052,2.052,0,0,0-1.865.9,4.753,4.753,0,0,0-.608,2.606,4.8,4.8,0,0,0,.608,2.616,2.042,2.042,0,0,0,1.865.914A2.068,2.068,0,0,0,18.677,16.969Z" transform="translate(54.767 26.872)" fill="#00a1e0"/>
      <path id="Path_126" data-name="Path 126" d="M19.959,11.779a3.787,3.787,0,0,0-.527,1.537h4.646a3.223,3.223,0,0,0-.432-1.537,2.021,2.021,0,0,0-1.825-.944A2.073,2.073,0,0,0,19.959,11.779Z" transform="translate(75.722 26.841)" fill="#00a1e0"/>
      <path id="Path_127" data-name="Path 127" d="M9.747,11.779a3.806,3.806,0,0,0-.527,1.537h4.645a3.24,3.24,0,0,0-.431-1.537,2.025,2.025,0,0,0-1.826-.944A2.073,2.073,0,0,0,9.747,11.779Z" transform="translate(33.769 26.841)" fill="#00a1e0"/>
      <path id="Path_128" data-name="Path 128" d="M6.546,14.154a1.318,1.318,0,0,0,.376.386,2.926,2.926,0,0,0,1.91.381,13.19,13.19,0,0,0,1.758-.234V11.726a13.329,13.329,0,0,0-1.767-.151,2.925,2.925,0,0,0-1.889.47,1.426,1.426,0,0,0-.581,1.262A1.575,1.575,0,0,0,6.546,14.154Z" transform="translate(21.988 29.881)" fill="#00a1e0"/>
      <path id="Path_129" data-name="Path 129" d="M62.016,6.761A19.692,19.692,0,0,0,47.765,12.88,21.82,21.82,0,0,0,10.379,34.766a18.991,18.991,0,0,0,9.378,35.368,18.539,18.539,0,0,0,3.855-.4,20.206,20.206,0,0,0,37.562.914,17.712,17.712,0,0,0,23.206-7.289,24.036,24.036,0,0,0,4.773.476,24.44,24.44,0,0,0,0-48.878,23.96,23.96,0,0,0-9.8,2.083A19.9,19.9,0,0,0,62.016,6.761Zm5.317,25.07a5.566,5.566,0,0,1,.644.154.174.174,0,0,1,.12.228l-.5,1.367c-.042.1-.07.164-.283.1-.053-.016-.131-.038-.333-.082a2.715,2.715,0,0,0-.535-.053,2.259,2.259,0,0,0-.7.1,1.364,1.364,0,0,0-.546.339,1.917,1.917,0,0,0-.456.7,8.614,8.614,0,0,0-.334,1.406l-.011.063h2.083c.175,0,.229.08.213.21l-.243,1.354a.22.22,0,0,1-.218.191H64.091l-1.468,8.3a12.392,12.392,0,0,1-.573,2.187,4.3,4.3,0,0,1-.845,1.458,3.02,3.02,0,0,1-1.2.839,4.783,4.783,0,0,1-1.6.248,3.955,3.955,0,0,1-.954-.089,5.256,5.256,0,0,1-.6-.175.2.2,0,0,1-.1-.261c.046-.13.431-1.185.484-1.324a.18.18,0,0,1,.235-.1,1.561,1.561,0,0,0,.352.114,2.906,2.906,0,0,0,.522.058,2.41,2.41,0,0,0,.767-.111,1.206,1.206,0,0,0,.6-.459,3.278,3.278,0,0,0,.455-.927,10.005,10.005,0,0,0,.391-1.605l1.46-8.152H60.572c-.173,0-.229-.082-.211-.21l.242-1.356a.22.22,0,0,1,.218-.189H62.3l.08-.44a5.379,5.379,0,0,1,1.31-2.955,3.73,3.73,0,0,1,2.758-.989A5.1,5.1,0,0,1,67.332,31.832ZM38.69,46.27a.189.189,0,0,0,.187-.2v-13.9a.189.189,0,0,0-.187-.2H36.962a.188.188,0,0,0-.186.2v13.9a.187.187,0,0,0,.186.2Zm-21.381-.941c-.034-.032-.089-.085-.031-.237l.455-1.262a.183.183,0,0,1,.3-.1c.053.032.1.063.15.1.067.043.138.089.231.143a5.451,5.451,0,0,0,2.97.855c1,0,1.623-.531,1.623-1.245v-.038c0-.781-.954-1.074-2.062-1.414l-.248-.076c-1.522-.435-3.147-1.06-3.147-2.986v-.038c0-1.827,1.473-3.1,3.583-3.1l.23,0a6.537,6.537,0,0,1,3.3.887.215.215,0,0,1,.112.259c-.04.112-.424,1.146-.469,1.261-.082.216-.3.072-.3.072a6.647,6.647,0,0,0-2.93-.749c-.893,0-1.47.474-1.47,1.118v.04c0,.752.985,1.072,2.127,1.444l.2.064c1.516.479,3.131,1.142,3.131,2.967v.038c0,1.974-1.431,3.2-3.736,3.2a6.841,6.841,0,0,1-3.36-.786l-.134-.076a4.872,4.872,0,0,1-.508-.312A.125.125,0,0,0,17.309,45.328Zm33.747,0c-.033-.032-.089-.085-.031-.237l.455-1.262a.2.2,0,0,1,.3-.1l.077.05c.09.059.176.115.3.188a5.451,5.451,0,0,0,2.969.855c1,0,1.625-.531,1.625-1.245v-.038c0-.78-.954-1.073-2.061-1.413l-.25-.077c-1.523-.435-3.148-1.06-3.148-2.986v-.038c0-1.827,1.473-3.1,3.583-3.1l.23,0a6.536,6.536,0,0,1,3.3.887.215.215,0,0,1,.112.259c-.04.112-.424,1.146-.469,1.261-.081.216-.3.072-.3.072a6.646,6.646,0,0,0-2.93-.749c-.893,0-1.47.474-1.47,1.118v.04c0,.752.985,1.072,2.126,1.443l.2.065c1.516.479,3.131,1.142,3.131,2.967v.038c0,1.974-1.431,3.2-3.737,3.2a6.842,6.842,0,0,1-3.36-.786l-.135-.076a4.785,4.785,0,0,1-.507-.312l-.009-.01Zm24.056-7.843a4.635,4.635,0,0,1,.876,1.671,7.686,7.686,0,0,1,0,4.137,4.64,4.64,0,0,1-.876,1.671,4.132,4.132,0,0,1-1.478,1.114,5.473,5.473,0,0,1-4.125,0,4.132,4.132,0,0,1-1.478-1.114,4.66,4.66,0,0,1-.877-1.671,7.727,7.727,0,0,1,0-4.137,4.718,4.718,0,0,1,.876-1.671,4.258,4.258,0,0,1,1.479-1.124,5.36,5.36,0,0,1,4.125,0A4.238,4.238,0,0,1,75.112,37.485ZM91.543,44.34a.182.182,0,0,1,.245.117l.472,1.3a.175.175,0,0,1-.079.229,7.826,7.826,0,0,1-2.724.487,4.867,4.867,0,0,1-3.8-1.43,5.539,5.539,0,0,1-1.281-3.831,6.644,6.644,0,0,1,.314-2.071,4.762,4.762,0,0,1,.936-1.671,4.435,4.435,0,0,1,1.55-1.122,5.231,5.231,0,0,1,2.145-.413,9.588,9.588,0,0,1,1.444.1,7.488,7.488,0,0,1,1.284.323.173.173,0,0,1,.119.226c-.12.344-.216.608-.317.885L91.7,37.9c-.072.2-.224.133-.224.133a6.392,6.392,0,0,0-2.033-.292,2.513,2.513,0,0,0-2.136.94,4.082,4.082,0,0,0-.738,2.534,3.674,3.674,0,0,0,.826,2.63,2.93,2.93,0,0,0,2.2.824,6.969,6.969,0,0,0,1.055-.075A4.424,4.424,0,0,0,91.543,44.34Zm9.256-7.07a4.036,4.036,0,0,1,.834,1.524,6.981,6.981,0,0,1,.2,2.778l0,.029a.193.193,0,0,1-.189.17l-6.513-.006A2.665,2.665,0,0,0,98.111,44.7a6.231,6.231,0,0,0,2.546-.432l.127-.048a.187.187,0,0,1,.245.112l.426,1.193c.087.2.018.272-.054.312a6.8,6.8,0,0,1-3.28.651,6.537,6.537,0,0,1-2.364-.383,4.18,4.18,0,0,1-2.582-2.74,6.956,6.956,0,0,1-.3-2.08,7.306,7.306,0,0,1,.287-2.079,4.689,4.689,0,0,1,.882-1.691,4.28,4.28,0,0,1,1.5-1.145,5.086,5.086,0,0,1,2.15-.418,4.763,4.763,0,0,1,1.867.378A3.827,3.827,0,0,1,100.8,37.27Zm-52.166,0a4.043,4.043,0,0,1,.832,1.524,6.979,6.979,0,0,1,.2,2.775l0,.031a.192.192,0,0,1-.189.17l-6.514-.006A2.665,2.665,0,0,0,45.944,44.7a6.232,6.232,0,0,0,2.548-.432l.127-.048a.189.189,0,0,1,.247.112l.424,1.193c.086.2.018.272-.054.312a6.8,6.8,0,0,1-3.28.651,6.541,6.541,0,0,1-2.364-.383,4.18,4.18,0,0,1-2.582-2.74,6.962,6.962,0,0,1-.3-2.08A7.367,7.367,0,0,1,41,39.2a4.7,4.7,0,0,1,.882-1.691,4.28,4.28,0,0,1,1.5-1.145,5.091,5.091,0,0,1,2.15-.418,4.765,4.765,0,0,1,1.867.378A3.827,3.827,0,0,1,48.634,37.27ZM30.485,39.814c.41,0,.752.011,1.017.03,0,0,.514.046,1.074.127V39.7c0-.867-.181-1.279-.536-1.551a2.62,2.62,0,0,0-1.61-.421,6.61,6.61,0,0,0-2.838.661.856.856,0,0,1-.107.053.165.165,0,0,1-.213-.106l-.461-1.239a.2.2,0,0,1,.058-.259,6.293,6.293,0,0,1,2.009-.733,10.712,10.712,0,0,1,1.745-.162,4.431,4.431,0,0,1,2.992.9,3.646,3.646,0,0,1,1.036,2.875l0,5.957a.2.2,0,0,1-.149.213q-.227.062-.456.117c-.218.05-1,.208-1.641.317a11.773,11.773,0,0,1-1.979.164,7.775,7.775,0,0,1-1.724-.176,3.563,3.563,0,0,1-1.327-.575,2.683,2.683,0,0,1-.85-1.018,3.405,3.405,0,0,1-.3-1.487,3.04,3.04,0,0,1,1.292-2.576,4.185,4.185,0,0,1,1.361-.63A6.164,6.164,0,0,1,30.485,39.814Zm53.455-3.56a.175.175,0,0,1,.1.234c-.061.177-.377,1.069-.49,1.367-.041.113-.112.191-.237.176a3.667,3.667,0,0,0-.716-.088,3.133,3.133,0,0,0-.874.123,2,2,0,0,0-.806.483,2.457,2.457,0,0,0-.57.959,5.683,5.683,0,0,0-.217,1.709v4.854a.2.2,0,0,1-.2.2H78.222a.2.2,0,0,1-.2-.2V36.357a.189.189,0,0,1,.187-.2H79.88a.189.189,0,0,1,.187.2v.792a2.962,2.962,0,0,1,1.1-.812,3.25,3.25,0,0,1,1.68-.271A5.7,5.7,0,0,1,83.94,36.254Z" transform="translate(0 0)" fill="#00a1e0" fill-rule="evenodd"/>
    </g>
  </g>
</svg>
