<svg xmlns="http://www.w3.org/2000/svg" width="314" height="108" viewBox="0 0 314 108">
  <g id="samrush" transform="translate(-1668 -448)">
    <rect id="Rectangle_9" data-name="Rectangle 9" width="314" height="108" rx="43" transform="translate(1668 448)" fill="#fff"/>
    <g id="Semrush_Logo_Vector" data-name="Semrush Logo Vector" transform="translate(1450.387 18.575)">
      <g id="Group_80" data-name="Group 80" transform="translate(250.001 466.685)">
        <path id="Path_117" data-name="Path 117" d="M571.582,485.433c0-3.968-2.437-6.844-7.109-6.844h-15.1v20.56h4.965v-7.021h5.873l5.757,7.019h5.594v-.453l-5.594-6.683A6.566,6.566,0,0,0,571.582,485.433Zm-7.665,2.543h-9.576v-5.128h9.576c1.77,0,2.909.943,2.909,2.572C566.823,487.074,565.726,487.976,563.917,487.976Z" transform="translate(-404.345 -472.822)"/>
        <path id="Path_118" data-name="Path 118" d="M726.4,478.589h-4.643v7.8h-12.51v-7.8h-5.023v20.56h5.023v-8.1h12.51v8.1H726.4Z" transform="translate(-484.176 -472.822)"/>
        <path id="Path_119" data-name="Path 119" d="M500.437,478.589l-5.521,17.3h-.3l-5.551-17.3h-8.84v20.56h4.728V482.26h.295l5.521,16.889h7.616l5.552-16.889h.293v16.889H509.1v-20.56h-8.664Z" transform="translate(-368.692 -472.822)"/>
        <path id="Path_120" data-name="Path 120" d="M395.2,486.386c-1.754-.183-5.025-.482-6.779-.663-1.726-.177-2.724-.689-2.724-1.829,0-1.093,1.059-2.016,5.332-2.016a23.56,23.56,0,0,1,10.287,2.273v-4.6a23.675,23.675,0,0,0-10.543-2.157c-5.848,0-9.9,2.445-9.9,6.58,0,3.5,2.376,5.411,7.143,5.931,1.726.189,4.659.447,6.706.616,2.23.185,2.893.866,2.893,1.882,0,1.394-1.563,2.26-5.523,2.26a21.365,21.365,0,0,1-11.013-3.161v4.734a20.563,20.563,0,0,0,10.865,2.882c6.389,0,10.488-2.463,10.488-6.874C402.431,488.925,400.242,486.911,395.2,486.386Z" transform="translate(-317.472 -472.206)"/>
        <path id="Path_121" data-name="Path 121" d="M432.084,478.589v20.56h19.178v-4.2h-14.45v-4.171h14.2v-4.169h-14.2v-3.819h14.45v-4.2H432.084Z" transform="translate(-343.874 -472.822)"/>
        <path id="Path_122" data-name="Path 122" d="M667.8,486.386c-1.754-.183-5.024-.482-6.778-.663-1.726-.177-2.724-.689-2.724-1.829,0-1.093,1.059-2.016,5.332-2.016a23.557,23.557,0,0,1,10.287,2.273v-4.6a23.715,23.715,0,0,0-10.544-2.157c-5.847,0-9.9,2.445-9.9,6.58,0,3.5,2.376,5.411,7.144,5.932,1.726.189,4.658.447,6.705.616,2.23.185,2.893.866,2.893,1.882,0,1.394-1.563,2.26-5.522,2.26a21.366,21.366,0,0,1-11.013-3.161v4.734a20.559,20.559,0,0,0,10.864,2.882c6.389,0,10.488-2.463,10.488-6.874C675.034,488.925,672.848,486.91,667.8,486.386Z" transform="translate(-458.013 -472.206)"/>
        <path id="Path_123" data-name="Path 123" d="M618.1,478.588v10.525c0,3.988-2.422,6.177-6.065,6.177-3.664,0-6.066-2.157-6.066-6.238V478.588H601.03v10c0,7.466,4.664,11.151,11.072,11.151,6.165,0,10.925-3.541,10.925-10.907V478.588H618.1Z" transform="translate(-430.975 -472.821)"/>
        <path id="Path_124" data-name="Path 124" d="M296.394,482.613c0,1-.5,1.156-1.775,1.156-1.35,0-1.581-.232-1.736-1.234a5.315,5.315,0,0,0-4.936-5.013c-.925-.077-1.156-.425-1.156-1.581,0-1.079.155-1.581,1-1.581A8.464,8.464,0,0,1,296.394,482.613Zm7.405,0c0-7.751-5.244-15.928-17.355-15.928H262.372c-.486,0-.787.254-.787.7a.814.814,0,0,0,.345.588,23.552,23.552,0,0,0,3.891,2.317c1.671.835,2.962,1.378,4.273,1.911.541.219.756.459.756.78,0,.419-.295.685-.9.685H250.839a.751.751,0,0,0-.838.732,1.14,1.14,0,0,0,.376.84,40.481,40.481,0,0,0,7.62,5.824,111.912,111.912,0,0,0,10.157,5.592c.52.25.7.539.689.838-.014.345-.287.638-.888.638H259.2c-.5,0-.775.262-.775.665a1.143,1.143,0,0,0,.417.724,34.419,34.419,0,0,0,9.422,5.59,44.669,44.669,0,0,0,17.9,3.86C298.421,498.964,303.8,489.786,303.8,482.613ZM287.794,493.6a10.914,10.914,0,1,1,0-21.827,10.914,10.914,0,1,1,0,21.827Z" transform="translate(-250.001 -466.685)" fill="#ff642d"/>
      </g>
    </g>
  </g>
</svg>
