<svg xmlns="http://www.w3.org/2000/svg" width="314" height="108" viewBox="0 0 314 108">
  <g id="taboola" transform="translate(-1664 -607)">
    <rect id="Rectangle_10" data-name="Rectangle 10" width="314" height="108" rx="43" transform="translate(1664 607)" fill="#fff"/>
    <g id="Group_82" data-name="Group 82" transform="translate(2894.029 -1411.112)">
      <path id="Path_145" data-name="Path 145" d="M-771.775,2072.615c-.5.655-.947,1.328-1.474,1.935a12.605,12.605,0,0,1-6.911,4.029,18.967,18.967,0,0,1-10.132-.325,12.434,12.434,0,0,1-8.706-9.346,16.145,16.145,0,0,1,.506-9.846,12.44,12.44,0,0,1,8.948-7.938,18.053,18.053,0,0,1,4.169-.567,18.7,18.7,0,0,1,6.595.89,12.449,12.449,0,0,1,6.883,5.428c.023.038.05.074.085.127a.726.726,0,0,0,.091-.1,12.52,12.52,0,0,1,8.269-5.858,18.77,18.77,0,0,1,10.493.439,12.418,12.418,0,0,1,8.462,9.659,16.142,16.142,0,0,1-.682,9.55,12.483,12.483,0,0,1-8.958,7.824,19.619,19.619,0,0,1-7.023.446,15.283,15.283,0,0,1-5.778-1.7,12.226,12.226,0,0,1-4.685-4.407C-771.675,2072.766-771.73,2072.683-771.775,2072.615Zm8.375-7.4c.026.366.056,1.055.133,1.74a8.8,8.8,0,0,0,.26,1.305,3.891,3.891,0,0,0,3.566,3.264,3.912,3.912,0,0,0,3.283-.976,4.369,4.369,0,0,0,1.216-2.093,14.363,14.363,0,0,0,.115-7,4.42,4.42,0,0,0-1.335-2.416,4.2,4.2,0,0,0-3.732-.867,3.724,3.724,0,0,0-2.9,2.594A12.727,12.727,0,0,0-763.4,2065.21Zm-16.782-.5c-.05-.7-.086-1.394-.156-2.088a7.786,7.786,0,0,0-.213-1.121c-.476-1.866-1.526-3.174-3.491-3.388a3.9,3.9,0,0,0-4.414,2.448,8.67,8.67,0,0,0-.617,2.83,15.488,15.488,0,0,0,.239,4.549,4.892,4.892,0,0,0,1.346,2.594,4.124,4.124,0,0,0,3.711.933,3.745,3.745,0,0,0,2.952-2.605A12.584,12.584,0,0,0-780.182,2064.711Z" transform="translate(-280.569 -0.051)" fill="#064164"/>
      <path id="Path_146" data-name="Path 146" d="M-917.478,2085.129v2.862h-9.783v-37.554h10.306v13.477a1.26,1.26,0,0,0,.171-.151,8.443,8.443,0,0,1,5.9-3.38,11.6,11.6,0,0,1,6.731,1.039,9.758,9.758,0,0,1,4.422,4.467,16.45,16.45,0,0,1,1.653,5.77,20.746,20.746,0,0,1,.047,4.7,15.99,15.99,0,0,1-3.631,8.959,9.649,9.649,0,0,1-6.419,3.429,12.405,12.405,0,0,1-5.529-.571,7.28,7.28,0,0,1-3.408-2.608c-.12-.159-.246-.315-.37-.472Zm9.179-10.857a11.105,11.105,0,0,0-.288-2.739,5.153,5.153,0,0,0-1.414-2.709,4.166,4.166,0,0,0-3.759-.95,3.883,3.883,0,0,0-3.019,2.652,10.5,10.5,0,0,0-.637,3.706,11.615,11.615,0,0,0,.531,4.078,4.094,4.094,0,0,0,5.109,2.831,3.814,3.814,0,0,0,2.808-2.53A11.07,11.07,0,0,0-908.3,2074.272Z" transform="translate(-181.841)" fill="#064164"/>
      <path id="Path_147" data-name="Path 147" d="M-1140.6,2088.15h-11.453v-.345q0-4.29,0-8.58,0-9.329-.012-18.658c0-.386,0-.386-.377-.386h-10.065v-9.548h.339q15.853,0,31.706-.006c.271,0,.352.06.35.343q-.017,4.44,0,8.88c0,.257-.061.337-.328.337q-4.889-.014-9.779-.006h-.38Z" transform="translate(0 -0.146)" fill="#064164"/>
      <path id="Path_148" data-name="Path 148" d="M-491.675,2101.361h-9.653c.08-.574.127-1.114.232-1.641a7.856,7.856,0,0,1,5.422-6.037,18.286,18.286,0,0,1,4.53-.987,37.262,37.262,0,0,1,5.276-.136,21.378,21.378,0,0,1,6.315,1.01,7.577,7.577,0,0,1,3.549,2.323,6.616,6.616,0,0,1,1.388,3.436,22.228,22.228,0,0,1,.169,2.6c.017,4.177,0,8.354.012,12.531,0,1.088.032,2.177.1,3.263a5.987,5.987,0,0,0,.83,2.706.536.536,0,0,1,.03.1c-.1.006-.184.016-.27.016q-4.9,0-9.807.006c-.233,0-.35-.061-.381-.3-.093-.717-.2-1.434-.292-2.151a2.428,2.428,0,0,1,0-.278,1.019,1.019,0,0,0-.184.117,9.084,9.084,0,0,1-5.156,2.776,15.5,15.5,0,0,1-7.224-.189,7.946,7.946,0,0,1-4.346-2.826,7.5,7.5,0,0,1-1.458-4.122,8.687,8.687,0,0,1,.54-3.929,7.22,7.22,0,0,1,3.852-3.811,17.123,17.123,0,0,1,4.711-1.365c1.836-.286,3.683-.5,5.521-.779a13.835,13.835,0,0,0,2.115-.484,1.983,1.983,0,0,0,1.486-1.989,2.192,2.192,0,0,0-1.272-2.114,4.972,4.972,0,0,0-2.674-.458,4.838,4.838,0,0,0-1.916.464,2.544,2.544,0,0,0-1.417,2.061C-491.655,2101.243-491.666,2101.3-491.675,2101.361Zm7.259,6.873a1.03,1.03,0,0,0-.147.04,18.968,18.968,0,0,1-3.941,1.211,8.267,8.267,0,0,0-2.482.858,2.323,2.323,0,0,0-.4,3.563,3.752,3.752,0,0,0,2.936,1.031,4,4,0,0,0,3.838-3.061,10.139,10.139,0,0,0,.192-2.624C-484.414,2108.919-484.416,2108.587-484.416,2108.234Z" transform="translate(-510.075 -32.534)" fill="#064164"/>
      <path id="Path_149" data-name="Path 149" d="M-1047.011,2101.77h-9.61a9.891,9.891,0,0,1,.4-2.443,7.8,7.8,0,0,1,4.766-5.04,14.458,14.458,0,0,1,4.229-1.07c1.515-.148,3.039-.253,4.56-.262a25.759,25.759,0,0,1,6.8.734,11.216,11.216,0,0,1,2.6,1.021,6.367,6.367,0,0,1,3.273,4.664,20.577,20.577,0,0,1,.227,3.879c-.007.917-.008,1.834-.011,2.751q-.007,2.234-.013,4.467c-.007,1.9-.043,3.794-.015,5.691a9.558,9.558,0,0,0,.828,4.073c.1.211.219.415.355.67-.159,0-.29,0-.421,0-1.679-.014-3.358-.031-5.037-.042-1.389-.008-2.778-.008-4.167-.014-.145,0-.289-.019-.434-.022-.536-.013-.561-.008-.651-.539-.094-.552-.135-1.114-.2-1.671-.011-.1,0-.21,0-.372a1.177,1.177,0,0,0-.194.124,9.192,9.192,0,0,1-5.236,2.792,15.641,15.641,0,0,1-6.907-.137,8.057,8.057,0,0,1-4.618-2.931,7.235,7.235,0,0,1-1.366-3.481,9.262,9.262,0,0,1,.29-4.012,6.928,6.928,0,0,1,3.616-4.119,15.5,15.5,0,0,1,4.749-1.5c1.8-.295,3.609-.5,5.41-.778a20.785,20.785,0,0,0,2.473-.5,1.986,1.986,0,0,0,1.581-1.68,2.324,2.324,0,0,0-1.8-2.713,5.828,5.828,0,0,0-3.588.064,2.534,2.534,0,0,0-1.839,2.18C-1046.978,2101.625-1047,2101.7-1047.011,2101.77Zm7.274,6.9a.48.48,0,0,0-.122.008,19.587,19.587,0,0,1-4.174,1.276,8.241,8.241,0,0,0-2.2.759,2.319,2.319,0,0,0-.529,3.562,3.455,3.455,0,0,0,2.232,1.064,4.089,4.089,0,0,0,4.571-2.967A15.816,15.816,0,0,0-1039.737,2108.674Z" transform="translate(-80.82 -32.865)" fill="#064164"/>
      <path id="Path_150" data-name="Path 150" d="M-782.421,2176.452c.447.191.827.357,1.209.517a54.006,54.006,0,0,0,12.181,3.478,53.627,53.627,0,0,0,6.164.671c1.377.064,2.756.133,4.134.138a55.117,55.117,0,0,0,16.957-2.568c2.064-.653,4.1-1.4,6.144-2.108.093-.032.185-.066.33-.118,0,.352,0,.673,0,.993-.005.971-.014,1.943-.017,2.915-.006,1.516-.023,3.033,0,4.549a.8.8,0,0,1-.538.856,55.69,55.69,0,0,1-14.174,4.626,48.955,48.955,0,0,1-6.674.742,55.777,55.777,0,0,1-7.479-.192,46.212,46.212,0,0,1-12.751-3.074c-1.786-.706-3.533-1.51-5.3-2.262a.319.319,0,0,1-.216-.352q.022-3.868.033-7.736C-782.419,2177.187-782.421,2176.845-782.421,2176.452Z" transform="translate(-293.772 -97.405)" fill="#064164"/>
      <path id="Path_151" data-name="Path 151" d="M-540.352,2088.161h-.317c-3.16,0-6.32,0-9.48.006-.27,0-.35-.059-.35-.343q.012-18.428,0-36.856c0-.25.046-.344.323-.343,3.178.01,6.356.006,9.534.006h.288Z" transform="translate(-473.066 -0.145)" fill="#064164"/>
    </g>
  </g>
</svg>
