<svg xmlns="http://www.w3.org/2000/svg" width="314" height="108" viewBox="0 0 314 108">
  <g id="twitter" transform="translate(-2807 -283)">
    <rect id="Rectangle_25" data-name="Rectangle 25" width="314" height="108" rx="43" transform="translate(2807 283)" fill="#fff"/>
    <path id="twitter-6_1_" data-name="twitter-6 (1)" d="M26.594,68.75c31.912,0,49.364-26.448,49.364-49.382q0-1.127-.049-2.243a35.287,35.287,0,0,0,8.654-8.987A34.576,34.576,0,0,1,74.6,10.87a17.417,17.417,0,0,0,7.629-9.6A34.791,34.791,0,0,1,71.212,5.484,17.366,17.366,0,0,0,41.648,21.311,49.258,49.258,0,0,1,5.885,3.177a17.375,17.375,0,0,0,5.371,23.17A17.217,17.217,0,0,1,3.4,24.177c0,.073,0,.144,0,.222A17.359,17.359,0,0,0,17.315,41.412a17.32,17.32,0,0,1-7.835.3A17.368,17.368,0,0,0,25.687,53.764,34.8,34.8,0,0,1,4.138,61.193,35.218,35.218,0,0,1,0,60.953a49.1,49.1,0,0,0,26.595,7.8" transform="translate(2922 303)" fill="#1da1f2"/>
  </g>
</svg>
