<svg xmlns="http://www.w3.org/2000/svg" width="93.032" height="92.961" viewBox="0 0 93.032 92.961">
  <g id="Group_4325" data-name="Group 4325" transform="translate(-58.5 -59.35)">
    <path id="Path_14367" data-name="Path 14367" d="M58.5,125.882c.139-.613.267-1.229.417-1.838a14.515,14.515,0,0,1,13.872-11.038c9.146-.058,18.292-.026,27.438-.015a3.583,3.583,0,0,1,3.869,3.673c-.024,2.152-1.587,3.587-3.944,3.588-8.964.005-17.929-.009-26.893.008a7.246,7.246,0,0,0-7.411,6.265,9.13,9.13,0,0,0-.076,1.448q-.006,17.762,0,35.524a7.259,7.259,0,0,0,7.644,7.64q31.617,0,63.235,0a7.266,7.266,0,0,0,7.627-7.659c.005-2.453-.027-4.907.01-7.359a3.594,3.594,0,0,1,4.832-3.471,3.111,3.111,0,0,1,2.351,2.936c.018,3.776.26,7.621-.347,11.313a14.1,14.1,0,0,1-14.041,11.5c-9.085.022-18.171.006-27.256.006h-1.117v7.256h.96c3.876,0,7.753-.011,11.629.009a3.609,3.609,0,0,1,2.877,5.9,9.207,9.207,0,0,1-2.068,1.367H87.94a9.231,9.231,0,0,1-2.069-1.366,3.607,3.607,0,0,1,2.865-5.9c3.873-.022,7.746-.009,11.619-.01h.96v-7.256h-1.156c-9.078,0-18.155.017-27.233-.006A14.542,14.542,0,0,1,58.91,167.34c-.149-.611-.274-1.227-.41-1.841Z" transform="translate(0 -40.629)" fill="#fff"/>
    <path id="Path_14369" data-name="Path 14369" d="M252.985,71.63h1.18q14.169,0,28.338,0c3.192,0,4.733,1.864,4.087,4.985-.821,3.967-1.629,7.938-2.523,11.888a10.836,10.836,0,0,1-10.751,8.566q-6.676.023-13.352,0a10.806,10.806,0,0,1-10.795-8.726q-1.9-8.682-3.782-17.369c-.619-2.848-2.166-4.213-5.04-4.44a3.645,3.645,0,0,1-3.338-3.28,3.417,3.417,0,0,1,2.779-3.794,8.612,8.612,0,0,1,3.308.111c5.4,1.331,8.373,4.98,9.5,10.292C252.721,70.422,252.844,70.981,252.985,71.63Zm25.7,7.319h-24.11c.52,2.426,1.024,4.788,1.535,7.148a10.458,10.458,0,0,0,.339,1.316,3.53,3.53,0,0,0,3.326,2.38q6.86.029,13.72,0a3.383,3.383,0,0,0,3.348-2.461C277.535,84.583,278.069,81.792,278.685,78.949Z" transform="translate(-135.244)" fill="#dd1928"/>
    <path id="Path_14370" data-name="Path 14370" d="M317.88,237.315a3.63,3.63,0,1,1,3.63-3.613A3.57,3.57,0,0,1,317.88,237.315Z" transform="translate(-193.788 -129.341)" fill="#dd1928"/>
    <path id="Path_14371" data-name="Path 14371" d="M382.259,233.727a3.571,3.571,0,0,1-3.655,3.588,3.63,3.63,0,1,1,3.655-3.588Z" transform="translate(-239.817 -129.341)" fill="#dd1928"/>
  </g>
</svg>
