<svg xmlns="http://www.w3.org/2000/svg" width="101.986" height="87.74" viewBox="0 0 101.986 87.74">
  <g id="Group_4187" data-name="Group 4187" transform="translate(-4.904 -119.427)">
    <path id="Path_14372" data-name="Path 14372" d="M14.4,219.322v-1.55q0-23.114,0-46.227c0-3.236,1.262-4.488,4.518-4.489,1.63,0,3.26-.015,4.889,0a3.643,3.643,0,0,1,3.833,3.613,3.6,3.6,0,0,1-3.813,3.494c-.73.009-1.46,0-2.25,0v45.093c.45.021.878.057,1.305.057q9,.005,18,0c2.79,0,3.824.909,4.407,3.63.094.439.707.812,1.15,1.112.2.139.577.036.873.036q8.612,0,17.224,0c1.682,0,1.805-.106,2.074-1.724a3.631,3.631,0,0,1,3.907-3.049q9.168-.02,18.335-.005h1.384V174.169c-.753,0-1.51.008-2.267,0a3.558,3.558,0,1,1-.05-7.1q2.889-.044,5.778,0a3.6,3.6,0,0,1,3.717,3.617c.02.369.008.741.008,1.111q0,22.947,0,45.894v1.636h2.99c.963,0,1.928-.034,2.889.012a3.5,3.5,0,0,1,3.556,3.626c.033,2.444.057,4.891-.016,7.333a10.569,10.569,0,0,1-10.387,10.354c-.3.01-.592.014-.889.014q-39.671,0-79.342.008c-4.665,0-8.186-1.924-10.205-6.141A13.073,13.073,0,0,1,5,229.926c-.167-2.247-.06-4.516-.04-6.775a3.538,3.538,0,0,1,3.809-3.824C10.578,219.3,12.391,219.322,14.4,219.322Zm85.288,7.192a6.843,6.843,0,0,0-.7-.075c-8.445,0-16.889-.012-25.334.025a1.568,1.568,0,0,0-1.092.663,8.269,8.269,0,0,1-7.221,4.07q-9.444.072-18.889,0a7.957,7.957,0,0,1-7.044-3.933,1.6,1.6,0,0,0-1.6-.842q-12.222.031-24.445.013H12.123a26.382,26.382,0,0,0,.061,4.22A3.556,3.556,0,0,0,13.56,232.8a5.067,5.067,0,0,0,2.7.721q39.667.054,79.335.027A9.343,9.343,0,0,0,96.7,233.5a3.354,3.354,0,0,0,2.955-2.759A41.645,41.645,0,0,0,99.686,226.514Z" transform="translate(0 -33.502)" fill="#fff"/>
    <path id="Path_14373" data-name="Path 14373" d="M117.88,169.2a24.888,24.888,0,1,1,24.914-24.847A24.914,24.914,0,0,1,117.88,169.2Zm.046-7.113a17.775,17.775,0,1,0-17.809-17.67A17.793,17.793,0,0,0,117.925,162.089Z" transform="translate(-61.988 0)" fill="#dd1928"/>
    <path id="Path_14374" data-name="Path 14374" d="M157.478,303.484c1.516,0,3.033-.02,4.549,0a3.55,3.55,0,1,1-.008,7.1q-4.66.04-9.32,0a3.55,3.55,0,1,1,.008-7.1C154.3,303.464,155.887,303.484,157.478,303.484Z" transform="translate(-101.454 -129.5)" fill="#dd1928"/>
    <path id="Path_14375" data-name="Path 14375" d="M163.317,182.459a8.687,8.687,0,0,1,1.11.4c2.484,1.223,4.952,2.478,7.438,3.7a2.184,2.184,0,0,1-.043,4.218c-2.454,1.2-4.887,2.442-7.336,3.653-2.021,1-3.429.124-3.438-2.136-.01-2.551-.019-5.1.008-7.651A2.064,2.064,0,0,1,163.317,182.459Z" transform="translate(-109.858 -44.351)" fill="#dd1928"/>
  </g>
</svg>
