<svg xmlns="http://www.w3.org/2000/svg" width="62.396" height="62.458" viewBox="0 0 62.396 62.458">
  <g id="Group_41753" data-name="Group 41753" transform="translate(-1210 -3814.172)">
    <g id="Group_41752" data-name="Group 41752" transform="translate(1176.25 3749.555)">
      <path id="Path_12422" data-name="Path 12422" d="M46.791,112.434l16.081.017c.67,0,1.34-.007,2.01,0a2.42,2.42,0,0,1,2.5,2.5c.013,2.234.019,4.467-.009,6.7-.006.464.121.565.569.56,2.172-.025,4.345-.013,6.518-.011a2.442,2.442,0,0,1,.819,4.8.4.4,0,0,0-.095.073H54.711A2.388,2.388,0,0,1,52.6,124.5a2.553,2.553,0,0,1,2.545-2.458c1.622-.059,3.247-.012,4.87-.018.589,0,1.177,0,1.766,0,.379,0,.552-.17.552-.554q0-1.7,0-3.41c0-.385-.173-.558-.552-.551-.2,0-.406,0-.609,0q-7.671,0-15.343,0a12.475,12.475,0,0,1-11.711-8.7c-.22-.724-.217-1.475-.367-2.205V75.4a11.507,11.507,0,0,1,.728-3.178,12.309,12.309,0,0,1,8.467-7.347,9.384,9.384,0,0,1,2.474-.254q19.406-.007,38.812,0c4.663.005,8.076,2.206,10.45,6.131a9.89,9.89,0,0,1,1.465,4.77V106.6a4.609,4.609,0,0,0-.326,1.325,12.182,12.182,0,0,1-11.836,9.4c-3.046.018-6.092.007-9.137,0a2.441,2.441,0,1,1,.019-4.871c2.964,0,5.929,0,8.894,0a7.315,7.315,0,0,0,7.51-7.5q.007-13.949,0-27.9a7.309,7.309,0,0,0-7.5-7.5q-18.153,0-36.305,0c-.182,0-.364.014-.547.022a1.909,1.909,0,0,1-.888.159,7.142,7.142,0,0,0-7.22,7.3q0,13.941,0,27.881a7.142,7.142,0,0,0,7.157,7.358A2.084,2.084,0,0,1,46.791,112.434Z" transform="translate(0 0)" fill="#fff"/>
    </g>
    <path id="Path_43531" data-name="Path 43531" d="M158.922,176A13.4,13.4,0,1,0,172.3,189.4,13.421,13.421,0,0,0,158.922,176Zm-1.856,11.22a18.78,18.78,0,0,1,1.433-6.534c.059-.13.137-.251.2-.38.131-.267.249-.29.406-.009a9.6,9.6,0,0,1,.776,1.892,22.489,22.489,0,0,1,.855,4.926c.022.292-.041.393-.348.376-.492-.026-.987-.007-1.481-.007-.526,0-1.052-.007-1.577,0C157.128,187.494,157.051,187.439,157.067,187.221Zm-2.827-6.181c-.237.954-.471,1.823-.617,2.712a25.693,25.693,0,0,0-.372,3.319c-.011.327-.111.429-.444.423-1.082-.021-2.164-.008-3.286-.008A9.7,9.7,0,0,1,154.24,181.04Zm-4.723,10.275c1.19,0,2.32,0,3.45,0,.179,0,.259.059.268.243a26.566,26.566,0,0,0,1.023,6.213A9.749,9.749,0,0,1,149.517,191.315Zm11.223.274a18.426,18.426,0,0,1-1.5,6.66c-.08.168-.144.436-.316.442-.216.007-.272-.275-.358-.45a16.506,16.506,0,0,1-1.38-5.33c-.053-.426-.062-.858-.116-1.284-.033-.263.064-.326.31-.318.509.016,1.019,0,1.529,0s1.019.006,1.529,0C160.639,191.309,160.76,191.327,160.74,191.589Zm7.465-4.439c.071.277.029.348-.263.343-1-.016-2.008-.007-3.012-.005-.179,0-.347.024-.36-.246a26.928,26.928,0,0,0-1.018-6.214A9.691,9.691,0,0,1,168.2,187.15Zm-4.637,10.612c.235-.956.47-1.826.616-2.716a25.779,25.779,0,0,0,.371-3.319c.011-.332.119-.425.447-.419,1.081.02,2.163.008,3.283.008A9.714,9.714,0,0,1,163.568,197.762Z" transform="translate(1082.495 3651.302)" fill="#dd1928"/>
  </g>
</svg>
