<svg xmlns="http://www.w3.org/2000/svg" xmlns:xlink="http://www.w3.org/1999/xlink" width="585" height="608" viewBox="0 0 585 608">
  <defs>
    <linearGradient id="linear-gradient" x1="1.453" y1="0.034" x2="-0.327" y2="0.753" gradientUnits="objectBoundingBox">
      <stop offset="0" stop-color="#fff"/>
      <stop offset="1" stop-color="#fff" stop-opacity="0"/>
    </linearGradient>
    <linearGradient id="linear-gradient-2" x1="1.926" y1="0.005" x2="0.146" y2="0.724" xlink:href="#linear-gradient"/>
    <linearGradient id="linear-gradient-4" x1="1.926" y1="0.005" x2="0.146" y2="0.724" gradientUnits="objectBoundingBox">
      <stop offset="0" stop-color="#fff"/>
      <stop offset="0.891" stop-color="#fff" stop-opacity="0.412"/>
      <stop offset="1" stop-color="#fff" stop-opacity="0.051"/>
    </linearGradient>
    <linearGradient id="linear-gradient-5" x1="1.018" y1="0.198" x2="0.064" y2="0.755" xlink:href="#linear-gradient"/>
    <linearGradient id="linear-gradient-6" x1="0.343" y1="0.005" x2="0.648" y2="0.966" xlink:href="#linear-gradient"/>
    <linearGradient id="linear-gradient-8" x1="0.343" y1="0.006" x2="0.648" y2="0.966" xlink:href="#linear-gradient"/>
    <linearGradient id="linear-gradient-9" x1="0.782" y1="0.313" x2="0.265" y2="0.656" xlink:href="#linear-gradient"/>
  </defs>
  <g id="php_tech" transform="translate(-772 -2733)">
    <g id="nodejs-code" transform="translate(52 8)">
      <g id="Illustration" transform="translate(719.2 2724.037)">
        <path id="Path" d="M93.592,270.031q-12.873-7.5-18.651-.405c-3.852,4.663-5.744,12.569-5.744,23.719v60.074c0,11.42-1.081,20.881-3.176,28.382-2.095,7.771-5.676,13.312-10.609,16.556-4.8,3.311-11.285,4.19-19.529,2.635q-12.062-2.23-30.139-12.637L0,385.044v-47.3l7.163,4.122c8.582,5,14.326,5.609,17.232,1.96,3.041-3.514,4.6-10.88,4.6-22.03V268.882c0-13.785,1.352-24.665,4.055-32.706s8.041-13.11,16.083-15.407q-12.062-17.333-16.083-33.923a157.879,157.879,0,0,1-3.987-37.3V96.633c0-11.15-1.554-20.205-4.6-27.3-2.838-6.96-8.582-12.907-17.232-17.907L.068,47.3V0L5.811,3.311Q23.854,13.752,35.95,25.476A103.1,103.1,0,0,1,55.479,50.681,100.284,100.284,0,0,1,66.089,79.468,155.535,155.535,0,0,1,69.265,111.5v60.074a76.853,76.853,0,0,0,5.744,30.341A42.983,42.983,0,0,0,93.659,223Z" transform="translate(492.141 36.735)" opacity="0.07" fill="url(#linear-gradient)"/>
        <path id="Path-2" data-name="Path" d="M.068,131.8q12.873,7.5,18.651.405c3.852-4.663,5.744-12.569,5.744-23.719V48.409c0-11.42,1.081-20.881,3.176-28.382,2.095-7.771,5.541-13.38,10.339-16.691C42.978.093,49.465-.786,57.507.7Q69.873,3.032,87.915,13.473l5.744,3.311v47.3L86.5,59.964c-8.582-5-14.461-5.676-17.5-2.162-2.838,3.649-4.325,11.015-4.325,22.165v52.911c0,13.785-1.352,24.665-4.055,32.706-2.7,7.974-8.041,13.11-16.083,15.407q12.062,17.333,16.083,33.923a157.879,157.879,0,0,1,3.987,37.3v52.911c0,11.15,1.419,20.2,4.325,27.165,3.041,7.1,8.92,13.11,17.5,18.043l7.163,4.122v47.3l-5.744-3.311a158.134,158.134,0,0,1-30.409-22.3A109.591,109.591,0,0,1,37.91,350.943a102.823,102.823,0,0,1-10.339-28.652,155.535,155.535,0,0,1-3.176-32.031V230.186a76.852,76.852,0,0,0-5.744-30.341A42.983,42.983,0,0,0,0,178.762Z" transform="translate(339.137 0.963)" opacity="0.07" fill="url(#linear-gradient-2)"/>
        <path id="Path-3" data-name="Path" d="M93.592,270.031q-12.873-7.5-18.651-.405c-3.852,4.663-5.744,12.569-5.744,23.719v60.074c0,11.42-1.081,20.881-3.176,28.382-2.095,7.771-5.676,13.312-10.609,16.556-4.8,3.311-11.285,4.19-19.529,2.635q-12.062-2.23-30.139-12.637L0,385.044v-47.3l7.163,4.122c8.582,5,14.326,5.609,17.232,1.96,3.041-3.514,4.6-10.88,4.6-22.03V268.882c0-13.785,1.352-24.665,4.055-32.706s8.041-13.11,16.083-15.407q-12.062-17.333-16.083-33.923a157.879,157.879,0,0,1-3.987-37.3V96.633c0-11.15-1.554-20.205-4.6-27.3-2.838-6.96-8.582-12.907-17.232-17.907L.068,47.3V0L5.811,3.311Q23.854,13.752,35.95,25.476A103.1,103.1,0,0,1,55.479,50.681,100.284,100.284,0,0,1,66.089,79.468,155.535,155.535,0,0,1,69.265,111.5v60.074a76.853,76.853,0,0,0,5.744,30.341A42.983,42.983,0,0,0,93.659,223Z" transform="translate(465.111 57.008)" fill="url(#linear-gradient)"/>
        <path id="Path-4" data-name="Path" d="M.068,131.8q12.873,7.5,18.651.405c3.852-4.663,5.744-12.569,5.744-23.719V48.409c0-11.42,1.081-20.881,3.176-28.382,2.095-7.771,5.541-13.38,10.339-16.691C42.978.093,49.465-.786,57.507.7Q69.873,3.032,87.915,13.473l5.744,3.311v47.3L86.5,59.964c-8.582-5-14.461-5.676-17.5-2.162-2.838,3.649-4.325,11.015-4.325,22.165v52.911c0,13.785-1.352,24.665-4.055,32.706-2.7,7.974-8.041,13.11-16.083,15.407q12.062,17.333,16.083,33.923a157.879,157.879,0,0,1,3.987,37.3v52.911c0,11.15,1.419,20.2,4.325,27.165,3.041,7.1,8.92,13.11,17.5,18.043l7.163,4.122v47.3l-5.744-3.311a158.134,158.134,0,0,1-30.409-22.3A109.591,109.591,0,0,1,37.91,350.943a102.823,102.823,0,0,1-10.339-28.652,155.535,155.535,0,0,1-3.176-32.031V230.186a76.852,76.852,0,0,0-5.744-30.341A42.983,42.983,0,0,0,0,178.762Z" transform="translate(305.893 21.235)" fill="url(#linear-gradient-4)"/>
        <path id="Path-5" data-name="Path" d="M.068,0,115.554,66.7l-.068,276.586L0,276.586Z" transform="translate(122.698 9.232)" opacity="0.79" fill="url(#linear-gradient-5)"/>
        <path id="Path-6" data-name="Path" d="M0,0,91.835,53.047V78.522L0,25.476Z" transform="translate(94.716 51.737)" fill="#585858" opacity="0.73"/>
        <path id="Path-7" data-name="Path" d="M0,0,88.253,50.952v39.6L0,39.6Z" transform="translate(138.665 162.29)" fill="#585858" opacity="0.73"/>
        <path id="Path-8" data-name="Path" d="M0,0,88.388,51.019v9.19L0,9.258Z" transform="translate(138.591 114.379)" fill="#585858" opacity="0.73"/>
        <path id="Path-9" data-name="Path" d="M0,0,76.428,44.127v9.19L0,9.19Z" transform="translate(137.86 132.354)" fill="#585858" opacity="0.73"/>
        <path id="Path-10" data-name="Path" d="M0,0,115.486,66.7v37.1L0,37.1Z" transform="translate(122.778 9.232)" opacity="0.2" fill="url(#linear-gradient-6)"/>
        <path id="Path-11" data-name="Path" d="M14.664,15.223c0,5.609-3.311,8.244-7.366,5.947C3.244,18.8,0,12.385,0,6.776S3.311-1.468,7.366.829C11.353,3.194,14.664,9.614,14.664,15.223Z" transform="translate(134.665 29.419)" fill="#fff" opacity="0.2"/>
        <path id="Path-12" data-name="Path" d="M.068,0,115.554,66.7l-.068,276.586L0,276.586Z" transform="translate(299.118 265.68)" opacity="0.15" fill="url(#linear-gradient-5)"/>
        <path id="Path-13" data-name="Path" d="M.068,0,91.9,52.979V78.387L0,25.408Z" transform="translate(349.738 346.162)" fill="#fff"/>
        <path id="Path-14" data-name="Path" d="M0,0,88.321,51.019V90.551L0,39.532Z" transform="translate(312.769 372.449)" fill="#fff" opacity="0.46"/>
        <path id="Path-15" data-name="Path" d="M0,0,88.388,51.019v9.19L0,9.258Z" transform="translate(312.612 428.942)" fill="#fff" opacity="0.46"/>
        <path id="Path-16" data-name="Path" d="M0,0,76.428,44.127v9.19L0,9.19Z" transform="translate(310.957 445.566)" fill="#fff" opacity="0.46"/>
        <path id="Path-17" data-name="Path" d="M0,0,115.486,66.7v37.1L0,37.1Z" transform="translate(299.192 265.68)" opacity="0.93" fill="url(#linear-gradient-8)"/>
        <path id="Path-18" data-name="Path" d="M14.664,15.223c0,5.609-3.311,8.244-7.366,5.947C3.244,18.8,0,12.385,0,6.776S3.311-1.468,7.366.829C11.353,3.127,14.664,9.614,14.664,15.223Z" transform="translate(303.809 285.934)" fill="#fff" opacity="0.2"/>
        <path id="Path-19" data-name="Path" d="M201.036,116.027,0,0,.068,104.809,183.4,210.632l17.772,26.287Z" transform="translate(19.789 187.969)" fill="url(#linear-gradient-9)"/>
        <path id="Path-20" data-name="Path" d="M44.059,25.408,0,0V9.19L44.059,34.6v-9.19Z" transform="translate(150.483 274.262)" fill="#fff" opacity="0.15"/>
        <path id="Path-21" data-name="Path" d="M109.066,62.98,0,0V9.19L109.134,72.17Z" transform="translate(60.063 255.139)" fill="#fff" opacity="0.15"/>
        <path id="Path-22" data-name="Path" d="M131.7,76.022,0,0V9.19L131.7,85.212Z" transform="translate(37.493 260.545)" fill="#fff" opacity="0.15"/>
        <path id="Path-23" data-name="Path" d="M0,10.4c0,8.65,5.136,18.583,11.42,22.232s11.42-.405,11.42-9.055S17.7,4.99,11.42,1.341C5.068-2.308,0,1.746,0,10.4Z" transform="translate(215.002 305.155)" fill="#585858"/>
        <path id="Path-24" data-name="Path" d="M26.625,24.395,0,8.988V0L26.625,15.407a26.732,26.732,0,0,1,8.041,7.7,26.9,26.9,0,0,1,5,15.2c0,6.352-1.622,9.934-4.663,11.015-2.906.946-6.284-.676-8.379-1.892L15.677,41.086l-.068-.068a5.117,5.117,0,0,0-3.581-.743c-.946.27-2.095,1.284-2.095,4.8a11.314,11.314,0,0,0,2.027,6.96,10.8,10.8,0,0,0,3.581,3.244l.135.068L49.195,74.671v8.988L15.88,64.4a25.646,25.646,0,0,1-8.447-7.7,27.953,27.953,0,0,1-5.271-16.15c0-6.149,2.162-9.325,5.2-10.2,2.838-.811,6.149.405,8.447,1.757l10.88,6.285c1.554.878,2.771,1.284,3.514,1.014.608-.2,1.689-1.081,1.689-5.609A10.268,10.268,0,0,0,30,27.571,11.847,11.847,0,0,0,26.625,24.395Z" transform="translate(13.031 89.985)" fill="#fff" opacity="0.99"/>
        <path id="Path-25" data-name="Path" d="M20.137,20.888c0,7.7-4.528,11.285-10.069,8.109S0,16.969,0,9.265,4.528-2.02,10.069,1.156C15.61,4.4,20.137,13.252,20.137,20.888Z" transform="translate(0.8 79.03)" fill="#dd1928"/>
        <path id="Path-26" data-name="Path" d="M20.137,20.888c0,7.7-4.528,11.285-10.069,8.109S0,16.969,0,9.265,4.528-2.02,10.069,1.156C15.61,4.4,20.137,13.252,20.137,20.888Z" transform="translate(54.184 153.363)" fill="#0f1b1e"/>
      </g>
    </g>
    <path id="php-logo-only-letter-2" d="M5.82,18.288l11.237-.375a8.615,8.615,0,0,1,2.358.264,6.916,6.916,0,0,1,2.025.89,7.4,7.4,0,0,1,1.684,1.521,10.217,10.217,0,0,1,1.337,2.155,15.816,15.816,0,0,1,.969,2.71,22.379,22.379,0,0,1,.581,3.184,32.228,32.228,0,0,1,.19,3.652q0,1.942-.2,4.114-.077.992-.2,1.974t-.294,1.953q-.171.971-.388,1.932t-.48,1.91q-.256.958-.561,1.868T23.42,47.8q-.351.854-.746,1.65t-.831,1.524a18.889,18.889,0,0,1-1.1,1.727A12.422,12.422,0,0,1,19.6,54.072a8.214,8.214,0,0,1-1.17,1.01,5.758,5.758,0,0,1-1.2.655A12.907,12.907,0,0,1,16,56.149a12.341,12.341,0,0,1-2.5.431,12.606,12.606,0,0,1-1.275.021l-5-.168L5.656,70.113,0,69.787Zm4.852,8.15-2.5,21.825q.062.019.124.034t.124.025q.062.01.125.016t.125.007l.582.011a18.832,18.832,0,0,0,1.921-.022,14.786,14.786,0,0,0,1.765-.218,11.887,11.887,0,0,0,1.606-.415,9.98,9.98,0,0,0,1.445-.613,3.7,3.7,0,0,0,1.254-1.232,9.625,9.625,0,0,0,1.034-2.2,23.356,23.356,0,0,0,.812-3.172q.35-1.83.587-4.144.194-1.945.194-3.477a15.709,15.709,0,0,0-.194-2.651,5.859,5.859,0,0,0-.582-1.819,2.275,2.275,0,0,0-.967-.987,8.428,8.428,0,0,0-1.207-.491,10.189,10.189,0,0,0-1.346-.33,12.812,12.812,0,0,0-1.482-.17q-.774-.045-1.617-.011-.126.02-.25.037t-.244.027q-.121.011-.239.018t-.234.009l-.879.017ZM33.065,2.91l6.3-.363L37.568,17.228l5.737-.191a12.609,12.609,0,0,1,2.238.187,9.194,9.194,0,0,1,1.947.566,7.547,7.547,0,0,1,1.65.949,7.406,7.406,0,0,1,1.348,1.333,6.4,6.4,0,0,1,1.006,1.885,12.345,12.345,0,0,1,.576,2.6,23.8,23.8,0,0,1,.144,3.32q-.036,1.838-.288,4.029l-3.2,25.915L42.14,57.6l2.993-24.475q.117-.967.158-1.794a15.062,15.062,0,0,0,.006-1.512,8.278,8.278,0,0,0-.147-1.23,4.278,4.278,0,0,0-.3-.947,2.472,2.472,0,0,0-.484-.7,2.515,2.515,0,0,0-.7-.494,3.518,3.518,0,0,0-.913-.287,5.776,5.776,0,0,0-1.126-.08l-5.112.019L32.794,57.29l-6.16-.206Zm26.065,13.6,13.463-.449a11.281,11.281,0,0,1,2.832.281,8.523,8.523,0,0,1,4.458,2.632,11.065,11.065,0,0,1,1.609,2.36A16.342,16.342,0,0,1,82.658,24.3a22.588,22.588,0,0,1,.7,3.492,32.251,32.251,0,0,1,.229,4.007q0,2.131-.242,4.514-.093,1.088-.242,2.166t-.354,2.143q-.205,1.065-.467,2.119T81.7,44.838q-.308,1.05-.675,2.048t-.789,1.934q-.422.936-.9,1.807t-1,1.669a20.517,20.517,0,0,1-1.327,1.89,13.94,13.94,0,0,1-1.366,1.5,9.64,9.64,0,0,1-1.406,1.1A7.121,7.121,0,0,1,72.8,57.5q-.731.26-1.473.447t-1.492.3q-.75.116-1.51.161t-1.528.019l-5.99-.2L59.13,70.659,52.368,70.3Zm5.807,8.9L61.945,49.293q.074.021.149.037t.149.028q.075.011.149.018t.149.008l.7.013q1.2.043,2.3-.021a19.31,19.31,0,0,0,2.115-.235,15.345,15.345,0,0,0,1.926-.451,12.594,12.594,0,0,0,1.733-.669,4.279,4.279,0,0,0,1.505-1.348,10.152,10.152,0,0,0,1.242-2.41,23.788,23.788,0,0,0,.975-3.476q.42-2.005.705-4.542a35.413,35.413,0,0,0,.233-3.812,15.737,15.737,0,0,0-.233-2.905,6.028,6.028,0,0,0-.7-1.993,2.617,2.617,0,0,0-1.162-1.08,10.676,10.676,0,0,0-1.449-.535,13.189,13.189,0,0,0-1.615-.359,16.764,16.764,0,0,0-1.778-.183q-.928-.048-1.939-.009-.151.023-.3.04t-.293.031q-.145.013-.286.02t-.28.01l-1.054.02Z" transform="translate(1160.979 2919.731)" fill="#fff" opacity="0.46"/>
  </g>
</svg>
