<svg id="Group_4408" data-name="Group 4408" xmlns="http://www.w3.org/2000/svg" width="50.875" height="50.822" viewBox="0 0 50.875 50.822">
  <path id="Path_14469" data-name="Path 14469" d="M123.043,391.7c-.073-.034-.145-.072-.221-.1a1.982,1.982,0,0,1,.66-3.868c1.819-.008,3.637-.013,5.456.006.357,0,.5-.064.467-.452a15.735,15.735,0,0,1-.006-1.586,1.981,1.981,0,0,1,3.962,0c.016.545.026,1.092,0,1.636-.018.338.1.4.415.4,1.786-.014,3.571-.008,5.357-.006a1.989,1.989,0,0,1,.667,3.911.337.337,0,0,0-.078.059Z" transform="translate(-105.97 -340.877)" fill="#2a2a2a"/>
  <path id="Path_14471" data-name="Path 14471" d="M55.364,69.2a7.967,7.967,0,0,0-.547-3.3,10.476,10.476,0,0,0-1.822-2.934,8.784,8.784,0,0,0-5.728-3.125,2.656,2.656,0,0,1-.779-.089H13.334A8.436,8.436,0,0,0,9.4,60.88a10.467,10.467,0,0,0-4.361,4.965,10.737,10.737,0,0,0-.538,2.64V90.72a16.44,16.44,0,0,0,.291,2,10.153,10.153,0,0,0,9.632,6.95q15.458.007,30.916,0a9.614,9.614,0,0,0,5.192-1.406,9.37,9.37,0,0,0,4.843-8.375C55.363,82.991,55.379,76.093,55.364,69.2ZM51.351,89.227a5.969,5.969,0,0,1-6.264,6.257H15.667c-.182,0-.363-.009-.545-.013-.606-.092-.909-.575-1.233-1a7.877,7.877,0,0,1-1.66-4.885c-.007-6.136-1.057-19.129-.733-19.375.251-.04,1.18-2.573.691-1.975a15.994,15.994,0,0,1,1.164-2.681,12.851,12.851,0,0,1,1.051-1.43,1.344,1.344,0,0,1,.722-.392c.182,0,.363-.013.545-.013H45.088a5.965,5.965,0,0,1,6.264,6.257Q51.353,79.6,51.351,89.227Z" transform="translate(-4.5 -59.75)" fill="#dd1928"/>
  <path id="Path_14472" data-name="Path 14472" d="M41.135,89.768a7.859,7.859,0,0,0-2.57,4.629c-.026.144-.109,2.328-.109,2.538q0,9.256,0,18.511a7.854,7.854,0,0,0,2.679,6.059A6.024,6.024,0,0,1,34.81,117.5a6.208,6.208,0,0,1-.33-2.043q.007-9.818,0-19.636a5.957,5.957,0,0,1,6.056-6.063C40.738,89.754,40.937,89.763,41.135,89.768Z" transform="translate(-30.512 -85.784)" fill="#f9f9f9"/>
  <path id="Path_14474" data-name="Path 14474" d="M272.467,153.678c-.644,0-1.288.009-1.932,0a1.982,1.982,0,1,1-.016-3.964q1.956-.021,3.913,0a1.982,1.982,0,1,1,.016,3.964C273.788,153.688,273.127,153.678,272.467,153.678Z" transform="translate(-237.373 -139.673)" fill="#2a2a2a"/>
  <path id="Path_14699" data-name="Path 14699" d="M272.467,153.678c-.644,0-1.288.009-1.932,0a1.982,1.982,0,1,1-.016-3.964q1.956-.021,3.913,0a1.982,1.982,0,1,1,.016,3.964C273.788,153.688,273.127,153.678,272.467,153.678Z" transform="translate(-254.84 -139.678)" fill="#2a2a2a"/>
  <path id="Path_14475" data-name="Path 14475" d="M272.473,213.676c-.661,0-1.322.011-1.983,0a1.982,1.982,0,1,1,.014-3.964q1.982-.02,3.965,0a1.982,1.982,0,1,1-.014,3.963C273.795,213.686,273.134,213.677,272.473,213.676Z" transform="translate(-237.369 -191.731)" fill="#dd1928"/>
  <path id="Path_14700" data-name="Path 14700" d="M272.473,213.676c-.661,0-1.322.011-1.983,0a1.982,1.982,0,1,1,.014-3.964q1.982-.02,3.965,0a1.982,1.982,0,1,1-.014,3.963C273.795,213.686,273.134,213.677,272.473,213.676Z" transform="translate(-254.836 -191.735)" fill="#dd1928"/>
  <path id="Path_14476" data-name="Path 14476" d="M272.535,269.727c.644,0,1.288-.011,1.932,0a1.981,1.981,0,1,1,0,3.962q-1.981.025-3.963,0a1.981,1.981,0,1,1,0-3.962C271.181,269.716,271.858,269.727,272.535,269.727Z" transform="translate(-237.373 -243.81)" fill="#2a2a2a"/>
  <path id="Path_14701" data-name="Path 14701" d="M272.535,269.727c.644,0,1.288-.011,1.932,0a1.981,1.981,0,1,1,0,3.962q-1.981.025-3.963,0a1.981,1.981,0,1,1,0-3.962C271.181,269.716,271.858,269.727,272.535,269.727Z" transform="translate(-254.841 -243.814)" fill="#2a2a2a"/>
</svg>
