<svg xmlns="http://www.w3.org/2000/svg" width="55" height="55" viewBox="0 0 55 55">
  <g id="booking" transform="translate(-748 -188)">
    <g id="document-code" transform="translate(748 188)">
      <path id="Vector" d="M31.482,49.248H13.165C4.808,49.248,0,44.438,0,36.077V13.171C0,4.81,4.808,0,13.165,0H31.482c8.357,0,13.165,4.81,13.165,13.171V36.077C44.647,44.438,39.839,49.248,31.482,49.248ZM13.165,3.436c-6.548,0-9.731,3.184-9.731,9.735V36.077c0,6.551,3.183,9.735,9.731,9.735H31.482c6.548,0,9.731-3.184,9.731-9.735V13.171c0-6.551-3.183-9.735-9.731-9.735Z" transform="translate(5.176 2.876)" fill="#dd1928"/>
      <path id="Vector-2" data-name="Vector" d="M10.928,12.653h-4.6A6.323,6.323,0,0,1,0,6.327v-4.6A1.738,1.738,0,0,1,1.725,0,1.738,1.738,0,0,1,3.451,1.725v4.6A2.877,2.877,0,0,0,6.327,9.2h4.6a1.725,1.725,0,0,1,0,3.451Z" transform="translate(31.474 8.584)" fill="#292d32"/>
      <path id="Vector-3" data-name="Vector" d="M6.321,12.648A1.706,1.706,0,0,1,5.1,12.142L.5,7.54A1.736,1.736,0,0,1,.5,5.1L5.1.5A1.724,1.724,0,0,1,7.54,2.939L4.158,6.321,7.54,9.7a1.736,1.736,0,0,1,0,2.439A1.706,1.706,0,0,1,6.321,12.648Z" transform="translate(16.609 28.046)" fill="#292d32"/>
      <path id="Vector-4" data-name="Vector" d="M1.72,12.648A1.706,1.706,0,0,1,.5,12.142,1.736,1.736,0,0,1,.5,9.7L3.882,6.321.5,2.939A1.724,1.724,0,0,1,2.939.5l4.6,4.6a1.736,1.736,0,0,1,0,2.439l-4.6,4.6A1.706,1.706,0,0,1,1.72,12.648Z" transform="translate(30.35 28.046)" fill="#292d32"/>
      <path id="Vector-5" data-name="Vector" d="M0,0H55V55H0Z" fill="none" opacity="0"/>
    </g>
  </g>
</svg>
