<svg xmlns="http://www.w3.org/2000/svg" width="55.117" height="55.127" viewBox="0 0 55.117 55.127">
  <g id="Maintenance" transform="translate(-17530 -8147)">
    <g id="enterprise" transform="translate(56 -12)">
      <path id="house-chimney-window" d="M50.524,13.151V4.6a2.3,2.3,0,0,0-4.593,0v5.436L33.982,1.969a11.439,11.439,0,0,0-12.847,0L5.062,12.818A11.464,11.464,0,0,0,0,22.337v21.3A11.5,11.5,0,0,0,11.483,55.123H43.634A11.5,11.5,0,0,0,55.117,43.64v-21.3a11.464,11.464,0,0,0-4.593-9.184Zm0,30.489a6.9,6.9,0,0,1-6.89,6.89H11.483a6.9,6.9,0,0,1-6.89-6.89v-21.3a6.873,6.873,0,0,1,3.036-5.709L23.7,5.779a6.847,6.847,0,0,1,7.707,0L47.488,16.628a6.876,6.876,0,0,1,3.036,5.709Z" transform="translate(17474 8159.004)" fill="#dd1928"/>
    </g>
    <g id="settings" transform="translate(17545.797 8166)">
      <path id="Path_43533" data-name="Path 43533" d="M12,8a4,4,0,1,0,4,4A4,4,0,0,0,12,8Zm0,6a2,2,0,1,1,2-2A2,2,0,0,1,12,14Z" fill="#292d32" stroke="#292d32" stroke-width="0.5"/>
      <path id="Path_43534" data-name="Path 43534" d="M21.294,13.9l-.444-.256a9.1,9.1,0,0,0,0-3.29l.444-.256a3,3,0,1,0-3-5.2l-.445.257A8.977,8.977,0,0,0,15,3.513V3A3,3,0,1,0,9,3v.513A8.977,8.977,0,0,0,6.152,5.159L5.7,4.9a3,3,0,1,0-3,5.2l.444.256a9.1,9.1,0,0,0,0,3.29L2.7,13.9a3,3,0,0,0,3,5.2l.445-.257A8.977,8.977,0,0,0,9,20.487V21a3,3,0,0,0,6,0v-.513a8.977,8.977,0,0,0,2.848-1.646l.447.258a3,3,0,1,0,3-5.2Zm-2.548-3.776a7.048,7.048,0,0,1,0,3.75,1,1,0,0,0,.464,1.133l1.084.626a1,1,0,1,1-1,1.733l-1.086-.628a1,1,0,0,0-1.215.165,6.984,6.984,0,0,1-3.243,1.875,1,1,0,0,0-.751.969V21a1,1,0,0,1-2,0V19.748a1,1,0,0,0-.751-.969A6.984,6.984,0,0,1,7.006,16.9a1,1,0,0,0-1.215-.165l-1.084.627a1,1,0,1,1-1-1.732L4.791,15a1,1,0,0,0,.464-1.133,7.048,7.048,0,0,1,0-3.75A1,1,0,0,0,4.79,8.992L3.706,8.366a1,1,0,0,1,1-1.733l1.086.628A1,1,0,0,0,7.006,7.1a6.984,6.984,0,0,1,3.243-1.875A1,1,0,0,0,11,4.252V3a1,1,0,0,1,2,0V4.252a1,1,0,0,0,.751.969A6.984,6.984,0,0,1,16.994,7.1a1,1,0,0,0,1.215.165l1.084-.627a1,1,0,1,1,1,1.732L19.209,9a1,1,0,0,0-.463,1.129Z" fill="#292d32" stroke="#292d32" stroke-width="0.5"/>
    </g>
  </g>
</svg>
