<svg width="100" height="50" viewBox="0 0 100 50" fill="none" xmlns="http://www.w3.org/2000/svg">
<path fill-rule="evenodd" clip-rule="evenodd" d="M6.54946 17.0206C6.47399 17.05 6.41916 17.0991 6.38582 17.167C6.34476 17.2505 6.34401 17.3686 6.38399 17.4545C6.39887 17.4865 6.69718 18.0103 7.04691 18.6185C7.39662 19.2267 7.68542 19.7313 7.68867 19.7397C7.69337 19.752 7.6409 19.7684 7.431 19.8202C4.6368 20.5105 2.74578 21.5313 2.17976 22.6549C1.90958 23.1912 1.94434 23.7516 2.28149 24.295C2.4717 24.6016 2.8572 24.9843 3.26128 25.2678C3.97007 25.7649 4.96292 26.2211 6.14473 26.5925C7.78003 27.1063 9.83767 27.4917 11.8962 27.6695C12.0764 27.685 12.2334 27.7014 12.2451 27.7059C12.2586 27.7112 12.6869 28.4328 13.4442 29.7261C14.092 30.8327 14.6421 31.7666 14.6667 31.8016C14.7272 31.8879 14.7971 31.95 14.8755 31.9871C15.0359 32.0629 15.1719 31.9952 15.2335 31.8089L15.2569 31.738L15.2656 27.8171C15.276 23.0904 15.2741 22.4383 15.2495 22.327C15.1865 22.0426 15.0654 21.8519 14.8411 21.684C14.797 21.6509 13.8845 21.1126 12.8134 20.4877C11.2395 19.5695 10.8705 19.3502 10.8894 19.3441C10.918 19.3351 11.4072 19.2717 11.727 19.2356C12.5143 19.1467 13.2348 19.0924 14.1957 19.0496C14.5965 19.0317 16.0396 19.025 16.5058 19.0388C17.2754 19.0616 17.8276 19.0924 18.5147 19.1509C19.1061 19.2012 19.9715 19.2998 19.9659 19.3162C19.9643 19.321 19.0785 19.8412 17.9974 20.4721C16.9164 21.103 16.0005 21.6414 15.9622 21.6686C15.9239 21.6958 15.8543 21.7563 15.8075 21.803C15.6655 21.945 15.5832 22.1014 15.5372 22.3161L15.5135 22.4271L15.5163 27.0244C15.5178 29.5529 15.5232 31.6554 15.5282 31.6966C15.5599 31.9549 15.6982 32.0687 15.8926 31.9964C15.9439 31.9773 15.9721 31.9564 16.0406 31.8868C16.1243 31.8016 16.1381 31.7786 17.3093 29.7785C17.9606 28.6662 18.4981 27.7497 18.504 27.7417C18.5117 27.7312 18.6001 27.7201 18.8317 27.7009C23.1023 27.3453 26.5543 26.3434 28.1673 24.9913C28.2948 24.8844 28.5313 24.6464 28.6201 24.5355C28.8477 24.2514 28.9878 23.9697 29.0509 23.6688C29.0814 23.5236 29.0842 23.2684 29.057 23.1193C29.0018 22.8173 28.8338 22.4809 28.5977 22.1998C28.4815 22.0614 28.2358 21.8242 28.0774 21.6973C27.2553 21.0392 26.0058 20.4703 24.3506 20.0004C24.0825 19.9242 23.4948 19.7746 23.2325 19.7156C23.1758 19.7029 23.1294 19.6884 23.1294 19.6834C23.1294 19.6784 23.4132 19.1808 23.7601 18.5777C24.1439 17.9103 24.3988 17.4561 24.4112 17.4175C24.4629 17.257 24.4024 17.1049 24.2566 17.0293C24.1909 16.9952 24.0423 16.9905 23.9468 17.0195C23.892 17.0362 23.4335 17.299 22.0288 18.1189L20.1828 19.1964L20.0148 19.1765C19.5458 19.1209 18.8287 19.0558 18.2819 19.0192C16.1175 18.8744 13.9558 18.901 11.8328 19.0986C11.5608 19.1239 10.8738 19.1991 10.728 19.2196C10.6632 19.2286 10.6564 19.2275 10.6064 19.1992C10.5773 19.1827 9.73356 18.6906 8.73144 18.1056C7.66398 17.4824 6.88366 17.0333 6.84722 17.021C6.76461 16.9932 6.62005 16.993 6.54946 17.0206ZM23.2679 19.981C25.2875 20.5648 26.6106 21.3718 26.9625 22.2343C27.1478 22.6888 27.0718 23.1356 26.731 23.5949C26.6337 23.726 26.3819 23.9761 26.2219 24.1004C25.1557 24.9292 23.2815 25.5863 20.8088 25.9984C20.2448 26.0924 19.3802 26.2038 18.8317 26.2533C18.7968 26.2565 18.7504 26.2616 18.7286 26.2648L18.6889 26.2706L18.6943 23.6365L21.8449 21.9084L22.4204 20.9074C22.7369 20.3569 22.999 19.9064 23.0029 19.9064C23.0067 19.9064 23.126 19.94 23.2679 19.981ZM8.38544 20.947L8.93778 21.9077L12.0865 23.6349L12.0954 24.9314C12.1004 25.6445 12.1017 26.2307 12.0984 26.234C12.0857 26.2466 11.288 26.1528 10.7755 26.0785C8.54874 25.7556 6.70526 25.2149 5.49453 24.5297C5.30945 24.4249 4.99186 24.2129 4.84432 24.0955C4.68306 23.9673 4.44634 23.7283 4.345 23.5913C4.13287 23.3046 4.03873 23.0622 4.0278 22.7745C4.02098 22.5949 4.03438 22.49 4.08368 22.3371C4.19127 22.0036 4.45223 21.6652 4.84432 21.3507C4.98744 21.2359 5.30333 21.0246 5.49453 20.9158C5.83566 20.7217 6.32746 20.4968 6.78437 20.326C7.12032 20.2004 7.79657 19.9782 7.82414 19.9844C7.82905 19.9855 8.08163 20.4187 8.38544 20.947Z" fill="#74797E"/>
<path fill-rule="evenodd" clip-rule="evenodd" d="M49.4616 20.0148C47.3173 20.108 45.6467 21.0376 44.8387 22.5874C44.615 23.0166 44.478 23.4191 44.3806 23.9346C44.322 24.2444 44.3102 25.0414 44.3592 25.3793C44.4402 25.9383 44.5812 26.3861 44.8254 26.8604C45.0945 27.383 45.4713 27.8521 45.9257 28.2305C46.6351 28.8211 47.661 29.2485 48.7255 29.3969C50.4906 29.643 52.1148 29.3209 53.2219 28.5052C53.4709 28.3217 53.8694 27.9251 54.045 27.6859C54.4081 27.1915 54.6506 26.6143 54.7664 25.9692L54.8113 25.7192H54.1707C53.8184 25.7192 53.53 25.7257 53.53 25.7336C53.53 25.7415 53.508 25.8561 53.4811 25.9882C53.2114 27.3112 52.1646 28.2536 50.6761 28.5134C50.2713 28.584 49.5231 28.591 49.073 28.5284C47.7307 28.3416 46.7351 27.7443 46.1441 26.771C45.3919 25.5323 45.4132 23.8232 46.1958 22.6234C46.877 21.5791 48.0026 20.9996 49.5211 20.9114C50.4062 20.86 51.2234 21.0075 51.883 21.3377C52.2553 21.5241 52.4278 21.6465 52.7123 21.9264C53.0023 22.2115 53.1942 22.5175 53.3247 22.9027L53.3783 23.0605L54.0128 23.067C54.5123 23.072 54.6472 23.0669 54.6469 23.0427C54.6455 22.9649 54.5485 22.5827 54.4922 22.4337C54.0326 21.2162 52.6982 20.3394 50.9031 20.0755C50.7609 20.0545 50.5258 20.0317 50.3809 20.0247C50.236 20.0177 50.0573 20.0089 49.9838 20.005C49.9103 20.0011 49.6754 20.0055 49.4616 20.0148ZM69.8645 20.0168C67.0976 20.1329 65.146 21.686 64.7879 24.0568C64.7343 24.4116 64.7341 25.0612 64.7874 25.4157C64.9457 26.4681 65.3675 27.2935 66.115 28.0137C66.6268 28.5069 67.2328 28.8676 67.9767 29.1215C69.1505 29.5221 70.6777 29.5891 71.9899 29.2976C73.0958 29.0519 74.0847 28.495 74.7379 27.7505C76.3669 25.8924 76.1834 22.9284 74.3401 21.33C73.2395 20.375 71.7496 19.9378 69.8645 20.0168ZM37.9418 20.4075C37.6937 20.8703 33.3226 29.2084 33.3076 29.2476C33.2931 29.2852 33.3455 29.2884 33.9809 29.2884H34.6698L36.0536 26.5204L41.2518 26.5217L42.6551 29.2884H44.0353L43.4884 28.214C43.1876 27.6231 42.1447 25.5771 41.1707 23.6675L39.3999 20.1954L38.0624 20.1825L37.9418 20.4075ZM55.0603 21.0816H59.1166V29.2884H60.3796V21.0816H64.4359V20.1833H55.0603V21.0816ZM77.4061 29.2884H78.6694V25.0394H84.2319V24.141H78.6694V21.0816H84.9361V20.1833H77.4061V29.2884ZM86.2235 29.2884H87.4861V20.1833H86.2235V29.2884ZM88.4822 21.0816H92.5385V29.2884H93.8259V21.0816H97.8581V20.1833H88.4822V21.0816ZM70.6555 20.9114C71.8776 20.9824 72.792 21.3493 73.4975 22.0521C74.0226 22.5757 74.327 23.1451 74.4956 23.9224C74.5439 24.1463 74.5511 24.2454 74.5511 24.7358C74.5511 25.2258 74.5439 25.3255 74.4956 25.5492C74.216 26.8384 73.4583 27.7499 72.261 28.2353C71.9886 28.3458 71.4935 28.473 71.1264 28.5265C70.7783 28.5773 69.8795 28.5845 69.5607 28.5392C68.6019 28.4024 67.9108 28.1246 67.3118 27.6352C66.0429 26.599 65.6447 24.6097 66.3903 23.0323C66.888 21.9791 67.867 21.2555 69.1237 21.0125C69.4993 20.9398 69.5679 20.931 69.901 20.9121C70.0683 20.9026 70.2159 20.8933 70.2289 20.8915C70.242 20.8896 70.434 20.8986 70.6555 20.9114ZM39.7323 23.471C40.3075 24.6443 40.7782 25.6083 40.7782 25.6132C40.7782 25.6181 39.8164 25.6221 38.6408 25.6221C37.4652 25.6221 36.5033 25.6156 36.5033 25.6076C36.5033 25.5831 38.6703 21.3216 38.6785 21.3298C38.6828 21.3341 39.1569 22.2976 39.7323 23.471Z" fill="#74797E"/>
</svg>
