<svg width="100" height="50" viewBox="0 0 100 50" fill="none" xmlns="http://www.w3.org/2000/svg">
<path fill-rule="evenodd" clip-rule="evenodd" d="M65.1214 32.1706C61.1491 34.993 56.4515 37.9413 51.4061 41.0154L51.2056 41.1413C51.1309 41.1903 51.1309 41.2906 51.18 41.3418C51.2291 41.4165 51.3293 41.4165 51.3805 41.3674L51.5555 41.2671C55.8286 39.0442 60.7502 36.3711 65.6953 33.6468L65.7699 33.5978C65.5225 33.1946 65.2963 32.6954 65.1214 32.1706ZM91.129 11.1081C84.8826 4.2131 44.7096 10.4083 27.6215 14.1566L27.2225 14.2313C27.1479 14.2569 27.0967 14.3316 27.0967 14.4062C27.1223 14.4809 27.1969 14.5321 27.2716 14.5321L27.6705 14.4574C41.836 11.9337 71.2676 8.43712 77.6121 14.7326C79.5364 16.6569 79.0863 19.1294 76.8377 22.0287C78.0367 22.8031 78.9113 24.0276 79.2868 25.5508C88.0314 19.7289 93.9279 14.1822 91.129 11.1081Z" fill="#74797E"/>
<path fill-rule="evenodd" clip-rule="evenodd" d="M67.6708 30.3465C67.7455 32.77 69.2943 34.7434 71.2933 34.7434C75.1653 34.7434 76.8143 29.9967 76.7141 26.7988C76.6394 24.3753 75.065 22.3764 73.0661 22.3764C69.6932 22.4254 67.545 27.1486 67.6708 30.3465ZM65.6228 30.2207C65.4735 26.0734 68.7204 21.8516 73.4181 21.8516C76.5669 21.8516 78.6149 23.9508 78.7386 27.1721C78.8879 31.5433 75.865 35.5412 70.9434 35.5412C67.7946 35.5434 65.721 33.4441 65.6228 30.2207ZM21.0253 29.122C20.8503 29.1967 20.6498 29.2479 20.3767 29.2969C20.1015 29.346 19.6279 29.4463 18.9026 29.5465C18.4034 29.6212 18.0791 29.7215 17.8786 29.8708C17.7037 30.0201 17.5778 30.1716 17.5543 30.37C17.5053 30.594 17.5799 30.7455 17.7783 30.8948C17.9789 31.0207 18.2775 31.0953 18.7277 31.0953C19.0519 31.0953 19.3762 31.0463 19.7026 30.946C20.0269 30.8457 20.3021 30.6964 20.5026 30.5215C20.6519 30.3956 20.7522 30.2207 20.8525 30.0223C20.8759 29.8964 20.9506 29.5956 21.0253 29.122ZM25.1234 26.5982C25.0978 26.9737 25.0488 27.3236 24.9485 27.8975L24.2488 31.7951C24.1997 32.1449 24.3234 32.4201 24.6477 32.5951L24.6221 32.7444H20.6498L20.6242 31.746C20.0503 32.0959 19.3506 32.3945 18.7255 32.5695C18.1005 32.7188 17.6013 32.7935 16.8269 32.7935C15.5533 32.7935 14.8023 32.6676 14.3031 32.2196C13.7783 31.7695 13.5287 31.4708 13.5543 30.8201C13.5799 30.4703 13.7548 29.9967 14.03 29.6703C14.3052 29.346 14.6786 29.1199 15.0797 28.9449C15.4786 28.7444 15.9799 28.6207 16.6797 28.4948C17.3794 28.3689 18.3543 28.2708 19.6535 28.1705C20.3277 28.1215 20.7522 27.9465 20.9527 27.8697C21.2279 27.7694 21.3282 27.6457 21.3773 27.4196C21.452 27.0206 21.3282 26.7945 20.8034 26.6942C19.3783 26.419 16.7053 26.8692 15.3079 27.219L16.0567 25.1945C17.8807 24.9193 19.5789 24.77 21.3773 24.77C24.2232 24.7252 25.149 25.5486 25.1234 26.5982ZM36.6158 32.7188L37.9896 24.9492H41.787L40.4131 32.7188H36.6158ZM38.1902 23.1508C38.316 22.5022 39.3144 22.0009 40.4387 22.0009C41.563 22.0009 42.3864 22.5257 42.2883 23.1508C42.1624 23.7993 41.164 24.3006 40.0398 24.3006C38.8899 24.3241 38.0899 23.8014 38.1902 23.1508ZM55.2526 29.1476C55.0777 29.1967 54.8537 29.2735 54.6041 29.3225C54.3289 29.3972 53.8553 29.4719 53.13 29.5721C52.6308 29.6468 52.3065 29.7471 52.106 29.8964C51.931 30.0223 51.8052 30.1972 51.7817 30.3956C51.7326 30.6196 51.8308 30.7945 52.0057 30.9204C52.2062 31.0463 52.5049 31.1209 52.955 31.1209C53.2793 31.1209 53.6036 31.0719 53.93 30.9716C54.2542 30.8713 54.5294 30.722 54.73 30.5471C54.8793 30.4212 54.9796 30.2463 55.0798 30.0479C55.1033 29.922 55.178 29.6212 55.2526 29.1476ZM59.3508 26.5982C59.3252 26.9737 59.2761 27.3236 59.1503 27.8975L58.4505 31.7951C58.4015 32.1449 58.5252 32.4201 58.826 32.5951L58.8004 32.7209H54.8281L54.8025 31.7225C54.2286 32.0724 53.5289 32.3711 52.9038 32.546C52.2788 32.7209 51.754 32.77 51.0052 32.77C49.7315 32.77 49.0062 32.6441 48.4814 32.1961C47.9566 31.7481 47.707 31.4473 47.7326 30.7967C47.7582 30.4212 47.9331 29.9732 48.2083 29.6468C48.4835 29.3204 48.8569 29.0964 49.2579 28.898C49.6569 28.6975 50.1582 28.5737 50.8324 28.4479C51.5321 28.3476 52.507 28.2239 53.8297 28.1236C54.5038 28.0745 54.9284 27.923 55.1289 27.8484C55.4041 27.7481 55.5044 27.6244 55.5534 27.3982C55.6281 26.9993 55.5044 26.7732 54.9796 26.6729C53.5545 26.3977 50.8814 26.8478 49.4841 27.1977L50.2329 25.1732C52.0569 24.898 53.755 24.723 55.5534 24.723C58.4505 24.7508 59.3764 25.5486 59.3508 26.5982ZM13.0316 29.922C11.8071 30.1716 11.1074 30.2719 9.88283 30.2719C8.05882 30.2719 6.63588 29.3716 6.71055 27.7225C6.75961 26.6238 8.05882 24.3006 11.3826 24.3006C12.4322 24.3006 13.2322 24.4756 14.3308 25.1006L14.8066 22.402C13.3068 21.8281 12.334 21.7534 11.0583 21.7769C6.71055 21.826 2.56333 23.8014 2.03853 27.7972C1.51372 31.8697 6.48655 32.8937 8.68389 32.8937C9.9575 32.8937 11.2823 32.8447 12.5303 32.7188L13.0316 29.922ZM43.8606 24.9257L44.1358 23.3513L48.1081 22.4766L47.6835 24.9257H49.6313L49.2558 26.5001H47.3827L46.2329 32.7465C46.2329 32.7465 42.4099 32.7209 42.3864 32.7465L43.5363 26.5257H42.0878L42.3886 24.9513H43.8627L43.8606 24.9257ZM63.1993 32.7188H59.3273L61.2751 21.9006L65.0468 22.0009L63.1993 32.7188ZM31.5939 26.7732C31.0947 26.7732 30.6445 26.9225 30.2456 27.2233C29.8467 27.5241 29.5971 27.9721 29.4968 28.5481C29.3709 29.2223 29.4477 29.7215 29.7208 30.0223C29.996 30.3231 30.3693 30.4724 30.8941 30.4724C31.244 30.4724 31.5939 30.4233 31.8691 30.2719C32.1933 30.0969 32.4195 29.922 32.6179 29.6233C32.8184 29.3225 32.9677 28.9983 33.0424 28.5993C33.1427 27.9743 33.068 27.5241 32.7672 27.2254C32.4664 26.9268 32.0696 26.7732 31.5939 26.7732ZM24.6733 35.3919L26.5229 24.9982H29.8467L29.5971 26.323C29.8979 25.9241 30.3459 25.5977 30.9965 25.3246C31.6451 25.0494 32.3704 24.8745 33.1448 24.8745C34.0195 24.8745 34.5443 24.9236 35.1928 25.25C35.8414 25.5998 36.2915 26.0734 36.5411 26.7241C36.7907 27.3492 36.8419 28.0724 36.716 28.8468C36.492 30.1204 35.8669 31.1444 34.8429 31.8953C33.8189 32.6441 32.9187 32.8447 31.596 32.8447C31.1203 32.8447 30.7469 32.7956 30.4227 32.7188C30.0984 32.6441 29.8488 32.5439 29.6739 32.418C29.4989 32.2921 29.2984 32.1172 29.0488 31.8441L28.4237 35.4175H24.6754V35.3919H24.6733ZM93.5782 27.7225C93.5526 27.0974 93.2539 26.6729 92.6032 26.6729C91.0544 26.6729 89.3797 29.7215 89.1045 30.946C91.6539 30.9716 93.6293 29.4463 93.5782 27.7225ZM93.9024 32.5204L94.2032 32.7209C93.4544 34.2697 91.9056 35.5199 90.0816 35.5199C88.6075 35.5199 87.3829 34.5215 87.3083 32.6719C87.1824 29.3481 90.3056 26.2505 92.8549 26.2505C93.9536 26.2505 94.9542 26.7262 95.0032 27.8996C95.1035 30.5471 91.3808 31.3471 88.9317 31.3983C88.8571 31.6735 88.8315 31.9487 88.8315 32.3732C88.8805 33.4719 89.5312 34.3977 90.9051 34.3977C92.1296 34.3935 93.303 33.4441 93.9024 32.5204ZM78.6874 27.6479C78.9626 27.6223 79.3872 27.5732 79.5621 27.5732C79.8373 27.5732 80.1125 27.6223 80.1125 27.8975C80.1125 28.0724 79.8117 29.2457 79.7626 29.5209L79.1632 32.1193C78.9136 33.1945 78.6639 34.3188 78.4378 35.1914H79.961L80.8101 31.0441C83.4085 28.322 84.4325 27.4473 85.032 27.4473C85.3072 27.4473 85.5077 27.5966 85.5077 27.9231C85.5333 28.3988 85.2325 29.4975 85.1322 29.7961L84.2576 32.8191C84.057 33.4932 83.9077 34.1183 83.9333 34.5428C83.9589 35.217 84.3578 35.4922 84.9573 35.4922C86.056 35.4922 86.8816 34.3423 87.5813 33.1945L87.3808 32.8191C87.1056 33.2692 86.4314 34.2676 85.9067 34.2676C85.7317 34.2676 85.5824 34.1673 85.5824 33.8921C85.5568 33.5423 85.7083 33.0175 85.8064 32.6676L86.7813 29.1455C87.0309 28.1705 87.1568 27.5455 87.1568 27.2212C87.1312 26.5726 86.7579 26.2462 86.1584 26.2462C85.16 26.2462 83.8352 26.9716 81.0128 30.2185H80.9637L81.3136 28.6441C81.5141 27.7695 81.689 26.8713 81.8874 26.2462C80.9125 26.5961 79.513 26.995 78.6639 27.1465L78.6874 27.6479Z" fill="#74797E"/>
<path fill-rule="evenodd" clip-rule="evenodd" d="M95.2529 24.8254C95.2529 24.051 95.878 23.4772 96.6268 23.4772C97.3521 23.4772 98.0007 24.051 98.0007 24.8254C98.0007 25.5998 97.3756 26.1737 96.6268 26.1737C95.878 26.1993 95.2529 25.6233 95.2529 24.8254ZM96.6268 25.9732C97.2263 25.9732 97.7255 25.4974 97.7255 24.8489C97.7255 24.2004 97.2497 23.7246 96.6268 23.7246C96.0017 23.7246 95.5281 24.2004 95.5281 24.8489C95.5281 25.4996 96.0017 25.9732 96.6268 25.9732ZM96.3516 25.6233H96.102V24.0745H96.7015C97.0769 24.0745 97.2519 24.2004 97.2519 24.5246C97.2519 24.7998 97.0769 24.9236 96.8529 24.9492L97.3031 25.6233H97.0279L96.6289 24.9492H96.3537L96.3516 25.6233ZM96.6268 24.7508C96.8273 24.7508 97.0023 24.7252 97.0023 24.5012C97.0023 24.3006 96.8273 24.2772 96.6524 24.2772H96.3281V24.7529H96.6268V24.7508Z" fill="#74797E"/>
</svg>
