<svg width="100" height="50" viewBox="0 0 100 50" fill="none" xmlns="http://www.w3.org/2000/svg">
<path fill-rule="evenodd" clip-rule="evenodd" d="M27.7771 10.0285C27.9272 9.98985 28.0836 10.0039 28.2372 10.002C28.5173 10.0045 28.7979 9.99795 29.0783 10.0045C29.3102 10.0107 29.5412 10.1394 29.6508 10.3465C29.7348 10.5138 29.7126 10.7066 29.7154 10.8876C29.7148 16.7017 29.7151 22.5159 29.7151 28.3304C29.7207 28.7428 29.6886 29.1652 29.805 29.5667C29.8434 29.7059 29.9134 29.8517 30.0495 29.9193C30.2234 30.0081 30.4263 29.9691 30.6136 29.9626C30.8505 29.9533 31.075 29.8296 31.3148 29.8716C31.4774 29.8953 31.6089 30.0237 31.6591 30.1769C31.7219 30.3672 31.7518 30.5669 31.7996 30.7616C31.8383 30.9637 31.9154 31.1668 31.8798 31.3755C31.8371 31.5764 31.6507 31.7069 31.4652 31.7673C31.1256 31.8733 30.7747 31.9436 30.4213 31.9826C29.8537 32.0337 29.2628 32.0362 28.723 31.8309C28.1982 31.6368 27.7555 31.226 27.5407 30.7086C27.3266 30.2155 27.2953 29.6692 27.3041 29.1387C27.3041 23.2831 27.3041 17.4275 27.3041 11.5719C27.3066 11.2392 27.2985 10.9066 27.3075 10.5742C27.3119 10.3101 27.5314 10.0939 27.7767 10.0285H27.7771ZM33.2082 10.0247C33.4523 9.98019 33.703 10.0113 33.9503 10.002C34.1373 10.0042 34.3246 9.99733 34.5116 10.0054C34.7813 10.0176 35.0542 10.2045 35.1144 10.4755C35.1397 10.6106 35.1288 10.7493 35.131 10.8863C35.1307 16.8363 35.131 22.786 35.131 28.7357C35.1353 29.0503 35.145 29.3742 35.258 29.6717C35.3161 29.8318 35.4641 29.9592 35.6376 29.9701C35.8886 29.9847 36.1431 29.9638 36.3863 29.8981C36.5458 29.8558 36.7291 29.8365 36.878 29.9243C37.0119 29.9984 37.0772 30.1482 37.1118 30.2909C37.1646 30.518 37.2117 30.7469 37.2657 30.9743C37.2988 31.1254 37.3381 31.2883 37.2785 31.4384C37.2095 31.6185 37.0278 31.7244 36.8511 31.7776C36.1865 31.977 35.4828 32.0564 34.7913 31.9863C34.2237 31.925 33.6587 31.6804 33.2862 31.2384C32.9834 30.8871 32.8245 30.4342 32.7618 29.98C32.7087 29.6193 32.7209 29.2537 32.7196 28.8905C32.7196 22.9006 32.7199 16.9104 32.7196 10.9206C32.7221 10.7667 32.7065 10.61 32.7421 10.4586C32.7961 10.239 32.9947 10.0789 33.2082 10.0247ZM49.7046 10.4733C49.7682 10.1917 50.0595 10.0036 50.3405 10.0036C50.7039 10.0014 51.0673 10.0011 51.4306 10.0036C51.6738 10.0017 51.9217 10.1306 52.0354 10.3493C52.1184 10.5159 52.0953 10.7075 52.0987 10.8876C52.0994 13.5972 52.0972 16.3071 52.1 19.017C52.3351 18.5974 52.6135 18.1984 52.9591 17.8614C53.3731 17.4521 53.8873 17.1406 54.4483 16.979C55.918 16.5669 57.5904 17.0145 58.6703 18.0878C58.9753 18.394 59.2266 18.7488 59.4501 19.1173C59.9344 19.9216 60.2113 20.8355 60.3499 21.7596C60.4785 22.6355 60.5066 23.5223 60.51 24.4066C60.5135 25.4177 60.4551 26.4319 60.2762 27.4284C60.1223 28.2628 59.8844 29.0917 59.4711 29.8374C59.0955 30.522 58.5485 31.1266 57.8558 31.5001C57.3142 31.7985 56.7013 31.9517 56.0866 31.9957C55.2356 32.0564 54.3452 31.953 53.5891 31.5359C52.9207 31.1668 52.4284 30.5563 52.0354 29.9156C51.9676 30.27 51.9033 30.6254 51.8368 30.9805C51.794 31.202 51.7697 31.4471 51.6102 31.6213C51.4675 31.7898 51.2396 31.8502 51.027 31.8574C50.7975 31.862 50.5681 31.8611 50.3389 31.8583C49.9943 31.8586 49.6627 31.5506 49.6877 31.197C49.6883 24.4375 49.6877 17.6779 49.6877 10.9184C49.6902 10.7704 49.6768 10.6203 49.7042 10.4736L49.7046 10.4733ZM54.694 18.8843C54.3262 18.931 53.9709 19.0709 53.6728 19.2902C53.3153 19.5478 53.0434 19.9057 52.8308 20.2876C52.5261 20.8414 52.3479 21.4556 52.233 22.0745C52.016 23.2946 52.0035 24.5421 52.08 25.7762C52.13 26.3693 52.2039 26.9633 52.3563 27.5402C52.5093 28.1037 52.7347 28.6618 53.1158 29.1122C53.4212 29.4832 53.8429 29.758 54.3087 29.881C54.7433 29.9956 55.2053 30.0047 55.6461 29.9206C56.1328 29.8231 56.5802 29.5518 56.8918 29.1664C57.2573 28.721 57.4575 28.1681 57.5904 27.6146C57.813 26.6456 57.8717 25.6473 57.8808 24.6558C57.8845 23.6868 57.8627 22.7103 57.6747 21.7568C57.5502 21.1874 57.4028 20.6143 57.1262 20.0972C56.9249 19.7073 56.6239 19.3609 56.2374 19.146C55.7713 18.8884 55.2175 18.8205 54.694 18.8843ZM94.9004 10.3412C95.423 10.264 95.9653 10.4185 96.3911 10.7256C96.8204 11.0402 97.0907 11.5454 97.1635 12.0675C97.2387 12.6154 97.0642 13.1869 96.7161 13.6137C96.3483 14.0572 95.7761 14.3173 95.2023 14.3273C94.7019 14.3338 94.2024 14.1454 93.8277 13.8164C93.3164 13.3561 93.0682 12.6222 93.2034 11.9475C93.3017 11.4588 93.573 10.9947 93.9851 10.7053C94.2579 10.5191 94.5711 10.3876 94.9001 10.3412H94.9004ZM94.8414 10.6873C94.6232 10.7346 94.4146 10.8212 94.2273 10.9418C93.8586 11.1807 93.6167 11.5856 93.5293 12.0108C93.396 12.6661 93.7047 13.3919 94.281 13.7376C94.7659 14.0448 95.4093 14.0809 95.9216 13.818C96.344 13.6224 96.6555 13.2281 96.782 12.7839C96.9615 12.1833 96.7598 11.4931 96.2943 11.0751C95.9025 10.7368 95.3509 10.5782 94.8411 10.6873H94.8414ZM10.7977 11.0265C11.497 11.0093 12.1967 11.0701 12.8863 11.186C13.4557 11.2863 14.007 11.4906 14.5034 11.7868C14.653 11.8703 14.79 11.9877 14.8596 12.1475C14.9364 12.3017 14.9349 12.4895 14.8549 12.6425C14.6995 12.9437 14.5399 13.243 14.3876 13.5461C14.3021 13.7174 14.2015 13.9049 14.0155 13.9834C13.8503 14.0526 13.6658 14.0058 13.5107 13.9339C12.8766 13.6433 12.2073 13.395 11.5048 13.3511C10.375 13.2748 9.18684 13.4881 8.24684 14.1466C7.40706 14.7235 6.81671 15.6047 6.4708 16.5516C6.02843 17.7468 5.87202 19.0254 5.80771 20.2913C5.76026 21.3195 5.77493 22.3518 5.87421 23.3766C5.96599 24.3123 6.14706 25.243 6.46487 26.1295C6.7986 27.0708 7.32027 27.97 8.09449 28.6173C9.01889 29.3963 10.2751 29.7277 11.4699 29.614C11.9354 29.5664 12.3911 29.4524 12.8379 29.3175C13.1176 29.234 13.3939 29.1384 13.658 29.0135C13.7941 28.9481 13.9624 28.9316 14.0969 29.0104C14.2409 29.0839 14.3376 29.221 14.3991 29.3667C14.5733 29.7424 14.7575 30.1134 14.928 30.4906C14.9982 30.6391 14.9811 30.8217 14.8818 30.9534C14.7466 31.1684 14.4887 31.2375 14.2733 31.3425C13.628 31.6079 12.9609 31.8415 12.2647 31.9275C11.5482 32.0184 10.8227 32.033 10.1028 31.9841C8.88371 31.8951 7.66867 31.5309 6.6603 30.8298C5.65849 30.147 4.88457 29.1717 4.33325 28.1015C3.55839 26.5796 3.21186 24.8788 3.07138 23.1884C2.96336 21.7696 2.96523 20.3368 3.16566 18.9261C3.3561 17.5966 3.73697 16.2872 4.35635 15.0917C4.89238 14.0647 5.62789 13.1293 6.5629 12.4356C7.77544 11.5273 9.28737 11.0533 10.7977 11.0265ZM94.2982 11.2769C94.2973 11.9952 94.2973 12.7135 94.2982 13.4321C94.4112 13.4308 94.5239 13.4308 94.6379 13.4321C94.6397 13.1271 94.6335 12.8219 94.6413 12.5172C94.8261 12.5188 95.0528 12.4864 95.187 12.6453C95.394 12.8779 95.5273 13.1633 95.6812 13.4308C95.8232 13.4308 95.9653 13.4311 96.107 13.4315C95.9949 13.2558 95.8888 13.0767 95.7717 12.9041C95.6615 12.735 95.5417 12.5602 95.3543 12.4699C95.6263 12.4456 95.8941 12.2575 95.9453 11.9784C96.0171 11.6825 95.7983 11.3632 95.4998 11.313C95.103 11.2486 94.6984 11.2891 94.2982 11.2769ZM94.6385 11.5678C94.6376 11.7843 94.6351 12.0011 94.64 12.2179C94.8402 12.217 95.0403 12.2266 95.2404 12.2095C95.3721 12.197 95.5245 12.1407 95.5713 12.0042C95.6397 11.8335 95.5235 11.628 95.3447 11.5924C95.1111 11.5504 94.8726 11.5716 94.6382 11.5678H94.6385ZM19.6018 16.8516C18.7882 16.9192 17.9871 17.1649 17.2906 17.5932C16.3088 18.1869 15.5408 19.1014 15.0682 20.1405C14.4809 21.4139 14.263 22.8255 14.2406 24.2179C14.2318 24.9885 14.2771 25.761 14.4057 26.5216C14.6049 27.6797 15.0007 28.8257 15.7016 29.7801C16.3463 30.6613 17.2516 31.3599 18.2893 31.7147C18.9861 31.9539 19.7304 32.0368 20.4643 32.0035C21.557 31.967 22.6406 31.5995 23.5116 30.9366C24.3829 30.2875 25.0323 29.3705 25.4331 28.3672C25.962 27.0658 26.129 25.6457 26.1118 24.25C26.105 23.4127 26.0213 22.5739 25.8321 21.7575C25.592 20.7224 25.1806 19.7085 24.5106 18.8737C23.8163 17.9966 22.8448 17.3369 21.764 17.0363C21.0631 16.8394 20.3254 16.7905 19.6018 16.8516ZM19.7632 18.9167C20.3626 18.8488 20.9916 18.9198 21.5336 19.1955C21.9941 19.4279 22.3731 19.8007 22.6528 20.2299C22.9565 20.6906 23.147 21.2164 23.2778 21.7494C23.4423 22.4147 23.5066 23.0993 23.5369 23.7824C23.5578 24.5328 23.5478 25.2857 23.4673 26.0326C23.3899 26.6942 23.2641 27.3564 23.0099 27.975C22.7889 28.5164 22.453 29.0229 21.9894 29.3867C21.5907 29.7072 21.0953 29.895 20.5886 29.9542C20.0001 30.0146 19.3851 29.9551 18.8494 29.691C18.3902 29.4711 18.009 29.1104 17.7258 28.6914C17.3968 28.2093 17.1982 27.6511 17.0649 27.0867C16.8701 26.2597 16.8192 25.4074 16.8061 24.5608C16.8036 23.8799 16.8323 23.1971 16.9279 22.5225C17.0296 21.8369 17.1976 21.1516 17.5213 20.5343C17.7552 20.0966 18.0702 19.6932 18.4782 19.4042C18.8541 19.1329 19.3027 18.9681 19.7632 18.9167ZM41.1531 16.9469C40.4944 17.0587 39.8431 17.207 39.1925 17.3577C39.053 17.3901 38.9044 17.4269 38.8004 17.5318C38.6699 17.6564 38.635 17.8492 38.6515 18.0224C38.6806 18.2835 38.7439 18.5389 38.7879 18.7977C38.8295 18.9993 38.842 19.2232 38.9803 19.388C39.1279 19.5658 39.3824 19.6269 39.6024 19.5736C40.1578 19.4397 40.7051 19.273 41.2639 19.1547C41.9539 19.0354 42.6625 19.0151 43.3581 19.0964C43.9288 19.1699 44.5313 19.3693 44.8993 19.8362C45.2412 20.2636 45.3102 20.8283 45.353 21.3553C45.3773 21.8207 45.3839 22.2867 45.3726 22.7523C44.4361 22.8106 43.4995 22.8645 42.5629 22.9215C42.0534 22.9536 41.5408 22.9673 41.0379 23.0629C40.5509 23.156 40.0639 23.2741 39.6124 23.4828C39.1857 23.6846 38.7904 23.9578 38.462 24.297C38.1283 24.6455 37.8695 25.0604 37.6728 25.4993C37.4184 26.0659 37.3116 26.687 37.2788 27.3035C37.2492 27.9579 37.2879 28.621 37.4586 29.2562C37.596 29.7664 37.8252 30.257 38.1608 30.6681C38.4876 31.0755 38.9097 31.4051 39.3808 31.6312C40.0011 31.9243 40.697 32.0302 41.3788 32.0094C41.9726 31.9944 42.5645 31.8882 43.1246 31.6898C43.6381 31.5126 44.1304 31.2559 44.5357 30.8902C44.9078 30.57 45.2056 30.1744 45.4666 29.7611C45.5453 30.2566 45.6268 30.7516 45.7042 31.2475C45.7301 31.4104 45.7807 31.5814 45.9062 31.6973C46.047 31.8309 46.2502 31.8583 46.4369 31.8599C46.8218 31.8599 47.2067 31.8592 47.592 31.8599C47.7337 31.8564 47.8886 31.8536 48.0091 31.7673C48.242 31.5901 48.1617 31.2621 48.1108 31.0173C47.9791 30.3442 47.8124 29.6723 47.8002 28.983C47.7743 27.281 47.7905 25.5788 47.7862 23.8765C47.7808 23.057 47.803 22.2362 47.7537 21.4176C47.6994 20.795 47.655 20.1611 47.4459 19.5668C47.2695 19.0712 47.0085 18.6006 46.6479 18.2143C46.3117 17.8533 45.9015 17.5658 45.4622 17.3431C44.8934 17.0562 44.2587 16.9301 43.6291 16.8687C42.8046 16.7924 41.971 16.821 41.1531 16.9466V16.9469ZM43.4717 24.5957C44.1067 24.5683 44.742 24.5362 45.3776 24.5129C45.3767 25.2975 45.3801 26.0821 45.3758 26.8664C45.3792 27.5417 45.0745 28.1834 44.6562 28.7002C44.3284 29.1185 43.8957 29.4462 43.4218 29.6826C42.8389 29.9913 42.1571 30.09 41.5059 30.0112C41.0073 29.9514 40.5203 29.7094 40.22 29.3001C39.8981 28.8497 39.8107 28.28 39.8051 27.7386C39.7972 27.0761 39.8884 26.3796 40.2643 25.8161C40.5565 25.3508 41.0413 25.0337 41.5589 24.8679C42.1783 24.6814 42.8277 24.6216 43.4717 24.5957ZM66.3217 16.9058C67.0975 16.7737 67.8992 16.8092 68.6641 16.9914C69.133 17.1048 69.5953 17.2668 70.0087 17.5197C70.4523 17.7879 70.84 18.143 71.1691 18.5423C71.5631 19.0229 71.854 19.5799 72.0797 20.1567C72.578 21.4164 72.7094 22.7835 72.7328 24.1266C72.7316 24.2982 72.7544 24.4811 72.6773 24.6412C72.598 24.8116 72.4531 24.9598 72.2696 25.0128C72.1216 25.0489 71.9683 25.0352 71.8181 25.0374C69.2875 25.0374 66.7569 25.0377 64.2263 25.0374C64.271 25.8815 64.3706 26.7331 64.6571 27.533C64.8307 28.0062 65.0621 28.4675 65.403 28.8437C65.7401 29.2206 66.1909 29.4842 66.6704 29.6377C67.4038 29.8735 68.1855 29.876 68.9469 29.8277C69.6022 29.7807 70.2431 29.6231 70.8725 29.4409C71.0505 29.392 71.2278 29.3284 71.4145 29.3216C71.5478 29.316 71.6817 29.3692 71.7747 29.4655C71.9162 29.6038 71.9764 29.7978 72.0401 29.9797C72.1057 30.1707 72.1809 30.3585 72.2436 30.551C72.2936 30.7071 72.3036 30.8886 72.2171 31.0341C72.1238 31.1939 71.9552 31.2883 71.7885 31.3553C71.1491 31.6238 70.4785 31.8287 69.7901 31.9243C69.1065 32.0078 68.4146 32.0262 67.7266 31.9978C66.5546 31.9399 65.3661 31.6449 64.3877 30.978C63.4396 30.3448 62.7403 29.387 62.3245 28.3348C61.9792 27.4685 61.7991 26.5444 61.7173 25.618C61.638 24.6714 61.6411 23.7167 61.75 22.7726C61.8562 21.8578 62.0797 20.9526 62.4525 20.1085C62.7687 19.4026 63.1958 18.7389 63.758 18.2025C64.4539 17.5231 65.3627 17.068 66.3217 16.9061V16.9058ZM66.2752 19.0304C65.9733 19.1662 65.7158 19.3808 65.486 19.6144C65.1454 19.9817 64.9063 20.4277 64.7046 20.8819C64.4118 21.5712 64.3 22.32 64.2273 23.0601C66.2187 23.0607 68.2102 23.0604 70.2019 23.0601C70.1763 22.6365 70.1395 22.2128 70.0646 21.7948C69.9775 21.2719 69.8348 20.7517 69.5816 20.2829C69.3209 19.7917 68.9429 19.3519 68.4593 19.069C67.7921 18.7024 66.9623 18.7357 66.2752 19.0304ZM78.8864 16.9765C79.1705 16.8681 79.4758 16.8266 79.7792 16.8263C80.1061 16.8326 80.4411 16.8805 80.733 17.036C80.91 17.1294 81.0767 17.2637 81.1616 17.4493C81.23 17.5985 81.2216 17.7704 81.1813 17.9262C81.0976 18.2589 81.0146 18.5918 80.9315 18.9245C80.8838 19.1117 80.8263 19.2992 80.7264 19.4659C80.6837 19.5331 80.6331 19.6038 80.5538 19.6291C80.4408 19.6693 80.3203 19.6447 80.2082 19.62C79.8189 19.5291 79.4333 19.3976 79.0306 19.3892C78.5021 19.3419 77.9957 19.6272 77.6692 20.0262C77.3005 20.4592 77.0885 20.9993 76.9421 21.5422C76.7351 22.344 76.7651 23.1781 76.7641 23.9989V30.978C76.7616 31.1559 76.7847 31.3484 76.6923 31.5094C76.5768 31.7085 76.3589 31.8518 76.1254 31.8564C75.8038 31.8648 75.4823 31.8564 75.1614 31.8602C74.9996 31.8592 74.8295 31.8708 74.68 31.7997C74.4627 31.6954 74.2832 31.478 74.2925 31.2282C74.2907 26.7119 74.2925 22.1957 74.2916 17.6792C74.2907 17.5555 74.296 17.4256 74.3584 17.3151C74.4645 17.1294 74.6662 17.0029 74.8791 16.9855C75.0546 16.9712 75.2316 16.9827 75.4086 16.9793C75.6053 16.9811 75.8182 16.9606 75.998 17.0599C76.1735 17.1497 76.2768 17.3337 76.3196 17.5197C76.4557 18.0492 76.5974 18.5775 76.7301 19.108C76.9848 18.6887 77.2321 18.2585 77.5665 17.8953C77.9327 17.4991 78.3816 17.1736 78.887 16.9765H78.8864ZM84.5133 16.9472C83.8283 17.0631 83.1499 17.2182 82.4744 17.3767C82.3376 17.4069 82.2025 17.4683 82.116 17.5823C81.9936 17.7409 81.9955 17.9561 82.027 18.1448C82.0707 18.3919 82.1185 18.6379 82.1647 18.8849C82.1972 19.0522 82.2168 19.2338 82.328 19.3718C82.4734 19.5618 82.7375 19.6294 82.9651 19.5733C83.5133 19.4403 84.0556 19.2771 84.6072 19.1581C85.064 19.0712 85.5291 19.0482 85.9927 19.0472C86.6215 19.0606 87.279 19.1232 87.829 19.4559C88.2149 19.6842 88.4809 20.081 88.5867 20.5118C88.7722 21.2444 88.7253 22.0063 88.7322 22.7548C87.7691 22.8097 86.8079 22.8691 85.8457 22.9255C85.3874 22.9551 84.9263 22.9682 84.4739 23.0504C83.947 23.1445 83.4194 23.2725 82.9336 23.5012C82.5162 23.7042 82.1306 23.9755 81.8088 24.3107C81.4657 24.6755 81.1997 25.1084 81.004 25.5675C80.7704 26.1148 80.6721 26.7088 80.6396 27.2997C80.6081 28.0124 80.6543 28.7372 80.8679 29.4216C81.0046 29.8654 81.2169 30.2884 81.5075 30.6516C81.8625 31.0967 82.3276 31.4534 82.8503 31.6801C83.4824 31.9539 84.1836 32.0411 84.8685 32.0035C85.4673 31.9788 86.0608 31.853 86.6202 31.6406C87.0376 31.4833 87.4369 31.2733 87.781 30.988C88.2033 30.6494 88.5405 30.2177 88.8271 29.7614C88.9076 30.2641 88.9879 30.7665 89.0684 31.269C89.095 31.4397 89.159 31.6169 89.301 31.7259C89.4499 31.844 89.6491 31.8589 89.833 31.8602C90.2179 31.8589 90.6019 31.8602 90.9868 31.8602C91.1382 31.8574 91.3118 31.8421 91.4204 31.7225C91.535 31.5973 91.5403 31.4147 91.5154 31.2565C91.4127 30.6547 91.2528 30.062 91.1919 29.4533C91.161 29.1942 91.1585 28.9335 91.157 28.6731C91.1289 26.9399 91.1476 25.2062 91.1417 23.4728C91.1348 22.6738 91.1682 21.8721 91.0852 21.0756C91.033 20.519 90.9647 19.9555 90.7567 19.4322C90.5763 18.974 90.3215 18.5395 89.9785 18.1841C89.6388 17.8253 89.2242 17.5437 88.7837 17.3241C88.1578 17.0188 87.4582 16.9017 86.7685 16.8513C86.0158 16.7989 85.2582 16.8329 84.5133 16.9475V16.9472ZM86.4916 24.6128C87.239 24.5755 87.9857 24.544 88.7331 24.5113C88.7316 25.3174 88.7331 26.1235 88.7322 26.9294C88.7278 27.5305 88.4618 28.1002 88.1131 28.578C87.77 29.0475 87.3067 29.4231 86.7857 29.6807C86.1835 29.999 85.4764 30.0978 84.8049 30.0028C84.2994 29.9283 83.8112 29.6611 83.5314 29.2269C83.2321 28.76 83.1621 28.1887 83.1652 27.6458C83.1671 27.0122 83.2661 26.3497 83.6264 25.8133C83.9164 25.3551 84.3909 25.0393 84.9016 24.8739C85.4164 24.7135 85.9553 24.6493 86.4916 24.6128Z" fill="#74797E"/>
<path fill-rule="evenodd" clip-rule="evenodd" d="M38.2881 34.1276C38.4879 34.127 38.688 34.1267 38.8881 34.1276C39.0895 35.4246 39.3077 36.7191 39.5022 38.0174C39.5537 38.3261 39.5849 38.6379 39.6186 38.9494C39.7426 38.7083 39.8272 38.4494 39.9393 38.2031C40.5362 36.8403 41.1502 35.4854 41.7556 34.1263C41.9685 34.1279 42.1814 34.1263 42.3949 34.1276C41.5473 36.0139 40.6976 37.8991 39.8434 39.7823C39.6221 39.7817 39.401 39.7823 39.1803 39.7823C38.8841 37.8972 38.5837 36.0127 38.2881 34.1276ZM45.9745 34.1276C46.1665 34.127 46.3585 34.1257 46.5511 34.1291C46.2286 36.0133 45.903 37.8972 45.5817 39.7817C45.3891 39.7823 45.1971 39.7826 45.0051 39.7817C45.3279 37.8972 45.6511 36.0124 45.9745 34.1279V34.1276ZM59.171 34.1276C59.4164 34.127 59.6621 34.1257 59.9081 34.1285C60.1603 36.013 60.4185 37.8966 60.6711 39.781C60.4697 39.7829 60.2684 39.7832 60.0673 39.781C59.9961 39.2391 59.9174 38.6983 59.8453 38.1567C59.2185 38.1557 58.5916 38.1554 57.965 38.1567C57.7187 38.6989 57.4686 39.2397 57.2223 39.7817C56.9951 39.7832 56.7681 39.7826 56.5414 39.7817C57.4153 37.8956 58.2963 36.013 59.171 34.1276ZM59.4542 34.7696C59.3187 35.1561 59.1654 35.5361 58.9949 35.9087C58.7414 36.4619 58.4889 37.0154 58.2357 37.5686C58.7458 37.5726 59.2559 37.5689 59.766 37.5704C59.6527 36.6378 59.5235 35.7065 59.4542 34.7696ZM72.2389 34.1282C72.4309 34.127 72.6232 34.126 72.8155 34.1282C72.4908 36.013 72.1693 37.8984 71.8431 39.7829C71.6514 39.781 71.46 39.7826 71.2689 39.7823C71.5921 37.8975 71.9145 36.0127 72.2389 34.1282ZM90.6446 34.1282C90.8335 34.126 91.0236 34.1282 91.2144 34.1282C90.8928 36.0127 90.5669 37.8969 90.2463 39.7817C90.0692 39.7829 89.8922 39.7829 89.7152 39.7814C89.7452 39.5907 89.7845 39.4017 89.8058 39.2098C89.6381 39.425 89.4527 39.6368 89.2079 39.7661C88.9469 39.9069 88.6169 39.91 88.3569 39.768C88.1046 39.629 87.9173 39.388 87.8171 39.1207C87.7128 38.8379 87.6769 38.5348 87.6769 38.2351C87.6657 37.671 87.7778 37.1013 88.0344 36.5967C88.2311 36.1675 88.5782 35.7872 89.0359 35.637C89.2985 35.5554 89.6003 35.5872 89.827 35.7476C90.029 35.8893 90.1614 36.1043 90.265 36.3232C90.3942 35.5919 90.5129 34.859 90.6446 34.1282ZM89.1564 36.2005C88.8364 36.3158 88.6304 36.616 88.5039 36.9173C88.3869 37.2157 88.3013 37.5284 88.2611 37.847C88.2311 38.2146 88.2192 38.6099 88.404 38.9435C88.5014 39.1425 88.6941 39.3129 88.9276 39.3132C89.2192 39.3294 89.4561 39.1163 89.6153 38.8942C89.9728 38.3781 90.103 37.7333 90.0824 37.1141C90.0755 36.8372 89.9978 36.5441 89.7873 36.3513C89.6291 36.1843 89.3734 36.1267 89.157 36.2005H89.1564ZM83.0491 34.6805C83.2585 34.5117 83.4818 34.359 83.6981 34.1989C83.6151 34.6948 83.528 35.1901 83.4434 35.6856C83.6282 35.6869 83.813 35.6856 83.9984 35.6869C83.9763 35.8682 83.941 36.0473 83.9113 36.2276C83.724 36.227 83.5358 36.2261 83.3485 36.2286C83.2186 37.0157 83.0765 37.8009 82.9448 38.5877C82.9236 38.7391 82.8874 38.8902 82.8892 39.0441C82.8858 39.1366 82.9473 39.23 83.0416 39.2484C83.187 39.278 83.3357 39.2425 83.4796 39.2173C83.4462 39.406 83.4087 39.5942 83.3822 39.7842C83.1605 39.8518 82.9186 39.8817 82.6954 39.8088C82.5218 39.7558 82.3738 39.6188 82.3192 39.4453C82.2627 39.2855 82.2911 39.1135 82.3148 38.9509C82.4584 38.0414 82.626 37.1359 82.7706 36.2264C82.6211 36.2273 82.4712 36.2273 82.3223 36.2273C82.3548 36.0476 82.3832 35.8669 82.4147 35.6869C82.5652 35.6863 82.7166 35.6869 82.868 35.6856C82.9304 35.3511 82.9741 35.0119 83.0494 34.6805H83.0491ZM42.6007 35.7782C42.1998 35.9984 41.9607 36.4223 41.8427 36.8503C42.034 36.8712 42.2254 36.8914 42.4171 36.9126C42.4889 36.6868 42.6016 36.4609 42.8017 36.3223C43.0362 36.1563 43.344 36.1382 43.6181 36.1946C43.8198 36.2363 44.0105 36.3806 44.0589 36.5877C44.1017 36.7964 44.047 37.0082 44.0093 37.2135C43.6015 37.3801 43.1498 37.3306 42.7221 37.3926C42.4327 37.43 42.1352 37.5144 41.9148 37.714C41.6841 37.9162 41.5486 38.213 41.5214 38.5158C41.4971 38.7781 41.5214 39.0515 41.6332 39.2929C41.7553 39.5552 41.9916 39.768 42.275 39.8399C42.6266 39.9296 43.0096 39.8352 43.3021 39.6278C43.4514 39.5287 43.5772 39.4007 43.7111 39.283C43.7255 39.4506 43.7433 39.6185 43.7826 39.7826C43.974 39.7817 44.1653 39.7835 44.357 39.7814C44.294 39.458 44.2687 39.1251 44.3255 38.7989C44.4085 38.1825 44.5587 37.577 44.6271 36.9587C44.6536 36.7051 44.6602 36.4344 44.5394 36.2018C44.3745 35.8682 44.0214 35.6589 43.6584 35.6124C43.3012 35.566 42.9191 35.5997 42.6007 35.7782ZM42.4892 38.0025C42.0874 38.17 41.9722 38.7217 42.1961 39.0724C42.2857 39.2085 42.4349 39.301 42.5972 39.3229C42.945 39.3783 43.2956 39.1945 43.506 38.9245C43.7789 38.5803 43.8497 38.1327 43.9225 37.7128C43.4623 37.89 42.9506 37.833 42.4892 38.0025ZM51.2189 35.8417C51.6457 35.5448 52.2573 35.4966 52.6978 35.7906C53.0761 36.0414 53.2691 36.4896 53.3162 36.9278C53.3468 37.2524 53.3468 37.586 53.2856 37.9062C52.4621 37.9112 51.6382 37.9075 50.8147 37.9078C50.7925 38.1959 50.8 38.4937 50.8986 38.7687C50.9698 38.965 51.1047 39.1478 51.2945 39.2434C51.5096 39.3521 51.7721 39.3001 51.9704 39.1783C52.2657 39.0079 52.4574 38.707 52.5695 38.3928C52.7577 38.4093 52.9453 38.4351 53.133 38.4604C53.0212 38.9488 52.6997 39.3736 52.2879 39.653C51.8789 39.9268 51.3035 39.9567 50.8883 39.6795C50.5187 39.4365 50.3242 39.003 50.2568 38.579C50.174 38.0103 50.2462 37.4203 50.4566 36.8855C50.6192 36.4843 50.8506 36.0871 51.2189 35.8417ZM51.4912 36.3313C51.1621 36.5821 51.0048 36.9858 50.9083 37.3745C51.5371 37.3761 52.1661 37.3742 52.7952 37.3758C52.7949 37.1188 52.7939 36.8528 52.694 36.6117C52.6104 36.4005 52.4352 36.2189 52.2117 36.1607C51.961 36.0949 51.69 36.1712 51.4912 36.3313ZM62.1387 35.9909C62.4584 35.6869 62.9213 35.5374 63.3584 35.6112C63.6091 35.6492 63.8385 35.7844 64.0015 35.9769C64.2366 36.242 64.3099 36.6076 64.3099 36.9525C64.1214 36.9662 63.9338 36.9858 63.7452 36.9936C63.7361 36.7945 63.7084 36.584 63.5866 36.4192C63.4858 36.2893 63.3356 36.1902 63.1695 36.1753C62.9029 36.1438 62.6307 36.2616 62.4555 36.4609C62.3104 36.6347 62.217 36.8441 62.143 37.0562C61.9985 37.4633 61.9426 37.8975 61.9417 38.3283C61.9457 38.5669 61.9698 38.8192 62.1015 39.026C62.2014 39.1793 62.355 39.3172 62.5461 39.331C62.7893 39.3574 63.0097 39.2117 63.1673 39.0403C63.3512 38.831 63.4461 38.5641 63.5304 38.3034C63.7221 38.2934 63.916 38.3451 64.1083 38.3653C63.9706 38.8323 63.7624 39.3135 63.3587 39.6113C63.01 39.8848 62.5058 39.9583 62.1021 39.767C61.8727 39.6568 61.6901 39.4633 61.5689 39.2425C61.4353 38.9908 61.3819 38.7055 61.3654 38.4242C61.3363 37.8075 61.4341 37.177 61.7025 36.6173C61.8124 36.3871 61.9517 36.1669 62.1387 35.9909ZM65.2218 36.1691C65.5506 35.7373 66.1306 35.5037 66.6657 35.6233C67.0126 35.695 67.3016 35.9591 67.4371 36.2815C67.5283 36.4921 67.5517 36.7235 67.558 36.9509C67.3691 36.9665 67.1808 36.9858 66.992 36.9936C66.9829 36.8307 66.9667 36.6637 66.8921 36.5161C66.794 36.3152 66.5799 36.1703 66.3538 36.1706C66.0267 36.1585 65.7207 36.3637 65.5712 36.6475C65.2768 37.1867 65.1769 37.814 65.1913 38.4223C65.1981 38.7232 65.2858 39.0531 65.5434 39.2372C65.7523 39.3932 66.0529 39.3456 66.248 39.1892C66.5137 38.998 66.657 38.6862 66.7484 38.3815C66.7625 38.3454 66.7631 38.28 66.8209 38.2971C66.9994 38.3102 67.1768 38.3414 67.355 38.3653C67.2136 38.8441 66.9966 39.3397 66.5733 39.635C66.1634 39.9402 65.5409 39.9667 65.1391 39.6337C64.9318 39.4671 64.7835 39.2338 64.707 38.9808C64.59 38.6002 64.5925 38.195 64.6274 37.8022C64.6871 37.2219 64.8656 36.6385 65.2218 36.1691ZM68.4549 36.1831C68.7774 35.7669 69.3256 35.5131 69.8535 35.614C70.2971 35.6794 70.6524 36.032 70.8044 36.4413C70.978 36.9088 70.9555 37.4203 70.8984 37.9078C70.1535 37.909 69.4089 37.9087 68.664 37.9078C68.5826 37.9118 68.4961 37.8944 68.4196 37.9187C68.3918 38.2261 68.4068 38.5497 68.531 38.8366C68.6247 39.0506 68.8051 39.2416 69.0399 39.2939C69.309 39.3369 69.5788 39.2132 69.772 39.0313C69.9621 38.8597 70.0851 38.6286 70.1744 38.3918C70.3627 38.4093 70.5503 38.4345 70.7379 38.461C70.6168 38.9681 70.2774 39.411 69.8376 39.6864C69.3793 39.9673 68.733 39.9346 68.3369 39.5583C67.965 39.2045 67.8302 38.6725 67.8277 38.1744C67.8174 37.468 68.0209 36.7469 68.4549 36.1828V36.1831ZM68.9054 36.5126C68.6974 36.7578 68.5897 37.0677 68.5108 37.3745C69.1404 37.3761 69.7701 37.3745 70.4001 37.3751C70.3964 37.0811 70.3982 36.7687 70.2465 36.5064C70.1257 36.2871 69.8869 36.1301 69.6324 36.1376C69.3452 36.1339 69.0846 36.2993 68.9054 36.5126ZM73.4505 36.2563C73.7037 35.904 74.0971 35.6374 74.5366 35.599C74.8301 35.5716 75.1379 35.6352 75.3783 35.8096C75.6418 35.9937 75.8169 36.2818 75.9043 36.5874C76.0248 37.0166 76.0002 37.4695 75.9505 37.9078C75.1245 37.9087 74.2972 37.9096 73.4711 37.9072C73.4465 38.2277 73.4558 38.5653 73.5935 38.8619C73.6953 39.0743 73.8841 39.2693 74.1289 39.2982C74.3899 39.3285 74.6421 39.2004 74.8285 39.0279C75.0158 38.8562 75.1373 38.6264 75.2244 38.3912C75.4126 38.4108 75.6006 38.4339 75.7879 38.4607C75.6724 38.9603 75.3396 39.3964 74.9112 39.6723C74.4658 39.9573 73.8301 39.9468 73.4265 39.5914C73.0415 39.2587 72.892 38.731 72.8817 38.2383C72.8561 37.5408 73.045 36.8285 73.4505 36.2563ZM73.9884 36.4768C73.7602 36.726 73.6438 37.0527 73.5642 37.3751C74.1935 37.3751 74.8223 37.3751 75.4516 37.3754C75.4498 37.0752 75.4467 36.7553 75.2884 36.4899C75.166 36.2821 74.9368 36.1326 74.6921 36.1379C74.4183 36.1304 74.166 36.2787 73.9881 36.4768H73.9884ZM77.9835 35.79C78.1109 35.6847 78.2648 35.5966 78.4349 35.5953C78.5941 35.5891 78.7377 35.6701 78.8745 35.742C78.7992 35.9569 78.7181 36.17 78.6435 36.3855C78.5067 36.2884 78.3313 36.223 78.1661 36.2859C77.8951 36.388 77.7025 36.6266 77.5673 36.873C77.3526 37.2982 77.262 37.7717 77.1809 38.2367C77.0919 38.751 76.9985 39.2646 76.9139 39.7795C76.7335 39.7848 76.553 39.7817 76.3735 39.7839C76.4703 39.1182 76.5993 38.4575 76.707 37.7935C76.8284 37.0914 76.9483 36.389 77.0697 35.6866C77.2383 35.686 77.4066 35.6863 77.5761 35.6866C77.5333 35.9604 77.4777 36.232 77.4409 36.5067C77.5905 36.2472 77.7522 35.9862 77.9832 35.7897L77.9835 35.79ZM79.748 35.7464C79.3128 35.9548 79.0509 36.4008 78.9279 36.8506C79.1195 36.8718 79.3119 36.8905 79.5042 36.9126C79.5691 36.7145 79.6571 36.5142 79.8188 36.375C80.043 36.1737 80.368 36.137 80.6552 36.185C80.8597 36.2177 81.0642 36.3416 81.1316 36.5456C81.1984 36.7659 81.1341 36.9957 81.0932 37.2144C80.7205 37.3655 80.309 37.3356 79.9163 37.3798C79.5697 37.4116 79.2054 37.5019 78.9541 37.7567C78.5854 38.1215 78.522 38.703 78.6734 39.1802C78.7752 39.4848 79.0234 39.7455 79.3371 39.8334C79.6656 39.9265 80.0274 39.853 80.3155 39.6767C80.4944 39.5695 80.6424 39.4216 80.7954 39.2817C80.8116 39.4496 80.8269 39.6185 80.8672 39.7832C81.057 39.782 81.2477 39.7832 81.4394 39.7823C81.3976 39.5154 81.3583 39.245 81.3888 38.9746C81.4631 38.3083 81.6317 37.657 81.7095 36.9914C81.7376 36.7223 81.7507 36.4323 81.6161 36.1874C81.4588 35.8816 81.1422 35.6828 80.8079 35.624C80.4538 35.5617 80.0739 35.5891 79.7474 35.7464H79.748ZM79.6496 37.9766C80.0917 37.8392 80.5715 37.881 81.007 37.7128C80.953 38.0479 80.8925 38.3896 80.7386 38.6958C80.6009 38.9699 80.363 39.2036 80.0645 39.2942C79.8335 39.364 79.5538 39.3481 79.3709 39.1761C79.1689 38.9921 79.133 38.6862 79.2017 38.4339C79.2597 38.2174 79.4342 38.0398 79.65 37.9766H79.6496ZM84.6728 36.2058C84.9918 35.7781 85.5469 35.5131 86.0832 35.6134C86.5203 35.676 86.8768 36.0174 87.0307 36.4198C87.2162 36.8926 87.1899 37.4131 87.1341 37.9084C86.3061 37.9087 85.4791 37.9081 84.6512 37.9087C84.6325 38.2345 84.6394 38.5781 84.7855 38.8777C84.8907 39.0902 85.0892 39.2808 85.3362 39.3014C85.6021 39.3185 85.8563 39.1846 86.0392 39.0002C86.2128 38.8329 86.3249 38.6152 86.4095 38.3921C86.5983 38.4083 86.7856 38.4357 86.9748 38.4613C86.8484 38.9749 86.5034 39.4247 86.0529 39.6982C85.5962 39.967 84.9625 39.929 84.5716 39.5586C84.1935 39.1967 84.0609 38.6525 84.0627 38.1448C84.0578 37.4574 84.2585 36.76 84.6724 36.2058H84.6728ZM85.1389 36.5154C84.9319 36.76 84.8242 37.0686 84.748 37.3748C85.3767 37.3754 86.0061 37.3748 86.6355 37.3751C86.6339 37.0798 86.6321 36.7662 86.4806 36.5027C86.3592 36.284 86.1198 36.1311 85.8666 36.1373C85.579 36.1357 85.3165 36.2993 85.1389 36.5154ZM47.1967 35.6869C47.3878 35.686 47.5788 35.6863 47.7702 35.6869C47.616 36.5771 47.4652 37.468 47.3128 38.3588C47.2844 38.565 47.2398 38.7765 47.2832 38.984C47.3106 39.1198 47.4127 39.2397 47.5479 39.2786C47.7536 39.3381 47.9775 39.2808 48.1579 39.1749C48.3818 39.0406 48.5706 38.8472 48.6924 38.6161C48.8494 38.3024 48.9209 37.9545 48.9884 37.6128C49.1029 36.9711 49.2109 36.3282 49.3236 35.6863C49.5138 35.6863 49.7036 35.6869 49.894 35.6866C49.6624 37.0518 49.4245 38.4161 49.1925 39.7814C49.0158 39.7839 48.8394 39.7829 48.663 39.7826C48.7008 39.5378 48.7492 39.2948 48.7829 39.0497C48.5438 39.3686 48.2575 39.6832 47.871 39.819C47.5804 39.9222 47.2285 39.8835 46.9953 39.672C46.8218 39.5231 46.7141 39.3063 46.6928 39.0799C46.6632 38.7422 46.7412 38.4096 46.788 38.0775C46.9226 37.2804 47.0603 36.484 47.1967 35.6872V35.6869ZM54.0071 38.9905C54.2219 38.9902 54.4367 38.9905 54.6518 38.9902C54.6146 39.2556 54.5653 39.5194 54.5181 39.7835C54.3021 39.7807 54.0864 39.7845 53.8707 39.7814C53.9159 39.5175 53.96 39.254 54.0071 38.9905ZM91.4551 38.9905C91.6705 38.9905 91.8868 38.9896 92.1041 38.9914C92.0579 39.2553 92.0136 39.5191 91.9689 39.7829C91.7535 39.7823 91.5387 39.7823 91.3239 39.7832C91.3555 39.5169 91.412 39.2549 91.4547 38.9905H91.4551Z" fill="#74797E"/>
</svg>
