<svg width="100" height="50" viewBox="0 0 100 50" fill="none" xmlns="http://www.w3.org/2000/svg">
<path d="M87.588 18.4726L83.2 28.4343H98L96.624 31.5494H71.176L76.908 18.4726H87.588ZM61.992 22.9227H71.848C71.784 20.7262 69.704 19.2034 65.576 18.5951C57.44 17.3744 48.636 17.897 42.368 21.4285C37.432 24.2292 37.052 28.4425 41.972 30.5042C46.116 32.2271 54.816 32.4068 61.04 31.3249C65.072 30.6308 68.152 29.2754 69.88 27.2544H59.816C58.512 28.2751 56.804 28.7895 54.816 28.8059C49.168 28.8467 48.42 27.0993 49.404 25.0906C50.58 22.7227 53.036 21.4285 56.784 21.3264C59.736 21.2447 61.196 21.9143 61.992 22.9186M2 31.5657H12.416L14.648 26.3399H24.86L22.568 31.5576H33.108L38.888 18.4808H28.28L26.372 22.8901H16.172L18.104 18.4808H7.788L2 31.5657Z" fill="#74797E"/>
</svg>
