<svg width="100" height="50" viewBox="0 0 100 50" fill="none" xmlns="http://www.w3.org/2000/svg">
<path fill-rule="evenodd" clip-rule="evenodd" d="M88.2812 29.7242H91.8567V17H88.2812V29.7242Z" fill="#74797E"/>
<path fill-rule="evenodd" clip-rule="evenodd" d="M97.114 17V29.7242H93.5391V17H97.114Z" fill="#74797E"/>
<path fill-rule="evenodd" clip-rule="evenodd" d="M10.6234 21.9421H7.73182V17H3V29.7242H7.73182V23.4149H10.6234V29.7242H15.3557V17H10.6234V21.9421Z" fill="#74797E"/>
<path fill-rule="evenodd" clip-rule="evenodd" d="M32.8384 21.7319L32.549 20.8909H28.6582V29.7243H32.549V24.4137C32.549 23.2568 33.2854 22.6261 33.9162 22.6261C34.4419 22.6261 35.1252 22.7311 35.1252 23.8881V29.7243H39.016V23.9933C39.016 20.7858 35.4151 19.5242 32.8384 21.7319Z" fill="#74797E"/>
<path fill-rule="evenodd" clip-rule="evenodd" d="M72.7971 26.0171L70.9833 20.8907H68.3281L66.5139 26.2274L64.621 20.8907H60.9144H60.8879H59.4161L57.5493 25.3858L54.9205 20.8907H50.4775L55.709 29.8293L55.0257 31.5113C54.7888 32.0375 54.2224 32.0635 54.1115 31.5639C54.1115 30.6605 53.3789 29.9285 52.4755 29.9285C51.572 29.9285 50.8396 30.6605 50.8396 31.5639C50.846 32.5105 51.7922 33.7461 53.6585 33.6671C55.5253 33.5884 56.3137 32.0375 56.5766 31.3802L60.9002 20.9252L64.0167 29.7242H66.8558L68.5908 24.6499L70.3786 29.7242H73.0599L76.0831 20.8907H74.5322L72.7971 26.0171Z" fill="#74797E"/>
<path fill-rule="evenodd" clip-rule="evenodd" d="M22.059 20.4418C19.082 20.4418 16.6689 22.6554 16.6689 25.3859C16.6689 28.1173 19.082 30.331 22.059 30.331C25.0366 30.331 27.4502 28.1173 27.4502 25.3859C27.4502 22.6554 25.0366 20.4418 22.059 20.4418ZM23.4002 27.6992C23.4002 28.44 22.7998 29.0404 22.059 29.0404C21.3192 29.0404 20.7189 28.44 20.7189 27.6992V23.073C20.7189 22.3327 21.3192 21.7329 22.059 21.7329C22.7998 21.7329 23.4002 22.3327 23.4002 23.073V27.6992Z" fill="#74797E"/>
<path fill-rule="evenodd" clip-rule="evenodd" d="M50.9095 26.0958C50.938 25.8889 50.9526 25.6001 50.9526 25.3859C50.9526 22.6554 48.5391 20.4418 45.5621 20.4418C42.5845 20.4418 40.1709 22.6554 40.1709 25.3859C40.1709 28.1173 42.5845 30.331 45.5621 30.331C47.6076 30.331 49.387 29.2855 50.3007 27.7454L49.1099 27.3048C48.3902 28.4046 47.0707 29.1411 45.5621 29.1411C44.8212 29.1411 44.2209 28.44 44.2209 27.6992V26.0962L50.9095 26.0958ZM44.2209 23.073C44.2209 22.3327 44.8212 21.7329 45.5621 21.7329C46.3023 21.7329 46.9027 22.3327 46.9027 23.073V24.8342H44.2209V23.073Z" fill="#74797E"/>
<path fill-rule="evenodd" clip-rule="evenodd" d="M86.9245 26.0958C86.9535 25.8889 86.9682 25.6001 86.9682 25.3859C86.9682 22.6554 84.5547 20.4418 81.5771 20.4418C78.6 20.4418 76.1865 22.6554 76.1865 25.3859C76.1865 28.1173 78.6 30.331 81.5771 30.331C83.6232 30.331 85.4026 29.2855 86.3163 27.7454L85.1255 27.3048C84.4058 28.4046 83.0863 29.1411 81.5771 29.1411C80.8367 29.1411 80.2365 28.44 80.2365 27.6992V26.0962L86.9245 26.0958ZM80.2365 23.073C80.2365 22.3327 80.8367 21.7329 81.5771 21.7329C82.318 21.7329 82.9183 22.3327 82.9183 23.073V24.8342H80.2365V23.073Z" fill="#74797E"/>
</svg>
