<svg width="94" height="50" viewBox="0 0 94 50" fill="none" xmlns="http://www.w3.org/2000/svg">
<mask id="mask0_149_647" style="mask-type:alpha" maskUnits="userSpaceOnUse" x="2" y="7" width="90" height="36">
<path fill-rule="evenodd" clip-rule="evenodd" d="M2.49951 11.0763V7.59637H5.9294V32.8052V32.8837V36.2834H2.49951V11.0763Z" fill="#3781C2"/>
<path fill-rule="evenodd" clip-rule="evenodd" d="M37.3745 25.8376C37.4626 31.0518 40.6885 35.2215 44.58 35.1515C48.4716 35.0815 51.5539 30.7984 51.4658 25.5842C51.3777 20.3699 48.1511 16.1996 44.2572 16.2702C40.3633 16.3408 37.2858 20.6234 37.3745 25.8376ZM65.7719 19.5336C65.8618 19.7321 65.6512 19.2367 65.6512 19.2367L65.7719 19.5336ZM68.1095 41.1194C68.2664 40.8503 68.4855 40.4382 68.7462 39.924L68.1095 41.1194ZM68.3111 17.7348C68.3527 17.8506 68.4004 17.9713 68.4547 18.0968L69.6091 20.9414L68.3111 17.7348ZM53.9404 32.0547C56.0603 33.9905 57.9689 34.991 60.4098 34.991C62.908 35.0097 65.1286 33.7805 65.1286 31.4151C65.1286 29.4407 63.3889 28.2857 60.2801 26.9636C57.6455 25.8171 55.6856 25.0127 54.6609 23.3527C54.7883 24.0889 54.8521 24.8346 54.8516 25.5817C54.8516 31.9847 50.2348 37.1766 44.5402 37.1766C38.8457 37.1766 34.2282 31.9847 34.2282 25.5817C34.2018 23.7999 34.5699 22.0342 35.306 20.4112C36.0421 18.7883 37.128 17.3482 38.486 16.1942H31.508V36.2836H28.4094V32.9828C28.4094 32.9225 28.4094 32.8657 28.4094 32.8054V16.1942H25.6794V14.1033H28.4522C28.8094 9.88535 31.4072 7.5 35.003 7.5C37.3347 7.5 38.6145 7.74439 39.3537 8.08895V10.948C39.3423 11.161 39.3423 11.2913 39.3423 11.2913C39.3103 11.2877 39.2337 11.2865 39.2337 11.2865C38.1113 10.245 37.0046 9.4702 34.4189 9.47321C32.3594 9.47321 30.9975 11.1562 31.473 14.1039H43.0733C43.5582 14.0265 44.0485 13.9875 44.5396 13.9875C48.6707 13.9875 52.2351 16.7192 53.8807 20.665C53.8654 20.4462 53.858 20.2175 53.8584 19.9789C53.8584 15.8623 57.8193 14.1112 61.9334 14.1202C62.0909 14.1202 62.2448 14.1202 62.3963 14.1238C64.012 14.1956 65.6134 14.4589 67.167 14.9083L69.6091 20.9426L73.1011 29.5065L73.5108 30.8817L73.967 29.5065L78.3805 18.5144C79.1951 15.4876 82.4181 14.1781 85.9783 14.1854C87.561 14.1464 89.1371 14.4045 90.6247 14.9463V18.2706C88.6937 16.8598 87.3131 16.0379 85.1232 16.0379C83.1983 16.0379 80.8853 16.8954 80.8853 19.7448C80.8479 21.8863 82.1248 22.2792 85.8727 24.1498C88.9502 25.4955 91.7947 26.9805 91.8116 30.4206C91.8116 36.1532 86.1949 37.1489 83.4614 37.1579C81.0205 37.1579 78.7836 36.5545 77.5387 35.5106V31.7247L77.7391 31.8912C79.9597 33.9767 81.9214 35.0574 84.4564 35.0574C86.9558 35.0761 89.1759 33.8463 89.1759 31.4809C89.1759 29.5065 87.4362 28.3515 84.3273 27.0294C81.356 25.7356 79.4063 24.8782 78.6092 22.7354C77.3981 25.7079 71.7615 39.5161 70.4352 42.4675H67.3963L68.7715 39.8842C69.5336 38.3757 70.6421 36.0072 71.6263 33.7413L65.7731 19.533C65.7339 19.4467 65.6379 19.2282 65.4424 18.7805C64.9934 17.7517 64.5753 16.8013 63.3123 16.3221C62.5927 16.0824 61.8381 15.9643 61.0796 15.9727C59.1547 15.9727 56.6927 16.8302 56.6927 19.6796C56.6553 21.8212 58.0806 22.214 61.8291 24.0846C64.9065 25.4309 67.7511 26.9159 67.7674 30.3561C67.7674 36.0887 62.1507 37.0837 59.4165 37.0934C57.5061 37.1621 55.6133 36.7063 53.9435 35.7755L53.9404 32.0547Z" fill="#3781C2"/>
<path fill-rule="evenodd" clip-rule="evenodd" d="M12.3295 14.3189L12.3675 16.8279V16.9969H12.3958C12.4315 16.9039 12.4802 16.8165 12.5407 16.7374C13.8 15.3785 15.3883 14.0286 19.1621 14.0286C22.7742 14.0286 25.1125 17.1164 25.2066 19.06L25.2103 32.8079V36.2837H22.1171V20.4823C22.1171 18.0589 20.0051 16.3066 17.4152 16.3066C15.2639 16.3066 12.5033 18.2538 12.4115 20.2252V32.8091V32.9015V36.2885H9.31836V14.3189H12.3295Z" fill="#3781C2"/>
</mask>
<g mask="url(#mask0_149_647)">
<rect x="-0.000244141" width="93.75" height="50" fill="#74797E"/>
</g>
</svg>
