<svg width="100" height="50" viewBox="0 0 100 50" fill="none" xmlns="http://www.w3.org/2000/svg">
<path fill-rule="evenodd" clip-rule="evenodd" d="M7 24.8473C7 12.2197 16.9043 2 29.1306 2C41.357 2 51.2613 12.2197 51.2613 24.8473C51.2613 37.475 41.357 47.6946 29.1306 47.6946C16.9043 47.6946 7 37.4606 7 24.8473ZM21.7206 15.5593H22.4803C23.9709 15.5593 24.7593 16.3906 24.7306 18.0676V26.1946C24.7306 31.1969 22.4229 33.4903 18.0083 33.4903C14.3819 33.4903 12.4326 32.1716 12.4326 30.0216C12.4326 28.0293 14.0809 27.2266 14.1526 27.3269C14.9696 28.3589 15.9873 28.9179 17.2343 28.9179C18.8253 28.9179 19.4989 28.2013 19.4989 26.1229V18.0676C19.4989 16.3906 20.2873 15.5593 21.7206 15.5593ZM28.8013 19.6156H29.3173C30.6646 19.6156 31.5533 20.1889 31.5533 22.1239V30.7383C31.5533 32.6016 30.6359 33.2466 29.3603 33.2466H28.8443C27.4969 33.2466 26.5509 32.6446 26.5509 30.7383V22.1239C26.5509 20.2319 27.5256 19.6156 28.8013 19.6156ZM26.3933 15.8029C26.3933 14.3266 27.4109 13.3806 29.0306 13.3806C30.6933 13.3806 31.7396 14.2836 31.7396 15.8029C31.7396 17.3079 30.7219 18.2539 29.1023 18.2539C27.4396 18.2539 26.3933 17.3079 26.3933 15.8029ZM32.9293 26.4526C32.9293 22.2816 35.7673 19.4866 40.0529 19.4866C44.2669 19.4866 47.0619 22.2816 47.0619 26.4813C47.0619 30.7239 44.2382 33.4759 39.9669 33.4759C35.6669 33.4759 32.9293 30.7383 32.9293 26.4526ZM37.1863 26.4526C37.1863 28.2586 38.3329 29.5199 39.9956 29.5199C41.6152 29.5199 42.8049 28.2299 42.8049 26.4813C42.8049 24.6753 41.6439 23.4139 39.9956 23.4139C38.3616 23.4139 37.1863 24.6753 37.1863 26.4526Z" fill="#74797E"/>
<path d="M59.1154 16.5196C59.5597 16.5196 59.9611 16.5912 60.3481 16.7346C60.7207 16.8779 61.0504 17.0929 61.3371 17.3796C61.6094 17.6662 61.8244 18.0246 61.9821 18.4689C62.1397 18.8989 62.2114 19.4149 62.2114 19.9882C62.2114 20.5042 62.1541 20.9772 62.0251 21.4072C61.8961 21.8372 61.7097 22.2099 61.4517 22.5252C61.1937 22.8406 60.8784 23.0842 60.4914 23.2706C60.1044 23.4426 59.6601 23.5429 59.1297 23.5429H56.1914V16.5052M59.0151 22.2529L59.6457 22.1382L60.1904 21.7799C60.3481 21.6079 60.4771 21.3929 60.5774 21.1206C60.6777 20.8482 60.7207 20.5186 60.7207 20.1316C60.7207 19.7732 60.6921 19.4579 60.6204 19.1712C60.5487 18.8846 60.4484 18.6409 60.2907 18.4402C60.1331 18.2396 59.9324 18.0819 59.6887 17.9672C59.4307 17.8526 59.1297 17.8096 58.7571 17.8096H57.6964V22.2386H59.0151V22.2529Z" fill="#74797E"/>
<path d="M64.8344 16.5197H63.3438V23.5573H64.8344V16.5197Z" fill="#74797E"/>
<path d="M70.2955 23.5C69.9658 23.6433 69.6505 23.715 69.3065 23.715C68.7905 23.715 68.3175 23.6146 67.9018 23.4283C67.4861 23.242 67.1278 22.984 66.8555 22.6543C66.5688 22.3246 66.3538 21.9376 66.1961 21.4933C66.0385 21.049 65.9668 20.576 65.9668 20.06C65.9668 19.5297 66.0385 19.0423 66.1961 18.598C66.3538 18.1537 66.5688 17.7523 66.8555 17.4227C67.1421 17.093 67.4861 16.8207 67.9018 16.6343C68.3175 16.448 68.7905 16.3477 69.3065 16.3477C69.6505 16.3477 69.9945 16.405 70.3241 16.5053C70.6538 16.62 70.9405 16.7777 71.2128 16.9783C71.4851 17.1933 71.7001 17.4513 71.8721 17.7523C72.0441 18.0677 72.1445 18.4117 72.1875 18.813H70.7541C70.6681 18.426 70.4961 18.125 70.2381 17.9243C69.9801 17.7237 69.6791 17.6233 69.3065 17.6233C68.9625 17.6233 68.6901 17.695 68.4465 17.824C68.2028 17.953 68.0165 18.1393 67.8731 18.3687C67.7298 18.598 67.6151 18.856 67.5578 19.1427C67.4861 19.4293 67.4575 19.7303 67.4575 20.0457C67.4575 20.3467 67.4861 20.6333 67.5578 20.9057C67.6295 21.1923 67.7298 21.436 67.8731 21.6653C68.0165 21.8947 68.2028 22.0666 68.4465 22.1956C68.6758 22.3246 68.9625 22.3963 69.3065 22.3963C69.8081 22.3963 70.1808 22.2673 70.4531 22.0093C70.7255 21.7513 70.8831 21.3787 70.9261 20.877H69.4211V19.7303H72.2878V23.5286H71.3275L71.1698 22.726C70.9118 23.113 70.6108 23.3566 70.2955 23.5Z" fill="#74797E"/>
<path d="M75.0978 16.5197H73.5928V23.5573H75.0978V16.5197Z" fill="#74797E"/>
<path d="M75.9717 17.824V16.5197H81.5473V17.824H79.512V23.5573H78.0213V17.824" fill="#74797E"/>
<path d="M84.9447 16.5197L87.496 23.5573H85.9337L85.4177 21.995H82.8664L82.3361 23.5573H80.8311L83.4111 16.5197M85.0307 20.834L84.1707 18.254H84.1564L83.2677 20.834H85.0307Z" fill="#74797E"/>
<path d="M89.6743 16.5197V22.253H92.9996V23.5573H88.1836V16.5197" fill="#74797E"/>
<path d="M57.6827 26.295V32.0284H61.0081V33.3184H56.1777V26.295" fill="#74797E"/>
<path d="M63.4445 26.295H61.9395V33.3327H63.4445V26.295Z" fill="#74797E"/>
<path d="M69.6369 26.295V27.585H66.3403V29.219H69.1926V30.423H66.3403V33.3184H64.8496V26.295" fill="#74797E"/>
<path d="M75.6993 26.295V27.585H72.1017V29.09H75.3983V30.294H72.1017V32.0284H75.771V33.3184H70.5967V26.295" fill="#74797E"/>
</svg>
