<svg width="100" height="50" viewBox="0 0 100 50" fill="none" xmlns="http://www.w3.org/2000/svg">
<path d="M24.8002 29.2808H18.1631V31.491H24.8002V29.2808Z" fill="#74797E"/>
<path d="M96.5 19.2471V31.4942H93.0441C93.0441 31.4942 88.8545 24.1953 88.3831 23.3836V31.4942H85.6109V19.2471H89.2042C89.2042 19.2471 93.272 26.3463 93.7309 27.1517V19.2471H96.5ZM11.7662 19.2471C11.7662 19.2471 9.55905 26.0247 9.33115 26.7365C9.09701 26.0216 6.90546 19.2471 6.90546 19.2471H3V31.4942H5.70978V23.1307C6.14997 24.5762 8.24474 31.4942 8.24474 31.4942H10.2989C10.2989 31.4942 12.503 24.495 12.94 23.0995V31.4942H15.6623V19.2471H11.7662ZM47.7863 29.1216H41.6862V26.2776H47.2806V23.905H41.6862V21.626H47.7863V19.2471H38.736V31.4942H47.7863V29.1216ZM33.6412 19.2471C33.6412 19.2471 30.3663 23.3461 29.8949 23.8862V19.2471H27.1102V31.4942H29.8949V26.0871C30.385 26.6897 33.7223 31.4942 33.7223 31.4942H37.6059C37.6059 31.4942 32.4705 25.1443 32.2831 24.9196C32.4736 24.7073 37.3218 19.244 37.3218 19.244H33.6412V19.2471ZM72.1151 25.3348C72.1151 21.5667 74.1474 19.0036 77.9061 19.0036C81.6149 19.0036 83.6941 21.6166 83.6941 25.3348C83.6941 29.0592 81.6524 31.7377 77.9061 31.7377C74.1131 31.7408 72.1151 29.1154 72.1151 25.3348ZM75.0715 25.3441C75.0715 27.2485 75.8395 29.1653 77.9061 29.1653C79.9822 29.1653 80.747 27.2485 80.747 25.3441C80.747 23.4897 79.9229 21.5854 77.9061 21.5854C75.8957 21.5885 75.0715 23.4897 75.0715 25.3441ZM55.5629 24.0486C54.2268 23.6927 52.9624 23.4773 52.9374 22.6125C52.9312 22.3659 53.0155 22.1629 53.1997 21.985C53.6711 21.5386 54.745 21.4106 55.5941 21.473C56.8804 21.5792 57.6358 21.8008 58.6567 22.369L59.2592 19.8777C57.6983 19.3408 56.5026 18.9849 54.8043 19.0005C51.7324 19.0317 49.8343 20.5427 49.8343 22.9434C49.8343 25.3941 52.1632 26.0216 54.1237 26.5866C55.3975 26.9425 56.6681 27.133 56.6681 28.082C56.6681 29.0279 55.1321 29.362 54.0988 29.362C52.8937 29.362 51.8011 29.0342 50.4992 28.2756L49.7063 30.7418C51.4701 31.4349 52.541 31.7315 54.2455 31.7315C56.1092 31.7315 57.6483 31.2132 58.5786 30.2798C59.2561 29.6117 59.6089 28.722 59.6089 27.7105C59.6089 25.2255 57.4236 24.5324 55.5629 24.0486ZM66.6768 24.0486C65.3406 23.6927 64.0669 23.4773 64.0482 22.6125C64.045 22.3659 64.1325 22.1629 64.3104 21.985C64.788 21.5386 65.8589 21.4106 66.7018 21.473C67.988 21.5792 68.7435 21.8008 69.7737 22.369L70.3699 19.8777C68.809 19.3408 67.6165 18.9849 65.915 19.0005C62.8462 19.0317 60.9481 20.5427 60.9481 22.9434C60.9481 25.3941 63.2802 26.0216 65.2376 26.5866C66.5113 26.9425 67.785 27.133 67.785 28.082C67.785 29.0279 66.2491 29.362 65.2126 29.362C64.0045 29.362 62.9149 29.0342 61.6131 28.2756L60.817 30.7418C62.5778 31.4349 63.6548 31.7315 65.3625 31.7315C67.2231 31.7315 68.7622 31.2132 69.7019 30.2798C70.3699 29.6117 70.729 28.722 70.729 27.7105C70.7165 25.2255 68.528 24.5324 66.6768 24.0486ZM22.2932 27.9977C23.3265 27.9977 24.3161 27.8229 25.1278 27.4358L24.2849 25.4565C23.8666 25.7125 23.364 25.8624 22.8239 25.8624C21.3878 25.8624 20.1984 25.1475 20.1984 23.5116C20.1984 21.8726 21.3847 21.1608 22.8239 21.1608C23.364 21.1608 23.8666 21.3076 24.2849 21.5573L25.1278 19.5812C24.3161 19.2003 23.3265 19.0192 22.2932 19.0192C19.3648 19.0192 17.5011 20.6988 17.5011 23.5116C17.5011 26.3182 19.3648 27.9977 22.2932 27.9977Z" fill="#74797E"/>
</svg>
