<svg width="100" height="50" viewBox="0 0 100 50" fill="none" xmlns="http://www.w3.org/2000/svg">
<path d="M56.8152 23.9618C56.2301 23.8836 55.7515 23.8291 54.9011 23.7202C54.0601 23.6017 53.0723 23.2582 53.0723 22.0974C53.0723 21.4128 53.5603 21.0456 54.0269 20.7756C54.5007 20.5055 55.2043 20.4013 55.9079 20.4013H55.915C57.4359 20.4013 58.4663 21.0409 59.1841 21.8511L59.2813 21.96L61.8445 19.9204C61.8184 19.8801 61.79 19.8422 61.7663 19.8043C61.7449 19.7853 61.7308 19.7569 61.7118 19.7332L61.6857 19.7C61.6028 19.5958 61.5199 19.4939 61.4275 19.3968C61.3517 19.3115 61.2688 19.2262 61.1883 19.1481C59.883 17.9138 57.9546 17.4116 56.0926 17.4116C54.5054 17.4116 52.8969 17.8001 51.6793 18.5914C50.7388 19.2073 50.0329 20.072 49.7604 21.1854C49.687 21.4815 49.6443 21.7942 49.6372 22.1258C49.6348 22.1709 49.6207 22.3106 49.6207 22.4717C49.6207 22.5049 49.6207 22.538 49.6255 22.5736C49.6304 22.7773 49.654 23.0118 49.6753 23.1184C49.9524 24.7862 51.2838 26.1815 53.1482 26.5747C53.2524 26.5984 53.3543 26.6174 53.4585 26.6387L56.8152 23.9618ZM43.2198 25.9944C43.2198 27.2499 42.9829 28.6689 42.0732 29.517C41.6184 29.9766 41.0119 30.3082 40.1307 30.3082C39.1357 30.3082 38.4487 30.0239 38.0128 29.498C37.5793 28.9769 37.4016 28.2259 37.4016 27.3044V17.8025H33.7345V28.1477C33.7416 31.4501 35.7813 33.6721 39.086 33.6721C41.0451 33.6721 42.8408 32.798 43.5799 31.289V34.5202L46.8822 31.9049V17.8025H43.2198V25.9944ZM9.95021 17.4116C8.16402 17.4116 6.32334 18.1579 5.40656 19.7877L5.33549 19.918V17.8025H2V33.2813H5.6624V26.5748C5.6624 25.3429 5.68608 23.9168 6.17173 22.8034C6.68816 21.6592 7.56941 20.8063 8.90313 20.8063C9.90046 20.8063 10.5543 21.0883 10.9594 21.6C11.3668 22.1164 11.5137 22.8579 11.5137 23.7747V33.2813H15.1761V22.9408C15.1761 19.7214 13.2525 17.4164 9.95021 17.4116ZM24.4245 17.4116C22.3067 17.4116 20.646 18.1839 19.4829 19.3755C17.9999 20.894 17.2513 23.0948 17.2513 25.5703C17.2513 28.1075 18.0876 30.2798 19.6369 31.7675C20.8569 32.9283 22.3991 33.6721 24.5145 33.6721C26.4831 33.6721 28.4138 33.0467 29.7191 31.5022C30.3066 30.801 30.9226 29.5999 31.022 28.6926H27.5089C27.3525 29.254 27.0848 29.671 26.7556 29.9979C26.2107 30.5451 25.5356 30.7583 24.4553 30.7583C23.4272 30.7583 22.6691 30.3035 22.1243 29.7871C21.3922 29.0858 20.9753 27.9914 20.9729 26.8306C20.9729 26.7903 20.9754 26.7501 20.9754 26.7074L20.9778 26.6695H31.387C31.3894 26.326 31.4202 25.6627 31.4202 25.6627C31.425 25.4993 31.425 25.3358 31.425 25.1771C31.425 23.4241 31.1147 21.8226 30.0771 20.2686C28.8026 18.3355 26.72 17.4116 24.4245 17.4116ZM20.9471 24.021V23.9855C20.9756 22.9621 21.2148 22.2325 21.7621 21.5408C22.3069 20.8111 23.2474 20.3255 24.3963 20.3255C25.4813 20.3255 26.2702 20.6903 26.789 21.2375C27.3954 21.9032 27.7271 22.8105 27.7555 23.9855L27.7604 24.021H20.9471Z" fill="#74797E"/>
<mask id="mask0_394_205" style="mask-type:luminance" maskUnits="userSpaceOnUse" x="89" y="17" width="10" height="17">
<path d="M93.2659 20.098V17.8025H89.8428V33.2813H93.5383V25.485C93.5383 24.22 93.8866 23.1113 94.5641 22.3154C95.2416 21.5218 96.2579 21.0456 97.5845 21.0456C97.992 21.0456 98.4255 21.1025 98.8306 21.1854V17.677C98.4539 17.6225 98.0796 17.5917 97.703 17.5917C95.8907 17.5917 93.9813 18.3213 93.2659 20.098Z" fill="white"/>
</mask>
<g mask="url(#mask0_394_205)">
<path d="M106.48 27.1765L93.3417 37.6638L82.1934 23.6988L95.3339 13.2091L106.48 27.1765Z" fill="#74797E"/>
</g>
<mask id="mask1_394_205" style="mask-type:luminance" maskUnits="userSpaceOnUse" x="64" y="15" width="9" height="19">
<path d="M64.3867 17.9209V28.7423C64.3891 31.7201 65.9171 33.4873 69.0465 33.492C70.1409 33.492 71.1714 33.3452 72.2066 33.0798V30.0144C71.2117 30.1305 70.591 30.1613 69.8211 30.1613C69.2194 30.1613 68.7764 30.0286 68.4779 29.742C68.1865 29.4554 68.0491 29.0171 68.0491 28.413V22.3911H71.9674V19.3873H68.0491V15L64.3867 17.9209Z" fill="white"/>
</mask>
<g mask="url(#mask1_394_205)">
<path d="M81.2272 26.2928L67.4305 37.3061L55.3701 22.1969L69.1622 11.186L81.2272 26.2928Z" fill="#74797E"/>
</g>
<mask id="mask2_394_205" style="mask-type:luminance" maskUnits="userSpaceOnUse" x="48" y="23" width="15" height="11">
<path d="M53.458 26.6386C53.5196 26.6457 53.5717 26.6599 53.6286 26.6694C53.6546 26.6741 53.6854 26.6789 53.7115 26.6836C54.9409 26.8992 56.2605 26.9892 57.4568 27.1716C58.3546 27.3114 59.0558 27.816 59.0558 28.6024C59.0558 29.2942 58.5962 29.6732 58.2835 29.8841C57.8571 30.1683 57.4141 30.3223 57.0517 30.4147C56.6087 30.5213 56.0852 30.5403 55.7061 30.5403C55.0784 30.5403 54.5714 30.4526 54.1734 30.3365C52.9534 29.9978 51.8329 29.0881 51.2762 28.3845L48.668 30.4692C48.8693 30.7369 49.715 31.7295 50.8569 32.3809C52.4701 33.2977 53.9555 33.6507 55.4953 33.6507C57.2057 33.6507 58.8687 33.3498 60.1763 32.561C61.4579 31.7863 62.396 30.5639 62.4221 28.8536C62.4292 28.7446 62.4363 28.638 62.4363 28.529C62.4363 26.0937 60.6643 24.5563 58.2196 24.1678C57.8832 24.1156 57.6036 24.0754 57.3573 24.0351C57.2767 24.0256 57.1985 24.0114 57.1251 24.0043C57.0659 23.9948 57.009 23.9877 56.9545 23.9806C56.9072 23.9735 56.8598 23.9688 56.8148 23.9617L53.458 26.6386Z" fill="white"/>
</mask>
<g mask="url(#mask2_394_205)">
<path d="M67.1601 29.8793L54.0266 40.3642L43.9443 27.7306L57.0778 17.2504L67.1601 29.8793Z" fill="#74797E"/>
</g>
<mask id="mask3_394_205" style="mask-type:luminance" maskUnits="userSpaceOnUse" x="73" y="17" width="15" height="17">
<path d="M74.5372 22.3912H78.1428C78.2565 20.9982 79.2633 20.2402 80.9689 20.2402C83.0844 20.2402 83.589 21.2233 83.589 22.6825V23.6372L79.0288 23.9618C76.0818 24.1702 73.791 25.8688 73.791 28.8181C73.791 29.0479 73.8052 29.2777 73.8384 29.5004C74.1535 31.7533 76.0297 33.6721 79.3912 33.6721C79.4694 33.6721 79.6281 33.6626 79.6281 33.6626C81.5825 33.5205 83.0536 32.4971 83.589 31.3482V33.2812H87.223V23.6965C87.223 22.6541 87.1637 21.5478 86.7752 20.5694C85.8821 18.2479 83.615 17.4116 80.9689 17.4116C77.5316 17.4116 74.7741 18.942 74.5372 22.3912ZM77.4226 28.7257C77.4226 27.4773 78.5265 26.7927 79.6565 26.7027L83.589 26.4042V27.1196C83.589 29.4127 81.9497 30.6635 79.6281 30.6635C78.465 30.6635 77.4226 29.9197 77.4226 28.7257Z" fill="white"/>
</mask>
<g mask="url(#mask3_394_205)">
<path d="M95.1493 27.3423L79.0191 40.2199L65.8643 23.7414L81.9968 10.8615L95.1493 27.3423Z" fill="#74797E"/>
</g>
<path d="M97.3623 30.2892C96.519 30.2892 95.8936 30.9525 95.8936 31.7887C95.8936 32.625 96.519 33.2812 97.3623 33.2812C98.2057 33.2812 98.8311 32.6179 98.8311 31.7816C98.8311 30.9501 98.2057 30.2892 97.3623 30.2892ZM97.3623 33.023C96.6398 33.023 96.166 32.5018 96.166 31.7887C96.166 31.0757 96.6398 30.5498 97.3623 30.5498C98.0825 30.5498 98.5586 31.0709 98.5586 31.7816C98.5586 32.497 98.0825 33.023 97.3623 33.023ZM97.9782 31.4689C97.9782 31.1515 97.7248 30.9809 97.4239 30.9809H96.8506V32.5397H97.1254V31.9664H97.431L97.694 32.5397H97.9901L97.7011 31.9214C97.8906 31.8361 97.9782 31.6727 97.9782 31.4689ZM97.4239 31.7153H97.1183V31.232H97.4239C97.5731 31.232 97.694 31.3078 97.694 31.4689C97.694 31.6395 97.5897 31.7153 97.4239 31.7153Z" fill="#74797E"/>
</svg>
