<svg width="100" height="50" viewBox="0 0 100 50" fill="none" xmlns="http://www.w3.org/2000/svg">
<mask id="mask0_394_230" style="mask-type:luminance" maskUnits="userSpaceOnUse" x="4" y="12" width="93" height="26">
<path d="M97 12H4V37.8229H97V12Z" fill="white"/>
</mask>
<g mask="url(#mask0_394_230)">
<path d="M12.0914 29.7156C14.2448 28.8042 16.1792 27.5006 17.8395 25.8403C19.5006 24.18 20.8049 22.2448 21.7148 20.0921C22.6592 17.8609 23.1375 15.4934 23.1375 13.0526V12H21.0338V13.0526C21.0338 21.8641 13.8637 29.0338 5.05299 29.0338H4V31.1371H5.05261C7.49338 31.1371 9.86204 30.6585 12.0914 29.7156Z" fill="#74797E"/>
<path d="M5.19382 26.8766C8.83448 26.8401 12.2504 25.4064 14.8286 22.829C17.4398 20.2174 18.8785 16.7457 18.8785 13.0518V12H4V16.259V18.3627V18.3642V19.7809L5.39993 18.3809C7.00523 18.5548 8.25788 19.9179 8.25788 21.568C8.25788 23.2234 6.99916 24.5892 5.38855 24.7581L4 23.3692V24.7755V24.7892V26.8781H5.05261C5.0993 26.8781 5.14637 26.8777 5.19382 26.8766ZM6.10294 16.3638V14.1037H11.6351V16.1793L13.7115 14.1037H16.7281C16.3462 18.3855 13.6519 22.0136 9.90455 23.7237C10.1976 23.0647 10.3616 22.3351 10.3616 21.5684C10.3616 19.0008 8.52891 16.8538 6.10294 16.3638Z" fill="#74797E"/>
<path d="M29.4182 12H27.395H27.2895H25.2913V13.0518C25.2913 24.2118 16.2122 33.2921 5.05261 33.2921H4V35.3958H5.05261C8.06771 35.3958 10.9932 34.804 13.7498 33.6386C16.4096 32.5135 18.8003 30.9025 20.8505 28.8512C22.9025 26.7995 24.5135 24.4104 25.6386 21.7498C26.6761 19.2973 27.2572 16.7115 27.3734 14.046L29.4182 12Z" fill="#74797E"/>
<path d="M44.8537 17.8693V27.1123H43.0977L38.4886 21.5001V27.1123H36.377V17.8693H38.1455L42.7405 23.4804V17.8693H44.8537Z" fill="#74797E"/>
<path d="M47.0253 26.9222C46.5014 26.6887 46.0736 26.3547 45.7373 25.9242L46.9262 24.4977C47.4284 25.1764 48.0012 25.515 48.6427 25.515C49.5146 25.515 49.95 25.0037 49.95 23.9826V19.5851H46.7018V17.8682H52.0753V23.8642C52.0753 25.0007 51.7933 25.8517 51.2311 26.42C50.6671 26.9863 49.8392 27.2699 48.7478 27.2699C48.1242 27.2703 47.5495 27.1541 47.0253 26.9222Z" fill="#74797E"/>
<path d="M64.7013 22.5307H65.3474V25.9891C64.9431 26.3767 64.4515 26.6728 63.8757 26.8751C63.2983 27.0782 62.6895 27.1784 62.0465 27.1784C61.1309 27.1784 60.3072 26.9768 59.5704 26.5711C58.837 26.166 58.2585 25.6073 57.841 24.8936C57.4234 24.1815 57.2139 23.3795 57.2139 22.4904C57.2139 21.6022 57.4238 20.8001 57.841 20.0869C58.2585 19.3744 58.837 18.8152 59.5704 18.4106C60.3072 18.006 61.1373 17.8025 62.0613 17.8025C62.7381 17.8025 63.3606 17.9099 63.9281 18.1267C64.4967 18.3411 64.9822 18.6573 65.3884 19.0703L64.9663 19.5205C64.578 19.1314 64.1441 18.8524 63.6654 18.6812C63.1848 18.5093 62.6546 18.4224 62.0745 18.4224C61.2812 18.4224 60.5657 18.5989 59.9276 18.9523C59.2891 19.3038 58.7896 19.7904 58.4301 20.411C58.0691 21.0321 57.8884 21.7241 57.8884 22.4908C57.8884 23.2485 58.0702 23.9367 58.4362 24.5573C58.8006 25.178 59.3001 25.6661 59.9352 26.0226C60.5687 26.3801 61.2812 26.5574 62.0745 26.5574C63.1302 26.5574 64.0055 26.2773 64.7021 25.7124V22.5307H64.7013Z" fill="#74797E"/>
<path d="M69.7179 20.569C70.1677 20.3018 70.7139 20.1663 71.3569 20.1663V20.8142L71.1975 20.8002C70.4315 20.8002 69.834 21.0405 69.402 21.5199C68.9716 21.9997 68.7556 22.6663 68.7556 23.5203V27.112H68.0947V20.2194H68.7298V21.7241C68.9408 21.2238 69.2696 20.8374 69.7179 20.569Z" fill="#74797E"/>
<path d="M74.0444 26.7172C73.5202 26.4174 73.1091 26.0013 72.8092 25.468C72.5097 24.9362 72.3594 24.3349 72.3594 23.6657C72.3594 22.9968 72.5097 22.3971 72.8092 21.8634C73.1091 21.332 73.5202 20.9159 74.0444 20.6149C74.5667 20.3162 75.1551 20.167 75.8061 20.167C76.4574 20.167 77.0458 20.3162 77.5697 20.6149C78.0935 20.9159 78.5046 21.332 78.8041 21.8634C79.1024 22.3971 79.2524 22.9968 79.2524 23.6657C79.2524 24.3349 79.1024 24.9362 78.8041 25.468C78.5046 26.0013 78.0935 26.4174 77.5697 26.7172C77.0454 27.0152 76.4571 27.1651 75.8061 27.1651C75.1551 27.1651 74.5667 27.0156 74.0444 26.7172ZM77.2265 26.2014C77.6441 25.955 77.9743 25.6115 78.2157 25.1715C78.4575 24.7312 78.5801 24.2294 78.5801 23.6657C78.5801 23.1031 78.4575 22.6017 78.2157 22.161C77.9739 21.7203 77.6437 21.3768 77.2265 21.13C76.8074 20.8848 76.3348 20.7607 75.8061 20.7607C75.2788 20.7607 74.8051 20.8848 74.3879 21.13C73.9704 21.3764 73.6378 21.7203 73.3964 22.161C73.155 22.6017 73.0339 23.1028 73.0339 23.6657C73.0339 24.229 73.1546 24.7312 73.3964 25.1715C73.6382 25.6115 73.9707 25.9546 74.3879 26.2014C74.8055 26.4481 75.2792 26.5707 75.8061 26.5707C76.3352 26.5707 76.8074 26.4485 77.2265 26.2014Z" fill="#74797E"/>
<path d="M87.3352 20.2192V27.1126H86.6997V25.6337C86.4708 26.1173 86.1326 26.495 85.6843 26.7626C85.2345 27.0318 84.7061 27.1654 84.0995 27.1654C83.2018 27.1654 82.4973 26.9141 81.9863 26.413C81.4754 25.9116 81.2207 25.1892 81.2207 24.2482V20.2192H81.8816V24.1943C81.8816 24.9683 82.0786 25.5597 82.4749 25.9644C82.8715 26.3679 83.4311 26.5706 84.1531 26.5706C84.9267 26.5706 85.5408 26.3288 85.9941 25.8444C86.4484 25.3612 86.6743 24.7087 86.6743 23.8899V20.2196L87.3352 20.2192Z" fill="#74797E"/>
<path d="M95.3378 20.6149C95.8567 20.9159 96.2632 21.3285 96.5578 21.8566C96.8531 22.3865 96.9996 22.9881 96.9996 23.6661C96.9996 24.3448 96.8531 24.9491 96.5578 25.4809C96.2632 26.0146 95.8567 26.428 95.3378 26.7237C94.817 27.0175 94.237 27.1651 93.5917 27.1651C92.9858 27.1651 92.4343 27.0217 91.9427 26.7358C91.4492 26.4496 91.0658 26.0514 90.7937 25.5409V29.6739H90.1328V20.2194H90.7679V21.844C91.0404 21.3153 91.4253 20.9042 91.9218 20.6096C92.4202 20.3139 92.976 20.167 93.5917 20.167C94.237 20.1674 94.817 20.3162 95.3378 20.6149ZM94.9802 26.2014C95.4023 25.955 95.7344 25.6115 95.9762 25.1715C96.218 24.7312 96.3388 24.2294 96.3388 23.6657C96.3388 23.1031 96.218 22.6017 95.9762 22.161C95.7344 21.7203 95.4023 21.3768 94.9802 21.13C94.5577 20.8848 94.0821 20.7607 93.5533 20.7607C93.0245 20.7607 92.5523 20.8848 92.1352 21.13C91.7161 21.3764 91.387 21.7203 91.1452 22.161C90.9019 22.6017 90.7812 23.1028 90.7812 23.6657C90.7812 24.229 90.9019 24.7312 91.1452 25.1715C91.3874 25.6115 91.7161 25.9546 92.1352 26.2014C92.5527 26.4481 93.0249 26.5707 93.5533 26.5707C94.0817 26.5707 94.5573 26.4485 94.9802 26.2014Z" fill="#74797E"/>
<path d="M45.6077 31.5613L43.5025 37.7782H43.0227L41.0947 32.2005L39.1588 37.7782H38.6798L36.5654 31.5613H37.0445L38.9371 37.158L40.8821 31.5613H41.3175L43.2538 37.1667L45.1628 31.5613H45.6077Z" fill="#74797E"/>
<path d="M51.9761 31.5613V37.7782H51.5236V34.8216H47.3663V37.7782H46.9131V31.5613H47.3663V34.4211H51.5236V31.5613H51.9761Z" fill="#74797E"/>
<path d="M57.9908 36.0291H54.3836L53.5929 37.7798H53.1055L55.9646 31.5613H56.4182L59.2788 37.7798H58.7899L57.9908 36.0291ZM57.8215 35.6472L56.1862 32.0589L54.5616 35.6472H57.8215Z" fill="#74797E"/>
<path d="M61.2858 31.9705H59.0488V31.5613H63.9778V31.9705H61.739V37.7798H61.2858V31.9705Z" fill="#74797E"/>
<path d="M64.6963 31.5613H65.1059L65.0709 33.8529H64.7327L64.6963 31.5613Z" fill="#74797E"/>
<path d="M67.1804 37.5887C66.7666 37.4312 66.447 37.2288 66.2158 36.9798L66.4197 36.6412C66.6394 36.8724 66.9344 37.0603 67.3045 37.2049C67.6746 37.3511 68.0622 37.4232 68.471 37.4232C69.0639 37.4232 69.5103 37.3105 69.8128 37.0861C70.115 36.8606 70.2664 36.5672 70.2664 36.2058C70.2664 35.9284 70.1856 35.7059 70.0265 35.5393C69.866 35.3745 69.6667 35.2474 69.431 35.1578C69.1937 35.0697 68.873 34.9767 68.471 34.883C68.0158 34.7702 67.6499 34.6602 67.3751 34.5535C67.0988 34.448 66.8645 34.2828 66.6725 34.0619C66.48 33.8391 66.3844 33.5415 66.3844 33.1684C66.3844 32.8662 66.4641 32.5902 66.6246 32.3386C66.7837 32.0854 67.0282 31.8861 67.3561 31.7384C67.686 31.5893 68.0948 31.516 68.5864 31.516C68.9291 31.516 69.2674 31.5665 69.5999 31.6674C69.9309 31.7673 70.2175 31.9047 70.4619 32.0751L70.2926 32.4395C70.0444 32.2676 69.7707 32.137 69.4716 32.0493C69.1709 31.9597 68.8775 31.9161 68.5868 31.9161C68.0128 31.9161 67.5778 32.0319 67.2817 32.2615C66.9853 32.4927 66.8376 32.7918 66.8376 33.1592C66.8376 33.4367 66.9173 33.6592 67.0779 33.8258C67.2369 33.9906 67.4362 34.1181 67.6735 34.2073C67.9088 34.2954 68.233 34.391 68.6407 34.4909C69.0973 34.6036 69.4602 34.7133 69.732 34.8203C70.0053 34.9274 70.238 35.088 70.4304 35.3047C70.6229 35.5199 70.7182 35.8118 70.7182 36.1793C70.7182 36.4814 70.6384 36.7563 70.4752 37.0049C70.3116 37.2535 70.0615 37.4517 69.7248 37.6005C69.3862 37.7481 68.9732 37.8218 68.4816 37.8218C68.0246 37.8229 67.5907 37.7447 67.1804 37.5887Z" fill="#74797E"/>
<path d="M79.6026 31.5613V37.7782H79.2283L74.9921 32.3785V37.7782H74.5381V31.5613H74.9215L79.1501 36.9629V31.5613H79.6026Z" fill="#74797E"/>
<path d="M86.0608 37.3706V37.7798H81.7695V31.5613H85.9261V31.9705H82.222V34.4211H85.5358V34.8216H82.222V37.3706H86.0608Z" fill="#74797E"/>
<path d="M91.5308 37.7798L89.3896 34.9013L87.2589 37.7798H86.7256L89.114 34.573L86.893 31.5613H87.4278L89.4085 34.2347L91.3892 31.5613H91.8952L89.6746 34.5642L92.0645 37.7798H91.5308Z" fill="#74797E"/>
<path d="M94.2587 31.9705H92.0195V31.5613H96.9493V31.9705H94.7101V37.7798H94.2587V31.9705Z" fill="#74797E"/>
</g>
</svg>
