<svg width="100" height="50" viewBox="0 0 100 50" fill="none" xmlns="http://www.w3.org/2000/svg">
<path d="M21.7583 25.099C32.8158 25.0489 34.0802 16.799 34.0802 16.799H22.7528C22.617 16.7994 22.4853 16.8454 22.3788 16.9297C22.2723 17.0139 22.1971 17.1315 22.1655 17.2635L21.4989 20.2142C21.4703 20.3334 21.4027 20.4398 21.3069 20.5163C21.211 20.5929 21.0924 20.6352 20.9697 20.6367H19.2795C19.2334 20.6385 19.1875 20.6313 19.1442 20.6153C19.101 20.5994 19.0613 20.5751 19.0274 20.5438C18.9936 20.5125 18.9663 20.4748 18.947 20.433C18.9277 20.3911 18.9169 20.3459 18.9151 20.2998C18.9151 20.2642 18.9151 20.2279 18.9288 20.1923L19.5881 17.2635C19.599 17.2151 19.6001 17.165 19.5916 17.1161C19.583 17.0672 19.5649 17.0205 19.5383 16.9786C19.5116 16.9367 19.477 16.9005 19.4363 16.872C19.3956 16.8436 19.3498 16.8234 19.3013 16.8127C19.2722 16.8054 19.2439 16.8054 19.2165 16.8054H16.0647C16.0647 16.8054 6.03083 16.8054 3.80414 26.2301L2 33.9702H5.48062C5.48062 33.9702 10.809 34.0348 11.8828 29.1516L12.4346 26.853C12.5542 26.3553 12.8372 25.912 13.2383 25.5941C13.6395 25.2761 14.1357 25.1018 14.6475 25.099H21.7583ZM22.954 13.7902L23.5907 10.9899C23.615 10.88 23.5949 10.7649 23.5346 10.6698C23.4744 10.5747 23.3789 10.5074 23.2691 10.4825C23.24 10.4752 23.2109 10.4752 23.1754 10.4752H21.6645C21.5027 10.4707 21.3443 10.5225 21.2163 10.6216C21.0883 10.7207 20.9986 10.8611 20.9624 11.0189L20.3322 13.8403C20.3012 13.9733 20.2264 14.092 20.12 14.1776C20.0135 14.2631 19.8814 14.3105 19.7449 14.3121H14.9182C14.9182 14.3121 6.32411 14.3121 8.33751 6.00404C8.33751 6.00404 9.92673 6.03313 22.323 6.00404C35.4715 5.96849 34.5553 14.3477 34.5844 14.3121H23.3701C23.2563 14.3119 23.1472 14.2667 23.0667 14.1863C22.9862 14.1059 22.9407 13.9969 22.9403 13.8831C22.9403 13.854 22.9467 13.8249 22.954 13.7894V13.7902ZM77.5734 25.2573L87.0053 16.7917L80.4012 16.7658C79.5181 16.7836 79.1481 17.0931 78.4775 17.6344L73.8157 21.8551L77.3246 6.49608L77.4021 6.03313C77.4027 6.02918 77.4024 6.02516 77.4014 6.02131C77.4003 6.01746 77.3985 6.01388 77.396 6.01077C77.3935 6.00766 77.3904 6.0051 77.3868 6.00325C77.3833 6.0014 77.3794 6.00029 77.3755 6L74.5614 6.00404C72.8801 6.07999 71.5486 7.25635 71.0961 8.81003C71.0275 9.04675 65.3824 34.0195 65.3824 34.0195C65.3791 34.0356 68.1528 34.0453 68.1633 34.0453C69.8826 33.8942 71.164 32.9514 71.7029 31.1844L72.4308 27.9817C72.4187 27.9575 72.4349 27.9559 72.4308 27.9817L75.1682 32.0869C76.0795 33.6123 77.2147 33.9904 78.2109 33.9904H83.0715L77.5742 25.2565C77.5661 25.2662 77.5669 25.246 77.5742 25.2565H77.5726L77.5734 25.2573ZM67.3335 16.3918C64.6083 16.4233 61.135 16.5663 59.4941 18.9788L59.9804 16.8006H56.1266C55.5474 16.8008 54.9857 16.9982 54.5338 17.3604C54.0819 17.7225 53.7668 18.2278 53.6405 18.793L50.2439 34.0518H54.1285C54.699 34.0517 55.2524 33.8571 55.6974 33.5002C56.1425 33.1433 56.4526 32.6453 56.5766 32.0885L57.7772 26.7052C57.9388 25.9788 58.2369 25.2856 58.6877 24.6934C59.1733 24.0502 59.8024 23.5293 60.525 23.1725C61.2476 22.8156 62.0436 22.6326 62.8495 22.638C62.9125 22.638 62.9747 22.6404 63.0377 22.642V22.6372H65.9366L67.3319 16.3918H67.3335ZM49.8917 18.4682C49.4012 17.8339 48.4753 16.3918 42.8916 16.3918C37.3087 16.3918 36.1703 18.4924 35.6444 19.239C35.158 19.9257 34.8219 20.7692 34.6458 21.7533H40.1672C40.3061 21.4009 40.5564 21.1036 40.8799 20.9066C41.4074 20.581 41.9932 20.4234 42.6694 20.4234C42.924 20.4234 43.1987 20.4476 43.4895 20.4937C43.7424 20.5357 43.9832 20.6141 44.2037 20.728C44.4001 20.8298 44.5592 20.9623 44.6885 21.1352C44.7895 21.2717 44.8404 21.4778 44.8404 21.7517C44.8404 21.9916 44.8065 22.3124 44.6441 22.4796C44.48 22.6509 44.19 22.7963 43.8014 22.8981C43.3312 23.0218 42.7244 23.1163 41.9916 23.1753C41.0763 23.2516 40.1626 23.3459 39.251 23.458C37.1698 23.702 35.5224 24.3435 34.3565 25.3632C33.143 26.424 32.5265 27.8468 32.5265 29.5968C32.5265 30.2399 32.6493 30.8637 32.8885 31.4502C33.1317 32.0481 33.5146 32.5821 34.0269 33.0322C34.5246 33.4717 35.1499 33.8223 35.8803 34.0785C36.6026 34.3305 37.4469 34.4582 38.3906 34.4582C39.3981 34.4582 40.3878 34.2821 41.3315 33.9338C41.7816 33.7686 42.2111 33.5517 42.6113 33.2875L42.8989 33.092C42.874 33.2073 42.8751 33.3268 42.9024 33.4417C42.9296 33.5566 42.9821 33.6639 43.0562 33.7559C43.1302 33.8478 43.2239 33.922 43.3303 33.9731C43.4367 34.0241 43.5532 34.0508 43.6713 34.051H48.0342L49.1088 29.1613L50.458 23.0177C50.5792 22.3027 50.6398 21.6491 50.6398 21.0738V20.947C50.6398 19.9451 50.391 19.1113 49.8957 18.4722L49.8917 18.4682ZM43.5485 27.0445C43.4277 27.4648 43.2806 27.8772 43.1082 28.279C42.9525 28.6424 42.7349 28.9759 42.465 29.2647C42.1984 29.5475 41.8655 29.7842 41.4729 29.966C41.0923 30.1438 40.5995 30.2343 40.0089 30.2343C39.4805 30.2343 39.0329 30.1179 38.6427 29.8772C38.3413 29.6913 38.2112 29.4473 38.2112 29.0636C38.2112 28.6798 38.2775 28.3744 38.4067 28.1506C38.5417 27.9187 38.7113 27.741 38.9254 27.6093C39.1678 27.4574 39.4546 27.3426 39.7819 27.2667C40.1438 27.181 40.5211 27.118 40.9065 27.0776C41.5601 27.0358 42.2126 26.9778 42.8634 26.9039C43.1243 26.874 43.3804 26.8256 43.6285 26.7585L43.5485 27.0445ZM7.0246 37.223L4.54179 40.4725L4.08773 43.0482H2.94691L3.40501 40.4531L2.06464 37.2246H3.28786L4.1055 39.3681L5.65918 37.2238L7.0246 37.223ZM12.4742 43.1638C11.6307 43.1638 10.9633 42.8568 10.4689 42.2452C9.97521 41.6327 9.80635 40.9015 9.96147 40.0524C10.1061 39.1927 10.5028 38.4866 11.1556 37.9348C11.8084 37.3829 12.58 37.1058 13.4736 37.1058C14.3058 37.1058 14.9691 37.4145 15.466 38.0293C15.9629 38.645 16.1366 39.377 15.9863 40.2261C15.836 41.0858 15.4369 41.7911 14.7873 42.3397C14.1377 42.8891 13.367 43.1638 12.4742 43.1638ZM12.6075 42.0407C13.14 42.045 13.6559 41.8558 14.0594 41.5083C14.4782 41.1635 14.7576 40.6783 14.8455 40.1429C14.94 39.5886 14.8398 39.1289 14.5457 38.7661C14.2508 38.4026 13.8348 38.2208 13.2975 38.2208C12.7594 38.2208 12.2827 38.4001 11.8698 38.7573C11.4586 39.1114 11.1861 39.5997 11.1007 40.1356C11.0005 40.6899 11.0942 41.1464 11.3802 41.5043C11.6662 41.8622 12.0751 42.0415 12.6083 42.0415L12.6075 42.0407ZM22.0564 43.1638C21.3696 43.1638 20.8396 42.9755 20.4655 42.5982C20.0915 42.2209 19.9606 41.7353 20.0705 41.1423L20.7613 37.223H21.9021L21.2266 41.0502C21.1773 41.3499 21.2226 41.5899 21.364 41.7693C21.5062 41.9503 21.7623 42.0399 22.1339 42.0399C22.5056 42.0399 22.794 41.9486 23.0033 41.7652C23.2109 41.5826 23.3402 41.3451 23.3903 41.0502L24.0657 37.223H25.2066L24.5158 41.1415C24.3986 41.7959 24.1199 42.2969 23.6763 42.6443C23.2336 42.9909 22.6939 43.1638 22.0564 43.1638ZM33.6932 39.2364C33.6278 39.6095 33.4637 39.9584 33.2179 40.2466C32.9721 40.5349 32.6536 40.7521 32.2955 40.8757L33.1777 43.0474H32.0119L31.1999 41.0252H30.2409L29.8829 43.0466H28.7421L29.7714 37.223H32.0385C32.5653 37.223 32.9959 37.425 33.3312 37.8297C33.6673 38.2345 33.7869 38.7039 33.6932 39.2364ZM32.2195 39.7696C32.3973 39.6024 32.5088 39.398 32.5532 39.154C32.5968 38.91 32.5532 38.7064 32.4191 38.5432C32.2858 38.3791 32.0943 38.2975 31.8454 38.2975H30.7224L30.4186 40.0209H31.6022C31.8365 40.0209 32.041 39.9385 32.2187 39.772L32.2195 39.7696ZM45.8495 43.1638C45.2678 43.1638 44.762 43.0224 44.3346 42.7404C43.9174 42.4691 43.598 42.0713 43.4233 41.6053C43.2431 41.1302 43.2003 40.6139 43.294 40.0524C43.4168 39.2263 43.8389 38.4741 44.48 37.9388C45.1059 37.3938 45.9101 37.0977 46.7399 37.1066C47.2949 37.1066 47.774 37.2286 48.1756 37.4726C48.5771 37.7158 48.8761 38.0543 49.07 38.4882L48.0213 39.0376C47.7595 38.4931 47.2973 38.2216 46.6316 38.2216C46.0765 38.2216 45.595 38.3993 45.1878 38.7548C44.7798 39.1103 44.5285 39.5709 44.4348 40.1364C44.3346 40.6971 44.4235 41.1544 44.7014 41.5099C44.9786 41.8654 45.3874 42.0432 45.9255 42.0432C46.6461 42.0432 47.2093 41.7604 47.6141 41.1932L48.5537 41.8008C48.237 42.2209 47.8427 42.5546 47.3676 42.7994C46.8987 43.0424 46.3777 43.168 45.8495 43.1654V43.1638ZM56.3827 43.0482L56.1985 42.0003H53.8304L53.2826 43.0482H52.0408L55.0908 37.2246H56.5346L57.5582 43.0482H56.3827ZM54.3903 40.9266H56.0086L55.6588 38.4963L54.3903 40.9266ZM66.6274 39.2364C66.5619 39.6095 66.3978 39.9583 66.152 40.2465C65.9062 40.5348 65.5877 40.752 65.2297 40.8757L66.1111 43.0474H64.9453L64.1333 41.0252H63.1742L62.8163 43.0466H61.6755L62.7048 37.223H64.9719C65.4987 37.223 65.9293 37.425 66.2646 37.8297C66.6007 38.2345 66.7211 38.7039 66.6274 39.2364ZM65.1529 39.7696C65.3306 39.6024 65.4421 39.398 65.4866 39.154C65.5302 38.91 65.4866 38.7064 65.3525 38.5432C65.2192 38.3791 65.0277 38.2975 64.7788 38.2975H63.6558L63.352 40.0209H64.5348C64.7691 40.0209 64.9735 39.9385 65.1513 39.772L65.1521 39.7688L65.1529 39.7696ZM79.7888 43.0482L79.6046 42.0003H77.2365L76.6887 43.0482H75.4469L78.4969 37.2246H79.9407L80.9644 43.0482H79.7888ZM77.7964 40.9266H79.4147L79.0649 38.4963L77.7964 40.9266ZM88.1922 37.223C88.7796 37.223 89.2353 37.4153 89.5568 37.8007C89.8792 38.186 89.9947 38.6652 89.9067 39.2364C89.8365 39.7721 89.566 40.2614 89.1496 40.6058C88.7287 40.9581 88.1906 41.1342 87.5353 41.1342H86.5626L86.2241 43.0491H85.0832L86.1126 37.2238H88.193L88.1922 37.223ZM88.7683 39.154C88.8184 38.8938 88.7796 38.6845 88.6519 38.5302C88.5235 38.3751 88.3134 38.2975 88.0185 38.2975H87.0619L86.75 40.0621H87.6525C87.9579 40.0621 88.2068 39.9797 88.4015 39.8132C88.5973 39.6437 88.7269 39.4105 88.7675 39.1548L88.7683 39.154ZM96.6546 37.223C97.242 37.223 97.6977 37.4153 98.0192 37.8007C98.3416 38.186 98.4571 38.6652 98.3691 39.2364C98.2989 39.7721 98.0284 40.2614 97.612 40.6058C97.1911 40.9581 96.653 41.1342 95.9978 41.1342H95.025L94.6865 43.0491H93.5456L94.575 37.2238H96.6554L96.6546 37.223ZM97.2307 39.154C97.2808 38.8938 97.242 38.6845 97.1135 38.5302C96.9859 38.3751 96.775 38.2975 96.4809 38.2975H95.5243L95.2116 40.0621H96.1149C96.4203 40.0621 96.6692 39.9797 96.8631 39.8132C97.0594 39.6442 97.1891 39.4108 97.2291 39.1548L97.2307 39.154Z" fill="#74797E"/>
<path d="M94.2554 22.8689L95.0416 19.3996C95.0565 19.3321 95.0562 19.2622 95.0406 19.1949C95.0249 19.1276 94.9944 19.0646 94.9512 19.0107C94.908 18.9567 94.8533 18.9131 94.7911 18.8831C94.7288 18.8531 94.6606 18.8374 94.5915 18.8373H90.4654L89.5516 22.8689L88.54 27.3352H97.5599L98.4446 23.4304C98.4598 23.363 98.4595 23.2929 98.444 23.2256C98.4284 23.1582 98.3979 23.0952 98.3547 23.0412C98.3115 22.9872 98.2567 22.9436 98.1943 22.9137C98.132 22.8837 98.0637 22.8681 97.9946 22.8681L94.2554 22.8689Z" fill="#8E9093"/>
<path d="M88.5422 27.5075L87.7569 30.9768C87.7416 31.0442 87.7417 31.1143 87.7572 31.1818C87.7727 31.2492 87.8032 31.3123 87.8464 31.3663C87.8897 31.4203 87.9445 31.4639 88.0069 31.4938C88.0693 31.5238 88.1377 31.5392 88.2069 31.5391H92.3322L93.246 27.5075L94.2576 23.0411H85.2377L84.353 26.9459C84.3378 27.0134 84.3381 27.0834 84.3536 27.1508C84.3692 27.2182 84.3997 27.2812 84.4429 27.3352C84.4862 27.3892 84.5409 27.4328 84.6033 27.4627C84.6656 27.4927 84.7339 27.5082 84.803 27.5083L88.5422 27.5075Z" fill="#74797E"/>
</svg>
