<svg width="100" height="50" viewBox="0 0 100 50" fill="none" xmlns="http://www.w3.org/2000/svg">
<path d="M18.1958 13.2377C16.9966 12.4132 15.4317 12 13.501 12H6.0268C5.43495 12 5.10798 12.296 5.04586 12.8873L2.00953 31.9468C1.97797 32.134 2.02481 32.3052 2.1496 32.4609C2.27368 32.6168 2.42975 32.6943 2.61665 32.6943H6.16687C6.78956 32.6943 7.13182 32.399 7.19464 31.8069L8.03536 26.6686C8.06606 26.4196 8.17558 26.2171 8.36248 26.0612C8.54925 25.9056 8.78285 25.8038 9.06313 25.7571C9.34342 25.7108 9.60772 25.6876 9.85731 25.6876C10.1062 25.6876 10.4019 25.7033 10.745 25.7342C11.0873 25.7654 11.3054 25.7805 11.399 25.7805C14.077 25.7805 16.1791 25.0259 17.7054 23.5151C19.2309 22.0048 19.9945 19.9106 19.9945 17.2319C19.9945 15.3947 19.3945 14.0634 18.1958 13.2377ZM14.3421 18.9605C14.1858 20.0507 13.7815 20.7666 13.1275 21.1093C12.4734 21.4524 11.5392 21.6229 10.3248 21.6229L8.78313 21.6697L9.57745 16.6712C9.63942 16.329 9.84174 16.1576 10.1846 16.1576H11.0724C12.3175 16.1576 13.2212 16.3371 13.7818 16.6946C14.3421 17.053 14.529 17.8087 14.3421 18.9605Z" fill="#74797E"/>
<path d="M97.073 12H93.6165C93.2731 12 93.0709 12.1713 93.0092 12.5139L89.9726 31.9468L89.9258 32.0402C89.9258 32.1967 89.9882 32.3439 90.113 32.4841C90.2369 32.6241 90.3933 32.6942 90.5799 32.6942H93.6633C94.2542 32.6942 94.5813 32.3989 94.6444 31.8068L97.6807 12.7004V12.654C97.6806 12.218 97.4776 12 97.073 12Z" fill="#74797E"/>
<path d="M55.3106 19.5208C55.3106 19.3654 55.2479 19.2172 55.1242 19.0773C54.9992 18.9372 54.8589 18.8668 54.7036 18.8668H51.1066C50.7633 18.8668 50.4832 19.0233 50.2657 19.3339L45.3141 26.6216L43.2588 19.6144C43.1025 19.1164 42.7601 18.8668 42.2311 18.8668H38.7271C38.571 18.8668 38.4308 18.9371 38.307 19.0773C38.1821 19.2172 38.1201 19.3656 38.1201 19.5208C38.1201 19.5836 38.4238 20.5019 39.0309 22.277C39.6381 24.0524 40.2922 25.9677 40.993 28.0234C41.6938 30.0785 42.0593 31.1691 42.0907 31.2929C39.5368 34.7811 38.2602 36.6498 38.2602 36.8985C38.2602 37.3037 38.4625 37.5059 38.8675 37.5059H42.4645C42.8071 37.5059 43.0872 37.3505 43.3054 37.039L55.2175 19.8478C55.2795 19.7858 55.3106 19.6773 55.3106 19.5208Z" fill="#74797E"/>
<path d="M88.8041 18.8668H85.2536C84.8174 18.8668 84.5534 19.3807 84.46 20.4084C83.6494 19.1634 82.171 18.5397 80.0218 18.5397C77.7795 18.5397 75.8716 19.3807 74.2994 21.0624C72.7265 22.7443 71.9404 24.7221 71.9404 26.9953C71.9404 28.8331 72.4774 30.2966 73.5518 31.3862C74.6262 32.477 76.0665 33.0213 77.8733 33.0213C78.7761 33.0213 79.6948 32.8341 80.6291 32.4607C81.5635 32.087 82.2947 31.589 82.825 30.9659C82.825 30.9971 82.7933 31.1371 82.7314 31.3861C82.6686 31.6357 82.6379 31.8229 82.6379 31.9467C82.6379 32.4455 82.8398 32.694 83.2453 32.694H86.4688C87.0597 32.694 87.4028 32.3987 87.496 31.8066L89.4115 19.6143C89.4422 19.4274 89.3955 19.2563 89.2713 19.1004C89.1464 18.9449 88.991 18.8668 88.8041 18.8668ZM82.708 28.0696C81.9138 28.8482 80.9563 29.2373 79.8352 29.2373C78.9316 29.2373 78.2004 28.9886 77.6396 28.49C77.0788 27.9925 76.7986 27.3073 76.7986 26.4346C76.7986 25.283 77.1878 24.3092 77.9665 23.515C78.7443 22.7209 79.7105 22.3238 80.863 22.3238C81.7341 22.3238 82.4583 22.5808 83.035 23.0945C83.6107 23.6084 83.8994 24.3172 83.8994 25.2203C83.8993 26.3413 83.5021 27.2914 82.708 28.0696Z" fill="#74797E"/>
<path d="M35.737 18.8668H32.1868C31.7502 18.8668 31.486 19.3807 31.3925 20.4084C30.5516 19.1634 29.0722 18.5397 26.9546 18.5397C24.7123 18.5397 22.8045 19.3807 21.232 21.0624C19.6591 22.7443 18.873 24.7221 18.873 26.9953C18.873 28.8331 19.4103 30.2966 20.4848 31.3862C21.5593 32.477 22.9993 33.0213 24.8058 33.0213C25.6773 33.0213 26.581 32.8341 27.5151 32.4607C28.4494 32.087 29.1969 31.589 29.7574 30.9659C29.6325 31.3395 29.5705 31.6667 29.5705 31.9467C29.5705 32.4455 29.7729 32.694 30.1778 32.694H33.401C33.9923 32.694 34.3353 32.3987 34.4288 31.8066L36.344 19.6143C36.3747 19.4274 36.328 19.2563 36.2039 19.1004C36.0793 18.9449 35.9238 18.8668 35.737 18.8668ZM29.6408 28.0927C28.8465 28.8566 27.8728 29.2373 26.7212 29.2373C25.8176 29.2373 25.0935 28.9886 24.5489 28.49C24.0036 27.9925 23.7313 27.3073 23.7313 26.4346C23.7313 25.283 24.1204 24.3092 24.8993 23.515C25.6773 22.7209 26.6429 22.3238 27.7956 22.3238C28.6671 22.3238 29.3912 22.5808 29.9679 23.0945C30.5436 23.6084 30.832 24.3172 30.832 25.2203C30.832 26.3726 30.435 27.3305 29.6408 28.0927Z" fill="#74797E"/>
<path d="M71.2632 13.2377C70.0641 12.4132 68.4995 12 66.5686 12H59.141C58.5178 12 58.1751 12.296 58.1133 12.8873L55.0769 31.9467C55.0454 32.1339 55.0921 32.3051 55.217 32.4607C55.3407 32.6166 55.4971 32.6942 55.6841 32.6942H59.5144C59.8881 32.6942 60.1371 32.492 60.2619 32.0871L61.1029 26.6685C61.1337 26.4195 61.2428 26.217 61.4299 26.0611C61.6168 25.9054 61.8501 25.8036 62.1307 25.757C62.4108 25.7107 62.6751 25.6874 62.9248 25.6874C63.1737 25.6874 63.4694 25.7031 63.8121 25.7341C64.1547 25.7652 64.3733 25.7804 64.4661 25.7804C67.1446 25.7804 69.2464 25.0257 70.7726 23.5149C72.2986 22.0047 73.0616 19.9105 73.0616 17.2318C73.0618 15.3947 72.4619 14.0634 71.2632 13.2377ZM66.4751 20.9224C65.7898 21.3894 64.7621 21.6229 63.392 21.6229L61.8971 21.6697L62.6914 16.6712C62.7531 16.329 62.9554 16.1576 63.2985 16.1576H64.1391C64.824 16.1576 65.369 16.1888 65.7746 16.2509C66.1788 16.3137 66.5686 16.5077 66.9423 16.8347C67.3162 17.1618 67.5028 17.6369 67.5028 18.2597C67.5028 19.5676 67.1599 20.455 66.4751 20.9224Z" fill="#74797E"/>
</svg>
