<svg width="100" height="50" viewBox="0 0 100 50" fill="none" xmlns="http://www.w3.org/2000/svg">
<path d="M11.4749 39C11.4569 38.9878 11.4371 38.9712 11.4163 38.9536C11.0795 38.5505 8.99725 36.0303 6.87554 32.7979C6.23914 31.7679 5.82589 30.9646 5.90525 30.7569C6.11282 30.2167 9.81171 29.9211 10.9508 30.4108C11.2973 30.5594 11.2885 30.7562 11.2885 30.8707C11.2885 31.3652 11.2632 32.6919 11.2632 32.6919C11.2634 32.9661 11.4941 33.1885 11.7782 33.188C12.0627 33.188 12.2925 32.9648 12.2916 32.6899L12.2862 29.384C12.2862 29.097 11.961 29.0254 11.9001 29.0142C11.3055 29.0107 10.0981 29.0072 8.8017 29.0072C5.94109 29.0072 5.30185 29.1206 4.81588 28.8137C3.76292 28.1485 2.04125 23.6651 2.0011 21.1426C1.94394 17.584 4.12636 14.5031 7.19948 12.9766C8.48337 12.352 9.9335 12 11.4651 12C16.3291 12 20.3348 15.547 20.8678 20.1106C20.8682 20.114 20.8682 20.1192 20.8692 20.1227C20.967 21.226 14.6733 21.4604 13.4284 21.1394C13.2376 21.0901 13.1887 20.9013 13.1887 20.8201C13.1873 19.9811 13.1815 17.6203 13.1815 17.6203C13.1806 17.3459 12.9499 17.1233 12.6658 17.124C12.3822 17.1245 12.1515 17.3475 12.1515 17.6223L12.1623 21.9713C12.1712 22.2452 12.409 22.3192 12.4742 22.3315C13.1822 22.3317 14.8377 22.3301 16.3797 22.3301C18.4639 22.3301 19.3393 22.5635 19.9218 22.9919C20.3091 23.2773 20.4591 23.8235 20.328 24.5335C19.1594 30.849 11.753 38.6738 11.4749 39ZM31.5583 24.2601C33.4266 25.0337 34.5842 25.8921 34.5842 27.7761C34.5842 29.7007 33.0753 30.9439 30.7406 30.9439C28.8486 30.9439 27.33 30.1159 26.5736 28.6718L26.4512 28.439L28.6757 27.1937L28.8214 27.4238C29.3223 28.2148 29.8822 28.552 30.6945 28.552C31.3947 28.552 31.865 28.2523 31.865 27.8057C31.865 27.3111 31.5245 27.1257 30.4721 26.6805L29.9372 26.4589C28.5097 25.8711 27.1874 25.0543 27.1874 23.076C27.1874 21.2982 28.5978 20.0566 30.6175 20.0566C32.1477 20.0566 33.1964 20.6289 33.9183 21.857L34.0522 22.0851L31.8969 23.4232L31.7485 23.1664C31.3881 22.5437 31.0488 22.4188 30.6176 22.4188C30.1668 22.4188 29.8764 22.659 29.8764 23.0315C29.8764 23.4595 30.0903 23.6474 31.0228 24.0377L31.5583 24.2601ZM47.3036 24.6244L48.874 20.3939H51.5693L47.5747 31.1184H46.9761L44.5531 26.0959C44.4404 25.8658 44.3242 25.5799 44.2241 25.3181C44.1217 25.5804 44.0026 25.8669 43.8898 26.097L41.372 31.1184H40.7774L36.7189 20.3939H39.5981L41.1857 24.6244C41.2871 24.8942 41.3909 25.2231 41.4818 25.5283C41.5897 25.2133 41.7194 24.8732 41.8549 24.599L43.9401 20.3056H44.5169L46.6344 24.5995C46.7694 24.8734 46.8996 25.2138 47.0071 25.5288C47.0984 25.2231 47.203 24.8942 47.3036 24.6244ZM54.7125 30.8105V20.1748H57.4328V30.8105H54.7125ZM66.3521 27.2371V24.8602H71.4034V29.6269L71.299 29.7101C70.7211 30.1685 69.1891 30.944 67.1136 30.944C63.6124 30.944 61.1681 28.7025 61.1681 25.4931C61.1681 22.3431 63.5267 20.0567 66.7764 20.0567C68.5635 20.0567 69.8734 20.5433 70.7802 21.5448L70.9572 21.7405L69.103 23.514L68.9016 23.3135C68.3838 22.7976 67.8472 22.478 66.7764 22.478C65.1118 22.478 63.949 23.7178 63.949 25.4931C63.949 27.3424 65.1906 28.5377 67.1135 28.5377C67.7514 28.5377 68.4154 28.4316 68.8674 28.2619V27.2372L66.3521 27.2371ZM80.1377 27.2371V24.8602H85.189V29.6269L85.0846 29.7101C84.5063 30.1685 82.9747 30.944 80.8997 30.944C77.3985 30.944 74.9537 28.7025 74.9537 25.4931C74.9537 22.3431 77.3127 20.0567 80.5616 20.0567C82.3496 20.0567 83.6595 20.5433 84.5658 21.5448L84.7434 21.7405L82.8897 23.514L82.6878 23.3135C82.1697 22.7976 81.6329 22.478 80.5615 22.478C78.8975 22.478 77.7347 23.7178 77.7347 25.4931C77.7347 27.3424 78.9768 28.5377 80.8997 28.5377C81.5375 28.5377 82.2011 28.4316 82.653 28.2619V27.2372L80.1377 27.2371ZM95.1566 20.1748H98L94.0973 27.2522V30.8105H91.3623V27.4033L87.2049 20.1748H90.2388L92.1603 23.5659C92.3669 23.9348 92.5827 24.4224 92.7459 24.8183C92.9017 24.4256 93.1079 23.9424 93.3131 23.5691L95.1566 20.1748Z" fill="#74797E"/>
</svg>
