<svg width="100" height="50" viewBox="0 0 100 50" fill="none" xmlns="http://www.w3.org/2000/svg">
<path d="M87.8329 20.9007H85.7207L88.9324 27.787H90.6395L97.0773 14H94.9796L89.7859 25.1106L87.8329 20.9007Z" fill="#74797E"/>
<path d="M72.7 34.6298H76.8809V26.9768C76.8809 25.2263 77.8936 23.9966 79.3982 23.9966C80.8449 23.9966 81.5972 25.0093 81.5972 26.4705V34.6298H85.7781V25.6748C85.7781 22.6367 83.9553 20.4956 81.004 20.4956C79.1233 20.4956 77.8068 21.3058 76.8231 22.7814H76.7363V20.9007H72.6855L72.7 34.6298ZM64.4828 20.5246C60.1137 20.5246 57.1914 23.6639 57.1914 27.8014C57.1914 31.91 60.1137 35.0783 64.4828 35.0783C68.8518 35.0783 71.7741 31.91 71.7741 27.8014C71.7886 23.6639 68.8518 20.5246 64.4828 20.5246ZM64.4538 31.9824C62.4719 31.9824 61.4158 30.3187 61.4158 27.8014C61.4158 25.2552 62.4574 23.6205 64.4538 23.6205C66.4358 23.6205 67.5353 25.2552 67.5353 27.8014C67.5498 30.3187 66.4503 31.9824 64.4538 31.9824ZM45.2706 34.6298H57.0178V31.3314H50.363V31.2446L56.7285 24.1124V20.8862H45.2706V24.1992H51.7084V24.286L45.2706 31.476V34.6298ZM39.9034 34.6298H44.1133V20.9007H39.9034V34.6298ZM30.1382 34.6298H34.3336V28.3222C34.3336 25.4578 36.0552 24.1847 38.6737 24.5464H38.7605V20.9296C38.5435 20.8428 38.2976 20.8284 37.907 20.8284C36.2722 20.8284 35.1727 21.5806 34.2324 23.1865H34.1456V20.9007H30.1382V34.6298ZM22.4418 31.9968C20.59 31.9968 19.4616 30.7961 19.2446 28.9443H29.14C29.1689 25.9931 28.3877 23.6349 26.753 22.1593C25.5956 21.0888 24.0766 20.4956 22.138 20.4956C18.0004 20.4956 15.136 23.6349 15.136 27.7436C15.136 31.8811 17.8702 35.0349 22.4129 35.0349C24.1344 35.0349 25.4943 34.572 26.6227 33.8052C27.8235 32.9806 28.6915 31.7654 28.923 30.5646H24.9012C24.5106 31.4616 23.6715 31.9968 22.4418 31.9968ZM22.2248 23.4903C23.7004 23.4903 24.7131 24.5898 24.8867 26.1956H19.2735C19.6063 24.5753 20.4888 23.4903 22.2248 23.4903ZM6.77409 34.6298H11.172L15.9461 20.9007H11.7363L9.05987 29.7255H9.002L6.32562 20.9007H2L6.77409 34.6298ZM39.9034 16.0109H44.1133V19.7433H39.9034V16.0109Z" fill="#74797E"/>
</svg>
