<svg xmlns="http://www.w3.org/2000/svg" xmlns:xlink="http://www.w3.org/1999/xlink" width="614" height="614" viewBox="0 0 614 614">
  <defs>
    <filter id="Ellipse_489" x="0" y="0" width="614" height="614" filterUnits="userSpaceOnUse">
      <feOffset dy="3" input="SourceAlpha"/>
      <feGaussianBlur stdDeviation="7" result="blur"/>
      <feFlood flood-color="#ffcfcf" flood-opacity="0.012"/>
      <feComposite operator="in" in2="blur"/>
      <feComposite in="SourceGraphic"/>
    </filter>
  </defs>
  <g id="symfony_2" data-name="symfony 2" transform="translate(-4061.879 990.121)">
    <g id="ruby-on-rails_2" data-name="ruby-on-rails 2" transform="translate(4083 -972)">
      <g id="django_2" data-name="django 2">
        <g id="codeigniter_2" data-name="codeigniter 2">
          <g id="react-native_2" data-name="react-native 2">
            <g id="laraval_2" data-name="laraval 2">
              <g transform="matrix(1, 0, 0, 1, -21.12, -18.12)" filter="url(#Ellipse_489)">
                <circle id="Ellipse_489-2" data-name="Ellipse 489" cx="286" cy="286" r="286" transform="translate(21 18)" fill="#f8f7f7"/>
              </g>
              <circle id="Ellipse_488" data-name="Ellipse 488" cx="235" cy="235" r="235" transform="translate(50.879 50.879)" fill="#f3f3f3"/>
              <circle id="Ellipse_487" data-name="Ellipse 487" cx="182" cy="182" r="182" transform="translate(103.879 103.879)" fill="#eee"/>
              <path id="Path_19249" data-name="Path 19249" d="M120.818,0A120.818,120.818,0,1,1,0,120.818,120.818,120.818,0,0,1,120.818,0Z" transform="translate(165.061 165.061)" fill="#e9e9e9"/>
            </g>
          </g>
        </g>
      </g>
    </g>
    <path id="Path_17" data-name="Path 17" d="M211.992,48.128c-15.585.544-29.188,9.133-39.314,21.015-11.212,13.028-18.671,28.48-24.045,44.252-9.613-7.879-17.03-18.079-32.454-22.527a39.674,39.674,0,0,0-35.957,6.57,32.251,32.251,0,0,0-11,16.023C64.6,128.508,74.088,141.9,78.4,146.706l9.425,10.1c1.943,1.98,6.622,7.147,4.335,14.554-2.472,8.053-12.182,13.268-22.141,10.2-4.448-1.356-10.837-4.67-9.407-9.336.592-1.908,1.957-3.336,2.69-4.987a23.372,23.372,0,0,0,1.2-3.1c1.819-5.941-.666-13.67-7.029-15.632-5.936-1.819-12.01-.378-14.365,7.266-2.67,8.683,1.485,24.443,23.743,31.305,26.078,8.012,48.139-6.187,51.267-24.707,1.971-11.6-3.267-20.217-12.862-31.3l-7.818-8.646c-4.736-4.731-6.362-12.795-1.461-18.993,4.136-5.228,10.026-7.459,19.673-4.835,14.082,3.824,20.358,13.594,30.832,21.475-4.324,14.185-7.151,28.422-9.709,41.19l-1.559,9.518c-7.487,39.271-13.2,60.834-28.054,73.214-2.992,2.128-7.269,5.313-13.717,5.535-3.38.1-4.472-2.22-4.519-3.233-.08-2.373,1.919-3.46,3.248-4.528,1.985-1.083,4.987-2.878,4.783-8.63-.216-6.8-5.847-12.692-13.987-12.422-6.1.208-15.39,5.946-15.04,16.448C68.287,248,78.4,256.131,93.643,255.616c8.149-.28,26.346-3.6,44.28-24.915,20.873-24.438,26.711-52.453,31.1-72.958l4.9-27.071c2.723.326,5.635.544,8.8.619,26,.548,39-12.917,39.194-22.712.128-5.928-3.89-11.76-9.515-11.628a10.855,10.855,0,0,0-10.3,8.363c-1.186,5.463,8.273,10.393.88,15.182-5.252,3.4-14.667,5.794-27.927,3.848l2.411-13.325c4.921-25.269,10.99-56.352,34.014-57.109,1.678-.085,7.818.076,7.961,4.136.042,1.356-.294,1.7-1.882,4.807a11.011,11.011,0,0,0-2.151,6.849c.222,6.452,5.128,10.692,12.224,10.437,9.5-.307,12.233-9.557,12.077-14.307-.384-11.162-12.148-18.212-27.724-17.7Z" transform="translate(4227.824 -837.992)" fill="#1a171b"/>
  </g>
</svg>
