<svg xmlns="http://www.w3.org/2000/svg" width="37" height="37" viewBox="0 0 37 37">
  <g id="amazon-marketing" transform="translate(-775 -976)">
    <path id="amazon-icon" d="M.034,13.654q.086-.141.274-.018a17.925,17.925,0,0,0,9.332,2.551A18.055,18.055,0,0,0,16.28,14.9l.249-.106q.163-.07.232-.106a.3.3,0,0,1,.4.106q.146.211-.094.387-.309.229-.789.528a12.68,12.68,0,0,1-3.294,1.39,13.548,13.548,0,0,1-3.551.493,13.435,13.435,0,0,1-5.061-.959A13.882,13.882,0,0,1,.1,13.935a.242.242,0,0,1-.1-.176A.192.192,0,0,1,.034,13.654ZM5.2,8.639A3.5,3.5,0,0,1,7.376,5.261,8.456,8.456,0,0,1,9.658,4.68q.463-.053,1.51-.141v-.3a3.2,3.2,0,0,0-.24-1.513A1.274,1.274,0,0,0,9.8,2.2H9.658a1.849,1.849,0,0,0-.978.369,1.448,1.448,0,0,0-.532.88.443.443,0,0,1-.343.4L5.832,3.607q-.292-.07-.292-.317a.529.529,0,0,1,.017-.123A3.382,3.382,0,0,1,6.99.845,5.282,5.282,0,0,1,9.658,0h.429A4.267,4.267,0,0,1,13.14,1.038a3.33,3.33,0,0,1,.317.378,3.418,3.418,0,0,1,.232.361,1.878,1.878,0,0,1,.154.457q.069.3.1.413A2.574,2.574,0,0,1,14,3.141q.017.378.017.449V7.847a2.583,2.583,0,0,0,.129.836,2.2,2.2,0,0,0,.249.545q.12.167.395.537a.535.535,0,0,1,.1.282.306.306,0,0,1-.137.246l-1.544,1.372a.468.468,0,0,1-.5.035q-.24-.211-.42-.4t-.257-.282a3.923,3.923,0,0,1-.249-.343q-.172-.255-.24-.343a4.209,4.209,0,0,1-1.887,1.337,5.056,5.056,0,0,1-1.441.176,2.964,2.964,0,0,1-2.17-.836A3.171,3.171,0,0,1,5.2,8.639Zm2.951-.352a1.7,1.7,0,0,0,.335,1.1,1.1,1.1,0,0,0,.9.413.856.856,0,0,0,.146-.018.856.856,0,0,1,.129-.018,1.754,1.754,0,0,0,1.115-.95,2.8,2.8,0,0,0,.283-.73,3.423,3.423,0,0,0,.1-.642q.009-.246.009-.809v-.44a6.1,6.1,0,0,0-1.51.141A1.877,1.877,0,0,0,8.148,8.287Zm7.2,5.666a.55.55,0,0,1,.1-.141,2.664,2.664,0,0,1,.823-.4,5.463,5.463,0,0,1,1.269-.194,1,1,0,0,1,.326.018q.772.07.926.264a.588.588,0,0,1,.069.317v.123a4.1,4.1,0,0,1-.326,1.452,3.381,3.381,0,0,1-.909,1.346.256.256,0,0,1-.154.07.149.149,0,0,1-.069-.018q-.1-.053-.051-.194a6.845,6.845,0,0,0,.635-2.129.46.46,0,0,0-.069-.282q-.172-.211-.961-.211-.292,0-.686.035-.429.053-.789.106a.2.2,0,0,1-.137-.035.058.058,0,0,1-.017-.07A.137.137,0,0,1,15.353,13.953Z" transform="translate(784 986)" fill="#292d32"/>
    <path id="Vector" d="M25.384,37H3.012A3.026,3.026,0,0,1,0,33.988V11.616C0,4.01,4.01,0,11.616,0H25.384C32.99,0,37,4.01,37,11.616V25.384C37,32.99,32.99,37,25.384,37ZM11.616,2.581c-6.161,0-9.035,2.874-9.035,9.035V33.988a.426.426,0,0,0,.43.43H25.384c6.161,0,9.035-2.874,9.035-9.035V11.616c0-6.161-2.874-9.035-9.035-9.035Z" transform="translate(775 976)" fill="#db1010"/>
  </g>
</svg>
