<svg xmlns="http://www.w3.org/2000/svg" width="35" height="35" viewBox="0 0 35 35">
  <g id="buy-now-pay-later" transform="translate(-295.87 -903.543)">
    <g id="vuesax_outline_empty-wallet-time" data-name="vuesax/outline/empty-wallet-time" transform="translate(303.334 910.342)">
      <g id="empty-wallet-time" transform="translate(0)">
        <path id="Vector" d="M13.34,13.165H4.9a.629.629,0,0,1-.409-1.1A2.711,2.711,0,0,0,2.707,7.309a2.7,2.7,0,0,0-1.7.6.631.631,0,0,1-.66.075A.621.621,0,0,1,0,7.418V3.767A3.768,3.768,0,0,1,3.767,0h9.59a3.768,3.768,0,0,1,3.767,3.767v1.2A.631.631,0,0,1,16.5,5.6H14.811a1.027,1.027,0,0,0-.752.309l-.008.008a1.055,1.055,0,0,0-.317.852,1.164,1.164,0,0,0,1.178.994H16.5a.631.631,0,0,1,.627.627v.994A3.8,3.8,0,0,1,13.34,13.165ZM6.19,11.912H13.34A2.517,2.517,0,0,0,15.855,9.4V9.03h-.961a2.4,2.4,0,0,1-2.431-2.138,2.352,2.352,0,0,1,2.331-2.539h1.061V3.776A2.517,2.517,0,0,0,13.34,1.261H3.751A2.517,2.517,0,0,0,1.236,3.776V6.349a3.957,3.957,0,0,1,5.43,3.684A3.95,3.95,0,0,1,6.19,11.912Z" transform="translate(1.479 5.839)" fill="#292d32"/>
        <path id="Vector-2" data-name="Vector" d="M.627,9.152A.631.631,0,0,1,0,8.525V5.46A3.015,3.015,0,0,1,1.938,2.644L8.571.138a2.223,2.223,0,0,1,3,2.072V5.384a.627.627,0,1,1-1.253,0V2.21a.952.952,0,0,0-.409-.785.976.976,0,0,0-.894-.117L2.381,3.814A1.739,1.739,0,0,0,1.253,5.46V8.525A.631.631,0,0,1,.627,9.152Z" transform="translate(1.462 1.09)" fill="#292d32"/>
        <path id="Vector-3" data-name="Vector" d="M2.441,4.678A2.4,2.4,0,0,1,.011,2.539,2.293,2.293,0,0,1,.7.677,2.278,2.278,0,0,1,2.333,0H4.07A1.483,1.483,0,0,1,5.532,1.479V3.2A1.478,1.478,0,0,1,4.1,4.678ZM4.054,1.253H2.341a1.027,1.027,0,0,0-.752.309,1.052,1.052,0,0,0-.326.869,1.164,1.164,0,0,0,1.178.994H4.079A.222.222,0,0,0,4.288,3.2V1.479A.232.232,0,0,0,4.054,1.253Z" transform="translate(13.931 10.191)" fill="#292d32"/>
        <path id="Vector-4" data-name="Vector" d="M6.474,1.253H.627A.631.631,0,0,1,0,.627.631.631,0,0,1,.627,0H6.474A.631.631,0,0,1,7.1.627.631.631,0,0,1,6.474,1.253Z" transform="translate(5.221 9.398)" fill="#292d32"/>
        <path id="Vector-5" data-name="Vector" d="M3.968,7.936a3.974,3.974,0,1,1,2.623-.994A3.971,3.971,0,0,1,3.968,7.936Zm0-6.683a2.715,2.715,0,1,0,0,5.43,2.775,2.775,0,0,0,1.8-.677,2.716,2.716,0,0,0-1.8-4.753Z" transform="translate(0.209 11.904)" fill="#292d32"/>
        <path id="Vector-6" data-name="Vector" d="M.623,3.133A.624.624,0,0,1,.306,1.971l.743-.443v-.9A.627.627,0,1,1,2.3.627V1.88a.628.628,0,0,1-.3.535L.957,3.041A.632.632,0,0,1,.623,3.133Z" transform="translate(2.718 14.201)" fill="#292d32"/>
        <path id="Vector-7" data-name="Vector" d="M0,0H20.048V20.048H0Z" fill="none" opacity="0"/>
      </g>
    </g>
    <path id="Vector-8" data-name="Vector" d="M24.012,35H2.849A2.862,2.862,0,0,1,0,32.151V10.988C0,3.793,3.793,0,10.988,0H24.012C31.207,0,35,3.793,35,10.988V24.012C35,31.207,31.207,35,24.012,35ZM10.988,2.442c-5.828,0-8.547,2.719-8.547,8.547V32.151a.4.4,0,0,0,.407.407H24.012c5.828,0,8.547-2.719,8.547-8.547V10.988c0-5.828-2.719-8.547-8.547-8.547Z" transform="translate(295.87 903.543)" fill="#db1010"/>
  </g>
</svg>
