<svg xmlns="http://www.w3.org/2000/svg" width="37" height="37" viewBox="0 0 37 37">
  <g id="digital-marketing" transform="translate(641.5 46.031)">
    <path id="Path_43543" data-name="Path 43543" d="M-641.5-26.373v-2.312c.019-.081.045-.16.057-.242.123-.844.191-1.7.372-2.531a18.469,18.469,0,0,1,10.113-12.781,18.459,18.459,0,0,1,16.294.208,18.433,18.433,0,0,1,9.7,20.574,18.516,18.516,0,0,1-14.86,14.144c-.673.113-1.353.188-2.03.28h-2.309a1.111,1.111,0,0,0-.206-.055,18.43,18.43,0,0,1-8.079-2.529.589.589,0,0,0-.43-.022c-.627.206-1.247.435-1.868.66q-2.69.972-5.38,1.946h-.361a1.433,1.433,0,0,1-1.011-.939V-10.4c.015-.018.039-.034.044-.055q1.269-3.544,2.541-7.088a.707.707,0,0,0-.062-.67,17.723,17.723,0,0,1-2.24-6.124C-641.331-25.015-641.407-25.7-641.5-26.373Zm3.089,14.252c1.751-.628,3.433-1.2,5.092-1.839a1.882,1.882,0,0,1,1.825.191A15.778,15.778,0,0,0-619.712-11.7a15.6,15.6,0,0,0,9.055-5.41,15.8,15.8,0,0,0,3.647-12.788,15.153,15.153,0,0,0-3.873-8.316,15.763,15.763,0,0,0-15.433-5.143,15.265,15.265,0,0,0-8.982,5.328,15.853,15.853,0,0,0-3.636,13.335,15.324,15.324,0,0,0,2.314,5.9,1.288,1.288,0,0,1,.142,1.267c-.055.133-.1.27-.146.407Z" fill="#db1010"/>
    <g id="Group_41883" data-name="Group 41883" transform="translate(-632.752 -33.313)">
      <path id="Path_43544" data-name="Path 43544" d="M-572.654,68.283c.258.961.5,1.849.735,2.74a.908.908,0,0,1-.139.883.909.909,0,0,1-.828.337.9.9,0,0,1-.774-.722c-.265-.972-.524-1.946-.786-2.919-.027-.1-.056-.2-.091-.318h-1.19a2.68,2.68,0,0,1-2.013-.782,2.68,2.68,0,0,1-.783-2.013,15.214,15.214,0,0,1,.061-2,2.565,2.565,0,0,1,2.376-2.176c1.082-.055,2.169-.022,3.253-.051a12.24,12.24,0,0,0,6.3-1.912,1.519,1.519,0,0,1,.647-.239.845.845,0,0,1,.9.761,2.3,2.3,0,0,1,.016.31V69.4a.951.951,0,0,1-.594,1.022.971.971,0,0,1-.909-.151,11.734,11.734,0,0,0-4.324-1.735C-571.392,68.427-572,68.37-572.654,68.283Zm5.86-6.709a14.33,14.33,0,0,1-5.138,1.451v3.462c.884.182,1.771.314,2.627.554s1.675.586,2.512.886Zm-6.98,1.536c-.748,0-1.473-.022-2.2.009a.81.81,0,0,0-.74.8c-.016.574-.014,1.15,0,1.724a.817.817,0,0,0,.7.808c.739.033,1.481.01,2.234.01Z" transform="translate(578.532 -59.106)" fill="#292d32"/>
      <path id="Path_43545" data-name="Path 43545" d="M-374.935,72.312a.911.911,0,0,1-.444.775c-.51.3-1.022.606-1.541.889a.894.894,0,0,1-.683.085.894.894,0,0,1-.541-.426.893.893,0,0,1-.089-.683.893.893,0,0,1,.424-.543c.5-.3,1-.6,1.515-.876a.907.907,0,0,1,.9,0A.907.907,0,0,1-374.935,72.312Z" transform="translate(393.386 -70.486)" fill="#292d32"/>
      <path id="Path_43546" data-name="Path 43546" d="M-375.844,164.645a3.269,3.269,0,0,1-.5-.179c-.478-.263-.949-.539-1.418-.817a.906.906,0,0,1-.462-.545.906.906,0,0,1,.077-.71.913.913,0,0,1,.583-.433.913.913,0,0,1,.715.13c.492.278.983.557,1.465.85a.878.878,0,0,1,.406,1.022.964.964,0,0,1-.871.683Z" transform="translate(393.384 -154.18)" fill="#292d32"/>
      <path id="Path_43547" data-name="Path 43547" d="M-365.943,124.075c-.292,0-.584.009-.876,0a.9.9,0,0,1-.879-.86.863.863,0,0,1,.777-.92,16.6,16.6,0,0,1,2,0,.866.866,0,0,1,.587.311.866.866,0,0,1,.193.635.9.9,0,0,1-.9.838c-.3.008-.6,0-.9,0Z" transform="translate(383.618 -117.496)" fill="#292d32"/>
    </g>
  </g>
</svg>
