<svg xmlns="http://www.w3.org/2000/svg" width="35" height="35" viewBox="0 0 35 35">
  <g id="multiple-payment-methods" transform="translate(-355 -966)">
    <path id="Vector" d="M17.5,35A17.5,17.5,0,1,1,35,17.5,17.515,17.515,0,0,1,17.5,35Zm0-32.558A15.058,15.058,0,1,0,32.558,17.5,15.076,15.076,0,0,0,17.5,2.442Z" transform="translate(355 966)" fill="#dd1928"/>
    <g id="vuesax_outline_wallet" data-name="vuesax/outline/wallet" transform="translate(363.051 974.051)">
      <g id="wallet" transform="translate(0 0)">
        <path id="Vector-2" data-name="Vector" d="M.562,6.921a.576.576,0,0,1-.4-.165.569.569,0,0,1-.12-.616L1.442,2.8a1.621,1.621,0,0,1,.068-.15C2.622.09,4.042-.534,6.552.428a.553.553,0,0,1,.316.308.568.568,0,0,1,0,.443l-2.2,5.11a.558.558,0,0,1-.519.338H2.005A3.1,3.1,0,0,0,.78,6.876.539.539,0,0,1,.562,6.921ZM4.628,1.127c-.932,0-1.5.609-2.1,1.991-.008.023-.023.045-.03.068L1.517,5.523c.165-.015.323-.023.488-.023H3.771L5.582,1.292A3.147,3.147,0,0,0,4.628,1.127Z" transform="translate(3.345 0.939)" fill="#292d32"/>
        <path id="Vector-3" data-name="Vector" d="M6.815,6.384a.626.626,0,0,1-.165-.023,3.228,3.228,0,0,0-.9-.128H.563A.575.575,0,0,1,.09,5.978a.583.583,0,0,1-.045-.534L2.224.387A.613.613,0,0,1,2.945.026c.09.03.173.068.263.105L4.982.875A5.438,5.438,0,0,1,7.161,2.3a2.742,2.742,0,0,1,.24.338,1.952,1.952,0,0,1,.21.436,1.459,1.459,0,0,1,.083.255,4.171,4.171,0,0,1-.346,2.713A.594.594,0,0,1,6.815,6.384ZM1.42,5.106H5.756a4.407,4.407,0,0,1,.706.06A2.677,2.677,0,0,0,6.6,3.6c-.015-.068-.03-.1-.038-.128a1.34,1.34,0,0,0-.113-.248A1.589,1.589,0,0,0,6.3,3.01,4.467,4.467,0,0,0,4.546,1.9l-1.48-.616Z" transform="translate(6.929 1.334)" fill="#292d32"/>
        <path id="Vector-4" data-name="Vector" d="M10.821,10.656H4.96a5.163,5.163,0,0,1-.6-.038A4.236,4.236,0,0,1,.038,6.267,4.369,4.369,0,0,1,0,5.7V4.231A4.217,4.217,0,0,1,4.231,0h7.334A4.093,4.093,0,0,1,12.79.18,4.264,4.264,0,0,1,15.8,4.231V5.7c0,.165-.008.323-.015.473C15.615,9.108,13.9,10.656,10.821,10.656Zm-6.6-9.529a3.092,3.092,0,0,0-3.1,3.1V5.7c0,.158.015.316.03.466A3.148,3.148,0,0,0,4.456,9.5a4.075,4.075,0,0,0,.5.038h5.861c2.48,0,3.7-1.09,3.817-3.419.008-.135.015-.271.015-.421V4.231a3.137,3.137,0,0,0-2.2-2.976,3.228,3.228,0,0,0-.9-.128Z" transform="translate(1.127 6.44)" fill="#292d32"/>
        <path id="Vector-5" data-name="Vector" d="M.564,7.637A.568.568,0,0,1,0,7.073v-2.2A4.952,4.952,0,0,1,3.99.01a.585.585,0,0,1,.549.2.562.562,0,0,1,.083.571L3.306,3.917a.6.6,0,0,1-.293.3A3.113,3.113,0,0,0,1.135,7.073.574.574,0,0,1,.564,7.637ZM3.089,1.527A3.837,3.837,0,0,0,1.21,4.12a4.1,4.1,0,0,1,1.15-.834Z" transform="translate(1.12 3.597)" fill="#292d32"/>
        <path id="Vector-6" data-name="Vector" d="M3.167,7.219A.568.568,0,0,1,2.6,6.655,3.137,3.137,0,0,0,.4,3.679a.558.558,0,0,1-.361-.744A3.182,3.182,0,0,0,.341.921C.326.854.311.824.3.794A.565.565,0,0,1,.432.155a.558.558,0,0,1,.646-.09A4.936,4.936,0,0,1,3.73,4.453v2.2A.568.568,0,0,1,3.167,7.219Zm-1.886-4.4a4.122,4.122,0,0,1,1.247.894A3.766,3.766,0,0,0,1.514,1.778,5.577,5.577,0,0,1,1.281,2.815Z" transform="translate(13.185 4.016)" fill="#292d32"/>
        <path id="Vector-7" data-name="Vector" d="M0,0H18.035V18.035H0Z" fill="none" opacity="0"/>
      </g>
    </g>
  </g>
</svg>
