<svg xmlns="http://www.w3.org/2000/svg" width="35" height="37" viewBox="0 0 35 37">
  <g id="ppc" transform="translate(-882 -901)">
    <text id="PPC-2" data-name="PPC" transform="translate(889 924)" fill="#292d32" font-size="11" font-family="Poppins-SemiBold, Poppins" font-weight="600"><tspan x="0" y="0">PPC</tspan></text>
    <path id="Vector" d="M17.5,37a6.971,6.971,0,0,1-3.371-.8L4.267,30.685C.251,28.058,0,27.657,0,23.534V13.479C0,9.355.233,8.955,4.178,6.363L14.111.8a7.5,7.5,0,0,1,6.724,0l9.9,5.532C34.749,8.955,35,9.355,35,13.479V23.517c0,4.123-.233,4.523-4.178,7.116L20.889,36.2A7.092,7.092,0,0,1,17.5,37Zm0-34.377a4.208,4.208,0,0,0-2.008.435L5.63,8.59C2.707,10.5,2.707,10.5,2.707,13.479V23.517c0,2.975,0,2.975,2.994,4.941l9.79,5.48a4.808,4.808,0,0,0,4.034,0l9.862-5.532c2.9-1.914,2.9-1.914,2.9-4.889V13.479c0-2.975,0-2.975-2.994-4.941l-9.79-5.48A4.208,4.208,0,0,0,17.5,2.623Z" transform="translate(882 901)" fill="#db1010"/>
  </g>
</svg>
