<svg xmlns="http://www.w3.org/2000/svg" width="35" height="35" viewBox="0 0 35 35">
  <g id="product-category" transform="translate(-235.858 -903.543)">
    <g id="vuesax_outline_element-4" data-name="vuesax/outline/element-4" transform="translate(243.699 911.384)">
      <g id="element-4" transform="translate(0 0)">
        <path id="Vector" d="M5.65,10.061H2.4C.781,10.061,0,9.313,0,7.767V2.294C0,.749.789,0,2.4,0H5.65c1.618,0,2.4.749,2.4,2.294V7.767C8.049,9.313,7.26,10.061,5.65,10.061ZM2.4,1.207c-1.022,0-1.191.274-1.191,1.087V7.767c0,.813.169,1.087,1.191,1.087H5.65c1.022,0,1.191-.274,1.191-1.087V2.294c0-.813-.169-1.087-1.191-1.087Z" transform="translate(10.262 1.006)" fill="#292d32"/>
        <path id="Vector-2" data-name="Vector" d="M5.65,6.037H2.4C.781,6.037,0,5.288,0,3.743V2.294C0,.749.789,0,2.4,0H5.65c1.618,0,2.4.749,2.4,2.294V3.743C8.049,5.288,7.26,6.037,5.65,6.037ZM2.4,1.207c-1.022,0-1.191.274-1.191,1.087V3.743c0,.813.169,1.087,1.191,1.087H5.65c1.022,0,1.191-.274,1.191-1.087V2.294c0-.813-.169-1.087-1.191-1.087Z" transform="translate(10.262 12.274)" fill="#292d32"/>
        <path id="Vector-3" data-name="Vector" d="M5.65,10.061H2.4C.781,10.061,0,9.313,0,7.767V2.294C0,.749.789,0,2.4,0H5.65c1.618,0,2.4.749,2.4,2.294V7.767C8.049,9.313,7.26,10.061,5.65,10.061ZM2.4,1.207c-1.022,0-1.191.274-1.191,1.087V7.767c0,.813.169,1.087,1.191,1.087H5.65c1.022,0,1.191-.274,1.191-1.087V2.294c0-.813-.169-1.087-1.191-1.087Z" transform="translate(1.006 8.25)" fill="#292d32"/>
        <path id="Vector-4" data-name="Vector" d="M5.65,6.037H2.4C.781,6.037,0,5.288,0,3.743V2.294C0,.749.789,0,2.4,0H5.65c1.618,0,2.4.749,2.4,2.294V3.743C8.049,5.288,7.26,6.037,5.65,6.037ZM2.4,1.207c-1.022,0-1.191.274-1.191,1.087V3.743c0,.813.169,1.087,1.191,1.087H5.65c1.022,0,1.191-.274,1.191-1.087V2.294c0-.813-.169-1.087-1.191-1.087Z" transform="translate(1.006 1.006)" fill="#292d32"/>
        <path id="Vector-5" data-name="Vector" d="M0,0H19.317V19.317H0Z" fill="none" opacity="0"/>
        <path id="Vector-6" data-name="Vector" d="M5.65,10.061H2.4C.781,10.061,0,9.313,0,7.767V2.294C0,.749.789,0,2.4,0H5.65c1.618,0,2.4.749,2.4,2.294V7.767C8.049,9.313,7.26,10.061,5.65,10.061ZM2.4,1.207c-1.022,0-1.191.274-1.191,1.087V7.767c0,.813.169,1.087,1.191,1.087H5.65c1.022,0,1.191-.274,1.191-1.087V2.294c0-.813-.169-1.087-1.191-1.087Z" transform="translate(1.006 8.25)" fill="#292d32"/>
      </g>
    </g>
    <path id="Vector-7" data-name="Vector" d="M24.012,35H2.849A2.862,2.862,0,0,1,0,32.151V10.988C0,3.793,3.793,0,10.988,0H24.012C31.207,0,35,3.793,35,10.988V24.012C35,31.207,31.207,35,24.012,35ZM10.988,2.442c-5.828,0-8.547,2.719-8.547,8.547V32.151a.4.4,0,0,0,.407.407H24.012c5.828,0,8.547-2.719,8.547-8.547V10.988c0-5.828-2.719-8.547-8.547-8.547Z" transform="translate(235.858 903.543)" fill="#db1010"/>
  </g>
</svg>
