<svg xmlns="http://www.w3.org/2000/svg" xmlns:xlink="http://www.w3.org/1999/xlink" width="49.979" height="49.867" viewBox="0 0 49.979 49.867">
  <defs>
    <radialGradient id="radial-gradient" cx="0.5" cy="0.5" r="0.5" gradientUnits="objectBoundingBox">
      <stop offset="0" stop-color="#f1f1f1" stop-opacity="0.831"/>
      <stop offset="0.143" stop-color="#eae8e8" stop-opacity="0.361"/>
      <stop offset="1" stop-color="#e8e8e8" stop-opacity="0.831"/>
    </radialGradient>
  </defs>
  <g id="digital-_marketing" data-name="digital- marketing" transform="translate(-355.511 -320.133)">
    <path id="Ellipse_1" data-name="Ellipse 1" d="M22.3-.058A22.431,22.431,0,1,1-.059,22.366,22.414,22.414,0,0,1,22.3-.058Z" transform="translate(355.575 364.481) rotate(-83)" fill="url(#radial-gradient)"/>
    <g id="digital-marketing" transform="translate(1009.325 378.424)">
      <path id="Path_43543" data-name="Path 43543" d="M-641.5-32.563v-1.584c.013-.055.031-.11.039-.166.084-.578.131-1.165.255-1.734a12.653,12.653,0,0,1,6.929-8.756,12.646,12.646,0,0,1,11.163.142,12.629,12.629,0,0,1,6.646,14.1,12.686,12.686,0,0,1-10.181,9.69c-.461.077-.927.129-1.391.192h-1.582a.761.761,0,0,0-.141-.038,12.627,12.627,0,0,1-5.535-1.733.4.4,0,0,0-.295-.015c-.43.141-.854.3-1.28.452l-3.686,1.333h-.247a.982.982,0,0,1-.693-.643v-.293c.01-.012.027-.023.03-.038q.869-2.428,1.741-4.856a.485.485,0,0,0-.043-.459,12.142,12.142,0,0,1-1.535-4.2C-641.384-31.633-641.436-32.1-641.5-32.563Zm2.116,9.764c1.2-.43,2.352-.822,3.489-1.26a1.289,1.289,0,0,1,1.25.131,10.81,10.81,0,0,0,8.072,1.417,10.688,10.688,0,0,0,6.2-3.706,10.825,10.825,0,0,0,2.5-8.761,10.382,10.382,0,0,0-2.653-5.7A10.8,10.8,0,0,0-631.1-44.2a10.458,10.458,0,0,0-6.154,3.65,10.861,10.861,0,0,0-2.491,9.136,10.5,10.5,0,0,0,1.585,4.042.882.882,0,0,1,.1.868c-.038.091-.068.185-.1.279Z" fill="#db1010"/>
      <g id="Group_41883" data-name="Group 41883" transform="translate(-635.507 -37.316)">
        <path id="Path_43544" data-name="Path 43544" d="M-574.505,65.394c.177.658.343,1.267.5,1.877a.622.622,0,0,1-.1.6.623.623,0,0,1-.567.231.617.617,0,0,1-.53-.495c-.182-.666-.359-1.333-.539-2-.018-.069-.038-.137-.062-.218h-.815a1.836,1.836,0,0,1-1.379-.536,1.836,1.836,0,0,1-.536-1.379,10.437,10.437,0,0,1,.042-1.37,1.757,1.757,0,0,1,1.628-1.491c.741-.038,1.486-.015,2.229-.035a8.386,8.386,0,0,0,4.316-1.31,1.041,1.041,0,0,1,.443-.164.579.579,0,0,1,.617.521,1.593,1.593,0,0,1,.011.212v6.315a.652.652,0,0,1-.407.7.665.665,0,0,1-.623-.1,8.039,8.039,0,0,0-2.962-1.189C-573.64,65.493-574.057,65.454-574.505,65.394Zm4.015-4.6a9.817,9.817,0,0,1-3.52.994v2.372c.606.125,1.213.215,1.8.38s1.148.4,1.721.607Zm-4.782,1.052c-.512,0-1.009-.015-1.507.006a.555.555,0,0,0-.507.548c-.011.393-.01.788,0,1.181a.56.56,0,0,0,.48.554c.506.023,1.015.007,1.531.007Z" transform="translate(578.532 -59.109)" fill="#292d32"/>
        <path id="Path_43545" data-name="Path 43545" d="M-375.983,72.029a.624.624,0,0,1-.3.531c-.349.206-.7.415-1.056.609a.612.612,0,0,1-.468.058.612.612,0,0,1-.371-.292.612.612,0,0,1-.061-.468.612.612,0,0,1,.29-.372c.343-.206.685-.411,1.038-.6a.621.621,0,0,1,.617,0A.621.621,0,0,1-375.983,72.029Z" transform="translate(388.625 -70.78)" fill="#292d32"/>
        <path id="Path_43546" data-name="Path 43546" d="M-376.606,163.792a2.238,2.238,0,0,1-.343-.123c-.327-.18-.65-.369-.971-.56a.621.621,0,0,1-.317-.373.621.621,0,0,1,.053-.486.625.625,0,0,1,.4-.3.625.625,0,0,1,.49.089c.337.19.673.382,1,.582a.6.6,0,0,1,.278.7.66.66,0,0,1-.6.468Z" transform="translate(388.623 -156.625)" fill="#292d32"/>
        <path id="Path_43547" data-name="Path 43547" d="M-366.5,123.505c-.2,0-.4.006-.6,0a.617.617,0,0,1-.6-.589.591.591,0,0,1,.532-.63,11.372,11.372,0,0,1,1.37,0,.593.593,0,0,1,.4.213.593.593,0,0,1,.132.435.617.617,0,0,1-.617.574c-.206.005-.411,0-.617,0Z" transform="translate(378.606 -119)" fill="#292d32"/>
      </g>
    </g>
  </g>
</svg>
