<svg xmlns="http://www.w3.org/2000/svg" xmlns:xlink="http://www.w3.org/1999/xlink" width="49.979" height="49.867" viewBox="0 0 49.979 49.867">
  <defs>
    <radialGradient id="radial-gradient" cx="0.5" cy="0.5" r="0.5" gradientUnits="objectBoundingBox">
      <stop offset="0" stop-color="#f1f1f1" stop-opacity="0.831"/>
      <stop offset="0.143" stop-color="#eae8e8" stop-opacity="0.361"/>
      <stop offset="1" stop-color="#e8e8e8" stop-opacity="0.831"/>
    </radialGradient>
  </defs>
  <g id="ppc" transform="translate(-401.511 -320.133)">
    <path id="Ellipse_1" data-name="Ellipse 1" d="M22.3-.058A22.431,22.431,0,1,1-.059,22.366,22.414,22.414,0,0,1,22.3-.058Z" transform="translate(401.575 364.481) rotate(-83)" fill="url(#radial-gradient)"/>
    <g id="ppc-2" data-name="ppc" transform="translate(-466.642 -567.717)">
      <text id="PPC-3" data-name="PPC" transform="translate(886.642 915.284)" fill="#292d32" font-size="7" font-family="Poppins-SemiBold, Poppins" font-weight="600"><tspan x="0" y="0">PPC</tspan></text>
      <path id="Vector" d="M11.142,23.559A4.438,4.438,0,0,1,9,23.05L2.717,19.539C.16,17.866,0,17.611,0,14.986v-6.4C0,5.958.148,5.7,2.66,4.053L8.984.511a4.775,4.775,0,0,1,4.281,0l6.3,3.522c2.556,1.67,2.716,1.925,2.716,4.55v6.391c0,2.625-.148,2.88-2.66,4.531L13.3,23.05a4.515,4.515,0,0,1-2.158.509Zm0-21.888a2.679,2.679,0,0,0-1.278.277L3.585,5.471C1.724,6.687,1.724,6.687,1.724,8.584v6.391c0,1.894,0,1.894,1.906,3.146L9.863,21.61a3.061,3.061,0,0,0,2.568,0l6.279-3.522c1.846-1.219,1.846-1.219,1.846-3.113V8.584c0-1.894,0-1.894-1.906-3.146L12.418,1.949a2.679,2.679,0,0,0-1.275-.277Z" transform="translate(882 901)" fill="#db1010"/>
    </g>
  </g>
</svg>
