<svg xmlns="http://www.w3.org/2000/svg" xmlns:xlink="http://www.w3.org/1999/xlink" width="49.979" height="49.867" viewBox="0 0 49.979 49.867">
  <defs>
    <radialGradient id="radial-gradient" cx="0.5" cy="0.5" r="0.5" gradientUnits="objectBoundingBox">
      <stop offset="0" stop-color="#f1f1f1" stop-opacity="0.831"/>
      <stop offset="0.143" stop-color="#eae8e8" stop-opacity="0.361"/>
      <stop offset="1" stop-color="#e8e8e8" stop-opacity="0.831"/>
    </radialGradient>
  </defs>
  <g id="seo" transform="translate(-447.511 -320.133)">
    <path id="Ellipse_1" data-name="Ellipse 1" d="M22.3-.058A22.431,22.431,0,1,1-.059,22.366,22.414,22.414,0,0,1,22.3-.058Z" transform="translate(447.575 364.481) rotate(-83)" fill="url(#radial-gradient)"/>
    <g id="seo-2" data-name="seo" transform="translate(-330.276 -568.71)">
      <path id="Vector" d="M11.776,23.553A11.776,11.776,0,1,1,23.553,11.776,11.776,11.776,0,0,1,11.776,23.553Zm0-21.91A10.133,10.133,0,1,0,21.91,11.776,10.133,10.133,0,0,0,11.776,1.643Z" transform="translate(791 902)" fill="#db1010"/>
      <text id="SEO-3" data-name="SEO" transform="translate(796.276 916.276)" fill="#292d32" font-size="7" font-family="Poppins-SemiBold, Poppins" font-weight="600"><tspan x="0" y="0">SEO</tspan></text>
      <path id="Vector-2" data-name="Vector" d="M0,0H6.849" transform="translate(799.275 913.458)" fill="#db1010"/>
      <path id="Vector-3" data-name="Vector" d="M0,0H23.553V23.553H0Z" transform="translate(791 902)" fill="none" opacity="0"/>
    </g>
  </g>
</svg>
