<svg xmlns="http://www.w3.org/2000/svg" xmlns:xlink="http://www.w3.org/1999/xlink" width="49.979" height="49.867" viewBox="0 0 49.979 49.867">
  <defs>
    <radialGradient id="radial-gradient" cx="0.5" cy="0.5" r="0.5" gradientUnits="objectBoundingBox">
      <stop offset="0" stop-color="#f1f1f1" stop-opacity="0.831"/>
      <stop offset="0.143" stop-color="#eae8e8" stop-opacity="0.361"/>
      <stop offset="1" stop-color="#e8e8e8" stop-opacity="0.831"/>
    </radialGradient>
  </defs>
  <g id="smo" transform="translate(-494.511 -320.132)">
    <path id="Ellipse_1" data-name="Ellipse 1" d="M22.3-.058A22.431,22.431,0,1,1-.059,22.366,22.414,22.414,0,0,1,22.3-.058Z" transform="translate(494.575 364.479) rotate(-83)" fill="url(#radial-gradient)"/>
    <g id="smo-2" data-name="smo" transform="translate(-326.047 -567.481)">
      <text id="SMO-3" data-name="SMO" transform="translate(839.047 914.481)" fill="#292d32" font-size="6" font-family="Poppins-SemiBold, Poppins" font-weight="600"><tspan x="0" y="0">SMO</tspan></text>
      <path id="Vector" d="M14.472,21.095H1.717A1.725,1.725,0,0,1,0,19.377V6.623C0,2.286,2.286,0,6.623,0h7.85c4.336,0,6.623,2.286,6.623,6.623v7.85C21.095,18.809,18.809,21.095,14.472,21.095ZM6.623,1.471c-3.513,0-5.151,1.639-5.151,5.151V19.378a.243.243,0,0,0,.245.245H14.472c3.513,0,5.151-1.639,5.151-5.151V6.623c0-3.513-1.639-5.151-5.151-5.151Z" transform="translate(835 902)" fill="#db1010"/>
    </g>
  </g>
</svg>
