<svg xmlns="http://www.w3.org/2000/svg" viewBox="0 0 501.66 324.76"><defs><style>.cls-1{fill:#333;}.cls-2{fill:#027a3e;}.cls-3{fill:#ffb0ff;}.cls-4{fill:#fff;}.cls-5,.cls-7{fill:#007c36;}.cls-6{fill:#ffbe00;}.cls-7{font-size:80px;font-family:Mayonnaise-Extra-Black, Mayonnaise;}</style></defs><title>faq_1</title><g id="Layer_2" data-name="Layer 2"><g id="Layer_1-2" data-name="Layer 1"><path class="cls-1" d="M205.45,31.21c1.63-29.45,22.71-30.49,39.8-20.54C254.1,15.82,264.83-.16,275.07.3c6.73.3,11.47,6.77,17.61,9.64a17.5,17.5,0,0,0,18-2.11c3.14-2.54,5.52-6.31,9.42-7.46,9.77-2.9,16.2,12.14,26.31,13.95s19.15-10.37,28.94-7.2c8.47,2.74,11.27,15.42,20,16.81,4.69.74,9-2.21,13.62-3.2,11.36-2.45,23,9.33,21.74,20.86s-13.5,19.94-25.11,18.61c-7.56-.87-15.34-5.06-22.35-2.28-3.28,1.3-5.78,4-8.78,5.79a20.33,20.33,0,0,1-20.66,0c-5.79-3.49-10.54-10.08-17.24-9.82-8.06.32-12.26,10.4-20,12.42-11.41,3-20.72-12.6-32.55-12.19-10.55.37-18.55,13.42-28.78,10.63-8.47-2.31-13.28-14.77-21.84-13.2-3.58.66-30-7.26-28-20.29"/><path class="cls-2" d="M389.7,183.13c0,36.52-26.29,66.13-58.71,66.13s-58.71-29.61-58.71-66.13S298.56,117,331,117s58.71,29.61,58.71,66.13"/><path class="cls-3" d="M278.59,74.91c12.52-1,23.42-6.17,33.32-12.81-9.67-17.36-27.77-25.49-36.19-28.46a5.5,5.5,0,0,0-6.67,2.57L258.65,55.44c-.24-.41-.51-.81-.8-1.21A14.95,14.95,0,1,0,246.43,78L222.3,122.61c-14,25.9,6.24,57.49,35.57,54.8q1.22-.11,2.41-.28c17.08-2.36,30-16.69,31.34-33.88l3.53-45.53,16.09,3.12a5.53,5.53,0,0,0,6.52-4.75A63.58,63.58,0,0,0,318.11,83c-13.64,2.56-27.85.46-39.52-8.14"/><path class="cls-4" d="M278.59,74.91c11.67,8.6,25.88,10.7,39.52,8.14a50.66,50.66,0,0,0-6.2-21c-9.9,6.65-20.79,11.77-33.32,12.81"/><path class="cls-2" d="M229.66,183.13c0,36.52-26.29,66.13-58.71,66.13s-58.71-29.61-58.71-66.13S138.52,117,171,117s58.71,29.61,58.71,66.13"/><path class="cls-1" d="M271.86,61.57A10.6,10.6,0,0,1,285.49,56c2.34,1,4.39-2.44,2-3.47a14.66,14.66,0,0,0-19.52,8c-1,2.39,2.91,3.43,3.87,1.07"/><path class="cls-1" d="M293.54,51.13l16,6.1-1.47-1.94a3.58,3.58,0,0,1-2.49,3c-2.41.86-1.37,4.74,1.07,3.87a7.83,7.83,0,0,0,5.44-6.89,2,2,0,0,0-1.47-1.93l-16-6.1c-2.42-.92-3.46,3-1.07,3.87"/><path class="cls-1" d="M238.2,60.43a19.17,19.17,0,0,0,7.87,5c2.45.83,3.51-3,1.07-3.87a14.91,14.91,0,0,1-6.1-3.94c-1.78-1.88-4.62,1-2.84,2.84"/><path class="cls-5" d="M146.63,251.8c0,39.23-32.76,71-73.18,71S.28,291,.28,251.8s32.76-71,73.18-71,73.18,31.8,73.18,71"/><path class="cls-5" d="M219.8,251.8c0,39.23-32.76,71-73.18,71s-73.18-31.8-73.18-71,32.76-71,73.18-71,73.18,31.8,73.18,71"/><path class="cls-5" d="M293,251.8c0,39.23-32.76,71-73.18,71s-73.18-31.8-73.18-71,32.76-71,73.18-71,73.18,31.8,73.18,71"/><path class="cls-5" d="M366.16,251.8c0,39.23-32.76,71-73.18,71s-73.18-31.8-73.18-71,32.76-71,73.18-71,73.18,31.8,73.18,71"/><path class="cls-5" d="M428.49,251.8c0,39.23-32.76,71-73.18,71s-73.18-31.8-73.18-71,32.76-71,73.18-71,73.18,31.8,73.18,71"/><path class="cls-5" d="M501.66,251.8c0,39.23-32.76,71-73.18,71s-73.18-31.8-73.18-71,32.76-71,73.18-71,73.18,31.8,73.18,71"/><path class="cls-6" d="M428.49,165.77a74.51,74.51,0,0,0-36.59,9.53,75.12,75.12,0,0,0-67.75-2.77,75.12,75.12,0,0,0-67.75,2.77,75,75,0,0,0-73.18,0,75,75,0,0,0-73.18,0,74.51,74.51,0,0,0-36.59-9.53C33,165.77.28,197.57.28,236.8s32.76,71,73.18,71A74.51,74.51,0,0,0,110,298.3a75,75,0,0,0,73.18,0,75,75,0,0,0,73.18,0,75.13,75.13,0,0,0,67.75,2.77,75.13,75.13,0,0,0,67.75-2.77,74.51,74.51,0,0,0,36.59,9.53c40.41,0,73.18-31.8,73.18-71s-32.76-71-73.18-71"/><text class="cls-7" transform="translate(173.37 265.8)">FAQS</text><path class="cls-3" d="M13.65,317c2.26,6.27,9.51,9.41,16.2,7L65.66,311c6.95-2.5,11.09-8.82,9.21-14l-.26-.73c-1.71-4.73-7.8-7-14.1-5.51,5.8-2.88,9.05-8.5,7.35-13.23l-.26-.73c-1.74-4.83-8.05-7.08-14.49-5.42,6-2.82,9.45-8.58,7.71-13.41l-.26-.73c-1.88-5.22-9.1-7.44-16.05-4.94L8.7,265.22c-6.69,2.41-10.28,9.45-8,15.72Z"/><path class="cls-1" d="M53.84,272.64c5.76-3,10.53-8.82,8.17-15.58"/><path class="cls-1" d="M62.72,288.68,12.2,306.87c-1.72.62-1,3.4.76,2.77l50.52-18.2c1.72-.62,1-3.4-.76-2.77"/><path class="cls-1" d="M55.77,269.38,5.25,287.58"/><path class="cls-1" d="M68.8,307.59,49.18,253.15c-.62-1.72-3.39-1-2.77.76L66,308.35c.62,1.72,3.39,1,2.77-.76"/><path class="cls-3" d="M499.21,204.33c4.19,5.49,2.73,13.65-3.26,18.22L463.89,247c-6.22,4.75-14.17,4.89-17.65.32l-.49-.64c-3.16-4.14-1.61-10.79,3.34-15.53-5.88,3.52-12.7,3.27-15.86-.87l-.49-.64c-3.23-4.23-1.55-11.06,3.65-15.83-6,3.75-13,3.57-16.23-.66l-.49-.64c-3.49-4.57-1.25-12.2,5-16.94l32.07-24.47c6-4.57,14.25-3.83,18.44,1.67Z"/><path class="cls-1" d="M495.12,221.32,472,239c-2.94,2.24-5.82,4.61-8.83,6.74-4.15,2.93-10.22,5.21-14.65,1.61-5.26-4.28-2.15-11.15,1.74-15.2,1.24-1.3-.57-3-2-2.21-4.43,2.41-10.92,3.68-14.29-1.12s0-10.5,3.54-14c1.26-1.25-.58-3-2-2.21-4.53,2.59-10.83,3.94-14.53-.74s-.14-8.46,3.6-11.45c1.48-1.19-.17-3.66-1.67-2.46-5.22,4.18-9,9.43-4.4,15.58s12.7,4.94,18.66,1.53l-2-2.2c-4.67,4.63-8,12-3.51,18s12.37,4.74,18.17,1.59l-2-2.21c-5.73,6-8.28,17.28,1.23,21.13,6.56,2.66,12.89-1.07,18-4.95l29.61-22.6c1.51-1.16-.14-3.63-1.67-2.46"/><path class="cls-1" d="M447.8,234.3,493,199.77c1.51-1.16-.14-3.63-1.67-2.46l-45.24,34.53c-1.51,1.16.14,3.63,1.67,2.46"/><path class="cls-1" d="M434.91,217.4l45.24-34.53c1.51-1.16-.14-3.63-1.67-2.46l-45.24,34.53c-1.51,1.16.14,3.63,1.67,2.46"/><path class="cls-1" d="M461.41,246,425,198.35c-1.16-1.51-3.63.14-2.46,1.67l36.38,47.67c1.16,1.51,3.63-.14,2.46-1.67"/></g></g></svg>