<svg id="Layer_1" data-name="Layer 1" xmlns="http://www.w3.org/2000/svg" viewBox="0 0 260.96 241.93"><title>girl svg</title><path d="M167.35,156.56h-152a8.65,8.65,0,1,1,0-17.3h152a8.65,8.65,0,1,1,0,17.3" fill="#333"/><path d="M64,192.82H30.56c0,6.08.18,12.17.6,18.22H64.8c-.49-6-.81-12.15-.81-18.22" fill="#ffa8ff"/><path d="M31.16,211q.38,5.47,1,10.89H65.85c-.39-3.57-.75-7.21-1-10.89Z" fill="#027a3e"/><path d="M71.77,211q0,5.45,0,10.89h33.79c0-3.63.06-7.26.1-10.89Z" fill="#027a3e"/><path d="M105.7,194.27c0-.48,0-1,0-1.46H71.8q0,9.11,0,18.22h33.87c.06-5.59.12-11.19.06-16.76" fill="#ffa8ff"/><path d="M67.65,113.86a101.11,101.11,0,0,0-26.46,26.85c-6.4,9.74-8.35,21.31-9.58,32.67a190.87,190.87,0,0,0-1.06,19.43H64a129,129,0,0,1,1.25-18.75c2.31-15.57,13.65-29.13,27.5-36.13-5.31,4.53-10.56,9.08-13.83,15.39a67.71,67.71,0,0,0-7.1,29.79q0,4.85,0,9.7h33.88c-.17-8-.94-16.34,3.53-23.48,8.43-13.46,24.57-16.89,30.58-33.08a29.82,29.82,0,0,0-1-22.4Zm-.06,48.79c-.08-.09.24-.72.58-1.32a5.1,5.1,0,0,1-.58,1.32m33.5-31.12-1.42,1c-.3.19-.12,0,1.5-1.11l-.08.06" fill="#952e46"/><path d="M32.39,224.43c.53,4.69,1.52,8.67,5,12.12,2.89,2.85,7.63,5,11.75,4.88,8.22-.31,18.08-7.38,17-16.77-.1-.91-.21-1.83-.31-2.75H32.11q.13,1.26.27,2.51" fill="#333"/><path d="M71.75,221.92q0,1.25,0,2.51c0,8.82,7.62,17.35,16.76,17s17-7.32,17-16.76c0-.92,0-1.84,0-2.75Z" fill="#333"/><path d="M14.72,241.48A20.94,20.94,0,0,1,55,233.42a5.86,5.86,0,0,1-5.46,8.06Z" fill="#fff7f2"/><path d="M56.52,241.48a20.94,20.94,0,0,1,40.27-8.06,5.86,5.86,0,0,1-5.46,8.06Z" fill="#fff7f2"/><path d="M85.11,42.19c2.2-8.43,10.72-11.37,17.81-10.3s13.95,4.79,21.06,4.45c8-.38,15.52-5.9,23.54-5.3s15.47,7.43,23.61,7.6c9.5.19,18.34-8.76,27.68-6.4,4.06,1,7.62,4.1,11.59,5.53,8.7,3.15,17.66-1.85,26.45-4.26s20.25-.43,23.48,10.15a12.52,12.52,0,0,1,.48,5.74,9.46,9.46,0,0,1-7.34,7.48c-3.32.72-6.72-.07-10.08-.44A41.91,41.91,0,0,0,224,58.88c-6.71,2.51-13.43,6.8-20.37,5.27-4.74-1-8.92-4.73-13.65-5.93-8.8-2.22-18,4.49-26.61,1.14-2.07-.81-4-2.18-6.13-2.7-7.61-1.84-14.09,7.55-21.8,8.23-9.18.81-16.87-10.76-26.07-10.43-8.37.29-16.25,10.43-24,6.25Z" fill="#333"/><path d="M165.28,118.36c-2.08-7.23-10-13.5-17.91-10.93l-.3.08c.82-.14.7.05,0,.12l-.13-.07h0l-.79-.49a33.55,33.55,0,0,1-2.85-3.14,106.2,106.2,0,0,1-8.61-15.32c-1.41-3-2.53-6.21-4.08-9.18-.44-.83-.91-1.63-1.41-2.41a31.86,31.86,0,0,0-8.6-9,22.81,22.81,0,0,0-21.7-2.35,24.35,24.35,0,0,0-7.66,4.88,46.46,46.46,0,0,0-6.8,8.6c-1.68,2.58-3.3,5.22-5.08,7.67a94.66,94.66,0,0,1-14.76,14.1,63.69,63.69,0,0,1-9.68,5.78l-1.54.47c-5.67-3.66-13.7-3.7-18.62,1.48-5.39,5.67-6.36,15.18-.4,21,7,6.8,16.51,8.69,25.84,6.44,7-1.7,13.48-5.45,19.32-9.6a118,118,0,0,0,15.26-12.62h19.74c1.17,1.93,2.39,3.83,3.69,5.67,3.92,5.51,8.35,11,14.57,14.11,6.62,3.27,14.4,5,21.63,2.63s13.27-9.81,10.93-17.92M50.94,107.65c0-.06.16-.09.42-.11l.31.08c-.43.09-.71.12-.74,0m94.4.29.53-.16h0l-.55.15m1.18-.3h-.12l.18,0,0,0-.09,0" fill="#fff7f2"/><path d="M55,125.19,61,132.71c1.53,1.9,4.19-.8,2.68-2.68l-6.06-7.52c-1.53-1.9-4.19.8-2.68,2.68" fill="#fc2727"/><path d="M67.05,116.33a23.27,23.27,0,0,1,5.11-2.69,2,2,0,0,0,1.32-2.33A1.91,1.91,0,0,0,71.15,110a27.27,27.27,0,0,0-6,3.07c-2,1.37-.1,4.65,1.91,3.27" fill="#fc2727"/><path d="M69.59,92.5a78.86,78.86,0,0,0,8.13,7.68c1.87,1.53,4.56-1.13,2.68-2.67a79.09,79.09,0,0,1-8.14-7.68c-1.65-1.8-4.32.89-2.68,2.68" fill="#fc2727"/><path d="M83.48,126.88v-6.62a1.89,1.89,0,0,0-3.78,0v6.63a1.89,1.89,0,0,0,3.78,0" fill="#fc2727"/><path d="M86.13,108.07l8.1-1.46c2.39-.43,1.38-4.08-1-3.65l-8.1,1.46c-2.39.43-1.38,4.08,1,3.65" fill="#fc2727"/><path d="M89.53,84.4a47.14,47.14,0,0,0,6.22,7c1.8,1.64,4.48-1,2.68-2.68a42.26,42.26,0,0,1-5.62-6.2,2,2,0,0,0-2.59-.68,1.9,1.9,0,0,0-.68,2.59" fill="#fc2727"/><path d="M105.92,80.26l2.22,9.94c.53,2.38,4.18,1.37,3.65-1l-2.22-9.94c-.53-2.38-4.18-1.37-3.65,1" fill="#fc2727"/><path d="M107.6,108.36,112,104.7a1.91,1.91,0,0,0,0-2.68,1.94,1.94,0,0,0-2.68,0l-4.43,3.67a1.91,1.91,0,0,0,0,2.68,1.93,1.93,0,0,0,2.68,0" fill="#fc2727"/><path d="M120.44,113a36.18,36.18,0,0,0-4.58,11.13c-.54,2.37,3.11,3.38,3.65,1a32.9,32.9,0,0,1,4.2-10.23c1.29-2.07-2-4-3.27-1.91" fill="#fc2727"/><path d="M121.13,96.91,127.6,104c1.64,1.81,4.31-.88,2.68-2.68l-6.47-7.13c-1.64-1.81-4.31.88-2.68,2.67" fill="#fc2727"/><path d="M127.39,86.48l10.82-8.27c1.91-1.46,0-4.75-1.91-3.27l-10.82,8.27c-1.91,1.46,0,4.75,1.91,3.27" fill="#fc2727"/><path d="M119.19,61.25a54.16,54.16,0,0,0-3.5,10.63c-.51,2.38,3.14,3.39,3.65,1a49.56,49.56,0,0,1,3.12-9.72c1-2.21-2.28-4.14-3.27-1.91" fill="#fc2727"/><path d="M86.53,71.14a53.33,53.33,0,0,0,5.86,4.41c2,1.33,3.95-1.94,1.91-3.27a46.1,46.1,0,0,1-5.09-3.82c-1.83-1.59-4.52,1.08-2.68,2.68" fill="#fc2727"/><path d="M139.18,109A86.83,86.83,0,0,0,150,104.32c2.17-1.11.26-4.38-1.91-3.27a80,80,0,0,1-9.86,4.25c-2.28.8-1.3,4.46,1,3.65" fill="#fc2727"/><path d="M59.73,99.11l2.07,5.06a2,2,0,0,0,2.33,1.32,1.9,1.9,0,0,0,1.32-2.33L63.38,98.1A2,2,0,0,0,61,96.78a1.9,1.9,0,0,0-1.32,2.33" fill="#fc2727"/><path d="M135.31,125.72a57.08,57.08,0,0,0,10.46-2.13c2.32-.71,1.33-4.36-1-3.65a52,52,0,0,1-9.46,2c-2.39.27-2.42,4.05,0,3.78" fill="#fc2727"/><path d="M147.13,131.17a79.28,79.28,0,0,0-3.69,11.41c-.57,2.37,3.08,3.38,3.65,1a79.27,79.27,0,0,1,3.69-11.41c.92-2.25-2.74-3.23-3.65-1" fill="#fc2727"/><path d="M129.45,132.77a3.15,3.15,0,0,1,.21-1.14c.14-.42-.09.07.14-.31.07-.12.14-.24.21-.36s.16-.23.07-.12a2,2,0,0,0,0-2.68,1.9,1.9,0,0,0-2.68,0,7.57,7.57,0,0,0-1.74,4.61,1.89,1.89,0,1,0,3.78,0" fill="#fc2727"/><path d="M145.86,107.79h0l-.55.15.52-.16m.72-.18,0,0-.09,0h-.12l.18,0m-95.65,0c0-.06.16-.09.42-.11l.31.08a3.38,3.38,0,0,1-.59.08c-.09,0-.14,0-.15,0m47.89-42a24.38,24.38,0,0,0-7.66,4.88,46.36,46.36,0,0,0-6.8,8.6c-1.69,2.58-3.3,5.22-5.08,7.67a94.8,94.8,0,0,1-14.76,14.1,63.73,63.73,0,0,1-9.68,5.78l-1.54.47c-5.67-3.66-13.7-3.7-18.62,1.48-5.39,5.67-6.36,15.18-.4,21,7,6.79,16.51,8.69,25.84,6.44,7-1.7,13.48-5.45,19.32-9.6a118,118,0,0,0,15.26-12.62h19.74c1.17,1.93,2.39,3.83,3.7,5.67,3.92,5.51,8.35,11,14.57,14.11,6.62,3.27,14.4,5,21.63,2.63s13.26-9.81,10.93-17.91c-2.08-7.23-10-13.5-17.91-10.93l-.3.08c.82-.14.7.05,0,.12l-.13-.07-.05,0h0l-.79-.49a34.09,34.09,0,0,1-2.85-3.14,106.54,106.54,0,0,1-8.61-15.32c-1.41-3-2.53-6.21-4.08-9.18-.44-.83-.91-1.63-1.41-2.41a31.92,31.92,0,0,0-8.61-9A22.21,22.21,0,0,0,107.65,64a23.86,23.86,0,0,0-8.82,1.71" fill="none"/><path d="M147.07,107.51l-.19,0h0l.17,0" fill="#fff7f2"/><path d="M17.83,104.29c1.81,5.58,3.86,11.45,7.3,16.25,5.43,7.58,12.33,12.58,21.92,13.09,7.76.41,15.25-6.92,15-14.7A15.09,15.09,0,0,0,49.92,104.3c-6.32-1.34-7.06-18.61-7-28.11-9.87-.41-19.7-1.17-29.64-.87a95.16,95.16,0,0,0,4.52,29M51,105.46s-.17-.13-.35-.31c.23.16.39.29.35.31" fill="#ffa8ff"/><path d="M114.43,64.42,104.68,51.6a4.75,4.75,0,1,0-4.75-6.91c-.07.14-.13.28-.19.42l-4.21-5.53a1.75,1.75,0,0,0-2.22-.48c-3.77,2-13.86,8.8-10.14,21.67a1.76,1.76,0,0,0,2.28,1.17l4.9-1.77L93.67,74.3a11.72,11.72,0,0,0,11.5,9.11l.77,0c9.34-.59,14.16-11.5,8.49-18.95" fill="#ffa8ff"/><path d="M97.35,48.1a4.61,4.61,0,0,0-6.5-1.39c-1.12.81,0,2.68,1.09,1.87a2.45,2.45,0,0,1,3.54.62c.73,1.18,2.6.1,1.87-1.09" fill="#00153b"/><path d="M87,45.26l-5.92,6.36a1.09,1.09,0,0,0,.22,1.7l2.94,1.41c1.25.6,2.35-1.26,1.09-1.87l-2.94-1.41.22,1.7,5.92-6.36c.95-1-.58-2.55-1.53-1.53" fill="#00153b"/><path d="M89.26,54.72c-.1-.2,0,.15,0-.1,0,.09-.05.28,0,.08,0,0-.1.26,0,.13s-.16.22-.05.08-.09.08-.1.1c.14-.14,0,0-.09,0,.15-.09,0,0-.09,0,.22,0-.12-.06.11,0a1.11,1.11,0,0,0-1.33.75,1.09,1.09,0,0,0,.76,1.33,2.49,2.49,0,0,0,2.71-3.52,1.09,1.09,0,0,0-1.48-.39,1.1,1.1,0,0,0-.39,1.48" fill="#00153b"/><path d="M104.18,45.24l-2.48,2a1.09,1.09,0,0,0,0,1.53,1.11,1.11,0,0,0,1.53,0l2.48-2a1.09,1.09,0,0,0,0-1.53,1.11,1.11,0,0,0-1.53,0" fill="#00153b"/><path d="M166.47,73c-1.32-1.91-2.85-2.92-3.95-.88-4.65,8.65-11.81,13.8-17.44,21.8,0,.09,3,5.33,3,5.42,1.24,4,1.77,6.39-.29,9.6s-5.68,4.44-6.93,8.89a15.12,15.12,0,0,0,1.24,11.12c2,3.34,5.1,6.28,9,7.2s7.33.29,11.12-1.24c8.1-3.28,14.19-12,15.79-20.45,1.47-7.73,2.25-13.82.09-21.38A45.06,45.06,0,0,0,166.47,73h0" fill="#ffa8ff"/><path d="M144.55,3V146.07a1.08,1.08,0,0,0,2.16,0V3a1.08,1.08,0,0,0-2.16,0" fill="#333"/><path d="M162.82,69.14l-.56-9.07c-.09-2.45-2.17-5.5-5.24-5.76s-4.61,2.59-4.49,5.72l.32,5.74-1.35-1.31-6.55-6.9c-4.34-4.39-7.85-3.89-9.49-2.33-2.53,3,.71,5.91.71,5.91L138.39,63c-3.08-2.88-6.19-4.85-8.12-2.63l-.23.22c-1.55,1.26-.87,3.2.35,5.52-1.95-1-3.79-1.09-4.93-.15-3,2.47-.83,6.38,2.61,10l20.11,21.16L166.28,80a5,5,0,0,0,.19-7Z" fill="#ffa8ff"/><path d="M163.9,69.14c-.3-4.87.74-12.72-4.62-15.3a5.16,5.16,0,0,0-7.34,3c-1,2.72-.33,6.14-.17,9l1.85-.77c-4-3.83-8.59-11.38-14.51-11.93-2.92-.27-5.78,1.57-5.7,4.77.07,2.74,2.34,4.36,4.22,5.95,1,.89,2.57-.59,1.53-1.53-2.26-2-5.77-5.26-9-3.22-3,1.92-2.08,4.92-.74,7.64l1.48-1.48c-5.53-2.42-9.88,1.85-6.87,7.36,1.69,3.09,4.63,5.68,7,8.22l16.3,17.14c1,1,2.49-.52,1.53-1.53L137.65,84.52l-6.79-7.15c-.61-.64-1.23-1.28-1.83-1.93l-.65-.7A18.64,18.64,0,0,1,126.24,72a4.66,4.66,0,0,1-.65-1.33q-1.76-3.07,4.26-3.56a1.09,1.09,0,0,0,1.48-1.48c-.6-1.22-1.72-3.18-.29-4.43,2.18-1.9,5.18,1.35,6.6,2.63l1.53-1.53c-1.12-1-2.75-1.95-3.27-3.4-1.42-4,2.83-4,4.92-3a13,13,0,0,1,3.77,2.91c2.53,2.58,4.91,5.28,7.51,7.79a1.09,1.09,0,0,0,1.85-.76c-.1-1.69-.26-3.39-.29-5.08,0-1.15-.18-3,.66-3.87a3.71,3.71,0,0,1,5.55.24,5.66,5.66,0,0,1,1.32,3,90.28,90.28,0,0,1,.56,9.07c.09,1.38,2.25,1.39,2.16,0" fill="#00153b"/><path d="M151.32,65.3l5.67,6c1,1,2.49-.52,1.53-1.53l-5.67-6c-1-1-2.49.52-1.53,1.53" fill="#00153b"/><path d="M134.34,60.55l2.24,2.36c1,1,2.49-.52,1.53-1.53l-.22-.23-1.53,1.53L138.6,65c1,1,2.49-.52,1.53-1.53l-2.24-2.36c-1-1-2.49.52-1.53,1.53l.22.24,1.53-1.53L135.87,59c-1-1-2.49.52-1.53,1.53" fill="#00153b"/><path d="M128.72,65.89,133,70.37c1,1,2.49-.52,1.53-1.53l-4.25-4.48c-1-1-2.49.52-1.53,1.53" fill="#00153b"/><path d="M153.11,58.1l8.35,2.57c1.33.41,1.9-1.68.57-2.08L153.69,56c-1.33-.41-1.9,1.68-.57,2.08" fill="#00153b"/><path d="M39.28,67.4l-2.09-9c-.5-2.44-3.1-5.16-6.23-4.91S26.77,56.86,27.42,60l1.29,5.71L27.12,64.6l-7.73-5.83c-5.1-3.68-8.53-2.59-9.92-.75-2,3.48,1.71,5.82,1.71,5.82l2.55,1.52c-3.57-2.38-7-3.83-8.6-1.28l-.19.26c-1.34,1.52-.34,3.36,1.28,5.49-2.13-.71-4-.46-5,.68-2.6,3-.88,6.61,3.19,9.67L29.27,98l12-18.81a8.87,8.87,0,0,0-2-11.79" fill="#ffa8ff"/><path d="M10.4,64c3.71,2.77,7.9,4.71,11.61,7.48,1.12.83,2.2-1,1.09-1.87-3.72-2.77-7.9-4.71-11.61-7.47-1.12-.83-2.19,1-1.09,1.87" fill="#00153b"/><path d="M5.65,70.34c3.55,2.64,7.41,4.84,11,7.48,1.12.83,2.2-1,1.09-1.87-3.55-2.63-7.41-4.84-11-7.48-1.12-.83-2.2,1-1.09,1.87" fill="#00153b"/><path d="M28.86,58.38l8.81,1.18c1.38.18,1.36-2,0-2.16l-8.81-1.18c-1.37-.19-1.36,2,0,2.16" fill="#00153b"/><path d="M27,65A3.28,3.28,0,0,1,23.27,69c-1.38-.18-1.36,2,0,2.16,3.93.51,6.33-3.1,5.8-6.68-.2-1.37-2.29-.79-2.08.57" fill="#333"/><path d="M21.62,71.12c1.52,3-1.34,5.36-4.18,4.72a1.09,1.09,0,0,0-1.22,1.59c1.93,3.06-.15,7.38-4.09,6.27a1.08,1.08,0,0,0-.57,2.09c5.68,1.6,9.52-4.71,6.53-9.45l-1.22,1.59c4.84,1.09,9-3.2,6.63-7.9-.63-1.24-2.5-.15-1.87,1.09" fill="#333"/><path d="M26.61,63.52A68.15,68.15,0,0,0,19,72.45c-2.64,3.7-4.67,7.8-7.57,11.32-.88,1.07.64,2.61,1.53,1.53,2.51-3,4.38-6.47,6.54-9.75A64.64,64.64,0,0,1,28.14,65c1-1-.54-2.51-1.53-1.53" fill="#00153b"/><path d="M29.53,68.08A23,23,0,0,0,30,83c.48,1.29,2.57.73,2.09-.57a21.06,21.06,0,0,1-.44-13.8c.41-1.33-1.68-1.9-2.08-.58" fill="#00153b"/><path d="M25.61,1V149a1.08,1.08,0,0,0,2.16,0V1a1.08,1.08,0,0,0-2.16,0" fill="#333"/><path d="M14.85,241.93h37a1.08,1.08,0,0,0,0-2.16h-37a1.08,1.08,0,0,0,0,2.16" fill="#333"/><path d="M56.26,241.38H97.67a1.08,1.08,0,0,0,0-2.16H56.26a1.08,1.08,0,0,0,0,2.16" fill="#333"/><path d="M85.7,222.52a10.93,10.93,0,0,1,10.23-6.94c3.86.1,7.09,2.25,11.05,1.44s7.14-4.75,11.19-3.54c2.29.69,4.19,1.42,5.8-.83.81-1.13-1.06-2.21-1.87-1.09s-4.82-.65-6.1-.57a9.94,9.94,0,0,0-3.85,1.3c-1.89,1-3.59,2.25-5.75,2.64-2.9.53-5.39-.67-8.14-1.23a12.94,12.94,0,0,0-14.43,7.72c-.54,1.27,1.33,2.37,1.87,1.09" fill="#333"/><path d="M86.06,223.53c4.66-.43,9.38-1.08,13.74.73a10.05,10.05,0,0,0,8,.13c1.92-.64,3.93-1.61,6-1.43s3.77,1.57,5.81,2a4.5,4.5,0,0,0,5.08-2c.74-1.18-1.13-2.27-1.87-1.09-1.69,2.71-6.78-1.19-9.37-1.17s-5.11,1.38-7.69,2c-3.31.83-5.2-1.26-8.21-1.75-3.66-.6-7.82,0-11.49.35-1.37.13-1.39,2.29,0,2.16" fill="#333"/><path d="M41.22,219.84c.45-6.15,10.5-2.63,14.32-4a10.9,10.9,0,0,0,3.53-2.41c2.57-2.18,5.49-2.49,8.74-2.64,1.39-.06,1.39-2.23,0-2.16-2.64.12-5.41.25-7.81,1.49a22.24,22.24,0,0,0-3.24,2.54c-2.15,1.62-4.42,1.61-7,1.42-4.5-.33-10.33,0-10.74,5.71-.1,1.39,2.06,1.38,2.16,0" fill="#333"/><path d="M41.74,220.82c4.38-4.19,10.61-.41,15.72-.24a16.17,16.17,0,0,0,10.67-3.78c1.09-.86-.45-2.38-1.53-1.53-5.57,4.4-10.73,2.68-17,1.67-3.46-.55-6.76-.15-9.36,2.34-1,1,.52,2.49,1.53,1.53" fill="#333"/><path d="M88.05,96.32a15.43,15.43,0,0,0,3.8,18.3c1,.91,2.58-.62,1.53-1.53a13.23,13.23,0,0,1-3.46-15.67c.58-1.25-1.28-2.35-1.87-1.09" fill="#00153b"/></svg>