<svg xmlns="http://www.w3.org/2000/svg" viewBox="0 0 27.14 32.08"><defs><style>.cls-1{fill:#f94a19;}</style></defs><title>Asset 1</title><g id="Layer_2" data-name="Layer 2"><g id="Layer_1-2" data-name="Layer 1"><path class="cls-1" d="M13.57,32.08a1.23,1.23,0,0,1-.64-.18C12.41,31.58,0,24,0,13.57a13.57,13.57,0,0,1,27.14,0c0,10.45-12.41,18-12.94,18.33A1.22,1.22,0,0,1,13.57,32.08Zm0-29.61a11.12,11.12,0,0,0-11.1,11.1c0,7.81,8.66,14.16,11.1,15.8,2.44-1.64,11.1-8,11.1-15.8a11.12,11.12,0,0,0-11.1-11.1"/><path class="cls-1" d="M13.57,19.74a6.18,6.18,0,1,1,4.36-1.81,6.17,6.17,0,0,1-4.36,1.81m0-9.87A3.7,3.7,0,1,0,16.19,11a3.7,3.7,0,0,0-2.62-1.08"/></g></g></svg>