<svg id="Layer_1" data-name="Layer 1" xmlns="http://www.w3.org/2000/svg" viewBox="0 0 180.98 177.86"><title>revolve texts</title><path d="M39.62,94.76a9.46,9.46,0,0,1-6.5,1.15c-2.21-.35-3.06-1.21-2.82-3.57.09-1.22.53-3.62,1.2-7.3.33-2.08.86-2.49,1.9-2.56.27,0,2.17.14,2.45.11a1.35,1.35,0,0,0,1.31-1.13,1.67,1.67,0,0,0-1.26-1.87A27.43,27.43,0,0,0,32.34,79a2.09,2.09,0,0,0-2.63,1.85,51.31,51.31,0,0,1-1.11,5.46,11.42,11.42,0,0,1-3.15,5.41c-2.54,2.21-6.32,3-11.42,2.17a13.65,13.65,0,0,1-8.24-4c-2.7-2.94-3.67-7.1-3-12.41a22.09,22.09,0,0,1,1.92-7,9,9,0,0,1,7.16-5.24A16.92,16.92,0,0,1,18,66q1.48.5,1.28,2.83a45.24,45.24,0,0,1-1.29,8c-.34,1-.65,1.35-1.79,1.21a15.53,15.53,0,0,0-2.43-.24,1.24,1.24,0,0,0-1.24,1.14,1.32,1.32,0,0,0,1,1.49c.26.1,1.54.26,3.76.55a2.81,2.81,0,0,0,1.88-.31c.45-.29.85-1.33,1.29-3.12.15-.6.26-1.47.45-2.47s.34-1.6.36-1.73a7.92,7.92,0,0,1,4-5.91c2-1.18,4.77-1.51,8.27-1.06,4.64.59,7.56,1.78,10.14,5.19,1.91,2.7,2.68,6.36,2.22,11-.58,6.15-2.67,10.25-6.28,12.25" fill="#fff"/><path d="M36.13,46.82l-1.69-6.13c-.31-.76-.82-1.7-1.47-1-.32.35-1.11,1.19-2.31,2.57a29.7,29.7,0,0,1-2.45,2.62,2.77,2.77,0,0,1-3,.67c-1.51-.57-3.38-2.14-5.72-4.7-1.59-1.77-1.93-3.29-1.11-4.47a94.71,94.71,0,0,1,7.68-8.6c2.55-2.63,4.83-4.76,6.79-6.46a5.72,5.72,0,0,1,3.21-1.64,4.63,4.63,0,0,1,3,1.1,15,15,0,0,1,5.22,5.44c.21.47.86,2.95,2.07,7.51l2,8.33c.11.38.76,4.15,1.52,3.93.34.13.81-.27,1.45-1.06s2.26-2.71,2.82-3.31a22.1,22.1,0,0,1,1.9-2.12,1.84,1.84,0,0,1,2.64.06,32,32,0,0,1,4.65,4.36c1,1,2.34,2.46,2.19,3.91-.07.77-.89,2-2.42,3.87-1,1.23-2.72,3.21-5.32,6-3.57,3.81-6.23,6-7.89,6.45a8.64,8.64,0,0,1-5.77-.48,10.6,10.6,0,0,1-4.07-2.79q-.9-1-2.21-6Z" fill="#fff"/><path d="M79.44,21.72c1.16,4.18,1.83,6.6,2.1,7.3s.32.9.57,1a1.19,1.19,0,0,0,1.09.12C84.5,29.82,85,30,86,32.79l1.56,5.62c.51,1.83.16,3.12-1.08,4a14.7,14.7,0,0,1-4,1.54Q78.65,45.06,74.8,46a16.3,16.3,0,0,1-4,.83c-1.5-.08-2.48-1.07-3-3l-1.56-5.62c-.58-2.86-.28-3.3,1-3.66a1.19,1.19,0,0,0,.87-.66c.14-.25.12-.6,0-1.18s-.83-3.22-2-7.4l-.91-3.27a30.58,30.58,0,0,0-.9-3c-.16-.59-.34-1-.59-1.1A3.09,3.09,0,0,0,62.63,18c-1.31.36-1.79.15-2.77-2.61L58.28,9.67C57.74,8,57.51,7.14,59,5.82a17.08,17.08,0,0,1,4-1.47q4.09-1.24,8.23-2.29a17,17,0,0,1,4.21-.82c1.93.38,2.17,1.22,2.58,2.94l1.58,5.68c.58,2.86.28,3.3-1,3.66a3.08,3.08,0,0,0-.89.6,1.79,1.79,0,0,0,.07,1.25c.1.61.7,2.76,1.7,6.35" fill="#fff"/><path d="M101.55,29.27c.64-1.86,1.06-3.22,1.29-4.21.39-1.51,1.18-4.1,2.28-7.67a6.46,6.46,0,0,0,.51-2.61c-.09-.38-.81-.82-2.24-1.25l-2.59-.79a3.15,3.15,0,0,1-2.5-3.88c.31-1.25.47-2,.56-2.31a38,38,0,0,1,1.52-4.28A4,4,0,0,1,102.3.16a5.26,5.26,0,0,1,2.88.1l5.32,1.63,12.84,3.93c2.14.66,4,1.21,5.3,1.69a5.91,5.91,0,0,1,2.5,1.33,4,4,0,0,1,.33,2.87,18.3,18.3,0,0,1-.72,3,29,29,0,0,1-1.51,3.79c-.79,1.67-2.17,2.24-4.12,1.65-1.43-.44-2.59-.79-3.58-1a2.14,2.14,0,0,0-1.46-.09,1.85,1.85,0,0,0-.6.81,23.71,23.71,0,0,0-.82,2.44c-.6,1.73-1.89,5.95-3.93,12.62-.26.84-.64,2.07-1.07,3.71l-1.11,3.63q-1.22,4-3.57,4a15.79,15.79,0,0,1-4.76-.89,15.68,15.68,0,0,1-4.44-1.93c-1.09-.83-1.49-2.3-1.05-4.43l1.53-5.7c.26-.84.67-2.2,1.31-4.06" fill="#fff"/><path d="M146.86,50.15c-3.3,2.81-5.21,4.44-5.74,5s-.68.67-.7,1a1.19,1.19,0,0,0,.35,1c.88,1,.88,1.56-1.2,3.61l-4.44,3.78c-1.45,1.23-2.76,1.46-4,.68a14.63,14.63,0,0,1-3.08-3q-2.65-3-5.14-6a16.34,16.34,0,0,1-2.43-3.27c-.56-1.39-.07-2.7,1.43-4l4.44-3.78c2.35-1.74,2.87-1.64,3.75-.61a1.19,1.19,0,0,0,1,.51c.29,0,.59-.15,1.05-.54s2.57-2.1,5.88-4.91l2.58-2.2a30.05,30.05,0,0,0,2.33-2.07c.46-.39.73-.71.75-1a3.08,3.08,0,0,0-.4-1c-.88-1-.88-1.56,1.2-3.61l4.49-3.82c1.3-1.19,2-1.76,3.78-1a17.13,17.13,0,0,1,3,3q2.85,3.19,5.54,6.5a17.07,17.07,0,0,1,2.51,3.47c.47,1.91-.2,2.48-1.58,3.58l-4.49,3.82c-2.35,1.74-2.87,1.64-3.75.61a3.15,3.15,0,0,0-.92-.56c-.29,0-.64.19-1.1.58s-2.21,1.79-5.05,4.21" fill="#fff"/><path d="M147.4,83.16c.44-.32,3.58-1.6,4.82-2.13s2-1.09,2-1.43-1-.64-2.84-.46c-6.81.7-11.06,1.14-12.62,1.23-3.64.38-4-6.33-3.81-10.51.14-2,.8-2.81,1.5-3.29a4.33,4.33,0,0,1,1.59-.44c.19-.09,1.88-.26,2.22-.3,2.62-.34,5.86-.67,10.18-1.05l5.06-.52,7.89-.81c3.64-.44,6.13-.7,7.41-.83l2.09-.22a5.46,5.46,0,0,1,1.77,0,3.34,3.34,0,0,1,2.57,2.46c.12.46.4,1.87.78,4.28a63.12,63.12,0,0,1,.46,6.5c-.06,1.44-1.09,2.63-3.05,3.45a12.94,12.94,0,0,0-1.57.64c-1,.44-1.89.81-2.61,1.15-2.42,1-4.11,1.79-5.09,2.23s-1.41.89-1.37,1.23.64.89,1.68,1.12,2.66.68,5.3,1.16c2.43.43,4,.75,4.52.9,2.08.33,3.33,1.22,3.68,2.68a61.74,61.74,0,0,1,.86,6.39,26.3,26.3,0,0,1,.11,4.35,3.5,3.5,0,0,1-1.94,3,9,9,0,0,1-1.8.39l-2.09.21-15.31,1.58c-7.22.75-12.27,1.27-15.25,1.51l-2.22.23a6.35,6.35,0,0,1-1.65-.17c-.78-.33-1.6-1-2.14-2.91-1-4.05-2.06-10.69,1.58-11.07l6.07-.63c3.24-.33,5.4-.56,6.53-.74.68-.07,2.79,0,2.69-1,0-.47-.77-.81-2.21-1-3.27-.62-4.94-1-5.15-1a2.39,2.39,0,0,1-1.56-2,10.86,10.86,0,0,1-.22-2.09,2.2,2.2,0,0,1,1.15-2.09" fill="#fff"/><path d="M144.95,119a132,132,0,0,1,10.8,15.84,16.27,16.27,0,0,1,2,8.63,11.55,11.55,0,0,1-2.36,6,23.73,23.73,0,0,1-3.75,3.83,11.62,11.62,0,0,1-5.71,2.82,13.63,13.63,0,0,1-7.33-1.21,75.62,75.62,0,0,1-9.53-5.82,166.25,166.25,0,0,1-13.83-10.72c-1.91-1.63-3-2.93-3.25-4a2.71,2.71,0,0,1,.2-2,14.58,14.58,0,0,1,3-4,29.3,29.3,0,0,1,4.37-3.87c2-.86,3.26,0,5.13,1.4.29.29.91.91,1.44.39,1.49-1.48,2.55-2.54,3.31-3.21.24-.24.24-.53,0-.91s-.76-1.15-1-1.39c-1.05-1.73-1.29-3-.76-4a12.22,12.22,0,0,1,2.79-3.35,20.28,20.28,0,0,1,4.18-3.3c1.25-.57,2.64-.23,4.12,1.16a98.53,98.53,0,0,1,6.26,7.83m-8.8,12.4-1.83,1.82q-.51.5.14,1c2.15,2.07,4.07,3.7,5.65,5q2.87,2.31,3.59,1.59c.48-.57-.14-1.77-1.81-3.74-.72-1-2.34-2.83-4.73-5.52q-.5-.65-1-.15" fill="#fff"/><path d="M92.08,145.66c.25.48,1.1,3.77,1.46,5.07s.81,2.13,1.15,2.14.78-.92.84-2.75c.23-6.84.37-11.11.48-12.67.12-3.66,6.82-3.1,10.93-2.35,2,.4,2.68,1.17,3.06,1.93a4.33,4.33,0,0,1,.22,1.64c.06.21,0,1.9,0,2.24,0,2.65-.13,5.9-.34,10.23l-.17,5.08-.26,7.93c-.05,3.66-.14,6.17-.18,7.46l-.07,2.1a5.44,5.44,0,0,1-.26,1.75,3.35,3.35,0,0,1-2.79,2.22c-.48.05-1.9.14-4.35.2a63.05,63.05,0,0,1-6.5-.42c-1.42-.25-2.46-1.44-3-3.49a12.91,12.91,0,0,0-.42-1.64c-.3-1-.54-2-.79-2.74-.66-2.53-1.21-4.31-1.52-5.34s-.7-1.51-1-1.53-1,.51-1.34,1.52-1,2.54-1.86,5.09c-.76,2.35-1.28,3.82-1.5,4.36-.61,2-1.66,3.13-3.16,3.29a62.26,62.26,0,0,1-6.44,0,26.14,26.14,0,0,1-4.33-.48,3.5,3.5,0,0,1-2.7-2.33,8.91,8.91,0,0,1-.14-1.84l.07-2.1.51-15.38c.24-7.25.41-12.33.57-15.31l.07-2.24c.08-.27.18-1.42.39-1.61.43-.73,1.2-1.45,3.18-1.73,4.15-.47,10.87-.59,10.75,3.07l-.2,6.1c-.11,3.25-.18,5.42-.15,6.58,0,.68-.36,2.77.65,2.8.47,0,.9-.65,1.29-2.06,1.05-3.15,1.65-4.76,1.72-5a2.39,2.39,0,0,1,2.14-1.29,10.81,10.81,0,0,1,2.1.07,2.2,2.2,0,0,1,1.92,1.42" fill="#fff"/><path d="M57.35,140.77a132.24,132.24,0,0,1-16.48,9.81A16.26,16.26,0,0,1,32.13,152a11.56,11.56,0,0,1-5.83-2.72,23.83,23.83,0,0,1-3.59-4,11.62,11.62,0,0,1-2.46-5.87,13.63,13.63,0,0,1,1.66-7.24,75.69,75.69,0,0,1,6.4-9.15,165.91,165.91,0,0,1,11.55-13.15c1.75-1.81,3.11-2.83,4.22-3a2.71,2.71,0,0,1,2,.32,14.64,14.64,0,0,1,3.83,3.22,29.44,29.44,0,0,1,3.6,4.6c.73,2.06-.21,3.25-1.71,5-.3.27-1,.85-.47,1.41,1.39,1.58,2.38,2.7,3,3.5.22.26.51.27.91,0s1.2-.69,1.45-.92c1.79-.94,3.1-1.1,4.07-.51a12.23,12.23,0,0,1,3.17,3A20.3,20.3,0,0,1,67,131c.49,1.28.07,2.65-1.41,4a98.4,98.4,0,0,1-8.2,5.77m-11.83-9.54-1.7-1.93c-.31-.36-.65-.33-1,.08-2.19,2-3.94,3.83-5.33,5.33q-2.48,2.72-1.81,3.49c.54.51,1.78,0,3.85-1.58,1.05-.65,3-2.17,5.8-4.39q.68-.46.21-1" fill="#fff"/><path d="M2.56,122.69a13.13,13.13,0,0,1-2.43-5.91,4.33,4.33,0,0,1,3-5.37c4.9-2,9.1-2.5,12.62-1.62A11.46,11.46,0,0,1,22.07,114a2.91,2.91,0,0,1,.25,3.49c-1.47,2.43-3.14,3-4,1.8a7.5,7.5,0,0,0-4.36-3c-.82-.08-1.07.22-.87,1,.74,2.4,0,4.07-2.1,5-1.39.54-2.74,1-4.11,1.39a4.46,4.46,0,0,1-4.27-1" fill="#fff"/></svg>