<svg xmlns="http://www.w3.org/2000/svg" viewBox="0 0 350.84 113.01"><defs><style>.cls-1{fill:#ff3200;}.cls-2{fill:#ffc300;}.cls-3{fill:none;stroke:#ff3200;stroke-miterlimit:10;stroke-width:1.64px;}</style></defs><title>yellow-red-title-img</title><g id="Layer_2" data-name="Layer 2"><g id="Layer_1-2" data-name="Layer 1"><path class="cls-1" d="M79.72,62c0,28.14-17.66,51-39.45,51S.82,90.19.82,62s17.66-51,39.45-51S79.72,33.91,79.72,62"/><path class="cls-1" d="M119.17,62c0,28.14-17.66,51-39.45,51S40.27,90.19,40.27,62s17.66-51,39.45-51,39.45,22.81,39.45,51"/><path class="cls-1" d="M158.62,62c0,28.14-17.66,51-39.45,51S79.72,90.19,79.72,62s17.66-51,39.45-51,39.45,22.81,39.45,51"/><path class="cls-1" d="M198.07,62c0,28.14-17.66,51-39.45,51s-39.45-22.81-39.45-51,17.66-51,39.45-51,39.45,22.81,39.45,51"/><path class="cls-1" d="M231.67,62c0,28.14-17.66,51-39.45,51s-39.45-22.81-39.45-51,17.66-51,39.45-51,39.45,22.81,39.45,51"/><path class="cls-1" d="M271.12,62c0,28.14-17.66,51-39.45,51s-39.45-22.81-39.45-51,17.66-51,39.45-51,39.45,22.81,39.45,51"/><path class="cls-1" d="M310.57,62c0,28.14-17.66,51-39.45,51s-39.45-22.81-39.45-51,17.66-51,39.45-51,39.45,22.81,39.45,51"/><path class="cls-1" d="M350,62c0,28.14-17.66,51-39.45,51s-39.45-22.81-39.45-51,17.66-51,39.45-51S350,33.91,350,62"/><path class="cls-2" d="M310.57.82a32.76,32.76,0,0,0-19.73,6.83,31.88,31.88,0,0,0-39.45,0,31.88,31.88,0,0,0-39.45,0A32.76,32.76,0,0,0,192.22.82a32.1,32.1,0,0,0-16.8,4.85A32.1,32.1,0,0,0,158.62.82a32.76,32.76,0,0,0-19.72,6.83,31.88,31.88,0,0,0-39.45,0A31.88,31.88,0,0,0,60,7.65,32.76,32.76,0,0,0,40.27.82C18.48.82.82,23.63.82,51.78s17.66,51,39.45,51A32.76,32.76,0,0,0,60,95.9a31.88,31.88,0,0,0,39.45,0,31.88,31.88,0,0,0,39.45,0,32.76,32.76,0,0,0,19.72,6.83,32.1,32.1,0,0,0,16.8-4.85,32.1,32.1,0,0,0,16.8,4.85,32.76,32.76,0,0,0,19.72-6.83,31.88,31.88,0,0,0,39.45,0,31.88,31.88,0,0,0,39.45,0,32.76,32.76,0,0,0,19.73,6.83c21.79,0,39.45-22.81,39.45-51s-17.66-51-39.45-51"/><path class="cls-3" d="M310.57.82a32.76,32.76,0,0,0-19.73,6.83,31.88,31.88,0,0,0-39.45,0,31.88,31.88,0,0,0-39.45,0A32.76,32.76,0,0,0,192.22.82a32.1,32.1,0,0,0-16.8,4.85A32.1,32.1,0,0,0,158.62.82a32.76,32.76,0,0,0-19.72,6.83,31.88,31.88,0,0,0-39.45,0A31.88,31.88,0,0,0,60,7.65,32.76,32.76,0,0,0,40.27.82C18.48.82.82,23.63.82,51.78s17.66,51,39.45,51A32.76,32.76,0,0,0,60,95.9a31.88,31.88,0,0,0,39.45,0,31.88,31.88,0,0,0,39.45,0,32.76,32.76,0,0,0,19.72,6.83,32.1,32.1,0,0,0,16.8-4.85,32.1,32.1,0,0,0,16.8,4.85,32.76,32.76,0,0,0,19.72-6.83,31.88,31.88,0,0,0,39.45,0,31.88,31.88,0,0,0,39.45,0,32.76,32.76,0,0,0,19.73,6.83c21.79,0,39.45-22.81,39.45-51S332.36.82,310.57.82Z"/></g></g></svg>