<?xml version="1.0" encoding="utf-8"?>
<!-- Generator: Adobe Illustrator 21.0.0, SVG Export Plug-In . SVG Version: 6.00 Build 0)  -->
<svg version="1.1" id="Layer_1" xmlns="http://www.w3.org/2000/svg" xmlns:xlink="http://www.w3.org/1999/xlink" x="0px" y="0px"
	 viewBox="0 0 307.8 86" style="enable-background:new 0 0 307.8 86;" xml:space="preserve">
<style type="text/css">
	.st0{fill:#952E46;}
	.st1{filter:url(#Adobe_OpacityMaskFilter);}
	.st2{clip-path:url(#SVGID_2_);}
	.st3{enable-background:new    ;}
	.st4{clip-path:url(#SVGID_2_);mask:url(#SVGID_3_);}
	.st5{clip-path:url(#SVGID_5_);fill:#FFFFFF;}
	.st6{clip-path:url(#SVGID_2_);fill:#FFFFFF;}
	.st7{clip-path:url(#SVGID_7_);fill:#FFFFFF;}
	.st8{clip-path:url(#SVGID_9_);fill:#FFFFFF;}
	.st9{clip-path:url(#SVGID_9_);fill:none;stroke:#333333;stroke-width:6;stroke-miterlimit:10;}
	.st10{fill:none;}
	.st11{clip-path:url(#SVGID_11_);fill:#377C36;}
	.st12{clip-path:url(#SVGID_11_);fill:#F4BD42;}
	.st13{clip-path:url(#SVGID_11_);fill:none;stroke:#377C36;stroke-width:2.443;stroke-miterlimit:10;}
	.st14{fill:#377C36;}
	.st15{fill:#ffbe00;}
	.st16{fill:none;stroke:#377C36;stroke-width:2.443;stroke-miterlimit:10;}
	.st17{fill:#F84919;}
	.st18{fill:#333333;}
	.st19{fill:#007C36;}
	.st20{fill:#FFC600;}
	.st21{fill:#FFA7FF;}
	.st22{fill:#FDF7F3;}
	.st23{fill:#041639;}
	.st24{fill:#FF3200;}
	.st25{fill:#FAE3C6;}
	.st26{fill:#F7F2FD;}
	.st27{fill:#FBDEFF;}
	.st28{clip-path:url(#SVGID_13_);fill:#377C36;}
	.st29{clip-path:url(#SVGID_13_);fill:#F4BD42;}
	.st30{clip-path:url(#SVGID_13_);fill:none;stroke:#377C36;stroke-width:2.443;stroke-miterlimit:10;}
	.st31{clip-path:url(#SVGID_15_);fill:#007C36;}
	.st32{clip-path:url(#SVGID_15_);fill:#333333;}
	.st33{clip-path:url(#SVGID_15_);fill:#FFA7FF;}
	.st34{clip-path:url(#SVGID_15_);fill:#F84919;}
	.st35{clip-path:url(#SVGID_15_);fill:#041639;}
	.st36{clip-path:url(#SVGID_15_);fill:#FDFFFD;}
	.st37{clip-path:url(#SVGID_15_);fill:#FBDEFF;}
	.st38{clip-path:url(#SVGID_15_);fill:none;stroke:#000000;stroke-width:3;stroke-miterlimit:10;}
	.st39{clip-path:url(#SVGID_17_);fill:#377C36;}
	.st40{clip-path:url(#SVGID_17_);fill:#F4BD42;}
	.st41{clip-path:url(#SVGID_17_);fill:none;stroke:#377C36;stroke-width:2.443;stroke-miterlimit:10;}
	.st42{fill:#FFFFFF;}
	.st43{fill:#AD5068;}
	.st44{clip-path:url(#SVGID_19_);fill:#FFFFFF;}
	.st45{fill:#006820;}
	.st46{fill:#FFC500;}
	.st47{fill:#020E36;}
	.st48{fill:none;stroke:#007C36;stroke-width:2.443;stroke-miterlimit:10;}
	.st49{clip-path:url(#SVGID_21_);fill:#027A3E;}
	.st50{clip-path:url(#SVGID_21_);fill:#FFFFFF;}
	.st51{clip-path:url(#SVGID_21_);fill:#51B77A;}
	.st52{clip-path:url(#SVGID_21_);fill:#E93323;}
	.st53{clip-path:url(#SVGID_21_);fill:#333333;}
	.st54{clip-path:url(#SVGID_23_);fill:#F94A19;}
	.st55{filter:url(#Adobe_OpacityMaskFilter_1_);}
	.st56{clip-path:url(#SVGID_25_);}
	.st57{clip-path:url(#SVGID_25_);mask:url(#SVGID_26_);}
	.st58{clip-path:url(#SVGID_28_);fill:#F64A19;}
	.st59{clip-path:url(#SVGID_25_);fill:#F64A19;}
	.st60{clip-path:url(#SVGID_30_);fill:#333333;}
	.st61{clip-path:url(#SVGID_30_);fill:#FFFFFF;}
	.st62{clip-path:url(#SVGID_30_);fill:#D93F41;}
	.st63{clip-path:url(#SVGID_32_);fill:#333333;}
	.st64{clip-path:url(#SVGID_32_);fill:#F64A19;}
</style>
<path class="st14" d="M72.8,47.5C72.8,68.8,57.4,86,38.5,86C19.5,86,4.2,68.8,4.2,47.5C4.2,26.2,19.5,9,38.5,9
	C57.4,9,72.8,26.2,72.8,47.5"/>
<path class="st14" d="M107.1,47.5c0,21.3-15.4,38.5-34.3,38.5c-18.9,0-34.3-17.2-34.3-38.5C38.5,26.2,53.8,9,72.8,9
	C91.7,9,107.1,26.2,107.1,47.5"/>
<path class="st14" d="M141.4,47.5c0,21.3-15.4,38.5-34.3,38.5c-18.9,0-34.3-17.2-34.3-38.5C72.8,26.2,88.1,9,107.1,9
	C126,9,141.4,26.2,141.4,47.5"/>
<path class="st14" d="M175.7,47.5c0,21.3-15.4,38.5-34.3,38.5c-18.9,0-34.3-17.2-34.3-38.5c0-21.3,15.4-38.5,34.3-38.5
	C160.3,9,175.7,26.2,175.7,47.5"/>
<path class="st14" d="M204.9,47.5c0,21.3-15.4,38.5-34.3,38.5c-18.9,0-34.3-17.2-34.3-38.5c0-21.3,15.4-38.5,34.3-38.5
	C189.6,9,204.9,26.2,204.9,47.5"/>
<path class="st14" d="M239.2,47.5c0,21.3-15.4,38.5-34.3,38.5c-18.9,0-34.3-17.2-34.3-38.5C170.6,26.2,186,9,204.9,9
	C223.9,9,239.2,26.2,239.2,47.5"/>
<path class="st14" d="M273.5,47.5c0,21.3-15.4,38.5-34.3,38.5c-18.9,0-34.3-17.2-34.3-38.5c0-21.3,15.4-38.5,34.3-38.5
	C258.2,9,273.5,26.2,273.5,47.5"/>
<path class="st14" d="M307.8,47.5c0,21.3-15.4,38.5-34.3,38.5c-18.9,0-34.3-17.2-34.3-38.5c0-21.3,15.4-38.5,34.3-38.5
	C292.5,9,307.8,26.2,307.8,47.5"/>
<path class="st15" d="M270.6,1.2c-6.3,0-12.1,1.9-17.2,5.2c-5-3.3-10.9-5.2-17.2-5.2c-6.3,0-12.1,1.9-17.2,5.2
	c-5-3.3-10.9-5.2-17.2-5.2c-6.3,0-12.1,1.9-17.2,5.2c-5-3.3-10.9-5.2-17.2-5.2c-5.2,0-10.2,1.3-14.6,3.7c-4.4-2.3-9.4-3.7-14.6-3.7
	c-6.3,0-12.1,1.9-17.2,5.2c-5-3.3-10.9-5.2-17.2-5.2C97.9,1.2,92,3.1,87,6.4c-5-3.3-10.9-5.2-17.2-5.2c-6.3,0-12.1,1.9-17.2,5.2
	c-5-3.3-10.9-5.2-17.2-5.2C16.6,1.2,1.2,18.5,1.2,39.7c0,21.3,15.4,38.5,34.3,38.5c6.3,0,12.1-1.9,17.2-5.2c5,3.3,10.9,5.2,17.2,5.2
	c6.3,0,12.1-1.9,17.2-5.2c5,3.3,10.9,5.2,17.2,5.2c6.3,0,12.1-1.9,17.2-5.2c5,3.3,10.9,5.2,17.2,5.2c5.2,0,10.2-1.3,14.6-3.7
	c4.4,2.3,9.4,3.7,14.6,3.7c6.3,0,12.1-1.9,17.2-5.2c5,3.3,10.9,5.2,17.2,5.2c6.3,0,12.1-1.9,17.2-5.2c5,3.3,10.9,5.2,17.2,5.2
	c6.3,0,12.1-1.9,17.2-5.2c5,3.3,10.9,5.2,17.2,5.2c18.9,0,34.3-17.2,34.3-38.5C304.9,18.5,289.5,1.2,270.6,1.2"/>
<path class="st16" d="M270.6,1.2c-6.3,0-12.1,1.9-17.2,5.2c-5-3.3-10.9-5.2-17.2-5.2c-6.3,0-12.1,1.9-17.2,5.2
	c-5-3.3-10.9-5.2-17.2-5.2c-6.3,0-12.1,1.9-17.2,5.2c-5-3.3-10.9-5.2-17.2-5.2c-5.2,0-10.2,1.3-14.6,3.7c-4.4-2.3-9.4-3.7-14.6-3.7
	c-6.3,0-12.1,1.9-17.2,5.2c-5-3.3-10.9-5.2-17.2-5.2C97.9,1.2,92,3.1,87,6.4c-5-3.3-10.9-5.2-17.2-5.2c-6.3,0-12.1,1.9-17.2,5.2
	c-5-3.3-10.9-5.2-17.2-5.2C16.6,1.2,1.2,18.5,1.2,39.7c0,21.3,15.4,38.5,34.3,38.5c6.3,0,12.1-1.9,17.2-5.2c5,3.3,10.9,5.2,17.2,5.2
	c6.3,0,12.1-1.9,17.2-5.2c5,3.3,10.9,5.2,17.2,5.2c6.3,0,12.1-1.9,17.2-5.2c5,3.3,10.9,5.2,17.2,5.2c5.2,0,10.2-1.3,14.6-3.7
	c4.4,2.3,9.4,3.7,14.6,3.7c6.3,0,12.1-1.9,17.2-5.2c5,3.3,10.9,5.2,17.2,5.2c6.3,0,12.1-1.9,17.2-5.2c5,3.3,10.9,5.2,17.2,5.2
	c6.3,0,12.1-1.9,17.2-5.2c5,3.3,10.9,5.2,17.2,5.2c18.9,0,34.3-17.2,34.3-38.5C304.9,18.5,289.5,1.2,270.6,1.2z"/>
</svg>
