<svg id="Layer_1" data-name="Layer 1" xmlns="http://www.w3.org/2000/svg" viewBox="0 0 557.19 95.99"><title>white  zitimama logo</title><path d="M11.1,92.71C3.33,92.71,0,89,0,80.38a20,20,0,0,1,1-6.66L19.48,31.07H11.1C3.33,31.07,0,27.37,0,18.74S3.33,6.41,11.1,6.41H38.83c7.77,0,11.09,3.7,11.09,12.33,0,3.58-.62,6.41-1.85,8.38L30.45,68.05h8.38c7.77,0,11.09,3.7,11.09,12.33S46.6,92.71,38.83,92.71Z" fill="#fff"/><path d="M82.73,82.11c0,8.83-3.79,12.62-12.62,12.62S57.49,90.94,57.49,82.11V19c0-8.83,3.79-12.62,12.62-12.62S82.73,10.19,82.73,19Z" fill="#fff"/><path d="M143.92,19c0,8.83-3.79,12.62-12.62,12.62-2.52,0-3.15,1.26-3.15,6.31V83.37c0,8.83-3.78,12.62-12.62,12.62s-12.62-3.79-12.62-12.62V38c0-5-.63-6.31-3.15-6.31-8.83,0-12.62-3.79-12.62-12.62S90.93,6.41,99.76,6.41H131.3c8.83,0,12.62,3.79,12.62,12.62" fill="#fff"/><path d="M173.56,82.11c0,8.83-3.79,12.62-12.62,12.62s-12.62-3.79-12.62-12.62V19c0-8.83,3.79-12.62,12.62-12.62S173.56,10.19,173.56,19Z" fill="#fff"/><path d="M219,42.62a1.34,1.34,0,0,0,1.26-1.26L224,16.63c1.26-8.07,7.7-10.22,17.16-10.22,12.24,0,15.64,3.78,15.64,12.62V84.63c0,7.07-3.41,10.09-11.36,10.09s-11.36-3-11.36-10.09V59.78c0-1-.25-1.26-.5-1.26s-.63.38-.76,1.26l-3.79,26c-1.14,7.95-5.43,9-10.09,9s-9-1-10.09-9l-3.79-26c-.13-.88-.38-1.26-.76-1.26s-.5.25-.5,1.26V84.63c0,7.07-3.41,10.09-11.36,10.09s-11.36-3-11.36-10.09V19c0-8.83,3.41-12.62,15.64-12.62,9.46,0,15.9,2.14,17.16,10.22l3.79,24.73A1.34,1.34,0,0,0,219,42.62" fill="#fff"/><path d="M292.79,31.62c-2.52,0-3.15,1.26-3.15,6.31v9.46c0,5,.63,6.31,3.15,6.31s3.15-1.26,3.15-6.31V37.93c0-5-.63-6.31-3.15-6.31m28.39,50.47c-.13,8.83-3.79,12.62-12.62,12.62s-12.62-3.79-12.62-12.62V72.63c0-5-.63-6.31-3.15-6.31s-3.15,1.26-3.15,6.31v9.46c0,8.83-3.79,12.62-12.62,12.62S264.4,90.92,264.4,82.09V36.67c0-18.8,6.31-31.54,28.39-31.54s28.39,12.74,28.39,31.54Z" fill="#fff"/><path d="M366.59,42.62a1.34,1.34,0,0,0,1.26-1.26l3.79-24.73c1.26-8.07,7.7-10.22,17.16-10.22,12.24,0,15.64,3.78,15.64,12.62V84.63c0,7.07-3.41,10.09-11.36,10.09s-11.36-3-11.36-10.09V59.78c0-1-.25-1.26-.5-1.26s-.63.38-.76,1.26l-3.79,26c-1.14,7.95-5.43,9-10.09,9s-9-1-10.09-9l-3.79-26c-.13-.88-.38-1.26-.76-1.26s-.5.25-.5,1.26V84.63c0,7.07-3.41,10.09-11.36,10.09s-11.36-3-11.36-10.09V19c0-8.83,3.41-12.62,15.64-12.62,9.46,0,15.9,2.14,17.16,10.22l3.79,24.73a1.33,1.33,0,0,0,1.26,1.26" fill="#fff"/><path d="M440.39,31.62c-2.52,0-3.15,1.26-3.15,6.31v9.46c0,5,.63,6.31,3.15,6.31s3.15-1.26,3.15-6.31V37.93c0-5-.63-6.31-3.15-6.31m28.39,50.47c-.13,8.83-3.79,12.62-12.62,12.62s-12.62-3.79-12.62-12.62V72.63c0-5-.63-6.31-3.15-6.31s-3.15,1.26-3.15,6.31v9.46c0,8.83-3.78,12.62-12.62,12.62S412,90.92,412,82.09V36.67c0-18.8,6.31-31.54,28.39-31.54s28.39,12.74,28.39,31.54Z" fill="#fff"/><path d="M484.55,24.6c0-1.51-1.14-1.89-2.52-1.89-4.92,0-7.57-4-7.57-11.36S478.49,0,485.81,0c6.56,0,11.36,3.53,11.36,15.14,0,13.75-6.43,19.18-12.62,19.18-4.79,0-7.57-1.89-7.57-4.67,0-2,1.51-3.15,4.42-3.15,1.77,0,3.15-.38,3.15-1.89" fill="#fff"/><path d="M528.76,74.33c3,0,3.71-1.24,3.71-6.18,0-13.59-30.89-6.18-30.89-38.31,0-14.7,8.65-24.71,27.8-24.71,18.29,0,26.57,8.53,26.57,21,0,7-3.34,12.36-11.12,12.36-8.65,0-12.36-4.2-12.36-9.89,0-2.84-.62-3.71-3.09-3.71s-3.09,1.24-3.09,6.18c0,13.59,30.89,6.18,30.89,38.31,0,14.71-8.9,24.71-28.42,24.71-18.78,0-27.19-8.53-27.19-21,0-7.29,3.34-12.36,11.12-12.36,8.65,0,12.36,4.08,12.36,9.89,0,3,.74,3.71,3.71,3.71" fill="#fff"/></svg>