<svg xmlns="http://www.w3.org/2000/svg" viewBox="0 0 694.47 119.64"><defs><style>.cls-1{fill:#ed562e;}</style></defs><title>Asset 2</title><g id="Layer_2" data-name="Layer 2"><g id="Layer_1-2" data-name="Layer 1"><path class="cls-1" d="M13.83,115.55C4.15,115.55,0,110.94,0,100.18a24.87,24.87,0,0,1,1.23-8.3l23-53.17H13.83C4.15,38.72,0,34.11,0,23.35S4.15,8,13.83,8H48.4c9.68,0,13.83,4.61,13.83,15.37,0,4.46-.77,8-2.3,10.45l-22,51H48.4c9.68,0,13.83,4.61,13.83,15.37s-4.15,15.37-13.83,15.37Z"/><path class="cls-1" d="M103.11,102.34c0,11-4.72,15.73-15.73,15.73s-15.73-4.72-15.73-15.73V23.71C71.66,12.71,76.38,8,87.39,8s15.73,4.72,15.73,15.72Z"/><path class="cls-1" d="M179.38,23.71c0,11-4.72,15.73-15.73,15.73-3.14,0-3.93,1.57-3.93,7.86v56.61c0,11-4.72,15.73-15.73,15.73s-15.72-4.72-15.72-15.73V47.3c0-6.29-.79-7.86-3.93-7.86-11,0-15.73-4.72-15.73-15.73S113.33,8,124.34,8h39.31c11,0,15.73,4.72,15.73,15.73"/><path class="cls-1" d="M216.33,102.34c0,11-4.72,15.73-15.73,15.73s-15.73-4.72-15.73-15.73V23.71c0-11,4.72-15.72,15.73-15.72s15.73,4.72,15.73,15.72Z"/><path class="cls-1" d="M272.94,53.12a1.67,1.67,0,0,0,1.57-1.57l4.72-30.82C280.8,10.66,288.82,8,300.61,8c15.25,0,19.5,4.72,19.5,15.72v81.77c0,8.81-4.25,12.58-14.15,12.58s-14.15-3.77-14.15-12.58v-31c0-1.26-.32-1.57-.63-1.57-.47,0-.79.47-.94,1.57l-4.72,32.39c-1.42,9.91-6.76,11.17-12.58,11.17s-11.17-1.26-12.58-11.17l-4.72-32.39c-.16-1.1-.47-1.57-.94-1.57-.31,0-.63.32-.63,1.57v31c0,8.81-4.25,12.58-14.15,12.58s-14.15-3.77-14.15-12.58V23.71c0-11,4.25-15.72,19.5-15.72,11.79,0,19.81,2.67,21.39,12.74l4.72,30.82a1.67,1.67,0,0,0,1.57,1.57"/><path class="cls-1" d="M364.92,39.41c-3.14,0-3.93,1.57-3.93,7.86V59.07c0,6.29.79,7.86,3.93,7.86s3.93-1.57,3.93-7.86V47.28c0-6.29-.79-7.86-3.93-7.86m35.38,62.9c-.16,11-4.72,15.73-15.73,15.73s-15.73-4.72-15.73-15.73V90.52c0-6.29-.79-7.86-3.93-7.86S361,84.23,361,90.52v11.79c0,11-4.72,15.73-15.72,15.73s-15.73-4.72-15.73-15.73V45.7c0-23.43,7.86-39.31,35.38-39.31s35.38,15.88,35.38,39.31Z"/><path class="cls-1" d="M456.91,53.12a1.67,1.67,0,0,0,1.57-1.57l4.72-30.82C464.78,10.66,472.8,8,484.59,8c15.25,0,19.5,4.72,19.5,15.72v81.77c0,8.81-4.25,12.58-14.15,12.58s-14.15-3.77-14.15-12.58v-31c0-1.26-.32-1.57-.63-1.57-.47,0-.79.47-.94,1.57l-4.72,32.39c-1.42,9.91-6.76,11.17-12.58,11.17s-11.17-1.26-12.58-11.17l-4.72-32.39c-.16-1.1-.47-1.57-.94-1.57-.31,0-.63.32-.63,1.57v31c0,8.81-4.25,12.58-14.15,12.58s-14.15-3.77-14.15-12.58V23.71c0-11,4.25-15.72,19.5-15.72C441,8,449,10.66,450.62,20.73l4.72,30.82a1.67,1.67,0,0,0,1.57,1.57"/><path class="cls-1" d="M548.9,39.41c-3.15,0-3.93,1.57-3.93,7.86V59.07c0,6.29.79,7.86,3.93,7.86s3.93-1.57,3.93-7.86V47.28c0-6.29-.79-7.86-3.93-7.86m35.38,62.9c-.16,11-4.72,15.73-15.73,15.73s-15.73-4.72-15.73-15.73V90.52c0-6.29-.79-7.86-3.93-7.86S545,84.23,545,90.52v11.79c0,11-4.72,15.73-15.73,15.73s-15.72-4.72-15.72-15.73V45.7c0-23.43,7.86-39.31,35.38-39.31s35.38,15.88,35.38,39.31Z"/><path class="cls-1" d="M603.93,30.66c0-1.89-1.42-2.36-3.15-2.36-6.13,0-9.44-5-9.44-14.15S596.39,0,605.51,0c8.18,0,14.15,4.4,14.15,18.87,0,17.14-8,23.9-15.73,23.9-6,0-9.44-2.36-9.44-5.82,0-2.52,1.89-3.93,5.5-3.93,2.2,0,3.93-.47,3.93-2.36"/><path class="cls-1" d="M659,92.64c3.7,0,4.62-1.54,4.62-7.7,0-16.94-38.5-7.7-38.5-47.75,0-18.33,10.78-30.8,34.65-30.8,22.8,0,33.11,10.63,33.11,26.18,0,8.78-4.16,15.4-13.86,15.4-10.78,0-15.4-5.24-15.4-12.32,0-3.54-.77-4.62-3.85-4.62S656,32.57,656,38.73c0,16.94,38.51,7.7,38.51,47.75,0,18.33-11.09,30.8-35.42,30.8-23.41,0-33.88-10.63-33.88-26.18,0-9.09,4.16-15.4,13.86-15.4,10.78,0,15.4,5.08,15.4,12.32,0,3.7.92,4.62,4.62,4.62"/></g></g></svg>