<svg id="Layer_1" data-name="Layer 1" xmlns="http://www.w3.org/2000/svg" viewBox="0 0 332.1 57.21"><title>Zitimama logo</title><path d="M6.61,55.26C2,55.26,0,53.05,0,47.91a11.88,11.88,0,0,1,.59-4l11-25.42h-5C2,18.52,0,16.31,0,11.17S2,3.82,6.61,3.82H23.15c4.63,0,6.61,2.21,6.61,7.35a9.5,9.5,0,0,1-1.1,5L18.15,40.56h5c4.63,0,6.61,2.21,6.61,7.35s-2,7.35-6.61,7.35Z" fill="#ffc300"/><path d="M49.31,48.94c0,5.27-2.26,7.52-7.52,7.52s-7.52-2.26-7.52-7.52V11.34c0-5.26,2.26-7.52,7.52-7.52s7.52,2.26,7.52,7.52Z" fill="#ffc300"/><path d="M85.78,11.34c0,5.27-2.26,7.52-7.52,7.52-1.5,0-1.88.75-1.88,3.76V49.69c0,5.26-2.26,7.52-7.52,7.52S61.34,55,61.34,49.69V22.62c0-3-.38-3.76-1.88-3.76-5.26,0-7.52-2.26-7.52-7.52s2.26-7.52,7.52-7.52h18.8c5.26,0,7.52,2.26,7.52,7.52" fill="#ffc300"/><path d="M103.45,48.94c0,5.27-2.26,7.52-7.52,7.52s-7.52-2.26-7.52-7.52V11.34c0-5.26,2.26-7.52,7.52-7.52s7.52,2.26,7.52,7.52Z" fill="#ffc300"/><path d="M130.52,25.4a.8.8,0,0,0,.75-.75l2.26-14.74c.75-4.81,4.59-6.09,10.23-6.09,7.3,0,9.33,2.26,9.33,7.52V50.44c0,4.21-2,6-6.77,6s-6.77-1.81-6.77-6V35.63c0-.6-.15-.75-.3-.75s-.38.22-.45.75l-2.26,15.49c-.68,4.74-3.23,5.34-6,5.34s-5.34-.6-6-5.34l-2.26-15.49c-.07-.53-.23-.75-.45-.75s-.3.15-.3.75V50.44c0,4.21-2,6-6.77,6s-6.77-1.81-6.77-6V11.34c0-5.26,2-7.52,9.33-7.52,5.64,0,9.47,1.28,10.23,6.09l2.26,14.74a.8.8,0,0,0,.75.75" fill="#ffc300"/><path d="M174.51,18.85c-1.5,0-1.88.75-1.88,3.76v5.64c0,3,.38,3.76,1.88,3.76s1.88-.75,1.88-3.76V22.61c0-3-.38-3.76-1.88-3.76m16.92,30.08c-.08,5.26-2.26,7.52-7.52,7.52s-7.52-2.26-7.52-7.52V43.29c0-3-.38-3.76-1.88-3.76s-1.88.75-1.88,3.76v5.64c0,5.26-2.26,7.52-7.52,7.52s-7.52-2.26-7.52-7.52V21.86c0-11.21,3.76-18.8,16.92-18.8s16.92,7.59,16.92,18.8Z" fill="#ffc300"/><path d="M218.5,25.4a.8.8,0,0,0,.75-.75l2.26-14.74c.75-4.81,4.59-6.09,10.23-6.09,7.3,0,9.33,2.26,9.33,7.52V50.44c0,4.21-2,6-6.77,6s-6.77-1.81-6.77-6V35.63c0-.6-.15-.75-.3-.75s-.38.22-.45.75l-2.26,15.49c-.68,4.74-3.23,5.34-6,5.34s-5.34-.6-6-5.34l-2.26-15.49c-.08-.53-.23-.75-.45-.75s-.3.15-.3.75V50.44c0,4.21-2,6-6.77,6s-6.77-1.81-6.77-6V11.34c0-5.26,2-7.52,9.33-7.52,5.64,0,9.48,1.28,10.23,6.09l2.26,14.74a.8.8,0,0,0,.75.75" fill="#ffc300"/><path d="M262.49,18.85c-1.5,0-1.88.75-1.88,3.76v5.64c0,3,.38,3.76,1.88,3.76s1.88-.75,1.88-3.76V22.61c0-3-.38-3.76-1.88-3.76m16.92,30.08c-.08,5.26-2.26,7.52-7.52,7.52s-7.52-2.26-7.52-7.52V43.29c0-3-.38-3.76-1.88-3.76s-1.88.75-1.88,3.76v5.64c0,5.26-2.26,7.52-7.52,7.52s-7.52-2.26-7.52-7.52V21.86c0-11.21,3.76-18.8,16.92-18.8s16.92,7.59,16.92,18.8Z" fill="#ffc300"/><path d="M288.81,14.66c0-.9-.68-1.13-1.5-1.13-2.93,0-4.51-2.41-4.51-6.77S285.2,0,289.56,0c3.91,0,6.77,2.1,6.77,9,0,8.2-3.83,11.43-7.52,11.43-2.86,0-4.51-1.13-4.51-2.78,0-1.2.9-1.88,2.63-1.88,1.05,0,1.88-.23,1.88-1.13" fill="#ffc300"/><path d="M315.16,44.3c1.77,0,2.21-.74,2.21-3.68,0-8.1-18.41-3.68-18.41-22.83C299,9,304.11,3.06,315.53,3.06c10.9,0,15.84,5.08,15.84,12.52,0,4.2-2,7.37-6.63,7.37-5.16,0-7.36-2.5-7.36-5.89,0-1.69-.37-2.21-1.84-2.21s-1.84.74-1.84,3.68c0,8.1,18.41,3.68,18.41,22.83,0,8.76-5.3,14.73-16.94,14.73C304,56.08,299,51,299,43.57c0-4.35,2-7.37,6.63-7.37,5.16,0,7.36,2.43,7.36,5.89,0,1.77.44,2.21,2.21,2.21" fill="#ffc300"/></svg>