<?xml version="1.0" standalone="no"?><!DOCTYPE svg PUBLIC "-//W3C//DTD SVG 1.1//EN" "http://www.w3.org/Graphics/SVG/1.1/DTD/svg11.dtd" ><svg version="1.1" xmlns="http://www.w3.org/2000/svg"><defs><font horiz-adv-x="0" id="font"><font-face ascent="750" bbox="-100.0461 -110 625 710" cap-height="700" descent="-130" font-family="Mayonnaise" units-per-em="1000" x-height="620" /><missing-glyph horiz-adv-x="500" /><glyph d="M451 24C467 40 475 65 475 100V460C475 609 425 710 250 710C173 710 120 690 85 655L-16 555C-60 511 -75 443 -75 360V0C-75 -70 -45 -100 25 -100C60 -100 85 -93 101 -77L175 -3C176 -71 206 -100 275 -100C310 -100 334 -93 350 -77Z" glyph-name="A" horiz-adv-x="500" /><glyph d="M328 -46C293 -80 237 -100 150 -100H75C-50 -100 -75 -75 -75 50V450C-75 512 -68 550 -46 572L53 671C76 694 113 700 175 700H250C425 700 475 620 475 500C475 396 442 365 385 365C377 365 375 364 375 360C375 356 377 355 385 355C442 355 475 324 475 200C475 140 463 90 428 55Z" glyph-name="B" horiz-adv-x="500" /><glyph d="M316 -55C281 -90 228 -110 150 -110C-25 -110 -75 -9 -75 140V360C-75 443 -60 511 -16 555L84 655C119 690 172 710 250 710C425 710 475 610 475 460C475 429 469 407 455 393L390 330C449 326 475 303 475 240C475 157 459 88 415 44Z" glyph-name="C" horiz-adv-x="500" /><glyph d="M317 -44C282 -80 229 -100 150 -100H75C-50 -100 -75 -75 -75 50V450C-75 513 -69 550 -47 572L53 672C75 694 113 700 175 700H250C425 700 474 600 475 450V250C475 166 460 99 416 55Z" glyph-name="D" horiz-adv-x="500" /><glyph d="M305 200H325C395 200 425 170 425 100C425 66 418 41 402 25L302 -76C286 -92 261 -100 225 -100H75C-50 -100 -75 -75 -75 50V450C-75 513 -68 550 -46 572L54 672C76 694 113 700 175 700H315C385 700 415 670 415 600C415 566 408 541 392 525L315 450C378 447 405 417 405 350C405 315 398 290 381 274Z" glyph-name="E" horiz-adv-x="450" /><glyph d="M102 -76 202 24C218 40 225 65 225 100V154C240 158 253 165 262 174L362 274C379 291 385 315 385 350C385 406 366 436 323 446L402 524C418 540 425 565 425 600C425 670 395 700 325 700H175C113 700 75 694 53 672L-47 571C-69 549 -75 512 -75 450V0C-75 -70 -45 -100 25 -100C60 -100 86 -92 102 -76Z" glyph-name="F" horiz-adv-x="425" /><glyph d="M213 -75 247 -41C255 -78 283 -100 325 -100C341 -100 354 -95 363 -86L463 14C471 22 475 34 475 50V240C475 302 450 326 391 330L455 393C470 407 475 429 475 460C475 610 425 710 250 710C177 710 124 695 91 662L-12 559C-59 516 -75 446 -75 360V140C-75 -9 -34 -110 110 -110C156 -110 192 -97 213 -75Z" glyph-name="G" horiz-adv-x="500" /><glyph d="M352 -76 451 24C467 41 475 65 475 100V600C475 670 445 700 375 700C340 700 315 693 299 676L225 600C225 670 195 700 125 700C90 700 66 692 49 676L-51 577C-67 561 -75 535 -75 500V0C-75 -70 -45 -100 25 -100C60 -100 85 -93 101 -77L175 -3C175 -70 205 -100 275 -100C310 -100 336 -92 352 -76Z" glyph-name="H" horiz-adv-x="500" /><glyph d="M101 -77C85 -93 60 -100 25 -100C-45 -100 -75 -70 -75 0V500C-75 534 -68 559 -52 575L48 675C65 692 89 700 125 700C195 700 225 670 225 600V100C225 65 218 40 201 23Z" glyph-name="I" horiz-adv-x="250" /><glyph d="M317 -54C282 -90 228 -110 150 -110C-25 -110 -75 -9 -75 140C-75 172 -68 194 -54 208L44 306C61 323 87 330 125 330C145 330 161 328 175 324V500C175 535 183 560 199 576L298 676C314 693 340 700 375 700C445 700 475 670 475 600V240C475 159 461 91 418 48Z" glyph-name="J" horiz-adv-x="500" /><glyph d="M379 -73 480 27C495 41 500 62 500 90C500 138 478 154 478 185C478 284 453 324 408 333L440 364C463 387 475 432 475 515V600C475 670 445 700 375 700C340 700 315 693 299 676L225 600C225 670 195 700 125 700C90 700 64 692 48 676L-52 576C-69 559 -75 535 -75 500V0C-74 -70 -45 -100 25 -100C60 -100 86 -92 102 -76L178 1C188 -69 222 -100 287 -100C331 -100 361 -92 379 -73Z" glyph-name="K" horiz-adv-x="500" /><glyph d="M251 -76C235 -92 210 -100 175 -100H75C-50 -100 -74 -75 -75 50V510C-75 545 -68 570 -52 586L47 685C64 702 89 710 125 710C195 710 225 680 225 610V250C225 210 230 200 250 200H275C345 200 375 170 375 100C375 65 368 41 351 24Z" glyph-name="L" horiz-adv-x="375" /><glyph d="M345 -20C345 -76 372 -100 435 -100C469 -100 492 -93 507 -78L607 22C620 35 625 54 625 80V600C625 670 598 700 501 700C452 700 413 693 390 670L292 571L285 619C276 683 224 700 149 700C97 700 66 692 47 673L-53 573C-69 557 -75 533 -75 500V-20C-75 -76 -48 -100 15 -100C48 -100 71 -94 86 -79L144 -21L145 -29C154 -92 188 -100 225 -100C247 -100 267 -97 282 -82Z" glyph-name="M" horiz-adv-x="650" /><glyph d="M186 21 87 -78C72 -93 49 -100 15 -100C-48 -100 -75 -76 -75 -20V500C-75 538 -66 562 -51 578L48 678C64 694 88 700 119 700C180 700 206 671 240 602L315 680C329 694 352 700 385 700C448 700 475 676 475 620V100C475 62 466 38 451 22L352 -78C336 -94 312 -100 281 -100C206 -100 193 -55 145 51Z" glyph-name="N" horiz-adv-x="500" /><glyph d="M418 47C461 90 475 158 475 240V460C475 610 425 710 250 710C173 710 120 691 85 656L-15 556C-59 512 -75 444 -75 360V140C-75 -9 -25 -110 150 -110C229 -110 281 -90 317 -54Z" glyph-name="O" horiz-adv-x="500" /><glyph d="M102 -76 202 25C218 41 225 66 225 101C272 106 305 121 328 144L429 245C464 280 475 334 475 400V450C475 600 425 700 250 700H175C112 700 75 694 52 671L-47 572C-69 550 -75 513 -75 450V0C-75 -70 -45 -100 25 -100C61 -100 86 -92 102 -76Z" glyph-name="P" horiz-adv-x="475" /><glyph d="M378 -86 477 13C486 22 490 35 490 50C490 99 460 130 410 130H408L439 161C462 184 475 225 475 280V460C475 610 425 710 250 710C173 710 120 691 85 656L-16 555C-60 511 -75 443 -75 360V150C-75 1 -25 -100 150 -100H340C357 -100 369 -95 378 -86Z" glyph-name="Q" horiz-adv-x="515" /><glyph d="M444 366C465 387 475 428 475 500C475 620 425 700 250 700H175C114 701 76 695 54 673L-47 572C-69 550 -75 512 -75 450V0C-75 -70 -45 -100 25 -100C60 -100 86 -92 102 -76L178 0C188 -69 223 -100 287 -100C332 -100 361 -92 380 -73L480 27C494 41 500 62 500 90C500 138 478 154 478 185C478 283 454 323 410 332Z" glyph-name="R" horiz-adv-x="500" /><glyph d="M324 -50 424 50C459 85 475 133 475 190C475 310 422 362 365 393L438 463C457 481 465 508 465 540C465 641 398 710 250 710C170 710 114 688 77 652L-24 552C-58 517 -75 468 -75 410C-75 297 -28 244 26 212L-50 136C-68 118 -75 92 -75 60C-75 -41 -7 -110 145 -110C227 -110 286 -88 324 -50Z" glyph-name="S" horiz-adv-x="500" /><glyph d="M202 -86C185 -103 160 -110 125 -110C55 -110 25 -80 25 -10V350C25 390 20 400 0 400C-70 400 -100 430 -100 500C-100 535 -92 560 -76 576L24 676C41 693 65 700 100 700H350C420 700 450 670 450 600C450 530 420 500 350 500C330 500 325 490 325 450V90C325 56 319 31 303 15Z" glyph-name="T" horiz-adv-x="450" /><glyph d="M299 686C315 703 340 710 375 710C445 710 475 680 475 610V240C475 158 461 90 418 47L317 -54C282 -90 228 -110 150 -110C-25 -110 -75 -9 -75 140V510C-75 545 -67 569 -51 586L47 685C64 702 89 710 125 710C195 710 225 680 225 610Z" glyph-name="U" horiz-adv-x="500" /><glyph d="M172 575 166 619C157 682 129 706 71 698C48 695 30 687 18 675L-81 576C-98 559 -104 533 -97 495L-12 7C1 -69 23 -100 108 -100C151 -100 177 -92 196 -73L295 26C312 43 321 69 328 106L414 594C425 659 402 690 345 698C314 702 292 697 276 681Z" glyph-name="V" horiz-adv-x="417" /><glyph d="M388 580 385 610C379 673 369 700 309 700C283 700 267 695 256 684L164 591L162 605C149 687 113 708 54 695C35 690 22 684 13 675L-86 576C-108 553 -100 515 -90 455L-10 -10C2 -78 19 -110 85 -110C116 -110 137 -103 151 -89L236 -3L237 -10C248 -78 266 -110 332 -110C363 -110 383 -103 397 -89L498 12C514 28 521 54 527 90L608 555C622 636 632 679 563 695C531 702 505 699 487 681Z" glyph-name="W" horiz-adv-x="618" /><glyph d="M328 -81C339 -74 348 -67 356 -59L457 42C488 74 478 108 443 173L343 359L433 527C476 607 482 640 418 681C375 707 336 708 304 675L220 588L197 630C158 703 111 716 52 681C44 676 37 670 31 664L-69 564C-99 531 -95 486 -63 427L27 259L-73 73C-111 3 -110 -48 -58 -81C-14 -107 23 -107 55 -74L154 24L183 -31C222 -104 270 -116 328 -81Z" glyph-name="X" horiz-adv-x="454" /><glyph d="M226 -77 327 24C343 40 350 65 350 100V211L415 275C459 319 475 387 475 470V600C475 670 445 700 375 700C340 700 315 693 299 677L225 600C225 670 195 700 125 700C90 700 65 693 48 676L-52 576C-69 559 -75 534 -75 500V370C-75 255 -45 168 50 135V0C50 -70 80 -100 150 -100C185 -100 210 -93 226 -77Z" glyph-name="Y" horiz-adv-x="500" /><glyph d="M407 22C423 38 430 63 430 100C430 170 403 200 340 200H272L415 532C425 548 430 571 430 600C430 670 403 700 340 700H115C85 700 63 693 48 678L-52 578C-68 562 -75 536 -75 500C-75 430 -48 400 15 400H83L-67 54C-72 40 -75 22 -75 0C-75 -70 -48 -100 15 -100H240C271 -100 292 -93 308 -77Z" glyph-name="Z" horiz-adv-x="455" /><glyph d="M65 -76C49 -91 27 -100 -2 -100C-60 -100 -92 -68 -92 -10V0C-92 29 -85 51 -69 67L31 167C47 183 69 190 98 190C156 190 188 158 188 100V90C188 61 181 38 165 23Z" glyph-name="period" horiz-adv-x="198" unicode="." /><glyph glyph-name="space" horiz-adv-x="175" unicode=" " /></font>
</defs>
</svg>
