<?xml version="1.0" standalone="no"?><!DOCTYPE svg PUBLIC "-//W3C//DTD SVG 1.1//EN" "http://www.w3.org/Graphics/SVG/1.1/DTD/svg11.dtd" ><svg version="1.1" xmlns="http://www.w3.org/2000/svg"><defs><font horiz-adv-x="0" id="font"><font-face ascent="750" bbox="-135 -220 996 929" cap-height="700" descent="-130" font-family="Mayonnaise" units-per-em="1000" x-height="620" /><missing-glyph d="M0 318C0 192 35 74 73 24C87 6 98 0 120 0H440C462 0 474 6 487 24C526 74 561 192 561 318C561 446 527 559 470 635V656H479C496 656 511 668 508 685L501 721C498 738 489 750 471 750H90C72 750 63 737 60 721L53 685C50 669 65 656 82 656H91V635C34 559 0 446 0 318ZM280 77C198 77 138 92 128 113C101 166 75 324 78 382C81 438 144 437 144 437L115 557C144 579 210 598 280 598C351 598 417 579 446 557L417 437C417 437 480 438 483 382C486 324 460 166 433 113C423 92 363 77 280 77ZM280 116C354 116 408 129 418 148C440 192 462 327 460 377C457 421 389 419 389 419L415 530C392 546 338 559 280 559C223 559 169 546 145 530L172 419C172 419 104 421 101 377C98 327 120 192 142 148C153 129 207 116 280 116ZM203 432 181 513C197 524 239 530 280 530C323 530 365 524 382 513L360 432C304 451 253 451 203 432ZM280 146C203 146 139 196 139 288C139 372 203 413 280 413C358 413 423 372 423 288C423 196 358 146 280 146ZM280 203C280 203 352 357 305 357C279 357 276 290 276 290C276 290 273 337 249 337C204 337 280 203 280 203Z" horiz-adv-x="561" /><glyph d="M475 460C475 609 425 710 250 710C75 710 25 609 25 460V73C25 22 47 0 98 0C150 0 172 22 172 73V146C172 234 175 240 250 240C325 240 328 234 328 146V73C328 22 350 0 402 0C453 0 474 22 475 73ZM328 469V419C328 332 325 325 250 325C175 325 172 332 172 419V469C172 529 195 557 250 557C305 557 328 529 328 469Z" glyph-name="A" horiz-adv-x="500" unicode="A" /><glyph d="M475 460C475 609 425 710 250 710C75 710 25 609 25 460V73C25 22 47 0 98 0C150 0 172 22 172 73V146C172 234 175 240 250 240C325 240 328 234 328 146V73C328 22 350 0 402 0C453 0 474 22 475 73ZM328 469V419C328 332 325 325 250 325C175 325 172 332 172 419V469C172 529 195 557 250 557C305 557 328 529 328 469ZM555 277H635C686 277 708 299 708 350C708 401 686 423 635 423H555C482 423 475 427 475 488C475 550 482 553 555 553H645C696 553 718 575 718 627C718 678 696 700 645 700H478C353 700 328 675 328 550V150C328 102 400 0 447 0H655C706 0 728 22 728 73C728 125 706 147 655 147H555C482 147 475 150 475 212C475 273 482 277 555 277Z" glyph-name="AE" horiz-adv-x="753" unicode="Æ" /><glyph d="M155 861 264 909C327 937 378 908 393 856C406 801 377 750 309 744L189 731C145 727 117 737 106 778C94 818 114 842 155 861ZM475 460C475 609 425 710 250 710C75 710 25 609 25 460V73C25 22 47 0 98 0C150 0 172 22 172 73V146C172 234 175 240 250 240C325 240 328 234 328 146V73C328 22 350 0 402 0C453 0 474 22 475 73ZM328 469V419C328 332 325 325 250 325C175 325 172 332 172 419V469C172 529 195 557 250 557C305 557 328 529 328 469Z" glyph-name="Aacute" horiz-adv-x="500" unicode="Á" /><glyph d="M125 833C97 807 87 785 106 756C125 726 150 722 183 738L250 771L317 738C350 722 375 726 394 756C413 785 403 807 375 833L308 897C290 915 269 920 250 920C232 920 210 915 192 897ZM475 460C475 609 425 710 250 710C75 710 25 609 25 460V73C25 22 47 0 98 0C150 0 172 22 172 73V146C172 234 175 240 250 240C325 240 328 234 328 146V73C328 22 350 0 402 0C453 0 474 22 475 73ZM328 469V419C328 332 325 325 250 325C175 325 172 332 172 419V469C172 529 195 557 250 557C305 557 328 529 328 469Z" glyph-name="Acircumflex" horiz-adv-x="500" unicode="Â" /><glyph d="M240 820C240 762 208 730 150 730C92 730 60 762 60 820V830C60 888 92 920 150 920C208 920 240 888 240 830ZM440 820C440 762 408 730 350 730C292 730 260 762 260 820V830C260 888 292 920 350 920C408 920 440 888 440 830ZM475 460C475 609 425 710 250 710C75 710 25 609 25 460V73C25 22 47 0 98 0C150 0 172 22 172 73V146C172 234 175 240 250 240C325 240 328 234 328 146V73C328 22 350 0 402 0C453 0 474 22 475 73ZM328 469V419C328 332 325 325 250 325C175 325 172 332 172 419V469C172 529 195 557 250 557C305 557 328 529 328 469Z" glyph-name="Adieresis" horiz-adv-x="500" unicode="Ä" /><glyph d="M345 861C386 842 406 818 394 778C383 737 355 727 311 731L191 744C123 750 94 801 107 856C122 908 173 937 236 909ZM475 460C475 609 425 710 250 710C75 710 25 609 25 460V73C25 22 47 0 98 0C150 0 172 22 172 73V146C172 234 175 240 250 240C325 240 328 234 328 146V73C328 22 350 0 402 0C453 0 474 22 475 73ZM328 469V419C328 332 325 325 250 325C175 325 172 332 172 419V469C172 529 195 557 250 557C305 557 328 529 328 469Z" glyph-name="Agrave" horiz-adv-x="500" unicode="À" /><glyph d="M304 824C304 805 289 801 247 801C212 801 191 808 191 824C191 842 212 849 247 849C289 849 304 845 304 824ZM106 825C106 763 151 730 250 730C350 730 394 763 394 825C394 887 350 920 250 920C151 920 106 887 106 825ZM475 460C475 609 425 710 250 710C75 710 25 609 25 460V73C25 22 47 0 98 0C150 0 172 22 172 73V146C172 234 175 240 250 240C325 240 328 234 328 146V73C328 22 350 0 402 0C453 0 474 22 475 73ZM328 469V419C328 332 325 325 250 325C175 325 172 332 172 419V469C172 529 195 557 250 557C305 557 328 529 328 469Z" glyph-name="Aring" horiz-adv-x="500" unicode="Å" /><glyph d="M201 784C235 784 239 730 306 730C366 730 394 775 394 857C394 901 382 920 355 920C332 920 324 909 324 891C324 874 315 866 299 866C263 866 261 920 194 920C134 920 106 875 106 793C106 749 118 730 145 730C168 730 176 741 176 759C176 776 185 784 201 784ZM475 460C475 609 425 710 250 710C75 710 25 609 25 460V73C25 22 47 0 98 0C150 0 172 22 172 73V146C172 234 175 240 250 240C325 240 328 234 328 146V73C328 22 350 0 402 0C453 0 474 22 475 73ZM328 469V419C328 332 325 325 250 325C175 325 172 332 172 419V469C172 529 195 557 250 557C305 557 328 529 328 469Z" glyph-name="Atilde" horiz-adv-x="500" unicode="Ã" /><glyph d="M328 227C328 170 305 147 250 147C175 147 172 153 172 227C172 301 175 308 250 308C313 308 328 292 328 227ZM328 473C328 408 313 392 250 392C175 392 172 399 172 473C172 547 175 553 250 553C305 553 328 530 328 473ZM475 200C475 321 439 351 377 351C369 351 367 352 367 356C367 360 369 361 377 361C439 361 475 391 475 500C475 620 425 700 250 700H141C49 700 25 677 25 584V116C25 23 48 0 141 0H250C425 0 475 80 475 200Z" glyph-name="B" horiz-adv-x="500" unicode="B" /><glyph d="M328 246C328 166 305 143 250 143C195 143 172 164 172 250V450C172 536 195 557 250 557C305 557 328 533 328 454C328 403 350 387 402 387C453 387 475 403 475 454C475 602 425 710 250 710C75 710 25 610 25 460V240C25 91 75 -10 250 -10C425 -10 475 99 475 246C475 297 453 313 402 313C350 313 328 297 328 246Z" glyph-name="C" horiz-adv-x="500" unicode="C" /><glyph d="M215 31 186 -57C176 -86 200 -102 247 -102C285 -102 298 -107 298 -126C298 -145 285 -149 247 -149C216 -149 197 -142 197 -126C197 -98 186 -82 157 -82C126 -82 112 -95 112 -125C112 -187 155 -220 250 -220C346 -220 388 -187 388 -125C388 -68 352 -30 269 -30L294 18ZM328 246C328 166 305 143 250 143C195 143 172 164 172 250V450C172 536 195 557 250 557C305 557 328 533 328 454C328 403 350 387 402 387C453 387 475 403 475 454C475 602 425 710 250 710C75 710 25 610 25 460V240C25 91 75 -10 250 -10C425 -10 475 99 475 246C475 297 453 313 402 313C350 313 328 297 328 246Z" glyph-name="Ccedilla" horiz-adv-x="500" unicode="Ç" /><glyph d="M328 250C328 175 305 147 250 147C175 147 172 153 172 250V450C172 547 175 553 250 553C305 553 328 525 328 450ZM250 0C425 0 475 100 475 250V450C474 600 425 700 250 700H175C51 700 25 676 25 550V150C25 25 50 0 175 0Z" glyph-name="D" horiz-adv-x="500" unicode="D" /><glyph d="M252 277C178 277 172 273 172 212C172 150 178 147 252 147H352C403 147 425 125 425 73C425 22 403 0 352 0H175C50 0 25 25 25 150V550C25 675 50 700 175 700H342C393 700 415 678 415 627C415 575 393 553 342 553H252C178 553 172 550 172 488C172 427 178 423 252 423H332C383 423 405 401 405 350C405 299 383 277 332 277Z" glyph-name="E" horiz-adv-x="450" unicode="E" /><glyph d="M130 861 239 909C302 937 353 908 368 856C381 801 352 750 284 744L164 731C120 727 92 737 81 778C69 818 89 842 130 861ZM252 277C178 277 172 273 172 212C172 150 178 147 252 147H352C403 147 425 125 425 73C425 22 403 0 352 0H175C50 0 25 25 25 150V550C25 675 50 700 175 700H342C393 700 415 678 415 627C415 575 393 553 342 553H252C178 553 172 550 172 488C172 427 178 423 252 423H332C383 423 405 401 405 350C405 299 383 277 332 277Z" glyph-name="Eacute" horiz-adv-x="450" unicode="É" /><glyph d="M100 833C72 807 62 785 81 756C100 726 125 722 158 738L225 771L292 738C325 722 350 726 369 756C388 785 378 807 350 833L283 897C265 915 244 920 225 920C207 920 185 915 167 897ZM252 277C178 277 172 273 172 212C172 150 178 147 252 147H352C403 147 425 125 425 73C425 22 403 0 352 0H175C50 0 25 25 25 150V550C25 675 50 700 175 700H342C393 700 415 678 415 627C415 575 393 553 342 553H252C178 553 172 550 172 488C172 427 178 423 252 423H332C383 423 405 401 405 350C405 299 383 277 332 277Z" glyph-name="Ecircumflex" horiz-adv-x="450" unicode="Ê" /><glyph d="M215 820C215 762 183 730 125 730C67 730 35 762 35 820V830C35 888 67 920 125 920C183 920 215 888 215 830ZM415 820C415 762 383 730 325 730C267 730 235 762 235 820V830C235 888 267 920 325 920C383 920 415 888 415 830ZM252 277C178 277 172 273 172 212C172 150 178 147 252 147H352C403 147 425 125 425 73C425 22 403 0 352 0H175C50 0 25 25 25 150V550C25 675 50 700 175 700H342C393 700 415 678 415 627C415 575 393 553 342 553H252C178 553 172 550 172 488C172 427 178 423 252 423H332C383 423 405 401 405 350C405 299 383 277 332 277Z" glyph-name="Edieresis" horiz-adv-x="450" unicode="Ë" /><glyph d="M320 861C361 842 381 818 369 778C358 737 330 727 286 731L166 744C98 750 69 801 82 856C97 908 148 937 211 909ZM252 277C178 277 172 273 172 212C172 150 178 147 252 147H352C403 147 425 125 425 73C425 22 403 0 352 0H175C50 0 25 25 25 150V550C25 675 50 700 175 700H342C393 700 415 678 415 627C415 575 393 553 342 553H252C178 553 172 550 172 488C172 427 178 423 252 423H332C383 423 405 401 405 350C405 299 383 277 332 277Z" glyph-name="Egrave" horiz-adv-x="450" unicode="È" /><glyph d="M113 567C43 567 13 537 13 467C13 397 43 367 113 367H179V567ZM113 333C43 333 13 303 13 233C13 163 43 133 113 133H179V333ZM286 300C321 300 336 315 336 350C336 385 321 400 286 400H170V300ZM333 240C333 208 328 200 308 200C288 200 283 210 283 250V450C283 490 288 500 308 500C328 500 333 492 333 460C333 392 363 370 433 370C503 370 533 392 533 460C533 610 483 710 308 710C133 710 83 610 83 460V240C83 91 133 -10 308 -10C483 -10 533 91 533 240C533 308 503 330 433 330C363 330 333 308 333 240Z" glyph-name="Euro" horiz-adv-x="533" unicode="€" /><glyph d="M252 423C178 423 172 427 172 490C172 550 178 553 252 553H352C403 553 425 575 425 627C425 678 403 700 352 700H175C50 700 25 675 25 550V73C25 22 47 0 98 0C150 0 172 22 172 73V212C172 273 178 277 252 277H312C363 277 385 299 385 350C385 401 363 423 312 423Z" glyph-name="F" horiz-adv-x="425" unicode="F" /><glyph d="M334 216C334 158 311 143 253 143C196 143 172 164 172 250V450C172 536 195 557 250 557C305 557 328 538 328 460C328 409 350 393 402 393C453 393 475 409 475 460C475 610 425 710 250 710C75 710 25 610 25 460V240C25 91 69 -10 225 -10C305 -10 362 24 362 69C362 77 363 79 367 79C371 79 372 77 372 69C372 25 396 0 434 0C460 0 475 14 475 42V240C475 311 445 334 375 334H282C250 334 240 322 240 294C240 267 250 255 282 255C337 255 334 261 334 216Z" glyph-name="G" horiz-adv-x="500" unicode="G" /><glyph d="M475 627C475 678 453 700 402 700C350 700 328 678 328 627V486C328 399 325 392 250 392C175 392 172 399 172 486V627C172 678 150 700 98 700C47 700 25 678 25 627V73C25 22 47 0 98 0C150 0 172 22 172 73V214C172 301 175 308 250 308C325 308 328 301 328 214V73C328 22 350 0 402 0C453 0 475 22 475 73Z" glyph-name="H" horiz-adv-x="500" unicode="H" /><glyph d="M172 627C172 678 150 700 98 700C47 700 25 678 25 627V73C25 22 47 0 98 0C150 0 172 22 172 73Z" glyph-name="I" horiz-adv-x="197" unicode="I" /><glyph d="M275 250C275 172 265 143 223 143C182 143 172 169 172 263C172 314 150 330 98 330C47 330 25 314 25 263C25 93 69 -10 223 -10C378 -10 422 91 422 240V627C422 678 400 700 348 700C297 700 275 678 275 627ZM172 627C172 678 150 700 98 700C47 700 25 678 25 627V433C25 382 47 360 98 360C150 360 172 382 172 433Z" glyph-name="IJ" horiz-adv-x="447" unicode="Ĳ" /><glyph d="M4 861 113 909C176 937 227 908 242 856C255 801 226 750 158 744L38 731C-6 727 -34 737 -45 778C-57 818 -37 842 4 861ZM172 627C172 678 150 700 98 700C47 700 25 678 25 627V73C25 22 47 0 98 0C150 0 172 22 172 73Z" glyph-name="Iacute" horiz-adv-x="197" unicode="Í" /><glyph d="M-27 833C-55 807 -65 785 -46 756C-27 726 -2 722 31 738L98 771L165 738C198 722 223 726 242 756C261 785 251 807 223 833L156 897C138 915 117 920 98 920C80 920 58 915 40 897ZM172 627C172 678 150 700 98 700C47 700 25 678 25 627V73C25 22 47 0 98 0C150 0 172 22 172 73Z" glyph-name="Icircumflex" horiz-adv-x="197" unicode="Î" /><glyph d="M88 820C88 762 56 730 -2 730C-60 730 -92 762 -92 820V830C-92 888 -60 920 -2 920C56 920 88 888 88 830ZM288 820C288 762 256 730 198 730C140 730 108 762 108 820V830C108 888 140 920 198 920C256 920 288 888 288 830ZM172 627C172 678 150 700 98 700C47 700 25 678 25 627V73C25 22 47 0 98 0C150 0 172 22 172 73Z" glyph-name="Idieresis" horiz-adv-x="197" unicode="Ï" /><glyph d="M193 861C234 842 254 818 242 778C231 737 203 727 159 731L39 744C-29 750 -58 801 -45 856C-30 908 21 937 84 909ZM172 627C172 678 150 700 98 700C47 700 25 678 25 627V73C25 22 47 0 98 0C150 0 172 22 172 73Z" glyph-name="Igrave" horiz-adv-x="197" unicode="Ì" /><glyph d="M328 250C328 165 309 139 250 139C191 139 172 168 172 246C172 297 150 313 98 313C47 313 25 297 25 246C25 89 75 -10 250 -10C425 -10 475 91 475 240V627C475 678 453 700 402 700C350 700 328 678 328 627Z" glyph-name="J" horiz-adv-x="500" unicode="J" /><glyph d="M475 627C475 678 453 700 402 700C350 700 328 678 328 627V472C328 392 305 379 250 379C175 379 172 385 172 459V627C172 678 150 700 98 700C47 700 25 678 25 627V73C26 22 47 0 98 0C150 0 172 22 172 73V200C172 286 175 294 250 294C313 294 329 275 329 199V127C329 38 356 0 416 0C475 0 500 22 500 70C500 111 478 129 478 166C478 292 441 335 377 335C369 335 367 336 367 340C367 344 369 345 377 345C440 345 475 379 475 515Z" glyph-name="K" horiz-adv-x="500" unicode="K" /><glyph d="M250 147C175 147 172 153 172 240V637C172 688 150 710 98 710C47 710 25 688 25 637V150C26 25 50 0 175 0H302C353 0 375 22 375 73C375 125 353 147 302 147Z" glyph-name="L" horiz-adv-x="375" unicode="L" /><glyph d="M315 328 239 634C229 689 190 700 130 700C57 700 25 676 25 619V61C25 18 45 0 92 0C139 0 159 18 159 61V391C159 405 163 409 167 409C173 409 176 404 179 391L264 54C272 7 297 0 325 0C353 0 378 7 386 54L471 391C474 404 477 409 483 409C487 409 491 405 491 391V61C491 18 511 0 558 0C605 0 625 18 625 61V619C625 676 593 700 520 700C460 700 421 689 411 634L335 328C334 321 329 318 325 318C321 318 316 321 315 328Z" glyph-name="M" horiz-adv-x="650" unicode="M" /><glyph d="M341 374C341 366 341 364 338 364C335 364 334 368 331 374L197 595C161 671 143 700 92 700C48 700 25 682 25 627V61C25 18 45 0 92 0C139 0 159 18 159 61V340C159 348 159 350 162 350C165 350 166 346 169 340L310 105C346 29 357 0 408 0C452 0 475 18 475 73V639C475 682 455 700 408 700C361 700 341 682 341 639Z" glyph-name="N" horiz-adv-x="500" unicode="N" /><glyph d="M201 784C235 784 239 730 306 730C366 730 394 775 394 857C394 901 382 920 355 920C332 920 324 909 324 891C324 874 315 866 299 866C263 866 261 920 194 920C134 920 106 875 106 793C106 749 118 730 145 730C168 730 176 741 176 759C176 776 185 784 201 784ZM341 374C341 366 341 364 338 364C335 364 334 368 331 374L197 595C161 671 143 700 92 700C48 700 25 682 25 627V61C25 18 45 0 92 0C139 0 159 18 159 61V340C159 348 159 350 162 350C165 350 166 346 169 340L310 105C346 29 357 0 408 0C452 0 475 18 475 73V639C475 682 455 700 408 700C361 700 341 682 341 639Z" glyph-name="Ntilde" horiz-adv-x="500" unicode="Ñ" /><glyph d="M475 460C475 610 425 710 250 710C75 710 25 610 25 460V240C25 91 75 -10 250 -10C425 -10 475 91 475 240ZM328 250C328 164 305 143 250 143C195 143 172 164 172 250V450C172 536 195 557 250 557C305 557 328 536 328 450Z" glyph-name="O" horiz-adv-x="500" unicode="O" /><glyph d="M475 460C475 610 425 710 250 710C75 710 25 610 25 460V240C25 91 75 -10 250 -10C425 -10 475 91 475 240ZM328 250C328 164 305 143 250 143C195 143 172 164 172 250V450C172 536 195 557 250 557C305 557 328 536 328 450ZM555 277H635C686 277 708 299 708 350C708 401 686 423 635 423H555C482 423 475 427 475 488C475 550 482 553 555 553H645C696 553 718 575 718 627C718 678 696 700 645 700H478C353 700 328 675 328 550V150C328 25 353 0 478 0H655C706 0 728 22 728 73C728 125 706 147 655 147H555C482 147 475 150 475 212C475 273 482 277 555 277Z" glyph-name="OE" horiz-adv-x="753" unicode="Œ" /><glyph d="M155 861 264 909C327 937 378 908 393 856C406 801 377 750 309 744L189 731C145 727 117 737 106 778C94 818 114 842 155 861ZM475 460C475 610 425 710 250 710C75 710 25 610 25 460V240C25 91 75 -10 250 -10C425 -10 475 91 475 240ZM328 250C328 164 305 143 250 143C195 143 172 164 172 250V450C172 536 195 557 250 557C305 557 328 536 328 450Z" glyph-name="Oacute" horiz-adv-x="500" unicode="Ó" /><glyph d="M125 833C97 807 87 785 106 756C125 726 150 722 183 738L250 771L317 738C350 722 375 726 394 756C413 785 403 807 375 833L308 897C290 915 269 920 250 920C232 920 210 915 192 897ZM475 460C475 610 425 710 250 710C75 710 25 610 25 460V240C25 91 75 -10 250 -10C425 -10 475 91 475 240ZM328 250C328 164 305 143 250 143C195 143 172 164 172 250V450C172 536 195 557 250 557C305 557 328 536 328 450Z" glyph-name="Ocircumflex" horiz-adv-x="500" unicode="Ô" /><glyph d="M240 829C240 771 208 739 150 739C92 739 60 771 60 829V839C60 897 92 929 150 929C208 929 240 897 240 839ZM440 829C440 771 408 739 350 739C292 739 260 771 260 829V839C260 897 292 929 350 929C408 929 440 897 440 839ZM475 460C475 610 425 710 250 710C75 710 25 610 25 460V240C25 91 75 -10 250 -10C425 -10 475 91 475 240ZM328 250C328 164 305 143 250 143C195 143 172 164 172 250V450C172 536 195 557 250 557C305 557 328 536 328 450Z" glyph-name="Odieresis" horiz-adv-x="500" unicode="Ö" /><glyph d="M345 861C386 842 406 818 394 778C383 737 355 727 311 731L191 744C123 750 94 801 107 856C122 908 173 937 236 909ZM475 460C475 610 425 710 250 710C75 710 25 610 25 460V240C25 91 75 -10 250 -10C425 -10 475 91 475 240ZM328 250C328 164 305 143 250 143C195 143 172 164 172 250V450C172 536 195 557 250 557C305 557 328 536 328 450Z" glyph-name="Ograve" horiz-adv-x="500" unicode="Ò" /><glyph d="M475 460C475 610 425 710 250 710C75 710 25 610 25 460V240C25 91 75 -10 250 -10C425 -10 475 91 475 240ZM328 250C328 172 309 143 250 143C191 143 172 172 172 250V450C172 528 191 557 250 557C309 557 328 528 328 450ZM5 42C-6 17 6 0 27 0H112C141 0 144 13 158 42L191 114L73 194ZM414 504 487 668C498 692 487 710 465 710H381C352 710 348 696 334 668L297 586Z" glyph-name="Oslash" horiz-adv-x="500" unicode="Ø" /><glyph d="M201 784C235 784 239 730 306 730C366 730 394 775 394 857C394 901 382 920 355 920C332 920 324 909 324 891C324 874 315 866 299 866C263 866 261 920 194 920C134 920 106 875 106 793C106 749 118 730 145 730C168 730 176 741 176 759C176 776 185 784 201 784ZM475 460C475 610 425 710 250 710C75 710 25 610 25 460V240C25 91 75 -10 250 -10C425 -10 475 91 475 240ZM328 250C328 164 305 143 250 143C195 143 172 164 172 250V450C172 536 195 557 250 557C305 557 328 536 328 450Z" glyph-name="Otilde" horiz-adv-x="500" unicode="Õ" /><glyph d="M172 454C172 547 175 553 250 553C305 553 328 533 328 454V408C328 334 305 316 250 316C175 316 172 322 172 408ZM295 200C435 200 475 280 475 400V450C475 600 425 700 250 700H175C50 700 25 675 25 550V73C25 22 47 0 98 0C150 0 172 22 172 73V150C172 193 178 200 275 200Z" glyph-name="P" horiz-adv-x="475" unicode="P" /><glyph d="M328 260C328 174 305 153 250 153C195 153 172 174 172 260V450C172 536 195 557 250 557C305 557 328 536 328 450ZM448 0C475 0 490 15 490 40C490 79 464 103 421 103H393C385 103 383 104 383 108C383 112 385 113 393 113C442 113 475 174 475 272V460C475 610 425 710 250 710C75 710 25 610 25 460V250C25 101 75 0 250 0Z" glyph-name="Q" horiz-adv-x="515" unicode="Q" /><glyph d="M172 469C172 547 175 553 250 553C305 553 328 529 328 469V459C328 395 313 379 250 379C175 379 172 385 172 459ZM475 500C475 620 425 700 250 700H141C49 701 25 677 25 584V73C25 22 47 0 98 0C150 0 172 22 172 73V200C172 287 175 294 250 294C313 294 329 275 329 199V127C329 38 356 0 416 0C475 0 500 22 500 70C500 111 478 129 478 166C478 292 441 335 377 335C369 335 367 336 367 340C367 344 369 345 377 345C439 345 475 376 475 500Z" glyph-name="R" horiz-adv-x="500" unicode="R" /><glyph d="M166 190C166 225 144 250 92 250C45 250 25 221 25 177C25 66 93 -10 245 -10C403 -10 475 71 475 190C475 453 172 358 172 504C172 567 195 588 250 588C302 588 324 566 324 510C324 476 346 450 398 450C445 450 465 481 465 523C465 634 398 710 250 710C95 710 25 629 25 510C25 247 328 342 328 196C328 133 304 112 245 112C189 112 166 131 166 190Z" glyph-name="S" horiz-adv-x="500" unicode="S" /><glyph d="M125 817 192 753C210 735 232 730 250 730C269 730 290 735 308 753L375 817C403 843 413 865 394 894C375 924 350 928 317 912L250 879L183 912C150 928 125 924 106 894C87 865 97 843 125 817ZM166 190C166 225 144 250 92 250C45 250 25 221 25 177C25 66 93 -10 245 -10C403 -10 475 71 475 190C475 453 172 358 172 504C172 567 195 588 250 588C302 588 324 566 324 510C324 476 346 450 398 450C445 450 465 481 465 523C465 634 398 710 250 710C95 710 25 629 25 510C25 247 328 342 328 196C328 133 304 112 245 112C189 112 166 131 166 190Z" glyph-name="Scaron" horiz-adv-x="500" unicode="Š" /><glyph d="M377 700H73C22 700 0 678 0 627C0 575 22 553 73 553C148 553 152 547 152 498V67C152 13 174 -10 225 -10C276 -10 298 13 298 67V498C298 547 302 553 377 553C428 553 450 575 450 627C450 678 428 700 377 700Z" glyph-name="T" horiz-adv-x="450" unicode="T" /><glyph d="M25 240C25 91 75 -10 250 -10C425 -10 475 91 475 240V633C475 687 453 710 402 710C350 710 328 687 328 633V250C328 164 305 143 250 143C195 143 172 164 172 250V633C172 687 150 710 98 710C47 710 25 687 25 633Z" glyph-name="U" horiz-adv-x="500" unicode="U" /><glyph d="M125 833C97 807 87 785 106 756C125 726 150 722 183 738L250 771L317 738C350 722 375 726 394 756C413 785 403 807 375 833L308 897C290 915 269 920 250 920C232 920 210 915 192 897ZM25 240C25 91 75 -10 250 -10C425 -10 475 91 475 240V633C475 687 453 710 402 710C350 710 328 687 328 633V250C328 164 305 143 250 143C195 143 172 164 172 250V633C172 687 150 710 98 710C47 710 25 687 25 633Z" glyph-name="Ucircumflex" horiz-adv-x="500" unicode="Û" /><glyph d="M240 820C240 762 208 730 150 730C92 730 60 762 60 820V830C60 888 92 920 150 920C208 920 240 888 240 830ZM440 820C440 762 408 730 350 730C292 730 260 762 260 820V830C260 888 292 920 350 920C408 920 440 888 440 830ZM25 240C25 91 75 -10 250 -10C425 -10 475 91 475 240V633C475 687 453 710 402 710C350 710 328 687 328 633V250C328 164 305 143 250 143C195 143 172 164 172 250V633C172 687 150 710 98 710C47 710 25 687 25 633Z" glyph-name="Udieresis" horiz-adv-x="500" unicode="Ü" /><glyph d="M345 861C386 842 406 818 394 778C383 737 355 727 311 731L191 744C123 750 94 801 107 856C122 908 173 937 236 909ZM25 240C25 91 75 -10 250 -10C425 -10 475 91 475 240V633C475 687 453 710 402 710C350 710 328 687 328 633V250C328 164 305 143 250 143C195 143 172 164 172 250V633C172 687 150 710 98 710C47 710 25 687 25 633Z" glyph-name="Ugrave" horiz-adv-x="500" unicode="Ù" /><glyph d="M218 281C216 274 212 271 208 271C204 271 199 274 198 281L128 638C120 686 100 705 54 698C11 692 -6 668 3 620L107 103C122 28 136 0 208 0C277 0 293 27 309 102L414 619C423 668 405 692 362 698C315 705 295 686 288 637Z" glyph-name="V" horiz-adv-x="416" unicode="V" /><glyph d="M296 309C297 316 302 319 306 319C310 319 314 316 315 309L349 82C359 20 375 -10 433 -10C492 -10 505 19 516 82L605 589C616 651 622 683 569 695C523 705 498 689 488 624L433 281C432 274 427 271 423 271C419 271 415 274 414 281L367 625C361 678 354 700 306 700C259 700 251 678 245 625L198 281C197 274 192 271 188 271C185 271 180 274 179 281L124 624C114 689 88 705 42 695C-9 683 -4 651 7 589L95 82C106 19 120 -10 178 -10C237 -10 253 21 262 82Z" glyph-name="W" horiz-adv-x="612" unicode="W" /><glyph d="M161 635C125 698 93 714 44 686C-1 658 4 620 54 535L325 64C360 1 394 -15 441 14C494 46 484 75 432 164ZM149 65 420 535C473 626 482 653 430 686C382 715 349 699 313 636L42 164C-7 80 -12 42 32 14C82 -15 113 1 149 65Z" glyph-name="X" horiz-adv-x="478" unicode="X" /><glyph d="M323 281H177V73C177 22 199 0 250 0C301 0 323 22 323 73ZM475 627C475 678 453 700 402 700C350 700 328 678 328 627V450C328 374 305 354 250 354C195 354 172 374 172 450V627C172 678 150 700 98 700C47 700 25 678 25 627V470C25 313 75 220 250 220C425 220 475 313 475 470Z" glyph-name="Y" horiz-adv-x="500" unicode="Y" /><glyph d="M155 861 264 909C327 937 378 908 393 856C406 801 377 750 309 744L189 731C145 727 117 737 106 778C94 818 114 842 155 861ZM323 281H177V73C177 22 199 0 250 0C301 0 323 22 323 73ZM475 627C475 678 453 700 402 700C350 700 328 678 328 627V450C328 374 305 354 250 354C195 354 172 374 172 450V627C172 678 150 700 98 700C47 700 25 678 25 627V470C25 313 75 220 250 220C425 220 475 313 475 470Z" glyph-name="Yacute" horiz-adv-x="500" unicode="Ý" /><glyph d="M240 820C240 762 208 730 150 730C92 730 60 762 60 820V830C60 888 92 920 150 920C208 920 240 888 240 830ZM440 820C440 762 408 730 350 730C292 730 260 762 260 820V830C260 888 292 920 350 920C408 920 440 888 440 830ZM323 281H177V73C177 22 199 0 250 0C301 0 323 22 323 73ZM475 627C475 678 453 700 402 700C350 700 328 678 328 627V450C328 374 305 354 250 354C195 354 172 374 172 450V627C172 678 150 700 98 700C47 700 25 678 25 627V470C25 313 75 220 250 220C425 220 475 313 475 470Z" glyph-name="Ydieresis" horiz-adv-x="500" unicode="Ÿ" /><glyph d="M363 553C410 553 430 575 430 627C430 678 410 700 363 700H92C45 700 25 678 25 627C25 575 45 553 92 553ZM363 0C410 0 430 22 430 73C430 125 410 147 363 147H92C45 147 25 125 25 73C25 22 45 0 92 0ZM285 641 31 112 170 59 424 588Z" glyph-name="Z" horiz-adv-x="455" unicode="Z" /><glyph d="M158 168C158 214 181 234 230 234C297 234 302 226 302 168C302 125 279 102 230 102C181 102 158 123 158 168ZM302 328C302 320 301 318 296 318H204C80 318 25 256 25 154C25 51 81 -10 195 -10C282 -10 336 22 336 69C336 77 337 79 341 79C345 79 346 77 346 69C346 25 365 0 395 0C420 0 435 14 435 42V408C435 541 390 630 235 630C79 630 35 540 35 405C35 359 55 345 100 345C147 345 168 359 168 405C168 465 185 491 235 491C285 491 302 465 302 399Z" glyph-name="a" horiz-adv-x="460" unicode="a" /><glyph d="M140 771 249 819C312 847 363 818 378 766C391 711 362 660 294 654L174 641C130 637 102 647 91 688C79 728 99 752 140 771ZM158 168C158 214 181 234 230 234C297 234 302 226 302 168C302 125 279 102 230 102C181 102 158 123 158 168ZM302 328C302 320 301 318 296 318H204C80 318 25 256 25 154C25 51 81 -10 195 -10C282 -10 336 22 336 69C336 77 337 79 341 79C345 79 346 77 346 69C346 25 365 0 395 0C420 0 435 14 435 42V408C435 541 390 630 235 630C79 630 35 540 35 405C35 359 55 345 100 345C147 345 168 359 168 405C168 465 185 491 235 491C285 491 302 465 302 399Z" glyph-name="aacute" horiz-adv-x="460" unicode="á" /><glyph d="M110 743C82 717 72 695 91 666C110 636 135 632 168 648L235 681L302 648C335 632 360 636 379 666C398 695 388 717 360 743L293 807C275 825 254 830 235 830C217 830 195 825 177 807ZM158 168C158 214 181 234 230 234C297 234 302 226 302 168C302 125 279 102 230 102C181 102 158 123 158 168ZM302 328C302 320 301 318 296 318H204C80 318 25 256 25 154C25 51 81 -10 195 -10C282 -10 336 22 336 69C336 77 337 79 341 79C345 79 346 77 346 69C346 25 365 0 395 0C420 0 435 14 435 42V408C435 541 390 630 235 630C79 630 35 540 35 405C35 359 55 345 100 345C147 345 168 359 168 405C168 465 185 491 235 491C285 491 302 465 302 399Z" glyph-name="acircumflex" horiz-adv-x="460" unicode="â" /><glyph d="M140 771 249 819C312 847 363 818 378 766C391 711 362 660 294 654L174 641C130 637 102 647 91 688C79 728 99 752 140 771Z" glyph-name="acute" horiz-adv-x="460" unicode="´" /><glyph d="M225 730C225 672 193 640 135 640C77 640 45 672 45 730V740C45 798 77 830 135 830C193 830 225 798 225 740ZM425 730C425 672 393 640 335 640C277 640 245 672 245 730V740C245 798 277 830 335 830C393 830 425 798 425 740ZM158 168C158 214 181 234 230 234C297 234 302 226 302 168C302 125 279 102 230 102C181 102 158 123 158 168ZM302 328C302 320 301 318 296 318H204C80 318 25 256 25 154C25 51 81 -10 195 -10C282 -10 336 22 336 69C336 77 337 79 341 79C345 79 346 77 346 69C346 25 365 0 395 0C420 0 435 14 435 42V408C435 541 390 630 235 630C79 630 35 540 35 405C35 359 55 345 100 345C147 345 168 359 168 405C168 465 185 491 235 491C285 491 302 465 302 399Z" glyph-name="adieresis" horiz-adv-x="460" unicode="ä" /><glyph d="M158 168C158 214 181 234 230 234C297 234 302 226 302 168C302 125 279 102 230 102C181 102 158 123 158 168ZM620 289C681 289 706 318 706 366C706 529 666 630 507 630C348 630 302 529 302 380V240C302 91 349 -10 511 -10C644 -10 706 63 706 170C706 217 687 250 643 250C598 250 579 225 579 190C579 137 562 110 511 110C461 110 435 136 435 200V240C435 282 438 289 507 289ZM578 415C578 377 573 372 507 372C440 372 435 377 435 415C435 484 458 510 507 510C556 510 578 484 578 415ZM435 64V408C435 541 390 630 235 630C79 630 35 539 35 405C35 359 55 345 100 345C147 345 168 359 168 405C168 465 185 491 235 491C285 491 302 465 302 399V328C302 320 301 318 296 318H204C80 318 25 263 25 154C25 45 81 -10 195 -10C293 -10 355 34 355 95Z" glyph-name="ae" horiz-adv-x="731" unicode="æ" /><glyph d="M330 771C371 752 391 728 379 688C368 647 340 637 296 641L176 654C108 660 79 711 92 766C107 818 158 847 221 819ZM158 168C158 214 181 234 230 234C297 234 302 226 302 168C302 125 279 102 230 102C181 102 158 123 158 168ZM302 328C302 320 301 318 296 318H204C80 318 25 256 25 154C25 51 81 -10 195 -10C282 -10 336 22 336 69C336 77 337 79 341 79C345 79 346 77 346 69C346 25 365 0 395 0C420 0 435 14 435 42V408C435 541 390 630 235 630C79 630 35 540 35 405C35 359 55 345 100 345C147 345 168 359 168 405C168 465 185 491 235 491C285 491 302 465 302 399Z" glyph-name="agrave" horiz-adv-x="460" unicode="à" /><glyph d="M285 -10C487 -10 545 90 545 240C545 326 523 386 445 386C437 386 435 387 435 391C435 395 437 396 445 396C549 396 620 425 620 526C620 624 575 659 510 659C455 659 423 632 423 588C423 564 437 549 464 549C516 549 529 535 529 501C529 460 514 450 452 450C317 450 290 398 290 320L365 395C307 395 290 364 290 320C290 277 304 250 328 250C346 250 356 260 356 280C356 331 363 343 393 343C429 343 438 328 438 265C438 181 399 143 310 143C219 143 178 184 178 278C178 394 211 423 260 423C295 423 310 436 310 464C310 486 298 495 270 495C230 495 207 516 207 570C207 615 218 631 260 631C303 631 314 615 314 566C314 540 326 520 354 520C390 520 405 548 405 586C405 659 358 710 250 710C136 710 85 653 85 570C85 510 112 469 170 469C178 469 180 468 180 464C180 460 178 459 170 459C91 459 25 388 25 250C25 95 83 -10 285 -10Z" glyph-name="ampersand" horiz-adv-x="602" unicode="&amp;" /><glyph d="M284 734C284 715 269 711 227 711C192 711 171 718 171 734C171 752 192 759 227 759C269 759 284 755 284 734ZM86 735C86 673 131 640 230 640C330 640 374 673 374 735C374 797 330 830 230 830C131 830 86 797 86 735ZM158 168C158 214 181 234 230 234C297 234 302 226 302 168C302 125 279 102 230 102C181 102 158 123 158 168ZM302 328C302 320 301 318 296 318H204C80 318 25 256 25 154C25 51 81 -10 195 -10C282 -10 336 22 336 69C336 77 337 79 341 79C345 79 346 77 346 69C346 25 365 0 395 0C420 0 435 14 435 42V408C435 541 390 630 235 630C79 630 35 540 35 405C35 359 55 345 100 345C147 345 168 359 168 405C168 465 185 491 235 491C285 491 302 465 302 399Z" glyph-name="aring" horiz-adv-x="460" unicode="å" /><glyph d="M219 464C216 473 189 527 187 532C190 528 222 477 230 471C265 438 301 449 320 480C339 512 329 551 285 564C275 566 214 571 209 571C214 572 275 574 285 577C329 590 339 629 320 660C301 692 265 704 230 671C222 664 190 614 187 609C189 614 216 669 219 677C229 724 201 750 164 750C128 750 100 724 110 677C113 669 141 614 142 609C140 614 107 664 98 671C64 704 27 692 9 660C-10 629 -1 590 44 577C54 574 114 572 121 571C114 571 54 566 44 564C-1 551 -10 512 9 480C27 449 64 438 98 471C107 477 140 528 142 532C141 527 113 473 110 464C100 418 128 391 164 391C201 391 229 418 219 464Z" glyph-name="asterisk" horiz-adv-x="330" unicode="*" /><glyph d="M495 130C495 80 518 50 555 50C586 50 605 67 605 100V520C605 553 586 570 555 570C518 570 495 540 495 490C495 482 494 480 490 480C486 480 485 482 485 490C485 543 437 580 360 580C232 580 195 496 195 370V220C195 112 232 40 360 40C437 40 485 77 485 130C485 138 486 140 490 140C494 140 495 138 495 130ZM665 410V210C665 67 606 -30 400 -30C194 -30 135 67 135 210V410C135 554 194 650 400 650C606 650 665 554 665 410ZM775 410C775 620 692 760 400 760C108 760 25 620 25 410V210C25 1 108 -140 400 -140C692 -140 775 1 775 210ZM425 230C425 190 420 180 400 180C380 180 375 190 375 230V390C375 430 380 440 400 440C420 440 425 430 425 390Z" glyph-name="at" horiz-adv-x="800" unicode="@" /><glyph d="M181 694C215 694 219 640 286 640C346 640 374 685 374 767C374 811 362 830 335 830C312 830 304 819 304 801C304 784 295 776 279 776C243 776 241 830 174 830C114 830 86 785 86 703C86 659 98 640 125 640C148 640 156 651 156 669C156 686 165 694 181 694ZM158 168C158 214 181 234 230 234C297 234 302 226 302 168C302 125 279 102 230 102C181 102 158 123 158 168ZM302 328C302 320 301 318 296 318H204C80 318 25 256 25 154C25 51 81 -10 195 -10C282 -10 336 22 336 69C336 77 337 79 341 79C345 79 346 77 346 69C346 25 365 0 395 0C420 0 435 14 435 42V408C435 541 390 630 235 630C79 630 35 540 35 405C35 359 55 345 100 345C147 345 168 359 168 405C168 465 185 491 235 491C285 491 302 465 302 399Z" glyph-name="atilde" horiz-adv-x="460" unicode="ã" /><glyph d="M158 390V221C158 155 176 129 230 129C284 129 302 155 302 221V390C302 463 284 491 230 491C176 491 158 463 158 390ZM114 551C114 543 115 541 119 541C123 541 124 543 124 551C124 598 175 630 255 630C395 630 435 553 435 439V200C435 74 395 -10 255 -10C175 -10 124 22 124 69C124 77 123 79 119 79C115 79 114 77 114 69C114 26 95 0 65 0C40 0 25 14 25 42V708C25 736 40 750 65 750C95 750 114 725 114 681Z" glyph-name="b" horiz-adv-x="460" unicode="b" /><glyph d="M5 700 237 -80C246 -111 256 -130 287 -130H417C446 -130 456 -110 447 -80L215 700C206 731 196 750 165 750H35C6 750 -4 730 5 700Z" glyph-name="backslash" horiz-adv-x="450" unicode="\" /><glyph d="M225 600C225 670 195 700 125 700C55 700 25 670 25 600V-30C25 -100 55 -130 125 -130C195 -130 225 -100 225 -30Z" glyph-name="bar" horiz-adv-x="250" unicode="|" /><glyph d="M0 310C0 396 81 360 99 502C121 681 163 750 272 750C348 750 387 711 352 650C309 576 281 498 270 412C262 351 237 315 159 315C151 315 149 314 149 310C149 306 151 305 159 305C237 305 260 270 270 208C283 123 309 43 352 -30C387 -91 348 -130 272 -130C163 -130 121 -61 99 118C81 260 0 224 0 310Z" glyph-name="braceleft" horiz-adv-x="365" unicode="{" /><glyph d="M365 310C365 224 284 260 266 118C244 -61 202 -130 93 -130C17 -130 -22 -91 13 -30C56 44 84 122 95 208C103 269 128 305 206 305C214 305 216 306 216 310C216 314 214 315 206 315C128 315 105 350 95 412C82 497 56 577 13 650C-22 711 17 750 93 750C202 750 244 681 266 502C284 360 365 396 365 310Z" glyph-name="braceright" horiz-adv-x="365" unicode="}" /><glyph d="M200 500C200 540 205 550 225 550C295 550 325 580 325 650C325 720 295 750 230 750H150C25 750 0 725 0 600V20C0 -105 25 -130 150 -130H230C295 -130 325 -100 325 -30C325 40 295 70 225 70C205 70 200 80 200 120Z" glyph-name="bracketleft" horiz-adv-x="325" unicode="[" /><glyph d="M125 120C125 80 120 70 100 70C30 70 0 40 0 -30C0 -100 30 -130 95 -130H175C300 -130 325 -105 325 20V600C325 725 300 750 175 750H95C30 750 0 720 0 650C0 580 30 550 100 550C120 550 125 540 125 500Z" glyph-name="bracketright" horiz-adv-x="325" unicode="]" /><glyph d="M370 300C370 184 306 120 190 120C74 120 10 184 10 300V320C10 436 74 500 190 500C306 500 370 436 370 320Z" glyph-name="bullet" horiz-adv-x="380" unicode="•" /><glyph d="M292 215C292 153 275 129 225 129C175 129 158 154 158 221V399C158 466 175 491 225 491C275 491 292 465 292 405C292 360 313 345 359 345C404 345 425 360 425 405C425 540 381 630 225 630C70 630 25 541 25 408V212C25 80 70 -10 225 -10C381 -10 425 81 425 215C425 260 404 275 359 275C313 275 292 260 292 215Z" glyph-name="c" horiz-adv-x="450" unicode="c" /><glyph d="M110 727 177 663C195 645 217 640 235 640C254 640 275 645 293 663L360 727C388 753 398 775 379 804C360 834 335 838 302 822L235 789L168 822C135 838 110 834 91 804C72 775 82 753 110 727Z" glyph-name="caron" horiz-adv-x="460" unicode="ˇ" /><glyph d="M244 -30 269 18 190 31 161 -57C151 -86 175 -102 222 -102C260 -102 273 -107 273 -126C273 -145 260 -149 222 -149C191 -149 172 -142 172 -126C172 -98 161 -82 132 -82C101 -82 87 -95 87 -125C87 -187 130 -220 225 -220C321 -220 363 -187 363 -125C363 -68 327 -30 244 -30ZM292 215C292 153 275 129 225 129C175 129 158 154 158 221V399C158 466 175 491 225 491C275 491 292 465 292 405C292 360 313 345 359 345C404 345 425 360 425 405C425 540 381 630 225 630C70 630 25 541 25 408V212C25 80 70 -10 225 -10C381 -10 425 81 425 215C425 260 404 275 359 275C313 275 292 260 292 215Z" glyph-name="ccedilla" horiz-adv-x="450" unicode="ç" /><glyph d="M244 -30 269 18 235 76C203 76 200 60 190 31L161 -57C151 -86 175 -102 222 -102C260 -102 273 -107 273 -126C273 -145 260 -149 222 -149C191 -149 172 -142 172 -126C172 -98 161 -82 132 -82C101 -82 87 -95 87 -125C87 -187 130 -220 225 -220C321 -220 363 -187 363 -125C363 -68 327 -30 244 -30Z" glyph-name="cedilla" horiz-adv-x="450" unicode="¸" /><glyph d="M245 212C245 186 241 180 225 180C209 180 205 188 205 221V399C205 432 209 440 225 440C241 440 245 433 245 408C245 347 273 328 336 328C398 328 425 347 425 408C425 541 381 630 225 630C70 630 25 541 25 408V212C25 80 70 -10 225 -10C381 -10 425 80 425 212C425 273 398 292 336 292C273 292 245 273 245 212ZM325 600C325 670 295 700 225 700C155 700 125 670 125 600V534H325ZM325 24V90H125V24C125 -46 155 -76 225 -76C295 -76 325 -46 325 24Z" glyph-name="cent" horiz-adv-x="450" unicode="¢" /><glyph d="M110 743C82 717 72 695 91 666C110 636 135 632 168 648L235 681L302 648C335 632 360 636 379 666C398 695 388 717 360 743L293 807C275 825 254 830 235 830C217 830 195 825 177 807Z" glyph-name="circumflex" horiz-adv-x="460" unicode="ˆ" /><glyph d="M190 520C190 462 158 430 100 430C42 430 10 462 10 520V530C10 588 42 620 100 620C158 620 190 588 190 530ZM190 90C190 32 158 0 100 0C42 0 10 32 10 90V100C10 158 42 190 100 190C158 190 190 158 190 100Z" glyph-name="colon" horiz-adv-x="200" unicode=":" /><glyph d="M65 -20C79 -20 90 -17 90 -5C90 7 81 10 70 10C31 10 10 42 10 100C10 158 42 190 100 190C152 190 190 162 190 70C190 -39 139 -82 90 -82C52 -82 30 -67 30 -45C30 -29 42 -20 65 -20Z" glyph-name="comma" horiz-adv-x="200" unicode="," /><glyph d="M665 410V210C665 67 606 -30 400 -30C194 -30 135 67 135 210V410C135 554 194 650 400 650C606 650 665 554 665 410ZM775 410C775 620 692 760 400 760C108 760 25 620 25 410V210C25 1 108 -140 400 -140C692 -140 775 1 775 210ZM417 225C417 203 414 198 400 198C386 198 383 204 383 232V384C383 412 386 419 400 419C414 419 417 413 417 391C417 339 441 323 494 323C547 323 570 339 570 391C570 504 533 580 400 580C268 580 230 504 230 391V225C230 113 268 36 400 36C533 36 570 113 570 225C570 277 547 293 494 293C441 293 417 277 417 225Z" glyph-name="copyright" horiz-adv-x="800" unicode="©" /><glyph d="M302 390V221C302 155 284 129 230 129C176 129 158 155 158 221V390C158 463 176 491 230 491C284 491 302 463 302 390ZM346 551C346 543 345 541 341 541C337 541 336 543 336 551C336 598 285 630 205 630C65 630 25 553 25 439V200C25 74 65 -10 205 -10C285 -10 336 22 336 69C336 77 337 79 341 79C345 79 346 77 346 69C346 26 365 0 395 0C420 0 435 14 435 42V708C435 736 420 750 395 750C365 750 346 725 346 681Z" glyph-name="d" horiz-adv-x="460" unicode="d" /><glyph d="M134 584C134 549 120 536 101 536C81 536 70 555 70 584C70 616 81 634 101 634C120 634 134 621 134 584ZM-20 585C-20 513 19 460 104 460C190 460 228 513 228 585C228 657 190 710 104 710C19 710 -20 657 -20 585Z" glyph-name="degree" horiz-adv-x="208" unicode="°" /><glyph d="M225 730C225 672 193 640 135 640C77 640 45 672 45 730V740C45 798 77 830 135 830C193 830 225 798 225 740ZM425 730C425 672 393 640 335 640C277 640 245 672 245 730V740C245 798 277 830 335 830C393 830 425 798 425 740Z" glyph-name="dieresis" horiz-adv-x="460" unicode="¨" /><glyph d="M350 680C350 750 320 780 250 780C180 780 150 750 150 680V614H350ZM150 89V20C150 -50 180 -80 250 -80C320 -80 350 -50 350 20V94ZM215 180C215 227 185 260 115 260C52 260 25 219 25 160C25 59 93 -10 245 -10C403 -10 475 71 475 190C475 450 225 390 225 500C225 540 230 550 250 550C270 550 275 543 275 520C275 474 305 440 375 440C438 440 465 483 465 540C465 641 398 710 250 710C95 710 25 629 25 510C25 250 275 310 275 200C275 160 269 150 245 150C221 150 215 156 215 180Z" glyph-name="dollar" horiz-adv-x="500" unicode="$" /><glyph d="M158 547C158 598 138 620 91 620C45 620 25 598 25 547V73C25 22 45 0 91 0C138 0 158 22 158 73Z" glyph-name="dotlessi" horiz-adv-x="183" unicode="ı" /><glyph d="M370 301C417 301 435 320 435 366C435 529 389 630 230 630C71 630 25 529 25 380V240C25 91 73 -10 240 -10C371 -10 435 68 435 183C435 230 415 263 365 263C321 263 302 237 302 203C302 140 285 110 234 110C183 110 158 136 158 200V252C158 295 161 301 230 301ZM301 421C301 389 296 385 230 385C163 385 158 389 158 421C158 484 181 510 230 510C279 510 301 484 301 421Z" glyph-name="e" horiz-adv-x="460" unicode="e" /><glyph d="M135 771 244 819C307 847 358 818 373 766C386 711 357 660 289 654L169 641C125 637 97 647 86 688C74 728 94 752 135 771ZM370 301C417 301 435 320 435 366C435 529 389 630 230 630C71 630 25 529 25 380V240C25 91 73 -10 240 -10C371 -10 435 68 435 183C435 230 415 263 365 263C321 263 302 237 302 203C302 140 285 110 234 110C183 110 158 136 158 200V252C158 295 161 301 230 301ZM301 421C301 389 296 385 230 385C163 385 158 389 158 421C158 484 181 510 230 510C279 510 301 484 301 421Z" glyph-name="eacute" horiz-adv-x="450" unicode="é" /><glyph d="M105 743C77 717 67 695 86 666C105 636 130 632 163 648L230 681L297 648C330 632 355 636 374 666C393 695 383 717 355 743L288 807C270 825 249 830 230 830C212 830 190 825 172 807ZM370 301C417 301 435 320 435 366C435 529 389 630 230 630C71 630 25 529 25 380V240C25 91 73 -10 240 -10C371 -10 435 68 435 183C435 230 415 263 365 263C321 263 302 237 302 203C302 140 285 110 234 110C183 110 158 136 158 200V252C158 295 161 301 230 301ZM301 421C301 389 296 385 230 385C163 385 158 389 158 421C158 484 181 510 230 510C279 510 301 484 301 421Z" glyph-name="ecircumflex" horiz-adv-x="450" unicode="ê" /><glyph d="M220 730C220 672 188 640 130 640C72 640 40 672 40 730V740C40 798 72 830 130 830C188 830 220 798 220 740ZM420 730C420 672 388 640 330 640C272 640 240 672 240 730V740C240 798 272 830 330 830C388 830 420 798 420 740ZM370 301C417 301 435 320 435 366C435 529 389 630 230 630C71 630 25 529 25 380V240C25 91 73 -10 240 -10C371 -10 435 68 435 183C435 230 415 263 365 263C321 263 302 237 302 203C302 140 285 110 234 110C183 110 158 136 158 200V252C158 295 161 301 230 301ZM301 421C301 389 296 385 230 385C163 385 158 389 158 421C158 484 181 510 230 510C279 510 301 484 301 421Z" glyph-name="edieresis" horiz-adv-x="460" unicode="ë" /><glyph d="M325 771C366 752 386 728 374 688C363 647 335 637 291 641L171 654C103 660 74 711 87 766C102 818 153 847 216 819ZM370 301C417 301 435 320 435 366C435 529 389 630 230 630C71 630 25 529 25 380V240C25 91 73 -10 240 -10C371 -10 435 68 435 183C435 230 415 263 365 263C321 263 302 237 302 203C302 140 285 110 234 110C183 110 158 136 158 200V252C158 295 161 301 230 301ZM301 421C301 389 296 385 230 385C163 385 158 389 158 421C158 484 181 510 230 510C279 510 301 484 301 421Z" glyph-name="egrave" horiz-adv-x="450" unicode="è" /><glyph d="M250 -10C405 -10 475 67 475 188C475 258 455 351 354 351C346 351 344 352 344 356C344 360 346 361 354 361C443 361 465 446 465 510C465 629 398 710 250 710C102 710 35 634 35 515C35 449 53 361 146 361C154 361 156 360 156 356C156 352 154 351 146 351C49 351 25 261 25 193C25 72 95 -10 250 -10ZM250 588C306 588 324 563 324 500C324 436 306 411 250 411C194 411 176 436 176 500C176 563 194 588 250 588ZM250 289C309 289 328 264 328 200C328 137 309 112 250 112C191 112 172 137 172 200C172 264 191 289 250 289Z" glyph-name="eight" horiz-adv-x="500" unicode="8" /><glyph d="M190 90C190 32 158 0 100 0C42 0 10 32 10 90V100C10 158 42 190 100 190C158 190 190 158 190 100ZM390 90C390 32 358 0 300 0C242 0 210 32 210 90V100C210 158 242 190 300 190C358 190 390 158 390 100ZM590 90C590 32 558 0 500 0C442 0 410 32 410 90V100C410 158 442 190 500 190C558 190 590 158 590 100Z" glyph-name="ellipsis" horiz-adv-x="600" unicode="…" /><glyph d="M100 405C42 405 10 373 10 315V305C10 247 42 215 100 215H400C458 215 490 247 490 305V315C490 373 458 405 400 405Z" glyph-name="emdash" horiz-adv-x="500" unicode="—" /><glyph d="M100 405C42 405 10 373 10 315V305C10 247 42 215 100 215H500C558 215 590 247 590 305V315C590 373 558 405 500 405Z" glyph-name="endash" horiz-adv-x="600" unicode="–" /><glyph d="M460 345C530 345 560 375 560 445C560 515 530 545 460 545H100C30 545 0 515 0 445C0 375 30 345 100 345ZM460 75C530 75 560 105 560 175C560 245 530 275 460 275H100C30 275 0 245 0 175C0 105 30 75 100 75Z" glyph-name="equal" horiz-adv-x="560" unicode="=" /><glyph d="M205 650C207 720 178 750 115 750C52 750 23 720 25 650L34 317C36 256 57 229 115 229C173 229 194 256 196 317ZM205 90C205 32 173 0 115 0C57 0 25 32 25 90V100C25 158 57 190 115 190C173 190 205 158 205 100Z" glyph-name="exclam" horiz-adv-x="230" unicode="!" /><glyph d="M25 -30C23 -100 52 -130 115 -130C178 -130 207 -100 205 -30L196 303C194 364 173 391 115 391C57 391 36 364 34 303ZM25 530C25 588 57 620 115 620C173 620 205 588 205 530V520C205 462 173 430 115 430C57 430 25 462 25 520Z" glyph-name="exclamdown" horiz-adv-x="230" unicode="¡" /><glyph d="M173 442C169 442 168 444 168 452V510C168 591 183 611 229 611C274 611 286 591 286 519C286 493 301 480 327 480C357 480 375 502 375 540C375 665 337 750 205 750C73 750 35 665 35 540V452C35 444 34 442 16 442C-19 442 -35 428 -35 397C-35 366 -19 353 16 353C34 353 35 351 35 343V73C35 22 55 0 101 0C148 0 168 22 168 73V343C168 351 169 353 173 353H299C335 353 350 365 350 397C350 428 335 442 299 442Z" glyph-name="f" horiz-adv-x="375" unicode="f" /><glyph d="M167 190C167 128 193 112 241 112C294 112 328 141 328 219C328 300 279 324 192 324H107C50 324 20 349 26 409L46 619C51 676 70 700 127 700H372C423 700 445 678 445 627C445 575 423 553 372 553H173L164 446H255C407 446 475 353 475 216C475 85 403 -10 247 -10C95 -10 26 57 26 160C26 224 47 251 95 251C145 251 167 233 167 190Z" glyph-name="five" horiz-adv-x="500" unicode="5" /><glyph d="M20 298C6 273 4 257 4 241C4 198 23 180 70 180H255V73C255 21 275 0 322 0C369 0 389 22 389 73V180H407C451 180 471 196 471 241C471 286 451 302 407 302H389V630C389 682 369 704 322 704H309C283 704 258 693 239 660ZM150 302 266 488V302Z" glyph-name="four" horiz-adv-x="471" unicode="4" /><glyph d="M302 436C302 381 284 363 230 363C176 363 158 381 158 436V462C158 516 176 534 230 534C284 534 302 516 302 462ZM415 526C413 531 417 533 425 533C480 533 510 550 510 583C510 606 498 620 473 620H359C313 620 274 630 230 630C71 630 25 560 25 454V444C25 339 71 268 230 268C389 268 435 339 435 444C435 481 427 500 415 526ZM230 -41C155 -41 131 -26 131 14C131 55 155 70 230 70C305 70 329 55 329 14C329 -26 305 -41 230 -41ZM173 128 230 202H173C134 202 124 212 124 235C124 258 134 268 173 268H230L173 342C91 342 35 314 35 235C35 156 91 128 173 128ZM230 202C105 202 20 165 20 36C20 -93 105 -130 230 -130C355 -130 440 -93 440 36C440 165 355 202 230 202Z" glyph-name="g" horiz-adv-x="460" unicode="g" /><glyph d="M266 594C324 594 351 580 351 529C351 478 328 464 276 464C230 464 205 443 205 357C205 266 233 243 281 243C336 243 350 232 350 189C350 145 324 134 259 134C215 134 195 114 195 67C195 20 223 0 287 0C427 0 475 77 475 189C475 326 432 371 373 371C365 371 363 372 363 376C363 380 365 381 373 381C423 381 453 416 453 516C453 632 407 710 250 710C75 710 25 610 25 460V61C25 18 43 0 86 0C129 0 147 18 147 61V410C147 552 173 594 266 594Z" glyph-name="germandbls" horiz-adv-x="500" unicode="ß" /><glyph d="M330 771C371 752 391 728 379 688C368 647 340 637 296 641L176 654C108 660 79 711 92 766C107 818 158 847 221 819Z" glyph-name="grave" horiz-adv-x="460" unicode="`" /><glyph d="M193 310 355 501C390 542 377 574 343 600C300 633 263 620 237 592L28 368C10 348 0 328 0 310C0 291 8 274 28 252L237 28C263 0 300 -13 343 20C377 46 390 78 355 119ZM453 310 615 501C650 542 637 574 603 600C560 633 523 620 497 592L288 368C270 348 260 328 260 310C260 291 268 274 288 252L497 28C523 0 560 -13 603 20C637 46 650 78 615 119Z" glyph-name="guillemotleft" horiz-adv-x="636" /><glyph d="M443 310 281 119C246 78 259 46 293 20C336 -13 373 0 399 28L608 252C626 272 636 292 636 310C636 329 628 346 608 368L399 592C373 620 336 633 293 600C259 574 246 542 281 501ZM183 310 21 119C-14 78 -1 46 33 20C76 -13 113 0 139 28L348 252C366 272 376 292 376 310C376 329 368 346 348 368L139 592C113 620 76 633 33 600C-1 574 -14 542 21 501Z" glyph-name="guillemotright" horiz-adv-x="636" /><glyph d="M193 310 355 501C390 542 377 574 343 600C300 633 263 620 237 592L28 368C10 348 0 328 0 310C0 291 8 274 28 252L237 28C263 0 300 -13 343 20C377 46 390 78 355 119Z" glyph-name="guilsinglleft" horiz-adv-x="376" unicode="‹" /><glyph d="M183 310 21 119C-14 78 -1 46 33 20C76 -13 113 0 139 28L348 252C366 272 376 292 376 310C376 329 368 346 348 368L139 592C113 620 76 633 33 600C-1 574 -14 542 21 501Z" glyph-name="guilsinglright" horiz-adv-x="376" unicode="›" /><glyph d="M435 140V420C435 546 395 630 255 630C175 630 124 598 124 551C124 543 123 541 119 541C115 541 114 543 114 551V681C114 725 95 750 65 750C40 750 25 736 25 708V66C25 20 45 0 91 0C138 0 158 20 158 66V398C158 465 176 491 230 491C284 491 302 465 302 398V106C302 32 328 0 386 0C427 0 454 19 454 62C454 102 435 110 435 140Z" glyph-name="h" horiz-adv-x="459" unicode="h" /><glyph d="M100 405C42 405 10 373 10 315V305C10 247 42 215 100 215H200C258 215 290 247 290 305V315C290 373 258 405 200 405Z" glyph-name="hyphen" horiz-adv-x="300" unicode="-" /><glyph d="M158 547C158 598 138 620 91 620C45 620 25 598 25 547V73C25 22 45 0 91 0C138 0 158 22 158 73ZM181 730C181 672 149 640 91 640C33 640 1 672 1 730V740C1 798 33 830 91 830C149 830 181 798 181 740Z" glyph-name="i" horiz-adv-x="183" unicode="i" /><glyph d="M158 547C158 598 138 620 91 620C45 620 25 598 25 547V73C25 22 45 0 91 0C138 0 158 22 158 73ZM-2 771 107 819C170 847 221 818 236 766C249 711 220 660 152 654L32 641C-12 637 -40 647 -51 688C-63 728 -43 752 -2 771Z" glyph-name="iacute" horiz-adv-x="183" unicode="í" /><glyph d="M-33 743C-61 717 -71 695 -52 666C-33 636 -8 632 25 648L92 681L159 648C192 632 217 636 236 666C255 695 245 717 217 743L150 807C132 825 111 830 92 830C74 830 52 825 34 807ZM158 547C158 598 138 620 91 620C45 620 25 598 25 547V73C25 22 45 0 91 0C138 0 158 22 158 73Z" glyph-name="icircumflex" horiz-adv-x="183" unicode="î" /><glyph d="M81 730C81 672 49 640 -9 640C-67 640 -99 672 -99 730V740C-99 798 -67 830 -9 830C49 830 81 798 81 740ZM281 730C281 672 249 640 191 640C133 640 101 672 101 730V740C101 798 133 830 191 830C249 830 281 798 281 740ZM158 547C158 598 138 620 91 620C45 620 25 598 25 547V73C25 22 45 0 91 0C138 0 158 22 158 73Z" glyph-name="idieresis" horiz-adv-x="183" unicode="ï" /><glyph d="M159 547C159 598 139 620 92 620C46 620 26 598 26 547V73C26 22 46 0 92 0C139 0 159 22 159 73ZM186 771C227 752 247 728 235 688C224 647 196 637 152 641L32 654C-36 660 -65 711 -52 766C-37 818 14 847 77 819Z" glyph-name="igrave" horiz-adv-x="184" unicode="ì" /><glyph d="M278 110C278 30 267 11 224 11C181 11 170 30 170 110C170 143 153 160 125 160C77 160 48 130 48 79C48 -45 81 -130 230 -130C372 -130 412 -45 412 80V547C412 598 392 620 345 620C298 620 278 598 278 547ZM435 730C435 672 403 640 345 640C287 640 255 672 255 730V740C255 798 287 830 345 830C403 830 435 798 435 740ZM182 547C182 598 162 620 115 620C68 620 48 598 48 547V253C48 202 68 180 115 180C162 180 182 202 182 253ZM205 730C205 672 173 640 115 640C57 640 25 672 25 730V740C25 798 57 830 115 830C173 830 205 798 205 740Z" glyph-name="ij" horiz-adv-x="460" unicode="ĳ" /><glyph d="M49 84C49 28 36 9 2 9C-32 9 -46 28 -46 87C-46 114 -61 128 -87 128C-117 128 -135 106 -135 68C-135 -50 -96 -130 23 -130C142 -130 181 -51 181 65V551C181 602 162 624 115 624C68 624 49 602 49 551ZM205 730C205 672 173 640 115 640C57 640 25 672 25 730V740C25 798 57 830 115 830C173 830 205 798 205 740Z" glyph-name="j" horiz-adv-x="230" unicode="j" /><glyph d="M302 172V106C302 32 328 0 386 0C427 0 454 19 454 62C454 102 435 110 435 140V215C435 273 405 297 353 297C345 297 343 298 343 302C343 306 345 307 353 307C405 307 435 347 435 420C435 546 395 630 255 630C175 630 124 598 124 551C124 543 123 541 119 541C115 541 114 543 114 551V681C114 725 95 750 65 750C40 750 25 736 25 708V66C25 20 45 0 91 0C138 0 158 20 158 66V172C158 258 161 265 230 265C299 265 302 258 302 172ZM158 398C158 465 176 491 230 491C284 491 302 465 302 398C302 348 288 335 230 335C161 335 158 342 158 398Z" glyph-name="k" horiz-adv-x="460" unicode="k" /><glyph d="M159 677C159 728 139 750 92 750C45 750 25 728 25 677V73C25 22 45 0 92 0C139 0 159 22 159 73Z" glyph-name="l" horiz-adv-x="184" unicode="l" /><glyph d="M665 140V426C665 567 612 630 499 630C439 630 382 592 382 540C382 532 381 530 377 530C373 530 372 532 372 540C372 593 325 630 247 630C172 630 124 598 124 551C124 543 123 541 119 541C115 541 114 543 114 551C114 595 95 620 65 620C40 620 25 606 25 578V66C25 20 45 0 91 0C138 0 158 20 158 66V387C158 456 175 479 218 479C262 479 279 456 279 387V66C279 20 298 0 345 0C392 0 411 20 411 66V387C411 456 428 479 472 479C515 479 532 456 532 387V106C532 32 558 0 616 0C657 0 684 19 684 62C684 102 665 110 665 140Z" glyph-name="m" horiz-adv-x="689" unicode="m" /><glyph d="M534 443C581 496 584 535 534 584C485 634 440 637 393 584L26 177C-21 124 -24 85 26 36C75 -14 120 -17 167 36ZM393 36C440 -17 485 -14 534 36C584 85 581 124 534 177L167 584C120 637 75 634 26 584C-24 535 -21 496 26 443Z" glyph-name="multiply" horiz-adv-x="561" unicode="×" /><glyph d="M435 140V420C435 546 395 630 255 630C175 630 124 598 124 551C124 543 123 541 119 541C115 541 114 543 114 551C114 595 95 620 65 620C40 620 25 606 25 578V66C25 20 45 0 91 0C138 0 158 20 158 66V399C158 465 176 491 230 491C284 491 302 465 302 399V106C302 32 328 0 386 0C427 0 454 19 454 62C454 102 435 110 435 140Z" glyph-name="n" horiz-adv-x="459" unicode="n" /><glyph d="M172 480C172 399 195 380 250 380C307 380 327 399 327 480C327 568 307 588 250 588C195 588 172 570 172 480ZM400 390C400 319 347 270 229 270C88 270 25 355 25 480C25 617 94 710 249 710C404 710 474 621 474 484V220C474 83 404 -10 249 -10C101 -10 34 59 34 160C34 209 55 245 103 245C153 245 175 217 175 180C175 132 193 112 249 112C308 112 327 144 327 233V397Z" glyph-name="nine" horiz-adv-x="499" unicode="9" /><glyph d="M190 694C224 694 228 640 295 640C355 640 383 685 383 767C383 811 371 830 344 830C321 830 313 819 313 801C313 784 304 776 288 776C252 776 250 830 183 830C123 830 95 785 95 703C95 659 107 640 134 640C157 640 165 651 165 669C165 686 174 694 190 694ZM435 140V420C435 546 395 630 255 630C175 630 124 598 124 551C124 543 123 541 119 541C115 541 114 543 114 551C114 595 95 620 65 620C40 620 25 606 25 578V66C25 20 45 0 91 0C138 0 158 20 158 66V399C158 465 176 491 230 491C284 491 302 465 302 399V106C302 32 328 0 386 0C427 0 454 19 454 62C454 102 435 110 435 140Z" glyph-name="ntilde" horiz-adv-x="459" unicode="ñ" /><glyph d="M56 50C45 20 57 0 86 0H196C227 0 235 19 246 50L478 700C489 730 477 750 448 750H338C307 750 299 731 288 700ZM306 50C295 20 306 0 336 0H445C476 0 484 19 495 50L727 700C738 730 726 750 697 750H588C556 750 549 731 538 700ZM192 610C160 610 152 608 142 580L95 450C85 421 112 400 145 400H683C715 400 723 402 733 430L780 560C791 589 763 610 730 610ZM99 350C67 350 59 348 49 320L2 190C-8 161 19 140 52 140H590C622 140 630 142 640 170L687 300C698 329 670 350 637 350Z" glyph-name="numbersign" horiz-adv-x="783" unicode="#" /><glyph d="M435 380C435 530 389 630 230 630C71 630 25 530 25 380V240C25 91 71 -10 230 -10C389 -10 435 91 435 240ZM302 230C302 156 283 129 230 129C177 129 158 156 158 230V390C158 464 177 491 230 491C283 491 302 464 302 390Z" glyph-name="o" horiz-adv-x="460" unicode="o" /><glyph d="M435 380C435 530 389 630 230 630C71 630 25 530 25 380V240C25 91 71 -10 230 -10C389 -10 435 91 435 240ZM302 230C302 156 283 129 230 129C177 129 158 156 158 230V390C158 464 177 491 230 491C283 491 302 464 302 390ZM136 771 245 819C308 847 359 818 374 766C387 711 358 660 290 654L170 641C126 637 98 647 87 688C75 728 95 752 136 771Z" glyph-name="oacute" horiz-adv-x="460" unicode="ó" /><glyph d="M105 743C77 717 67 695 86 666C105 636 130 632 163 648L230 681L297 648C330 632 355 636 374 666C393 695 383 717 355 743L288 807C270 825 249 830 230 830C212 830 190 825 172 807ZM435 380C435 530 389 630 230 630C71 630 25 530 25 380V240C25 91 71 -10 230 -10C389 -10 435 91 435 240ZM302 230C302 156 283 129 230 129C177 129 158 156 158 230V390C158 464 177 491 230 491C283 491 302 464 302 390Z" glyph-name="ocircumflex" horiz-adv-x="460" unicode="ô" /><glyph d="M220 730C220 672 188 640 130 640C72 640 40 672 40 730V740C40 798 72 830 130 830C188 830 220 798 220 740ZM420 730C420 672 388 640 330 640C272 640 240 672 240 730V740C240 798 272 830 330 830C388 830 420 798 420 740ZM435 380C435 530 389 630 230 630C71 630 25 530 25 380V240C25 91 71 -10 230 -10C389 -10 435 91 435 240ZM302 230C302 156 283 129 230 129C177 129 158 156 158 230V390C158 464 177 491 230 491C283 491 302 464 302 390Z" glyph-name="odieresis" horiz-adv-x="460" unicode="ö" /><glyph d="M435 380C435 530 389 630 230 630C71 630 25 530 25 380V240C25 91 71 -10 230 -10C389 -10 435 91 435 240ZM302 230C302 157 283 129 230 129C177 129 158 157 158 230V390C158 463 177 491 230 491C283 491 302 463 302 390ZM620 289C681 289 706 318 706 366C706 529 666 630 507 630C348 630 302 529 302 380V240C302 91 350 -10 517 -10C648 -10 712 63 712 170C712 218 692 250 643 250C598 250 579 225 579 190C579 137 562 110 511 110C461 110 435 136 435 200V240C435 282 438 289 507 289ZM578 415C578 377 573 372 507 372C440 372 435 377 435 415C435 484 458 510 507 510C556 510 578 484 578 415Z" glyph-name="oe" horiz-adv-x="737" unicode="œ" /><glyph d="M435 380C435 530 389 630 230 630C71 630 25 530 25 380V240C25 91 71 -10 230 -10C389 -10 435 91 435 240ZM302 230C302 156 283 129 230 129C177 129 158 156 158 230V390C158 464 177 491 230 491C283 491 302 464 302 390ZM324 771C365 752 385 728 373 688C362 647 334 637 290 641L170 654C102 660 73 711 86 766C101 818 152 847 215 819Z" glyph-name="ograve" horiz-adv-x="460" unicode="ò" /><glyph d="M268 627C268 678 247 700 195 700C144 700 122 678 122 627V73C122 22 144 0 195 0C247 0 268 22 268 73ZM317 0C368 0 390 22 390 73C390 125 368 147 317 147H73C22 147 0 125 0 73C0 22 22 0 73 0ZM195 700H73C22 700 0 678 0 627C0 575 22 553 73 553H195Z" glyph-name="one" horiz-adv-x="390" unicode="1" /><glyph d="M221 625C221 678 199 700 146 700C94 700 71 678 71 625V250C71 198 94 175 146 175C199 175 221 198 221 250ZM217 175C270 175 292 198 292 250C292 303 270 325 217 325H75C22 325 0 303 0 250C0 198 22 175 75 175ZM146 700H75C22 700 0 678 0 625C0 573 22 550 75 550H146Z" glyph-name="onesuperior" horiz-adv-x="292" unicode="¹" /><glyph d="M160 289C160 306 166 315 179 315C192 315 198 306 198 289C198 272 192 263 179 263C166 263 160 272 160 289ZM198 398C198 392 197 390 194 390H153C65 390 25 345 25 270C25 195 67 150 142 150C204 150 243 178 243 218C243 224 244 225 247 225C250 225 250 224 250 218C250 180 268 158 295 158C319 158 333 170 333 195V464C333 563 299 630 183 630C66 630 33 563 33 464C33 418 53 404 100 404C147 404 168 418 168 464C168 482 171 488 183 488C195 488 198 482 198 457Z" glyph-name="ordfeminine" horiz-adv-x="358" unicode="ª" /><glyph d="M327 443C327 555 292 630 173 630C54 630 19 555 19 443V338C19 226 54 150 173 150C292 150 327 226 327 338ZM192 330C192 300 188 293 173 293C158 293 154 300 154 330V450C154 480 158 488 173 488C188 488 192 480 192 450Z" glyph-name="ordmasculine" horiz-adv-x="346" unicode="º" /><glyph d="M435 380C435 530 389 630 230 630C71 630 25 530 25 380V240C25 91 71 -10 230 -10C389 -10 435 91 435 240ZM301 230C301 158 283 131 230 131C177 131 159 158 159 230V390C159 462 177 489 230 489C283 489 301 462 301 390ZM5 42C-6 17 6 0 27 0H112C140 0 144 13 158 42L191 114L73 194ZM383 424 456 588C467 613 455 630 433 630H349C320 630 316 617 303 588L265 506Z" glyph-name="oslash" horiz-adv-x="460" unicode="ø" /><glyph d="M435 380C435 530 389 630 230 630C71 630 25 530 25 380V240C25 91 71 -10 230 -10C389 -10 435 91 435 240ZM302 230C302 156 283 129 230 129C177 129 158 156 158 230V390C158 464 177 491 230 491C283 491 302 464 302 390ZM181 694C215 694 219 640 286 640C346 640 374 685 374 767C374 811 362 830 335 830C312 830 304 819 304 801C304 784 295 776 279 776C243 776 241 830 174 830C114 830 86 785 86 703C86 659 98 640 125 640C148 640 156 651 156 669C156 686 165 694 181 694Z" glyph-name="otilde" horiz-adv-x="460" unicode="õ" /><glyph d="M158 230V399C158 465 176 491 230 491C284 491 302 465 302 399V230C302 157 284 129 230 129C176 129 158 157 158 230ZM114 69C114 77 115 79 119 79C123 79 124 77 124 69C124 22 175 -10 255 -10C395 -10 435 67 435 181V420C435 546 395 630 255 630C175 630 124 598 124 551C124 543 123 541 119 541C115 541 114 543 114 551C114 594 95 620 65 620C40 620 25 606 25 578V-88C25 -116 40 -130 65 -130C95 -130 114 -105 114 -61Z" glyph-name="p" horiz-adv-x="460" unicode="p" /><glyph d="M293 600C325 656 289 693 233 700C137 711 102 682 73 620C30 529 0 408 0 285C0 162 30 41 73 -50C102 -112 139 -147 233 -130C289 -120 325 -86 293 -30C243 56 211 169 211 285C211 400 243 513 293 600Z" glyph-name="parenleft" horiz-adv-x="305" unicode="(" /><glyph d="M12 -32C-20 -88 16 -125 72 -132C168 -143 203 -114 232 -52C275 39 305 160 305 283C305 406 275 527 232 618C203 680 166 715 72 698C16 688 -20 654 12 598C62 512 94 399 94 283C94 168 62 55 12 -32Z" glyph-name="parenright" horiz-adv-x="305" unicode=")" /><glyph d="M370 500C370 650 329 750 185 750C41 750 0 650 0 500V450C0 301 41 200 185 200C329 200 370 301 370 450ZM210 420C210 380 205 370 185 370C165 370 160 380 160 420V530C160 570 165 580 185 580C205 580 210 570 210 530ZM278 50C267 20 279 0 308 0H438C469 0 477 19 488 50L721 700C732 730 720 750 691 750H561C530 750 522 731 511 700ZM996 290C996 440 955 540 811 540C667 540 626 440 626 290V240C626 91 667 -10 811 -10C955 -10 996 91 996 240ZM836 210C836 170 831 160 811 160C791 160 786 170 786 210V320C786 360 791 370 811 370C831 370 836 360 836 320Z" glyph-name="percent" horiz-adv-x="996" unicode="%" /><glyph d="M190 90C190 32 158 0 100 0C42 0 10 32 10 90V100C10 158 42 190 100 190C158 190 190 158 190 100Z" glyph-name="period" horiz-adv-x="200" unicode="." /><glyph d="M190 305C190 247 158 215 100 215C42 215 10 247 10 305V315C10 373 42 405 100 405C158 405 190 373 190 315Z" glyph-name="periodcentered" horiz-adv-x="200" unicode="·" /><glyph d="M380 520C380 590 350 620 280 620C210 620 180 590 180 520V100C180 30 210 0 280 0C350 0 380 30 380 100ZM460 210C530 210 560 240 560 310C560 380 530 410 460 410H100C30 410 0 380 0 310C0 240 30 210 100 210Z" glyph-name="plus" horiz-adv-x="560" unicode="+" /><glyph d="M302 230V399C302 465 284 491 230 491C176 491 158 465 158 399V230C158 157 176 129 230 129C284 129 302 157 302 230ZM346 69C346 77 345 79 341 79C337 79 336 77 336 69C336 22 285 -10 205 -10C65 -10 25 67 25 181V420C25 546 65 630 205 630C285 630 336 598 336 551C336 543 337 541 341 541C345 541 346 543 346 551C346 594 365 620 395 620C420 620 435 606 435 578V-88C435 -116 420 -130 395 -130C365 -130 346 -105 346 -61Z" glyph-name="q" horiz-adv-x="460" unicode="q" /><glyph d="M235 301C235 388 365 408 365 580C365 681 298 750 150 750C2 750 -65 681 -65 580C-65 523 -35 480 35 480C98 480 125 514 125 560C125 583 135 590 150 590C165 590 175 580 175 540C175 440 65 433 65 301C65 237 91 210 150 210C210 210 235 237 235 301ZM240 90C240 32 208 0 150 0C92 0 60 32 60 90V100C60 158 92 190 150 190C208 190 240 158 240 100Z" glyph-name="question" horiz-adv-x="300" unicode="?" /><glyph d="M65 319C65 232 -65 212 -65 40C-65 -61 2 -130 150 -130C298 -130 365 -61 365 40C365 97 335 140 265 140C202 140 175 106 175 60C175 37 165 30 150 30C135 30 125 40 125 80C125 180 235 187 235 319C235 383 209 410 150 410C90 410 65 383 65 319ZM60 530C60 588 92 620 150 620C208 620 240 588 240 530V520C240 462 208 430 150 430C92 430 60 462 60 520Z" glyph-name="questiondown" horiz-adv-x="300" unicode="¿" /><glyph d="M90 478C46 478 0 581 0 650C0 727 38 750 90 750C148 750 180 714 180 650C180 582 133 478 90 478ZM290 478C246 478 200 581 200 650C200 727 238 750 290 750C348 750 380 714 380 650C380 582 333 478 290 478Z" glyph-name="quotedbl" horiz-adv-x="380" unicode="&quot;" /><glyph d="M65 -20C79 -20 90 -17 90 -5C90 7 81 10 70 10C31 10 10 42 10 100C10 158 42 190 100 190C152 190 190 162 190 70C190 -39 139 -82 90 -82C52 -82 30 -67 30 -45C30 -29 42 -20 65 -20ZM265 -20C279 -20 290 -17 290 -5C290 7 281 10 270 10C231 10 210 42 210 100C210 158 242 190 300 190C352 190 390 162 390 70C390 -39 339 -82 290 -82C252 -82 230 -67 230 -45C230 -29 242 -20 265 -20Z" glyph-name="quotedblbase" horiz-adv-x="390" unicode="„" /><glyph d="M125 688C111 688 100 685 100 673C100 661 109 658 120 658C159 658 180 626 180 568C180 510 148 478 90 478C38 478 0 506 0 598C0 707 51 750 100 750C138 750 160 735 160 713C160 697 148 688 125 688ZM325 688C311 688 300 685 300 673C300 661 309 658 320 658C359 658 380 626 380 568C380 510 348 478 290 478C238 478 200 506 200 598C200 707 251 750 300 750C338 750 360 735 360 713C360 697 348 688 325 688Z" glyph-name="quotedblleft" horiz-adv-x="380" unicode="“" /><glyph d="M55 540C69 540 80 543 80 555C80 567 71 570 60 570C21 570 0 602 0 660C0 718 32 750 90 750C142 750 180 722 180 630C180 521 129 478 80 478C42 478 20 493 20 515C20 531 32 540 55 540ZM255 540C269 540 280 543 280 555C280 567 271 570 260 570C221 570 200 602 200 660C200 718 232 750 290 750C342 750 380 722 380 630C380 521 329 478 280 478C242 478 220 493 220 515C220 531 232 540 255 540Z" glyph-name="quotedblright" horiz-adv-x="380" unicode="”" /><glyph d="M125 688C111 688 100 685 100 673C100 661 109 658 120 658C159 658 180 626 180 568C180 510 148 478 90 478C38 478 0 506 0 598C0 707 51 750 100 750C138 750 160 735 160 713C160 697 148 688 125 688Z" glyph-name="quoteleft" horiz-adv-x="190" unicode="‘" /><glyph d="M65 540C79 540 90 543 90 555C90 567 81 570 70 570C31 570 10 602 10 660C10 718 42 750 100 750C152 750 190 722 190 630C190 521 139 478 90 478C52 478 30 493 30 515C30 531 42 540 65 540Z" glyph-name="quoteright" horiz-adv-x="190" unicode="’" /><glyph d="M65 -20C79 -20 90 -17 90 -5C90 7 81 10 70 10C31 10 10 42 10 100C10 158 42 190 100 190C152 190 190 162 190 70C190 -39 139 -82 90 -82C52 -82 30 -67 30 -45C30 -29 42 -20 65 -20Z" glyph-name="quotesinglbase" horiz-adv-x="200" unicode="‚" /><glyph d="M65 540C79 540 90 543 90 555C90 567 81 570 70 570C31 570 10 602 10 660C10 718 42 750 100 750C152 750 190 722 190 630C190 521 139 478 90 478C52 478 30 493 30 515C30 531 42 540 65 540Z" glyph-name="quotesingle" horiz-adv-x="170" unicode="'" /><glyph d="M365 440C365 554 336 630 234 630C166 630 124 598 124 551C124 543 123 541 119 541C115 541 114 543 114 551C114 595 95 620 65 620C40 620 25 606 25 578V66C25 20 45 0 91 0C138 0 158 20 158 66V399C158 473 179 491 224 491C265 491 276 463 276 420C276 382 289 371 321 371C351 371 365 387 365 440Z" glyph-name="r" horiz-adv-x="365" unicode="r" /><glyph d="M665 410V210C665 67 606 -30 400 -30C194 -30 135 67 135 210V410C135 554 194 650 400 650C606 650 665 554 665 410ZM775 410C775 620 692 760 400 760C108 760 25 620 25 410V210C25 1 108 -140 400 -140C692 -140 775 1 775 210ZM380 387C380 419 384 426 400 426C415 426 419 419 419 387V379C419 349 415 341 400 341C384 341 380 349 380 379ZM573 426C573 519 535 580 400 580H342C246 582 226 561 226 465V117C226 62 250 40 304 40C358 40 380 62 380 117V225C380 256 384 263 400 263C415 263 419 256 419 225V155C419 74 445 40 505 40C567 40 593 61 593 109C593 146 576 159 576 183C576 271 550 299 504 299C498 299 497 300 497 303C497 306 498 306 504 306C548 306 573 330 573 426Z" glyph-name="registered" horiz-adv-x="800" unicode="®" /><glyph d="M284 734C284 715 269 711 227 711C192 711 171 718 171 734C171 752 192 759 227 759C269 759 284 755 284 734ZM86 735C86 673 131 640 230 640C330 640 374 673 374 735C374 797 330 830 230 830C131 830 86 797 86 735Z" glyph-name="ring" horiz-adv-x="460" unicode="˚" /><glyph d="M152 157C152 190 132 213 85 213C43 213 25 186 25 141C25 51 86 -10 221 -10C361 -10 425 62 425 168C425 402 158 322 158 447C158 501 175 521 225 521C272 521 289 507 289 463C289 431 309 407 356 407C398 407 416 436 416 479C416 569 357 630 225 630C87 630 25 558 25 452C25 218 292 299 292 174C292 119 273 99 221 99C170 99 152 113 152 157Z" glyph-name="s" horiz-adv-x="450" unicode="s" /><glyph d="M152 157C152 190 132 213 85 213C43 213 25 186 25 141C25 51 86 -10 221 -10C361 -10 425 62 425 168C425 402 158 322 158 447C158 501 175 521 225 521C272 521 289 507 289 463C289 431 309 407 356 407C398 407 416 436 416 479C416 569 357 630 225 630C87 630 25 558 25 452C25 218 292 299 292 174C292 119 273 99 221 99C170 99 152 113 152 157ZM100 727 167 663C185 645 207 640 225 640C244 640 265 645 283 663L350 727C378 753 388 775 369 804C350 834 325 838 292 822L225 789L158 822C125 838 100 834 81 804C62 775 72 753 100 727Z" glyph-name="scaron" horiz-adv-x="450" unicode="š" /><glyph d="M225 510C87 510 25 438 25 332C25 99 245 154 245 55C245 21 240 12 221 12C201 12 196 18 196 37C196 80 168 110 105 110C49 110 25 74 25 21C25 -69 86 -130 221 -130C361 -130 425 -58 425 48C425 281 175 227 175 326C175 359 179 368 195 368ZM221 110C361 110 425 182 425 288C425 521 205 467 205 566C205 599 209 608 225 608C241 608 245 602 245 583C245 541 273 510 336 510C392 510 416 548 416 599C416 689 357 750 225 750C87 750 25 678 25 572C25 339 275 394 275 295C275 261 270 252 251 252Z" glyph-name="section" horiz-adv-x="450" unicode="§" /><glyph d="M190 520C190 462 158 430 100 430C42 430 10 462 10 520V530C10 588 42 620 100 620C158 620 190 588 190 530ZM65 -20C79 -20 90 -17 90 -5C90 7 81 10 70 10C31 10 10 42 10 100C10 158 42 190 100 190C152 190 190 162 190 70C190 -39 139 -82 90 -82C52 -82 30 -67 30 -45C30 -29 42 -20 65 -20Z" glyph-name="semicolon" horiz-adv-x="200" unicode=";" /><glyph d="M250 430C95 430 25 505 25 643C25 682 47 710 98 710C150 710 172 682 172 643C172 577 191 552 250 552C309 552 328 577 328 643C328 682 350 710 402 710C453 710 475 682 475 643C475 505 405 430 250 430ZM475 630C475 323 273 293 273 67C273 28 251 0 200 0C149 0 127 29 127 61C127 355 319 340 341 620Z" glyph-name="seven" horiz-adv-x="500" unicode="7" /><glyph d="M327 220C327 301 304 320 249 320C192 320 172 301 172 220C172 132 192 112 249 112C304 112 327 130 327 220ZM99 310C99 381 152 430 270 430C411 430 474 345 474 220C474 83 405 -10 250 -10C95 -10 25 79 25 216V480C25 617 95 710 250 710C398 710 465 641 465 540C465 491 444 455 396 455C346 455 324 483 324 520C324 568 306 588 250 588C191 588 172 556 172 467V303Z" glyph-name="six" horiz-adv-x="500" unicode="6" /><glyph d="M5 -80C-4 -110 6 -130 35 -130H165C196 -130 206 -111 215 -80L447 700C456 730 446 750 417 750H287C256 750 246 731 237 700Z" glyph-name="slash" horiz-adv-x="450" unicode="/" /><glyph glyph-name="space" horiz-adv-x="175" unicode=" " /><glyph d="M25 150C-7 32 43 0 135 0H375C445 0 475 30 475 100C475 170 445 200 375 200H250C230 200 214 211 225 250C245 322 245 378 225 450C214 489 230 500 250 500C270 500 275 492 275 460C275 392 305 370 375 370C445 370 475 392 475 460C475 610 425 710 250 710C75 710 -21 604 25 460C59 353 55 258 25 150ZM267 250C302 250 317 265 317 300C317 335 302 350 267 350H24C-11 350 -26 335 -26 300C-26 265 -11 250 24 250Z" glyph-name="sterling" horiz-adv-x="500" unicode="£" /><glyph d="M49 649C49 626 44 620 17 620C-27 620 -60 600 -60 547C-60 494 -27 475 16 475C48 475 49 473 49 465V173C49 64 83 -10 204 -10C326 -10 365 71 365 200C365 247 347 272 317 272C291 272 276 257 276 230C276 149 266 129 226 129C190 129 181 144 181 203V465C181 473 182 475 186 475H287C338 475 360 497 360 547C360 598 338 620 287 620H186C182 620 181 622 181 641C181 706 164 730 115 730C66 730 49 708 49 649Z" glyph-name="t" horiz-adv-x="355" unicode="t" /><glyph d="M344 345C336 345 334 346 334 350C334 354 336 355 344 355C436 355 459 443 459 510C459 629 391 710 240 710C96 710 31 641 31 540C31 493 51 459 97 459C145 459 166 485 166 520C166 572 195 588 240 588C287 588 318 566 318 498C318 432 299 411 220 411C155 411 135 395 135 350C135 305 155 289 220 289C299 289 318 267 318 199C318 133 287 112 240 112C195 112 166 126 166 180C166 216 144 241 94 241C46 241 25 208 25 160C25 59 92 -10 240 -10C395 -10 465 66 465 185C465 254 445 345 344 345Z" glyph-name="three" horiz-adv-x="490" unicode="3" /><glyph d="M264 436C258 436 257 437 257 440C257 443 258 444 264 444C331 444 348 510 348 560C348 649 297 710 186 710C81 710 33 658 33 583C33 539 52 508 96 508C147 508 168 533 168 568C168 585 175 590 186 590C198 590 205 581 205 545C205 509 198 500 171 500C127 500 108 482 108 440C108 398 127 380 171 380C198 380 205 371 205 335C205 299 198 290 186 290C175 290 168 295 168 313C168 348 145 373 93 373C45 373 25 342 25 298C25 222 75 170 186 170C303 170 355 227 355 316C355 368 340 436 264 436Z" glyph-name="threesuperior" horiz-adv-x="380" unicode="³" /><glyph d="M190 694C224 694 228 640 295 640C355 640 383 685 383 767C383 811 371 830 344 830C321 830 313 819 313 801C313 784 304 776 288 776C252 776 250 830 183 830C123 830 95 785 95 703C95 659 107 640 134 640C157 640 165 651 165 669C165 686 174 694 190 694Z" glyph-name="tilde" horiz-adv-x="459" unicode="˜" /><glyph d="M183 147C179 147 178 149 178 157C178 280 470 254 470 510C470 629 400 710 245 710C97 710 30 641 30 540C30 494 51 459 99 459C149 459 171 485 171 520C171 572 200 588 245 588C292 588 323 570 323 500C323 326 30 396 30 141V73C30 22 52 0 103 0H397C448 0 470 22 470 73C470 125 448 147 397 147Z" glyph-name="two" horiz-adv-x="495" unicode="2" /><glyph d="M188 328C185 328 184 329 184 335C184 373 360 380 360 560C360 649 308 710 191 710C80 710 30 658 30 583C30 540 50 508 98 508C150 508 173 533 173 568C173 585 180 590 191 590C203 590 210 583 210 553C210 440 30 485 30 320V253C30 200 53 178 105 178H285C338 178 360 200 360 253C360 305 338 328 285 328Z" glyph-name="twosuperior" horiz-adv-x="385" unicode="²" /><glyph d="M25 200C25 74 65 -10 205 -10C285 -10 336 22 336 69C336 77 337 79 341 79C345 79 346 77 346 69C346 25 365 0 395 0C420 0 435 14 435 42V554C435 600 415 620 369 620C322 620 302 600 302 554V233C302 167 284 141 230 141C176 141 158 167 158 233V554C158 600 138 620 91 620C45 620 25 600 25 554Z" glyph-name="u" horiz-adv-x="460" unicode="u" /><glyph d="M105 743C77 717 67 695 86 666C105 636 130 632 163 648L230 681L297 648C330 632 355 636 374 666C393 695 383 717 355 743L288 807C270 825 249 830 230 830C212 830 190 825 172 807ZM25 200C25 74 65 -10 205 -10C285 -10 336 22 336 69C336 77 337 79 341 79C345 79 346 77 346 69C346 25 365 0 395 0C420 0 435 14 435 42V554C435 600 415 620 369 620C322 620 302 600 302 554V233C302 167 284 141 230 141C176 141 158 167 158 233V554C158 600 138 620 91 620C45 620 25 600 25 554Z" glyph-name="ucircumflex" horiz-adv-x="460" unicode="û" /><glyph d="M220 730C220 672 188 640 130 640C72 640 40 672 40 730V740C40 798 72 830 130 830C188 830 220 798 220 740ZM420 730C420 672 388 640 330 640C272 640 240 672 240 730V740C240 798 272 830 330 830C388 830 420 798 420 740ZM25 200C25 74 65 -10 205 -10C285 -10 336 22 336 69C336 77 337 79 341 79C345 79 346 77 346 69C346 25 365 0 395 0C420 0 435 14 435 42V554C435 600 415 620 369 620C322 620 302 600 302 554V233C302 167 284 141 230 141C176 141 158 167 158 233V554C158 600 138 620 91 620C45 620 25 600 25 554Z" glyph-name="udieresis" horiz-adv-x="460" unicode="ü" /><glyph d="M325 771C366 752 386 728 374 688C363 647 335 637 291 641L171 654C103 660 74 711 87 766C102 818 153 847 216 819ZM25 200C25 74 65 -10 205 -10C285 -10 336 22 336 69C336 77 337 79 341 79C345 79 346 77 346 69C346 25 365 0 395 0C420 0 435 14 435 42V554C435 600 415 620 369 620C322 620 302 600 302 554V233C302 167 284 141 230 141C176 141 158 167 158 233V554C158 600 138 620 91 620C45 620 25 600 25 554Z" glyph-name="ugrave" horiz-adv-x="460" unicode="ù" /><glyph d="M65 0C7 0 -25 -32 -25 -90V-100C-25 -158 7 -190 65 -190H165C223 -190 255 -158 255 -100V-90C255 -32 223 0 165 0Z" glyph-name="underscore" horiz-adv-x="230" unicode="_" /><glyph d="M192 266C191 260 187 257 183 257C180 257 176 260 174 266L113 559C105 607 88 623 47 618C10 613 -7 592 2 544L96 95C113 19 125 0 183 0C240 0 254 19 270 94L366 543C376 592 359 612 321 618C280 623 262 607 254 558Z" glyph-name="v" horiz-adv-x="369" unicode="v" /><glyph d="M263 276C264 282 268 285 272 285C275 285 279 282 280 276L316 79C326 17 339 -10 393 -10C444 -10 456 18 465 79L537 523C546 579 552 607 505 618C462 627 442 614 432 553L391 261C390 254 385 252 382 252C378 252 375 254 374 261L324 559C320 602 314 620 272 620C231 620 225 602 220 559L171 261C170 254 165 252 162 252C159 252 155 254 154 261L111 553C102 613 81 626 38 618C-9 607 -3 579 6 523L77 79C88 18 100 -10 151 -10C205 -10 217 18 227 79Z" glyph-name="w" horiz-adv-x="544" unicode="w" /><glyph d="M274 340 385 122C413 65 415 34 373 10C328 -14 297 4 269 62L218 157C209 175 211 177 204 177C196 177 198 175 189 157L139 62C110 4 79 -14 34 10C-8 34 -6 65 22 122L133 340L137 296L36 497C9 552 5 585 47 609C94 635 117 618 146 557L189 475C198 457 196 455 204 455C211 455 209 457 218 475L260 557C288 618 314 634 360 609C402 584 398 552 371 497L270 296Z" glyph-name="x" horiz-adv-x="407" unicode="x" /><glyph d="M346 -61C346 -105 365 -130 395 -130C420 -130 435 -116 435 -88V554C435 600 415 620 369 620C322 620 302 600 302 554V233C302 167 284 141 230 141C176 141 158 167 158 233V554C158 600 138 620 92 620C45 620 25 600 25 554V200C25 74 65 -10 205 -10C285 -10 336 22 336 68C336 76 337 78 341 78C345 78 346 76 346 68Z" glyph-name="y" horiz-adv-x="460" unicode="y" /><glyph d="M346 -61C346 -105 365 -130 395 -130C420 -130 435 -116 435 -88V554C435 600 415 620 369 620C322 620 302 600 302 554V233C302 167 284 141 230 141C176 141 158 167 158 233V554C158 600 138 620 92 620C45 620 25 600 25 554V200C25 74 65 -10 205 -10C285 -10 336 22 336 68C336 76 337 78 341 78C345 78 346 76 346 68ZM136 771 245 819C308 847 359 818 374 766C387 711 358 660 290 654L170 641C126 637 98 647 87 688C75 728 95 752 136 771Z" glyph-name="yacute" horiz-adv-x="460" unicode="ý" /><glyph d="M220 730C220 672 188 640 130 640C72 640 40 672 40 730V740C40 798 72 830 130 830C188 830 220 798 220 740ZM420 730C420 672 388 640 330 640C272 640 240 672 240 730V740C240 798 272 830 330 830C388 830 420 798 420 740ZM346 -61C346 -105 365 -130 395 -130C420 -130 435 -116 435 -88V554C435 600 415 620 369 620C322 620 302 600 302 554V233C302 167 284 141 230 141C176 141 158 167 158 233V554C158 600 138 620 92 620C45 620 25 600 25 554V200C25 74 65 -10 205 -10C285 -10 336 22 336 68C336 76 337 78 341 78C345 78 346 76 346 68Z" glyph-name="ydieresis" horiz-adv-x="460" unicode="ÿ" /><glyph d="M350 300H150V100C150 30 180 0 250 0C320 0 350 30 350 100ZM475 600C475 670 445 700 375 700C305 700 275 670 275 600V450C275 410 270 400 250 400C230 400 225 410 225 450V600C225 670 195 700 125 700C55 700 25 670 25 600V470C25 321 75 220 250 220C425 220 475 321 475 470ZM361 94C396 94 411 109 411 144C411 179 396 194 361 194H130C95 194 80 179 80 144C80 109 95 94 130 94ZM425 221C460 221 475 236 475 271C475 306 460 321 425 321H75C40 321 25 306 25 271C25 236 40 221 75 221Z" glyph-name="yen" horiz-adv-x="500" unicode="¥" /><glyph d="M254 568 30 100 155 52 378 520ZM311 487C362 487 384 507 384 554C384 600 362 620 311 620H98C47 620 25 600 25 554C25 507 47 487 98 487ZM311 0C362 0 384 20 384 66C384 113 362 133 311 133H98C47 133 25 113 25 66C25 20 47 0 98 0Z" glyph-name="z" horiz-adv-x="409" unicode="z" /><glyph d="M475 460C475 610 425 710 250 710C75 710 25 610 25 460V240C25 91 75 -10 250 -10C425 -10 475 91 475 240ZM328 237C328 169 309 143 250 143C191 143 172 169 172 237V463C172 531 191 557 250 557C309 557 328 531 328 463Z" glyph-name="zero" horiz-adv-x="500" unicode="0" /></font>
</defs>
</svg>
