<svg xmlns="http://www.w3.org/2000/svg" width="1171.499" height="412.312" viewBox="0 0 1171.499 412.312">
  <g id="Group_40893" data-name="Group 40893" transform="translate(-134.249 -1536.574)">
    <rect id="Rectangle_548" data-name="Rectangle 548" width="781.924" height="14.152" transform="translate(329.037 1738.609)" fill="#e6e6e6"/>
    <line id="Line_110" data-name="Line 110" y2="46.066" transform="translate(241.804 1772.882)" fill="none" stroke="#1a1a1a" stroke-linecap="round" stroke-linejoin="round" stroke-width="1" stroke-dasharray="0 4"/>
    <rect id="Rectangle_549" data-name="Rectangle 549" width="214.071" height="52.038" rx="7.863" transform="translate(134.999 1720.845)" fill="#fff" stroke="#d8d8d8" stroke-miterlimit="10" stroke-width="1.5"/>
    <text id="A_GOOD_IDEA" data-name="A GOOD IDEA" transform="translate(176.386 1750.219)" font-size="13" font-family="Poppins-SemiBold, Poppins" font-weight="600" letter-spacing="0.2em"><tspan x="0" y="0">A GOOD IDEA</tspan></text>
    <g id="cfa_journeyimg" transform="translate(140.877 1537.324)">
      <g id="Group_40892" data-name="Group 40892">
        <path id="Path_43316" data-name="Path 43316" d="M194.036,427.626h81.608l16.015,22.863,16.015-22.863h81.608V304.149H194.036Z" transform="translate(-194.036 -266.968)" fill="#dd1928" style="mix-blend-mode: multiply;isolation: isolate"/>
        <circle id="Ellipse_381" data-name="Ellipse 381" cx="55.81" cy="55.81" r="55.81" transform="translate(45.297 272.646)" fill="#1a1a1a"/>
        <g id="Group_2972" data-name="Group 2972" transform="translate(12.123)">
          <path id="Path_11323" data-name="Path 11323" d="M60.036,191.149h0Z" transform="translate(-50.036 -153.687)" fill="#dd1928" style="mix-blend-mode: multiply;isolation: isolate"/>
          <text id="_01." data-name="01." transform="translate(56.852 45)" stroke="#000" stroke-width="0.75" font-size="46" font-family="Montserrat-Bold, Montserrat" font-weight="700" letter-spacing="0.05em" fill="none"><tspan x="-32.867" y="0">01.</tspan></text>
          <g id="Group_3031" data-name="Group 3031" transform="translate(0 61.676)">
            <text id="A_fresh_redefined_business_idea_to_scale_up_the_business_structure_as_it_grows." data-name="A fresh, redefined business idea to scale up the business structure as it grows." transform="translate(-0.001 0)" fill="#fff" font-size="12" font-family="Poppins-Medium, Poppins" font-weight="500"><tspan x="0" y="13">A fresh, redefined business </tspan><tspan x="0" y="29">idea to scale up the </tspan><tspan x="0" y="45">business structure as it </tspan><tspan x="0" y="61">grows.</tspan></text>
          </g>
        </g>
        <g id="Group_2977" data-name="Group 2977" transform="translate(233.104 46.362)">
          <line id="Line_111" data-name="Line 111" y2="46.066" transform="translate(107.576 105.685)" fill="none" stroke="#1a1a1a" stroke-linecap="round" stroke-linejoin="round" stroke-width="1" stroke-dasharray="0 4"/>
          <rect id="Rectangle_550" data-name="Rectangle 550" width="214.071" height="52.038" rx="7.863" transform="translate(0 137.158)" fill="#fff" stroke="#d8d8d8" stroke-miterlimit="10" stroke-width="1.5"/>
          <circle id="Ellipse_382" data-name="Ellipse 382" cx="55.81" cy="55.81" r="55.81" transform="translate(50.796)" fill="#1a1a1a"/>
          <text id="START_MOVING" data-name="START MOVING" transform="translate(34.603 166.075)" font-size="13" font-family="Poppins-SemiBold, Poppins" font-weight="600" letter-spacing="0.2em"><tspan x="0" y="0">START MOVING</tspan></text>
          <g id="Group_2975" data-name="Group 2975" transform="translate(72.811 18.402)">
            <g id="Group_2974" data-name="Group 2974">
              <path id="Path_11324" data-name="Path 11324" d="M244.644,220.51A10.185,10.185,0,1,0,254.829,230.7,10.2,10.2,0,0,0,244.644,220.51Zm0,16.3a6.111,6.111,0,1,1,6.11-6.11A6.118,6.118,0,0,1,244.644,236.807Z" transform="translate(-209.879 -195.871)" fill="#fff"/>
              <path id="Path_11325" data-name="Path 11325" d="M241.469,230.4l-2.882-2.88,2.882-2.88,2.88,2.88Z" transform="translate(-206.703 -192.694)" fill="#fff"/>
              <path id="Path_11326" data-name="Path 11326" d="M269.939,254.568a58.887,58.887,0,0,0-.573-12.226A63.831,63.831,0,0,0,256.917,213.5l-5.189-6.919-5.189,6.919a63.815,63.815,0,0,0-12.451,28.841,58.892,58.892,0,0,0-.571,12.226,19.9,19.9,0,0,0-8.27,16.155v5.461l4.23-3.1a18.206,18.206,0,0,1,7.014-2.769c.771,2.4,1.341,3.777,2.114,5.875,1.344-.9,4.575-4.888,11.085-5.668v5.649h4.074v-5.649c6.531.782,9.755,4.778,11.085,5.668.778-2.112,1.345-3.471,2.116-5.875a18.228,18.228,0,0,1,7.014,2.769l4.23,3.1v-5.461A19.918,19.918,0,0,0,269.939,254.568Zm-40.446,13.8a15.7,15.7,0,0,1,4.506-8.9,63.438,63.438,0,0,0,1.359,6.9A22.319,22.319,0,0,0,229.493,268.372Zm33.441,1.169a21.062,21.062,0,0,0-9.169-3.115V255.8H249.69v10.623a21.047,21.047,0,0,0-9.167,3.115c-6.079-18.526-2.827-37.462,9.275-53.6l1.93-2.572,1.928,2.572C265.758,232.079,269.01,251.015,262.933,269.541Zm5.164-3.161a63.451,63.451,0,0,0,1.36-6.9,15.7,15.7,0,0,1,4.5,8.9A22.319,22.319,0,0,0,268.1,266.38Z" transform="translate(-216.962 -206.582)" fill="#fff"/>
              <path id="Path_11327" data-name="Path 11327" d="M220.564,215.9h12.359v4.072H220.564Z" transform="translate(-220.564 -199.412)" fill="#fff"/>
              <path id="Path_11328" data-name="Path 11328" d="M252.882,215.9h12.357v4.072H252.882Z" transform="translate(-195.71 -199.412)" fill="#fff"/>
              <path id="Path_11329" data-name="Path 11329" d="M223.711,207.74l11.076,5.164-1.721,3.694-11.078-5.166Z" transform="translate(-219.469 -205.691)" fill="#fff"/>
              <path id="Path_11330" data-name="Path 11330" d="M262.286,230.224l-11.078-5.166,1.723-3.692,11.076,5.166Z" transform="translate(-196.997 -195.212)" fill="#fff"/>
              <path id="Path_11331" data-name="Path 11331" d="M221.988,226.53l11.076-5.164,1.721,3.692-11.076,5.164Z" transform="translate(-219.469 -195.212)" fill="#fff"/>
              <path id="Path_11332" data-name="Path 11332" d="M262.285,207.739l1.721,3.692L252.93,216.6l-1.721-3.692Z" transform="translate(-196.996 -205.692)" fill="#fff"/>
            </g>
          </g>
          <g id="Group_2976" data-name="Group 2976" transform="translate(13.691 191.004)">
            <path id="Path_11333" data-name="Path 11333" d="M194.036,327.012h81.608l16.015-22.863,16.015,22.863h81.608V450.489H194.036Z" transform="translate(-194.036 -304.149)" fill="#dd1928" style="mix-blend-mode: multiply;isolation: isolate"/>
            <text id="_02." data-name="02." transform="translate(39.661 161.446)" stroke="#000" stroke-width="0.75" font-size="47" font-family="Montserrat-Bold, Montserrat" font-weight="700" letter-spacing="0.05em" fill="none"><tspan x="-38.47" y="0">02.</tspan></text>
          </g>
          <g id="Group_40889" data-name="Group 40889" transform="translate(484.691 189.195)">
            <path id="Path_11333-2" data-name="Path 11333" d="M194.036,327.012h81.608l16.015-22.863,16.015,22.863h81.608V450.489H194.036Z" transform="translate(-194.036 -304.149)" fill="#dd1928" style="mix-blend-mode: multiply;isolation: isolate"/>
          </g>
        </g>
        <g id="Group_2981" data-name="Group 2981" transform="translate(711.067 35.648)">
          <line id="Line_112" data-name="Line 112" y2="46.066" transform="translate(106.025 116.399)" fill="none" stroke="#1a1a1a" stroke-linecap="round" stroke-linejoin="round" stroke-width="1" stroke-dasharray="0 4"/>
          <rect id="Rectangle_551" data-name="Rectangle 551" width="214.071" height="52.038" rx="7.863" transform="translate(0 147.872)" fill="#fff" stroke="#d8d8d8" stroke-miterlimit="10" stroke-width="1.5"/>
          <circle id="Ellipse_383" data-name="Ellipse 383" cx="55.81" cy="55.81" r="55.81" transform="matrix(0.973, -0.233, 0.233, 0.973, 39.082, 25.996)" fill="#1a1a1a"/>
          <text id="TAKE_TIME" data-name="TAKE TIME" transform="translate(57.082 177.247)" font-size="13" font-family="Poppins-SemiBold, Poppins" font-weight="600" letter-spacing="0.2em"><tspan x="0" y="0">TAKE TIME</tspan></text>
          <g id="Group_2979" data-name="Group 2979" transform="translate(72.709 26.602)">
            <g id="Group_2978" data-name="Group 2978">
              <path id="Path_11334" data-name="Path 11334" d="M547.86,223.621l3.545-3.545,3.2,3.195,3.195-3.195-9.585-9.585-3.193,3.195,3.193,3.195-3.844,3.844a33.5,33.5,0,0,0-13.017-5.7v-5.343h4.518v-4.518H513.277v4.518H517.8v5.343a33.508,33.508,0,0,0-13.019,5.7l-3.844-3.844,3.195-3.195-3.195-3.195-9.585,9.585,3.195,3.195,3.195-3.195,3.545,3.545a33.885,33.885,0,1,0,46.578,0Zm-25.547-13.942h4.518v4.745q-1.125-.074-2.259-.076t-2.259.076Zm2.259,68.072a29.443,29.443,0,1,1,29.366-29.519A29.476,29.476,0,0,1,524.572,277.751Z" transform="translate(-490.686 -205.161)" fill="#fff"/>
              <path id="Path_11335" data-name="Path 11335" d="M515.046,233.922v-18.46h-4.518v18.46a6.777,6.777,0,1,0,4.518,0Zm-2.259,8.647a2.259,2.259,0,1,1,2.259-2.259A2.262,2.262,0,0,1,512.787,242.569Z" transform="translate(-478.901 -197.239)" fill="#fff"/>
              <path id="Path_11336" data-name="Path 11336" d="M508.564,241h4.518v4.518h-4.518Z" transform="translate(-476.937 -177.598)" fill="#fff"/>
              <path id="Path_11337" data-name="Path 11337" d="M495.794,228.231h4.518v4.518h-4.518Z" transform="translate(-486.758 -187.419)" fill="#fff"/>
              <path id="Path_11338" data-name="Path 11338" d="M521.333,228.231h4.518v4.518h-4.518Z" transform="translate(-467.117 -187.419)" fill="#fff"/>
              <path id="Path_11339" data-name="Path 11339" d="M502.2,243.122,499,239.927l3.195-3.195,3.195,3.195Z" transform="translate(-484.288 -180.881)" fill="#fff"/>
              <path id="Path_11340" data-name="Path 11340" d="M520.258,225.063l-3.193-3.195,3.193-3.195,3.195,3.195Z" transform="translate(-470.399 -194.769)" fill="#fff"/>
              <path id="Path_11341" data-name="Path 11341" d="M520.259,243.121l-3.195-3.195,3.195-3.193,3.2,3.193Z" transform="translate(-470.4 -180.88)" fill="#fff"/>
              <path id="Path_11342" data-name="Path 11342" d="M502.2,225.063,499,221.868l3.195-3.195,3.195,3.195Z" transform="translate(-484.288 -194.769)" fill="#fff"/>
            </g>
          </g>
          <g id="Group_2980" data-name="Group 2980" transform="translate(9.709 315.164)">
            <text id="_04." data-name="04." transform="translate(41 45)" stroke="#000" stroke-width="0.75" font-size="47" font-family="Montserrat-Bold, Montserrat" font-weight="700" letter-spacing="0.05em" fill="none"><tspan x="-41.125" y="0">04.</tspan></text>
          </g>
        </g>
        <g id="Group_2984" data-name="Group 2984" transform="translate(472.086)">
          <line id="Line_113" data-name="Line 113" y2="46.066" transform="translate(105.845 218.608)" fill="none" stroke="#1a1a1a" stroke-linecap="round" stroke-linejoin="round" stroke-width="1" stroke-dasharray="0 4"/>
          <rect id="Rectangle_552" data-name="Rectangle 552" width="214.071" height="52.038" rx="7.863" transform="translate(0 183.521)" fill="#fff" stroke="#d8d8d8" stroke-miterlimit="10" stroke-width="1.5"/>
          <circle id="Ellipse_384" data-name="Ellipse 384" cx="55.81" cy="55.81" r="55.81" transform="translate(42.077 271.712) rotate(-8.45)" fill="#1a1a1a"/>
          <text id="INCREASE" transform="translate(60.193 212.966)" font-size="13" font-family="Poppins-SemiBold, Poppins" font-weight="600" letter-spacing="0.2em"><tspan x="0" y="0">INCREASE</tspan></text>
          <g id="Group_2982" data-name="Group 2982" transform="translate(71.476 281.624)">
            <path id="Path_11344" data-name="Path 11344" d="M423.638,393.879h-4.026V364.371l4.026,4.028V345.412H400.652l7.221,7.221-6.959,6.959L385.327,348l-26.4,18.766v-37.6H354.9v68.739h68.739Zm-40.411-29.545v29.545H371.144V372.923Zm4.028.191,12.217,9.088v20.266H387.255Zm16.245,9.569,12.083-12.083v31.868H403.5ZM385.274,352.98,401.3,364.9l12.268-12.267-3.195-3.193h9.236v9.234l-3.195-3.193-14.747,14.747-16.461-12.245-26.281,18.683v-4.957Zm-26.347,28.629,8.189-5.822v18.092h-8.189Z" transform="translate(-354.899 -329.167)" fill="#fff"/>
          </g>
          <g id="Group_2983" data-name="Group 2983" transform="translate(34.459)">
            <text id="_03." data-name="03." transform="translate(38 45)" stroke="#000" stroke-width="0.75" font-size="47" font-family="Montserrat-Bold, Montserrat" font-weight="700" letter-spacing="0.05em" fill="none"><tspan x="-38.14" y="0">03.</tspan></text>
          </g>
        </g>
        <g id="Group_2988" data-name="Group 2988" transform="translate(950.05)">
          <line id="Line_114" data-name="Line 114" y2="46.066" transform="translate(107.035 226.082)" fill="none" stroke="#1a1a1a" stroke-linecap="round" stroke-linejoin="round" stroke-width="1" stroke-dasharray="0 4"/>
          <rect id="Rectangle_553" data-name="Rectangle 553" width="214.071" height="52.038" rx="7.863" transform="translate(0 183.521)" fill="#fff" stroke="#d8d8d8" stroke-miterlimit="10" stroke-width="1.5"/>
          <circle id="Ellipse_385" data-name="Ellipse 385" cx="55.81" cy="55.81" r="55.81" transform="translate(25.068 321.712) rotate(-45)" fill="#1a1a1a"/>
          <text id="EARNINGS" transform="translate(57.947 212.895)" font-size="13" font-family="Poppins-SemiBold, Poppins" font-weight="600" letter-spacing="0.2em"><tspan x="0" y="0">EARNINGS</tspan></text>
          <g id="Group_2986" data-name="Group 2986" transform="translate(66.926 283.457)">
            <g id="Group_2985" data-name="Group 2985">
              <path id="Path_11346" data-name="Path 11346" d="M653.807,349.581a6.23,6.23,0,0,0-1.311-10.038l4.52-9.341H633.747l4.52,9.341a6.23,6.23,0,0,0-1.309,10.039c-11.228,8.594-14.451,22.2-14.451,36.34v11.1h37.432v4.159h33.55V359.592h-31A32.9,32.9,0,0,0,653.807,349.581Zm-12.583-2.466a2.08,2.08,0,1,1,0-4.159h8.318a2.08,2.08,0,0,1,0,4.159Zm9.16-12.753-2.146,4.435h-5.711l-2.148-4.435Zm-23.718,58.5v-6.942c0-16.939,4.955-28.282,15.143-34.649h7.147A28.624,28.624,0,0,1,659.939,363.7v29.165Zm62.664,4.159H664.1v-8.318H689.33ZM664.1,384.547v-8.318H689.33v8.318Zm25.232-20.8v8.318H664.1v-8.318Z" transform="translate(-622.507 -330.203)" fill="#fff"/>
              <path id="Path_11347" data-name="Path 11347" d="M638.15,355.406a2.081,2.081,0,0,1,2.079,2.079h4.159a6.246,6.246,0,0,0-4.159-5.88v-2.438H636.07V351.6a6.238,6.238,0,0,0,2.08,12.12,2.079,2.079,0,1,1-2.08,2.079h-4.159a6.248,6.248,0,0,0,4.159,5.88v2.438h4.159v-2.438a6.237,6.237,0,0,0-2.079-12.118,2.08,2.08,0,1,1,0-4.159Z" transform="translate(-615.275 -315.618)" fill="#fff"/>
            </g>
          </g>
          <g id="Group_2987" data-name="Group 2987" transform="translate(35.91)">
            <text id="_05." data-name="05." transform="translate(38 45)" stroke="#000" stroke-width="0.75" font-size="47" font-family="Montserrat-Bold, Montserrat" font-weight="700" letter-spacing="0.05em" fill="none"><tspan x="-38.446" y="0">05.</tspan></text>
          </g>
        </g>
        <g id="Group_40888" data-name="Group 40888" transform="translate(260.122 273.676)">
          <text id="Processing_towards_the_design_development_stage_by_measuring_them_perfectly_to_produce_desired_software._" data-name="Processing towards the design &amp; development stage by measuring them perfectly to produce desired software.
" transform="translate(-0.001 0)" fill="#fff" font-size="12" font-family="Poppins-Medium, Poppins" font-weight="500"><tspan x="0" y="13">Processing towards the </tspan><tspan x="0" y="29">design &amp; development </tspan><tspan x="0" y="45">stage by measuring them </tspan><tspan x="0" y="61">perfectly to produce </tspan><tspan x="0" y="77">desired software.</tspan></text>
        </g>
        <g id="Group_40890" data-name="Group 40890" transform="translate(732.122 273.676)">
          <text id="As_businesses_take_time_to_capture_the_market_invest_your_valuable_growth_phase_to_create_more_digitalisation._" data-name="As businesses take time to capture the market, invest your valuable growth phase to create more digitalisation.
" transform="translate(0 0)" fill="#fff" font-size="12" font-family="Poppins-Medium, Poppins" font-weight="500"><tspan x="0" y="13">As businesses take time </tspan><tspan x="0" y="29">to capture the market, </tspan><tspan x="0" y="45">invest your valuable </tspan><tspan x="0" y="61">growth phase to create </tspan><tspan x="0" y="77">more digitalisation.</tspan></text>
        </g>
        <path id="Path_43317" data-name="Path 43317" d="M194.036,427.626h81.608l16.015,22.863,16.015-22.863h81.608V304.149H194.036Z" transform="translate(288.275 -266.968)" fill="#dd1928" style="mix-blend-mode: multiply;isolation: isolate"/>
        <path id="Path_43318" data-name="Path 43318" d="M194.036,427.626h81.608l16.015,22.863,16.015-22.863h81.608V304.149H194.036Z" transform="translate(765.427 -266.968)" fill="#dd1928" style="mix-blend-mode: multiply;isolation: isolate"/>
        <g id="Group_3035" data-name="Group 3035" transform="translate(492.716 55.066)">
          <text id="Implementing_new_softwares_to_business_models_and_witnessing_increased_engagement_with_steady_growth._" data-name="Implementing new
softwares to business
models and witnessing increased engagement with steady growth.
" transform="translate(0 0)" fill="#fff" font-size="12" font-family="Poppins-Medium, Poppins" font-weight="500"><tspan x="0" y="13">Implementing new</tspan><tspan x="0" y="29">softwares to business</tspan><tspan x="0" y="45">models and witnessing </tspan><tspan x="0" y="61">increased engagement with </tspan><tspan x="0" y="77">steady growth.</tspan></text>
        </g>
        <g id="Group_40891" data-name="Group 40891" transform="translate(975.895 55.066)">
          <text id="The_business_model_finally_provides_new_revenue_and_value-producing_opportunities_to_meet_profitability._" data-name="The business model finally provides new revenue and value-producing opportunities to meet profitability.
" transform="translate(0 0)" fill="#fff" font-size="12" font-family="Poppins-Medium, Poppins" font-weight="500"><tspan x="0" y="13">The business model finally </tspan><tspan x="0" y="29">provides new revenue and </tspan><tspan x="0" y="45">value-producing </tspan><tspan x="0" y="61">opportunities to meet </tspan><tspan x="0" y="77">profitability.</tspan></text>
        </g>
      </g>
      <g id="Group_2971" data-name="Group 2971" transform="translate(68.454 294.445)">
        <g id="Group_2970" data-name="Group 2970">
          <path id="Path_11315" data-name="Path 11315" d="M128.924,342.435l-8.085,4.042-1.808-3.616,8.085-4.042Z" transform="translate(-61.188 -334.564)" fill="#fff"/>
          <path id="Path_11316" data-name="Path 11316" d="M127.116,362.473l-8.085-4.042,1.808-3.616,8.085,4.042Z" transform="translate(-61.188 -322.262)" fill="#fff"/>
          <path id="Path_11317" data-name="Path 11317" d="M120.684,347.839H128.9v4.042h-8.219Z" transform="translate(-59.917 -327.628)" fill="#fff"/>
          <path id="Path_11318" data-name="Path 11318" d="M88.85,338.82l8.083,4.042-1.808,3.614-8.083-4.042Z" transform="translate(-85.79 -334.564)" fill="#fff"/>
          <path id="Path_11319" data-name="Path 11319" d="M88.849,362.472l-1.808-3.616,8.085-4.042,1.808,3.616Z" transform="translate(-85.79 -322.263)" fill="#fff"/>
          <path id="Path_11320" data-name="Path 11320" d="M86.334,347.839h8.219v4.042H86.334Z" transform="translate(-86.334 -327.628)" fill="#fff"/>
          <path id="Path_11321" data-name="Path 11321" d="M102.4,373.125H114.53v4.042H102.4Z" transform="translate(-73.974 -308.181)" fill="#fff"/>
          <path id="Path_11322" data-name="Path 11322" d="M137.729,358.646a22.232,22.232,0,1,0-32.337,19.775v6.5H101.35v4.042h4.042v8.353H125.6v-8.353h4.042V384.92H125.6v-6.5A22.242,22.242,0,0,0,137.729,358.646Zm-16.169,34.628H109.434v-4.311h12.125Zm-8.083-30.585a2.02,2.02,0,1,1,2.02,2.022A2.022,2.022,0,0,1,113.476,362.688Zm4.041,22.232V368.4a6.063,6.063,0,1,0-4.041,0V384.92h-4.042v-9.1l-1.21-.531a18.189,18.189,0,1,1,14.545,0l-1.21.531v9.1Z" transform="translate(-81.004 -336.414)" fill="#fff"/>
        </g>
      </g>
    </g>
  </g>
</svg>
