<svg xmlns="http://www.w3.org/2000/svg" width="37.456" height="26.339" viewBox="0 0 37.456 26.339">
  <g id="mission" transform="translate(-116.393 -268.369)">
    <g id="Group_2853" data-name="Group 2853" transform="translate(116.393 268.369)">
      <path id="Subtraction_11" data-name="Subtraction 11" d="M4.375,8.782A4.391,4.391,0,1,1,4.411,0h.013a4.391,4.391,0,0,1-.049,8.782Zm0-5.855a1.462,1.462,0,0,0,.008,2.924H4.4A1.454,1.454,0,0,0,5.85,4.376,1.466,1.466,0,0,0,4.389,2.927Z" transform="translate(14.339 11.705)" fill="#333233" stroke="rgba(0,0,0,0)" stroke-miterlimit="10" stroke-width="1"/>
      <g id="Group_2852" data-name="Group 2852" transform="translate(0)">
        <path id="Path_11184" data-name="Path 11184" d="M114.75,269.655a2.464,2.464,0,0,1,.91-1.1,35.97,35.97,0,0,1,9.417-5.284,24.25,24.25,0,0,1,18.531.682,38.034,38.034,0,0,1,7.979,4.823,2.251,2.251,0,0,1,.619.876v.658c-.45.888-.914,1.191-1.671,1.109a1.877,1.877,0,0,1-.932-.468,35.05,35.05,0,0,0-6.7-4.118,22.382,22.382,0,0,0-9.605-2.154,22.854,22.854,0,0,0-10.095,2.564,36.058,36.058,0,0,0-5.818,3.686,1.955,1.955,0,0,1-.962.49c-.76.085-1.225-.22-1.671-1.107Z" transform="translate(-114.75 -261.754)" fill="#dd1928"/>
        <path id="Path_11185" data-name="Path 11185" d="M158.943,328.694a31.781,31.781,0,0,0-6.8-4.579,22.16,22.16,0,0,0-7.717-2.312,19.116,19.116,0,0,0-8.538,1.185,29.927,29.927,0,0,0-9.465,5.749,4.328,4.328,0,0,0,.149,6.591,32.5,32.5,0,0,0,6.4,4.333,21.494,21.494,0,0,0,9.58,2.547,19.459,19.459,0,0,0,5.442-.776,28.8,28.8,0,0,0,11.043-6.3A4.3,4.3,0,0,0,158.943,328.694Zm-1.924,4.332a26.3,26.3,0,0,1-10.237,5.7,12.392,12.392,0,0,1-2.908.478,8.594,8.594,0,0,1-2.366-.391A24.946,24.946,0,0,1,133.4,334.8q-1.082-.781-2.1-1.647a1.563,1.563,0,0,1,0-2.375,29.745,29.745,0,0,1,6.445-4.26,19.3,19.3,0,0,1,5.475-1.767c.218-.033.434,0,.65-.03a16,16,0,0,1,4.953,1.139,28.036,28.036,0,0,1,8.139,4.991A1.4,1.4,0,0,1,157.019,333.026Z" transform="translate(-123.976 -315.868)" fill="#dd1928"/>
        <path id="Path_11186" data-name="Path 11186" d="M170.971,351.8c-.507.1-1.015.185-1.52.293a21.007,21.007,0,0,0-5.8,2.224,28.617,28.617,0,0,0-3.428,2.208c-.629.475-1.249.963-1.846,1.477a1.455,1.455,0,0,0,.023,2.115,32.674,32.674,0,0,0,4.145,3.02,23.341,23.341,0,0,0,5.354,2.457,13.848,13.848,0,0,0,2.908.625.55.55,0,0,1,.16.07,10.892,10.892,0,0,1-2.947-.041,22.482,22.482,0,0,1-10.185-4.289c-.8-.56-1.563-1.164-2.3-1.8a1.423,1.423,0,0,1-.026-2.208,28.208,28.208,0,0,1,8.208-5.032,16.792,16.792,0,0,1,6.858-1.177C170.708,351.75,170.839,351.781,170.971,351.8Z" transform="translate(-151.072 -342.951)" fill="#e4e6e8"/>
      </g>
    </g>
  </g>
</svg>
