<svg xmlns="http://www.w3.org/2000/svg" width="22.725" height="22.765" viewBox="0 0 22.725 22.765">
  <g id="Group_2862" data-name="Group 2862" transform="translate(-24.75 18.009)">
    <path id="Path_11200" data-name="Path 11200" d="M24.75-6.779a1.736,1.736,0,0,0,.127-.459A3.3,3.3,0,0,1,28-9.621a18.407,18.407,0,0,0,1.862-.035,5.034,5.034,0,0,0,3.081-1.463,10.744,10.744,0,0,0,2.105-2.809,22.5,22.5,0,0,0,.839-2.166,2.747,2.747,0,0,1,1.967-1.843,2.826,2.826,0,0,1,3.365,2.352,6.056,6.056,0,0,1-.345,2.527,21.385,21.385,0,0,1-.967,2.4.482.482,0,0,0-.08.239h1.062c1.11,0,2.219,0,3.329,0a2.566,2.566,0,0,1,2.588,2.7,2.361,2.361,0,0,1-.28,1.017c-.039.074-.078.125.015.2a2.47,2.47,0,0,1,.9,1.6c0,.011.02.019.03.028v.355a.339.339,0,0,0,0,.266v.089a2.16,2.16,0,0,1-.491,1.209c-.1.123-.062.223.008.341a2.538,2.538,0,0,1,.365,1.826,2.57,2.57,0,0,1-1.209,1.8.229.229,0,0,0-.122.318,2.64,2.64,0,0,1-1.468,3.239,1.423,1.423,0,0,1-.581.119c-.077.011-.158-.024-.231.023l-6.928.035c-.165.014-2.273-.014-2.438-.035a.784.784,0,0,1-.435-.286.892.892,0,0,1-.155-.954.824.824,0,0,1,.8-.533c.443-.013.888,0,1.331,0q3.795,0,7.59,0a.781.781,0,0,0,.806-.676.835.835,0,0,0-.6-.9.974.974,0,0,0-.241-.024c-.451,0-.9,0-1.354,0a.877.877,0,0,1-.947-.894.874.874,0,0,1,.938-.88c.88,0,1.761,0,2.641,0a.768.768,0,0,0,.766-1.026.764.764,0,0,0-.789-.525c-.88,0-1.761,0-2.641,0a.878.878,0,0,1-.872-1.163A.869.869,0,0,1,42.1-3.76c.932,0,1.864,0,2.8,0A.768.768,0,0,0,45.651-4.8a.769.769,0,0,0-.795-.517c-.925,0-1.849,0-2.774,0a.879.879,0,0,1-.861-1.171.874.874,0,0,1,.888-.6c.71,0,1.42,0,2.13,0a.769.769,0,0,0,.744-1.042.775.775,0,0,0-.8-.509q-1.6,0-3.2,0c-.843,0-1.687,0-2.53,0a.89.89,0,0,1-.843-1.344,34.7,34.7,0,0,0,1.448-3.231,6.46,6.46,0,0,0,.4-1.607,1.526,1.526,0,0,0-.067-.7.35.35,0,0,1-.108-.138.931.931,0,0,0-.919-.5.87.87,0,0,0-.738.653c-.151.377-.259.77-.4,1.151a12.223,12.223,0,0,1-2.376,3.891,8.229,8.229,0,0,1-1.973,1.7,7.174,7.174,0,0,1-2.226.85c-.283.056-.572.039-.857.073-.577,0-1.153,0-1.73.007A1.505,1.505,0,0,0,26.527-6.3c0,1.324,0,2.647,0,3.971a.841.841,0,0,1-.514.834.893.893,0,0,1-.957-.129c-.153-.116-.195-.3-.3-.449v-.089a.277.277,0,0,0,.022-.172q0-1.958,0-3.917a.277.277,0,0,0-.022-.172Z" fill="#df2533"/>
    <path id="Path_11201" data-name="Path 11201" d="M24.75,225.416a1.43,1.43,0,0,1,.359-.493.88.88,0,0,1,1.187.115c.6.6,1.2,1.2,1.785,1.822a1.281,1.281,0,0,0,2-.066c.89-1.056,1.836-2.065,2.757-3.094q1.279-1.428,2.556-2.859a.906.906,0,0,1,1.319-.121.894.894,0,0,1,.026,1.291q-2,2.229-4,4.455-.718.8-1.432,1.6a2.931,2.931,0,0,1-1.8.994,5.771,5.771,0,0,1-.894.037,2.923,2.923,0,0,1-1.831-.971c-.54-.566-1.1-1.113-1.659-1.661a1.147,1.147,0,0,1-.372-.608Z" transform="translate(0 -224.383)" fill="#fff"/>
    <path id="Path_11204" data-name="Path 11204" d="M407.926,210.266a.2.2,0,0,1,0-.266Z" transform="translate(-360.451 -214.515)" fill="#2644cc"/>
    <path id="Path_11205" data-name="Path 11205" d="M345.977,365.213a.057.057,0,0,0-.005.039h-.222A.263.263,0,0,1,345.977,365.213Z" transform="translate(-302.003 -360.536)" fill="#687ddb"/>
    <path id="Path_11206" data-name="Path 11206" d="M110.057,20.355a9.271,9.271,0,0,0,1.623-.327,7.544,7.544,0,0,0,3.289-2.206,12.771,12.771,0,0,0,2.818-5.014,1.434,1.434,0,0,1,.222-.455.787.787,0,0,1,.821-.365.925.925,0,0,1,.825.7,1.536,1.536,0,0,0-.366.645,21.033,21.033,0,0,1-.825,2.143,9.966,9.966,0,0,1-1.286,1.974,13.991,13.991,0,0,1-.976,1.111,6.049,6.049,0,0,1-3.32,1.717,5.7,5.7,0,0,1-1.031.089C111.253,20.356,110.655,20.357,110.057,20.355Z" transform="translate(-80.259 -28.205)" fill="#d1d1d1"/>
  </g>
</svg>
