<svg xmlns="http://www.w3.org/2000/svg" width="36.437" height="36.424" viewBox="0 0 36.437 36.424">
  <g id="vision" transform="translate(-791.968 -3536.116)">
    <g id="Group_2855" data-name="Group 2855" transform="translate(792.469 3536.116)">
      <path id="Union_12" data-name="Union 12" d="M16.222,28.025a12.113,12.113,0,0,0,8.525-4,12.327,12.327,0,0,0,2.668-12.884,2.169,2.169,0,0,1-.208-1.016,1.419,1.419,0,0,1,1.221-1.22,1.4,1.4,0,0,1,1.491.917,14.781,14.781,0,0,1,.974,4.032,14.986,14.986,0,0,1-2.431,9.964c-6.371,7.683-13.831,7.028-13.831,7.028s-1.431-.076-1.9-.164A15.241,15.241,0,0,1,5.353,27.1a13.636,13.636,0,0,1-3.671-4.976A19.554,19.554,0,0,1,0,15.223a9.469,9.469,0,0,1,.221-1.835c.038-.215.079-.428.226-1.122A13.9,13.9,0,0,1,7,2.6,15.016,15.016,0,0,1,16.23.013,14.857,14.857,0,0,1,21.1,1.035a1.4,1.4,0,1,1-.965,2.625,12.779,12.779,0,0,0-5.072-.846,8.486,8.486,0,0,0-2.04.268,4.926,4.926,0,0,1-.861.278A13.068,13.068,0,0,0,7.726,5.638s-.7.579-1.2,1.1A12.525,12.525,0,0,0,4.645,21.583a12.249,12.249,0,0,0,4.993,4.875,11.67,11.67,0,0,0,2.9,1.124A21.1,21.1,0,0,0,16.222,28.025Z" transform="translate(0 5.048)" fill="#dd1928" stroke="rgba(0,0,0,0)" stroke-miterlimit="10" stroke-width="1"/>
      <path id="Path_11193" data-name="Path 11193" d="M40.5,183c.078.02.066.079.059.136q-.026.052-.059,0Z" transform="translate(-40.46 -163.65)" fill="#8e9de4"/>
      <path id="Path_11194" data-name="Path 11194" d="M40.5,184.462l.059,0v.14q-.026.053-.06,0Z" transform="translate(-40.46 -164.971)" fill="#687cdb"/>
      <path id="Path_11195" data-name="Path 11195" d="M40.5,185.957l.06,0a.119.119,0,0,1-.06.145Z" transform="translate(-40.46 -166.326)" fill="#4761d4"/>
      <path id="Path_11196" data-name="Path 11196" d="M99.731,97.231a9.855,9.855,0,0,1,3-4.766,9.618,9.618,0,0,1,5.489-2.4,10.506,10.506,0,0,1,1.468-.047,1.434,1.434,0,0,1,1.4,1.454,1.38,1.38,0,0,1-1.463,1.34,7.035,7.035,0,0,0-4.454,1.291,6.769,6.769,0,0,0-2.91,4.867,7,7,0,0,0,13.825,2.2,9.043,9.043,0,0,0,.131-1.741,1.394,1.394,0,0,1,1.391-1.486,1.449,1.449,0,0,1,1.41,1.45,9.819,9.819,0,0,1-17.773,6.167,10.549,10.549,0,0,1-1.513-3.138A11.648,11.648,0,0,1,99.731,97.231Z" transform="translate(-93.743 -79.356)" fill="#2a2a2a"/>
      <path id="Path_11197" data-name="Path 11197" d="M209.349-15.578a9.251,9.251,0,0,1-2.225-.134.393.393,0,0,1-.1-.023c-.528-.337-.857-.089-1.251.308q-6.357,6.4-12.749,12.771a1.45,1.45,0,0,1-1.479.487A1.391,1.391,0,0,1,190.81-4.4a3.835,3.835,0,0,1,.289-.3q6.5-6.5,13.013-13a.45.45,0,0,0,.124-.593,3.575,3.575,0,0,1-.281-1.467c0-.911,0-1.822,0-2.733a1.4,1.4,0,0,1,1.389-1.487,1.4,1.4,0,0,1,1.414,1.5c0,.853,0,1.705,0,2.558a1.415,1.415,0,0,0,1.536,1.552c.864,0,1.729,0,2.593,0a1.4,1.4,0,0,1,1.478,1.4,1.4,1.4,0,0,1-1.472,1.4C210.417-15.575,209.938-15.578,209.349-15.578Z" transform="translate(-176.431 23.99)" fill="#dd1928"/>
      <path id="Path_11198" data-name="Path 11198" d="M5.472,21.3c6.968,7.348,1.093,1.228,1.7,1.734.093.077.839.742.929.827A7.358,7.358,0,0,1,4.864,22a11.52,11.52,0,0,1-4.777-9.01c-.693-5.443,2.85-9.936,6.927-12A16.5,16.5,0,0,1,9.754,0L7.58,1.114A12.388,12.388,0,0,0,3.608,4.307,13.529,13.529,0,0,0,5.472,21.3Z" transform="translate(0.535 11.382) rotate(-13)" fill="#d6d6d6"/>
      <path id="Path_11199" data-name="Path 11199" d="M102.143,215.2a2.09,2.09,0,0,1-.135-.857l.2.79Z" transform="translate(-96.215 -192.058)" fill="#faebfc"/>
    </g>
  </g>
</svg>
