<svg id="Group_53" data-name="Group 53" xmlns="http://www.w3.org/2000/svg" width="24.355" height="31.993" viewBox="0 0 24.355 31.993">
  <path id="Path_93" data-name="Path 93" d="M137.5,177.99c0-1.4.009-2.809-.01-4.213a1,1,0,0,0-.222-.594,11.809,11.809,0,0,1-3.019-9.156,11.648,11.648,0,0,1,6.427-9.676,12.094,12.094,0,0,1,17.566,8.187,11.754,11.754,0,0,1-2.729,10.547,1.119,1.119,0,0,0-.3.79c.013,2.678-.044,5.357.023,8.033a2.842,2.842,0,0,1-4.373,2.539c-1.326-.815-2.7-1.547-4.05-2.329a.8.8,0,0,0-.895,0q-2.049,1.194-4.116,2.356a2.794,2.794,0,0,1-4.3-2.517Q137.5,179.972,137.5,177.99Zm-1.021-12.909a9.879,9.879,0,1,0,9.9-9.879A9.893,9.893,0,0,0,136.483,165.082Zm3.32,10.3c-.005.11-.014.2-.014.293q0,3.124,0,6.247c0,.671.356.869.946.532,1.362-.778,2.73-1.548,4.085-2.337a2.859,2.859,0,0,1,3.074-.006q2.053,1.187,4.116,2.354c.57.324.923.119.923-.534q0-3.123,0-6.247c0-.1-.015-.2-.024-.3A12.332,12.332,0,0,1,139.8,175.379Z" transform="translate(-134.193 -152.908)" fill="#dd1928"/>
  <path id="Path_94" data-name="Path 94" d="M185.311,210.9a6.6,6.6,0,0,0-.042-1.948,6.493,6.493,0,0,0-1.107-1.6c-.343-.471-.7-.934-1.035-1.409a1.143,1.143,0,0,1,.615-1.848c1.051-.34,2.108-.659,3.154-1.013a1.208,1.208,0,0,0,.551-.394c.648-.867,1.267-1.755,1.9-2.633a1.16,1.16,0,0,1,2.051,0c.648.9,1.283,1.8,1.94,2.691a.955.955,0,0,0,.44.318c1.059.352,2.128.677,3.189,1.023a1.146,1.146,0,0,1,.616,1.912c-.652.894-1.318,1.777-1.959,2.678a1.082,1.082,0,0,0-.186.583c-.009,1.082.013,2.165.018,3.248a1.167,1.167,0,0,1-1.68,1.219c-1.038-.341-2.071-.7-3.113-1.023a1.016,1.016,0,0,0-.575,0c-1.053.331-2.1.69-3.148,1.033a1.146,1.146,0,0,1-1.64-1.189c0-.547,0-1.094,0-1.642Zm9.567-5.083c-.732-.233-1.415-.467-2.108-.665a1.856,1.856,0,0,1-1.1-.788c-.406-.611-.851-1.2-1.3-1.818-.477.664-.935,1.285-1.375,1.919a1.563,1.563,0,0,1-.871.634c-.744.224-1.481.472-2.254.721.478.648.921,1.265,1.381,1.869a1.666,1.666,0,0,1,.358,1.09c-.016.759,0,1.518,0,2.319a12.976,12.976,0,0,0,1.441-.476,3.01,3.01,0,0,1,2.67,0,13,13,0,0,0,1.422.475c0-.774.016-1.5-.006-2.221a1.844,1.844,0,0,1,.4-1.254C193.993,207.042,194.416,206.44,194.878,205.813Z" transform="translate(-178.231 -195.002)" fill="#dd1928"/>
</svg>
