<svg id="Group_51" data-name="Group 51" xmlns="http://www.w3.org/2000/svg" width="31.475" height="28.531" viewBox="0 0 31.475 28.531">
  <path id="Path_85" data-name="Path 85" d="M153.738,345.582c-2.011,0-4.023.019-6.034-.011a7.87,7.87,0,0,1-1.825-.246,4.263,4.263,0,0,1-3.321-3.494,8.875,8.875,0,0,1,1.264-6.794,7.23,7.23,0,0,1,5.37-3.231,15.362,15.362,0,0,1,2.05-.119c2.1,0,4.207-.033,6.307.053a7.584,7.584,0,0,1,7.338,6.594,9.319,9.319,0,0,1,.015,3.306,4.544,4.544,0,0,1-4.276,3.871c-.749.068-1.506.066-2.259.071-1.543.01-3.086,0-4.628,0Zm-.015-2.192c1.9,0,3.793,0,5.689,0a8.976,8.976,0,0,0,1.058-.066,2.412,2.412,0,0,0,2.3-2.2c.057-.348.065-.7.09-1.056a5.812,5.812,0,0,0-5.952-6.212c-2.124.039-4.249.008-6.374.008a5.7,5.7,0,0,0-5.207,2.908,6.271,6.271,0,0,0-.6,4.674,2.209,2.209,0,0,0,1.814,1.791,6.942,6.942,0,0,0,1.426.147C149.885,343.4,151.8,343.39,153.723,343.39Z" transform="translate(-142.36 -317.057)" fill="#dd1928"/>
  <path id="Path_86" data-name="Path 86" d="M198.712,177.98a6.216,6.216,0,1,1,6.187,6.2A6.21,6.21,0,0,1,198.712,177.98Zm2.193-.012a4.022,4.022,0,1,0,4.038-4.02A4,4,0,0,0,200.9,177.967Z" transform="translate(-193.56 -171.753)" fill="#dd1928"/>
  <path id="Path_87" data-name="Path 87" d="M379.015,328.091a7.26,7.26,0,0,1,2.967.36,6.383,6.383,0,0,1,4.191,6.245,8.541,8.541,0,0,1-.134,1.661,4.054,4.054,0,0,1-4.3,3.028c-.341-.028-.685-.009-1.027-.015a1.1,1.1,0,1,1,0-2.193,15.19,15.19,0,0,0,1.674-.062,1.58,1.58,0,0,0,1.531-1.532,4.465,4.465,0,0,0-1.269-4.145,4.224,4.224,0,0,0-3.154-1.168q-1.147.035-2.3.008a1.094,1.094,0,1,1,.028-2.186C377.757,328.086,378.282,328.091,379.015,328.091Z" transform="translate(-354.705 -313.776)" fill="#dd1928"/>
  <path id="Path_88" data-name="Path 88" d="M349.816,203.8a5.072,5.072,0,0,1,.933,10.074,4.879,4.879,0,0,1-4.168-1.192,1.076,1.076,0,0,1-.178-1.578,1.105,1.105,0,0,1,1.616-.069,2.872,2.872,0,1,0,.658-4.77,1.093,1.093,0,1,1-.941-1.973A4.471,4.471,0,0,1,349.816,203.8Z" transform="translate(-327.503 -200.872)" fill="#dd1928"/>
</svg>
