<svg id="Group_52" data-name="Group 52" xmlns="http://www.w3.org/2000/svg" width="23.774" height="28.531" viewBox="0 0 23.774 28.531">
  <path id="Path_89" data-name="Path 89" d="M200.487,161.216q0-4.084,0-8.169a5.938,5.938,0,0,1,6.1-6.093c2.228,0,4.456.007,6.683-.005a1.727,1.727,0,0,1,1.322.54q4.541,4.569,9.11,9.11a1.737,1.737,0,0,1,.553,1.317c-.008,3.849,0,7.7-.006,11.547a5.934,5.934,0,0,1-6,6.01q-5.885.011-11.77,0a5.935,5.935,0,0,1-6-6.015Q200.481,165.337,200.487,161.216Zm11.884-11.886h-.408q-2.673,0-5.346,0a3.571,3.571,0,0,0-3.753,3.752q0,8.13,0,16.26a3.571,3.571,0,0,0,3.751,3.755q5.754,0,11.508,0a3.569,3.569,0,0,0,3.754-3.751q0-5.049,0-10.1v-.412H218.49a5.94,5.94,0,0,1-6.119-6.115C212.37,151.61,212.371,150.5,212.371,149.331Zm7.7,7.193-5.315-5.314c0,.578-.025,1.247.005,1.912a3.424,3.424,0,0,0,2.575,3.173A20.315,20.315,0,0,0,220.07,156.523Z" transform="translate(-200.486 -146.949)" fill="#dd1928"/>
  <path id="Path_90" data-name="Path 90" d="M266.416,305.372q-2.284,0-4.567,0A1.2,1.2,0,1,1,261.83,303q4.623,0,9.246,0a1.2,1.2,0,1,1-.019,2.376Q268.736,305.374,266.416,305.372Z" transform="translate(-254.568 -287.541)" fill="#dd1928"/>
  <path id="Path_91" data-name="Path 91" d="M266.491,351q2.284,0,4.567,0a1.2,1.2,0,1,1,.017,2.376q-4.623,0-9.245,0A1.2,1.2,0,1,1,261.85,351Q264.17,350.995,266.491,351Z" transform="translate(-254.568 -330.789)" fill="#dd1928"/>
  <path id="Path_92" data-name="Path 92" d="M262.881,254.978c.4,0,.792-.007,1.188,0a1.186,1.186,0,1,1,0,2.372q-1.169.016-2.339,0a1.187,1.187,0,1,1,0-2.373C262.114,254.972,262.5,254.978,262.881,254.978Z" transform="translate(-254.568 -244.277)" fill="#dd1928"/>
</svg>
