<?xml version="1.0" standalone="no"?><!DOCTYPE svg PUBLIC "-//W3C//DTD SVG 1.1//EN" "http://www.w3.org/Graphics/SVG/1.1/DTD/svg11.dtd" ><svg version="1.1" xmlns="http://www.w3.org/2000/svg"><defs><font horiz-adv-x="0" id="font"><font-face ascent="750" bbox="-135 -220 996 929" cap-height="700" descent="-130" font-family="Mayonnaise" units-per-em="1000" x-height="620" /><missing-glyph d="M0 318C0 192 35 74 73 24C87 6 98 0 120 0H440C462 0 474 6 487 24C526 74 561 192 561 318C561 446 527 559 470 635V656H479C496 656 511 668 508 685L501 721C498 738 489 750 471 750H90C72 750 63 737 60 721L53 685C50 669 65 656 82 656H91V635C34 559 0 446 0 318ZM280 77C198 77 138 92 128 113C101 166 75 324 78 382C81 438 144 437 144 437L115 557C144 579 210 598 280 598C351 598 417 579 446 557L417 437C417 437 480 438 483 382C486 324 460 166 433 113C423 92 363 77 280 77ZM280 116C354 116 408 129 418 148C440 192 462 327 460 377C457 421 389 419 389 419L415 530C392 546 338 559 280 559C223 559 169 546 145 530L172 419C172 419 104 421 101 377C98 327 120 192 142 148C153 129 207 116 280 116ZM203 432 181 513C197 524 239 530 280 530C323 530 365 524 382 513L360 432C304 451 253 451 203 432ZM280 146C203 146 139 196 139 288C139 372 203 413 280 413C358 413 423 372 423 288C423 196 358 146 280 146ZM280 203C280 203 352 357 305 357C279 357 276 290 276 290C276 290 273 337 249 337C204 337 280 203 280 203Z" horiz-adv-x="561" /><glyph d="M475 460C475 609 425 710 250 710C75 710 25 609 25 460V41C25 12 37 0 66 0C95 0 107 12 107 41V112C107 256 109 259 250 259C391 259 393 256 393 112V41C393 12 405 0 434 0C463 0 475 12 475 41ZM393 492V472C393 327 391 325 250 325C109 325 107 327 107 472V492C107 576 153 626 250 626C347 626 393 576 393 492Z" glyph-name="A" horiz-adv-x="500" unicode="A" /><glyph d="M475 460C475 609 425 710 250 710C75 710 25 609 25 460V41C25 12 37 0 66 0C95 0 107 12 107 41V112C107 256 109 259 250 259C391 259 393 256 393 112V41C393 12 405 0 434 0C463 0 475 12 475 41ZM393 492V472C393 327 391 325 250 325C109 325 107 327 107 472V492C107 576 153 626 250 626C347 626 393 576 393 492ZM592 309H731C760 309 773 321 773 350C773 379 760 391 731 391H592C477 391 475 393 475 504C475 616 477 618 592 618H741C770 618 783 630 783 659C783 688 770 700 741 700H543C418 700 393 675 393 550V150C393 45 430 0 535 0H751C780 0 793 12 793 41C793 70 780 82 751 82H592C477 82 475 84 475 196C475 307 477 309 592 309Z" glyph-name="AE" horiz-adv-x="818" unicode="Æ" /><glyph d="M155 861 264 909C327 937 378 908 393 856C406 801 377 750 309 744L189 731C145 727 117 737 106 778C94 818 114 842 155 861ZM475 460C475 609 425 710 250 710C75 710 25 609 25 460V41C25 12 37 0 66 0C95 0 107 12 107 41V112C107 256 109 259 250 259C391 259 393 256 393 112V41C393 12 405 0 434 0C463 0 475 12 475 41ZM393 492V472C393 327 391 325 250 325C109 325 107 327 107 472V492C107 576 153 626 250 626C347 626 393 576 393 492Z" glyph-name="Aacute" horiz-adv-x="500" unicode="Á" /><glyph d="M125 833C97 807 87 785 106 756C125 726 150 722 183 738L250 771L317 738C350 722 375 726 394 756C413 785 403 807 375 833L308 897C290 915 269 920 250 920C232 920 210 915 192 897ZM475 460C475 609 425 710 250 710C75 710 25 609 25 460V41C25 12 37 0 66 0C95 0 107 12 107 41V112C107 256 109 259 250 259C391 259 393 256 393 112V41C393 12 405 0 434 0C463 0 475 12 475 41ZM393 492V472C393 327 391 325 250 325C109 325 107 327 107 472V492C107 576 153 626 250 626C347 626 393 576 393 492Z" glyph-name="Acircumflex" horiz-adv-x="500" unicode="Â" /><glyph d="M240 820C240 762 208 730 150 730C92 730 60 762 60 820V830C60 888 92 920 150 920C208 920 240 888 240 830ZM440 820C440 762 408 730 350 730C292 730 260 762 260 820V830C260 888 292 920 350 920C408 920 440 888 440 830ZM475 460C475 609 425 710 250 710C75 710 25 609 25 460V41C25 12 37 0 66 0C95 0 107 12 107 41V112C107 256 109 259 250 259C391 259 393 256 393 112V41C393 12 405 0 434 0C463 0 475 12 475 41ZM393 492V472C393 327 391 325 250 325C109 325 107 327 107 472V492C107 576 153 626 250 626C347 626 393 576 393 492Z" glyph-name="Adieresis" horiz-adv-x="500" unicode="Ä" /><glyph d="M345 861C386 842 406 818 394 778C383 737 355 727 311 731L191 744C123 750 94 801 107 856C122 908 173 937 236 909ZM475 460C475 609 425 710 250 710C75 710 25 609 25 460V41C25 12 37 0 66 0C95 0 107 12 107 41V112C107 256 109 259 250 259C391 259 393 256 393 112V41C393 12 405 0 434 0C463 0 475 12 475 41ZM393 492V472C393 327 391 325 250 325C109 325 107 327 107 472V492C107 576 153 626 250 626C347 626 393 576 393 492Z" glyph-name="Agrave" horiz-adv-x="500" unicode="À" /><glyph d="M304 824C304 805 289 801 247 801C212 801 191 808 191 824C191 842 212 849 247 849C289 849 304 845 304 824ZM106 825C106 763 151 730 250 730C350 730 394 763 394 825C394 887 350 920 250 920C151 920 106 887 106 825ZM475 460C475 609 425 710 250 710C75 710 25 609 25 460V41C25 12 37 0 66 0C95 0 107 12 107 41V112C107 256 109 259 250 259C391 259 393 256 393 112V41C393 12 405 0 434 0C463 0 475 12 475 41ZM393 492V472C393 327 391 325 250 325C109 325 107 327 107 472V492C107 576 153 626 250 626C347 626 393 576 393 492Z" glyph-name="Aring" horiz-adv-x="500" unicode="Å" /><glyph d="M201 784C235 784 239 730 306 730C366 730 394 775 394 857C394 901 382 920 355 920C332 920 324 909 324 891C324 874 315 866 299 866C263 866 261 920 194 920C134 920 106 875 106 793C106 749 118 730 145 730C168 730 176 741 176 759C176 776 185 784 201 784ZM475 460C475 609 425 710 250 710C75 710 25 609 25 460V41C25 12 37 0 66 0C95 0 107 12 107 41V112C107 256 109 259 250 259C391 259 393 256 393 112V41C393 12 405 0 434 0C463 0 475 12 475 41ZM393 492V472C393 327 391 325 250 325C109 325 107 327 107 472V492C107 576 153 626 250 626C347 626 393 576 393 492Z" glyph-name="Atilde" horiz-adv-x="500" unicode="Ã" /><glyph d="M393 200C393 122 347 82 250 82C109 82 107 85 107 200C107 314 109 317 250 317C364 317 393 293 393 200ZM393 500C393 407 364 383 250 383C109 383 107 386 107 500C107 615 109 618 250 618C347 618 393 578 393 500ZM475 200C475 317 436 347 368 347C360 347 358 348 358 352C358 356 360 357 368 357C436 357 475 386 475 500C475 620 425 700 250 700H99C46 700 25 679 25 626V74C25 21 46 0 99 0H250C425 0 475 80 475 200Z" glyph-name="B" horiz-adv-x="500" unicode="B" /><glyph d="M393 253C393 116 347 74 250 74C153 74 107 109 107 250V450C107 591 153 626 250 626C347 626 393 584 393 447C393 417 405 408 434 408C463 408 475 417 475 447C475 593 425 710 250 710C75 710 25 610 25 460V240C25 91 75 -10 250 -10C425 -10 475 108 475 253C475 283 463 292 434 292C405 292 393 283 393 253Z" glyph-name="C" horiz-adv-x="500" unicode="C" /><glyph d="M215 31 186 -57C176 -86 200 -102 247 -102C285 -102 298 -107 298 -126C298 -145 285 -149 247 -149C216 -149 197 -142 197 -126C197 -98 186 -82 157 -82C126 -82 112 -95 112 -125C112 -187 155 -220 250 -220C346 -220 388 -187 388 -125C388 -68 352 -30 269 -30L294 18ZM393 253C393 116 347 74 250 74C153 74 107 109 107 250V450C107 591 153 626 250 626C347 626 393 584 393 447C393 417 405 408 434 408C463 408 475 417 475 447C475 593 425 710 250 710C75 710 25 610 25 460V240C25 91 75 -10 250 -10C425 -10 475 108 475 253C475 283 463 292 434 292C405 292 393 283 393 253Z" glyph-name="Ccedilla" horiz-adv-x="500" unicode="Ç" /><glyph d="M393 250C393 133 347 82 250 82C109 82 107 85 107 250V450C107 615 109 618 250 618C347 618 393 567 393 450ZM250 0C425 0 475 100 475 250V450C474 600 425 700 250 700H175C51 700 25 676 25 550V150C25 25 50 0 175 0Z" glyph-name="D" horiz-adv-x="500" unicode="D" /><glyph d="M225 309C110 309 107 307 107 196C107 84 110 82 225 82H384C413 82 425 70 425 41C425 12 413 0 384 0H175C50 0 25 25 25 150V550C25 675 50 700 175 700H374C403 700 415 688 415 659C415 630 403 618 374 618H225C110 618 107 616 107 504C107 393 110 391 225 391H364C393 391 405 379 405 350C405 321 393 309 364 309Z" glyph-name="E" horiz-adv-x="450" unicode="E" /><glyph d="M130 861 239 909C302 937 353 908 368 856C381 801 352 750 284 744L164 731C120 727 92 737 81 778C69 818 89 842 130 861ZM225 309C110 309 107 307 107 196C107 84 110 82 225 82H384C413 82 425 70 425 41C425 12 413 0 384 0H175C50 0 25 25 25 150V550C25 675 50 700 175 700H374C403 700 415 688 415 659C415 630 403 618 374 618H225C110 618 107 616 107 504C107 393 110 391 225 391H364C393 391 405 379 405 350C405 321 393 309 364 309Z" glyph-name="Eacute" horiz-adv-x="450" unicode="É" /><glyph d="M100 833C72 807 62 785 81 756C100 726 125 722 158 738L225 771L292 738C325 722 350 726 369 756C388 785 378 807 350 833L283 897C265 915 244 920 225 920C207 920 185 915 167 897ZM225 309C110 309 107 307 107 196C107 84 110 82 225 82H384C413 82 425 70 425 41C425 12 413 0 384 0H175C50 0 25 25 25 150V550C25 675 50 700 175 700H374C403 700 415 688 415 659C415 630 403 618 374 618H225C110 618 107 616 107 504C107 393 110 391 225 391H364C393 391 405 379 405 350C405 321 393 309 364 309Z" glyph-name="Ecircumflex" horiz-adv-x="450" unicode="Ê" /><glyph d="M215 820C215 762 183 730 125 730C67 730 35 762 35 820V830C35 888 67 920 125 920C183 920 215 888 215 830ZM415 820C415 762 383 730 325 730C267 730 235 762 235 820V830C235 888 267 920 325 920C383 920 415 888 415 830ZM225 309C110 309 107 307 107 196C107 84 110 82 225 82H384C413 82 425 70 425 41C425 12 413 0 384 0H175C50 0 25 25 25 150V550C25 675 50 700 175 700H374C403 700 415 688 415 659C415 630 403 618 374 618H225C110 618 107 616 107 504C107 393 110 391 225 391H364C393 391 405 379 405 350C405 321 393 309 364 309Z" glyph-name="Edieresis" horiz-adv-x="450" unicode="Ë" /><glyph d="M320 861C361 842 381 818 369 778C358 737 330 727 286 731L166 744C98 750 69 801 82 856C97 908 148 937 211 909ZM225 309C110 309 107 307 107 196C107 84 110 82 225 82H384C413 82 425 70 425 41C425 12 413 0 384 0H175C50 0 25 25 25 150V550C25 675 50 700 175 700H374C403 700 415 688 415 659C415 630 403 618 374 618H225C110 618 107 616 107 504C107 393 110 391 225 391H364C393 391 405 379 405 350C405 321 393 309 364 309Z" glyph-name="Egrave" horiz-adv-x="450" unicode="È" /><glyph d="M113 567C43 567 13 537 13 467C13 397 43 367 113 367H179V567ZM113 333C43 333 13 303 13 233C13 163 43 133 113 133H179V333ZM286 300C321 300 336 315 336 350C336 385 321 400 286 400H170V300ZM333 240C333 208 328 200 308 200C288 200 283 210 283 250V450C283 490 288 500 308 500C328 500 333 492 333 460C333 392 363 370 433 370C503 370 533 392 533 460C533 610 483 710 308 710C133 710 83 610 83 460V240C83 91 133 -10 308 -10C483 -10 533 91 533 240C533 308 503 330 433 330C363 330 333 308 333 240Z" glyph-name="Euro" horiz-adv-x="533" unicode="€" /><glyph d="M225 391C110 391 107 393 107 509C107 616 110 618 225 618H384C413 618 425 630 425 659C425 688 413 700 384 700H175C50 700 25 675 25 550V41C25 12 37 0 66 0C95 0 107 12 107 41V196C107 307 110 309 225 309H344C373 309 385 321 385 350C385 379 373 391 344 391Z" glyph-name="F" horiz-adv-x="425" unicode="F" /><glyph d="M394 174C394 94 349 74 251 74C153 74 107 109 107 250V450C107 591 153 626 250 626C347 626 393 593 393 460C393 430 405 420 434 420C463 420 475 430 475 460C475 610 425 710 250 710C75 710 25 610 25 460V240C25 91 74 -10 244 -10C327 -10 394 19 394 55C394 63 395 65 399 65C403 65 404 63 404 55C404 20 421 0 446 0C464 0 475 11 475 33V240C475 314 445 338 375 338H273C249 338 240 329 240 306C240 283 248 274 273 274C394 274 394 274 394 174Z" glyph-name="G" horiz-adv-x="500" unicode="G" /><glyph d="M475 659C475 688 463 700 434 700C405 700 393 688 393 659V530C393 386 391 383 250 383C109 383 107 386 107 530V659C107 688 95 700 66 700C37 700 25 688 25 659V41C25 12 37 0 66 0C95 0 107 12 107 41V170C107 314 109 317 250 317C391 317 393 314 393 170V41C393 12 405 0 434 0C463 0 475 12 475 41Z" glyph-name="H" horiz-adv-x="500" unicode="H" /><glyph d="M107 659C107 688 95 700 66 700C37 700 25 688 25 659V41C25 12 37 0 66 0C95 0 107 12 107 41Z" glyph-name="I" horiz-adv-x="132" unicode="I" /><glyph d="M275 250C275 126 258 74 191 74C124 74 107 122 107 290C107 321 95 330 66 330C37 330 25 321 25 290C25 94 62 -10 191 -10C320 -10 357 91 357 240V659C357 688 345 700 316 700C287 700 275 688 275 659ZM107 659C107 688 95 700 66 700C37 700 25 688 25 659V401C25 372 37 360 66 360C95 360 107 372 107 401Z" glyph-name="IJ" horiz-adv-x="382" unicode="Ĳ" /><glyph d="M-28 861 81 909C144 937 195 908 210 856C223 801 194 750 126 744L6 731C-38 727 -66 737 -77 778C-89 818 -69 842 -28 861ZM107 659C107 688 95 700 66 700C37 700 25 688 25 659V41C25 12 37 0 66 0C95 0 107 12 107 41Z" glyph-name="Iacute" horiz-adv-x="132" unicode="Í" /><glyph d="M-59 833C-87 807 -97 785 -78 756C-59 726 -34 722 -1 738L66 771L133 738C166 722 191 726 210 756C229 785 219 807 191 833L124 897C106 915 85 920 66 920C48 920 26 915 8 897ZM107 659C107 688 95 700 66 700C37 700 25 688 25 659V41C25 12 37 0 66 0C95 0 107 12 107 41Z" glyph-name="Icircumflex" horiz-adv-x="132" unicode="Î" /><glyph d="M56 820C56 762 24 730 -34 730C-92 730 -124 762 -124 820V830C-124 888 -92 920 -34 920C24 920 56 888 56 830ZM256 820C256 762 224 730 166 730C108 730 76 762 76 820V830C76 888 108 920 166 920C224 920 256 888 256 830ZM107 659C107 688 95 700 66 700C37 700 25 688 25 659V41C25 12 37 0 66 0C95 0 107 12 107 41Z" glyph-name="Idieresis" horiz-adv-x="132" unicode="Ï" /><glyph d="M160 861C201 842 221 818 209 778C198 737 170 727 126 731L6 744C-62 750 -91 801 -78 856C-63 908 -12 937 51 909ZM107 659C107 688 95 700 66 700C37 700 25 688 25 659V41C25 12 37 0 66 0C95 0 107 12 107 41Z" glyph-name="Igrave" horiz-adv-x="132" unicode="Ì" /><glyph d="M393 250C393 110 356 66 250 66C144 66 107 119 107 253C107 283 95 292 66 292C37 292 25 283 25 253C25 87 75 -10 250 -10C425 -10 475 91 475 240V659C475 688 463 700 434 700C405 700 393 688 393 659Z" glyph-name="J" horiz-adv-x="500" unicode="J" /><glyph d="M475 659C475 688 463 700 434 700C405 700 393 688 393 659V511C393 382 347 365 250 365C109 365 108 367 107 482V659C107 688 95 700 66 700C37 700 25 688 25 659V41C25 12 37 0 66 0C95 0 107 12 107 41V152C107 294 109 298 250 298C366 298 395 268 395 149V100C395 30 414 0 450 0C484 0 500 16 500 46C500 78 478 98 478 143C478 282 438 335 368 335C360 335 358 336 358 340C358 344 360 345 368 345C438 345 475 379 475 515Z" glyph-name="K" horiz-adv-x="500" unicode="K" /><glyph d="M250 82C109 82 107 85 107 229V669C107 698 95 710 66 710C37 710 25 698 25 669V150C25 25 50 0 175 0H334C363 0 375 12 375 41C375 70 363 82 334 82Z" glyph-name="L" horiz-adv-x="375" unicode="L" /><glyph d="M315 213 184 653C173 695 150 700 107 700C63 700 25 683 25 642V38C25 11 37 0 65 0C92 0 104 11 104 38V529C104 550 110 556 117 556C126 556 129 549 135 529L287 33C293 6 307 0 325 0C343 0 357 6 363 33L515 529C521 549 524 556 533 556C540 556 546 550 546 529V38C546 11 558 0 585 0C613 0 625 11 625 38V642C625 683 587 700 543 700C500 700 477 695 466 653L335 213C333 206 329 203 325 203C321 203 317 206 315 213Z" glyph-name="M" horiz-adv-x="650" unicode="M" /><glyph d="M396 215C396 207 396 205 393 205C390 205 389 210 386 215L114 650C93 687 82 700 60 700C35 700 25 689 25 659V38C25 11 37 0 65 0C92 0 104 11 104 38V488C104 496 104 498 107 498C110 498 111 494 114 488L388 50C410 11 418 0 440 0C465 0 475 11 475 41V662C475 689 463 700 435 700C408 700 396 689 396 662Z" glyph-name="N" horiz-adv-x="500" unicode="N" /><glyph d="M201 784C235 784 239 730 306 730C366 730 394 775 394 857C394 901 382 920 355 920C332 920 324 909 324 891C324 874 315 866 299 866C263 866 261 920 194 920C134 920 106 875 106 793C106 749 118 730 145 730C168 730 176 741 176 759C176 776 185 784 201 784ZM396 215C396 207 396 205 393 205C390 205 389 210 386 215L114 650C93 687 82 700 60 700C35 700 25 689 25 659V38C25 11 37 0 65 0C92 0 104 11 104 38V488C104 496 104 498 107 498C110 498 111 494 114 488L388 50C410 11 418 0 440 0C465 0 475 11 475 41V662C475 689 463 700 435 700C408 700 396 689 396 662Z" glyph-name="Ntilde" horiz-adv-x="500" unicode="Ñ" /><glyph d="M475 460C475 610 425 710 250 710C75 710 25 610 25 460V240C25 91 75 -10 250 -10C425 -10 475 91 475 240ZM393 250C393 109 347 74 250 74C153 74 107 109 107 250V450C107 591 153 626 250 626C347 626 393 591 393 450Z" glyph-name="O" horiz-adv-x="500" unicode="O" /><glyph d="M475 460C475 610 425 710 250 710C75 710 25 610 25 460V240C25 91 75 -10 250 -10C425 -10 475 91 475 240ZM393 250C393 109 347 74 250 74C153 74 107 109 107 250V450C107 591 153 626 250 626C347 626 393 591 393 450ZM592 309H731C760 309 773 321 773 350C773 379 760 391 731 391H592C477 391 475 393 475 504C475 616 477 618 592 618H741C770 618 783 630 783 659C783 688 770 700 741 700H543C418 700 393 675 393 550V150C393 25 418 0 543 0H751C780 0 793 12 793 41C793 70 780 82 751 82H592C477 82 475 84 475 196C475 307 477 309 592 309Z" glyph-name="OE" horiz-adv-x="818" unicode="Œ" /><glyph d="M155 861 264 909C327 937 378 908 393 856C406 801 377 750 309 744L189 731C145 727 117 737 106 778C94 818 114 842 155 861ZM475 460C475 610 425 710 250 710C75 710 25 610 25 460V240C25 91 75 -10 250 -10C425 -10 475 91 475 240ZM393 250C393 109 347 74 250 74C153 74 107 109 107 250V450C107 591 153 626 250 626C347 626 393 591 393 450Z" glyph-name="Oacute" horiz-adv-x="500" unicode="Ó" /><glyph d="M125 833C97 807 87 785 106 756C125 726 150 722 183 738L250 771L317 738C350 722 375 726 394 756C413 785 403 807 375 833L308 897C290 915 269 920 250 920C232 920 210 915 192 897ZM475 460C475 610 425 710 250 710C75 710 25 610 25 460V240C25 91 75 -10 250 -10C425 -10 475 91 475 240ZM393 250C393 109 347 74 250 74C153 74 107 109 107 250V450C107 591 153 626 250 626C347 626 393 591 393 450Z" glyph-name="Ocircumflex" horiz-adv-x="500" unicode="Ô" /><glyph d="M240 829C240 771 208 739 150 739C92 739 60 771 60 829V839C60 897 92 929 150 929C208 929 240 897 240 839ZM440 829C440 771 408 739 350 739C292 739 260 771 260 829V839C260 897 292 929 350 929C408 929 440 897 440 839ZM475 460C475 610 425 710 250 710C75 710 25 610 25 460V240C25 91 75 -10 250 -10C425 -10 475 91 475 240ZM393 250C393 109 347 74 250 74C153 74 107 109 107 250V450C107 591 153 626 250 626C347 626 393 591 393 450Z" glyph-name="Odieresis" horiz-adv-x="500" unicode="Ö" /><glyph d="M345 861C386 842 406 818 394 778C383 737 355 727 311 731L191 744C123 750 94 801 107 856C122 908 173 937 236 909ZM475 460C475 610 425 710 250 710C75 710 25 610 25 460V240C25 91 75 -10 250 -10C425 -10 475 91 475 240ZM393 250C393 109 347 74 250 74C153 74 107 109 107 250V450C107 591 153 626 250 626C347 626 393 591 393 450Z" glyph-name="Ograve" horiz-adv-x="500" unicode="Ò" /><glyph d="M475 460C475 610 425 710 250 710C75 710 25 610 25 460V240C25 91 75 -10 250 -10C425 -10 475 91 475 240ZM393 250C393 127 356 74 250 74C144 74 107 127 107 250V450C107 573 144 626 250 626C356 626 393 573 393 450ZM5 33C-4 13 5 0 18 0H47C73 0 76 4 89 33L119 99L65 175ZM417 532 478 677C486 696 478 710 465 710H436C410 710 407 703 394 677L363 608Z" glyph-name="Oslash" horiz-adv-x="500" unicode="Ø" /><glyph d="M201 784C235 784 239 730 306 730C366 730 394 775 394 857C394 901 382 920 355 920C332 920 324 909 324 891C324 874 315 866 299 866C263 866 261 920 194 920C134 920 106 875 106 793C106 749 118 730 145 730C168 730 176 741 176 759C176 776 185 784 201 784ZM475 460C475 610 425 710 250 710C75 710 25 610 25 460V240C25 91 75 -10 250 -10C425 -10 475 91 475 240ZM393 250C393 109 347 74 250 74C153 74 107 109 107 250V450C107 591 153 626 250 626C347 626 393 591 393 450Z" glyph-name="Otilde" horiz-adv-x="500" unicode="Õ" /><glyph d="M107 458C107 615 109 618 250 618C347 618 393 586 393 458V417C393 303 347 274 250 274C109 274 107 277 107 417ZM295 200C435 200 475 280 475 400V450C475 600 425 700 250 700H175C50 700 25 675 25 550V41C25 12 37 0 66 0C95 0 107 12 107 41V150C107 198 110 200 275 200Z" glyph-name="P" horiz-adv-x="475" unicode="P" /><glyph d="M393 260C393 119 347 84 250 84C153 84 107 119 107 260V450C107 591 153 626 250 626C347 626 393 591 393 450ZM457 0C478 0 490 11 490 29C490 54 469 71 435 71H397C389 71 387 72 387 76C387 80 389 81 397 81C443 81 475 150 475 263V460C475 610 425 710 250 710C75 710 25 610 25 460V250C25 101 75 0 250 0Z" glyph-name="Q" horiz-adv-x="515" unicode="Q" /><glyph d="M107 492C107 615 109 618 250 618C348 618 393 576 393 492V482C393 388 364 365 250 365C109 365 107 367 107 482ZM475 500C475 620 425 700 250 700H99C46 700 25 679 25 626V41C25 12 37 0 66 0C95 0 107 12 107 41V152C107 296 109 298 250 298C366 298 395 268 395 149V100C395 30 412 0 450 0C484 0 500 16 500 46C500 78 478 99 478 143C478 282 438 335 368 335C360 335 358 336 358 340C358 344 360 345 368 345C436 345 475 376 475 500Z" glyph-name="R" horiz-adv-x="500" unicode="R" /><glyph d="M106 201C106 224 93 239 65 239C37 239 25 222 25 198C25 74 93 -10 245 -10C403 -10 475 71 475 190C475 457 107 319 107 508C107 600 153 634 250 634C341 634 384 593 384 499C384 477 397 461 425 461C453 461 465 479 465 502C465 626 398 710 250 710C95 710 25 629 25 510C25 243 393 381 393 192C393 100 346 66 245 66C150 66 106 101 106 201Z" glyph-name="S" horiz-adv-x="500" unicode="S" /><glyph d="M125 817 192 753C210 735 232 730 250 730C269 730 290 735 308 753L375 817C403 843 413 865 394 894C375 924 350 928 317 912L250 879L183 912C150 928 125 924 106 894C87 865 97 843 125 817ZM106 201C106 224 93 239 65 239C37 239 25 222 25 198C25 74 93 -10 245 -10C403 -10 475 71 475 190C475 457 107 319 107 508C107 600 153 634 250 634C341 634 384 593 384 499C384 477 397 461 425 461C453 461 465 479 465 502C465 626 398 710 250 710C95 710 25 629 25 510C25 243 393 381 393 192C393 100 346 66 245 66C150 66 106 101 106 201Z" glyph-name="Scaron" horiz-adv-x="500" unicode="Š" /><glyph d="M409 700H41C12 700 0 688 0 659C0 630 12 618 41 618C182 618 184 616 184 555V40C184 5 196 -10 225 -10C254 -10 266 5 266 40V555C266 616 268 618 409 618C438 618 450 630 450 659C450 688 438 700 409 700Z" glyph-name="T" horiz-adv-x="450" unicode="T" /><glyph d="M25 240C25 91 75 -10 250 -10C425 -10 475 91 475 240V660C475 695 463 710 434 710C405 710 393 695 393 660V250C393 109 347 74 250 74C153 74 107 109 107 250V660C107 695 95 710 66 710C37 710 25 695 25 660Z" glyph-name="U" horiz-adv-x="500" unicode="U" /><glyph d="M125 833C97 807 87 785 106 756C125 726 150 722 183 738L250 771L317 738C350 722 375 726 394 756C413 785 403 807 375 833L308 897C290 915 269 920 250 920C232 920 210 915 192 897ZM25 240C25 91 75 -10 250 -10C425 -10 475 91 475 240V660C475 695 463 710 434 710C405 710 393 695 393 660V250C393 109 347 74 250 74C153 74 107 109 107 250V660C107 695 95 710 66 710C37 710 25 695 25 660Z" glyph-name="Ucircumflex" horiz-adv-x="500" unicode="Û" /><glyph d="M240 820C240 762 208 730 150 730C92 730 60 762 60 820V830C60 888 92 920 150 920C208 920 240 888 240 830ZM440 820C440 762 408 730 350 730C292 730 260 762 260 820V830C260 888 292 920 350 920C408 920 440 888 440 830ZM25 240C25 91 75 -10 250 -10C425 -10 475 91 475 240V660C475 695 463 710 434 710C405 710 393 695 393 660V250C393 109 347 74 250 74C153 74 107 109 107 250V660C107 695 95 710 66 710C37 710 25 695 25 660Z" glyph-name="Udieresis" horiz-adv-x="500" unicode="Ü" /><glyph d="M345 861C386 842 406 818 394 778C383 737 355 727 311 731L191 744C123 750 94 801 107 856C122 908 173 937 236 909ZM25 240C25 91 75 -10 250 -10C425 -10 475 91 475 240V660C475 695 463 710 434 710C405 710 393 695 393 660V250C393 109 347 74 250 74C153 74 107 109 107 250V660C107 695 95 710 66 710C37 710 25 695 25 660Z" glyph-name="Ugrave" horiz-adv-x="500" unicode="Ù" /><glyph d="M217 143C215 136 211 133 207 133C203 133 199 136 197 143L81 661C76 690 65 703 32 698C7 694 -5 680 2 650L129 99C146 24 152 0 207 0C261 0 268 23 285 98L413 649C420 679 409 694 382 698C348 703 339 690 333 660Z" glyph-name="V" horiz-adv-x="415" unicode="V" /><glyph d="M292 424C293 431 298 434 302 434C306 434 310 431 311 424L364 73C372 17 385 -10 434 -10C483 -10 493 16 503 73L601 631C609 669 609 688 576 695C547 701 534 692 527 647L443 134C442 127 437 124 433 124C429 124 425 127 424 134L345 644C339 683 336 700 302 700C269 700 266 683 260 644L180 134C179 127 174 124 170 124C167 124 162 127 161 134L78 647C71 692 57 701 27 695C-4 688 -3 669 3 631L100 73C110 16 122 -10 170 -10C219 -10 231 18 240 73Z" glyph-name="W" horiz-adv-x="605" unicode="W" /><glyph d="M116 640C84 693 71 713 34 691C-3 669 10 648 74 545L375 58C407 7 422 -13 457 7C495 30 481 53 418 154ZM103 59 404 545C469 649 482 669 444 692C408 713 393 692 362 641L61 154C-3 52 -15 29 21 8C58 -13 71 6 103 59Z" glyph-name="X" horiz-adv-x="479" unicode="X" /><glyph d="M291 258H209V41C209 12 221 0 250 0C279 0 291 12 291 41ZM475 659C475 688 463 700 434 700C405 700 393 688 393 659V450C393 329 347 299 250 299C153 299 107 329 107 450V659C107 688 95 700 66 700C37 700 25 688 25 659V470C25 304 75 220 250 220C425 220 475 304 475 470Z" glyph-name="Y" horiz-adv-x="500" unicode="Y" /><glyph d="M155 861 264 909C327 937 378 908 393 856C406 801 377 750 309 744L189 731C145 727 117 737 106 778C94 818 114 842 155 861ZM291 258H209V41C209 12 221 0 250 0C279 0 291 12 291 41ZM475 659C475 688 463 700 434 700C405 700 393 688 393 659V450C393 329 347 299 250 299C153 299 107 329 107 450V659C107 688 95 700 66 700C37 700 25 688 25 659V470C25 304 75 220 250 220C425 220 475 304 475 470Z" glyph-name="Yacute" horiz-adv-x="500" unicode="Ý" /><glyph d="M240 820C240 762 208 730 150 730C92 730 60 762 60 820V830C60 888 92 920 150 920C208 920 240 888 240 830ZM440 820C440 762 408 730 350 730C292 730 260 762 260 820V830C260 888 292 920 350 920C408 920 440 888 440 830ZM291 258H209V41C209 12 221 0 250 0C279 0 291 12 291 41ZM475 659C475 688 463 700 434 700C405 700 393 688 393 659V450C393 329 347 299 250 299C153 299 107 329 107 450V659C107 688 95 700 66 700C37 700 25 688 25 659V470C25 304 75 220 250 220C425 220 475 304 475 470Z" glyph-name="Ydieresis" horiz-adv-x="500" unicode="Ÿ" /><glyph d="M390 618C418 618 430 630 430 659C430 688 418 700 390 700H65C37 700 25 688 25 659C25 630 37 618 65 618ZM390 0C418 0 430 12 430 41C430 70 418 82 390 82H65C37 82 25 70 25 41C25 12 37 0 65 0ZM335 641 28 62 120 59 427 638Z" glyph-name="Z" horiz-adv-x="455" unicode="Z" /><glyph d="M101 160C101 233 142 264 230 264C357 264 359 261 359 160C359 91 318 56 230 56C142 56 101 87 101 160ZM359 337C359 329 357 327 351 327H216C82 327 25 264 25 158C25 53 83 -10 214 -10C304 -10 360 17 360 55C360 63 361 65 365 65C369 65 370 63 370 55C370 20 385 0 408 0C425 0 435 10 435 32V408C435 541 390 630 235 630C79 630 35 538 35 400C35 374 46 366 72 366C98 366 111 374 111 400C111 503 144 553 235 553C326 553 359 506 359 399Z" glyph-name="a" horiz-adv-x="460" unicode="a" /><glyph d="M140 771 249 819C312 847 363 818 378 766C391 711 362 660 294 654L174 641C130 637 102 647 91 688C79 728 99 752 140 771ZM101 160C101 233 142 264 230 264C357 264 359 261 359 160C359 91 318 56 230 56C142 56 101 87 101 160ZM359 337C359 329 357 327 351 327H216C82 327 25 264 25 158C25 53 83 -10 214 -10C304 -10 360 17 360 55C360 63 361 65 365 65C369 65 370 63 370 55C370 20 385 0 408 0C425 0 435 10 435 32V408C435 541 390 630 235 630C79 630 35 538 35 400C35 374 46 366 72 366C98 366 111 374 111 400C111 503 144 553 235 553C326 553 359 506 359 399Z" glyph-name="aacute" horiz-adv-x="460" unicode="á" /><glyph d="M110 743C82 717 72 695 91 666C110 636 135 632 168 648L235 681L302 648C335 632 360 636 379 666C398 695 388 717 360 743L293 807C275 825 254 830 235 830C217 830 195 825 177 807ZM101 160C101 233 142 264 230 264C357 264 359 261 359 160C359 91 318 56 230 56C142 56 101 87 101 160ZM359 337C359 329 357 327 351 327H216C82 327 25 264 25 158C25 53 83 -10 214 -10C304 -10 360 17 360 55C360 63 361 65 365 65C369 65 370 63 370 55C370 20 385 0 408 0C425 0 435 10 435 32V408C435 541 390 630 235 630C79 630 35 538 35 400C35 374 46 366 72 366C98 366 111 374 111 400C111 503 144 553 235 553C326 553 359 506 359 399Z" glyph-name="acircumflex" horiz-adv-x="460" unicode="â" /><glyph d="M140 771 249 819C312 847 363 818 378 766C391 711 362 660 294 654L174 641C130 637 102 647 91 688C79 728 99 752 140 771Z" glyph-name="acute" horiz-adv-x="460" unicode="´" /><glyph d="M225 730C225 672 193 640 135 640C77 640 45 672 45 730V740C45 798 77 830 135 830C193 830 225 798 225 740ZM425 730C425 672 393 640 335 640C277 640 245 672 245 730V740C245 798 277 830 335 830C393 830 425 798 425 740ZM101 160C101 233 142 264 230 264C357 264 359 261 359 160C359 91 318 56 230 56C142 56 101 87 101 160ZM359 337C359 329 357 327 351 327H216C82 327 25 264 25 158C25 53 83 -10 214 -10C304 -10 360 17 360 55C360 63 361 65 365 65C369 65 370 63 370 55C370 20 385 0 408 0C425 0 435 10 435 32V408C435 541 390 630 235 630C79 630 35 538 35 400C35 374 46 366 72 366C98 366 111 374 111 400C111 503 144 553 235 553C326 553 359 506 359 399Z" glyph-name="adieresis" horiz-adv-x="460" unicode="ä" /><glyph d="M101 160C101 232 142 264 230 264C357 264 359 261 359 160C359 92 318 56 230 56C142 56 101 87 101 160ZM704 287C749 287 768 307 768 349C768 529 723 630 564 630C405 630 359 529 359 380V240C359 91 407 -10 573 -10C704 -10 768 68 768 183C768 216 757 239 730 239C704 239 693 223 693 203C693 113 661 63 573 63C485 63 435 107 435 200V240C435 285 437 287 564 287ZM692 396C692 352 690 351 564 351C437 351 435 352 435 396C435 509 477 557 564 557C651 557 692 509 692 396ZM435 82V408C435 541 390 630 235 630C79 630 35 538 35 400C35 374 46 366 72 366C98 366 111 374 111 400C111 503 144 553 235 553C326 553 359 506 359 399V337C359 329 357 327 351 327H216C82 327 25 266 25 158C25 52 83 -10 214 -10C330 -10 402 41 402 114Z" glyph-name="ae" horiz-adv-x="793" unicode="æ" /><glyph d="M330 771C371 752 391 728 379 688C368 647 340 637 296 641L176 654C108 660 79 711 92 766C107 818 158 847 221 819ZM101 160C101 233 142 264 230 264C357 264 359 261 359 160C359 91 318 56 230 56C142 56 101 87 101 160ZM359 337C359 329 357 327 351 327H216C82 327 25 264 25 158C25 53 83 -10 214 -10C304 -10 360 17 360 55C360 63 361 65 365 65C369 65 370 63 370 55C370 20 385 0 408 0C425 0 435 10 435 32V408C435 541 390 630 235 630C79 630 35 538 35 400C35 374 46 366 72 366C98 366 111 374 111 400C111 503 144 553 235 553C326 553 359 506 359 399Z" glyph-name="agrave" horiz-adv-x="460" unicode="à" /><glyph d="M285 -10C487 -10 545 90 545 240C545 327 523 387 445 387C437 387 435 388 435 392C435 396 437 397 445 397C549 397 620 425 620 522C620 626 575 663 510 663C461 663 432 645 432 615C432 600 444 591 468 591C535 591 552 566 552 515C552 448 530 431 443 431C315 431 290 387 290 320L365 395C307 395 290 364 290 320C290 277 303 250 326 250C342 250 352 260 352 280C352 344 362 359 402 359C459 359 473 337 473 246C473 128 417 74 291 74C166 74 109 130 109 257C109 393 169 427 260 427C295 427 310 439 310 464C310 483 298 491 270 491C200 491 161 513 161 570C161 622 179 645 249 645C319 645 337 620 337 562C337 538 346 520 366 520C393 520 405 546 405 582C405 658 358 710 250 710C136 710 85 653 85 570C85 510 112 469 170 469C178 469 180 468 180 464C180 460 178 459 170 459C91 459 25 388 25 250C25 95 83 -10 285 -10Z" glyph-name="ampersand" horiz-adv-x="604" unicode="&amp;" /><glyph d="M284 734C284 715 269 711 227 711C192 711 171 718 171 734C171 752 192 759 227 759C269 759 284 755 284 734ZM86 735C86 673 131 640 230 640C330 640 374 673 374 735C374 797 330 830 230 830C131 830 86 797 86 735ZM101 160C101 233 142 264 230 264C357 264 359 261 359 160C359 91 318 56 230 56C142 56 101 87 101 160ZM359 337C359 329 357 327 351 327H216C82 327 25 264 25 158C25 53 83 -10 214 -10C304 -10 360 17 360 55C360 63 361 65 365 65C369 65 370 63 370 55C370 20 385 0 408 0C425 0 435 10 435 32V408C435 541 390 630 235 630C79 630 35 538 35 400C35 374 46 366 72 366C98 366 111 374 111 400C111 503 144 553 235 553C326 553 359 506 359 399Z" glyph-name="aring" horiz-adv-x="460" unicode="å" /><glyph d="M219 464C216 473 189 527 187 532C190 528 222 477 230 471C265 438 301 449 320 480C339 512 329 551 285 564C275 566 214 571 209 571C214 572 275 574 285 577C329 590 339 629 320 660C301 692 265 704 230 671C222 664 190 614 187 609C189 614 216 669 219 677C229 724 201 750 164 750C128 750 100 724 110 677C113 669 141 614 142 609C140 614 107 664 98 671C64 704 27 692 9 660C-10 629 -1 590 44 577C54 574 114 572 121 571C114 571 54 566 44 564C-1 551 -10 512 9 480C27 449 64 438 98 471C107 477 140 528 142 532C141 527 113 473 110 464C100 418 128 391 164 391C201 391 229 418 219 464Z" glyph-name="asterisk" horiz-adv-x="330" unicode="*" /><glyph d="M495 130C495 80 518 50 555 50C586 50 605 67 605 100V520C605 553 586 570 555 570C518 570 495 540 495 490C495 482 494 480 490 480C486 480 485 482 485 490C485 543 437 580 360 580C232 580 195 496 195 370V220C195 112 232 40 360 40C437 40 485 77 485 130C485 138 486 140 490 140C494 140 495 138 495 130ZM665 410V210C665 67 606 -30 400 -30C194 -30 135 67 135 210V410C135 554 194 650 400 650C606 650 665 554 665 410ZM775 410C775 620 692 760 400 760C108 760 25 620 25 410V210C25 1 108 -140 400 -140C692 -140 775 1 775 210ZM425 230C425 190 420 180 400 180C380 180 375 190 375 230V390C375 430 380 440 400 440C420 440 425 430 425 390Z" glyph-name="at" horiz-adv-x="800" unicode="@" /><glyph d="M181 694C215 694 219 640 286 640C346 640 374 685 374 767C374 811 362 830 335 830C312 830 304 819 304 801C304 784 295 776 279 776C243 776 241 830 174 830C114 830 86 785 86 703C86 659 98 640 125 640C148 640 156 651 156 669C156 686 165 694 181 694ZM101 160C101 233 142 264 230 264C357 264 359 261 359 160C359 91 318 56 230 56C142 56 101 87 101 160ZM359 337C359 329 357 327 351 327H216C82 327 25 264 25 158C25 53 83 -10 214 -10C304 -10 360 17 360 55C360 63 361 65 365 65C369 65 370 63 370 55C370 20 385 0 408 0C425 0 435 10 435 32V408C435 541 390 630 235 630C79 630 35 538 35 400C35 374 46 366 72 366C98 366 111 374 111 400C111 503 144 553 235 553C326 553 359 506 359 399Z" glyph-name="atilde" horiz-adv-x="460" unicode="ã" /><glyph d="M101 409V210C101 113 134 67 230 67C326 67 359 113 359 210V409C359 508 326 553 230 553C134 553 101 507 101 409ZM90 565C90 557 91 555 95 555C99 555 100 557 100 565C100 603 153 630 236 630C390 630 435 548 435 425V200C435 74 390 -10 236 -10C153 -10 100 17 100 55C100 63 99 65 95 65C91 65 90 63 90 55C90 20 75 0 52 0C35 0 25 11 25 32V718C25 740 35 750 52 750C75 750 90 730 90 695Z" glyph-name="b" horiz-adv-x="460" unicode="b" /><glyph d="M5 700 237 -80C246 -111 256 -130 287 -130H417C446 -130 456 -110 447 -80L215 700C206 731 196 750 165 750H35C6 750 -4 730 5 700Z" glyph-name="backslash" horiz-adv-x="450" unicode="\" /><glyph d="M225 600C225 670 195 700 125 700C55 700 25 670 25 600V-30C25 -100 55 -130 125 -130C195 -130 225 -100 225 -30Z" glyph-name="bar" horiz-adv-x="250" unicode="|" /><glyph d="M0 310C0 396 81 360 99 502C121 681 163 750 272 750C348 750 387 711 352 650C309 576 281 498 270 412C262 351 237 315 159 315C151 315 149 314 149 310C149 306 151 305 159 305C237 305 260 270 270 208C283 123 309 43 352 -30C387 -91 348 -130 272 -130C163 -130 121 -61 99 118C81 260 0 224 0 310Z" glyph-name="braceleft" horiz-adv-x="365" unicode="{" /><glyph d="M365 310C365 224 284 260 266 118C244 -61 202 -130 93 -130C17 -130 -22 -91 13 -30C56 44 84 122 95 208C103 269 128 305 206 305C214 305 216 306 216 310C216 314 214 315 206 315C128 315 105 350 95 412C82 497 56 577 13 650C-22 711 17 750 93 750C202 750 244 681 266 502C284 360 365 396 365 310Z" glyph-name="braceright" horiz-adv-x="365" unicode="}" /><glyph d="M200 500C200 540 205 550 225 550C295 550 325 580 325 650C325 720 295 750 230 750H150C25 750 0 725 0 600V20C0 -105 25 -130 150 -130H230C295 -130 325 -100 325 -30C325 40 295 70 225 70C205 70 200 80 200 120Z" glyph-name="bracketleft" horiz-adv-x="325" unicode="[" /><glyph d="M125 120C125 80 120 70 100 70C30 70 0 40 0 -30C0 -100 30 -130 95 -130H175C300 -130 325 -105 325 20V600C325 725 300 750 175 750H95C30 750 0 720 0 650C0 580 30 550 100 550C120 550 125 540 125 500Z" glyph-name="bracketright" horiz-adv-x="325" unicode="]" /><glyph d="M370 300C370 184 306 120 190 120C74 120 10 184 10 300V320C10 436 74 500 190 500C306 500 370 436 370 320Z" glyph-name="bullet" horiz-adv-x="380" unicode="•" /><glyph d="M349 218C349 112 316 67 225 67C134 67 101 113 101 221V399C101 507 134 553 225 553C316 553 349 504 349 402C349 375 360 366 387 366C412 366 425 375 425 402C425 539 381 630 225 630C70 630 25 541 25 408V212C25 80 70 -10 225 -10C381 -10 425 82 425 218C425 245 412 254 387 254C360 254 349 245 349 218Z" glyph-name="c" horiz-adv-x="450" unicode="c" /><glyph d="M110 727 177 663C195 645 217 640 235 640C254 640 275 645 293 663L360 727C388 753 398 775 379 804C360 834 335 838 302 822L235 789L168 822C135 838 110 834 91 804C72 775 82 753 110 727Z" glyph-name="caron" horiz-adv-x="460" unicode="ˇ" /><glyph d="M244 -30 269 18 190 31 161 -57C151 -86 175 -102 222 -102C260 -102 273 -107 273 -126C273 -145 260 -149 222 -149C191 -149 172 -142 172 -126C172 -98 161 -82 132 -82C101 -82 87 -95 87 -125C87 -187 130 -220 225 -220C321 -220 363 -187 363 -125C363 -68 327 -30 244 -30ZM349 218C349 112 316 67 225 67C134 67 101 113 101 221V399C101 507 134 553 225 553C316 553 349 504 349 402C349 375 360 366 387 366C412 366 425 375 425 402C425 539 381 630 225 630C70 630 25 541 25 408V212C25 80 70 -10 225 -10C381 -10 425 82 425 218C425 245 412 254 387 254C360 254 349 245 349 218Z" glyph-name="ccedilla" horiz-adv-x="450" unicode="ç" /><glyph d="M244 -30 269 18 235 76C203 76 200 60 190 31L161 -57C151 -86 175 -102 222 -102C260 -102 273 -107 273 -126C273 -145 260 -149 222 -149C191 -149 172 -142 172 -126C172 -98 161 -82 132 -82C101 -82 87 -95 87 -125C87 -187 130 -220 225 -220C321 -220 363 -187 363 -125C363 -68 327 -30 244 -30Z" glyph-name="cedilla" horiz-adv-x="450" unicode="¸" /><glyph d="M245 212C245 186 241 180 225 180C209 180 205 188 205 221V399C205 432 209 440 225 440C241 440 245 433 245 408C245 347 273 328 336 328C398 328 425 347 425 408C425 541 381 630 225 630C70 630 25 541 25 408V212C25 80 70 -10 225 -10C381 -10 425 80 425 212C425 273 398 292 336 292C273 292 245 273 245 212ZM325 600C325 670 295 700 225 700C155 700 125 670 125 600V534H325ZM325 24V90H125V24C125 -46 155 -76 225 -76C295 -76 325 -46 325 24Z" glyph-name="cent" horiz-adv-x="450" unicode="¢" /><glyph d="M110 743C82 717 72 695 91 666C110 636 135 632 168 648L235 681L302 648C335 632 360 636 379 666C398 695 388 717 360 743L293 807C275 825 254 830 235 830C217 830 195 825 177 807Z" glyph-name="circumflex" horiz-adv-x="460" unicode="ˆ" /><glyph d="M190 520C190 462 158 430 100 430C42 430 10 462 10 520V530C10 588 42 620 100 620C158 620 190 588 190 530ZM190 90C190 32 158 0 100 0C42 0 10 32 10 90V100C10 158 42 190 100 190C158 190 190 158 190 100Z" glyph-name="colon" horiz-adv-x="200" unicode=":" /><glyph d="M65 -20C79 -20 90 -17 90 -5C90 7 81 10 70 10C31 10 10 42 10 100C10 158 42 190 100 190C152 190 190 162 190 70C190 -39 139 -82 90 -82C52 -82 30 -67 30 -45C30 -29 42 -20 65 -20Z" glyph-name="comma" horiz-adv-x="200" unicode="," /><glyph d="M665 410V210C665 67 606 -30 400 -30C194 -30 135 67 135 210V410C135 554 194 650 400 650C606 650 665 554 665 410ZM775 410C775 620 692 760 400 760C108 760 25 620 25 410V210C25 1 108 -140 400 -140C692 -140 775 1 775 210ZM417 225C417 203 414 198 400 198C386 198 383 204 383 232V384C383 412 386 419 400 419C414 419 417 413 417 391C417 339 441 323 494 323C547 323 570 339 570 391C570 504 533 580 400 580C268 580 230 504 230 391V225C230 113 268 36 400 36C533 36 570 113 570 225C570 277 547 293 494 293C441 293 417 277 417 225Z" glyph-name="copyright" horiz-adv-x="800" unicode="©" /><glyph d="M359 409V210C359 113 326 67 230 67C134 67 101 113 101 210V409C101 508 134 553 230 553C326 553 359 507 359 409ZM370 565C370 557 369 555 365 555C361 555 360 557 360 565C360 603 307 630 224 630C70 630 25 548 25 425V200C25 74 70 -10 224 -10C307 -10 360 17 360 55C360 63 361 65 365 65C369 65 370 63 370 55C370 20 385 0 408 0C425 0 435 11 435 32V718C435 740 425 750 408 750C385 750 370 730 370 695Z" glyph-name="d" horiz-adv-x="460" unicode="d" /><glyph d="M134 584C134 549 120 536 101 536C81 536 70 555 70 584C70 616 81 634 101 634C120 634 134 621 134 584ZM-20 585C-20 513 19 460 104 460C190 460 228 513 228 585C228 657 190 710 104 710C19 710 -20 657 -20 585Z" glyph-name="degree" horiz-adv-x="208" unicode="°" /><glyph d="M225 730C225 672 193 640 135 640C77 640 45 672 45 730V740C45 798 77 830 135 830C193 830 225 798 225 740ZM425 730C425 672 393 640 335 640C277 640 245 672 245 730V740C245 798 277 830 335 830C393 830 425 798 425 740Z" glyph-name="dieresis" horiz-adv-x="460" unicode="¨" /><glyph d="M350 680C350 750 320 780 250 780C180 780 150 750 150 680V614H350ZM150 89V20C150 -50 180 -80 250 -80C320 -80 350 -50 350 20V94ZM215 180C215 227 185 260 115 260C52 260 25 219 25 160C25 59 93 -10 245 -10C403 -10 475 71 475 190C475 450 225 390 225 500C225 540 230 550 250 550C270 550 275 543 275 520C275 474 305 440 375 440C438 440 465 483 465 540C465 641 398 710 250 710C95 710 25 629 25 510C25 250 275 310 275 200C275 160 269 150 245 150C221 150 215 156 215 180Z" glyph-name="dollar" horiz-adv-x="500" unicode="$" /><glyph d="M101 580C101 608 89 620 63 620C37 620 25 608 25 580V40C25 12 36 0 63 0C90 0 101 12 101 40Z" glyph-name="dotlessi" horiz-adv-x="126" unicode="ı" /><glyph d="M377 291C419 291 435 307 435 349C435 529 389 630 230 630C71 630 25 529 25 380V240C25 91 73 -10 240 -10C371 -10 435 69 435 186C435 220 424 242 396 242C370 242 359 227 359 206C359 114 326 63 238 63C151 63 101 107 101 200V243C101 288 102 291 230 291ZM357 398C357 356 355 354 230 354C103 354 101 356 101 398C101 509 142 557 230 557C317 557 357 509 357 398Z" glyph-name="e" horiz-adv-x="460" unicode="e" /><glyph d="M135 771 244 819C307 847 358 818 373 766C386 711 357 660 289 654L169 641C125 637 97 647 86 688C74 728 94 752 135 771ZM377 291C419 291 435 307 435 349C435 529 389 630 230 630C71 630 25 529 25 380V240C25 91 73 -10 240 -10C371 -10 435 69 435 186C435 220 424 242 396 242C370 242 359 227 359 206C359 114 326 63 238 63C151 63 101 107 101 200V243C101 288 102 291 230 291ZM357 398C357 356 355 354 230 354C103 354 101 356 101 398C101 509 142 557 230 557C317 557 357 509 357 398Z" glyph-name="eacute" horiz-adv-x="450" unicode="é" /><glyph d="M105 743C77 717 67 695 86 666C105 636 130 632 163 648L230 681L297 648C330 632 355 636 374 666C393 695 383 717 355 743L288 807C270 825 249 830 230 830C212 830 190 825 172 807ZM377 291C419 291 435 307 435 349C435 529 389 630 230 630C71 630 25 529 25 380V240C25 91 73 -10 240 -10C371 -10 435 69 435 186C435 220 424 242 396 242C370 242 359 227 359 206C359 114 326 63 238 63C151 63 101 107 101 200V243C101 288 102 291 230 291ZM357 398C357 356 355 354 230 354C103 354 101 356 101 398C101 509 142 557 230 557C317 557 357 509 357 398Z" glyph-name="ecircumflex" horiz-adv-x="450" unicode="ê" /><glyph d="M220 730C220 672 188 640 130 640C72 640 40 672 40 730V740C40 798 72 830 130 830C188 830 220 798 220 740ZM420 730C420 672 388 640 330 640C272 640 240 672 240 730V740C240 798 272 830 330 830C388 830 420 798 420 740ZM377 291C419 291 435 307 435 349C435 529 389 630 230 630C71 630 25 529 25 380V240C25 91 73 -10 240 -10C371 -10 435 69 435 186C435 220 424 242 396 242C370 242 359 227 359 206C359 114 326 63 238 63C151 63 101 107 101 200V243C101 288 102 291 230 291ZM357 398C357 356 355 354 230 354C103 354 101 356 101 398C101 509 142 557 230 557C317 557 357 509 357 398Z" glyph-name="edieresis" horiz-adv-x="460" unicode="ë" /><glyph d="M325 771C366 752 386 728 374 688C363 647 335 637 291 641L171 654C103 660 74 711 87 766C102 818 153 847 216 819ZM377 291C419 291 435 307 435 349C435 529 389 630 230 630C71 630 25 529 25 380V240C25 91 73 -10 240 -10C371 -10 435 69 435 186C435 220 424 242 396 242C370 242 359 227 359 206C359 114 326 63 238 63C151 63 101 107 101 200V243C101 288 102 291 230 291ZM357 398C357 356 355 354 230 354C103 354 101 356 101 398C101 509 142 557 230 557C317 557 357 509 357 398Z" glyph-name="egrave" horiz-adv-x="450" unicode="è" /><glyph d="M250 -10C405 -10 475 66 475 186C475 255 455 347 354 347C346 347 344 348 344 352C344 356 346 357 354 357C443 357 465 444 465 510C465 629 398 710 250 710C102 710 35 634 35 515C35 447 53 357 146 357C154 357 156 356 156 352C156 348 154 347 146 347C49 347 25 258 25 191C25 71 95 -10 250 -10ZM250 634C349 634 384 593 384 511C384 429 349 388 250 388C151 388 116 429 116 511C116 593 151 634 250 634ZM250 312C356 312 393 271 393 189C393 107 356 66 250 66C144 66 107 107 107 189C107 271 144 312 250 312Z" glyph-name="eight" horiz-adv-x="500" unicode="8" /><glyph d="M190 90C190 32 158 0 100 0C42 0 10 32 10 90V100C10 158 42 190 100 190C158 190 190 158 190 100ZM390 90C390 32 358 0 300 0C242 0 210 32 210 90V100C210 158 242 190 300 190C358 190 390 158 390 100ZM590 90C590 32 558 0 500 0C442 0 410 32 410 90V100C410 158 442 190 500 190C558 190 590 158 590 100Z" glyph-name="ellipsis" horiz-adv-x="600" unicode="…" /><glyph d="M100 405C42 405 10 373 10 315V305C10 247 42 215 100 215H400C458 215 490 247 490 305V315C490 373 458 405 400 405Z" glyph-name="emdash" horiz-adv-x="500" unicode="—" /><glyph d="M100 405C42 405 10 373 10 315V305C10 247 42 215 100 215H500C558 215 590 247 590 305V315C590 373 558 405 500 405Z" glyph-name="endash" horiz-adv-x="600" unicode="–" /><glyph d="M460 345C530 345 560 375 560 445C560 515 530 545 460 545H100C30 545 0 515 0 445C0 375 30 345 100 345ZM460 75C530 75 560 105 560 175C560 245 530 275 460 275H100C30 275 0 245 0 175C0 105 30 75 100 75Z" glyph-name="equal" horiz-adv-x="560" unicode="=" /><glyph d="M205 650C208 720 178 750 115 750C52 750 22 720 25 650L38 313C41 254 61 229 115 229C169 229 189 254 192 313ZM205 90C205 32 173 0 115 0C57 0 25 32 25 90V100C25 158 57 190 115 190C173 190 205 158 205 100Z" glyph-name="exclam" horiz-adv-x="230" unicode="!" /><glyph d="M25 -30C22 -100 52 -130 115 -130C178 -130 208 -100 205 -30L192 307C189 366 169 391 115 391C61 391 41 366 38 307ZM25 530C25 588 57 620 115 620C173 620 205 588 205 530V520C205 462 173 430 115 430C57 430 25 462 25 520Z" glyph-name="exclamdown" horiz-adv-x="230" unicode="¡" /><glyph d="M116 442C112 442 111 443 111 452V510C111 640 139 673 215 673C291 673 310 640 310 530C310 512 323 504 342 504C362 504 375 517 375 540C375 665 337 750 205 750C73 750 35 665 35 540V452C35 443 34 442 -1 442C-24 442 -35 432 -35 410C-35 387 -24 377 -1 377C34 377 35 376 35 367V40C35 12 46 0 73 0C100 0 111 12 111 40V367C111 376 112 377 116 377H316C340 377 350 387 350 410C350 432 340 442 316 442Z" glyph-name="f" horiz-adv-x="375" unicode="f" /><glyph d="M107 190C107 91 152 66 237 66C331 66 393 113 393 212C393 313 339 347 242 347H84C43 347 22 365 26 413L46 642C50 683 63 700 104 700H404C433 700 445 688 445 659C445 630 433 618 404 618H121L106 423H259C409 423 475 337 475 212C475 88 399 -10 243 -10C93 -10 26 57 26 160C26 208 40 228 70 228C96 228 107 217 107 190Z" glyph-name="five" horiz-adv-x="500" unicode="5" /><glyph d="M24 261C11 240 8 229 8 218C8 191 22 180 56 180H310V41C310 12 322 0 349 0C377 0 389 12 389 41V180H428C457 180 471 187 471 218C471 249 457 256 428 256H389V667C389 696 377 708 349 708H343C327 708 313 701 298 679ZM106 256 313 567V256Z" glyph-name="four" horiz-adv-x="471" unicode="4" /><glyph d="M359 443C359 371 325 343 230 343C135 343 101 371 101 443V463C101 536 135 564 230 564C325 564 359 536 359 463ZM408 553C406 559 410 560 418 560C479 560 510 571 510 599C510 613 503 620 489 620H378C321 620 281 630 230 630C71 630 25 561 25 458V448C25 346 71 277 230 277C389 277 435 346 435 448C435 496 427 522 408 553ZM230 -65C127 -65 90 -39 90 26C90 91 127 117 230 117C333 117 370 91 370 26C370 -39 333 -65 230 -65ZM141 137 230 193H145C109 193 100 209 100 235C100 261 109 277 145 277H230L141 333C78 333 35 300 35 235C35 169 78 137 141 137ZM230 193C105 193 20 157 20 32C20 -94 105 -130 230 -130C355 -130 440 -94 440 32C440 157 355 193 230 193Z" glyph-name="g" horiz-adv-x="460" unicode="g" /><glyph d="M254 636C335 636 382 609 382 522C382 432 343 409 253 409C222 409 205 399 205 359C205 318 225 308 258 308C370 308 398 285 398 193C398 102 349 79 234 79C207 79 195 67 195 40C195 12 209 0 241 0C415 0 475 78 475 193C475 313 419 367 351 367C343 367 341 368 341 372C341 376 343 377 351 377C416 377 453 418 453 519C453 634 407 710 250 710C75 710 25 610 25 460V38C25 11 36 0 63 0C90 0 101 11 101 38V410C101 580 136 636 254 636Z" glyph-name="germandbls" horiz-adv-x="500" unicode="ß" /><glyph d="M330 771C371 752 391 728 379 688C368 647 340 637 296 641L176 654C108 660 79 711 92 766C107 818 158 847 221 819Z" glyph-name="grave" horiz-adv-x="460" unicode="`" /><glyph d="M193 310 355 501C390 542 377 574 343 600C300 633 263 620 237 592L28 368C10 348 0 328 0 310C0 291 8 274 28 252L237 28C263 0 300 -13 343 20C377 46 390 78 355 119ZM453 310 615 501C650 542 637 574 603 600C560 633 523 620 497 592L288 368C270 348 260 328 260 310C260 291 268 274 288 252L497 28C523 0 560 -13 603 20C637 46 650 78 615 119Z" glyph-name="guillemotleft" horiz-adv-x="636" /><glyph d="M443 310 281 119C246 78 259 46 293 20C336 -13 373 0 399 28L608 252C626 272 636 292 636 310C636 329 628 346 608 368L399 592C373 620 336 633 293 600C259 574 246 542 281 501ZM183 310 21 119C-14 78 -1 46 33 20C76 -13 113 0 139 28L348 252C366 272 376 292 376 310C376 329 368 346 348 368L139 592C113 620 76 633 33 600C-1 574 -14 542 21 501Z" glyph-name="guillemotright" horiz-adv-x="636" /><glyph d="M193 310 355 501C390 542 377 574 343 600C300 633 263 620 237 592L28 368C10 348 0 328 0 310C0 291 8 274 28 252L237 28C263 0 300 -13 343 20C377 46 390 78 355 119Z" glyph-name="guilsinglleft" horiz-adv-x="376" unicode="‹" /><glyph d="M183 310 21 119C-14 78 -1 46 33 20C76 -13 113 0 139 28L348 252C366 272 376 292 376 310C376 329 368 346 348 368L139 592C113 620 76 633 33 600C-1 574 -14 542 21 501Z" glyph-name="guilsinglright" horiz-adv-x="376" unicode="›" /><glyph d="M435 110V420C435 546 390 630 236 630C152 630 100 603 100 565C100 557 99 555 95 555C91 555 90 557 90 565V695C90 730 75 750 52 750C35 750 25 740 25 718V38C25 12 37 0 63 0C90 0 101 12 101 38V407C101 507 134 553 230 553C326 553 359 508 359 407V74C359 22 376 0 412 0C437 0 454 12 454 41C454 77 435 78 435 110Z" glyph-name="h" horiz-adv-x="459" unicode="h" /><glyph d="M100 405C42 405 10 373 10 315V305C10 247 42 215 100 215H200C258 215 290 247 290 305V315C290 373 258 405 200 405Z" glyph-name="hyphen" horiz-adv-x="300" unicode="-" /><glyph d="M101 580C101 608 89 620 63 620C37 620 25 608 25 580V40C25 12 36 0 63 0C90 0 101 12 101 40ZM153 730C153 672 121 640 63 640C5 640 -27 672 -27 730V740C-27 798 5 830 63 830C121 830 153 798 153 740Z" glyph-name="i" horiz-adv-x="126" unicode="i" /><glyph d="M101 580C101 608 89 620 63 620C37 620 25 608 25 580V40C25 12 36 0 63 0C90 0 101 12 101 40ZM-31 771 78 819C141 847 192 818 207 766C220 711 191 660 123 654L3 641C-41 637 -69 647 -80 688C-92 728 -72 752 -31 771Z" glyph-name="iacute" horiz-adv-x="127" unicode="í" /><glyph d="M-60 743C-88 717 -98 695 -79 666C-60 636 -35 632 -2 648L65 681L132 648C165 632 190 636 209 666C228 695 218 717 190 743L123 807C105 825 84 830 65 830C47 830 25 825 7 807ZM101 580C101 608 89 620 63 620C37 620 25 608 25 580V40C25 12 36 0 63 0C90 0 101 12 101 40Z" glyph-name="icircumflex" horiz-adv-x="126" unicode="î" /><glyph d="M53 730C53 672 21 640 -37 640C-95 640 -127 672 -127 730V740C-127 798 -95 830 -37 830C21 830 53 798 53 740ZM253 730C253 672 221 640 163 640C105 640 73 672 73 730V740C73 798 105 830 163 830C221 830 253 798 253 740ZM101 580C101 608 89 620 63 620C37 620 25 608 25 580V40C25 12 36 0 63 0C90 0 101 12 101 40Z" glyph-name="idieresis" horiz-adv-x="126" unicode="ï" /><glyph d="M102 580C102 608 90 620 64 620C38 620 26 608 26 580V40C26 12 37 0 64 0C91 0 102 12 102 40ZM159 771C200 752 220 728 208 688C197 647 169 637 125 641L5 654C-63 660 -92 711 -79 766C-64 818 -13 847 50 819Z" glyph-name="igrave" horiz-adv-x="128" unicode="ì" /><glyph d="M305 110C305 -17 290 -49 228 -49C167 -49 151 -17 151 110C151 143 141 160 125 160C94 160 75 138 75 102C75 -36 93 -130 230 -130C350 -130 385 -45 385 80V579C385 608 373 620 345 620C317 620 305 608 305 579ZM435 730C435 672 403 640 345 640C287 640 255 672 255 730V740C255 798 287 830 345 830C403 830 435 798 435 740ZM155 579C155 608 143 620 115 620C87 620 75 608 75 579V221C75 192 87 180 115 180C143 180 155 192 155 221ZM205 730C205 672 173 640 115 640C57 640 25 672 25 730V740C25 798 57 830 115 830C173 830 205 798 205 740Z" glyph-name="ij" horiz-adv-x="460" unicode="ĳ" /><glyph d="M77 52C77 -24 54 -53 3 -53C-47 -53 -70 -24 -70 59C-70 80 -82 90 -102 90C-122 90 -135 77 -135 54C-135 -55 -94 -130 8 -130C112 -130 153 -58 153 46V589C153 617 142 628 115 628C88 628 77 617 77 589ZM205 730C205 672 173 640 115 640C57 640 25 672 25 730V740C25 798 57 830 115 830C173 830 205 798 205 740Z" glyph-name="j" horiz-adv-x="230" unicode="j" /><glyph d="M359 126V74C359 22 376 0 412 0C437 0 454 12 454 41C454 77 435 78 435 110V215C435 273 405 297 353 297C345 297 343 298 343 302C343 306 345 307 353 307C405 307 435 347 435 420C435 546 390 630 236 630C152 630 100 603 100 565C100 557 99 555 95 555C91 555 90 557 90 565V695C90 730 75 750 52 750C35 750 25 739 25 718V38C25 11 36 0 63 0C89 0 101 11 101 38V126C101 268 102 270 230 270C358 270 359 268 359 126ZM101 407C101 507 134 553 230 553C326 553 359 508 359 407C359 345 333 330 230 330C102 330 101 332 101 407Z" glyph-name="k" horiz-adv-x="460" unicode="k" /><glyph d="M104 710C104 738 92 750 65 750C37 750 25 738 25 710V40C25 12 37 0 65 0C92 0 104 12 104 40Z" glyph-name="l" horiz-adv-x="129" unicode="l" /><glyph d="M665 110V422C665 589 600 630 486 630C426 630 368 592 368 540C368 532 367 530 363 530C359 530 358 532 358 540C358 593 307 630 220 630C146 630 100 603 100 565C100 557 99 555 95 555C91 555 90 557 90 565C90 600 75 620 52 620C35 620 25 609 25 588V38C25 11 36 0 63 0C89 0 101 11 101 38V407C101 512 132 549 204 549C277 549 307 512 307 407V38C307 11 318 0 345 0C372 0 383 11 383 38V407C383 512 413 549 486 549C558 549 589 512 589 407V74C589 22 606 0 642 0C667 0 684 12 684 41C684 76 665 78 665 110Z" glyph-name="m" horiz-adv-x="689" unicode="m" /><glyph d="M534 443C581 496 584 535 534 584C485 634 440 637 393 584L26 177C-21 124 -24 85 26 36C75 -14 120 -17 167 36ZM393 36C440 -17 485 -14 534 36C584 85 581 124 534 177L167 584C120 637 75 634 26 584C-24 535 -21 496 26 443Z" glyph-name="multiply" horiz-adv-x="561" unicode="×" /><glyph d="M435 110V420C435 546 390 630 236 630C153 630 100 603 100 565C100 557 99 555 95 555C91 555 90 557 90 565C90 600 75 620 52 620C35 620 25 609 25 588V38C25 12 37 0 63 0C90 0 101 12 101 38V410C101 507 134 553 230 553C326 553 359 508 359 410V74C359 22 376 0 412 0C437 0 454 12 454 41C454 77 435 78 435 110Z" glyph-name="n" horiz-adv-x="459" unicode="n" /><glyph d="M107 480C107 375 153 343 250 343C351 343 392 375 392 480C392 600 351 634 250 634C153 634 107 602 107 480ZM432 390C432 319 370 270 229 270C88 270 25 355 25 480C25 617 94 710 249 710C404 710 474 621 474 484V220C474 83 404 -10 249 -10C101 -10 34 59 34 160C34 199 47 226 78 226C103 226 115 207 115 180C115 101 150 66 249 66C355 66 392 122 392 260V397Z" glyph-name="nine" horiz-adv-x="499" unicode="9" /><glyph d="M190 694C224 694 228 640 295 640C355 640 383 685 383 767C383 811 371 830 344 830C321 830 313 819 313 801C313 784 304 776 288 776C252 776 250 830 183 830C123 830 95 785 95 703C95 659 107 640 134 640C157 640 165 651 165 669C165 686 174 694 190 694ZM435 110V420C435 546 390 630 236 630C153 630 100 603 100 565C100 557 99 555 95 555C91 555 90 557 90 565C90 600 75 620 52 620C35 620 25 609 25 588V38C25 12 37 0 63 0C90 0 101 12 101 38V410C101 507 134 553 230 553C326 553 359 508 359 410V74C359 22 376 0 412 0C437 0 454 12 454 41C454 77 435 78 435 110Z" glyph-name="ntilde" horiz-adv-x="459" unicode="ñ" /><glyph d="M56 50C45 20 57 0 86 0H196C227 0 235 19 246 50L478 700C489 730 477 750 448 750H338C307 750 299 731 288 700ZM306 50C295 20 306 0 336 0H445C476 0 484 19 495 50L727 700C738 730 726 750 697 750H588C556 750 549 731 538 700ZM192 610C160 610 152 608 142 580L95 450C85 421 112 400 145 400H683C715 400 723 402 733 430L780 560C791 589 763 610 730 610ZM99 350C67 350 59 348 49 320L2 190C-8 161 19 140 52 140H590C622 140 630 142 640 170L687 300C698 329 670 350 637 350Z" glyph-name="numbersign" horiz-adv-x="783" unicode="#" /><glyph d="M435 380C435 530 389 630 230 630C71 630 25 530 25 380V240C25 91 71 -10 230 -10C389 -10 435 91 435 240ZM359 230C359 116 324 67 230 67C136 67 101 116 101 230V390C101 504 136 553 230 553C324 553 359 504 359 390Z" glyph-name="o" horiz-adv-x="460" unicode="o" /><glyph d="M435 380C435 530 389 630 230 630C71 630 25 530 25 380V240C25 91 71 -10 230 -10C389 -10 435 91 435 240ZM359 230C359 116 324 67 230 67C136 67 101 116 101 230V390C101 504 136 553 230 553C324 553 359 504 359 390ZM136 771 245 819C308 847 359 818 374 766C387 711 358 660 290 654L170 641C126 637 98 647 87 688C75 728 95 752 136 771Z" glyph-name="oacute" horiz-adv-x="460" unicode="ó" /><glyph d="M105 743C77 717 67 695 86 666C105 636 130 632 163 648L230 681L297 648C330 632 355 636 374 666C393 695 383 717 355 743L288 807C270 825 249 830 230 830C212 830 190 825 172 807ZM435 380C435 530 389 630 230 630C71 630 25 530 25 380V240C25 91 71 -10 230 -10C389 -10 435 91 435 240ZM359 230C359 116 324 67 230 67C136 67 101 116 101 230V390C101 504 136 553 230 553C324 553 359 504 359 390Z" glyph-name="ocircumflex" horiz-adv-x="460" unicode="ô" /><glyph d="M220 730C220 672 188 640 130 640C72 640 40 672 40 730V740C40 798 72 830 130 830C188 830 220 798 220 740ZM420 730C420 672 388 640 330 640C272 640 240 672 240 730V740C240 798 272 830 330 830C388 830 420 798 420 740ZM435 380C435 530 389 630 230 630C71 630 25 530 25 380V240C25 91 71 -10 230 -10C389 -10 435 91 435 240ZM359 230C359 116 324 67 230 67C136 67 101 116 101 230V390C101 504 136 553 230 553C324 553 359 504 359 390Z" glyph-name="odieresis" horiz-adv-x="460" unicode="ö" /><glyph d="M435 380C435 530 389 630 230 630C71 630 25 530 25 380V240C25 91 71 -10 230 -10C389 -10 435 91 435 240ZM359 230C359 116 324 67 230 67C136 67 101 116 101 230V390C101 504 136 553 230 553C324 553 359 504 359 390ZM704 287C749 287 768 307 768 349C768 529 723 630 564 630C405 630 359 529 359 380V240C359 91 407 -10 574 -10C705 -10 769 68 769 183C769 216 758 239 730 239C704 239 693 223 693 203C693 113 661 63 573 63C485 63 435 107 435 200V240C435 285 437 287 564 287ZM692 396C692 352 690 351 564 351C437 351 435 352 435 396C435 509 477 557 564 557C651 557 692 509 692 396Z" glyph-name="oe" horiz-adv-x="794" unicode="œ" /><glyph d="M435 380C435 530 389 630 230 630C71 630 25 530 25 380V240C25 91 71 -10 230 -10C389 -10 435 91 435 240ZM359 230C359 116 324 67 230 67C136 67 101 116 101 230V390C101 504 136 553 230 553C324 553 359 504 359 390ZM324 771C365 752 385 728 373 688C362 647 334 637 290 641L170 654C102 660 73 711 86 766C101 818 152 847 215 819Z" glyph-name="ograve" horiz-adv-x="460" unicode="ò" /><glyph d="M236 659C236 688 225 700 195 700C167 700 154 688 154 659V41C154 12 167 0 195 0C225 0 236 12 236 41ZM349 0C378 0 390 12 390 41C390 70 378 82 349 82H41C12 82 0 70 0 41C0 12 12 0 41 0ZM195 700H41C12 700 0 688 0 659C0 630 12 618 41 618H195Z" glyph-name="one" horiz-adv-x="390" unicode="1" /><glyph d="M221 625C221 678 199 700 146 700C94 700 71 678 71 625V250C71 198 94 175 146 175C199 175 221 198 221 250ZM217 175C270 175 292 198 292 250C292 303 270 325 217 325H75C22 325 0 303 0 250C0 198 22 175 75 175ZM146 700H75C22 700 0 678 0 625C0 573 22 550 75 550H146Z" glyph-name="onesuperior" horiz-adv-x="292" unicode="¹" /><glyph d="M160 289C160 306 166 315 179 315C192 315 198 306 198 289C198 272 192 263 179 263C166 263 160 272 160 289ZM198 398C198 392 197 390 194 390H153C65 390 25 345 25 270C25 195 67 150 142 150C204 150 243 178 243 218C243 224 244 225 247 225C250 225 250 224 250 218C250 180 268 158 295 158C319 158 333 170 333 195V464C333 563 299 630 183 630C66 630 33 563 33 464C33 418 53 404 100 404C147 404 168 418 168 464C168 482 171 488 183 488C195 488 198 482 198 457Z" glyph-name="ordfeminine" horiz-adv-x="358" unicode="ª" /><glyph d="M327 443C327 555 292 630 173 630C54 630 19 555 19 443V338C19 226 54 150 173 150C292 150 327 226 327 338ZM192 330C192 300 188 293 173 293C158 293 154 300 154 330V450C154 480 158 488 173 488C188 488 192 480 192 450Z" glyph-name="ordmasculine" horiz-adv-x="346" unicode="º" /><glyph d="M435 380C435 530 389 630 230 630C71 630 25 530 25 380V240C25 91 71 -10 230 -10C389 -10 435 91 435 240ZM356 230C356 119 323 71 230 71C137 71 104 119 104 230V390C104 501 137 549 230 549C323 549 356 501 356 390ZM5 33C-4 13 5 0 18 0H47C73 0 76 4 89 33L119 99L65 175ZM396 452 457 597C465 618 457 630 443 630H414C388 630 386 626 373 597L341 528Z" glyph-name="oslash" horiz-adv-x="460" unicode="ø" /><glyph d="M435 380C435 530 389 630 230 630C71 630 25 530 25 380V240C25 91 71 -10 230 -10C389 -10 435 91 435 240ZM359 230C359 116 324 67 230 67C136 67 101 116 101 230V390C101 504 136 553 230 553C324 553 359 504 359 390ZM181 694C215 694 219 640 286 640C346 640 374 685 374 767C374 811 362 830 335 830C312 830 304 819 304 801C304 784 295 776 279 776C243 776 241 830 174 830C114 830 86 785 86 703C86 659 98 640 125 640C148 640 156 651 156 669C156 686 165 694 181 694Z" glyph-name="otilde" horiz-adv-x="460" unicode="õ" /><glyph d="M101 211V410C101 507 134 553 230 553C326 553 359 507 359 410V211C359 112 326 67 230 67C134 67 101 113 101 211ZM90 55C90 63 91 65 95 65C99 65 100 63 100 55C100 17 153 -10 236 -10C390 -10 435 72 435 195V420C435 546 390 630 236 630C153 630 100 603 100 565C100 557 99 555 95 555C91 555 90 557 90 565C90 600 75 620 52 620C35 620 25 609 25 588V-98C25 -120 35 -130 52 -130C75 -130 90 -110 90 -75Z" glyph-name="p" horiz-adv-x="460" unicode="p" /><glyph d="M293 600C325 656 289 693 233 700C137 711 102 682 73 620C30 529 0 408 0 285C0 162 30 41 73 -50C102 -112 139 -147 233 -130C289 -120 325 -86 293 -30C243 56 211 169 211 285C211 400 243 513 293 600Z" glyph-name="parenleft" horiz-adv-x="305" unicode="(" /><glyph d="M12 -32C-20 -88 16 -125 72 -132C168 -143 203 -114 232 -52C275 39 305 160 305 283C305 406 275 527 232 618C203 680 166 715 72 698C16 688 -20 654 12 598C62 512 94 399 94 283C94 168 62 55 12 -32Z" glyph-name="parenright" horiz-adv-x="305" unicode=")" /><glyph d="M370 500C370 650 329 750 185 750C41 750 0 650 0 500V450C0 301 41 200 185 200C329 200 370 301 370 450ZM210 420C210 380 205 370 185 370C165 370 160 380 160 420V530C160 570 165 580 185 580C205 580 210 570 210 530ZM278 50C267 20 279 0 308 0H438C469 0 477 19 488 50L721 700C732 730 720 750 691 750H561C530 750 522 731 511 700ZM996 290C996 440 955 540 811 540C667 540 626 440 626 290V240C626 91 667 -10 811 -10C955 -10 996 91 996 240ZM836 210C836 170 831 160 811 160C791 160 786 170 786 210V320C786 360 791 370 811 370C831 370 836 360 836 320Z" glyph-name="percent" horiz-adv-x="996" unicode="%" /><glyph d="M190 90C190 32 158 0 100 0C42 0 10 32 10 90V100C10 158 42 190 100 190C158 190 190 158 190 100Z" glyph-name="period" horiz-adv-x="200" unicode="." /><glyph d="M190 305C190 247 158 215 100 215C42 215 10 247 10 305V315C10 373 42 405 100 405C158 405 190 373 190 315Z" glyph-name="periodcentered" horiz-adv-x="200" unicode="·" /><glyph d="M380 520C380 590 350 620 280 620C210 620 180 590 180 520V100C180 30 210 0 280 0C350 0 380 30 380 100ZM460 210C530 210 560 240 560 310C560 380 530 410 460 410H100C30 410 0 380 0 310C0 240 30 210 100 210Z" glyph-name="plus" horiz-adv-x="560" unicode="+" /><glyph d="M359 211V410C359 507 326 553 230 553C134 553 101 507 101 410V211C101 112 134 67 230 67C326 67 359 113 359 211ZM370 55C370 63 369 65 365 65C361 65 360 63 360 55C360 17 307 -10 224 -10C70 -10 25 72 25 195V420C25 546 70 630 224 630C307 630 360 603 360 565C360 557 361 555 365 555C369 555 370 557 370 565C370 600 385 620 408 620C425 620 435 609 435 588V-98C435 -120 425 -130 408 -130C385 -130 370 -110 370 -75Z" glyph-name="q" horiz-adv-x="460" unicode="q" /><glyph d="M235 301C235 388 365 408 365 580C365 681 298 750 150 750C2 750 -65 681 -65 580C-65 523 -35 480 35 480C98 480 125 514 125 560C125 583 135 590 150 590C165 590 175 580 175 540C175 440 65 433 65 301C65 237 91 210 150 210C210 210 235 237 235 301ZM240 90C240 32 208 0 150 0C92 0 60 32 60 90V100C60 158 92 190 150 190C208 190 240 158 240 100Z" glyph-name="question" horiz-adv-x="300" unicode="?" /><glyph d="M65 319C65 232 -65 212 -65 40C-65 -61 2 -130 150 -130C298 -130 365 -61 365 40C365 97 335 140 265 140C202 140 175 106 175 60C175 37 165 30 150 30C135 30 125 40 125 80C125 180 235 187 235 319C235 383 209 410 150 410C90 410 65 383 65 319ZM60 530C60 588 92 620 150 620C208 620 240 588 240 530V520C240 462 208 430 150 430C92 430 60 462 60 520Z" glyph-name="questiondown" horiz-adv-x="300" unicode="¿" /><glyph d="M90 478C46 478 0 581 0 650C0 727 38 750 90 750C148 750 180 714 180 650C180 582 133 478 90 478ZM290 478C246 478 200 581 200 650C200 727 238 750 290 750C348 750 380 714 380 650C380 582 333 478 290 478Z" glyph-name="quotedbl" horiz-adv-x="380" unicode="&quot;" /><glyph d="M65 -20C79 -20 90 -17 90 -5C90 7 81 10 70 10C31 10 10 42 10 100C10 158 42 190 100 190C152 190 190 162 190 70C190 -39 139 -82 90 -82C52 -82 30 -67 30 -45C30 -29 42 -20 65 -20ZM265 -20C279 -20 290 -17 290 -5C290 7 281 10 270 10C231 10 210 42 210 100C210 158 242 190 300 190C352 190 390 162 390 70C390 -39 339 -82 290 -82C252 -82 230 -67 230 -45C230 -29 242 -20 265 -20Z" glyph-name="quotedblbase" horiz-adv-x="390" unicode="„" /><glyph d="M125 688C111 688 100 685 100 673C100 661 109 658 120 658C159 658 180 626 180 568C180 510 148 478 90 478C38 478 0 506 0 598C0 707 51 750 100 750C138 750 160 735 160 713C160 697 148 688 125 688ZM325 688C311 688 300 685 300 673C300 661 309 658 320 658C359 658 380 626 380 568C380 510 348 478 290 478C238 478 200 506 200 598C200 707 251 750 300 750C338 750 360 735 360 713C360 697 348 688 325 688Z" glyph-name="quotedblleft" horiz-adv-x="380" unicode="“" /><glyph d="M55 540C69 540 80 543 80 555C80 567 71 570 60 570C21 570 0 602 0 660C0 718 32 750 90 750C142 750 180 722 180 630C180 521 129 478 80 478C42 478 20 493 20 515C20 531 32 540 55 540ZM255 540C269 540 280 543 280 555C280 567 271 570 260 570C221 570 200 602 200 660C200 718 232 750 290 750C342 750 380 722 380 630C380 521 329 478 280 478C242 478 220 493 220 515C220 531 232 540 255 540Z" glyph-name="quotedblright" horiz-adv-x="380" unicode="”" /><glyph d="M125 688C111 688 100 685 100 673C100 661 109 658 120 658C159 658 180 626 180 568C180 510 148 478 90 478C38 478 0 506 0 598C0 707 51 750 100 750C138 750 160 735 160 713C160 697 148 688 125 688Z" glyph-name="quoteleft" horiz-adv-x="190" unicode="‘" /><glyph d="M65 540C79 540 90 543 90 555C90 567 81 570 70 570C31 570 10 602 10 660C10 718 42 750 100 750C152 750 190 722 190 630C190 521 139 478 90 478C52 478 30 493 30 515C30 531 42 540 65 540Z" glyph-name="quoteright" horiz-adv-x="190" unicode="’" /><glyph d="M65 -20C79 -20 90 -17 90 -5C90 7 81 10 70 10C31 10 10 42 10 100C10 158 42 190 100 190C152 190 190 162 190 70C190 -39 139 -82 90 -82C52 -82 30 -67 30 -45C30 -29 42 -20 65 -20Z" glyph-name="quotesinglbase" horiz-adv-x="200" unicode="‚" /><glyph d="M65 540C79 540 90 543 90 555C90 567 81 570 70 570C31 570 10 602 10 660C10 718 42 750 100 750C152 750 190 722 190 630C190 521 139 478 90 478C52 478 30 493 30 515C30 531 42 540 65 540Z" glyph-name="quotesingle" horiz-adv-x="170" unicode="'" /><glyph d="M365 440C365 554 333 630 220 630C146 630 100 603 100 565C100 557 99 555 95 555C91 555 90 557 90 565C90 600 75 620 52 620C35 620 25 609 25 588V38C25 11 36 0 63 0C89 0 101 11 101 38V410C101 524 143 553 217 553C284 553 300 502 300 434C300 409 311 401 333 401C355 401 365 410 365 440Z" glyph-name="r" horiz-adv-x="365" unicode="r" /><glyph d="M665 410V210C665 67 606 -30 400 -30C194 -30 135 67 135 210V410C135 554 194 650 400 650C606 650 665 554 665 410ZM775 410C775 620 692 760 400 760C108 760 25 620 25 410V210C25 1 108 -140 400 -140C692 -140 775 1 775 210ZM380 387C380 419 384 426 400 426C415 426 419 419 419 387V379C419 349 415 341 400 341C384 341 380 349 380 379ZM573 426C573 519 535 580 400 580H342C246 582 226 561 226 465V117C226 62 250 40 304 40C358 40 380 62 380 117V225C380 256 384 263 400 263C415 263 419 256 419 225V155C419 74 445 40 505 40C567 40 593 61 593 109C593 146 576 159 576 183C576 271 550 299 504 299C498 299 497 300 497 303C497 306 498 306 504 306C548 306 573 330 573 426Z" glyph-name="registered" horiz-adv-x="800" unicode="®" /><glyph d="M284 734C284 715 269 711 227 711C192 711 171 718 171 734C171 752 192 759 227 759C269 759 284 755 284 734ZM86 735C86 673 131 640 230 640C330 640 374 673 374 735C374 797 330 830 230 830C131 830 86 797 86 735Z" glyph-name="ring" horiz-adv-x="460" unicode="˚" /><glyph d="M99 157C99 178 87 192 61 192C36 192 25 176 25 141C25 51 86 -10 221 -10C361 -10 425 62 425 168C425 402 101 292 101 448C101 529 134 560 225 560C310 560 342 537 342 463C342 443 353 428 380 428C405 428 416 446 416 479C416 569 357 630 225 630C87 630 25 558 25 452C25 218 349 329 349 173C349 91 314 60 221 60C132 60 99 83 99 157Z" glyph-name="s" horiz-adv-x="450" unicode="s" /><glyph d="M99 157C99 178 87 192 61 192C36 192 25 176 25 141C25 51 86 -10 221 -10C361 -10 425 62 425 168C425 402 101 292 101 448C101 529 134 560 225 560C310 560 342 537 342 463C342 443 353 428 380 428C405 428 416 446 416 479C416 569 357 630 225 630C87 630 25 558 25 452C25 218 349 329 349 173C349 91 314 60 221 60C132 60 99 83 99 157ZM100 727 167 663C185 645 207 640 225 640C244 640 265 645 283 663L350 727C378 753 388 775 369 804C350 834 325 838 292 822L225 789L158 822C125 838 100 834 81 804C62 775 72 753 100 727Z" glyph-name="scaron" horiz-adv-x="450" unicode="š" /><glyph d="M225 510C87 510 25 438 25 332C25 99 245 154 245 55C245 21 240 12 221 12C201 12 196 18 196 37C196 80 168 110 105 110C49 110 25 74 25 21C25 -69 86 -130 221 -130C361 -130 425 -58 425 48C425 281 175 227 175 326C175 359 179 368 195 368ZM221 110C361 110 425 182 425 288C425 521 205 467 205 566C205 599 209 608 225 608C241 608 245 602 245 583C245 541 273 510 336 510C392 510 416 548 416 599C416 689 357 750 225 750C87 750 25 678 25 572C25 339 275 394 275 295C275 261 270 252 251 252Z" glyph-name="section" horiz-adv-x="450" unicode="§" /><glyph d="M190 520C190 462 158 430 100 430C42 430 10 462 10 520V530C10 588 42 620 100 620C158 620 190 588 190 530ZM65 -20C79 -20 90 -17 90 -5C90 7 81 10 70 10C31 10 10 42 10 100C10 158 42 190 100 190C152 190 190 162 190 70C190 -39 139 -82 90 -82C52 -82 30 -67 30 -45C30 -29 42 -20 65 -20Z" glyph-name="semicolon" horiz-adv-x="200" unicode=";" /><glyph d="M250 430C95 430 25 502 25 670C25 693 38 710 66 710C96 710 107 693 107 670C107 552 144 506 250 506C356 506 393 552 393 670C393 693 405 710 434 710C463 710 475 693 475 670C475 502 405 430 250 430ZM475 667C475 325 241 321 241 40C241 17 229 0 200 0C171 0 159 19 159 38C159 364 372 317 396 657Z" glyph-name="seven" horiz-adv-x="500" unicode="7" /><glyph d="M392 220C392 325 346 357 249 357C148 357 107 325 107 220C107 100 148 66 249 66C346 66 392 98 392 220ZM67 310C67 381 129 430 270 430C411 430 474 345 474 220C474 83 405 -10 250 -10C95 -10 25 79 25 216V480C25 617 95 710 250 710C398 710 465 641 465 540C465 501 452 474 421 474C396 474 384 493 384 520C384 599 349 634 250 634C144 634 107 578 107 440V303Z" glyph-name="six" horiz-adv-x="500" unicode="6" /><glyph d="M5 -80C-4 -110 6 -130 35 -130H165C196 -130 206 -111 215 -80L447 700C456 730 446 750 417 750H287C256 750 246 731 237 700Z" glyph-name="slash" horiz-adv-x="450" unicode="/" /><glyph glyph-name="space" horiz-adv-x="175" unicode=" " /><glyph d="M25 150C-7 32 43 0 135 0H375C445 0 475 30 475 100C475 170 445 200 375 200H250C230 200 214 211 225 250C245 322 245 378 225 450C214 489 230 500 250 500C270 500 275 492 275 460C275 392 305 370 375 370C445 370 475 392 475 460C475 610 425 710 250 710C75 710 -21 604 25 460C59 353 55 258 25 150ZM267 250C302 250 317 265 317 300C317 335 302 350 267 350H24C-11 350 -26 335 -26 300C-26 265 -11 250 24 250Z" glyph-name="sterling" horiz-adv-x="500" unicode="£" /><glyph d="M77 672C77 631 68 620 13 620C-41 620 -60 613 -60 580C-60 548 -41 541 12 541C76 541 77 540 77 531V141C77 51 108 -10 216 -10C324 -10 365 67 365 200C365 242 352 262 332 262C313 262 300 250 300 230C300 100 284 67 222 67C166 67 153 88 153 171V531C153 539 154 541 158 541H320C348 541 360 553 360 580C360 608 348 620 320 620H158C154 620 153 621 153 655C153 713 146 730 115 730C84 730 77 717 77 672Z" glyph-name="t" horiz-adv-x="355" unicode="t" /><glyph d="M344 345C336 345 334 346 334 350C334 354 336 355 344 355C440 355 463 443 463 510C463 629 394 710 240 710C93 710 27 641 27 540C27 506 40 482 70 482C95 482 106 498 106 520C106 608 159 634 240 634C326 634 383 600 383 507C383 420 350 388 220 388C148 388 135 381 135 350C135 319 148 312 220 312C350 312 383 278 383 185C383 98 326 66 240 66C159 66 106 89 106 180C106 202 95 218 69 218C38 218 25 194 25 160C25 59 92 -10 240 -10C395 -10 465 66 465 185C465 254 445 345 344 345Z" glyph-name="three" horiz-adv-x="490" unicode="3" /><glyph d="M264 436C258 436 257 437 257 440C257 443 258 444 264 444C331 444 348 510 348 560C348 649 297 710 186 710C81 710 33 658 33 583C33 539 52 508 96 508C147 508 168 533 168 568C168 585 175 590 186 590C198 590 205 581 205 545C205 509 198 500 171 500C127 500 108 482 108 440C108 398 127 380 171 380C198 380 205 371 205 335C205 299 198 290 186 290C175 290 168 295 168 313C168 348 145 373 93 373C45 373 25 342 25 298C25 222 75 170 186 170C303 170 355 227 355 316C355 368 340 436 264 436Z" glyph-name="threesuperior" horiz-adv-x="380" unicode="³" /><glyph d="M190 694C224 694 228 640 295 640C355 640 383 685 383 767C383 811 371 830 344 830C321 830 313 819 313 801C313 784 304 776 288 776C252 776 250 830 183 830C123 830 95 785 95 703C95 659 107 640 134 640C157 640 165 651 165 669C165 686 174 694 190 694Z" glyph-name="tilde" horiz-adv-x="459" unicode="˜" /><glyph d="M114 82C110 82 109 84 109 92C109 305 470 235 470 510C470 629 400 710 245 710C97 710 30 641 30 540C30 507 43 482 74 482C100 482 111 498 111 520C111 608 164 634 245 634C331 634 388 607 388 500C388 297 30 378 30 81V41C30 12 42 0 71 0H429C458 0 470 12 470 41C470 70 458 82 429 82Z" glyph-name="two" horiz-adv-x="495" unicode="2" /><glyph d="M188 328C185 328 184 329 184 335C184 373 360 380 360 560C360 649 308 710 191 710C80 710 30 658 30 583C30 540 50 508 98 508C150 508 173 533 173 568C173 585 180 590 191 590C203 590 210 583 210 553C210 440 30 485 30 320V253C30 200 53 178 105 178H285C338 178 360 200 360 253C360 305 338 328 285 328Z" glyph-name="twosuperior" horiz-adv-x="385" unicode="²" /><glyph d="M25 200C25 74 70 -10 224 -10C307 -10 360 17 360 55C360 63 361 65 365 65C369 65 370 63 370 55C370 20 385 0 408 0C425 0 435 10 435 32V582C435 609 424 620 397 620C370 620 359 609 359 582V213C359 116 326 71 230 71C134 71 101 115 101 213V582C101 609 89 620 63 620C36 620 25 609 25 582Z" glyph-name="u" horiz-adv-x="460" unicode="u" /><glyph d="M105 743C77 717 67 695 86 666C105 636 130 632 163 648L230 681L297 648C330 632 355 636 374 666C393 695 383 717 355 743L288 807C270 825 249 830 230 830C212 830 190 825 172 807ZM25 200C25 74 70 -10 224 -10C307 -10 360 17 360 55C360 63 361 65 365 65C369 65 370 63 370 55C370 20 385 0 408 0C425 0 435 10 435 32V582C435 609 424 620 397 620C370 620 359 609 359 582V213C359 116 326 71 230 71C134 71 101 115 101 213V582C101 609 89 620 63 620C36 620 25 609 25 582Z" glyph-name="ucircumflex" horiz-adv-x="460" unicode="û" /><glyph d="M220 730C220 672 188 640 130 640C72 640 40 672 40 730V740C40 798 72 830 130 830C188 830 220 798 220 740ZM420 730C420 672 388 640 330 640C272 640 240 672 240 730V740C240 798 272 830 330 830C388 830 420 798 420 740ZM25 200C25 74 70 -10 224 -10C307 -10 360 17 360 55C360 63 361 65 365 65C369 65 370 63 370 55C370 20 385 0 408 0C425 0 435 10 435 32V582C435 609 424 620 397 620C370 620 359 609 359 582V213C359 116 326 71 230 71C134 71 101 115 101 213V582C101 609 89 620 63 620C36 620 25 609 25 582Z" glyph-name="udieresis" horiz-adv-x="460" unicode="ü" /><glyph d="M325 771C366 752 386 728 374 688C363 647 335 637 291 641L171 654C103 660 74 711 87 766C102 818 153 847 216 819ZM25 200C25 74 70 -10 224 -10C307 -10 360 17 360 55C360 63 361 65 365 65C369 65 370 63 370 55C370 20 385 0 408 0C425 0 435 10 435 32V582C435 609 424 620 397 620C370 620 359 609 359 582V213C359 116 326 71 230 71C134 71 101 115 101 213V582C101 609 89 620 63 620C36 620 25 609 25 582Z" glyph-name="ugrave" horiz-adv-x="460" unicode="ù" /><glyph d="M65 0C7 0 -25 -32 -25 -90V-100C-25 -158 7 -190 65 -190H165C223 -190 255 -158 255 -100V-90C255 -32 223 0 165 0Z" glyph-name="underscore" horiz-adv-x="230" unicode="_" /><glyph d="M193 164C191 158 188 155 184 155C181 155 177 158 175 164L73 573C65 610 57 622 29 618C7 614 -6 604 3 565L120 95C142 9 147 0 184 0C220 0 226 9 248 94L367 564C377 604 363 614 339 618C311 622 304 611 295 572Z" glyph-name="v" horiz-adv-x="371" unicode="v" /><glyph d="M260 382C261 388 265 391 269 391C272 391 276 388 277 382L336 79C348 16 356 -10 403 -10C445 -10 453 18 462 79L534 562C539 597 541 612 511 619C480 627 472 620 465 573L406 145C405 138 400 136 397 136C393 136 390 138 389 145L303 582C298 609 296 620 269 620C242 620 239 609 235 582L150 145C149 138 144 136 141 136C138 136 134 138 133 145L72 573C65 618 56 624 25 619C-4 614 -2 598 3 562L74 79C83 18 93 -10 134 -10C181 -10 190 17 201 79Z" glyph-name="w" horiz-adv-x="537" unicode="w" /><glyph d="M242 340 380 92C406 45 418 26 391 8C358 -13 341 7 315 55L213 240C209 249 209 251 204 251C199 251 199 249 194 240L93 55C67 7 49 -13 17 8C-10 26 1 45 27 92L166 340L174 292L46 525C22 568 7 592 34 610C69 634 82 615 110 562L194 406C199 397 199 395 204 395C209 395 209 397 213 406L297 562C324 614 341 633 374 610C401 591 385 568 362 525L234 292Z" glyph-name="x" horiz-adv-x="408" unicode="x" /><glyph d="M370 -75C370 -110 385 -130 408 -130C425 -130 435 -120 435 -98V582C435 609 424 620 397 620C371 620 359 609 359 582V213C359 116 326 71 230 71C134 71 101 116 101 213V582C101 609 90 620 64 620C37 620 25 609 25 582V200C25 74 70 -10 224 -10C308 -10 360 16 360 54C360 62 361 64 365 64C369 64 370 62 370 54Z" glyph-name="y" horiz-adv-x="460" unicode="y" /><glyph d="M370 -75C370 -110 385 -130 408 -130C425 -130 435 -120 435 -98V582C435 609 424 620 397 620C371 620 359 609 359 582V213C359 116 326 71 230 71C134 71 101 116 101 213V582C101 609 90 620 64 620C37 620 25 609 25 582V200C25 74 70 -10 224 -10C308 -10 360 16 360 54C360 62 361 64 365 64C369 64 370 62 370 54ZM136 771 245 819C308 847 359 818 374 766C387 711 358 660 290 654L170 641C126 637 98 647 87 688C75 728 95 752 136 771Z" glyph-name="yacute" horiz-adv-x="460" unicode="ý" /><glyph d="M220 730C220 672 188 640 130 640C72 640 40 672 40 730V740C40 798 72 830 130 830C188 830 220 798 220 740ZM420 730C420 672 388 640 330 640C272 640 240 672 240 730V740C240 798 272 830 330 830C388 830 420 798 420 740ZM370 -75C370 -110 385 -130 408 -130C425 -130 435 -120 435 -98V582C435 609 424 620 397 620C371 620 359 609 359 582V213C359 116 326 71 230 71C134 71 101 116 101 213V582C101 609 90 620 64 620C37 620 25 609 25 582V200C25 74 70 -10 224 -10C308 -10 360 16 360 54C360 62 361 64 365 64C369 64 370 62 370 54Z" glyph-name="ydieresis" horiz-adv-x="460" unicode="ÿ" /><glyph d="M350 300H150V100C150 30 180 0 250 0C320 0 350 30 350 100ZM475 600C475 670 445 700 375 700C305 700 275 670 275 600V450C275 410 270 400 250 400C230 400 225 410 225 450V600C225 670 195 700 125 700C55 700 25 670 25 600V470C25 321 75 220 250 220C425 220 475 321 475 470ZM361 94C396 94 411 109 411 144C411 179 396 194 361 194H130C95 194 80 179 80 144C80 109 95 94 130 94ZM425 221C460 221 475 236 475 271C475 306 460 321 425 321H75C40 321 25 306 25 271C25 236 40 221 75 221Z" glyph-name="yen" horiz-adv-x="500" unicode="¥" /><glyph d="M297 568 28 57 112 52 381 564ZM344 544C372 544 384 556 384 582C384 609 372 620 344 620H65C37 620 25 609 25 582C25 556 37 544 65 544ZM344 0C372 0 384 11 384 38C384 65 372 76 344 76H65C37 76 25 65 25 38C25 11 37 0 65 0Z" glyph-name="z" horiz-adv-x="409" unicode="z" /><glyph d="M475 460C475 610 425 710 250 710C75 710 25 610 25 460V240C25 91 75 -10 250 -10C425 -10 475 91 475 240ZM393 221C393 120 356 74 250 74C144 74 107 120 107 221V479C107 580 144 626 250 626C356 626 393 580 393 479Z" glyph-name="zero" horiz-adv-x="500" unicode="0" /></font>
</defs>
</svg>
