<svg xmlns="http://www.w3.org/2000/svg" xmlns:xlink="http://www.w3.org/1999/xlink" width="614" height="614" viewBox="0 0 614 614">
  <defs>
    <filter id="Ellipse_489" x="0" y="0" width="614" height="614" filterUnits="userSpaceOnUse">
      <feOffset dy="3" input="SourceAlpha"/>
      <feGaussianBlur stdDeviation="7" result="blur"/>
      <feFlood flood-color="#ffcfcf" flood-opacity="0.012"/>
      <feComposite operator="in" in2="blur"/>
      <feComposite in="SourceGraphic"/>
    </filter>
    <clipPath id="clip-path">
      <path id="Path_42" data-name="Path 42" d="M0,0H243.927V243.929H0Z"/>
    </clipPath>
  </defs>
  <g id="wordpress_2" data-name="wordpress 2" transform="translate(-4121 5199)">
    <g id="yii_2" data-name="yii 2" transform="translate(0 -155)">
      <g id="Kotlin_2" data-name="Kotlin 2" transform="translate(1485 -625)">
        <g id="magento_2" data-name="magento 2" transform="translate(65 -1543)">
          <g id="django_2" data-name="django 2" transform="translate(-945 -1191)">
            <g id="symfony_2" data-name="symfony 2" transform="translate(-545.879 -694.879)">
              <g id="ruby-on-rails_2" data-name="ruby-on-rails 2" transform="translate(4083 -972)">
                <g id="django_2-2" data-name="django 2">
                  <g id="codeigniter_2" data-name="codeigniter 2">
                    <g id="react-native_2" data-name="react-native 2">
                      <g id="laraval_2" data-name="laraval 2">
                        <g transform="matrix(1, 0, 0, 1, -21.12, -18.12)" filter="url(#Ellipse_489)">
                          <circle id="Ellipse_489-2" data-name="Ellipse 489" cx="286" cy="286" r="286" transform="translate(21 18)" fill="#f8f7f7"/>
                        </g>
                        <circle id="Ellipse_488" data-name="Ellipse 488" cx="235" cy="235" r="235" transform="translate(50.879 50.879)" fill="#f3f3f3"/>
                        <circle id="Ellipse_487" data-name="Ellipse 487" cx="182" cy="182" r="182" transform="translate(103.879 103.879)" fill="#eee"/>
                        <path id="Path_19249" data-name="Path 19249" d="M120.818,0A120.818,120.818,0,1,1,0,120.818,120.818,120.818,0,0,1,120.818,0Z" transform="translate(165.061 165.061)" fill="#e9e9e9"/>
                      </g>
                    </g>
                  </g>
                </g>
              </g>
            </g>
          </g>
        </g>
      </g>
    </g>
    <g id="wordpress-blue" transform="translate(4306.036 -5016.965)" clip-path="url(#clip-path)">
      <path id="Path_37" data-name="Path 37" d="M497.223,59.995H454.9v4.489c13.237,0,15.366,2.837,15.366,19.622v30.265c0,16.785-2.124,19.861-15.366,19.861-10.161-1.419-17.022-6.857-26.479-17.261l-10.874-11.82c14.655-2.6,22.457-11.822,22.457-22.226,0-13-11.109-22.931-31.916-22.931H366.482v4.489c13.237,0,15.366,2.837,15.366,19.622v30.265c0,16.785-2.126,19.861-15.366,19.861v4.491h47.047v-4.491c-13.235,0-15.366-3.076-15.366-19.861v-8.507h4.02l26.244,32.86h68.8c33.807,0,48.468-17.966,48.468-39.483s-14.661-39.246-48.47-39.246ZM398.165,98.528V67.088h9.692c10.637,0,15.368,7.328,15.368,15.839,0,8.276-4.73,15.6-15.368,15.6Zm99.769,32.866h-1.656c-8.509,0-9.692-2.124-9.692-13V67.088h11.348c24.587,0,29.075,17.966,29.075,31.916C527.011,113.424,522.519,131.394,497.934,131.394ZM234.8,107.28l16.311-48.235c4.73-13.948,2.6-17.964-12.529-17.964v-4.73H283.03v4.73c-14.892,0-18.44,3.544-24.349,20.8l-26.955,80.858h-3.072l-24.118-74-24.585,74h-3.076L150.634,61.886c-5.674-17.259-9.457-20.8-23.17-20.8v-4.73H179.95v4.73c-13.952,0-17.735,3.309-12.768,17.964l15.839,48.235L206.9,36.353h4.5L234.8,107.28Zm80.38,34.514c-26,0-47.284-19.148-47.284-42.557,0-23.17,21.279-42.32,47.284-42.32s47.284,19.15,47.284,42.32C362.464,122.646,341.188,141.794,315.181,141.794Zm0-77.543c-21.748,0-29.318,19.618-29.318,34.988,0,15.607,7.569,34.992,29.318,34.992,21.989,0,29.555-19.385,29.555-34.992,0-15.37-7.565-34.988-29.555-34.988Z" transform="translate(126.302 36.02)" fill="#00749a"/>
      <path id="Path_38" data-name="Path 38" d="M393.81,133.995v4.728H339.67v-4.728c15.841,0,18.678-4.02,18.678-27.665V68.507c0-23.646-2.837-27.424-18.678-27.424V36.35h48.938c24.349,0,37.831,12.531,37.831,29.32,0,16.313-13.48,29.079-37.831,29.079H375.13V106.33c0,23.648,2.837,27.665,18.681,27.665Zm-5.2-89.134H375.13V86h13.478c13.239,0,19.385-9.22,19.385-20.331C408,54.322,401.849,44.861,388.608,44.861ZM588.855,116.5l-1.185,4.255c-2.124,7.8-4.73,10.639-21.516,10.639h-3.311c-12.292,0-14.42-2.837-14.42-19.62V100.9c18.441,0,19.861,1.652,19.861,13.948h4.493V79.618h-4.493c0,12.294-1.42,13.948-19.861,13.948V67.089h13c16.789,0,19.387,2.837,21.516,10.639l1.186,4.491h3.779L586.253,60h-69.51v4.489c13.237,0,15.368,2.837,15.368,19.622v30.263c0,15.356-1.806,19.224-12.244,19.777-9.921-1.517-16.731-6.926-26.051-17.177l-10.876-11.82c14.659-2.6,22.461-11.822,22.461-22.226,0-13-11.111-22.931-31.916-22.931H431.876v4.489c13.237,0,15.368,2.837,15.368,19.622v30.265c0,16.785-2.126,19.861-15.368,19.861v4.491h47.049v-4.491c-13.235,0-15.368-3.076-15.368-19.861v-8.507h4.022l26.242,32.86h97.167l1.419-22.22-3.552,0Zm-125.3-17.972V67.089h9.692c10.639,0,15.37,7.328,15.37,15.839,0,8.276-4.73,15.6-15.37,15.6ZM636.847,141.8c-9.457,0-17.733-4.963-21.279-8.039a16.967,16.967,0,0,0-3.781,8.039h-4.494V109.171h4.729c1.893,15.6,12.765,24.824,26.716,24.824,7.565,0,13.713-4.257,13.713-11.346,0-6.146-5.435-10.876-15.131-15.368L623.843,100.9c-9.459-4.5-16.548-12.3-16.548-22.7,0-11.348,10.639-21.04,25.3-21.04a29.608,29.608,0,0,1,18.442,6.148c1.181-.948,2.365-3.548,3.074-6.387H658.6v27.9h-4.965c-1.656-11.113-7.8-20.333-20.331-20.333-6.62,0-12.768,3.781-12.768,9.7,0,6.146,4.963,9.455,16.313,14.655l13,6.383c11.35,5.437,15.839,14.189,15.839,21.281,0,14.892-13,25.292-28.842,25.292Zm72.816,0c-9.459,0-17.735-4.963-21.279-8.039a16.968,16.968,0,0,0-3.779,8.039h-4.493V109.171h4.728c1.891,15.6,12.764,24.824,26.716,24.824,7.565,0,13.713-4.257,13.713-11.346,0-6.146-5.437-10.876-15.133-15.368L696.659,100.9c-9.457-4.5-16.548-12.3-16.548-22.7,0-11.348,10.639-21.04,25.3-21.04a29.612,29.612,0,0,1,18.441,6.148c1.181-.948,2.363-3.548,3.07-6.387h4.493v27.9h-4.963c-1.656-11.113-7.8-20.333-20.331-20.333-6.62,0-12.77,3.781-12.77,9.7,0,6.146,4.965,9.455,16.315,14.655l13,6.383C734.015,100.66,738.5,109.411,738.5,116.5c0,14.892-13,25.292-28.84,25.292Z" transform="translate(336.574 36.019)" fill="#464342"/>
      <g id="Group_20" data-name="Group 20" transform="translate(0 0)">
        <path id="Path_39" data-name="Path 39" d="M8.708,113.333A104.65,104.65,0,0,0,67.676,207.5L17.767,70.752a104.231,104.231,0,0,0-9.059,42.581Zm175.262-5.28c0-12.931-4.645-21.886-8.628-28.856-5.3-8.619-10.273-15.917-10.273-24.536,0-9.618,7.293-18.571,17.568-18.571.464,0,.9.058,1.358.084A104.609,104.609,0,0,0,25.917,55.868c2.455.074,4.77.123,6.733.123,10.944,0,27.884-1.328,27.884-1.328,5.64-.332,6.305,7.952.673,8.619,0,0-5.67.667-11.977,1l38.1,113.331,22.9-68.672-16.3-44.662c-5.634-.33-10.972-1-10.972-1-5.638-.33-4.977-8.951.661-8.619,0,0,17.279,1.328,27.56,1.328,10.942,0,27.884-1.328,27.884-1.328,5.644-.332,6.307,7.952.671,8.619,0,0-5.68.667-11.975,1l37.811,112.473L176,141.876c4.525-14.472,7.968-24.866,7.968-33.823Z" transform="translate(8.629 8.629)" fill="#00749a"/>
        <path id="Path_40" data-name="Path 40" d="M77.808,95.4,46.416,186.615a104.657,104.657,0,0,0,64.3-1.666,8.864,8.864,0,0,1-.745-1.441Zm89.972-59.35a80.3,80.3,0,0,1,.7,10.759c0,10.617-1.983,22.553-7.956,37.476l-31.96,92.4A104.647,104.647,0,0,0,167.78,36.046Z" transform="translate(45.993 35.717)" fill="#00749a"/>
        <path id="Path_41" data-name="Path 41" d="M121.966,0A121.966,121.966,0,1,0,243.937,121.962,122.1,122.1,0,0,0,121.966,0Zm0,238.339A116.372,116.372,0,1,1,238.333,121.962,116.509,116.509,0,0,1,121.966,238.339Z" transform="translate(0 0)" fill="#00749a"/>
      </g>
    </g>
  </g>
</svg>
