<svg id="Group_4736" data-name="Group 4736" xmlns="http://www.w3.org/2000/svg" width="50.677" height="59.899" viewBox="0 0 50.677 59.899">
  <g id="Group_4727" data-name="Group 4727">
    <path id="Path_14380" data-name="Path 14380" d="M109.328,73.887a19.609,19.609,0,0,0-3.029.976,9.081,9.081,0,0,0-5.259,8.1c-.069,1.3-.035,2.612-.011,3.917a2.333,2.333,0,1,0,4.666-.017c.022-1.111,0-2.222.007-3.333a4.709,4.709,0,0,1,4.953-4.961q6.608-.011,13.216,0,4.415,0,8.83,0a4.722,4.722,0,0,1,5.054,5.036q0,20.234,0,40.467a4.721,4.721,0,0,1-5.055,5.035q-10.965,0-21.929,0a4.731,4.731,0,0,1-5.07-5.08c0-1.286.007-2.573,0-3.86a2.341,2.341,0,1,0-4.672-.015,52.113,52.113,0,0,0,.127,5.546,9.2,9.2,0,0,0,7.855,7.979,1.805,1.805,0,0,1,.319.111h24.8c.655-.168,1.325-.289,1.961-.511a9.354,9.354,0,0,0,6.343-9.089q.007-18.859,0-37.717c0-1.169.046-2.342-.017-3.508a9.091,9.091,0,0,0-5.26-8.1,19.634,19.634,0,0,0-3.029-.975Z" transform="translate(-91.775 -73.887)" fill="#dd1928"/>
    <path id="Path_14381" data-name="Path 14381" d="M180.106,203.682a5.1,5.1,0,0,0-1.754-3.755c-1.967-1.714-3.971-3.387-5.99-5.04a2.28,2.28,0,0,0-3.288.291,2.311,2.311,0,0,0,.354,3.331c1.764,1.5,3.549,2.98,5.327,4.468.915.766.919,1.11,0,1.88-1.774,1.491-3.555,2.974-5.324,4.471a2.335,2.335,0,0,0,.849,4.1,2.2,2.2,0,0,0,2.08-.462c1.976-1.644,3.96-3.28,5.9-4.962A5.43,5.43,0,0,0,180.106,203.682Z" transform="translate(-140.911 -173.84)" fill="#2a2a2a"/>
    <path id="Path_14382" data-name="Path 14382" d="M331.531,204.015a5.211,5.211,0,0,0,1.681,3.917c1.964,1.751,3.967,3.459,5.988,5.143a2.326,2.326,0,0,0,2.944-3.6c-1.761-1.539-3.551-3.046-5.324-4.571-.822-.706-.82-1.073,0-1.775q2.6-2.226,5.2-4.447a2.341,2.341,0,1,0-2.958-3.617c-1.453,1.209-2.879,2.452-4.314,3.683-.518.444-1.05.874-1.541,1.346A5.444,5.444,0,0,0,331.531,204.015Z" transform="translate(-331.531 -173.934)" fill="#2a2a2a"/>
    <path id="Path_14383" data-name="Path 14383" d="M263.682,204.733a2.224,2.224,0,0,0,2.179-2.793c-.561-2.2-1.208-4.387-1.828-6.576-1.123-3.967-2.26-7.93-3.376-11.9a2.53,2.53,0,0,0-1.853-2.04,2.312,2.312,0,0,0-2.847,2.735c.654,2.562,1.413,5.1,2.134,7.641q1.567,5.529,3.147,11.054A2.468,2.468,0,0,0,263.682,204.733Z" transform="translate(-241.598 -163.08)" fill="#2a2a2a"/>
    <path id="Path_14384" data-name="Path 14384" d="M200.071,127.358c.78,0,1.56.017,2.338,0a2.32,2.32,0,0,0,2.3-2.195,2.26,2.26,0,0,0-2.1-2.436c-1.711-.083-3.431-.083-5.142,0a2.261,2.261,0,0,0-2.1,2.435,2.319,2.319,0,0,0,2.3,2.2C198.472,127.375,199.272,127.358,200.071,127.358Z" transform="translate(-170.088 -114.367)" fill="#2a2a2a"/>
    <path id="Path_14385" data-name="Path 14385" d="M211.477,354.5a2.335,2.335,0,0,0,2.32-2.359,2.335,2.335,0,0,0-4.671.031A2.334,2.334,0,0,0,211.477,354.5Z" transform="translate(-181.507 -302.907)" fill="#2a2a2a"/>
  </g>
</svg>
