<svg id="Group_6346" data-name="Group 6346" xmlns="http://www.w3.org/2000/svg" width="69.002" height="64.183" viewBox="0 0 69.002 64.183">
  <path id="Path_15350" data-name="Path 15350" d="M206.917,127.517a2.175,2.175,0,0,0-.13.3,2.6,2.6,0,0,1-2.988,2.011,2.546,2.546,0,0,1-2.287-2.637c-.025-3.3.008-6.6-.016-9.9a10.639,10.639,0,0,0-7.074-10.14,12.332,12.332,0,0,0-3.947-.659q-18.08-.073-36.16-.02a10.7,10.7,0,0,0-10.977,11.056q-.006,13.131,0,26.262a10.729,10.729,0,0,0,9.176,10.865,12.288,12.288,0,0,0,2.013.116c4.22.01,8.44,0,12.66.007,1.729,0,2.759.788,3.019,2.271a2.619,2.619,0,0,1-2.294,3.078,3.959,3.959,0,0,1-.47.033c-4.736-.007-9.475.078-14.207-.048A16.052,16.052,0,0,1,138.224,146.9a18.174,18.174,0,0,1-.263-2.876c-.02-8.933-.1-17.868.019-26.8.1-6.883,3.453-11.818,9.655-14.781a14.8,14.8,0,0,1,6.464-1.359c12.211,0,24.421-.022,36.632.011a16.117,16.117,0,0,1,16.023,14.122c.049.375.108.749.162,1.124Z" transform="translate(-137.915 -101.075)" fill="#db1010"/>
  <path id="Path_15351" data-name="Path 15351" d="M376.305,291.428c-.113.476-.212.956-.341,1.427a10.6,10.6,0,0,1-2.774,4.7c-2.637,2.662-5.3,5.3-7.942,7.954a20.5,20.5,0,0,1-11.546,5.725c-1.965.329-3.913.768-5.867,1.161a2.712,2.712,0,0,1-3.374-3.361c.506-2.5,1-5.01,1.51-7.512a19.193,19.193,0,0,1,5.366-9.9c2.632-2.634,5.24-5.294,7.906-7.893,2.8-2.73,6.115-3.978,9.958-2.724a9.875,9.875,0,0,1,6.993,8.042,1.016,1.016,0,0,0,.111.233Zm-25.755,14.917c.939-.183,1.791-.369,2.649-.514a14.7,14.7,0,0,0,8.213-4.116c2.691-2.7,5.4-5.385,8.084-8.092a4.439,4.439,0,1,0-6.3-6.254c-2.707,2.685-5.373,5.412-8.1,8.079C352.069,298.421,351.1,302.234,350.551,306.345Z" transform="translate(-307.303 -248.282)"/>
  <path id="Path_15352" data-name="Path 15352" d="M213.894,200.6a9.161,9.161,0,0,1,6.234,2.557q5.877,5.594,11.778,11.161a2.8,2.8,0,0,1,1.044,2.561,2.545,2.545,0,0,1-1.791,2.16,2.583,2.583,0,0,1-2.743-.606q-3.378-3.189-6.742-6.393-2.613-2.48-5.224-4.961a3.928,3.928,0,0,0-5.568.123q-3.71,3.859-7.4,7.739a2.626,2.626,0,0,1-2.765.773,2.539,2.539,0,0,1-1.85-1.956,2.462,2.462,0,0,1,.6-2.378c2.638-2.788,5.246-5.606,7.963-8.314A8.9,8.9,0,0,1,213.894,200.6Z" transform="translate(-187.852 -182.727)"/>
  <path id="Path_15353" data-name="Path 15353" d="M383.285,183.26a3.26,3.26,0,0,1,3.382-3.334,3.3,3.3,0,0,1,3.339,3.4,3.386,3.386,0,0,1-3.4,3.3A3.346,3.346,0,0,1,383.285,183.26Z" transform="translate(-339.216 -165.764)"/>
</svg>
