<svg id="Group_4766" data-name="Group 4766" xmlns="http://www.w3.org/2000/svg" width="62.8" height="62.815" viewBox="0 0 62.8 62.815">
  <path id="Path_12552" data-name="Path 12552" d="M144,111.612q0,9.993,0,19.986c-.006,6.981-4.376,11.367-11.348,11.372q-20.055.013-40.11,0c-6.952,0-11.334-4.414-11.336-11.392q-.006-20.055,0-40.11c0-6.885,4.4-11.294,11.287-11.3q20.124-.016,40.247,0c6.879.006,11.252,4.413,11.259,11.319Q144.01,101.55,144,111.612Zm-31.481,27.166q10.065,0,20.129,0c4.657,0,7.17-2.494,7.172-7.137q.01-20.06,0-40.12c0-4.668-2.494-7.158-7.147-7.159q-20.06,0-40.12,0c-4.665,0-7.168,2.485-7.169,7.134q-.009,20.06,0,40.12c0,4.665,2.5,7.16,7.145,7.162Q102.525,138.783,112.521,138.778Z" transform="translate(-81.203 -80.16)" fill="#db1010"/>
  <path id="Path_12553" data-name="Path 12553" d="M154.9,281.957a8.384,8.384,0,1,1-8.378-8.325A8.45,8.45,0,0,1,154.9,281.957Zm-4.2,0a4.274,4.274,0,0,0-4.183-4.116,4.177,4.177,0,1,0,4.183,4.116Z" transform="translate(-127.662 -238.307)" fill="#2a2a2a"/>
  <path id="Path_12554" data-name="Path 12554" d="M146.466,153.893a8.385,8.385,0,1,1,8.43-8.415A8.449,8.449,0,0,1,146.466,153.893Zm4.228-8.381a4.292,4.292,0,0,0-4.118-4.188,4.181,4.181,0,1,0,4.118,4.188Z" transform="translate(-127.661 -126.894)" fill="#2a2a2a"/>
  <path id="Path_12555" data-name="Path 12555" d="M273.169,153.126H252.408v-4.035h20.761Z" transform="translate(-220.933 -136.662)" fill="#2a2a2a"/>
  <path id="Path_12556" data-name="Path 12556" d="M273.339,285.8v3.992h-20.76V285.8Z" transform="translate(-221.072 -248.237)" fill="#2a2a2a"/>
  <path id="Path_12557" data-name="Path 12557" d="M252.4,194.449h10.286v4H252.4Z" transform="translate(-220.93 -173.682)" fill="#2a2a2a"/>
  <path id="Path_12558" data-name="Path 12558" d="M252.383,330.949h10.295v4.013H252.383Z" transform="translate(-220.912 -285.087)" fill="#2a2a2a"/>
</svg>
