<svg id="Group_4765" data-name="Group 4765" xmlns="http://www.w3.org/2000/svg" width="63.087" height="63.093" viewBox="0 0 63.087 63.093">
  <path id="Path_12523" data-name="Path 12523" d="M123.037,326.736c-.236.777-.432,1.569-.715,2.329a10.258,10.258,0,0,1-9.417,6.756q-21.419.079-42.838-.008a10.4,10.4,0,0,1-10.094-10.122c-.04-1.353-.018-2.708-.014-4.062.011-4.183,2.571-6.775,6.733-6.778q16-.014,32.006,0c5.457,0,10.919.137,16.371-.046,3.935-.132,6.667,1.21,7.968,5.035Zm-31.48-7.7v.017q-12.254,0-24.508,0c-2.273,0-2.893.638-2.9,2.944,0,1.15-.023,2.3.008,3.448a6.25,6.25,0,0,0,6.224,6.194q21.121.045,42.243,0a6.253,6.253,0,0,0,6.206-6.215c.031-1.149.01-2.3.008-3.448,0-2.3-.626-2.938-2.9-2.939Q103.749,319.032,91.557,319.036Z" transform="translate(-59.95 -272.774)" fill="#db1010"/>
  <path id="Path_12524" data-name="Path 12524" d="M123.057,95.467c-.644.824-1.322,1.574-2.535,1.308a2.106,2.106,0,0,1-1.667-2.381q-.015-7.02,0-14.04c0-3.49.012-6.979,0-10.469A6.333,6.333,0,0,0,112.1,63.2q-20.629-.008-41.259,0a6.3,6.3,0,0,0-6.668,6.627q-.021,12.316,0,24.632c0,1.187-.314,2.131-1.545,2.481a2.067,2.067,0,0,1-2.65-2.21c-.021-4.105-.007-8.211-.007-12.316q0-6.1,0-12.193c0-5.783,2.967-9.587,8.575-11.027a1.112,1.112,0,0,0,.3-.194h45.338c.375.129.745.273,1.125.384a10.36,10.36,0,0,1,7.128,6.646c.253.678.414,1.39.617,2.087Z" transform="translate(-59.97 -59)" fill="#db1010"/>
  <path id="Path_12526" data-name="Path 12526" d="M214.413,134.254a7.354,7.354,0,0,1-7.332-7.361,7.378,7.378,0,1,1,7.332,7.361Zm.091-4.213a3.128,3.128,0,1,0-3.206-3.052A3.158,3.158,0,0,0,214.5,130.042Z" transform="translate(-182.912 -109.584)" fill="#2a2a2a"/>
  <path id="Path_12527" data-name="Path 12527" d="M198.716,228.532a12.711,12.711,0,0,1,9.79,4.764,2.114,2.114,0,1,1-3.184,2.735,8.41,8.41,0,0,0-13.319.034,2.067,2.067,0,0,1-3.039.42,2.117,2.117,0,0,1-.141-3.161A12.61,12.61,0,0,1,198.716,228.532Z" transform="translate(-167.123 -200.684)" fill="#2a2a2a"/>
  <path id="Path_12528" data-name="Path 12528" d="M228.32,366.263q5.416,0,10.833,0c1.584,0,2.5.764,2.521,2.051.018,1.327-.944,2.143-2.582,2.144q-10.894.01-21.789,0c-1.992,0-3.131-1.611-2.254-3.139a2.243,2.243,0,0,1,2.192-1.066C220.934,366.277,224.627,366.263,228.32,366.263Z" transform="translate(-189.321 -315.782)" fill="#2a2a2a"/>
  <path id="Path_12529" data-name="Path 12529" d="M166.359,361.959c0,.41.029.823-.005,1.23a2.007,2.007,0,0,1-1.971,1.967,1.91,1.91,0,0,1-2.1-1.676,11.505,11.505,0,0,1-.03-3.058,1.972,1.972,0,0,1,2.2-1.708,2,2,0,0,1,1.915,2.014c.026.409,0,.82,0,1.23Z" transform="translate(-145.373 -309.477)" fill="#2a2a2a"/>
  <path id="Path_12530" data-name="Path 12530" d="M124.075,361.84c0-.369-.021-.74,0-1.107a2,2,0,0,1,1.913-2.017,1.955,1.955,0,0,1,2.19,1.707,11.869,11.869,0,0,1-.027,3.056,1.894,1.894,0,0,1-2.093,1.677,2,2,0,0,1-1.969-1.964c-.038-.448-.006-.9-.006-1.352Z" transform="translate(-113.535 -309.479)" fill="#2a2a2a"/>
</svg>
