<svg xmlns="http://www.w3.org/2000/svg" width="29.167" height="29.568" viewBox="0 0 29.167 29.568">
  <g id="Icon_zocial-www" data-name="Icon zocial-www" transform="translate(1.999 3.168)">
    <path id="Path_9998" data-name="Path 9998" d="M82.52,111.689a15.162,15.162,0,0,0-14.493,10.4h2.148a12.384,12.384,0,0,1,.8-1.719h4.133a17.413,17.413,0,0,0-.451,1.719h2.094a16.158,16.158,0,0,1,.528-1.719h3.989v1.719h2.021v-1.719H87.6a15.076,15.076,0,0,1,.591,1.719h2.094a16.9,16.9,0,0,0-.505-1.719h4.291a12.377,12.377,0,0,1,.8,1.719h2.143A15.157,15.157,0,0,0,82.52,111.689Zm3.05,2.378a13.168,13.168,0,0,1,7.089,4.278h-3.75A14.18,14.18,0,0,0,85.57,114.067Zm-6.692.149a13.423,13.423,0,0,0-2.978,4.129h-3.52A13.152,13.152,0,0,1,78.879,114.216Zm4.408.65a11.65,11.65,0,0,1,3.262,3.479H83.287Zm-2.021.014v3.465H78.22A10.7,10.7,0,0,1,81.266,114.879Zm-12.634,9.16a.864.864,0,0,0-.505.14.415.415,0,0,0-.2.347,1.334,1.334,0,0,0,.095.424l1.074,3.086c.033.092.07.2.113.307a1.055,1.055,0,0,0,.171.293.705.705,0,0,0,.284.2,1.2,1.2,0,0,0,.451.072,1.032,1.032,0,0,0,.537-.122.737.737,0,0,0,.284-.266,4.855,4.855,0,0,0,.2-.456l.961-2.707.957,2.721c.08.2.143.35.194.447a.715.715,0,0,0,.28.266,1.061,1.061,0,0,0,.541.117,1.045,1.045,0,0,0,.555-.122.727.727,0,0,0,.275-.28,4.475,4.475,0,0,0,.185-.469l1.074-3.086a1.483,1.483,0,0,0,.1-.424.412.412,0,0,0-.208-.347.869.869,0,0,0-.5-.14.8.8,0,0,0-.456.108.618.618,0,0,0-.217.239,2.524,2.524,0,0,0-.122.338l-.758,2.626-.848-2.459a4.593,4.593,0,0,0-.194-.451.775.775,0,0,0-.284-.275,1.08,1.08,0,0,0-.573-.126,1.137,1.137,0,0,0-.573.122.784.784,0,0,0-.3.284,3.276,3.276,0,0,0-.194.447l-.844,2.459-.763-2.644a1.5,1.5,0,0,0-.23-.483.667.667,0,0,0-.555-.185Zm10.392,0a.864.864,0,0,0-.505.14.415.415,0,0,0-.2.347,1.368,1.368,0,0,0,.1.424l1.074,3.086c.033.092.07.2.113.307a1.045,1.045,0,0,0,.167.293.705.705,0,0,0,.284.2,1.2,1.2,0,0,0,.451.072,1.049,1.049,0,0,0,.541-.122.72.72,0,0,0,.28-.266,4.85,4.85,0,0,0,.2-.456l.961-2.707.957,2.721c.08.2.143.35.194.447a.715.715,0,0,0,.28.266,1.061,1.061,0,0,0,.541.117,1.045,1.045,0,0,0,.555-.122.727.727,0,0,0,.275-.28,4.467,4.467,0,0,0,.185-.469l1.074-3.086a1.482,1.482,0,0,0,.1-.424.412.412,0,0,0-.208-.347.869.869,0,0,0-.5-.14.8.8,0,0,0-.456.108.618.618,0,0,0-.217.239,2.521,2.521,0,0,0-.122.338l-.758,2.626-.848-2.459a4.6,4.6,0,0,0-.194-.451.758.758,0,0,0-.28-.275,1.08,1.08,0,0,0-.573-.126,1.156,1.156,0,0,0-.578.122.784.784,0,0,0-.3.284,3.276,3.276,0,0,0-.194.447l-.844,2.459-.763-2.644a1.5,1.5,0,0,0-.226-.483.678.678,0,0,0-.56-.185Zm10.392,0a.863.863,0,0,0-.505.14.415.415,0,0,0-.2.347,1.368,1.368,0,0,0,.1.424l1.074,3.086c.033.092.07.2.113.307a1.044,1.044,0,0,0,.167.293.7.7,0,0,0,.284.2,1.2,1.2,0,0,0,.451.072,1.049,1.049,0,0,0,.541-.122.72.72,0,0,0,.28-.266,4.623,4.623,0,0,0,.2-.456l.957-2.707.957,2.721c.08.2.143.35.194.447a.715.715,0,0,0,.28.266,1.061,1.061,0,0,0,.541.117,1.045,1.045,0,0,0,.555-.122.727.727,0,0,0,.275-.28,4.47,4.47,0,0,0,.185-.469l1.074-3.086a1.483,1.483,0,0,0,.1-.424.407.407,0,0,0-.2-.347.884.884,0,0,0-.505-.14.8.8,0,0,0-.456.108.618.618,0,0,0-.217.239,2.52,2.52,0,0,0-.122.338l-.754,2.626-.853-2.459a4.592,4.592,0,0,0-.194-.451.758.758,0,0,0-.28-.275,1.08,1.08,0,0,0-.573-.126,1.156,1.156,0,0,0-.578.122.784.784,0,0,0-.3.284,3.273,3.273,0,0,0-.194.447l-.844,2.459-.758-2.644a1.5,1.5,0,0,0-.23-.483.678.678,0,0,0-.559-.185ZM67.95,130.595a15.286,15.286,0,0,0,29.14,0H94.956a12.45,12.45,0,0,1-.731,1.683H89.893a17.2,17.2,0,0,0,.465-1.683H88.3a14.129,14.129,0,0,1-.528,1.683H83.287v-1.683H81.266v1.683H77.173a17.1,17.1,0,0,1-.478-1.683H74.619c.116.57.258,1.132.42,1.683H70.815a12.476,12.476,0,0,1-.736-1.683Zm4.192,3.7h3.623a12.836,12.836,0,0,0,2.983,4.4A13.123,13.123,0,0,1,72.142,134.3Zm5.875,0h3.249v3.777A9.63,9.63,0,0,1,78.017,134.3Zm5.27,0h3.474a11.07,11.07,0,0,1-3.474,3.682Zm5.8,0H92.9a13.147,13.147,0,0,1-7.427,4.607A13.608,13.608,0,0,0,89.085,134.3Z" transform="translate(-69.922 -114.857)" fill="#dd1928"/>
  </g>
</svg>
