<svg xmlns="http://www.w3.org/2000/svg" xmlns:xlink="http://www.w3.org/1999/xlink" width="602.338" height="480.966" viewBox="0 0 602.338 480.966">
  <defs>
    <radialGradient id="radial-gradient" cx="0.5" cy="0.5" r="0.946" gradientTransform="translate(0.167 0.188) scale(0.667 0.624)" gradientUnits="objectBoundingBox">
      <stop offset="0" stop-color="#fff"/>
      <stop offset="1" stop-color="#f2f2f2"/>
    </radialGradient>
    <linearGradient id="linear-gradient" x1="0.554" y1="-0.085" x2="0.378" y2="1.834" gradientUnits="objectBoundingBox">
      <stop offset="0" stop-color="#5f5f5f"/>
      <stop offset="1"/>
    </linearGradient>
    <linearGradient id="linear-gradient-2" x1="13.432" y1="-23.03" x2="14.963" y2="-20.203" gradientUnits="objectBoundingBox">
      <stop offset="0" stop-color="#ff87a7"/>
      <stop offset="1" stop-color="#ff4778"/>
    </linearGradient>
    <linearGradient id="linear-gradient-3" x1="12.38" y1="-27.645" x2="13.91" y2="-24.817" gradientUnits="objectBoundingBox">
      <stop offset="0" stop-color="#9d62f5"/>
      <stop offset="1" stop-color="#6049cd"/>
    </linearGradient>
    <linearGradient id="linear-gradient-4" x1="17.103" y1="-30.992" x2="18.634" y2="-28.165" xlink:href="#linear-gradient-2"/>
    <linearGradient id="linear-gradient-5" x1="6.083" y1="-9.603" x2="6.083" y2="-8.61" gradientUnits="objectBoundingBox">
      <stop offset="0" stop-color="#ff769b"/>
      <stop offset="1" stop-color="#ff769b" stop-opacity="0"/>
    </linearGradient>
    <linearGradient id="linear-gradient-6" y1="0.5" x2="1" y2="0.5" gradientUnits="objectBoundingBox">
      <stop offset="0" stop-color="#a374f7"/>
      <stop offset="1" stop-color="#6049cd"/>
    </linearGradient>
    <linearGradient id="linear-gradient-7" x1="15.814" y1="-30.285" x2="16.073" y2="-29.178" xlink:href="#linear-gradient-3"/>
    <linearGradient id="linear-gradient-8" x1="16.136" y1="-32.447" x2="16.342" y2="-31.311" xlink:href="#linear-gradient-2"/>
    <linearGradient id="linear-gradient-9" x1="5.323" y1="-25.831" x2="5.971" y2="-25.831" xlink:href="#linear-gradient-2"/>
    <linearGradient id="linear-gradient-10" x1="8.418" y1="-24.517" x2="8.812" y2="-23.45" xlink:href="#linear-gradient-3"/>
  </defs>
  <g id="mobile-serv" transform="translate(-720 -1195.806)">
    <g id="mobile-serv-2" data-name="mobile-serv" transform="translate(720.176 1292.434)">
      <g id="BACKGROUND" transform="translate(0 -96.844)">
        <g id="Group_11148" data-name="Group 11148" transform="translate(-0.176)">
          <rect id="Rectangle_1077" data-name="Rectangle 1077" width="585" height="473.429" transform="translate(0 0.216)" fill="url(#radial-gradient)"/>
          <path id="Path_29769" data-name="Path 29769" d="M516.678,374.945c-74.6-43.069-195.142-43.069-269.255,0-35.953,20.894-54.369,48.086-55.287,75.465h74c.96-16.411,12.2-32.642,33.758-45.17,45.319-26.336,119.033-26.34,164.653,0,21.7,12.529,33.123,28.76,34.264,45.172h74C571.588,423.032,552.867,395.839,516.678,374.945Z" transform="translate(12.187 23.234)" fill="#e7e7e7"/>
          <path id="Path_29770" data-name="Path 29770" d="M410.55,0c-1.337,9.621-6.385,18.939-15.15,26.323-20.777,17.5-54.572,17.5-75.484,0C311.092,18.941,305.972,9.622,304.561,0H270.5c1.537,16.93,10.044,33.512,25.513,46.458,34.2,28.618,89.464,28.617,123.44,0C434.824,33.51,443.2,16.928,444.608,0Z" transform="translate(140.392 0.216)" fill="#dd1928"/>
        </g>
      </g>
      <g id="OBJECTS" transform="translate(-19.424 -53.954)">
        <g id="Group_11194" data-name="Group 11194" transform="translate(65.966 58.598)">
          <g id="Group_11153" data-name="Group 11153" transform="translate(50.078 16.826)">
            <path id="Path_29772" data-name="Path 29772" d="M603.947,320.9c8.015,4.628,8.058,12.129.094,16.758L480.1,409.682c-7.956,4.624-20.906,4.624-28.921,0L200.49,264.942c-8.015-4.628-8.058-12.129-.1-16.751L324.33,176.163c7.964-4.627,20.913-4.627,28.929,0Z" transform="translate(-194.445 -140.281)" fill="#cfd2e3" style="mix-blend-mode: multiply;isolation: isolate"/>
            <path id="Path_29773" data-name="Path 29773" d="M603.947,291.337c8.015,4.628,8.058,12.128.094,16.757L480.1,380.121c-7.956,4.624-20.906,4.624-28.921,0L200.49,235.382c-8.015-4.628-8.058-12.129-.1-16.753L324.33,146.6c7.964-4.627,20.913-4.627,28.929,0Z" transform="translate(-194.445 -143.132)" fill="#393939"/>
            <path id="Path_29774" data-name="Path 29774" d="M604.042,300.722,480.1,372.749c-7.956,4.624-20.906,4.624-28.921,0L200.491,228.01c-4.035-2.33-6.049-5.387-6.041-8.438-.015,5.942.018,11.845,0,17.787-.009,3.053,2.006,6.109,6.04,8.438L451.129,390.568c8.014,4.628,20.964,4.628,28.921,0l123.991-72.091c3.957-2.3,5.936-5.308,5.945-8.321V292.4C609.98,295.414,608,298.422,604.042,300.722Z" transform="translate(-194.445 -135.76)" fill="#353535"/>
            <path id="Path_29775" data-name="Path 29775" d="M604.041,300.722,480.1,372.749c-7.956,4.624-20.906,4.624-28.921,0L200.49,228.01c-4.035-2.33-6.049-5.387-6.041-8.438,0,.361,0,.72,0,1.081,0,3.046,2.013,6.1,6.039,8.423L451.129,373.847c8.014,4.628,20.964,4.628,28.921,0l123.991-72.092c3.957-2.3,5.936-5.307,5.945-8.321V292.4C609.98,295.414,608,298.422,604.041,300.722Z" transform="translate(-194.445 -135.76)" fill="#444446"/>
            <path id="Path_29776" data-name="Path 29776" d="M595.789,295.027c3.981,2.3,3.994,6.033.045,8.326L471.893,375.381a15.838,15.838,0,0,1-14.367,0L206.838,230.642c-3.976-2.295-4-6.026-.055-8.322l123.942-72.027a15.866,15.866,0,0,1,14.375,0Z" transform="translate(-193.539 -142.607)" fill="url(#linear-gradient)"/>
            <g id="Group_11150" data-name="Group 11150" transform="translate(29.31 23.126)">
              <path id="Path_29777" data-name="Path 29777" d="M530.644,278.973,427.885,338.69c-6.383,3.708-6.346,9.721.076,13.428s16.8,3.708,23.182,0L553.9,292.4c6.382-3.709,6.347-9.722-.075-13.429s-16.8-3.707-23.184,0" transform="translate(-201.7 -153.425)" fill="#fff"/>
              <path id="Path_29778" data-name="Path 29778" d="M445.2,335.987a.28.28,0,0,0,0,.527l2.891,1.669a.327.327,0,0,1,0,.616l-5.435,3.158a1.183,1.183,0,0,1-1.064,0l-2.893-1.669a1.011,1.011,0,0,0-.908,0,.276.276,0,0,0,0,.522l2.882,1.673a3.2,3.2,0,0,0,2.89,0L449,339.327a.883.883,0,0,0-.01-1.67l-2.89-1.67a1.018,1.018,0,0,0-.9,0" transform="translate(-200.303 -147.668)" fill="#7652dc"/>
              <path id="Path_29779" data-name="Path 29779" d="M436.125,335.04a1.1,1.1,0,0,0-.648.92l.031,5.632c-.007.205.281.37.64.37a.9.9,0,0,0,.455-.105.315.315,0,0,0,.182-.264l-.031-5.632a.49.49,0,0,1,.282-.394,1.382,1.382,0,0,1,.673-.161h9.723a.926.926,0,0,0,.457-.11.324.324,0,0,0,.187-.265c.007-.2-.288-.375-.639-.369l-9.735-.006a3.285,3.285,0,0,0-1.578.385" transform="translate(-200.509 -147.786)" fill="#7652dc"/>
              <path id="Path_29780" data-name="Path 29780" d="M466.091,317.837a4.483,4.483,0,0,0-2.471,3.025,2.939,2.939,0,0,0,1.759,2.908,9.614,9.614,0,0,0,5.312.994l1.3.953a.956.956,0,0,0,.591.145,1.05,1.05,0,0,0,.381-.114.436.436,0,0,0,.124-.105l1.362-1.737a9.7,9.7,0,0,0,1.163-.567,4.5,4.5,0,0,0,2.479-3.031,2.948,2.948,0,0,0-1.76-2.907,6.857,6.857,0,0,0-1.527-.636,1.059,1.059,0,0,1-.317.75,5.369,5.369,0,0,1,.931.417,2.325,2.325,0,0,1,1.388,2.315,3.828,3.828,0,0,1-2.106,2.565,8.772,8.772,0,0,1-1.11.531l-.228.152-1.016,1.284-.88-.649a.96.96,0,0,0-.623-.133,7.825,7.825,0,0,1-4.562-.753,2.324,2.324,0,0,1-1.38-2.319,3.807,3.807,0,0,1,2.1-2.56,9.188,9.188,0,0,1,2.649-1,.98.98,0,0,1-.186-.755,10.941,10.941,0,0,0-3.373,1.224" transform="translate(-197.796 -149.526)" fill="#c1c6de"/>
              <path id="Path_29781" data-name="Path 29781" d="M501.5,307.552l-7.636-4.41,6.461-3.754,7.641,4.411-4.962.6a.842.842,0,0,0-.319.1.382.382,0,0,0-.178.19l-1.008,2.868m-1.638-8.953-7.366,4.283a.329.329,0,0,0-.186.26.352.352,0,0,0,.2.266l8.936,5.158a1.011,1.011,0,0,0,.639.1.808.808,0,0,0,.269-.092.343.343,0,0,0,.17-.194l1.169-3.3,5.7-.687a.83.83,0,0,0,.331-.1.343.343,0,0,0,.15-.151.285.285,0,0,0-.156-.375l-.457.265.457-.265-8.937-5.159a.935.935,0,0,0-.467-.11.925.925,0,0,0-.45.11" transform="translate(-195.028 -151.274)" fill="#c1c6de"/>
              <path id="Path_29782" data-name="Path 29782" d="M531.342,283.069l-.45.261-.456.265a1.3,1.3,0,0,1,.013,2.447,8.553,8.553,0,0,1,2.107-.851c.192-.751-.213-1.544-1.215-2.123m-6.041,0c-1.663.967-1.649,2.537.02,3.5a6.447,6.447,0,0,0,3.666.7,5.046,5.046,0,0,1,1.463-1.223,4.668,4.668,0,0,1-4.223,0,1.3,1.3,0,0,1-.016-2.447,4.69,4.69,0,0,1,4.226,0l.456-.265.45-.261a6.669,6.669,0,0,0-6.041,0" transform="translate(-191.965 -152.831)" fill="#c1c6de"/>
              <path id="Path_29783" data-name="Path 29783" d="M530.073,285.825a5.043,5.043,0,0,0-1.463,1.223c-1.211,1.549-.707,3.443,1.5,4.718a.987.987,0,0,0,.9,0,.279.279,0,0,0,0-.527,2.991,2.991,0,0,1-1.766-2.445,2.95,2.95,0,0,1,1.732-2.442,8.59,8.59,0,0,1,4.216-1.015,8.678,8.678,0,0,1,4.232,1.015.989.989,0,0,0,.9,0c.254-.147.253-.385,0-.526a11.455,11.455,0,0,0-8.156-.851,8.545,8.545,0,0,0-2.107.851" transform="translate(-191.588 -152.614)" fill="#c1c6de"/>
              <path id="Path_29784" data-name="Path 29784" d="M469.714,315.8a1.44,1.44,0,0,0-.764.933.981.981,0,0,0,.186.755,1.882,1.882,0,0,0,.591.512,4.174,4.174,0,0,0,3.789,0,1.946,1.946,0,0,0,.462-.361,1.059,1.059,0,0,0,.317-.75,1.351,1.351,0,0,0-.791-1.08,4.17,4.17,0,0,0-3.79-.005" transform="translate(-197.282 -149.648)" fill="#ff648d"/>
              <path id="Path_29785" data-name="Path 29785" d="M355.265,164.334,229.4,237.481c-.253.147-.242.379.011.526a.993.993,0,0,0,.9,0L356.177,164.86a.279.279,0,0,0,0-.526,1.008,1.008,0,0,0-.917,0" transform="translate(-220.402 -164.223)" fill="#fff"/>
              <g id="Group_11149" data-name="Group 11149" transform="translate(0 57.585)">
                <path id="Path_29786" data-name="Path 29786" d="M230.124,216.849a1,1,0,0,0-.908,0l-7.856,4.567a.276.276,0,0,0,0,.521,1,1,0,0,0,.909.006l7.857-4.567A.281.281,0,0,0,230.124,216.849Z" transform="translate(-221.177 -216.743)" fill="#fff"/>
                <path id="Path_29787" data-name="Path 29787" d="M232.9,218.454a1.008,1.008,0,0,0-.917,0l-7.857,4.566c-.245.144-.243.38.012.526a1,1,0,0,0,.9,0l7.856-4.566C233.153,218.833,233.151,218.6,232.9,218.454Z" transform="translate(-220.909 -216.589)" fill="#fff"/>
                <path id="Path_29788" data-name="Path 29788" d="M235.676,220.054a1.011,1.011,0,0,0-.917,0L226.9,224.62c-.246.141-.243.379.01.526a1.006,1.006,0,0,0,.909,0l7.857-4.567C235.932,220.439,235.931,220.2,235.676,220.054Z" transform="translate(-220.642 -216.434)" fill="#fff"/>
              </g>
            </g>
            <g id="Group_11151" data-name="Group 11151" transform="translate(302.745 178.975)">
              <path id="Path_29789" data-name="Path 29789" d="M472.531,355.45a4.347,4.347,0,0,0-1.971,3.417c0,1.254.893,1.762,1.983,1.132a4.329,4.329,0,0,0,1.965-3.413C474.5,355.329,473.624,354.819,472.531,355.45Z" transform="translate(-470.56 -301.657)" fill="#4b4b4b"/>
              <path id="Path_29790" data-name="Path 29790" d="M481.512,350.265a4.344,4.344,0,0,0-1.965,3.411c0,1.255.892,1.762,1.978,1.137A4.349,4.349,0,0,0,483.5,351.4C483.493,350.14,482.6,349.634,481.512,350.265Z" transform="translate(-469.693 -302.157)" fill="#4b4b4b"/>
              <path id="Path_29791" data-name="Path 29791" d="M490.5,345.075a4.334,4.334,0,0,0-1.965,3.412c0,1.257.886,1.767,1.979,1.136a4.351,4.351,0,0,0,1.973-3.417C492.481,344.952,491.592,344.444,490.5,345.075Z" transform="translate(-468.826 -302.657)" fill="#4b4b4b"/>
              <path id="Path_29792" data-name="Path 29792" d="M539.1,317.015a4.336,4.336,0,0,0-1.964,3.412c0,1.254.893,1.762,1.976,1.137a4.335,4.335,0,0,0,1.973-3.419C541.084,316.891,540.2,316.38,539.1,317.015Z" transform="translate(-464.139 -305.364)" fill="#4b4b4b"/>
              <path id="Path_29793" data-name="Path 29793" d="M548.09,311.826a4.332,4.332,0,0,0-1.966,3.411c0,1.257.887,1.767,1.979,1.137a4.354,4.354,0,0,0,1.971-3.417C550.071,311.7,549.182,311.2,548.09,311.826Z" transform="translate(-463.272 -305.864)" fill="#4b4b4b"/>
              <path id="Path_29794" data-name="Path 29794" d="M557.076,306.636a4.332,4.332,0,0,0-1.964,3.413c0,1.254.887,1.766,1.979,1.135a4.358,4.358,0,0,0,1.973-3.417C559.059,306.513,558.17,306,557.076,306.636Z" transform="translate(-462.405 -306.365)" fill="#4b4b4b"/>
              <path id="Path_29795" data-name="Path 29795" d="M522.2,326.557l-13.46,7.771a6.343,6.343,0,0,0-2.874,4.985c.005,1.831,1.3,2.579,2.893,1.659l13.46-7.773a6.345,6.345,0,0,0,2.88-4.99C525.094,326.378,523.8,325.633,522.2,326.557Z" transform="translate(-467.155 -304.455)" fill="#4b4b4b"/>
            </g>
            <g id="Group_11152" data-name="Group 11152" transform="translate(41.489 120.986)">
              <path id="Path_29796" data-name="Path 29796" d="M280.523,280.1l-17.474-10.086c-1.535-.888-2.782-.175-2.785,1.587a6.126,6.126,0,0,0,2.766,4.808L280.5,286.492c1.534.885,2.782.163,2.786-1.6A6.1,6.1,0,0,0,280.523,280.1Z" transform="translate(-229.587 -251.918)" fill="#4b4b4b"/>
              <path id="Path_29797" data-name="Path 29797" d="M252.545,263.944l-17.474-10.087c-1.534-.886-2.782-.174-2.786,1.588a6.12,6.12,0,0,0,2.769,4.808l17.473,10.086c1.534.886,2.782.164,2.786-1.6A6.108,6.108,0,0,0,252.545,263.944Z" transform="translate(-232.285 -253.475)" fill="#4b4b4b"/>
            </g>
          </g>
          <g id="Group_11157" data-name="Group 11157" transform="translate(172.245)">
            <path id="Path_29798" data-name="Path 29798" d="M624.249,262.774V257.6L574.2,253.964v5.13h0c-.2,2.145,1.272,4.455,4.356,6.235l13.223,7.633c5.3,3.061,13.325,3.395,17.916.743l11.452-6.612C623.162,265.935,624.182,264.4,624.249,262.774Z" transform="translate(-574.186 -241.495)" fill="#f2527c"/>
            <g id="Group_11156" data-name="Group 11156" transform="translate(0)">
              <path id="Path_29799" data-name="Path 29799" d="M619.873,252.758c5.3,3.061,5.881,7.694,1.289,10.344l-11.452,6.612c-4.592,2.652-12.614,2.317-17.914-.745l-13.222-7.632c-5.3-3.061-5.88-7.692-1.29-10.343l11.454-6.613c4.593-2.651,12.614-2.319,17.914.742Z" transform="translate(-574.186 -242.591)" fill="url(#linear-gradient-2)"/>
              <g id="Group_11155" data-name="Group 11155" transform="translate(14.882 8.594)">
                <path id="Path_29800" data-name="Path 29800" d="M608.773,255.818c1.016.586,1.124,1.476.245,1.981l-8.493,4.9a3.82,3.82,0,0,1-3.433-.141l-8.493-4.9c-1.016-.587-1.128-1.473-.246-1.982l8.5-4.9a3.821,3.821,0,0,1,3.433.141Z" transform="translate(-587.759 -250.429)" fill="none" stroke="#fff" stroke-linecap="round" stroke-linejoin="round" stroke-width="1"/>
                <line id="Line_148" data-name="Line 148" y1="6.744" x2="11.68" transform="translate(3.396 1.961)" fill="none" stroke="#fff" stroke-linecap="round" stroke-linejoin="round" stroke-width="1"/>
                <g id="Group_11154" data-name="Group 11154" transform="translate(0.291 0.17)">
                  <line id="Line_149" data-name="Line 149" x1="2.829" y1="1.632" transform="translate(0 3.471)" fill="none" stroke="#fff" stroke-linecap="round" stroke-linejoin="round" stroke-width="1"/>
                  <line id="Line_150" data-name="Line 150" x1="2.829" y1="1.632" transform="translate(6.013)" fill="none" stroke="#fff" stroke-linecap="round" stroke-linejoin="round" stroke-width="1"/>
                </g>
              </g>
            </g>
          </g>
          <g id="Group_11160" data-name="Group 11160" transform="translate(386.381 114.111)">
            <path id="Path_29801" data-name="Path 29801" d="M408.017,86.263V81.087l-50.048-3.634v5.129h.005c-.2,2.145,1.271,4.456,4.355,6.237l13.223,7.633c5.3,3.061,13.323,3.395,17.916.742l11.454-6.61C406.932,89.424,407.951,87.885,408.017,86.263Z" transform="translate(-357.956 -64.985)" fill="#f9b146"/>
            <g id="Group_11159" data-name="Group 11159">
              <path id="Path_29802" data-name="Path 29802" d="M403.647,76.248c5.3,3.061,5.877,7.692,1.285,10.344L393.481,93.2c-4.592,2.651-12.613,2.319-17.916-.742l-13.222-7.635c-5.3-3.061-5.879-7.69-1.287-10.342l11.453-6.613c4.59-2.651,12.612-2.32,17.915.743Z" transform="translate(-357.956 -66.081)" fill="#f9d967"/>
              <g id="Group_11158" data-name="Group 11158" transform="translate(17.022 9.828)">
                <path id="Path_29803" data-name="Path 29803" d="M381.337,75.992c1.98,1.142,2.2,2.875.48,3.866a7.447,7.447,0,0,1-6.7-.277c-1.981-1.146-2.2-2.875-.482-3.867A7.441,7.441,0,0,1,381.337,75.992Z" transform="translate(-373.481 -75.045)" fill="none" stroke="#fff" stroke-linecap="round" stroke-linejoin="round" stroke-width="1"/>
                <path id="Path_29804" data-name="Path 29804" d="M382.146,86.585c-3.611-2.084-4-5.238-.876-7.042s8.59-1.58,12.2.5" transform="translate(-372.933 -74.728)" fill="none" stroke="#fff" stroke-linecap="round" stroke-linejoin="round" stroke-width="1"/>
              </g>
            </g>
          </g>
          <g id="Group_11163" data-name="Group 11163" transform="translate(239.484 274.449)">
            <path id="Path_29805" data-name="Path 29805" d="M417.254,398.276V393.1L367.2,389.465V394.6h.005c-.2,2.144,1.271,4.455,4.357,6.234l13.221,7.635c5.3,3.061,13.325,3.395,17.917.743l11.452-6.613C416.166,401.437,417.186,399.9,417.254,398.276Z" transform="translate(-367.19 -376.998)" fill="#52359c"/>
            <g id="Group_11162" data-name="Group 11162" transform="translate(0)">
              <path id="Path_29806" data-name="Path 29806" d="M412.881,388.259c5.3,3.061,5.881,7.694,1.285,10.345l-11.45,6.612c-4.592,2.651-12.613,2.318-17.916-.742l-13.223-7.633c-5.3-3.063-5.878-7.693-1.285-10.345l11.452-6.612c4.59-2.649,12.612-2.319,17.916.742Z" transform="translate(-367.19 -378.094)" fill="url(#linear-gradient-3)"/>
              <g id="Group_11161" data-name="Group 11161" transform="translate(16.921 10.419)">
                <line id="Line_151" data-name="Line 151" x1="12.687" y1="7.326" transform="translate(0 1.398)" fill="none" stroke="#fff" stroke-linecap="round" stroke-linejoin="round" stroke-width="1"/>
                <path id="Path_29807" data-name="Path 29807" d="M382.623,389l10.259-1.4-2.422,5.924Z" transform="translate(-382.623 -387.597)" fill="none" stroke="#fff" stroke-linecap="round" stroke-linejoin="round" stroke-width="1"/>
              </g>
            </g>
          </g>
          <g id="Group_11165" data-name="Group 11165" transform="translate(0 114.111)">
            <path id="Path_29808" data-name="Path 29808" d="M206.748,271.518v-5.176L156.7,262.708v5.13h.005c-.2,2.145,1.271,4.455,4.356,6.236l13.222,7.633c5.3,3.061,13.325,3.395,17.916.743l11.453-6.611C205.661,274.679,206.681,273.14,206.748,271.518Z" transform="translate(-156.674 -250.24)" fill="#f2527c"/>
            <g id="Group_11164" data-name="Group 11164">
              <path id="Path_29809" data-name="Path 29809" d="M202.366,261.5c5.3,3.061,5.879,7.692,1.286,10.344l-11.453,6.61c-4.591,2.651-12.613,2.318-17.916-.742l-13.222-7.633c-5.3-3.061-5.878-7.692-1.286-10.343l11.45-6.613c4.594-2.651,12.616-2.319,17.918.743Z" transform="translate(-156.675 -251.337)" fill="url(#linear-gradient-4)"/>
              <path id="Path_29810" data-name="Path 29810" d="M172.5,260.475c-2.838,1.637-2.481,4.5.794,6.389a13.11,13.11,0,0,0,8.229,1.4l6.71,1.292L186,265.686c.753-1.544-.086-3.4-2.432-4.751C180.294,259.043,175.341,258.837,172.5,260.475Zm7.872,4.545a4.027,4.027,0,0,1-3.624-.149c-1.073-.621-1.191-1.557-.261-2.093a4.031,4.031,0,0,1,3.623.149C181.187,263.546,181.3,264.484,180.377,265.02Z" transform="translate(-155.333 -250.562)" fill="none" stroke="#fff" stroke-linecap="round" stroke-linejoin="round" stroke-width="1"/>
            </g>
          </g>
          <g id="Group_11196" data-name="Group 11196" transform="translate(132.232 60.579)">
            <path id="Path_29811" data-name="Path 29811" d="M593.342,139.811c7.716,4.455,9.313,10.756,3.566,14.074L493.487,213.6c-5.75,3.319-16.663,2.4-24.379-2.058L363.045,150.3c-7.715-4.455-9.312-10.756-3.563-14.075L462.9,76.516c5.745-3.318,16.659-2.4,24.375,2.059Z" transform="translate(-356.03 -74.524)" fill="#fff"/>
            <g id="Group_11166" data-name="Group 11166" transform="translate(27.298 36.232)">
              <path id="Path_29812" data-name="Path 29812" d="M517.348,107.569c-10.714,6.186-2.975,13.946-13.2,17.121-13.808,4.288-40.772-11.188-49.486-3.833-8.666,7.314,28.474,28.786,21.1,36.9-7.3,8.031-19.882,1.681-28.612,8.21-9.311,6.963,8.823,17.455-1.882,23.636l18.623,10.751,107.083-61.825Z" transform="translate(-374.806 -107.569)" opacity="0.5" fill="url(#linear-gradient-5)"/>
              <path id="Path_29813" data-name="Path 29813" d="M445.269,189.607c10.7-6.181-7.429-16.673,1.882-23.636,8.73-6.529,21.313-.179,28.612-8.21,7.375-8.118-29.765-29.59-21.1-36.9,8.714-7.355,35.678,8.121,49.486,3.833,10.224-3.175,2.485-10.935,13.2-17.121" transform="translate(-374.806 -107.569)" fill="none" stroke="#6049cd" stroke-linecap="round" stroke-miterlimit="10" stroke-width="0.75"/>
              <path id="Path_29814" data-name="Path 29814" d="M380.927,146.2l89.086,51.433L577.1,135.809" transform="translate(-380.927 -104.845)" fill="none" stroke="#e7e9f5" stroke-linecap="round" stroke-miterlimit="10" stroke-width="0.75"/>
            </g>
            <g id="Group_11167" data-name="Group 11167" transform="translate(69.21 26.822)">
              <path id="Path_29815" data-name="Path 29815" d="M444.139,100.212l-22.864,13.2c-3.534,2.039-2.553,5.913,2.191,8.652s11.452,3.3,14.986,1.265l9.861-5.694,5.221,1.2-2.082-3.013,9.864-5.695c3.532-2.038,2.551-5.913-2.193-8.651S447.67,98.172,444.139,100.212Z" transform="translate(-419.153 -98.987)" fill="url(#linear-gradient-6)"/>
              <text id="_127" data-name="127" transform="translate(22.388 13.816) rotate(-45)" fill="#fff" font-size="6" font-family="SegoeUI, Segoe UI"><tspan x="-4.852" y="0">127</tspan></text>
            </g>
          </g>
          <g id="Group_11185" data-name="Group 11185" transform="translate(264.523 16.826)">
            <path id="Path_29818" data-name="Path 29818" d="M385.8,360.26c7.715,4.456,8.554,11.195,1.871,15.052L247.6,456.186c-6.683,3.86-18.357,3.376-26.073-1.08l-35.63-20.572c-7.716-4.454-8.554-11.194-1.871-15.052L324.1,338.608c6.681-3.858,18.354-3.374,26.07,1.08Z" transform="translate(-179.512 -336.003)" fill="#fff"/>
            <g id="Group_11184" data-name="Group 11184" transform="translate(33.167 19.148)">
              <g id="Group_11177" data-name="Group 11177" transform="translate(0 56.629)">
                <path id="Path_29819" data-name="Path 29819" d="M252.141,429.583c-8.715,5.031-23.991,4.4-34.054-1.412s-11.157-14.63-2.444-19.66,23.987-4.4,34.05,1.412S260.853,424.553,252.141,429.583Zm-29.92-17.276c-5.572,3.218-4.871,8.858,1.564,12.574s16.2,4.12,21.776.9,4.869-8.856-1.566-12.572S227.793,409.091,222.221,412.308Z" transform="translate(-209.761 -405.115)" fill="#e7e9f5"/>
              </g>
              <g id="Group_11178" data-name="Group 11178" transform="translate(49.04 28.314)">
                <path id="Path_29820" data-name="Path 29820" d="M296.869,403.758c-8.716,5.033-23.992,4.4-34.056-1.411s-11.159-14.628-2.444-19.66,23.99-4.4,34.053,1.411S305.583,398.729,296.869,403.758Zm-29.921-17.272c-5.573,3.216-4.873,8.857,1.562,12.572s16.205,4.12,21.779.9,4.872-8.859-1.562-12.575S272.521,383.267,266.948,386.486Z" transform="translate(-254.487 -379.291)" fill="#e7e9f5"/>
              </g>
              <g id="Group_11179" data-name="Group 11179" transform="translate(98.083)">
                <path id="Path_29821" data-name="Path 29821" d="M341.6,377.934c-8.717,5.033-23.993,4.4-34.057-1.411s-11.158-14.629-2.443-19.66,23.988-4.4,34.051,1.412S350.311,372.9,341.6,377.934Zm-29.921-17.276c-5.574,3.219-4.873,8.859,1.562,12.575s16.205,4.12,21.779.9,4.868-8.855-1.567-12.571S317.25,357.443,311.678,360.659Z" transform="translate(-299.217 -353.467)" fill="#e7e9f5"/>
              </g>
              <g id="Group_11180" data-name="Group 11180" transform="translate(4.819 56.629)">
                <path id="Path_29822" data-name="Path 29822" d="M251.717,429.583c-8.715,5.031-23.991,4.4-34.054-1.412-1.817-1.049-2.015-2.636-.441-3.544a6.824,6.824,0,0,1,6.139.254c6.434,3.716,16.2,4.12,21.776.9s4.869-8.856-1.566-12.572-16.2-4.122-21.774-.9a6.822,6.822,0,0,1-6.138-.253c-1.816-1.049-2.015-2.636-.441-3.544,8.713-5.03,23.987-4.4,34.05,1.412S260.429,424.553,251.717,429.583Z" transform="translate(-214.156 -405.115)" fill="url(#linear-gradient-7)"/>
              </g>
              <g id="Group_11181" data-name="Group 11181" transform="translate(53.86 28.314)">
                <path id="Path_29823" data-name="Path 29823" d="M296.445,403.758a6.817,6.817,0,0,1-6.139-.253c-1.816-1.048-2.014-2.635-.441-3.543,5.573-3.219,4.872-8.859-1.562-12.575s-16.205-4.12-21.779-.9a6.822,6.822,0,0,1-6.138-.255c-1.816-1.048-2.015-2.634-.441-3.544,8.716-5.03,23.99-4.4,34.053,1.411S305.16,398.729,296.445,403.758Z" transform="translate(-258.883 -379.291)" fill="url(#linear-gradient-8)"/>
              </g>
              <g id="Group_11183" data-name="Group 11183" transform="translate(102.904)">
                <g id="Group_11182" data-name="Group 11182">
                  <path id="Path_29824" data-name="Path 29824" d="M339.166,361.819a6.818,6.818,0,0,1-6.138-.254c-6.435-3.716-16.2-4.122-21.774-.906a6.821,6.821,0,0,1-6.138-.252c-1.816-1.049-2.015-2.636-.441-3.544,8.713-5.03,23.988-4.4,34.051,1.412C340.541,359.324,340.741,360.91,339.166,361.819Z" transform="translate(-303.613 -353.467)" fill="#f9d967"/>
                </g>
              </g>
            </g>
          </g>
          <g id="Group_11187" data-name="Group 11187" transform="translate(17.272 131.111)">
            <path id="Path_29825" data-name="Path 29825" d="M310.686,323.152c5.277,3.046,5.848,7.653,1.28,10.292l-82.22,47.469c-4.57,2.639-12.55,2.307-17.826-.738L139.4,338.308c-5.275-3.046-5.848-7.653-1.278-10.291l82.221-47.471c4.569-2.637,12.549-2.306,17.826.74Z" transform="translate(-135.04 -278.767)" fill="#fff"/>
            <g id="Group_11186" data-name="Group 11186" transform="translate(55.781 32.203)">
              <path id="Path_29826" data-name="Path 29826" d="M243.57,339.6l35.085-20.257c-23.469-13.55-58.971-15.021-79.294-3.286a30.173,30.173,0,0,0-10.614,9.625Z" transform="translate(-185.641 -308.137)" fill="url(#linear-gradient-9)"/>
              <path id="Path_29827" data-name="Path 29827" d="M187.843,326.025c-5.421,11.073.647,24.369,17.484,34.091L241,339.521Z" transform="translate(-185.915 -306.412)" fill="url(#linear-gradient-10)"/>
            </g>
            <path id="Path_29828" data-name="Path 29828" d="M265.1,333.977a24.58,24.58,0,0,0-6.795-5.545c-11.877-6.857-29.841-7.6-40.127-1.664s-9,16.311,2.881,23.168a40.709,40.709,0,0,0,9.606,3.922Z" transform="translate(-127.691 -274.524)" fill="#fff"/>
            <text id="_40" data-name="40" transform="translate(113.112 66.339) rotate(-45)" fill="#5f616e" font-size="8" font-family="SegoeUI, Segoe UI"><tspan x="-4.313" y="0">40</tspan></text>
            <text id="Graphic" transform="translate(18.005 55.228) rotate(-45)" fill="#5f616e" font-size="3" font-family="SegoeUI, Segoe UI"><tspan x="0" y="0">Graphic</tspan></text>
          </g>
        </g>
      </g>
    </g>
    <g id="Group_11197" data-name="Group 11197" transform="translate(720 1525.604)">
      <g id="Group_40" data-name="Group 40" transform="translate(0 91.951)">
        <path id="Path_3369" data-name="Path 3369" d="M51.681,0V23.924l-1.6,10.417L48.24,46.354H0v-.562C0,20.513,25.038,0,51.681,0Z" transform="translate(46.361 0) rotate(90)" fill="#dd1928"/>
        <path id="Path_30" data-name="Path 30" d="M0,489.875l.007-30.353h0c12.431,0,22.508,12.7,22.508,27.56v2.793Z" transform="translate(0 -438.195)" fill="#edeff7"/>
      </g>
      <path id="Path_801" data-name="Path 801" d="M0,0H0A46.332,46.332,0,0,1,46.332,46.332H0Z" transform="translate(46.339 45.619) rotate(90)" fill="#101010"/>
      <path id="Path_802" data-name="Path 802" d="M0,46.332H0A46.332,46.332,0,0,0,46.332,0H0Z" transform="translate(0.007 46.332) rotate(-90)" fill="#101010"/>
      <g id="Group_38" data-name="Group 38" transform="translate(56.377 122.13)">
        <g id="Group_22" data-name="Group 22">
          <path id="Path_46" data-name="Path 46" d="M102.606,486.886a1.489,1.489,0,1,0-1.052-.436,1.5,1.5,0,0,0,1.052.436" transform="translate(-101.118 -477.795)"/>
          <path id="Path_47" data-name="Path 47" d="M124.144,486.886h.008a1.488,1.488,0,1,0,0-2.977h-.008a1.488,1.488,0,1,0,0,2.977Z" transform="translate(-107.311 -477.795)"/>
          <path id="Path_48" data-name="Path 48" d="M113.373,486.886h.007a1.488,1.488,0,1,0,0-2.977h-.007a1.488,1.488,0,1,0,0,2.977Z" transform="translate(-104.214 -477.795)"/>
          <path id="Path_49" data-name="Path 49" d="M134.921,486.886a1.488,1.488,0,1,0-1.053-.436,1.5,1.5,0,0,0,1.053.436" transform="translate(-110.409 -477.795)"/>
          <path id="Path_50" data-name="Path 50" d="M102.606,478.3a1.489,1.489,0,1,0-1.052-.436,1.5,1.5,0,0,0,1.052.436" transform="translate(-101.118 -475.328)"/>
          <path id="Path_51" data-name="Path 51" d="M124.144,478.3h.008a1.488,1.488,0,1,0,0-2.977h-.008a1.488,1.488,0,1,0,0,2.977Z" transform="translate(-107.311 -475.328)"/>
          <path id="Path_52" data-name="Path 52" d="M113.373,478.3h.007a1.488,1.488,0,1,0,0-2.977h-.007a1.488,1.488,0,1,0,0,2.977Z" transform="translate(-104.214 -475.328)"/>
          <path id="Path_53" data-name="Path 53" d="M134.921,478.3a1.488,1.488,0,1,0-1.053-.436,1.5,1.5,0,0,0,1.053.436" transform="translate(-110.409 -475.328)"/>
        </g>
      </g>
    </g>
  </g>
</svg>
