<svg xmlns="http://www.w3.org/2000/svg" xmlns:xlink="http://www.w3.org/1999/xlink" width="657" height="599" viewBox="0 0 657 599">
  <defs>
    <filter id="Ellipse_443" x="500" y="30" width="157" height="157" filterUnits="userSpaceOnUse">
      <feOffset dy="7" input="SourceAlpha"/>
      <feGaussianBlur stdDeviation="12" result="blur"/>
      <feFlood flood-opacity="0.031"/>
      <feComposite operator="in" in2="blur"/>
      <feComposite in="SourceGraphic"/>
    </filter>
    <linearGradient id="linear-gradient" x1="-7.075" y1="0.283" x2="-7.075" y2="0.281" gradientUnits="objectBoundingBox">
      <stop offset="0.2" stop-opacity="0.149"/>
      <stop offset="0.85" stop-color="#616161" stop-opacity="0.012"/>
    </linearGradient>
    <linearGradient id="linear-gradient-2" x1="-5.425" y1="0.364" x2="-5.424" y2="0.364" gradientUnits="objectBoundingBox">
      <stop offset="0.2" stop-opacity="0.549"/>
      <stop offset="0.85" stop-color="#616161" stop-opacity="0.012"/>
    </linearGradient>
    <linearGradient id="linear-gradient-3" x1="0.5" x2="0.5" y2="1" gradientUnits="objectBoundingBox">
      <stop offset="0" stop-color="#dd1928"/>
      <stop offset="1" stop-color="red" stop-opacity="0"/>
    </linearGradient>
    <filter id="Ellipse_443-2" x="0" y="303" width="157" height="157" filterUnits="userSpaceOnUse">
      <feOffset dy="7" input="SourceAlpha"/>
      <feGaussianBlur stdDeviation="12" result="blur-2"/>
      <feFlood flood-opacity="0.031"/>
      <feComposite operator="in" in2="blur-2"/>
      <feComposite in="SourceGraphic"/>
    </filter>
    <filter id="Ellipse_443-3" x="76" y="127" width="157" height="157" filterUnits="userSpaceOnUse">
      <feOffset dy="7" input="SourceAlpha"/>
      <feGaussianBlur stdDeviation="12" result="blur-3"/>
      <feFlood flood-opacity="0.031"/>
      <feComposite operator="in" in2="blur-3"/>
      <feComposite in="SourceGraphic"/>
    </filter>
    <filter id="Ellipse_443-4" x="215" y="8" width="157" height="157" filterUnits="userSpaceOnUse">
      <feOffset dy="7" input="SourceAlpha"/>
      <feGaussianBlur stdDeviation="12" result="blur-4"/>
      <feFlood flood-opacity="0.031"/>
      <feComposite operator="in" in2="blur-4"/>
      <feComposite in="SourceGraphic"/>
    </filter>
    <filter id="Ellipse_443-5" x="143" y="325" width="157" height="157" filterUnits="userSpaceOnUse">
      <feOffset dy="7" input="SourceAlpha"/>
      <feGaussianBlur stdDeviation="12" result="blur-5"/>
      <feFlood flood-opacity="0.031"/>
      <feComposite operator="in" in2="blur-5"/>
      <feComposite in="SourceGraphic"/>
    </filter>
    <filter id="Ellipse_443-6" x="286" y="432" width="157" height="157" filterUnits="userSpaceOnUse">
      <feOffset dy="7" input="SourceAlpha"/>
      <feGaussianBlur stdDeviation="12" result="blur-6"/>
      <feFlood flood-opacity="0.031"/>
      <feComposite operator="in" in2="blur-6"/>
      <feComposite in="SourceGraphic"/>
    </filter>
    <clipPath id="clip-path">
      <rect id="Rectangle_628" data-name="Rectangle 628" width="38.561" height="37.605" transform="translate(0 1)" fill="#fff"/>
    </clipPath>
    <filter id="Ellipse_443-7" x="500" y="214" width="157" height="157" filterUnits="userSpaceOnUse">
      <feOffset dy="7" input="SourceAlpha"/>
      <feGaussianBlur stdDeviation="12" result="blur-7"/>
      <feFlood flood-opacity="0.031"/>
      <feComposite operator="in" in2="blur-7"/>
      <feComposite in="SourceGraphic"/>
    </filter>
    <clipPath id="clip-path-2">
      <rect id="Rectangle_629" data-name="Rectangle 629" width="27.637" height="41.447" transform="translate(17)" fill="#fff"/>
    </clipPath>
    <filter id="Ellipse_443-8" x="285" y="266" width="157" height="157" filterUnits="userSpaceOnUse">
      <feOffset dy="7" input="SourceAlpha"/>
      <feGaussianBlur stdDeviation="12" result="blur-8"/>
      <feFlood flood-opacity="0.031"/>
      <feComposite operator="in" in2="blur-8"/>
      <feComposite in="SourceGraphic"/>
    </filter>
    <filter id="Ellipse_443-9" x="429" y="362" width="157" height="157" filterUnits="userSpaceOnUse">
      <feOffset dy="7" input="SourceAlpha"/>
      <feGaussianBlur stdDeviation="12" result="blur-9"/>
      <feFlood flood-opacity="0.031"/>
      <feComposite operator="in" in2="blur-9"/>
      <feComposite in="SourceGraphic"/>
    </filter>
    <linearGradient id="linear-gradient-9" x1="-7.219" y1="4.905" x2="-7.029" y2="3.833" gradientUnits="objectBoundingBox">
      <stop offset="0" stop-color="#faae42"/>
      <stop offset="1" stop-color="#ef3e31"/>
    </linearGradient>
    <linearGradient id="linear-gradient-10" x1="0.598" y1="0.02" x2="0.436" y2="0.978" gradientUnits="objectBoundingBox">
      <stop offset="0" stop-color="#e39f3a"/>
      <stop offset="1" stop-color="#d33929"/>
    </linearGradient>
    <filter id="Ellipse_443-10" x="359" y="101" width="157" height="157" filterUnits="userSpaceOnUse">
      <feOffset dy="7" input="SourceAlpha"/>
      <feGaussianBlur stdDeviation="12" result="blur-10"/>
      <feFlood flood-opacity="0.031"/>
      <feComposite operator="in" in2="blur-10"/>
      <feComposite in="SourceGraphic"/>
    </filter>
    <filter id="Ellipse_443-11" x="215" y="160" width="157" height="157" filterUnits="userSpaceOnUse">
      <feOffset dy="7" input="SourceAlpha"/>
      <feGaussianBlur stdDeviation="12" result="blur-11"/>
      <feFlood flood-opacity="0.031"/>
      <feComposite operator="in" in2="blur-11"/>
      <feComposite in="SourceGraphic"/>
    </filter>
  </defs>
  <g id="techno_mobile" transform="translate(-684 -2730)">
    <g id="Group_11205" data-name="Group 11205">
      <g id="Group_11202" data-name="Group 11202">
        <g id="Group_6867" data-name="Group 6867">
          <g id="Group_4261" data-name="Group 4261" transform="translate(500 -273)">
            <g transform="matrix(1, 0, 0, 1, 184, 3003)" filter="url(#Ellipse_443)">
              <circle id="Ellipse_443-12" data-name="Ellipse 443" cx="42.5" cy="42.5" r="42.5" transform="translate(536 59)" fill="#fff"/>
            </g>
          </g>
        </g>
        <g id="flutter_1_" data-name="flutter (1)" transform="translate(1246 2812)">
          <path id="Path_29829" data-name="Path 29829" d="M6.129,26.027,0,19.9,19.9,0H32.156m0,18.362H19.9l-4.591,4.591,6.129,6.129" fill="rgba(66,165,245,0.8)"/>
          <path id="Path_29830" data-name="Path 29830" d="M951.7,1814.027l4.591,4.591h12.256L957.829,1807.9" transform="translate(-936.391 -1778.818)" fill="#0d47a1"/>
          <path id="Path_29831" data-name="Path 29831" d="M571.6,1433.721l6.119-6.121,6.119,6.119-6.119,6.121Z" transform="translate(-562.405 -1404.636)" fill="#42a5f5"/>
          <path id="Path_29832" data-name="Path 29832" d="M952,1814.219l6.119-6.119.854.854-6.119,6.119Z" transform="translate(-936.686 -1779.015)" fill="url(#linear-gradient)"/>
          <path id="Path_29833" data-name="Path 29833" d="M951.7,1813.929l9.093-3.142-2.965-2.987" transform="translate(-936.391 -1778.72)" fill="url(#linear-gradient-2)"/>
        </g>
      </g>
      <g id="Group_11204" data-name="Group 11204">
        <g id="Group_11203" data-name="Group 11203">
          <g id="Group_6874" data-name="Group 6874">
            <g id="Lines" transform="translate(604.62 2840.948)" opacity="0.52">
              <g id="Group_1000001643" data-name="Group 1000001643" transform="translate(115)">
                <rect id="Rectangle_3722" data-name="Rectangle 3722" height="424" transform="translate(0.38 0.052)" fill="url(#linear-gradient-3)"/>
                <rect id="Rectangle_3723" data-name="Rectangle 3723" height="424" transform="translate(77.38 0.052)" fill="url(#linear-gradient-3)"/>
                <rect id="Rectangle_3724" data-name="Rectangle 3724" height="424" transform="translate(146.38 0.052)" fill="url(#linear-gradient-3)"/>
                <rect id="Rectangle_3725" data-name="Rectangle 3725" width="1" height="599" transform="translate(42.38 -110.948)" fill="#dedede"/>
                <rect id="Rectangle_3725-2" data-name="Rectangle 3725" width="1" height="599" transform="translate(256.38 -110.948)" fill="#dedede"/>
                <rect id="Rectangle_3726" data-name="Rectangle 3726" width="1" height="599" transform="translate(114.38 -110.948)" fill="#dedede"/>
                <rect id="Rectangle_3726-2" data-name="Rectangle 3726" width="1" height="47" transform="translate(114.38 -110.948)" fill="#ff1919"/>
                <rect id="Rectangle_3726-3" data-name="Rectangle 3726" width="1" height="47" transform="translate(42.38 149.052)" fill="#ff1919"/>
                <rect id="Rectangle_3726-4" data-name="Rectangle 3726" width="1" height="599" transform="translate(326.38 -110.948)" fill="#dedede"/>
                <rect id="Rectangle_3726-5" data-name="Rectangle 3726" width="1" height="599" transform="translate(468.381 -110.948)" fill="#dedede"/>
                <rect id="Rectangle_3731" data-name="Rectangle 3731" width="1" height="599" transform="translate(185.381 -110.948)" fill="#dedede"/>
                <rect id="Rectangle_3731-2" data-name="Rectangle 3731" width="1" height="599" transform="translate(397.379 -110.948)" fill="#dedede"/>
                <rect id="Rectangle_3731-3" data-name="Rectangle 3731" width="1" height="599" transform="translate(542.38 -110.948)" fill="#dedede"/>
                <rect id="Rectangle_3732" data-name="Rectangle 3732" height="424" transform="translate(439.38 0.052)" fill="url(#linear-gradient-3)"/>
                <rect id="Rectangle_3733" data-name="Rectangle 3733" height="424" transform="translate(508.38 0.052)" fill="url(#linear-gradient-3)"/>
                <rect id="Rectangle_3734" data-name="Rectangle 3734" height="424" transform="translate(585.38 0.052)" fill="url(#linear-gradient-3)"/>
                <rect id="Rectangle_3726-6" data-name="Rectangle 3726" width="1" height="47" transform="translate(185.38 132.052)" fill="#ff1919"/>
                <rect id="Rectangle_3726-7" data-name="Rectangle 3726" width="1" height="47" transform="translate(326.38 26.052)" fill="#ff1919"/>
                <rect id="Rectangle_3726-8" data-name="Rectangle 3726" width="1" height="47" transform="translate(397.38 229.052)" fill="#ff1919"/>
                <rect id="Rectangle_3726-9" data-name="Rectangle 3726" width="1" height="47" transform="translate(467.38 424.052)" fill="#ff1919"/>
                <rect id="Rectangle_3726-10" data-name="Rectangle 3726" width="1" height="47" transform="translate(542.38 59.052)" fill="#ff1919"/>
                <rect id="Rectangle_3726-11" data-name="Rectangle 3726" width="1" height="47" transform="translate(256.38 333.052)" fill="#ff1919"/>
              </g>
            </g>
            <g id="Group_6870" data-name="Group 6870">
              <g transform="matrix(1, 0, 0, 1, 684, 2730)" filter="url(#Ellipse_443-2)">
                <circle id="Ellipse_443-13" data-name="Ellipse 443" cx="42.5" cy="42.5" r="42.5" transform="translate(36 332)" fill="#fff"/>
              </g>
              <g id="android-logomark_1_" data-name="android-logomark (1)" transform="translate(708.1 3027.286)">
                <path id="Path_29834" data-name="Path 29834" d="M36.141,333.772a1.993,1.993,0,1,0,1.854,1.988,1.86,1.86,0,0,0-1.854-1.988m-.249-1.232a2.489,2.489,0,0,1,1.988.953v-.828h1.367v6.2H38.192a.312.312,0,0,1-.311-.311v-.518a2.473,2.473,0,0,1-1.988.953,3.235,3.235,0,0,1,0-6.452m4.909.124h1.367v.839a2.126,2.126,0,0,1,1.885-.963,2.33,2.33,0,0,1,2.371,2.589v3.738H45.379a.312.312,0,0,1-.311-.311v-3.2c0-.984-.5-1.574-1.294-1.574-.9,0-1.605.7-1.605,2.03v3.055H41.122a.312.312,0,0,1-.311-.311Zm9.931,1.108a1.993,1.993,0,1,0,1.854,1.988,1.86,1.86,0,0,0-1.854-1.988m-.249-1.232a2.489,2.489,0,0,1,1.988.953v-3.935h1.367v9.31H52.793a.312.312,0,0,1-.311-.311v-.518a2.473,2.473,0,0,1-1.988.953,3.235,3.235,0,0,1-.01-6.452m4.909.124h1.367v1.108A1.757,1.757,0,0,1,58.4,332.6a2.286,2.286,0,0,1,.528.052v1.4a2.2,2.2,0,0,0-.683-.114c-.777,0-1.491.663-1.491,1.9v3.024H55.7a.312.312,0,0,1-.311-.311Zm7.208,5.054a1.959,1.959,0,1,0-1.874-1.957,1.866,1.866,0,0,0,1.874,1.957m0,1.274a3.2,3.2,0,1,1,2.3-.927,3.226,3.226,0,0,1-2.3.927m4.36-6.327h1.367v6.2H67.281a.312.312,0,0,1-.311-.311Zm.683-1.357a.93.93,0,0,1-.922-.922.916.916,0,1,1,.922.922m5.043,2.465a1.993,1.993,0,1,0,1.854,1.988,1.86,1.86,0,0,0-1.854-1.988m-.249-1.232a2.489,2.489,0,0,1,1.988.953v-3.935h1.367v9.31H74.747a.312.312,0,0,1-.311-.311v-.518a2.473,2.473,0,0,1-1.988.953,3.235,3.235,0,0,1-.01-6.452" transform="translate(0 -242.731)"/>
                <path id="Path_29835" data-name="Path 29835" d="M64.857,66.012l3.573-6.182a.742.742,0,1,0-1.284-.746l-3.614,6.255a22.376,22.376,0,0,0-18.35,0l-3.614-6.255a.742.742,0,1,0-1.284.746l3.573,6.182A21.017,21.017,0,0,0,32.9,82.87H75.772A21.092,21.092,0,0,0,64.857,66.012ZM44.478,76.761a1.781,1.781,0,1,1,1.781-1.781A1.781,1.781,0,0,1,44.478,76.761Zm19.738,0A1.781,1.781,0,1,1,66,74.98,1.781,1.781,0,0,1,64.215,76.761Z" transform="translate(0 0)" fill="#3ddc84"/>
              </g>
            </g>
            <g id="Group_6871" data-name="Group 6871">
              <g id="Group_4255" data-name="Group 4255" transform="translate(76 -176)">
                <g transform="matrix(1, 0, 0, 1, 608, 2906)" filter="url(#Ellipse_443-3)">
                  <circle id="Ellipse_443-14" data-name="Ellipse 443" cx="42.5" cy="42.5" r="42.5" transform="translate(112 156)" fill="#fff"/>
                </g>
              </g>
              <g id="Group_4243" data-name="Group 4243" transform="translate(602.246 -256.66)">
                <path id="Subtraction_13" data-name="Subtraction 13" d="M16.735,37.917h0L2.782,33.995,0,0,33.221.068,30.28,33.995,16.736,37.917ZM10.1,3.674a.707.707,0,0,0,.129.42.837.837,0,0,0,.352.278,1.259,1.259,0,0,0,.5.1,1.1,1.1,0,0,0,.514-.114.83.83,0,0,0,.332-.3.77.77,0,0,0,.113-.4.678.678,0,0,0-.122-.422.756.756,0,0,0-.3-.234,3.56,3.56,0,0,0-.45-.152,3.036,3.036,0,0,1-.328-.1.549.549,0,0,1-.2-.131.29.29,0,0,1-.078-.21.349.349,0,0,1,.124-.288.5.5,0,0,1,.319-.1.536.536,0,0,1,.348.108.367.367,0,0,1,.144.26h.5a.751.751,0,0,0-.286-.554,1.048,1.048,0,0,0-.661-.2,1.23,1.23,0,0,0-.5.1A.779.779,0,0,0,10.226,2a.741.741,0,0,0-.121.42.668.668,0,0,0,.121.416.734.734,0,0,0,.29.23,3.394,3.394,0,0,0,.442.146,3.164,3.164,0,0,1,.338.1.552.552,0,0,1,.2.136.321.321,0,0,1,.082.229.372.372,0,0,1-.131.293.546.546,0,0,1-.368.114.508.508,0,0,1-.355-.116.438.438,0,0,1-.141-.3Zm-2.416,0a.707.707,0,0,0,.128.42.837.837,0,0,0,.352.278,1.259,1.259,0,0,0,.5.1,1.091,1.091,0,0,0,.514-.114.818.818,0,0,0,.332-.3.762.762,0,0,0,.114-.4A.673.673,0,0,0,9.5,3.232.759.759,0,0,0,9.208,3a3.561,3.561,0,0,0-.45-.152,3.131,3.131,0,0,1-.329-.1.551.551,0,0,1-.2-.131.29.29,0,0,1-.078-.21.349.349,0,0,1,.124-.288.5.5,0,0,1,.32-.1.531.531,0,0,1,.347.108.363.363,0,0,1,.144.26h.5a.747.747,0,0,0-.285-.554,1.05,1.05,0,0,0-.662-.2,1.227,1.227,0,0,0-.5.1A.78.78,0,0,0,7.809,2a.741.741,0,0,0-.12.42.669.669,0,0,0,.12.416.738.738,0,0,0,.29.23,3.37,3.37,0,0,0,.443.146,3.065,3.065,0,0,1,.338.1.551.551,0,0,1,.2.136.321.321,0,0,1,.082.229.37.37,0,0,1-.132.293.546.546,0,0,1-.368.114.5.5,0,0,1-.354-.116.444.444,0,0,1-.142-.3ZM5.926,1.626a1.442,1.442,0,0,0-.714.182,1.361,1.361,0,0,0-.517.506,1.433,1.433,0,0,0-.19.733,1.432,1.432,0,0,0,.19.732,1.366,1.366,0,0,0,.514.506,1.442,1.442,0,0,0,.716.182,1.471,1.471,0,0,0,.79-.216,1.234,1.234,0,0,0,.5-.616H6.67a.739.739,0,0,1-.3.328.893.893,0,0,1-.444.108.958.958,0,0,1-.492-.126A.877.877,0,0,1,5.1,3.586a1.143,1.143,0,0,1-.122-.54,1.138,1.138,0,0,1,.122-.54.865.865,0,0,1,.338-.356.974.974,0,0,1,.492-.124.893.893,0,0,1,.444.108.74.74,0,0,1,.3.329h.547a1.24,1.24,0,0,0-.5-.618A1.464,1.464,0,0,0,5.926,1.626Z" transform="translate(219.645 3168.088)" fill="#1b73ba"/>
                <g id="css-3" transform="translate(225.619 3171.325)">
                  <path id="Path_14406" data-name="Path 14406" d="M62.468,43.481v-31.4l13.68.046-2.44,28.09Z" transform="translate(-51.706 -12.085)" fill="#1c88c7"/>
                  <path id="Path_14407" data-name="Path 14407" d="M43.343,27.064H22.3l.57,4.1h9.987l-9.827,4.218.57,3.967H38.076l-.525,5.54-4.9.958L28.2,44.711l-.342-3.147H23.78l.547,6.544,8.756,2.44,8.391-2.668,1.072-12.791h-8.87l9.667-4.013Z" transform="translate(-22.298 -23.051)" fill="#fff"/>
                </g>
              </g>
            </g>
            <g id="Group_6872" data-name="Group 6872">
              <g transform="matrix(1, 0, 0, 1, 684, 2730)" filter="url(#Ellipse_443-4)">
                <circle id="Ellipse_443-15" data-name="Ellipse 443" cx="42.5" cy="42.5" r="42.5" transform="translate(251 37)" fill="#fff"/>
              </g>
              <g id="logo-javascript" transform="translate(956.534 2788.534)">
                <path id="Path_14411" data-name="Path 14411" d="M0,0H41.933V41.933H0Z" fill="#f0db4f"/>
                <path id="Path_14412" data-name="Path 14412" d="M310.59,493.251c-.381-2.374-1.928-4.366-6.512-6.225-1.592-.732-3.367-1.256-3.9-2.463a2.687,2.687,0,0,1-.094-1.523c.341-1.38,1.988-1.81,3.293-1.414a3.623,3.623,0,0,1,2.116,1.963c2.245-1.454,2.24-1.444,3.808-2.443a9.707,9.707,0,0,0-1.256-1.681c-1.35-1.508-3.189-2.284-6.132-2.225-.509.064-1.023.134-1.533.2a6.954,6.954,0,0,0-3.689,2.176,6.81,6.81,0,0,0,1.236,9.7c2.952,2.215,7.289,2.72,7.843,4.792.539,2.537-1.864,3.358-4.253,3.066a5.573,5.573,0,0,1-3.8-2.888c-1.948,1.127-1.948,1.127-3.951,2.279a8.791,8.791,0,0,0,1.77,2.408c3.768,3.822,13.2,3.635,14.889-2.151A7.143,7.143,0,0,0,310.59,493.251Zm-19.483-15.7h-4.866c0,4.2-.02,8.376-.02,12.58,0,2.675.138,5.128-.3,5.879-.712,1.478-2.556,1.3-3.4,1.009a4.176,4.176,0,0,1-1.795-1.864,2.5,2.5,0,0,0-.277-.445q-1.98,1.209-3.956,2.423a7.818,7.818,0,0,0,2.868,3.283,9.446,9.446,0,0,0,6.952.856,6.143,6.143,0,0,0,3.926-3.076c1.108-2.042.87-4.515.86-7.249C291.132,486.482,291.107,482.022,291.107,477.547Z" transform="translate(-272.635 -462.393)" fill="#323330"/>
              </g>
            </g>
            <g id="Group_4263" data-name="Group 4263" transform="translate(0 -53)">
              <g id="Group_4256" data-name="Group 4256" transform="translate(143 75)">
                <g transform="matrix(1, 0, 0, 1, 541, 2708)" filter="url(#Ellipse_443-5)">
                  <circle id="Ellipse_443-16" data-name="Ellipse 443" cx="42.5" cy="42.5" r="42.5" transform="translate(179 354)" fill="#fff"/>
                </g>
              </g>
              <g id="adobe-photoshop-2" transform="translate(886 3160.249)">
                <path id="Path_3455" data-name="Path 3455" d="M6.947,0H32.284a6.941,6.941,0,0,1,6.947,6.947V31.3a6.941,6.941,0,0,1-6.947,6.947H6.947A6.941,6.941,0,0,1,0,31.3V6.947A6.941,6.941,0,0,1,6.947,0Z" fill="#001e36"/>
                <g id="Group_256" data-name="Group 256" transform="translate(8.827 9.726)">
                  <path id="Path_3456" data-name="Path 3456" d="M54,76.6V59.778c0-.114.049-.18.163-.18.278,0,.539,0,.915-.016.392-.016.8-.016,1.242-.033s.915-.016,1.422-.033,1-.016,1.488-.016a9.612,9.612,0,0,1,3.367.507,5.837,5.837,0,0,1,2.19,1.34,5.2,5.2,0,0,1,1.193,1.864,6.257,6.257,0,0,1,.376,2.125,5.844,5.844,0,0,1-.981,3.482,5.6,5.6,0,0,1-2.632,1.994,10.594,10.594,0,0,1-3.678.556c-.392,0-.654,0-.817-.016s-.392-.016-.7-.016v5.247a.2.2,0,0,1-.18.229H54.2C54.065,76.811,54,76.746,54,76.6Zm3.564-13.846v5.492c.229.016.441.033.638.033h.866a6.106,6.106,0,0,0,1.88-.294,2.811,2.811,0,0,0,1.34-.866,2.526,2.526,0,0,0,.507-1.684,2.69,2.69,0,0,0-.376-1.455,2.37,2.37,0,0,0-1.144-.932,4.8,4.8,0,0,0-1.929-.327c-.425,0-.8,0-1.112.016a3.742,3.742,0,0,0-.67.016Zm18.995,4.5a5.786,5.786,0,0,0-1.569-.556,8.618,8.618,0,0,0-1.831-.213,3.292,3.292,0,0,0-.981.114.839.839,0,0,0-.507.327.866.866,0,0,0-.131.441.727.727,0,0,0,.163.425,1.845,1.845,0,0,0,.556.441c.376.2.768.376,1.161.539a11.84,11.84,0,0,1,2.517,1.193,3.8,3.8,0,0,1,1.291,1.357A3.529,3.529,0,0,1,77.6,73a3.8,3.8,0,0,1-.638,2.174,4.1,4.1,0,0,1-1.831,1.455,7.49,7.49,0,0,1-2.959.523,11.26,11.26,0,0,1-2.223-.213,6.594,6.594,0,0,1-1.667-.523.321.321,0,0,1-.18-.311V73.264a.177.177,0,0,1,.065-.147.124.124,0,0,1,.147.016,7,7,0,0,0,2.027.8,7.61,7.61,0,0,0,1.929.245,3.12,3.12,0,0,0,1.357-.229.759.759,0,0,0,.441-.687.866.866,0,0,0-.392-.654,6.932,6.932,0,0,0-1.6-.768,10,10,0,0,1-2.321-1.177,4.233,4.233,0,0,1-1.242-1.389,3.507,3.507,0,0,1-.376-1.667A3.845,3.845,0,0,1,68.7,65.63a4.029,4.029,0,0,1,1.716-1.5,6.339,6.339,0,0,1,2.893-.572,14.093,14.093,0,0,1,2.027.147,5.752,5.752,0,0,1,1.406.376.287.287,0,0,1,.163.147.82.82,0,0,1,.033.2v2.664a.2.2,0,0,1-.082.163.435.435,0,0,1-.294,0Z" transform="translate(-54 -59.5)" fill="#31a8ff"/>
                </g>
              </g>
            </g>
            <g id="Group_6873" data-name="Group 6873">
              <g id="Group_4265" data-name="Group 4265" transform="translate(-147 35)">
                <g id="Group_4260" data-name="Group 4260" transform="translate(433 94)">
                  <g transform="matrix(1, 0, 0, 1, 398, 2601)" filter="url(#Ellipse_443-6)">
                    <circle id="Ellipse_443-17" data-name="Ellipse 443" cx="42.5" cy="42.5" r="42.5" transform="translate(322 461)" fill="#fff"/>
                  </g>
                </g>
              </g>
              <g id="Xd" transform="translate(1029.001 3214)" clip-path="url(#clip-path)">
                <path id="Path_14417" data-name="Path 14417" d="M4.168,10.961A5.784,5.784,0,0,1,9.952,5.177H33.732a5.784,5.784,0,0,1,5.784,5.784V33.776a5.784,5.784,0,0,1-5.784,5.784H9.952a5.784,5.784,0,0,1-5.784-5.784Z" transform="translate(-2.561 -2.566)" fill="#2e001e"/>
                <path id="Path_14418" data-name="Path 14418" d="M5.784,1.01A5.784,5.784,0,0,0,0,6.794V32.823a5.784,5.784,0,0,0,5.784,5.784H32.777a5.784,5.784,0,0,0,5.784-5.784V6.794A5.784,5.784,0,0,0,32.777,1.01ZM1.607,8.4A5.784,5.784,0,0,1,7.391,2.617H31.17A5.784,5.784,0,0,1,36.955,8.4V31.217A5.784,5.784,0,0,1,31.17,37H7.391a5.784,5.784,0,0,1-5.784-5.784Z" transform="translate(0 -0.006)" fill="#ff26be"/>
                <path id="Path_14419" data-name="Path 14419" d="M39.578,31.012a2.206,2.206,0,0,0-.932-.161c-2.024,0-3.374,1.559-3.374,4.145,0,2.956,1.382,4.145,3.181,4.145a3.031,3.031,0,0,0,1.109-.177V31.012Zm-7.2,4.113c0-3.744,2.41-6.668,6.363-6.668a7.128,7.128,0,0,1,.836.032V24.312a.161.161,0,0,1,.161-.161h2.587c.129,0,.161.048.161.129V38.965a11.441,11.441,0,0,0,.08,1.575c0,.112,0,.129-.1.177a9.571,9.571,0,0,1-4.113.932c-3.487,0-5.977-2.153-5.977-6.523Zm-5.479-2.6,4.5,8.724c.08.129.032.257-.1.257h-2.8a.315.315,0,0,1-.337-.209q-1.542-3.181-3.149-6.6h-.032c-.964,2.153-2.024,4.5-3.053,6.62a.309.309,0,0,1-.289.177H18.98c-.161,0-.177-.129-.1-.225l4.4-8.467-4.258-8.419a.142.142,0,0,1,.112-.241H21.9c.161,0,.241.032.289.177,1.012,2.137,2.041,4.242,3,6.395h.032c.932-2.121,1.96-4.258,2.94-6.363.08-.129.129-.209.289-.209h2.587c.129,0,.177.1.1.241L26.9,32.522Z" transform="translate(-11.573 -14.214)" fill="#ffd9f2"/>
              </g>
            </g>
            <g id="Group_6866" data-name="Group 6866">
              <g id="Group_4267" data-name="Group 4267" transform="translate(0 2)">
                <g id="Group_4261-2" data-name="Group 4261" transform="translate(500 -91)">
                  <g transform="matrix(1, 0, 0, 1, 184, 2819)" filter="url(#Ellipse_443-7)">
                    <circle id="Ellipse_443-18" data-name="Ellipse 443" cx="42.5" cy="42.5" r="42.5" transform="translate(536 243)" fill="#fff"/>
                  </g>
                </g>
              </g>
              <g id="figma" transform="translate(1231.999 2994.776)" clip-path="url(#clip-path-2)">
                <path id="Path_14420" data-name="Path 14420" d="M23.916,80.482a6.91,6.91,0,0,0,6.908-6.908V66.667H23.916a6.908,6.908,0,1,0,0,13.816Z" transform="translate(-0.005 -39.035)" fill="#0acf83"/>
                <path id="Path_14421" data-name="Path 14421" d="M17.008,40.241a6.91,6.91,0,0,1,6.908-6.908h6.908V47.149H23.916A6.91,6.91,0,0,1,17.008,40.241Z" transform="translate(-0.005 -19.518)" fill="#a259ff"/>
                <path id="Path_14422" data-name="Path 14422" d="M17.008,6.908A6.91,6.91,0,0,1,23.916,0h6.908V13.816H23.916A6.91,6.91,0,0,1,17.008,6.908Z" transform="translate(-0.005)" fill="#f24e1e"/>
                <path id="Path_14423" data-name="Path 14423" d="M50.34,0h6.908a6.908,6.908,0,1,1,0,13.816H50.34Z" transform="translate(-19.521)" fill="#ff7262"/>
                <path id="Path_14424" data-name="Path 14424" d="M64.156,40.241a6.908,6.908,0,1,1-6.908-6.908A6.91,6.91,0,0,1,64.156,40.241Z" transform="translate(-19.521 -19.518)" fill="#1abcfe"/>
              </g>
            </g>
          </g>
          <g id="Group_6869" data-name="Group 6869" transform="translate(-1 26)">
            <g id="Group_4258" data-name="Group 4258" transform="translate(286 -63)">
              <g transform="matrix(1, 0, 0, 1, 399, 2767)" filter="url(#Ellipse_443-8)">
                <circle id="Ellipse_443-19" data-name="Ellipse 443" cx="42.5" cy="42.5" r="42.5" transform="translate(321 295)" fill="#fff"/>
              </g>
            </g>
            <g id="angular-3" transform="translate(1017.001 3025)">
              <g id="Group_4236" data-name="Group 4236" transform="translate(4.999 24.021)">
                <g id="Group_4228" data-name="Group 4228" transform="translate(8.475)">
                  <path id="Path_14401" data-name="Path 14401" d="M150.6,40.362v-7.83h1.007l4.785,6.3v-6.3h.957v7.83h-1.007L151.557,34v6.364Zm14.542-.311a5.811,5.811,0,0,1-2.038.36q-4.251,0-4.251-4.077,0-3.859,4.1-3.865a7.269,7.269,0,0,1,2.188.323v.87a5.689,5.689,0,0,0-2.076-.385c-2.138,0-3.207,1.019-3.207,3.033,0,2.175,1.057,3.256,3.157,3.256a5.473,5.473,0,0,0,1.119-.137V36.807h1.007Zm1.616-2.71v-4.81h1.007v4.81a2.25,2.25,0,1,0,4.5,0v-4.81h1.007v4.81c0,2.051-1.081,3.082-3.257,3.082S166.758,39.393,166.758,37.342Zm9.322-4.81v7.01h4.1v.82h-5.108v-7.83Zm5.556,7.83H180.58l3.89-8.862,3.89,8.862h-1.119L186.235,37.9H183.65l.273-.82H185.9l-1.467-3.542Zm7.806,0v-7.83h3.344c1.492,0,2.237.621,2.237,1.877,0,1.019-.733,1.777-2.188,2.262l2.685,3.691h-1.33L191.7,36.845v-.659c1.492-.236,2.25-.808,2.25-1.728,0-.721-.41-1.081-1.243-1.081h-2.237v6.985h-1.032Z" transform="translate(-150.6 -31.5)" fill="#b52e31" fill-rule="evenodd"/>
                </g>
                <path id="Path_14401-2" data-name="Path 14401" d="M212.467,40.362H211.41L215.3,31.5l3.89,8.862h-1.119L217.066,37.9h-2.585l.273-.82h1.976l-1.467-3.542Z" transform="translate(-211.41 -31.5)" fill="#b52e31" fill-rule="evenodd"/>
              </g>
              <g id="Group_4234" data-name="Group 4234" transform="translate(22.253 0)">
                <path id="Path_14402" data-name="Path 14402" d="M0,3.314,9.294,0l9.539,3.256L17.291,15.547l-8,4.424L1.426,15.6Z" fill="#e23237" fill-rule="evenodd"/>
                <path id="Path_14403" data-name="Path 14403" d="M74.039,3.256,64.5,0V19.971l8-4.424L74.039,3.256Z" transform="translate(-55.206)" fill="#b52e31" fill-rule="evenodd"/>
                <path id="Path_14404" data-name="Path 14404" d="M30.192,16.2,24.4,29.081l2.161-.043,1.167-2.911H32.9l1.268,2.939,2.06.043L30.192,16.2Zm.014,4.135,1.96,4.092H28.492Z" transform="translate(-20.884 -13.866)" fill="#fff" fill-rule="evenodd"/>
              </g>
            </g>
          </g>
        </g>
        <g id="Group_11199" data-name="Group 11199">
          <g id="Group_4264" data-name="Group 4264" transform="translate(-4 -35)">
            <g id="Group_4260-2" data-name="Group 4260" transform="translate(433 94)">
              <g transform="matrix(1, 0, 0, 1, 255, 2671)" filter="url(#Ellipse_443-9)">
                <circle id="Ellipse_443-20" data-name="Ellipse 443" cx="42.5" cy="42.5" r="42.5" transform="translate(465 391)" fill="#fff"/>
              </g>
            </g>
          </g>
          <g id="swift-15" transform="translate(1171 3143)">
            <path id="Path_29836" data-name="Path 29836" d="M9.285,0h22.33A9.413,9.413,0,0,1,34.78.535a8.942,8.942,0,0,1,5.764,7.023,10.861,10.861,0,0,1,.11,1.748V31.086a10.2,10.2,0,0,1-.173,2.079,8.958,8.958,0,0,1-6.063,6.74,9.467,9.467,0,0,1-2.819.409c-.425,0-22.377,0-22.708-.016a8.986,8.986,0,0,1-4.535-1.5,9.1,9.1,0,0,1-3.071-3.527,8.886,8.886,0,0,1-.9-3.921V8.96A8.359,8.359,0,0,1,1.222,5.1,8.941,8.941,0,0,1,4.261,1.559,8.821,8.821,0,0,1,8.781.031,2.626,2.626,0,0,1,9.285,0Z" transform="translate(-0.324)" fill="url(#linear-gradient-9)"/>
            <path id="Path_29837" data-name="Path 29837" d="M34.015,32.975a6.152,6.152,0,0,0-.472-.646A6.689,6.689,0,0,0,32.188,31.1a4.146,4.146,0,0,0-2.126-.724,3.849,3.849,0,0,0-1.575.252,10.263,10.263,0,0,0-1.465.677c-.551.283-1.1.567-1.685.8a12.664,12.664,0,0,1-2.157.661,14.023,14.023,0,0,1-2.8.22,18.944,18.944,0,0,1-4.976-.756,18.824,18.824,0,0,1-4.047-1.748,20.867,20.867,0,0,1-3.134-2.22,22.9,22.9,0,0,1-2.236-2.22c-.472-.551-.929-1.134-1.354-1.732a7.345,7.345,0,0,1-.472-.74L0,19.086V8.929A8.918,8.918,0,0,1,8.913,0h7.952l5.89,5.984c13.291,9.039,8.992,19.007,8.992,19.007S35.526,29.243,34.015,32.975Z" fill="url(#linear-gradient-10)"/>
            <path id="Path_29838" data-name="Path 29838" d="M45.029,38c13.291,9.039,8.992,19.007,8.992,19.007s3.779,4.268,2.252,8c0,0-1.559-2.614-4.173-2.614-2.52,0-4,2.614-9.071,2.614-11.291,0-16.629-9.433-16.629-9.433,10.173,6.693,17.118,1.953,17.118,1.953-4.583-2.661-14.33-15.385-14.33-15.385,8.488,7.228,12.157,9.134,12.157,9.134-2.189-1.811-8.33-10.661-8.33-10.661,4.913,4.976,14.677,11.921,14.677,11.921C50.462,44.85,45.029,38,45.029,38Z" transform="translate(-22.243 -32.016)" fill="#fff"/>
          </g>
        </g>
      </g>
      <g id="Group_11200" data-name="Group 11200">
        <g id="Group_6868" data-name="Group 6868">
          <g transform="matrix(1, 0, 0, 1, 684, 2730)" filter="url(#Ellipse_443-10)">
            <circle id="Ellipse_443-21" data-name="Ellipse 443" cx="42.5" cy="42.5" r="42.5" transform="translate(395 130)" fill="#fff"/>
          </g>
        </g>
        <g id="react-2_1_" data-name="react-2 (1)" transform="translate(922.3 2804)">
          <path id="Path_29839" data-name="Path 29839" d="M222.707,98.936c0-3.114-3.9-6.065-9.879-7.9,1.38-6.094.767-10.942-1.936-12.494a4.2,4.2,0,0,0-2.146-.537v2.137a2.219,2.219,0,0,1,1.092.249c1.3.747,1.868,3.593,1.428,7.253-.105.9-.278,1.849-.489,2.817a46.435,46.435,0,0,0-6.084-1.044,46.738,46.738,0,0,0-3.986-4.791c3.124-2.9,6.056-4.494,8.049-4.494V78c-2.635,0-6.084,1.878-9.572,5.136-3.488-3.239-6.937-5.1-9.572-5.1v2.137c1.983,0,4.925,1.581,8.049,4.465a45.256,45.256,0,0,0-3.957,4.781,44.745,44.745,0,0,0-6.094,1.054c-.22-.958-.383-1.888-.5-2.779-.45-3.66.105-6.506,1.4-7.263a2.132,2.132,0,0,1,1.1-.249V78.048a4.272,4.272,0,0,0-2.165.537c-2.692,1.552-3.3,6.391-1.907,12.466-5.96,1.84-9.84,4.781-9.84,7.886s3.9,6.065,9.879,7.9c-1.38,6.094-.767,10.942,1.935,12.494a4.212,4.212,0,0,0,2.156.537c2.635,0,6.084-1.878,9.572-5.136,3.488,3.239,6.937,5.1,9.572,5.1a4.272,4.272,0,0,0,2.165-.537c2.692-1.552,3.3-6.391,1.907-12.466C218.827,104.991,222.707,102.04,222.707,98.936Zm-12.475-6.391c-.355,1.236-.8,2.51-1.294,3.785-.393-.767-.8-1.533-1.255-2.3s-.91-1.514-1.38-2.242C207.664,91.989,208.977,92.238,210.232,92.545Zm-4.388,10.2c-.747,1.294-1.514,2.52-2.309,3.66-1.428.125-2.874.192-4.331.192s-2.894-.067-4.312-.182q-1.193-1.71-2.319-3.641-1.092-1.883-1.993-3.813c.594-1.284,1.265-2.568,1.983-3.823.747-1.294,1.514-2.52,2.309-3.66,1.428-.125,2.874-.192,4.331-.192s2.894.067,4.312.182q1.193,1.71,2.319,3.641,1.092,1.883,1.993,3.813C207.224,100.21,206.562,101.494,205.844,102.749Zm3.095-1.246c.517,1.284.958,2.568,1.322,3.813-1.255.307-2.577.565-3.948.767.469-.738.939-1.495,1.38-2.271s.853-1.543,1.246-2.309Zm-9.716,10.224a39.5,39.5,0,0,1-2.664-3.066c.862.038,1.744.067,2.635.067s1.792-.019,2.664-.067A37.4,37.4,0,0,1,199.223,111.727Zm-7.129-5.644c-1.361-.2-2.673-.45-3.928-.757.355-1.236.8-2.51,1.294-3.785.393.767.8,1.533,1.255,2.3S191.625,105.355,192.094,106.084Zm7.081-19.939a39.506,39.506,0,0,1,2.664,3.066c-.862-.038-1.744-.067-2.635-.067s-1.792.019-2.664.067A37.4,37.4,0,0,1,199.175,86.144Zm-7.09,5.644c-.469.738-.939,1.495-1.38,2.271s-.853,1.533-1.246,2.3c-.517-1.284-.958-2.568-1.322-3.813C189.392,92.248,190.714,91.989,192.085,91.788Zm-8.671,12c-3.392-1.447-5.586-3.344-5.586-4.848s2.194-3.411,5.586-4.848c.824-.355,1.725-.671,2.654-.968a46.017,46.017,0,0,0,2.156,5.835,45.37,45.37,0,0,0-2.127,5.806c-.949-.3-1.849-.623-2.683-.977Zm5.155,13.692c-1.3-.747-1.868-3.593-1.428-7.253.105-.9.278-1.849.489-2.817a46.436,46.436,0,0,0,6.084,1.044,46.742,46.742,0,0,0,3.986,4.791c-3.124,2.9-6.056,4.494-8.049,4.494A2.287,2.287,0,0,1,188.568,117.476Zm22.728-7.3c.45,3.66-.105,6.506-1.4,7.263a2.132,2.132,0,0,1-1.1.249c-1.983,0-4.925-1.581-8.049-4.465a45.251,45.251,0,0,0,3.957-4.781,44.742,44.742,0,0,0,6.094-1.054A26.824,26.824,0,0,1,211.3,110.175Zm3.689-6.391c-.824.355-1.725.671-2.654.968a46.021,46.021,0,0,0-2.156-5.835A45.373,45.373,0,0,0,212.3,93.11c.949.3,1.849.623,2.692.977,3.392,1.447,5.586,3.344,5.586,4.848S218.377,102.347,214.985,103.784Z" fill="#61dafb"/>
          <circle id="Ellipse_498" data-name="Ellipse 498" cx="4.379" cy="4.379" r="4.379" transform="translate(194.815 94.557)" fill="#61dafb"/>
        </g>
      </g>
    </g>
    <g id="Group_11201" data-name="Group 11201">
      <g id="Group_11198" data-name="Group 11198" transform="translate(-71 -80)">
        <g id="Group_4258-2" data-name="Group 4258" transform="translate(286 -63)">
          <g transform="matrix(1, 0, 0, 1, 469, 2873)" filter="url(#Ellipse_443-11)">
            <circle id="Ellipse_443-22" data-name="Ellipse 443" cx="42.5" cy="42.5" r="42.5" transform="translate(251 189)" fill="#fff"/>
          </g>
        </g>
      </g>
      <path id="apple-13" d="M32.59,53.5a8.481,8.481,0,0,1,4.542-7.7,9.761,9.761,0,0,0-7.695-4.052c-3.225-.254-6.75,1.881-8.04,1.881-1.363,0-4.488-1.79-6.941-1.79C9.387,41.921,4,45.882,4,53.94a22.643,22.643,0,0,0,1.308,7.377c1.163,3.334,5.36,11.511,9.739,11.374,2.289-.055,3.906-1.626,6.886-1.626,2.889,0,4.388,1.626,6.941,1.626,4.415-.064,8.213-7.5,9.321-10.838A9.006,9.006,0,0,1,32.59,53.5ZM27.448,38.587A8.557,8.557,0,0,0,29.628,32a9.633,9.633,0,0,0-6.169,3.171A8.691,8.691,0,0,0,21.134,41.7C23.505,41.884,25.667,40.667,27.448,38.587Z" transform="translate(956 2909)"/>
    </g>
  </g>
</svg>
