<svg xmlns="http://www.w3.org/2000/svg" width="98.769" height="98.767" viewBox="0 0 98.769 98.767">
  <g id="Group_3103" data-name="Group 3103" transform="translate(-58.454 -59.014)">
    <path id="Path_11826" data-name="Path 11826" d="M58.466,431.75a5.243,5.243,0,0,0,2.893,2.893c-.836,0-1.672-.022-2.507.011-.337.013-.41-.06-.4-.4C58.487,433.422,58.466,432.586,58.466,431.75Z" transform="translate(0 -276.874)" fill="#fefcfe"/>
    <path id="Path_11827" data-name="Path 11827" d="M80.107,342.914c-5.5-3.991-14.012-2.476-17.1,4.256a62.981,62.981,0,0,0-3.742,11.91,9.509,9.509,0,0,1-.76,2.937v2.122a3.353,3.353,0,0,0,2.893,2.893h1.929a14.488,14.488,0,0,1,3.136-.763c4.182-1,8.383-1.955,12.242-3.932A11.462,11.462,0,0,0,80.107,342.914Zm-4.975,12.629a42.627,42.627,0,0,1-6.9,2.36c-.62.176-.752-.059-.592-.628a40.992,40.992,0,0,1,2.285-6.727,3.627,3.627,0,0,1,4.307-2.018,3.976,3.976,0,0,1,2.924,3.748A3.706,3.706,0,0,1,75.132,355.543Z" transform="translate(-0.034 -209.264)" fill="#2a2a2a"/>
    <path id="Path_11828" data-name="Path 11828" d="M164.466,59.014a97.929,97.929,0,0,0-19.6,2.124c-18.553,4.032-33.421,13.593-44.072,29.447-.389.578-.651.541-1.2.256a11.41,11.41,0,0,0-13.3,1.8c-1.48,1.381-2.882,2.845-4.316,4.276-2.275,2.271-4.568,4.525-6.813,6.824a3.837,3.837,0,0,0,1.624,6.474A3.906,3.906,0,0,0,80.812,109c3.488-3.512,7-7,10.5-10.506a3.878,3.878,0,0,1,4.225-1.059c.687.22.891.506.49,1.226a73.745,73.745,0,0,0-3.281,6.746A11.388,11.388,0,0,0,95.1,118.316q7.11,7.209,14.32,14.319a11.475,11.475,0,0,0,13.172,2.257c2.276-1.037,4.551-2.078,6.745-3.283.483-.265.706-.169.957.291a3.915,3.915,0,0,1-.852,4.831c-3.56,3.577-7.148,7.126-10.693,10.718a3.839,3.839,0,0,0,5.4,5.461c3.8-3.749,7.609-7.486,11.3-11.339a11.307,11.307,0,0,0,1.57-13.4c-.414-.726-.25-.956.362-1.369a67.432,67.432,0,0,0,26.631-34.539,92.356,92.356,0,0,0,4.746-26.159c0-.932,0-1.864,0-2.8C168.773,60.586,167.186,58.98,164.466,59.014ZM158.533,83.5a61.436,61.436,0,0,1-18.29,31.287,69.979,69.979,0,0,1-8.38,6.477c-.544.363-.828.292-1.261-.15-2.09-2.137-4.194-4.262-6.339-6.344a3.835,3.835,0,0,0-6.507,1.689,3.75,3.75,0,0,0,1.084,3.792c1.609,1.619,3.216,3.24,4.845,4.838.4.392.462.59-.118.849-1.493.665-2.945,1.427-4.451,2.06a3.556,3.556,0,0,1-4.111-.719c-3.657-3.613-7.268-7.273-10.9-10.915a1.348,1.348,0,0,1,.036-1.115c.852-2,1.807-3.951,2.819-5.874a.792.792,0,0,1,.472-.449,4.618,4.618,0,0,0,2.859,1.426,3.736,3.736,0,0,0,3.7-2.109,3.78,3.78,0,0,0-.574-4.305c-.637-.719-1.319-1.4-1.981-2.093a14.706,14.706,0,0,1,2.33-3.616,66.329,66.329,0,0,1,8.366-9.4c.3-.286.567-.861,1.163-.426a2.9,2.9,0,0,1-.676,1.465,11.311,11.311,0,1,0,20.929,7.447,11.2,11.2,0,0,0-9.625-12.905,10.678,10.678,0,0,0-6.037.825c-.365.167-.726.457-1.177.237-.133-.5.266-.682.561-.9a66.081,66.081,0,0,1,19.155-9.752,82.262,82.262,0,0,1,12.946-2.992c.373-.056.76-.212,1.1.1A64.237,64.237,0,0,1,158.533,83.5Z" transform="translate(-11.537)" fill="#dd1928"/>
    <path id="Path_11829" data-name="Path 11829" d="M216.267,111.076c-.462-.061-.679.3-.952.557a70.378,70.378,0,0,0-10.515,12.43,5.556,5.556,0,0,1-.427.507c-1.691-1.663-3.371-3.338-5.081-4.982-.4-.383-.107-.613.072-.89a62.44,62.44,0,0,1,9.877-11.9c9.186-8.571,20.143-13.513,32.392-15.813A90.011,90.011,0,0,1,253,89.617c.708-.041.871.162.816.838a36.82,36.82,0,0,1-.405,4.206,82.177,82.177,0,0,0-13.272,2.9A65.022,65.022,0,0,0,221.65,106.6a6.335,6.335,0,0,0-2,1.6.387.387,0,0,1-.2.4,20.509,20.509,0,0,0-2.752,2.317A.56.56,0,0,1,216.267,111.076Z" transform="translate(-104.469 -22.729)" fill="#e2e2e2"/>
    <path id="Path_11830" data-name="Path 11830" d="M180.9,238.1q-1.42,2.944-2.839,5.889a4.467,4.467,0,0,0-.489,1.548c-1.206-1.193-2.436-2.363-3.612-3.585a3.57,3.57,0,0,1-.772-4.011c.7-1.744,1.549-3.427,2.282-5.024Z" transform="translate(-85 -129.176)" fill="#e2e2e2"/>
    <path id="Path_11831" data-name="Path 11831" d="M258.429,160.6a16.4,16.4,0,0,1,3.381-2.882,11.755,11.755,0,0,1,10.835-.215,11.609,11.609,0,0,1,6.268,12.166,11.483,11.483,0,0,1-10.009,9.641,11.022,11.022,0,0,1-11.233-5.386c-2.524-4.067-2.362-8.281.114-12.386C257.98,161.212,258.213,160.911,258.429,160.6Z" transform="translate(-146.631 -72.252)" fill="#dd1928"/>
    <path id="Path_11832" data-name="Path 11832" d="M293.746,190.209a3.855,3.855,0,0,1-3.844,3.864,3.914,3.914,0,0,1-3.858-3.874,3.847,3.847,0,0,1,3.867-3.832A3.793,3.793,0,0,1,293.746,190.209Z" transform="translate(-169.058 -94.6)" fill="#fefefe"/>
  </g>
</svg>
