<svg xmlns="http://www.w3.org/2000/svg" width="92.605" height="98.769" viewBox="0 0 92.605 98.769">
  <g id="Group_3104" data-name="Group 3104" transform="translate(-70.443 -58.933)">
    <path id="Path_11833" data-name="Path 11833" d="M163.017,70.216A11.455,11.455,0,0,0,151.8,58.972q-19.624-.081-39.249,0A11.486,11.486,0,0,0,101.5,68.593a56.237,56.237,0,0,0-.169,7.894,3.856,3.856,0,1,0,7.7,0c.012-1.8,0-3.6,0-5.4,0-2.931,1.506-4.423,4.461-4.423h37.32c3.023,0,4.507,1.472,4.508,4.475q0,23.337,0,46.674c0,4.211-.008,8.422.005,12.633a3.869,3.869,0,0,1-1.356,3.162,3.628,3.628,0,0,1-4.049.6,3.74,3.74,0,0,1-2.314-3.678c0-10.222.015-20.444-.008-30.666a11.536,11.536,0,0,0-11.569-11.594q-27-.029-54,0a11.54,11.54,0,0,0-11.564,11.6c-.018,15.4-.043,30.8.015,46.192.019,4.925,2.437,8.473,6.858,10.613a25.37,25.37,0,0,0,2.957,1.022h41.854c.079-.188.256-.149.406-.18a11.449,11.449,0,0,0,9.146-8.136,17.694,17.694,0,0,0,.458-6.024c-.016-.83.141-1.123,1.066-1.116,6.171.047,12.344.066,18.515.008a11.493,11.493,0,0,0,11.28-11.286Q163.078,100.593,163.017,70.216Zm-38.547,33.295q-.022,20.968-.007,41.936c0,3.074-1.465,4.54-4.538,4.54q-16.051,0-32.1,0c-.32,0-.641-.021-.962-.031a4.376,4.376,0,0,1-1.227-3.323c-.111-2.106-.048-4.22-.022-6.33,0-.363-.043-.8.44-.961a.768.768,0,0,1,.325.345c.839,1.774,2.309,2.319,4.177,2.31,7.161-.033,14.321-.013,21.482-.014.289,0,.578,0,.867-.016a3.55,3.55,0,0,0,.038-7.1c-.385-.028-.77-.019-1.156-.019-7,0-14,.028-21-.019-1.964-.013-3.551.462-4.447,2.359a.524.524,0,0,1-.36.3c-.394-.244-.384-.652-.386-1.029q-.035-5.733,0-11.467a1.192,1.192,0,0,1,.346-1.055c.4.037.479.4.626.659a3.678,3.678,0,0,0,3.412,1.954c1.188.016,2.376.005,3.564.006h18.3a11.272,11.272,0,0,0,1.347-.041,3.539,3.539,0,0,0-.056-7.059,12.537,12.537,0,0,0-1.348-.035c-7,0-14,.028-21-.019-1.964-.013-3.551.461-4.447,2.358a.527.527,0,0,1-.359.3c-.395-.243-.384-.652-.387-1.029q-.035-5.734,0-11.467a1.2,1.2,0,0,1,.346-1.055c.4.035.479.394.627.658a3.678,3.678,0,0,0,3.412,1.955c1.188.016,2.376.006,3.565.006q9.152,0,18.3,0a11.217,11.217,0,0,0,1.347-.041,3.539,3.539,0,0,0-.058-7.06,11.61,11.61,0,0,0-1.251-.034c-7.033,0-14.066.032-21.1-.02-2.015-.015-3.6.516-4.493,2.448a.677.677,0,0,1-.2.2c-.521-.119-.469-.565-.473-.923-.028-2.148-.1-4.3.026-6.445a4.258,4.258,0,0,1,1.221-3.237c1.927-.011,3.855-.031,5.782-.031q15.666,0,31.332,0h1.152C124.212,98.5,124.472,101.016,124.469,103.511Zm8.258,31.054c-.4,0-.614-.094-.552-.532a2.041,2.041,0,0,0,0-.289q0-16.866,0-33.732a3.856,3.856,0,1,1,7.706-.035q.015,8.047,0,16.095c0,4.594.014,9.188-.008,13.782a14.575,14.575,0,0,0,.661,4.7C137.862,134.557,135.294,134.55,132.727,134.564Z" fill="#dd1928"/>
    <path id="Path_11834" data-name="Path 11834" d="M108.32,246.395a49.6,49.6,0,0,0-.118,5.08,10.4,10.4,0,0,0,.975,5.5c-1.671.009-3.343.067-5.011.015a3.8,3.8,0,0,1-3.669-3.941c-.016-4.853-.006-9.706-.006-14.559q0-15.524,0-31.047c0-2.946,1.5-4.44,4.446-4.438,1.413,0,2.827.02,4.24.031-1.62,3.419-.859,7.031-.857,10.582a2.583,2.583,0,0,1,0,1.916,3.911,3.911,0,0,0-.11.652q-.01,6.105,0,12.21a3.912,3.912,0,0,0,.11.652,2.583,2.583,0,0,1,0,1.916,3.911,3.911,0,0,0-.11.652q-.01,6.105,0,12.21a3.912,3.912,0,0,0,.11.652A2.583,2.583,0,0,1,108.32,246.395Z" transform="translate(-22.318 -107.022)" fill="#e2e2e2"/>
    <path id="Path_11835" data-name="Path 11835" d="M130.608,237.812a3.974,3.974,0,0,1,0-1.916,3.837,3.837,0,0,1,4.039-2.9q11.277-.005,22.553,0a3.866,3.866,0,1,1,0,7.711q-11.277.008-22.553,0A3.841,3.841,0,0,1,130.608,237.812Z" transform="translate(-44.606 -129.299)" fill="#2a2a2a"/>
    <path id="Path_11836" data-name="Path 11836" d="M130.608,297.812a3.975,3.975,0,0,1,0-1.917,3.837,3.837,0,0,1,4.039-2.9q11.277-.005,22.553,0a3.866,3.866,0,1,1,0,7.711q-11.277.008-22.553,0A3.841,3.841,0,0,1,130.608,297.812Z" transform="translate(-44.606 -173.869)" fill="#2a2a2a"/>
    <path id="Path_11837" data-name="Path 11837" d="M130.608,357.812a3.975,3.975,0,0,1,0-1.917,3.837,3.837,0,0,1,4.039-2.9q11.277-.005,22.553,0a3.866,3.866,0,1,1,0,7.711q-11.277.008-22.553,0A3.841,3.841,0,0,1,130.608,357.812Z" transform="translate(-44.606 -218.439)" fill="#2a2a2a"/>
  </g>
</svg>
