<svg xmlns="http://www.w3.org/2000/svg" width="105.37" height="98.769" viewBox="0 0 105.37 98.769">
  <g id="Group_3105" data-name="Group 3105" transform="translate(-58.5 -71.009)">
    <path id="Path_11838" data-name="Path 11838" d="M289.378,322.024q-6.479,0-12.958,0c-2.645,0-4.531-1.75-4.506-4.153A4.161,4.161,0,0,1,276.4,313.8q12.6-.007,25.2,0c3.822,0,5.7-3.017,3.991-6.44-2.578-5.174-5.194-10.328-7.749-15.514a4.469,4.469,0,0,0-4.4-2.747q-7.764.053-15.529,0a4.493,4.493,0,0,0-4.172,2.3,4.1,4.1,0,1,1-7.014-4.233,11.861,11.861,0,0,1,10.528-6.253q8.43-.154,16.865,0a11.466,11.466,0,0,1,10.5,6.267c3.074,5.761,6.041,11.589,8.778,17.516a12.291,12.291,0,0,1-11.153,17.332C297.948,322.055,293.663,322.024,289.378,322.024Z" transform="translate(-150.639 -152.258)" fill="#dd1928"/>
    <path id="Path_11839" data-name="Path 11839" d="M182.6,160.942c2.776,0,5.554-.063,8.328.014a11.82,11.82,0,0,1,10.69,6.493c2.163,4.006,4.122,8.123,6.134,12.209a4.1,4.1,0,1,1-7.367,3.6c-1.9-3.758-3.806-7.517-5.649-11.3a4.515,4.515,0,0,0-4.476-2.793q-7.711.063-15.423,0a4.514,4.514,0,0,0-4.476,2.793c-1.825,3.758-3.717,7.484-5.6,11.215a4.138,4.138,0,0,1-4.344,2.435,4.274,4.274,0,0,1-3.51-3.558,3.748,3.748,0,0,1,.429-2.383c2.028-4.079,3.975-8.2,6.138-12.208a11.828,11.828,0,0,1,10.691-6.494C176.979,160.877,179.791,160.942,182.6,160.942Z" transform="translate(-71.377 -65.243)" fill="#2a2a2a"/>
    <path id="Path_11840" data-name="Path 11840" d="M243.685,79.276c0,1.37.025,2.74-.005,4.11a4.106,4.106,0,0,1-8.211.022q-.055-4.16,0-8.322a4.106,4.106,0,0,1,8.211-.022C243.712,76.467,243.685,77.872,243.685,79.276Z" transform="translate(-128.401)" fill="#dd1928"/>
    <path id="Path_11841" data-name="Path 11841" d="M157.716,106.262a4.153,4.153,0,0,1-2.767,3.935,3.875,3.875,0,0,1-4.575-1.405c-1.651-2.636-3.231-5.326-4.66-8.088a4.067,4.067,0,0,1,7-4.01c1.669,2.623,3.149,5.368,4.684,8.075A2.8,2.8,0,0,1,157.716,106.262Z" transform="translate(-63.008 -17.443)" fill="#dd1928"/>
    <path id="Path_11842" data-name="Path 11842" d="M322.879,99.207a4.142,4.142,0,0,1-.6,2.147c-1.331,2.313-2.643,4.637-4,6.933a4.108,4.108,0,1,1-7.125-4.083c1.341-2.386,2.7-4.761,4.109-7.108a4.011,4.011,0,0,1,4.706-1.816A4.129,4.129,0,0,1,322.879,99.207Z" transform="translate(-182.905 -17.477)" fill="#dd1928"/>
    <path id="Path_11843" data-name="Path 11843" d="M114.791,304.2q-4-8.209-8.173-16.334a12,12,0,0,0-11.269-6.921c-5.383-.043-10.767-.052-16.149,0-5.033.051-8.913,2.289-11.116,6.8-3.259,6.68-7.158,13.06-9.582,20.137v3.7c.194.082.176.265.213.428a12.357,12.357,0,0,0,12.61,10.065q16.15,0,32.3,0A12.336,12.336,0,0,0,114.791,304.2Zm-10.82,9.626c-9.324.053-18.649,0-27.974-.006a5.2,5.2,0,0,1-1.28-3.581,7.454,7.454,0,0,1,.811-4.076c2.656-5.329,5.331-10.649,7.985-15.979a2.3,2.3,0,0,1,.714-.984c3.839-.009,7.679-.052,11.517-.01a3.707,3.707,0,0,1,3.4,2.141c2.807,5.557,5.624,11.11,8.336,16.714A4.008,4.008,0,0,1,103.97,313.823Z" transform="translate(0 -152.316)" fill="#dd1928"/>
    <path id="Path_11844" data-name="Path 11844" d="M106.058,311.045c-.837,1.724-1.66,3.456-2.513,5.172-1.907,3.836-3.809,7.675-5.754,11.492a7.928,7.928,0,0,0-.089,7.568,2.653,2.653,0,0,1,.126.388c-1.779.01-3.559.081-5.335.016a4.087,4.087,0,0,1-3.436-6.044c2.106-4.292,4.27-8.556,6.41-12.832.581-1.161,1.145-2.33,1.745-3.48a4.047,4.047,0,0,1,3.818-2.31C102.707,311.009,104.383,311.033,106.058,311.045Z" transform="translate(-21.832 -174.163)" fill="#e2e2e2"/>
  </g>
</svg>
