<svg xmlns="http://www.w3.org/2000/svg" width="97.915" height="97.908" viewBox="0 0 97.915 97.908">
  <g id="Group_3106" data-name="Group 3106" transform="translate(-58.5 -58.944)">
    <path id="Path_11845" data-name="Path 11845" d="M58.5,75.784a7.313,7.313,0,0,0,.509-2.081A19.08,19.08,0,0,1,77.584,58.968q29.87-.042,59.741,0A19.04,19.04,0,0,1,156.38,77.976q.071,22.271,0,44.543a19.081,19.081,0,0,1-19.039,19.032c-4.779.032-9.558.011-14.338,0a3.829,3.829,0,1,1-.022-7.643c4.652-.008,9.3,0,13.955,0a11.48,11.48,0,0,0,11.807-11.836q.008-21.841,0-43.683a11.467,11.467,0,0,0-11.764-11.78q-28.484-.008-56.969,0c-.286,0-.572.022-.858.034a2.994,2.994,0,0,1-1.394.249A11.206,11.206,0,0,0,66.431,78.337q0,21.871,0,43.742A11.2,11.2,0,0,0,77.66,133.624a3.27,3.27,0,0,1,1.3.258l25.229.026c1.051,0,2.1-.011,3.154,0a3.8,3.8,0,0,1,3.921,3.92c.02,3.5.029,7.009-.014,10.513-.009.728.19.887.893.878,3.408-.039,6.817-.021,10.226-.017a3.878,3.878,0,0,1,4.147,3.177c.355,1.912-.745,3.584-2.861,4.355a.626.626,0,0,0-.148.114H91.386a3.747,3.747,0,0,1-3.313-4.043,4,4,0,0,1,3.992-3.856c2.545-.093,5.094-.019,7.641-.029.923,0,1.847,0,2.77,0,.6,0,.867-.267.866-.869q0-2.674,0-5.349c0-.6-.271-.875-.867-.864-.318.006-.637,0-.955,0q-12.036,0-24.072,0A19.572,19.572,0,0,1,59.076,128.19c-.345-1.136-.34-2.315-.576-3.46Z" transform="translate(0 0)" fill="#dd1928"/>
    <path id="Path_11846" data-name="Path 11846" d="M101.3,156.282a11.6,11.6,0,0,1-12.182-7.72,11.159,11.159,0,0,1-.632-3.649q0-22.257.01-44.515A11.465,11.465,0,0,1,99.871,89.009c.54-.005,1.081.021,1.621.033a18.226,18.226,0,0,0-4.749,7.577,13.016,13.016,0,0,0-.613,3.83q.016,10.115.008,20.23a1.931,1.931,0,0,0,.111,1.029,2.534,2.534,0,0,1,0,1.9,2.178,2.178,0,0,0-.11,1.124q-.008,10.018,0,20.037a15.584,15.584,0,0,0,4.312,10.768A9.585,9.585,0,0,0,101.3,156.282Z" transform="translate(-22.339 -22.4)" fill="#e2e2e2"/>
    <path id="Path_11847" data-name="Path 11847" d="M220.524,165.324c.322-1.953.676-4.115,1.036-6.277q1.582-9.494,3.168-18.988t3.175-18.986c.121-.72.219-1.447.393-2.155a3.771,3.771,0,0,1,4.39-2.886,3.842,3.842,0,0,1,3.081,4.466q-2.531,15.133-5.076,30.263c-.854,5.107-1.684,10.218-2.538,15.325a3.834,3.834,0,0,1-7.629-.762Z" transform="translate(-120.718 -42.477)" fill="#2a2a2a"/>
    <path id="Path_11848" data-name="Path 11848" d="M118.607,166.033a3.911,3.911,0,0,1,0-1.9,4.048,4.048,0,0,1,1.035-1.8q7.134-7.514,14.273-15.022a3.834,3.834,0,1,1,5.595,5.232c-2.526,2.693-5.084,5.357-7.628,8.033-1.25,1.315-2.482,2.648-3.762,3.933-.44.441-.433.694,0,1.144q5.653,5.891,11.262,11.824a3.907,3.907,0,0,1,.786,4.8,3.784,3.784,0,0,1-6.043.775c-2.81-2.861-5.539-5.8-8.3-8.71q-2.992-3.15-5.985-6.3A4.564,4.564,0,0,1,118.607,166.033Z" transform="translate(-44.696 -64.826)" fill="#2a2a2a"/>
    <path id="Path_11849" data-name="Path 11849" d="M299.2,145.969a3.974,3.974,0,0,1,2.894,1.242c4.826,5.075,9.664,10.14,14.462,15.241a3.8,3.8,0,0,1-.174,5.489q-3.18,3.368-6.371,6.724c-2.609,2.747-5.2,5.508-7.84,8.228a3.834,3.834,0,1,1-5.542-5.286q4.271-4.505,8.562-8.992c.944-.991,1.861-2.009,2.83-2.975.4-.4.429-.647.016-1.075-2.168-2.243-4.3-4.521-6.448-6.782-1.667-1.754-3.354-3.489-5.009-5.254a3.843,3.843,0,0,1,2.621-6.561Z" transform="translate(-176.526 -64.84)" fill="#2a2a2a"/>
  </g>
</svg>
