<svg xmlns="http://www.w3.org/2000/svg" width="277.028" height="143.361" viewBox="0 0 277.028 143.361">
  <g id="Group_4349" data-name="Group 4349" transform="translate(-615 -114.447)">
    <g id="Group_2" data-name="Group 2" transform="translate(615 114.447)">
      <path id="Path_1" data-name="Path 1" d="M267.026,180.494a10.534,10.534,0,0,0,4.784-6.873,9.391,9.391,0,0,0,.2-2.054,8.292,8.292,0,0,0-.08-1.012c-.026-.166-.032-.335-.069-.5l-.107-.488a8.856,8.856,0,0,0-1.8-3.516,9.416,9.416,0,0,0-6.8-3.466c-1.092-.027-2.88.31-1.3,1.546a13.149,13.149,0,0,0,4.78,2.084l.511.131.522.091c.348.059.694.139,1.045.185a19.831,19.831,0,0,0,2.127.155,20.076,20.076,0,0,0,8.426-1.609,17.92,17.92,0,0,0,1.936-.993,19.116,19.116,0,0,0,1.821-1.2c.291-.217.558-.465.836-.7l.415-.356.381-.39.758-.785c.237-.274.471-.552.686-.84a10.632,10.632,0,0,0,1.128-1.813,7.745,7.745,0,0,0,.678-1.955,6.024,6.024,0,0,0,.069-2,7.2,7.2,0,0,0-.587-1.952,13.361,13.361,0,0,0-2.513-3.5c-.535-.519-1.039-1.065-1.61-1.543-.282-.241-.547-.5-.843-.728l-.883-.679a26.227,26.227,0,0,0-7.856-3.969c-.691-.24-1.408-.381-2.111-.564-.716-.119-1.423-.284-2.142-.353-.714-.111-1.434-.136-2.15-.178-.358-.017-.716,0-1.074,0l-.536,0-.534.038c-.354.03-.711.044-1.064.084l-1.055.151a8.525,8.525,0,0,0-1.883.449,2.59,2.59,0,0,0-1.308.923.807.807,0,0,0-.085.763,1.037,1.037,0,0,0,.75.474,10.226,10.226,0,0,0,3.136-.131,9.611,9.611,0,0,0,1.066-.19l1.064-.218a28.39,28.39,0,0,0,14.785-9.241A29.1,29.1,0,0,0,285.286,126a24.434,24.434,0,0,1-3.525,8.688l-.322.5c-.113.164-.235.32-.353.481l-.715.959c-.229.33-.51.612-.764.922l-.787.908q-.42.429-.851.849c-.289.278-.565.573-.877.825-.616.515-1.206,1.07-1.868,1.531a27.448,27.448,0,0,1-8.647,4.4l-1.192.3a11.742,11.742,0,0,1-1.2.269l-1.217.209a8.991,8.991,0,0,1-1.308.147,6.8,6.8,0,0,1-3.026-.481,4.176,4.176,0,0,1-1.555-1.167,3.788,3.788,0,0,1-.829-1.9,4.314,4.314,0,0,1,.166-1.907,4.9,4.9,0,0,1,.82-1.573,5.117,5.117,0,0,1,.611-.656,6.026,6.026,0,0,1,.656-.5,6.823,6.823,0,0,1,1.379-.7,11.285,11.285,0,0,1,2.616-.607l1.242-.146c.415-.033.831-.039,1.246-.059a22.933,22.933,0,0,1,4.937.394c.815.12,1.6.354,2.4.551.777.258,1.565.476,2.316.794A27.457,27.457,0,0,1,279,141.184a30.506,30.506,0,0,1,3.933,2.793,34.36,34.36,0,0,1,3.442,3.351,16.7,16.7,0,0,1,2.738,4.086,9.079,9.079,0,0,1,.721,2.475,8.267,8.267,0,0,1-.074,2.609,12.111,12.111,0,0,1-2.042,4.579c-.232.34-.482.665-.737.986s-.54.611-.811.918l-.411.456-.446.419c-.3.275-.59.567-.9.833a22.635,22.635,0,0,1-4.062,2.739c-.359.2-.739.353-1.108.531l-.559.258c-.187.084-.383.147-.574.222l-1.157.428-1.187.339c-.2.053-.4.119-.6.161l-.606.123c-.406.076-.808.177-1.218.23a20.7,20.7,0,0,1-2.475.224,23.064,23.064,0,0,1-2.5-.042c-.416-.031-.831-.1-1.246-.146l-.623-.085-.615-.135c-.41-.095-.822-.18-1.229-.285l-1.206-.385a10.569,10.569,0,0,1-1.184-.454l-.586-.248-.291-.128c-.1-.045-.212-.108-.318-.162a7.891,7.891,0,0,1-2.329-1.849,5.081,5.081,0,0,1-.894-1.532,3.8,3.8,0,0,1-.143-2.116,4.108,4.108,0,0,1,.386-1.013,3.871,3.871,0,0,1,.655-.85,4.448,4.448,0,0,1,1.59-.991,6.462,6.462,0,0,1,1.548-.36,7.266,7.266,0,0,1,1.446-.012,11.568,11.568,0,0,1,2.664.491,11.27,11.27,0,0,1,1.253.477c.2.094.408.181.605.283l.581.323a12.9,12.9,0,0,1,3.9,3.5,12.076,12.076,0,0,1,1.728,3.544c.064.211.105.429.157.643a5.583,5.583,0,0,1,.127.648,11,11,0,0,1-.428,5.122,11.721,11.721,0,0,1-2.5,4.325,10.376,10.376,0,0,1-4.036,2.742.419.419,0,0,1-.365-.75Z" transform="translate(-123.645 -126.003)" fill="#ff7803"/>
      <g id="Group_1" data-name="Group 1" transform="translate(0 28.21)">
        <path id="Path_2" data-name="Path 2" d="M135.694,315.944c-3.266-1.115-5.528-3.579-7.461-6.165a35.386,35.386,0,0,1-4.381-8.6,65.127,65.127,0,0,1-3.645-18.884,75.38,75.38,0,0,1,.169-9.676l.739-9.219,1.478-18.438a5.775,5.775,0,0,1,11.513.923,6.408,6.408,0,0,1-.1.708L130.257,264.7l-1.874,9.056a74.523,74.523,0,0,0-1.467,8.7,59.869,59.869,0,0,0,.7,17.644,32.228,32.228,0,0,0,2.761,8.36,21.077,21.077,0,0,0,2.381,3.672,10.919,10.919,0,0,0,3.264,2.741l.1.051a.552.552,0,0,1-.428,1.015Z" transform="translate(-64.874 -203.293)" fill="#ff7803"/>
        <path id="Path_3" data-name="Path 3" d="M188.691,222.309c.811.31,1.823.647,2.774.929.967.3,1.95.558,2.941.808s1.993.455,2.992.687l3.028.56a71.22,71.22,0,0,0,12.317.914c1.03-.04,2.073,0,3.1-.1l3.1-.261c1.032-.1,2.047-.3,3.076-.449l1.542-.24,1.516-.352,3.041-.725,2.974-.973c.5-.168,1-.315,1.49-.5l1.44-.621,2.895-1.246.049-.021a.556.556,0,0,1,.491,1l-2.814,1.572-1.414.789c-.482.24-.981.444-1.471.668l-2.966,1.319-3.065,1.075-1.543.527-1.573.415c-1.053.262-2.1.583-3.165.8l-3.211.607c-1.072.218-2.158.291-3.241.443a75.581,75.581,0,0,1-13.109.372l-3.284-.264c-1.091-.136-2.188-.233-3.28-.406s-2.186-.333-3.279-.549c-1.112-.213-2.149-.434-3.363-.76a3.176,3.176,0,0,1,1.646-6.135,3.052,3.052,0,0,1,.309.1Z" transform="translate(-92.598 -195.098)" fill="#ff7803"/>
        <circle id="Ellipse_1" data-name="Ellipse 1" cx="8.875" cy="8.875" r="8.875" transform="translate(84.964 15.642) rotate(-45)" fill="#ff7803"/>
        <path id="Path_4" data-name="Path 4" d="M133.807,257.076a33.916,33.916,0,0,1-10.572-4.411l-1.24,15.464,2.013.725c2.262.874,4.56,1.638,6.877,2.341l.18-.869Z" transform="translate(-65.682 -208.915)" fill="#ff7803" opacity="0.5" style="mix-blend-mode: multiply;isolation: isolate"/>
        <path id="Path_5" data-name="Path 5" d="M204.752,229.253c.012-.241.057-.474.062-.715.006-.22,0-.441,0-.662a4.25,4.25,0,0,0-.076-.878c-.007-.035-.02-.069-.03-.1-.089-.014-.18-.023-.269-.038l-3.028-.56c-1-.232-2.005-.424-2.992-.687s-1.974-.511-2.941-.808c-.532-.157-1.079-.333-1.6-.51a13.311,13.311,0,0,1,.292,2.12,11.893,11.893,0,0,1-.553,4.146c.145.028.289.058.436.086,1.093.216,2.187.389,3.279.549s2.189.269,3.28.406l3.284.264c.077,0,.153,0,.229.008a3.77,3.77,0,0,0,.275-.6A7.67,7.67,0,0,0,204.752,229.253Z" transform="translate(-96.613 -196.661)" fill="#ff7803" opacity="0.5" style="mix-blend-mode: multiply;isolation: isolate"/>
        <path id="Path_6" data-name="Path 6" d="M179.358,198.249a8.846,8.846,0,0,0-.461,2.808c0,.289.016.575.043.857a29.662,29.662,0,0,1,4.275,3.54,16.555,16.555,0,0,1,2.938,3.87c.088.156.156.328.238.489a8.437,8.437,0,0,0,3.691-.2,21.246,21.246,0,0,0-3.859-7.185A12.552,12.552,0,0,0,179.358,198.249Z" transform="translate(-90.257 -185.414)" fill="#ff7803" opacity="0.75" style="mix-blend-mode: multiply;isolation: isolate"/>
        <path id="Path_7" data-name="Path 7" d="M70.176,208.887c6.2.8,12.438,1.442,18.639,2.183,4.364.522,8.889,1.031,13.024-.711a9.124,9.124,0,0,0,3.955-3.085c3.428-4.856-1.116-8.547-4.338-11.783a62.768,62.768,0,0,0-8.618-7.031,124.508,124.508,0,0,0-15.206-9.09,4.024,4.024,0,0,1-2.01-1.634,1.492,1.492,0,0,1,.044-1.481c.623-.935,1.99-.593,2.994-.166,9.818,4.167,19.664,8.347,28.9,13.681a34.593,34.593,0,0,1,9.162,6.966c2.518,2.919,4.187,6.767,3.736,10.6-.724,6.153-6.373,11.233-11.578,13.971-5.873,3.089-12.878,3.434-19.343,2.589-12.09-1.579-24.4-5.044-36.027-8.636a297.472,297.472,0,0,1-29.7-10.986,1.554,1.554,0,0,1-.764-2.138h0a1.548,1.548,0,0,1,1.67-.812c11.162,2.141,22.646,3.805,33.819,5.81C62.39,207.819,66.276,208.384,70.176,208.887Z" transform="translate(-22.874 -175.657)" fill="#ff7803"/>
      </g>
      <path id="Path_8" data-name="Path 8" d="M278.858,194.383a9.607,9.607,0,0,1,.879.927c.187.232.365.473.534.72.117,0,.234.009.352.007a18.957,18.957,0,0,0,2.83-.127c-.018-.041-.034-.083-.053-.124a11.166,11.166,0,0,0-1.11-2.041,20.906,20.906,0,0,1-2.226.52A6.938,6.938,0,0,1,278.858,194.383Z" transform="translate(-133.428 -155.259)" fill="#ff7803" opacity="0.5" style="mix-blend-mode: multiply;isolation: isolate"/>
      <path id="Path_9" data-name="Path 9" d="M283.7,202.976l.036.164c.037.163.043.332.069.5a8.285,8.285,0,0,1,.08,1.012,11.252,11.252,0,0,1-.066,1.217,12.181,12.181,0,0,0,2.394-.369,10.76,10.76,0,0,0,.065-2.893c-.353.071-.706.152-1.064.2C284.715,202.865,284.211,202.931,283.7,202.976Z" transform="translate(-135.521 -159.085)" fill="#ff7803" opacity="0.5" style="mix-blend-mode: multiply;isolation: isolate"/>
      <path id="Path_10" data-name="Path 10" d="M278.4,149.907c.547.052,1.086.16,1.628.261a31.269,31.269,0,0,0,2.751-1.5q.433-.27.857-.557l-.028-.011c-.75-.318-1.539-.536-2.316-.794-.448-.111-.895-.232-1.345-.34a13.981,13.981,0,0,1-2.967,2.807C277.455,149.8,277.929,149.834,278.4,149.907Z" transform="translate(-132.617 -135.056)" fill="#ff7803" opacity="0.5" style="mix-blend-mode: multiply;isolation: isolate"/>
      <path id="Path_11" data-name="Path 11" d="M288.663,152.832a25.5,25.5,0,0,1,3.1,1.322,11.658,11.658,0,0,0,1.795-1.615c.051-.059.1-.12.147-.181-.229-.145-.458-.292-.694-.429q-.932-.553-1.9-1.047c-.616.515-1.2,1.069-1.867,1.529C289.053,152.556,288.857,152.693,288.663,152.832Z" transform="translate(-137.662 -136.748)" fill="#ff7803" opacity="0.5" style="mix-blend-mode: multiply;isolation: isolate"/>
    </g>
    <text id="Medicineed_" data-name="Medicineed
" transform="translate(699.51 215.808)" fill="#ff7803" font-size="29" font-family="Montserrat-Black, Montserrat" font-weight="800"><tspan x="0" y="0">Medicineed</tspan><tspan font-family="Montserrat-Black"><tspan x="0" y="35"></tspan></tspan></text>
    <line id="Line_1" data-name="Line 1" x2="188.616" transform="translate(702.911 251.768)" fill="none" stroke="#ff7803" stroke-linecap="round" stroke-linejoin="round" stroke-width="1"/>
  </g>
</svg>
