<svg xmlns="http://www.w3.org/2000/svg" xmlns:xlink="http://www.w3.org/1999/xlink" width="614" height="614" viewBox="0 0 614 614">
  <defs>
    <filter id="Ellipse_489" x="0" y="0" width="614" height="614" filterUnits="userSpaceOnUse">
      <feOffset dy="3" input="SourceAlpha"/>
      <feGaussianBlur stdDeviation="7" result="blur"/>
      <feFlood flood-color="#ffcfcf" flood-opacity="0.012"/>
      <feComposite operator="in" in2="blur"/>
      <feComposite in="SourceGraphic"/>
    </filter>
    <linearGradient id="linear-gradient" x1="0.5" x2="0.5" y2="1" gradientUnits="objectBoundingBox">
      <stop offset="0" stop-color="#73b723"/>
      <stop offset="1" stop-color="#d8ee61"/>
    </linearGradient>
    <linearGradient id="linear-gradient-2" x1="0.849" y1="0.263" x2="0.136" y2="1" gradientUnits="objectBoundingBox">
      <stop offset="0" stop-color="#98c9ea"/>
      <stop offset="0.689" stop-color="#026fb2"/>
      <stop offset="1" stop-color="#086eb6"/>
    </linearGradient>
    <linearGradient id="linear-gradient-3" y1="0.063" x2="0.859" y2="0.699" gradientUnits="objectBoundingBox">
      <stop offset="0" stop-color="#d73721"/>
      <stop offset="1" stop-color="#f7d768"/>
    </linearGradient>
    <linearGradient id="linear-gradient-4" x1="0.31" y1="0.31" x2="0.868" y2="0.817" gradientUnits="objectBoundingBox">
      <stop offset="0" stop-color="#d4c883"/>
      <stop offset="1" stop-color="#a1d1a7"/>
    </linearGradient>
  </defs>
  <g id="yii_2" data-name="yii 2" transform="translate(-4121 5044)">
    <g id="Kotlin_2" data-name="Kotlin 2" transform="translate(1485 -625)">
      <g id="magento_2" data-name="magento 2" transform="translate(65 -1543)">
        <g id="django_2" data-name="django 2" transform="translate(-945 -1191)">
          <g id="symfony_2" data-name="symfony 2" transform="translate(-545.879 -694.879)">
            <g id="ruby-on-rails_2" data-name="ruby-on-rails 2" transform="translate(4083 -972)">
              <g id="django_2-2" data-name="django 2">
                <g id="codeigniter_2" data-name="codeigniter 2">
                  <g id="react-native_2" data-name="react-native 2">
                    <g id="laraval_2" data-name="laraval 2">
                      <g transform="matrix(1, 0, 0, 1, -21.12, -18.12)" filter="url(#Ellipse_489)">
                        <circle id="Ellipse_489-2" data-name="Ellipse 489" cx="286" cy="286" r="286" transform="translate(21 18)" fill="#f8f7f7"/>
                      </g>
                      <circle id="Ellipse_488" data-name="Ellipse 488" cx="235" cy="235" r="235" transform="translate(50.879 50.879)" fill="#f3f3f3"/>
                      <circle id="Ellipse_487" data-name="Ellipse 487" cx="182" cy="182" r="182" transform="translate(103.879 103.879)" fill="#eee"/>
                      <path id="Path_19249" data-name="Path 19249" d="M120.818,0A120.818,120.818,0,1,1,0,120.818,120.818,120.818,0,0,1,120.818,0Z" transform="translate(165.061 165.061)" fill="#e9e9e9"/>
                    </g>
                  </g>
                </g>
              </g>
            </g>
          </g>
        </g>
      </g>
    </g>
    <g id="yii" transform="translate(4305.178 -4871.335)">
      <path id="Path_21" data-name="Path 21" d="M219.515,0c17.864,9.1,33.208,32.991,32.439,65.406-2.335,39.94-31.293,74.361-62.8,106.074-1.764-38.676-10.174-63.323-23.3-97.984C153.452,38.572,189.7,1.122,219.515,0Z" transform="translate(-6.458 0)" fill="url(#linear-gradient)"/>
      <path id="Path_22" data-name="Path 22" d="M120.053,175.807c9.593-11.932,16.392-22.559,21.136-32.159,32.5,16.993,24.832,13.82,40.507,31.925q.079.846.15,1.686c1.3,25.1-17.012,83.139-89.122,91.092-4.991-39,11.236-72.26,27.328-92.544Z" transform="translate(-3.628 -5.683)" fill="url(#linear-gradient-2)"/>
      <path id="Path_23" data-name="Path 23" d="M.38,24.924c51.378-20.331,106.674.5,138.6,43.889,3.089,4.2,6.017,8.557,8.779,13.045,4.988,31.843,1.184,49.528-8.525,58.9a187.242,187.242,0,0,0-20.467-8.719c-16.9-6.141-32.506-10.206-54.787-16.8C11.069,100.8-1.979,55.432.38,24.924Z" transform="translate(0 -0.676)" fill="url(#linear-gradient-3)"/>
      <path id="Path_24" data-name="Path 24" d="M151.432,81.28c.337.523.67,1.043,1,1.57l.405.65q1.236,1.987,2.43,4.005l.134.225.214.365.195.337.571.98.039.071.773,1.356.024.039q.838,1.481,1.653,2.977l.067.127.6,1.118.016.029.662,1.244.19.365.369.711.451.875.437.849q.666,1.32,1.316,2.64l.111.218q1.168,2.393,2.279,4.813l.564,1.233.055.123.361.8.421.948.237.547.381.876.273.63.575,1.356.039.1.615,1.474.075.179q.983,2.391,1.9,4.793l.06.148.507,1.345.032.074.294.793q.488,1.32.963,2.644l.123.346c.349.986.693,1.979,1.027,2.965l.107.313c.313.928.615,1.856.916,2.783l.147.456.036.107.475,1.5.019.067.441,1.435.44,1.479.012.032.365,1.249.115.405.221.773c.25.891.5,1.78.734,2.672l.179.666.345,1.316.015.064q.631,2.426,1.194,4.848l.036.167.039.17q.738,3.194,1.36,6.364l.04.21q.954,4.874,1.649,9.793l.008.043q.215,1.5.4,2.99l.051.427.167,1.423v0l.142,1.317.048.436.1,1.043.04.42.015.171.127,1.431c-11.35-14.618-24.91-24.693-41.181-32.574,13.131-25.961,11.287-44.459,8.753-60.937" transform="translate(-5.64 -3.216)" fill="url(#linear-gradient-4)"/>
    </g>
  </g>
</svg>
