<svg xmlns="http://www.w3.org/2000/svg" width="59" height="59" viewBox="0 0 59 59">
  <g id="Group_2816" data-name="Group 2816" transform="translate(-0.412 -0.139)">
    <circle id="Ellipse_371" data-name="Ellipse 371" cx="29.5" cy="29.5" r="29.5" transform="translate(0.412 0.139)" fill="#fadddf"/>
    <g id="Character_2" data-name="Character 2" transform="translate(12.188 12.193)">
      <path id="Subtraction_9" data-name="Subtraction 9" d="M9.495,18.931h0a9.426,9.426,0,0,1-8.284-4.87A9.764,9.764,0,0,1,.1,10.773,9.016,9.016,0,0,1,.306,7.112,9.709,9.709,0,0,1,4.5,1.412,9,9,0,0,1,7.931.128c.046-.007.094-.01.141-.013h0A.643.643,0,0,0,8.469,0h1.961c.138.03.276.057.414.086.28.058.568.116.852.184A9.388,9.388,0,0,1,16.5,3.118a1.356,1.356,0,0,1-.957,2.3,1.387,1.387,0,0,1-1.005-.45,7.267,7.267,0,0,0-1.754-1.391l.094.381c.13.522.253,1.014.336,1.52a18.666,18.666,0,0,1,.264,2.347c.007.231.078.3.3.3h.007c.53-.006,1.115-.008,1.843-.008h1.842a1.361,1.361,0,0,1,1.476,1.5,9.476,9.476,0,0,1-8.519,9.268C10.118,18.916,9.8,18.931,9.495,18.931ZM8.387,10.819H8.374a.2.2,0,0,0-.158.048.225.225,0,0,0-.029.181c.024.206.043.416.06.6.025.276.051.561.092.842a10.585,10.585,0,0,0,.937,3.291c.01.021.02.044.031.068.037.087.08.184.161.191h.012c.1,0,.142-.1.178-.192.01-.026.02-.048.03-.069a12.8,12.8,0,0,0,1.091-4.768.193.193,0,0,0-.03-.151.173.173,0,0,0-.135-.04H10.6c-.137,0-.281,0-.455,0H8.879c-.188,0-.34,0-.478-.007Zm5.871,0c-.729,0-.729,0-.8.737,0,.026-.006.051-.009.076v.008c0,.027-.007.054-.01.082a18.818,18.818,0,0,1-.674,3.659,6.881,6.881,0,0,0,3.347-4.563Zm-11.185,0c-.091,0-.141.013-.165.044s-.022.1,0,.2a6.761,6.761,0,0,0,1.706,3.095A6.415,6.415,0,0,0,6.194,15.37,18.427,18.427,0,0,1,5.487,11.1c-.009-.212-.074-.276-.28-.276H5.188c-.331.007-.68.011-1.037.011s-.7,0-1.057-.01ZM4.162,8.113c.4,0,.7,0,.988.013H5.18c.253,0,.3-.106.311-.343a17.242,17.242,0,0,1,.394-2.974c.058-.259.119-.516.184-.789l.01-.043q.047-.2.1-.407A6.88,6.88,0,0,0,2.85,8.118h.132l.537,0h.01Zm5.908,0c.179,0,.314,0,.436.007h.047c.1,0,.163-.017.2-.058a.262.262,0,0,0,.029-.214c-.024-.156-.036-.318-.047-.475-.008-.113-.017-.242-.032-.364A12.04,12.04,0,0,0,9.762,3.3c-.014-.032-.028-.066-.042-.1l0,0c-.051-.132-.109-.282-.227-.287h0c-.123,0-.182.15-.233.281-.014.036-.027.069-.041.1a13.272,13.272,0,0,0-1.027,4.65.184.184,0,0,0,.03.143.2.2,0,0,0,.15.039h.012c.136,0,.286,0,.485,0h.6l.306,0h.305Z" transform="translate(0 0)" fill="#dd1928" stroke="rgba(0,0,0,0)" stroke-miterlimit="10" stroke-width="1"/>
      <path id="Path_11151" data-name="Path 11151" d="M430.687,65.322a1.552,1.552,0,0,1-1,.963,1.324,1.324,0,0,1-1.694-1.253,4.1,4.1,0,0,0-3.558-4.077,11.005,11.005,0,0,0-1.418-.028c-.822-.006-1.645,0-2.471,0-.033.139.086.179.148.241q1.155,1.165,2.318,2.321a1.33,1.33,0,0,1,.38,1.419,1.3,1.3,0,0,1-1.1.926,1.168,1.168,0,0,1-1.059-.322c-1.066-1.054-2.152-2.09-3.171-3.189a4,4,0,0,1,.051-5.285c1-1.053,2.044-2.069,3.079-3.089a1.343,1.343,0,0,1,1.9,1.9c-.682.7-1.384,1.389-2.076,2.085a.611.611,0,0,0-.222.288c.73,0,1.446,0,2.161,0a8.99,8.99,0,0,1,2.715.232A6.709,6.709,0,0,1,430.617,64c.012.064-.006.138.071.176Z" transform="translate(-396.04 -53.077)" fill="#2a2a2a"/>
      <path id="Path_11152" data-name="Path 11152" d="M567.078,330.4a.4.4,0,0,1,.058-.348v.338A.107.107,0,0,1,567.078,330.4Z" transform="translate(-532.488 -304.619)" fill="#6177da"/>
      <path id="Path_11153" data-name="Path 11153" d="M193.466,291.135a.745.745,0,0,0-.254-.339c-.683-.687-1.374-1.367-2.053-2.059a1.345,1.345,0,1,1,1.906-1.9c.986.975,1.973,1.949,2.939,2.942a4.009,4.009,0,0,1,.026,5.537c-.976,1.015-1.982,2-2.985,2.993a1.333,1.333,0,0,1-1.911-.016,1.348,1.348,0,0,1,.016-1.89c.75-.764,1.513-1.516,2.269-2.274.076-.076.146-.159.265-.29h-2.857a7.884,7.884,0,0,1-2.035-.265,6.8,6.8,0,0,1-4.926-6.495,1.353,1.353,0,0,1,2.7-.024,4.087,4.087,0,0,0,4.162,4.078C191.631,291.138,192.529,291.135,193.466,291.135Z" transform="translate(-183.851 -264.286)" fill="#2a2a2a"/>
      <path id="Path_11159" data-name="Path 11159" d="M376.786,225.564c-.018-.025-.048-.048-.054-.076a4.042,4.042,0,0,0-4.129-3.441q-5.293,0-10.585,0a4.06,4.06,0,0,0-4.173,4.157q0,2.6,0,5.208a4.062,4.062,0,0,0,4.168,4.163c1.229,0,2.457,0,3.686,0,.2,0,.274.032.269.254-.016.744-.011,1.488,0,2.232,0,.173-.042.235-.224.229-.371-.014-.744-.009-1.116,0a1.351,1.351,0,1,0,.008,2.7q2.688.01,5.377,0a1.351,1.351,0,1,0,.011-2.7c-.372-.007-.744-.012-1.116,0-.194.008-.245-.056-.242-.245.01-.721.018-1.443,0-2.164-.008-.266.079-.309.32-.307,1.3.011,2.593.021,3.889,0a4.043,4.043,0,0,0,3.858-3.433c.062-.109-.022-.242.058-.348Zm-2.708,5.917a1.32,1.32,0,0,1-1.286,1.381c-3.065.01-6.129,0-9.194,0a1.478,1.478,0,0,1-.431-1.166q-.043-2.881,0-5.762a1.478,1.478,0,0,1,.431-1.166l6.152-.011c.969,0,1.938,0,2.907,0a1.349,1.349,0,0,1,1.422,1.421Q374.085,228.827,374.078,231.481Z" transform="translate(-342.138 -206.351)" fill="#dd1928"/>
      <path id="Path_11160" data-name="Path 11160" d="M390.87,252.056a3.9,3.9,0,0,0-.346,1.933q.024,2.113,0,4.227a3.906,3.906,0,0,0,.346,1.933c-.586,0-1.172.023-1.757.005a1.32,1.32,0,0,1-1.284-1.314q-.017-2.739,0-5.477a1.319,1.319,0,0,1,1.284-1.314C389.7,252.033,390.284,252.052,390.87,252.056Z" transform="translate(-369.411 -233.644)" fill="#d2d2d2"/>
    </g>
  </g>
</svg>
