<svg xmlns="http://www.w3.org/2000/svg" width="59" height="59" viewBox="0 0 59 59">
  <g id="Group_2817" data-name="Group 2817" transform="translate(-0.406 0.303)">
    <circle id="Ellipse_372" data-name="Ellipse 372" cx="29.5" cy="29.5" r="29.5" transform="translate(0.406 -0.303)" fill="#fadddf"/>
    <g id="Character_2" data-name="Character 2" transform="translate(15.303 15.303)">
      <path id="Subtraction_10" data-name="Subtraction 10" d="M4.545,22.82A1.267,1.267,0,0,1,3.524,22.2L1.656,19.473l-.025-.036A9.118,9.118,0,0,1,0,14.19q0-.941,0-1.882c0-2.49,0-5.064,0-7.626A4.8,4.8,0,0,1,1.018,1.639,4.441,4.441,0,0,1,3.725.077l.044,0H3.78c.057,0,.114,0,.141-.074H4.26a1.453,1.453,0,0,0,.313.035A1.433,1.433,0,0,0,4.885,0h.171a1.04,1.04,0,0,0,.41.112h0A1.97,1.97,0,0,1,5.7.151a4.384,4.384,0,0,1,3.335,3.77,8.536,8.536,0,0,1,.057.989q0,1.133,0,2.267v.04c0,2.23-.006,4.538,0,6.8a9.417,9.417,0,0,1-1.727,5.561c-.383.547-.77,1.114-1.111,1.615l-.08.116q-.3.444-.608.886A1.267,1.267,0,0,1,4.545,22.82ZM5.365,2.439c-.13,0-.191.1-.245.193l-.02.033a3.337,3.337,0,0,0-.551,1.758c0,1.383,0,2.79,0,4.151v.311c0,1.512,0,3.076,0,4.612a8.306,8.306,0,0,0,.724,3.484c.024.053.047.108.07.162a1.5,1.5,0,0,0,.453.684,6.542,6.542,0,0,0,1.023-3.485c.01-1.36.008-2.734.006-4.061V10q0-.708,0-1.414,0-.6,0-1.207c0-.814,0-1.828,0-2.791A2.207,2.207,0,0,0,5.4,2.442Z" transform="translate(9.99 0)" fill="#dd1928" stroke="rgba(0,0,0,0)" stroke-miterlimit="10" stroke-width="1"/>
      <path id="Path_11162" data-name="Path 11162" d="M150.11,415.567a1.25,1.25,0,0,1,.827-.817,1.8,1.8,0,0,1,.421-.041q4.186,0,8.372,0a1.132,1.132,0,0,1,1.224,1.13,1.146,1.146,0,0,1-1.223,1.139q-4.186,0-8.372,0a1.215,1.215,0,0,1-1.249-.9Z" transform="translate(-150.11 -388.2)" fill="#dd1928"/>
      <path id="Path_11163" data-name="Path 11163" d="M150.11,147.275a1.714,1.714,0,0,1,.85-.971,1.417,1.417,0,1,1-.731,1.869c-.033-.076-.037-.168-.119-.217Z" transform="translate(-150.11 -140.006)" fill="#2a2a2a"/>
      <path id="Path_11164" data-name="Path 11164" d="M338.984,64.555a.74.74,0,0,1-.625,0Z" transform="translate(-324.109 -64.554)" fill="#3f5ad2"/>
      <path id="Path_11165" data-name="Path 11165" d="M397.229,207.566a14.074,14.074,0,0,1-4.78,10.177,13.9,13.9,0,0,1-4.562,2.743,1.133,1.133,0,1,1-.809-2.116c.052-.021.106-.04.158-.061a12.028,12.028,0,0,0,6.42-5.756,11.441,11.441,0,0,0,1.3-5.286,1.1,1.1,0,0,1,.613-1.042,1.08,1.08,0,0,1,1.133.05,1.093,1.093,0,0,1,.522.894C397.237,207.3,397.229,207.434,397.229,207.566Z" transform="translate(-368.445 -195.373)" fill="#dd1928"/>
      <path id="Path_11166" data-name="Path 11166" d="M156.432,206.22a1.125,1.125,0,0,1,1.144,1.184,11.5,11.5,0,0,0,.825,4.289,11.705,11.705,0,0,0,6.687,6.714,1.351,1.351,0,0,1,.851.693,1.136,1.136,0,0,1-1.437,1.519,12.512,12.512,0,0,1-2.97-1.513,14.229,14.229,0,0,1-5.978-9.036,11.862,11.862,0,0,1-.247-2.735A1.121,1.121,0,0,1,156.432,206.22Z" transform="translate(-154.91 -195.494)" fill="#dd1928"/>
      <path id="Path_11167" data-name="Path 11167" d="M396.31,414.7c1.437,0,2.875,0,4.312,0a1.11,1.11,0,0,1,1.089.9,1.139,1.139,0,0,1-.6,1.236,1.3,1.3,0,0,1-.6.131q-4.185,0-8.369,0a1.134,1.134,0,0,1-1.2-1.473,1.1,1.1,0,0,1,1.139-.8C393.492,414.7,394.9,414.7,396.31,414.7Z" transform="translate(-372.664 -388.194)" fill="#dd1928"/>
      <path id="Path_11168" data-name="Path 11168" d="M498.051,146.25a1.409,1.409,0,0,1,1.405,1.433,1.419,1.419,0,0,1-2.837-.027A1.4,1.4,0,0,1,498.051,146.25Z" transform="translate(-470.387 -140.064)" fill="#2a2a2a"/>
      <path id="Path_11169" data-name="Path 11169" d="M324.8,411a1.408,1.408,0,0,1,1.41,1.429,1.419,1.419,0,0,1-2.837-.018A1.4,1.4,0,0,1,324.8,411Z" transform="translate(-310.253 -384.772)" fill="#2a2a2a"/>
      <path id="Path_11170" data-name="Path 11170" d="M315.609,110.072q-.577.856-1.152,1.713c-.065.1-.108.107-.18,0a9.671,9.671,0,0,1-2.1-4.242,7.549,7.549,0,0,1-.083-.959c0-3.242,0-6.483,0-9.725a2.263,2.263,0,0,1,3.076-2.21.175.175,0,0,1,.044.034,3.373,3.373,0,0,0-.769,2.285c.007,3,0,6,.006,9a7.686,7.686,0,0,0,1.034,3.848A1.92,1.92,0,0,1,315.609,110.072Z" transform="translate(-299.831 -92.245)" fill="#d2d2d2"/>
    </g>
  </g>
</svg>
