<svg id="angular_js" data-name="angular js" xmlns="http://www.w3.org/2000/svg" width="50" height="50" viewBox="0 0 50 50">
  <g id="java-script">
    <path id="Vector" d="M0,0H50V50H0Z" fill="none"/>
    <path id="Vector-2" data-name="Vector" d="M19.877,44.51a3.276,3.276,0,0,1-.991-.145L6.336,40.756a3.615,3.615,0,0,1-2.6-3.09L.019,4.024A3.629,3.629,0,0,1,3.611,0H36.163a3.574,3.574,0,0,1,2.683,1.2,3.711,3.711,0,0,1,.908,2.821L36.04,37.666a3.615,3.615,0,0,1-2.6,3.09l-12.55,3.609A3.507,3.507,0,0,1,19.877,44.51ZM3.611,3.111a.535.535,0,0,0-.392.166.5.5,0,0,0-.124.394L6.811,37.313a.485.485,0,0,0,.372.436l12.55,3.609a.679.679,0,0,0,.289,0l12.55-3.609a.508.508,0,0,0,.372-.436L36.659,3.671a.549.549,0,0,0-.124-.394.535.535,0,0,0-.392-.166Z" transform="translate(5.124 2.702)" fill="#dd1928"/>
    <path id="Vector-3" data-name="Vector" d="M8.368,22.65a1.645,1.645,0,0,1-.454-.065L1.171,20.64a1.621,1.621,0,0,1,.908-3.112l4.668,1.34V1.621a1.621,1.621,0,1,1,3.242,0V21.008a1.6,1.6,0,0,1-.648,1.3A1.618,1.618,0,0,1,8.368,22.65Z" transform="translate(13.933 12.663)" fill="#292d32"/>
    <path id="Vector-4" data-name="Vector" d="M1.627,22.71A1.636,1.636,0,0,1,.049,21.478a1.616,1.616,0,0,1,1.189-1.967l6.549-1.643V14.195l-4.949.713a1.589,1.589,0,0,1-1.3-.389,1.654,1.654,0,0,1-.562-1.232V2.589A1.608,1.608,0,0,1,2.361.99L9.17.017a1.626,1.626,0,0,1,.454,3.22L4.2,4.015v7.413l4.949-.713a1.589,1.589,0,0,1,1.3.389,1.654,1.654,0,0,1,.562,1.232v6.808a1.636,1.636,0,0,1-1.232,1.578L1.994,22.667A1.9,1.9,0,0,1,1.627,22.71Z" transform="translate(25.051 12.626)" fill="#292d32"/>
    <path id="Vector-5" data-name="Vector" d="M0,0H50V50H0Z" fill="none" opacity="0"/>
  </g>
</svg>
