<svg xmlns="http://www.w3.org/2000/svg" width="55.012" height="55.012" viewBox="0 0 55.012 55.012">
  <g id="Group_6368" data-name="Group 6368" transform="translate(-1136.494 -5387)">
    <g id="Group_6359" data-name="Group 6359" transform="translate(1090.744 5309.25)">
      <path id="Path_15376" data-name="Path 15376" d="M100.762,111.7a7.054,7.054,0,0,1-1.1,2.649,5.665,5.665,0,0,1-4.711,2.367c-4.745.019-9.491.009-14.236,0a1.2,1.2,0,0,1-1.342-.988c-.292-.863-.574-1.73-.865-2.594a1.227,1.227,0,0,0-1.381-1.008q-3.868,0-7.736,0A1.229,1.229,0,0,0,68,113.139c-.3.881-.581,1.766-.88,2.646a1.175,1.175,0,0,1-1.273.937c-4.8.005-9.6.042-14.4-.015a5.639,5.639,0,0,1-5.613-4.755,1.688,1.688,0,0,0-.092-.25V89.569a1.287,1.287,0,0,0,.1-.237,5.658,5.658,0,0,1,4.793-4.622c.642-.1,1.3-.086,1.986-.126,0-.383-.008-.738,0-1.093a5.573,5.573,0,0,1,2.959-5,13.136,13.136,0,0,1,1.981-.742H88.943a1.274,1.274,0,0,0,.236.1A5.652,5.652,0,0,1,93.8,82.641c.1.642.087,1.3.128,1.988.419,0,.809-.007,1.2,0a5.745,5.745,0,0,1,5.373,4.028c.094.3.174.607.261.911ZM73.268,86.91H51.89a3.51,3.51,0,0,0-3.856,3.868q0,7.279,0,14.558c0,1.844-.014,3.689,0,5.533a3.4,3.4,0,0,0,3.461,3.538c4.423.022,8.846,0,13.269.014a.464.464,0,0,0,.533-.381c.2-.65.406-1.3.645-1.933a3.351,3.351,0,0,1,3.162-2.251q4.136-.032,8.273,0a3.359,3.359,0,0,1,3.2,2.278c.225.6.44,1.211.611,1.831.1.362.273.46.639.458,4.333-.013,8.667,0,13-.011a3.427,3.427,0,0,0,3.649-3.626q.012-10.126,0-20.252a3.454,3.454,0,0,0-3.614-3.623c-1.038-.01-2.076,0-3.113,0ZM91.6,84.6c0-.248,0-.442,0-.636,0-2.564-1.373-3.934-3.95-3.934q-14.5,0-28.995,0A3.6,3.6,0,0,0,54.982,84.6Z" fill="#dd1928"/>
      <path id="Path_15377" data-name="Path 15377" d="M70.677,380.614c-1.1-.626-1.16-1.491-.144-2.254l1.549-1.162c-.27-.015-.419-.027-.569-.031a77.628,77.628,0,0,1-17.126-2.038,21.254,21.254,0,0,1-6.069-2.375,5.262,5.262,0,0,1-2.567-3.1V368.58c.114-.276.214-.559.344-.828a1.139,1.139,0,0,1,1.473-.622,1.088,1.088,0,0,1,.636,1.454,1.3,1.3,0,0,0,.529,1.677,11.638,11.638,0,0,0,3.9,1.963,45.058,45.058,0,0,0,10.062,2.05c2.562.249,5.132.407,7.7.591.515.037,1.035.005,1.7.005l-1.281-.96c-.186-.14-.378-.272-.553-.424a1.135,1.135,0,0,1,1.37-1.811c.8.568,1.579,1.172,2.367,1.761.7.525,1.41,1.041,2.1,1.579a1.164,1.164,0,0,1-.015,2.044c-1.581,1.193-3.174,2.37-4.762,3.554Z" transform="translate(0 -247.852)" fill="#dd1928"/>
      <path id="Path_15378" data-name="Path 15378" d="M306.3,369.757c-.6,1.859-2.063,2.849-3.7,3.647a28.618,28.618,0,0,1-7.835,2.348c-2.537.43-5.1.716-7.652,1.055a1.174,1.174,0,0,1-1.441-.949c-.1-.724.352-1.24,1.193-1.343,1.882-.229,3.774-.4,5.647-.685a32.343,32.343,0,0,0,8.82-2.4,12.853,12.853,0,0,0,2.2-1.409,1.066,1.066,0,0,0,.331-1.388,1.105,1.105,0,0,1,.619-1.508,1.146,1.146,0,0,1,1.5.671c.118.254.215.519.322.779Z" transform="translate(-205.536 -247.848)" fill="#dd1928"/>
      <path id="Path_15379" data-name="Path 15379" d="M224.094,182.665c0,1.29,0,2.378,0,3.466a1.154,1.154,0,0,1-.743,1.188,1.119,1.119,0,0,1-1.514-.842,3.208,3.208,0,0,1-.025-.536q0-5.4,0-10.8c0-1.123.364-1.5,1.473-1.488a31.585,31.585,0,0,1,3.754.075,4.473,4.473,0,0,1,3.9,3.982,4.619,4.619,0,0,1-2.737,4.733c-.113.052-.227.1-.42.19.552.541,1.075,1.05,1.594,1.562.395.39.793.777,1.176,1.179a1.15,1.15,0,1,1-1.631,1.608c-.092-.085-.178-.177-.266-.265-1.19-1.19-2.369-2.392-3.58-3.561A4.109,4.109,0,0,0,224.094,182.665Zm.018-2.143c.859,0,1.664.036,2.465-.009a2.271,2.271,0,0,0,2.094-2.092,2.19,2.19,0,0,0-1.63-2.354,23.244,23.244,0,0,0-2.929-.171Z" transform="translate(-150.838 -82.15)"/>
      <path id="Path_15380" data-name="Path 15380" d="M130.5,182.3l2.2-7.324c.046-.154.083-.312.142-.461a1.131,1.131,0,0,1,1.431-.71,1.113,1.113,0,0,1,.736,1.413c-.531,1.819-1.084,3.63-1.628,5.445q-.87,2.9-1.741,5.8c-.2.68-.589,1.017-1.143,1.023a1.184,1.184,0,0,1-1.159-1q-1.67-5.545-3.328-11.092a1.165,1.165,0,0,1,.715-1.605c.654-.2,1.235.168,1.474.957q1.065,3.515,2.12,7.033C130.362,181.914,130.414,182.044,130.5,182.3Z" transform="translate(-68.694 -82.235)"/>
      <path id="Path_15381" data-name="Path 15381" d="M317.841,177.218a3.434,3.434,0,1,1,6.867-.022,3.461,3.461,0,0,1-3.4,3.435A3.426,3.426,0,0,1,317.841,177.218Zm4.554-.024a1.136,1.136,0,0,0-1.1-1.144,1.145,1.145,0,1,0,0,2.289A1.135,1.135,0,0,0,322.395,177.194Z" transform="translate(-233.111 -82.254)"/>
    </g>
  </g>
</svg>
