<svg xmlns="http://www.w3.org/2000/svg" width="59.442" height="59.442" viewBox="0 0 59.442 59.442">
  <g id="Group_6356" data-name="Group 6356" transform="translate(-64.353 -64.858)">
    <path id="Path_15363" data-name="Path 15363" d="M85.995,110.914c-.473-.269-.872-.529-1.3-.72a.666.666,0,0,0-.518.129c-.508.352-.991.739-1.489,1.106-.707.521-1.058.5-1.667-.106-.367-.366-.718-.747-1.113-1.159-.167.144-.3.247-.423.366-1.977,1.974-3.946,3.956-5.934,5.92a.6.6,0,0,0-.143.855,4.739,4.739,0,0,1-1.066,5.782,4.8,4.8,0,0,1-7.781-4.981,4.717,4.717,0,0,1,4.806-3.381,12.405,12.405,0,0,1,2.114.566.7.7,0,0,0,.552-.047q3.193-3.156,6.352-6.347c.025-.026.029-.073.082-.213-.389-.362-.825-.741-1.23-1.15a.95.95,0,0,1-.107-1.437c.384-.534.772-1.068,1.191-1.575a.582.582,0,0,0,.04-.8c-.236-.367-.426-.763-.664-1.2a4.3,4.3,0,0,0-.359.287c-.793.787-1.62,1.545-2.361,2.379a2.226,2.226,0,0,1-2.142.882,1,1,0,0,0-1.235.734,3.727,3.727,0,0,1-4.348,2.017,3.828,3.828,0,1,1,4.45-5.262c.1.214.269.562.4.561.488,0,1.017.226,1.463-.238.981-1.022,1.989-2.018,3-3.007.251-.245.225-.46.191-.786-.124-1.2-.84-1.494-1.912-1.575-1.8-.135-1.85-.245-1.85-2.022,0-1.517,0-3.034,0-4.55,0-.813.254-1.1,1.07-1.219.631-.1,1.269-.156,1.89-.3a.94.94,0,0,0,.5-.452,1.717,1.717,0,0,0-.6-2.433c-.847-.688-1.54-1.564-2.362-2.289-.237-.209-.683-.182-1.034-.261-.487-.11-.623.206-.783.581A3.82,3.82,0,1,1,67.418,80.3a3.733,3.733,0,0,1,4.257,2.2c.2.481.433.66.909.582a2.6,2.6,0,0,1,2.556,1.044c.763.887,1.641,1.675,2.515,2.553.294-.526.576-.979.8-1.46a.647.647,0,0,0-.108-.521c-.374-.541-.787-1.055-1.176-1.586a.98.98,0,0,1,.1-1.528c.393-.4.811-.765,1.247-1.173-.192-.207-.321-.354-.46-.492-1.947-1.948-3.9-3.889-5.837-5.848a.634.634,0,0,0-.9-.148,4.729,4.729,0,0,1-5.773-1.105,4.8,4.8,0,0,1,5.088-7.725,4.721,4.721,0,0,1,3.293,4.867,13.036,13.036,0,0,1-.551,2,.756.756,0,0,0,.059.6c2.087,2.118,4.194,4.216,6.3,6.317a.939.939,0,0,0,.191.088c.375-.386.766-.8,1.175-1.2a.971.971,0,0,1,1.484-.105c.5.362,1.011.716,1.479,1.119a.66.66,0,0,0,.946.041,10.555,10.555,0,0,1,.98-.556c-.944-.94-1.829-1.859-2.758-2.73a1.729,1.729,0,0,1-.652-1.577c.013-.1-.011-.2,0-.3a1.357,1.357,0,0,0-.931-1.663,3.674,3.674,0,0,1-1.782-4.393A3.831,3.831,0,1,1,85.1,72.2c-.216.1-.568.257-.573.4-.021.539-.125,1.248.163,1.593.917,1.1,2,2.063,3.011,3.079a.482.482,0,0,0,.043.042c.36.276,2.126-.391,2.2-.842.109-.669.192-1.342.3-2.012a.968.968,0,0,1,1.086-.948q2.754-.013,5.508,0a.968.968,0,0,1,1.078.958q.149.975.277,1.954c.039.3.183.432.476.579a1.991,1.991,0,0,0,2.82-.742,5.971,5.971,0,0,1,1.223-1.226,2.26,2.26,0,0,0,.871-2.613c-.137-.058-.339-.139-.536-.227a3.825,3.825,0,1,1,5.305-4.3,3.755,3.755,0,0,1-2.167,4.278c-.485.2-.707.429-.612.949a2.971,2.971,0,0,1-1.242,3.012c-.764.627-1.423,1.382-2.166,2.119.462.262.846.512,1.259.7a.64.64,0,0,0,.52-.09c.542-.373,1.057-.785,1.587-1.175a1.006,1.006,0,0,1,1.575.122c.372.362.738.729,1.107,1.093a.731.731,0,0,0,.106.06c.126-.119.27-.247.406-.384q2.922-2.92,5.847-5.838a.631.631,0,0,0,.168-.9,4.724,4.724,0,0,1,1.083-5.776,4.8,4.8,0,0,1,7.726,5.118,4.727,4.727,0,0,1-4.894,3.254,12.794,12.794,0,0,1-1.994-.567.684.684,0,0,0-.549.061c-2.145,2.114-4.272,4.246-6.5,6.474.319.286.621.536.9.81,1.036,1.026,1.041,1.16.151,2.345-.276.367-.538.745-.832,1.1a.539.539,0,0,0-.05.745c.219.327.394.685.624,1.092.92-.922,1.828-1.783,2.676-2.7a1.875,1.875,0,0,1,1.737-.7c.117.017.241-.013.358,0a1.166,1.166,0,0,0,1.432-.813,3.7,3.7,0,0,1,4.388-1.923,3.83,3.83,0,1,1-4.526,5.273c-.1-.227-.288-.585-.445-.59-.534-.018-1.233-.1-1.581.193-1.083.9-2.034,1.968-3.036,2.969a.657.657,0,0,0-.082.087c-.257.376.463,2.106.913,2.178.63.1,1.263.182,1.894.277.745.112,1.022.409,1.025,1.138q.011,2.694,0,5.388a1,1,0,0,1-1,1.159c-.65.1-1.308.162-1.95.3a.933.933,0,0,0-.508.447,1.934,1.934,0,0,0,.7,2.81,7.911,7.911,0,0,1,1.4,1.39,2.016,2.016,0,0,0,1.911.809.7.7,0,0,0,.726-.506,3.83,3.83,0,1,1,.046,2.968c-.2-.5-.456-.643-.92-.565a3,3,0,0,1-3.017-1.235c-.625-.769-1.387-1.427-2.128-2.174-.265.466-.526.866-.717,1.3a.669.669,0,0,0,.135.518c.377.539.79,1.053,1.177,1.585a.979.979,0,0,1-.1,1.487c-.192.2-.389.4-.593.592s-.417.371-.662.588c.16.184.265.319.385.44,1.974,1.977,3.956,3.946,5.919,5.935a.6.6,0,0,0,.856.134,4.738,4.738,0,0,1,5.78,1.073,4.8,4.8,0,0,1-5.1,7.736,4.721,4.721,0,0,1-3.261-4.889,12.75,12.75,0,0,1,.565-1.994.692.692,0,0,0-.053-.551q-3.133-3.174-6.3-6.314a1.257,1.257,0,0,0-.233-.125c-.382.407-.763.841-1.175,1.245a.956.956,0,0,1-1.44.1c-.518-.373-1.036-.748-1.528-1.154a.6.6,0,0,0-.844-.067c-.306.214-.651.374-1.046.6.919.918,1.779,1.825,2.694,2.673a1.873,1.873,0,0,1,.709,1.735c-.014.1.011.2,0,.3a1.238,1.238,0,0,0,.858,1.526,3.686,3.686,0,0,1,1.878,4.355,3.831,3.831,0,1,1-5.278-4.519c.228-.105.589-.286.594-.442.019-.535.1-1.235-.189-1.582-.9-1.083-1.967-2.034-2.969-3.037a.691.691,0,0,0-.087-.082c-.372-.257-2.11.458-2.181.905-.1.65-.184,1.3-.284,1.953a.984.984,0,0,1-1.128.971q-2.694.011-5.388,0a1,1,0,0,1-1.163-1c-.1-.651-.161-1.308-.3-1.95a.924.924,0,0,0-.443-.513,1.917,1.917,0,0,0-2.774.65,18.826,18.826,0,0,1-1.884,1.921,2.65,2.65,0,0,0-.3,1.9,1.212,1.212,0,0,0,.506.276,3.827,3.827,0,1,1-5.141,4.691,3.778,3.778,0,0,1,2.166-4.685c.4-.161.594-.337.521-.767a3.175,3.175,0,0,1,1.315-3.221A29.19,29.19,0,0,0,85.995,110.914Zm-11.058-14.3c.763.115,1.47.242,2.182.323a1.086,1.086,0,0,1,1.026.987,15.653,15.653,0,0,0,2.29,5.546,1.137,1.137,0,0,1-.049,1.479c-.441.561-.858,1.141-1.2,1.6l2.9,2.938c.508-.382,1.073-.792,1.622-1.223a1.1,1.1,0,0,1,1.426-.07,16.038,16.038,0,0,0,5.657,2.331,1.031,1.031,0,0,1,.913.959c.095.745.222,1.486.337,2.233h4.07c.114-.75.243-1.476.331-2.208a1.058,1.058,0,0,1,.952-.99,15.506,15.506,0,0,0,5.548-2.282,1.188,1.188,0,0,1,1.577.086c.536.436,1.1.832,1.566,1.177L109,106.6c-.372-.5-.76-1.055-1.186-1.579a1.19,1.19,0,0,1-.082-1.578,15.57,15.57,0,0,0,2.282-5.549,1.057,1.057,0,0,1,.993-.948c.742-.089,1.479-.22,2.194-.329V92.537c-.744-.111-1.451-.237-2.163-.317a1.086,1.086,0,0,1-1.026-.988,15.643,15.643,0,0,0-2.289-5.546,1.133,1.133,0,0,1,.048-1.478c.442-.559.859-1.139,1.209-1.605l-2.916-2.921c-.516.385-1.1.81-1.665,1.246a1.079,1.079,0,0,1-1.377.04,15.88,15.88,0,0,0-5.656-2.332,1.031,1.031,0,0,1-.916-.956c-.095-.746-.223-1.487-.337-2.237H92.038c-.113.749-.241,1.475-.328,2.205a1.06,1.06,0,0,1-.95.993,15.618,15.618,0,0,0-5.548,2.282,1.191,1.191,0,0,1-1.578-.084c-.535-.435-1.1-.829-1.578-1.181l-2.9,2.908c.382.509.79,1.074,1.221,1.62a1.135,1.135,0,0,1,.074,1.477,15.773,15.773,0,0,0-2.309,5.6,1.06,1.06,0,0,1-.994.948c-.741.091-1.478.224-2.23.341,0,1.285,0,2.5,0,3.717C74.915,96.37,74.927,96.468,74.937,96.614ZM72.038,69.7a2.871,2.871,0,1,0-2.868,2.843A2.883,2.883,0,0,0,72.038,69.7Zm49.814-.018A2.87,2.87,0,1,0,119,72.54,2.883,2.883,0,0,0,121.852,69.682ZM69.173,116.617a2.871,2.871,0,1,0,2.865,2.907A2.882,2.882,0,0,0,69.173,116.617Zm49.766,0a2.871,2.871,0,1,0,2.913,2.859A2.88,2.88,0,0,0,118.938,116.615Zm-48.817-32.6a1.913,1.913,0,1,0-1.875,1.937A1.922,1.922,0,0,0,70.121,84.018Zm0,21.108a1.913,1.913,0,1,0-1.906,1.9A1.921,1.921,0,0,0,70.121,105.126ZM83.5,70.627a1.913,1.913,0,1,0-1.877-1.934A1.925,1.925,0,0,0,83.5,70.627Zm23.025-1.887a1.913,1.913,0,1,0-1.925,1.887A1.924,1.924,0,0,0,106.525,68.739Zm-23,49.792a1.913,1.913,0,1,0,1.925,1.886A1.921,1.921,0,0,0,83.524,118.532Zm21.107,3.825a1.913,1.913,0,1,0-1.932-1.878A1.922,1.922,0,0,0,104.631,122.357Zm17.221-38.338a1.913,1.913,0,1,0-1.877,1.934A1.921,1.921,0,0,0,121.853,84.019ZM119.928,103.2a1.913,1.913,0,1,0,1.925,1.887A1.917,1.917,0,0,0,119.928,103.2Z" transform="translate(0 0)" fill="#dd1928"/>
    <path id="Path_15364" data-name="Path 15364" d="M190.013,179a11.494,11.494,0,1,1-11.5,11.49A11.518,11.518,0,0,1,190.013,179Zm9.576,11.5a9.579,9.579,0,1,0-9.492,9.577A9.59,9.59,0,0,0,199.589,190.5Z" transform="translate(-95.936 -95.92)"/>
    <path id="Path_15365" data-name="Path 15365" d="M222.074,230.536h-1.88v-2.821h-3.838V230.5H214.4c.182-1.706-.333-3.455.47-5.143.555-1.166.986-2.392,1.451-3.6a1.1,1.1,0,0,1,1.185-.793c.518.021,1.037.015,1.555,0a1.025,1.025,0,0,1,1.072.693q.921,2.3,1.834,4.605a1.157,1.157,0,0,1,.1.4C222.077,227.938,222.074,229.21,222.074,230.536Zm-2.378-4.8c-.368-.919-.7-1.808-1.1-2.665-.048-.1-.645-.114-.684-.028-.4.87-.74,1.768-1.109,2.693Z" transform="translate(-126.089 -131.18)"/>
    <path id="Path_15366" data-name="Path 15366" d="M268.792,221.139h1.833v9.525h-1.833Z" transform="translate(-171.797 -131.328)"/>
  </g>
</svg>
