<svg xmlns="http://www.w3.org/2000/svg" width="54.186" height="57.444" viewBox="0 0 54.186 57.444">
  <g id="Group_6355" data-name="Group 6355" transform="translate(-10.001 5.046)">
    <path id="Path_15360" data-name="Path 15360" d="M37.634-5.046Q43.069-1.9,48.5,1.252c2.507,1.451,5.016,2.9,7.552,4.362A5.014,5.014,0,0,1,58.65,4.249a4.7,4.7,0,0,1,2.547,9,.807.807,0,0,0-.624.916c.018,6.682,0,13.365.027,20.047a1.771,1.771,0,0,1-1,1.752c-5.843,3.342-11.664,6.722-17.5,10.076a.638.638,0,0,0-.377.786A4.49,4.49,0,0,1,39.7,51.547a4.409,4.409,0,0,1-5.124.062,4.512,4.512,0,0,1-2.145-4.661c.025-.2.062-.4.1-.64L28.362,43.9q-6.97-4.026-13.945-8.044a1.494,1.494,0,0,1-.832-1.449c.014-6.795.007-13.59.013-20.384,0-.34-.031-.546-.432-.7a4.55,4.55,0,0,1-3.148-4.117,4.58,4.58,0,0,1,2.61-4.532,4.583,4.583,0,0,1,5.188.662c.087.07.17.146.257.217a.586.586,0,0,0,.094.042l3.221-1.857Q28.723-.5,36.058-4.731c.159-.092.3-.209.453-.315ZM54.914,7.571c-.091-.06-.18-.124-.275-.179q-8.6-4.968-17.193-9.942a.657.657,0,0,0-.763.05q-8.5,4.914-17.008,9.812a.568.568,0,0,0-.342.7,4.624,4.624,0,0,1-2.991,5.281.659.659,0,0,0-.512.76q.021,9.716,0,19.433a.863.863,0,0,0,.491.882c3.832,2.19,7.65,4.4,11.473,6.609l5.859,3.379a4.844,4.844,0,0,1,6.862-.009,2.059,2.059,0,0,0,.2-.091q8.624-4.979,17.252-9.952a.7.7,0,0,0,.372-.724q-.01-9.773.006-19.545a.657.657,0,0,0-.534-.754,3.684,3.684,0,0,1-1.037-.541A4.708,4.708,0,0,1,54.914,7.571ZM17.186,8.916A2.47,2.47,0,1,0,14.7,11.355,2.48,2.48,0,0,0,17.186,8.916Zm44.741-.009A2.454,2.454,0,0,0,59.5,6.416a2.47,2.47,0,1,0-.042,4.939A2.451,2.451,0,0,0,61.927,8.907ZM39.553,47.639A2.458,2.458,0,0,0,37.1,45.171a2.47,2.47,0,1,0,0,4.94A2.461,2.461,0,0,0,39.553,47.639Z" fill="#dd1928"/>
    <path id="Path_15361" data-name="Path 15361" d="M140.747,90.06c0,2.752-.012,5.5.009,8.255a1.445,1.445,0,0,1-.807,1.405q-7.175,4.12-14.329,8.275a1.468,1.468,0,0,1-1.626,0q-7.156-4.153-14.331-8.274a1.5,1.5,0,0,1-.827-1.456q.02-8.227,0-16.453a1.54,1.54,0,0,1,.87-1.488q7.13-4.086,14.234-8.217a1.542,1.542,0,0,1,1.724-.008q7.1,4.129,14.233,8.218a1.521,1.521,0,0,1,.862,1.487C140.731,84.557,140.747,87.309,140.747,90.06Zm-2.247-6.6c-.268.142-.447.229-.62.329q-6.121,3.531-12.237,7.072a1.486,1.486,0,0,1-1.669,0q-6.105-3.558-12.235-7.074c-.187-.108-.38-.207-.62-.336-.015.169-.029.258-.029.346,0,4.585,0,9.171-.011,13.756a.653.653,0,0,0,.428.633q5.832,3.358,11.659,6.726c.14.081.289.145.505.252v-.615c0-1.4-.005-2.807,0-4.211a1.165,1.165,0,0,1,1.145-1.312c.665.01,1.093.5,1.1,1.289.006,1.16,0,2.321,0,3.481v1.381c.183-.086.284-.125.378-.178q5.927-3.42,11.857-6.832a.692.692,0,0,0,.351-.731q-.009-5.109,0-10.219Zm-1.147-1.968c-.13-.092-.2-.149-.273-.192q-5.971-3.449-11.938-6.9a.648.648,0,0,0-.758.056q-4.73,2.739-9.465,5.47l-2.657,1.534c.175.118.291.206.416.279q5.873,3.395,11.743,6.794a.7.7,0,0,0,.812-.027q5.6-3.251,11.213-6.481C136.733,81.854,137.018,81.686,137.353,81.49Z" transform="translate(-87.709 -68.233)"/>
    <path id="Path_15362" data-name="Path 15362" d="M242.935,269.568a1.112,1.112,0,0,1-1.115,1.143,1.119,1.119,0,1,1,.009-2.239A1.111,1.111,0,0,1,242.935,269.568Z" transform="translate(-204.733 -242.733)"/>
  </g>
</svg>
