<svg xmlns="http://www.w3.org/2000/svg" width="36.846" height="54.192" viewBox="0 0 36.846 54.192">
  <g id="Group_6358" data-name="Group 6358" transform="translate(-136.294 -75.456)">
    <path id="Path_15367" data-name="Path 15367" d="M153.4,378.961a24.97,24.97,0,0,1-16.506-6.525,1.2,1.2,0,0,1-.244-1.773,1.176,1.176,0,0,1,1.789.05,22.03,22.03,0,0,0,8.734,4.924,22.563,22.563,0,0,0,21.559-4.541c.194-.159.374-.334.57-.49a1.152,1.152,0,0,1,1.658.042,1.126,1.126,0,0,1-.152,1.689,50.2,50.2,0,0,1-4.732,3.393A24.632,24.632,0,0,1,153.4,378.961Z" transform="translate(-0.056 -249.313)"/>
    <path id="Path_15368" data-name="Path 15368" d="M154.147,75.456a24.988,24.988,0,0,1,16.5,6.493c.408.361.7.8.5,1.31a1.734,1.734,0,0,1-.794.817c-.464.228-.883-.058-1.244-.384a23.657,23.657,0,0,0-5.813-3.839,22.978,22.978,0,0,0-24.479,3.474c-.159.141-.316.283-.48.418a1.173,1.173,0,0,1-1.747.006,1.145,1.145,0,0,1,.229-1.724,49.691,49.691,0,0,1,4.64-3.325A24.7,24.7,0,0,1,154.147,75.456Z" transform="translate(0 0)"/>
    <path id="Path_15369" data-name="Path 15369" d="M223.528,219.318a5.766,5.766,0,1,1-5.769-5.777A5.782,5.782,0,0,1,223.528,219.318Zm-2.315.017a3.451,3.451,0,1,0-3.463,3.454A3.463,3.463,0,0,0,221.212,219.335Z" transform="translate(-64.016 -116.771)" fill="#dd1928"/>
    <path id="Path_15370" data-name="Path 15370" d="M178.566,344.975a18.347,18.347,0,0,1-12.167-4.744,1.162,1.162,0,0,1-.255-1.766,1.176,1.176,0,0,1,1.789.031,15.941,15.941,0,0,0,12.377,4.061,15.668,15.668,0,0,0,9.031-3.895c.82-.711,1.439-.784,1.962-.216.541.587.4,1.224-.437,1.962A18.6,18.6,0,0,1,178.566,344.975Z" transform="translate(-24.986 -222.077)"/>
    <path id="Path_15371" data-name="Path 15371" d="M178.91,119.186a18.355,18.355,0,0,1,12.2,4.717c.648.573.749,1.224.287,1.768-.477.563-1.158.552-1.832-.029a16.1,16.1,0,0,0-21.534-.009c-.647.562-1.25.609-1.75.138a1.135,1.135,0,0,1,.1-1.77,18.191,18.191,0,0,1,6.743-3.916A19.259,19.259,0,0,1,178.91,119.186Z" transform="translate(-25.041 -36.98)"/>
    <path id="Path_15372" data-name="Path 15372" d="M304.784,215.832c-1.15,0-2.209,0-3.267,0-.823,0-1.366-.484-1.348-1.178a1.208,1.208,0,0,1,1.342-1.134q4.454-.008,8.908,0a1.164,1.164,0,1,1-.009,2.31c-1.077.007-2.153,0-3.31,0v.655q0,3.673,0,7.346a1.02,1.02,0,0,1-.615,1.08,1.784,1.784,0,0,1-1.138-.04c-.469-.191-.568-.68-.567-1.174.006-2.391,0-4.782,0-7.173Z" transform="translate(-138.579 -116.748)" fill="#dd1928"/>
    <path id="Path_15373" data-name="Path 15373" d="M212.159,166.663c0,1.151-.949,1.7-1.727,1.247a3.913,3.913,0,0,1-.5-.393,9.374,9.374,0,0,0-12.166.024c-.1.087-.2.181-.309.262a1.151,1.151,0,0,1-1.515-1.732,10.572,10.572,0,0,1,4.026-2.43,11.518,11.518,0,0,1,11.537,2.183A4.052,4.052,0,0,1,212.159,166.663Z" transform="translate(-50.118 -74.002)"/>
    <path id="Path_15374" data-name="Path 15374" d="M204.224,311.061a11.759,11.759,0,0,1-7.993-2.88,1.922,1.922,0,0,1-.584-.825,1.029,1.029,0,0,1,.522-1.233,1.2,1.2,0,0,1,1.393.143,16.434,16.434,0,0,0,3.046,1.832,9.082,9.082,0,0,0,9.334-1.558c.09-.072.174-.153.263-.226a1.153,1.153,0,0,1,1.7.02,1.178,1.178,0,0,1-.194,1.734,11.358,11.358,0,0,1-5.851,2.822C205.218,311,204.561,311.027,204.224,311.061Z" transform="translate(-50.149 -194.916)"/>
    <path id="Path_15375" data-name="Path 15375" d="M164.079,219.351c0,1.484.013,2.967,0,4.451-.011.913-.686,1.5-1.441,1.275a1.081,1.081,0,0,1-.859-1.1c-.008-3.083-.013-6.166,0-9.248a1.126,1.126,0,0,1,1.108-1.171,1.155,1.155,0,0,1,1.186,1.224c.024,1.522.007,3.044.007,4.566Z" transform="translate(-21.541 -116.787)" fill="#dd1928"/>
  </g>
</svg>
