<svg xmlns="http://www.w3.org/2000/svg" width="50" height="50" viewBox="0 0 50 50">
  <g id="laraval-development" transform="translate(-951.944 -149.065)">
    <g id="Group_2" data-name="Group 2" transform="translate(964.322 161.07)">
      <path id="laravel-2" d="M25.231,5.879a.411.411,0,0,1,.014.106v5.578a.407.407,0,0,1-.2.353l-4.682,2.7v5.343a.408.408,0,0,1-.2.353l-9.773,5.626a.436.436,0,0,1-.071.029c-.009,0-.018.009-.027.011a.409.409,0,0,1-.208,0c-.011,0-.021-.009-.032-.013a.423.423,0,0,1-.067-.027L.2,20.308a.407.407,0,0,1-.2-.353V3.22a.416.416,0,0,1,.014-.107c0-.012.01-.022.014-.034a.4.4,0,0,1,.026-.063A.38.38,0,0,1,.082,2.98a.414.414,0,0,1,.036-.047A.4.4,0,0,1,.159,2.9.332.332,0,0,1,.2,2.868h0L5.09.054a.408.408,0,0,1,.407,0l4.886,2.813h0a.5.5,0,0,1,.045.035.481.481,0,0,1,.04.031.476.476,0,0,1,.037.048.375.375,0,0,1,.027.036.425.425,0,0,1,.026.063c0,.012.011.022.014.035a.411.411,0,0,1,.014.106V13.673l4.071-2.344V5.985a.411.411,0,0,1,.014-.106c0-.012.01-.023.014-.035a.458.458,0,0,1,.026-.063c.008-.013.019-.024.027-.036a.418.418,0,0,1,.037-.047.391.391,0,0,1,.04-.031.411.411,0,0,1,.045-.035h0L19.749,2.82a.407.407,0,0,1,.407,0l4.886,2.813a.449.449,0,0,1,.046.035c.013.01.027.019.039.031a.475.475,0,0,1,.037.048.307.307,0,0,1,.027.036.4.4,0,0,1,.026.063.291.291,0,0,1,.014.035Zm-.8,5.449V6.69l-1.71.984-2.362,1.36v4.639l4.072-2.344ZM19.545,19.72V15.078l-2.323,1.327-6.635,3.787v4.686ZM.814,3.925v15.8l8.957,5.157V20.193l-4.68-2.648h0a19.143,19.143,0,0,0-.082-.063v0a.387.387,0,0,1-.034-.043.434.434,0,0,1-.031-.04v0a.324.324,0,0,1-.021-.051A.3.3,0,0,1,4.9,17.3h0a.389.389,0,0,1-.008-.059.353.353,0,0,1-.006-.046V6.269L2.524,4.908.814,3.925ZM5.294.877,1.223,3.22l4.07,2.343L9.363,3.22,5.293.877ZM7.411,15.5l2.362-1.36V3.925l-1.71.984L5.7,6.269V16.486ZM19.952,3.642l-4.07,2.343,4.07,2.343,4.07-2.344Zm-.407,5.392-2.362-1.36-1.71-.984v4.639l2.362,1.36,1.71.985ZM10.179,19.488l5.97-3.408,2.984-1.7-4.067-2.342-4.683,2.7L6.115,17.188Z" transform="translate(0 0)" fill="#292d32" stroke="#292d32" stroke-width="1"/>
    </g>
    <path id="Vector" d="M31.977,50H18.023C5.4,50,0,44.6,0,31.977V18.023C0,5.4,5.4,0,18.023,0H31.977C44.6,0,50,5.4,50,18.023V31.977C50,44.6,44.6,50,31.977,50ZM18.023,3.488C7.3,3.488,3.488,7.3,3.488,18.023V31.977C3.488,42.7,7.3,46.512,18.023,46.512H31.977c10.721,0,14.535-3.814,14.535-14.535V18.023C46.512,7.3,42.7,3.488,31.977,3.488Z" transform="translate(951.944 149.065)" fill="#dd1928"/>
  </g>
</svg>
