<svg xmlns="http://www.w3.org/2000/svg" width="50.497" height="50.497" viewBox="0 0 50.497 50.497">
  <g id="php-development" transform="translate(-879.96 -143.816)">
    <path id="php-logo-only-letter" d="M2.389,3.175H6.865A3.472,3.472,0,0,1,9.721,4.3a3.774,3.774,0,0,1,.585,3.042,5.813,5.813,0,0,1-.518,1.729A5.138,5.138,0,0,1,8.719,10.6a3.734,3.734,0,0,1-1.787,1.1,8.267,8.267,0,0,1-1.971.233h-2l-.635,3.158H0ZM4.343,5.069l-1,4.986a1.235,1.235,0,0,0,.2.017h.234a8.824,8.824,0,0,0,2.672-.316Q7.516,9.408,7.884,7.33q.3-1.745-.6-2.011a7.53,7.53,0,0,0-2.222-.249q-.2.016-.384.017H4.326ZM12.951,0h2.305L14.6,3.175h2.071a4.173,4.173,0,0,1,2.539.7q.852.665.5,2.526L18.6,11.934H16.258l1.069-5.286a1.493,1.493,0,0,0-.1-1.18,1.423,1.423,0,0,0-1.153-.349L14.22,5.1l-1.37,6.831H10.545Zm9.24,3.175h4.476A3.472,3.472,0,0,1,29.523,4.3a3.774,3.774,0,0,1,.585,3.042,5.813,5.813,0,0,1-.518,1.729A5.138,5.138,0,0,1,28.521,10.6a3.734,3.734,0,0,1-1.787,1.1,8.267,8.267,0,0,1-1.971.233h-2l-.635,3.158H19.8Zm1.954,1.895-1,4.986a1.235,1.235,0,0,0,.2.017h.234a8.824,8.824,0,0,0,2.672-.316q1.069-.349,1.436-2.427.3-1.745-.6-2.011a7.53,7.53,0,0,0-2.222-.249q-.2.016-.384.017h-.351Z" transform="translate(890.117 161.519)" fill="#292d32"/>
    <path id="Vector" d="M32.294,50.5H18.2C5.449,50.5,0,45.048,0,32.294V18.2C0,5.449,5.449,0,18.2,0H32.294C45.048,0,50.5,5.449,50.5,18.2V32.294C50.5,45.048,45.048,50.5,32.294,50.5ZM18.2,3.523C7.375,3.523,3.523,7.375,3.523,18.2V32.294c0,10.827,3.852,14.679,14.679,14.679H32.294c10.827,0,14.679-3.852,14.679-14.679V18.2c0-10.827-3.852-14.679-14.679-14.679Z" transform="translate(879.96 143.816)" fill="#dd1928"/>
  </g>
</svg>
