<svg id="python-devlopment" xmlns="http://www.w3.org/2000/svg" width="50.053" height="50.053" viewBox="0 0 50.053 50.053">
  <g id="python">
    <path id="Vector" d="M0,0H50.053V50.053H0Z" fill="none"/>
    <path id="Vector-2" data-name="Vector" d="M10.866,44.8a43.072,43.072,0,0,1-6.549-.5,5.047,5.047,0,0,1-4.3-4.984v-12.3a6.2,6.2,0,0,1,6.194-6.194h9.26a3.071,3.071,0,0,0,3.066-3.066V5.464a1.91,1.91,0,0,0-1.648-1.9,39.346,39.346,0,0,0-12.117,0A1.949,1.949,0,0,0,3.128,5.485v7.654A1.576,1.576,0,0,1,1.564,14.7,1.576,1.576,0,0,1,0,13.139V5.485A5.047,5.047,0,0,1,4.3.5,42.953,42.953,0,0,1,17.373.5a5.047,5.047,0,0,1,4.3,4.984v12.3a6.2,6.2,0,0,1-6.194,6.194H6.215a3.071,3.071,0,0,0-3.066,3.066V39.333a1.91,1.91,0,0,0,1.648,1.9,39.346,39.346,0,0,0,12.117,0,1.95,1.95,0,0,0,1.648-1.919V31.659a1.564,1.564,0,1,1,3.128,0v7.654a5.047,5.047,0,0,1-4.3,4.984A42.6,42.6,0,0,1,10.866,44.8Z" transform="translate(14.161 2.649)" fill="#dd1928"/>
    <path id="Vector-3" data-name="Vector" d="M1.564,21.669a1.564,1.564,0,1,1,0-3.128H18.5a1.91,1.91,0,0,0,1.9-1.648,39.346,39.346,0,0,0,0-12.117,1.91,1.91,0,0,0-1.9-1.648H10.845A1.576,1.576,0,0,1,9.281,1.564,1.576,1.576,0,0,1,10.845,0H18.5a5.047,5.047,0,0,1,4.984,4.3,42.953,42.953,0,0,1,0,13.076,5.047,5.047,0,0,1-4.984,4.3Z" transform="translate(23.462 14.182)" fill="#dd1928"/>
    <path id="Vector-4" data-name="Vector" d="M13.139,21.669H5.485A5.047,5.047,0,0,1,.5,17.373,42.953,42.953,0,0,1,.5,4.3,5.047,5.047,0,0,1,5.485,0H22.4a1.576,1.576,0,0,1,1.564,1.564A1.576,1.576,0,0,1,22.4,3.128H5.464a1.91,1.91,0,0,0-1.9,1.648,39.346,39.346,0,0,0,0,12.117,1.91,1.91,0,0,0,1.9,1.648h7.654A1.576,1.576,0,0,1,14.682,20.1,1.558,1.558,0,0,1,13.139,21.669Z" transform="translate(2.628 14.182)" fill="#dd1928"/>
    <path id="Vector-5" data-name="Vector" d="M1.689,3.358A1.784,1.784,0,0,1,0,1.668,1.749,1.749,0,0,1,1.689,0,1.861,1.861,0,0,1,2.857.459a1.78,1.78,0,0,1,.521,1.21A1.768,1.768,0,0,1,1.689,3.358Z" transform="translate(19.854 8.28)" fill="#292d32"/>
    <path id="Vector-6" data-name="Vector" d="M1.689,3.379A1.784,1.784,0,0,1,0,1.689,1.768,1.768,0,0,1,1.689,0,1.861,1.861,0,0,1,2.857.459a1.78,1.78,0,0,1,.521,1.21A1.8,1.8,0,0,1,1.689,3.379Z" transform="translate(26.82 38.395)" fill="#292d32"/>
    <path id="Vector-7" data-name="Vector" d="M0,0H50.053V50.053H0Z" fill="none" opacity="0"/>
  </g>
</svg>
